<?xml version="1.0" encoding="UTF-8"?>
<svg id="Layer_1" xmlns="http://www.w3.org/2000/svg" version="1.1" viewBox="0 0 1000 1000">
  <!-- Generator: Adobe Illustrator 29.0.0, SVG Export Plug-In . SVG Version: 2.1.0 Build 186)  -->
  <path d="M331.1,440.9l-132-76-5.2,2.2,1.3,111.4c1.8,5.7,32.6,18.9,32.6,21.5-7.2,8-29.7,13.5-32.8,22.9l-.9,108.8,2.3,4.1,134.7-75.5,204.2,117.8v155.5l102.5-58.4v-38.7l36.1,19,98.7-57.7-134.6-78.5-.4-236.3,135-79.1c.4-3-2.2-3.6-4.1-4.9-29.6-19.5-65-34.5-94.6-54.5l-36.1,19v-38.7l-102.5-58.4-.9,156.4-203.2,118Z"/>
  <polygon points="705.8 426.2 706.2 577 808.4 637.6 808.4 518.9 774.2 500 808.4 481.1 808.4 362.4 708.8 420.2 705.8 426.2"/>
  <polygon points="337.4 358 466.7 282.4 466.7 166.5 364.2 224.9 364.2 263.6 329.4 244.1 229.4 301.3 329.6 360.3 337.4 358"/>
  <polygon points="229.4 698.7 329.4 755.9 364.2 736.4 364.2 775.1 466.7 833.5 466.7 717.6 329.6 639.7 229.4 698.7"/>
  <path d="M705.9,900.2c13.2-6.8,26.1-14.3,38.6-22.4l-38.6-20.9v43.3h0Z"/>
  <path d="M711.2,142.1c5.6-2.2,21.1-10.8,34.9-18.9-13-8.5-26.4-16.3-40.2-23.4v43.3c2.2.4,3.4-.3,5.3-1Z"/>
  <path d="M50.6,476.1c-.5,7.9-.6,15.8-.6,23.9s.2,15.6.6,23.3l38.4-23.3c-12.4-7.1-25.5-16.1-38.4-23.9h0Z"/>
  <path d="M364.2,856.9v72.2c1.3.4,2.5.8,3.7,1.2l62.8-36.4-66.5-36.9Z"/>
  <path d="M430.8,106.2l-62.8-36.5c-1.3.4-2.5.8-3.7,1.2v72.2l66.5-36.9h0Z"/>
  <path d="M571,892.9l62.3,37c1.4-.5,2.9-.9,4.3-1.4v-71.6l-66.5,36h0Z"/>
  <path d="M125.1,362.4l-63.5,36.1c-.3,1-.4,2-.7,3.1l64.3,38.2v-77.3Z"/>
  <path d="M125.1,560.2l-64.4,37.4c.2.9.4,1.9.6,2.8l63.8,37.1v-77.3h0Z"/>
  <path d="M637.6,143.1v-71.6c-1.4-.4-2.9-.9-4.3-1.3l-62.3,37,66.5,36h0Z"/>
  <path d="M258,879.4c12.2,7.8,24.8,15,37.9,21.7v-44.2l-37.9,22.5Z"/>
  <path d="M743.6,205.1l64.7,36.9v-69.7c-1.3-1.3-2.6-2.4-4-3.7l-57.8,32.2-3,4.2h0Z"/>
  <path d="M741.8,797.6l62.6,33.8c1.3-1.3,2.7-2.4,4-3.7v-69.7l-66.5,39.5Z"/>
  <path d="M295.9,98.9c-13.3,6.7-26.2,14.1-38.6,22.1l38.6,22.1v-44.2Z"/>
  <path d="M197.1,241.2l61.7-35.1,1.1-3.7-63.6-34.5c-1,.9-1.9,1.7-2.8,2.6l.3,68.7,3.3,1.9h0Z"/>
  <path d="M949.5,521.4c.4-7.1.5-14.2.5-21.4s-.2-14.3-.5-21.4l-36.8,21.4,36.8,21.4Z"/>
  <path d="M257,799.2c2.1-1.5,3.7-1.9,3-5.1l-63.8-35.9-2.5,71.5c1.3,1.2,2.5,2.3,3.9,3.5.7-.4,1.5-.8,2.3-1.2,12.5-5.8,46.6-24.8,57.1-32.8Z"/>
  <path d="M878.5,439.8l61.4-34.9c-.5-2.4-1.1-4.8-1.6-7.2l-59.8-33.4v75.5Z"/>
  <path d="M878.5,635.8l59.8-33.4c.5-2.4,1.1-4.8,1.6-7.2l-61.4-34.9v75.5h0Z"/>
</svg>