<?xml version="1.0" encoding="UTF-8"?>
<svg id="Layer_1" xmlns="http://www.w3.org/2000/svg" version="1.1" viewBox="0 0 1000 1000">
  <!-- Generator: Adobe Illustrator 29.0.0, SVG Export Plug-In . SVG Version: 2.1.0 Build 186)  -->
  <path d="M609.3,471.2c-1.6-7.9,1.8-29.3-1.6-34-2.7-3.7-22.2-11.5-27.1-15.7-6.7-5.8-10.8-22.6-18.1-29-3.6-2.3-26.3,1.3-33.3-.8-8.4-2.5-19.2-12.8-28-16.1-5.2-.5-24.1,15-31.4,16.5-6.4,1.3-30.4-1-32.9.6-4.9,7.9-10.1,22-16.6,28.2-4.1,4-26.7,14.5-27.5,15.9-1.8,10,1.8,25-.6,34.3-1.9,7.6-13.5,19.6-16.1,28-.9,5,14.6,23.7,16.1,29.7,2.4,9.4-1.3,24.2.6,34.3h0c1.1,1.9,23.1,11.7,27.5,16,6.7,6.4,11.3,21,17.4,28.6,4.3,2.9,27.6-.6,35,1.6,6.2,1.9,23.4,15.1,27.4,15.3,9.8-2.9,19.4-12.6,28.9-15.2,9.2-2.5,23.2.6,33-1,5.1-2.7,12.5-23.7,17.6-28.8,4.8-4.7,26.8-13.6,28.7-17.6,2.5-10.3-1-23.1,1-33.2,1.6-7.8,14.1-21.2,15.1-27.7.9-6-13.6-22.3-15.1-29.9Z"/>
  <path d="M236,620.6l53.6-30.8h0c8.9-5,8.9-17.9,0-23-6.2-3.6-8.5-11.4-5.2-17.7l.9-1.8c4.6-8.9-1.8-19.5-11.8-19.5h-62.3c-4.7,0-9,2.5-11.5,6.5l-25.3,42.5c-3.8,6.4-1.7,14.6,4.7,18.3l43.4,25.5c4.1,2.4,9.2,2.4,13.4,0Z"/>
  <polygon points="892.4 419.5 861.1 473.7 920.9 473.7 892.4 419.5"/>
  <polygon points="79.1 473.7 138.2 473.7 139.7 470.8 110.4 419.5 79.1 473.7"/>
  <polygon points="687.3 879.6 656 825.4 626 879.6 687.3 879.6"/>
  <polygon points="626.1 121.9 656 174.6 686.7 123.3 685 120.6 626.1 121.9"/>
  <path d="M374,879.6l-29.2-52.7c-2.9,0-6.6,8-8.1,10.5h0c-6,9.6-17.3,27.2-21.4,36.9-.8,1.8-1.5,3.2-1.1,5.3h59.8Z"/>
  <path d="M314.1,120.4c-.4,2,.4,3.5,1.1,5.3,6.5,15.2,20.4,32.2,28.1,47.4l30.6-52.7h-59.8Z"/>
  <polygon points="343.3 173.1 343.3 173.1 343.3 173.1 343.3 173.1"/>
  <path d="M473.6,920.8v-59.8c-1.7-.3-2.7.2-4.2.8-10.4,4.2-35,19.4-45.2,26-1.4.9-3.8,1.6-3.3,3.8l52.7,29.2Z"/>
  <polygon points="879.6 626 826.9 656.7 879.6 687.3 879.6 626"/>
  <path d="M469.4,138.2c1.5.6,2.5,1.1,4.2.8v-59.8l-52.7,29.2c-.3,2.3,1.8,2.8,3.3,3.8,10,6.6,34.9,21.9,45.2,26Z"/>
  <polygon points="879.6 312.7 826.9 344.7 879.6 374 879.6 312.7"/>
  <polygon points="798.4 704.4 798.4 765.6 851.1 733.6 798.4 704.4"/>
  <polygon points="798.4 295.6 851.1 265 798.4 235.8 798.4 295.6"/>
  <polygon points="200.9 704.4 148.9 735 201.6 764.2 200.9 704.4"/>
  <path d="M150.3,265.1c-.5,1.9,1.1,2.5,2.3,3.3h0c13.8,10,33.7,17.6,48.2,27.3l.7-59.8c-6.1,3.4-50.6,26.3-51.3,29.2Z"/>
  <polygon points="297 798.4 235.8 798.4 267.1 851.1 297 798.4"/>
  <polygon points="765.6 798.4 704.4 798.4 735 851.1 765.6 798.4"/>
  <polygon points="527.8 920.9 580.5 891.7 527.8 861.1 527.8 920.9"/>
  <polygon points="704.4 201.6 765.6 201.6 735 148.9 704.4 201.6"/>
  <polygon points="235.8 201.6 297 201.6 267.1 148.9 235.8 201.6"/>
  <polygon points="121.9 626 121.9 687.3 174.5 656.7 121.9 626"/>
  <polygon points="527.8 138.9 580.5 110.4 527.8 79.1 527.8 138.9"/>
  <polygon points="121.9 374 174.6 342.6 121.9 312.7 121.9 374"/>
  <polygon points="920.9 527.8 861.1 527.8 892.4 580.5 920.9 527.8"/>
  <polygon points="110.4 580.5 140.4 527.8 79.1 527.8 110.4 580.5"/>
  <path d="M332.2,737.8l31-53.5c5.2-8.9-1.3-20-11.6-20s-13-5.6-13.3-12.8h.2v-2.1c-.5-10-11.4-16-20.1-11l-54,31.2c-4.1,2.3-6.6,6.7-6.7,11.4l-.7,49.5c0,7.4,5.8,13.4,13.2,13.5l50.4.4c4.8,0,9.2-2.5,11.6-6.6Z"/>
  <path d="M596.1,824l25.5-43.4c2.4-4.1,2.4-9.2,0-13.4l-30.8-53.6h0c-5.1-9-18-9-23.1,0-3.6,6.2-11.4,8.5-17.7,5.2l-1.8-.9c-8.9-4.6-19.5,1.8-19.5,11.8v62.3c0,4.7,2.5,9,6.5,11.5l42.5,25.3c6.4,3.8,14.6,1.7,18.3-4.7Z"/>
  <path d="M529.6,280.3c.7,1.2,1.7,2.3,2.7,3.2.9.7,1.8,1.4,2.8,1.9.5.3,1,.5,1.6.7,3.5,1.2,7.4,1,11.1-1.1,6.2-3.6,14.1-1.7,17.9,4.4l1.1,1.7c5.4,8.4,17.8,8.2,22.8-.5l31.2-54c1.8-3.1,2.2-6.6,1.4-10-.3-1.1-.7-2.2-1.3-3.2l-24.2-43.2c-.5-.8-1-1.5-1.6-2.2-2.6-3-6.4-4.7-10.3-4.6-2.2,0-4.3.6-6.3,1.7l-43.8,24.9c-.8.4-1.5,1-2.2,1.5-.4.4-.9.8-1.2,1.2-.2.2-.4.4-.6.7-.4.5-.7.9-1,1.4-1.2,2-1.8,4.3-1.8,6.7v61.8c-.2,1.3,0,2.5.3,3.7.2.9.6,1.7,1,2.5h0c0,.3.3.5.4.8Z"/>
  <path d="M404,179.6l-25.5,43.4c-2.4,4.1-2.4,9.2,0,13.4l30.8,53.6h0c5.1,9,18,9,23.1,0,3.6-6.2,11.4-8.5,17.7-5.2l1.8.9c8.9,4.6,19.5-1.8,19.5-11.8v-62.3c0-4.7-2.5-9-6.5-11.5l-42.5-25.3c-6.4-3.8-14.6-1.7-18.3,4.7Z"/>
  <path d="M255,268.3l-.4,50.4c0,4.8,2.5,9.2,6.6,11.6l53.5,31c8.9,5.2,20-1.3,20-11.6s5.6-13,12.8-13.3h2c10-.5,16-11.4,11-20.1l-31.2-54v.2c-2.2-4.1-6.6-6.6-11.3-6.7l-49.5-.7c-7.4,0-13.4,5.8-13.5,13.2Z"/>
  <path d="M220.1,379.4l-43.2,24.2c-6.4,3.6-8.7,11.8-5.1,18.2h0s24.9,43.8,24.9,43.8c2.4,4.2,6.8,6.7,11.6,6.7h61.8c10.3.2,16.7-11,11.6-19.9-3.6-6.2-1.7-14.1,4.4-17.9l1.7-1.1c8.4-5.4,8.2-17.8-.5-22.8l-54-31.2c-4.1-2.3-9.1-2.4-13.2,0Z"/>
  <path d="M764.1,383.1l-53.6,30.8h0c-8.9,5-8.9,17.9,0,23,6.2,3.6,8.5,11.4,5.2,17.7l-.9,1.8c-4.6,8.9,1.8,19.5,11.8,19.5h62.3c4.7,0,9-2.5,11.5-6.5l25.3-42.5c3.8-6.4,1.7-14.6-4.7-18.3l-43.4-25.5c-4.1-2.4-9.2-2.4-13.4,0Z"/>
  <path d="M667.9,265.9l-31,53.5c-5.2,8.9,1.3,20,11.6,20s13,5.6,13.3,12.8h-.2v2.1c.5,10,11.4,16,20.1,11l54-31.2c4.1-2.3,6.6-6.7,6.7-11.4l.7-49.5c0-7.4-5.8-13.4-13.2-13.5l-50.4-.4c-4.8,0-9.2,2.5-11.6,6.6Z"/>
  <path d="M465.5,803.6h0c1-.6,2-1.3,2.8-2.1.4-.4.8-.8,1.2-1.3s.7-.9,1-1.4c.6-1,1-2.1,1.3-3.2,0-.3,0-.6.2-.9,0-.6.2-1.2.2-1.7v-62.7h0c0-2.9-.9-5.5-2.3-7.6-.5-.7-1-1.4-1.6-1.9-.6-.6-1.3-1.1-2-1.6-4-2.6-9.3-3.2-14.1-.4-1.2.7-2.4,1.2-3.6,1.4-.4,0-.8.2-1.2.2-.8,0-1.7,0-2.5,0-4.2-.2-8.2-2.4-10.6-6.2l-1.1-1.7c-.7-1.1-1.5-2-2.3-2.8-6-5.5-16.1-4.3-20.5,3.2l-31.2,54c-2.3,4.1-2.4,9.1,0,13.2l24.2,43.2c.5.8,1,1.5,1.6,2.2,2.6,3,6.4,4.7,10.3,4.6,2.2,0,4.3-.6,6.3-1.7l43.8-24.9Z"/>
  <path d="M745.1,735.3l.4-50.4c0-4.8-2.5-9.2-6.6-11.6l-53.5-31c-8.9-5.2-20,1.3-20,11.6s-5.6,13-12.8,13.3h-2c-10,.5-16,11.4-11,20.1l31.2,54v-.2c2.2,4.1,6.6,6.6,11.3,6.7l49.5.7c7.4,0,13.4-5.8,13.5-13.2Z"/>
  <path d="M780,624.3l43.2-24.2c6.4-3.6,8.7-11.8,5.1-18.2l-24.9-43.8c-2.4-4.2-6.8-6.7-11.6-6.7h-61.8c-10.3-.2-16.7,11-11.6,19.9,3.6,6.2,1.7,14.1-4.4,17.9l-1.7,1.1c-8.4,5.4-8.2,17.8.5,22.8l54,31.2c4.1,2.3,9.1,2.4,13.2,0Z"/>
  <path d="M998.8,501.9l-64.6,113.4-.2,22.8c-7,69.1-44.5,131.8-102.4,170.6l-14.5,8.5-12,20.4c-41.8,57-107.4,92.5-178.5,96h-12.1l-113.9,64.9.2,1.5c.7,0,1.7,0,1.9,0,90.1-.3,174.7-24.4,247.6-66.5h.8l.4-.7c75.3-43.7,138.1-106.4,181.9-181.6h0c42.8-73.8,67.5-159.5,67.6-250.8l-2.3,1.5Z"/>
  <path d="M499.6,998.3l-113.7-64.7h-2.2c-82.7-.6-158.9-44.9-200.4-116.4-.2-.1-.4-.2-.6-.4,0-.1-5.1-3.1-5.1-3.1-68.6-42.6-110.7-117.4-111.3-198.5v-1.3l-7.9-13.6L1.2,500.5l65.8-116,.2-22.8c7-69.1,44.5-131.8,102.4-170.6l14.5-8.5,12-20.4c41.8-57,107.4-92.5,178.5-96h12.1L501,1.1l114.3,65.1h2.2c77.2.6,148.7,39.2,191.6,102.5l8.2,14,11.8,6.8c59.2,39,97.6,102.7,104.8,172.9l.2,21.8,15.1,26,49.9,87.6,2,1.4C1000.5,223.5,777,0,501.2,0h-2.4C223.1.7,0,224.2,0,500s223.6,499.7,499.5,500l.7-1.3h0s-.6-.3-.6-.3Z"/>
</svg>