<?xml version="1.0" encoding="UTF-8"?>
<svg id="Layer_1" xmlns="http://www.w3.org/2000/svg" version="1.1" viewBox="0 0 1200 1200">
  <!-- Generator: Adobe Illustrator 29.0.0, SVG Export Plug-In . SVG Version: 2.1.0 Build 186)  -->
  <path d="M1196.5,665.5c-.8,0-1.4,0-1.9-1h-.7c-.8.7-3.3,4.5-3.6,4.7-1.1.6-8.4.4-9.9.1-2.8-.5-6.1-3.4-9.9-3.2-1.4,0-3.9,2.2-6.1,2.6-2.8.6-6.8-.6-9.4.3-1.4.5-2.4,1.9-4,2.3-2.7.6-18.8,1.2-21.9.8-4.2-.6-9.1-3.1-13.2-2.7-2.8.2-5.3,2.7-7.6,2.9-2.7.2-5.8-1.5-8.9-.7-.5.1-4.5,3.1-6.4,3.4-4.5.8-8.7-1.8-12.5-1.4-1.8.2-9.2,1.2-10.9,1.6-1.9.5-4.3,2.5-6.5,2.4-.2,0-4.4-1.7-4.6-1.8-1.2-.9.4-3.4-4.3-2.9-2.6.3-1.9,1.6-2.5,2-1,.6-12.2,0-14.8.1-2.2.1-4.1.6-6.9.7-6.2.2-8.4.2-14.8,1.2-6.8,1.1-7.9,0-13.7-.5-8.2-.8-22.7,4.5-29.4.3-1-.6-1.1-1.9-1.6-2.2-8-4.8-14.4-2.6-22.6.1-3.7,1.2-4,3.3-9.3,2.4-7.7-1.3-11.7-.8-19.5-.7-8.9.1-13-1.8-23.1-1.1-7.8.6-17.1.3-24.5,1.9-1.3.3-14.3,8.4-16,9.7-2.8,2.1-6.8,6.7-9.7,9.3-.6.6-2.4-.3-1.8,2.3-2-1.7-2.1,3.1-4.1,1.4v2.1s-1.4-.7-1.4-.7v2.1c-.7,0-1.4-.6-2.1-.3-.9.3-9.7,7.8-10,8.6-.5,4.4-.3,9.4-4.2,12.4l-1-1.4c.1,2.2-1.9,1.7-2.6,2.2,0,0,.4,1-.4,2-5,5.9-19.6,8.9-23.7,13.1-1.1,1.1-.7,2.4-1.4,3.5-5.1,8.1-13.1,9.9-20.8,13.8-5,2.5-10,5.3-15,7.8-2.7,1.3-10.8,4.1-12.5,5.4-.7.5-.5,1.8-1.1,2.5-.7.8-2,1-2.4,1.7-.3.4.3,1.8-.7,3.4-3.4,5.1-29.2,13.8-36,16-10.9,3.4-22,5.2-32,9.5-11.8,5.1-28.9,5.8-41.9,8.8-1.8.4-2.9,2.3-4.8,1.1l-.4,2.1c-2.2.4-5.5-1.3-6.2,1.3l-1.7-1.4c0,.3,0,1-.2,1.2-1.5,1-10.7-1.1-13.3-1.2-6.8-.4-13.8,1.8-19.5,1.5-2.4-.1-1.6-1.6-2-1.4l-1.7,1.4c.5-2.9-5.3-.6-6.2-1.4v-2c-1.9,1.2-3-.7-4.8-1.1-13-2.9-30.1-3.6-41.9-8.8-9.9-4.3-20.3-5.9-31-9.2-6.8-2.1-35.1-11.5-37.6-17.2-.4-1,0-2.1-.2-2.6-.4-.7-1.8-.9-2.4-1.7-.6-.7-.4-2-1.1-2.5-1.7-1.3-9.8-4-12.5-5.4-6.9-3.4-14-7.4-20.5-10.7-2.8-1.4-10.3-3.8-12.8-6.9-1-1.3-2.8-6.3-4-7.5-4.1-4.2-18.7-7.2-23.7-13.1-.8-1-.3-1.9-.4-2-.7-.5-2.8,0-2.6-2.2l-1,1.4c-3.9-3-3.6-8-4.2-12.4-.4-.8-9.2-8.3-10-8.6-.7-.2-1.4.3-2.1.3v-2.1s-1.4.7-1.4.7v-2.1c-2,1.7-2.1-3.1-4.1-1.4.6-2.7-1.2-1.8-1.8-2.3-2.9-2.6-6.9-7.2-9.7-9.3-1.7-1.3-14.7-9.4-16-9.7-1.8-.4-3.6,0-5.4-.2-6.3-1-12.6-1.3-19.2-1.8-2.4-.2-5.1-1-7.2-1-4.6,0-8.5,2.7-11.9,2.8-9.4,0-13.8-1.6-23.5,0-8.1,1.4-16.4-8.2-28-4.5-3.9,1.3-6,5.4-10.7,5.9-2.1.2-9.8-.5-12.5-.8-1.3-.1-2.5-1.2-4.2-1.4-7.4-.8-12.9,2-21.3.6-6.3-1-8.6-1-14.8-1.2-3.1-.1-20.7-.3-21.6-.8-.6-.4,0-1.7-2.5-2-4.7-.5-3.1,1.9-4.3,2.9-.2.2-4.4,1.8-4.6,1.8-2.2,0-4.6-1.9-6.5-2.4-1.7-.4-9.1-1.4-10.9-1.6-3.7-.4-7.9,2.2-12.5,1.4-1.9-.3-5.9-3.3-6.4-3.4-3-.7-6.2.9-8.9.7-2.3-.2-4.8-2.6-7.6-2.9-4.1-.4-9,2.2-13.2,2.7-3.1.4-19.2-.1-21.9-.8-1.5-.4-2.5-1.8-4-2.3-2.5-.9-6.6.3-9.4-.3-2.2-.4-4.7-2.6-6.1-2.6-3.8-.1-7.1,2.7-9.9,3.2-1.4.3-8.8.5-9.9-.1-.3-.2-2.8-4-3.6-4.7h-.7c-.5.9-1.1,1-1.9,1,24.3,223.8,171.7,410.7,373,491.6-.4-1.2-.8-2.1-2.5-1.6.5-1.8,1.5-4.8,1.1-6.6-.2-1-2-1-2.4-2.1-.4-1.2,1.3-4.7-.8-5.1v2.1s-2.1-1-2.1-1c1.4.3,2.2-5.5,2.1-6.2,0-.6-1.3-.6-1.7-1.1-.4-.5,0-3-1.1-3.9l1.4-.3c.4-1.9-.4-1-1.4-1.7l1.4-3.1-2.1.7c-.9-2.4,1-2.7,1.2-2.9.1-.3-.5-1-.3-1.1.3-.4,1.5.4,1.2-.8h-1.2c0,0-.3-5.4-.3-5.4h-1.3c0-.1,1.4-1.2,1.4-1.2l-2.1-1-.3,2.8c-3.1-6.3.7-14.4-3.1-21.2l1.4-.6-2.1-2.8,2.8-4.2-4.7-2.8c.9-2.8-.7-5.2-.9-7.5-.2-2.5.5-5,.3-7.2-1.6-16-6.4-17.9-1.6-35.6.9-3.2,2.5-8.4,4-12.1.9-2.3,5-9.5,6.5-11.1.7-.8,3.4-1.4,4.7-2.6.7-.7.5-1.8,1.2-2.4.4-.3,8.6-4.6,9.1-4.7,2.7-.6,4.9-.5,8.2-2.1,1.9-.9,3.3-2.7,4.7-3.6,1.9-1.1-.5,2,1.4,1.4,2-.7,3.3-2.8,5.7-3.3,4-.8,8.9-.3,13-1,11-1.8,26.2-1.8,38.1-1.3,4.3.2,26.4,2.5,29,3.7,1,.4.9,1.8,1.6,1.9,2.7.7,2.5-.7,7.1,1.1,1.4.5,2.5-1.9,2.1,1.7l1-1.4c4.9,1.9,10.8,5.6,16.3,4.8l-.7,1.4c4.4-.2,6.7,5,11.1,2.8v2.1s2.1-1.4,2.1-1.4v1.2c.1,0,1.4-.5,1.4-.5-.1,3.5,2,2.6,3.1,2.9,1,.3.8,2.1,2.9,1.9l-.4,2.1c3.7-1.8,3.2,1.3,4.3,2,.4.3,1.6-.5,2.5-.1,1.3.6,1.4,2.1,1.7,2.2.5.3,1.6-.8,2.6-.3.9.4,2,2.4,3.3,3.1,2.2,1.1,2.7,1.5,4.9,2.7,1.2.7,2.8,0,2.9.2,1.2,1.2,0,1.2,3,3.4,1.3.9,5.5,5.3,6,6.8.6,1.7,0,5.7.7,6.7.3.4,3.1.9,3.5,2.9-.3,1.1-2.5-1.5-2.1.7.5,2.6,2.4,5.9,2.8,8.7l2.1-.7c-.2,2.3-.3,5.6.2,7.8.7,3.2,4.4,5.9,5.1,8.5.3,1-.7,2.8-.4,4,.4,1.7,6.8,13.2,6.8,14,.7,21.9,3.7,44.2,2.9,66.5,0,2.5-1.6,7.5-1.4,9.7.1,1.3,1.8,3.1,2.1,5.6.4,3.7-.7,7.9-.4,11.7.3,4.7,2.4,10.2,2.5,14.7,0,.8,0,1.7,0,2.5,4.1,0,8.3.1,12.5.1s8.3,0,12.4-.1c0-.6,0-1.3,0-1.9.1-4.9,2.2-10.4,2.6-15.4.3-3.9-.9-8.4-.4-12.3.3-2.1,1.9-3.7,2-4.9.3-3.1-.8-13.4-.9-17.9-.5-19.9,1.9-38.8,2.5-58.3,0-.8,6.5-12.3,6.8-14,.3-1.2-.7-3-.4-4,.7-2.6,4.4-5.3,5.1-8.5.5-2.2.4-5.5.2-7.8l2.1.7c.4-2.8,2.3-6.1,2.8-8.7.4-2.2-1.8.4-2.1-.7.4-1.9,3.2-2.5,3.5-2.9.7-1,0-5.1.8-7,.1-.3,3.3-4.7,3.6-5.1.2-.2,3.8-1.7,4.3-2.2.6-.6.5-2.1.9-2.5.1-.1,1.7.5,2.9-.2,2.1-1.3,2.7-1.6,4.9-2.7,1.3-.7,2.3-2.7,3.3-3.1,1-.5,2.1.6,2.6.3.2-.1.4-1.6,1.7-2.2.9-.4,2.1.4,2.5.1,1.1-.7.6-3.8,4.3-2l-.4-2.1c2.1.2,1.9-1.6,2.9-1.9,1-.3,3.2.6,3.1-2.9l1.2.5.5-1.2,1.7,1.4v-2.1c4.4,2.2,6.7-2.9,11.1-2.8l-.7-1.4c1.1,0,2,.6,3.1.4,4.2-.8,9.3-3.7,13.2-5.2l1,1.4v-2.1c2.1,1.6,3.3-1,4.6-1.2,1.2-.2,3,1,4.6.5.7-.2.6-1.5,1.6-1.9,2.5-1.1,24.2-3.4,28.3-3.6,15.1-.7,37.6-.6,51.8,2.2,2.4.5,3.7,2.6,5.7,3.3,1.9.6-.5-2.5,1.4-1.4,1.5.9,2.8,2.7,4.7,3.6,4.6,2.1,13.3,3.2,17.3,6.7.7.6.5,1.8,1.2,2.4,1.2,1.2,3.9,1.9,4.7,2.6,5.3,5.5,7.6,14.8,9.2,22.2.3,1.3,2.7,5.3,3.2,8.7,1.9,11-2.4,17.5-3.5,27.9-.4,3.7-.2,6.5-.8,10.6-.7,4.8,1.8,3.9-4.5,6.9l2.8,4.2-2.1,2.8,1.4.6c-3.8,6.8,0,14.8-3.1,21.2l-.3-2.8-2.1,1,1.4,1h-1.3c0,.1-.3,5.5-.3,5.5h-1.2c-.3,1.2.9.5,1.2.9.1.2-.4.8-.3,1.1.1.3,2,.6,1.2,2.9l-2.1-.7,1.4,3.1c-3.6,1.3,0,1.9,0,2-1.2.8-.7,3.3-1.1,3.9-.4.5-1.6.5-1.7,1.1,0,.7.7,6.5,2.1,6.2l-2.1,1v-2.1c-2.1.5-.5,3.9-.9,5.1-.4,1.1-2.2,1.1-2.4,2.1-.3,1.8.6,4.9,1.1,6.6-2-.7-2.3.3-2.5,1.6,201.4-80.9,348.7-267.7,373-491.5Z"/>
</svg>