<?xml version="1.0" encoding="UTF-8"?>
<svg id="Layer_1" xmlns="http://www.w3.org/2000/svg" version="1.1" viewBox="0 0 1200 1200">
  <!-- Generator: Adobe Illustrator 29.0.0, SVG Export Plug-In . SVG Version: 2.1.0 Build 186)  -->
  <path d="M1195.2,676c-.9-.6-1.8-1.2-3-1.7-7.1-3-16.2-2.1-23.9-6.2-3.1-1.6-5-4.5-9.4-5-4.8-.6-10.6,3.5-14.2,2.4-1-.3-4.2-3.8-6.3-4.8-10.7-4.9-16.8,4.2-25.8,3.6-1.9-.1-5.1-2.3-7.9-2.6-5.3-.6-11.2,1.7-15,1.3-2-.2-2.7-1.8-4.1-2.5-9.1-4.1-9.8,2.5-17.5,3.1-7.9.7-15.1-1.8-22.9-1.3-1.5.1-3.4,1.3-4.7,1.2-1,0-2.5-1.5-3.9-1.9-6.1-2-11.4,1.3-17.1,1.3-2.2,0-4.9-1.1-7.1-1.2-9.2-.6-14.1,3.5-19.6,10.3-2.9-1-6.4-3.1-9.3-3.6-2.4-.4-4.7,0-7-.2-2-.3-3.9-1.4-6.2-1.5-10-.4-13.1,12.3-20.8,16.5-1.8.5-4.4-2.6-6.6-3-7.2-1.5-10.8,3.6-16.7,5.9-2.5,1-5.3,1.1-7.8,2-8.3,3-11.7,10.5-12.3,18.8-4.7,0-10.5-.6-14.2,2.8-1.9,1.8-3.3,6-5.2,7.6-4.2,3.5-15.5-.7-20.5,5.7-1.7,2.2-5.3,13.5-6.6,14.3-6.4-.1-9.9,3.7-14.6,6.3-1.3.7-3.2.8-4.9,1.7-2.4,1.3-4,4.2-6.1,5.7-2.6,1.8-6.4,2.6-9.3,4.4-2.6,1.6-4.9,4.7-6.8,5.6-5.8,2.9-14.5,5.3-20.6,7.5-8.3,3-7.7,10-17.2,10.9-6.6.6-11.1-1.8-16,4.3-1.9,2.4-4.1,8.5-6.7,9.6-6.9,3-15.1-4.2-23.1,1.8-2.4,1.8-6.1,8.5-8,9.1-2.1.6-6.4-2.4-10.8-1.7-5,.8-8.3,5.8-10.1,6.3-1.5.4-2.7-.5-3.8-.4-4.6.3-9.2,2.1-13.7,2.5-5.6.5-10-.9-15.6,1.4-2,.8-4.9,3.5-6.1,3.7-2,.3-6.4-2.3-9-2.5-3.7-.3-6.1,1.9-7.8,2-2.6,0-5.8-3.6-12.3-2.4-5.7,1-10.8,10.2-16,12.8-8.2,4.1-34.1,4.1-42.2,0-5.2-2.6-10.3-11.7-16-12.8-6.5-1.2-9.7,2.5-12.3,2.4-1.7,0-4.1-2.2-7.8-2-2.7.2-7,2.8-9,2.5-1.2-.2-4.1-2.9-6.1-3.7-5.6-2.3-10-.9-15.6-1.4-4.6-.4-9.1-2.1-13.7-2.5-1.1,0-2.2.8-3.8.4-1.8-.5-5.1-5.5-10.1-6.3-4.4-.7-8.7,2.3-10.8,1.7-1.9-.5-5.6-7.3-8-9.1-8-6-16.1,1.2-23.1-1.8-2.6-1.1-4.8-7.3-6.7-9.6-4.9-6.1-9.5-3.6-16-4.3-9.5-.9-8.9-8-17.2-10.9-6.1-2.2-14.8-4.7-20.6-7.5-1.9-1-4.3-4-6.8-5.6-2.9-1.8-6.7-2.6-9.3-4.4-2.2-1.5-3.7-4.3-6.1-5.7-1.7-.9-3.6-1-4.9-1.7-4.7-2.7-8.2-6.5-14.6-6.3-1.3-.8-4.9-12.1-6.6-14.3-5-6.4-16.3-2.2-20.5-5.7-1.9-1.6-3.3-5.8-5.2-7.6-3.7-3.4-9.5-2.9-14.2-2.8-.6-8.3-4-15.8-12.3-18.8-2.4-.9-5.3-1.1-7.8-2-5.9-2.3-9.5-7.4-16.7-5.9-2.1.5-4.8,3.5-6.6,3-7.7-4.2-10.8-17-20.8-16.5-2.3,0-4.2,1.3-6.2,1.5-2.3.3-4.6-.2-7,.2-2.9.5-6.4,2.6-9.3,3.6-5.5-6.7-10.4-10.9-19.6-10.3-2.3.1-4.9,1.2-7.1,1.2-5.7,0-11-3.2-17.1-1.3-1.4.4-2.8,1.9-3.9,1.9-1.3,0-3.2-1.1-4.7-1.2-7.7-.6-14.9,2-22.9,1.3-7.6-.7-8.4-7.2-17.5-3.1-1.4.6-2.2,2.3-4.1,2.5-3.8.4-9.7-1.9-15-1.3-2.8.3-6,2.5-7.9,2.6-9.1.6-15.2-8.5-25.8-3.6-2.2,1-5.3,4.5-6.3,4.8-3.6,1.1-9.4-3-14.2-2.4-4.4.5-6.3,3.4-9.4,5-7.8,4-16.8,3.2-23.9,6.2-1.1.5-2.1,1-3,1.6,29,229.3,187.4,418.3,399.7,491.4-.6-2-.8-4-.5-6.2,1.1-7.2,6.3-11.2-.3-18.6-1.3-1.5-4.9-3.3-5.5-4.9-.7-1.5,0-3.2-.5-4.7-.7-2.7-2.8-6.4-3-8.8-.2-3.7,1.7-18.5,2.6-22.6,1.1-4.8,5.7-9.6,5.6-14.5,0-3.8-4.7-9.4-4.4-11.6.1-.7,3.2-5.3,3.8-6,2.6-2.7,6.4-4.3,9.1-7.9,1.2-1.5,3-5.6,3.8-6.2,3.4-2.7,10.9-4.4,15.1-5.7,2-.6,5.1-2.4,6.5-2.7,2-.4,5.1.7,7.7.6,8-.5,10.7-7,17-10.5,1.1,0,4,3.1,5.3,3.8,5.8,3.1,9.1,0,14.9.1,7.6.2,12.3,5.2,19.5,5,1.5,0,6.2-1.5,6.9-1,.5,1.7,1.7,3.6,2.9,4.9,2.2,2.4,9.4,9.9,11.6,11.6,1.4,1.1,3.1,2,4.9,2.3,2.1.3,4.8-.6,5.8-.4.3,0,5,4.1,5.3,4.5.9,1.2,1.6,4,2.7,5.8,3.8,5.8,9.1,9.7,11.6,17.2,1.6,5-.9,8.8,2.1,14.9,2.1,4.3,8.4,7.1,9.3,10.3.7,2.2.5,5.7,1,8.2,2,9.4,1.6,18.8,3.2,26.8.5,2.3,1.9,7.1,2.6,9.8,2.1,7.9,7.6,17.1,8.1,24.4.2,3.4-2.7,10.3-1.5,14.4,7.3.3,14.7.4,22,.4s14.7-.1,21.9-.4c1.4-4.2-1.7-10.4-1.5-14.4.5-7.3,6.1-16.5,8.1-24.4,3.1-11.9,3.3-24.3,5.9-36.6.5-2.4.3-6,1-8.2,1-3.2,7.2-6,9.3-10.3,3-6.1.5-9.9,2.1-14.9,2.4-7.5,7.8-11.4,11.6-17.2,1.2-1.8,1.8-4.5,2.7-5.8.2-.3,4.9-4.4,5.3-4.5,1-.2,3.7.7,5.8.4,1.8-.2,3.5-1.2,4.9-2.3,2.2-1.7,9.4-9.2,11.6-11.6,1.2-1.3,2.4-3.2,2.9-4.9.7-.5,5.5.9,6.9,1,7.2.2,11.9-4.8,19.5-5,5.8-.2,9.1,3,14.9-.1,1.3-.7,4.2-3.8,5.3-3.8,6.2,3.5,9,10,17,10.5,2.6.2,5.7-.9,7.7-.6,1.4.3,4.5,2.1,6.5,2.7,4.1,1.3,11.7,3,15.1,5.7.8.6,2.6,4.7,3.8,6.2,3.1,4,12.2,9.2,13,13.9.4,2.3-4.3,7.8-4.4,11.6,0,5,4.5,9.7,5.6,14.5.9,4,2.8,18.9,2.6,22.6-.2,2.4-2.2,6.2-3,8.8-.4,1.5.2,3.2-.5,4.7-.7,1.6-4.2,3.4-5.5,4.9-7.8,8.7,1,14.3,0,22.2,0,.4-.4,1.4-.8,2.6,212.4-73.1,370.8-262.1,399.8-491.4Z"/>
</svg>