<?xml version="1.0" encoding="UTF-8"?>
<svg id="Layer_1" xmlns="http://www.w3.org/2000/svg" version="1.1" viewBox="0 0 1200 1200">
  <!-- Generator: Adobe Illustrator 29.0.0, SVG Export Plug-In . SVG Version: 2.1.0 Build 186)  -->
  <path d="M751.2,19.2c-100.1-.2-199.7-.7-299-.9-49.5,12.5-96.5,31.2-140.2,55.1,189.9-1,379.1-2.2,568.1-4.2-40.4-21.4-83.6-38.3-128.9-50.1Z"/>
  <path d="M1028.6,226.4c4.6-.7,3.8,17,17.5,16.5,11.9-.4,20.7-5.6,28.4-10.1-14.1-18.2-29.1-35.5-45.2-51.9-286.7,2.2-574.4,1.3-860.7,2-18.2,18.8-35.2,38.8-50.8,59.9,31.6-2.8,62.2-5.5,87.7-5.5,268.8-.1,566.8,30.5,823.1-11Z"/>
  <path d="M327,165.1c30.9-24.8,70-2.2,109.7-1.8,186.3,1.9,374.3-8.2,562.6-11-19.8-17.6-40.7-34-62.7-48.9-224.8,2.3-449.7,1.2-675.1,1.3-22.7,15.6-44.3,32.6-64.7,51.1,39.7-1.8,79.3-4.4,119.1-7.9l11.1,17.3Z"/>
  <path d="M1093.1,258.1c-201.9,2.8-395.2,4.7-582.8,4.1-47.8-.1-102.9-3.2-146.1,15.3l.4-18.5c-9.9,5-31.2,16.7-41.2,14.3-4-1-5.3-13.8-11-14-69.8-1.6-138.7-1.1-206.6.3-13.7,19.9-26.2,40.6-37.5,62.1,352.2-5.5,704.6-7.7,1057-11.6-9.9-17.9-20.6-35.2-32.2-51.9Z"/>
  <path d="M215.7,569.4c328,1.5,655.5-.6,983.2-6.5-1.1-18.3-3-36.3-5.8-54.1-64.9,1-129.9,1.9-194.9,2.6-276.3,2.8-547.7-5.4-820.2,6.5-11.4.5-33.5-13.3-55.5-11.1-15.9,1.6-32.8,16.4-51,14.5l4.1-18.9c-22.6,9.5-45.8,1.5-68.1,2.6-3.4,21.1-5.6,42.6-6.7,64.3,69.9,0,140.6-.2,214.9.2Z"/>
  <path d="M61.9,651.2c157.9-12,348.5,2.2,517.5,2.1,206.4,0,412.6-1.9,618.7-5.4,1.2-15.8,1.9-31.8,1.9-47.9s0-11.3-.2-16.9c-395.9,6.1-791.4,7.5-1186.3,4.4-4.4.7-8.9,1.4-13.4,2C0,593,0,596.5,0,600,0,616.4.7,632.6,2,648.7c10.1-1.7,19.9-4.1,26.3-4.3,10.6-.4,22.1,7.7,33.6,6.8Z"/>
  <path d="M155.6,735.3c19.9-24.3,44.9.5,66.6-1.4,132.5-11.2,289.8-.5,433.5-7.8,14.3-.7,40.1,17.2,62.4-4.5l-4.1,18.9c37.3-11.1,72.5,7.2,106.2-18.3l-4.1,18.9c44.4-24,88.3-4.4,135-5.6,76.8-2,156.1-3.7,234.6-4.9,4.7-21,8.2-42.4,10.6-64.2-220,3-439.8,4.3-659.2,4.1-117.6-.1-246,.2-363.9-.8-31.5-.3-63.2,6.1-95-1.7l-3.5,18.1c-23.3-4.7-46.6-8.1-70-10.5,2.4,18.7,5.6,37.1,9.6,55.2,45-.7,89.3-3.7,130.8-11.5l10.6,15.9Z"/>
  <path d="M304.3,807.9c286.5,1.6,573.1.6,859.9-3.1,6.2-17.1,11.6-34.5,16.3-52.3-302.3,4.1-609,1.6-909.1,8-73.8,1.6-142.8-18-220.2,2.3-3.2.8-4.6-14.8-10.6-15.5-4.9-.6-12.9-1.1-22.6-1.3,5.3,21.3,11.8,42.1,19.3,62.5,89.1-.6,178.2-1,267.1-.5Z"/>
  <path d="M1119.3,402.8c15.7-.2,31.5-.4,47.3-.6-7.1-20.3-15.3-40.2-24.4-59.4-363.2,3.9-725.7,1.8-1085.8,3-8.9,19.1-16.9,38.7-23.8,58.8,361.5.6,724.8,2.5,1086.8-1.7Z"/>
  <path d="M878.8,491c92.8-.9,216.1,3.7,310.6-4-4.1-21.3-9.2-42.1-15.5-62.5-379.8,4-766-1.9-1147.8-.2-6.3,20.6-11.5,41.8-15.6,63.3,277.6-12.5,583.5,6.3,868.2,3.5Z"/>
  <path d="M848.3,1146.4c38.6-17.6,75-39.1,108.7-64.1-238.5.8-477.3,0-716.6-2,27.9,20.9,57.6,39.4,89,55.3,171.9,5.6,344.8,10.8,519,10.7Z"/>
  <path d="M983.6,1061.4c21.8-18.1,42.2-37.7,61.2-58.7-291,3.3-592-.3-892.7-3.5,18.9,21.2,39.3,41,61,59.4,12.3.3,24.4.6,36.4.7,244.9,2.9,489.6,3.6,734.2,2.1Z"/>
  <path d="M782.7,985.2l3-17.8c75.6,16.8,153.1,13.3,230.4,12.6,16.2-.2,32.5-.3,48.7-.5,14.1-17.3,27.3-35.4,39.5-54.2-108.4,2-216.8,3.8-324.9,5.2-5.8-14-47.5-11-69.3-11.9-111.5-4.6-221.8,9.5-317.9,2.2-80.9-6.1-157.5,5.8-232.5,3.3-22.7-.8-44.5-1.3-65.8-1.8,11.7,18.4,24.4,36,38,53,106.5.4,212.6.5,317.5.7,116.5.2,221.3-5.5,333.5,9.3Z"/>
  <path d="M386.8,1161c66.3,25.2,138.1,39,213.2,39s139.6-12.4,203-35.2c-94.9-1.5-189.7-3.2-283.1-3.8-44.3-.3-88.8-.2-133.2,0Z"/>
  <path d="M1124.1,892.4c10.2-18.3,19.5-37.2,27.9-56.7-367.2,5.6-734.3,7.2-1101.4,5.6,7.4,16.8,15.6,33.3,24.4,49.3,348.3,5,698.2,5.6,1049.1,1.8Z"/>
</svg>