<?xml version="1.0" encoding="UTF-8"?>
<svg id="Layer_1" xmlns="http://www.w3.org/2000/svg" version="1.1" viewBox="0 0 1200 1200">
  <!-- Generator: Adobe Illustrator 29.0.0, SVG Export Plug-In . SVG Version: 2.1.0 Build 186)  -->
  <path d="M1199.1,566.6c-1-17.6-2.7-35-5.1-52.1-316.5.4-638.4-7.5-953.1-5.4-73.8.5-142.6-20.1-220.3-.9-3.2.8-4.4-14.8-10.4-15.6-.2,0-.4,0-.5,0-3.6,20-6.3,40.4-7.8,61.1,90.5.7,181,1.6,271.3,3.4,308.4,6.3,617.1,9.5,926,9.6Z"/>
  <path d="M125.5,482.2c20.2-24,44.9,1.1,66.6-.4,132.7-9.2,289.8,3.8,433.6-1.5,14.3-.5,39.9,17.8,62.5-3.6l-4.4,18.9c37.4-10.5,72.4,8.2,106.4-16.7l-4.4,18.9c44.7-23.3,88.4-3.1,135.1-3.6,88.2-1,179.8-1.5,269.5-1.4-3.9-21.8-9-43.1-15.2-64-222.7-.2-445.2-2.1-667.3-5.6-117.6-1.9-246-3.4-363.8-6.2-31.5-.8-63.3,5.1-95-3.1l-3.7,18.1c-6.7-1.5-13.5-2.8-20.3-4.1-4.7,15.6-8.7,31.4-12.1,47.5,35.1-.9,69.5-3.5,102.2-9.2l10.3,16.1Z"/>
  <path d="M550.5,406.5c206.5,3,412.7,4.1,618.9,3.7-7.4-22.2-16.1-43.8-25.9-64.8-360.9,0-721.4-3.8-1081.4-11.4-10,20.3-19,41.2-26.7,62.6,157.6-9.3,346.9,7.4,515.1,9.9Z"/>
  <path d="M745,17.6c-87.3-.7-173.1-1.7-257.8-3.2-5.5,0-11.2-.2-16.9-.4-52,11.5-101.4,29.7-147.4,53.6,186.4.6,372.8,1.7,559.2,2.6-42.9-22.9-88.8-40.7-137.1-52.7Z"/>
  <path d="M1133.6,325.3c-9.6-18.7-20.2-36.8-31.7-54.3-43.5,0-87-.1-130.6-.3-276.3-1.3-547.6-13.4-820.2-5.5-8.9.3-24.4-8.4-41.3-11.2-13.9,19.6-26.6,40.1-38.1,61.4,38,.6,76.6,1.2,116.3,2,315.4,6,630.4,8.8,945.6,8.1Z"/>
  <path d="M936.3,103.1c-220.4-1.9-440.4-5.5-659.6-8.6-27.2,17.4-52.9,37-76.9,58.5,270.4,4.6,541.4,9.2,811.9,10.7-23.4-22.1-48.7-42.4-75.4-60.5Z"/>
  <path d="M600,0c-7.8,0-15.6.2-23.3.4,27.1,1,54.2,1.8,81.1,2.3-19-1.8-38.3-2.8-57.8-2.8Z"/>
  <path d="M1088.7,251.8c-16.7-23.3-34.9-45.4-54.7-66.1-283.3-2.5-569.5-9.6-854.2-14-18.8,18.4-36.4,38.1-52.6,58.9,237.4.7,488.4,16.9,725,18.1,70,.3,157.2,4.1,236.5,3.2Z"/>
  <path d="M793,1168.3c-89.1-.8-178.3-1.4-268-1.3l-137.8-5.8c66.1,25.1,137.8,38.8,212.7,38.8s132.5-11.2,193-31.7Z"/>
  <path d="M768.8,1051.5c73.1,2.3,146.2,4.3,219.4,6,19.3-16.4,37.6-34.1,54.8-52.8-299.4-3.9-599.6-10.2-901-17,18.2,21.5,37.9,41.7,59,60.5,191.5,7.6,382.3,11.5,567.8,3.4Z"/>
  <path d="M1116,906.3c12.1-20.3,23-41.4,32.7-63.2-367.7-2.6-735.7-9.2-1105.3-18.5,6.9,17,14.5,33.7,22.9,49.9,250.8,11,503.7,25.9,759.4,29.2,96.6,1.2,193.4,2.1,290.3,2.6Z"/>
  <path d="M1157.7,821.8c7.7-19.3,14.4-39.2,20.1-59.4-374.3,2.7-768.6-9.2-1160.5-18.9,4.6,18.7,10,37,16.3,54.9,61.2,3.6,122.8,7.6,180.9,9.1,314.7,8.4,629,13,943.2,14.3Z"/>
  <path d="M748.8,741.3l3.3-17.7c75.3,17.9,152.9,15.6,230.2,16,67.1.3,134.2.5,201.3.6,4.3-17.9,7.8-36.1,10.4-54.6-149.4.9-298.7,1.3-447.7,1.1-5.6-14.1-47.4-11.7-69.1-12.9-111.4-6.2-221.9,6.2-317.9-2.5-80.8-7.3-157.6,3.5-232.5-.2-43.4-2.1-83.5-3.4-123.1-4.5,2,18.1,4.8,36,8.4,53.6,135.3,2.8,270.5,4.8,403.5,7,116.5,1.9,221.4-2.2,333.3,14.2Z"/>
  <path d="M1101.9,928.9c-203.3-1.8-414.4-11.3-618.4-15.7-132.7-2.8-266.6-2.7-396.4-1.7,11.5,18.8,23.9,37,37.3,54.4,305.5,10.3,620.7,16.3,936,18.9,14.9-17.8,28.7-36.4,41.5-55.8Z"/>
  <path d="M1200,600c0-.9,0-1.9,0-2.8-400.1.8-800-3.1-1199.8-10.9-.1,4.5-.2,9.1-.2,13.6,0,11.8.4,23.5,1,35.1,396.9,12,796.1,18.1,1196.6,18.8,1.6-17.7,2.4-35.7,2.4-53.9Z"/>
  <path d="M946.6,1089.8c-236.9-2.5-473.9-6.8-711.1-13.1,25.1,19.2,51.7,36.5,79.7,51.6,179.5,6.6,359,11.8,538.7,15.6,32.6-15.3,63.7-33.4,92.8-54Z"/>
</svg>