<?xml version="1.0" encoding="UTF-8"?>
<svg id="Layer_1" xmlns="http://www.w3.org/2000/svg" version="1.1" viewBox="0 0 1200 1200">
  <!-- Generator: Adobe Illustrator 29.0.0, SVG Export Plug-In . SVG Version: 2.1.0 Build 186)  -->
  <path d="M719.3,11.9c-79,.2-158.2.1-237.5-.2-54.5,10.9-106.3,29.1-154.3,53.7,186.1,3.6,372.2,6.2,558.3,7-51.4-27.9-107.4-48.5-166.5-60.4Z"/>
  <path d="M1129.2,317c-10-18.6-20.9-36.6-32.7-54-329.9,3.2-660.1,2.4-990.8-3.3-11.9,17.2-22.9,35.1-32.9,53.5,351.3,5.8,703.1,7.2,1056.4,3.7Z"/>
  <path d="M997.6,150.6c-21.6-19.2-44.7-36.8-68.9-52.7-194.8,1.4-389.5,1.3-584.1-.8-23.6-.2-47.1-.5-70.7-.9-26.5,17.2-51.6,36.4-74.9,57.5,263.9,2.6,533.3,0,798.7-3.1Z"/>
  <path d="M1199,565.1c-1-17.9-2.8-35.5-5.4-52.9-297.4,4.4-594.7,7.4-891.6,9.5l-9.9-16.5c-94-.2-188.8-1.5-284-3.6-2.8,17.1-4.9,34.4-6.3,51.9,398.4,8.9,797.4,12.8,1197.2,11.6Z"/>
  <path d="M320.7,491.7l.7-17.4,14.1,16.8c21.7-15.4,42.4-1.3,64.7-1.1,262.1,2.7,525,2.6,789.6.2-4-21.6-9.1-42.7-15.4-63.4-382.5,1.4-764.6-2.1-1145.9-10.5-6.7,20.7-12.2,42-16.6,63.6,65.1,1.4,129.6,3.1,191.4,5.1,37.9,1.2,77.6-6.1,117.3,6.8Z"/>
  <path d="M137.6,243.5c48-25.9,86.4-2.2,134.8-1.2,263.8,5.5,535.4,2.9,807.9-1.9-16.3-21.8-34.1-42.4-53.2-61.8-266.9,2.6-534,2.5-801.4-1-17-.2-34-.5-51-.8-16.3,16.4-31.7,33.8-46.1,52l13.8-4.1-4.8,18.8Z"/>
  <path d="M1166.9,402.9c-7.2-20.7-15.5-40.8-24.8-60.4-360.2,1-720.2-2.1-1079.8-9.1-10.3,20.8-19.5,42.2-27.3,64.3,377.5,7,754.7,8.4,1131.9,5.2Z"/>
  <path d="M763.3,1177.5c-109.5,0-218.9-.2-328.3-.5,52.4,15,107.7,23,165,23s111.4-7.8,163.3-22.5Z"/>
  <path d="M1035.6,1012.6c-294.8-.9-589.6-6.5-884.9-15,18.3,20.6,37.9,39.9,58.8,57.9,253.5,8.1,507.7,13.2,762.3,15.5,22.7-17.9,44-37.4,63.8-58.4Z"/>
  <path d="M1146.4,848.2c-367.6-.9-733.8-6.9-1100.2-16.9,9.2,22,19.7,43.4,31.4,64,344.9,8.2,691.1,12.1,1037.8,12,11.4-19,21.7-38.8,31-59.1Z"/>
  <path d="M1157.5,822.1c7.7-19.4,14.5-39.3,20.2-59.6-313.6-4-628.8-12.7-945.7-11.7-70.2.2-141.4-.2-213.2-1.2,5.2,20.4,11.5,40.4,18.8,60,373.3,9,746.5,13,1119.9,12.5Z"/>
  <path d="M1184.1,737.7c4.6-19.4,8.2-39.2,10.8-59.3-398,2.5-795,.4-1190.5-5.7,2.2,18.5,5.3,36.7,9.2,54.6,390,8.5,780.3,11.9,1170.6,10.5Z"/>
  <path d="M1056.8,989c14.5-17,28.1-34.8,40.6-53.4-55.5.9-111,1.7-166.4,2.5l-9.7-16.8c-118.8,4.3-246.3,11-367.6,9.7-100.7-1.1-206.6-17.8-307.8-15-50.8,1.4-102.6,1.8-155.3,1.4,12.7,20.3,26.5,39.7,41.4,58.2,213.3,5.1,425.7,8.7,634.1,11.1,96.7,1.1,193.6,1.8,290.6,2.2Z"/>
  <path d="M1197.7,653c1.5-17.5,2.3-35.1,2.3-53s0-4.7,0-7.1c-400.3,2.4-800.2-.8-1199.7-8.8C0,589.4,0,594.7,0,600c0,13.7.5,27.2,1.4,40.7,397.6,9.4,796.7,13.4,1196.3,12.3Z"/>
  <path d="M941.1,1093.7c-231.7-1.3-463.5-4.4-695.2-9.3,32.8,24,68,44.7,105.4,61.8,159.3,3.8,318.7,6.7,478,8.5,39.6-16.4,77-36.9,111.8-60.9Z"/>
</svg>