<?xml version="1.0" encoding="UTF-8"?>
<svg id="Layer_1" xmlns="http://www.w3.org/2000/svg" version="1.1" viewBox="0 0 1200 1200">
  <!-- Generator: Adobe Illustrator 29.0.0, SVG Export Plug-In . SVG Version: 2.1.0 Build 186)  -->
  <path d="M1145.1,348.9c-360.2-2.6-720.2-9.6-1080-20.8-9.8,19.2-18.6,39-26.3,59.4,375.9,10,752,15.4,1128.7,17-6.5-19-14-37.5-22.3-55.6Z"/>
  <path d="M1193.6,512.2c-395.1-1.8-790-7.7-1184.7-16-3,17.3-5.3,34.9-6.8,52.7,398.1,13.3,797.1,21.7,1197.3,25.1-.9-20.9-2.8-41.5-5.8-61.7Z"/>
  <path d="M1190.2,491.6c-3.7-20.1-8.3-39.8-13.9-59.1-382.3-2-764.4-9.1-1146-21.2-6.8,20.5-12.5,41.5-17.1,62.9,202.4,5.5,405.9,9.6,610.7,12.7,187.8,2.8,376.9,4.2,566.3,4.7Z"/>
  <path d="M914.7,89.1c-207.2-.3-414.3-1.8-621.4-4.9-26.2,15.6-51.1,33.1-74.5,52.4,258.1,5.1,516.5,8.8,775.2,10.9-24.7-21.6-51.3-41.1-79.3-58.4Z"/>
  <path d="M1093.6,258.8c-326.7-.1-653.2-3.4-979.8-10.5-12.5,17.2-24.1,35.1-34.7,53.7,350.7,8.4,701,14.1,1050.9,16.5-11-20.7-23.2-40.6-36.4-59.8Z"/>
  <path d="M878.6,68.5C795.3,24.7,700.6,0,600,0s-187.4,22.7-268.1,63.1c16.3.2,32.7.5,49,.7,165.7,2.1,331.6,3.7,497.7,4.7Z"/>
  <path d="M1076,234.6c-17.1-22.3-35.7-43.3-55.8-62.9-277.5-.2-555-2.5-832.6-7.6-19.8,18.7-38.3,38.8-55.4,60,47.9.7,95.9,1.5,143.7,2.2,266.6,4,533.3,6.9,800,8.3Z"/>
  <path d="M746,1182.1c-107.2-2.5-214.4-5.2-321.5-8.2,55.5,17,114.4,26.1,175.5,26.1s99.3-6.2,146-17.9Z"/>
  <path d="M1023.3,1025.2c-238.8-4.2-477.8-10.9-716.9-20.4-50.8-1-101.7-2.3-152.5-3.6,20.4,22.6,42.4,43.7,65.9,63,245.8,8.1,491.9,13.8,738,17.5,23.2-17.2,45-36.1,65.4-56.4Z"/>
  <path d="M1142.2,857.2c-95.6-.4-191.2-1.2-286.5-2.6-270.7-3.9-540-10.9-808.4-20.7,8.7,20.5,18.5,40.5,29.4,59.8,344.3,11.2,689,18.6,1033.4,22.4,11.8-19,22.5-38.6,32.2-58.9Z"/>
  <path d="M1175,772c-215.7-1.3-431.1-3.8-646.1-7.2-169.9-2.7-340.1-9.3-510.7-17.4,5.1,20.4,11.3,40.3,18.5,59.8,372,12.3,744.3,20.2,1117.2,23.8,8-19.2,15-38.8,21.1-59Z"/>
  <path d="M1194.2,683.9c-397.7-2.3-794.9-9.7-1191-21.6,2.1,20.2,5.2,40.1,9.2,59.6,389.8,12.5,779.8,20,1170,23,5-20,8.9-40.4,11.8-61.1Z"/>
  <path d="M1097.4,935.7c-336-3.4-671.2-9.3-1005.1-15.9,12.8,20.3,26.7,39.7,41.8,58.2,303.5,10.3,608.3,17.4,913.6,21.5,17.9-20.1,34.5-41.4,49.7-63.8Z"/>
  <path d="M1200,600c0-.4,0-.9,0-1.3-254-2-507.9-5.8-761.7-10.9-146.1-2.9-292-6.6-437.9-11.1-.3,7.7-.4,15.5-.4,23.3,0,12.3.4,24.6,1.1,36.8,398.1,13.4,796.9,21.8,1195.7,25.4,2.1-20.4,3.2-41.2,3.2-62.2Z"/>
  <path d="M927.7,1102.7c-226.3-3.7-452.4-8.9-678.5-15.9,37,26.7,77.2,49.3,119.9,67.2,144.7,4.3,289.3,7.9,434,10.8,44.1-15.9,85.9-36.8,124.6-62Z"/>
</svg>