<?xml version="1.0" encoding="UTF-8"?>
<svg id="Layer_1" xmlns="http://www.w3.org/2000/svg" version="1.1" viewBox="0 0 1200 1200">
  <!-- Generator: Adobe Illustrator 29.0.0, SVG Export Plug-In . SVG Version: 2.1.0 Build 186)  -->
  <path d="M1165.1,397.9c-7.1-19.7-15.1-39-24.1-57.7-359.7,2.8-719.5.8-1079.3-5.5-8.8,17.8-16.7,36.1-23.7,54.8,375,6.2,750.6,8.7,1127.1,8.4Z"/>
  <path d="M986.9,141.4c-29.4-24.8-61.3-46.9-95.1-65.8-194.1.4-388.3.3-582.4-.6-32,17.7-62.2,38.3-90.3,61.4,255.8,3.5,511.8,5.3,767.8,5Z"/>
  <path d="M1070.3,227.4c-19.2-24.2-40.2-46.8-62.8-67.8-271,.6-541.9.1-812.7-2-21.6,19.8-41.8,41.2-60.3,63.9,311.9,4.5,623.8,6.7,935.8,5.9Z"/>
  <path d="M1199.2,569.3c-1.1-22-3.4-43.7-6.8-65.1-394.5,2.4-789.1-.6-1183.5-7.6-3.5,20.2-6,40.8-7.4,61.7,267.8,5.8,536.1,9.5,805,11,130.9.7,261.8.7,392.8,0Z"/>
  <path d="M1188.7,483.7c-4.1-21.1-9.4-41.9-15.7-62.1-381.5,3.8-763.2,2.4-1144.7-4.2-6.1,19.2-11.3,38.7-15.5,58.7,242.6,3.8,485.9,6.1,728.5,7.7,149.6,1,298.7,1,447.4,0Z"/>
  <path d="M1126.4,311.9c-12.6-23.1-26.8-45.2-42.2-66.3-322.8,1.8-645.2,1.5-967.3-1.6-14.3,19.3-27.4,39.6-39.3,60.6,349.9,6.1,699.5,8.7,1048.8,7.3Z"/>
  <path d="M862.9,60.5C783.5,21.8,694.3,0,600,0s-179.6,20.8-257.7,58c173.4,1.6,347,2.5,520.6,2.5Z"/>
  <path d="M711.1,1189.7c-79.8-.9-159.6-2.1-239.4-3.5,41.4,9,84.3,13.8,128.4,13.8s75.1-3.5,111.1-10.3Z"/>
  <path d="M1027,1021.5c-286.3,2-572.7.2-859.3-5.4,19.9,20.7,41.3,39.9,64,57.6,242.4,4.2,484.7,6.7,726.7,7.5,24.4-18.2,47.3-38.1,68.6-59.7Z"/>
  <path d="M1111.8,913.3c13.3-21.6,25.2-44.2,35.7-67.5-364.1,1.1-730.9,1.7-1096.5-3.4,9.3,21,19.7,41.3,31.2,60.9,213.1,4.4,426,7.5,638.5,9.3,130.6,1.1,260.9,1.3,391.1.7Z"/>
  <path d="M1155.1,828.2c8.5-20.7,15.9-42,22.1-63.8-385.4,2.7-771.3-.5-1156.5-7.6,5.5,20.4,12.1,40.4,19.6,59.8,341.4,7.2,683.3,11,1026,11.5,29.6,0,59.2,0,88.7,0Z"/>
  <path d="M1183.6,739.9c5.1-21.2,9-42.9,11.8-65-397.4,3.2-794.8.8-1191.5-6.6,2.4,20.8,5.8,41.3,10.2,61.5,389.7,7.9,779.6,11.2,1169.5,10.1Z"/>
  <path d="M1098.6,933.9c-334.9.2-669.8-3.9-1004.2-10.8,14.8,23,31,45,48.7,65.7,301.6,6.1,603.5,9.4,905.1,10,18.2-20.5,35.1-42.2,50.4-65Z"/>
  <path d="M1197.1,659.4c1.9-19.5,2.9-39.4,2.9-59.4s0-4.1,0-6.1c-399.9,1.8-799.9-2.4-1199.7-10.9-.2,5.6-.2,11.3-.2,16.9,0,15.7.6,31.3,1.8,46.7,398.8,8.9,797.5,13,1195.3,12.8Z"/>
  <path d="M926.3,1103.6c-221.4-.9-442.6-3.4-663.6-7.3,40.3,27.5,84.2,50.1,130.7,67.2,133.1,2.2,266.2,3.8,399.2,4.9,47.5-16.1,92.3-38,133.6-64.8Z"/>
</svg>