<?xml version="1.0" encoding="UTF-8"?>
<svg id="Layer_1" xmlns="http://www.w3.org/2000/svg" version="1.1" viewBox="0 0 1200 1200">
  <!-- Generator: Adobe Illustrator 29.0.0, SVG Export Plug-In . SVG Version: 2.1.0 Build 186)  -->
  <path d="M1198.7,640.4c.9-13.3,1.3-26.8,1.3-40.4s-.1-15.4-.4-23c-399.6,9.9-799.5,12.8-1199.4,10.1,0,4.3-.1,8.6-.1,12.9,0,17.6.8,35,2.3,52.2,398.7,2.8,797.7-1.1,1196.4-11.9Z"/>
  <path d="M855.9,57.2C778.3,20.5,691.5,0,600,0s-177.4,20.3-254.7,56.6c170.1,1.2,340.3,1.5,510.6.6Z"/>
  <path d="M1122,304c-12.7-22.3-26.8-43.8-42.2-64.2-270.8,4.6-541.9,6.1-813.4,4.2-49.5-.3-99.1-.7-148.6-1.1-15.9,21.4-30.4,43.9-43.4,67.4,349.2,2.1,698.4.4,1047.5-6.3Z"/>
  <path d="M1063.5,219c-18.4-22.4-38.5-43.5-59.9-63-232.5,3.7-465.8,5-700.2,3.5-36.7-.2-73.4-.5-110.1-.7-22,20.3-42.5,42.2-61.3,65.6,310.4,1.4,621-.2,931.4-5.4Z"/>
  <path d="M1198.1,552.1c-1.7-21.2-4.5-42.1-8.3-62.6-393.6,10.7-787.8,15.5-1182.2,14.7-3.3,20.4-5.5,41.2-6.7,62.3,400.9,2.2,799.3-2.8,1197.2-14.4Z"/>
  <path d="M983.5,138.6c-27.7-23.1-57.6-43.7-89.2-61.6-195.6,1.1-391.2.6-586.9-.9-34.4,19.3-66.7,41.8-96.5,67.2,257.7.6,515.3-.9,772.7-4.8Z"/>
  <path d="M1160.8,386.4c-8.3-21.8-17.9-43-28.6-63.5-225.8,4.3-452.2,6.5-679.6,6.3-129.3,0-258.5-.4-387.7-1.1-10.9,21.5-20.6,43.7-28.9,66.5,375.2,2.3,750.1-.2,1124.8-8.3Z"/>
  <path d="M1187.2,476.3c-4.7-22.6-10.8-44.8-18-66.4-380.6,9.8-761.6,13.9-1142.6,12.7-5.9,19-10.8,38.5-14.8,58.3,107.5,1.2,215,2.3,322.6,3.1,283.4,2.2,567.9-.6,852.8-7.7Z"/>
  <path d="M406.2,1168c132.6.4,264.8-.7,396.7-3.2,51.9-18.7,100.6-44.3,144.7-75.7-225.7,6.5-451.4,10.6-677.1,12.5,41.8,27.5,87.3,50,135.6,66.5Z"/>
  <path d="M1062.4,982.4c16.3-19.7,31.4-40.5,45.2-62.3-335.8,9.1-672.1,12.5-1009.1,9.4,15.4,23.3,32.3,45.5,50.7,66.4,305.3,0,609.6-4.6,913.2-13.6Z"/>
  <path d="M1118.2,902.6c13-22.3,24.7-45.5,34.8-69.5-365.4,11.4-732.4,15.6-1099.8,14.3,10.1,22.3,21.5,43.8,34.1,64.5,343.1,2.5,687-.5,1030.9-9.3Z"/>
  <path d="M1160.9,813.5c8.3-21.9,15.4-44.4,21.2-67.5-386.8,9.6-774,13.4-1161.1,11.8,6.1,22.3,13.4,44.1,21.9,65.3,129.1,1.2,258.3,1.9,387.4,2.1,244.9.4,488.1-3.8,730.6-11.8Z"/>
  <path d="M169.4,1017.8c23.5,24.2,49,46.4,76.2,66.4,61.1.4,122.2.8,183.3,1,177.4.6,354.6-1.4,531.6-5.6,27.8-20.9,53.7-44.2,77.4-69.5-289.1,6.8-578.8,9-868.5,7.7Z"/>
  <path d="M1185.6,731.4c4.7-21.1,8.3-42.6,10.7-64.5-396.9,10.4-794.2,13.2-1191.4,10,2.9,22.3,6.9,44.2,12.2,65.7,388.4,4.6,778.2.5,1168.5-11.2Z"/>
  <path d="M511.5,1193.5c28.9,4.3,58.4,6.5,88.5,6.5s60.4-2.3,89.6-6.7c-59.4.3-118.8.4-178.2.2Z"/>
</svg>