<?xml version="1.0" encoding="UTF-8"?>
<svg id="Layer_1" xmlns="http://www.w3.org/2000/svg" version="1.1" viewBox="0 0 1200 1200">
  <!-- Generator: Adobe Illustrator 29.0.0, SVG Export Plug-In . SVG Version: 2.1.0 Build 186)  -->
  <path d="M864.7,61.4c-59.8-29.4-125.2-49.2-194.2-57.3-48.2.3-96.3.5-144.5.4-68.9,8.5-134.2,28.6-193.8,58.4,177.7.8,355.2.3,532.6-1.6Z"/>
  <path d="M1068,224.5c-17.9-22.2-37.3-43.2-58.1-62.7-274.2,4-548.5,5-822.9,3-21.1,20-40.7,41.5-58.7,64.4,313.2,2.7,626.4,1.4,939.7-4.7Z"/>
  <path d="M987.8,142.2c-29.3-24.8-61-46.9-94.7-65.8-197.2,2.7-394.6,3.9-592.3,3.5-32.3,18.6-62.7,40.2-90.9,64.3,259.3,2,518.7,1.5,777.9-1.9Z"/>
  <path d="M1198.1,551.7c-1.7-20.9-4.4-41.5-8.1-61.7-51,1.5-101.9,2.9-152.8,4.2-343,8.5-686.1,10.9-1029.2,8.2-3.4,20.8-5.7,41.9-6.9,63.3,399.3,2.3,798.6-2.4,1197.1-14Z"/>
  <path d="M1184.2,462.6c-4.7-20.2-10.5-40-17.2-59.4-94.6,2.7-189.3,4.9-284.2,6.5-284.2,4.8-568.8,6.5-853.6,5.1-6.6,20.4-12.2,41.4-16.6,62.7,390.3,1.2,780.2-3.9,1171.6-14.9Z"/>
  <path d="M1122.5,304.8c-12-21.2-25.3-41.6-39.7-61.1-322.7,5.7-645.2,7.3-968.8,4.4-14.7,20.2-28.1,41.4-40.2,63.5,349.5,2.9,699.1.8,1048.7-6.8Z"/>
  <path d="M1161.8,388.8c-8.2-21.9-17.7-43.2-28.4-63.8-357,8.5-714.3,11.7-1071.8,9.9-10.6,21.6-20,43.8-28,66.8,375.8,2.5,752.4-2.3,1128.2-12.9Z"/>
  <path d="M765.5,1176.9c-48.8,1.7-97.6,3.2-146.3,4.5-51.3,1.3-102.7,2.4-154,3.4,43.4,10,88.5,15.2,134.9,15.2s112.9-8.1,165.5-23.1Z"/>
  <path d="M1060.4,984.8c-301.2,10.8-602.2,17.6-903.1,20.2,23.8,26,49.8,49.9,77.8,71.3,251.7-3.8,503.5-11.3,756.2-21.4,24.9-21.4,48-44.9,69.1-70.1Z"/>
  <path d="M1156.7,824.3c-368.5,12.2-736.9,18.7-1105.5,18.5,9.2,20.7,19.5,40.9,30.9,60.3,349.6-1.3,698.5-8.2,1047.2-20.2,10.1-18.9,19.3-38.5,27.4-58.6Z"/>
  <path d="M1163,807.9c8.5-23.1,15.7-47,21.4-71.4-387.9,13.3-777.2,20.1-1163.7,20.4,6.4,23.6,14.1,46.6,23.2,68.9,373.1,1,746.4-4.8,1119.1-17.9Z"/>
  <path d="M1197,660.2c-397.1,10.2-794.9,13.5-1192.9,10.7,2.7,22.6,6.6,44.8,11.7,66.5,391.4-1,781.4-11.5,1174.1-27.2,3.1-16.4,5.4-33.1,7.1-50Z"/>
  <path d="M1113.8,909.9c-194.5,7.4-389.1,13-583.7,16.8-143.4,2.8-286.9,4.2-430.5,4.3,15.3,23.1,32.2,45.1,50.5,65.8,306.9-2.7,613.6-11.4,920-24,15.9-20,30.5-41,43.8-62.9Z"/>
  <path d="M1198.9,636.3c.7-12,1.1-24.1,1.1-36.3s-.2-17.1-.5-25.5c-139.4,5.1-278.7,9.3-417.9,12.2-260.4,5.4-521,7.1-781.5,5.4,0,2.6,0,5.3,0,7.9,0,19,.9,37.7,2.6,56.3,398.4.9,797.5-6.1,1196.3-19.9Z"/>
  <path d="M955.1,1083.7c-227.3,8.8-454.6,15.4-682.1,19.5,32.2,21,66.6,39,102.7,53.5,158.1-2.5,316.2-6.2,474.1-11,37.3-17.1,72.6-37.9,105.3-62Z"/>
</svg>