<?xml version="1.0" encoding="UTF-8"?>
<svg id="Layer_1" xmlns="http://www.w3.org/2000/svg" version="1.1" viewBox="0 0 1200 1200">
  <!-- Generator: Adobe Illustrator 29.0.0, SVG Export Plug-In . SVG Version: 2.1.0 Build 186)  -->
  <path d="M1074.5,232.8c-16.3-21-34-41-52.9-59.6-91.6,1.9-183.5,5.5-274.1,5.6-190.6.2-381.1-.9-571.6-3.3-19.5,19.4-37.6,40.2-54.3,62.2,99.3.9,198.5,1.4,297.8,1.3,217.7-.1,436.5-1.7,655-6.2Z"/>
  <path d="M1073.1,471.4c37-.7,75.8,3.6,114.3,5.7-5-24.3-11.6-48-19.4-71-378.2,8.2-757.7,13.9-1139.7,11.4-6.2,19.5-11.5,39.4-15.7,59.7,351.8,2.6,704.8.5,1060.5-5.8Z"/>
  <path d="M879.4,399.1c94.8-1.4,189.3-3.9,283.6-7.1-7-19-14.9-37.5-23.8-55.5-17.3-1.8-34.8-3.5-52.4-3.1-342.1,6.8-684.5,8.5-1027.1,5.4-10.1,20.8-19,42.2-26.6,64.2,282.7,1.7,565,.2,846.3-3.9Z"/>
  <path d="M1003.4,155.8c-27.6-25.1-57.5-47.6-89.5-67.2-209.4,1.4-418.5,1.5-627.7,0-32,19.7-62,42.3-89.7,67.4,269,3.2,538,3.3,806.8,0Z"/>
  <path d="M663.3,319c155.1-1.3,311.4,1.4,466.6-.5-11.1-20.9-23.5-41.1-37-60.5-329.7,3.7-657.9,3.6-985.6-.6-13.6,19.5-26.1,39.9-37.4,61.1,197.7,2,395.4,2.2,593.3.5Z"/>
  <path d="M1198.2,553.4c-1.7-21.9-4.6-43.5-8.5-64.7-393.1,13.8-789.2,18.6-1182.2,16.1-3.2,20.3-5.5,40.9-6.6,61.8,399.8,2.7,799.1-1.6,1197.3-13.3Z"/>
  <path d="M604.3,74.9c94.5-.2,189.1-.6,283.8-1.3-56.7-31.1-119-53.3-185-64.7-72.3.8-144.5,1.5-216.8,1.9-62.5,12-121.6,33.7-175.6,63.5,97.9.7,195.8.9,293.6.7Z"/>
  <path d="M828.1,1155.1c-143.8,2.5-287.8,6-431.6,9.5,63.5,22.9,132.1,35.4,203.5,35.4s157.8-16,228.1-44.9Z"/>
  <path d="M598.9,1058.2c4.6-.9,4.1-5.1,33.4-5.8,122.7-2.9,246.7-5.2,370.7-7.9,22.2-20.1,42.8-41.8,61.8-65-1.2-.4-2.5-.8-3.7-1-12.5-2.1-58.6-3.5-55.5,16.7l-7.2-18.1c-8.2,10.4-16.7,15.4-28.4,16.7-134.4,15-311.2-7.7-452.5-4.9-123.3,2.4-246.5,4.1-369.7,5.2,21.1,24.3,44.2,46.8,68.9,67.4,125.9,4.1,281,16.1,382.4-3.2Z"/>
  <path d="M1154.9,828.6c-68.2-10-104.4-3-179.3-1.3-309.2,7.1-617.9,10.9-926.5,10.8,8.5,19.7,18.1,38.9,28.6,57.5,351.3-1,702.5-7.1,1054.2-17.9,8.3-16,16-32.3,22.9-49.1Z"/>
  <path d="M1185.5,731.8c-384.8,13.3-774.9,19.8-1166.2,19.5,6.3,24.1,14,47.7,23.1,70.6,375.4-.6,750.5-8.6,1124.4-24.5,7.4-21.3,13.7-43.2,18.7-65.6Z"/>
  <path d="M1187.4,722.9c5.2-24.8,8.8-50.2,10.8-76-21.4.6-40.2,5.6-50.9,20.3-380.2,9.2-761.2,11.6-1142.6,7.7,2.1,17.1,5,34,8.5,50.6,128.8-.6,257.9-1.9,387.5-3.5,262.4-3.3,524.8,2,786.7.9Z"/>
  <path d="M1079.8,960.4c14.7-19.5,28.2-39.9,40.4-61.1-341.9,12.1-684.3,19.9-1026.7,22.4,13.3,20.9,27.9,41,43.6,60,313.5-4,626.8-11.8,939.9-21.3.9,0,1.8,0,2.8,0Z"/>
  <path d="M1199.1,633.6c.6-11.1.9-22.4.9-33.6s-.2-19.8-.7-29.7c-398.7,11-799.3,19.6-1199.2,19.7,0,3.3,0,6.6,0,10,0,17.4.8,34.7,2.2,51.7,399.3.5,798.7-5.8,1196.9-18.1Z"/>
  <path d="M977.6,1066.3c-243.2,8.7-486.5,15.3-729.9,19.4,31.4,22.8,65,42.6,100.6,59.1,176.2-2.8,352.4-6.9,528.6-12.4,35.9-18.7,69.6-40.9,100.7-66.1Z"/>
</svg>