<?xml version="1.0" encoding="UTF-8"?>
<svg id="Layer_1" xmlns="http://www.w3.org/2000/svg" version="1.1" viewBox="0 0 1200 1200">
  <!-- Generator: Adobe Illustrator 29.0.0, SVG Export Plug-In . SVG Version: 2.1.0 Build 186)  -->
  <path d="M252.6,1101.3l16,6.1,3.5,16.1,34.2,1.2c-12.9-7.2-25.6-14.8-37.9-22.9-6.7,0-12.2-.1-15.8-.5Z"/>
  <path d="M873,1139.6l-1.8-5.4c-3.4,1.8-6.9,3.5-10.4,5.2l12.2.2Z"/>
  <path d="M1202.4,711.7c-10.7-11.9-8.6-17.8-5.5-32.8-1.5-.6-2.9-1-4.3-1.2-1.5,11.3-3.2,22.4-5.3,33.5,5,.2,10.1.4,15.1.6Z"/>
  <path d="M1051,206.8h-.2c.1.1.2.3.3.4,0-.1,0-.3-.1-.4Z"/>
  <path d="M807.3,1162.3c6.4-2.4,12.8-4.9,19.1-7.5-9.4.4-16,1.2-18.1,2.7-1.1.8-1,2.8-1,4.8Z"/>
  <path d="M792.5,1155.9c-4.3-1-83.1-4.5-87.4-3.8-4.6.8-19.1,39.1-27.2-1.6l-143-.3-16,11.5,2.7-11c-28.4-2.3-57.2,3.5-85.3,2.5-26.1-1-56.3-11.9-82.2-4.5,24,10.7,48.9,19.8,74.4,27.3,31.8,2.8,63.7,5.2,96.2,2.7l10.5-11.5c10.9,12.2,44.6,17.9,60.4,16.9,18-1.2,25.3-11.2,32.9-11.6,3.6-.2,0,10.7,10.7,11.8,16.8,1.6,50.2,2.5,84.2,2.6,25.1-5.4,49.6-12.3,73.4-20.7-1.9-2.6.2-9.1-4.5-10.2Z"/>
  <path d="M997.2,871l-6.1,10.9c-5.3,0,.1-9.2-6.1-10.9-13.3-3.6-56.1,5.9-73.6-.1l-2.7,11-10.6-11.5-129.5,6,5.6,16.4h-27.5s10.9-21.9,10.9-21.9h-71.3s16.4,11,16.4,11l-10.9,16.3,115.2,5.6,2.8-16.5,11.8,15.9c53.5-11.9,196.3,15.5,236.8-3.4,5.6-2.6,29.4-40,34.1-7.1l-22,11h44.5c6.1-10.4,11.9-21,17.4-31.8-45.3.7-90.5,1.2-135.4-.9Z"/>
  <path d="M1128.9,729.3l-11.6,26.4c-16.1,0-15.9-24.3-32.8-27.5-30.8-5.8-71.8,6.1-103.5-.2l-6.3,11.3c-7.1-24.5-40.1-2.9-60.3-11.1l2.7,16.4-22,8.4c-2.6,13.4,10.6,7.7,19.1,8.1,10.9.5,21.9-.4,32.7.4l8.4-16.8c-4.6,33.1,19.2,6.7,30.5,5.5,2.3-.2,1.9,9.9,6.1,10.9,12.5,3,64.2,5.3,65-11l3,6.8,16.2,4.2-5.5-16.4h19.2c0,0-2.7,16.4-2.7,16.4,18.8-4,50,11,57.6-10.9,8.2,9.3,19.1,11.3,30.9,11.1,3-10.8,5.7-21.7,8.1-32.8-19.9,1.7-39.6,3.2-54.9.8Z"/>
  <path d="M239.1,1027.4c42.2,2.2,86.8,8.3,131.6,8.3,24.6,0,76.6-10.3,93.3-8.5,27.6,2.9,40.3,16.7,82.2,13.5,25.3-2,14.4-.8,38.3.6,60.2,3.5,126.3-5.7,187.4.2l10.5-11.5c16,14.9,44.6,11.3,65.8,16.5l-8.1-22c6.7-1.2,16.1,1.5,22,0-1-3.4,3.2-10.9-3.2-11.2l-216.9,2.8.5,13.9-19.2.2-5.8-17c-26.2,4.6-57.8-3.6-82.2-2.5-4.3.2-9,8.2-16.2,8.6-3.7.2,0-10.8-10.7-11.8-49.6-4.8-190-6.2-236.7.3-13.1,1.8-19.7,11.1-27.1,11.5-3.6.2.3-10.2-10.6-11.7-22.2-3-49.8-.9-76.4.3,7.3,7.9,14.9,15.6,22.6,23.1,18.1,2.9,44.2-4.2,59.1-3.5Z"/>
  <path d="M948,1013.2l-6.3,11.2c-24-25.1-54.3-6.7-79.7,0,1.8,6.2.7,21.7,2.8,22,39.9,6,89.3-.5,136.1-2.1,9.8-8.9,19.3-18.1,28.5-27.7-20.3-12-56.5,4.1-81.4-3.4Z"/>
  <path d="M1172.6,662.4h21.8c.6-5.9,1.1-11.9,1.6-17.8l-7.2-9.7c-8.9,9.6-28.5,11.8-16.1,27.5Z"/>
  <path d="M1138.9,404.3c-2.8,3.3-1.3,8.5-2.4,11.2,2.9,4.3,7.6,11.6,13.4,11.4h22.2c-2.9-9.6-5.9-18.9-9.3-28.2-11.7.9-21.4,2.6-24,5.7Z"/>
  <path d="M91.3,414.8c53,8.9,113,10.4,166.4,16.6l3.3-16.2,24.1,1,3.4,16.1c17.6-5.8,90.8,4.3,100.3-1.8,2.7-1.7-1.3-10.4,3.7-9.6,5.4,0-2.3,9.9,10.6,11.5,19.7,2.5,186.1,3.4,194.3-1.9,2.7-1.7-1.3-10.5,3.7-9.7l10.6,11.5,183.6-1.1,9-21.3v21.9c14.5,2.1,21.4-8.2,27.5-8.7,7.1-.6,16.9,7.3,26.5,7,14.8-.3,62.6-1.5,71.4-3.8,5.6-1.5,1.3-10.7,6.3-11.1,12.6-2.8,5.6,9.9,11.8,11.3,34.2,8,45.3-21.8,80.1-10.9,5.1,1.6,2.3,9.7,12,11,28.1,3.6,64-3.7,93.2-.3,6.6.4,2-8.1,3.2-11.1-2.1-3-9.3-4.5-5.5-16.5-19.9-4.2,0,12-16.4,16.5l-2.9-16.6-233.3.2-2.7,11c1.6-18.1-80.3-12.1-84-9.5-1.7,1.2-1.1,6.5-1.3,9.2l-8,.3c-6.8-23.5-34.8-2.5-54.1-11.3l-6.3,11.3c4.5-14.4-43.4-11.7-45.5-10.2-4.4,3.2-4,18.3-14.9,15.7-6.2-22.1-31.6-6.9-47.1-7.4-120.6-4.4-251.4,13.8-365,4.8-9.2-.7-18.5-11.4-30-8.4,8.9,20.4-14.2,20.7-5.6.1-14.3,1.5-27.4-4.2-41.3-5.8-25.9-2.9-15.1-3.7-22.7-5.4-5.2-1.2-93.9-10.3-111.8-11.5-2.8,7.2-5.5,14.5-8,21.9,1.7.1,3.5.2,5.2.3,31.5,1.5,25.5,5.4,55.8,10.5Z"/>
  <path d="M999.3,357.9c-6.2,4.7-10.8,11.2-11.1,19.2l-10.2-12.9,10.3-14.5h-46c0,0-6.1,11-6.1,11l-6.3-11.2-51.4.2c-.2,11.7-3.8,20.9,9.4,23.1l-1.1,9.8c25.4,3.2,43-1.7,65.7-11.3l-2.5,11.2h109.8s-5.4-16.4-5.4-16.4c13.2,7.1,20.9,7,30.2-5.5,4.9,29.9,40.7,23.9,72.4,21.5-4-10.3-8.3-20.6-12.9-30.6-55-2.4-123-9.8-144.6,6.4Z"/>
  <path d="M1183.2,503.2l-12.2-9.7c-160.2,1.6-321.5-3.5-482.2-1.5-22.9.3-47.3,7.8-71.1,8.1-82.8,1.3-166.8-5.9-249.8-2.3l11,21.9-18.8.4c-6.2-25.7-14.7-19.9-37.9-22.7l-11.9,22.4c-5.9-.1.3-15.1-10.6-20.1-10.2-4.7-73.7,1.9-91.8.7-15.5-1-24.6-17.1-43,2.9,5.4-15.5-47.6-18.4-49.5-16.3l-.2,18.4,137.5,19.9-5.6-10.9c14.2-1.3,19.3-2.4,25.6,10.5l155.6.4c-6.6-12.6-30-12.2-2.8-21.9,11.9,25.4,31,29.7,46.7,5.6l3.1,16.8c26-6.3,76,12.3,87.5-11.3,30.2,23.2,82.3,5.4,119.9,11.2l12-22.2,17.1,22.3,23.7-1,3.2-15.9,24.7,5.6-5.6,10.9,24.1-.2,6.2-10.8,5.3,10.3c44-7.6,100.9,7,143.3,1.2,9.2-1.3,6.2-7.8,12.4-10.9,6.7-3.4,16.4,4.6,20.2-11.5h8.1c-2.2,20.7,54.2,23.1,68.7,21.3,34.4-4.3,33.8-5.6,71.8-4.7,24.7.6,49.7.8,74.6.8-1.1-8.3-2.4-16.5-3.8-24.6-2.6,1.8-4.5,4.2-5.3,7.3Z"/>
  <path d="M1133.8,788.6l-2.7-11h-84.5c0,.1-6.1,11-6.1,11-15-31.4-30.9.2-33.1.2-7.2,0-18.9-10-32.6-11.4-39-4-81.7,5-120.9,0,3.8,28.5-14.9,28.4-11.2,0-58.1,4.3-117.8-2.7-176,0-13.3.6-29.1-.4-38.1,11l-6.3-11.3h-75.8c0,0-3,16.8-3,16.8l-13.9-16.8-217.9,1.9-37.2,9.5c-5.8,5.7-2.5,10.7,7.8,10.3,29.6-1.2,58.3-2,88.1,1l5.6-16.7c25.8,6.3,26.7,19.7,54.8,22.1,17.3,1.5,57.4,6,60.6-11.3l6.3,11.2c28.1-2.4,51.6,10.2,67.8-16.6l-2.7,16.5c57.6-5,125.3,6.5,181.5.3,9.6-1.1,15.8-3.2,21.7-11.3l10.5,11.4,386-2.7c2.8-7.9,5.5-15.9,8-23.9-8.8-.4-17.5-1-26.1-1.8l-10.6,11.5Z"/>
  <path d="M461.2,1112.2l-2.7,16.5,55.3-5,2.4,10.4c14.9,6.5,8.6-11.2,13.7-10.9l3.7,9.7,327.2,6.6c3.5-1.7,6.9-3.4,10.4-5.2l-3.7-10.9,19.2-.2.4,2.6c11-6.1,21.8-12.5,32.3-19.2l-266.1.3v13.8c0,0-27.4,2.7-27.4,2.7l-3-16.9-208.6-5.7-10.8,11.7c-5,.8-1-7.9-3.7-9.7-9.7-6.2-92.1-.9-131.4-.8,12.3,8.1,25,15.8,37.9,22.9l124.9,4.3,29.9-16.8Z"/>
  <path d="M299.3,1076.9c44.8,1,96,11.3,137.2-3.1l-2.8,11c61,2.2,124.2-8.1,183.9,5.6l.2-16.6c18.5-4.1,23.2,13.8,27.3,15.4,5.3,2.2,106.3,3,115.3,1.1l-2.8-13.6,19.3-2.9-8.2,16.4h174.9c12.5-8.8,24.7-18.1,36.4-27.8h-55.2s-16,11.5-16,11.5l2.7-11c-44.8,2.7-89.6-.5-134.3-.3-34.8.1-19.5-3.9-32.8-5.7-57.8-7.8-135,9-195.3.5l5.5,16.4h-24.7c0,0,2.7-16.4,2.7-16.4h-178.2c4,12.8-2.8,11.1-13.9,16.4l5.4-21.9-141.4,1.4c10.8,9.4,22,18.4,33.5,27,20.9-1.1,42.7-3.9,61.3-3.5Z"/>
  <path d="M948,969.4l-6.4,11.2-2.8-16.5c-16.7,17.6-18.2.6-35.3-.3-20.6-1.2-51.7-1.7-71.8.2-19.2,1.8-73.6,34.3-63,.2-20.1,4-56.7-11-63.2,11h-13.7c0-.1,5.6-11,5.6-11-40,9.6-99.4-21.4-115.3,27.4,21.4-2.8,43.1-6,63.2,5.4l2.7-16.4c13.1,9.3,19.7,20.2,38.4,16.4l-8.2-16.4,19.3,2.9-2.8,13.6,126.7.5,10.5-11.5c10.7,13.4,38.8,19.7,43.9,0l21.7,11.3h149.9c9.4-10.8,18.5-21.8,27.2-33.2-42.5-.4-85.4-2.8-126.5,5.2Z"/>
  <path d="M1169.5,558.1l10.9-21.9c-26.2,5-25.4,30.2-56.5,22-5.8-1.5-5.5-11.4-9.2-13.8-5.5-3.5-93.2-3.3-107.3-3-188.9,4.6-394.5-6.3-586,9.6-13.3,1.1-28.1-15-34.3,7.3-22.3-15.2-54-17.3-71.3,5.2l-12.1-16.5c-40.1,8.5-94.1-10.2-131-5.8-7.8.9-13.2,15.8-24.4,14.2-2.2,13.1,6.1,6.8,14,8,32.1,5.1,84.2,11.3,109.6-5.3l10.5,11.5h170.4c0-.1,5.8-17,5.8-17l2.8,16.6,13.7-11.1,10.6,11.5c66.4-6.4,144.5,6.4,209.2.1,13-1.3,5.3-11.5,10.8-11.7,7.3,21.1,37,15.2,43.9-5.3l16.3,16.8c69.4-2.1,138.9-.7,208.2-.6,16,0,28.1.1,44.4.2,51,.1,115.8,3.2,178.6,4.5-.4-8.4-.9-16.8-1.6-25.1-8.6,5.9-8.8,18-25.9,9.5Z"/>
  <path d="M126.2,739.2c-.5,3.9-1,9.6,3.8,10.9,17.2,4.8,98.4,9.5,113.6,5.6,5.5-1.4,1.3-9.4,6.3-11.1,14.9-5.2.7,10.5,5.5,11.1,92.6,10.6,202.2-9.7,296.8.3,24.1-11,22.7-9.4,44.8,4l127.8,1.1-16.4-5.5,13.7-21.9,9,26.8h138.3s20.2-18.4,20.2-18.4l-5.5-13.8h-76.9l-2.7,11c-4.1-16.8-15-10.8-30.2-11v16.5c0,0,11,5.4,11,5.4l-32.9-11,8.2-10.9c-34.3,4.1-71.2-2.2-104.6-.3-23.8,1.4-23.8,0-43.3,0-38.3,0-76.8,2.6-114.8,0l-6.3,11.3-6.1-10.9-125.9.9-5.2,10c-5.3.4-.6-8.1-5.2-10-7.5-3.1-96,4.2-115.1,3.5-55.6-2.1-126.3-5.1-180.7-12-5.3-.7-24.8-5.2-45.4-9.8,1.6,8.6,3.4,17.1,5.3,25.5l104.6,14,8.4-11.2Z"/>
  <path d="M156.6,942.2l5.3-11c2.9,3.4,6.4,7.7,11,8.2,49.9,6.1,110.6-4.7,162,2.6l-11-16.3,19.5-4.9c14.2,25.8,67.2,30.6,87.6,10.3,2.8,16.4,39.4,13.2,55.2,11.4,7.3-.8,12-15.2,27-11.4l-2.7,11c16.3-7.5,25.9,4.9,41.3,5.9,9.8.6,19.9-4.4,29.8-4,111,4.3,223.5,4.4,335.3,3.6l-14.4-27.7c-80.9,9.8-179-10.1-257.8-.1-5.3.7-30.2,31.4-24.3-5-16.1,1.2-31.4-7.4-35.7,11l-6.3-11.2c-27.9,5.8-67.8-3.1-92.7-.4-13.1,1.5-20.6,11.4-32.9,12-10.5.6-5-11.4-16.1-12.2-18.4-1.2-96.5-1.7-109.8.7-10,1.8-12.9,10.3-22,10.9l2.8-11-41.4-.7-10.8,11.7-3.5-9.8-32,9.6c.3-22.6-42.9-6.9-60.3-7.9-25.2-1.5-50.6-4.7-76.2-8.4,5.5,9.1,11.2,18,17.1,26.8,2.4.3,4.7.6,6.9.8,18.2,1.7,34.2-12,49.2,5.3Z"/>
  <path d="M1081.7,256.4l-84.8-.4c-5.5,37-27.9,38.7-19.6.4-35.8,2.2-71.5-.4-107.3-.2-20.6,0-87.2-.4-102.7,6-4.4,1.8-4.4,11-7.2,11-7.5,0-14.9-8.7-23-9.9-74-10.9-164.3,10.2-239.9,3.8l-5.8,16.9-2.8-16.5c-18.6,7.2-51.7-8.8-57.6,11.1-5.5-23.1-30-3.4-46.6-11v27.4c33.7-9.2,72.4,6,106.9,0,7.9-1.4,17.5-12,19.2-10.7,1.2.9-3.9,10.3,8.3,11.4,23,2.1,55.1-8.5,71.3-9,32.1-.9,70.3,6.7,103.7,3.1l6.3-11.2,8.2,11,8.3-16.3c7.7,7.3,4.6,15.4,16.3,16.8,85.7,10.5,192.7-10.4,280.3-1.1l5.2-10.3c6.7,4.4,13.8,8.2,22,8.2,22.7.2,45.5-.3,68.4-1.1-4.9-7.9-9.9-15.6-15.1-23.3l-14.6,5.2,2.8-11Z"/>
  <path d="M933.3,843.4l-38.4-21.9-2.8,11c-4.3-14.7-9.9-11.9-24.7-11l8.2,16.4h-19.2c-1.1-8.9,14-15.2-2.8-16.6-38.6-3.2-74.4,2.4-105.6,10.7-36.4,9.7-33.6-7.4-54-10.6-14.4-2.3-29,8.3-43.4,0l-2.9,16.5-19-16.9c-80.8,2.3-161.4-.4-242,.1-16.4.1-27.2,0-43.3,0-17.7,0-77.3-2.7-88.4,1.4-4.8,1.8,2.1,12.5-10.7,9.9-5.1-.4-.7-10-6.3-11.3-11.9-2.7-52.1,3.7-68.6,2.5-39-2.9-77.5-13.1-116.9-13.3l-2.7,21.6c18.1,6.4,31.1,2.1,46.5,1.2,2.3-.1,15.5,27,38.2-.8,9.8,31.2,18.4-9.1,24.6-5.4,13.4,38.5,72,13.6,104.5,21.9l-2.8-11c10.9,3.3,13.9,9.5,27.1,11.3,60,8.3,136-8.8,197.9-.2v-16.5s11.2,16.6,11.2,16.6c19.4-16.2,19.6-2.1,33.2-.6,6,.7,44,6.5,45.5,4.8,2.2-2.5-1.6-10.6,3.6-9.9l6.3,11.4c50.8-4.1,101.9.3,153.1-.2,11.7,0,19.3-8.3,27.4-8.8,6.1-.4,43.2,16.8,57.6,8.6l-5.6-10.9c18-8.2,23.4,10.6,25.7,11,3.4.7,66.2.9,69.5,0,6.4-1.6-.9-13.7,11.8-11.2,10.2,30.8,52.6-1.6,65.6-.2,3.3.3.2,10.3,10.9,11.7,41.1,5.4,90.7,2.6,139.4-.2,5.1-11,10-22.1,14.5-33.4l-222.1.2v22Z"/>
  <path d="M752.2,322.2h-16.4s-2.8-16.6-2.8-16.6l-348.5,13.8c6.3,3.2,8.8,15.3,12,17.7,3.3,2.5,72.1,1.8,83.8,1.3,79.3-3.4,172.8,1.3,258.5.5,129.9-1.2,263.9-4,394.5-9.5-4.9-9.7-10.1-19.2-15.5-28.6l-362.6,4.6-3,16.8Z"/>
  <path d="M582,662.3l-10.9-21.9,41.4,21.7,216.5.2c2.4-10.1-11-1.9-11-8.2,0-20.9,27.7-17.4,16.5,8.2,17.9,5.1,14.5-7.1,20.4-11,16.4-10.6,30.3,11,37.2,11h172.9l-16.5-5.5,11-16.3-29.9-5.8-760.7,5.8,5.5,16.4-16.4,5.5h323.9Z"/>
  <path d="M69,601.4c10.6-.3,15-13.2,36.5-4.4,82.7,34,258.9,17.8,359.3,18,49.7.1,100.2,5.8,150,3.4l-.8-21.1c-6.7-7.1-64.5-8.5-73.5-5.2-4.7,1.7,2,12.6-10.7,9.9-5.1.6-1.3-7.9-3.9-9.5-12.5-8-258.1.9-297.1,1.8-26.5.7-34.1-10.7-58.6,13.2l10.9-11-9.4-9.8-152.8-18.2-13.4,11.5c-.8-5.6-3.5-9.4-7.2-11.9-.3,6.3-.6,12.6-.7,18.9,24.6-.6,52.4,14.9,71.3,14.3Z"/>
  <path d="M1161.4,690c-18.1,1.6-40.4-7.4-57.8-11.2l-8.3,21.9-10.7-20.3c-18.1,2.6-36.9,3.6-55.2,4.2-14.2.4-35.4-11.3-41.1,5.2l32.8,8.3c-27.5,28-38.4-13.7-63-16.4-20.7-2.3-56.3,7.4-76.9,7.1-8.7-.1-17.6-4.6-27.2-4.6-63.5-.3-126.8,3.7-189.6.3l19.1,21.9c-25.8,8.9-33.3-22-35.6-22h-137.3v27.4c95.7-3.2,192.5,3.1,288.1.5,9.7-.3,18.5-4.3,27.7-4.6,8.4-.3,32.1,5.6,37.6,3.9,6.2-1.9-1.1-13.5,11.6-10.8,5.2.4.5,9.9,6.4,11.3,19.4,4.5,94.4.4,120.1,0,38.6-.6,75.5-2.9,112.5-2.5,24.1.2,48.3.8,72.5,1.6,2.1-11.1,3.8-22.2,5.3-33.5-14.1-2.4-26,11.9-31.2,12.4Z"/>
  <path d="M162,355.3l12,22,51.2,5.3,16.4-10.9-10.9,10.9h16.4c0,0,5.4-16.4,5.4-16.4v21.9c0,0,189.5.5,189.5.5,12.6,1.1,23-16.3,34.5-9.9,30.8,17.3,103.6,2.6,146.7,1.5,28.4-.7,61.6,2.4,90.6,2.4l-5.5-10.8,21.9-5.6-5.4,16.4c20-6.6,44.9,6.4,57.7-10.9l2.8,10.8h10.8c8.4-33.8,28.7-.5,31.4.1,14.4,3.3,35.5-2,51.1,0l-14.6-33.1c-91.6,13.3-185.9,1.7-279.1,5.8-18.7.8-80.5,15.1-87.9,14.5-7.9-.6-15.5-22-21.9,1.9-48.5-23.4-119.8-5.5-174.8-7.5-73.1-2.6-136.6-18.7-209.9-15-2.6.1-1.8-9.4-6-10.3-7.4-1.6-16.7-1.6-26.4-1.2-3.9,8.1-7.7,16.2-11.3,24.5,44.2,4.7,92.9,7.2,112.6,9.6l2.8-16.3Z"/>
  <path d="M214.1,226.3l11-2.8c7.3,32.9,41.3,18.6,63.5,19.1,16.7.3,45.4,6.4,59.2,6.9,13.5.5,108.2,3.2,112.6-.3,1.4-1.1.8-6.6,1-9.2l5.9,10.3,49-4.9c-15.8-20.3-61.9-36.6-74.1-10.8l-6.3-11.2-151.1,2.6-128.4-19.6-10.7,11.6c-2.1-1.5-4.5-2.9-7.1-4.3-2.5,2.9-4.9,5.9-7.3,8.9,24.9,5.4,51.9,13,80.5,17.2,15.7,2.3,3.1-7.5,2.4-13.5Z"/>
  <path d="M247.1,464.8h21.9s.1,16.6.1,16.6c18.8-1.3,45.3-4.6,63.1-4.5,59.8.4,123,6.7,183.6,1.9,27.3-2.2,66.7,3.4,71.6-30.4l-216,6.1-11.8,15.8c-5.7-3.1-5.7-15-12.1-16.6-29.9-7.3-98.3,2.7-131.8,4.1l-26.3-10.1-16.4,17-11.5-21c-22.4-1.3-72.8-8.3-48,21.4,44.2,1.7,92.4,5.8,133.6,16.3v-16.6Z"/>
  <path d="M645.4,618.5l313,.3c22.2,3.3,24.8-31.5,5.2-33.2l-226.6,1.3c-2,1-3.1,15.3-20.5,14.7-12.1-.4-18.2-11.9-30.2-10.5l5.5,16.4-21.4-.8-.6-15.7h-43.8c-2.1,14.4,5.4,24.9,19.5,27.4Z"/>
  <path d="M173.4,986.5c10-1.1,7-9.5,10.6-10.3,12.2-2.8,37.3,12.1,55.2,10.5,5.5-.5,27.5-23.8,35.4-17l-5.5,16.4c4.9,4,66.3-2.6,79.6-2.4,12.9.3,70.8,9.5,73.3,6.7,2.2-2.5-1.6-10.6,3.6-9.9l6.3,11.2,119.2-.7,9-26.9c-33.2,2.1-67.1,2.6-100.6,3.4-10,.2-21.8-5.2-34.2-4-10.5,1-7.6,11.9-10.9,11.9-6.8,0-14.2-7.7-21.4-8.6-18.5-2.5-38.3-.1-55.7-7.6l-5,10.5-6.1-11.2-40,.9-3.2,10.2-6.1-11.1c-22,10.2-113.9-4.5-125.9,1.7-6.7,3.5-6.2,13.6-11.9,15.1-3,.8-6,.9-9.1.5,2.6,3.2,5.2,6.4,7.8,9.5,12,1.7,24.1,2.5,35.8,1.2Z"/>
  <path d="M666.9,476.2l3-16.9c12.3-.8,23.1,16.1,29.9,16.9,86.9,10.3,195-10.9,283-.4.4-3.6-.4-7.5,0-11-20.6-7.6-33.2-21.3-35.4-21.3-15.1,0-42,7.3-60.7,7.2-30.5-.2-61.8-4.9-92.6-2.5l-6.3,11.2c-5,.8-1-7.9-3.7-9.7-11.1-7.1-75.6,2.3-94.3-1.5l-6.3,11.2-6.1-11.2h-15.3l-6.1,11.2c-15.4-30.4-49.8-.9-68.7,13.6l79.4,3.1Z"/>
  <path d="M1040.7,476c11.5-.5,5.3-12.3,16-11.8,13.3.6,21.5,13.1,33,11.9,1.9-.2,4.6-18.4,19.4-11.2l-5.6,10.9h33c0,0,0-32.9,0-32.9l-153.1,6.1c-2.3,5,0,10.9-.6,15.8,21.3,7.9,33.5,12.2,57.9,11.2Z"/>
  <path d="M1078.9,936.7c-4.5-1.3-.8-8.8-6.7-10.9-7.2-2.5-19,1-26.8-5.1l-5,10.5-6.3-11.2-80.9-.2-9,24.9,55,2.8-11-5.5,8.2-10.8c4.8,3.6,8.6,11.2,13.8,13.5,11.1,5.1,41.3,5.6,75.1,4.6,7.2-10,14-20.2,20.6-30.6-3.6.4-7.2.8-10.7,1.4-20.5,3.2-.9,21.1-16.4,16.6Z"/>
  <path d="M1147.5,470.1l36.1.8c-2.1-9.4-4.3-18.8-6.9-28h-29.3s0,27.2,0,27.2Z"/>
  <path d="M442,695.3l-2.7-11-266.1-.4-5.8,16.9-2.8-22.1-35.9,5.3-2.5,16.6,80.1,10.6,2.4-10.4h10.9c-5.2,14,32.1,12.6,30.3-.2l2.8,11,5.5-11c6.4,2.2,8.8,7.3,16.4,9,33.6,7.3,124.1-3.6,162-3.5,15.3,0,54.5,15,66,.3l2.7-22.2c-20.7,4.1-56.1-11.1-63.2,11Z"/>
  <path d="M1150.3,605.6c-6.6-.3-19.1-17.9-35.7-3.5l-.3-16-27.1-.5,22,16.5-5.5,16.4h93.7c.2-6.1.3-12.3.3-18.4s0-9.9-.2-14.8h-19.9c-9.3,1-17.1,20.7-27.1,20.3Z"/>
  <path d="M140.1,799.6c9.6.3,13.7-13.9,24.7-11l-2.7,11,65.9.6,30-22.5c-13.5-2.9-27.8,3.9-40.2,3.4-60.8-2.5-127.5-11.1-185.7-17.4-4.1-.4-8.2-1-12.4-1.6,2,7.2,4.1,14.3,6.4,21.3,23.3,4.2,47,8.1,70.9,10.4,11.6,1.1,39.4,5.8,43.1,6Z"/>
  <path d="M812.6,220.8l16.4,5.4-11,13.7h82.3s-5.5-16.4-5.5-16.4l14,16.8c49.1-5.1,99.1,3.2,148.1-.4,8.2-.6,15.9,4.3,13.6-8.2-13.9-7.3-15.3-10.5-19.5-24.6-.1-.1-.2-.3-.3-.4l-218.9,5.3-19.3,8.7Z"/>
  <path d="M174.6,891.2c2.5-1.5-2-13,9.4-9.5l-2.7,11,117.1.3,9.2-22.1c-46.2-2.4-94.1,4.2-140,2.4-38.1-1.5-76.4-9.5-112.3-16.6,4.4,9.4,9.1,18.6,14,27.7,42.7,5.3,99.2,10.6,105.4,6.8Z"/>
  <path d="M156,274.6c25,3.1,66.8,31.7,69.1-12.7-28.1,4.1-71.7-4-114.9-11.9-5.5,7.6-10.8,15.4-15.9,23.3,9.8,5.4,52.5,0,61.8,1.2Z"/>
  <path d="M11,530.7l3,16.8c43,1.6,88.9,12,128.7-5.9,1.3-9.1-10.9-5.5-17.6-6.7-28.4-5.3-83.9-14.6-121.8-18.6-.6,4.4-1.2,8.9-1.7,13.3,2.4-.8,5.4-.7,9.3,1.2Z"/>
  <path d="M84.5,316.1c9.6-3.5,5-16.8,14.3-15.8v22c0,0,197.7,16.4,197.7,16.4-8.4-11.7-16.4-1.2-5.5-21.8l-47-6-13.3,11.4c.5-3.9,1.1-9.6-3.8-10.9-25.2-7-108.5-16-136.2-16.6-16.8-.4-1.6,9.4-2.9,16.6-7.5,1.1-12.6,1.1-16.4,0-1,1.8-2,3.6-2.9,5.4,7.6.5,13.4.4,15.9-.5Z"/>
  <path d="M438.2,896.7c2.5-1.5-1-10.1,3.8-9.5,9.2,13.7,45.5,14.7,59.3,11,4.4-1.2,13.6-22.4,25.8-22l-5.4,21.9,78.8.3,6.3-11.3,6.3,11.2c28.6-1.8,65.4,11.5,67.8-27.5h-345.9c-.5,24.1,96.6,30,103.2,25.9Z"/>
  <path d="M93.4,508.7c4.7-19.8-16.4-6.4-21.5-11.7-1.8-1.9,1.1-11.3-1.4-14.3-3.7-4.4-30.6-7.4-59.3-10-.7,3.4-1.4,6.7-2.1,10.1,15,28.3,56.4,18.8,84.3,25.9Z"/>
  <path d="M137.3,656.8l115.3,5.5-10.9-8.1,16.4-13.7c-15.6,4.4-43.5-5.4-55.6-2.7-13.4,3-34.4,33.5-32.5-2.6-25.4-1.5-51.7-4.3-76.4-11l-11.1,24.6,43.7,2.4c-3.8-30.1,23.5-15,11.2,5.8Z"/>
  <path d="M76.9,448.4v-16.4c0,0-54.4-3.6-54.4-3.6-2.4,8.1-4.7,16.3-6.7,24.6,19.8,2.6,41.3-1.7,61.2-4.5Z"/>
  <path d="M364.4,268.3c-15-5.4-95.6,8.6-117.3-.9-.8,9,5.4,21.4,13.3,25.2,13.1,6.2,93.1-2.3,112.9,2.2l-.6-18.6c-1.5-4.6-4-6.3-8.4-7.9Z"/>
  <path d="M702.8,239.9l-10.9,5.4,120.7-5.5-11.3-8.4,5.8-18.9c-21,1.1-42.5-1.6-63.4-.4-15.9.9-21,18.5-32.7.4l-2.8,10.9-21.9-10.9c-2.2,18.9,21.9,10.3,16.4,27.4Z"/>
  <path d="M680.8,245.4c3.5-28.3-28.5-28.7-49.4-27.3l11,21.9-16.5-3.8v-18.2c0,0-16.4,16.5-16.4,16.5-9.4.9-4.5-12.1-14.5-15.8-7.1-2.6-71.1-2.5-73.3,7.7l11,16.3,148.1,2.8Z"/>
  <path d="M-1.7,629.1c.1,2.9.3,5.8.5,8.7l6.7-8.2c-3.7.6-5.9.3-7.2-.5Z"/>
  <path d="M1014.4,616.7c1.6-1,1.4-9.4,4.2-9.5,11.4-.3,52.3,24.3,74,8.5-14.8-16.5-17.1-10.1-38.5-8.3l27.4-21.9h-74c0,0,2.7,21.9,2.7,21.9l-27.4,2.8c7.1,9.1,22.5,11.9,31.6,6.5Z"/>
  <path d="M1070.7,662.3h82.4v-27.5c-25.5,1.5-50.9,1.6-76.3.7l-6.1,26.8Z"/>
  <polygon points="79.7 684.5 74.2 667.9 62.6 684.6 44 678.7 54.9 667.9 22 667.9 38.5 676 16.6 684.4 120.8 700.7 115.3 673.3 79.7 684.5"/>
  <path d="M70.7,624.6l-65.2-11.6c6.9,10.8,13.4,14.4,5.4,27.3l60.4,5.5-.7-21.3Z"/>
  <path d="M.8,662.1c.5,5.3,1.2,10.6,1.8,15.8l13.9-15.6c-6.9-.3-11.9-1.2-15.7-.3Z"/>
</svg>