<?xml version="1.0" encoding="UTF-8"?>
<svg id="Layer_1" xmlns="http://www.w3.org/2000/svg" version="1.1" viewBox="0 0 1200 1200">
  <!-- Generator: Adobe Illustrator 29.0.0, SVG Export Plug-In . SVG Version: 2.1.0 Build 186)  -->
  <defs>
    <style>
      .st0 {
        fill: none;
      }
    </style>
  </defs>
  <path class="st0" d="M432.5,1176.4h0c-.3-.2-.6-.3-.9-.4.3.1.6.3.9.4Z"/>
  <path class="st0" d="M175,1033l6.2-3.3c-1.6-1.6-3.2-3.1-4.8-4.7l-1.4,8Z"/>
  <path class="st0" d="M756.6,1188.3l3.4-9.9c-2.7.8-5.5,1.5-8.2,2.2,2.1,2.2,3.8,4.7,4.8,7.7Z"/>
  <path class="st0" d="M247.6,352.7l6.3,11.4,2.7-11,211.6.2,24.4,22.4-10.9-21.9h100.8c0,.1,6.2,11.3,6.2,11.3,10.5-23.2,30.9-5.4,46.6,5.6l3-16.8c95.4-.5,191.1,2.4,286.3,4.6,23.6.5,56.7-14.3,75.9,7.7,14.3-32.7,69-11.3,99.1-11.2,14.9,0,31.1,0,48.1,0-3.6-8.1-7.4-16.1-11.4-24-5.1,0-10.1,0-15.1.1-66.6,1.3-146.8,17.3-214.3,8-10.9-1.5-7-11.9-10.6-11.7-8.1.4-13.1,9.5-22.1,11-15.3,2.5-66.8,2.3-82.4,0-16.6-2.5-6.2-24.9,1.1-33.3,16.5-3.8,27.3,9.4,32.1,9.4,3.6,0,11.3-9,21.8-9.4,86.2-3.1,174.5.3,258.2-1.1,5.6,0,11.2-.1,16.7-.2-3-5.2-6-10.4-9.1-15.5-43,1.7-86.1,3.3-128.5,1.3l-16.3-16.7c-1.2,8.9-19.3,15.1-28,16.1-16.3,1.9-110.4,7-120,5.7-18.8-2.6-9-19.9-27.5.4-19.8,1.5-45.2-16.7-26.7-33.9,23.3,5.4,66.9-11.5,75.9,11.4,11.5-18.1,26.8,5.4,33.8-16.5l106.2.5v27.4c-.1,0,8.8-27.8,8.8-27.8l103.7,6.3-13.6-11h7.7c-3.4-4.7-6.8-9.4-10.4-14.1-21,1-41.7,2.3-60.2,3.2-31.8,1.5-40.8,1.4-66.3-10.1-11.9-5.3-15.3,9.2-17.3,9.5-12.7,2.1-19.4-4.4-26.9-5-2.7-.2.2,9.6-10.2,10.8-56.4,6.7-139.8-5.3-198-9-11.8-.7-29,8.7-38.4-3.1-2.3-2.9,9.9-16.3-10.9-11.2-2,.5-15.7,26.1-35.7,16.4v-16.4c-14.5,12-23.3,20.2-44,16.4v-27.5c.1,0,107.5,5.2,107.5,5.2,5.4-20.5,23-5.2,38.1-4.8,22.3.6,64.4-8.2,71.3,11.4l34.9-9.8,3.5,9.8,6.3-11.2,84.3.4-5.4,13.7,10.9,2.7v-22c44.1,1.3,88.3,1,132.4.7C943.8,80.4,781.3,0,600,0S244.9,86.1,134.9,221c5.1-2.6,10.7-11.1,20.3-11.5,23.5-.8,50,4.8,74.6.8l-2.8,10.9c13.1,2.7,3.2-10.2,16-11.4,41.2-3.9,140.2-3.2,181.7.4,10.4.9,7.6,9.6,10.8,10.7,5.1,1.7,23.5-9.6,32.7-10.2,12.4-.8,85.6-3.2,85.3,8.7-15.7,36.3-60.4,13.9-90.5,14.6-29.4.7-75.4,17.3-98.9-1.4l-10.5,11.4-149.1-.5-10.6-11.5-11.6,11.1c-28,7.9-11.5-33.5-45-15.3l-1,15.1c-6.8,3.7-12.2,1.3-15.7-3.6-4.9,6.5-9.7,13.2-14.4,19.9h19.2c0,.1-2.8,11.1-2.8,11.1l33.1-11.6c18.9,21.5,15.3,4.1,32.9.9,11.7-2.1,25.5.4,37.5-.2l6.2,11.2c2.5-17.6,32.8-14,44.7-5.7,8,5.6-2.3,17.4,13,19.5-67.3,0-136,5.6-203.4,4.9-3,5-6,10.1-8.9,15.2l127-1.2v11.1c35.5-19.9,77.5-6.7,115.3-6.3,15.7.2,60.9-11.2,73-2.7,1.7,1.2,1.1,6.5,1.3,9.3l8,.3c-3.2-15.3,70.4-13,73.6-10.6,2.7,2.1,10.3,31.8,3,32.7l-29.9-.2c9.2-20.5-14.6-20.5-5.5,0l-113.2-5.5c-10.2-6.7,5.8-21-12.9-16.8v22.1c-.1,0-38.5-.2-38.5-.2l5.5-27.3h-10.9c-2.2,41.9-36.9,20.7-57.8,21.7-51.1,2.2-102.8,4-154.7,5.4-3.2,6.5-6.2,13-9.2,19.6,41.9-14.8,153.9,6.6,195.9-3.3ZM778.4,310.7c2.4,12.2-7.1,13.2-15.7,17.2l4.7,10.1-252.6-.8,5.6-32.8c24.2,7.2,92.5-4.8,111.9.5,6.2,1.7.7,11,6.1,10.9l5.4-10.4c18.2,9.2,47.6-14.1,54.9,10.6,22.8-19.5,53.7-9.5,79.7-5.2ZM320,287.4c-2.2,0-32.4-22-35.6-27.5l38.1.5,3,16.1,13.7-16.5,2.7,22c7.5-29.2,23.1-26.6,49.9-16.8l5.1-10.6,24.6,16.7-5.4-16.4,13.7,11,13.7-10.9v21.9c12.7-3.5,10.1-12.8,5.5-21.9l296.5.9-26,32.8-173.6-.8c-8.1-1.2-26.8-51.4-47.4-16.4l21.9,16.6-200.4-.6Z"/>
  <path class="st0" d="M157.7,418.5c16.4-4.4-3.4-20.7,16.4-16.4-3.8,12,3.4,13.4,5.5,16.5,1.1-2.6-.4-7.9,2.4-11.2,7-8.2,63-6.6,77-4.8,10.5,1.4,20.2,11.3,27.5,11.1,2.8,0,2.3-10.3,6.6-11.2,10.9-2.5,55-4.5,70.6-5.1,65.1-2.6,131.7,4.4,197.3,0l5.7,16.9,5.5-16.5c29.4,4.3,214.5-.2,226.7,7.7,2.6,1.7-1.1,10,3.9,9.6,12.4,2.7,6.4-7.5,9.4-9.5,3.7-2.5,86.8-8.2,81.5,9.2l10.5.5c0-21.8,60.1-24,63.2-5.3,15.2-20.9,38.3-6.8,55.9-7.4,45.6-1.3,94.5-2.6,142.7-1.9-2.8-7.9-5.7-15.6-8.8-23.3-37.5-1.3-107.6,2.1-132.9,2.9-21.4.7-49.4,10.7-73.6,8.3-10.8-1.1-7.1-12-10.7-11.8-7.9.4-12.9,9.2-22.1,10.9-7.9,1.4-108.9,1.1-114.4-.4-4.3-1.2-2.8-10.9-6.2-10.9-7.7,0-12.9,9.4-22.1,11-30.6,5.1-65.4-4.1-95.9-5.7l2.7-11c-24.5,5.9-38.3,13.5-65.6,10.5-33.4-3.7-34.3-.2-65.7,0-59.7.5-119.1-4.3-178.8-.6,4.9-8.3,3.6-16.7-8.1-16.5-5.3,22.3-80,25.1-98.1,22-5.5-.9-.1-16.6-14.6-11.3l2.7,11h-13.7s-2.7-16.6-2.7-16.6l-5.8,16.9c-32.8-7.9-97.3,18.4-104-22.6-9.3,12.5-17.1,12.5-30.2,5.4l5.4,16.4-63.3-.2c-2.1,5.4-4.1,10.9-6,16.4l121.3.2,2.9,16.7Z"/>
  <path class="st0" d="M597.2,1200c-21.3-1.2-42.6-2.4-63.9-3.6,21,2.3,42.3,3.6,63.9,3.6Z"/>
  <path class="st0" d="M395.3,880.2c5.5.6,11.9-2.5,16.8-5.1l5,10.6,6.3-11.2,265.5,6.5,5.4,16.4,2.6-15.9c23.3,4.6,114.8-7.5,128.3,1.2,2.7,1.7-1.4,10.5,3.7,9.7l3.6-9.9,56.5,4.1,3,16.8,10.9-10.9,2.7,22,3.5-21.2c5.6-9.1,90.6-6.6,106.7-6.3,34.6.7,71,2.9,107.9,5.9,2.7-4.9,5.4-9.8,8-14.8-52.9-5-105.9-8.4-159.3-7.2l-8.9-11.1c2.3,23-26.1.5-40.8,10.8l-5.9-11.1-2.8,6.9c-13.3,10.5-26.7,6.2-21.9-12.3l-8.3,16.5c-30.2-9-95.1,8.3-120.2-1.9-8.5-3.5-13.3-25.3-33.4-20.8l8.1,22.1c-16.8,5-22.7-10.5-24.2-10.4-3.5.1-10,5.2-17.1,5-19-.4-64,2.8-75.9-.3-6.2-1.6-1.1-11.3-6.2-11.2-5.6,22-31.5,5.7-49.2,5.2-87-2.5-174.4-.9-261-.6,24.8-38.4,55.7-28.4,95.4-32.9l3.6,11.3,8.2-11,8.2,11.1,2.8-11c5.9,24.2,18.3,3.3,30.2,2.2,42.9-3.8,131.1,1.6,178.4,3.6,13.6.6,35-2.8,38.4,11.5,5.9-21.6,45.5-3.4,65.9-2.9,84.6,2.4,181-9.2,263.9-2.3,1.5.1,8.2,5,16,7.6,6.1,2.1,0,8.9,5.6,9.6,5.2-26.5,2.2-11.5,16.3-12,35-1.4,72.5,0,110.4,2.7,2.6-5.8,5.1-11.6,7.5-17.5-4.5-.2-8.9-.3-13.1-.3-32.9,0-55-5-82.2-5.5-51.5-.9-103.1-2.7-154.3-1.8l-5.2-10.1-5.2,10-214.6.6-106.8-11.5,32.8-8.2-10.8-19.2c30.3.7,60.5,7.3,90.5,8.9,18.1.9,49.1-14.7,54.9,8,5,.8,1.1-7.9,3.8-9.6,11.7-7.4,164.8,2.3,194.9,2.6,78,.9,152.1,3.6,225.9,8.4,2-5.5,3.8-11.1,5.6-16.7-41-5.1-80.5-9.4-116.9-11.5-23.4-1.4-47.4,1.3-70.8.1l-6.2-11.2-6.1,11.5-243.8-1.3-2.6-11c-4.9.7-.9,10.1-6.4,11.3-38.3,8.3-135.3-9.2-181.2-9.8l-257.1,2.7,8.2-13.7-20.7-4-3.9-9.8-13.9,21.8,16.5,5.5c-26.5-7.4-60.4,10.6-79.6-11.1-7.6,21.9-38.8,6.8-57.6,10.7l2.8-16.4h-19.2s5.4,16.4,5.4,16.4l-16.2-4.2-3-6.8c-.9,16.3-52.5,13.9-65,10.8-4.3-1-3.8-11.1-6.1-10.9-2.1.2-4.7,1.3-7.5,2.8,2.5,9.3,5.2,18.4,8.1,27.5,8.6,3.5,15.8,8.4,20.9,8.4,2.2,0,18.2-31.6,33.1-.1l6.1-10.9h84.5c0,.1,2.6,11.2,2.6,11.2l10.6-11.5c115.4,10.7,250-11.3,363,1.4,8.2.9,16.9,1.2,18.9,11.1-13.4-1.7-13.8,15.2-21.8,19.4-12.2,6.4-39.7-3.3-55,2.3l2.9-10.9-13.8-5.5-.3,16.4-199.5-5.6-12-22.1-17.6,6.2-.7,12.9-213.9.9c2.1,5.9,4.4,11.7,6.7,17.4l224.9.5,3.6,11.2c9.7,2.4,1-16.3,13.6-10.8,3.8,1.7,9.6,8.6,8.4,13.7-12.7,4.8-7.3,5.5-10.6,16.6-67.7-2.7-155.7,9.8-224.5,3.9,2.5,5.2,5.1,10.4,7.7,15.6,109.5,3.1,220.5-6.1,328.8,5.5Z"/>
  <path class="st0" d="M177.8,1016.6l-1.4,8.3c1.6,1.6,3.2,3.2,4.8,4.7l24.1-13-5.6,21.8,21.9,5.6-16.4-11.1,13.6-16.8c28.5,6.7,73.4-4.2,99,.8,11.7,2.3,27,25,41.2,16.5,1-.6-10.8-13.5,8.3-16.4,9.6-1.5,20.4.7,30.2.2l-10.9,10.8,32.9,5.6-5.5-10.9,49.2-5c3.4,3.1-8.2,21,14.1,16.3,13.5-2.8,10.4-12.4,14.8-15.6,5.3-3.8,119.3,4.8,130.7,7.2,10.9,2.3,25.4,14.8,35.1,14.5,3.3-.1.4-10.3,11-11.7,10.3-1.3,100.6-1.4,109.3.6,4.4,1,3,11.5,6.3,11.4,74.9-13.7,152.7-13.1,230.3-7,6.3-6.1,12.5-12.3,18.6-18.6-71.4,2.5-149.4,8-215.8-13.1-7.2,22-46.3,2-68.7,10.9,5.4-9.7,16.5-4.9,11.2-24l-11.1-8.8c68.6,3.2,137.6-2.1,206.2.4,34.8,1.3,69.4,3.4,103.8,6.2,2.8-3.4,5.7-6.8,8.4-10.2-55.7-4.8-111.5-9.3-167.4-12.4-28.6-1.6-71.3,4.7-93.3-11.3l-10.8,11.6-38.4-12,5.2,11.3-247.4-5.8-10.5-11.6c-5-.8-1.1,7.9-3.8,9.6-11.5,7.3-117.5-8.4-141.8.9l5.5-16.4c-14.2,10.5-14.1-3.3-16.4-16.5h38.4c0,.1-5.5,16.5-5.5,16.5l21.8,5.6c5.1-9.9-5.4-22.1,8.4-22.1,18.8,0,25.2,1.1,24.6,22.2,24.5-21.9,52.6-21.9,84.8-21.9,46.4,0,91.5,7.3,137.6,8.4,57.1,1.3,115.7-2,172.9-1.8v16.6s27.4,0,27.4,0l-5.4-16.4c69.5,9.1,142.4,2.3,211.3,6.1,10.1.6,20.2,1.3,30.3,2.2,3.2-4.7,6.4-9.5,9.5-14.3-33-2.5-68.3-4.5-100.1-7-27.7-2.2-61.1,8.7-87.8-14.3-8.8,5.7,13,15.8-5.6,16.6-54.9,2.4-104.5-15.5-148-17.3-3.6-.1,0,10.4-10.7,11.7-29,3.3-126.9,3-154.6-.5-10.9-1.4-3.7-4.4-32.5-5.6-101.3-4.2-221.7,8.6-318.7-1.2-6-.6-12.5,0-16.5-5.7l3.1-22.1-27.4,5.5,10.9,21.9-104.3-.3,22-10.9c-4.6-33-28.5,4.4-34.1,7-4.2,1.9-9.6,3.4-15.8,4.4,4.1,6.8,8.3,13.6,12.6,20.2,6,.7,12.3,0,16.8,1.5,5.8,2,2.1,9.6,6.6,10.9,15.5,4.5-4.1-13.4,16.5-16.6,57.8-8.9,136.9,7.5,197.3.3l8.5,33.2c-19.6.5-39.5-.6-59-1.8-9-.6-34.5-6.5-42.4-6.7-23.3-.6-80.6,3.8-126.8,4.5,3.6,4.9,7.2,9.7,10.9,14.5,7.4,0,14.9,0,22.3-.3,5.5-.2,13.6.1,5.5,5.8l-13.7,10.9c19,1.4,36.2,29.7,38.5-10.8l-16.5-5.5c19.1-8.3,46.2,10.3,58,11.1,8.9.6,38.6-5.4,54.6-5.1,39.1.7,78.9,1.5,118,0l2.7,22,11.7-22.2,105.6,1.5,11.8,26.5-370.8-.9c4.4,4.9,8.8,9.7,13.3,14.4,3.2,0,6.9.7,11.5,2ZM518.4,973.7c40.9-6.2,80.4,6.5,118.9,9.2,25.5,1.8,85.8-18.8,66.7,28.8l-37.5.7c6-9.7-.9-28.2-13.6-27.5l-8.1,13.4-10.8-1.8-.5,15.9c-17.4-10.7-62.7-2.3-73.4-6.1-10-3.5-6.3-16-10.2-20.2-6.1-6.4-29.9-.7-31.5-12.4Z"/>
  <path class="st0" d="M571.9,1123.3l.9,15.2c14.9,5.1,10.1-9.9,16.2-13.7,15-9.2,141.6,1.5,167.7,2.2,41.7,1.1,83.9,1.5,126.4,2.2,12-6.4,23.8-13.3,35.3-20.5-17.7.4-75.6,8-82,3.1l5.5-16.4c-5.5,6-29.5,12-35.8,10.2-5.2-1.4,1.3-12.7-8-10.3l-3.1,16.8-68.1-6.4-5.7-27.1c80,5.9,160.1-2,240.4.2,7.2-5.4,14.3-11,21.2-16.8-2.4-1.5-4.6-3.2-6.4-4.7l-19.1,10.9,11-10.8-19.5-5c-2.7-.2.1,9.5-10.3,10.8-7.3.9-93.7.6-98.5-.6-6.2-1.6-1.1-11.1-6.2-11.2l-6.3,11.3c-18.1-5.9-38.1,1.4-54.3.1-9-.7-11-19.6-30-11.6l10.9,10.9-24.4.3-5.7-16.8c-15.3,8.7-12.6,19.2-33.1,16.8-23.8-25.3-22.3-7.4-38.6-6.4-37,2.2-79.6.2-114.9-8.3l-81.8,2.7-6.2-11.2c-5.3-.4-.5,8.1-5.2,10-24.5,10-103.5-6.6-134.7.6-.9-41.2-16.8-6.1-21.9-2.9-3.6,2.2-43.4,3.6-83.6,3.9,5.2,4.5,10.4,9,15.7,13.3,16.2-1.7,35.5,2.7,37.5,13,8.9-12.2,21.7-12,35.8-10.8l-5.6,16.4-21.8-5.6v21c7.6,5.2,15.5,10.3,23.6,15.2,8.3.7,13.8,1.6,14.7,2.4l-2.5,4.8c2.6,1.5,5.2,2.9,7.8,4.4l3.2-9.5c34.7,7.1,246.6-7.2,259.6,7.9ZM293,1091l16.4-8.4v-10.8s-10.9-5.5-10.9-5.5l137.3.4-2.8,10.9h19.2s-5.5-10.9-5.5-10.9h27.5c0,0-5.6,10.9-5.6,10.9l13.8.2c7.6-25.3,59.9-3,76.7-2.4,44.4,1.6,91.5-4.6,136.2-1.7l14.9,12.9c-12.8,0-9,15.5-11.7,18.2-4.7,4.7-127.5-1.1-133-4.8-4.9-3.3-1.3-10.2-6.4-11.2-12.1-2.2-6.6,7.5-9.4,9.4-10,6.7-107.6-2.7-129.5-2.7-37.6-.1-75.8,6.5-113.8,3.6-8.2-.6-15.9,4.2-13.6-8.2Z"/>
  <path class="st0" d="M431.7,1176.1c.3,0,.6.2.9.3l8.3-10.8-10.9-5.5h62.3s6.2,11.2,6.2,11.2l5.5-11c17.5,17.1,42.5-.3,65.2,6.5l6.2,21.2c16.9,2.9,11.7-9.3,17.2-10.5,16.1-3.4,58-5.4,75.8-5.8,24.2-.6,67.1-7.5,83.2,9.1,2.8-.7,5.5-1.5,8.2-2.2l2.4-6.9,19.7.3c16.3-5.2,32.3-11,47.9-17.5-8.1-1.4-16.2-3-24.1-4.8l-10.5,11.2c-14.3-6.2-23.1-2.5-19.6-21.6-8.3-2.6-4.8,9.7-10.8,13.8-4.9,3.3-102.5,4.9-111.9,2.3-5.3-1.4-2-12.8-6.2-11-14.8,6.3-49.4,21.8-52.3-5.7l-14.1,16.6c-64.8-11.2-130.7-12.4-196.4-11.6l-3.6-11.1-9,11-28.9-1.3c12.6,6,25.5,11.6,38.6,16.7,6.2.2,10.8.5,13.2.8,17.6,2.2,23,10,37.3,16.4Z"/>
  <path class="st0" d="M126.6,731.1c16.9,3.2,16.7,27.5,32.8,27.6l11.7-26.3c35,5.4,92.5-8.8,124.6-.9,6.8,1.7,5.9,16.2,14.7,16.6l3-16.8c26.4-5.1,25.9,11.6,27.6,11.7,6.9.4,24.4-10.1,38.1-11.2,57.2-4.6,161.5-3.9,219.7.3,18.2,1.3,51.2,4,60.7,18.6,1.9,2.9-3.7,10.9,5.1,14.8l13.7-5.4-10.9-21.9c20.2,3.9,103.5-5.7,114.1,1.8,1.7,1.2,1.1,6.5,1.3,9.3l8,.3c11.1-22.1,60.1-6.9,84.8-7.3,106.8-1.7,202.7-1.1,305.8,6.8,1.5-6,3-12.1,4.3-18.2-22.7.4-52.4,1.7-65.6-3.5-3.9-1.6-.8-11.1-5.1-9.9-4,1.1-7.6,7.7-16.5,8.3-22.4,1.4-91.1,1.6-96.2-19.5l-8.3,16.6c-30.1,5.5-29.4-17-32.8-16.9l-5.8,16.9-67.7-1.8-3.4-9.9c-3.1,17.6-45.8,17.6-49.4-.1l-2.7,11c-44.4-6.7-103.7,6.7-145.7-1.4-4.9-1,.2-10.5-5.3-10l-2.7,11-111.8-5.6-6.2-11.2-10.6,11.5c-71.9-4.2-142.8-.6-214.4-1.2-12,0-31.1-8.8-32.8-8.6-8,.9-21.5,14.7-35.9,8.6,1-13.9,3.4-20.4-10.9-24.7,3.9-9.5,54.7-8.3,68.1-7.5,21.3,1.2,45.2,13.9,50,14.2,20.3,1.6,95.9-34.3,126.2-3,20.9-20.3,79.7-8.3,109.9-2.5,15.4,2.9,19.5-12.3,35.6,13.7l3.1-16.8,92.9.3,3,16.9,16.4-5.5-8.1-11c34.7,1.7,69.8-1.8,104.4.1,9.6.5,48.7,11,53.6,10.4,4.5-.6,10.3-9.1,17.8-9.8,24.9-2.1,79.6-8.2,87.6,16.6,4.8,0,2.8-10.6,8-13.9,5.9-3.8,125.4,2,140.4,3.2,8.5.6,17.8,1.8,27.4,3.2.8-4.8,1.5-9.7,2.2-14.5-64.7-6.2-129.8-11.2-194.4-13.4-72.6-2.5-146.2,1.6-218.8,2.1l-6.3-11.4-5.8,11.3-35-1-3.1-10.5-6.3,11.2-141.2-5.9-3.5-22-8.4,21.9-68.4-.3-2.8-16.5c-9.7-1-22.1-.3-24.7,10.9l8.2,5.6-268.6-.8c-12.4-15.7,7.2-17.8,16.2-27.4l8.1,10.9c-5.1-20.3,54.9-9.1,57.8,5.8h13.6c0,0-5.5-11-5.5-11,19.7-2.4,48.7-10.3,67.8-5.3,4.5,1.2,3.1,11.3,6.4,11.2,7.2-.2,14.1-9.7,27.1-11.4,31-4.1,78.4,4.8,110.1,5,29.9.2,66.8-8.6,98.6-4.5l3,16.9,5.5-16.4c45.2,2,90.1,8.5,135.4,9.3,36.6.6,80.5.3,114.5-.2,10.7-.2,34.7-9.2,49.3-8.7,14.6.5,33.4,1.9,38.3,16.9,28.6-19.8,79.9-17.2,120-15.6,35.6,1.4,75.6,4.1,116.8,7.6.4-5.3.8-10.7,1.1-16.1l-323.1-5.8c-25.3-58.7,78-13,102-35.7l5.4,11,5.3-10.9c19.6,18.6,35.1,2,49.4,1.2,55.3-3.1,110.7,9.6,161.8,14.6,0-2.3,0-4.6,0-7,0-4.4,0-8.8-.2-13.1-47-1.7-93.9-2.8-139.4-6.3-14-1.1-28.7-2.7-24.9-19.3,5.7-24.9,24-7,41.4-7.8,41.6-1.9,81.9-1.2,121.4,1.1-.5-6.6-1.1-13.2-1.8-19.8-18.5-.5-37.1-.9-54-3.1-10.5-1.3-7.6-11.3-10.2-11.1-93.7,8-207.9,23.3-302.8,10.2-10.9-1.5-6.9-11.9-10.6-11.7-7.9.5-12.3,8.9-21.7,10.3-27.7,4-135.4,3.4-158.4-6.3-8.2-3.5-12.2-20-25.6-20.8l5.3,21.9c-6.4-3.9-9.6-.3-13.7,0-65.4,4-134.6-3.5-200.4-.6l.4-27.2,452.6.7c15.6,4,38.6-.6,43.9,17,11-29,43.6-10.2,65.9-10.4,20.1-.2,57-19.2,65.7,5.2,33-17.7,87.1-11.7,126.2-10.3,10.7.4,21.6.9,32.6,1.6-.9-5.2-1.8-10.4-2.8-15.5-75-4.7-150.3-7.6-226.9-8.2-24.5-.2-126.8,10.9-139.3,2.9-2.7-1.7,1.3-10.5-3.7-9.7l-3.3,10.6c-19.1-12-16.4,17.1-32.9-3.5-3.3-4.1-2.4-13.3-5.8-17-1-1.1-14.9,5.8-15.6-6.6,23.6,8.1,65.3-5.1,84.3,0,4.6,1.3,4,7.3,3.6,11h5.3c1.6-33.7,43.7,7.3,49.6-12.4l10.9-3.7-2.8,27.4,5.5-16.6,8.1,11c1.4-11.2,7.8-20.6,19.5-21.7,77.6,6.4,158.3-3.3,235.2.4-1-3.8-2-7.6-3.1-11.4-30.1-2.4-62.7-9.4-94.2-5l-6.2-11.2c-3.7,21.8-62.2,11.2-63.2-5.5l-5.5,10.9-5.4-16.5-5.5,21.9-175.7,4.9,16.5-27.3-32.9,16.4,8.1,11h-59.6c0,0-6.2-11.3-6.2-11.3-5.9,23.5-39.9,3-49.4,2.6-59.7-2.1-172.7,14.2-219.7-7.4-11.5-5.3-15.3,8.9-17.4,9.3-14.6,2.7-52.2,5.4-53.9-11l-10.6,11.5-82-.6-6.2-11.2-6.3,11.2h-109.3c-5.8.1-10.5-7.2-13.4-11.5-1.3,3,3.3,11.5-3.3,11.1-29.2-3.5-65.1,3.7-93.2,0-9.7-1.3-6.9-9.4-12-11-19.9-6.3-32.1.7-45.2,6.4-3.8,12.5-7.2,25.2-10.2,38,3.1,1.6,6.5,3.1,10.1,4.5.7-4.8-1.6-10.8.7-15.8l153.1-5.7v32.9s-33-.2-33-.2l5.6-10.9c-14.8-7.2-17.6,11-19.4,11.2-11.5,1.2-19.6-11.3-32.9-12-10.7-.6-4.5,11.3-16.1,11.7-24.4.9-36.6-3.4-57.9-11.3-.5,3.5.4,7.4,0,11-4.3-.5-8.7-1-13.1-1.3-1.3,6.1-2.5,12.3-3.5,18.5,68.4.9,136.7,1.6,204.8,1.1l12.2,9.8c4.7-17.6,43.5-12.1,60.7-11.1,21.2,1.2,49.3,5.4,71.1,8.9,6.7,1.1,19-6,24.2-2.4l6,18.8c-75.4,3.5-152.2,4.1-227.5,2.1-38-1-37.4.3-71.8,4.5-14.5,1.8-70.9-.9-68.6-21.4l-8.1-.2c-1.4,5.8-3.5,8.5-6,9.7-1.4,9.7-2.5,19.5-3.4,29.4,16-.1,31.8-.4,47.6-.7,14.1-.3,101.8-.2,107.3,3.3,3.7,2.4,3.4,12.2,9.2,13.8,31,8.3,30.3-16.9,56.6-21.9l-11,21.9c25,12.6,13.9-19.3,45.8-10.9,6.5,1.7,0,13.4,9,11.1v-22c0,0,33.1.2,33.1.2l2.7,21.9,13.8-2.8-11-19.1c41.2,3.4,82.4-.1,123.6-.1,80.9,0,165.1,5.5,246.8,6.9,118.3,2,237-3.1,354.4,6.3v27.5c-.1,0-173-.3-173-.3l-2.8-16.8-9.9,4-3.8-9.5-12.5,9,4.2,13c-32-.9-64.3.8-96.4,0-10.5-.2-18-9.3-21.6-9.3-4.7,0-22.7,15.6-35.7,8.9v-22s-14,16.8-14,16.8c-23-5.5-69.8,13.1-73.9-17-12.9,9.2-19.8,20.3-38.3,16.3,15.3-26.5-21.2-23.7-5.5,0l-120.8-.4c15.3-25.4-26.5-.6-35.7.4-89.2,10.3-233.7-.9-329.5-1.4-16.3,0-28.4-.3-44.4-.3-5.3,0-10.6,0-15.9,0-.3,5.5-.4,11.1-.5,16.6h6.1c19.6,1.8,16.9,36.6-5.3,33.2h-.5c.2,5.5.5,11,.8,16.4l71-.3,29.9,5.9-11,16.3,16.5,5.6-104-.3c.7,6.9,1.6,13.7,2.6,20.6,20.8,7.6,32,41,57.3,15.3l-32.8-8.4c5.8-16.4,27-4.7,41.1-5.1,18.3-.5,37.1-1.4,55.2-4l10.7,20.4,8.4-21.9c17.4,3.9,39.7,12.9,57.8,11.4,5.7-.5,19.6-17.7,35.5-11-3.2,15.1-5.2,20.9,5.4,32.8-29.2-1.3-58.6-2.1-87.7-2.5-37-.5-73.9,1.7-112.5,2.2-7.7,0-19.7.5-33.3.9,1.7,8.8,3.6,17.4,5.7,26.1l6.2-11.1c31.7,6.4,72.8-5.4,103.5.5ZM190.5,473.2v-27.1c0,0,200.3.3,200.3.3l16.6,16.8,5.8-16.9,46.4.6c-.7,3.7-8,9.3-2.8,10.9,24.4,7.5,0-13.5,16.5-11,10,1.5,19.8,4.1,29.6,6.4,2.4,2.4,0,7.4.6,10.2,7.2,0,13.1,9.5,19.3,0l-2.8-16.5c81.4,5.4,163.1-11.5,241.1,17.6l.3,21.5c-17.5-3.7-46.4,1.3-52.1-16.7l-2.7,11-203.2-.6c-.7-5.3,1-11.6,0-16.5-24.7-.1-18.8,15.2-25.9,16.7-7.8,1.7-23.2-5.8-33.9-.7l-8.8-21.8-8.3,13.8,11,8.1-247-6.4ZM448.1,589.5c0,41.2,19.7.7,30-.4l376.2,7.1-15.3,13.2,4.2,19.6-115.3-.4,2.8-10.9h-19.2s5.5,10.9,5.5,10.9c-9.1,6.2-69.8-9.9-85.7-10.6-10.6-.5-21,5.3-32.1,5.1-25.5-.7-51.2-6.7-73.9-1.1l-3.1-10.4-6.3,11.2-111.7-.5-5.4-32.9h49.4ZM61.2,609.9c-2.8,0-2.6,8.5-4.2,9.5-9.1,5.4-24.5,2.5-31.6-6.6l27.4-2.7-2.7-22,74,.3-27.4,21.8c21.4-1.8,23.6-8.2,38.4,8.4-21.8,15.7-62.6-9-74-8.7ZM195.4,665.5l-82.4-.2,6.2-26.7c25.3.9,50.7.9,76.3-.5v27.5ZM146.1,621.4l5.6-16.4-21.9-16.5,27.1.6.3,16c16.6-14.4,29.1,3.3,35.7,3.6,10.1.4,17.9-19.2,27.2-20.3l173.2.9-5.6,32.8-241.5-.8Z"/>
  <path d="M1037.4,842.6c-14.1.6-11.1-14.5-16.3,12-5.7-.7.5-7.5-5.6-9.6-7.7-2.6-14.5-7.5-16-7.6-82.8-6.9-179.3,4.7-263.9,2.3-20.4-.6-59.9-18.7-65.9,2.9-3.4-14.3-24.8-11-38.4-11.5-47.4-2-135.5-7.4-178.4-3.6-11.9,1.1-24.3,22-30.2-2.2l-2.8,11-8.2-11.1-8.2,11-3.6-11.3c-39.7,4.5-70.6-5.5-95.4,32.9,86.6-.3,174-1.9,261,.6,17.7.5,43.6,16.9,49.2-5.2,5.1-.1,0,9.5,6.2,11.2,11.9,3.1,56.9-.2,75.9.3,7.1.2,13.6-4.9,17.1-5,1.5,0,7.4,15.4,24.2,10.4l-8.1-22.1c20-4.5,24.9,17.3,33.4,20.8,25.1,10.2,90-7.1,120.2,1.9l8.3-16.5c-4.8,18.5,8.6,22.9,21.9,12.3l2.8-6.9,5.9,11.1c14.8-10.3,43.1,12.1,40.8-10.8l8.9,11.1c53.4-1.2,106.4,2.2,159.3,7.2,5.7-10.8,11-21.8,16-32.9-37.9-2.8-75.3-4.1-110.4-2.7Z"/>
  <path d="M853.4,930.8l5.4,16.4h-27.4s0-16.6,0-16.6c-57.1-.2-115.8,3.2-172.9,1.8-46.1-1.1-91.2-8.4-137.6-8.4-32.2,0-60.2,0-84.8,21.9.5-21.1-5.8-22.1-24.6-22.2-13.8,0-3.3,12.2-8.4,22.1l-21.8-5.6,5.5-16.4h-38.4c2.3,13.1,2.2,26.8,16.4,16.3l-5.5,16.4c24.2-9.3,130.3,6.4,141.8-.9,2.7-1.7-1.3-10.4,3.8-9.6l10.5,11.6,247.4,5.8-5.2-11.3,38.4,12,10.8-11.6c22,16,64.7,9.7,93.3,11.3,56,3.1,111.7,7.6,167.4,12.4,9.7-12,18.9-24.4,27.6-37.1-10.1-.9-20.2-1.6-30.3-2.2-68.9-3.8-141.8,2.9-211.3-6.1Z"/>
  <path d="M1024.1,692.5c-5.2,3.3-3.2,13.9-8,13.9-8-24.8-62.6-18.7-87.6-16.6-7.5.6-13.3,9.2-17.8,9.8-4.9.7-44-9.8-53.6-10.4-34.6-1.9-69.8,1.5-104.4-.1l8.1,11-16.4,5.5-3-16.9-92.9-.3-3.1,16.8c-16.1-26.1-20.2-10.8-35.6-13.7-30.2-5.8-89-17.8-109.9,2.5-30.3-31.3-105.9,4.6-126.2,3-4.8-.4-28.7-13.1-50-14.2-13.4-.7-64.2-2-68.1,7.5,14.3,4.3,11.9,10.8,10.9,24.7,14.4,6.1,27.9-7.7,35.9-8.6,1.7-.2,20.9,8.5,32.8,8.6,71.6.6,142.5-3,214.4,1.2l10.6-11.5,6.2,11.2,111.8,5.6,2.7-11c5.5-.5.4,9,5.3,10,42,8.1,101.3-5.3,145.7,1.4l2.7-11c3.7,17.7,46.3,17.8,49.4.1l3.4,9.9,67.7,1.8,5.8-16.9c3.4-.1,2.7,22.4,32.8,16.9l8.3-16.6c5.1,21.2,73.8,20.9,96.2,19.5,8.9-.5,12.5-7.1,16.5-8.3,4.4-1.2,1.2,8.3,5.1,9.9,13.2,5.2,42.8,3.9,65.6,3.5,2.4-10.6,4.4-21.3,6.2-32.1-9.6-1.5-18.9-2.6-27.4-3.2-15-1.1-134.5-7-140.4-3.2Z"/>
  <path d="M1033,509c-8.7-24.4-45.6-5.4-65.7-5.2-22.3.2-54.9-18.7-65.9,10.4-5.2-17.7-28.2-13-43.9-17l-452.6-.7-.4,27.2c65.8-2.9,135,4.6,200.4.6,4.1-.2,7.3-3.9,13.7,0l-5.3-21.9c13.4.8,17.4,17.3,25.6,20.8,23,9.7,130.7,10.3,158.4,6.3,9.4-1.4,13.9-9.8,21.7-10.3,3.7-.2-.3,10.2,10.6,11.7,94.9,13.1,209.1-2.2,302.8-10.2,2.6-.2-.3,9.8,10.2,11.1,16.9,2.1,35.6,2.6,54,3.1-1.3-11.6-2.8-23.1-4.7-34.5-11-.7-21.9-1.3-32.6-1.6-39.1-1.4-93.2-7.4-126.2,10.3Z"/>
  <path d="M721.2,1078.6l5.7,27.1,68.1,6.4,3.1-16.8c9.3-2.3,2.8,8.9,8,10.3,6.4,1.8,30.4-4.2,35.8-10.2l-5.5,16.4c6.4,4.9,64.4-2.7,82-3.1,14.8-9.3,29.3-19.3,43.2-29.8-80.3-2.2-160.4,5.7-240.4-.2Z"/>
  <path d="M760,1178.4c7.4-2,14.8-4.2,22.1-6.6l-19.7-.3-2.4,6.9Z"/>
  <path d="M394.4,1159.7c-2.4-.3-7-.6-13.2-.8,16.5,6.4,33.3,12.2,50.4,17.2-14.2-6.3-19.6-14.2-37.3-16.4Z"/>
  <path d="M751.7,1180.6c-16.1-16.6-59-9.7-83.2-9.1-17.8.4-59.8,2.4-75.8,5.8-5.6,1.2-.3,13.4-17.2,10.5l-6.2-21.2c-22.7-6.8-47.7,10.6-65.2-6.5l-5.5,11-6.2-11.2h-62.3s10.9,5.5,10.9,5.5l-8.3,10.8c32.5,9.4,66.2,16.2,100.8,20,21.3,1.2,42.6,2.5,63.9,3.6.9,0,1.8,0,2.8,0,52.4,0,103.3-6.7,151.7-19.4Z"/>
  <path d="M134.3,895.7l-22,10.9,104.3.3-10.9-21.9,27.4-5.5-3.1,22.1c4,5.7,10.5,5.1,16.5,5.7,96.9,9.8,217.4-3,318.7,1.2,28.8,1.2,21.6,4.2,32.5,5.6,27.7,3.5,125.6,3.8,154.6.5,10.7-1.2,7-11.8,10.7-11.7,43.5,1.8,93.1,19.7,148,17.3,18.6-.8-3.1-10.9,5.6-16.6,26.7,23,60.1,12.1,87.8,14.3,31.8,2.5,67.1,4.5,100.1,7,6.7-10.4,13.1-21,19.2-31.8-36.8-3-73.2-5.2-107.9-5.9-16-.3-101-2.9-106.7,6.3l-3.5,21.2-2.7-22-10.9,10.9-3-16.8-56.5-4.1-3.6,9.9c-5,.8-1-7.9-3.7-9.7-13.5-8.6-104.9,3.4-128.3-1.2l-2.6,15.9-5.4-16.4-265.5-6.5-6.3,11.2-5-10.6c-4.9,2.6-11.3,5.7-16.8,5.1-108.3-11.6-219.3-2.3-328.8-5.5,5.7,11,11.7,21.8,18,32.3,6.2-1,11.5-2.5,15.8-4.4,5.6-2.6,29.5-40,34.1-7Z"/>
  <path d="M34,763.7c12.5,3,64.2,5.4,65-10.8l3,6.8,16.2,4.2-5.4-16.4h19.2s-2.8,16.4-2.8,16.4c18.8-4,50,11.2,57.6-10.7,19.1,21.8,53.1,3.7,79.6,11.1l-16.5-5.5,13.9-21.8,3.9,9.8,20.7,4-8.2,13.7,257.1-2.7c46,.6,142.9,18,181.2,9.8,5.5-1.2,1.5-10.6,6.4-11.3l2.6,11,243.8,1.3,6.1-11.5,6.2,11.2c23.5,1.2,47.4-1.5,70.8-.1,36.3,2.1,75.9,6.5,116.9,11.5,3.6-11.3,7-22.8,9.9-34.4-103-7.9-199-8.5-305.8-6.8-24.6.4-73.7-14.9-84.8,7.3l-8-.3c-.2-2.7.4-8-1.3-9.3-10.6-7.5-93.9,2.1-114.1-1.8l10.9,21.9-13.7,5.4c-8.8-4-3.2-11.9-5.1-14.8-9.5-14.6-42.4-17.3-60.7-18.6-58.2-4.2-162.5-4.8-219.7-.3-13.6,1.1-31.2,11.6-38.1,11.2-1.7,0-1.2-16.8-27.6-11.7l-3,16.8c-8.9-.5-7.9-14.9-14.7-16.6-32.1-7.9-89.6,6.3-124.6.9l-11.7,26.3c-16.1-.1-15.9-24.4-32.8-27.6-30.7-5.9-71.8,5.9-103.5-.5l-6.2,11.1c1.1,4.7,2.3,9.3,3.6,14,2.8-1.5,5.4-2.6,7.5-2.8,2.3-.2,1.8,9.9,6.1,10.9Z"/>
  <path d="M380.6,1132.4l3.6,11.1c65.6-.8,131.6.4,196.4,11.6l14.1-16.6c2.9,27.4,37.5,11.9,52.3,5.7,4.2-1.8.9,9.6,6.2,11,9.4,2.5,107,1,111.9-2.3,6-4,2.5-16.3,10.8-13.8-3.6,19.1,5.3,15.4,19.6,21.6l10.5-11.2c7.9,1.9,15.9,3.4,24.1,4.8,18.2-7.6,35.9-16,53.2-25.2-42.5-.7-84.7-1.1-126.4-2.2-26.2-.7-152.8-11.4-167.7-2.2-6.2,3.8-1.3,18.8-16.2,13.7l-.9-15.2c-13-15.1-224.9-.8-259.6-7.9l-3.2,9.5c11,6.1,22.2,11.9,33.6,17.3l28.9,1.3,9-11Z"/>
  <path d="M176.4,1024.9l1.4-8.3c-4.6-1.3-8.4-1.9-11.5-2,3.3,3.5,6.7,6.9,10.1,10.3Z"/>
  <path d="M309.6,1049.9c31.2-7.2,110.3,9.4,134.7-.6,4.7-1.9,0-10.4,5.2-10l6.2,11.2,81.8-2.7c35.3,8.6,78,10.5,114.9,8.3,16.2-1,14.7-18.9,38.6,6.4,20.5,2.4,17.7-8.1,33.1-16.8l5.7,16.8,24.4-.3-10.9-10.9c18.9-8,20.9,10.9,30,11.6,16.2,1.3,36.2-6,54.3-.1l6.3-11.3c5.1,0,0,9.6,6.2,11.2,4.8,1.2,91.2,1.5,98.5.6,10.4-1.3,7.6-11,10.3-10.8l19.5,5-11,10.8,19.1-10.9c1.7,1.6,3.9,3.2,6.4,4.7,11-9.1,21.7-18.6,32-28.5-77.6-6.1-155.5-6.7-230.3,7-3.3,0-2-10.4-6.3-11.4-8.7-2-99.1-1.9-109.3-.6-10.6,1.4-7.6,11.6-11,11.7-9.7.3-24.2-12.2-35.1-14.5-11.4-2.4-125.4-11.1-130.7-7.2-4.4,3.2-1.3,12.8-14.8,15.6-22.3,4.7-10.7-13.2-14.1-16.3l-49.2,5,5.5,10.9-32.9-5.6,10.9-10.8c-9.8.6-20.6-1.6-30.2-.2-19.1,2.9-7.3,15.8-8.3,16.4-14.2,8.6-29.5-14.2-41.2-16.5-25.6-5-70.6,5.9-99-.8l-13.6,16.8,16.4,11.1-21.9-5.6,5.6-21.8-24.1,13c7.4,7.3,15.1,14.3,22.9,21.2,40.2-.3,80.1-1.7,83.6-3.9,5-3.2,20.9-38.3,21.9,2.9Z"/>
  <path d="M961.2,656.8c-5-15.1-23.8-16.4-38.3-16.9-14.6-.5-38.6,8.5-49.3,8.7-34,.5-77.8.7-114.5.2-45.3-.7-90.2-7.2-135.4-9.3l-5.5,16.4-3-16.9c-31.8-4.2-68.7,4.7-98.6,4.5-31.7-.2-79.1-9.1-110.1-5-13,1.7-19.9,11.2-27.1,11.4-3.3,0-1.9-10-6.4-11.2-19.1-5-48.1,2.9-67.8,5.3l5.5,10.9h-13.6c-2.9-14.8-62.9-26-57.8-5.7l-8.1-10.9c-9,9.6-28.6,11.7-16.2,27.4l268.6.8-8.2-5.6c2.6-11.2,15.1-11.9,24.7-10.9l2.8,16.5,68.4.3,8.4-21.9,3.5,22,141.2,5.9,6.3-11.2,3.1,10.5,35,1,5.8-11.3,6.3,11.4c72.6-.5,146.2-4.6,218.8-2.1,64.6,2.2,129.7,7.3,194.4,13.4,1.7-11.8,3-23.7,3.9-35.7-41.2-3.5-81.2-6.2-116.8-7.6-40.1-1.6-91.4-4.2-120,15.6Z"/>
  <path d="M1105.1,303.8c-83.7,1.4-172-2.1-258.2,1.1-10.5.4-18.2,9.3-21.8,9.4-4.8,0-15.6-13.1-32.1-9.4-7.2,8.4-17.7,30.8-1.1,33.3,15.6,2.3,67.1,2.6,82.4,0,9-1.5,14-10.6,22.1-11,3.6-.2-.3,10.2,10.6,11.7,67.5,9.3,147.7-6.8,214.3-8,5,0,10.1-.1,15.1-.1-4.6-9.2-9.5-18.3-14.6-27.2-5.6,0-11.1,0-16.7.2Z"/>
  <path d="M71.2,418.7c5.1,1.6,2.3,9.8,12,11,28.1,3.7,64-3.5,93.2,0,6.6.4,2-8.1,3.3-11.1-2.1-3-9.2-4.5-5.5-16.5-19.9-4.3,0,12-16.4,16.4l-2.9-16.7-121.3-.2c-2.7,7.7-5.3,15.5-7.6,23.4,13.2-5.7,25.3-12.7,45.2-6.4Z"/>
  <path d="M1023.4,402.6c-17.6.5-40.7-13.5-55.9,7.4-3.1-18.8-63.2-16.5-63.2,5.3l-10.5-.5c5.2-17.5-77.9-11.8-81.5-9.2-3,2.1,3,12.2-9.4,9.5-5,.5-1.3-7.9-3.9-9.6-12.2-7.9-197.2-3.4-226.7-7.7l-5.5,16.5-5.7-16.9c-65.6,4.3-132.2-2.7-197.3,0-15.7.6-59.7,2.6-70.6,5.1-4.2,1-3.7,11.2-6.6,11.2-7.4.2-17-9.7-27.5-11.1-14-1.8-69.9-3.4-77,4.8-2.8,3.3-1.3,8.5-2.4,11.2,2.9,4.3,7.6,11.6,13.4,11.4h109.3s6.3-11.1,6.3-11.1l6.2,11.2,82,.6,10.6-11.5c1.7,16.4,39.3,13.7,53.9,11,2.1-.4,5.9-14.6,17.4-9.3,47,21.6,160,5.3,219.7,7.4,9.5.3,43.4,20.9,49.4-2.6l6.2,11.2h59.6c0,0-8.1-10.9-8.1-10.9l32.9-16.4-16.5,27.3,175.7-4.9,5.5-21.9,5.4,16.5,5.5-10.9c1,16.7,59.5,27.3,63.2,5.5l6.2,11.2c31.5-4.4,64,2.6,94.2,5-3.5-12.4-7.4-24.7-11.6-36.8-48.2-.7-97.1.6-142.7,1.9Z"/>
  <path d="M97.5,369c13.1,7.1,20.9,7.1,30.2-5.4,6.6,41,71.2,14.7,104,22.6l5.8-16.9,2.7,16.6h13.7s-2.7-10.9-2.7-10.9c14.5-5.4,9.1,10.3,14.6,11.3,18.1,3.1,92.8.3,98.1-22,11.8-.2,13,8.2,8.1,16.5,59.7-3.7,119.2,1.1,178.8.6,31.4-.3,32.3-3.8,65.7,0,27.3,3,41.1-4.6,65.6-10.5l-2.7,11c30.6,1.5,65.3,10.7,95.9,5.7,9.2-1.5,14.4-11,22.1-11,3.4,0,1.9,9.7,6.2,10.9,5.5,1.5,106.6,1.9,114.4.4,9.1-1.7,14.1-10.5,22.1-10.9,3.6-.2-.1,10.8,10.7,11.8,24.3,2.4,52.2-7.6,73.6-8.3,25.3-.9,95.4-4.3,132.9-2.9-3-7.6-6.2-15.1-9.5-22.5-17,0-33.2,0-48.1,0-30-.1-84.8-21.4-99.1,11.2-19.2-22-52.3-7.1-75.9-7.7-95.2-2.2-190.9-5.1-286.3-4.6l-3,16.8c-15.7-11-36.1-28.8-46.6-5.6l-6.2-11.2h-100.8c0-.1,10.9,21.8,10.9,21.8l-24.4-22.4-211.6-.2-2.7,11-6.3-11.4c-42,9.9-154.1-11.5-195.9,3.3-4.3,9.6-8.3,19.4-12.1,29.2l63.3.2-5.4-16.4Z"/>
  <path d="M921.4,206.8v22c0,0-10.9-2.7-10.9-2.7l5.4-13.7-84.3-.4-6.3,11.2-3.5-9.8-34.9,9.8c-6.9-19.6-49-10.8-71.3-11.4-15.1-.4-32.7-15.7-38.1,4.8l-107.4-5.2v27.5c20.6,3.9,29.4-4.4,43.8-16.4v16.4c20.2,9.7,33.8-15.9,35.8-16.4,20.8-5.1,8.6,8.3,10.9,11.2,9.3,11.8,26.6,2.4,38.4,3.1,58.2,3.7,141.6,15.7,198,9,10.5-1.2,7.5-11,10.2-10.8,7.5.6,14.2,7.1,26.9,5,2-.3,5.4-14.9,17.3-9.5,25.4,11.5,34.5,11.5,66.3,10.1,18.5-.9,39.1-2.2,60.2-3.2-7.7-10.2-15.8-20.1-24.1-29.7-44.2.4-88.3.7-132.4-.7Z"/>
  <path d="M745,789.2c-2.7,1.7,1.3,10.5-3.8,9.6-5.8-22.7-36.8-7.1-54.9-8-30.1-1.6-60.3-8.2-90.5-8.9l10.8,19.2-32.8,8.2,106.8,11.5,214.6-.6,5.2-10,5.2,10.1c51.2-.9,102.8.9,154.3,1.8,27.2.5,49.3,5.5,82.2,5.5,4.2,0,8.6.1,13.1.3,3.7-9.1,7.2-18.2,10.5-27.5-73.8-4.8-147.9-7.6-225.9-8.4-30.1-.3-183.2-10-194.9-2.6Z"/>
  <path d="M1038.1,592.4c-14.4.8-29.8,17.4-49.4-1.2l-5.3,10.9-5.4-11c-24,22.7-127.3-23-102,35.7l323.1,5.8c.5-8.5.7-17.1.8-25.7-51.2-5-106.6-17.8-161.8-14.6Z"/>
  <path d="M11.9,505.8l8.1.2c-2.3,20.5,54.1,23.1,68.6,21.4,34.5-4.2,33.9-5.5,71.8-4.5,75.3,2,152.2,1.3,227.5-2.1l-6-18.8c-5.2-3.6-17.5,3.4-24.2,2.4-21.8-3.5-49.8-7.6-71.1-8.9-17.2-1-56-6.5-60.7,11.1l-12.2-9.8c-68.1.5-136.5-.2-204.8-1.1-1.2,6.6-2.2,13.2-3.1,19.8,2.5-1.2,4.6-3.9,6-9.7Z"/>
  <path d="M1076.9,553.4c-17.3.8-35.6-17.2-41.4,7.8-3.8,16.6,10.9,18.2,24.9,19.3,45.5,3.5,92.4,4.6,139.4,6.3-.2-10.9-.7-21.6-1.6-32.3-39.5-2.3-79.8-3-121.4-1.1Z"/>
  <path d="M945.6,448.4c-11.7,1.1-18.1,10.5-19.5,21.7l-8.1-11-5.5,16.6,2.8-27.4-10.9,3.7c-6,19.7-48.1-21.3-49.6,12.5h-5.3c.4-3.8,1-9.8-3.6-11.1-19.1-5.2-60.8,8-84.3,0,.7,12.3,14.6,5.5,15.6,6.6,3.4,3.7,2.6,12.9,5.8,17,16.5,20.6,13.8-8.5,32.9,3.5l3.3-10.6c5-.8,1,7.9,3.7,9.7,12.5,8,114.8-3.1,139.3-2.9,76.5.6,151.8,3.5,226.9,8.2-2.4-12.1-5.1-24.1-8.2-36-76.9-3.6-157.6,6.1-235.2-.4Z"/>
  <path d="M251.1,792.8l17.6-6.2,12,22.1,199.5,5.6.3-16.4,13.8,5.5-2.9,10.9c15.3-5.6,42.9,4.1,55-2.3,8-4.2,8.4-21.2,21.8-19.4-2-10-10.7-10.2-18.9-11.1-113-12.7-247.6,9.3-363-1.4l-10.6,11.5-2.6-11h-84.5c0-.1-6.1,10.7-6.1,10.7-14.9-31.4-30.9.1-33.1.1-5.1,0-12.3-4.9-20.9-8.4,2.5,7.9,5.2,15.7,8,23.5l213.9-.9.7-12.9Z"/>
  <path d="M749,979.9l11.1,8.8c5.3,19.1-5.8,14.3-11.2,24,22.4-8.9,61.5,11.1,68.7-10.9,66.5,21.2,144.4,15.7,215.8,13.1,8.8-9.2,17.3-18.7,25.5-28.4-34.4-2.8-69-4.9-103.8-6.2-68.6-2.5-137.6,2.8-206.2-.4Z"/>
  <path d="M1094.2,262.3l-103.7-6.3-9,27.8v-27.4c.1,0-106.1-.5-106.1-.5-7.1,21.9-22.3-1.6-33.8,16.5-9.1-22.9-52.6-6-75.9-11.4-18.4,17.2,6.9,35.4,26.7,33.9,18.5-20.3,8.7-3,27.5-.4,9.5,1.3,103.6-3.8,120-5.7,8.7-1,26.8-7.2,28-16.1l16.3,16.7c42.4,1.9,85.4.3,128.5-1.3-7.7-12.6-15.8-24.9-24.4-36.9h-7.7s13.6,11,13.6,11Z"/>
  <path d="M289.1,1113.3c4.1,2.5,8.1,4.9,12.3,7.2l2.5-4.8c-.9-.9-6.5-1.7-14.7-2.4Z"/>
  <path d="M287.4,1082.7l5.6-16.4c-14.1-1.2-26.9-1.4-35.8,10.8-2-10.3-21.2-14.7-37.5-13,14.6,12,29.9,23.3,45.6,34v-21c.1,0,22,5.6,22,5.6Z"/>
  <path d="M512,974.5l-105.6-1.5-11.7,22.2-2.7-22c-39.1,1.4-78.9.6-118,0-16-.3-45.7,5.7-54.6,5.1-11.7-.8-38.9-19.4-58-11.1l16.5,5.5c-2.3,40.5-19.5,12.2-38.5,10.8l13.7-10.9c8.1-5.6,0-5.9-5.5-5.8-7.4.2-14.8.3-22.3.3,8.8,11.4,18,22.4,27.6,33.1l370.8.9-11.8-26.5Z"/>
  <path d="M61,571.9c95.9.5,240.4,11.7,329.5,1.4,9.2-1.1,50.9-25.9,35.7-.4l120.8.4c-15.7-23.7,20.8-26.5,5.5,0,18.6,4,25.4-7.1,38.3-16.3,4.1,30.1,50.9,11.6,73.9,17l14-16.8v22c13,6.7,30.9-8.9,35.7-8.9,3.6,0,11.1,9.1,21.6,9.3,32.1.8,64.4-.9,96.4,0l-4.2-13,12.5-9,3.8,9.5,9.9-4,2.8,16.8,172.9.3v-27.5c-117.3-9.4-236-4.3-354.2-6.3-81.7-1.4-165.9-6.9-246.8-6.9-41.2,0-82.4,3.5-123.6.1l11,19.1-13.8,2.8-2.7-21.9-33-.2v22c-9.1,2.3-2.5-9.4-9.1-11.1-31.9-8.4-20.9,23.5-45.8,10.9l11-21.9c-26.2,5-25.5,30.1-56.6,21.9-5.8-1.5-5.5-11.4-9.2-13.8-5.5-3.5-93.2-3.6-107.3-3.3-15.8.3-31.6.5-47.6.7-.8,8.8-1.4,17.7-1.8,26.6,5.3,0,10.6,0,15.9,0,16,0,28.1.2,44.4.3Z"/>
  <path d="M289.9,284.5c-15.3-2.1-5-13.9-13-19.5-11.9-8.3-42.2-11.9-44.7,5.7l-6.2-11.2c-12.1.5-25.8-1.9-37.5.2-17.5,3.1-13.9,20.5-32.9-.9l-33.1,11.6,2.8-11h-19.2c-6.8,9.7-13.3,19.8-19.6,30.1,67.4.7,136.1-4.9,203.4-4.9Z"/>
  <path d="M283.2,855.2c3.2-11.1-2.2-11.8,10.6-16.6,1.2-5.1-4.6-12-8.4-13.7-12.6-5.5-3.9,13.3-13.6,10.8l-3.6-11.2-224.9-.5c4.8,11.9,9.9,23.6,15.5,35.1,68.9,5.8,156.8-6.6,224.5-3.9Z"/>
  <path d="M273.4,309.2h10.9c0,0-5.5,27.4-5.5,27.4l38.4.2v-22.1c18.9-4.2,2.8,10.2,13.1,16.8l113.2,5.5c-9.1-20.5,14.7-20.5,5.5,0l29.9.2c7.3-.9-.3-30.6-3-32.7-3.1-2.5-76.8-4.8-73.6,10.6l-8-.3c-.2-2.7.4-8-1.3-9.3-12.1-8.5-57.2,2.9-73,2.7-37.9-.5-79.8-13.6-115.3,6.3v-11.1c0,0-127.1,1.2-127.1,1.2-5.9,10.4-11.5,20.9-16.7,31.7,51.9-1.4,103.6-3.2,154.7-5.4,20.9-.9,55.6,20.3,57.8-21.7Z"/>
  <path d="M91.1,659.7l11-16.3-29.9-5.9-71,.3c.6,9.1,1.3,18.2,2.3,27.2l104,.3-16.5-5.6Z"/>
  <path d="M157,712.5c29.1.4,58.4,1.2,87.7,2.5-10.7-12-8.6-17.8-5.4-32.8-15.9-6.7-29.8,10.6-35.5,11-18.1,1.6-40.4-7.5-57.8-11.4l-8.4,21.9-10.7-20.4c-18.1,2.6-36.9,3.5-55.2,4-14.2.4-35.4-11.4-41.1,5.1l32.8,8.4c-25.4,25.7-36.5-7.7-57.3-15.3,1.4,10.1,3.1,20.2,5.1,30.1,13.6-.4,25.7-.8,33.3-.9,38.6-.5,75.5-2.6,112.5-2.2Z"/>
  <path d="M515.9,622.7l6.3-11.2,3.1,10.4c22.8-5.6,48.5.4,73.9,1.1,11.1.3,21.5-5.5,32.1-5.1,16,.7,76.6,16.8,85.7,10.6l-5.5-10.9h19.2s-2.8,10.9-2.8,10.9l115.3.4-4.2-19.6,15.3-13.2-376.2-7.1c-10.4,1.1-30.1,41.6-30,.4h-49.4c0-.1,5.4,32.7,5.4,32.7l111.7.5Z"/>
  <path d="M420.3,1095.6c21.8,0,119.4,9.4,129.5,2.7,2.8-1.9-2.7-11.7,9.4-9.4,5,.9,1.5,7.9,6.4,11.2,5.6,3.7,128.3,9.5,133,4.8,2.6-2.6-1.1-18.2,11.7-18.2l-14.9-12.9c-44.7-2.9-91.8,3.3-136.2,1.7-16.8-.6-69.1-22.9-76.7,2.4l-13.8-.2,5.6-10.9h-27.5c0,0,5.5,10.8,5.5,10.8h-19.2s2.8-10.9,2.8-10.9l-137.3-.4,10.9,5.5v10.8s-16.5,8.4-16.5,8.4c-2.3,12.4,5.4,7.6,13.6,8.2,38,2.9,76.2-3.7,113.8-3.6Z"/>
  <path d="M498.5,271.4c20.7-35,39.3,15.2,47.4,16.4l173.6.8,26-32.8-296.5-.9c4.6,9.1,7.2,18.4-5.5,21.9v-21.9s-13.8,10.9-13.8,10.9l-13.7-11,5.4,16.4-24.6-16.7-5.1,10.6c-26.9-9.7-42.5-12.4-49.9,16.8l-2.7-22-13.7,16.5-3-16.1-38.1-.5c3.2,5.5,33.4,27.5,35.6,27.5l200.4.6-21.9-16.6Z"/>
  <path d="M136.2,242.9l1-15.1c33.6-18.2,17,23.2,45,15.3l11.6-11.1,10.6,11.5,149.1.5,10.5-11.4c23.5,18.7,69.5,2.1,98.9,1.4,30.1-.7,74.8,21.7,90.5-14.6.4-11.8-72.9-9.4-85.3-8.7-9.2.6-27.6,11.9-32.7,10.2-3.2-1.1-.4-9.8-10.8-10.7-41.6-3.6-140.6-4.3-181.7-.4-12.8,1.2-3,14.2-16,11.4l2.8-10.9c-24.6,4-51.1-1.6-74.6-.8-9.6.3-15.2,8.9-20.3,11.5-4.9,6-9.7,12.1-14.4,18.3,3.5,4.9,8.9,7.3,15.7,3.6Z"/>
  <path d="M6.2,588.1H.1c0,4-.1,7.9-.1,11.9,0,7.1.1,14.2.4,21.3h.5c22.2,3.4,24.9-31.4,5.3-33.2Z"/>
  <path d="M83.6,478.8c11.5-.4,5.4-12.3,16.1-11.7,13.3.7,21.4,13.2,32.9,12,1.9-.2,4.6-18.4,19.4-11.2l-5.6,10.9,33,.2v-32.9s-153.1,5.7-153.1,5.7c-2.3,5,0,10.9-.7,15.8,21.3,8,33.5,12.3,57.9,11.3Z"/>
  <path d="M25.8,467.5c-3.6-1.3-7-2.9-10.1-4.5-1.1,4.7-2.1,9.4-3.1,14.1,4.4.4,8.8.8,13.1,1.3.4-3.6-.4-7.5,0-11Z"/>
  <path d="M241.3,948.1c7.9.2,33.4,6.1,42.4,6.7,19.5,1.3,39.3,2.3,59,1.8l-8.5-33.2c-60.4,7.2-139.4-9.2-197.3-.3-20.6,3.2-.9,21-16.5,16.6-4.5-1.3-.8-8.8-6.6-10.9-4.5-1.6-10.8-.8-16.8-1.5,5.6,8.6,11.4,17.1,17.5,25.4,46.3-.7,103.5-5.1,126.8-4.5Z"/>
  <path d="M426.5,471.5l8.3-13.8,8.8,21.8c10.7-5.1,26.1,2.4,33.9.7,7.1-1.5,1.2-16.8,25.9-16.7-.5-2.8,1.8-7.8-.6-10.2-9.8-2.3-19.6-5-29.6-6.4-16.4-2.4,7.9,18.5-16.5,11-5.2-1.6,2.1-7.2,2.8-10.9l-46.4-.6-5.8,16.9-16.6-16.8-200.2-.3v27.1c0,0,246.9,6.4,246.9,6.4l-11-8.1Z"/>
  <path d="M503.4,479.9l203.2.6,2.7-11c5.7,17.9,34.6,13,52.1,16.7l-.3-21.5c-78-29-159.8-12.2-241.1-17.6l2.8,16.5c-6.2,9.4-12.1,0-19.3,0,.9,4.9-.8,11.2,0,16.5Z"/>
  <path d="M698.7,316c-7.3-24.6-36.7-1.4-54.9-10.6l-5.4,10.4c-5.3,0,.1-9.2-6.1-10.9-19.4-5.2-87.7,6.7-111.9-.5l-5.6,32.8,252.6.8-4.7-10.1c8.5-4,18.1-5.1,15.7-17.2-26-4.3-56.9-14.3-79.7,5.2Z"/>
  <path d="M393.2,589.3l-173.2-.9c-9.3,1.1-17.1,20.7-27.2,20.3-6.6-.3-19-18-35.7-3.6l-.3-16-27.1-.6,21.9,16.5-5.6,16.4,241.5.8,5.6-32.8Z"/>
  <path d="M560.2,1006.3c10.7,3.8,56-4.6,73.4,6.1l.5-15.9,10.8,1.8,8.1-13.4c12.7-.7,19.6,17.8,13.6,27.5l37.5-.7c19.1-47.6-41.2-27-66.7-28.8-38.5-2.7-78-15.4-118.9-9.2,1.6,11.7,25.5,6,31.5,12.4,3.9,4.1.2,16.6,10.2,20.2Z"/>
  <path d="M135.2,618.7c-14.8-16.5-17-10.2-38.4-8.4l27.4-21.8-74-.3,2.7,22-27.4,2.7c7.1,9.1,22.4,11.9,31.6,6.6,1.6-1,1.5-9.4,4.2-9.5,11.4-.3,52.2,24.5,74,8.7Z"/>
  <path d="M119.2,638.5l-6.2,26.7,82.4.2v-27.5c-25.4,1.4-50.9,1.4-76.2.5Z"/>
</svg>