<?xml version="1.0" encoding="UTF-8"?>
<svg id="Layer_1" xmlns="http://www.w3.org/2000/svg" version="1.1" viewBox="0 0 1200 1200">
  <!-- Generator: Adobe Illustrator 29.0.0, SVG Export Plug-In . SVG Version: 2.1.0 Build 186)  -->
  <path d="M940.6,1100.1c1.4-1.6.1-6.4-.9-11.6-5.9,4.1-11.8,8-17.8,11.9l18.7-.3Z"/>
  <path d="M839.9,1146c0-.5,0-1.1,0-1.6-1.6.7-3.2,1.4-4.8,2.1,1.6-.2,3.2-.3,4.8-.5Z"/>
  <path d="M863.5,203.8c-2.1,1.7.1,8.7-.6,9.3-9.8,9.4-11.2-7.7-14-8.6-14.5-4.9-79.3,6.5-101.5,1.1l29.7,27.9c6.9-5.3,51.8,13.4,43.4-3.2-2.2-4.4-18.9-10.4-9.6-18.5,5,8.8,20.7,7.3,24.4,10,2.2,1.7-10.1,14.1,15.6,14.7,25.7.6,54.6-9.8,81.8-6.1l2.3-16.2,18.5-2.3c2.1,20.7,20.5,18.6,40.2,19.1,13.3.3,45.9-1.3,75.3-3.6-9.1-11.6-18.7-22.8-28.6-33.6-33.2,3-66,6.3-77,6.9-16.3.9-92.7-2.6-99.8,3.3Z"/>
  <path d="M185.9,861.6c1.5-.2,9.8,21.8,24.8,5l3.9-18.6,23.1,14.7-4.7,11.2,46.4-8.3c4.5,15.8,46,13.9,48.6-4.3l25.4,9.1,4.2-16.7c-2.5,18.8,11.1,1.1,11.6,7.3,1.3,15.6-11.1,2.8-9.9,14.3,25.9,4.2,62.9-10.8,84.4-11.2,12.4-.2,41.7,16.7,63.1,5.6l-11.7-10c15.3-7.6,16.7,8.6,20.8,9.3,8.9,1.4,30.6-1.2,33.9-10.7l-16.9-6.9,21.7-1.7c3.8,3.1-6.4,27.8,12.5,21l1.1-21.8c11,.7,20.2,19.2,24.6,20,18.9,3.6,50-8.2,69.6-9.9,2.9-.3,2.5,8.7,6.8,9.6,25.5,5,23.9-13,25.5-12.8,2.6.3,7.9,6.3,13.8,6.7,24.6,1.4,49.9-.2,74.7,3.2l3.4-27.7c12,8.9,6.5,23.6,23.8,25.7,7.9.9,47.8-2.1,53.9-4.8,9.3-4.1,3.7-17,13-16.7l4.6,16.3,78.8-.8c-17-23.9,25.9-2.8,35.1-2.3,46.7,2.7,94.8,1.7,143.3-1,5.9-12.4,11.5-25.1,16.5-38-6.2,2.9-11.6,8.1-15.9,16.9l-4-16.2c-16-2.8-12.1,10.2-15.5,11.4-5.9,2.1-21.3-7.3-28.2-7.6-46.6-1.7-92.9,2.5-139.2,4.6l17.5,15-19,1.7-7-16.5c-17-4.1-41.4,9.5-53.4,10-3.6.1-1.4-10.7-12-10.8-19.4-.1-46.8,8.8-68.3,5.8l-1,21.9-4.3-21.5-120.3,3.5c3.8,17.8,2.6,22.1-14.3,28.5l8.8-28c-48.3-6.6-97.4,7.2-144.8,7.9-51.5.7-104.3-4.7-158.9-1.6-21.5,1.2-18.4-13.1-34.5,13.5l-4.3-16.5-54,4.1-7.1,17.3c0-32.3-31.9-15.3-51.4-15.5-31.2-.3-71.5-9.1-106.9-10.5-21.8-.9-44.3-1.8-67.3-2.5,5.2,12.2,10.8,24.2,16.7,35.9,30.6,1,61.1,1.8,91.7,1.9,12.8,0,19.8-6.2,27.2-7.4Z"/>
  <path d="M1074.1,873.8c-58.8,1-121.1-2.3-181-.3-13.8.5-47.8,1.2-47.7,14.7l-41.8-7.9-6.5,22.4c-16.9-42.3-71.5-15.5-108.4-19.2l1.1,21.3-23.1,2.5-5.7-27.2-38.1,2.9,23.1,17.4-15.2,14.7,67.7.9,10.4-17.6c25.1,29.6,53,3.6,77.3,6.2,3,.3,3.1,8,5.9,8.1,18.7.6,38.6-2.1,57.4-3.1l-22.2-3.8c1.3-33.1,29.4,2.9,31.5,3.2,16.6,2.9,38.8-7,53.4-7,7.1,0,14.3,6.5,22.8,6.5,11.4,0,22.5-6.2,34.8-2.5-2.8-5.9-6.9-21.5,3.8-22.1-2.3,33.8,45.3,13.1,63.4,13.4,7.6,0,16.2,7.3,28.5,7.3,13.6,0,33.9.4,49.2-4.4,6.5-11.1,12.7-22.3,18.5-33.8-19-2.3-42.1,7.1-59.1,7.3Z"/>
  <path d="M1000.7,454.1c-3,2.3-19.2-4.6-26.1,2.7l-1.9-15.3-43.4-3.2-1.6,16.4-30.3-3.2,4.7-11.2c-35.5,3.7-70.8,6.7-106.5,8.2-11.3.5-24.2-4.8-32.8-3.3-10.3,1.8-12.7,14-23.9,12.7l1.9-11.1c-18.2.9-36.4,3.5-54.6,4.2-13.4.5-21.9-11.2-18.6,6.7l-5.3.4c.1-21.1-47.8-.2-66.3-5.9l6.8,12.8-10.9,6.7.7,8.1,265.4-3.4c5.3-1.5-10.1-19.1,6.6-22.4,7.6,28.3,49.9,13.8,73.2,14.1,80.9,1.1,162.1-3.9,243.4-9.1-2.5-10.6-5.3-21.2-8.4-31.6-76.6,3.2-159.8,7.9-166.7,13.3-3.5,2.8-3.2,11.6-5.4,13.2Z"/>
  <path d="M166.1,963.6c46.6,1.6,97.3,7.2,142.7,8.9,12,.5,43.6-1.7,54.7-4.4,6.2-1.5-7.5-9.2-.8-10.9,14.5-3.8,3.4,12,14.3,9.9l2-11.2c1.6-.3,6.4,17.5,27.5,12.8,16.7-3.8,24.4-43.3,36-6.5l-10.4,6.2c33.7-3.8,67.2-.9,100.9-1.9,20.9-.6,42.1-7.7,59.4-8.3,17.1-.6,44,11.7,64,4.3l1.8-11.1c10.6,19.3,56.4,5.3,80.3,10.4l-11.7-10c17-7,14.3,9.1,25,9.5,28.6.9,52.2-13.1,65.1-14.2,6.5-.6,27,16.5,50.1,10.9,16.6-4,6.8-19.6,20.5-18.3l-1.4,16.5,20.9-12.4c1.3,1.5-1.2,8.7,3.3,9.8,13.5,3.2,53.8-15.6,71.7,1.1l9.9-11.9c21.6,22.8,62.2-3.2,86.7-1.2,2.6.2,2.7,3.7,4.7,6.7,7.7-10.6,15.1-21.4,22.1-32.5-62.4.9-124.8,2.3-186.7,5-35.7,1.6-80.4,11.1-114.1,11.8-7.8.1-12.6-5.8-19.4-7.1l-4.2,16.8c-2-8.8,4.8-15.3-7.9-14.6-22.2,1.2-44.6,2.1-66.9,3.8-33.4,2.6-21.8-3.4-32.9-3.6-48-1-126.4,3.7-175,8.3-19.9,1.9-24.7,16.1-43.9-2.6l-10.5,1.1-5.2,11.5c-9.2-11.4-30.7-12.1-43.7-7.8-6.3,2.1,1.1,13.3-8.1,11.6l-4.3-16.5c-77.9,13.2-155.6-.4-232.2,4.5-13.9-.2-27.8-.7-41.8-1.3,7.8,11.3,16,22.3,24.5,32.9,12.2,0,23.8-6.3,33-6Z"/>
  <path d="M15.7,712c54.3,2.1,115.6,14.9,170.9,12.2,15.9-.8,32.5-14.5,34.1-13.6.5.3-.2,7.8,4.6,10.6,10,5.7,153.4,7.5,159.8,2.7,2.4-1.8-1.7-9.9,3.1-9.6,46.7,21,110.9,8.5,162.4,9.7l-24.4-9-4.9-16.2c24.9-7.9,32.1,19.6,43.9,23,16,4.7,88.9,8.8,91.3-11.4,3.7,14.4,20.2,12.5,32.6,8.5,3.4-1.1.9-14.2,25.1-9.6l6.8-14.5c33.1,16.9,62.4,27.7,100.6,25.4,16.4-1,3.5-7.4,1.9-14.1l10.6-3.4,4,16.4c41.4-9.7,85.4-3.8,127.4-5.5,29.9-1.2,99-2.5,124-7.9,14-3,16.5-11.6,28.8-13.4l4.2,16.5c21.8-4.4,43.7-6.2,65.6-7,1.8-10.3,3.4-20.7,4.7-31.2-15,1.2-30,2.4-44.9,3.9-36,3.7-20.5-3.5-33.6-4.2-32.1-1.9-85.9,10.1-120.1,11.8-38.2,2-80.4-9-119.2,2.3-5.5,1.6-11.2,12.5-14,10.7-.6-.4.4-7.8-2-9.1-11-6.5-42.6,5.1-56.3,5.4-7.3.1-15.3-4.8-25.4-4.6-33.7.7-69.2,10.3-100.3,0l-7.5,11.9-4.4-10.7c-19.2-2.1-41.7,6.8-59.2,7.3-60.3,1.9-126.4-4.2-186.3-5.5-28.9-.7-60,15.9-82.5,1-2.5,16.6-14.8,17.6-10.9.8-17.1,10.9-31.8-1.2-44.3-1.9-27.7-1.6-59.9,2.4-87.2,5.7-2.5.3-2.5-9.2-6.7-9.8-22.9-3.3-64.1,5.5-85.8,4.8-26.9-.8-61.6-5.6-93.4-8.5,1.4,10.1,3.1,20.1,5,30,.7,0,1.3,0,1.9,0Z"/>
  <path d="M1108.9,348.2l-6.2-10.4-.4,9.9-20.4,2.2-4.6-16.1-89.6,7.1,12.1,15.4-39.9,14.1,11.4-28.3-87.1,6.6,11.5,7.3-20.4,20.7c15-.3,29.3-1.7,43.9-5.7,19.1-5.2,9.9-15.2,25.7-15.9l1.6,21.8c14.9-3.5,37.7.6,50.9-3.9,4.3-1.5,2.2-11.4,5.5-11.6,7.6-.3,13.6,8.2,22.8,9.3,19.2,2.4,32.9-7.8,48.4-8.9,19.6-1.5,70.2,19.7,68.2-5.1l8.2,8.8c-4.4-10.5-9.2-20.9-14.2-31.2-1.4.3-2.8.5-4.2.8-11.6,2.4-14.8,6.6-23.3,13Z"/>
  <path d="M33.6,516.5c167.9,4,346,16.9,505.2,15.6,27-.2,54.6-3.4,81.8-4.6l9.8-17.5-1,21.9c26.8-5.8,65.1,5.4,83.7-17.2,7.7,27.7,35.8-7.8,40.8-3.1l4.2,16.5c39.3-9.4,82.2.3,120.2-3.6,29.5-3.1,36.6-5.3,65.5-5.7,10.3-.2,21-5.5,32.3-1.8l-3.5-10.7c32.5-4.9,64.4,8.6,96.7,9,40.3.6,80.5-8.6,120.8-10-1.7-10.8-3.6-21.5-5.9-32.1-27.4,1-63.5,5-83.9,18.1l1.9-11.1c-22.5,9.5-90.2-1.4-105,7.9-6.1,3.8.7,15.2-14.2,11.9l4.2-16.7c-21.4,8.5-76.7,1.2-93.9,8.2-8.4,3.4-28.8,28-32.1,28.4-17.6,2.2,5.4-23.6.7-27.3l-93.1,1.5-1.8,11-22.7-9.5-2.2,11-7.8,1.1c-4.6-13.7-30.2-13-45-13-94.8-.2-188.4,6.3-282.4,7-27,.2-63.7-7.7-91.3-5.2-9.2.8-13.9,12.5-17,10.8-.6-.3.1-7.4-1.9-8.4-3.5-1.9-14.2,2.1-18.5-6.3l-6.9,16.8c3.4-7.9-27.1-17.3-33-18.2-10.2-1.6-32,7.8-42,6.4-55.7-8-120.4-13.1-183.1-13.8-2.1,10.9-3.9,21.9-5.4,33,8.7-.3,17.3-.5,25.5-.3Z"/>
  <path d="M1163.3,525.1c-22.2,3.6-26.1,22.2-34.3,18.7-.8-.3,6.8-15.8-6.6-15.9l-1.6,16.6-18.6-15.1-86.2,1-5.1,11.4-7.1-10.6-83.7,6.5,22,3.9,4.2,21.7c5.6,7.1,60.9,7.9,59.8-10.2,14.5,17.1,36.6,3.9,55.9,10.9l11.8-21.5c-2.2,34,62.1,12.6,85,12.1,12.2-.3,24.4-.5,36.6-.8-.7-10.3-1.7-20.5-3-30.6-9.7-.1-19.6.3-29.4,1.9Z"/>
  <path d="M360.9,1113.4c5-4.5,1-15.3,9.6-14.3l4.3,16.5c58.6,1.7,116.6-8.1,174.4-10.7,4.3-.2,14.2,6.9,27.5,6.6,31.8-.7,61.4-3.2,89.5-18l-4.7,11.2,260.5-4.1c6-3.8,11.9-7.8,17.8-11.9-1.9-9-3.3-19.3,9.7-16.5l4.2,6.5c5.5-4,10.9-8.2,16.2-12.4-62.3,8.8-132.1,3.1-198.2,8.2-45.7,3.5-90.8-3-137,.5-23.3,1.7-26,15.7-45.2,18.7l-4.2-16.5c-16.3,1.8-32.6,2.7-48.9,4-90.5,7.1-185.3,6.5-281.4,3.6,16,11.4,32.6,21.9,49.7,31.7,23.6.9,51.8,1.2,56.4-3Z"/>
  <path d="M666.4,1170l11.7,10c-19-4.6-23.6,5.2-30.8,12.7,25.4-2,50.4-5.6,74.9-10.7-18.5-3.7-31.7-20.9-55.8-12Z"/>
  <path d="M742.8,1177.3c7.7-1.9,15.3-3.9,22.9-6.1-13.1-8.7-19.4.6-22.9,6.1Z"/>
  <path d="M633.5,1193.6l11.1-21.9c-63.2,2.1-126.4,3.6-189.6,5.1,8.9,2.2,17.9,4.3,27,6.1,2.6-1,5.1-.3,7.5,1.5,16.7,3.1,33.6,5.6,50.7,7.3l1.1-6.7,1.5,6.9c18.8,1.8,37.9,2.7,57.2,2.7s22.4-.3,33.5-.9Z"/>
  <path d="M1061.3,774.4c-23.7,3.4-31,21.9-60.5-1.8l-215.6,10.7,27.4,31.1c67-1.1,132.8-7.5,199.6-12.2,20.5-1.4,62.9,14.8,69.5-13.7l6.2,10.4,15.4-12.1-4.2,16.7c8.4,5.5,46.3-6.3,65-9.9,3.2-9.2,6.2-18.4,8.9-27.8v-.7c-35.9,6-76.2,4.2-111.8,9.4Z"/>
  <path d="M947.7,245.4l17.1,9.7-7.8,6.1c-23.1-24.4-59-8.1-93.4-7.4-39.4.8-78.5-3.4-117.9,1.3l6.7,15.8-31.7,16.1c48.1-6.1,96.5-.7,144.8-2.4,67.9-2.4,152-4.8,218.1-11.6,5.6-.6,11.3-1.1,17-1.7-6.6-10.1-13.4-19.9-20.5-29.5-44.1,2.5-88.1,4-132.3,3.5Z"/>
  <path d="M870.8,1129.7c8.9-4.5,17.6-9.3,26.3-14.2-12.3-1.7-22.2-1.2-26.3,14.2Z"/>
  <path d="M1122.3,599.1l-1.7-21.8c-41.8,8.1-82.6-5.1-125.8,4.1l6.6,15.9-46.2,3.5-.9-11,35-8-46.1,3-2.2,16.2-37.1,11.8c.5,5.1,14.2,4.7,18.7,4.7,87.9,1.3,184.1-8.2,274.6-13.8,0-2.1,0-4.3,0-6.4,0-8.1-.2-16.1-.5-24.1l-62,2.7-12.5,23.3Z"/>
  <path d="M301.8,912.6l-4.7,11.2c18.5,3.2,40.5-7.7,56.3-8.1,52.8-1.3,52,7,109.7-9.8,3-.9,2.4,8.3,7.6,10.3,7.6,3,148.9,4.5,154.7-.6-15.5-8.5-6.3-25.6-7.4-26.7-10.8-10.2-128.1,3-153.5.5l-4.6,11.3-4.2-16.5c-19.9,1.5-39.9,4.2-59.8,4.9-13.4.5-21.9-11.2-18.6,6.7l-9.5-10.4-15.2,1.1-2.6,11.3-9.7-10.3-49.1-1.2-4.2,10.8c-46.3-21.6-112.2-5.4-158.9-4.4-3.3,0-3.3-9.6-7.6-10.4-16.7-3-29.9,5.9-41,7.8,5.1,9.1,10.5,18.1,16.1,26.9,11.8.3,23.4.5,34.9.8,56.7,1.5,116.1,9.4,171.4-5.3Z"/>
  <path d="M337.9,768.1c2.7-.4.6,9.7,11,10.1,20.4.7,43-9.7,65-5.1l5.4-11.7c14.9,22.7,66.2,17.3,84.8-.8,4.5,26.3,54.5,7.7,73.8,7.5,25.8-.4,52,3.2,77.8,3.3l-3.4-10.9,21.8-1.6-4.7,11.2c33.9-8.7,74.4,5.4,106.5-2.7,8.4-2.1,14.4-11.7,21.2-12.3,6.5-.5,15.5,8.7,27.8,9.2,115.3,4.5,235.9-8.7,353.2-15.4,2.8-10.7,5.3-21.4,7.5-32.3-10,.3-20,.7-30,1.1-53.8,2.1-110.3,13.1-163.5,6.2l1.5,16.4c-16.3,13.6-24.2,8.8-14.8-9.8-18.1-3.5-34.4-9.4-46,8.9l-3.6-10.5-10.8.6,3.7,10.6-13.4,6.5-4.2-16.5-98.7,2.8-4.2,10.8-17.1-9.7-1,24.9-10.6,3.5c-1-50.1-32.8-15.5-47.6-14.9-5.8.2-20.8-12.4-34.5-11.7-13.7.6-16.1,9.6-24.9,14-5,2.5-12,0-13.4,1.3-4.6,4-2.4,19-16.2,16.2l-9.9-21.1-9.7,17-9.4-15.7,10.4-6.2c-31.6-4.7-62.3,1.1-93.6,3.9-9.3.8-21.6-4.7-29.7-3.1-6.9,1.4-18.1,15.4-20.7,15.4-4.6,0-6.1-13.6-13.3-15.3-38.7-9.2-92.5,12.9-130.6-.9-34.8,3-69.6-2.5-104.2-3.4-65.8-1.8-135.4-4.7-199.1-5.6-2.8,0-5.6,0-8.5-.1,2.9,12.5,6.2,24.8,9.8,37,108.5,5.6,222.5,12.6,310.1-.8Z"/>
  <path d="M1019.7,984.6l1.4-16.6-60.5-1.5c-13.3,11.7-24.7,13.8-27.5,32.9,29,6.1,57.7-2.7,80.6-19.8l1.7,21.7c8.8-.8,17.6-1.5,26.4-2.2,10.3-11.3,20.1-23,29.5-35-.3,0-.5,0-.8,0-25.6,2.4-37.4-4-50.9,20.4Z"/>
  <path d="M835.1,1146.4c1.6-.7,3.2-1.4,4.8-2.1-.4-24.1-15.2-29.8-38-25.9-10.1,1.7-7.8,19.5-16.8-1.3-21.8-4.8-17,12.4-20.4,12.6l-7.1-10.6c-36.3,7.5-73.2,1.2-108.3,2.5-21.7.8-60.8,11.7-76.4,10.7-19.5-1.3-31.1-12.9-60.7-6-14.4,3.3-6.7,19.8-23.1,18.6l-4.2-16.5c-17.8-4-44.7,11.8-58.4,10.4-4.2-.4-1.8-10-12.3-10.6-20.2-1.3-44.5,9.2-59.3,8.7-4.4-.1-8.4-.4-12.4-.7,22.8,10.9,46.3,20.4,70.6,28.4,106.6-2.3,214.5-5.8,320.3-10.4,33.7-1.5,68.2-4.5,101.6-7.8Z"/>
  <path d="M236.8,1070.7l21.3-2.1,4.7-16.2c1.8,20,36.6,17.9,53.3,18.1,19.5.2,40.2-4.9,59.9-4.3l1.7-17,11.2,4.8c-4.8-20.7,2.7-17.7,20.6-18.1l-19.4-4-43.4,2.9-7.1,17.3c4.2-10.6-36.8-17.7-44-17.8-13.3-.2-11.8,4.4-37.2,2.6-22.3-1.6-43.2-1.3-63.7-.8,11,10.2,22.5,20,34.3,29.3,4.1-1.3,8.3-3.2,12.5-5.9l-4.7,11.2Z"/>
  <path d="M341.6,677.4c4.7-.9,8.1-9.1,15.6-10.2,3.3-.5,2.6,9.7,7.2,10.6,17.9,3.4,39.7-8.6,52.5-7.7,55.4,4.1,115,10,171-3l6.3,9.9,31.5-2,5.3-11.9c27.4,13.6,60.7,9.2,91.1,9.7l-12.1-15.4,29.2-13.1c17.6,9.9-4.2,16.3-6.2,27.7,28.2-8.5,64.8,3.8,90.5-.8,11.2-2,22.3-13.8,23.4-13.1.6.4-.4,7.7,2,9.1,10.3,6.1,37.6-4.4,50.5-4.6,55.7-.9,111.1,2.6,166.8-4.7l-2.6-23.6-8.9-7.9-252.9,13,12.1,15.4-19.9-9.4-10,11.6c-23.2-23.3-50.6-17.7-80.8-15.7l-1.8,11.1c-5-.2-1.4-9.6-7.1-10.5-11.6-1.9-100.6,0-104.6,3.3-3.8,3.1-2.4,15.7-10.9,16.4l-1.9-15.4c-8.5-.5-17.3-2.5-25.8-2.6-58.3-.8-135.9-7.2-186.4,12,1.4-14.1-24.7-11.8-37.5-12.7-19.7-1.4-48.7-4.7-61.4,9.2,1.6-14.2-24.7-11.8-37.5-12.8-65.5-4.8-147.3-8.1-224.8-8.7.7,12,1.7,24,3.1,35.8,65.9,1.2,131.6,3.5,196.1,5.1,33.9.9,112.7,10.8,138.8,5.6Z"/>
  <path d="M298.4,321.4c25.5,14.5,65.4,15.4,94.8,14.9,14.1-.2,16.7,1.5,20.5-12.6,31,19.9,82.8,13.1,121.7,13.4,100.8.6,219.7-4.6,328.3-3.1,46.8-12.7,114.4-.6,158.1-12.2,17.3-4.6,19.7-18,16.8-33.9-15.8,3.2-37.1-5.7-40.1,14l-7.1-10.6-42.6,2.9-7.1,17.3c-1.7-7.5,5-15.9-9.2-15.9-24.6,0-50.9,9.2-70.8,9.9-36,1.2-73.5-11.1-110.2-2-9,9.9-23.3,23.5-13.1,1.5-33.8-7.1-67.4,2-101.2,2-26.3,0-82.8-7.8-104.5-3.7-8,1.5-21,25.1-33.7,25.1l3.4-27.6c-36.9,2.5-75.1,4-112.1,2.9-103.4-3.3-202.6-11.2-302.5-13.7-5.9,9.8-11.5,19.7-16.8,29.8,75.8,3.6,152.4,10.6,223.2,12.6l4.1-10.8Z"/>
  <path d="M50.5,411.2l9.7,10.3,53.5,1.7,5.2-11.7c48.3,28.3,125.9,9.3,178.9,10.8,29,.8,67.7,15.6,102.6,12.6,15-1.3,22-11,26.5-11.6,6.5-.9,17.3,10.8,28.4,12.1,18,2.1,34.7-6.3,48.8-6.3,82.8,0,164.2,2.2,249.8-1.9,9.1-.4,22.5,7,29.3,5,3.5-1,17.1-28,28.3-28.7l11,25.8,67.5-4.3-1.7-21.9,21.8-1.6,1.7,21.8,79.4-.4-15.2-20.7,15.8-6.7,15.8,26.2,10-11.8,3.5,10.7c20.2.8,39.2-5.1,58.5-8.6,15-2.7,15.1,11.1,24.8-14l3.6,10.6,7.3-11.5,4.4,21.6c12.5-6.4,31.6-4.6,49.1-4.1-3.6-11.3-7.6-22.5-11.9-33.6l-28.7-.7-5.1,10.7c2.2-8.4-5-16.4-11.8-10-1.4,1.4,14.3,12.6-1.8,11.1l-11.4-10.6c-73.1,9.2-145.2,11.7-218.6,11l-1.7,17-14.1-3.7-5.3,10.6-18.3,1.4-1.6-21.9c-19,1.1-38.1,3.5-57.2,4.3-16.1.7-28.3-12.9-32.4,8.1-25.1-18.5-48.1-2.9-71.5-3-40.8-.3-85.8-1.3-128.6-1-30.5.2-63.6-11.8-92.3,4.6l-4.6,21.4-2.5-32.7c-10.2,2-31.2-1-38.4,5.2-6.8,5.9,1.4,20.6-8.9,20.2-2.5-37.3-33.8-18.1-52.8-19.7-7.7-.6-14.6-6.4-23.6-7-60-4.1-118,1.7-176.1-8.5l-1.5,10.5-9.5-10.1c-28.9,4.7-62.6-3.5-92.9-4-1.2,0-2.5,0-3.7,0-4,10.4-7.7,21-11.1,31.7,6,.8,12,2.6,18.1,6l1.6-10.7Z"/>
  <path d="M363.4,379.4c38.6,2.5,49.6-2.1,81.3-3.4,3.6-.1,1.1,9.9,11.7,10.6,11.7.8,40.6,1.1,35.1-14l5.3-.4c10.5,26.7,62.4,3.6,86.6,14.8l4.7-11.3,21.6,4.7,4.5-11.5c23.4,13.7,42.6,16.2,70.1,16.5l-6.6-15.8c26.4-9.2,25.4,24,55.3,11.7l-.8-15.9,16.7,4.2c.9-7.4-3.2-12.4-9.1-16-12.6-7.7-140.4,2.2-170,2-73.5-.3-178.6-14-247.6-7.9-19.8,1.7-3.7,9.1-32.2,3-31.1-6.6-62.7-6.3-94.4-10.3l-4.2,10.8c-35.3-11.3-80.9-15-128.5-15-5.7,11.7-11.1,23.7-16,35.8,83,5.2,176.4,7.8,250.8,10,21.4.6,44.1-4.2,66-2.8Z"/>
  <path d="M468,238c13.1-2.4,2.4-12.7,12.3-12.3,4.3,23,44.7,8.6,63.7,9,28,.7,60.2,6.2,89.2,6.2,14.9,0,94.2-.8,98.6-2.9,1.5-.7,3.9-12.3,11.6-10.3l-16.7-4.2,9.7-17c-50,6.8-100.4.5-150.5,0-17-.2-26.8,6.4-38.3,8-2.8.4-.7-9.9-11.1-10.1-11.5-.2-24.1,6.1-33,5.9-119.7-3.8-231.9-11.9-344.8-15.6-9.2,10.1-18.1,20.5-26.6,31.2,84.5,3.8,168.2,10,258.6,11.9,20.2.4,60.1,3.4,77.1.3Z"/>
  <path d="M248.8,823.8c11.2-1.1,16.7-10.3,21-11,6.3-1,17.4,11,28.4,12.2,16.5,1.8,51.1.2,71.1.3,88.9.4,179.2-6.5,268-8.5l12.6-12.4,4.3,16.5,29.7-2.6-12.1-15.4c13.9-.9,31.8-3.9,36.9-19.2l-169.3,7.2-.6,27.4-19.5-4,14.7-22.9c-16.2,11.8-25-2.2-36-2.5-44-1.4-96.7,3.1-141.8,4.9-40.2,1.6-66.2.9-102.4-.9-15.4-.7-47.9-13.8-42.6,6.2l-5.3.4c1.9-13.6-21.1-13-32.2-13.4-47.9-1.6-94.6-2.4-141.1-2.5,3.4,10.3,7.1,20.6,11,30.7,69,5.1,146.8,15.6,205.5,9.8Z"/>
  <path d="M652.7,623.3l43.5,1.8-2.1-32.2c-7.7,2.5-24.3,1.4-29.9,3.4-3,1.1-3,8.2-7.3,10.2-.4,3.8-7.4,9.4-4.2,16.7Z"/>
  <path d="M431.5,629.7l12.5-12.5,4.4,10.7c41.6-1.8,84,1.8,125.5,1.3,36.9-.4,21.8-6,34.5-15.7,19.3-14.6,31.7.9,48.6-6.9.3-3.4-.8-7.3-.8-10.8-34.9-8.9-68.2,2.3-101.2,6.9-2.8.4-.5-9.6-10.9-10-72.4-3-153.9,4.9-228.2,3.3-99.6-2.1-206.5-10.7-293-7.1-6.5.3-13.2.3-19.9.3,0,2.7,0,5.3,0,8,0,5.8,0,11.5.3,17.2l27.2-1.6c133.2,16.9,267.9,8.3,401.3,16.8Z"/>
  <path d="M119.7,567.5c17.5.6,61.1,1.7,66.9,8.7,15.1,1,86.6-7.6,91.3-6.7,4.5.9,2,9.8,12.2,10.2,24.9,1,4.9-12.4,18.1-18-1.8,8.8,29.5,19.3,37,19.5,11.7.4,48-6.4,45.4-20.2l6.2,10.4,15.4-12.1-25.5,23.8c21.5,1.9,46.1-7.1,66-7.3,83.6-1.2,207.1,14.2,287.1-2.2,12.5-2.6,1.1-16.8,23.7-7.7l-10,11.6,65.4-4.9c-7.9-12.2-21.9-6.1-18.4-25.9l26.8-7.5c-24.5,1.8-49.2,3.5-73.7,5.4-18,1.4-37.2,1.2-60,1.5-47.7.6-94.6-1.1-142.2,2.4l-12.5,17.7,3.8-22.1c-2.9-2.9-55.9,9.9-61.8,10.2-3.5.2-1.2-10-11.7-10.7-25.7-1.6-53.5,9.6-79,11.8l10-11.6c-14.9-2.7-33.8,6.5-46.3,6.3-119.6-1.8-231.4-14.3-348.1-13.1-1.1,10.5-1.8,21.2-2.3,31.9,39-1.6,78-2.7,116.3-1.4Z"/>
  <path d="M242.1,471.1c32.9.9,92.3,16.1,122.9,9.5,6.9-1.5,12.3-9.5,16.1-10.1,9.3-1.4,46.5,30.3,68.1-1.5-.1,16.2,40.1,12.8,53.2,12.8,13.6,0,26.5-15.7,24.9,3.1l3.8-22.2c19-6.6,8.7,17.7,12.5,21l43.7-3.3-2.5-32.7c-2-1.7-42.6,6.7-51.6,6.6-51.5-.8-110.7-3.8-159.7-6.9-16.1-1-32.5,5.2-48.9-2.3l-7.6,11.8c2.3-14.5-24.6-11.7-37.5-12.8-72.3-6.1-158.5-2.2-229.8-.5l-6.3-9.9c-6,3-12.6,4.5-19.3,5-2.7,9.8-5.1,19.7-7.3,29.6,74.8-.5,149.7.6,225.4,2.8Z"/>
  <path d="M187.8,1012.9l5.5-10,4.3,16.5c41.5-5.2,90.7,7.2,131.1.5,43.9-7.4,102.7-5.5,153.3-8.6,5.8-.3,15.9,16.5,17.6-5.7-2.8-3.5-3.8-10.7-6.5-12.9-1.5-1.2-18.6,9.3-10.8-11.4l-132.4,7.5c-68.2.6-136.3-1.6-204.6-4.3,10,11.7,20.4,23,31.2,33.9,2.7-7.8,1.4-8.8,11.3-5.5Z"/>
  <path d="M611,286.9c.4-11.5-16.2-.2-21.5-4.5-2.4-1.9-1-12.1-7.4-17.7-1.8-1.6-38-9.6-42.7-10-36.4-3.1-77.2-.8-114.6-2-98.9-3.1-201.6-8.3-304.4-11.7-6.3,8.4-12.3,17-18.1,25.7,151.6,2,319.3,19.8,467.5,23.5,13.4.3,27.6-3.3,41.1-3.4Z"/>
  <path d="M898,1043l-1.6-21.8-104,2.4,2.4,21c14.3.5,26.5,8.5,40.9,8.8,18.2.4,32.7-8.6,42.9-9,3.6-.1,1.2,10,11.8,10.6,34.2,2,71.1-8.6,103.9-13.1,1-.1,1.3,1,1.8,2.5,10.6-9.4,20.9-19.2,30.8-29.4l-114.1,5c7.3,11.2-1.5,22.9-14.7,22.9Z"/>
  <path d="M1160.9,640.1c-13.7-28.1-47.2-5.6-71.4-11.4l-6.1,20.1,10.2,7.2,1.9-11.1c21.7,25.5,59.4,14.1,79-5.9l-4.2,16.7c8.1,0,16.2-.4,24.2-1.2,1.1-11.7,1.9-23.5,2.3-35.3-17.9,3.1-33.6,9.2-35.9,20.9Z"/>
  <path d="M936.2,969.1c-20.8,1.6-41.8,2.8-62.7,4.6-7.8.7-15.7,7-21,7.2-2.4.1-17.5-27.1-38.6,2.8-13.2-25.1-42.8-3.5-59.4,10l6.9-16.9-46.3,8.3c-11.3-21.1-53.1-1.2-76.5-5l-4.4,17.1-13.8-4.7-6.4-10.2-3.7,24.8,317.1-4.7,8.9-33.3Z"/>
  <path d="M535.1,1065.2l17.8-18.1,4.2,16.4c24.1,3,33.2-13.9,42.5-14.7,1.6-.1,2.9,4.6,25.9,6.6,8.3.7,43.3,8.2,48.9,4.3.7-.5-8.2-11.7,1.5-16.4,6.6,18.1,37.1,24.5,35.9,2.7l5.3-.4c-3.6,16.9,55.9,15,61.3,11.7l-2.5-32.6c-6.2-5.4-46.5,11-55.8,9.7-4.3-.6-4.1-9.6-8.3-10.3-12.9-2.2-31.4,4.2-45.3,3.4l6.6,15.8-13.6,1.2c-11.5-24.2-51.1-15.1-75.2-16.4l-3.7,22.2-4.4-21.6c-16.1-1.5-27.5,14.1-29,13.1-.5-.3.7-9.7-4.4-10.6-8-1.4-47.8-1.4-59.4-1.2-31.1.8-56,1.1-78.1,19.9l31.4,16.7,98.4-1.5Z"/>
  <path d="M842.2,587.9c3.4,34.5-14.4,3.6-30.5,1.8-15-1.7-37.6,3.1-54.3,3.9-24.3,1.1-68-12.4-37.8,29.1,13.4-4.2,37.6,3.8,45.7,3.2l128.1-9.6c-1.1-27.7-27.3-35.7-51.1-28.4Z"/>
  <path d="M869.8,369.4l3.5-19.9-24.5,6.6c-2.6.3-2.4-9.1-6.7-9.8-10.5-1.6-63.9,2.9-75.6,5.6-14.6,3.3-8,17.3-1,25.4,7.3,8.4,92.9,3.5,104.4-8Z"/>
  <path d="M561.5,1013.5l1.8-11.1c6.5,18.8,24.6,7.2,41.7,7.8l-11.3-4.6,9.3-22.5-69-.8-12.3,12.3-3.6-10.9-18.3,9.8c12.6,23.5,37.3,24.3,61.7,20Z"/>
  <path d="M1071.3,285.4l-16.4,1.2c4.4,9.6-.7,27.5,10.7,32,10,3.9,18-.7,7.3-11.4,15.1-8.5,36.5-3.2,28.5,14.2l23.7-2.5c1.1-.4,2-.8,2.8-1.3-5.3-10-10.9-19.9-16.8-29.6-15.1,1.9-30.8,5-44.4,8.6l4.7-11.2Z"/>
  <path d="M798.6,815c-13.5-34.5-76.6-49.7-71.3-.1h71.3Z"/>
  <path d="M933.7,569.4l-6.8-15.9-26.7,7.5-1.7-21.8c-9.6-3.1-12.3,9.6-18.3,10.5-9.1,1.3-27.8-22.9-47-5.6l10.6,5.2-3.1,21.5c22.2,1.3-2.8-20.2,23.6-18.5,10.6.7,8,8.9,9.5,9.3,4,1.3,10.6-7,14.3-4.9,2.3,1.3,2.7,12.2,10.7,14.4,9.9,2.7,24.2-2.2,34.9-1.9Z"/>
  <path d="M669.5,264.2c0,.2,0,.4,0,.7l4.3-4.2c-2,.4-3.8,1.2-4.2,3.6Z"/>
  <path d="M652.6,256.5l-21.8,1.6,12.1,15.4-21.3,7.2c9.2,17.3,33.9,6.6,49.9,7.2.2-7.4-2.9-16-2.1-23.1l-7.4,7.4c-11.9.7-13.5-6.8-9.3-15.7Z"/>
  <path d="M673.6,260.7c3.7-.8,8.1-.5,6.2-6.1l-6.2,6.1Z"/>
</svg>