<?xml version="1.0" encoding="UTF-8"?>
<svg id="Layer_1" xmlns="http://www.w3.org/2000/svg" version="1.1" viewBox="0 0 1200 1200">
  <!-- Generator: Adobe Illustrator 29.0.0, SVG Export Plug-In . SVG Version: 2.1.0 Build 186)  -->
  <path d="M1079.7,967.2c1-.7-.1-2.5-1.7-4.5-1.1,1.5-2.3,3-3.4,4.5,1.7,0,3.4,0,5.1,0Z"/>
  <path d="M167.9,1016.3c-1.5-1.5-2.9-3.1-4.4-4.6.6,1.6,1.9,3,4.4,4.6Z"/>
  <path d="M894.9,203.9c-18.2,1.1-44-.3-48.9,18.4-11.4-30-32.1-6.1-54.9-14.9l-3,11.1-9.2-10.8-60.2-4-10.2,11.8c-21.2-17.4-83.1-10.4-104.4,3.1-5.7-19.2-27.7-12.3-38.4,1.1-5.1-17.1-17.2-9.8-32.9-10.3-3.2,1-2.3,9.1-8.1,17.1,1,2.6-.4,7.5.4,11l13-6c17.3,22.9,74.5,7.8,99.8.3,6.8-2,11.8,8.5,15.7-9.1l3.3,16.5c6.2-.7,11.6-4.2,18.1-4,50.6.9,122.9,10.6,171.7,4.4,10.8-1.4,6.8-12.5,10.2-11.9,69.6,11.6,147.2,12.5,221.5,10.5-8.5-11.2-17.4-22.2-26.7-32.8-8.5.3-16.9.5-25.2.5-42.7.3-88-4.3-131.6-1.7Z"/>
  <path d="M241.8,223.8c11.2,24.7,40.1,11.5,59.9,11.3,34.1-.4,37.7-2.8,66.7-7.4,11.2-1.8,13.4,12.4,17.6,13.3,14.1,3,101.3,1.2,120.3-.3,9.2-.7,13.9-8.1,18.5-14.4-2.3-5.8-1.1-12.1-8.8-16.2-3.9,13.8-7.4,6.6-18.8,11.5l5-16.5c-35.4,3.9-71.4,3.6-107.2,3.4-78.9-.4-161.7-5.9-243-7.6-10.9,12.2-21.2,24.8-31.1,37.9l115-3.7,5.9-11.3Z"/>
  <path d="M222.5,867.9c34.3.3,74.9,20.3,104.5-4.5l5.7,10.8,10.5-16.8c9.6,20.7,54.9,17.9,78.3,18.8,39.4,1.6,80-3.1,119.7-2.3l5.2-17,16.8,16.4,209.9-10.5c116.3,10.2,233.1,3.9,350.6,4.1,3.8,0,8.5.2,13.7.4,4.7-9.5,9.2-19.1,13.5-28.9-6.5,4.4-7,11.4-11.6-3.6-101-3.3-201.3,4.3-302.2,4.8-144.4.7-299.6-12-439.2,10.7-5.4-19.3-35.3-5.4-54.7-6.1-25-.9-53.2-6.3-77.2-6.7l-115.6-1.9-5.2,11.3c-11.4-21.3-59.3-5.9-86.1-6.3-3,0-6.1-.3-9.1-.8,4.6,10.5,9.5,20.9,14.7,31.1,53.5-1.7,106.6-3.7,157.9-3.1Z"/>
  <path d="M97.5,908.7l3,7.1c10.2,11.4,22-1.5,21.6-13.2l5.3-.2c.6,6.2,2.8,13.4,9.5,15.4,9.5,2.9,87.6,6,97.4,3.6,4.3-1.1,3.4-11.5,5.8-11.3,13.9,4.2,48.8,15.3,61.4,15.2,8.9,0,5.8-8,12-11.5,6.3-3.6,17.3,4.6,19.9-12l8.4,19.4c8.1,5.6,131.7-4.3,154.8-4.5,22.3-.1,47.3,8.6,68.4,6.2,11.4-1.3,5.2-16.2,21.3-12.2l-2.4,11c70.4-4.5,140.8-3.9,211.5-6.5,30.9-1.1,23.1,2.5,55.9-5.9,11.1-2.9,16.5,11.6,20.4-7.1,23.8,24.6,85.4,13,121.5,12.5,10.5-.1,21.3,5.6,27,5.3,1.5,0,12.4-31.3,11.3-.6,25.2,2,52.7-1.5,79.1-4.1,6.4-10.4,12.5-20.9,18.3-31.7-9.3,2.1-27.8,14.2-36.8,11.8-2-.6-15.3-21.4-36.9-9.6l-2.3,11.1c-6.5-17.4-44.9-19.3-49.4,1.5-6-12.2-8.8-13.8-22.9-15.2-30.1-2.9-113.5-.2-142.3,3.6-15.1,2-21.4,2.8-26.9,17.3l-3.7-9.8c-18.6,7.3-25-9.5-46.6-10.9-21.6-1.4-53.1,5.6-76.4,2.1l-2.6,16.9c-13.1-21.6-45.2-18.6-69.4-14.9-9.4,1.4-7.2,9-8.9,9.9-3.5,1.9-8.7-9-12.1,7.7-4,1.4-1.6-9.3-9.7-12.6-33.8-13.7-91.3-1.3-127.9-5.7l-2.6,16.9-8.5-10.7-2.5,11.1-8.5-10.8-5.2,11.2-6.3-16.7c-5.1-.8-98.3,1.9-103.3,3.3-6.1,1.7-.8,11-5.9,11.4-5.6-15.6-24.1-15-39.1-15.8-13.6-.7-55.1-.4-51.6,18.4l-11.2-10.6-2.5,11.1c-16.3-25.3-70.5-20.9-99.3-18.7-6.5.5-12.3,8.7-16.5,9-2.7.2-8.8-1.7-16-4.2,4.9,8.8,10,17.4,15.3,26,4.5-2,7-4.9,6.6-8.9Z"/>
  <path d="M228.4,480.2c9.6.9,19.7-.5,29.4,1.2l4.8-22.1,3.1,15.5c43.5,14.3,86.7,4.8,130.2,5.7,61.9,1.3,167.9,15.3,221.5-9.9l6.6,10.8,241.2-1.3,10.2-11.8,6.6,11,108.9,2.5,5.2-17c17.1,25.5,23.1,5.9,33.1,6.3,4.5.2,10.4,10,16.7,8.7,9.7-2.1,3-23.1,13.1-22.4l.7,22c42.4-3.6,85.6-.2,128.4.5-2.1-10.5-4.5-20.9-7.2-31.2-47,.9-94.6.8-141.2.8-69.7,0-139.1-3.9-208.7-1.7l-4.9,22.2c2.6-25.9-54.4-25.1-66.9-15-5.6,4.5-5.7,17.3-9.9,17.3l-12.4-21.2c-40.7,11.5-93.3-19.6-125.3,8.8-4.5-17.2-35.2-16.5-38.4,1.2-5,1-1.3-8-4-9.6-6.7-3.9-70.1,3.8-84.1,3.5-64.2-1.3-105.4-3.1-170.6,2.1-1.8.1-7.5-22.6-30.2-6.8-5.4,3.7-1.7,15.6-10.3,14.1l-3.4-16.6c-28.3,6.1-56.5.6-84.8.2-10.2-.2-18.4,0-29.1-.2-16.2-.3-75.4-1.3-136.6-1.4-2.8,10.7-5.4,21.6-7.6,32.6,44.3-.8,88.5-1.8,132.8-2,27.9-.2,58.8,1.2,83.4,3.4Z"/>
  <path d="M145.4,951.2c-.3,14.8,20.3,20.1,32.1,19.5,7.1-.4,11.6-7.8,14.9-7.9,7-.2,29.3,18.5,49.1,2.6,7-5.6-2.5-18.5,8.1-17.3l3.9,21.9c17.2,3.1,39.4-5.2,54.4-4.5,87.6,4.3,187.6,7.6,274.7,6,68.9-1.2,147.6-1.7,215.4-8.8,6.9-.7,20.4-10.1,25.8-8.8,2.3.6,2.4,8.5,15.1,11.5,20.4,4.9,73.8,9.4,78.2-15.3l5.8,10.9,5.2-11.3,3.3,16.5,16.5-.6,2.3-10.9c14.1,19.1,33.5,6.2,49.7,7,25,1.3,49.8,5.2,74.7,5.5,1.1-1.5,2.3-3,3.4-4.5-1.7-2.2-3.9-4.7-4.1-6.3-10.3-4-5-8.6-6-16.3l-10.5,11.2-3-15.6-74.5-3.9,3.2,16.3c-9.6-22.6-27.3-17.2-49.7-14.7-25.6,2.9-14.9,1-38.3.5-29.9-.6-70.2-5.2-93.4,8.8l-6.5-11.3c-26.4,11.6-69.9-11.9-81.2,19.3l-13.9-7.9,10.7-8.5-126.2,3.7-4.8,22.1-3.5-21.9-24.1,17.2-9.9-22.1c-74,1.6-150,9.9-223.9,9.7-70.5-.1-141.8-2-213.6-4.4,6.8,9.9,13.9,19.7,21.3,29.2,4.8,0,9.5,0,14.3-.1l5-16.6Z"/>
  <path d="M1081.9,950.7l-8.5-10.7c.5,5.3-.5,11.3.4,16.4,1,.4,3.7,1.3,7.1,2.4,6.1-8.2,12-16.5,17.7-25l-14.5.4-2.3,16.5Z"/>
  <path d="M136.6,725.8c25.9,0,56.7-5.6,81.6-4.5,32.1,1.4,13.3,10.5,49.3-3.4,16.2-6.2,46.8,9.4,49.4,9.2,11.7-.6,19.7-9.5,27.4-10.3,12.9-1.4,11.1,13.6,22.3,14.2,77.5,4,170.8-14.5,247.1-12.5,3.3,0,.3,9.5,10.6,10.4,68.6,5.5,184.8-2.9,259.2-3.7,65.4-.7,150.2-12.8,203.1,0,5.5,1.3,63.6-.2,100.5-2.2,2.4-11.5,4.5-23.2,6.2-34.9-13.5,1.8-24.9,5.7-25.7,13-18.5-13-62.8-13.5-88.1-14-155-3.5-314.6,16.4-467.6,3.8-33.1-2.7-36.3,1.6-59.5,10.9-10.5,4.2-31.7-8.2-44.1-8.6-80.4-2.5-168.6,8.1-247.4,5.1-13.4-.5-26.7-20.3-32.5,3.5-18.3-22.1-49.5-4.5-70.8-5.3-27.9-1-55.7-24.3-74.6,9.6l-3.6-16.7c-24.1,1.5-48.5,2-72.6,3.1,1.6,10.1,3.4,20.1,5.4,30.1,41.7-1.1,83.4,3.2,124.1,3.3Z"/>
  <path d="M147.5,371.3c7.4-.7,15.7,12,27.5,13,22.6,1.8,60-5.7,81.5-5.1,68.3,2,141.3,12.9,210,8.7,26.3-1.6,22.8-2.2,49.2-1.6,28.3.7,89.6-.5,115.7-3.7,11.6-1.4,23-10.3,34.9-12.3l3.4,16.5,53.9-1.6,16.9-17.1,6.2,16.7c15.6-1.7,28.6,5.4,32.3-12.4l5.5,9.9c12-3.8,26.3,3.1,37.9,0,4.2-1.1,3.4-11.4,5.8-11.2,16.8,1.4,33.8,4.4,54.5,5.8,18.8,1.3,50.4,18.5,55.7-3.9,45.8,20.2,109.7,3.2,159.4,3.7,4.4,0,14,7.4,27.3,7.9,11.3.4,22.9-.7,34.5-1.5-4.3-11.2-9-22.3-14-33.1l-133.7-.8,11.1,5.2-7.9,11-13.9-5,5.2-11c-82.3,5.7-157.2-5.9-239.5,6.6-13.6,2.1-11.6-9.7-26.4,7.4-33-23.2-77.9,3.9-104.5-14.4-22.3,6.1-145.2-.5-155.8,6.5-2.6,1.7,1.7,10.4-3.4,9.7-6.6-21.4-33.1-10.2-46.5,1.3,1-11.6-7-11.7-16.7-13.2-44.5-6.9-92,9.4-134.9-4.3l.6,22.1-13.8-5.1,5-16.6-13.4,11.4-6.6-11c-60.7,5.2-130-3.4-194.5-2.7-5.5,11.7-10.5,23.6-15.2,35.7,18.9-1.5,38-3.3,56.6-4.3,23.6-1.3,35.8-5.7,50.3-7.1Z"/>
  <path d="M91.6,530.3l5.1-16.8,3.4,16.2c16.9-4.6,36.5.2,51.9-1,32.7-2.5,5.3-27.7,29.4-28.6l-4.6,27.5,26.9-17.2c.6,5,.4,12.7,3.2,16.4,7.6,10.2,90.6,1.7,110.3,1.9,117.1,1.1,232.7-.9,350.3-2.6,38.1-.6,96.1,19.9,127.1-5.9l10.8,11.1,126.8-3.8,18.4-17.5c0,4.8,2.1,10.6,6.1,13.3,22.5,14.8,93.7-1.4,123.2,5,1.8-30.1,17.8-34,8.7-.4l67.9-2.2,5.8-10.9c5.3,2.4,6.5,13.2,9.8,15,1.9,1,11,1.3,24,1.1-1.3-11.4-2.9-22.7-4.9-33.8-28.5-2.1-64.8-4.8-69.7-1.5-2.6,1.8,1.6,10.4-3.4,9.7l-5.6-10-238.9.8-2.5,16.6-3.9-9.7c-14.2,2.1-15.7-10.4-40.9-6-9.6,1.7-7.2,8.9-8.9,9.9-3.5,1.9-8.7-9-12.1,7.7l-3.3-16.4c-8.9-2.2-3.8,8.2-6.1,9.4-17.6,8.7-21.6-8-29.1-8.8-16.7-1.7-35.5,5.1-49.8,4.5-21-.8-69.1-20-73.8,10.6l-5.3.2c-.4-4.4-2.2-11.3-5.8-13.6-8.1-5-96.6-8.1-95.9,16.7-3.6-18.6-18.2-4-27.7-5.8-3.3-.6-2.6-8.8-6.7-9.6-9.7-1.7-73.5-3.3-77.6,3.5-3,4.9,2.4,15.1-3.3,15.3l-3.4-21.9-79.6,2.4c-12,.4-16.5,12.6-24.2,17.2l4.8-22c-32-.3-64.3,3.4-96.3,3-58.7-.6-118.2-4.9-175.3-6.4-11.1-.3-24.2-.2-37.6.7-2,10.9-3.6,22-5,33.1,29.2-2,58.3-2.9,87.1,3.8Z"/>
  <path d="M9.7,573.1c157.1,3.3,316.1,11.8,473.4,11.6,80.8-.1,164.3-11.9,244.5-2.1-8.5-27,15.9-44.9,5.3-11.1,18.7-14.3,6.1,9.5,14.1,10.9,87.8-2.4,176.8-13.5,263.9-3.2l2-10.4,8.1-.4c5.4,18.7,21.9,8.6,38.5,10.2l5.2-17.1c4.7-.3,3.3,10.3,8.5,13.6,5.2,3.3,74.5,3.4,126.3,3.2-.4-11.9-1.2-23.8-2.3-35.5l-12.7-.9-4.8,10.8c-22.4-18.1-36.9-5.3-57.4-5.8-107.2-2.6-215.2-4.3-321.8-5-23.5-.1-67.3-2-82,13.4-6.2-19.9-37-3.8-55-3.8-45.3-.1-101.4-9.7-145.7-4.6-9.2,1.1-16.9,9.7-24.2,10-3.2.1-.6-10.7-11.1-11.5-22.5-1.7-47.6,1.9-62.9,18.9l-3.6-16.8c-78.8,1.5-157.7-3.4-236.1-3.9-22.1-.1-49.3,5.4-71.4,5.4-26,0-59.6-9.3-93.2-5.4-5.2.6-9.4,2.1-13,3.9-.7,8.6-1.3,17.2-1.7,25.9,3.5-.3,6.5-.5,9.1-.4Z"/>
  <path d="M363.8,1092.9l.9,27.4,263.4-7.8c-6.9-27.1,16.8-35.1,5.2-5.8,24,8.5,48.5-.3,73,.2,29.2.6,67.3,19.5,89-5l6.6,11,43-1.2,16-17.3,6.3,16.7c17.5-4.3,43.7,8.1,48.7-12.8,3.5,1.4,7.6,2.8,12.2,4,9.4-6.2,18.6-12.6,27.7-19.3-34.7-1.4-79.7-20.5-108.5,11.8l-3.5-16.8c-19.6-6.6-42.5,11.2-54.6,12.9-1.9.3-2.4-18.9-32.2-10-5.5,1.6-1.5,12.9-5.9,11.2-19-16.9-56.9-16.2-77.3-3.2-4.7-21.2-43.1,0-54.6-.6-5.5-.3-12.8-8.4-27.4-8.3-46.8.3-114.4-3.5-153.7,16-7.4-23.1-34.9-1.4-54.3-9.6l-6,11.5-6.6-11.3c-21.9,5.5-41.3-3-65.1-3.3-20.8-.3-41.7-.5-62.5-.7,17,12.6,34.8,24.3,53.1,35.1,24.4-.5,48.9-1.5,53.2-3.2,13-5.2,2.7-21.4,13.9-21.7Z"/>
  <path d="M1169.7,761.5l-3.4-22-393,.5-7.3,1.2-5.3,29.6c.7,10,83.5-4.9,96-5.4,13.5-.6,26.5,13.4,24.9-6l7.9-.5c9.2,11.1,7.6,20,25.3,15.6l2.3-10.9c29,20.6,77.9,3.8,110.8,4,46.5.3,98.3.2,148.1,1.6,2.8-9.5,5.4-19.2,7.7-28.9-3-.2-5.9-.6-8.9-1l-4.9,22.2Z"/>
  <path d="M374.6,812.6c86.6,29.5,194.8,1.7,286,5.1,8.2.3,25.1,20.6,24.8-3l7.9-.7c4.2,16.6,55.1,12,72.1,9.4,10.9-1.7,4.5-14.7,17.8-7.7l3.3-9.9c6.8-2.2-4,19.4,11.4,16.2,5-1-5.7-15.5,7.7-16.7l3.4,16.7c41.5-2.7,84.4-5.9,126-6.4,20.8-.3,70.4,9.5,87.2,5,6.7-1.8,5.2-16,14-16.6l3.4,16.7c10.9,1.1,22.5-3.8,32.7-3.7,25,.1,55.4,2.6,85.5,4.3,3.7-9.2,7.1-18.6,10.3-28-9.5-.3-19.1-.6-28.6-1.1-24.5-1.2-25.9-17.3-42.9,10,4-10.3-27.9-15.1-36.1-15.5-28.5-1.5-73.6-2.6-95.7,13.9l-3.8-10.6c-15.2,6.8-27.7-3.9-43.4-4.4-59.9-2-126,6.9-186.6,8-50.3.9-117.1-14.8-159.1,7.8l-6.3-10.9h-10.6c0,.1-10.4,11.7-10.4,11.7-28.3-19.3-82.7-3.1-115.5-3.2-36.8,0-93.6-24.2-126.2,4.9-3.3-13.6-34.8-14.4-49.9-14.9-41.4-1.6-84.9-1-126.7-1.8-15.2-.3-53.4-1.7-54.1,12.6-7.9-10.5-21.2-12.3-33.6-10.6-4,.5-5.9,2.3-6.9,4.1,2.4,7.2,5,14.3,7.7,21.3,82.7,5.8,168.6,11.3,253.1,11.9,19.9.1,77.3,1.5,82.1-13.8Z"/>
  <path d="M969.7,1030.7l-5.9,11.4c-6.2-20.5-48.3-4.3-68.9-6.2l.2,24.3-10.3,3.4,96.4-.2c10.6-8.7,20.9-17.8,30.9-27.2l.9-6.6-43.1,1.2Z"/>
  <path d="M243.7,281.4c21.2.2,35.1,12.4,64.7,5.1,12.3-3.1,9.8-20.3,18.5.8,23.9-6.7,61.3,13.3,70.2-13.1,12.5,29.6,33.1,11.1,55.3,10.5,22.6-.6,48,7.8,66.5,7.9,195.5,1,392.6-9.3,589.6-11.3-5.2-8.2-10.5-16.3-16.1-24.3-19.5.5-39.1.8-58.6.9-14.6,0-69.8-19.5-77,5.3-45-14.8-95.1-7.7-142.6-7.5-45.4.2-86.7-1.2-132.1-.9-54.2.3-113.8,10.3-165-1.4l-10.4,12.1c-40.5-8.9-98.6-12-143.1-12.9-11.3-.2-22.6,7.2-32.8,7-24.2-.5-74.9-20.7-82.3,2.5l-6.6-11c-43.5-1-87-.5-130.5.5-7,9.8-13.7,19.9-20.2,30.1,50.8-.9,102.2-1,152.5-.5Z"/>
  <path d="M751.2,1180.8c9.7-2.5,19.4-5.3,28.9-8.3-12.1-.8-22.9.7-28.9,8.3Z"/>
  <path d="M745.4,1182.2c-5.2-5.1-10.9-6.6-19-7.2-43.1-3.5-137.8.4-181.7,5.5-14.6,1.7-23,3.7-35,12.3l-.6-16.5c-22.5.7-45.1,1.6-67.7,2.5,14.2,3.9,28.6,7.3,43.2,10.1v-.9c0,0,.2,1,.2,1,37.2,7.2,75.7,11,115,11s98.9-6.2,145.4-17.8Z"/>
  <path d="M641.9,1128c-12.8,2-4.8,11.9-10.2,11.8-5.3.6-.7-8-5.5-9.8-3.9-1.5-70.5-.4-77.2,1.2-18.5,4.3-7.4,17.9-18.5,22.6,0,2.7-7.5,9.7-5.2,11.1,17,.5,33.8.5,46.4-12.3.4,18,73.5,10.6,79.9,6,3.4-2.4,5-9.5,5-13.9l5.8,10.8,16-11.5.6,16.5c9.3-5.3,22.2.6,29.1-1,2.5-.6,5.1-14.9,17.1-10,17.1,7.1,49.4,10.6,86.5,12.2,25.3-9.5,49.8-20.7,73.3-33.5-20.6,1.5-41.2,2.8-61.4,2.8-52.7.1-130.7-11.1-181.8-2.9Z"/>
  <path d="M417.6,1146.1l3.5,21.9c38.9-15.2,70.3,2.2,109.4-14.2.3-27.6-30.2-24.1-53.6-25.2-52.7-2.5-106.1-.4-159.3,1,25.9,13.8,52.9,25.8,80.9,35.8,13.3-5,17.7-19.3,19.1-19.2Z"/>
  <path d="M111.4,628.9l13-11.8,3.9,10.9c76.9,1.5,154.7-5.5,230.4,4.4,26.4-27.1,13.1-1.2,16.1-.9,37.5,3.2,104-.8,143-4,10.5-.9,18.1-9.8,21.4-9.9,3.7-.1,14.7,9.5,24.5,10.8,16.6,2.3,62,7.5,63.4-10,4.6,15.7,12.7,10.8,27.6,10.6l2.5-16.8,8.5,10.8,5.2-11.2c6.1,12.7,12.8,16.3,27.8,15.8,160-6,322.4-.4,483.7-3.2,5.7,0,11.4-.2,17.2-.3.3-6.6.4-13.3.4-19.9-3.3-.3-6.7-1-10.4-2.3l5.2-11-122.7,7.5c-29.7-11.4-134.3-12.4-159,1.9-14.7,8.5-.2,27-25,21.7l-.6-21.9,11.4,16.1-.6-21.9-57.6-2.5-18.6,26.7-.8-27.4-131.7,3.9-2.3,16.6c-10.4-39.3-60.8,1.2-77.1-4.1-3.1-1-2.5-9.9-6.4-10.3-8.8-.8-20.3,8.5-31.3,7-4.2-.6-1.3-10.2-11.8-11.3-9.6-1-40.1-.1-48.8,2-4.3,1.1-3.2,9-6.1,10.1-5,1.9-23.8-9-32.9-9.3-38.1-1.3-79.4,8.5-116.1-1.3l-4.7,10.7-6.4-10.7L0,593.4c0,2.2,0,4.4,0,6.6,0,8.4.2,16.8.5,25.1,26.3-.7,52.3-1.3,77.7-1.4,11.5,0,22.1,3.4,33.2,5.2Z"/>
  <path d="M102.3,769.2c19.6.5,55.3,20.1,62.3-5.3,2.7,15.3,24.7,13.4,27.4-.8l6.6,11c39.7-5.6,84.8,11.4,123.4-.7,13-4.1,5.9-13.9,15.4-14.6l3.5,16.7,414.1-2.1,2.8-21.4-7-10.3c-40.4-2.8-81.2,3.7-120.2,7.6-2.9.3,0-9.5-10.5-10.5-36.7-3.4-82.3,6.9-120.2,3.8l-13.9,22.6c2.4-35-58-18.8-85.7-19.4-127.6-2.9-257.3-8.2-384.6-9.3,2.5,10.8,5.3,21.5,8.4,32.1,26.3-.3,52.4-.2,78.2.4Z"/>
  <path d="M298.4,1018c52.7-.5,71.3-3.3,121-8.8,2.6-.3.2,10.2,10.7,10.9,42.6,2.8,94.6-12.2,137.9-1.3l18.2-20.4c1.2,26.8,52,20.4,74.5,19.8,25-.6,49.6-4.9,74.4-2.3l2.3-16.6,3.3,16.5,13.7-.5,10.5-16.8c2.8,23.7,60.6,18.1,71.2,9.6,7-5.6-2.5-18.5,8.1-17.3l3.1,22.2c7,9.8,160.5-.5,187.3-.7.5,0,.9,0,1.4,0,9.2-9.7,18.1-19.8,26.7-30.2-4.5-1.9-10.8-2.3-18.2-2.8-19.3-1.4-92.4,0-110.3,2.8-12.9,2.1-2.4,14.1-15.6,11.9l2.4-11c-61.5.7-122.7-.9-184.4-.4-15.7.1-26.7,1.2-43.3,1.3-45.9.4-92.2-1.8-137.4-1.3-41.5.5-82,9.8-123.7,3.9l-4.8,22.1-3.7-21.9-98.6,7.6c-50.6-15.5-121.3-8.4-182.8-6.3,5.7,6.7,11.5,13.3,17.5,19.7l3.5-7.6c0,5.6-.8,8.9.2,11.6,1.5,1.5,2.9,3.1,4.4,4.6.8.5,1.7,1,2.8,1.6,14.6,7.5,103.6.4,127.7.1Z"/>
  <path d="M1171.9,651.7l-3.1-10.9-18.9,11.5-5.7-10.9-13.8.6c3.9,24.4-12.9,24.6-11.3,1-1.8-1.6-20-1.2-24.7-.4-9.7,1.7-7.3,9-9,9.9-3.5,1.9-8.7-9-12.1,7.7-5.6,1.6,1.4-20-17.2-21.8-41.2.6-87.3,7.3-127.3,8.4-25.7.7-54.4-2.7-71.1-7.3-17-4.6-19.5,11.4-20.9,11.4-7,0-14.4-9.3-27.4-10.7-43.3-4.7-133.7,2.8-181.8,5.4-9.7.5-17.7,4.2-26.9,6.7l2.4-11.1c-24.7,1.6-49.8.2-74.5,2-22.2,1.6-60.3,2.1-56.4,29.3l10.5-11.2,3.4,16.6,116.3-7.7c93.7,10.3,194.7,3.6,289.8,6.5,31.4,1,71.9,1.8,95.8-19.6l3.6,16.8,54.8-1.6,18.4-17.4c11.8,36.5,51.3,19.9,78,11.6,14.6-4.5,14.6,11.9,18.1-14.6,5.4,24.6,2.7,10.3,13.8,14.2,5.9,2,13.2,3.8,21.1,5.3,1.3-11,2.3-22,3-33.2-12.7,0-23.9,4-26.9,13.5Z"/>
  <path d="M66.4,421.1c-1.8,16.6,52.1,9.2,55.4,4.2l1.6-27.8c-13.9,1.4-63.6-1.9-70.2,8.8-3.3,5.3,4.1,16.8-6,15.4l-3.3-16.4-7.8,11.2-2.9-13.9c-3.5,9.9-6.7,20-9.6,30.1,19.2,1.6,36.9,2,42.8-11.6Z"/>
  <path d="M1142.9,400.3c-12,4.6-2.5,22-13.5,22l-.8-27.3-469.5,2.9,3.1,10.9-16.7,3.2.8,19.2,13.8-5.3c3.3-.4,0,9.5,10.7,10.6,34.8,3.4,68.8-12.7,103.9-3.2l10.9-28.2,3.4,22,145.5,6.8c29.5,8.8,69.5-16.8,93.3-12.9,2.9.5.6,9.1,10.9,10,44.4,3.9,90.8,3.3,137.8,1.7-2.4-8.1-4.9-16.2-7.5-24.1-6.4-7-16.4-11.9-25.9-8.3Z"/>
  <path d="M147.2,336.7c10.4,1.9,38.8-6.8,53.2-1.5l11.2-22.7,3.4,22,256,3.8,12.9-11.8,3.8,10.7,79.1,3.1,2.2-16.3c11,4.7,30.1,8.9,41.6,7.5,14.3-1.7,8.7-19.5,25.9,7l258.9-3.2c20.6-37.1-22.7-34.1-48.6-35.3-63.1-2.7-128.2,8.4-190.4,9.2-62.4.8-124.7-8.2-187.3-4.8l-10.2,11.8c-4.2-17.6-35.6-16.3-38.4,1.1-4.7.5-.8-7.9-7.1-10.7-13.4-6.1-103.5-5.2-119.2-2.1l-5.2,22.3-3.6-27.4-5.2,11.1-19.4-10.4-10.3,27.8-3.5-21.9-10.5,11.2c-2.9-18.5-69.5-24.6-74.2-3.2-21.3-18.1-52.5-15.1-82.5-13.1-6,10.4-11.6,20.9-17,31.7,18.7-.2,37.5,0,56.3-.5,36.4-.9,18.1,2.7,28.2,4.5Z"/>
  <path d="M224.8,1062.9l.6-9.7,11.2,10.5c-1.2-6.2,1.6-7.6,5.2-11.1-1-5,.4-11.2-.5-16.5-9.2,1.3-21-1.5-29.4.8-6.4,1.7.5,13.4-8.6,11.3l-3.6-16.7-16,.6c10.6,10.2,21.5,20,32.8,29.4,1.4-1.1,3.7-1.1,8.3,1.4Z"/>
  <path d="M242.9,1062.6c3.7,4.4,85.9,8.9,100.9,9.2,52.9.8,112.4-10.3,159.5-5.3,9,1,18-.2,27-.1l5.2-17,6.2,16.7,181.4.2,10.2-11.8,6.6,11c44.5,1.9,89.6-11.1,133.2.8l10.5-38.1c-20.9,1.7-42.5-.3-63.5,1.5-15.9,1.3-20.4,19.2-32.6,1.3l-5,16.6-6.3-16.7-166.7,8.3c-24.1-12.9-10.1-2.4-30.4,9-7.3-19.2-32-25.5-38.5-4.4-38.5-19.9-103.4-3.4-147.5-3.1-42.4.2-85-9.7-127.8-5.6-11.1,8.8-14.4,8.5-23.8,17.7.6,2.9-1.2,6.9,1.1,10Z"/>
  <path d="M16.4,675.1c39.1,2.2,78.4-10,115.5,2l2.3-11c5.5-.7.7,9,5.7,9.8,19.9,3.2,120.1,4.9,143.5,2.7,20.6-1.9,10.3-11.6,15.7-12l3.1,10.9,10.9-.4.8-9.5,9.3,2.7,5.9-10c3.5,27.3,23.1,11,36.2,12.5,4.9.6,9.9,6.9,17,7.3,26.6,1.5,57.7-6.9,84.7-1.9l4.6-33.1c-16.8-9.4-63.7,12.4-67.2,11.9-65.4-9.6-129.3-14.9-199-15.3-20.5-.1-57.8-.7-71.3,13.4l-6.3-11.2-21.6,6c-2.7.3,0-9.6-10.5-10.6-22.3-2.1-81.8-4.1-87.7,19.6-1.5-3.5-3.4-6.3-5.5-8.5.6,6.6,1.2,13.2,2,19.8,6.4-3.1,12.3-7.2,17.2-11.8l-5,16.5Z"/>
  <path d="M177.2,434.3c80.2-12.3,172.1,15.9,249-12.9l-2.2,16.5c31.5-4.1,70.8,5.3,99.6-10.5,3.1-1.7-1.7-11.2,6.8-9.2l.4,11,10.5-11.3c-5.4,27,96.1,12.3,99,7.7-.6-22.4-6.1-32.7-29.8-26.1-6.4,1.8,3.2,8-11.6,7.1-7.4-.4,1.6,15-5.2,15.2l-5.9-16.2-13.2,5.4-6.2-10.5-2,27.5-4.1-21.1c-6.2-9.3-102.3.5-117.6.2-40.4-.8-84.1-3.8-126.5-4.4-45.3-.7-104.1-9-148.1-7-15,.7-21.8,4.4-27.1,17.6l-8.7-16.2c-.6,9-14.4,34.1,4.9,23.3,3.2,16.2,19.6,9.4,31.9,3.5l5.9,10.2Z"/>
  <path d="M1134.5,329.2h1.1c-2.6-5.2-5.3-10.3-8.1-15.4l-1.5,1.6,8.5,13.8Z"/>
  <path d="M1002.3,333.2l5.9-11.5,6.6,11,100.9,2.3-4.2-9.7c11.3-2.5,10.1-6.7,8.8-17.8-70.4-11.7-141.9-5.5-214.3-4.5l10.1,32.8,86.2-2.5Z"/>
</svg>