<?xml version="1.0" encoding="UTF-8"?>
<svg id="Layer_1" xmlns="http://www.w3.org/2000/svg" version="1.1" viewBox="0 0 1200 1200">
  <!-- Generator: Adobe Illustrator 29.0.0, SVG Export Plug-In . SVG Version: 2.1.0 Build 186)  -->
  <path d="M1057.7,1005.7l2.8-21c-8,9.5-16.2,18.8-24.7,27.8,11.7-1.5,20.4-4.1,21.9-6.7Z"/>
  <path d="M155.6,221.8l-5,16.5c32.6-1.6,69.1-6.3,101.5-5.8,73.2,1.1,152.1,5.5,226.4,6.3,33,.4,53.8,1.8,81.1-11.5,11.6-5.7,13.5,8.7,21.8,9.3,26.8,2.1,172.3,3.3,192.3-1,7.5-1.6,12.2-5.3,16.5-11.3,4.7-2.1,1.2,8,5.5,9.7,42.8,16.3,185-19.3,242-5.7l10.4-11.9c7.3,17.1,15.9,17.9,25.9,15.6-10.3-13.3-21.2-26.2-32.7-38.6-10.4.6-19.5,1.5-27.1,2.8-7.7,1.4-11.6,4.5-15.9,10.7l-10.9-11.2c-85.7,2.9-172.4,8.2-258.1,8.3-157.6,0-335.6,0-500.3-1.3-25.7-.2-70.5-2.6-87.3,13.9l-1.4-2.3c-7,8.3-13.8,16.9-20.3,25.6.3,0,.6,0,.8,0l34.8-18.1Z"/>
  <path d="M155.3,869.6c4.2-1.1,3.3-11.4,5.8-11.3,16.7,1.2,39.5,13.7,66.4,14.6,44.5,1.5,115,.8,153.7-16l10.8,11.2,68.6-13.6,3.6,16.8,180.7-10.2c7.5,18.9,21,5.3,34,5.2,78.3-.2,156.5-2.6,234.9-3.3l5.2-17.1c6.4,17.8,39.5,30.9,44.2,9.6l6.6,11c12.3-1.8,31.8,2,42.5-2.1,9.5-3.7,4.5-16.9,13.8-16.2l3.6,16.7c36.1-.5,72.3,0,108.5.6,5.9-11.9,11.4-24.1,16.5-36.5-57.2.7-119.8,4.3-142.5,14.1l-6.4-11.2c-22.7,11.6-35.5-3-54.2-3.6-11.5-.4-69.8,2-76.3,7.2-8.9,7.2,4,23-8.1,22.9l-9.1-27.1-90.5,2.8.6,21.9-8.7-16.2-5,16.7-3.5-16.3-113-8.1-26.6,17.8-8.5-10.7-2.5,11.1c-4.3,1.2-3.3-10.3-8.5-13.6-4.3-2.7-97.3-.5-102,1.6-4.2,1.9,0,11.7-4.9,10-20.8-13.5-67.3-24.6-79.6,2.4l-3.6-16.7c-41-3-86.5,8.4-125.8,8.5-44.1.1-87.5-9.2-132.3-6-14.8,1-26.3,10.1-32.4,10.3-7.9.3-30.3-11.6-46.8-10.4-7.5.5-10.8,5.8-13.1,7.6,3.8,8.5,7.8,16.9,11.9,25.2,32.8,2.1,74.4,5,91.7.5Z"/>
  <path d="M98.1,920.7c37.2,2.8,78.4-7.5,114.4-6.4,8.8.3,16.6,9,27.4,7.6,8.3-1,16.7-13.4,19-11.7.6.4-.8,7.8,1.5,9.3,13.3,8.8,93.1-7.9,116.1-1.7l6-11.5,6.6,11c84.2,3.5,167.8-2.1,252-2.6,15.5,0,39,13.9,35.3-6.3l5.3-.2c1.1,28.4,32.3-1,41.2-1.3,6.5-.2,15.2,9.3,27.5,10.4,54.2,5,119.4-13,174.9-6.4l11.1-27.1c5.4-.2-6.4,28.7,33.8,32,44.4,3.7,94.2-5.1,137.5-9.1,1.8-.2,2.1,4.1,3.4,7.2,7.3-11.8,14.1-23.9,20.6-36.2-13.7-1.5-26.9,1.3-35.9,12.2l-10.8-11.1c-124.8,1-249.2,2.8-374,6.2-13.6.4-46.9-3.7-49.3-2.9-3.1,1.1-.4,10.5-10.5,11.1-14.2.9-34.1-10.1-55.2-10.2-37.5-.2-82.8,7.1-121.1,6.6-18.6-.2-37.8-9.6-60.5-6.8-16,2-31.4,12.7-37.8,12.9-3.2,0-.4-10.2-11.1-11.4-20.2-2.2-41.7,5.6-59.7,5.7-63.3.3-171.5-12.7-235.1-6.9,5.9,11,12.2,21.8,18.7,32.4.7-1.6,1.3-3.6,1.8-6l6.6,11Z"/>
  <path d="M212.5,467l-10.5,16.7c62.5-10.3,127.4.4,189-.3,15.1-.2,35.2,5.5,38.5-12.2l3.8,9.9,29.3-10.9c7.5,22.4,38.7,6.2,56,6,26.9-.3,57.3-3.6,81.3-3.6,32,.1,69.5,11.7,104.5,6.9l5.1-16.9,5.7,15.7,30.4-.3,4.8-22.1c.5,5.9.8,16,5.7,19.4,6.9,4.8,148.8-.8,168.1-2.6,16.2-1.5,27.3-14.7,46.4-7l-5.2,11c55.7-1.4,111.7-7.5,167.4-7.9,17.6-.1,35.3.3,53.2,1-1.8-8.3-3.8-16.5-6-24.7-5.2.4-10.3.6-15.2.6-23.4,0-76.6-26.9-81.6,16.5l-3.4-22-68.5,1.8-7.8,17c4.8-30.6-23.5-11.6-36.4-10.5-2.8.3,0-9.5-10.5-10.5-51.2-4.7-126.1,7.8-180.5,9.4-36.2,1.1-74.2-1.9-110.7-.3l-5.1,16.9c-15.5-33.3-38-15.7-61.1-16-64-.7-127.8.5-191.8,1.3l-5.2,17-6.3-16.7c-8.4,1.6-18.7-1-26.4,1.1-6.4,1.7.5,13.4-8.6,11.3l-3.6-16.7-130.7,4.2-5.9,11.4-13.9-13.7-19.1,9.3-6.4-11.4c-52.7,3.3-107.5,4.2-162.2,4.4-2.4,9.4-4.6,18.9-6.6,28.4,67.4.3,135.6,9.1,200.2-11.4Z"/>
  <path d="M236.3,966c18.2-2.9,24.5-21.3,25.1-2.2,24.3-15.3,25.1,5.5,34.9,5.7,54.2,1.1,110.3-7.3,165-5.1l18.5-17.1c5.6,27,36.4,20.8,58,20.3l2.5-22.1,6.1,21.8c18.4-3.2,65.7,3.4,79-7.3,7-5.6-2.5-18.5,8.1-17.3-2.1,26.7,5.9,10,10.2,12.3,1.4.8,1.4,8.3,5.2,9,10.4,2.1,62.9,3.8,56.4-12.5l5.3-.2c1.7,25.7,48,12.1,68.2,11,16.2-.9,62.4-9.8,65.9-9.2,4.5.7,1.5,10.4,11.8,10.9,70.5,3.6,146.4,1.2,221.7-1.3,8.5-11.2,16.6-22.7,24.3-34.4-12.3,1.5-27.5,4.6-36.9,4.5-119.7-1.4-243.5-3.7-358.8-2.4-32.8.4-96.7-3.1-114,13.7-23.3-18.1-49.4-5-71.8-5.6-69.5-1.8-135.4-6.6-209.2-2.4-23,1.3-51.5-1.3-67.8,13.2-.3-17.8-21-19.7-35.4-15.4-4.4,1.3-2.8,11.4-6,11.4-7.8,0-13.2-8.9-22.4-10.3-23.2-3.6-49.8,7.4-74,2.1l-.6,2.9c6.7,9.8,13.8,19.4,21.1,28.7,44.1,1.3,96-.2,109.9-2.5Z"/>
  <path d="M138.5,715.4l29.9,11.5,10.3-11.9c24,15.8,42.7,18.4,49.2-12.5l3.4,22c31.1-8.6,63.5,2.5,90.8,2.6,55.5.2,113.1-8.6,164.2-6.9,103.3,3.4,203.1,2.3,306.8-5.4,16-1.2,34.5,9.9,50.2-9.1l6,11.1c25.6-18.7,35,3.5,43.4,4.3,55.5,5.3,117.7-12.1,173.2-2.9,6.5-26.9,19.5,3.8,24.2-20.1l3.3,16.4,10.5-11.2,3.6,16.7,48.4-2.5,13.7-21.7.8,21.9,10.4-16.7c-3.2,8.4.9,13.3,7.7,16.1,2.2-10.9,4-22,5.6-33.1-12.9,1.5-26.4,3.5-38.2,3.4-41.3-.5-82.7-2-123.9-3.8l5.9,10.7-13.8.6c-5.3-20.4-15.1-5.3-27.6-5.8-20.7-.8-44.7-13-60.2,8.4-19.4-26.3-70.9-10.8-102-13.3l-2.3,11.1-10.9-11.2c-41.6,6.2-92.2-2.1-132.5,4.1-8.7,1.3-12.6,22.5-32.6,1.5l-5.1,11.2c-6.4-22.4-33.2-6-49.7-6.7-60.7-2.8-112.1,3.9-170.1,5.8-2.2,0-14.2-7.8-27.4-8.5-45.1-2.4-26.3,17.4-32.8,17.9-7.7-20.9-45.1-19.8-66.1-20-49.9-.5-107.5,11.3-153.5,10.3-3.3,0-2.9-9.9-7.2-10.8-11.7-2.5-68.4-3.5-70,13-14.2-9.9-43.4-12.5-67.7-13.4,1.9,12.8,4.2,25.5,6.9,38.1,35.7-.4,105.8-3.3,110.4-5.4,4.4-2,22.5-36.8,14.8-5.6Z"/>
  <path d="M866,1089.2l-4.1-9.9c-40-7.3-76.9-.1-116.8,1.8-15.5.8-32.8-6.1-49.9-3.7-11.8,1.7-26,14.5-38,11.3-23.4-6.2-64.5-10.7-93.5-11.1-31.9-.5-64.2,4.3-96.4,1.7l1,33,117.2-7.5c84.7,17.1,180.8-1.9,267.9-1.2,24.6.2,51.1,17.8,73.2-5.4l1.9,3.8c13-8.5,25.7-17.6,38-27.1-21,0-42,.4-63,1.9-14.4,1-35.7-1.7-37.8,12.4Z"/>
  <path d="M91.6,383.2l5.2-17.1c4.5-.3,3,10.5,11.1,14.5,7.5,3.6,102.4,2,118.2,3.2l2.5-16.1c13.9,35.4,46.8,6.4,60.6,5.7,4-.2,25.5,12.5,33.8,13l2.1-10.7,10.8-.3c3.1,32.8,41.8-9.1,43.8-7l-4.9,16.6c1.7,1.2,39.4-1.5,41.4-2.3,4.7-1.9-2.3-12.6,10.4-10.3,5.1.4.9,9.9,6.7,11.1,17.2,3.4,75.5-3.2,98.1-3.5,15.3-.2,32.7,13.1,29.9-5.9l8.1-.5c5.1-.9,1.5,7.8,4.2,9.4,12.1,7.3,159.9-6.5,188.3-6.9,50.5-.7,104.2,9.6,159.6,3.5,11.7-1.3,19.5-11.5,25.9-11.1,6.4.4,15.9,8.5,28.6,9.4,33.5,2.4,87.4-8.5,121.9-8,8.6.1,15,9,26.3,9,11.1,0,22.2-.5,33.4-1.1-4.4-11-9.1-21.8-14.1-32.4-21.1-2.6-46.3-4.8-49.3-2.7-2.5,1.7,1.3,10.1-3.5,9.5-24.9-14.3-90.5-11.5-121.4-7.8-9.6,1.1-7,8.7-10.5,10.4-11.3,5.5-15-8.1-17.8-8.6-39.7-7.7-93.7,6.4-131.9,4.9-189.9-7.5-387.5,7-581-.3l-18.4,17.4-3.6-16.7c-41.9,9.5-97.1-18.6-131.3,9.9l-6.6-10.8h-13.9c-5.2,11.3-10.1,22.8-14.6,34.5,17.2-.4,34.8-3,52-1.9Z"/>
  <path d="M68.4,515.3c5.3,2.4,6.5,13.2,9.8,15,7.4,4.1,130.1-3.1,146.6-14.2,4.7,31.2,38,6,54.9,5.3,10.8-.4,19.1,8.6,30.6,8.7,43.1.4,86.3-5.8,129.2-4.2l-1-32.8c-15.3.7-26.2-5-29.9,11.9l-6.6-11c-32.8,8-97.2-9.3-114,20.1l-6.2-16.7c-26.5,9.2-51.5-2.3-76.9-2.7-25.9-.4-52.8,4.8-76.7,4.7-17.6,0-93.6-8.3-100.7-3.4-2.6,1.8,1.6,10.4-3.4,9.7l-5.6-10h-9.6c-1.9,10.7-3.5,21.6-4.8,32.4l58.4-1.9,5.8-10.9Z"/>
  <path d="M158,578.7c28.2.2,55.2-5.4,82.8-7.6,2.7-.2,2,9.2,6.3,10.1,15.1,3,37.3-3.7,53.8-1.2l2.5-16.9,8.3,10,24.5-11,.6,16.5c3.4,3.5,24.6-14.8,34.5-11.9,4.2,1.3,3.4,10.3,7.5,10.8,22.7,2.7,59.5-13.4,69.9-13.6,2,0,6.9,16,34.3,16,17.5,0,11.8-9.4,15.6-10.8,3.4-1.3,27.4,9,38.4,9.3,56.3,1.4,117.9-11.3,169.9-11.2,3.6,0,.8,10.1,11.3,11.2,45.3,4.7,101.2-12.4,148.7-4.9l15.8-17.1c5.3,32.8,117.8,3.5,123.3,8.1l3.6,10.1,4.8-22.2c4.4,16.3,8.9,5.3,12.7,7.1,30.9,14.6,53.4,17.8,92.6,12.1,9.7-1.4,6.9-8.6,10.4-10.3,11.1-5.4,15.2,8,18,8.5,16.3,2.8,33.6,4.3,51.4,4.8-.5-12.4-1.4-24.6-2.7-36.8-19.3-8.2-121.8,6.5-150,5.6-21.7-.7-44.1-24.1-62.5,9.9l-8.8-16.1-10.7,11.2-10.9-11.2c-90.2,2.1-180,13.5-269.4,3.2l.2,11.1c-56.5-21.1-117.6-.4-176.3-6.1l-10.2,11.8-22.8-15.6-4.8,11-6.6-11.2c-78.3,1.9-157.3,11.5-235.5,1.5l-29.3,23.5-4.1-16.6-104.2-7.1-4.8,10.8c-22.4-18-36.9-5.3-57.4-5.7-8.8-.2-17.5-.4-26.3-.6-.9,10.2-1.5,20.6-1.9,30.9,42.4,1.8,135.7.6,157.6.7Z"/>
  <path d="M433.6,1105.7c2.8-2.2-1.6-11,6.9-9.1l5.8,10.7,10.2-27.7-131.9-1.4,3.1,10.9-16.3-11-70.8,2.2c14.7,11,29.8,21.3,45.5,30.9,28.7-2.3,54.4-4.5,68.8-4.6,26.2-.1,53.4,18.5,78.8-1.1Z"/>
  <path d="M202.3,763.4c11.2,20.2,65.5,5.5,89,5.1,45.5-.8,79.2,5.3,120,5.5,35.4.2,73.9-5.5,110-3.5l18.5-17.2c2,23.5,24,11,41.7,12.8,71.2,7.1,142.8,3.2,214.4,1.8,44.6-.9,86.8.7,131.7,1.2,33.4.4,12.9-15,21.5-17.4l19.4,5-5.2,11.1c20.5-4.7,56.5,9.2,62.7-12.9,43.1,12.2,96.6,15.3,149.5,15.7,3.3-11.1,6.2-22.3,8.9-33.6-25.3.4-50.8.8-76.3,1.4-11.6.3-27.1-7.6-39.1-6.2-12.8,1.5-28.2,12.4-29.4,11.4-2.1-1.8,4.1-13.2-5.8-10.8l-2.3,16.6c-2.2-9.9-23-15.1-33.2-15.7-25.6-1.5-65.4-2.4-84.9,13.8-4.1-25.9-16.9-11.2-30.8-11.4-167-2.1-379.4,19.8-538.3,1.7-14.6-1.7-35.1-4.8-37.9,11.9-5.4.2,2-10-10.9-11.2-21.5-2-91.1-2.5-98.7,14.5-36-27.2-75.9-6.5-115.8-13.1l-4.9,22.2-3.4-22H16.5c2.3,9.7,4.8,19.2,7.6,28.6,50.2.5,101.3,1.8,145.9,5.8,13.7,1.2,21-6.2,32.4-11.1Z"/>
  <path d="M1000.6,986.2c-3.9-.1-1.1-10.5-11.5-11.2-18.8-1.2-157.2-1-165.1,1.5-1.7.5-6.3,17.2-24.4,10.4l2.4-11-68.6,2.2,4.1,9.4-14.1,18.2-10-27.3c-30.9-6.3-32,14.3-56.5,12.9l5.2-11c-22.8.7-45.7,1.3-68.6,2.1-9,.3-18.4,6.8-27.1,6.2-12.2-.9-35.1-21.5-53.2-6l-4,29.8c15.6.6,30.9,4.1,46.6,4.3,81.4,1.1,172.4-13.9,252.8-11,5.2.2,8.3,7.1,11,8.2,2.1.9,14-31.2,33.7-1.1l89.8-2.6,2-22.1,6,16.4,7.8-11.2c.1,20.9,47.6,23.2,76.7,19.4,8.5-9,16.8-18.3,24.7-27.8v-.3s0,.2,0,.2c.7-.9,1.4-1.7,2.1-2.6-21.8,2.5-43,4.7-62.1,4.2Z"/>
  <path d="M149.6,820.7c7.3-1,7.2-4.3,8.8-10.2l9.8,3.6c2.5-3.7-3-15.1,0-20.2-40.8.6-81.6.7-122.1-1.3-6.6-.3-11.5-1.7-15.5-3,3.5,10.4,7.2,20.7,11.2,30.8,37.9,2.4,77.7,4.7,107.8.3Z"/>
  <path d="M168.2,793.9c3.3,0,6.7-.1,10-.2l.3-1.8c-6-1.3-9-.3-10.4,2Z"/>
  <path d="M881.5,792.3l-14-10.2-15.6,27.7-8.7-24.7c-70.2-5.6-141.5,5.5-211.6,6.7-5,0-13.4-9-27.6-8-8.8.6-31.5,8.8-32.4,18.1-6.8-16.3-17-15-33.2-15.7-39.7-1.8-84.9,11.2-121,8.7-79.3-5.6-159.4-2.4-239.1-1l-4.4,25.7,106.4,2.6,5.9-11.6c9.3,24.8,47.8.7,70.9,9.2l6-11.5,6.6,11,62.2-7.5-5.2,11.1,57.4-1.3,7.9-17.1,3.6,10.9c16.5-12.3,11.6,3.7,17,4.8,13.3,2.8,123.7,1.4,147.2,1.3,40.4-.3,80-7.2,120.1-3.7l5.9-11.4c29.5,26.9,69.2,0,93.7-2.7,2.5-.3,2,9.3,6.3,10.4,33.5,8.7,106-1.3,142.1-1,44,.4,88.2,1.2,132.4,2.3,4-10.5,7.8-21.2,11.3-32l-286.9-2.3-3.1,11.4Z"/>
  <path d="M301.1,1061.1c2.6-1.8-1.6-10.4,3.4-9.8l6.5,11.1c16.6,3.6,27.1-10.5,35.2-9.9,10.3.8,20.6,11.6,35.4,13.2,44.1,4.8,121.1-5.6,170.3-5.4,10.9,0,22.3,5.9,33.4,5.1,10.5-.8,7.4-12.1,10.5-12.2,7.7-.3,17.2,9.2,28.2,10.3,36.2,3.7,96.2-3.9,136.7-4.1,73.5-.3,146.5-1.8,219.8-1.4,2.1,0,4.4.1,6.7.3,11.5-9.7,22.6-19.8,33.3-30.4-.7-.7-1.5-1.3-2.3-1.7-12.6-5.1-93.4-4.2-104.5,12.1l-6.6-11-43.6-3.6-4.8,10.9-6.3-10.8-191.1,5.8-5.6,11.2c-20-24.7-60.8-1.1-81.9-3.2-4.2-.4-1.3-9.9-11.6-10.9-21.4-2.2-60.3-.8-77,13.8-4.1-17.4-46.6-16.4-49.3,1.5l-6.6-11-183.2.2-2.3,16.7-6.1-16.5c-17,6.2-35.3.7-51.4,3.4,11.4,10.8,23.2,21.2,35.3,31.1,37.3.8,73.8-1,79.3-4.7Z"/>
  <path d="M267.5,289.7v-16.2s15.5-.4,15.5-.4l4,16.3c28-4.7,60.5-.5,87.5-2.5,10.7-.8,18.1-10,21.6-10.1,13.5-.4,57.9,23.8,76.8-4.3l16.8,16.3c23.5-5,181.5-.1,188.5-12.7,2.3-4.1-.9-11.9.3-16.9,1.8-7.6,13.1-.8,10.6-9.8-60.9-2.7-125.3,12.6-184.5.6l-4.7,10.7-6.6-11.2c-40.9,10.4-91.9-1.8-131.1,3.8-13.1,1.9-7.9,14.5-18.5,17.5l-3.1-15.8c-26.3,7.1-57.1-3.9-82.7-4-49.3-.3-98.8,1.2-148.4,3-6.4,9-12.5,18.2-18.4,27.5,52.4.1,104.7,1,156.9,3,7.4.3,12.6,2.7,19.2,5.1Z"/>
  <path d="M778,1173.2c-26.4-1.4-54.6-4.4-78.3-1.2-36.2,4.9-22.1,2.5-56.2.7-70.1-3.8-147.9,8.3-219,1v.2c55.4,17,114.4,26.1,175.6,26.1s121.7-9.4,178-26.8Z"/>
  <path d="M482.8,1161.2c4.4-1.3,2.8-11.5,6.1-11.4,7.5.2,12.2,7.8,17.7,8.6,15.4,2.4,45.4,2.7,58.4-5.1,4.7-2.8.2-13.3,8.7-11.4l3.6,16.7c69.7,3.6,138.8-.3,208.7-1,12.5-.1,24.7-.3,36.9-.4,25.4-10.2,49.9-22,73.4-35.4-6.1-.2-12-.2-17.8-.2-15.2.2-34.8-5.4-38.5,12.1-27.1-20.4-75.1-4.3-109.1-4.2-81.1.2-162.1-6.8-242.9-.7-21.9,3-15.4,27.2-20.9,27.3l-3.5-22c-34.7,2.2-105.3-17.1-139.1-6.8-1.5.5-2.7,1.8-3.9,3.6,19.3,10.2,39.3,19.4,59.8,27.4,1.5,0,3,0,4.5,0,27.1-.2,71.3,10.5,97.9,2.7Z"/>
  <path d="M725.3,627.2c32.4.2,64.2-6.9,96.2-3.2l-1-32.8c-28.4,2.8-56.7,3-85.3,2.9-20.3-.1-28.8-13.7-37.8,11.9-7.8-17.8-17.1-18.4-35.8-15l-2.6,16.2c-5.7-.6.3-7.5-6-9.4-7.9-2.4-14.3-6.8-16.1-7-23.4-1.6-50.6,3.3-71.3,14l-6.3-11.4c-71.3,3.8-144.7,1.2-219,1.3-63,0-130.4-5.1-192.7.4-16.9,1.5-30.7,15.1-51.8,7.2l5.2-11L0,597.4c0,.9,0,1.7,0,2.6,0,8.6.2,17.2.5,25.7,29.4,0,58.7-.3,88-.9,202.2-3.7,426.8,1,636.7,2.4Z"/>
  <path d="M241,1012.7c9.6,0,53.4,8.1,58.7,4.1,2.1-1.6-1.4-10.9,3.5-9.3l22.3,10.5,5.3-11.7,43.5,10.2,5.9-11.5,6.6,11,37.4-.9,5.2-17.1c8.9,25.7,57.1,21.2,65.9-2l8.7,16.2,4.5-33c-15.9,6-61.8-1.2-73.5,2.4-6,1.8-.5,10.9-5.8,11.1l-6.5-11.3c-26.8,12.1-51.7-8.2-73,13.6,1.2-18.9-65.3-16.3-73.8-13.6-3.8,1.2-20.8,29.7-30.9,5.9l16.3-6-60.3,1.8-4.9,16.6-3.2-16.3-47.4,7.9c6.7,7.8,13.7,15.5,20.8,22.9,24.9,2.2,48.8-1.8,74.9-1.6Z"/>
  <path d="M1155.5,497.7c-47-13.2-85.6-5.1-137.7-5.7-14.8-.2-30-6.6-44.1-5-10.8,1.2-6.8,12.2-10.4,12.1-12.2-.3-56.8-28.9-65.8,1.9l-6.6-11c-31.7,4.7-74.9-3.6-100.3,14.1.3-3.6.1-9.9-4-10.8-17.7-4.3-80.9,6.3-103.6,6.1-50.9-.4-98.3-2.9-151.2,0-17.2.9-83-9.9-87.1,12.9-3.8,21.4,70,27.8,74.1.2l6.3,16.7c83-8.5,163.7-.3,246.6-2l2.5-16.9,8.5,10.7,5.1-11.3c12,30.3,38.3,8.2,62.9,13.4l3.1-10,6.2,11c15.9-10,33.1,5,43.3-12.4l6.5,11c23.8-9.8,73.9,4.3,92.8-4.1,4.7-2.1-.5-10.4,4.9-10.2,4.4-1,2.9,12.5,12.1,15.5,7.1,2.3,80.2-3.1,86.1-7.3,4.8-3.4.2-13.2,8.7-11.4l3.5,16.4,54-1.7,3.1-11.1,19.7,15.8c.2,0,.3,0,.5,0-1.4-11.2-3.1-22.2-5.1-33.2-14.3,1.2-29.5,7.6-34.7,6.2Z"/>
  <path d="M67.2,652.5c5.4,24.6,2.7,10.3,13.8,14.2,18.5,6.4,50.6,10.2,75.3,10.7,47.9.9,95.8-7.8,142.5-10.4,9.8-.5,7.1,10,11.9,11,15,3.1,92.8,4.1,89.1-19.1l5.8,10.8,13.3-11.3,3.2,16.2c10.1,4.9,64-5.4,79.8-5.1,78.3,1.4,156.4,1.8,236.1.7,112-1.6,220-1.9,334.6,1.2,17.1.5,45.9,4.5,49.2-12.7,22.6,8.3,47.9,11.3,74,11.9,1.1-9.6,2-19.3,2.7-29.1-110.3-3.8-224.1-11.8-335.6-2.5-13.3,1.1-30.7,11-32.4,10.9-5.6-.4-10.6-12.4-16.7-12.9-5.8-.5-15,8.1-22.9,8.7-6.3.5-24.4-10.8-38.5-7.1-13.4,3.6-20.5,9.1-25.9,21.3l-9.7-21-172.5,4-10.2,11.8c-4.1.2,1.7-15.9-22.3-10.5l-2.3,16.6-5.8-10.8-7.8,11.3-3.4-21.9c-7.1,2.3-32.2.4-35.7,2.1-4.8,2.2-4.1,10.7-7.7,13.2-8.1,5.5-16.1-10.2-19,8.6l-3.4-22c-26.6-.9-52.9,4.5-79.2,4.6-18.7,0-120.7-7.4-128.5-2.5-3,1.8-4.4,14.7-8.8,15.5l-3.3-16.2-41.3,1.1-15.8,17.2c-8.5-23.1-64.3-31.9-71.7-8.8l-3.1-10.9-18.9,11.5-5.7-10.9-13.8.6c4,24.4-12.9,24.6-11.3,1-1.7-1.5-18-1.2-23.8-.5.8,11.8,2,23.5,3.5,35.1,14.6-.8,30.8-6.9,44-11,14.6-4.5,14.7,11.9,18.1-14.6Z"/>
  <path d="M308,431.6l10.1-11.7c11.5,15.4,38.1,26.9,44.1,4.1,5-1,1.3,7.9,4,9.5,8.2,4.9,147.2-4,172.1-4.1,30.5-.2,41.7,14.6,68-12.9l3.6,16.8c22.5,9.2,59.1-13.5,70.6-13.8,3.1,0,.4,10.3,11.2,11.4,27.7,2.9,24.4-10.4,27.4-11.4,11-3.6,33.4,8.3,43.9,9,60.3,4,117.8-3,181.3-.6,22.9.9,46-1.9,68.9-1.8l-.9-27.4-10.5,11.2c-.7-23.6-67.2-22.7-79.8-13.5-6.9,5-7.1,16.2-10.9,16.4l-22.4-21.7-65.3,2.2-5.9,11.4-6.6-11.2c-9.9,4.3-30.8,1-37.7,2.7-4.1,1,0,13.6-16.1,10.4-2.4-.5-.4-10.6-11.1-11.3-25.1-1.8-55.6,10.9-81.8,2.6l-10.9,28.3c-4.3.1.9-39.4-29.7-24.8-1.2.6-4.3,15.8-20.2,8.6-14.6-6.6-3-13.9-38.5-14.1-25.8-.1-37.7-4.9-52,18l2.2-16.6c-25.6,10-84.5-11.5-90.1,19.2l-11.2-10.6-5,16.6-6-16.2-10.5,16.7,2.5-16.7c-5.2-7.3-59.6-6-74.2-5.9-36.7.1-77.5,1.4-118.6.9-9.3-.1-18.1-4.5-27.4-5l-7.9,19.9-8.5-8.1-5,16.7-6-16.4-7.8,11.2-.7-22c-20.5,4.8-56.5-9.2-62.8,12.9-6.3-7.8-17.1-13.8-27.3-9.8-12,4.6-2.5,22-13.5,22l-.8-24.5c-4.2,11.9-8.1,24-11.6,36.2,94.2-.3,193.2-11.1,285-3Z"/>
  <path d="M1012.2,294l-5.2,17.1c-4.6-16.3-8.3-5.2-12.8-7-1.6-.6-1.1-8.6-3.8-8.4-3.7.3-9.8,5.8-16.5,5.5-18.8-.9-59.7-13.3-65.9,7.4-5,1-1.3-7.9-4-9.5-5.9-3.5-91.4,1.9-111.2,1.9-65.9-.1-135.2,2.3-203.5,3.3-39.9.6-95.6-10-131.9-3.9-4.6.8,5.1,12.7-5,16.5-27.3-25.7-74.9-9.7-110-13.4l-5.2,17.1c-4.8-16.4-31.6-7.6-47.1-15.1l.9,32.9c68,1.3,137.5-9.4,205-10,77-.8,157.9,3.5,237.1,1.9,20.1-.4,12.1,12.4,29.6-11.8l3.3,16.4,7.6-22.2,5.8,10.7,7.8-11.2-2.1,22c19.7,8.9,42.7-12.2,51.7-12.7,1.8-.1,7.6,20.3,30.6,10.2l-5.9-16.2h15.9s1,15.9,1,15.9c62.8-2.3,126.5-5.4,189.5-6,11.1-.1,36-1.2,64.2-2.5-5.1-9.8-10.5-19.4-16.1-28.9-36-.3-76.2,3.8-104,0Z"/>
  <path d="M977.8,257c-7.1-23.1-30.1-4.6-44.6-4.7-21.3,0-45.2-7.9-68.2-2.9l1.6,26.6c6,2.8,12.7,4.8,19.3,5.3,50.5,3.9,111.7-8.2,163.1-8.5,17.8,0,36.2.5,54.9,1.4-5.9-9-11.9-17.9-18.2-26.6-23.9,1.9-47.3,4.2-69.6,6.2-9.3.8-25-20-38.3,3.1Z"/>
  <path d="M1081.1,395.2c-15.3.6-61.5-14.5-63.3,11.5-.4,6.1.4,12.9,6.1,16.5,5.5,3.5,109.8,4.3,129.5,4.4,7.2,0,14.4,0,21.5,0-2.9-9.7-6-19.2-9.4-28.6-33-2.1-68.5-4.4-84.4-3.8Z"/>
  <path d="M993.3,585.4c-23.5.8-50.8,1.2-53.9,29.6l-12.5-26.4c-24.7,4.2-74.1-10.1-86.5,12.3l-14-4.5.5,16.4c14.6-5.9,22.3,8.2,41.3,9.9,39.6,3.6,84.9-7.3,125.3-7.2,68.4,0,137.4,1.1,206.4,1.6.2-5.7.2-11.4.2-17.2s0-9.9-.2-14.8c-68.9-1.6-137.9-2-206.5.2Z"/>
  <path d="M284.4,300.1c-19.1-2.6-39.1,4.6-56.9,4.9-44.1.8-106-9.5-147.3-4.8-5.7,9.8-11.1,19.8-16.2,29.9l221.4,2.9-1-33Z"/>
  <path d="M845.5,249.9l-144.6-.3-5.2,32.4,145.2,1.1c20.2-3.7,28.7-30.2,4.6-33.3Z"/>
</svg>