<?xml version="1.0" encoding="UTF-8"?>
<svg id="Layer_1" xmlns="http://www.w3.org/2000/svg" version="1.1" viewBox="0 0 1200 1200">
  <!-- Generator: Adobe Illustrator 29.0.0, SVG Export Plug-In . SVG Version: 2.1.0 Build 186)  -->
  <path d="M640.8,236.8c10.1.9,63.3-1.1,70.9-3.4,5.5-1.7.9-10.9,5.8-11.3,69.8,27.9,246.3,6.1,330.2,5,7.4,0,16.4,7.8,27.6,7.6.3,0,.6,0,.9,0-8.2-10.6-16.7-21-25.6-31.1-5.4,1.9-10.4,4.5-15.2,4.4-7.9,0-15.1-9.3-27.3-9.6-22.7-.6-113.3,12.3-119.9,10.7-4.4-1-1.7-9.9-11.9-10.8-30.7-2.8-68.9,7.9-98,8-32.7,0-64.9-8.1-100.3-5-13.4,1.2-28.8,10.9-32.2,10.7-4.5-.2-10.9-9.8-16.8-8.4-6.8,1.7-4.1,18.3-13.1,17.1l4.5-22.1c-17.5-8.3-55.8,11.9-62.6,11.6-8.7-.4-21.8-15.3-41.5-1.8l5.1-11.1c-17,6.1-82.9-1.2-92.3,5.3-2.6,1.8,1.8,10.4-3.3,9.8-3.3-13.8-36.1-15.3-50.1-14.9-21.4.6-27.2,5.1-50.2,4.9-47.7-.5-87.9.1-135.4,1.3-11.7.3-24.5-3.2-36.7-4.6-9.2,10.3-18.1,20.9-26.6,31.8,168-.4,335.9-1.2,502.5-5.4,3.6,0,.9,10.1,11.5,11.1Z"/>
  <path d="M252.4,856.9c.1,22.6,25,5.7,36.4,4.5,2.7-.3.3,10,10.8,10.5,89.3,4.7,209.9-.4,302.1-2.3,17.8-.4,45.6,4.6,49.2-13.2,14.4,14.5,39.1,8,58.1,8.5l-3.3-16.4c26.1-5.7,25.2,10.6,34,13.8,2.1.8,39.2,4.9,43.7,5.1,45.1,1.8,96.8-10.2,142.9-5.6l10.2-12.1,6.7,10.9,177.8-2.2-.9-21.9,16.4-.8.9,22,4.8-.2c4.5-9.4,8.7-18.9,12.7-28.5-5.1-2.1-10.2-4.1-15.8-4.6-14-1.4-78.3,1.4-93,4.3-6.6,1.3-13,4-13.7,11.5l16.9,10.3c-14.8-5.5-26.1-1.4-22.8-21l-24.2,12c-8.1-28.2-33.5,6.1-41.1,1.7l2.3-11.1c-4.4-7-40.6-6-48.9-3.4-6.2,1.9,1.5,13.8-11.3,11.6-13.4-25.2-60.8.3-87.4-7.6l-5.8,11.5c-57.9-21.8-174-12.5-242.7-11.8-24.2.2-51,5.6-76.2,3l-5,17.1c-4.5,0-1.2-6.9-7.5-10.3-33.3-17.8-120.9-4.7-163.7-4.3-31.1.4-65.1,1.1-91.8-.1-41.1-1.9-51.6,0-89.2,5.3-9.7,1.3-25.8-11.1-43.2-6.9-4.2,1-3,9.2-6,10.4-1.8.7-18.9-4-35.2-7.9,4.7,10.8,9.6,21.4,14.9,31.8,18.8-1.1,37.8-6,53.3-6.1,38.8-.2,99.8,19.8,134.8-7.4Z"/>
  <path d="M153.3,913.8c16.6,1.2,33.6,10.7,54.4,5.4,1.4-.4,13.2-31.8,11.8-.6l258.2.2c16.3,2.1-1.7-10.7,5.2-11.4,17.3-1.8,27.6,8.1,38.9,8.9,35.2,2.6,76.7-.4,112.5,1.1l-6.1-16.1,16.4-.7-4.7,16.6,455.5-13.7-.9-22,19.5,4.6,2.2-10.9c-27.9,13.2-77.4-19.2-90.2,9.4l-6.8-11.1c-77,2.9-156.4,14.1-232.5,4.7l-10.3,16.9,2-16.5c-80.9,10.1-161.1,3.4-241.5,4.3-52.8.6-104.9,2.8-158.4,5.1-96.8,4.1-201.8-2-306.9-3.5,5.9,11,12.1,21.7,18.7,32.2l7.7-9.3c15.3,13.9,36.3,5.2,55.4,6.6Z"/>
  <path d="M156.7,476.5c36.4-2.2,24.1,3,38.3,4.3,35.1,3.2,83.7-6,121.3-5.8,80.7.3,160.9,2.8,241.6,1.5,35-.6,84.7,11.7,120.6-11.2,6.6,21.7,24.5,5.5,38.9,6.4,8.4.6,15.8,7.3,27.8,7.5,28.6.6,63.2-6,92.8-3.8l5-17,3.5,16.2,66,2.7-16.7-4.8,10.3-16.8c-10.2-13.4-111.4-16.6-128.8-11.2-5.4,1.7-1.4,13-5.8,11.3-52-22.1-120.4-6.8-176.2-6.2-4.7,0-14-7.7-27.4-7.6-32.7.4-75.1,2.4-104.4,15.5-11.2-27.3-38.1-11.4-60.6-11.1-103.9,1.6-204.8-1.8-308-.1-20.4.3-54.1-15.9-59.9,7.9l-6.7-10.9c-2.5-.2-5-.2-7.5-.3-2.9,10.7-5.5,21.6-7.8,32.6,48,1.9,96.2,3.7,143.8.8Z"/>
  <path d="M308.8,953.3c41.4,26.9,105.8,7.2,156.5,7,12.1,0,26.6,6.5,42,6.4,45.2-.3,93.3-9.6,137.9-.7l4.6-10.8,6.6,10.6,89.9-3.7-3.2-11.1,16.3-5.8,3.4,16.3c19.9-1.5,43.5-4.7,63-5.2,11-.3,25.4,5.6,33.4,4.2,12.2-2.1,2.8-16.7,21.3,1.9,68.9-.7,138.3-8.3,207.3-12.7,6.1-8.5,12-17.2,17.7-26.1l-91.6-.3,11.8,21.4c-2.7,3.4-17.8-17.5-25.3-18.5-46.6-6-110.7,4.2-159.5,4.6-79.6.7-163.8-1.4-241.3-1.2-20.6,0-77.6-3.3-79.2,20.1l-8.6-10.6-5,11.3c-3.6,1-3.5-10.7-12.6-15-15.8-7.3-147.4-3-169.7.2l-12.7,12c-.3-4.4-2.4-11.3-6-13.5-4.8-3-79.8-1-90.5,1.4-20,4.5-11.5,23.1-28.1-4.6-17.6,15.7-28.2,3.4-48.6,2.1l-5.7,11.3-6.8-11.1-24.7.2c7.3,10.9,14.9,21.5,22.9,31.8,32,1.4,64.1,2.7,97.4,2.9,23.6.1,79.5,3.6,87.4-14.9Z"/>
  <path d="M169.9,723.1l2.1-16.7c12.8,22.9,52.4,9.7,72.1,10.6,93.7,4.1,169.8,2.9,263.9,2.5,10.6,0,19.9,3.1,30.1,4.5l4.4-27.6c11.4-1.5,3.3,16.8,6.4,21.7.2.3,4.9-3.6,7.8-2.6,26.8,9.6,35.9,5.1,63.2-.8l-1.4-20.8c-6-2.5-12.8-4.7-19.3-5.1-62.9-4-140.2-2.5-203.9-1.2-9.9.2-15.9,13.1-37.2,0l-7.5,16.8-3.8-16.7c-20,1.5-40.2,2-60.2,2.9-84.5,3.7-181.1.7-274.7,6.7-1.8.1-3.1-.1-4.1-.6,1.5,9.2,3.2,18.4,5.1,27.5,17.4-1.6,34.3-5.6,48.8-5.4,34.8.4,70.9,10.2,108.2,4.4Z"/>
  <path d="M354.3,1110.9c9.6-1.5,15.6-3.9,21.2-12.2l5.9,10.8,7.7-11.3c4.6,27.9,21.8,10.2,36.2,10.5,100.6,1.9,195,3.9,296.7-6.7,14.1-1.5,29.7,9,32.4-8.4,4.5-1.2,2,8.5,6.8,10.9,8.6,4.3,47.9,3.9,58.3,1.7,10.2-2.2,14.8-22.4,24,.3l15.2-.6,5.6-11.4h8c-.2,20.6,34.1,5.9,50.1,8.6l1.8-22.1,18.1,11.9c11.8-8.2,23.2-16.8,34.4-25.8-43,2.2-86.2,7.4-128.7,9.6-38.5,2-91.2-11.4-124,12.8l4.7-16.6-34.9,1.3-5.8,11.4c-5,1-1.4-7.9-4.1-9.5-7.9-4.6-127.7,4.7-150.1,5.2-25.5.6-52.9-13.9-76.7,6.3l-101.7-10-4.9,16.8c-1.2-9.7,4.8-16.5-9.1-16.2-27.4.5-72.3-.1-99.1,3.9,15.7,11.7,32.1,22.6,48.9,32.8,21.6.2,42.7-.6,62.9-3.7Z"/>
  <path d="M64.3,370.5l11.1,11.1c157.9-2.6,315-4.1,473-4.3,22.6,0,153.3,8.1,160.8,2.8,2.4-1.7-1.4-9.8,3.5-9.6l3.1,10.9,261-5.8c53.6,0,121.8,4.8,180.1,1.1-4.7-11.7-9.8-23.3-15.2-34.7l-75.8,2.6,6.4,21.6c-8.9,2.7-2.9-9.2-9.5-10.6-28.6-6.1-26.8,17.1-31.3,17.8-1.9.3-21.8-7.8-14.5-15.7,2.8-3,22.9-1.7,21.4-11.9-35.9-4.3-27.9,28.1-62.2,24.9-14.8-1.4-11.2-15.5-15.3-26.8l-26.9.8-2.1,16.6-6.5-16.6c-38.5,3-69.7-5.1-97.6,26.3-13.8-4.9-1.3-19.3-3.6-21.6-8.9-9.1-186.8,4.6-216.3-.3l-19.1,21.1c3.1-18.4-16.8-25.3-31.7-25.6-1.8,0,.1,15.9-20.4,11.3-4.1-.9-1.5-10-11.9-10.9-25.6-2.2-60.9,4.1-88.3,4.4-38.1.4-38.8-12-76.5,7.1-11.3,5.7-15.4-8.3-17.8-8.6-20.8-2.9-46.4.2-67.7-2.9l-4.8,16.7c2-22.2-46.1-18.4-55.7-11.4-5.3,3.9-1.5,15.6-10.2,14.2l-3.9-16.6c-26.8,3.8-30.9-12.2-45.7,13.3l-3.8-16.7c-23.7.9-47.5,3.4-71.3,3.6-8.2,0-16.3,0-24.4,0-4.7,10.1-9,20.3-13.1,30.6,5.9.6,11.8,1.4,17.7,2.5l4.6-10.7Z"/>
  <path d="M92.3,578c35.7-1.4,71.6-3.1,107.4-4.5,15.9-.6,35,9.7,37.7-7.1,22.8,22.3,88.7-1.9,110,1.9,3.5.6.8,9.2,11,9.9,77.7,5.8,191.5-18.2,264.2-.7,3.8.9,2-8.4,3.5-9,15.5-6.5,16.3,8.1,18.8,8.1,4.2,0,10.3-5.3,15.7-5,28.7,1.3,56.8,8.2,84.8-5.1l-.9-27c-6.2.2-11.7,4.4-18,4.2-33-1.2-56.6,5.8-87.9,3.8-17.9-1.2-65.6-19.1-64,4.7l-9.4-10.7-37.4,1.3-7.7,17.1c-.5-6.1-4.2-12.3-9.4-15.6-20.7-13.2-123.7,1.3-153.1,6.1l2.3-11.1c-6.4-4.1-60.6,5.5-74,5.5-89.8.1-178.4-6.1-268.3,1.4-4.1.3-9.7-.8-15.2-1.9-1,11.1-1.7,22.2-2.1,33.4,32.4-1.3,65.1-5.4,94.2-10.8l-2.3,11.1Z"/>
  <path d="M86.1,754c12.3,25.2,70.9,27.4,88.3,7.3,4.3-2.2,1.1,9.8,6.7,10.9,11.8,2.3,64.4-6.7,81.6-6.6,31.1.2,63.9,2.5,96.8,2,22.1-.3,45,10.3,66.8,3.7,5.6-1.7,11.8-12.1,14.4-10.3.5.3-1.1,9.6,4.1,10.8,20.6,4.7,60-6.6,81.5-6.3,18,.2,38.2,6.6,60.1,5.9,17.2-.6,40.7,4.9,43.8-13l6.7,10.9,59.7-7.5c13.4,21.9,60.6,2.5,85.1,6.7l-12.1-26.9c9.1-2.7,3.7,7.3,6.7,9.4,2.1,1.5,8.7-9.6,13.1,6.2l24-17.5-4.2,27.6,54.8-2.3-11.2-5,7.8-11.2c5.8,5.1,10.9,11.5,18.3,14.4,42.1,16.4,159.7-7.7,209.2-3.5l3.3-9.8,6.8,11,62.2-3c-3.5-28-10.7-29.7-37.1-31.3-34.4-2-132.7.5-164.5,6.9-12,2.4-13.2,6.9-7.5,16.8l-16.5.7,5.1-11.1c-30,2.6-61.2-6.8-90.8-7.4-100.6-1.9-208.1,9.2-307.7,10.8-6.8.1-14.1-7.4-22.3-7.4-15.2,0-30.7,13.3-48.9,1.6l-5.3,11.6-6.7-10.9c-81.9,7-174.2-14.4-252,10.6l-5.2-9.7c-61.7-.9-123.1-.6-184.8.5,2.7,11.2,5.7,22.3,9,33.3,9.7-.3,19.1-.6,28.3-.8,21.8-.5,31.8,5.4,32.5-18.1Z"/>
  <path d="M471,1012.5c11.3-.6,24.1-7.9,31.7-7.3,4,.3,1.5,10.8,11.9,11.3,28,1.4,69.8-6.7,98.9-7.2,14.3-.2,78.8,8.3,85.4,4.2,1.1-.7-8.1-15.3,7.3-22.1,7.8,2.5,12.5,18.3,15.7,20,9,4.7,126.5-5.1,150-5.4,61.9-.8,111.9-.4,174.7-5.2,9.2-10.2,18-20.7,26.4-31.5-35.5,1.3-69.3,3.2-72.4,5.6-2.9,2.2,3.6,12-8.9,9.9-2.4-15.9-31.6-13.4-41.8-6.6-5.9,4-.4,18.9-15.6,14.4l-3.7-16.7-241.8,4.6-10,11.9c-18.5-34.3-77.8-3.5-113.1-11.5l.4,12.2-10.8,4.5-4-15.5c-79.4-1.2-159.8-5.9-238,9.3l5.1-11.1-106.7,10.1,7.7-11.3c-26.9,1.1-53.9,2.8-80.9,4.2,8.3,10,16.9,19.6,25.8,29,9.8-.8,17.4-1.3,21-1.3,94.2-1,189.6,6.7,285.8,1.5Z"/>
  <path d="M308.4,821.9c25.4-.4,108.8-1,125.4-11,4.2-2.5,1.1-11,5.9-11.5,5.4,0,2.3,11.5,6,16.4,11.2,14.7,84.5-4.3,104.7-3.9,9.5.2,15.7,11.2,27.3,9.5,1.1-.2,3.5-15.4,16.2-10.6,4.4,1.7,13.2,25.2,21.9-2.4.1,15.3,57.2,10.7,62.5,7,2.6-1.8-1.7-10.4,3.3-9.8,6.9,19.9,43.7,5.1,60.7,5.7,62.5,2.2,122.5,1.4,187,.1,55.5-1.1,156,10.9,202.5-13.8,5.5,3.6,0,10.5,11.1,11.1,5.5.3,12.2.3,19.5.1,4.2-11.2,8-22.6,11.5-34.1-56.4-.6-112.5,10.8-168.7,5.8l-7.6,20.2-13.7,3.2c-2.3-4.1-22.8-20.5-24.3-20.8-25.6-4.2-110.6-4.4-135,1.3-16.7,3.9-9.3,12.1-19.6,16l-3.5-16.3c-11,19-16.3,1.8-27.6,1.4-20-.7-54.5-3.8-71.5-2.9-10.3.5-43.1,21.7-45.7,18.6-10.5-12.4,13.1-8.6,10.2-16.8l-637.4,2.4c3.8,11.5,7.8,22.8,12.3,33.9,89.5,1.3,178.8,2.5,266.5,1.2Z"/>
  <path d="M472.3,1050.6c78,32.3,204.8-.8,293.2,8,3-2.3-3.9-11.6,8.9-9.9,7.1,22,29.9,5.9,45.2,5.7,20.6-.3,43.1,4.5,64.7,1l18.2-34c-23.3,2.4-42.4-7.3-51.4,18.5-8.4-20.5-29.6-18.8-50-14.1-7.8,1.8-17,12.7-18.7,11.5-.6-.4.6-7.8-1.7-9.2-7.2-4.6-47.7,1.4-61.9,1-108.2-3.4-216.3,4.6-324,6-21,.3-44.2-4.7-65.4-6.2l-5.8,11.6-3.1-7-13.8-3.3-10.3,17c-4.6-16.5-9-5.1-12.7-6.8-29.5-13.7-22.6-3.4-48.3-4.4-11-.4-36.2-21.6-43.5,3.8,10.2,9.4,20.6,18.5,31.4,27.2l239-4.5,10-11.9Z"/>
  <path d="M789,1169.6c-31.8-.1-65-2-92.1,2.8-10.8,1.9-6.5,12.1-10.1,12.1-7.3,0-13.3-8.2-22.8-9.8-15.3-2.6-31.4,0-46.4-4l.8,22-5.9-10.7-7.7,11.3.7-16.4,6.5-5.8c-55.7-.2-113.7,14.6-168,2l-2.4,5.8c37.7,10.3,77,17,117.3,19.7.4-2.1.6-3.7,2-3.7,3.3,0,9.4,2.1,16.9,4.7,7.4.3,14.8.4,22.2.4,66,0,129.6-10.7,189-30.4Z"/>
  <path d="M432.8,1173c-2.6.4-5.3.7-8.1,1,3.5,1.1,7.1,2.1,10.6,3.1l-2.6-4.1Z"/>
  <path d="M493.3,1156.4c112.9.2,225.5.8,337.9-2.6,21.7-9,42.7-19.3,62.9-30.8-114.5,1.6-228.6-.3-342.1.9-54.8.6-109.7,10.4-164.3,1.5l-2,22.1-8.8-16-9.7,21.6c2.3,1,4.7,2,7,2.9,1.1-2.2.8-5.1,3.2-8.1,35.7,26.8,78.7,8.4,115.9,8.4Z"/>
  <path d="M362.9,1126.6c-15.1,2.2-32.2,1.2-48.5,1.2,16.9,9.2,34.4,17.6,52.2,25.1l-3.7-26.3Z"/>
  <path d="M186.6,525c9.6-1.5,15.6-3.9,21.2-12.2l5.9,10.8,5-11.3c3.4,13.6,25.6,14.7,27.4-1.2l6,10.9,7.7-11.3c10.6,35.4,68.2-1.4,97.5,17.3l1.9-10.5,9.4,10.7c32.7-1,65.4-3.5,98.2-4.6,56.5-1.9,123.5,6.9,189-.5,12.6-1.4,20.8,11.1,24.7-8.4l6.7,10.9,155.7-1.3-22.6-15.5c16.4-30.3,24.2,11.2,49.6.6l.5,13.8c19.2-4.3,39.3,1.8,57.2,1.5,10.9-.2,25.5-2.2,41.9-2.4,29.1-.4,58.4-1.9,87.7-1.5-11.2-11.5-9.4-17.4-6.9-32.6-21.6-7.7-26.2,11.2-34.9,12.6-19,3.2-39.7-8.1-58.1-8.6l-10.2,22.2,4.5-22.1-492.2-.7-23.1,27.9-1.2-27.4c-66.9,2.6-133.4,2.9-200.7,3.2-33.4.2-95-12.8-114.5,10-30.4-17.4-55-8.9-83.6-7.8-8,.3-17.9-2.9-26.7-4.1-1.8,10.3-3.4,20.6-4.7,31.1,60.3-2.5,126.1,9.1,181.9.4Z"/>
  <path d="M1114.4,447l6,10.6-13.6.7c-3.6-14.7-64-23.2-58-3.2l-5.9-10.7c-10.8,7.6-26.3,11.5-20.8,28.3l163.6-3.7c-2.3-10.4-4.9-20.7-7.8-30.9-15.5-.6-60.3,3.9-63.5,8.8Z"/>
  <path d="M214.2,672.1l5-17.1,12.3,15.3,271.4.2,1.8-22.1,3.9,21.6c40.8,6.1,82.3.1,123.6.2,22.5,0,147.8,6.6,156.1-6.4-4.3-19.1-13.1-10.9-26.2-20l-12.6,10.7-3.7-16.6c-45.2,5.7-89.4,6-134.4.5-3.4,3.7,9.7,27-10.1,22.4,10.3-8.1-13.1-27.1-17.3-21.1l-4.3,27.6-3.7-21.8-7.7,11.3c.5-19.2-41.9-19.1-58.6-19.4-16.6-.3-40.6-4.7-43.4,12.8-5.1.2-.5-9.6-6.7-10.9-9.6-2-52.2,3.3-70.4,3.2-68.5-.2-170.6-8.1-247.5.4-9.3,1-28.8,12.9-38.2,9.5-7.2-2.6-6.6-12.7-12.4-14-19-4.3-59.1,7.7-80.4,7.4-3,0-6,0-9-.1.7,9.3,1.6,18.5,2.7,27.7,30.8-1.6,61.6-4.7,89.2-4.8,35.6,0,82,12.3,120.5,3.5Z"/>
  <path d="M111.4,313.7l6.5,16.6c25.7-3.7,50.9,2.4,76.4,1.8,156.2-3.7,318.5-3.4,473.4,2,11.6.4,24.1-13.3,37.5-12.6l-2.2,11.1,107.7.5,1.9-10.5,8.1-.5c5.3,25.5,47.3-1.9,53.9-1.3,25.9,2.6,61.6,11,90.5,11.1,55.8.3,112.2-4.3,168.4-7.1-5.5-10.6-11.2-20.9-17.3-31.1l-2,15.9c-13.7-.7-5.3-15.8-6.1-16.2-3.4-1.6-61.8,10.2-73.9,2.8l-4.9,17c-19.7-24.5-42.2-10.3-64.5-11.4-19.3-1-56.5-13.8-62.1,5.8-51.7-17.6-129.5-6.1-187.1-6.1-58.1,0-117.2-4.2-175.4-4.7l-19.1,16c-.6-24-55.5-16.3-74.6-13-8.6,1.5-23.1,12.3-24.3,11.6-2.3-1.4,3.3-13.7-25.5-15.3-99.2-5.3-213.9.8-315.4,2.6-6.8,11.7-13.3,23.7-19.3,36,21.9-.7,47.9-6,49.7-21.1Z"/>
  <path d="M117.6,264.1l22,18.1c116.4-5.1,232.1,2.5,349.4-.6l7.7-17.1c.7,19.1,31.9,19,47.7,19.8,66.8,3.5,141.2-6.7,208.7-6.2,13.9,0,42.1,11.1,60.4,5.9l-14.3-15.9,27.4-1.2,3.7,16.7,150.8-1.3-1.4-32.9c-14.7-5.5-8.9,11.8-13.2,11.7-8.5-.3-11.7-7.5-17.8-8.5-31.4-5.2-77.4-7.4-108.8-2.7-8,1.2-14.1,11.5-20.7,10.7-9.9-1.2-21.8-23-28.4,2.2-33.3-29.9-82.6-7.8-120.5-7.9-113.4-.5-227.7-10.6-342-5.5-62.6,2.8-141.9-1.7-214.4-1.3-7.8,10.8-15.3,21.8-22.3,33.1,13.3-2.9,23.6-8,26.1-17.2Z"/>
  <path d="M1149.4,544.5c-1.7-.2-7.8-19.3-25.5-9.9l-2.4,16.3c-5.8-3.3-6.6-14.8-12.8-16-9.2-1.9-122.8,3.8-127.9,7.8l-7,25.6c-13.9.5-18.6-21.8-36.2-28.3-39.6-14.5-133.3,15-179.2-1.2l9.3,27.1-11.6-15.9,1.6,21.1c16.9,4.9,46.8,14.1,51.1-6.9l6.8,11.1,102.6-5.1c6-15.4,15.7-11.6,30.5-11.8l-2.2,11.1c7.3,8.5,54.2,9.7,54.5-7.9,20.1,20.9,53.2,1.3,80,7.5l-16.7-4.8,15.5-22.5,1.7,9.7,20.9,3.1-10.3,14c15.2-6.5,71.6-2.2,107-.8-.4-7-.9-14-1.5-20.9l-13.1-12.5c-10.5-2-23.7,11.2-35.2,10.2Z"/>
  <path d="M1166,692c-3.3.2-2.4-10-6.8-10.9-22.7-4.4-76.8-1.6-103.6-1.3-65.2.9-131.5,9-196.9,8.7l-8.3,11.1c-4.6-27.8-37.2-9.7-52.7-9.8-22.6-.1-47.8-6.1-71.8-1.7-22.1,4.1-18.2,21.3-37.9,1.3l-21.6,12.4-8.7-10.5,10.7-5.9c-26.2-2.8-39,1.7-42.6,29.2,10.4-6.7,23.4,9.5,42,8.7l4.5-10.7c5-1,1.4,7.9,4.1,9.4,15.1,8.7,146-14.8,172.5-.9l4.6-10.8,6.7,10.9c27.2-1.9,58.3,5.1,69.6-25.1l-1.8,22,109.7-4.7-11.9-21.3,27.1-6.7-3.4,19.5,8.1,6.9c18.4-6.1,90.1,7.3,99.7.5,2.4-1.7-1.4-7.7,3.5-9.7,14.5-5.9,1.2,10.5,5.9,10.8,5.6.4,13.3.5,22.2.5,2.2-11.6,4.1-23.4,5.7-35.2-.7.1-1.5.2-2.2.4-13,2.3-19.4,12.1-26.6,12.6Z"/>
  <path d="M543.8,425.1c2.2-.3,39.5-13.4,41.6-10.7,10.1,12.8-12.9,8.3-10.2,16.8l21.7-5,2.5-7c8,20.5,48.2,4.8,66.4,5.3,8.8.3,17.9,7.4,32.8,7.3,39.9-.3,80.3-4.4,120.1-6.2,12.5-4.7,7.9-21.8,7.6-32.5-40.7,1.3-82.7,7.8-123.2,7.8-123.8-.2-252.7-9-379.8-8.1-33.3.2-110-1.4-137.4,2.1-10.1,1.3-16.2,10.7-26.4,10.3-3.5-.2-.7-10.3-11.4-11.3-18.1-1.6-76.9-2.8-111.3-1.5-4.6,12.4-8.7,25-12.5,37.7,90.3-1.6,179.2-3.7,273.4-4,79.7-.2,170.2,8.6,246.1-1.3Z"/>
  <path d="M981,1056.5l8.7-.4c12.6-10.8,24.7-22,36.3-33.8-31-.8-62.1-2.1-45,34.1Z"/>
  <path d="M325.2,620c12.4-.1,58.5,9.6,64.8,4,2.6-2.3-3.9-11.6,8.8-9.6,11.9,23,60,3.1,85.6,7.4l-1.4-32.9c-42.3,2.1-89,12.8-129.3.7l-4.9,10.6c-9.3-22.6-54.8-5-77.4-5.3-89.5-1.3-180.3-4.3-271.3-5.7,0,3.6-.1,7.2-.1,10.7,0,6.9.1,13.8.4,20.6,26.7-.2,53.5-.5,80.2-1.1,79.7-1.6,161.5,1.4,244.6.4Z"/>
  <path d="M1001.8,588.5c-12.7,1.8-2.3,14.3-15.5,12.1l2.3-11.1-69.3-3.1-10,11.9c-9.9-12.6-24-10.8-38.8-9.7l-5,17.1c-15.2,2.1-17.7-15.1-27.8-15.8-74.9-5-155.9-1.4-230.9-1-39.9.2-76.4,12.5-112.9-.4l4.4,9.5c-11.3,1.1-13.6,17.4-4.8,23.5,9.9,5.2,75.2,5.2,86.4,1.7,5.5-1.7,1.3-13.1,5.8-11.3,30.4,21.2,77,9.4,113.2,11.6-8.7-7.2,1.9-17.6,10-22.3l1,21.9c126.8-2.1,252.5-3.7,379-5.2l-22.7-18.2,18.3-8.6,12.9,26.8c34.3-4.7,68.5-5.8,102.7-5.5,0-4.2.1-8.4.1-12.6,0-6.5-.1-13-.3-19.4-1.8-.1-3.6-.2-5.4-.2-57.3,1.2-138.1.4-192.4,8.1Z"/>
  <path d="M1168.2,488.8c-35.7-1.2-71.4-1.9-107.1-1.2.3,8.3,13.2,7.4,15.8,11.4,7.7,11.8-9.8,26,21,19.6,31-6.4,14.7-2.5,44.1-1.2,15.2.6,23.6-5.6,33.1-6.6,2.8-.3.2,9.6,10.7,10.4,2.9.2,5.9.2,9,0-1.4-11-3.2-22-5.2-32.8-4.8.5-10.7.7-21.4.4Z"/>
  <path d="M1128.8,654.8c.6,1,18.3,10.7,19.4,10.8,22.7,1.5,31.6-12,49-7.5.8-8.8,1.5-17.7,2-26.6l-57.7,2.1c-2,.9-13.3,20.2-12.7,21.2Z"/>
  <path d="M1009.9,259.4l-19.1-4.9,1.2,27.3,115.3-2.3c-7-11.1-14.4-22-22.1-32.6-29.9-1.7-60.2-1-75.2,12.5Z"/>
  <path d="M1177.2,762.6h.5c.2-.9.5-1.8.7-2.6l-1.2,2.6Z"/>
  <path d="M1170.4,730.1l6.4,15.9,6.1-3.4c1.2-4.7,2.2-9.5,3.3-14.2-4.7-.4-9.8,0-15.9,1.7Z"/>
  <path d="M1116.6,905.4c1.9-3.2,3.7-6.4,5.5-9.6l-10.3,9.7h4.8Z"/>
  <path d="M850.7,661c4,.3,1.2,10.2,11.8,11.2,69.3,6.4,159.1-14.7,230.8-10.2,17.1-3.5,7.2-11.4,9.4-15.8,1.1-2.2,14.2,1.3,8.5-12.4-35.1,8.8-315.7-4.4-318.5,11.3-7.5,42.1,44,14.9,57.9,16Z"/>
  <path d="M1018.8,396c-.4.2,1.1,6.6-1.6,8.9-27.4,22.9-23.8-6.2-52.6,9.9l4.5-22.1-29.7,1.1-2.7,13.9,22.4,7.4-5.1,11,219-4.3c-3.1-10.1-6.6-20.2-10.2-30.1-50.4,1-126.6-4.6-144.1,4.2Z"/>
  <polygon points="917.9 477.2 1005.6 473.5 1004.5 446 1015.2 440.1 925.2 449.2 917.9 477.2"/>
  <polygon points="930.8 394.3 843.1 398.1 860.2 416.8 850 430.6 932.2 427.1 930.8 394.3"/>
  <path d="M963,1024.4c-25.2,3-50.7-3.1-64.9,21.9l55.3,11.4c-8.6-17.5,1.5-19.6,9.6-33.3Z"/>
</svg>