<?xml version="1.0" encoding="UTF-8"?>
<svg id="Layer_1" xmlns="http://www.w3.org/2000/svg" version="1.1" viewBox="0 0 1200 1200">
  <!-- Generator: Adobe Illustrator 29.0.0, SVG Export Plug-In . SVG Version: 2.1.0 Build 186)  -->
  <path d="M133,239.6c7-.9,12.2-15.9,21.4-10.3,9.4,5.7,10,22.9,36,15l2.6-11c2.9,13.2,19,10.5,32.9,11,63.7,2.4,128.9-4.3,192.6-2.4l5.2-10,6.3,11.1,62.3-.6-11-10.8,30.1-16.7c11.4,15.9-24.9,13.1-10.8,27.5l167.5-1-.2-27.5c19.8-5.3,33,8.6,27.6,27.2l186.6-1.1-27.6-27.2c12.5,5,34.9,7.1,45.3,10.8,8.3,2.9,3.1,15.8,23.4,16.7,20.8,1,40-19.9,43.9-1.9h112c-8.4-11.2-17.3-22-26.4-32.6-21.8,1.6-43.9,4-53.5,4-63.4,0-127.4-4.2-190.9-2.7-1.3,26.1-40.5,30.2-38.8.6l-123.5.8-2.6,11c1.3-17.1-57.2-12.6-62.1-9.2-3,2.1,3.1,12.1-9.3,9.6-5.1-.4-.7-9.6-6.4-11.1-7.8-2-60.9-1.4-71,0-10.9,1.5-6.9,11.9-10.5,11.7-7.4-.3-14-9.6-27.2-11.3-61.9-8.2-139.9,9.3-203.9,1.1l-15.9,11.6c-5.1-.3-.8-9.7-6.4-11.1-4.6-1.1-73.4.3-88.7,1.6-7.6,8.9-14.8,18.1-21.9,27.4,4.5.1,8.9,0,13.1-.4Z"/>
  <path d="M130.7,848l5.9,16.9c27,2.9,57.4-4.2,83-4.3,46.1-.1,87.8-3.9,130.9-6.3,10.9-.6,36,21.8,54.9-2.4l6,11.4,216.7-4.1,7.7-19.6,14.3,3.3,8.7,18.8,56.8-.5-.2-33-370.3,1.8-5.7,17c-17.9,1.1-24.8-15.8-32.7-16.7-23.2-2.7-98.7-2.5-121.4.8-13.3,2-20.8,11.4-32.7,12.1-10.3.6-5-10.6-16-11.9-12.8-1.5-28.3,2-41.6.7,2.6,6.7,11.1,12-2.7,11.1-15.2-1-29.6-11.8-46.2-12.2,4.8,11.5,9.9,22.8,15.4,33.9l57.6-.6,11.7-16Z"/>
  <path d="M759.9,929.5c-4.5,2.1-13.9,16.5-16.4,13.7l2.6-16.5-65.1.3-6.2,11.2-6.3-11.1c-4.1-1-76.6-.4-80.9.8-5.5,1.6-1,10.5-6.1,10.9l-2.7-11c-19.3,4.9-57.6-7.6-63.1,11.4l-2.7-11-241.9,4.1-7.9,13.8-21.8-16.8-142.2.9c8,12.1,16.4,23.9,25.2,35.3,40.9,1.8,95.6-8.2,133.7-2.5l18.8-17c-2.1,19.1,28.1,15.8,41.3,13.5,14.1-2.5,4-15.4,21.6,3.1l102-1v-22c-.1,0,14.2,22.3,14.2,22.3,28.8-11.5,143.8,9,160.4-2.9,3-2.1-3.1-12.4,9.3-9.6,5.3.1.6,9.3,6.3,10.8,9,2.4,79.9,1.2,92.8-.2,13.7-1.5,25.4-11.7,32.5-11.6,3.2,0,.2,10.3,10.8,11.7,38.9,4.9,86.2-7,125.9-.8l6.2-11.5c6.5,22,42.5,6.6,63.3,10.6l-2.8-11c35.2,21,80.3,6.6,120,10.4l6.2-11.2,1.4,2.5c5.1-7.1,10-14.3,14.7-21.5-16.7.4-33.4.7-50.1.8-49.1.3-265.3-11.5-292.7,1.1Z"/>
  <path d="M898,1071.3c-6.8,4.2-7.1,20.5-19.1,19.3l2.6-22-67.8.2-6.2,11.2c-7.3-24-41.9-2.3-63.3-10.6l-2.6,11-6.3-11.1-224.4,1.4v11c0,0,24.7-.1,24.7-.1-2,33.5-43.8-8.5-46.6-9.5-2.7-.9-41.2-2.1-43.8-1.4-2.9,24.8-20.1,25.3-8.4.5-69.1,4-138.8.3-208,0,14.7,11.6,29.9,22.5,45.7,32.7l96.7.4v-21.9c-.1,0,10.7,2.5,10.7,2.5l-5.3,19.3,197.6-1.2c-3.9-9.8-4.7-25.7,10.8-22l3.1,22.1,341.2-1.8h4.2s1.2-3.6,1.2-3.6l4.5-13.3c3.8-.3,6.6,1.4,9.3,3.8,9.2-6.6,18.2-13.4,27.1-20.5-34.3-1.7-67.4-3-77.6,3.3Z"/>
  <path d="M108.3,384.9c24.5,8.4,51-.9,74.6-2.3,10-.6,30.5,12.3,34.7-4.7,1.6-6.5-15.1-19.5,11.2-10.5l-4.1,10.7,12.5,8.2,30.6-21.7-5.3,22,82.4-.5,2.7-22,8.3,22c13.1,6.6,30.9-9.1,35.6-9.2,3.6,0,11.2,9,21.7,9.1,32.1.5,64.4-1.5,96.4-.9-12.2-30.4,19.9-30.2,25.1.3l167-1.5-.2-27.3-30.5,5.1-10.5-10.8c-20.2-3.3-16.3,27.4-35.8,14.4l10.9-13.7-581.3-1.1c-5.2,11.4-10.1,22.9-14.6,34.7,9.7-.5,19-1.2,27.9-2.3,19.2-2.4,41.4-28.6,40.7,2.2Z"/>
  <path d="M1061,975.5c-7.4-4.2-22.6.2-31.9-.9l5.6,16.3-19.2.3-2.8-16.6c-126.7,2.9-254.1,1.1-380.9,2.9-20.6.3-35.1-.3-55.4-.5-38.6-.3-79.1-2.9-112.6,17.3l5.3-16.4-24.4-.3-5.6,16.9c-7.7-7.4-4.7-15.4-16.4-16.8-23.6-2.7-123.5.7-147.6,7.3-1.5.4-21.6,25.3-25.5,7.8-3.2-14.5,12.5-2.7,10.9-13.7-39.8-3.3-82.3,1.9-122.6,3.7,5.6,6.7,11.3,13.3,17.1,19.8l262.3,1.9,5.2-10,10.6,11.5c80-6.9,166.2,4.5,244.7,1.5,15.4-.6,24.5-19.3,43.8,1.7v-10.9c9.9-9.7,11.3,9.4,13.7,10.1,5.6,1.7,50.7-5.3,60.5-5.1,49.1,1.2,98.6,6.3,148.3,4.6l-2.8-10.9c16.6-10.7,36.3,31.5,46.7-.4l6.3,11.1,46-.3c8.2-8.8,16.1-17.9,23.7-27.2-1.4-2.4-2.5-4.4-3.2-4.7Z"/>
  <path d="M1068.6,974.8c.1-.2.3-.3.4-.5h-1.4s1,.5,1,.5Z"/>
  <path d="M125.8,820.9c2.6.4,49.9-1.5,52.7-2,9.5-1.6,19.6-4.5,25.9-12.4-5.2-5.8-6.2-15.6-14.6-18.3-7.9-2.6-100.6-1.8-105.1.9-3.6,2.2-3.7,15.5-11.9,15.4l-3.5-16.7c-13.6-2.3-27.1-3.5-40.7-4.1,3.6,11.4,7.6,22.6,11.9,33.6,20.5-.4,42.2-1.4,57-1.9,36.9-1.2,20.1,4.1,28.2,5.5Z"/>
  <path d="M846.2,1145.7l-.2-27.5-8.1,22-32.9-5.3,21.9-16.5c-25.3,5.4-74.3-12.1-85,11.5l-2.7-11-128.7.3c-4.6,13.2-3.6,18.2-19.4,22.4l5.3-21.9c-43.7,2.5-91.3-1.9-134.4.9-11.8.8-25.3.7-33.1,11.1-23.8-35.7-14.6,11.3-21.9,11.1-16.1-.3-10.5-20.8-17.1-22.4l-87,1c19.8,11.3,40.2,21.5,61.3,30.5,61.5-2.4,122.9-5.9,180.1-4.9,34,.6,67.8,2.7,101.6,5.3l2.6-21.8c13.1,26,42,34.3,55,5.1l22.1,16.8,21.7-12.1,16.5,10h75.7c22.1-9.6,43.6-20.6,64.3-32.7l-46.7.5-10.8,27.6Z"/>
  <path d="M396.2,1164.5c45.1,16.3,92.7,27.3,142.1,32.4l130.3-.8,46-.3,3.7-7.5,7.2-14.6-1.6,13.5c27.2-5.7,53.8-13.3,79.6-22.6-37.3-.9-74.4-1.6-111-2l-296.3,1.9Z"/>
  <path d="M888.6,415.7l5.4-16.4c-61,2.1-122.5.4-183.5,1.1-41.3.5-106.1-4-143.4.5-24.9,3-21.2,29.3-9.6,32.8l357.8-3c1.8-1.2.6-5.5,1.1-8l-8.5,3.9c-4.6-10.1-6.9-12.9-19.2-10.9Z"/>
  <path d="M916.2,422.7l2.9-1.3-.3-.4c-1.6-.3-2.3.5-2.6,1.7Z"/>
  <path d="M1135.6,397.8l-181.2,1.1-2.6,11c-5-18.2-19.5-9.8-35.8-10.8l22,13.5-18.8,8.7,10.3,11.1c80.6-5.2,163.1-4.9,245.8-3.5-2.3-7.9-4.9-15.7-7.5-23.5-6.7,4.8-11.5,11.4-12.9,19.8-19.2-2.5-21.9-8.7-19.3-27.4Z"/>
  <path d="M153.2,466.7c3.6-8,24.4-11.2,27.4-8.4,10.3,9.8-9.6,16-10.8,21.9l142.8,4.7-5.6-10.9c14.8-6.4,16.6,8.9,19.2,9.5,6,1.5,71.6,2,82.6,1.3,10.9-.7,5.4-16.9,26.5-11.6,4.2,1.1,1.5,11,11.6,11.5,12.2.6,24.4-3.5,33.2-11.8,2.4,14.5,47.9,16.6,49.3-.2,15.9,23.4,42.6.7,60.8.2,2.5,0,1.7,9.7,6,10.6,28.2,5.9,201.6,0,240.6-1.8,12.8-.6,58-2.6,66.1-5,9.8-3,8.7-12,11.1-12,7.2,0,17,9.2,27.5,10.8,24.3,3.8,40.2.9,57.3-16.5l11,16.4c-.1-17.5,19.7-22.2,33.1-13.8,5.6,3.5,2.7,18.8,19.2,13.6l5.4-11.2c5-.8,1.1,8,3.8,9.6,10,6.2,89.7-5.8,108.9.7l2.7-11,1.9.8c-1.2-5.2-2.5-10.3-3.8-15.4-69.4,4.1-145.8-8.6-212.7-.8-9.6,1.1-15.8,3.3-21.6,11.4-4.1-17.6-40.2-17.2-43.9.3l-2.7-11-249.1,1.8-6.2,10.8h-13.7c0,0,5.5-11,5.5-11-75.9,2.9-152.1-.4-227.9.9-26.4.5-71.6-2.9-93.2,1.1-7.9,1.4-17.5,12.2-19.1,10.9-.6-.5.9-7.8-1.3-9.3-7.6-5.2-26.8.2-37.3-1.4l-2.6,22.1c-14.8-1.3-11.1-18.9-27.5-21.9-23.1-4.2-54.4,3.9-77,3.1-21.4-.7-40.3-11.8-66.1-8-13,1.9-19.9,11.4-27,11.7-3.3.1-2-10-6.5-11.1-4.1-1-17.4-1-31.2-.2-2.6,10-5,20.1-7.1,30.3l151.8,2.1-11-13.6Z"/>
  <path d="M63.8,330.4c-.4.8-.8,1.6-1.2,2.3.6,0,1.2,0,1.9,0l-.7-2.4Z"/>
  <path d="M92.3,578c2.5-1.7-1.1-10.2,3.8-9.5,4.5,5.9,9.3,9.5,16.9,10.6,80.7,12,199.8-12.8,284.4-1.1l6.3-11.4,2.7,11c35-5.2,84.3,11.5,112.6-11.6,4.5-2,.6,9.5,6.3,11,20.3,5.2,90.9,2.1,109.1-11.7l5.4,11.1h11.1c0,0,5.4-11.3,5.4-11.3l2.7,11,159.3-1c-7.3-15.6-30.2-14-44-10.6v-22.1c-.1,0-99,.7-99,.7l2.9,21.9-12.1-22.1c-8.4-2-104.5.2-109.3,2.8-7.9,4.2-6,14.8-10.5,14.7l-2.9-16.5c-24.8,9-68.9-13.9-79.6,11.5l-8-.2c-.6-.5,1.5-9.4-3.8-10.8-25.1-6.6-77.5,5.5-106.2.8l11.1,21.8-13.7,5.5-21.9-27.6-247,1.5-5.7,16.9-18.8-19.3c-10.4-2.4-24.1,10.4-35.6,8.9-1.1-.1-4-9.2-11.4-12.2-1,10.7-1.8,21.5-2.3,32.3,38.5,2.1,86.7,8.3,91.7,5Z"/>
  <path d="M162.8,718.7c5.5-1,10.1-8,16.4-8.3,3.6-.2-.1,10.2,10.7,11.6,73.4,9.5,166.7-10.5,242.4-1.4l10.4-11.5c31,15.4,90,13.5,126.5,10.2,32.1-2.9-1.8-12.2-2.7-30.6l-190-.6-2.5,15.9-8.3-16.4-118.1.8-2.6,11-10.7-11.5c-55,7.6-129.4-6.2-181.9,1.2-13,1.8-19.8,11.4-27,11.7-3.3.1-2-10.1-6.4-11.2-3.6-.8-7.9-1.5-12.8-2.1,1.7,11.7,3.7,23.2,6.1,34.7,1.7-.2,3-.6,3.8-1.2,2.4-1.6-1.1-7.7,3.9-9.5,14.7-5.3.8,10.5,5.5,11,28.1,3,109.1,1.4,137.1-3.9Z"/>
  <path d="M631.5,1042.7c4.9,18.7,21.6,9.2,38.1,10.9l3.5-21.5c12.1-6.8,26.5-4,32.5,10.1l-27.4,11.2,126.3-.7-5.3-24.6-55-7.3-3,15.9c-18.5,4.1-16-15.3-22.7-16.2-16.4-2.2-46.8,7.4-64.7.2l-5.9,11.1c-3.4.2.3-17.5-21.4-11l-6,11.1c-46.7-22.5-118.7-5.7-171.6-5.7-70.4,0-142.2-4.1-213.2-3.2-19.7.3-39.3,1.4-59,2.4,10.3,10.3,21.1,20.2,32.1,29.7l273.8-5.4c44.3,4.1,110.2,14.9,148.8-6.9Z"/>
  <path d="M159.7,628.5l2.6-22.1c20.5,4.7,10.5,10.1,2.8,21.9l60.4-.4c-8.3-17,9.6-22.2,16.2-32.9-45.3-1.3-95.6,4.4-140.1,3.4-14.2-.3-28.1-8-43.8-8.2-17.5-.3-37.2-.8-57.7-1.3,0,3.6-.1,7.3-.1,10.9,0,7.4.1,14.7.4,22,53.2-1.5,105.9,3.6,159.3,6.6Z"/>
  <path d="M1200,592.2c-131.8.1-264.6-8.5-395.1-.5-35.5,2.2-23.8,4.1-60.5,0-22.1-2.5-45.5,8.1-68.9.9l5.8,13.2c-10.6,5.9-13.4,5.2-11.1,19.7l33-.2,2.6-11c5.5,4-.5,10.2,10.6,11.5,42,4.6,168.8,3.9,209.4-1.3,9.6-1.2,7.5-8.5,12.2-10.9,29-14.3,22.6,4.6,29.7,9,6.5,4,52.2,6.1,51-10.1,5-.8,1.1,7.9,3.8,9.6,11.2,7,75.6-2.8,94.3,1l6.2-11.2,5.5,11.2h11.1c0,0,5.3-11.3,5.3-11.3h11c3.5,5.9,1.8,10.3,10.7,11.4,10.6,1.2,21.6,1.2,32.8.6.3-7.8.5-15.7.5-23.6s0-5.2,0-7.8Z"/>
  <path d="M1035.9,782c-7.6,0-8.5,6.7-13.4,11.5,1,6.3-3.2,21,3.3,22l95.7-.7-2.8-10.9h19.2s-5.5,10.9-5.5,10.9l28-.2c4.2-11,8.1-22.3,11.7-33.6-57.7,2.5-115.6,5.2-136.3,1.1Z"/>
  <path d="M1019.2,782.4l-589.7,6.3c14.8,4,11.8,10.5,11.2,24.6,55.8-3.1,111.6-.6,167.3-.7,50,0,106.2,5.5,154.1-6.7,1,11.8,25.2,10.1,38.4,10.6,18.1.7,37.9-5.9,57.5-.2v-27.4c19.4-5.7,8.7,21,15.9,24.7l128.5,1.2c7.5-6.7,12.9-14.4,20.2-21.5-.6-3.9,2.7-11.7-3.3-11.1Z"/>
  <path d="M1017.3,641.4c-2.7,1.9,2.4,14.1-12.1,9.5l2.6-11-43.9,11.3c-7.1-23.7-34.5-5.6-49.9-5.8-16.9-.2-39.3-10.9-55.7-2.8-2.3,1.1.5,13.3-15,9.4-2.2-.5-2.1-10-6.5-11-17.1-3.8-43.6,2.8-62.2.3l2.5,22.3,211.4,3.3.2-15.9,14,16.7,109.7-.6c10,2.6,11.1-16.3,16.1-16.9,6.7-.9,13.5,15.7,21.8,16.6,14.2,1.6,29.9.8,45.8,0,.9-8.1,1.6-16.3,2.2-24.5-8.4,0-16.8,0-24.9,0-23.5,0-146.7-7.7-156.2-1Z"/>
  <path d="M1030.7,316.1c-4,4.4-17.9-16.5-24.6-16.9-23.4-1.4-58.6,6.3-82.2,6.8-69.6,1.6-139.1,1.1-208.6.6l-5.7,16.9c-7.2-18.4-26.5-26.5-33-5.3-5,.8-1.1-7.9-3.8-9.6-10.9-6.8-70.8,2.6-88.8-1l-6.2,11.2-10.7-11.5-272.1,2.2c4,4.8,16.8,19.3,20,21.2,12.9,7.7,137.7,8.2,158.2,4.8,9.1-1.5,18.1-14.1,24.1-9.8,1.1.8.4,7.2,2.2,8.2,11.9,7.1,246.6,3,276.9-1.3,9.1-1.3,15.4-9.6,26.6-10.3,10.5-.7,4.9,11.5,16.3,12,41.7,1.8,88.3-2.9,125-3,54,0,108.9,1.4,162.7-.3l3.3-10c4.4,14.7,10,11.7,24.8,10.8l-4.3-11.9-1.5-4.2-.6.3-10,5v-16.5c.2-.4,2.1.5,4.6,1.6-1.3-2.4-2.7-4.7-4-7.1l-99.6.6c-2.8,7.8,22,4.4,11,16.3Z"/>
  <path d="M892.3,1052.1l101.6.4c6.4-5.6,12.8-11.4,19-17.3v-11.3s-131.7,3.5-131.7,3.5c14.4,4.2,11.9,10.6,11.1,24.6Z"/>
  <path d="M41.3,520.1c2.8-.2-.2,9.6,10.3,10.8,14.4,1.7,32.1-2.3,47.1-.8l-5.6-10.9h16.5c0,0-5.5,10.8-5.5,10.8l252.6-1.5,2.6-11c5.5-.5.5,9,5.4,9.9,41.6,7.6,101.5-6.1,145.7.1l-22-19,10.9,2.6c10.1,1.9,1.8-8.6,8.2-11,15.4-5.9-2.9,24.1,12,27.6l40.3-.5-21.9-5.3,8.1-16.4c6.6,1.7,20.4,19.9,22.1,20.4,5.1,1.4,65.6,2.4,68.6.8l2.7-16.3c8.8,15.1,10.8,19.5,30.3,16.1l-4.4-19.5,15.2-13.4c-24,1.6-50.1-2.1-73.9.6-38.6,4.3-33.7,1.8-71.5,0-35.5-1.6-71.7,2.1-107.2.9l11,10.8-16.4,5.7-3.1-16.8-92.9.5-5.6,16.9-12.3-16.7c-76.6,3.9-152.7,1.6-229.6,1.5-20.3,0-19.2,2.5-43.9.7-8.7-.6-17.5-1.2-26.2-1.7-1.7,9.6-3.1,19.3-4.3,29.1,1.1,0,2.2.2,3.4.3,15.1,1.2,23.8-4.7,33.3-5.4Z"/>
  <path d="M69.3,673.4c31.3-9.4,206.4,6.5,221.4-3.2,2.7-1.7-1.4-10.5,3.7-9.7,5.1-.2,0,9.5,6.3,11.1,27.8,7,85.2-9.3,117.2-.9l-8.2-16.5c17.6-4.5,23.3,15.8,32.7,16.8,36.1,3.7,79-4.5,116-.6l10.4-11.5,16.6,11.2,16-16.5,23.6,15.9,138.8-.9c-7.7-13.4-2-16.2,5.3-27.4-20.1.2-42-3.9-57.7,11.3-14.8-31.2-10.5,0-12.9,2.9-8.1,10.2-33.7,13.4-28.1,0l10.9-13.8-678.1-.4c-.3.1-.9.7-1.6,1.6.7,9.5,1.6,18.9,2.7,28.3,2.4,1.4,4.2,2.3,4.5,2.3,27.1,2.7,35.2-16.6,60.6-.3Z"/>
  <path d="M1133.1,542.4c-4.1,2-24.4,37.7-13.2-1.8l-323.9,1.9c-1,13.9-1,9.3,8.4,10.8,25.5,4,12-3.2,28.1,21.3,16.2-3.9,48.3,3.2,61.1-1.8.7-.3,8.8-4.4,11-5.5,2.4-1.2,1.3-14.3,17.7-9.1l-2.6,16.5,279.7-1.2c-.5-10.9-1.2-21.8-2.3-32.5-26-2.7-57.3-1.8-64,1.5Z"/>
  <path d="M1129.4,749l8.1-16.5-150.4.5-19.6,33.4,21.1-.9,8.9-21.3c5.4,0,1.4,13.6,8,19.5,6.8,6,117.5-3.1,137.7,1.6l8.1-11-2.7,11c9.5-.1,18.9-.2,28.4-.3,3.1-10.9,5.9-21.9,8.4-33h-34.4s-21.6,17.1-21.6,17.1Z"/>
  <path d="M102.6,280.6l8.2-13.9,9,21.7c10.7-5.2,26.1,2.2,33.9.4,7.1-1.6,1-16.8,25.7-16.9-.6-2.9,1.7-7.9-.7-10.2-9.8-2.2-19.6-4.7-29.7-6.2-16.5-2.3,8.1,18.5-16.4,11.2-5.2-1.6,2.1-7.2,2.7-11h-26.8c-7.5,10.5-14.6,21.4-21.4,32.5l26.4.4-11.1-8Z"/>
  <path d="M180.3,287.3c9.1,5,19.1,5.8,29.2,6.5,138,9.1,286.6-10.7,425.8-2.8l-5.6-10.9,19.2-.2-2.7,11c24.1,3.6,50.5-3.8,73.2-3.8,23.9,0,59.5,5.6,83.3,3.3,18.2-1.7,27.8-25,46.6-14.4l-10.9,13.8c27.6-4.8,76.5,6,100.8-.5,5.8-1.5,1.6-13.1,6.2-11.1,11.1,14.3,22.1,14.3,33-.2,9.6,22.4,58.8,2.7,82.6,9.9l5.1-15.9,2.9,16.6,39.3-7.3c-5.8-9.2-11.8-18.2-18.1-27.1l-43.5,1.6,5.7,21.8c-8.1-1.4-17.9,3.7-24.9,3.1-27.5-2.4-12.1-23.9-16.5-24.8-17-3.3-59.9-3.4-71.4,11.4l-19.2-10.8,11,10.8-19.1,5.7-5.8-16.7c-52.9,3.3-106.3-1.1-159.5,1.1-14.9.6-39.7.4-49,11.3-4-17.1-43-12.4-60.6-10.8-26.5,2.4-30.2,5.5-49,22.5l-3-22c-19.3,10.5-50.2-14.1-57.5,11.4-6.4-22.8-36.7-7.2-54.9-6.3-8.4.4-18.1-5.1-27.7-4.9-10.8.2-5.4,12.8-16,12.3-12.1-.6-18.5-9.7-27.9-11.1-28-4.4-71.4-4.3-92.8,14.2-18.9.8-19.8-13.1-23.4-13.8-3.9-.8-76.2-.8-80.1.1-10.3,2.4,6.7,11.4-25.8,11.5.9,4.4-2.1,11.5.9,15.5Z"/>
  <path d="M1131,879.6c.8-1.5,1.5-3,2.3-4.5h-5.9s3.6,4.5,3.6,4.5Z"/>
  <path d="M1116.6,905.4c2.9-4.9,5.8-9.9,8.5-14.9l-8.6,1.1v13.8Z"/>
  <path d="M45,749.8l-10.8,22,60.4-.3-5.6-10.9,13.8-.2,5.5,11.2h11.1s5.4-11.3,5.4-11.3l8,.4,1.4,9.1,303.5-.2-5.4-11.1c19.1,3.6,45.7,25.8,54.8-.2l21.8,11.1c4.2-16.7,13.9-8.8,19.4-11.4.5-3.4-.2-7.4-.1-11l-16.4,5.6-.2-16.5c-116.1,4.8-232.7-1.9-349.5,5.6-23,1.5-22.9-7.5-45.6,13.3l-2.9-16.7c-15.4-.9-29.2-1.6-30.2,16.9-20.4-8.6-30.1-21.8-54.9-16.1l5.9,16.2,10.6-5.4Z"/>
  <path d="M525.6,769l159.7-.5,10.4-11.5c11.1,11.9,51.7,18.5,55-.4l2.7,11c28.4-5.7,160,7.2,174.7-2.4,2.7-1.7-1.4-10.4,3.7-9.7,2.6,16.1,17.1,6.2,30.3,8.1l-22.1-13.6,2.7-16.5-409,2.5c5,12,7.9,15.8-5.4,21.9-.5,3.3-9.6,10.2-2.7,11Z"/>
  <path d="M1071.4,683.4l-474.8,2.8,17.2,31.4h216.2c3.2-21-9.7-3.9-15.6-6.4-.7-.3-2.8-12.2-11.8-9.8l2.6-10.9c29.9-9.3,33.9,25.8,49.3,27.5l71.4-.4,3-16.9c13.2,24.8,63.7,25.9,63.1-5.9l8.3,22,15.5-1.6,3.6-9.6,6.3,11.1,56.9-3.2c-17-4.1-10.8-14.9-11.2-30.1Z"/>
  <path d="M155.5,404.4c-33.2,20.7-24,4.1-37-2.2-4.6-2.2-40.8-4.8-42.6-3.6l5.7,32.8,131.8,4.7-5.6-10.9h16.5c0,0-5.5,10.8-5.5,10.8,29.9,5.5,63-6,90.3-6.2,15.3-.1,75,12.4,85.4,5.1l-5.6-10.9,19.2-.2-2.7,11,115.3-.7-4.4-19.5,15.2-13.4-376.1,3Z"/>
  <path d="M1110.6,359.6l-10.6-11.4-327.1,2.4.2,33,367.8-2.3-16.5-10.8,27.5-.2-5.5,10.9h12.5c-4.4-11.1-9-22.1-14-32.9l-31.6.2-2.6,11Z"/>
  <path d="M781.5,877.2l-134.3.5c-63.9-3.3-128.3,7.3-186.8,5.6-129.9-3.8-260-.6-390.1-1.2,5.8,10.8,11.9,21.4,18.3,31.8h6.8c-7.9-11.7-5.3-14.1,8.1-10.9,1.2.3-4.5,29.9,11-.2,33.1,22.9,72.8.7,109.8,10.6l10.9-16.7,3.1,16.4,139.4-.4,16.7-27.9c18.1-2.3,10.5,26.6,17,27.7,19.2-2.8,42,2.2,60.4-.2,10.4-1.3,7.1-10.9,10.2-10.8,15.8.8,28.8,4.3,47-1l-5.5,10.9,150.8-.5,5.7-16.9,5.9,16.9,84.8-.9.5-21.5c2.6-2.1,8.5.4,10.4-.5.5-3.4-.3-7.4,0-10.9Z"/>
  <path d="M1069.9,875.4c-84.4.6-168.6,2.4-252.6,5.8-7.4.3-15.4-5.1-21.4-4.4-1,.1-4.3,6.3-14.4,11.4-.9,5.7-8.2,13.3-5.3,21.9l241.5-1.5-27.4-13.5c19.8-23.5,31.8,7.4,53.2,11.3,13.5,2.5,31-2.6,42.8-9.2l-2.7,11h22c7.3-6.3-31.6-27.9-35.7-32.9Z"/>
  <path d="M1033.9,856.5l107.5,2.5c4.4-9.2,8.6-18.6,12.6-28.1-29.8-.9-59.5-2.5-89.2-5.2-9.2,18.7-9.4,23.9-30.9,30.8Z"/>
  <path d="M1081.2,491.4l-131.7.8,16.5,16.3c-10.9,1.9-24.4-15.9-25.9-16.2-36-7.5-127.1,4.3-167.5,5.1-12.3.2-72.1-6.4-75.6-3.7-8.4,12.7,17.2,10.8,11,16.3-3.9,3.4-20.2,1.5-16.3,16.6l65.8-.4-5.6-21.9c14.7,5.8,26,2.3,22.1,21.8l10.9-.2c4.5-29.8,23.9-.6,25.8-.2,15.8,3.5,39.5-2.5,56.7-.3l.4-21.2,21.3-6.3-16.3,27.5,104.3-.6,5.3-16.4,3.2,16.8,209.6-1.6c-1.4-11-3.1-21.9-5.1-32.7l-88.9.8c-8.1,15.1-28.3,23.5-20.1-.3Z"/>
  <path d="M585,624.8c15.2,4.2,61.1-3.5,79.7.6l5.3-32.9c-22,1.2-43.4-8.2-52.1,16.7l-2.8-16.4-49.4.3c4.2,8.3,9.5,11.2,11.1,21.8,6,3.1,5.4,9,8.1,9.8Z"/>
  <path d="M560.2,593.3l-129.4.2-10.5,11.6c-5,.8-1.1-7.9-3.8-9.6-10.1-6.3-118.6,6.1-138.9-.7l2.9,19.4-38.5,11.1,334.9.8c-.2-3.6.5-7.5,0-11-7.7-3.9-19.1-7.4-27.5-10.9l10.8-10.9Z"/>
  <path d="M858.1,827.3l-2.6,22-2.9-21.9-125.5,7-.6,26.7,296.5-4.5c6.3-7.5,16-19.7,5.3-27.7-10,2.1-26.5-3.4-34.3-1.2-5.9,1.7-12.5,11.6-15,9.8-.8-.5,1.2-8.7-2.7-10-8.5-2.8-45,5.7-57.8-.6l-11,16.4,2.5-16.5-52.1.3Z"/>
  <path d="M70.4,398.6c-8.1,1.9-21.1,2.4-36.5,2.1-3.5,9.9-6.7,20-9.7,30.1l40.9.7,5.3-32.9Z"/>
  <path d="M285.9,309.3l-67.8.7,5.6,16.3h-16.4c0,.1,5.3-21.8,5.3-21.8-38.3,2.6-80.2-2.8-118,.7-3.9.4-8,3.3-13,.9v31.7c-.1,0,224.6-1,224.6-1l-20.2-27.5Z"/>
  <path d="M235.4,813.9c25.4-.3,52.6,3.4,77.6-1.8,1.3-.3,1.4-5.9,2.8-6.6,5.7-3,12.1,3.6,17.7-13.5l8.3,2.6c4.2,24,48.6,27.8,49.4,5.3l-15.2-13.4-160.7.8,20,26.6Z"/>
  <path d="M1142.8,705l-22-5.4,5.4-16.4-43.9.3,22.1,19-10.9,13.7c18.4-3.8,80.8,5.4,92.1-2.1,2.6-1.7-.9-11.2,3.8-9.4l1.3.6c.4-2.2.8-4.4,1.1-6.6-4.1-5.1-2.1-7.3,1.4-8.7.4-2.4.7-4.8,1-7.2l-51.6.2v22Z"/>
  <path d="M875.8,1043.9c.6-29.5-17-12.5-30-13.5-9.9-.8-21.4-15.9-36-10.6l16.5,19.1-16.3,13.8c14.4-6.3,60.9,7.3,65.8-8.6Z"/>
  <path d="M767.6,383.5v-16.4c-30.1,9.9-24.8-17.2-49.6-16.1l11.1,16.3-10.6.4c-.8,24.5,31.9,14.6,49.2,15.9Z"/>
</svg>