<?xml version="1.0" encoding="UTF-8"?>
<svg id="Layer_1" xmlns="http://www.w3.org/2000/svg" version="1.1" viewBox="0 0 1200 1200">
  <!-- Generator: Adobe Illustrator 29.0.0, SVG Export Plug-In . SVG Version: 2.1.0 Build 186)  -->
  <path d="M159.9,1011c.8-.2,1.7-.3,2.6-.4-2.3-2.4-4.6-4.9-6.8-7.4l4.3,7.8Z"/>
  <path d="M369.3,1155.1h2.5c-.8-.3-1.5-.6-2.3-.9l-.2.9Z"/>
  <path d="M943.3,1105.2l2.8-15c-7,4.9-14,9.7-21.2,14.3,6.2,0,12.3,0,18.4.7Z"/>
  <path d="M1063.2,211.6l-3.2,3.1c.5.6,1,1.2,1.5,1.8l1.7-5Z"/>
  <path d="M202.9,962.2l9.1-30.4c-29.1-13.6-36.2,5.2-57.8,13.2l-5.5-16.7-41.1-.2-2.7,10.8c4.8,7,9.8,13.9,14.9,20.7,36.5-1.1,69.7-1.4,83.1,2.5Z"/>
  <path d="M291.1,1105.3l207.7,1.5-8.1-8.3,11.1-24.6-73.9,10.6-5.3-10.8c-61,7.4-123.3,5.7-185.6,4,9.1,6.9,18.3,13.5,27.8,19.9,7.1-1.1,13.9-2.3,20.2-3.6l6,11.1Z"/>
  <path d="M970.3,974.6c-6.3,3.7-7.3,30.4-25.8-1.5h-10.9c-3.1,16.7-46.5,4.9-65.6,4.8-92.7-.4-185.2,1.3-277.6-2l2.7,11-24.6-11.1,5.2,27.4c-17.4-5.4-18.7-9.3-16.2-27.6-90.4,9.2-181.1,5.5-271.7,3.3l2.5,16.5-14.4-16.3-139.9-1.2c6.3,7.7,12.7,15.3,19.4,22.7.1-.3.3-.6.4-.9l1.9,3.5c2.3,2.5,4.5,5,6.8,7.4,20.2-2.1,50.8,10.2,57.1-10.3,16.4,24.1,26.1.6,38.4,0,3.7-.1-.4,10.2,10.5,11.7,29.3,4.2,67.8-3.3,98.5.4l6.4-11.1,6.2,11.2c15,1.3,22.1,3.9,26.8-10.9l2.6,11c20.3.1,40.5-1.3,60.5-1.7,24.7-.6,45.7,7.4,68.6-5.4l277.3,4.9,2.9-16.3c8.3,21.4,20.6,13.8,41,16.6l-10.9-8.2,8.4-13.8,8.9,21.3c5.6,3.6,69.6,6.2,65.3-15.2,5.6-3.2,8.4,13.8,13.6,15.8,2.8,1.1,49.1-6.3,60.8-6.4,13.2,0,25.9,0,38.2-.2,8.5-9.3,16.7-18.9,24.6-28.7-33.8-.4-90-5.4-97.6-1Z"/>
  <path d="M754.9,1127.7c-15.8,1.6-32.9-8.8-47.8,8.2-5.8-21.9-24.9-7.1-39.2-7.9-51.8-2.8-103.5-6.2-155.5-4.6-3,2.9,12.8,27.9-8.4,27.4l2.9-27.4c-6.5-4.6-64.7,3.6-79.5,3.5-37.8-.5-80.3-2.8-124.2-5.2,17.9,10.2,36.3,19.5,55.2,27.8,4.2-1.9,8.4-3.9,13.7-5.3l-2.6,10c.8.3,1.5.6,2.3,1l352,3.4,10.7-11.5,2.6,11c10.2,1.9,15.1-7.1,24.7-8.1,10-1.1,49.3,4.6,54.4,3.2,5-1.4,2.9-10.2,3.6-10.8,1.3-1,8.5,6.5,15.8,9.7,22.2-9.5,43.6-20.2,64.3-32.2-48.7-.3-96.8,3.1-145,7.9Z"/>
  <path d="M417.7,1171.8c25.5,8.1,51.7,14.6,78.5,19.2l-9.8-18.8-68.7-.5Z"/>
  <path d="M731.6,1179.9l11-10.8-244.2-2-.2,24.3c14.1,2.4,28.4,4.3,42.9,5.7,7.9-1.9,15.6-4.4,23.1-7.6,1.5,4.8,3.8,7.8,6.8,9.7,8.2.4,16.5.6,24.9.7,8.2-1.9,16.5-4.4,23.1-4.5,5.8-.1,11.4,1.8,16.1,3.5,4.7-.3,9.3-.6,13.9-1,.9-2.5,1.2-6.6.6-13,8-.3,15.4,5.6,22.3,10.7,9.8-1.2,19.4-2.6,29-4.2.2-.3.3-.6.5-.9l.2.8c26.5-4.5,52.3-10.7,77.5-18.6.5-1.1,1.2-2.2,2-3.4-25.8-8.3-26.1,15.8-49.5,10.5Z"/>
  <path d="M342.4,434c164.4-10.7,343.4,3.1,513.2-2.3,17.1-.5,34.5-3.7,51.9-2.3l3.2-16.1,2.8,16.3c18.3-4.8,41.2,2.6,57.4,1.2,8.7-.7,14.3-10.3,14.3-19.3,0-6.1-13.8.7-11.3-8.6l14-.3c31.8,26.5,87.2,36.8,130,23.4,1.7-.5,21.2-18.6,23.4-21.8l11.5,21.4c6.8.6,14.9,2.1,22,1.6-3.2-10.8-6.8-21.4-10.6-31.9-9.4,0-18.9.2-28.3.4-15.6.3-48.9-13-46.8,8.1l-7.9-10.1c-44,10.9-95.2-2-137.9,3-12.9,1.5-5.3,11.8-10.7,11.4-5.4.4-.4-8.7-5.2-10.2-4.5-1.4-89-2.7-94-2.1-12.9,1.6-5.3,11.9-10.7,11.4.1-10.7-18-12.9-26.4-11.2-4.7.9-3.5,8.8-6.6,10-8.1,2.9-43.9-21.6-60.6.5l-4.8-10.6c-6.8,3.9-14.3,5.2-22.1,5.2-64-.3-135.9,1.6-193-1.8-15.2-.9-64.3-2.5-76.2-.6-20.2,3.2-11.1,13.6-11.4,27.3-16.8,2.3-15-23.1-18.6-25.2-38.4.1-79.2,3.9-118.5,4.5-18,.2-78.9-8.4-89.6-1.7-2.7,1.7,1.2,10.5-3.8,9.6l-6.2-11.4c-17.3,7.9-37.9-10.3-43.2,11l-8-.3c-2.9-24.4-56.5-5-76.9-5.8-2.5,11,22.9-.5,16.3,13.7-5.5,11.8-27.5,7.9-38.4,8l16.7-27.2h-17.6c-3.8,10.7-7.3,21.7-10.5,32.8,107.7,3.6,215.2,6.9,319.1.2Z"/>
  <path d="M1074.6,502.5c-16.4,2.6.8-10.3-5.4-11.1-8.6-1.1-57.2-1.9-65.9-1-21,2.2-22.7,5-49.2,5.4-49.3.8-99.1,1.2-148-.6l-6.2,10.6,8.2,16.6c-17-8.2-26.8-25.4-46.1-28.1-27.3-3.9-157.4-.5-185.6,5.3-12.5,2.6-20.6,12.4-29.1,20.7l2.9-21.9c-53.8,1.4-108.1-1.5-162.2-1.6-37.8,0-75.9,1.4-109.9-.2-37-1.7-75-.1-112.2-1.3,4.6,9.1,7.1,18.4-5.6,21.9v-21.9c-35.2,1.5-71.7-3-106.9-.9-22.1,1.4-27.5,5.5-46.4,16.7l5.9,14.9,215.2,3,14.5-22.2-2.8,21.9,178.5,1.4-2.7-11,21.7,11.4,22.1-16.5-2.8,16.4c42.9-.8,86.2,2.3,129.2,1.3,13.4-.3,22.1-9.9,32.6-10.2,26.3-.8,94.2,22.7,102.1-10.9l30.5,16.6,174.9,1.9,8.6-16.7c-2.7,20,1.4,17.5,19.2,16.8,24.2-1,51.4-6.4,76.8-7.5,15.7-.7,33.4,12.5,38.5-8.3l6.2,11.5,119.8-2.2c-1.3-10.2-2.9-20.3-4.7-30.4-27.7.8-55.4,1.8-83.6,3-15.2.7-26.4-13.2-32.1,7.3Z"/>
  <path d="M317.2,468.9c4.1,17.6,17,10.3,32.6,11.7l3.2-16.8,16.1,5.9-5.3,10.6,112.6,1-8.1-11,13.9-5.5c2.1,15.8,43.1,21.1,51,16.1,6.3-3.9,10.9-31.9-8.4-22.6-9.5,4.6-3.8,13.2-12.5,12.2v-21.9c0,0-14.1,16.7-14.1,16.7-26.7-15.7-73.8-31.8-93,4.3l-13.7-13.8,13.8-8.1-386.3,2.2c-2.4,9.3-4.6,18.7-6.5,28.1l298.4,2.3,6.4-11.4Z"/>
  <path d="M1110.5,843c-20.2,1.1,15.6-24.2-24.7-16.8,8.5,11.1,2.2,13.5-8.5,16.2-17.5,4.5,3.5-16.6-5.3-16.5-30.2,21.7-65.6-2.1-92.5,4.8-4.5,1.2-3.1,11.3-6.5,11.1-7.9-.4-12.4-9.4-22.1-11-35.6-5.9-86,6.6-120.5,6.7-102.4.3-205.5-6.8-307.8-3.2l-10.8,14.6-2.6-16.5-46.1.8c-9,1.7-18.4,36.2-6.4,37,33.5-15.3,71.6-1.5,107.2-4.5l-5.3-21.9,15.5,1c2.3,12.2.8,18.3,14.4,21.2,30.3,6.6,94.8,3.5,120.9-15.6l-8.3,16.4c64.8,3.6,127.5.3,191.3-6.1,24.7-2.5,39.7,9.9,58.7-13.7l-2.9,16.4c22.1-5.6,47.5,2.1,68.6,1.1,24.3-1.1,49.1-5.3,76.7-5.6,16-.2,32.1-.3,48.1-.4,5.1-10.6,9.8-21.4,14.3-32.3-2.4.2-4.7.4-6.7.7-15.5,2.3-22.3,15.2-38.8,16.1Z"/>
  <path d="M1038,249.5c-85.1,1.2-173.1,8.8-258.1,9.4-28.1.2-56-9.7-87.6-6.5-15.5,1.6-45.8,18.3-54.2,15.9-4.4-1.3-3.4-16.9-19.9-11,4,19.7-7.5,15.7-22,21.7l-5.6-16.4,16.6-5.3c-32.1-3.1-49.2-2.6-71.5,21.3l11.1-21.8c-30,1-60.6-2.5-90.5-.7-14.3.8-35,11.2-43.7,10.7-3.6-.2-.5-10.8-11.1-11.8-25.6-2.4-63.1,6.1-90.8,0l5.5,10.9c-18.2-4.2-31.7,6.1-50.8-.8-5.2-1.9-2.2-9.7-11.9-11.1-34.7-4.8-79,3.8-115-.8l-9.1,33.1c40.5-.9,83.5,5.7,120.9-9.9l-2.9,10.9c49-3.9,106.2,6.4,154,1.5,9.6-1,15.8-3.1,21.8-11.1,4.5-1.9.5,9.5,6.2,11.1,7.3,2,79.8,1.4,83.3-.8,2.7-1.7-1.2-10.5,3.8-9.6,14,32,29-7.1,49.4-10.6l-13.8,21.8,186.7-4v-13.8s27.5-2.4,27.5-2.4l-11,16.3c30.2-7.5,72.9,10.7,96.2-10.1,2.2,16,34.9,13.7,49.7,11.8,10.9-1.4,7.1-11.8,10.7-11.6,9.6.6,32.2,20.8,52,11.5l-2.5-27.4,8.1,16.5,16.5-10.8-2.9,21.9,38.7-10.7,4.8,10.6c27.1-3,54.5-5,82-6.3-6.7-10.7-13.8-21.3-21.2-31.5-16.4-.3-32.9-.5-49.3-.3Z"/>
  <path d="M1053.9,442.2c-60.7,1-178.1-4.1-231.7,3.1-13.3,1.8-21,11.1-32.9,11.6-10,.4-7.5-9.6-10.6-10.4-34.1-8.8-82.8,4.2-115.6,5.9-20.6,1.1-41.5-5.3-62.2-2.3l-6.5,32,43.8.4.2-16.5c20.6,24,21.9,8,35.2,8.3,19.9.4,42.3,6.4,63.4,3.4l-10.3-6.1,5.1-21.4c12.2.7,5.2,14.5,6.5,15.5,12.6,10.1,68.5,23.9,72.9,1.6,16.8,22.4,45.4,6.6,66.2,7.4,84.5,3.2,167.1,4.4,252,1l5.9-16.8c1.3,13.8,28.3,18.7,52.3,19.5-2.4-11.8-5.2-23.4-8.3-34.9-41.8.3-83.9-2-125.5-1.4Z"/>
  <path d="M973.1,304.3c-6.4,3.5-.6,15.3-15,10.6l-5.4-10.9-5.7,21.9,8.1,5.5-19.2-.2,5.7-27.3c-13.3,2.9-46.7-2.8-56.8-.2-8.7,2.2-3.1,25-27.1,10.3-3.4-2.1-3.4-9.7-7.7-10.7-20.1-4.6-51.3,2.4-73-.7l13.5,22.1-8.1-11.1-11.1,10.9.2-22-104.3-.7c-1.3.9,22.9,33.9,2.6,27.4l-24.4-27.6c3.1,10.6-17.3,16.8-24.5,16.4-3.3-.2-2.5-10-6.8-11.1-32.3-8.2-34.5.8-43.1,26.7,17.3-6.9,23.2,6,37.4,5.9,33.2-.3,78.3-14.1,115.5-4.6l6.2-10.7c18.9,28,63.1,1.8,76.8,2.7,97.6,5.9,220.4,12.5,332,9-5.8-11.8-11.9-23.3-18.5-34.7-7.4.3-14.8.6-22.2.9-24.4.7-109.2-6.4-125.1,2.3Z"/>
  <path d="M115.2,324.7l10.4,11.5c23.8-5.8,67.9,12.3,77.4-10.9l8,.3c-1.9,19.7,26.3,8.2,41,11.5l5.9-16.9,21.6,17.1c46.7-5.3,101,11.9,142.9-10.3l-2.8,11,140.3,1.6c4-2.8,7.5-4.7,10.7-6l-7.9-27.3-76.9-.6,21.9,11.2-8.4,11-41.1-11.5,5.7-10.8-98.8-.8c-4.9,13.7,6.3,9.9,7.2,11,15.5,19.4-31.5,12.4-12.7-11l-283.2,1.8c-4,7.2-7.9,14.5-11.7,21.8,7.6,10.8,38.3,12.3,50.4-3.7Z"/>
  <path d="M570.8,333.9c0-.1,0-.2.1-.3,0,0-.1,0-.2,0v.2Z"/>
  <path d="M923.2,1022.3c-4,.5-4,9.3-8.1,10.8-12.5,4.6-25.2-4.6-23.4,10.9l-27.2-16.6c3.3,10-4.6,21.2-14.1,21.9-1.4.1-6.5-16-22.1-16.5l-7.9,10.7-2.8-16.8c-55.7,7.6-117.4-13.8-167.4,15.4l5.6-16.4-156.6-1.7-46.7,16.5,5.7,21.9c79.7-12.8,162.4-4,243.2-3.8,22.2,0,27.2-.2,49.9,1,20.8,1.1,78.5,4.8,88.1-10.6,24.4,20.4,56.1,6.1,82.2,5.9,22.3,0,45.4,0,68.9.3,9.6-8.2,18.9-16.8,28-25.6-23.1-9-76.8-9.7-95.5-7.5Z"/>
  <path d="M1087.7,940.4c-6.4-3-.7-13.1-21.5-16-12.3-1.7-131.6,3.2-138,5.8-4.7,1.9,0,10.4-5.3,10-4.5-20.6-18.5-7.2-32.9-8.1-16.9-1.1-120.6-7.4-127.9-2.9-3.1,1.9-3.4,12.7-8.9,13.6-11,1.8-33.8-16.7-39,6.7-4.8-26.8-16.9-23.2-41-22.3l2.7,11c-13.1,2.5-3-9.8-15.9-11.6-37.2-5.1-97,7.9-137,8.5-28,.4-61.5-8.4-91.2-4.3,3.5,7.1,22,12.1,2.5,16.4-13.9,3-8.3-22.3-24.5-16.6l-3,22-13.1-19.6c-3.5-2.4-78.3-4.8-84.7-3.4-6.3,1.4.8,14.2-11.8,11.2-5.3-1.3-.5-9.3-6.1-10.9-4.2-1.2-70.4-2.8-73.4-.7l5.4,16.4c8.9,2.4,3.5-7.7,6.5-9.5,6.8-4.1,18.3-.4,26.4-1.1l-33.1,27.1,126.3,1-5.5-10.9c21-8.8,27.3,10.6,35.3,11.6,13.2,1.8,76.5,2.7,87.3.2,4.3-1,3.8-10.8,6.8-11.2,9.7-1.1,19.3,9.8,32.2,11.8,29.9,4.6,51.9-7.5,71.5-8.1,69.2-2,152,11.3,220.1,5.3,10.8-1,7.1-12,10.8-11.7,7.9.6,12.2,9,21.6,10.5,47.7,7.4,102.2-2.7,148.6-14.5,27.2,7.5-39.9,12.1-11.1,16.6,23.4-7.6,56.7,4,66-21.8l13.7.3-5.6,16.3c13.8-1,27.7-1,41.6-.7,3.8-5.1,7.5-10.3,11.1-15.5-1.8.3-3.8.2-5.9-.8Z"/>
  <path d="M57.1,626.3l6.4-11.3,6.1,11.5c50.4-5.6,102.1,2.8,153.4.8,47.3-1.9,28.7-16.5,47.8-25.6,9.6-4.6,26,4.4,26.2-6.7H127.9c-7,25.7-10.3-.7-19.9-2-35.9,1.9-71.9,2.5-108,2.4,0,1.5,0,3,0,4.6,0,8.4.2,16.8.5,25.2,19.2-1.2,38.5-2.1,56.6,1.1Z"/>
  <path d="M1123.6,892.3c-6.2,7.8-21.6-14.5-22.9-15.3-4.2-2.6-53.8-3.5-61-1.8-4.3,1-3.4,10.5-7,10.8-29.8,2-74.7-11.2-109.7-6.8-10.9,1.4-7.1,11.8-10.7,11.6-8-.4-13.5-10.3-27.4-11.8-31.6-3.3-67,8.2-94.2,8.6-27.8.4-133.5-10.8-149.6,1.4-1.3.9,2.8,18.5-11.7,26.7,57.4-1.8,115.5,3.1,173.2,1.6,27.4-.7,109.4-1.5,129.2-6.8,13.9-3.7,13.9-18.1,32.7-8.6l-5.6,10.8,101-4.3,3.5-16.7c10.3,19.6,46.8,28.2,57.5,6,0,0,0,0,0,.1,4.2-7.4,8.3-14.9,12.2-22.4l-20.3.4c-2.6,8.3,20.9,3.7,10.8,16.5Z"/>
  <path d="M1144.8,656.6l.2-22h-35.4c0,.1-.5,16.2-.5,16.2l-8.1-11.1c-16.1,30.9-23.8,1.3-30.1-3.1-6-4.1-49.1,4.6-63.3,4.7-26.9.1-150.4-8.7-160.9-2.1-2.7,1.7,1.2,10.5-3.8,9.6l-5.3-11.2-13.9,5.5,5.4,16.5c-17.7-16.4-56.2-30.4-68.5-6-43.6-25-109.3-.3-159-12.5l-151.2-.9,5.5,10.9c-13.4-.5-28.7,6.3-27.7,21.8l82.4.7-2.5-22,13.6,2.8-2.8,19.3c27.4-4.6,70.4,14.3,82.4-15.8,14,2.9,10.4,25,48.3,16.7,4.1-.9,6.7-17.2,23.2-15.8,7.9.7,16.4,9.4,32.4,11.3,49,5.7,121.2.7,171.6-2.5,13.6-.9,21,12.5,26.6-7.3l2.6,11,290.8-6.2c1.1-10.5,2-21,2.6-31.6l-36.4,1.6-17.9,21.7Z"/>
  <path d="M62.1,790.6l7.9,27.6,95.8,1.1,5.9-16.8,5.6,16.9,419.9-5.3c-7.9-10.6,6.3-30-8.2-30.3-16-.4-85.3,1.7-97.7,5.1-4.8,1.3-3.9,10.5-6.3,10.3-14.7-1-40.4-17.6-60.4-11.4-3.9,19.1-7.4,16.4-25.1,22.1l-3-22.1c-13.5,1.5-29.3-2.5-42.3,0-4.3.8-16.2,21.1-18,21.6-17.4,5.1-21.7-13.8-2.6-11.1l-2.6-11-63.2-.4-2.8,11-10.5-11.6-137.4-1c-9.9,39.3-21.9,8.6-30.4,3-6.7-4.4-29.2-6-58.8-6.2,3.5,11.1,7.4,22.1,11.5,32.9,7.1-3.1,13.9-7.9,22-13.2l.4-11.2Z"/>
  <path d="M870.7,1072.7c-2.7,1.7,1.2,10.5-3.8,9.6l-3.1-10.5c-24.2,14.5-69.1-9.6-79.3,15.3-10.4-23.7-57.2-11.1-74.1,4.9v-16.5c-.1,0-164.6-1.4-164.6-1.4l-.2,22-21.9-.2,5.6-21.8h-10.9c0,0-11.3,32.7-11.3,32.7l48.6-.3,6.5-21.1c12,.9,7.6,20.6,14.1,22.4,24.2,6.8,77.5-4.3,103.7-3.9,44.9.5,103.6,10,148.3,5.8,16.2-1.5,29.9-14.7,32.9-14.6,3,0,10.9,8.9,21.7,9.7,13.8,1.1,28,0,42.1-.2,7.2-4.6,14.2-9.4,21.2-14.3l.3-1.8,1.6.4c8-5.7,15.8-11.6,23.5-17.6-40.5-.7-96.7-1-100.8,1.5Z"/>
  <path d="M30.2,658.6l6.2,11.2,125.6,1,16.5-16.5,5.5,16.9c40-.7,79.6-1,119.7-2.8,7.9-.4,18,5,28.4,4.2,9-.7,51-26,35.6-.3,11.7-.9,24.6,1.8,36,.6,33-3.5,2.9-20,24.7-24.7-10.6-7-29.1-7-41.7-7.7-12.4-.7-104.1-2.7-109.3-1-3.3,1.1-2.6,10.1-5.6,10.4l-24.4-11.4-3.2,11.3c-39.7-14.3-89.4-10.5-131.4-7.1-33.2,2.6-72.4,3.1-111,2.9.6,7.8,1.3,15.5,2.2,23.2,6.8,0,13.5.3,19.9,1l6.4-11.1Z"/>
  <path d="M178.7,715.5c37.1,2.8,83.7,10.4,120.3,6,11.4-1.4,23.3-11.8,24.3-11,1.1.9-3.8,10.2,8.1,11.6,57.8,6.5,127.8-7.7,187.1,1.5l10.9-11.6,6.2,11.2c6.3,1.7,88.3,1.3,92.6-.4,5.3-2.1,6.7-15,11-15.2,1,0,7.5,9.5,16.6,10.9,29.6,4.5,66.3,3.9,68.7-32.2l-274.5,3.3,2.5,22c-13,2.2-8-14.1-18.9-19.4-16.8-8.3-51.6-.2-71.5-3.2l5.3,21.9c-13.6-7.6-24.6-7.5-38.3-.2.4-10.9-1-21.7-13.7-22.4l-309.2-2.1c1.6,11,3.5,22,5.6,32.8.4.2.8.4,1.2.5l165.7-3.8Z"/>
  <path d="M263.4,1033.5l24.4,22.1-27.4,5.3,60.4.5c-8.7-13.6,9.4-14.7,13.9-27.3,15.8,6.7,15.5,10.5,13.6,27.6l27.5.2-2.7-11c14.6-5.3,13,10.8,16.9,11.4,18.2,2.7,24.7-17.6,37.9-1.2l24.9-31.4-118.4-1.5-10.6,11.4-21.6-11.4-123.4-.9c12.3,12.1,25.1,23.8,38.5,34.8,20-.7,37.3-6.6,46.2-28.5Z"/>
  <path d="M165.4,226.4c5.8,8,12.1,10.4,21.6,11.5,4.7.6,62.1,1.1,65.3.3,4.5-1,3.2-12.2,6.3-11.2,7.9,7.8,16.5,10.2,27.3,11.3,16.1,1.7,129.2,1.9,134.9-1.7,3.5-2.3,5.4-9.2,5.5-13.7l18.8,17c27.2-5.2,74.2,6.5,98.2.4,5.8-1.5,1.8-13,6.3-11,17.9,23.1,33.5,4.4,52.2-5.1l2.9,16.9c42.2-9.3,111.5,20.4,118-37.8-6.7,1.8-11.3,8-19,8.4-104,5-223.7-6.5-329.9-5.9-41.8.3-89,6.4-131.6,7.1-29.1.5-65-5.2-97.4-4-6.8,7.9-13.4,15.9-19.7,24.2,15.3,1.6,35.1,13.2,40.1-6.7Z"/>
  <path d="M1124.9,749.7c0-4.3-2-11.6-5.3-13.9-7.5-5.2-152.7-3.5-166.4,1.8-6.8,2.6-1.9,11-6.8,10.8-5.1.8-1-7.9-3.7-9.7-12.6-8.2-119.9,6.2-144.4-2.9l-3.1,16.8-19.5-16.9-27,11.1-2.8-11.1-14.1,15.9c-15.3,3.2-26.4-15.6-28.1-16-51.4-12-133.2,12-188.3,3.8l-3,27.5c-22.4-5.7-11.2-15.7-2.5-27.5l-76.9-.6,5.2,30.5c20.2,10.1,31.1-11.2,41.3-8.3,2.1.6,1.9,10.3,6.3,11.2,36.8,7.3,133.7-4.1,179.5-4.3,53.7-.3,113.5,3.6,171.3,1.8,6.6-.2,35.6.3,37.4-.2,4.3-1.2,3.6-10.8,6-10.6,4.4.4,16.9,9.4,28.1,10.6,17.1,1.9,34.6.2,51.7.9l-5.5-10.9c24.1,3.8,40.9,14,57.8-10.5,5.6,3.5,5.8,15,12,16.6,9.3,2.4,110.2,2.1,153-1.2,2.1-7.2,4-14.5,5.8-21.9l-49.6-9.4-8.5,16.7Z"/>
  <path d="M1197.2,541.6c-.2-1.8-.4-3.7-.6-5.5-5.1,0-10.1,0-15.2.1l15.7,5.4Z"/>
  <path d="M810.6,571.7l5.4-1.2c-1.9-.3-3.8-.6-5.7-.9l.3,2.1Z"/>
  <path d="M1124.9,536.8c-9.5,2.1-19.2,13.4-23.1,13.4-3,0-10.9-8.9-21.7-9.7-40.9-3.1-85,2.3-126.3-1.1l-3.2,16.8-11.2-16.4c-19.7,15.3-42.5-4-57.4,15.8-.7-18.8-58.4-14.2-63.1-3.2l16.3,13.8-19.3,4.2c19.7,3.2,39.3,8.1,66.1,7.5,14.3-.3,27.9-9.2,32.6-9,5.7.3,14.5,13,24.8,9.1l-2.6-11c85.3,12.1,172,2.2,258.1,2.3l4-3c-.4-8-1-15.9-1.8-23.7l-7.7,10c-17.3-19.3-38.8-21.3-64.7-15.7Z"/>
  <path d="M745.7,543.4l-9.3,33.1,21.9.2-10.8-21.9c16.8-4.3,11.3,18.5,25.2,21.2,8.4,1.6,18.6-8.2,26.7-7.5,3.7.3,7.3.8,10.9,1.3l-3.1-24.8-61.6-1.4Z"/>
  <path d="M36.4,565.5c10.5,13.6,43.6,20.5,49.4.4,19.5,21.3,55.5,7.3,82.1,12l6.2-16.9,37.7,16.1,291.7,3.6,10.6-11.3c21.7,22.9,58.7,3.9,87.9,3.8,18.5,0,123.1,7.6,129,3.3l-14.3-33.2c-43.6,1.7-87.6-2.6-131.2-1.1-15.6.6-71.8,2.6-81.3,5-5.6,1.4-1.4,10.6-6.4,11.1l-2.6-11-194-1.8c-14.6,27.1-20.2.9-23.8,0-17.8-4.2-45.3,2.6-64.7-1l-3.2,12.6c-14.3,16.2-17.2-6.7-21.6-9.5-6.3-4-75.1-5.9-84.4-3.5-4.5,1.1-3.2,11.2-6.5,11.1-7.2-.3-13.9-9.8-27-11.7-15.5-2.3-58-5.6-60.8,10.8-1.4-1.6-3.8-3.1-7-4.4-.7,8.9-1.3,17.8-1.6,26.8l25.3.2,10.6-11.4Z"/>
  <path d="M213.6,374.8c6.9,20.4,55.1,8.4,77.5,8,9.9-.2,21.1,5.1,32.4,4.5,8.8-.4,10.9-19.3,30.1-11.3l-5.7,10.8,49.4.5,8.4-22,2.6,22h22c0,0,8.3-21.8,8.3-21.8l5.4,22,82.4.7,7.6-12.8c-4.6-15.2-12.4-22.7-29.3-20.8l-202.9-1.5-5.9,16.8-11-16.9-21.5-.2-3.2,16.8-14.7-16.9-191.9-1.3c-4.9,10.9-9.6,21.9-13.9,33.1l163.1,1.6,10.7-11.4Z"/>
  <path d="M210.5,765.4c12.8-.5,33.2,14.6,41.2-6.2l-16.3-16.6,46,28,47.3-32.7-313.6-3.1c2.6,11.2,5.4,22.2,8.6,33.1,62.3.2,124.6,0,186.7-2.5Z"/>
  <path d="M565,383.2c132.1.9,263.8,4.2,395.3-4.8,8.2-.6,17.6,4.3,27.1,2.8,12.3-2,19.7-18.2,35.1-15.1l9.2,15.3c16.8,2.7-.4-9.6,5.6-10.9,13-2.9,16.6-.9,8.1,11l27.5.2v-13.8s22.1-5.1,22.1-5.1c-13.4-19.9-75.4-17.6-96-13.4-4,.8-.9,14-16.5,9.8-3-.8-16.4-17.3-43-11.6-4.3.9-3.4,10.6-6,10.5-28.4-1.5-111.5-11.2-136.8-5.9-3.6.7-4.3,17.4-20,10.7l8.3-10.9-238.8,3.7,32.9,5.7c-1.8,11.1-25.9,8.2-13.8,21.9Z"/>
  <path d="M94.1,900.5c5,.6.7,9.6,6.2,11.1,30,8.1,30.3-11,32.3-11,7.9.3,12.9,9.7,22,11.2,13.8,2.3,29.3-.9,43.5.9l5.9-16.8,5.5,16.8,68.5.2,2.9-16.3c17.7,23.5,52.7,25.9,68.6.4l2.4,15.9,46.9,1c-6.3-24.9,13.6-46.2,7.9-11.1,10.8,23.6,97.2,7.2,120.5,7.1,16.7,0,88.8,16.6,96.7-2.5l-16.4-16.5,16.6-8.1c-27,2.9-56.5-9.1-71.4,15.8l2.8-16.4-16.1,10.4c-77.1-10.3-192.3-21.5-269.5-12.8-14.2,1.6-23.3,5.5-32.9,16.2l-2.6-16.3-165.9-1.3c5.8,11.1,12,22,18.5,32.8,1.7,0,3.2.1,4.4.3l2.8-11Z"/>
  <path d="M1199.8,584.9c-3.9.2-7.4.5-10.3,1-7.6,1.1-12.3,4.7-16.9,10.6-4.7-19.5-37.5-14.7-49.4-.4-5.3-20.4-51.3-5.5-72.4-2.7-10.8,1.4-15.5-11.1-20.8,7.5-23.6-27.5-52.8-.7-66-.4-3.3,0-1.9-10-6.3-11.2-14.7-4-61.5-4.2-65.2,15.9l-10.4-11.5c-113.1,5.5-228.2-7.7-340.8-2.2-17.2.8-56.9,1.4-60.6,16l-6.2-11.2-62.3-.3,21.9,5.6-11.1,27.3,22,.2-5.5-10.9c18.3-1.7,3.3,10.6,24.2,11.6,31.3,1.5,63.6-7,94.7-8.6,20.4-1.1,64,13.2,70.5-7,33.4,20.4,90.1,10.8,130.9,11.1,38.1.3,78.3-2.6,116.8-3,107.8-1,215.4-1.4,323-3.9.2-6.1.3-12.2.3-18.4s0-10.1-.2-15.1Z"/>
  <path d="M1168.7,785.7l-3.1,13.7-5.4-11.1-2.9,16.5c-21.7-1.7-19.2-24.6-21.8-27.7-.6-.8-12.1,5.3-19,5.5-23.4.6-56.3-4.3-77.2-1.2-17.2,2.5-25.8,46.2-46.5,19.3l22-19-115.4,4.6-.3,30.1,10.9,2.8,14-21.8,7.9,13.9,229.9-.3c4.2-11.1,8-22.3,11.5-33.7-5.3,0-10.5,0-15.8.1l11.2,8.3Z"/>
  <path d="M1018.4,683.1c-16,.4-33.4,8.7-49.6,9.4-21.1.9-59.5-7.5-82.5-5.6-11,.9-5.3,5.9-10.9,11.4-11.3-15.6-29.6-11.2-46.6-11.3l10.8,16.5-38.3-5.8,5.6-10.8-76.9-.6v16.5c0,0,10.9-5.5,10.9-5.5l-2.9,22c16.6-1.9,38.3,3.8,53.8-.7,12.8-3.7,16.7-26.3,25.9-4.2l-11,5.4c29.9-.5,60.5,1.2,90.2.2,7.8-.2,13.9-8,22.3-8.3,21.8-.9,50.1,31.6,60.6-12.5,15.3,36.6,44.3,13.6,72.2,13.7,44.9.1,91.6,6.1,136.8,3.4,2.2-11.2,4.1-22.6,5.7-34-58.1,6.7-117.2-.4-176,.9Z"/>
  <path d="M76.5,858.4c7.6-2.1,59.2,9.4,73,9l2.8-10.2h8.1c0-.1,6.3,11.3,6.3,11.3,22.8-9.3,50.5,11.9,62.4-16.2-14.9-4.1-29.4-1.8-36.7-16.7-48.1-.3-96.2.2-144.3,0,4.5,10.5,9.2,20.8,14.3,30.9l10.5.4c2.8.1,2.5-8.2,3.6-8.5Z"/>
  <path d="M1141.6,360.3c-14.8,5.1-15.1-22.2-36-8.8l-10.7,27.8c9.7,1.4,42.1-.8,48-4.2,6.4-3.7,9.4-5.3,11.2-5.5-2.3-5.5-4.6-10.9-7.1-16.3-.3,3.1-1.9,5.9-5.5,7.1Z"/>
  <path d="M990.1,205.3l-12.6,22.2-18.6-5.9,11.1-16.2-76.8-.6-2.9,21.9-7.8-19.9c-22.3,2.2-73.7-14.7-61,22.1l-10.8,2.6.2-27.4-65.9-.6c.1,10.7-3.9,27.9,8.8,32.2,16.1-3.2,108.9,4.7,116.2.2,2.5-1.5-1-10.2,3.9-9.4,14.1,20.4,33.9,6.9,51.8,7.7,32.9,1.5,66.1,4.1,99.2,4.5l2.9-22,8.8,21.3,17.7,1.1,7.5-22.6c-.5-.6-1-1.2-1.5-1.8l-7.8,7.7c0-16.9-49.1-20.1-62.2-17.1Z"/>
  <path d="M256.3,868.9l-10.9-8.2,16.5-13.6v22c26.7-8.1,104.3,7.8,123.6-.2,4.5-1.8,0-10.4,5.4-9.9l2.6,11,44,.4.3-33-197.7-1.6c1.9,16.7-10.1,38.7,16.2,33Z"/>
  <path d="M811.5,796.6l-5.6,21.9,87.8.7-27.3-14c-2.7-15.9,9.2-.5,13.8-8,8.5-13.8-38.1-12.8-46.3-10.7l-.5,15.9-10.2-4.5-.9,9.8-14.2-21.3-24-.8c-2.1,1.3,4.7,7.9,5.4,11,5.6,1.6,15.3-1,21.9.2Z"/>
  <path d="M613.9,803.7l-5.8,13.2,153.7,1.2c-3.6-10-4.5-25.6,11.1-21.8l-.2,22h27.5c2.4-8.7-8.9-2.7-11-9.1-1.4-4.4.9-9.5.2-12.7-11.1-3.2-18.1-9.9-29.8-11.5-48.5-6.6-107.1,5.7-156.8-.9,4,11.6-2,14.3,11,19.7Z"/>
  <path d="M346.4,739.7c-3.9,2.4-6.9,19.6-23.3,14.6-2.3,5.1,4.8,16.4,8.1,16.5l90.6.7.3-32.9c-13.3,1.9-68.6-3.3-75.7,1.1Z"/>
  <path d="M302.5,595.1l21.8,5.6c5.4,20.5-11.6,15.2-16.6,27.2l54.9.4-11-32.7-49.1-.6Z"/>
  <path d="M368.4,595.6l16.4,13.8-16.7,19,49.4.4c-13.5-14.3-26.8-35.1-49.1-33.2Z"/>
  <path d="M123.7,286.3c-7.1-12.1-3-20.5.2-32.8h-13.8c-4.5,6.3-8.9,12.8-13.2,19.3,6.8,7.7,15.7,13.2,26.8,13.5Z"/>
</svg>