<?xml version="1.0" encoding="UTF-8"?>
<svg id="Layer_1" xmlns="http://www.w3.org/2000/svg" version="1.1" viewBox="0 0 1000 1000">
  <!-- Generator: Adobe Illustrator 29.0.0, SVG Export Plug-In . SVG Version: 2.1.0 Build 186)  -->
  <defs>
    <style>
      .st0 {
        fill: #231f20;
      }
    </style>
  </defs>
  <polygon class="st0" points="401.1 183.5 401.1 239.9 449.5 211.1 401.1 183.5"/>
  <path class="st0" d="M376.6,398.2l97.6-56.9c1.7-27.3-.5-54.7.6-82,0-1.4,1.7-1.8-1.1-3.6l-72.7,41.9v28.8l-26.6-12.9-71.7,41.1,73.8,43.6Z"/>
  <polygon class="st0" points="598.9 184.9 550.5 212.3 598.3 239.9 598.9 184.9"/>
  <polygon class="st0" points="598.9 40.7 529 80.2 525.6 83.3 525.6 167.8 599.7 123.9 598.9 40.7"/>
  <polygon class="st0" points="276.6 255.6 276.6 310.6 325.1 284.4 276.6 255.6"/>
  <polygon class="st0" points="126.5 397.9 200.6 356.5 126.5 313.4 53.8 354.6 56 357.6 126.5 397.9"/>
  <polygon class="st0" points="350 238.6 350 184.8 302.8 211.7 350 238.6"/>
  <polygon class="st0" points="276.6 688 276.6 743.1 325.1 714.3 276.6 688"/>
  <polygon class="st0" points="276.6 112.8 276.6 167.8 325.1 139 276.6 112.8"/>
  <polygon class="st0" points="650 183.5 650 239.9 698.5 211.7 650 183.5"/>
  <polygon class="st0" points="152.1 471.8 152.1 526.9 200.6 500.6 152.1 471.8"/>
  <path class="st0" d="M305,65.8l-2.2,3.7,171.7,98.3V54.5L561,3.7c-20-2.4-40.3-3.7-61-3.7-34.1,0-67.4,3.4-99.6,9.9v.6l-95.5,55.2Z"/>
  <path class="st0" d="M225.5,885.9l.7-196.6-3.4-.8-96.2,55.3-87.2-49.3c21.2,50.1,50.3,96,85.8,136.2l1.4-.8,98.9,55.9Z"/>
  <path class="st0" d="M474.4,830.9l-171.7,98.3,2.2,3.7,95.5,55.2v1.9c32.2,6.5,65.5,9.9,99.6,9.9s42.8-1.4,63.6-4l-89.2-51.8v-113.4Z"/>
  <path class="st0" d="M800.8,355.9l172.9,100.2v-114.7l.5-.3c-17.3-51.8-42.9-99.8-75.2-142.5v99.5l-98.3,57.7Z"/>
  <path class="st0" d="M222.8,310.1l3.4-.8-.7-196.6-98.9,55.9-.6-.4c-35.8,40.3-65.1,86.5-86.5,136.9l87.1-50.4,96.2,55.3Z"/>
  <polygon class="st0" points="849.2 183.5 774.5 225.5 774.5 312 849.2 268.1 849.2 183.5"/>
  <polygon class="st0" points="650 40.7 650 95.7 698.5 66.9 650 40.7"/>
  <polygon class="st0" points="774.5 399.8 774.5 454.8 823 428.6 774.5 399.8"/>
  <polygon class="st0" points="774.5 112.8 774.5 167.8 823 139 774.5 112.8"/>
  <path class="st0" d="M973.7,542.6l-172.9,100.2,98.3,57v101.5c32.5-43,58.2-91.4,75.6-143.6l-.9-.5v-114.7Z"/>
  <polygon class="st0" points="774.5 773.2 849.2 815.2 849.2 730.6 845.7 727.6 774.5 686.7 774.5 773.2"/>
  <polygon class="st0" points="724.7 887.2 724.7 830.9 676.2 857.8 724.7 887.2"/>
  <polygon class="st0" points="724.7 743.1 724.7 686.7 676.3 714.9 724.7 743.1"/>
  <polygon class="st0" points="650 444.9 650.2 556.1 724.7 598.9 724.7 514.4 699.8 498.7 724.7 484.3 724.7 399.8 652.1 440.5 650 444.9"/>
  <polygon class="st0" points="53.8 500.6 102.3 526.9 102.3 471.8 54.6 497.9 53.8 500.6"/>
  <polygon class="st0" points="650 758.8 650 815.2 698.5 787 650 758.8"/>
  <polygon class="st0" points="724.7 312 724.7 255.6 676.3 283.8 724.7 312"/>
  <polygon class="st0" points="650 958 698.5 931.8 650 903 650 958"/>
  <polygon class="st0" points="849.2 526.9 849.2 471.8 800.7 500 849.2 526.9"/>
  <polygon class="st0" points="899 526.9 944 501.8 946.2 498.7 899 471.8 899 526.9"/>
  <polygon class="st0" points="724.7 167.8 724.7 111.5 676.2 140.9 724.7 167.8"/>
  <polygon class="st0" points="774.5 598.9 823 570.1 774.5 543.9 774.5 598.9"/>
  <polygon class="st0" points="774.5 885.9 823 859.7 774.5 830.9 774.5 885.9"/>
  <path class="st0" d="M600.9,585.8l-.4-172.1,98-57.3-73-43-25.2,12.9c-2.6-6.6,1.9-25.3-2.7-29.4l-72-41.3v115.3l-150.1,85.1-98.9-56.3v84.5l23.6,14.4c.9,3.6-20.9,11.9-23.6,15.7v84.5l99.9-56.2,149,87v113.4l72-41.3c4.8-4.4,0-22.6,2.7-29.4l25.2,12.9,73-42.4-97.6-57ZM548.3,500.7l-72.6,40.5v-83.9l73.4,40.6-.8,2.7Z"/>
  <polygon class="st0" points="178.3 428.6 226.8 454.8 226.8 399.8 179.1 425.9 178.3 428.6"/>
  <polygon class="st0" points="179.1 570 178.3 572.7 226.8 598.9 226.8 543.9 179.1 570"/>
  <polygon class="st0" points="74.8 426.6 27.6 399.8 27.6 454.8 72.6 429.7 74.8 426.6"/>
  <polygon class="st0" points="276.6 885.9 325.1 859.7 276.6 830.9 276.6 885.9"/>
  <polygon class="st0" points="72.6 569 27.6 543.9 27.6 598.9 74.8 572.1 72.6 569"/>
  <path class="st0" d="M53.8,644.1l72.7,41.2c25.2-13.2,50.5-27.3,74-43.1l-74-41.5-72.7,43.4Z"/>
  <polygon class="st0" points="350 815.2 350 760.1 302.8 787 350 815.2"/>
  <path class="st0" d="M599.7,932.6c.3-19.7-.4-39.5-.6-59.2l-73.5-42.5v84.5l71.4,42.6c2.8,1.1,2.1-3.4,2.4-5.1.8-5.5.2-14.3.3-20.3Z"/>
  <polygon class="st0" points="550.5 786.3 598.9 813.8 598.3 758.8 550.5 786.3"/>
  <polygon class="st0" points="401.1 815.2 449.5 786.3 401.1 758.8 401.1 815.2"/>
  <polygon class="st0" points="302.8 644.1 374.5 685.2 401.1 672.3 401.1 701.1 473.8 743.1 474.5 657.5 375.7 600.5 302.8 644.1"/>
</svg>