<?xml version="1.0" encoding="UTF-8"?>
<svg id="Layer_1" xmlns="http://www.w3.org/2000/svg" version="1.1" viewBox="0 0 1200 1200">
  <!-- Generator: Adobe Illustrator 29.0.0, SVG Export Plug-In . SVG Version: 2.1.0 Build 186)  -->
  <path d="M1197.2,657.9c-23.4-12.6-52.6-25.9-76.9-29.3-16-2.2-31.5-1.9-47.1-3.3-5.2-.5-10.4-2.3-15.7-2.6-9.8-.6-17.8,1.2-27,3.8-6.5,1.8-9.5,2.3-16.1,3.5-20,3.7-44,12.8-61.7,22.7-5.8,3.3-16.5,11.6-22,13.3-2.4.8-5,.8-7.7,1.5-9.7,2.7-32.8,21.4-38,30.1-1.7,2.8-2.5,6.3-4.2,8.9-1.9,3.1-5.3,6.3-7.5,9.5-5.2,7.7-6.9,14.6-10.7,22.7-3.3,7-7.8,13.4-10.9,20.5-4.4,10-6.7,21.3-10.9,31.6-3.7,9.2-10.8,27.4-15.9,35.1-6.7,10.1-25.6,16.3-36.3,21.9-9.8,5.1-19.2,12.2-29,16.8-9.6,4.5-22.7,10.1-32.6,13.8-16.2,6.1-33.4,9.7-50.1,14-22.1,5.7-37.6,9.5-60.5,11.5-5.2.4-11.4,2.6-16.4,2.7-5.2,0-11.6-2.2-17-2.7-22.9-1.9-38.4-5.7-60.5-11.5-29.3-7.6-55-15-82.7-27.9-9.8-4.6-19.2-11.7-29-16.8-10.7-5.6-29.6-11.8-36.3-21.9-5.1-7.7-12.1-25.9-15.9-35.1-4.2-10.3-6.5-21.6-10.9-31.6-3.1-7.1-7.7-13.5-10.9-20.5-3.8-8-5.5-15-10.7-22.7-2.2-3.2-5.6-6.4-7.5-9.5-1.6-2.7-2.5-6.1-4.2-8.9-5.1-8.7-28.3-27.3-38-30.1-2.6-.7-5.3-.7-7.7-1.5-5.5-1.7-16.1-10.1-22-13.3-17.7-9.9-41.7-19-61.7-22.7-6.6-1.2-9.6-1.7-16.1-3.5-9.3-2.6-17.3-4.3-27-3.8-5.3.3-10.5,2.2-15.7,2.6-15.6,1.4-31.1,1.1-47.1,3.3-21.5,3-36.3,9.9-55.5,19-7.2,3.4-14.3,6.8-21.2,10.4,19.2,199.5,136,370.4,302.1,464.5,5.8-12,11-24.8,15.1-33.2,9-18.4,18.5-36.6,28.8-54.2,7.6-13.1,15.1-26.7,25.7-37.4,4.1-4.2,8.7-8,13.1-11.8,7.4,2.6,14.6,5.6,21.7,8.8,5.5,2.5,18.9,8.4,23.1,11.6,2.6,2,6.6,9.8,9.2,13,8.1,10,32.7,28.3,44.5,33.4,3.5,1.5,8.6,2.4,11.6,4.1,4.2,2.4,8.5,7.2,13.5,10.1,24.1,13.9,55.4,16.9,82.5,15.6,13.3-.7,26.2,1.5,39.3.7,15.8-1.1,46.2-9.7,59.4-18.4,3.3-2.1,6.8-6.2,9.8-7.9,3.1-1.7,8.4-2.8,12-4.3,11.5-4.9,36.1-23.4,44-33.2,2.8-3.5,5-8.2,7.6-11.4,2.4-2.9,20.1-11.1,24.7-13.2,2.7-1.2,20.9-9.2,22.1-8.7,4.1,4,8.8,7.6,12.8,11.7,10.6,10.7,18,24.4,25.7,37.4,10.3,17.7,19.9,35.9,28.8,54.2,4.1,8.4,9.3,21.3,15.1,33.3,166.3-94,283.2-265.1,302.3-464.7Z"/>
  <path d="M457.4,775.3c4.3,1.1,9.6.4,13,1.4,4.5,1.3,10.4,7.8,14.6,10.3,12.5,7.4,24,4.1,37.4,5.1,7.9.6,15.5,3.6,23.8,3.7,6.6.1,13.4-1.7,20-2,26.2-1.4,53-.4,79.1,1.6,12.9,1,20.4-2.3,32.1-3.3,13.5-1.1,25.3,2.3,37.8-5.4,4-2.5,9.8-8.7,14.2-10,3.4-1,8.7-.3,13-1.4,25.7-6.7,37.7-43.4,16.9-62-6.4-5.7-10.2-5.2-16.9-8.3-2-.9-3.9-2.9-6.4-4.1-13.8-6.2-30.1-3.8-44.8-4.2-16.7-.5-33.5-2.3-50,.9-13.8,2.7-27.7,6.5-41.5,9.4-13.6-3.1-27.3-6.7-40.9-9.4-16.6-3.3-33.3-1.4-50-.9-14.8.4-31-2-44.8,4.2-2.5,1.1-4.4,3.1-6.4,4.1-2.7,1.2-6.3,1.6-9.3,3.1-29.5,14.6-20.3,59.5,9.3,67.2Z"/>
</svg>