<?xml version="1.0" encoding="UTF-8"?>
<svg id="Layer_1" xmlns="http://www.w3.org/2000/svg" version="1.1" viewBox="0 0 1200 1200">
  <!-- Generator: Adobe Illustrator 29.0.0, SVG Export Plug-In . SVG Version: 2.1.0 Build 186)  -->
  <defs>
    <style>
      .st0 {
        fill: none;
      }
    </style>
  </defs>
  <path class="st0" d="M436,767.8c.3-31.8,20.4-69.7,57.4-64.2,3,.5,9.6,3.7,11.3,3.7,1.1,0,6.2-2.3,8.3-2.8,13.1-2.9,23.3,1.2,35.6.9,12.2-.3,25.9-3.3,38.8-3.8,11.9-.5,24.6-.4,36.4.5,8.9.6,19,3.1,27.5,3.3,12,.3,22.2-3.7,35.1-1,2.2.5,7.6,2.9,8.8,2.9,1.7,0,8.2-3.3,11.3-3.7,28.5-4.2,48.1,18.3,54.8,43.6,3.6,13.8,4,37.6-2.4,50.5-9.7,19.5-39.2,30.9-59.6,22.1-8.9,11.8-20.9,15.9-35.4,14.9-5.7-.4-13.4-2.8-18.9-2.6-2.4,0-6.5,1.5-9.3,1.9-23.6,3-47.5,3-71.1,0-2.8-.4-6.9-1.8-9.3-1.9-5.5-.1-13.2,2.3-19,2.6-14.5.9-26.6-3.2-35.4-14.9-15.8,5.6-29.2,3.3-43.2-5.2-18.3-11.2-21.6-26.2-21.4-46.9Z"/>
  <path d="M1194.7,680.3c-10.9-5.9-21.9-11.2-34.3-15-47.2-14.3-104.8-1.9-152.3,7.7-35.8,7.2-79.2,19-108.2,41.5-15.8,12.2-36.9,29.8-48,46.2-3.3,4.8-5.8,10.5-9,15.2-4.3,6.3-10.1,11.8-14.5,18.2-3.2,4.7-5.7,10-9,14.5-11.9,16.4-30.7,31.4-45.1,45.8-24.5,24.5-43.7,47.6-73.6,66.3-2.1,1.3-9.1,5.9-10.9,6.2-2,.3-5.3-1.1-7.7-1.2-27.4-1.5-55.8,12.5-82.5,17.1-26.3-4.9-54.8-18.5-81.8-17.1-2.4.1-5.6,1.6-7.7,1.2-1.9-.3-9.2-5.1-11.3-6.4-29.7-18.6-48.8-41.7-73.2-66.1-14.5-14.4-33.2-29.4-45.1-45.8-3.3-4.5-5.8-9.9-9-14.5-4.4-6.4-10.2-11.9-14.5-18.2-3.3-4.8-5.9-10.6-9.3-15.6-11-16.1-32.1-33.7-47.7-45.8-29-22.5-72.5-34.3-108.2-41.5-47.5-9.6-105-22-152.3-7.7-12.3,3.7-23.2,9-34,14.8,25.1,187.8,137,348.1,294.2,439.2,9.9-16.4,19.8-32.4,32.1-44.3,4.5-4.4,20.3-16.3,25.6-18.9,1.4-.7,13.5-4.3,14.7-4.3,9.3,0,17.5,11.2,23.9,16.7,9.7,8.5,24.3,18.7,35.4,25.4,15.4,9.3,31.9,12.7,49,17.7,4.7,1.4,10.1,1.8,14.6,3.8,3.7,1.6,5.9,4.8,9.5,6.9,9.3,5.5,20.2,5.8,30.4,8.2,12.2,2.8,21.9,6.4,34.8,7,22.7,1.1,46.7-.4,69.4-.7,15.3-4.6,34.2-6.1,49.1-11.1,8.2-2.7,11.3-7.8,17.2-10.3,4.5-1.9,9.8-2.4,14.6-3.8,14.7-4.3,31.2-7.7,44.5-15,10.8-5.9,26-16.7,35.6-24.5,7.2-5.9,19.5-21.5,29.3-20.1,11.2,1.5,24.2,11.1,33.1,17.9,16.6,12.8,27.6,30.8,38.5,49.4,157-91.1,268.9-251.3,294-439Z"/>
  <path d="M457.4,814.7c14,8.6,27.4,10.8,43.2,5.2,8.9,11.8,20.9,15.9,35.4,14.9,5.7-.4,13.4-2.8,19-2.6,2.4,0,6.5,1.5,9.3,1.9,23.6,3,47.5,3,71.1,0,2.8-.4,6.9-1.8,9.3-1.9,5.5-.1,13.2,2.3,18.9,2.6,14.5.9,26.6-3.2,35.4-14.9,20.4,8.8,49.9-2.6,59.6-22.1,6.4-12.9,6-36.8,2.4-50.5-6.7-25.4-26.3-47.9-54.8-43.6-3,.5-9.6,3.7-11.3,3.7-1.2,0-6.6-2.5-8.8-2.9-12.8-2.6-23,1.3-35.1,1-8.5-.2-18.6-2.7-27.5-3.3-11.8-.8-24.5-.9-36.4-.5-12.9.5-26.6,3.5-38.8,3.8-12.3.3-22.5-3.8-35.6-.9-2.1.5-7.2,2.8-8.3,2.8-1.7,0-8.2-3.3-11.3-3.7-36.9-5.5-57.1,32.4-57.4,64.2-.2,20.6,3.1,35.6,21.4,46.9Z"/>
</svg>