<?xml version="1.0" encoding="UTF-8"?>
<svg id="Layer_1" xmlns="http://www.w3.org/2000/svg" version="1.1" viewBox="0 0 1200 1200">
  <!-- Generator: Adobe Illustrator 29.0.0, SVG Export Plug-In . SVG Version: 2.1.0 Build 186)  -->
  <defs>
    <style>
      .st0 {
        fill: none;
      }
    </style>
  </defs>
  <path class="st0" d="M409.7,742.2c3.6-38.2,51.9-58.9,84.4-66.1,10.3-2.3,20.4-4.8,30.8-7.2,12.8-2.9,28.8-6.5,41.7-7.3,13.2-.9,25.6,1.6,38.4,1.1,3.8-.2,8.6-1.2,12.4-1.3,20.3-.8,44.1,4,63.8,8.8,7,1.7,12.8,3.5,19.9,5,40,8.3,91.4,29.1,89.8,77.9-.7,22.3-20.6,42.4-40.1,50.7-22.9,9.7-48.3,6.2-72.5,6-36.7-.3-73.3-1.1-110-.7-28.6.4-59.2,2.7-87.7,1.4-38.1-1.8-74.9-26.5-70.9-68.3Z"/>
  <path d="M1198.7,639.3c-27.1-6.1-58.3-2.4-84.8-.7-15.8,1-30.3.8-46.4,2.7-68.8,8.2-118.5,33.7-171.5,76.4-19.3,15.6-32.9,33.4-48.8,51.9-17.2,20-39.9,40.1-45.3,66.9l-41.1,35.1c-29.7,17.3-60.7,32.2-92.8,44.6-20.6-4.6-41.3.5-61.8.9-24.9.6-49.6-5.6-74.3-.9-32.1-12.4-63.1-27.3-92.8-44.6l-41.1-35.1c-5.4-26.7-28.1-46.8-45.3-66.9-15.9-18.5-29.5-36.4-48.8-51.9-30.5-24.6-58.7-44.2-96-57.7-17.8-6.5-37.2-13.1-55.9-16.1-26.4-4.2-53.8-5.7-80.4-7.3-18.5-1.1-53.2-1.8-70.5,2.3,13,202.4,126.3,377.5,290.8,476.1.3-2.6.3-5.3.8-7.7,1.3-6.2,5.6-13,7.5-19.1,4.9-2.8,10-5.2,15.6-6.1,22.3-3.9,43.5-2.8,65.9-1.5,4.9.3,10.1-.4,15,0,11,1.1,22.6,7,34.1,7.8,4.6.3,9.8-.5,14.4,0,8.8.9,18.4,6.2,26.8,9.2,9.9,3.5,16.9,5.8,26.7,9.9,13.7,5.7,41.6,12.3,56.5,13.5,14.9,1.2,30.3-.6,45.1-.6,14,0,28.5,1.6,42.5.7,15.1-1,44.4-7.9,58.3-13.6,13.9-5.8,29.1-12.1,43.5-16.6,11.1-3.5,19.9-1.5,30.8-3.3,9.1-1.5,19.2-6.2,28.3-7,4.6-.4,9.7.3,14.4,0,21.6-1.3,47.9-3.1,69.1,2.1,4.2,1,8.2,3.5,12.1,5.2,2.1,6.1,6.4,13.1,7.7,19.4.5,2.4.6,5,.8,7.7,164.3-98.5,277.6-273.4,290.7-475.7Z"/>
  <path d="M480.6,810.6c28.4,1.4,59.1-1,87.7-1.4,36.7-.5,73.2.3,110,.7,24.2.2,49.6,3.8,72.5-6,19.5-8.3,39.3-28.4,40.1-50.7,1.6-48.8-49.8-69.6-89.8-77.9-7.1-1.5-12.8-3.2-19.9-5-19.7-4.9-43.6-9.7-63.8-8.8-3.8.2-8.6,1.2-12.4,1.3-12.8.5-25.2-2-38.4-1.1-12.9.8-29,4.4-41.7,7.3-10.4,2.4-20.4,4.9-30.8,7.2-32.4,7.2-80.7,27.8-84.4,66.1-4,41.8,32.8,66.5,70.9,68.3Z"/>
</svg>