<?xml version="1.0" encoding="UTF-8"?>
<svg id="Layer_1" xmlns="http://www.w3.org/2000/svg" version="1.1" viewBox="0 0 1200 1200">
  <!-- Generator: Adobe Illustrator 29.0.0, SVG Export Plug-In . SVG Version: 2.1.0 Build 186)  -->
  <defs>
    <style>
      .st0 {
        fill: none;
      }
    </style>
  </defs>
  <path class="st0" d="M446.6,708.8c4.9-4,6.8-4.7,11.4-9.5,9.5-9.7,11.1-7.7,22.2-12.4,2.8-1.2,5.8-4.2,9.4-5.7,12.7-5.3,38-3.5,52.5-3.8,38.6-.8,77.2-.8,115.7,0,14.5.3,39.7-1.5,52.5,3.8,3.6,1.5,6.5,4.5,9.4,5.7,11.1,4.7,12.7,2.7,22.2,12.4,4.7,4.8,6.6,5.5,11.4,9.5,16.3,13.3,20.6,35.8,7.2,52.9-3.1,3.9-13.7,14.3-17.7,16.9-3.8,2.5-13.9,5.2-15.1,6.2-.3.3-2.1,3.9-3.1,5.1-6,7-14.3,11.6-23.6,12.4-31.2,2.5-62.4-.9-93.5-2-27.6-.9-56.2,3.2-84.5,2.7-18.1-.4-35.3,1.7-48-13.4-.9-1.1-2.5-4.4-2.8-4.7-.6-.5-4.9-1.2-6.4-1.8-5.2-2.1-9.3-4.3-13.4-8.1-4.9-4.5-13.3-12.6-16.3-18.3-9.2-17.1-4.2-35.8,10.5-47.7Z"/>
  <path d="M1197.3,657.3c-18.1-2.9-38-2.5-53.3-1.5-33.1,2.1-80,5.7-111.4,15.5-25,7.8-66.6,27.3-88.3,41.9-43.4,29.1-87.9,71.3-122.2,110.6-4.6,5.2-9.3,12.9-14.1,17.3-6.9,6.5-29.1,22.3-37.5,26.6-12.1,6.2-27.9,10.7-40.8,16.8-13.8,6.4-42.1,24.3-55,26.8-9,1.7-22.8.7-32.6,1.5-13.2,1.1-29.4,5.1-41.9,5.2-12.4,0-29.3-4.1-42.5-5.2-9.8-.8-23.6.2-32.6-1.5-12.9-2.4-41.2-20.3-55-26.8-12.9-6-28.7-10.5-40.8-16.8-8.4-4.3-30.6-20.1-37.5-26.6-4.8-4.5-9.5-12.1-14.1-17.3-30.3-34.8-68-70.8-105.1-98.3-32.3-24-84.6-50.7-124.1-58.4-30.6-5.9-61.6-9.3-92.7-11.3-15.8-1-35.3-1.5-53.3,1.5,17.7,186.9,121.2,348.9,270.7,446.1,5.7-3.5,11.6-6.6,18-9.1,13.3-5.1,43.2-12.8,57.1-13.6,28.7-1.7,52.4,0,80.3,7.4,23.2,6.2,46,12.6,69.3,18.3,20.4,5,41.4,14.8,61.8,18,26.4,4.3,61.8,4.2,87.9-1.6,12.2-2.7,23.8-7.9,35.7-11.4,15-4.5,29.9-6.9,44.9-10.7,22.2-5.6,43.7-14.4,66.3-18,35.8-5.8,65.9-2.2,100.5,7.3,11.5,3.2,21.8,7.8,31.1,13.5,149.6-97.2,253.2-259.2,270.9-446.3Z"/>
  <path d="M452.5,774.8c4.1,3.8,8.2,6.1,13.4,8.1,1.5.6,5.8,1.3,6.4,1.8.3.3,1.9,3.6,2.8,4.7,12.7,15.1,29.9,13.1,48,13.4,28.2.6,56.9-3.6,84.5-2.7,31.1,1,62.3,4.5,93.5,2,9.3-.8,17.6-5.4,23.6-12.4,1-1.2,2.8-4.8,3.1-5.1,1.2-.9,11.3-3.6,15.1-6.2,4-2.7,14.7-13.1,17.7-16.9,13.5-17.1,9.2-39.6-7.2-52.9-4.9-4-6.8-4.7-11.4-9.5-9.5-9.7-11.1-7.7-22.2-12.4-2.8-1.2-5.8-4.2-9.4-5.7-12.7-5.3-38-3.5-52.5-3.8-38.6-.8-77.2-.8-115.7,0-14.5.3-39.7-1.5-52.5,3.8-3.6,1.5-6.5,4.5-9.4,5.7-11.1,4.7-12.7,2.7-22.2,12.4-4.7,4.8-6.6,5.5-11.4,9.5-14.7,12-19.6,30.6-10.5,47.7,3,5.7,11.4,13.8,16.3,18.3Z"/>
</svg>