<?xml version="1.0" encoding="UTF-8"?>
<svg id="Layer_1" xmlns="http://www.w3.org/2000/svg" version="1.1" viewBox="0 0 1200 1200">
  <!-- Generator: Adobe Illustrator 29.0.0, SVG Export Plug-In . SVG Version: 2.1.0 Build 186)  -->
  <defs>
    <style>
      .st0 {
        fill: none;
      }
    </style>
  </defs>
  <path class="st0" d="M496.9,676.1c8-.6,13.3,2.6,18.3,2.7,7.9.1,21.2-1.3,29.5-2,12-1,23.5-4.8,35.5-5.7,11.3-.8,27.1-.9,38.4-.2,10,.6,19.7,3.9,29.5,5.1,8.4,1.1,17,.9,25.4,1.4,3.2.2,8.1,1.4,11.1,1.3,2,0,6.2-2.2,9.2-2.6,18-1.9,45.2,7.7,58.8,19.5,34.8,30.1,35.8,69.5-3.1,96.3-33.3,22.9-90,19.2-129,17.5-6.7-.3-14.6-2-21-2-17.8,0-38,2.9-56.2,3.3-36.1,1-82.5-3-108-31.4-40.9-45.7,12.2-99.6,61.5-103.3Z"/>
  <path d="M1196.7,663.5c-1.3-.2-2.7-.5-4-.8-13.4-3-26.8-7.8-40.4-10-53.9-8.5-103.5,11.1-152.6,30.9-25,10.1-50.5,27.2-73.2,41.9-51.6,33.2-98,75.3-145.6,114-20.6,16.7-41.1,33.9-62.9,48.9-6.1,4.2-12.9,6.3-18.7,10-2,1.3-4.1,3.8-5.7,4.7-9.4,5.5-24.2,5.8-34.7,7.8-25.9,4.8-47,15-73.9,10.1-14.5-2.7-29.1-7.4-43.6-10.1-10.6-2-25.3-2.2-34.7-7.8-1.6-1-3.7-3.5-5.7-4.7-5.9-3.7-12.7-5.9-18.7-10-44-30.4-85.9-68.8-127.7-102.5-26.8-21.6-51.8-41.7-80.8-60.4-22.8-14.7-48.2-31.7-73.2-41.9-49-19.8-98.7-39.4-152.6-30.9-13.6,2.1-27,7-40.4,10-1.3.3-2.6.5-4,.8,19.3,183,120.8,341.5,267,437.8.2-.2.4-.3.7-.5,3.7-2.7,8.1-4.5,11.9-7,11-7.4,21.5-16.8,33.4-23.5,10-5.7,35.8-10.8,47.2-9.7,18.3,1.7,26.8,9.6,42.7,14.8,33.7,11,58.8,19.7,94.7,23.1,9.3.9,17.8,5.1,26.9,6.4,8.2,1.2,17,1,25.4,2.1,15.3,2,25.9,4.3,42,4.5,19.9.3,33.1-2.2,52.3-4.6,8.2-1,16.6-.9,24.8-2,9.2-1.3,17.6-5.6,26.9-6.4,35.9-3.4,61-12,94.7-23.1,15.7-5.1,24.1-12.9,42.1-14.8,11.5-1.2,37.3,3.8,47.4,9.4,12.1,6.7,22.5,16.1,33.8,23.8,4.4,3,8.4,4.8,12.4,7.7,146.3-96.3,247.9-254.9,267.1-438Z"/>
  <path d="M543.4,810.9c18.2-.5,38.4-3.3,56.2-3.3,6.4,0,14.3,1.7,21,2,39.1,1.7,95.7,5.4,129-17.5,39-26.8,38-66.1,3.1-96.3-13.6-11.8-40.9-21.4-58.8-19.5-3,.3-7.2,2.5-9.2,2.6-3,0-7.9-1.1-11.1-1.3-8.4-.5-17.1-.3-25.4-1.4-9.8-1.3-19.5-4.5-29.5-5.1-11.3-.7-27.1-.6-38.4.2-12,.9-23.6,4.6-35.5,5.7-8.3.7-21.6,2.1-29.5,2-5.1,0-10.3-3.3-18.3-2.7-49.3,3.8-102.4,57.7-61.5,103.3,25.5,28.4,71.9,32.4,108,31.4Z"/>
</svg>