<?xml version="1.0" encoding="UTF-8"?>
<svg id="Layer_1" xmlns="http://www.w3.org/2000/svg" version="1.1" viewBox="0 0 1200 1200">
  <!-- Generator: Adobe Illustrator 29.0.0, SVG Export Plug-In . SVG Version: 2.1.0 Build 186)  -->
  <defs>
    <style>
      .st0 {
        fill: none;
      }
    </style>
  </defs>
  <path class="st0" d="M432.4,730.5c1.9-23.1,18.4-34.8,36.9-44.9,18.8-10.3,33.6-5.2,53-7.1,16.8-1.7,34.5-8.4,51.3-9.5,9.8-.7,18.5,1.3,28,1.1,3.8,0,8.6-1.2,12.4-1.3,22.4-1,42,7.6,63.5,9.7,13.9,1.4,26.7-1.3,41,2.2,14.9,3.7,38.2,19.7,44.5,34,12.1,27.8,2.9,54.1-22.8,69-22,12.7-39.2,19.8-64.6,22.4-13.3,1.3-28.7,3.2-41.8,4-15.9.9-34.6-.2-51,0-19.3.2-39.1-2.1-58.2-4-25.6-2.5-41.6-9.4-63.8-21.9-22.1-12.4-30.3-28.2-28.1-53.6Z"/>
  <path d="M1196.8,662.4c-25.1-4.9-49.7-7.4-76.4-5.4-79.6,5.9-141.8,24.7-206.6,71.4-27.8,20-51.4,42-77.3,63.9-14.1,11.9-28.8,23.1-42.8,35-7.3,6.2-13.8,13.3-21.3,19.3-10,8.1-22,14.8-32.6,22.4-5.3,3.8-13,11.4-17.9,14.2-3.1,1.8-11.9,4.5-15.8,5.8-14.5,4.8-31.3,9.2-45.4,14.7-5.7,2.2-7.3,4.6-11.6,7.3-5.5,3.4-41,7.5-48.7,7.6-7.8,0-43.8-4.1-49.3-7.6-1.5-1-3.1-2.8-5.1-4.1-7.6-4.8-16.4-5.8-24.7-8.6-4.4-1.5-8.8-4-13.4-5.5-8.5-2.9-22.1-5.4-29.6-9.6-4.9-2.8-12.6-10.4-17.9-14.2-10.5-7.6-22.5-14.3-32.6-22.4-7.4-6-14-13.1-21.3-19.3-14.1-11.9-28.8-23.1-42.8-35-25.9-21.9-49.6-43.9-77.3-63.9-64.8-46.7-127-65.4-206.6-71.4-25.7-1.9-51.2.4-76.3,5.2,20.8,202.4,142.2,374.9,313.4,466.8,1-1.1,2-2.2,3-3.2,12.2-13.2,30-23.1,47.9-26,18-2.9,51.2,1.8,69.1,6.4,16,4.1,27.9,11.8,42.6,17,14.7,5.2,29.5,11,44.3,15.8,27.8,9.1,51.6,7.1,80,7,26.5,0,46.7,1.5,72.8-7,14.8-4.8,29.6-10.7,44.3-15.8,20.6-7.3,33.8-16.5,57.1-20.1,19.3-3,42-6.5,61-1.8,15.9,3.9,30.5,12.6,41.5,24.5,1,1.1,2,2.2,3,3.3,171.2-91.9,292.6-264.3,313.5-466.7Z"/>
  <path d="M460.6,784.1c22.2,12.5,38.2,19.3,63.8,21.9,19.1,1.9,39,4.1,58.2,4,16.4-.2,35.1.9,51,0,13.1-.7,28.6-2.6,41.8-4,25.5-2.5,42.7-9.7,64.6-22.4,25.7-14.8,34.9-41.2,22.8-69-6.3-14.3-29.6-30.3-44.5-34-14.3-3.6-27.1-.9-41-2.2-21.6-2.1-41.1-10.7-63.5-9.7-3.8.2-8.6,1.3-12.4,1.3-9.4.1-18.1-1.8-28-1.1-16.7,1.1-34.5,7.9-51.3,9.5-19.5,1.9-34.2-3.2-53,7.1-18.4,10.1-35,21.8-36.9,44.9-2.1,25.4,6.1,41.2,28.1,53.6Z"/>
</svg>