<?xml version="1.0" encoding="UTF-8"?>
<svg id="Layer_1" xmlns="http://www.w3.org/2000/svg" version="1.1" viewBox="0 0 1200 1200">
  <!-- Generator: Adobe Illustrator 29.0.0, SVG Export Plug-In . SVG Version: 2.1.0 Build 186)  -->
  <defs>
    <style>
      .st0 {
        fill: none;
      }
    </style>
  </defs>
  <path class="st0" d="M455.1,703.9c3.5.2,9.3,1.9,12.4,1.3,1.6-.3,7.6-4.5,10.8-5.5,8.8-2.7,11.8-.7,19.9-.3,29.9,1.5,59.8,2.7,89.7,3.9,21.7.8,43.6-1.7,65.4-2.6,16.1-.7,32.3-.5,48.5-1.3,8.1-.4,11.1-2.4,19.9.3,3.2,1,9.3,5.2,10.8,5.5,3.3.6,9.4-1.2,13-1.3,44.5-2,50.9,57.1,9,66.2-3.7,20-19.7,34.4-40.4,33.9-5.5-.1-10.4-1.7-16.4-1.4-13.7.9-25.6,3.3-39.9,2.6-18.4-.9-39.5-6.4-58.1-6.3-18.7.1-39.2,5.4-57.6,6.3-14.5.7-26.2-1.8-39.9-2.6-6.8-.4-13.1,1.6-19.6,1.3-19.1-.7-33.8-15.5-37.1-33.9-42.2-9.4-35.4-68.6,9.6-66.2Z"/>
  <path d="M1196.7,663.6c-2.8-1-5.6-1.8-8.5-2.5-31.2-7.7-74.9-1.8-106.9,3-35.7,5.4-69.5,16.8-102.1,32-105.7,49.3-187.1,130.7-276.8,202.6-6.2,5-18.4,15.9-24.7,19.1-4,2-28.6,5.1-34.8,5.7-39.3,4.3-78.8,1.6-117.7-4.6-9.7-5.3-18.8-13.2-27.5-20.2-112.2-89.9-230.2-212.2-378.9-234.6-33.2-5-78.8-11.3-111.1-2-1.4.4-2.9.9-4.3,1.4,20.5,195.2,134.7,362.6,296.8,456.3,16.2-12,33.4-22.5,52.1-30.9,14.7-6.6,36.9-14.4,53.1-15,6.7-.2,11.2,4.1,17.2,6.4,12.9,5,22.7,4.7,35.8,6.8,7.6,1.2,15.3,3.8,23.1,5.1,20.6,3.3,41.3,5.2,62,8,17,2.3,30.1,5.8,47.8,5.1,7.5-.3,10.8-.2,18.3,0,17.4.7,30.5-2.9,47.2-5.2,31.9-4.3,63.7-9,95.4-13.8,8.6-1.3,17.2-2.9,25.4-6,7-2.7,10.4-6.8,18.5-6.4,13.8.8,33.1,6.9,45.9,12.3,20.9,8.8,40.2,20.2,58.1,33.5,162-93.7,276.2-261,296.8-456.2Z"/>
  <path d="M445.5,770.1c3.3,18.3,18,33.2,37.1,33.9,6.6.2,12.8-1.8,19.6-1.3,13.8.9,25.5,3.3,39.9,2.6,18.4-.9,39-6.2,57.6-6.3,18.6-.1,39.6,5.4,58.1,6.3,14.4.7,26.2-1.8,39.9-2.6,6-.4,10.9,1.2,16.4,1.4,20.7.5,36.7-13.9,40.4-33.9,41.9-9.1,35.5-68.2-9-66.2-3.6.2-9.8,2-13,1.3-1.6-.3-7.6-4.5-10.8-5.5-8.8-2.7-11.8-.7-19.9-.3-16.2.8-32.3.6-48.5,1.3-21.8.9-43.7,3.5-65.4,2.6-29.9-1.2-59.8-2.4-89.7-3.9-8.1-.4-11.1-2.4-19.9.3-3.2,1-9.3,5.2-10.8,5.5-3.2.6-9-1.1-12.4-1.3-45-2.4-51.8,56.8-9.6,66.2Z"/>
</svg>