<?xml version="1.0" encoding="UTF-8"?>
<svg id="Layer_1" xmlns="http://www.w3.org/2000/svg" version="1.1" viewBox="0 0 1200 1200">
  <!-- Generator: Adobe Illustrator 29.0.0, SVG Export Plug-In . SVG Version: 2.1.0 Build 186)  -->
  <path d="M1196.5,664.7c-5.2-1.5-10.6-2.8-16.1-3.7-3.4-.5-7.4-.4-10.6-1.5h-37.9c-7.9,1.7-16,2.3-23.9,3.8-61,11.9-118.3,31.1-167.7,69.8-8.2,6.4-14.8,15.2-22.8,21.1-8.8,6.4-18.9,11.2-28,17.1-32.9,21.5-55.1,53.4-82.4,80.8-17.5,17.6-31.9,28.5-54.5,39.4-24.7,11.9-65.7,32.6-91.7,37.6-4.1.8-9-.5-13.5-.2-4.8.2-10,2.2-14.5,2.4-12,.5-24.5-.9-36.4-1-9.4,0-19.7,1.3-29,1-4.8-.1-10-2.1-14.9-2.4-4.4-.2-9.4,1-13.5.2-20.7-4-47.5-17.4-67.1-26.3-22.5-10.2-42-18.3-61.2-34.1-36.1-29.9-60.2-71.2-100.3-97.4-9.1-5.9-19.3-10.7-28-17.1-7.9-5.8-14.6-14.7-22.8-21.1-49.5-38.6-106.7-57.8-167.7-69.8-7.9-1.5-16-2.1-23.9-3.8H30.2l-1,.6c-8.7.8-17.3,2.4-25.7,4.7,21.5,200.4,141.7,371.2,311,463,9.3-6.8,18.9-13.4,28.9-19.7,15.9-10,36.4-21.9,55.1-25.2,4.6-.8,18.5,0,24,.2,7.4.3,14.4,1.7,21.5,2,5.7.3,14.4-.9,19.5.1,4.7,1,10.9,7.7,14.9,10.6,19.1,13.4,40.9,19,63.8,22.6,15.5,2.4,31.3,6,47,6.6,36.6,1.4,74.7-6.9,109.8-16.4,11.4-5,20.1-12,30.1-19.1,9.6-6.8,16-3.9,27-4.4,13.7-.6,27.4-2.7,41.2-2.7,22.5.1,57.1,24.6,75.6,36.9,4.3,2.8,8.4,5.7,12.4,8.6,169.5-91.8,289.8-262.7,311.3-463.3Z"/>
  <path d="M513.3,813.2c35.8,1.8,71.2-2,107.3-.6,49,1.8,152.9,10.5,148.2-63.8-1.3-20.2-11-36.5-27.7-47.8-9.1-6.1-28.4-12.7-39.3-13-5.1-.1-11.2,1.5-15.6,1.4-6.9-.2-17.8-3.4-25.6-4.3-36.1-4.2-84.9-4.2-121,0-7.8.9-18.7,4.1-25.6,4.3-4.4.1-10.5-1.5-15.6-1.4-23.1.6-56.5,19.2-63.4,42.1-17.8,59.2,27.6,80.6,78.4,83.1Z"/>
</svg>