<?xml version="1.0" encoding="UTF-8"?>
<svg id="Layer_1" xmlns="http://www.w3.org/2000/svg" version="1.1" viewBox="0 0 1200 1200">
  <!-- Generator: Adobe Illustrator 29.0.0, SVG Export Plug-In . SVG Version: 2.1.0 Build 186)  -->
  <path d="M752.7,897.4c-7.3,2.5-4.4-5.9-9.4-7.5-2.3-.7-6,1.7-8.8.7-6.9-2.3-17.8-12.8-26,.8-12.8,21.5,16,30.3,31.2,16.3-2.7,21.6,20.2,24.1,26,5.2,17.6,21.2,48,8.7,31.1-18.1,15.4-4.6,27.2,7.2,41.5,0-.3,29.1,19.1,18.6,36.1,11.4,13.1-5.5,8.8-2.4,21-4.8,37-7.3-10.2-68.7-23.4-19.6l-4.9-9.3c-11.5-3.8-15.1,1.3-10.6,11.9l-15.6,5.2c9.7-22.2-12.3-21.2-17.6-26.6-1.5-1.6-.8-6.8-3-8.6l-9-.9-4.3,8.7,7.9,5.3-5.2,14.3c-7,2.2-3.9-4.3-8.3-6-9.6-3.8-18.5-3.5-17.7,8.6-12.3-11-31.8-4.1-31.1,13Z"/>
  <path d="M555.5,1055.5c-7.7,5.7-27.8-29.1-45.7-7.9-3,3.5-2.7,8.2-5.5,10.7-.8.7-16.7,9.9-17.7,10.2-6.9,2.1-2.2-6.8-4.2-9.9-2.9-4.6-19.5-4.8-20.2,6-1.1,14.9,17,8.4,17.8,9.2,1.4,1.6,1.4,14.6,11.9,14.6,2.2,0,23.3-15,19.5-19.9l13,6.6c-14.6,14.8,7.2,33.1,14.2,16.7,1.9-4.4.4-10.5,1.7-12.5,1-1.6,7.2-1.3,9.4-3.5,2.7-2.7,11.2-16.1,14.3-19.5,1.3-1.4,4.3-.4,4.5-.7,19.8-29.6-32.7-29.9-13,0Z"/>
  <path d="M659.7,1133.8c2.7-2.2,26.4.6,18.4-17.8-7.4-17.1-21.7-6.6-29.2,4.5,3.6-9-10.4-16-10.5-17.1-.1-2.1,2.8-6.5,2.9-10.2.2-12.3-11.2-12.4-20.9-11.6,1.3-4.1-2.7-13.5-1.4-15.7.6-1.1,16.2-15.1,19.3-13,2.9-8.2-6-19.5-14.7-16.3-2.8,1.1-3.1,4.4-5.2,6-2.2,1.8-6.6,1.9-8.6,3.8-3.8,3.8-1.7,10.7-2.7,11.6-.8.8-7.7-.1-10.9.7-2.9.8-6.9,4.1-8.4,3.9-2-.2-9.6-11.3-19.4-7.1-9.7,4.2,7.2,23.5,15.6,18.2v7.6c-15.7-2.2-14.2,19.1-20.8,22.3-4,1.9-9.3-2.3-13.8-1.5-1.6.3-1.7,3.9-2.6,4.3-5.3,2.3-13.8.9-13.8,10,0,11.7,12.6,7.5,17.9,9.6,6.5,2.6,13.7,12.8,23.6,9.5,3.1-1,3.5-5.8,5-6.7,3.7-2.2,8.1-1.7,12.1-4.8,13.6-10.6,3.7-21.8.1-34.9h14.2c1.1,4-4.5,5.4-4,11.5.3,3.4,2.6,6.2,5.4,8l23.3-1.4c1.8,5.8-5,10-5.1,14.2,0,3.8,3.9,7.4,4.2,10.9,1.3,14.8-3.5,31.3,21.4,14.9,7.9-5.2,7.2-12.6,8.4-13.6Z"/>
  <path d="M452.9,801.5c3.5,7.3,14.4,6.1,19.4,9.2,4.1,2.6,5.9,11.9,12.4,13.7,6.9,1.9,10.8-2.3,14.8-2.2,1.6,0,1.5,6.9,8,6.8l14.2-6.8-2.3,20.6,7.2.3c-5,25.3,29.3,16.7,23.4-1-1.1-3.2-6.1-4.2-8.6-7.2-1.8-2.2-1.5-6.3-4.3-8.7-1.9-1.6-10.1-2.5-10.2-5.3-.4-7.8,13.6.8,16.3.7,5.2-.2,13.4-6.6,16.1-6.4,3.4.3,11,13.7,19.5,8.5,7-4.3,4.1-18.6,5.7-25.5,1.5-6.4,7.6-10.6,6.8-18.1-2.8-25.4-39.6-15.6-34.5,11l-8.7-2.9-2.8-14.1c-10.6-4.3-12.2.6-13.4,10.3l5.4,2.8c-7,5.9-11.3,12.5-10.4,22.1-14.7-7.1-11,8.3-23.3,7.8,1.9-12.7-4.7-22-18.2-20.8,3.7-8.7,7.3-33.2,2.8-40.3-6.6-10.3-12.4-4-19.3-4.4-5.5-.4-5.9-7.2-11.9-.7-1.4,1.5-4.7,6.3-4.6,7.9l9.3,10.3c-6.4,6.7-12.7,24.2-8.7,32.4Z"/>
  <path d="M619,817c-7,11.8,3.6,24.6,16.9,20.8-8.5,23.9,17.8,20,22.9,23.8,9.1,6.8-3.3,30,13.5,37,12.3,5.2,27.3-.7,25.9-15.2-.4-3.9-3.9-9.6-5.2-14.5-8.2-3-18.6-6.7-22.1-15.7-3.2-8.3,8.8-21.8-11.7-29.7,24.6-8.4,19.6-12.3,16.7-32.3-1.3-8.8,5.8-19.8-12.6-15.9l-1.6,10.5c-19.5-5-20.2,21.1-26.4,25.5-3,2.1-13,.2-16.3,5.7Z"/>
  <path d="M705.3,872.3l7.2-11.1c8.1,4.6,12.3,13,22.8,9.9,1.8-.5,29.6-19.8,30.6-21.4,6.7-10.3,1.8-21.9-10.5-23.8-12.3-1.9-12.5,9-17.5,12.1-5.7,3.6-18.8,4-26.1,6.9-2.8,1.1-2.6,4.3-5.2,5.7-11.4,6-19.1-2.9-13.5,18.4,4,1.5,7.6,5.9,12.2,3.4Z"/>
  <path d="M994.1,893.6c-14.1,7-7.3,21.5,7.8,19.5-10.8,11.9.5,42.2,16.9,41.7,7.4-.2,14-8.5,25.6-3l4.2-6.3-11.2-6.5-1.8-7.8c8.2,4.7,11.5,1.3,16.9-5.2.7,28.6,42.9,19.2,31.1-5.2-7.4-15.3-25.5-2.6-28.1-3-3-.4-8-7.1-10.9-6.9-6.8.5-6.9,15.8-11.6,17.6-4.2-11.5-12.5-26.4-26-18.1-3.8-17.9-.2-12.6,6.2-21,7.1-9.4,9.4-14.3,2.6-25.4-15.4-25.3-49.8,11-21.8,29.6Z"/>
  <path d="M545,890.8c1.7,12.3,24.5,15.1,26.1,1.4,8.4,7.8,11.9,9.6,23.2,5.2.8,4.2,2.7,11.4,7,12.7,6.1,1.7,14.9-7.5,17.8-2.4,3.1,5.6-1.6,10.3-.2,15.7,5.3,20.2,39.8,17.6,35.2-9-.8-4.7-4.9-7.5-6.3-11.6-1.7-5,.3-13.7-6.7-17.2-14.3-7.1-23.3,6-24.6,5.9-1.4,0-4.2-4.3-7.9-4.6-3.5-.3-7.6,2.7-10.1,2.2-4.3-.9-11.8-25.1-23.6-4.8-3.4-9-10.9-9.5-16.1-13.7-2.3-1.9-3.5-7.8-7.3-9.6l-6.3,4.2c3.2,8.5-1.3,18.2-.2,25.4Z"/>
  <path d="M893.7,942.3c-3.1-6.4-7-6.4-13.8-6,7.9-23.9-26.8-20.3-16.9,0,2.6,5.2,11.1,2.6,9.1,10.3-10.9-13.1-27.9,9.3-35.8-3.1-3.1-4.9,1.1-22.5-15.3-25-5-.8-23.9,8.8-24.3,13.9.3,17.5,18.3,17.1,26,22.2,1,.7-5.6,16.9,9.9,20,12.5,2.5,15.4-5.9,20.1-6.3,4.8-.4,13.2,7.5,19.6,3v-19.6c8.1-.9,8.1,7.9,7.7,12.9l8.8-.3c3.7.4,5.5-21.1,5-22.2Z"/>
  <path d="M430.9,1067.2c11.7,14.8,11.5-.2,16.3-3.1,2.4-1.5,6.7-.6,9.5-2.1,7.4-4.1,11.4-13.7,10.6-21.9,16.2,19.5,38.7-8.5,25.3-22.7-5.2-5.5-15.1-3.4-17.6-4.8-1.1-.6-7.6-9.6-10.3-11.4,32.3-6.2-4.5-39.6-8.1-6.4l5.5,6.4c-18.6-1.1-26.4,13.6-15.6,28.5-10.5,7-12.5,1.1-23.4,0l.5,12.4,9.8.5c-2.7,5.2,5.8,17.3,5.2,18.1-.5.7-9.1.8-7.8,6.5Z"/>
  <path d="M263.1,850.7c2.3,6.8-2.1,17.1,13.3,15.7,7.9-.7,5.5-9.4,9-12.1l10.6.5,2.5-9.3c.9-1,8,9.9,17.1,2.8,6.7-5.2.8-12,1.4-12.9,6.7-10.3,16.2,3,23.7,1.9,15.8-2.4,12.6-17.6,9-28.7-1.5-4.7-6.2-9.1-6.6-11.5-.7-3.8,6.3-10.7,4.7-20.1-2.4-14.4-23.4-15.9-29.3-3.4-6.3,13.4,6.5,18.9,5.7,23.6-.5,2.4-5.6,4.7-7,8.7-1.1,3.2.5,9.1-.9,10.7-1,1.2-7,.2-8.9,2.8-2.1,3-.3,8.1-1.2,11.3-.7,2.1-9.5,5.2-7.7,12.3l-10.5-1.5-5,11.8c-4.1-8.1-5.1-23.8-17-22.4-2.9.3-8.4,8.6-8.6,11.3-.3,4.4,5,6,5.8,8.6Z"/>
  <path d="M539,1021.7c9.4,2.8,13.9-10,15.6-10.3,2.1-.3,5.2,1.7,7.8,1.8,2.7,0,7.9-2.1,8.5-1.6,2,1.4-1.5,11.8,11.7,12.5,2.8.2,7.3-3,8.8-2,.8.6,1.4,5.9,5.6,8.8,22.3,15.1,38.9-18.9,20.1-27.8-13-6.1-15.2,3-21.4,3.3-1.1,0-7.9-12.9-19.5-7.9-.6-6,6.1-15.3,0-19.6-8.6-1.1-17.1-1.5-24.3,3.9l-1.7,18.4-20.7-2.6c-5,3.8,5.1,19.8,9.4,23.1Z"/>
  <path d="M722.6,1136.2c3.3,2.5,8.3,1.4,11.1,3.2,3.1,2,5.3,9.1,12.7,9.6,5.3.4,7.3-3.6,10.9-4.6,4-1.1,8.4,0,11.8-1.2.8-.3,11.4-10.8,11.7-11.5,2.5-7.6-.2-20.2-10.6-18.7l-12.3,10c-1.2-20.2-42.5-52.7-46.7-19.2-.7,5.6,7.8,29.8,11.3,32.5Z"/>
  <path d="M683.4,1184.6c8.4-2.5,7.4-14.9,21.5-14.7,1.4,0,12,20.6,16.2-5.1l-24.3-18.4,1.1-15.4c-16.1-7.5-29.3,1.7-17.9,17.8-37.3-2.7-30.4,45.9,3.4,35.8Z"/>
  <path d="M445.3,837.9c-4.6,15.9-20.6,11.1-17,27.2,2.1,9.6,19,12.1,22.1,1.3,8.6,14.9,16.9,2.1,22.9,3.1,9.6,1.6,24.3,17,37.6,6.6.3-9.6,17.1-24.5,1.8-28-8-1.8-5.1,5.8-10.2,5.6-8.9-.3-14.4-9-24.7-4.1-2.3,1.1-4.3,5.7-6.5,5.8-3.1.2-15.3-10.7-17,3.2l-5.1-7.7c13.6-2.1,6.6-13-3.8-13Z"/>
  <path d="M1092.5,828.6c-4.5,6.2-.1,9.1.3,14.4,35.7,8.2,14.4-34.4-.3-14.4Z"/>
  <path d="M1108.3,902.6l-15.6-10.4c3.1-5.8,12.2-5.8,13-14.3,1.3-12.7-11.4-14.9-12.7-17.2-.4-.8,0-13.2-.3-17.7-5.4-1.2-22.5-8.4-23.6,3.8-1.4,15.4,7.8,17,7.8,18-.4,4.7-4,7.7-1.8,15.2,1.8,6.4,14.6,10.2,12.5,12.2-.7.7-4.6-.1-7.4,4.4-10.8,17.6,21.6,32.2,23,8.6l9.6,6.5c2.8-4.7,5.6-9.4,8.3-14.1-3-9.9-15.5-15.6-12.8,5Z"/>
  <path d="M765.6,1157.9c-4.4,3.2-1.1,11.3-2.9,13.9-.9,1.3-11.6,5.6-18.2,10.7,13.6-3.4,26.9-7.2,40.1-11.4,1.5-11.9-6.6-22.3-19-13.2Z"/>
  <path d="M127.2,920.8c7.3,6.4,14.3-2.9,18.9-2.1,2.9.5,5.2,5.2,10.7,4.8.9,0,11-10.7,14.5-11.8-6-9.4-13.1-6-21.3-1.1-3,1.8-.8,5.8-4.6,5,4.9-13.7-16.6-21.1-22.3-13.1-2.9,4.1,1.7,12.9-3.7,13.1-.6-18-29.5-22.5-31-3.6,0,.6,0,1.1-.1,1.6,6,9.8,12.3,19.4,18.9,28.9,12.8,6.8,27.6-7.1,20-21.6Z"/>
  <path d="M899.4,990.7c-10.1,19.4,17.7,26.6,22.2,10.4,13.6,11.9,30.2-2.9,33.8-16.7-1.7-7.2-8.4-12.2-15.7-11.8,6.5-13.1,1.9-22-13.2-17-4.8,3.5,2.9,13.6-14.3,14.2,2.8,20.2-9.2,13.9-12.8,20.9Z"/>
  <path d="M662.3,1070.8l10,.4-7.8,14.2c4.5,6.9,9.3,2,15.6,1.4,1.2,1-12.5,20.2,2.7,27.1,21.7,9.9,16.1-18.9,18.5-21.6,1.5-1.7,9.7,1,9.9-6.6.6-15.6-13.3-28.8-28.4-19.7,1-24.9-29.5-16.4-20.4,4.8Z"/>
  <path d="M334.8,989.7c-.6-4.2-4.1-7.7-4.4-10.9-.6-5.9,6.2-15.7-3.3-20.4-12.7-6.4-18.3,8.8-30.1,11.6,2.2,8.4-3.4,14.9-3.9,22.1-.4,5.2,3,13.4,2.6,14-1,1.4-9.8.9-7.5,9.3l7.8,2.7,2.7-9c15.1,3.8,39.1.9,36.2-19.3Z"/>
  <path d="M359.5,1073.9c22.6,1.4,22.9-27,1.3-26.2l10-2.9c4.9-6.8,0-22.8-8.7-23-5.8,0-9.6,6.5-13.4,7-3.2.5-6.9-2.1-10.1-1.9-28.4,1.5-17.2,42,9.1,25.9-.6,10.4-1.2,20.1,11.7,21Z"/>
  <path d="M752,946.2c3.8-6.7-1.4-19.2-10.4-17.2-9.4.8-7,8.6-10.3,11.9-5.6,5.6-15.7,1.6-15.1,17.4,1.1,30,35.7,8.8,39.1,11.8-11,11.4,5.9,22.3,10.5,6.4l-7.9-6.5c10.3-11.1,3.1-19-10.4-18.1-2.5-6.7,3.9-4.5,4.5-5.7Z"/>
  <path d="M140.2,872.9c4.9,2.4,8.8-.6,13.2,0,4.1.6,6.6,4.4,13.8,3.7,25.1-2.3,17.7-42.8.6-41-2.3.2-31,17-32.7,19.2-4.3,5.7-.5,15.3,5,18Z"/>
  <path d="M802,998.6l4.2,7.5c13.8,5.3,29.1-19.6,18.1-28.5-7.4-6-16.3-.9-17.1,8-9.9-9.8-8.4-20-26.8-15.1-18.4,18.3-.3,42.7,21.6,28.1Z"/>
  <path d="M290.8,1106.2c4.9-2.9,3.9-12.2,5.4-14.1.3-.4,9.1,0,9.5.2,1.5,1.1,10,15.8,17.6,4.9,12.3-17.5-20.1-16.3-24.2-21.5-2-2.5.5-10.7-5.8-13.8-8.3-4.1-15.9,8.5-10.6,15.5,3.6,4.7,13.7-3.7,10.7,9.3-2.7,3.1-9.6-11.1-21-1.5-5.6,4.7-6.2,10.4-4,15,4.3,2.9,8.6,5.6,13,8.4,3,.2,6.3-.5,9.4-2.4Z"/>
  <path d="M503.5,945.4c-6.6,3.4-3.8,11.6-5.6,13.8-1.3,1.6-13.1,1.4-16.4,8.3-4.4,9.2-1.1,22.7,10.6,23.3,14.2.7,15.6-10.7,22.7-19.8,1.9-2.4,6.5-3.1,9.3-7.7,7.4-12.3-8.1-24.2-20.5-17.8Z"/>
  <path d="M395.8,840.4l-7.8-12.9c-8.8,2.3-16,24.5-4.8,28.2,5.8,1.9,9.1-1.7,12.7-2,1.5-.1,1,3.3,2,3.8,5.8,3,10.2,7.6,17.4,5.3,3.9-1.2,19.4-16.5,18.1-21-12.7-7.3-26.3-14.8-37.6-1.4Z"/>
  <path d="M1082.9,956.3c1.2-1.7,2.5-3.4,3.7-5.1-1.6.9-2.9,2.4-3.7,5.1Z"/>
  <path d="M215.1,951.6c12.4-18.8,3-61.3-23.9-41.3-13.1,9.7,9.9,50.3,23.9,41.3Z"/>
  <path d="M411.2,796.2c29.9-8.8-2.9-39.1-22.6-33.1-16.6,5.1-8.7,42.3,22.6,33.1Z"/>
  <path d="M904.4,936.2c7.4-2.2.4-11.6,1.5-12.8,17.8,9.4,16.8-5.9,21.4-9.7,1.8-1.5,6.8-.8,8.6-3.1,3.5-4.3-1.1-11.3-1.5-15.7-5.3-1.8-9.8-7-16.5-4.9-3,.9-20,20.6-21.6,25.1-3.4,9-6.6,25.5,8.1,21.1Z"/>
  <path d="M948.5,900c8.1-.5,32.4-16.4,30-24.6-11.8-12.4-33-8.3-42.9,3.9-4.4,5.5-1.7,9.5-1.2,15.5,4.8,1.7,7.9,5.5,14.1,5.2Z"/>
  <path d="M876.5,988.8c-22.1,1-30.3,36.6-2.9,38.2,23.6,1.4,25.4-39.2,2.9-38.2Z"/>
  <path d="M154.4,965.7c-2.9.3-5.2,5.1-7.7,6.8-11.7-10.6-17.5-8.6-18.7-2.1,8.2,10.4,16.7,20.5,25.5,30.3,2.7-.5,5.6-1.5,6.9-2.8,4.7-4.8,10.8-34.1-6-32.2Z"/>
  <path d="M986,951.5c3.5-18.6-4.5-20.3-20.4-19-2.2-1.4.7-15.2-5.7-18.9-6.2-3.6-20.8,1.1-19.6,10.7,1.1,8.5,8.1,9,11.5,12.9,1.8,2.1,1.2,6.5,4.6,9.6,6.5,6,21.6,10.3,29.6,4.7Z"/>
  <path d="M1047.2,871.3c-4.4.6-3.6,3.5-4.8,4.2-3.7,2.1-9.6,1.8-9.4,7.5,23.7,59.3,67.1-18.8,14.2-11.8Z"/>
  <path d="M593.5,868.6c27.9,9.3,11.5-46.8,6.3-50.4-2.2-1.6-10.7-2.1-12.8-.8-5.9,3.7,1.3,12.9,1.3,13.9,0,9.9-3.7,3.3.8,20.9,1.3,5.1-2.4,14.1,4.4,16.4Z"/>
  <path d="M1044.7,988.2c2.3,2.3,5.9,3.4,9.9,3.5,7.9-9.1,15.4-18.5,22.7-28-.3-.3-.5-.5-.8-.8-13.6-12.9-46.7,10.7-31.8,25.3Z"/>
  <path d="M237.3,1024.5c1,3.4,10.4,17,13.6,17.8,9.1,2.4,9.2-7.3,12.1-11.8,1.1-1.7,5.4-2.1,6.5-5.1,1.5-4.2.3-15.3-2.8-18.5-9.8-9.8-35.4-2-29.4,17.6Z"/>
  <path d="M823.5,1131.4c-7.6,10,2.6,13.8,5.7,20.2.4.8.7,1.8.9,2.7,7.8-3.2,15.4-6.6,23-10.1,0-4.3-.8-7.9-1.9-9.3-4.4-5.9-22.1-9-27.8-3.5Z"/>
  <path d="M414.1,1034.9c10.2-19.9-30-32.6-24.2-1.9.6,3.2,4.6,7.7,4.5,8.4-.1,1.5-18.7,9.1-3.3,19.1,24.5,1.3,13.1-18.9,14.1-20.2.5-.8,6.9-1.3,8.9-5.4Z"/>
  <path d="M623.8,775.7c2.2-2.3,1.2-6,2.4-7.1,1.8-1.8,6.9-1.2,8.6-3.2v-8.1c-12.3-5.2-31.8-14.3-39,2.8-8.8,20.8,18.9,25.1,28,15.6Z"/>
  <path d="M1011.2,970.1c-3.2-2.9-8.2-5.9-12.6-4.9-11.1,2.8-4.3,14.4-5.6,20.5-1.8,9.1-15.4,13.9-4.1,24.6,16.9,16.3,26.4-28.1,22.3-40.2Z"/>
  <path d="M669.7,940.2c11.8,5.9,11.4-4.9,13.3-6.1.8-.5,5.1,2.4,8.1,1.7,5.4-1.3,11.3-5.5,17.6-5.9l2.3-11.5c-13.2-3.5-32-19.1-30.9,5-12.9-8.9-22,11.1-10.4,16.9Z"/>
  <path d="M306.9,902c6.6,6.6,46.2-2.9,34.4-22.7-8.3-14-49.7,7.5-34.4,22.7Z"/>
  <path d="M626.8,1163c-10.8.9-15.3,17.5-7.8,24.9,2.4,2.3,27.3,6,30.1,4,11.2-8.2-9-29.9-22.3-28.9Z"/>
  <path d="M395.8,990.8c-3-6.6-15.6-10.9-21.5-7.2-1.2.7-1.5,4.6-3.2,5.8-2.4,1.7-15.2-2.2-11.7,9,6.6,20.8,46.8,15.5,36.4-7.6Z"/>
  <path d="M575,1176.5c5.3.3,5.9-5.1,7.4-5.9,6-3.3,13.1-1.6,14.7-10.1,4.5-23.6-21.7-26.3-27.5-9-1.6,4.7,1.6,11.4-3.7,16.9l9.2,8.1Z"/>
  <path d="M350.4,878.4c-4.2,17.7,18.6,20,18.3,3.5,8.4,3.8,21.2-3.2,16.8-12.9-6.2-13.6-18.5-.5-29.9-5.3,4.3,9.7-5,13.9-5.2,14.7Z"/>
  <path d="M515.8,999.3c-8.3-6.9-20.2-2.9-20,8.4.1,6.2,7.5,7.7,11.4,11.8,2,2.2,2.2,9.1,5.5,10.1,12.7,4,14-21.3,3.1-30.3Z"/>
  <path d="M514,758.9c3.1,1.5,22.1.3,24.7-4,10-16.5-13.8-18.5-25.5-15.1-10.5,3.1-5.9,15.8.8,19Z"/>
  <path d="M787.9,939c-3.9-8.3-21.6-12.3-23.3,2.1-2,17.3,11.3,10.1,16.6,13.5.5.3-3.2,8.5,4,10.2,3.6.9,7.4-4.9,8-7.7.9-4.1-5.1-5.6-6-9.5-.5-2.2,2.1-5.7.7-8.7Z"/>
  <path d="M237.8,830.2c-4.9,1.6-9.1,25.2-4.3,29.9,12.7,17.2,31.6-33.8,4.3-29.9Z"/>
  <path d="M417.2,965.3c-7.2,1.6-19.6,11.8-12.5,19.2,25.2,16.4,40.9-25.3,12.5-19.2Z"/>
  <path d="M267.2,792.6c3.2,2.2,41.3,4.4,30.2-12-2.1-3.2-24.8-5.9-28.3-4.8-5.8,1.8-6,13.9-1.9,16.8Z"/>
  <path d="M595.6,1190.6c20.6,8.4,23.2-29.5-2.2-20.6-7.7,2.7-9.3,15.9,2.2,20.6Z"/>
  <path d="M687.1,942c-14.3,4.2-.3,24.2,8.6,21.9,18.8-5,7.5-26.7-8.6-21.9Z"/>
  <path d="M201.6,1035.4c-3.9.4-6.9,2.5-8.8,5.3,5.5,5,11,10,16.6,14.8,6.9-6.5,4-21.2-7.9-20.1Z"/>
  <path d="M461.1,926.2c-7.8,2.6-5.8,22.6,4.8,23,18.4.6,14.4-29.4-4.8-23Z"/>
  <path d="M822.5,1154.4c-6.7-4.2-17.9,2.5-19.1,10.3,7.1-2.5,14.1-5.2,21-8-.5-1-1.2-1.8-2-2.3Z"/>
  <path d="M261.9,922.3c5.4,6.6,14.7,4.3,18.1-3.2l-7.5-21.7c-13.9-1.4-7.9,6.2-9.1,11.6-1.1,5-6.8,6.7-1.5,13.2Z"/>
  <path d="M206.8,819.5c2.9.8,14.1-3.7,15.7-5.7,8.7-10.6-5.7-15.7-15.6-14.5-10,4.3-8.1,14.5-.2,20.1Z"/>
  <path d="M432.7,926.4c-9.5,2.8-9.4,17,0,19.8,19.6,5.9,19.6-25.6,0-19.8Z"/>
  <path d="M447.5,819.2l6.7-12.5c-14.3-.1-10.4-5.5-13.5-9.6-7.3-9.9-12.8,6.3-9.5,15.8,1.7,4.9,11.3,5.2,16.3,6.4Z"/>
  <path d="M338.5,939c3.7,11.8,17.4,8.7,21.1,0,.7-1.8-3.7-12.3-4.3-12.7-5-3.2-20.2,1.8-16.8,12.7Z"/>
  <path d="M225.9,862.2l-10.1,1.9c-9.7,52.2,26.7,11.3,10.1-1.9Z"/>
  <path d="M307.4,1058.1l6.5-16.5-14.2-6.2c-7.7,1.4-4.7,26,7.7,22.7Z"/>
  <path d="M375.9,827.1c15.1-9.3-25.1-25.5-15.2-.8,2.6,1.7,12.8,2.3,15.2.8Z"/>
  <path d="M444.9,995.7c8.8-2.8,1.5-20.6-7.5-17.9-6.7,2-6.8,22.5,7.5,17.9Z"/>
  <path d="M840.9,997.1c-17,5.3-2.5,20.4,7.5,14.1,3.5-2.2,6.3-18.3-7.5-14.1Z"/>
  <path d="M725.9,820c-8.6,2.2-10.4,16.7,2,15.3,13.5-1.5,7.7-17.8-2-15.3Z"/>
  <path d="M697.6,1192.2c5.4-.9,10.7-1.8,16-2.8l.2-6.8c-12.3-2.1-17.5,4.6-16.2,9.6Z"/>
  <path d="M728.8,791.7c-7.5-7.4-19.3,4.4-11.8,11.8,7.5,7.4,19.3-4.4,11.8-11.8Z"/>
  <path d="M1053.2,828.1c-8.4-8.1-16.8,2.1-11.2,9.9,6.4,9,19.2-2.2,11.2-9.9Z"/>
  <path d="M404,923.6c-10.8,1.9-5.6,18.1,4.8,15.4,7.9-2.1,2.1-16.6-4.8-15.4Z"/>
  <path d="M703.1,832.4l.2-12.6c-19.3-1.7-19.7,17.3-.2,12.6Z"/>
  <path d="M865.7,1125.6c-4.7,1.4-5.4,9.6-2.1,13.6,3.8-1.9,7.6-3.8,11.4-5.7-.1-4.8-3.2-9.7-9.3-7.9Z"/>
  <path d="M456,954.9c-9.1,2.4-7.2,13.9-.5,14.5,10.1,1,13.3-17.9.5-14.5Z"/>
  <path d="M560.7,853.4l-2.1,8.7,8.2,6.7c14.6-5.6-.5-19.6-6.1-15.4Z"/>
</svg>