<?xml version="1.0" encoding="UTF-8"?>
<svg id="Layer_1" xmlns="http://www.w3.org/2000/svg" version="1.1" viewBox="0 0 1200 1200">
  <!-- Generator: Adobe Illustrator 29.0.0, SVG Export Plug-In . SVG Version: 2.1.0 Build 186)  -->
  <path d="M356.6,1150.6c4.3,3.6,9,4.7,13.8,3.9-5.2-2.2-10.3-4.4-15.5-6.7.5,1.2,1,2.2,1.7,2.8Z"/>
  <path d="M909.4,856.5c-10-9.2-11.8-6.3-22.2-5.5-1.4.1,0-5-5-5.2-15.5-.7-25.9,13.5-6.6,18.5,2,7.1-4.2,4.5-7.9,8.9-1.9,2.3-1.7,6.5-3.3,8.4-3,3.5-11,5-11.2,12.5,0,2.5,2.4,6.1,4.4,7.7,4.2,3.3,15,2.7,12.9,7.8l-7.7,3.9c-5.7-17.9-10.2-3-13.8-.8-6.2,3.8-14.5.3-14.8,12.7-.4,18.9,16.4,8,22,7.5,14-1.1,24.4,2.8,37.6,3.9-1.5,4.9-6.8,3.2-9.2,10.2-2.7,7.8-1.5,18.7,6.8,22.3,4,1.7,7.6-.9,10.3.1,5,2,14.5,13.7,23.5,2.6,10.8-13.2-7.7-18.1-11.9-22.3-4.9-4.9-2.4-14.7-16.9-12.9,12.9-10.4,14.8-27.9-2.6-33.7,5.6-6.4,6-12.3,5.2-20.7,8.6-1.9,3.8,5.8,5.7,11.1,4.3,12,16.3,7.8,23.9,12.5,4.7,2.9,5.4,10.2,11.1,12.3,11.4,2.8,13.1-6.9,13.9-7.4,6.2-4.1,4.8,13.2,17.4,15.1,8.2,1.2,11.1-6.1,15.4-6.9,4-.7,8,4.7,12.6,4.7,9.7,0,7.3-11,9.7-14.8,4.5-7.1,20.6-9.1,7.1-26.6l10.4-4c1.2-4.9-8.2-10.7-12.9-9l-2.9,10.1c-13.7,2.8-15-8.2-19.7-9.8-13.2-4.7-21.1,9.3-13.8,20.4-9.9,0-15.5,4.6-19.5,13-23.7-7.3-13.8-42-45.4-31.2v-10.4c.4-.6,6.9,4.3,9.7,4.8,5,.9,43.6-10,46.2-12.5,5.9-5.6,5-22.7-3.2-25.6-3.2-1.1-9,.6-10.8-.8-1.1-.9-1.6-13.7-9.2-12.4-5.1.8-7.7,10.7-6.8,15.4-19.3-6.4-34.6,5.5-28.6,25.9Z"/>
  <path d="M719.2,787.3c-5.5,3.5-6.8-4.7-13.6-5.9-28.4-5.1-26.7,46,6.5,36.4-2.1,16.5,14.6,18.4,12.9,1.4l-10.2-4.1c5.3-3.3,4.6-14.7,5.2-15.6.2-.3,3.6,2.3,7.5,1.2,8.8-2.5,13.8-11.7,14.7-11.8,3.2,0,8.2,4.7,13,5.3,17.8,2.5,24.8-9.6,21.9-25.9,4.8-.3,2.8,7.2,5.8,9.7,7.5,6.4,24.8,1.6,25.4-9.7,11.2,11.3,28,.9,35.9-9.5-2-10.6-13.9-26.1-25.7-17.8-.9.6-10.1,19.6-12.8,16.9-3-3.1-5.6-16-13-19.4-14.7-6.7-30.7,6.5-28.5,22-17.6-6.7-31.4,17.7-44.9,26.6Z"/>
  <path d="M622,1001.1c4-8.5,1-14.4-.6-22.7h15.5c-.8,8.6,1.9,15.8,11.7,15.8,12.3,0,9.4-8.7,13.2-15.7,1-1.8,4.9-2.2,5.6-3.3,2.1-3.4,1.9-23.8-3.4-25.3-6.6-1.9-23.5,11.9-19.4,20.7l-8.9-10.4c-8.3,2.8-18,5.1-17.1,15.5l-7.7-14.3c-15.5-5.4-17.1,3.5-15.7,16.9-5.7-2.7-3.3-10-11-13.6-9.7-4.5-15.7.5-21.6-.4-3.5-.5-5.8-7.6-10-6.7-1.4.3-16,15.2-11.6,19l6.2,4.4c8.4,2.1,6.4-6.5,11.6-7.9-2.8,10.5,6,16.8,2.6,25.9-16.6-6.9-20.3,6-18.2,20.7-10.2-5.3-20.2-3.5-25.5,7.1-1.2,28.2,38.5,22.8,28.2-4.5h7.8c-7.6,21.2,19.8,25,18.4,3.9-.4-6.1-5.9-5.3-10.7-6.5,2.1-12.8,4.5-12.8,15.6-18.1-2.1,13.7,6.7,24.5,21,19.6,1.5-.5,23.2-18.8,23.9-20.2Z"/>
  <path d="M690,1006.7c1.2,13.6,12,8.8,14.2,10.8,1,.9-.1,15.3,8.1,19.2,19.6,9.4,16.1-5.9,18.2-15,.5-2.2,5-.9,5.4-5.6.4-5-.8-10.6-2.7-15.2-3-4.7-23.3-5.1-28-10.3-1.7-1.9-1-6.8-3.2-8.4l-4.1-1.4c-12.9,2.1-28.5,4.3-24.6,20.9-10.7-1.1-18.3.9-18.2,13-4.5-.2-1.4-4.9-7.5-6.7-17.2-4.9-13.9,5.3-19.1,8.6-4.9,3.1-22.2,6.3-24.9,15.5-4.6,15.4,12.6,11.7,17.3,14.3,2,1.1,1.7,9.5,9.6,7.2,4-1.2,5.1-11.7,3.9-12.9-1.4-1.4-11,2.8-10.4-2.6,12.3-5.3,31,.2,31.2-18.2,13.2,15.3,31.1,5.5,25.9-12.9l8.9-.2Z"/>
  <path d="M779.5,1098.7c-7,2.4-5.3,7.8-10.2,9.3,2.2-10.7-2.2-22.8-14.5-23.4-8-.4-10.6,7.3-12.7,7.3-4.9-.2-13.5-12.9-14.4,10.9-20-16.5-31.5,17.3-7,17.8l9.5-10c7.8,29.2,23.5,10.8,38.9,0l5.2,18.1c-15.3.8-22.8,10.5-21.1,25.6-22,2.4-1.9,29.8,5.7,8.1,8.3,3.2,13,10.6,22,5.3,19.5-11.3,7.4-29.4,10.1-33.9,2.2-3.5,12-5.4,14-12.3,4.2-14.6-11.3-27.9-25.7-23Z"/>
  <path d="M839.4,1146.9c-1.8-8.5,5.7-3.7,10.3-6.4,7.6-4.6,2.2-13.2-.3-19.1-5.3-3.4-11.2,3.6-14.4,4.1-6,.9-16.2-5.5-23.6,1.5-6.4,6-3.4,15.7-5,20.1-2.2,6.1-7.3,13-9.3,19.9,17.2-6,34.1-12.7,50.6-20.2-2.8-.3-5.7-.2-8.4.2Z"/>
  <path d="M833.5,1027c-3.6-1.6-11.3-1.6-12-2.3-1-1,0-6.8-1.7-9.9-6.6-12.3-35.5-15.2-39.7-.9-2.7,9.4,3.7,17-2,26.4-6.7,11.2-18.5,10-29.5,13.4l.9,10.3,17,2.4c-7.3,11,7.2,22.6,18.2,16.9,1.3-.7,14.8-22.7,15.1-24.1,1.2-5.3-4.3-12.1.3-15l8.9-1.3c12.2,28.5,46.4-6.4,24.3-16.1Z"/>
  <path d="M992.6,969.2c-7.4-12.5-1.9-12.7-.7-21,2.2-15.8-19.9-8.6-22.9-9.9-2.8-1.3-3.7-6.7-5.7-8.3-8.8-7.3-20.6,1.6-29.1-5.9-12.9,3.1-2.7,10.4-1.5,17.1,1.6,8.7-1.1,26.1.5,30.6,1.6,4.6,7.2,3.1,9.4,4.9,2.2,1.8,2.8,8.4,7.1,12.3,13.1,12,31.5-1.2,27.4-18.2,5.1,2.8,11.4,3,15.6-1.4Z"/>
  <path d="M1015.6,941.8l-15.1.5c-2.7,5.6-1.7,11.9,2.2,16.8l13.2-.3,7.6,14.2c-10.7,2-16.1,13.6-10.3,23.4-29.8-5.4-25.4,39.9-.7,29.2,17.1-7.4,7.5-20.5,8.5-21.4,11.8,3.5,24.4-5.5,25.4-17.3.6-7.3-9.3-13-9.3-15.1,0-1.7,7.2-6.9,7.2-13,0-5.9-5.9-9.1-6.5-12.9-.8-5.6,5.7-18.1-7.8-19.5-10.6-1.1-13.9,6.2-14.4,15.3Z"/>
  <path d="M821.7,798.9c-1.5-3.5,4.7-10.4.9-15.1-4.1-6-17.9,0-15.9,8l9.2,6.4-5.2,9.1c-10.6-8.6-18.8-1.7-12.9,10.4l-14-2.5-5.6,10.4c-11.8-.8-19.6-11.4-32-7.6-1.6,28-16.6,9.4-23.9,18.9-10.3,25,12.1,16.3,15.9,18.3,6,3.2,7.4,21.2,20,24,22.4,5,14.4-22.9,28.8-32.4l-4.8-18.9,14.3-5.2c-.3,5.7,17.5,8.4,20.4,7.6,8.1-2.2.6-15.8,6.8-17.9-1.7,11.5,10.7,10.9,12.5,13.5,2.1,2.9-.3,12,4.8,15.3,23.1,15,60.7-29.5,6.4-29.1l-3-15.2-16.9,7.8c-.6-3.3-5.7-5.4-5.9-5.8Z"/>
  <path d="M364.5,839.7c3.6,1.6,5.7,11.4,10,15.7,4.3,4.3,12.7,5.8,13.2,6.4.9,1.3-9.9,18.7,13,24.7,29.1,7.7,30.5-44.9-2.6-32.6-1-14.1-5-43.9-24.1-40.9-11.1,1.7-11.5,14.4-12.3,15-.8.6-16.6-7.1-17.5,3.8-1.1,13.3,18.1,6.8,20.3,7.8Z"/>
  <path d="M840.1,883.2c5.6-3.6,14.2.7,19.4-10.5,9.3-20.1-11.9-25-27.8-18.8-4.1-27.5-41.5-23.5-36.4,6.4.3,1.9,6.6,20.5,7.5,21.1,2.6,1.9,8.5,1.8,11.5.7,3.4-1.1,10.9-17.9,17.2-8.7-6.4,1.9-7.2,13.7-7.8,14.3-.7.7-11.8-7.6-16.9,2.6-10.9,21.8,30,26.7,19.5,0,10.3,3.1,10.8-5.2,13.7-7Z"/>
  <path d="M613.8,889.3c4.5,12.4-9.8,22.6,1.5,34.8,10.5,6.8,20.7-3.5,21.6-2.8.3.3.4,5.2,3.8,7.9,2.5,2,6.8,2.2,9,4,11.3,9.6,18.7,26.3,31.4,1.1,4.3-.7,2.8,6.5,6.5,7.7,7.6,2.5,11.8-7,7.8-13-3.5-5.4-11.3.6-11.8.1-.7-.7-1.5-12.8-10.5-16.8l-33.3-1.8c-2.7-7.5-7.5-12.8-16-12.5,9.2-9.3,3.8-15.8-7.9-11.8l-2.2,3.1Z"/>
  <path d="M671.8,747.5c-6.4,7.3-16,24.2-1.9,28.2,17.4,4.9,15.1-9,19.9-12.8,7.4-5.9,27.7.3,24.9-24.1-2-17.3-20.3-13.2-22.9-15.2-1.3-1-2.2-5.7-5.7-8.4-20.3-15.6-36.2,24-5.2,24.6-.4,4.1-6,3.9-9.2,7.6Z"/>
  <path d="M647.5,833l-2.8-20.5c-11-2.7-8.2,6.7-11.1,9.7-3.7,3.7-14.4.5-12.3,14.8,2.2,15.3,19.5,8.9,20.5,9.6.9.6.9,5.9,4.5,7.2,4.4,1.5,28-.7,32.8.6,3.6,1,5.5,6.7,11.1,7.5,11.7,1.8,17.3-8.5,13-18.4-13.3-6.1-21.9-20.3-38.5-17.5-7.8,1.3-6.7,10.9-17.2,7Z"/>
  <path d="M1076.9,913.7c-7.9-1.3-5-10.7-15.2-10.4-12,.3-30.9,7.7-22.6,22,11.9,20.6,22.6-1.2,34.9-.6,5,.2,11.2,11.1,19.6,16.5,6.9-9.9,13.5-20.1,19.8-30.5-2-2-4.8-3.6-8.5-4.4-16-3.5-17.1,9.2-27.9,7.4Z"/>
  <path d="M376.7,791.1c3.5,7.3,10.3,6,12.9,9.1,3.7,4.2,3.6,16.5,17,14.4,8.1-1.2,9.3-9.2,10-9.5.8-.4,10.4,4.5,15.2-3,1.7,2.4-7.4,31.1,11.8,20.7v-18.2c.1,0-14.4-7.7-14.4-7.7,10.6,3.2,22.7,5.7,23.6-9.1,1.3-21.8-29.6-15.6-26.3,3.8l-22.9-2.8c3.4-28.8-40.3-25.7-26.9,2.3Z"/>
  <path d="M882.2,807.4c7.5-.7,6.1-11.6,14.3-10.5-7.9,10.7-5,16.3,2.6,25.9-17.5-1.4-4.7,21.2,6.6,10.5-2.6-16.4,2.5-7.8,10.4-15.5,10.5-10.2.5-27-14.4-23.5l2.6-12.9c-14.5-.3-24.1-10.5-39.9-10.5-4.7.7-6.6,38.8,17.8,36.6Z"/>
  <path d="M494.2,943.6c-6.5,43,73.9,19,31.1-6.7v-2.5c13.2-1.9,14.7-24.2,1.1-26-18.7-2.5-22.4,23.9-32.2,35.3Z"/>
  <path d="M708.9,1082.3c11.1-3.1,34.3,0,37-14.5.9-4.7,0-15.1-3.3-18.7-9.7-10.4-37.9-6.1-45.7,6.2-2.9,4.6-7.7,11.2-9.3,13.9-4.7,7.9,2.1,13.6,9.1,16.7,11.5,5.1,9.4-2.8,12.2-3.6Z"/>
  <path d="M782.3,980c-1.1-12.6-17.2-19.5-25.9-10.6-2.4,2.4-2.4,6.6-4.2,8.7-6.4,7.4-13.8,7.8-11.4,22.2,2.1,12.4,16.5,12.7,18.2,14.4.4.4-3.6,6.2-2.3,11.1,3.3,12.6,24.8,7.9,20.5-9.4-.5-1.9-4.2-1.7-4.5-2.3-3.8-6.8,10.5-24.8,9.7-34.1Z"/>
  <path d="M414.5,958.4c-12.8,15.9.8,54.9,24.1,35.7,1.2-1,15.2-23.7,15.7-26,2.3-11.5-6.2-24.2-18.3-23.4-4.1.3-19.2,10.8-21.5,13.7Z"/>
  <path d="M492.8,1047.2c-3-.4-5.7-4.6-9-5.5-3.3-1-7.4,1.8-7.7,1.5-.6-.6.3-5.9-2.7-9-12.7-13.5-38.3,8.7-20.8,23.3l20.7,1.4c-4.1,29.9,49.1,9.3,40.4-7.9-4.7-9.3-15.2-3.1-20.9-3.7Z"/>
  <path d="M382.5,1149.4c-.6-.8,7.1-8.2,2-18.7-3.1-6.3-8.3-6.1-9.2-7.7-3.2-5.6,2.3-21.3-13.5-15l2.6,12.9c-11.7.5-13.2,7.8-13,18.2-4.1.8-2.6-4.9-5.1-6.6-6-4.1-11.5-.8-14.4,4.4,6.1,3.1,12.3,6,18.6,8.9.3-.6.6-1.2.9-1.5,1.6-1.5,2.5,1.1,3.5,3.5,5.1,2.3,10.3,4.5,15.5,6.7,2.3-.4,4.6-1.2,6.9-2.4l1.2,5.7c4.2,1.7,8.5,3.3,12.8,4.9,4-10-7.5-11.5-8.7-13.3Z"/>
  <path d="M478.6,825.4c-2.9-12.2-14.9-16.7-24.8-7.8-9.7,8.8-3.7,17.1-4.3,17.9-.6.8-4.8,1-6,2.8-6.3,9.4,3,26.3,15,23.1,5.8-1.6,14.1-17.9,19.6-20.3,7.2-3,13.8.9,20.9-.4,8.2-19.2-4.1-25.1-20.4-15.3Z"/>
  <path d="M565.5,789.2c3.1,7.4,11,2.3,11.6,2.7,2,1.4,1.5,20.2,16.9,20.8,26.3,1,27.5-39.3,2.7-38-3.3.2-6.6,4.3-10.2,4.3-1.5,0-1.4-3.6-2.3-4.3-7.8-6-18.3,3.9-19.9,11.9-33.3-19.8-15.5,41.6,1.3,2.6Z"/>
  <path d="M896.4,1073.1c-14-10.4-31.1,7.8-42.8,14.1-4.7,17.4,8.8,26.7,22.1,13-3.9,18,22.7,22.5,25.4,5.9.5-3.2-1.6-6.7-1.2-9.4,1.2-8.7,9.8-13.7-3.5-23.6Z"/>
  <path d="M358.6,849.4c-11.4-11.3-38-1.9-29.2,17.5,3.4,7.6,16.3,9.7,16.9,10.5.6.8-6.1,12.6,0,18.1-42.9,6.9,16.1,44.1,2.6,0,8.2,1,14-2.4,17.8-9.5,2.2-7.2-4.2-8.8-10-8.7-1-1.1,11.5-18.4,2-27.9Z"/>
  <path d="M422.9,1074.4c8.6-8.5,0-15.3,1.6-21.7.8-3.3,6.2-5.2,7.4-10.9,5.6-27.7-23.8-20.9-30.3-2.5l6.9,11.6c-2.2.2-5.3-.6-7.1.6-13.8,8.7,3.8,40.4,21.5,22.9Z"/>
  <path d="M343.6,1043.2c24.9-32.5-30.5-50.5-26-7.8-11.8-12.6-30.3,9.6-15.6,16.9,14.4,7.1,15.6-7.8,19.7-8.8,3.6-.8,12.9,6.5,19.2,2.3-2.7,5.7-4.1,12.7-2.1,18.9,2,6.2,9.1,6.3,9.7,7.2.4.5-3.2,6.4-1.4,12.8,6.2,21.3,24.2,4.2,12.2-14.2,38.3-15.4,8.3-26.9-15.8-27.4Z"/>
  <path d="M529.1,758.3c48.7.7,11.9-46.1-12.4-38.7-17,5.2-8.4,38.3,12.4,38.7Z"/>
  <path d="M619.8,765.6c-.5,2.1-1.1,28-.7,29.5,4.3,15.1,25.5,7.5,23-8.5,5.2,3,20.8,5.5,23.1-1.5,3.1-6.8-6.5-14.9-12.1-16.1-3.6-.8-8,2.4-8.4,2.1-.4-.3-.7-7.3-3.2-9.8-5.7-5.6-19.6-3.8-21.7,4.4Z"/>
  <path d="M562,916.5c-5.7,8.9,6.5,11.5,7.2,14.2,1.2,4.1-4.2,11-2.1,17.4l5.6,5.1c5.1,2.3,17.5-7.2,21.4-11.1,3.3-3.3,2.8-7.3,4.6-9.6,2.6-3.3,9-2.8,9.7-10,1.3-13.6-17-13.5-26.2-13.1l-2.5,9.3c-1.6,1.5-13.4-9.1-17.8-2.3Z"/>
  <path d="M463,992.7l10.6,19.2,21.9-7.6c2-.4.7,3.3,2,4.2,29.8,20.6,39.7-37.6,4.3-26.4-11.6,3.7-4.2,13.3-24,11.3-5.3-.6-9.6-8.9-14.8-.7Z"/>
  <path d="M1054.7,984.9c.4,2,1.1,3.5,1.8,4.4,4-4.7,8-9.5,11.9-14.4-3.7,1.9-7.5,3.7-11.8,3.5-3-.4-2.3,4.6-1.9,6.5Z"/>
  <path d="M237.9,874.2c11.5-2.2,7.5-9.3,11.2-15,1.4-2.1,5.2-2.6,6.4-4.5,3.5-5.7,2.9-18.1-.9-23.3-8.4-11.6-30.7-6.2-30.5,10.9,0,5.5,3.7,8.7,4.2,12.8.9,7.6-7.5,22.4,9.7,19.1Z"/>
  <path d="M1035.9,1009.8c-4.3,1.1-9.4,7.3-9.8,12.6,4.2-4.3,8.4-8.6,12.5-12.9-.8,0-1.7.1-2.6.4Z"/>
  <path d="M593,731l6.3-3.5c10.7,3.3,7.3,16.1,9.5,19.7,2.5,4.2,25.7,7.7,19.9-10.7-1-3.2-5-4.9-5.8-6.9-1.5-3.8,3.1-6.7-2.5-13.3-1.5-1.7-17.5-11.1-19.7-11.7-17.2-4.9-16.4,28.7-7.7,26.4Z"/>
  <path d="M409.8,1100.5c.2,5.6,13.4,28.5,18.2,28.2,6.6-.4,3.5-12.3,4.1-12.7,1.1-.7,4.9.5,6.7-.9,7.5-5.6,7.9-20.3,2.1-27.8-9.9-12.8-31.8-2.2-31.1,13.2Z"/>
  <path d="M603.2,826.9c-2.2-14.5-28.9-16.6-31.3,0-1.9,13.7,7.3,15.3,15.5,20.8,1.9,1.3,2.2,6,4.5,6.4,3.8.7,10.1-3,10.9-2.5.9.7.7,5.8,4.5,7.1,19.2,6.7,13.8-20.6-4.2-10-2.8-7.2,1-15.4,0-21.9Z"/>
  <path d="M543.2,827.1c0-10.9-2.7-27.3-16.6-25.1-8.7,1.4-17.4,28-11,35.7,9.9,11.8,27.5,4.7,27.5-10.5Z"/>
  <path d="M320.4,943.6c18.6-20.6-10.6-35.5-21.1-17.9-1.8,3-7.9,29.6-6.4,32,4.7,7.5,15.2,4.5,18.4-2.8,1.4-3.3-1.6-7.3-1.4-7.5.5-.5,6.9.3,10.6-3.8Z"/>
  <path d="M316.8,802.3c18.4,11.8,34.2-15.9,21-28.1-.8-.8-20.3-7.8-21.5-7.7-9.2.8-6.8,31.2.5,35.8Z"/>
  <path d="M471.9,737.5c21.8,19.8,43.7-24,9.3-26.1,9.9-7.9,1.9-17.7-7.8-11.7-6.4,4,2,8.3,2,10.4,0,1.8-17.4,14.7-3.5,27.4Z"/>
  <path d="M719,925c-12.7-8.1-17.4,6-13.8,15.4,1.9,4.8,7.1,6.7,8.1,9.3,1.3,3.3-3,10,1.2,16.5,6.4,10,27.1-2.7,19.7-13.8-1.5-2.3-6.8-3.1-7.9-5-2-3.3,6.8-13.4-7.4-22.4Z"/>
  <path d="M255.1,881.2c0,1.8,5.8,23.3,6.8,24.5,12.8,14.7,35.7-2,22-18,11.3,1.4,20.2-6.8,17.9-17.9l-12.7-1.7-7.9,17-5.1-1.8c-.1-13.7-21.5-16.7-21-2.1Z"/>
  <path d="M809.3,1074.1c-.8,12.6-1.4,47,19.7,40.6,9.3-2.8,6.8-7.6,7.7-14.5-9.9-2.6-6.1-40.4-27.4-26.1Z"/>
  <path d="M843.2,1084.7c-8.1-1.7-6,11.7-6.5,15.5,16.4,4.4,15-13.8,6.5-15.5Z"/>
  <path d="M229.2,976.9c-12.5,17.7,11.1,36.7,25.5,21.6,15.1-16-12-40.6-25.5-21.6Z"/>
  <path d="M457.2,735.3c-5.8-5.7-22.2-.7-30.5-3.2-10.3,45.5,51.4,23.9,30.5,3.2Z"/>
  <path d="M198.4,940.7c.7-7-16.9-20.9-24.2-18.9-8.3,2.3-12.8,14.1-7.2,21.8,5.6,7.7,30.2,9.1,31.5-2.9Z"/>
  <path d="M872.9,1052.6l-7.3-4.5,2.1-12.4-11.2-2.7c-2.7.8-9.1,23.5-8.8,26.7,1.8,18.1,29.1,12.2,25.1-7.1Z"/>
  <path d="M335,813.2c-8.2-10.1-24.6-5-25.4,8.3-1.6,26.5,43.6,14.1,25.4-8.3Z"/>
  <path d="M665,1046.2c-8.2-2.4-20.4-12.8-26.4-2.3-2.6,7.2,7.3,22,16.5,20.1l-7.8,2.6c-4.4,11.2,10.5,18.2,12.7,8.7.7-3-2.3-6.9-1.8-9.7.6-3.3,12.2-10.6,6.8-19.3Z"/>
  <path d="M114,929.2c4.1-5.8,8-32.2-5.3-32.7-16.4-.7-9.6,11.3-10.4,18.4-.3,2.4-3.9,4.6-3.9,8.4,1.4,2.1,2.8,4.3,4.2,6.4,4.8,3,12.5,3.5,15.3-.5Z"/>
  <path d="M242.2,939.4l7.5-16.3c-8.3-8.7-5.3-24.2-21.1-19.4-5.8,1.8-7.9,6.8-6,12.5.6,1.8,8.5,18.7,9.2,19.6,2.7,3.4,6.2,4.4,10.4,3.6Z"/>
  <path d="M306.9,815.8c4.1-14.6-18.1-20-20.1-4-.8,6.4,3.6,7.2,7.4,11.1,3.8-1.5,10.4.7,12.6-7Z"/>
  <path d="M298.1,851.3c14.1-11.7,4.6-20-3.9-28.5-24.6,10-10.8,40.7,3.9,28.5Z"/>
  <path d="M270.1,958.1c-12.3,3.7-8.4,26.6,6.7,22.5,14.6-4,11.1-27.8-6.7-22.5Z"/>
  <path d="M365.7,774.9c6.3-.3,20-17.5,14.1-22l-22.8,3c-5,9.2-3.3,19.7,8.7,19.1Z"/>
  <path d="M405.2,754.8c9.9-10.2-5.1-28.5-16.9-16.9-10.7,10.6,8.3,25.5,16.9,16.9Z"/>
  <path d="M295.9,1113.6l-2.4,2.3c5.1,3.1,10.3,6,15.6,8.9.5-5.1-4-9.4-13.1-11.3Z"/>
  <path d="M487.9,771.2c-10.4,13.8-22.4,25.3,5.9,22.7,3.8-10.7,12.7-24.3-5.9-22.7Z"/>
  <path d="M664.2,812.7c17.2-.2,13.7-26.9-4.9-20.7-6.4,2.2-8.4,20.9,4.9,20.7Z"/>
  <path d="M1067.4,951.7c-2.7-9.7-16.2-10.1-20-4.1-11.1,17.5,26.2,26.1,20,4.1Z"/>
  <path d="M282.7,1089.9c12.2,1.9,16.4-12.5,11-17.5-14.9-13.9-29.1,14.7-11,17.5Z"/>
  <path d="M209.2,880.1c2.8,1.5,1.6,5.3,5.8,5.2,10.1-.2,13.8-7.2,8.9-15.5l-14.1,2c-1.2,0-1-3.7-1.7-4-3.4-1.4-6.2-1.1-9.7-.9-2.4,15.2,5.3,10.1,10.9,13.2Z"/>
  <path d="M485.2,768.4c5.8-12.1-13.8-21.1-19.2-12.5-8.8,14,12.7,26.1,19.2,12.5Z"/>
  <path d="M734.3,724.3c7.5,2.1,7.1-4.8,9.9-6.9,2.4-1.8,8.5-1.6,9.5-4.8,4.5-13.9-19.6-7.3-22.9-3.5-2.1,2.4-.5,14,3.5,15.2Z"/>
  <path d="M359.4,1019.6l10.4-1.3c3.2-3.8,2.1-20.2-.3-21.8-10-6.5-13.9,17.4-10.1,23.1Z"/>
  <path d="M727.4,721.3v-12.3c-5.3-2.7-9.8-2.2-14.1,2.3l1.6,12.9,12.4-2.9Z"/>
  <path d="M800.2,908.1c2.6-1.6,6.6-15.7-5.6-14.8-15.3,1.2-4.8,21.2,5.6,14.8Z"/>
  <path d="M993.7,843.6c7.1-2,6-19.5-7.4-15.3-9.4,2.9-1.3,17.8,7.4,15.3Z"/>
  <path d="M454.2,911.2c-8.1,2.6-5.3,21.3,7.2,12.4,9.2-6.5,2.2-15.5-7.2-12.4Z"/>
  <path d="M940.8,1001.9c-7,9.8,12.5,18.8,15.3,8.8,2.6-9.3-11.5-14.2-15.3-8.8Z"/>
  <path d="M476,984.8c2.9,10.1,22.3,1,15.5-9-2.6-3.8-18.2-.7-15.5,9Z"/>
  <path d="M472.1,908.4c-6,1.1-6.5,18.2,4.7,15.2,12.9-3.5,3.4-16.7-4.7-15.2Z"/>
  <path d="M372.1,978.4c-6.4-4.7-20.5,11.3-6,15.1,11.4,3,8.6-13.3,6-15.1Z"/>
  <path d="M584,1040.8c-10.1,3.1-1.3,18.6,8.9,11.5,6.8-4.7.7-14.5-8.9-11.5Z"/>
</svg>