<?xml version="1.0" encoding="UTF-8"?>
<svg id="Layer_1" xmlns="http://www.w3.org/2000/svg" version="1.1" viewBox="0 0 1200 1200">
  <!-- Generator: Adobe Illustrator 29.0.0, SVG Export Plug-In . SVG Version: 2.1.0 Build 186)  -->
  <path d="M361.3,1152.1c.9,0,1.7-.2,2.4-.4-4-1.7-8.1-3.5-12.1-5.3,1.3,3.6,4.2,5.9,9.7,5.8Z"/>
  <path d="M317.1,1129.2c-1.5-.8-3-1.6-4.5-2.4.9,1.5,2.5,2.4,4.5,2.4Z"/>
  <path d="M864.1,854.3c-7.4-1-8.8,5.7-14.4,8-1.8.7-15.1,4.8-15.9,4.8-1.2,0-3.8-12-18.1-10.5-3,.3-26.9,14-30.3,16.7-6,4.7-18.5,19.6-12.8,27.3-10.7,2.2-6.4-3.6-10.3-9.1-7.9-11.1-14.2-4.1-22.2-5.1-2.6-.3-5.4-3.8-10.3-4.2-14.4-1-12.7,11-25.7,8-6.7,15.3,6.4,10.9,13.9,14.5,7.2,3.5,20.4,16.2,27.5,16.6,1.8.1,24.3-2.4,25.5-2.8,4.1-1.4,4.2-6.2,4.2-10.1,12.7,13.8,24.5-4.9,27.2-5.1,7.7-.5-2,11.1-2.6,12.9-5.2,15.7-1.4,19.4,9.1,31l-7.9,6.5c6.4,16.6,21.5,8.7,13.1-6.4,15-1,24.5-14,19.6-28.7-1.5-4.5-8.8-10.2-8.8-11.5,0-1.2,4.8-5.4,5.9-8.9,2.2-6.9-2.8-15,1.4-22.1l5.2-1.4c-.7,5.5,6.3,5.9,7.4,9.4,1.4,4.4-.5,10,1.1,14.5,1.9,5.4,8.6,13.9,9,19.2.6,7.7-9,18.5-1.9,29.4-15.8-.6-12.5,15.1,1.2,15.6l4.3-9.9,10-.4c-18.4,20.2,13.7,21.9,15.5,11.4l-5.1-8.8c21.8-1.3,22.3-37.3.3-36.6-5.3-14.9,10.5-26.7,2-39.7-1.8-2.7-6.3-3.5-6.9-4.6-3-5.3,3.7-18-10.3-19.8Z"/>
  <path d="M835.2,1120.5l1.9-13.3c-3.3-6.7-7.6-8.4-14.5-5.1-12.5,6-1.3,15.6,1.1,23.5,3.3,10.8,4.7,12.3,7.7,19.5,1,2.4,1.5,5.1,2,7.8,11.1-4.7,22.1-9.7,32.8-15.1,0,0,0-.1,0-.2l-31-17.1Z"/>
  <path d="M804.2,1153.8c-3.7,1.5-4.1,12.6-13.4,2.1,30.4-22.2,10.3-49.6-20.8-29.8-14.7-35.4-40.6,20.2-2.7,7.8,2.1,7.2-7.8,12.5-6.6,18.3,2.9,13.8,12.8.3,22.2,5-4.7,8-5.3,12.8-3.9,15.6,15.5-4.8,30.7-10.3,45.7-16.3-4.9-3.8-9.2-7.3-20.5-2.7Z"/>
  <path d="M884.2,1092.4c-1.8-13.7,15.5-9.7,19.5-18.1,9-19-13.4-22.7-27.2-18.1l-2.4-9.3c-8.2,1.9-12.9-4.7-14.1-5.2-26.2-10.7-22.3,12.2-14.6,15.9,5.4,2,21.2-1.9,23.5,5.3,2.6,8.1-6.8,6.6-9.3,11.4-5.2,10.2,3.1,23.2,14.3,23.4-8.9,10.1-1.5,12.8-.5,20,.8,5.9-3.6,9,1.6,15.8,11.3-5.8,22.3-12,33.2-18.5-6.2-7.7.6-27.3-23.8-22.6Z"/>
  <path d="M671.5,1085.8c-6.1-4.4-13,3.3-13.2,9.2-11.8-5.4,8.6-20.4-3.6-31.4-10.3-8.1-22.5,2.5-26.2,2.2-3-.3-4.9-7.1-9.9-6.7-14.2,1.1-6.9,13.5-7.8,18.6-2,11.3-26.3,37.3,2.2,38.2,9.4.3,18.7-.1,28.5.2,4,.1,10.9-3,11.4-2.7,2.4,1.8,0,9.3,11.9,10.4,10.3.9,10.9-3.2,16.9-5.4,3-18.1-2.9-16.8-10.2-32.6Z"/>
  <path d="M730.7,1137.4c2-5.6-2.2-14.4-5.1-19.6-1.6-2.9-4.8-1.9-4.9-2.1-.8-1.3,17.9-20.2.7-25.4-23-7-27.2,25.2-3.4,22.9l-5.2,10.3c-4,.2-2.9-5-6.6-7.5-10-6.9-16-.7-24.5,2.4-.5,3.3-.3,6.4-1.7,9.8-1.7,4.1-8.4,2.1-6,9.7,2.7,6.3,16.3,2.5,21.7,6.3,3.1,2.2,1.4,10.5,8.7,12.8,13.4,4.2,12.6-5.5,17.8-12.4,2-2.7,7.3-3.4,8.6-7.1Z"/>
  <path d="M650.6,1012.1c2.5,9.4-6.7,7.6-9.3,15.4-5.7,17,10.9,28.9,26.9,21.8,3.9-1.7,4.1-6.5,5.6-7.3,3.4-1.9,18.7,6.3,10.1-11.3l-10-.4c-.2-1.5,1.4-3.2,2.6-3.9,1.4-.8,28.3-8.3,30.5-8.5,4.6-.6,17.2,5.5,18.9-1.8,1.3-5.9-8.7-7.6-9.8-9.6-3.4-6.1,2.9-13.1-10.3-19.5-14.4-7.1-29.1,1.2-29.2,17.5-7.1-3.7-13.6-3.8-20.7,0,5.8-19.4-21.4-24.4-25.6-8.5-1.4,5.4,1.9,9.4,2.2,13.7,6.3,1.9,11.1,3.8,18.2,2.6Z"/>
  <path d="M610.4,1049.3c3.4-.2,9.9,7.1,16.5,1.3v-14.8c-2.1-3.3-15.3.4-12.6-8.1,15-.1,19.2-3.1,18.2-18.2-3.2-.9-5-5.5-11.4-5.2-12.1.6-15,11.2-9.3,20.7l-11.8,2.5c1.4,7.4-10.3,20.5-3.8,24.9,6.9,4.7,11.4-2.9,14.4-3Z"/>
  <path d="M931,930.6c-6.5,5.4-14.6,23.6-15.8,24.4-.4.3-4.6-3.1-10.1-1.3-29.8,9.7,6.8,48.5,16.7,35.1,2.5-3.4,2.7-16.7,4.2-17.9,1.3-1.1,32.2-6.7,33.2-5.3,1.3,1.7.4,9,3.4,12.2,4.4,4.6,13,4.1,17.7-.6,7-7.1,1.8-12.4,3.8-16.8,1.8-3.9,9.2-6,6.3-14.1-12.8-7.2-47.3-25.6-59.4-15.7Z"/>
  <path d="M670.5,794.1c3.5,1.1,9.5-.4,12.4-2.5,5.3-3.9,1.7-9.8,6.6-10.2,3,18.7,19.6,6.3,26.9,7.6,1.4.2,15.9,18,22.1,15.5l5.5-7.5c17.5,27.3,27.7-11.4,26-28.5h-13s-.4,12.5-.4,12.5l-7.3,3c1.2-10.7-5.8-22.3-17.1-23.2-9.3-.8-12.7-2-20.5-2.9-14.3-1.7-22.1,4.8-24.8,18.3-16.7-14.3-33,3.3-16.4,17.9Z"/>
  <path d="M419.5,854c-12.8-3.1-19.9-22.8-33.4-8.7l.8,14.1c14,3.8,29.4,21.9,32.6-2.8,22,21.5,34.9-7.6,25.9-28.5,10.5-3.6,13.9,8,20,9.8,18.6,5.7,35-9.9,22.7-25.2-7.7-9.5-20.2-9-30.8-5.1-10.9,3.9-10.4,11.8-14.3,14.1-3.2,1.9-14.3-6-23.6,2.4-9.9,9,1.7,19,.1,29.9Z"/>
  <path d="M602,863.4c-11.5,6.8-4.9,24.4,7.9,21.3,7.8-1.9,4.2-11.3,9.6-12.6-.2,21.2,27.4,16.3,39.8,9.9,5.1-2.6,3.4-7.3,5.2-9,3-2.9,9-4.4,10.8-8.6,2.2-5,.4-9.5,1.4-13.7.5-2,3.9-1.8,4.3-2.5,2.7-5.9,2.3-16.7-5.7-17.6-2-.2-26.8,7.1-28.3,8.1-4.5,3-4.4,10.8-8,12.8-4.8,2.6-3.4-6.7-8-10.3-2.6-2-10.4-1.4-11.4,0-3.1,4.4,4,12,4.2,14.3.2,3.1-5.6,9.4-4.2,14.2-5.7-3-10.2-9.7-17.4-6.1Z"/>
  <path d="M379.1,1056.4l-9,.8-2.4,9.3c-7.9-3.6-17.3-18.3-25.9-14.4-2.3,1-5.4,6.5-6.5,6.5-1.4,0-6.3-11.8-24.9-6.6-9.7,2.7-8.9,22.1-7,30.7,4.3,19.1,33.1,16.2,33.2-3.3,4.5-.3,1.9,5.6,5.1,9.1,9.1,9.9,30.6-2.5,26-16.9l9.1,5.1c5.4-3.6,10.4-17.7,2.3-20.4Z"/>
  <path d="M793.3,811.2c-18.5,9.9-1,19.7,14.2,16.7,5-1,8.4-6.4,14.4-5.1-2.3,14.1,16.1,11.4,24.2,7.2,3.9-2,4-7.2,5.9-7.3,4.6-.3,15,8,18.7-4.3,6.9-22.6-33.6-29.7-30.8-6l-8.7.2c-2.3-15.2-15.2-10.2-19.2-13.6-1.9-1.7-.6-11.2-10.8-13.9-17.3-4.5-21.8,17.6-7.9,26.1Z"/>
  <path d="M1043.1,896.2c2.1,6.4,9.8,6.1,10,8.7.6,4.9-5.4,8.5-.5,15.3,6.1,8.3,13.9,2.3,18.3,5,4.9,3,11.7,18.6,23.1,11.4,5.4-13.6-6.7-13-8.7-17.7-1.3-2.9,3.6-8.8-2.4-13.4l-14.5-4.9c23.2-3.8,1.2-49.6-11.2-46.4-2.4.6-16.2,14.6-17,17.2-.9,3.3,1.5,21.2,2.7,24.8Z"/>
  <path d="M486.9,844.6c-6.3,2.1-6.7,7.9-8.2,8.7-4.5,2.5-10.5-1.8-17.8,4.3-13.9,11.4,2.9,32.1,19.2,26.9,5.3-1.7,9.7-11.2,19.9-7.2-2.9,16.7,18.6,21.1,22.5,5.2,1.3-5.4-3.3-7.1-3.4-9.1,0-3.7,16.9-20.8,12.1-27.2-4.9-6.5-12.6,5.2-16.8,5.2-6.3,0-13.4-11.5-27.5-6.7Z"/>
  <path d="M481.9,1043.2c1-1,10.3,14.4,24.5,4.9,4.2-2.8,2.4-8.7,7.9-7.5,5.7,24,29.5,8.7,20.9-2.8-1.4-1.8-5.5-1.5-7-2.7-2-1.5-2.7-4.7-4-4.9-4.6-.8-11.9,3.6-13.4,2.5-2-1.4-.8-8.7-9.6-10.2-8.6-1.5-15.7,1.2-16.8,10.4-7.8-.7-10.2-8.1-19.2-7.7-7.3.3-18,8.6-27.3,8-4,15.9,4.8,12,9.4,15.9,2.6,2.2,1.4,7.6,5,9.9,12.2,8,29.4-1.6,29.5-15.8Z"/>
  <path d="M557.1,856.6c1.3,1.3-15.6,28.9-.9,33.4,5.5,1.7,22-8.8,25.5-12.7,4.5-5.1,2.9-12.2,5.4-18,1.7-3.9,7.1-6.1,8.4-12.4,5.1-22.7-33.9-18-20.3,4.4h-7.8c7.2-11-4-28.5-16.9-23.6-16,6.1-11.2,30.9,6.5,28.8Z"/>
  <path d="M956.9,851.4c2-36.6-36.6-20.7-18.2,3.9,7.3,3.7,12.5.3,18.2-3.9Z"/>
  <path d="M945.2,859.7l-7.8,7.1c.1,17.9,17.5,4.2,19.4,5.4.2.1-.1,4.1,1.9,5.1,15.8,8.4,6.4,4.2,14.4,12.3,4.9,5,26,2.7,29.4-1.8,7.2-9.4-16.4-16.5-16.4-22.1,0-3.4,11.3-12.8-.7-23.3-14-12.3-20.7,3.2-28.5,9-.2,4.6-1.7,8.6-2.6,13l-9.1-4.6Z"/>
  <path d="M490.8,791.8c5.3-6,22.1-9.5,25.8-12.8,2.6-2.4,1-6.7,1.9-7.6,1-1,10.6-.2,16.3-3.3,15.6-8.7,3.3-30.7-14.8-25.1-7.8,2.4-8.2,13.6-9.9,14.8-3.8,2.8-17.9-5.9-25.7-1.1-10.9,13.7-18.6,35.3,6.4,35.1Z"/>
  <path d="M915.3,891.5c-3.8,5.4-10.4,2.9-15.4,5.3-15.5,7.2-11.1,31.6,9,30,5.4-.4,8.1-4.3,10.8-4.7,4.3-.6,9.6,3.9,14,.7l2.5-28.3-10.5-4.4c21.2-33.6-37.9-28-10.4,1.3Z"/>
  <path d="M715.8,1041.3c5.5,20.4,22.6,3,28.1.9,19.7-7.2,46.1,3.5,41.3-29.9-22.3-11.6-30.7,4.6-48.3,12.1-6.3,2.7-25.6.4-21.1,16.9Z"/>
  <path d="M627,811.2c1.8,20.4,33.9,18.4,31.4-4.9-.4-4.1-4.5-8.3-4.3-10.6.2-3.1,7.8-8,7.2-18.2-.6-10.2-11.9-16.6-21.7-13.8-11.3,3.2-13.4,36.8-12.5,47.5Z"/>
  <path d="M762.2,1084.7c-.7-4.4-5.5-15-8.6-17.3-10.1-7.7-36.8-9.9-34.7,8.3.1,1.1,11.9,15.6,13.3,16.8,14.1,12.1,22.5-.8,28.2.4,5,1,14.5,18.5,25.2,3.7,11.2-15.4-13.4-31.7-23.5-11.9Z"/>
  <path d="M525.8,974.7c-3.9-5.5-28.1-6.4-36.2-5.4-6.1,3.1-4.3,11.1-6.6,16.8-2.9,7.3-11.6,7.7-3.4,21.9,8.3,14.4,28.3,3.6,25.7-11.4,17.1,10.3,31.3-6.7,20.5-21.8Z"/>
  <path d="M830.7,1080.9c-1.4-9.8,7.2-20.3-14-19.6-1.8-6.7,10.1-14.4,2.7-19.5-11.7-8.1-39,14.7-33.3,33.3,4.7,15.5,20.2,5.2,24.1,5.4,2.4,0,9,6.5,14.4,4.2-9.4,14.9,10.7,16.4,12.8,6.2.9-4.2-6.2-6.5-6.6-9.9Z"/>
  <path d="M550.6,765.7c-6.1,9,3.6,10.9,3.9,12.3,1.5,6.1-2.2,10.4,3.8,16.5,5,5,17,6.4,18.9,8.3,2,2.1,0,7.3,6.5,10.5l14.9-3.4c.6,35.8,33.5,10.6,11.2-2.4-4.2-2.4-8.1,0-8.4-.4-1.7-2.3-1.6-13.4-7.6-16.7,21.4-20.6-15.7-16.4-27.1-20-4.2-1.3-10.7-12.8-16.2-4.7Z"/>
  <path d="M580.2,1000.7c-3.8-6.4-7.6-4.9-11.8-7.6-2.1-1.4-2.3-7.4-7.2-7-13.4,3.4-19.6,12.1-9.2,23.4-18.5,4.2-9.1,44.4,10.7,27.5l2.3-17c14.8,8.1,23.3-5.7,15.3-19.2Z"/>
  <path d="M696,817.7c-7.9-1.3-7.1-10-9.7-12.3-12.9-11-25.9,11.9-14.9,18.7,3.3,2,8.5,1.2,11.8,3.8,3.6,2.8,3.5,10.2,6.1,12.1,1.4,1,20.3,0,23-.7,26.5-7,2.3-50.1-16.3-21.6Z"/>
  <path d="M1097.5,911.4c-2.3,9.3-.4,15.7,3.2,19.3,5.6-8.5,11-17.1,16.2-25.9l-19.4,6.6Z"/>
  <path d="M1125.9,879.5c-4.3-3-7.5-16-19.8-4.9-17.9,16.2,8.2,21.5,11.4,29.2,5-8.6,9.9-17.2,14.5-26.1-3.3.5-5.5,2.2-6.1,1.8Z"/>
  <path d="M674.7,1054.3c-9.7,11.7,4.8,26,7.4,37.7,12.1,3.2,29.7-2.2,30.7-16.6,1.1-17.2-26.2-35.4-38.1-21.1Z"/>
  <path d="M746.5,829.2c-9.4,3.1-9.3,11.3-6.5,19.7,4.6,13.9,19.6,4.5,24.5,7.9,2.6,1.8,0,19.3,16.6,14.9,7-1.9,8.9-12.9,6.8-18.8-1.7-4.7-7.6-3.1-9.4-4.8-2.3-2.2-1.3-10.1-3.8-11.9-1.6-1.1-6.4-.3-9.6-1.9-6.9-3.4-6-9.4-18.5-5.2Z"/>
  <path d="M468.9,1097.6c-15.8-4.8-13.4,14.7-1.3,13.2,6.1-.8,5.4-6.4,7-7.4,4.8-2.8,28,1.9,34.8-10.9-4-34.7-47.3-30.8-40.4,5.2Z"/>
  <path d="M1039.2,955.8c-21.3-17.1-36.9,16.7-30,35.1,24.4,16.9,48.4-20.4,30-35.1Z"/>
  <path d="M382.2,898.3c5-5.9,7.6-14.2,1.2-19.8-5.2-4.6-25.2-13.1-32.1-11-12.7,3.8-14.3,20.8-4.3,29.2,6.2,5.3,29.3,6.2,35.2,1.6Z"/>
  <path d="M300.2,886.8c-1.3-2.3-6.3-.3-5.2-4.3,2.2-.2,5.4.6,7.1-.5,15.8-10.1-21.4-33.6-12.3.5-16.4-4.9-30.8,12.7-19.4,25.8,11.8,13.6,40.6-3,29.8-21.5Z"/>
  <path d="M419.9,1074c-.8-.5-.9-4.9-2.8-6.1-5-3.3-18.2-2.8-18.3,5-.2,14.4,19,9.5,26,20.9,1,7.6-6.2.1-11.3,4-14,10.4,5.8,28.3,14.2,17,.4-9.8,8.5-12.4,9.5-20.9,3.7-30.9-15.8-18.8-17.3-19.8Z"/>
  <path d="M401.4,798.2c15.8,7.1,27.9-5.3,28.6-20.3-.3-1.8-3.4-1.8-4.1-2.8-23.1-32.6-49.2,11.9-24.5,23.1Z"/>
  <path d="M947.6,1071.6c-2.6,7.7,1.5,11.6,7.2,12.2,7.7-5.7,15.3-11.6,22.8-17.6-9-.1-27.5,1.5-30,5.4Z"/>
  <path d="M1041.8,914.4c-22.4-18-44.1,25.5-18.6,30.3,19.7,3.7,32.6-19,18.6-30.3Z"/>
  <path d="M371,1139.8c1.6-1.4,5.9-1.3,8.3-3.2,15.8-12.3,1.6-35.2-16.1-22.6-6.3,4.5-15.1,22.8-11.7,32.3,4,1.8,8,3.6,12.1,5.3,5-1.9,4.4-9.3,7.3-11.8Z"/>
  <path d="M253.1,936.5l-9.8,3.2c-2.9,10.3,7.1,20.4,15.4,11.4,2.4-2.6,2-7.5,3.1-8.4,1.7-1.5,9-.6,13.5-3.4,24.2-14.9-24.8-49.3-22.2-2.7Z"/>
  <path d="M239.6,849.6c3.4,2.2,3.1,11.2,13.9,5.7,4.4-2.2,11.2-25.4,7.1-29.2-7.6-7.1-32.7,4.1-33.3,11-.9,10.2,7,9.1,12.3,12.5Z"/>
  <path d="M310.5,846.2c.6,4.3-6.6,2.9-7.8,6.6-1.3,4.3,2.6,9.2,6.4,10.8,7.4-3.8,23.4-5.7,14.2-16l-7.7-1.4c11.4-12.9.2-26.6-15.2-17.7l-.3,12.6h-10.4s4,10.3,4,10.3l16.8-5.2Z"/>
  <path d="M347,1018.5c16.1,10.5,32.2-2,22.6-18.7-18.7-12.1-48.2,2-22.6,18.7Z"/>
  <path d="M1070.5,953.1l-17.2-2.8c-6.1,9.9-9.8,35.3,5.8,36.1,3.8-4.5,7.6-9.1,11.3-13.8.3-5,.3-10.3,2.2-13.7l-2-5.8Z"/>
  <path d="M318.4,793l-22.8,1.9c-15.4,38,42.5,28.7,22.8-1.9Z"/>
  <path d="M513.8,1093.2c-15.3,11.5,2,39,19.8,23.8,15-12.8-7.3-33.2-19.8-23.8Z"/>
  <path d="M714.6,841.3c-10.4,3.4-3.8,26.4-.4,33.3,5.8,11.6,20.4.6,19.5-8.8-.1-1.1-6.7-20.1-7.7-21-3.3-3.3-6.7-5.1-11.4-3.5Z"/>
  <path d="M271.1,1041.2c-28.4,6.6-16.7,32.5,9.1,24.8,11.5-3.4,11-29.5-9.1-24.8Z"/>
  <path d="M190.3,898.3c-16,4-5.5,48.8,13.1,30.2,8-8-3.4-32.6-13.1-30.2Z"/>
  <path d="M1009.7,905.9c-4-2.8-17.1.5-23.1-4.5l-9.2,10.9c-2.2,22.3,52,7.3,32.2-6.5Z"/>
  <path d="M596.8,768c2.3-.7,4.7-2.6,5.8-4.7,2.3-4.7-1.1-12.7,3.8-13-4.6,28.8,31.1,21.1,21.7.6-3.8-8.3-17.2-2.6-18.6-3.6-2.5-1.6,0-9.7-11.4-6.9-22.4,5.5-29.1,28-1.2,27.5Z"/>
  <path d="M500.7,789.8c-9.4,9.5-1.3,31.3,14.9,24,19.7-8.8-2-37.1-14.9-24Z"/>
  <path d="M546.7,1091.2c19,9.4,21.2-20.4,15-26.6-13.8-13.8-27.5,18.5-15,26.6Z"/>
  <path d="M878.7,847.2l13.2,1.5-2.3-15.1c15-1.8,3.4-23.3-6.2-20.8-17,4.4-3.4,23.9-4.7,34.5Z"/>
  <path d="M176.3,900.1c12.3-3.7,9.7-30.5-9.3-24.9-15.3,4.5-12.1,31.4,9.3,24.9Z"/>
  <path d="M678.4,867.3c-21.5,5.7-3.6,35.2,17.7,17.9,6.4-9.5-9.5-20.1-17.7-17.9Z"/>
  <path d="M918.7,843.2l6-6-6.7-18.4c-2.7-1.7-5.5-1.3-8.4-.8-8.3,1.6-11.8,7.8-9.3,15.9,1.9,6.1,12.4,9.5,18.5,9.2Z"/>
  <path d="M613.2,957.8c-10.6,3.3-7.9,45.6,12.8,28.4,3.7-6.1-4-31.1-12.8-28.4Z"/>
  <path d="M353.3,861.8c12.5,11.3,29.4-7.1,18.9-17.6-11-10.8-32.6,5.1-18.9,17.6Z"/>
  <path d="M432.7,1000.3c14.8,12.6,27.4-8.4,17.4-18.7-8.6-8.9-32.1,6.2-17.4,18.7Z"/>
  <path d="M1004.1,866.3c17.1,9.8,31.2-27.4,3.5-22.8-12.9,2.2-9.8,19.2-3.5,22.8Z"/>
  <path d="M407,1038.8c1.9,7.3,15.6,10,19.3,4.6.8-1.3,5.8-24.3,3.5-25.9-6.6-4.7-24.8,13.6-22.8,21.3Z"/>
  <path d="M385.1,1017.6c-8.9,2.1-15.3,17.6-1.9,21.9,21.4,6.9,20-26.1,1.9-21.9Z"/>
  <path d="M326.1,1124.8c1.3-5.3-6.4-5.2-7.3-6.9-2.2-3.9,2.5-9.9.9-12.7-1.8-3.2-19.8-10-22.1-7.6l.4,12.6,17.7,5.6c-4,4.4-4.6,8.5-3.2,11,1.5.8,3,1.6,4.5,2.4,2.5,0,5.7-1.3,9-4.4Z"/>
  <path d="M361.2,786.8c17.2-.1,16.7-27.8-4.8-20.6-6.5,2.2-8.4,20.7,4.8,20.6Z"/>
  <path d="M346.5,804.3c6.1-9.6-9.1-25.8-18.1-14.1-13,17,14,20.6,18.1,14.1Z"/>
  <path d="M240.2,936.7l1.7-18.1c-11.1-6.1-22.2-3.6-18.4,10.4,4.1,5.7,9.4,9.6,16.7,7.6Z"/>
  <path d="M579.6,1087.5c-10.2,3.3-8.4,23.2,6.1,19.4,14.7-3.9,6.6-23.5-6.1-19.4Z"/>
  <path d="M469.7,770.7c12.9-3.5.7-25.5-7.3-23-7.4,2.3-3.2,25.9,7.3,23Z"/>
  <path d="M559.6,747c-.5-2-3.1-2-3.9-3-1.8-2.2-3.1-4.6-5.1-6.6-24.8,10.8,16.1,37.5,9.1,9.6Z"/>
  <path d="M370,826.7c-5.9,9.1,4.5,15.8,12.7,11.1,11.3-6.5-1.5-28.4-12.7-11.1Z"/>
  <path d="M530.2,807.5c-8.3,2.6-5.4,20.8,8.7,14.1,10.9-5.2.9-17.1-8.7-14.1Z"/>
  <path d="M1037,835.5c5.7-3.6.6-19.4-10-14-13.1,6.7.6,20,10,14Z"/>
  <path d="M159,976c-10,3.2-2.3,22.1,9,14.2,6.4-4.5,2.3-17.8-9-14.2Z"/>
  <path d="M616.1,895.7c-11.4,3-4.4,18.7,7,15,9-2.9,2-17.4-7-15Z"/>
  <path d="M966,988.8c-7.1,2-6,19.5,7.4,15.3,9.4-2.9,1.3-17.8-7.4-15.3Z"/>
  <path d="M727.4,1167.9c-9.4,2.9-1.3,17.8,7.4,15.3,7.1-2,6-19.5-7.4-15.3Z"/>
  <path d="M546.5,792c-3.9-5.4-17.9-.6-15.3,8.8,2.8,10.1,22.4,1.1,15.3-8.8Z"/>
  <path d="M582.1,1066.8c-10.2,3.2-.1,16.7,7.4,15.3,6.6-1.2,6.5-19.6-7.4-15.3Z"/>
  <path d="M530.9,840.8c4.1-2.9,2.9-14.5-5.8-14.8-14.6-.4-4.7,22.1,5.8,14.8Z"/>
  <path d="M196.1,854.9l-8.6-5.9c-11.6,3.5-6.4,33.4,8.6,5.9Z"/>
  <path d="M421.3,968.4c-11.2,3.1-3.8,17.7,4.7,15.2,6.4-1.9,6-18.1-4.7-15.2Z"/>
  <path d="M780.3,939.4c6.8-10.1-13-19.1-15.4-8.8-2,8.7,12.4,13.2,15.4,8.8Z"/>
  <path d="M453.3,742.4l-.2-12.6c-8.3-1.1-14.7-2.3-14.1,7.6l14.3,5.1Z"/>
  <path d="M1034.7,863.2c1.8,2,9.9-1.3,10.2-1.7,1.2-1.9.6-8.2-.9-10.3l-11.8-2.4,2.5,14.4Z"/>
  <rect x="115.9" y="918.7" width="13" height="13"/>
  <path d="M1107.1,853.7c1.9-1.2,4.4-10.8-1.2-12.6-18-5.5-11.7,20.6,1.2,12.6Z"/>
</svg>