<?xml version="1.0" encoding="UTF-8"?>
<svg id="Layer_1" xmlns="http://www.w3.org/2000/svg" version="1.1" viewBox="0 0 1200 1200">
  <!-- Generator: Adobe Illustrator 29.0.0, SVG Export Plug-In . SVG Version: 2.1.0 Build 186)  -->
  <path d="M728,1186.3c-2.2.5-4.5,1-6.7,1.4,2.3.4,4.5,0,6.7-1.4Z"/>
  <path d="M732.6,1060.9c-5.4-.9-8.6-12.2-23.5-9.7-3.4.6-6.1,4-8.4,4.4-1,.2-19.2.6-20.2.4-2.9-.6-3.3-6-5.8-7.6-3.8-2.3-9.8-1.8-15.1-5-13.8-8.2-19-31.5-37.6-15.6,1.5-14.4-19.1-27.7-31.1-22-.8.4-14,10.9-14.5,11.7-2.5,4,1.3,7.8.7,11.3-1.2,7.2-8.5,10.4-.4,19.7,7.6,8.7,13.7,2.8,21.9,2.7,5.4-6.5,15.1-7.4,23.2-10.3l8,15.4c-20.9,9.7-1.5,12.8,1.9,16.2,3,2.9-.2,14.1,10.1,14.3,9.8.2,11.2-9.6,12.5-9.6s5.4,3.3,8.8,3.7c3.3.4,8.1-2.3,10.3-.9,2.3,1.4,1,8.7,8.5,8.8,11.7.2,9.9-6.6,17.9-11.7,3.1,15.6,36.3,21.3,42.8,7.6.8-1.6,6.6-18.4,6.7-19.4.3-10.9-12.8-3.7-16.6-4.4h-.1Z"/>
  <path d="M611.3,1068.9l1.9-15.4c-2.5-3.5-10.4-2.4-14.5-2.4-10.2,12.3-1.4,20.7,12.6,17.8Z"/>
  <path d="M640.5,1107c-.3-2.8,6-18.6-6.8-14.4-3.4,1.1-3,7.7-4.8,9.5-2.9,3-8.8,4.3-10.9,8.7-7.6,16.4,9.8,27.7,24.7,15.5.3-10.9-1.3-10.8-2.3-19.3h0Z"/>
  <path d="M923.1,1090h-13l1.9,11.8-8,3.4c-16.8-9.4-8.1-8-9.9-18.4-1.4-8.1-11.5-17-20.4-14.9,34-39-36.1-49.2-23.6-4.3l15.8,5.6c-17,6.2-9.6,18.5-11.1,28.1-.8,4.7-10.5,10.1-5.9,17.2,7.2,11.3,19,.8,18.3-10.4,10.8,3.5,5.4,16.7,14.8,21.5,13.6-7.2,26.8-15,39.8-23.2-1.2-.4-2.5-.7-3.9-.9l5.2-15.5h0Z"/>
  <path d="M434,1045.8c-1.5-5.9-11.7-12.1-12.3-20.2-11.6-1.1-19.7-3.9-20.4,9.9l-6.4-5.4c-14.3,4.8-48.3,9.1-33.7,31.2,13.2,20.1,43,6.1,32.4-15.4,6.8-1.3,4,.9,5.4,3.7,4.5,8.9,3.8,16,18,14.5,2.4,9.2-5.5,8.6-8.9,13.1-2.6,3.5-3.6,12.4-4.1,12.8-.9.7-13.9-7.3-19.5,5.2-2.6,5.9-1.8,22.7,5.4,25.7,4,.9,19.5-17.7,16.7-23.2,10.3,10,20.7,7.6,33.5,5,3.9-9.6-3.5-18.4-4.5-25-1-6.8.2-25.1-1.6-32h0Z"/>
  <path d="M845.2,861.9h-2.5c-.3-4.9-16.7-20.5-19.5-20.9-12.7-.8-6.3,7.3-7.4,11.3-2.7,9.4-11.4,12.9-1.8,23.9,2.7,3.1,8.1,2.3,7.9,6.3-7.1-.6-10.9,7.7-13.8,9.5-4,2.6-13.3-.6-13.7,9.9-.6,14.7,13,11.6,14.6,13,4.4,4,1.3,14.5,13.8,11.6,1.6-.4,1.3-4.3,3.6-5,4.9-1.6,13.1.9,16.2-4.7,6.2-11.2-3.1-18.2-2.2-22.3,1.1-5.5,10.6-3.7,4.6-17.8-1.5-3.6-7.2.3-2.3-9.8,4.5.3,3,6.2,7.8,9,4.2,2.5,32.5,9.7,36.2,8,12.8-6-1-14.9-1.5-18.2-.5-3,2.7-6.2.3-11.7-8.2-18.8-36.6-10-40.4,7.7v.2Z"/>
  <path d="M685.6,755.8c-1.2,1.5-5.5,2.1-8.2,3.6-1,.6-1.1,3.2-1.4,3.4-1.7.7-11-3.8-15.1-2l-.2,10.3-7.4.2c-1.5,9.2,3.2,18.3,12.8,12.9v10.4c19.1,2.1,19.7-20,0-13l10.7-12.5c11,2.2,27.8,9.7,30.9-5.6,12.7,9.8,30,4.3,28.5-13,5.2,2.4,18.6,3.3,24,2,4.7-1.1,9.3-6.4,11-6.3,1.6,0,4.6,4,8,4.4,4.9.6,8.5-2.5,14-1.3,7.1,1.6,11,13.3,14.6,14.1,21.9-7.4-15.4-29-24.2-35.8-5.6-3-10.9,4.9-14.5,4.3-2.4-.3-6.1-4.7-10.1-5.6-6.5-1.4-21.4-1.1-26.4,3.2-4,3.4,2.3,10.5-9.4,7.9,14.2-14-10.9-29.4-15.2-13.7-3.1,6.2,4.8,10.6,4.9,14.9,0,1.1-10.9,4.3-7.9,11.7l-14-7.7c-7.6,1.4-4.9,12.3-5.5,13v.2Z"/>
  <path d="M753.3,866.9c7.5-.8,17.5,19.4,28.3,19.9,3.1,0,19.7-8.5,22.2-10.7,9-8.2-6-11.5-6.9-12.4-3.1-3-4.3-8.9-8.7-10.9-7-3.1-18.1,0-25.9-4-.7-5.5,3.8-10.7,2.2-16.2-1.7-6.3-9.3-4.6-10.1-9.6,20.1-1.1,13.8-27.3-5.2-18.1l-5-19.7c-15.4-5.8-16.4,11.2-14.7,22.3l16.7,2.9,5.5,12.5c-4.4,4.2-24.1-9.4-18.4,11.4,11,1.6,6.9,5.6,10.6,14.5-48.8,1.1-14.6,56.4,9.3,18h.1Z"/>
  <path d="M568.7,1121.1c1.8-.2,31.7-10,32.8-11.3,1.4-1.6,2.1-3.5,2.4-5.6,4.8-13.8-20.3-19-23-22.2-1.5-1.8,1.1-10.2-2.8-16.7-5.7-9.3-15.1-4.2-21.2-7.5-2.8-1.5,2.7-12.4-8.2-17.6-13.1-6.3-14,4.3-19.1,5.3-4.3.8-14.7-5.5-19.2,2.6-12.4,22.2,23.8,33.4,26,8.4,10.5,1.8,6,7.1,7.9,10.9,1.3,2.5,4.3,2.1,4.9,4,.3,1.1,2.4,14.4,2.4,15.1,0,1.3-9.9.9-7.3,17.8,1.7,11.6,13.5,18,24.4,16.9h0Z"/>
  <path d="M759.8,790.6c-.2,10.2,9.1,13.4,18,11.7-8.5,21.9,12.5,17.8,21.8,23.6,4.2,2.6,5.5,9.4,9.4,11.5,8.5,4.6,33.9,1.2,28.2-15.2-1.8-5.7-11.1-5.5-12.3-7.4-1.7-2.7.4-10.4-3.3-16.2-11-17.2-45.2-7.9-44.4-32.1-19-6.2-12,6-13.3,13.4-.6,3.8-4.2,6.6-4.3,10.7h.2Z"/>
  <path d="M291.1,817.8l2.8,5.3c9.5-4.2,25.6-1,30.3-11.2,3.9-8.4-1.7-19.3,4.5-28.5,3.4-5.1,16.4-4.9,15.5-21.2-1.2-22-26.2-13.6-28.1-14.8-1.1-.7-1-5.7-4.7-7.1-2.6-.9-12,1.6-16.3-.3l-2.3,8.6,4.7,5.7,15.5-1.4c-4.3,4.9.1,17-.4,17.8-.5.7-5.9,1.4-8.2,6.2-2.9,6,.9,9.9.1,13.3-.3,1.3-12.2,22-13.6,21.9-1.5,0-10.1-10.8-15.7.4-4.1,8.1,11.2,14.9,15.7,5.2h.2Z"/>
  <path d="M1057.7,871.5c1.6,6.7-9.2,27,7.5,31.5,1.2.3,22.7-.2,24.1-.6,23.2-6.9-3.4-33-4.6-39.5-.6-3.4,2.7-8.5,1.6-14.6-1.5-8.1-10.7-15.5-19-16.2-4.4-.3-10.5,1.9-15.2,1.7-5,1.7-6.3,16.1-5.5,20.6,1.2,7.1,10.2,13.2,11.1,17.1Z"/>
  <path d="M918,943.7c7.5-7.3,4.6-27.4,0-36.6l-32-5.9c-6.2,1.9-7.5,9.6-11.6,12.7-4,3-11,3-14.8,7.9-7.4,9.4,3.5,19.5-4.1,31-18.1-9.9-16.8,18.3-1.5,12.8l4.5-9.9c16.3,1.4,7.1-5,10.4-10.3.9-1.4,9.8-2.5,12.8-6.7,4.1-5.9-.3-17.6,10.2-17-6,18.4,8.6,39.2,26.1,22.2v-.2Z"/>
  <path d="M994.7,1039.8c11.3-24.4-16.1-32.9-25.1-18.6-2.5,3.9-1.6,8.7-3.2,11.1-1.4,2.2-6.7,1.4-7,6.9,0,1.7,7.9,31.4,8.9,32.8.3.3.6.6.9.9,6.6-5.2,13.1-10.5,19.5-16,2.2-4.8.6-9.6,1.8-14.3.6-2.3,3.7-2.2,4-2.8h.2Z"/>
  <path d="M354.7,749.3c8.1,1.9,14.2-3.4,20.8,2.3,5.8,6.6-3.4,37.9,20.1,28.2,6.2-2.6,7-25.1,5.5-30.1-1-3.2-5.2-5.2-6.7-9-4.1-10.4-2.5-16.1-13.5-25.3l-3.9-1.3-4,7.8c-26.3-25.2-49.6,20-18.1,27.4h-.2Z"/>
  <path d="M635.2,735.7c6,11.8,21.3,15.6,31.7,7.1,7.9-6.5,1.6-19.7,4.5-28.7,14.1,8.8,23-12.9,7.8-17-10.6-2.8-9.9,6.3-10.5,6.7s-6.1-5.1-11.6-5.4c-4-.2-19.9,3.3-23,5.2-9.5,6-.8,15.9.2,20.4.8,4.1-1.7,6.7.9,11.7h0Z"/>
  <path d="M474.1,978.6c-.9-13.5-3.9-21.5-19.2-17.8-5.8,6.6-12.2,19-7,27,8,12.2,21.2,2.6,23.2,4,6.6,4.8,5.3,19.8,26.3,10.2-4.5,6.8,12.6,23,18.1,24.8,14.4,4.5,26.2-8.4,28.6-20.8l-7.2-4.4-.6-6c22.4-10.4-10.4-34.1-24.5-19.5-5,5.2-4.6,13.4-2,19.5l-9.8,3.8c11.9-19.9-8.3-34.7-25.9-20.7h0Z"/>
  <path d="M987.3,895.1c14.5,2.8,13.6-4.1,20.8-10,1.7-1.4,5.8-1.2,7.8-3.1,19.6-18.9-9.3-41.7-32.5-31.1-12.9,5.9-9.6,41.6,3.9,44.3h0Z"/>
  <path d="M455.9,1008.5c-2.7-14.8-19.8-10.9-20.8-11.8-1.4-1.4,4.6-24-14.5-25.9-30.5-3-26.4,50.5,9.3,33.7l2.4,16.4c11.3,8.9,26.4,3.5,23.6-12.4Z"/>
  <path d="M505.3,1079.5c3.7-16-2.8-26.7-20.5-22.8-4.6,10.4-6.1,23.3,7.4,25.7-10.2,16.4.5,17.4,6.2,26,4.3,6.5,4.4,15.1,13.3,17.7,4.4-6.5,11.7-9.8,10.8-18.8-8.2-10.8.3-26.7-17.3-27.9h0Z"/>
  <path d="M551.8,749.6c-.2-3.5-3.7-19.9-5.6-21.8-2.9-3-14.2-4.6-17.8-2.1l-3.7,11.9-1.3-10.4-13.3,1.5-2.3,14h10.3c-14.5,35,35.1,39.3,33.6,6.9h0Z"/>
  <path d="M325.5,986.8c-13.5,3.4-25.2,17.9-17.2,31.6,7.9,13.7,27.6,7.1,41.2,8.1,13-6.3-7.7-43.9-24-39.8h0Z"/>
  <path d="M271.7,1036.7c-3.4-2.2-4.2-8.4-7.9-10.3-5.1-2.6-16.7-1-19.5,3.9-.7,1.3-4.1,26.9-3.8,29.6,1,11.3,11.9,17.3,21.5,11.4,8-4.9,6.3-14.4,7.1-15.1.8-.7,9.9,4.5,14.9-.6,13-13.3-7.4-15.9-12.2-19h0Z"/>
  <path d="M956.9,868.4c-3.7-1.6-9.5,3.5-13.1,3.9,1.1,20.4,28.7,9.3,13.1-3.9Z"/>
  <path d="M922.8,842.3c-3.1-.4-6.2-4.3-11.3-3.9-14.5,1.3-21.8,26.3-1.5,32.7,11.3,3.5,13.7-3.1,17-3.1s7.4,5.4,16.9,4.2c-.5-8.8,3.5-3.2,7.1-5.7,3.3-2.3,5.2-16.1.8-19-.8-.5-15.6-5.2-17.8-5.8-4.1-1-7.4,1.1-11.1.6h-.1Z"/>
  <path d="M704.3,789.6c-5.6,1.4-6.1,9.1-7.3,9.9-1.8,1.2-10.6-5.2-14.1,0-6.1,19-13.8,19.1-32,21.3-2.6,10.1,1.4,13.3,11.1,10.3l4.1-8c.3,4.8-2.6,7.2,3.9,7.8,6.6.6,19.4,4.9,22.2,4.1,17.4-4.7,6.1-23.4,7.7-24.9,24.2,5.6,21.9-24.9,4.4-20.4h0Z"/>
  <path d="M800.9,1135.8c-2.4,3.4-2.5,19-1.6,30.3,12.8-4.5,25.4-9.4,37.8-14.8-1.7-5.8-6.2-10.8-10-17.2-5.6,0-20.7-5.9-26.2,1.7Z"/>
  <path d="M829.7,1108.1l10-11.2-11.6-17c-15.7,2-12.3,24.3,1.6,29.5-18.1,9.3-9.2,13.3-2.6,24.6,24.7-.2,23.2-22.4,2.6-26h0Z"/>
  <path d="M230.8,814.8c9-2.7,6.1-14,7.2-15,1-1,10.7,1,15.6-1.4,3-1.5,3.6-6.2,5.9-8.3,3.7-3.4,11.6.7,9.6-12.3-2.7-17.6-42.5-5.8-36.4,14.1-26.9-12.5-28.1,30.6-1.8,22.9h-.1Z"/>
  <path d="M602,830.4c3.3-1,5.1-5.4,8.9-6.8,8.4-3.1,29-1.8,20.2-21.3-7.4-16.3-20.4-3.5-27.1-1.6-4.6,1.3-12.3-3.1-17.7,2.2-8.7,12.2-.3,32.5,15.7,27.4h0Z"/>
  <path d="M918.8,1012.8c-11.1.2-10.9,8.2-14.7,14.1-1.1,1.6-4.8,2.1-5.7,3.5-2.6,4.2,1.2,7.7.6,11.2-.5,2.6-4.1,5-4.5,8.4-1.5,13,12.9,9.9,15.3,12,1.6,1.5.3,13.8,16.9,10,5.4-3.1,3-14.1-2.5-15.3l-11.4,2.2c5.6-7.1-3.1-13.9-2.6-16.8.7-3.6,40.9-12.1,8.7-29.3h0Z"/>
  <path d="M477.5,725.3c4.5.7,8.3,9,14.9.6,9.1-11.4-6.5-12.2-10-15.1-4.4-3.7,3-15.5-7.4-22.4-19.6-12.9-30.6,18.4-14.7,33.5,7.6,7.3,11.5,2.4,17.1,3.3h.1Z"/>
  <path d="M92.5,894.4c-2.2-8.3-11.3-1-15.1.6,2.2,3.9,4.4,7.7,6.7,11.6,4.3-2.4,10.1-5.7,8.4-12.1h0Z"/>
  <path d="M131.5,918.9c-24.1-3.5-19.3,34.6,2,24.1,7.6-3.8,7.8-11.7,5.8-18.9l15-3.2c14-31.9-30.1-33.6-22.7-2h-.1Z"/>
  <path d="M1144.1,809.3l2.2,11.1c-13.5-3-22.3,7.3-15.8,19.7,15.9,7,8.2,1.7,7.9,12.7,0,3.7.5,6.7,1.6,9,4.2-8.6,8.2-17.3,11.9-26.2-1.4-2-2.4-5.5-3-12.7,3.3.6,6.3-.7,9.1-2.1,1.8-4.5,3.5-9.1,5.2-13.7-2.8-8.5-10.1-8.3-19.2,2.1h.1Z"/>
  <path d="M812,782.3c3.2,10.8,14.1,7.3,19-.7,1.7,0,3.1,5.6,4.6,6.9,23.9,19.8,41.1-36.5-2.1-27.7-6.3,1.3-5.3,6.2-7,7.2-5.2,3.1-19.8-3.4-14.5,14.3Z"/>
  <path d="M949.7,896.1c-9-2-9.4,5-11.8,6.4-3.5,2.1-9.5,0-12.2,4.8l2.5,7.9c5.3,7,17.6-5.9,28.7,1.2l-5.4,14.2c14.1,25,29.5,5.2,21.1-15.7l-10.5-1.2c4.7-7-6.6-16.4-12.3-17.6h0Z"/>
  <path d="M467.1,796.4c14.3,17.6,46.1-7.7,33.2-24.1-10.9-13.9-51.2,2-33.2,24.1Z"/>
  <path d="M700.2,1183.2c5.2-39.9-46.9-20.4-31.1,3.8,7.8,11.9,17.1,3.9,24.2,4.1.6,0,.9.7,1.2,1.5,4.6-.7,9.2-1.5,13.8-2.3,0-1.9-.4-4.2-.8-6.7l-7.2-.3h-.1Z"/>
  <path d="M333.3,880.7c11.4-5.3,7.6-25.6-6.5-28.7-16.3-3.6-13,3.3-19.8,9.1-1.4,1.2-4.8,0-7,2.4-2.9,3.2-5.6,12.4-1.9,15.8,4.1,3.8,29.7,3.9,35.2,1.3h0Z"/>
  <path d="M294.2,1093.2c-8.2,2.4-10.8,10.2-9.1,17.6,8.2,5.1,16.6,10,25.1,14.7,19.5-6.3,17.7-42.1-16-32.3h0Z"/>
  <path d="M101.4,867.3c7.3,5.2,42.6-.4,31.8-12.4-1.4-1.6-6.7-2.8-6.8-4.6,5.1-5.2,6.1-11.4-1.8-13.9-7.6-2.4-5.5,4.4-7.3,4.4s-4.3-2.3-7.3-1.7c-12.5,2.4-20.3,19.8-8.6,28.2h0Z"/>
  <path d="M613.8,761.9c-.7,3.3-21.8,11.8-7.3,26.1,12.9,12.7,28.2-7.9,19.6-19.6-2.5-3.5-9.8,0-9.3-5,23.6,2.3,17.7-27.5-2.9-19.2-4.8,6.5.6,14.3-.2,17.7h.1Z"/>
  <path d="M917.7,948.5c-3.9,5-3.4,22.6.9,26.9,39.7,17.3,35.7-46.2-.9-26.9Z"/>
  <path d="M929.4,1089.9c-2.3,3.1-1.8,7.6.2,11.6,6.8-4.5,13.6-9.2,20.2-13.9-5-1.2-18.3-.6-20.4,2.3Z"/>
  <path d="M753.1,1084.9c.5,1.1,15,12.3,16,12.6,10.1,2.8,18.7-24.6,10.6-32.7-10.6-10.6-37.2-1.2-26.6,20.2h0Z"/>
  <path d="M417,742.1c-4.9,10.8,5.1,17.2,15.6,16.2-16.3,9-9.9,31.4,8.1,19.6,4.6-4.1-.5-9.8.1-13,1-5,21.3-7.4-1.6-21-7.6-4.5-13-11.3-22.2-1.8Z"/>
  <path d="M335.8,1108.6c-8.1,2.3-15.5,12.9-16.2,22,7.5,4,15.2,7.8,22.9,11.5,13.5-8.8,10.6-38.4-6.7-33.5h0Z"/>
  <path d="M1021.3,933.9c-.6-2.3-7.9-12.7-9.9-13.7-16.4-8.3-27.4,25-20.2,31.8,7.4,7,34-2.4,30.1-18.1h0Z"/>
  <path d="M1012.1,958.2h-4.1l-11.9,11.8c7.7,19.9,26.4,15.7,43.5,11,2-27.2-16.5-10.1-27.5-22.8Z"/>
  <path d="M608.4,1147.6c-1.7-2.8-10.3-4.3-8.3-16.2l-3.1-2.2c-12.2,2.8-36.5-4.3-31,15.5,3.6,13,14.3,3.2,18.3,3.4,5.4,0,21.1,15.8,24.7,12-.4-3.8,1.3-9.3-.6-12.4h0Z"/>
  <path d="M1050.3,926.7c-2.8,6.2-11.9,10.8-8.5,20,8.4,22.8,43.9,8.1,27.8-14.7-5.3-7.5-11.3-5.1-19.3-5.3Z"/>
  <path d="M1016.9,908.9l4.9,19.3c9.7,0,18.7-1.7,28.6-1.5,12.7-28.6-16-20.3-33.4-17.8h0Z"/>
  <path d="M477.6,1028c-8.9-2.9-11.3,5.4-16.7,8.8-4.8,3-14.6-1.1-12.3,12.4,1.9,11.3,8.9,7.5,14.3,10.5,3.1,1.7,3.5,9.5,13.8,4.3-8-15.3,12.5-25.6,1-36h0Z"/>
  <path d="M854.1,812.5c-1.4,13.4,27.1,35.1,30.1,14.3,1.7-11.9-10.1-11.8-10.5-18.1,0-1.2,4.1-1.2,4.4-1.8,8.1-14.8-22.2-11.1-24,5.6Z"/>
  <path d="M392.7,828.4c-4.9,1.5-9.3,12.5-4.6,16.8,9.8,10.3,14.2-1.5,20.3-3.5,6.9-2.2,19.1,1.7,18.8-12.3-.2-12.3-25.3-16-23.3,1.4l-11.2-2.4h0Z"/>
  <path d="M804.7,1054h-8.5l-7.7,38.2c23,17.2,26.7-34.4,16.2-38.2Z"/>
  <path d="M422.5,817.5c12,4.6,26.1,7.1,28.1-9,3.6-28.9-36.6-17.2-28.1,9Z"/>
  <path d="M436.6,719.5c16.2-11.6-7.1-35.3-21.6-22.9-10.6,9.1,4.4,35.2,21.6,22.9Z"/>
  <path d="M373.6,784.7c-.9-.5-14.1-4.6-15-4.6-9.4-.4-12,4.8-12,13.2,0,31.9,45.6,1.2,27-8.5h0Z"/>
  <path d="M582.6,724.1c3.9-6.2-3.7-20.5-11.2-20.3-52.9,18.5,2.8,33.8,11.2,20.3Z"/>
  <path d="M1019.8,1015.5c-4.2,4.1-3.9,9.7-1.2,14.3,5.8-5.7,11.6-11.5,17.2-17.4-5.4-1.8-11.5-1.3-16,3.1h0Z"/>
  <path d="M64.8,856.5c7-2.2,8-14.7,4-20.1-5,0-13.9-1.7-20.9-1.2,3,7,6.1,14,9.4,20.8,3.4.7,6.3.9,7.6.5h0Z"/>
  <path d="M539.3,782l-1.9,23c35.2,15.1,29.5-33.2,1.9-23Z"/>
  <path d="M465.3,1094.5c-5.2-.5-7-7-13.4-2.1-5.7,4.3-7.8,10.4-2.6,15.9,10.1,10.7,18.7-7.6,32.6-2.7,1.4-19.5-7.7-10.2-16.6-11.1h0Z"/>
  <path d="M903,832.7c7.4,7.4,25.4-.3,21.7-12.4-7.6-24.2-34.1,0-21.7,12.4Z"/>
  <path d="M265.2,864.5c4.8-21.4-12.6-13.3-23.5-14.2-2.3-.2-9.2-6.5-11.6-3.9-1.5,1.6,0,6.6,2.7,8.9,2.5,2.1,25,14.5,26.6,14.2l5.7-4.9h.1Z"/>
  <path d="M1085.9,937.4c-8.6,2.5-12.3,17.2-6.3,23.2,5.4-7.2,10.7-14.5,15.8-22-2.2-1.7-5.4-2.4-9.5-1.2Z"/>
  <path d="M212.2,891.2l10.1,8.3c-9.9.3-3.7,12.1,2.6,7.8,4.3-3-.1-6.8.7-8.6.2-.6,3-.6,3.4-1.4,11.2-21.1-15.7-29.5-16.7-6.1h-.1Z"/>
  <path d="M504.6,1040.1c8.8-8.5-6.4-27.6-16.9-16.8-12.9,13.2,5.6,27.8,16.9,16.8Z"/>
  <path d="M565.7,695.6c12.3-3.4,8.3-27-6.7-22.6-14.2,4.1-8,26.7,6.7,22.6Z"/>
  <path d="M610.4,672.6c-9-13.2-29.4,5-18.9,15,10.6,10.2,26.7-3.7,18.9-15Z"/>
  <path d="M1130.1,875.3c-11.5,2.2-10.9,11.6-6.1,17.3,3.2-5.8,6.4-11.7,9.5-17.6-1,0-2.1,0-3.3.3h0Z"/>
  <path d="M1108.7,911.3c9.9-1,14.7-28.6-2.2-23.2-7.5,2.4-12.2,24.7,2.2,23.2Z"/>
  <path d="M617.9,1103.1c1.8-.7,1.5-3.2,2.6-4.1,2-1.7,5.6-3.2,6.4-5.4l-.8-8.9c-24.1-13.8-25.5,20.4-8.2,18.5h0Z"/>
  <path d="M364.1,810.4c-8.1,2.7-5.1,20,4.8,20.3,18.2.6,12.8-26.2-4.8-20.3Z"/>
  <path d="M345,1094.4c-1.4,12.1,16.7,13,19.7,8.2,10-15.8-17.5-27.4-19.7-8.2Z"/>
  <path d="M193.1,852.2c-10.2-9.9-24.4,5.2-14.9,16.3,8.1,9.5,23.9-7.5,14.9-16.3Z"/>
  <path d="M969.5,818.9c-1.2-9.4-8.7-5.9-15.1-3.4l2.4,23c13.5,3.7,14-9.3,12.6-19.6h0Z"/>
  <path d="M549.9,994.8c-7.8,7.6,6.4,26.5,15,16.3,10.1-11.9-6.3-24.7-15-16.3Z"/>
  <path d="M1036,848.9c1.5-.5,15.6-25.5,2.8-25.8-1.6,0-8.1,2-8.8,3-2.6,3.9-6.1,26.5,6,22.8Z"/>
  <path d="M309.6,1061.8c-9,3-3.9,18.2,7,17.2,15.9-1.4,8.3-22.3-7-17.2Z"/>
  <path d="M603.5,745.6c-2.8-4.3-15.1-3.7-17.4,4-5.7,19.2,27.5,11.9,17.4-4Z"/>
  <path d="M264.4,887.2c5.4,5.4,18.6-.3,13.8-9.8-6.7-13.2-21.8,1.8-13.8,9.8Z"/>
  <path d="M1015.3,903.4c10,0,13.7-7.1,8.6-15.2l-12.6-.4,4,15.5h0Z"/>
  <path d="M372.6,965.3c6.9-9.8-11.4-19.4-14.9-5.8-2.8,11.1,12.6,9.1,14.9,5.8Z"/>
  <path d="M180.5,949.8c1.2-1.9.6-8.2-.9-10.3-12.9-8-15.8,2-11.8,13.1,1.3.9,12.1-1.9,12.7-2.8Z"/>
  <path d="M330.5,1074.8c-10.8,2.9-4.7,17.4,4.2,15,11.6-3.1,5.3-17.5-4.2-15Z"/>
  <path d="M575.3,972c3,11,22.9-.7,15.5-8.9-3.5-3.9-18.2-1.1-15.5,8.9Z"/>
  <path d="M896.2,815.1l8.2-6.7-2.5-8.3-12.6-.3c-.8,6.6.7,12.1,6.8,15.4h0Z"/>
  <path d="M1027,1004.4c2.6,3.8,18.2.7,15.5-9-2.9-10.1-22.3-1-15.5,9Z"/>
  <path d="M531.2,810.1l2.4,11.8c12.5,8.9,22.5-16.2-2.4-11.8Z"/>
  <path d="M361.1,867.1c6.9-2.1,5.3-18.6-5.1-15.5-6.9,2.1-5.3,18.6,5.1,15.5Z"/>
  <polygon points="392.4 978.5 391 968.2 379.2 973.4 380.6 983.7 392.4 978.5"/>
  <path d="M1120.4,807.5c-2-2.9-18.9-4.8-15.5,6.4,2.7,9,21.3,2,15.5-6.4Z"/>
  <path d="M528.5,676.7c10.4.5,8-5.9,7.8-14.4h-13c-.6,5.8,0,10.9,5.1,14.4h.1Z"/>
  <path d="M773.8,1115.9c-9.5-1-5.8,6-11.5,7.9-.2-29.7-29.5-27.2-33.9,0-.1,0-.2,0-.3,0l3,5c2.6,1,4.5,2.5,5.7,4.2,3.7,5.2,1.7,13-.5,19.2l-10.3-6.5s0,0,0,0h-.1c.4-.4.7-.7,1.1-1,3-4.2.5-13.9-1-20.9-13.2-.3-8.5-15.4-21.9-13-9.3,1.6-4.7,8.2-18.3-2.7-6.1,0-9.5,7.6-9.1,13.1-7.4,2.2-4.9-6.4-10.3-9.1-15.5-7.7-16.4,8.6-23.4,14.3-.2,6.7-4.3,10.2,2.6,18.1-18.5,4.3-10.2,23.2,5.9,23,9.9-6.7,17-13.7,7.1-24.3,4-7.4,10.2.9,15.5-2.4l6.5-17c8,8.3,13.3,10.5,24.7,7.7-.8,8.1,1.4,14.7,10.4,15.6-4.8,7.6-11.2,8.7-10.6,19.4.4,7.5,8.3,19.7,16.4,21.3,2.2-.5,4.5-.9,6.7-1.4,1-.7,2-1.7,3-3,0,.8,0,1.5.3,2.2,10.4-2.3,20.7-4.9,30.9-7.8-1.1-9.9-8.8-18.9-7.8-20.3h-.1c10.8-2.3,14.5-10.6,13-20.9,14,6.9,22.3-19.1,6.4-20.8Z"/>
</svg>