<?xml version="1.0" encoding="UTF-8"?>
<svg id="Layer_1" xmlns="http://www.w3.org/2000/svg" version="1.1" viewBox="0 0 1200 1200">
  <!-- Generator: Adobe Illustrator 29.0.0, SVG Export Plug-In . SVG Version: 2.1.0 Build 186)  -->
  <path d="M1193.4,689.5c-1.3,8.5-2.7,17-4.4,25.4,8.6-6.6,9.6-18,4.4-25.4Z"/>
  <path d="M807.7,1162.5c-4.3.9-8.6-.8-13.7,1.4-2.7,1.1-4.3,3.4-5.5,5.9,12.1-4,24-8.4,35.7-13.1-9.6-6.4-14.5,5.3-16.5,5.8Z"/>
  <path d="M922.5,1097.6c-10.7-1.4-14.1,8-15.5,18,7.4-4.4,14.8-9,22-13.8-1.5-2.2-3.6-3.8-6.5-4.2Z"/>
  <path d="M752.5,1170.3c-4.5-9.5,3.5-15.9,3.8-26.1l10.6-2.1,3.4-4.7c1.2-5-5.9-16.9-9.9-20.4-3.4-3-8.3-2.7-10.7-5.4-8-9-3.8-17.7-25.8-13.8,4.3-11-6-18.1-.2-31.9l-15.4-8.8,2.7-24c4.5.1,1.5,5.2,7.6,6.8,15,3.9,18.3-10,15.4-21.9-12.2-6.3-19.1-2.5-26.9,7.3-7.1-7.3-1.4-16.3-9-24.6-1.8-1.9-27.9-16.6-29.9-16.6-16.9,0-11.8,33.1-9.2,34.9,2.5,1.7,7.9.2,9.9,1.6,5.8,4,10.4,27.8,14.6,30.9,3.5,2.6,8.2,1.3,11.1,3.2,17.1,10.9-1.7,20.7-.7,35.5l27.4,10.4c-2.9,10.1-5.1,17.4,2.6,25.9-11-3.1-10.7,5.3-13.6,7.4-1.4,1-14.8-4.2-15,8.2-6.5,2.6-4.3-4.5-6.8-5.2-21.6-5.9-24.4,22.8-4.8,20.9,4.8-.5,5.8-3.5,6.6-7.8,9.1,6.8,15.5,2.7,22.1,3.6,4.1.5,9.6,10.8,14.3,13.2,3.5,1.8,9.8,1,10.3,1.4.8.6-2.1,12.1,2.9,15.9,13.1-3.1,26.1-6.7,38.8-10.7-4.9-9.2-15.5-9-26.2-2.6Z"/>
  <path d="M867.7,1121.2c-20.7,17.8-14-31-29.6-4l5.3,5.2c-7,3.5-3.6,12.4-5.8,16.3-1.7,3-15.9,6.3-12.7,17.8,9.3-3.8,18.5-7.7,27.5-12,.3-3,1.6-5.6,5.2-7.8.8,1.7,1.7,3,2.8,4,5-2.4,10-4.9,14.9-7.5l-7.6-12.1Z"/>
  <path d="M361.6,807.7c13.8,6.6,19.1-5,12.1-17.3-3.6-2.5-11.7,0-15.7,1.5-.3,5.4-.9,12,3.7,15.8Z"/>
  <path d="M485.9,784.6c-7.3-2.2-17.5.5-25.3-.7l-1.4,8c-5.9-5.4-15.5-4.6-20.8,1.3-3.3,3.6-.6,9.4-5.1,9.1l-5.2-15.5c7.4-.6,13.8-9.7,13-16.8-.8-7.8-8.7-8.7-12.1-12.7-12.1-14.3-17.1-29.6-39.8-14.6,1-19.4-7-9.7-14-11-5.1-.9-7.7-13.4-19.6-3.2-10.6,9,.8,18.2-.1,19.3-6.6-2-10.9,7.5-12.2,7.8-5.1,1.1-10.8-1.3-16.4,1.3-19.1,9,13.4,43.3,21,41.6,3.2-.7,6.9-5.4,10.1-6.6.7-12.6,2.1-4.8,9.2-10.2,4.3-3.3,7.5-11.2,6-16.5-.8-2.8-17-18.4-.9-20,1,0,6,13.3,16.8,5.2,2.5,3-11.5,17.8,0,24.7,5.8,3.5,11.9-1.4,15.7,0,4.3,1.6,9,13.9,18,11.6-1.4,4.9-7.1,3.4-9.4,10.2-2.5,7.5,3.3,13.6,10.2,15.2l9.5-7.3c2.5,29.6,46.9,22.5,33.8-7.8,15.5,25.9,37.3-7,18.9-12.4Z"/>
  <path d="M647.5,1061.6c4.6-6.6-2.4-26.1-11.8-20.9,6.9-16.8-.9-28.1-5.5-43.7-8-1.9-14.2-.3-20.4,4.8-2.3-4,.5-11.1-.4-13.8-1.4-4-6.4-4.1-8.5-7.1-5.2-7.6-4.1-26-18.4-26-12.9,0-13,19-14.3,28.8-11.1-6-14.2-20.3-28.5-13,2.2-11.5-2.9-22.6-14.8-25.4-35.7-8.2-26.9,28.9,1.6,36.9,3.2.9,7.6-2.2,10.1-.8,1.5.9,1.5,6.5,8.3,8.9,10.4,3.7,30.7-7.4,35.9,10.7,2.5,8.9-5.4,15.4,4.2,21.6,8.7,5.7,8.8-1.8,17-2.7,2.6,16.9,15,24.5,31.2,20.8-11.3,14.3-2.2,28.4,14.4,20.9Z"/>
  <path d="M794.1,863c9.8,8.2,18.6,2.7,28.4-1.2l-10.5,11.7c1.2,8.3,14,11.2,20.8,14.3.3,4.8-6.2,1.5-10.3,3.9-12.1,7-3,21.9,3.9,29.8,5.9,1.4,8.7-10.2,11.5-11.7,2.4-1.3,16.3,5.5,20.4-8.3,5.1-17-9.8-18.4-10-20.4-.2-2,7.1-25.5,9.3-29.6,4.4,16.4,12.2,25.5,29.8,18.1l4.3,13.2c6.1,4.5,14.6-1,16.1,0,1.1.7,10.7,14.5,4.5,15.5-4.3,10,5.5,14.9,13.9,10-7.5-16.6,15.7-26.1-4.5-35.4-6.8-3.1-24.7-8.3-31.7-5.9-4.5-4.9,15.3-17.4,5.2-24.8-1.2-.9-26.4-3.2-29.4-1.3-2.9,1.9-3,7.4-7,7.9,1.6-12.7-24.5-22.5-33.9-19.7-6.1,1.9-8.7,9.7-15.5,9.3l-2.5-14.4-13,1.6c-1.7,2.3,3,10,2.6,13.7-.1,1.4-16.2,12.1-2.6,23.6Z"/>
  <path d="M594.8,797.5c-25.1-4.1-19,19.4-20.2,35.8,13.5,13.9,11.6-1.3,16.2-5.3,7.4-6.5,22.1-2.5,29.3-10.2l2.6,10.4c-13.9-6.4-27.3,14.5-13.9,23.1,14.3,9.1,24.5-6.9,19.2-20.5,20.9,10.8,21.4-12.2,26.6-17.5.6-.7,15.3-8.6,16.2-8.6,6.2,0,8,11.8,19.4,6.6,6.7-3,10.3-13,6.8-19.7l-9.3-2.4,7.9-6.8-1.3-8.8-10.3-2.2-5.4,7.5c-3.3-4.1-10.2-3.6-13.6-5.9-2.9-2.1-7.9-15.4-16.3-11.1-17.3,9,2.4,20,2.7,21.4,3.6,15.7-10.1,10.5-14.2,11.4-7.9,1.7-14.2,5-23.3,4.7l-1.6,8c-6.8,0-7.3-8.2-17.5-9.9Z"/>
  <path d="M517.7,742.5c-21.4,10.4-25.4,47.8,6.3,31.2.2,17.9,13.6,9.9,21.7,11.2,2.6.4,5.5,3.8,10.8,4.5,14,2,13.3-3.9,17-15.7,9.6,5.7,34,9.6,33.9-6.5-6.1-17.4-7.9-40.9-22.3-53.2-17.5-15-41.6,6.1-28.5,23.4,2.5,3.4,7.3,4.1,9,7.2,1.7,3.2,4,19.5,2.6,21.3-8.6-4.3-18.4-4.1-22.1,5.3l-14.2-5.3c6.5-8.6-4.6-24.3-14.1-23.4Z"/>
  <path d="M1141.8,760.7c2.8-42.3-45.5-.3-2.6,3.9l-2.6,6.5c-1,1.3-5.8-7.9-13-4l-6.5,9.3c-19-6-11-6.9-14.7-19-.3-.9-9.9-16-10.6-16.7-11.8-12.1-29.2-3.3-28.1,13.6.6,8.8,18.4,24.7,28.8,22-4.8,12.5,2.9,21.8,16.3,17.8,6-1.8,6.4-9.2,7.3-9.7,1-.6,17.1,5,17.9-8,4.5-.4,2.2,6,4.9,9.3,10.6,13.1,29-10.2,32.3-1.8,2.1-6.4,4-12.9,5.9-19.4-14.1,2.5-21.5-11.2-35.3-3.7Z"/>
  <path d="M873.7,835.4c10.3,2.3,26.9-4.6,38.2-4.7,1,0,7.1,11.9,17.1,7.9v7.8c-10.4-6.7-22.3,1.2-16.9,12.9,6.7,14.6,23.9,4.8,19.5-10.3,17.6,7.4,14.6-5,18.9-12.2,2-3.3,15.1-8.1,8.4-18.9l-11.8-5.2c5.1-4.7,0-16.2,1.3-18.2,2.3-3.9,16.5-6.1,6.7-19.5-6.2-2.7-13.2-1.8-17.2,4.1l1.5,12.9c-17.8-.8-6.8,17.5-23.1,17.9-3.2-9.8-9.1-14.1-19.6-12.7-3.2.4-26.5,6.9-28.5,8-12.2,6.8-8.1,27.2,5.4,30.3Z"/>
  <path d="M424.3,724.6c-13,22.2,13.8,36.1,29.7,18-4,10.4,19,23.3,27.2,23.6,23.1.8,15.3-17.1,20.8-26.2,1.5-2.5,7.3-2.9,8.7-6.9,1.8-5.1-1.2-16.5.8-18.7.9-1,11.4-1.2,12-6.8,1.2-10-10.9-3.7-12.4-9.1,10.2-1.2,10.1-8.6,2.6-14.5l-19.5,3.9-2.7,8.2,6.6,7.5c-9.9-2-19.8,20.3-15.6,28.5-18.1,5-44.9-30.4-58.3-7.6Z"/>
  <path d="M897,892.4c-26-15.8-51.1,1.6-25,22.6-5.4,17.6-29.6,25-13.1,45.2l-7.7,1.4c-6.1,4.1-1.1,11.1,3.7,13.6,5.7.5,9-9.7,10.9-10,4-.6,7.1,3.3,15.2.4,11.5-4.2,8.8-11.6,12.4-15.1,2.3-2.3,10.4-1.3,12-7.7,1.1-4.3-7.6-14.7-6.4-22.9,1.3-8.9,16.8-16.3-2-27.6Z"/>
  <path d="M690.8,832.5c-12.4,6.9-8.4,10-24.7,14.2-5,1.3-6.5,8.8-12.3,7.2,5.7-17.2-21.8-22-20.8-4.1,1,18.3,16.8,9,17.9,9.7.8.6,1.2,6,6.2,8.2,3.1,1.4,7-.6,10.4-.2,3.2.5,6.9,4.1,8.4,4,3.9-.2,5.4-8.4,7-9.3,5-3,14.4,3,21,1.7,2.3-.5,21.9-10.4,24.1-12.4,8-7,15.1-31.7,5.2-39.3-9.1-7-43.3,3.5-32.7,18.4-3.1.3-7.2.4-9.8,1.8Z"/>
  <path d="M724,898.1l11.1,5,7.2-10.1c16.1,7.8,38.5,16.5,36.2-10.5,15.1-2.4,7.7,3.5,12.8,11.8,14.2,23.2,36.5-27.1.2-14.4.7-7.4.7-15.1-7.8-17.2-5.3-1.3-6.7,3.1-11.1,3.6-6,.6-12.3-5.7-20,3.2l-.4-12.6-16.1-3.1c-9.7,12.1-7.6,18.2,6.1,24.8l-18.1,16.9-4.2-7.5c-15.6-2.6-16.5,5.4-11.4,17.9,6.7,1,15.5,1.1,15.6-7.8Z"/>
  <path d="M685,888.9c-4.7-2.4-8.7.8-11.7.2-3.3-.7-5.7-4-10.5-4.2-4.4-.2-3.2,4.3-5.8,5.3-4.9,1.9-9.8.3-15,5.3-15.1,14.3,2.8,33.3,19.6,23.5-2.1,18.4,9.5,11.3,17.4,14.9,12,5.5,12.2,10.8,30.5,8.1,27-4,2.7-26.7-1.1-36-13.9-2.1-18.4-14.5-23.3-17Z"/>
  <path d="M381.3,1027.8c1.5-12-8.1-10.4-12.8-14.5-9.7-8.4-7.9-18.2-26.2-6.2l-3-25.6-10-.3c4.1,15.2-5.6,14.1-7.9,24.5,8.3,13.5,17.8,20.6,21.3,37.2,16.2,3.6,11-7.2,7.4-17.7,7.9-1.3,4.4,7.1,10.1,11.9,13.9,11.7,22.7-7.7,26.2-4.1-8.3,18.6,2.2,16.4,6.5,23.4,2,3.3.8,9.6,1.4,10.2,5.4,5.6,26.2-5.9,7.7-14.2l5.5-8.8,12.7,2.3v-13s-10.3,0-10.3,0c3-26.8-26.5-3.1-28.6-5.1Z"/>
  <path d="M927.7,1054c-9.2-.2-24.7,13.8-24.8,23-4.7-1.4-5.6-7.4-9-10.4-15.1-13.1-18.4,2.1-25.9,2.5-6.7.4-13.3-7.2-18.4-7.6-3.8-.3-9.7,3.4-11.2,2.4-3.9-2.8-13.1-26.1-15.9,2.8h12.9s9.3,28.4,9.3,28.4c10,7.4,15-.5,21.1-1.6,2.7-.5,5.9,1.8,9.2,1.2,3.5-.7,6.9-6.4,12.3-4.6,1.6,23.1,30.4,13.2,24.2-6.5l3.1-3.8c23.4,13.8,35.7-25.1,13-25.6Z"/>
  <path d="M350.9,1060.7c-3.2-2.7-3.2-12.5-10.4-14.5-23.1,7.5-58.6,13.5-55.1,44.7,1.7,5.2,23.2,8,28.3,5.6,3.7-1.8,4.5-6.4,12-8.9,15.1-5.1,26.7,13,37.1-4.4,9.5-15.8-6.1-17.4-12-22.4Z"/>
  <path d="M619.6,1065.9c-5.6-18.3-22.1-8.5-29-9.4-2.7-.4-5.3-17.1-20.6-12.7-16.8,4.9-5.5,25.7-7.1,36.9-1.2,8.2-8.6,10.6-2.2,20.7,1.8,2.9,5.6,3.1,7.5,6.7,19.6-3.5,10.9-4.3,22.4-12.6,10.6-7.7,35.9-7,29-29.6Z"/>
  <path d="M558.1,1108.4v12.5s12.7.2,12.7.2c.5-4.8-.4-8.7-2.6-12.9-3,.5-6.9-.9-10.1.2Z"/>
  <path d="M651.3,1062.8c-2.9,2.7-8.6,16-10.7,20.7-1.8,4.1.6,8.4-1.2,11.5-7.4,12.4-17,1.7-23.9,8.6-6.4,6.4-.4,16.5-.9,17.2-.7,1.1-11.4,3.1-10.1,9.3,1.5,7.2,18.6,5.2,15.7-6.4,14.1-2.6,28.1,14.2,40.3,5.3,1.8-1.3,15.5-19.8,15.6-22.1.5-9.7-8.6-15.3-17.1-11.7,1.1-2.4.3-12,.7-12.5,1.3-1.6,6.6-2,8.5-5.6,6.5-12.5-7.2-23.2-16.8-14.3Z"/>
  <path d="M1114.8,807.2c-5-3.2-12.3-3.6-17.8-1.9-2.9.9-13.6,11.5-14.4,14.3,2.5,9.2-1.3,20.1-.7,28,.7,8.3,6.6,9.4,7.4,13.2,1.5,7-5.1,29.7,15.6,19.8,13.4-6.4,3.3-14.3,4.5-18.8,3.1-11.5,21-12.4,19.7-29.8-.3-3.9-11.1-22.7-14.3-24.8Z"/>
  <path d="M787.4,1102.9c14.3-1.6,11-12.3,13.4-15.6,2.5-3.4,9.7-4.3,11.1-9.5,3.5-12.4-10.1-20.4-20.5-15.1-4.5,2.3-3.2,9.1-7.7,9.1,1.6-8.9-6.3-12.9-9-18.3-3.9-7.8-1.5-23.1-18.2-20.7-16.2,2.3-9,15.7-9.1,22,0,1.3-8.3.5-5.1,10.3,2.5,7.6,11.1.4,12.6,1.5.9.6,5.2,15.7,8.2,19.2,3.7,4.3,7.5,3.2,9.4,4.8,3.7,3.2,1.1,13.7,14.8,12.2Z"/>
  <path d="M973.1,895.5c-16.2-26.2-40.1-4.7-33.7,18.2-20.6-10.4-28,25.1-4,20.8,1.2-.2,20.2-9.4,21.1-10.1,2.3-1.8,7.1-16.6,11.5-21,5.4,2.9,3,13.3,10.3,16.8,9.7,4.6,27.8.5,27.8-12.5,0-19.3-25-31-33-12.2Z"/>
  <path d="M150.3,832c1.3,5,7.9,4.7,12,1.5,4.7-3.6,1.3-8.7,2.5-10.6,3.3-5.1,14.6-4.1,6.3-18,4.1-.2,12.2-.2,14.9-3.3,6.2-7-1.3-17-1-21.4.2-3,6.2-6.8,6.7-13.1,1.5-18.6-13.2-38.8-33.8-31-5.7,14.7-8.3,36,8.1,44.3-6.6,11.2-5.5,14.6,2.4,24.4-10.1-5.6-18.8,24.5-18.2,27.2Z"/>
  <path d="M984.8,802.1c2,3.3-7,13.5,4.6,19,7.3,3.5,9.2-2.2,14.1-2.8,6.3-.7,18.1,3.6,22.8-5.7,8.6-16.9-8.1-21-10.3-25.8-1.3-2.7,2.8-10.3-2-15.1-6.4-6.5-15.3-.4-21.6-.5-11.2-.1-31.9-8.7-24.1,13.8.8,2.3,15.4,15.4,16.5,17.1Z"/>
  <path d="M387.9,708.9l17.9-7.9,8.4,10.2c5,1.5,8.9-3.8,12.8-4.2,3.8-.4,8.3,2.6,12.7,2.1,5.9-.7,5.2-5.9,7.2-7.2,3.5-2.3,10.3-.4,14.9-4.6,14.2-13.3-8.7-32-21.8-29.8-5.9,1-9.5,8.2-18.2,2.9l-4.2,10h-9c-2.1,18-5.5,9-14.3,11.4-3.7,1-6.9,5.3-10.4,6.7.1,4.2-.4,7.9,4.1,10.3Z"/>
  <path d="M333.5,711.6c7.3-6.1-1-11.7,17.5-3.2,7.6-.7,9.2-9.1,9.9-9.5,1-.5,11.7,4.3,23-.4-.3-8.9,5.7-18.2-8.5-24-6.1-2.5-31.3,7.6-38.2,11.1.3-9.5-8.1-19-14.8-8.3-5.9,9.5-7.9,5.7-12.4,10.9-14.1,16.3,6.1,37.9,23.5,23.4Z"/>
  <path d="M469.5,1040.7c18.3-17.9,5.3-17.4,1.4-28.4-1.6-4.5,5.3-14.4-5.9-17.8-20-6.1-10.9,11.7-11.9,18.5-.9,6.1-10.5,13-.7,22.6,3.7,3.6,11,3,11.8,7.6-15.1-.6-17.7,21.8-6.6,28.7,3.9,2.5,8.1,1.5,11.1,3.2,1.5.8,1.8,5.6,4.9,6.7,8.6,3.1,15.8-2.1,16-10.9-7.9-12.1,0-32.8-20.2-30.3Z"/>
  <path d="M264.5,1088.7c-1.1-3.6-9.1-2.5-7.8-6.4,7.6.4,16.2-24.3,9.9-28.2l-12.7-1.5c-3.4-2.3-3.5-30.2-23.2-18.3-12.3,7.4,1.2,19.3,1.9,23.7.6,3.8-2.7,7.6-.9,14,.3.9.6,1.8,1,2.6,4.5,3.5,9,6.9,13.6,10.3,2.5.5,5.1.6,7.7,0v5.5c2.6,1.9,5.2,3.7,7.9,5.5,2.1-1.1,3.8-3,2.5-7.1Z"/>
  <path d="M517.1,846.3c.9.2,5.2,9.4,14.8,5.1l-5.2-28.5h7.8s4.3,15.8,4.3,15.8c5.3,2.9,10.9,2,16.5,2.4,2.6-7.1,8.5-10.6,4.8-21.6-14.5-8.8-22.9-29.5-38.6-8.3-2,2.6-2.5,6-2.5,9.2-5.4,0-.6-8.5-5-11.8-9.1-6.8-21.9,19.8-19.8,27.4,3.8,13.9,14.6,8.5,23.1,10.4Z"/>
  <path d="M552.5,863.3c8.2,14.3,29.5,10.9,31.2-5.6,2.3-21.7-16.3-15.7-28.5-16.6-3.1,8.5-8.8,11.6-2.7,22.2Z"/>
  <path d="M267.1,727l1.2,13.1c8.3,5.9,17,2.4,19.2-7.1l-10-8.7c2.9-5.6,8.5-9.1,7.4-16.2-.4-2.9-13.3-17-15.9-19.2-5.6-4.7-16.5-3-21.5,1.6-4.6,4.3-2.4,9.2-4.4,12.4-1.3,2.1-7.6,2.8-10.4,9.2-8.3,18.9,22.5,29.6,34.4,14.8Z"/>
  <path d="M1052.9,859.9c-2.8-2.8-36.9-8.4-41.8-3.4-11.9,18.4-12.1,38.5,12.6,43.6,7.1-5.6,5.2-12.5,16.8-9.8l.4,9.9,10.1,1.9,2.3-14.3-7.6-1.4c9.9-3,14.4-19.5,7.2-26.6Z"/>
  <path d="M293.7,1018.1c-2-4.6-7.4-7.3-9.6-11.3-5.2-9.1-9-32.9-27.3-19.1-12.6,9.5.5,27.8,2.1,39.7l-7.4,4.3c4.7,26.3,52.9,11.2,42.2-13.6Z"/>
  <path d="M282.3,823.6c.6-5.5-3.9-7.7-3.9-9.7,0-5.5.8-6.5.2-15.4-.6-9,6-13.8-5-22.2-7.6-5.8-19.5-6.2-26.6.7-13.2,13.1.8,29.3,14.9,34.3-23,27.6,16.9,42.8,20.4,12.3Z"/>
  <path d="M821.8,1103.7c-12.9-10.4-31.9.5-27.8,17.4-6.5-3.5-20.1-5.7-20.9,3.9-1.5,5.5,8.1,12.9,12.5,13.7,3.5.7,8.1-2.5,8.4-2.2.7.6-.9,10,7,12.5,31.1,9.6,33.4-35.3,20.8-45.4Z"/>
  <path d="M140.3,879.6l-10.7-15.1c33.9-17.7-19-44-20.8-10.4-23.8-11.6-16.1,22-2.4,11.9l4.9-9.3c-1.3,5.7,10.3,10,10.3,11.6,0,2.2-14.1,15.5,6.6,22.1l9.1-5.3c6.2,40.7,43.4-7.5,3-5.6Z"/>
  <path d="M61.7,845.6c-1.4-5.1-7.3-7.6-12.5-7.4,3.3,7.7,6.8,15.3,10.4,22.8l2.1-15.4Z"/>
  <path d="M77.2,868.8c-.8-9.3-9.9-11.9-17.3-7.2,2.5,5.2,5.1,10.4,7.8,15.5,4.7-1.2,10-2.5,9.5-8.3Z"/>
  <path d="M1057.6,776.3c-21.2,4.4-9.1,16.1-10.2,24.7-.4,2.9-6.9,6.7-8.3,11.5-1,3.4,1.7,7.4,1.5,7.7-2.5,3.5-26.3-1.9-16.8,20.8,5.7,13.5,25.3,12.4,34.9,3.8l-10.3-20.6c15.3-4.8,6-20.3,11.1-26.4,1.3-1.6,5.7-1.8,6.8-5,1.8-5.4-2.4-16.3-8.7-16.5Z"/>
  <path d="M798.5,983.3c12.4,2.3,15.5-8.2,13.3-18.7l-10.1-4.2c6.5-9.5-3.5-34.4-14.8-35.8-4.1-.5-7.3,2.3-9.6,2.2-1.6,0-1.4-4-2.1-4.4-2-1.2-3.6-1.4-5.8-.9l-6.6,4.1,7.5,25.4c1.7,2.7,16.4,5.7,19.6,11.9,2.1,4-7.8,17.4,8.5,20.4Z"/>
  <path d="M356.7,952.8c.2,1.8,6.9,22.2,7.7,23.2,4.3,5.1,17,2.6,23,.2,5.8-3.6,4.7-24.6,2-30.2-3.4-7-13.8-12-13.6-24.2l-18,4c3.8,8.5-1.9,21.1-1.1,27Z"/>
  <path d="M565.5,1026.3l-12.9,1.5c4.2-24.3-27.4-11.4-33.9-1.5-7.1,10.7,5.9,32.8,16.8,32.5,14.5-.3,6.4-13.5,15.8-20.4l10.5,4.9c9.7-2.3,12.4-11.2,3.8-17Z"/>
  <path d="M429.7,924.4c-6.8,2.3-7.6,19.3-5.7,25.8,1.6,5.5,6.1,5,7.8,7.7,3.1,4.8.9,12.7,8.6,15,5.5,1.6,16.7-.7,18.6-6.5,1.3-4-.3-33-3-36.4-5.2-6.4-18.5-7.1-26.1-5.6Z"/>
  <path d="M637.9,864.8c-6.2-3.9-14.2,3.8-16.5,3.8-3.9,0-24.3-9.8-28.4-9.5-9.3.7-13.8,16.9-7.9,23.4,2.4,2.7,6.6,2.4,8.8,4.2,6.5,5.3,2.9,10.6,16.9,8.7,10.7-1.4,9.7-8,12.5-9.6,8.1-4.7,24.6,2.3,14.6-21Z"/>
  <path d="M1174.3,683c-11.2,2.2-8.6,12-12.6,17.3-3.6,4.9-16.7,5.8-9.7,17,.5.7,11.4,11.7,12.2,12,13.6,4.8,10.9-9.2,11.6-9.8,1.6-1.2,8.2-1.1,12.6-4.3.2-.1.3-.3.5-.4,1.6-8.4,3.1-16.9,4.4-25.4-3.6-5.1-10.1-8.2-19-6.5Z"/>
  <path d="M433.2,1001.8c.8-5,8.1-3.2,10-9.6,1.2-4,.1-12.8-2.8-15.7-13.2-13.2-21.2,5.7-25.5,8.3-6.2,3.8-21.7,1.8-8.7,16.8l19.2-2.4c-1.2,9.7-9.9,18.7-5,28.3,5.7,4.1,29.9-10.5,22-20.6l-9.2-5.2Z"/>
  <path d="M103.6,787.9c-26.8-7.3-21.2,14.3-17.7,32,34.4,23.3,51.7-22.7,17.7-32Z"/>
  <path d="M310,929.9c-7-1.1-10.6,7.6-12.6,8.8-7.4,4.4-16.8,2.2-17.6,15.1-1.2,19.5,21.3,29.4,31.1,12.7,5.5-9.4.7-12.5,1.1-20.1,0-1,8.7-14.9-2-16.6Z"/>
  <path d="M212.6,740l-2.6,10.3c5,3.3,10.9-.2,14,.1.8,0,3.8,8.9,12,5.1,2.5-12.9-5.1-11-12.9-16.8,14.4-14.9-2.2-38.9-20.7-25.9-12.7,8.9-5.3,28.9,10.3,27.2Z"/>
  <path d="M520.8,997.3c-6.4-3.1-16.2-3.4-21.4,2-3.2,3.3-1.9,10.2-6.5,10.3,2.4-11.5-9.3-21.9-18.2-11.5-1.2,15.1,12.9,12.7,15.1,14.5,1.5,1.2-.4,7.9,4.6,9.7,17.2,6.2,38.2-6.1,26.3-25Z"/>
  <path d="M315.4,1004.7c5.2-4.1,5.1-14.6,1.2-19.9-4.4-7.3-16.7-8-24.3-5.8-8.6,2.6-9.1,15.4-4.6,21.7,5,8.3,19.6,8.3,27.6,4Z"/>
  <path d="M507.6,1061.7c-19.1,3.2,12.2,50.2,26.3,23.7,2.5-4.6,3.9-11.5-.1-15.5l-26.2-8.2Z"/>
  <path d="M977.5,835.2c-5.8,4.8-25.4-5.1-22.6,14.9,2.1,15.2,26.7,6.2,31.5.4,2.7-3.3,3.9-13.8,7.6-18.3-10.3-10.7-11.9-.7-16.4,3.1Z"/>
  <path d="M762.7,805.8c.1,1.3,3.5,1.7,5.4,4.2,29.3-4-7.7-30.1-5.4-4.2Z"/>
  <path d="M759.6,828.6c2.1,2.1,1,8.7,3.9,11.9,7.4,8.1,32.5-6.6,16.3-20.3-6.2-5.3-4.5-.7-11.7-10.2-7.8,1.1-17.9-1.9-17.5,11.3.3,9,7.4,5.9,9,7.4Z"/>
  <path d="M110.3,900.8c-1.8.3-17.8,6.9-18.4,7.7-3.8,4.7.8,5.1,3.4,7.1,3,2.3,7.6,6.5,9.1,7.6,24.4,16.6,35.6-27.3,5.9-22.3Z"/>
  <path d="M207.4,1014.8c-27.9-5.8-19.5,38.5,3.5,30.8l3.9-3.9c1.8-9,0-16.7-4.8-24.2,39.8-4-11.9-41.7-2.6-2.6Z"/>
  <path d="M298.9,779.8c13,4.7,13.8-10.5,7.2-18.9,12.2-1.4,4.7-10.8,7.2-19.3-22.1-13.6-13.8,2.9-15.1,12.5-.7,5-11.9,21.1.8,25.7Z"/>
  <path d="M342.3,814.2c.1-12.3-7.2-7.7-10.8-9.5-2.5-1.3-2.3-3.9-2.8-4.1-3.3-1.4-6.2-1-9.6-.9v13s-13-2.6-13-2.6l2.4,11.9c11.7-1.9,33.6,12.3,33.8-7.7Z"/>
  <path d="M304.8,732.2l9-5.2c-2.5,14.2,3.3,8.4,6.9,11.1,2.5,1.9,1.7,6.4,7.4,7.2,8.9,1.4,16.2-4.8,14-14-5.1-10.7-20.7-3.1-27.6-7.6-2.4-1.6-2-9.3-9.7-7-5.4,1.6-5.6,12.8,0,15.5Z"/>
  <path d="M169.6,825.6c-5.9,11.5,16,27.8,26.7,17.5,11.6-11.1-18.4-33.7-26.7-17.5Z"/>
  <path d="M835.7,964.4c9.6-8.8,1.3-24.2-11.2-21.8-25.2,5-5.6,37.1,11.2,21.8Z"/>
  <path d="M531.7,712.9l17.9-1.8c-.7-6.1,3.8-21-.2-25-9.9-9.8-29.4,18.8-17.7,26.8Z"/>
  <path d="M114.4,771.5c-11.2,18.2,24.7,32.3,23.2,6.1-.9-16-19.8-11.6-23.2-6.1Z"/>
  <path d="M206.6,866.6l13.3-6.6-2.5-18.7c-5.8-1.6-18.1.5-20.1,6.6-2.4,8.4,2.1,14.8,9.3,18.6Z"/>
  <path d="M66.1,802.1c-9.2-10.7-11.2-1.1-16.3-.3-4.3.7-7.8-9.3-13.9-1-.4.5-.7,1-1,1.4,1.2,3.3,2.4,6.6,3.6,9.9l10.4-4.7c3.2,19.7,28.3,7.8,17.1-5.3Z"/>
  <path d="M746.5,937.5c-9.1,2.7-12.3,22.5,2.1,23.1,22.2,1,16.4-28.6-2.1-23.1Z"/>
  <path d="M171.1,869.6c-2.1-13.8-21.2-9.5-12.8,5l12.7-2.4c0,19.2,27.1,11.6,15.8-6.6-7.1-5.1-14.8,4.8-15.7,4.1Z"/>
  <path d="M1112.6,731.6c8.4-8.7,4.6-22.1-11.1-20.3-22.4,2.5-.5,32.3,11.1,20.3Z"/>
  <path d="M220.4,775.2c-.4,1.6,4.8,23.4,9,23.8,9.5.9,12.7-20.6,11.6-27.8-5-1.9-19-2.1-20.6,4Z"/>
  <path d="M133.8,805.3c-11.2,2.1-13.9,23.6,1.8,22.3,15.5-1.3,10.7-24.6-1.8-22.3Z"/>
  <path d="M209.1,800.1c-8,1.5-14.4,16.2-2.4,19.8,20.7,6.3,16-22.4,2.4-19.8Z"/>
  <path d="M401.4,795.1c-7.9-9.1-25.1,1.5-17.2,14.5,5.9,9.7,27.7-2.5,17.2-14.5Z"/>
  <path d="M627.2,770.4c4.3-4.5,1.6-26.4-10.8-22.4-9.1,2.9.5,33.2,10.8,22.4Z"/>
  <path d="M232.4,963.3c-6.4,1.7-4.2,6.8-5.4,9.4-.3.6-3,.6-3.2,1.2-1.3,3.5-1.9,6.7.3,9.9,9.2,13.5,27.4-25.5,8.3-20.5Z"/>
  <path d="M1136.8,723.3c5.6-3.9,4.2-20.3-8.7-16.6-14.6,4.2-4.7,26.1,8.7,16.6Z"/>
  <path d="M185.6,711.3c14.9,4.6,24.7-23,5.4-17.5-6.6,1.9-14.7,14.7-5.4,17.5Z"/>
  <path d="M1153.7,831.6c1.5-3.6,3-7.3,4.5-10.9-9.8,2.2-12.2,8.7-4.5,10.9Z"/>
  <path d="M649,1045.5c9.4,6,23.1-7.3,10-14-10.6-5.4-15.7,10.4-10,14Z"/>
  <path d="M1057.5,737.3c-5.1-11.8-22.4-.7-13.6,9.7,7.4,8.8,16.3-3.5,13.6-9.7Z"/>
  <path d="M819.7,919.1c-9.6-5.8-23.2,7.4-10.2,14.1,11.1,5.7,14.2-11.7,10.2-14.1Z"/>
  <path d="M738.3,978.6c8.2-11.7-10.2-16.5-14.1-10.3-5.5,8.8,8.4,18.4,14.1,10.3Z"/>
  <path d="M626.9,929.5c-9.4,2.9-1.3,17.8,7.4,15.3,7.1-2,6-19.5-7.4-15.3Z"/>
  <path d="M680.8,1180.5c9.4-2.9,1.3-17.8-7.4-15.3-7.1,2-6,19.5,7.4,15.3Z"/>
  <path d="M489.1,983.7c9.3,2.6,14.2-11.4,8.8-15.3-9.8-7-18.8,12.5-8.8,15.3Z"/>
  <path d="M843.1,822.7c3.3-2.3,5.3-17.7-5.8-14.9-13.6,3.5-4,21.7,5.8,14.9Z"/>
  <path d="M576,1114.7c-2.6,9.3,11.5,14.2,15.3,8.8,7-9.8-12.5-18.8-15.3-8.8Z"/>
  <path d="M118.8,740.3c-2.8-4.5-22.5-2.6-14.1,10.2,4.2,6.4,20.1-.4,14.1-10.2Z"/>
  <path d="M648.4,960.6c-9.3-2-16.3-.8-14.2,10.2l14.2,2.3v-12.5Z"/>
  <path d="M651.2,742.5c6.8-9.9-12.6-19-15.5-9-2.8,9.6,12.9,12.7,15.5,9Z"/>
  <path d="M1139,789.5c-10.5-7.7-18.6,13.2-5.9,15.2,7.3,1.1,10.4-11.9,5.9-15.2Z"/>
  <path d="M729.5,1087c3.1,4.8,16.3,1.4,15-5.8-1.9-10.9-22.3-5.7-15,5.8Z"/>
  <path d="M481.2,947.4c7.9-2.1,2.1-16.6-4.8-15.4-10.8,1.9-5.6,18.1,4.8,15.4Z"/>
  <path d="M108.8,891.7c6.8-4.7.7-14.5-8.9-11.5-10.1,3.1-1.3,18.6,8.9,11.5Z"/>
  <path d="M1022.5,759.6l2.5-14.4c-16.4-3.3-19.1,17-2.5,14.4Z"/>
  <path d="M743.4,1009.6c-8.1,2.1-2.4,15.6,5.2,14.9,10.1-.9,5.5-17.7-5.2-14.9Z"/>
  <path d="M952.5,1062.9c-5.5,18,20.7,11.7,12.6-1.2-1.2-1.9-10.8-4.4-12.6,1.2Z"/>
  <path d="M343.7,928.6c10.1-.9,5.5-17.7-5.2-14.9-8.1,2.1-2.4,15.6,5.2,14.9Z"/>
</svg>