<?xml version="1.0" encoding="UTF-8"?>
<svg id="Layer_1" xmlns="http://www.w3.org/2000/svg" version="1.1" viewBox="0 0 1200 1200">
  <!-- Generator: Adobe Illustrator 29.0.0, SVG Export Plug-In . SVG Version: 2.1.0 Build 186)  -->
  <path d="M612.1,1199.8c-1.6,0-3.2,0-4.8,0,1.7.2,3.3.1,4.8,0Z"/>
  <path d="M32.6,747.3c-.3-3.5-9.2-11.3-17.9-14.9,1.7,7.5,3.5,14.9,5.5,22.3,3.8-.1,13.2,2.5,12.4-7.4Z"/>
  <path d="M1030.8,833.3c-4.4-3.3-5.6-12.3-15.8-7.8-4.1,1.8-1.7,6.7-5.8,6.1,4-25.5-31.9-25.5-30-1.2.7,8.9,9.1,9.5,14.4,14.2,2.5-.4,5,.3,7.7-1.2,4.6-2.6,3.3-8.9,7.8-9.1,2.4,10.2.7,29.2,14.5,31.2,14.7,2.1,29-15.6,16.8-27.5-3.1-3-7-2.7-9.6-4.6Z"/>
  <path d="M957.5,823.6c-.6-.8,4.9-10.2.4-19.8-6.6-14.3-30-9.5-35.5,4.6-1.8,4.7.4,12.6-4,12.9-5.1-6.3-2-14.5-4.3-20.1-1.7-4.2-5.9-3-6.1-3.3-.8-1.4,4.7-4.5,5-8.8.3-4.9-4.1-14.1-2.8-20.5l-3.9-4-15.4,2c-9.4-17.6-17.6,9.4-20.4,9.9-16-.3-12.6-16.9-29.9-5.6-17.3,11.3-2.5,31.4,13.6,26.6,4.4-1.3,9-9.3,16.6-9.4,4.4,0,8.1,6.7,14.8,4.5l5.5-7.7,14.2,12.9c-7.4-1.3-4.2,6.2-6.5,10.2-5.8,9.9-13,11.5-9,28.7l-27.3-12.9c-7.3.2-7.6,8.7-9.5,9.8-4.3,2.4-17.4-2.5-19.9,7.4-3.9,14.9,19.5,7.7,20.4,8.6.3.3,0,5.8,2.5,9.2,1.2,1.7,11.8,8.8,14,9.6,9.9,3.7,12.7-3.9,18.6-4.6,7.5-.9,13.9,4.6,23.6-1.1,13.4-8,.5-28.9,7.6-31.2,4.3,10.2,14.1,9.7,22,2.6-1.1,15.7,8.4,22.4,23.4,20.7l-5.6,20.5c-6.6-3.6-11.8.2-16.3.2-1.2,0-3.6-10.9-20.4-7.2-10.1,2.2-7.5,7.9-11.3,12.2-2.5,2.8-6.1,4.1-8.5,7.2-6.8,9,4.7,8.4,7,11.8,2.4,3.5-7.1,29.9,20.2,17.8,7.3-22.2,6.3-12.6,20.2-14,12.5-1.3,15.9-11.1,14.6-22.5,18.9-5.3,16.1,8.6,20.6,11.8,14.6,10.2,10.6-10.7,12.1-14.5.9-2.5,5.4-5,6.9-8.4,5.6-12.6-2.8-18-11.1-25.2-6.3,1-13.9-.4-20.7,2.6,5.7-15.5-12.4-19.3-15.4-23.6Z"/>
  <path d="M870.8,1124.3c-3.2,2.1-4.4,8-3.6,13,7-3.5,13.8-7.1,20.7-10.8-3.7-5-9.8-6.9-17-2.2Z"/>
  <path d="M798.2,1151.2c-15.2-15.4-44.7,4.8-29.6,24.7,11.8-3.5,23.5-7.3,35.1-11.4-1.1-3.2-3.1-10.9-5.4-13.3Z"/>
  <path d="M629.1,1199.2c4.3-.2,8.6-.5,12.9-.8-.4-1.3-.9-2.6-1.4-4-5.1,1.3-9.3,2.7-11.5,4.7Z"/>
  <path d="M675.9,1183.9l-19.7-2.4,2.7-15.5,18.8.2c13.6-10.1,1.7-25.9,1.9-27.5.2-2.4,11.8-1.7,7.2-15-2-5.9-8.4-5.8-9.3-7.5-2.2-3.8,1.8-12.3-4.7-14.8-9.5-3.2-13.7,5.4-11.5,13.7.6,2.4,5,1.5,5.2,1.7.8,1-4.8,5.3-5.3,9.2-.5,4.2,2.8,10.7,2.4,11.2-.5.7-5.2,1.2-7.2,4.4-2.9,4.4-1.8,11.8-3.4,13.6-1,1.2-6,.6-8.5,3.1-4.2,4-1.4,14.3-12.4,10.4-.6-.2-8.7-7.8-9-8.4-2.1-4.4.3-10.7-1.2-15.7-.9-2.9-10.2-21.8-11.5-22.3-7.7-2.4-13.6,3.3-20.6,4.7-5.4,1.1-21.1-1.8-24.2,9.7-3.2,12.1,19.8,11.7,23.3,15.5.6.6,7.5,14.3,7.6,15.4,1.1,8-11.9,28.2,9.1,32.2.5.1,1.1.2,1.6.2,1.6,0,3.2,0,4.8,0,16.8-2.6,19.8-28.6,28.5-5.3,14.3-3.7,13.2-1.8,14.7,2.9,8.3-.8,16.5-1.7,24.6-2.8.7-3.5-.3-7.4-4-10.8Z"/>
  <path d="M368.6,1060.3c3.2-1.8,8.7.6,13.9-3,15-10.2,0-33.9-17.9-28.3-4.8,1.5-19.9,20.7-19.8,27-2.6,2.1-10.3-2.8-16.4-1.1-8.2,2.3-6.6,13.5-14.9,12.5,10.2-13.3,2.6-22.7,0-36.3,17.9,2.3,33.1-16.6,22.8-33.1-6.3-6.3-35.8-2.7-37.3,5.8l6.8,11.7c-31.2-3.6-31.1,21.6-21.4,43.4,3.7,8.3,12.8,11.7,21.4,11.1-5.9,5.4-7.5,15.5,1.8,17.7,5.4,1.3,10.4-3.7,15.4-4,6-.4,11.8,4.2,19.2.5,6.1-3,7-16.4,7.8-16.9.6-.4,7.1,4.7,13,1.5,3.5-1.9,4.1-7.8,5.7-8.6Z"/>
  <path d="M458.9,761.6v7.8c-6.2-.2-11.1-.9-15.7,3.7-1.1,1.1-13,27.1-13.1,28.7-1,17.1,15.5,19.8,28.8,14.3-1,5.7-5.4,34.1,1.3,36.3,10.7,3.4,6.7-14.8,16.7-17.1l-5-13.9c8.8,1.1,14.1-3.1,20.7-7.8l6.5,7.8c11.4-7.9,6-16.5-6.4-10.3,1.8-11.6-3.6-20.4-15.5-20.8v-7.6c24-1.2,13-38.7-7.7-31.2l-4.3-10.2c-13.5-4.9-30,27.1-6.2,20.6Z"/>
  <path d="M511.5,1105.9c-1.1-1.2-2.5-11.3-7.3-17.6-2.5-3.2-6.2-3.9-8.1-6.1-1.8-2.1-1.7-6.7-4.5-9.7-10.3-11.3-29.7-9.2-30.1,8-4.8-.2-2-7.1-6.2-10.6-11.5-9.7-24.6,4.9-19.4,18,8.8,5.3,16.4,1.5,25.5.4-1,5.1,17.6,24.7,20.1,25.4,8.1,2.5,16.1-2.9,24.1-2.1.2,8.6-9.8,5.9-10.4,17.1-.7,12.9,13.7,13.6,23,8.5l.4-23c7.4-6.4,6,20.7,15.6,24.7,20.4,8.4,25.2-55.1-5.2-41.5-7.5,3.3-5.2,11.5-10.4,14.2,1.5-6.5-6.1-4.4-7.2-5.7Z"/>
  <path d="M49,801.2l1.2-6.1-6.6-10.1c9.3-1.7,14.1-8.9,13-18.2,4.8.2,2,7.1,6.2,10.6,11.7,9.9,15.5-3.7,17.5-5.1.9-.6,13.1,6.4,20.7-4,3.2-4.4,3.3-32.8-.9-37.1-2.4-2.5-18.6-9.6-22.6-10-22.7-2.1-8.2,24.2-2.7,35.2-6.3.3-15.8-.4-15.6,7.8l-6.9-13.1c-5.5-2.7-12.5-4.1-16.7,1.3-5.2,11.8-3.8,23.9,5.4,32.6-3.4.1-7.2,1.2-11,2.9,2.8,8.5,5.8,16.9,8.9,25.2,3.1-4.5,6.1-9.4,10-11.8Z"/>
  <path d="M581.6,877.5c2.6-9-5.3-13.7-5.3-16.1,0-2.1,9.3-6.3,7.4-15.2l-13.3-3.1-2.5,11.9c-3.5-4.7-13.2-4.3-15-5.7-1.6-1.3-.6-8.5-5.7-11.2-9.4-5-14.8,3.4-17,3.3-1.4,0-16.5-14-22.9-12.2-8.1,3.3-4.1,15.4-7.6,19.8-2.3,3-10.1,4-12.4,7.8-9.3,15.3,5.6,28.5,21.7,23.6,8.8-2.7,5.2-11.2,7.5-14.5,1.7-2.4,14.4-2.1,12.5-13.5,6.5,5.3,10.3,7.1,18.1,2.6,4.5,5.2-19.5,23.7,2.9,37.4,12.1,7.4,27.9-2.6,31.6-14.9Z"/>
  <path d="M722.5,810.9c1.8,3.1-1.5,7.4-1,11.1,1.9,12.3,19.8,18.6,30.6,14.8-.7,6.6,1.1,11.8,6.4,15.8,14.6,7,20.2-6.8,9.3-17.3-2.2-2.2-7.4-3.5-7.7-3.9-1-1.4,6.6-23.6-8-30.8,19.6-3.7,15.6-30.1-2.2-32.4-8.8-1.1-13.5,5.3-17.8,5.9-4,.6-16.9-13.2-23.4,2.5-12.2,29.4,8.4,25.3,13.7,34.3Z"/>
  <path d="M185.2,699.3c-2.2-3.6-.7-11.1-5.6-12.7-19.5,1-21.3,11.9-22,28.1-15.1-3.9-29,17.6-19.1,28.7,5.8,6.5,13.4,2.4,16.7,7.8-17.9,5.9-35.9-.3-31.1,24.6,1,5.1,5.2,7.6,7.7,11.7,5.5,0,8.9,2.8,15.6,1.5,18.1-3.5,16.6-22.6,21-36.1l-8-6.8c13.2-.7,8.1-12.5,11-17.6,3.3-5.8,21.8-1.9,25-12.8,3.4-11.6-8-11.4-11.2-16.4Z"/>
  <path d="M81.7,802.3c-3.4,3.1-12.1.3-9.5,11.2h10.4s.2,10.1.2,10.1l12.7.3-1.5-13.1c7.4-3.8,16.3-2.1,17.1-12.8,12,18.2,34.2,12.1,20.7-10.4-11,0-10.7,3.2-19.4,7.8-11.5-21.2-20.6-2.3-30.7,6.9Z"/>
  <path d="M652.8,790.5c-2.9.8-4.6,4.9-7,5.8-3.1,1.3-5.9-2-10.5,2.7-5.1,5.2-5.5,12.9-5.1,19.7l-7.7-2.6c7.2-11-5.4-19.7-15.7-14.3-5.1,2.7-4.1,9.8-5.7,11.2-4.6,3.9-21.4-3.1-14.7,17.1,1.8,5.3,8,4.2,12.6,4.3-15.8,48.6,52.1,34.1,31.2-3.9l5-2.6c17.3,12,21.9-3.7,30.2-15.3,9.2-8.2-2.5-24.9-12.7-22Z"/>
  <path d="M331.7,1106.4l-14.4,2.5,1.8,10.1c1,.9,7.7.6,10,.3,1.4-4.3,3.7-7.8,2.6-12.9Z"/>
  <path d="M386.4,1151.6c-3.7-4.1-11.9-3.9-14.6-9-2.6-4.9,2.8-16.5-6.4-24.5-11.6-10-25.2,0-36.3,1.2-1.3,4-4.2,8.7-6,13,21.4,11.1,43.5,21,66.3,29.6.3-2.8.1-6.8-3.1-10.4Z"/>
  <path d="M757.4,875.7l-2.4-11.9c-8-3.9-16,.8-12.9,10.2,2.5,7.7,11.8,4.2,12.3,4.7,1.5,1.4,1.8,7.4,2.9,10,22.3.8,19.9-22.5,0-13Z"/>
  <path d="M788.6,906.8c24.3,7.5,13.9-17.5,26-31.1,9.9,15.1,35.9-6.3,29.9-15.6-7.9-7.7-31.7-.5-27.4,13-11.9-3.7-17.5-14.1-32-10.5-12.7,14.9-1.6,17.8.5,25.2,4.1,14.1-18.4,3.4-25.5,8.6-.2-2.9-1.6-5.2-2.7-7.8-4.5-.2-11-5.9-18.1,0,6.9-29.1-37.2-27-28.6,0-9.1-3.5-15.3,5.3-20.4,6.5-3.5.8-7.9-1.9-11.8-1.3-23.8,3.2-7,56.7,17.9,26.6,17.2,17.1,27.6-9.6,22.1-24l15.5-2.6c.3,5.7,7.1,16.6,12.3,17.8,3.3.7,8.2-2.6,8.5-2.3.6.6,0,10.7,7.9,14.2,13.3,6,27.8-1.8,25.9-16.8Z"/>
  <path d="M275,712.7c-3,4.3.6,15.6,6.7,17.4,14.4,4.2,14.5-11.5,26.8-13.7,3.9-.7,6.7,5,11.5,3.8,5.9-4,3.7-7.5,1.4-12.9,16,3,24.9-5.5,20.8-21.7-.8-3-6.3,0-5.2-4.2,19.6-3.3,40.5,6,53.5-13.9,2.5-3.8,5.1-7.4,2.5-12.2-8-3.7-18.9-7.1-27.4-3.7-3.9,1.6-10.2,10.3-14.8,11.1-4.6.7-11.8-8.4-20.1-2.3-3.7,4.4-.2,11.3-1.9,16.7-1.1,3.4-22.8,17.5-17.8,30.2-4.2-6.7-34.9,3.9-36,5.5Z"/>
  <path d="M1163.6,686.4c-10-8.8-22.3,4.3-24.6,2.6-1-12.7-19.1-9.2-29.2-12.5-12.1,5.1-18.3,15.5-14.4,28.8,3.5,12,17.5,8.2,19.8,10.1.8.7.9,6,2.9,8.6,13.2,17.6,34,8.1,28.6-11.6l16.8,12.9c7.4-4.6,1-10.4,1.8-16.3.9-6.4,8.6-13.5-1.7-22.6Z"/>
  <path d="M432.2,1102.9c-2.1-15.4-14.3-6.5-20.1-8.4-14.4-4.8-8.3-18.1-13.6-23.8-15.3-16.5-49.4,9.2-32.8,28.9,8.9,3.9,35.7,24.1,38.7,9.4h2.5c-1.8,7.1,3.2,7.1,5.2,10.3,3.4-.5,8,1,11,0,1.8-.6,3.8-5.3,7.1-7.8-.2-1.8,2.3-5.4,1.8-8.6Z"/>
  <path d="M391.9,1126.2c-3.8,14.3,4.7,28.7,20.3,22.9,13.5-13.2,7.5-17.9,0-29.8-7,.9-16-1.4-20.3,6.9Z"/>
  <path d="M512.2,1165.9c-3.1-5.2-14.7-4-16.4-5.7-5.2-4.9,1.8-2.5-11.3-10.1-2.9-1.7-17-10.6-17.7-11.4-7-8.3,5.8-22.6-6.8-32.1-12.9-9.8-19.7-2.6-29.6,4.9.7,6.8,5.5,32.3,10.3,35,4.1,2.3,10.5.3,15.6,2.6,5.1,2.2,7,11.1,9.6,11.8,5.1,1.2,10.8-1.9,15.1-1.4,3.4.4,8.7,5.8,14.3,3.9-4.1,7.7-4.5,16.1,4.4,20.4,4.6,1.8,9.4-4.1,12.4-4,4.2.2,14.8,15.1,24.4.2,12.2-18.8-15-34.9-24.3-14Z"/>
  <path d="M930.5,768c.3,3.1-4,7.7-3.7,12.6,1.1,15.2,15.2,15.6,25.2,6.9,5.8,18.1,22.7,3.9,25.4-9.7,3.8-18.9-7.1-16-15-25.3-8.3-9.6-6-21-7.9-32.3-10.3-6.6-34.9,25.4-32.3,36.5,1.1,4.8,8,8.6,8.2,11.3Z"/>
  <path d="M225.8,713.2c1.7,5.4,8.3,6.1,11.1,9.7,3.7,4.6,3.2,11.5,7.7,15.6,14.8,13.3,34.3-6.7,21.2-21.1-3.8-4.2-10.5-4.4-11.4-5.5-2-2.4-.9-15.7-8.3-18.9,34.6-19.4-5.9-52.8-20.9-26-9.2,16.4,4.3,22.2,4.6,26,.3,3-7.3,10-4.1,20.3Z"/>
  <path d="M417.4,727.9c26.8,26.1,46.8-13.1,23.6-32.7-1.5-1.3-23.1-11.6-24.8-11.6-21.3-.3-25.4,27.2-9.2,39.1-30.4,12.2,15.1,36.5,10.4,5.2Z"/>
  <path d="M518.3,777.5l2.9,8.8c-14.2-.8-14,24-3.3,26.8,10.4-3.2,29.5,4.5,37.1-3.4,3.5-3.7,5.7-26.7,2.7-31.3-7.2-11-14.7-4.5-22.4-4.1-1.2,0-.5-3.8-3.1-4.8-2.3-.9-7.1.8-8.2-.3-.7-.6,0-6.9-1.6-10-12.4-26.3-47,20.6-4.2,18.3Z"/>
  <path d="M1131.1,751.2c-5.8-1.6-4.9-10-8.8-13.2-10.2-8.3-25.9,9.5-24.5,19.1,1.7,11.2,22.7,26.9,33.4,21.4,4-2,4.4-8.1,5.5-8.9,1.3-1,22.1,8.2,29.4-8,13-28.5-29.4-42.8-35-10.3Z"/>
  <path d="M573.2,1199.3c8.1.4,16.3.6,24.6.6-7.9-6.1-17.8-6.4-24.6-.6Z"/>
  <path d="M1023.8,704.3c5.7,3.7,10.4,2.9,16.2-.1l.4-10h18.1c-13.5,18.9,1.2,20.9,7.8,31.1,29.6-6.2,21.8-36.2-5.2-33.7,17.3-19.7-.7-45.9-24.5-30.8-3.3,2.1-3.8,6.7-4.4,7.1-1.2.8-17.4-6.9-22.5,9.9-3.1,10.1,6.1,21.2,14.1,26.4Z"/>
  <path d="M1051.8,727.8l1.8,18,18.9,2.3c8.1-3.4,7.7-10.2,3.7-17.2l-9.9-.4c-.7-1.5.4-4.4,0-5.1-3.9.8-11.4-1.8-14.5,2.4Z"/>
  <path d="M728.9,1171.2c22.1,7.7,15-.6,16.8-11.7.5-3,4.7-5.2,3.7-9.8-2.8-12.4-20.7-7.2-15.4,8.5-15.9-20.5-48.9,10.1-32.6,26.1,4,3.9,10,4,13,4.7,6-1.2,12-2.4,17.9-3.8-2.6-6.5-5-12.2-3.5-14.1Z"/>
  <path d="M1132.5,621.6l14.2-5.2c.4,6-5.6,7.2-5.2,14,.6,11.5,13.4,20.4,22.4,9.5,4.2-5.1,2.6-10.3,4.2-12.6,1.3-1.9,7.7-1.7,11-5.9,17.9-23.1-30-45.1-34.9-10.3-8.2-9.4-22.1,1.2-11.6,10.4Z"/>
  <path d="M270,1101.1c5.9,3.9,11.9,7.7,17.9,11.4.7-.7,1.4-1.6,2-2.6,9.6-14.6-15.3-23.9-20-8.8Z"/>
  <path d="M168.3,798.9c-1.1-.2-21.5,3-22.7,3.4-16.1,6.9-19.7,29.9-1.5,33.9,11,2.4,16.4-5.3,27.3-2.6,2.4-.5,10.3-3.9,11.7-5.3,10.3-11-.7-27.5-14.8-29.4Z"/>
  <path d="M29.1,684.1c-4.5-2.8-11.8-1.9-13.5-3.4-1.1-.9-1-6.5-4.2-10-2.3-2.4-4.9-3.8-7.7-4.4,1.6,14.4,3.7,28.5,6.2,42.6,4.4,4.1,15.8,14,16.8,13.8,9.6-7.5,13.6-31.7,2.4-38.6Z"/>
  <path d="M781,1107.9c-7.3,7.4-17.8,19.6-7.4,28.8,14.9,13.4,20-10.9,29.3-12.3,11.1-1.7,24.6,11.1,21.4-10.9-4.4-30.4-27.2-21.8-43.3-5.6Z"/>
  <path d="M940,1061.3c-3.7-3.2-4.9-9.5-12.7-9.3-4.7.7-11.5,6.9-11.6,11.5,0,1.4,6.9,25,7.6,26.1,3,5.1,8.4,6.4,13.9,6.5,4.3-3,8.6-6,12.9-9,6-12.9,1.3-16.1-10.1-25.9Z"/>
  <path d="M835.7,893.1c-5,18.9,24.8,31.9,39.3,28.7,17.4-3.8,14.8-28.8-.7-34.5-2.5-.9-23.1-5.9-24.3-5.8-4.1.4-13.2,7.7-14.3,11.6Z"/>
  <path d="M436.8,1153c-5.7-.6-19.8,7.7-27.3,16.1,10.5,3.5,21.1,6.7,31.9,9.7,1.8-2.8,3.3-5,3.8-5.8,4.7-6.9.2-19.1-8.4-20Z"/>
  <path d="M675.6,852.5c3.7,9.6.5,19.1,15.6,20.8,26.6,3,38.5-31.1,11.8-38-5.4-1.4-11.4,2.2-12.6,1.3-1.9-1.4-1.5-11-11.8-7.3-2.2.8-9.4,14.6-9.1,16.3.5,2.5,5.1,4.5,6.1,6.9Z"/>
  <path d="M1066.3,784.9c-4.6-10.4,8.4-15.4-3.8-23.5-17-11.2-12.1,14.7-12.9,15.8-2.9,4-16.7.5-21,10.3-3.8,8.7,14.2,24.2,22.9,22.8,8.6-1.3,16.1-14.3,14.9-22.9,4.4-.5,2.2,5.9,6.8,7.4,3.3,1.1,7.8.1,11.4.3,2.2-16.3-5.8-20.4-18.1-10.4Z"/>
  <path d="M1157.1,660.5c-38.7-21.7-24.6,46.4,3.9,10.5,15.9,12.8,30.6-.4,29.9-18.3l5.7,10.8c.6-5.4,1.1-10.8,1.5-16.2l-9.8,5.4c-7-22-31.2-12.1-31.2,7.8Z"/>
  <path d="M650.6,867c-10-12.3-26.7-6.3-31.5,6.8-1.6,4.5-2,26.8,3.3,30.4l-9.3,2.4c-4.1,9.6,1.7,16.4,12,12,4.7-3.3,1.8-10.3-.2-14.4,18.5-1.5,40.3-19.2,25.6-37.3Z"/>
  <path d="M983.4,752.2c2.4,8.3,24.6-.7,29.4-3.8,11.4-7.3,4.6-29.1,1.6-40-17-10.3-16.8,4.4-21.5,8.5-3.2,2.8-11.2.4-12.4,9.9-.9,7.4,4,9.7,4.5,13.2.6,3.7-2.8,8.1-1.6,12.2Z"/>
  <path d="M497.8,719.1c.6,2.7-13.5,14.2-7.3,24,4.5,7.2,31.1,4.4,27.8-15.9-.5-2.9-4.3-6.4-4.1-8.4.2-2.8,8.1-4.5,7.1-15.3-2.2-24.4-38.7-16.7-33.3,8.4l9.8,7.2Z"/>
  <path d="M326.4,752.8c.5,15.1,7.3,38.4,26.7,34.1,14.3-3.1,11-15.5,13.1-25.9,1-5.1,9.7-10.6.8-17.8-4.4-3.5-8.2-1.5-11.9-2.4-8.9,15.1-16.1,4.8-28.7,11.9Z"/>
  <path d="M340.8,735.7c3.4,6.6,9.7,4.1,14.4,5.2,16.8-28.2-24.3-24.6-14.4-5.2Z"/>
  <path d="M224.1,813.4c11.6,3.5,13.6-18.2-1.3-15.6l5.2-12.9c31.4,8.3,22.4-9.5,8.7-25.7-1.6-1.9-5.4-2.6-5.7-3.1-.5-1,2.3-5.1,1.7-8.1-1.7-8.2-10.7-10.8-3.1-24-1.5-5.1-9.8-9.6-13.4-3.9,1.6,15.4-4.8,13.7-8.7,19.7-9,14,3.3,28.7,17.8,21.9v20.7s-11.3-4.8-11.3-4.8l-9.6,11.4c-1.3,13.3,13.8,10.2,15.4,11.8,1.2,1.2-.8,11.1,4.2,12.6Z"/>
  <path d="M100.1,663.7c-10.2-10.2-33,1.4-25.3,17.5-24-5.1-27.7,20.2-5.9,28.1,14.6-.2,17.5-10.7,13.7-22.9,14.6,10.1,27.9-12.4,17.5-22.7Z"/>
  <path d="M477.8,1187.5c8.5,1.8,17.1,3.3,25.8,4.7-4.8-3.2-9.8-6.5-11.6-7.3-4.4-1.9-11.9-1.7-14.2,2.5Z"/>
  <path d="M819,815.3c16.4-13.2-2.3-42.8-21.5-30.5-7.2,4.6-5,12.4-7.5,15.8-3.2,4.2-14.1-.5-13.8,9.5.4,13.8,34.1,12.3,42.9,5.3Z"/>
  <path d="M1073.2,654.4c12.6,5,17.3,3,28.2,4.6,2.6.4,4.7,5,8.2,6.3,10.9,4,16.4-11.7,10.7-19.9-5.5-1.2-11.2-2-10.1,4.8h-2.5c1.1-13.6-6.6-12-12.1-16.4-4-3.3-6.4-12.8-14.8-6.7-6.2,4.5-4.2,6.6-1.7,12.8-12.2-3.8-17.8,10-6,14.6Z"/>
  <path d="M445.2,1042.3c-13.1-15.8-37-3.4-35.6,13.3,1,11.5,5.2,3,.6,18.9-3.9,13.4,20.3,9.3,12.4-4.5,13.9,1.7,33.8-14.3,22.6-27.8Z"/>
  <path d="M262,1041c-.6-.9,3.6-15.2-6.8-15.1-11.7,2.1-15.5,13.8-26.9,13.4-9.4,20.6,23.9,35.9,15.2,8.6l5.1-1.3c-4,32.5,38.6,18.7,20.8-1.4-2.1-2.4-6.7-3.1-7.5-4.3Z"/>
  <path d="M857.4,1113.9c-1.5-3.2-.8-7.8-2-9.5-.8-1.3-6.9-3.2-8.7-3.1-7.8.2-5.8,10.7-9.2,16.5-4.6,7.7-20.2,16.1-7.3,26.1,13.1,10.1,36.7-9.9,33.2-22.7-.8-2.8-4.7-4.6-6-7.2Z"/>
  <path d="M886.5,1068c-9.5.9-6,8-7.5,9.4-2.3,2.2-13.7-1.2-18.4,8.9-11.6,24.9,21.5,32.9,30,11.6,1.8-4.4-.4-7.4.2-10.4,1.2-5.7,11.7-21-4.3-19.5Z"/>
  <path d="M577.2,795.2c14.9,1.1,9.4-7.3,12.2-12.1,2.7-4.8,16.5-10.5,17.3-12.7,1.8-4.9-2.2-8.7-2.4-11.3-2.8-.2-6.1,1.6-9,1.3-2.7-.3-5.6-4.1-10.4-4.2-12.4-.3-31.4,37.3-7.6,39.1Z"/>
  <path d="M617.1,761.5c3-7.4,4.9-14.6-4.8-16.8-9.7-2.2-8.7,7-8,14.3,3.2.2,10.6,4,12.8,2.5Z"/>
  <path d="M707,1129.4c13.1,21.4,41.8,0,34.2-19.8-16.1-14.1-47-1-34.2,19.8Z"/>
  <path d="M278,762.4c-22.1,27.4,34.1,47.6,30.6,8.3-1.4-16.2-22.1-18.8-30.6-8.3Z"/>
  <path d="M379.6,782.5c5.3,7.8,19.8-8,26.2,10.4,2.3,6.8-6.9,11.4-2.8,18l10.6,5.1,6.6-3.6,2.2-10.3-7.6-4.2c6.2-7.8,19.1-28.4,9.3-36.5l-7.5-2.1c-13.2,14.3-8.2-.5-21.3-4.6-11,3.7-24,15.5-15.7,27.8Z"/>
  <path d="M585.4,1088.7c-30.7,8.1-21.2,42,4.8,30.8,17.1-7.3,11.4-17.3,3.8-30.1-2.7-2-5.6-1.5-8.6-.7Z"/>
  <path d="M187.6,1006.4c-8.8,5.3-9.6,8.5-20.6,8.9,4.9,5.1,9.9,10.2,15,15.1,20.8,4.1,31.1-17.5,5.5-24.1Z"/>
  <path d="M701.9,782.4c.8-2.7-3.4-24-4.7-25.3-6.6-6.5-20.4-4.5-22.4,6.5-3,16.9,20.9,40.4,27.1,18.8Z"/>
  <path d="M109.8,865.3c3.4,7.2,19.7,6.5,24.1,2,1.6-1.6,5-14.1,5-16.7.4-23.3-40.3-7.8-29.1,14.8Z"/>
  <path d="M224.5,969.6c-13.9.4-24,19-10.6,27.6,26.9,17.1,33.8-28.2,10.6-27.6Z"/>
  <path d="M298.3,653.7c-2.7-3.1-8.2-2.6-9.9-4.3-1.9-2-.5-7.9-4.8-9.5l-11.5,3.8c5.4,7.6,1.8,18.2,4.4,23.8,8.5,18.5,33.3-.7,21.8-13.9Z"/>
  <path d="M542.8,763.4c9.4,8,26.7-5.7,21.3-17.3-10.4-22.1-40.5.9-21.3,17.3Z"/>
  <path d="M290.2,969c-3-4.4-19-3.6-15.6,7.8-16.7-10.2-25.5,12.7-10.3,19.5,11.3,5.1,12.6-8.5,16.4-13.5,1.9-2.5,14.2-6.9,9.5-13.8Z"/>
  <path d="M632.8,1120.7c15,16.8,30.6-8.5,20.2-18.8-8.9-8.9-35.3,1.9-20.2,18.8Z"/>
  <path d="M643.1,784c6.6,1.7,17.8-9.5,14.4-17.1-2.8-6.3-19.5-11.9-25.7-10.2-8.6,2.4,4.5,25.5,11.3,27.3Z"/>
  <path d="M1035.8,745.7c21.4-4.2,9.9-30.6-6.7-25.2-9.6,3.1-11.2,28.7,6.7,25.2Z"/>
  <path d="M398,1023.3c-2-3.2-.7-7.7-1.9-9.7-3.8-5.9-19.1-1.7-17.5,5.7.8,3.9,7.8,5.2,9.5,7.5,3.4,4.6.2,13.7,9.8,13.7,7,0,7.9-3.8,6.8-10.5-1-5.9-5.1-4-6.6-6.6Z"/>
  <path d="M545.6,1159.2c-2.1,4-3.8,8.1-3.2,12.8,4.8,8.6,10.2,9.7,16.2,1.5,16.5-22.3-5.8-28.3-13-14.3Z"/>
  <path d="M986,786.5c-1.8,17.5,14.3,12.9,25.4,8.5,4.8-20.4-14.1-17.3-25.4-8.5Z"/>
  <path d="M111.9,727.1c8.4,7.1,18.2.4,17.6-10.9-1-20.3-34.9-3.8-17.6,10.9Z"/>
  <path d="M80.6,877.7c5.5,5.9,18.4,1,17.7-11.1-1.1-20.6-32.1-4.3-17.7,11.1Z"/>
  <path d="M1185.1,733.1c1.4-6.2,2.7-12.5,3.9-18.8-1.3.1-2.8.4-4.3.9-6.7,2.2-6.2,13.4.4,17.8Z"/>
  <path d="M295.3,1107.6c-2.8,1.8-2.3,5.1-1.1,8.7,5.5,3.3,11.1,6.5,16.7,9.6-.3-10.7-2.8-23.8-15.7-18.3Z"/>
  <path d="M60.3,862.3c2,4.2,4.1,8.3,6.2,12.4,7.1-2.4,6.3-21.2-6.2-12.4Z"/>
  <path d="M566,833.5c7.8,8,22.4-5.1,15.1-13.8-9.2-11.1-25.2,3.4-15.1,13.8Z"/>
  <path d="M420.1,662.1c4,1.2,12,11.7,15.2,2,3.8-11.5-7.9-13.7-15.2-6.2-.6-12.6-16.1-8.4-13,1.3,3.4,6.2,9,1.7,13,2.9Z"/>
  <path d="M134.1,704.2l2.7-10.8c-7.6-11-15.4-5-23.1,2.2,1.6,9.7,12.5,10.3,20.3,8.6Z"/>
  <path d="M184.8,768.7c-.6-.9,1.6-6-2.3-7.1-22.5-6.2-4.4,27.9,6.5,20.6,4.9-10.1-1.6-9.8-4.1-13.5Z"/>
  <path d="M178.6,667c.6,2.7,6,4.9,9,3.9,3.3-1.1,3-7.1,4.8-9.5,2-2.8,9-2.4,6.9-9.9-6.6-14.4-21.1,13.9-20.7,15.5Z"/>
  <path d="M383.4,730.2c10.6-7.4-6.3-23.8-14.1-12.8-5.6,7.9,8.7,16.6,14.1,12.8Z"/>
  <path d="M1121.6,785.4c-13.6-3.8-12.4,12-8.3,14.9,8,5.6,23.7-10.6,8.3-14.9Z"/>
  <path d="M1083.2,759c-8,2.3-3.6,18.2,5.2,17.5,10.2-.8,6.4-20.8-5.2-17.5Z"/>
  <path d="M1012,813.2c8.8,5.5,18.4-8.4,10.3-14.1-11.7-8.2-16.6,10.2-10.3,14.1Z"/>
  <path d="M447.9,854.3c7.6-7.2-7.1-20.1-13.8-9.8-4.8,7.5,6.1,17.1,13.8,9.8Z"/>
  <path d="M469,655.6c-2.3-3.3-17.8-5.3-14.9,5.8,3.5,13.6,21.8,4,14.9-5.8Z"/>
  <path d="M773,761.6v-13c-9.5-1.1-16.5-1.1-14.4,10.5l14.4,2.5Z"/>
  <path d="M905.2,905.8c-1.9-12.6-22.8-4.6-15.2,5.9,3.3,4.5,16.3,1.4,15.2-5.9Z"/>
  <path d="M536.6,1154.5c11.1,4.6,14.1-1.5,10.3-11.6l-12.7-.2,2.4,11.8Z"/>
  <path d="M911.9,1098.9l3.8-13.2h-13c-.8,8.3-1.5,17.3,9.2,13.2Z"/>
  <path d="M970.3,1040.2c2.7,9,21.3,2,15.5-6.4-2-2.9-18.9-4.8-15.5,6.4Z"/>
</svg>