<?xml version="1.0" encoding="UTF-8"?>
<svg id="Layer_1" xmlns="http://www.w3.org/2000/svg" version="1.1" viewBox="0 0 1200 1200">
  <!-- Generator: Adobe Illustrator 29.0.0, SVG Export Plug-In . SVG Version: 2.1.0 Build 186)  -->
  <path d="M1163.5,807.1l1.3-3.9c-.5,1.3-.9,2.6-1.4,3.9h.2Z"/>
  <path d="M997.2,785.7c-1.7-1.9-1.7-6.5-3.7-8.5-4.8-4.9-13.6,1.3-11.8-7.7,15.3,6.2,25.2-2.7,18.2-18.1,10,2.6,42.5,5.4,28.8-11.9-1.2-1.5-20.2-11.3-21.9-11-7.2,1.3-11.1,13.6-9.5,20.3-12.4-1.4-19.4,2.4-18.2,15.6h-7.8c1-14.8-2.4-21.8-18.2-20.8,3.9-8,10-16,7.4-25.5-3.8-2.3-11.6-3.3-14.5-6.2-4.4-4.4-10.2-22.4-13.6-24.1-9-4.5-22.4,4.9-29.5,4.2-1.8-.2-1.8-4.5-3.4-5.3-18.3-8.8-19.8-3-31.9,10.3.3-10.3,10.4-17.8-1.8-25.7l-13.8,2.4c4.3-10.7,1.6-12.8-5.2-20.7,12.8-1.6,15.6-17.3,7.1-25.3-2.4-2.3-7.9-1.9-9.2-3.7-3.7-5.1,2.5-17.8-6.9-25.5-7.1-5.9-20.3-4.2-27.6,1.1-8.7,11.6,5.9,15.6,9,22.2,1.4,2.9-1.3,9.1,2.2,12.5,4,3.9,12.3.3,12.1,15,0,1.8-23.6,12.2-4.9,29.6-12,5.5-14.2-6.4-25.8,1.5-9.8,6.6-6.7,14.8-13,23.3-15.6-4-15-.2-23.7,7.3-6.6,5.7-14,2.1-9.8,19.4,13.2,10.2,25.6-6.5,35.1-6.9,3.5-.1,6.3,4,10.1,4.7,12.5,2.1,19-7.6,20.6-7.7,3.5-.2,3.3,2.8,1.2,6.3-9,15.4-13.4,23.8,9.8,26.6,12.4,1.5,16.4,1.7,17.6-12.2,1.8-19.6-18.7-14.8-14.2-26.9,1.9-5.2,27-14.8,8.1-31.6l7.3-6.5c2,6.9-.7,23.8,7.7,23.4-11.9,12-1.7,20.2,0,29.9,2.5,14.2-12.9,32.8,18.8,21.1,26-9.5,4.2-31.2,7.3-35.5l15.5-7.9c.6,6.7-6.6,7.6-7.8,14.4-3.7,21.7,23.4,22.8,29,4.3,9-3.6,7.4,9.9,17.8,4.7-4.9,11.2,7.6,15.7,7.6,16.7.2,13.5-18,7.6-24.4,19.5l-16.1-15.2-24.1,4.9c-3.1,13.9,6.6,10.6,11.7,15.6,4.8,4.7.6,11.7,13.2,12.8,4,.4,8.4-2,10.3-1.7,3.6.5,5.1,15,25.6,12,13.3-1.9,15.6-12.7,14.5-24.5,7.6-5.8,8.2,3.6,11.2,5.8,2.1,1.5,6.5.2,7,.7.4.4-3.7,6.3-2.3,11.1,1.5,5.4,8.6,5.8,9.6,7.5,1.7,3.1-.6,8.9,1.7,12.5,5.4,8.5,30,5.4,20.3-15.1-1.9-3.9-6-4.7-8.5-7.6Z"/>
  <path d="M1155.9,795c-1.9-8.6,4.6-15.2,5.1-21.7.6-7.3-7.2-12.9,4.8-15.1,6.9-1.3,10.1.3,12.2,2.9,1.7-6,3.3-12.1,4.8-18.2-2.5.7-5.8,1.1-10.6.9-10-.4-7-9.2-16.6-12.1-8.4-2.6-15.6,4-18.3-3.7,12.8,1.9,22.2-10.4,15.3-21.7-4-6.6-7.9-4.9-11.8-7.7-1.9-1.4-2.5-5.1-5-6.6-1.8-1.1-24-10.1-25.4-10-9.9.1-14.6,18.3-1.7,21.6,3.4.9,7.4-1.7,7.7-1.4.5.6,0,5.2,1.5,7.5,4,5.9,13.5,2.3,11.6,10.6-14.7-6.8-24.3,9.3-23.5,23.2h-10.2c5.8-15.9,3-27.4-15.6-28.4-.4-7.9,9.4-9.3,10.5-17,2-14.5-11-20.8-22.9-14.9-7.9,3.9-10.8,26.1-29.1,16.3,9.2-18.5-3.6-15.4-10.3-22.1-3.4-3.4-3.1-10.5-7.8-12.9-8.6-4.4-26.2,1.7-36.4,1.3l2.3-11.2c-16.4-15.2-33.6-6.7-22.8,16.1l12.6.4c-.7,12.6-7.9,12.6-12.9,21.8,4.9,7.8,15,8,23.3,9.3-.7,4.9-8.2,3.3-10,9.5-3.2,10.7,8.3,14.9,17.6,13.5,3.9-9.1,4.4-15.5-2.3-23.1,12.2-2.5,21.3,2.2,31.1-7.8-1.8,7.4,10.8,7.8,10.4,9.1l-2.6,6.5-13.1-1.5-2.3,10.3c6.7,8.6,12.9-5,23.2,4.1-11.2,13.8-5.1,25.6,13,19.4l3.8-14.2c25.3,3.9,9.8,18.5,12.1,26.6,2.9,10.5,12.3,4.8,16.6,5.5,3.3.5,4.4,5.2,7.5,5.7,3.5.5,10.6-2.9,15.3-1.5l4.3-13.1c8.3,5.5,15,6.9,24.4,2.6l6.3,5.6c-3.3,17.2-7,9-13.3,10.3-11.7,2.5-5,20.5-2.1,27.9-11.6,10.6-21-5.3-32.4,5.3-3.9,3.6-2.8,8.7-4,10.2-.4.5-8-3-11.4,2.8-7.1,12.2,2.7,21.5,15.1,18.4,2.5-.6,2.5-5.4,4.4-6.5.8-.4,16-6,16.9-6,2.6,0,5.9,10.2,17.5,6.7,4.8-1.4,19.1-16.4,17.5-22.9l12.9,1.4c.5-1.3.9-2.6,1.4-3.9l1.2-3.9-10-4.3Z"/>
  <path d="M830.5,989.2c-15.4-6.3-27,7.2-43.5,3.2-2.5-9.4,6.7-7.7,9.3-15.4,5.5-16.4-8.9-30-24.9-20.9-1.8-10.4,2-6.2,5.7-8.5,11.4-7,1.2-14.1-8.4-12.3,6-15.6-13.7-32.4-27.3-20.8-3,2.6-4.6,9.3-7.9,10.1-8.4,1.9-28.7-10.7-27.2,14.6,1.4,24.3,33.6,25.4,33.9,1.3l7.8,2.6c-18.1,23.2,12.3,22.1,15.8,27.6l5.3,23.9,12.7.3,1.1,23.5,12.9,2.2,6.7-7.5c13.7,50.7,60.2-10.9,27.9-24Z"/>
  <path d="M602.7,651.5c3.2,1.8,9.4.6,10.2,1.4,1.1,1.1-.7,6.1.3,8.1,1.6,3.1,8,5.9,6.9,13.9-.6,3-9,4.6-12.5,7.4-2.9,2.4-4,7.6-5.4,8.6-.8.6-14.6.7-18.6,5.6l-12-7.5c-1.2-6.1,6.1-7.6,7.4-12.2,3.7-13.2-15.7-21-21.8-8.5-3.2,6.5,2.2,11.5,1.1,16.3-1.2,5-9.3,5.9-10.2,16-2.4,26,24.2,28.2,39.1,11.7-1,5.6,8.7,9.6,13.3,9.1,10.7-1.1,12.1-11.4,14.4-11.9,8.8-1.9,23.8,13.7,35.8,0,13.6-15.5-10.2-35.9-27.1-31l10.4-6.5c-4.9-9.3-6.7-17.6-2.4-27.7,1.2-2.7,6.9-3.4,7.1-8.9.4-8.1-9.3-6.9-11.8-9.4-2.9-3,.1-9.5-10.5-11.8-27.2-5.7-19.3,33.9-13.6,37.2Z"/>
  <path d="M903.8,1072.8c2.8-9.6-10.8-24.3-19.2-18-3.7,2.8-2.8,7.7-6.8,7.6.4-3.7-1.3-9.4.5-12.4,1.8-3,15.9-5.3,8.7-18.9-12.9,0-23.6-14.4-34.4-14.7-19.5-.5-26.9,36.2,1.1,42.9,3,.7,7.5-2.2,8.2-1.8.8.5,1.7,7,5.5,9,4.5,2.4,10-1.9,10.4-1.6,2.5,2.5,0,17.7,18.2,13,.7,19.6-28,13-15.2,37.3,1.9,3.7,4.6,7.6,7.7,11,7.6-4.2,15.1-8.5,22.5-13l-2-6.8,11.2,1.1c2.5-1.6,5.1-3.2,7.6-4.9,9.9-19.7,2.2-39.4-23.9-29.9Z"/>
  <path d="M628.7,1046.7c-.2-.4,2.7-4.8,2.1-8.4-.7-4.2-4.6-10.4-4.5-16.2-7-7.3-11.9,2.1-13.1,1.3-12.8-26-40.2-12.2-37.7,15.6l-11.7-2.7c10.9-30.3-32.7-9.8-2.5,1.3-16.5,5.4-13.7,28.7,3.9,28.7,8.2,0,14.2-8.7,15.5-8.8,3,0,13.3,15.2,26.2,2.3,4.7-4.7,1.1-12,8.9-10.5-19.6,37.2,38.9,42.1,27.4,7.6-3.2-9.7-13.8-9.5-14.4-10.3Z"/>
  <path d="M955.7,1044.2c3.1-12.8-10.2-21.4-12-31-1.3-6.9,3.2-11.8.4-18.2-2.8-6.4-15.6-12-22.1-7.8,5.4-25.6-18.6-20-23-23.8-3.3-2.8-2.2-19.6-21.3-11.3-4.3,2.8-5.2,16.8-.8,19.8,19.3,2.9,10.8,2.1,14.5,13.4,3.1,9.5,14.6,12.4,22.8,7.1,3.9,11.3-4,15.2-6.3,20.9-1.8,4.3-.8,9.3-2.8,12.8-2.1,3.6-14.3,6.6-10.4,15.6,1.4,3.2,9.2,8.8,13.1,9.3,12.2,1.4,10.1-10.3,11.9-11.6,5.5-4,14.6,5.8,19.8,7.1,5.1,1.2,11.3-.6,14.8.3,1,.3,4.6,17.2,14.3,10.3,2.6-1.8,2-12,0-15.2l-12.8,2.4Z"/>
  <path d="M831.1,1082c-5.2-3.1-5.4-18.8-9.2-24.7-6.1-9.6-33.4-14.6-43.3-9.9-6.5,3.1-6.3,8.6-9.9,10.9-3.7,2.4-9.6,1.6-13.9,4.3-12,7.5-6.1,26.1,6.1,29.8,15.4,4.6,18.2-11.5,24.8-12.1,3.3-.3,22.8,9.5,25.9,12,7.9,6.4,4.3,12.3,9.1,15.4,12.3,7.8,37.3,10.7,36.5-10.2-.9-23.7-22.1-13-26.2-15.4Z"/>
  <path d="M426.7,656.1c7.6,1.8,10,9.4,20.2-.7-.2,10.1,9,6.1,12.6,8.2,2.3,1.4.7,10.5,3.1,13.5,3.4,4.3,8.3,3.8,11.4,6.9,4.4,4.2,6.1,12.5,11.9,16.7,6.2,4.6,11.9,1.1,17.9,5.2l5.5-2.4,2-8.9c-10.3-1.9-13.8-20-18.8-24-5.5-4.4-14.1-2.3-21.1-12.6-4.3-6.2-4.4-18.3-12.8-18.3-4.2,0-13.7,8.4-19-.6-2.4-4.2,1.3-13.6-1.9-20.2-8.4-17.6-38,5.3-37.9,19.5.2,15.2,16.8,15.2,26.7,17.5Z"/>
  <path d="M472.8,1033.7l-2.4-11.9-7.9-1c-1.1-2,2.2-13.5,3.4-16.8.5-1.5,3.3-1.3,3.5-1.9,1.7-4.8,2-9.8-3.4-12.2-14-.2-21.9,3.1-16.5,17.9-9.6.2-16.4,4.1-19.1,13.5-1,3.3,1.4,7.4.3,9.2-.3.5-8.5,8.3-9.1,8.5-5.5,1.4-16.9-2.7-20.4,5.1-1.4,3.2,3.2,6,3.2,9.1,0,5-10.2,14.7-.7,22.3,9.1,7.2,15.2-1.9,18.4-1.9,3.2,0,15.2,9.9,24,1,10.7-10.7-3.2-20.4-4.1-24.4-2.2-10.4,22.1-16.8,30.5-16.6Z"/>
  <path d="M673,960.2c11.6-13.9-1.1-53.6-18.5-49.7-6,1.3-3.1,6.7-7.6,6.7.5-7.4-.9-14.2-9.2-15.6l-14.1,5.3-4-10.4c-18.8,2.2-11.3,19.8,3.9,12.9l3.2,15,20.1.6c-13.7,14-13.7,24.9,0,38.8-10.2,1.3-13.7,12.1-13,20.8-7-4.8-8.9-10.8-18.1-5.2-6-12.6,4.6-18.8,5.3-24.7,2.5-21.3-19.4-10.9-24.6-12-3.7-.8-8.5-17.8-24.2-10.9-3.2,1.4-4.3,5.7-7.4,8.3-2.1,1.7-6,1.7-8.1,3.6-8.6,8.1-8.1,24,3.6,30.1,10.5,5.4,18.1,0,18.9.6.4.3,2.1,6.3,5.2,9,8.9,7.8,19.3,7,27.5-1.4,9.2,3.6,0,22.9,10.4,23.5,9.7.7,17.1-6.1,16.9-15.8,16.8,8.9,31.9-6.8,20.7-21.9,3.1-4.4,10-3.8,13.2-7.6Z"/>
  <path d="M374.1,939.1c-9.4,9.3-9.8,22.2,1.4,30.1,3.2,2.2,8.8,2.2,9.1,2.5,1.7,1.8-8.8,19.4,5.9,26.5,8.5,4.1,28.9,7.2,32.7-5.1,2.3-7.7-2.8-14.2-1.7-19.6.8-4.1,7.3-7.7,7.2-13.5-.2-6.5-10.3-16.5-12.9-22-14.4.4-29.6-10.7-41.7,1.2Z"/>
  <path d="M427.6,935.4c9.2-34.3-21.5-18.2-11.8,2.6,3.9-.1,8.9,1.2,11.8-2.6Z"/>
  <path d="M340.5,1049.4h-2.5c.2-1.8.4-4.6-1.7-5.2-18-4.9-28.7,9.6-21.7,26-33.9-21.6-45.4,38.3-2.6,23.3l2.4,9.3c10.4,5.7,10.9-4,13.9-5.9,4.1-2.6,12.2,0,16.1-8.6l4-28.4c.6-.7,9.9,4.4,14.9-.6,14.2-14.5-18.2-41.4-22.7-9.8Z"/>
  <path d="M724.7,1010.5c36,12.6,27.9-41.5,0-23.3-1.4-20.9-15.1-7.6-19-8.2-1.9-.3-4.7-3.9-8.4-4.7-36.8-7.2-28.8,58,9.2,36.2-.4,15.4,19.1,14.8,18.2,0Z"/>
  <path d="M1068.7,800.5c-2.7-5.1-11.1-2.7-9.2-10.3l10-.4c9.8-25.2-2.7-15.2-11.9-21.1-6-3.9-7.4-18.9-24.2-13.8-19.3,5.9-9.6,23.3-10.5,24.5-3,4.1-15.9,5.6-11.7,21.1,6.3,23.3,32.7,1.5,41.6,2.5,2.3.2,2.2,5.4,4,6.6,6.9,4.6,16.5-.5,11.9-9.2Z"/>
  <path d="M472.4,987.8c2.1,1.3.2,7.7,9.4,7.3,13.3-.6,15-16.6,14.5-27-.2-4.1-4.2-7.7-4.2-10.6,0-8.3,13.3-24.3-8.6-31.3-12.1-3.9-16.1,4-17,4-3,0-2.6-12.3-14.9-9.9-13.3,2.6-12.1,15.8-2.8,22.7l11.2-2.4c-1.9,11.9,15.9,17.9,6.4,28.5-2.7,3.1-14.6,2.9-11.4,13.9,2,7.1,13.4,2.4,17.5,4.8Z"/>
  <path d="M488.5,623c-1.7,2.9-7.4,1.8-9.7,4.5-7.9,9.1,2.4,28.4,17.5,21.4,1.2-.5,18.6-15.8,19.4-17,7.1-10.4.7-12.6-.6-19.9-.7-4.5-3.5-30.9-7.1-31.8-7.1-.1-11.7,6.4-18.7,7.2-6.1.7-15.4-4.8-20.2,3.1-7.9,13,14,22.1,19.5,32.4Z"/>
  <path d="M382.1,755.5c18.3-5.2,19.3-37.3-6.4-32.6-3.5.6-6.1,3.8-8.7,4.4-7,1.5-20.7-.6-23.5,7.7-1.1,3.3.6,9.3-.8,10.9-.7.8-5.1-.3-6.5,1-14.4,12.6-9.9,37.6,12.8,32.5,14.7-3.3,9-17.2,16.4-22.7,5.4-4,11,.5,16.7-1.1Z"/>
  <path d="M336.8,1000.2c2.2-1.9,3-6.4,4.3-7.2,8.3-4.9,29.8,1.1,22.2-24.7-5.3-17.9-23.7-6.1-32-4.6-5.5,1-11.6-.6-17.5.7-27.7,5.9-2.6,57.6,23,35.8Z"/>
  <path d="M446.1,745.6c4.4.3,7.7-4.1,10-4,2.5.1,8.1,10,18.2,9.9,13.3-.1,18.6-18.6,9.2-27.6-3.5-3.4-9.4-3.3-10.1-4.1-1.7-2,1.7-18.1-9.5-17.8-3.4,0-6.5,4.5-10.5,5.1-7.4,1.1-15.6-1.5-22.8,2.5-11.1,12.1.7,34.9,15.6,36Z"/>
  <path d="M580.6,642.3c8.5-9.6-1.3-26.2-14.3-22.2-8.7,2.7-6.8,10.8-10.3,13.2-2.6,1.8-7.6.8-10.4,2.6-2.9,1.9-3.2,10-9,14.4-6.9,5.2-24.2,1.2-22.1,21.6,2.4,24.1,34,23.2,36.3,2.6.6-5.8-2.7-12.5-2.2-15.1,1.1-5.1,10.3-4.9,12-7.4,1.4-2,0-6.6.5-7.1.8-.9,11.3,6.4,19.4-2.7Z"/>
  <path d="M18,746.5c-.2-.8-.4-1.7-.6-2.5.2.8.4,1.7.6,2.5Z"/>
  <path d="M688.1,708.2c4.6-8-1-13,12.8-11.7,6.7-8.5-.5-12.2-1.6-17.1-1.4-6.6,4.7-8.4-2-18.7-16.7-25.7-45.9.6-27.3,24.6-27.4,14.5,5.6,44.6,18,23Z"/>
  <path d="M270.1,1081.2c1.8-7-3.1-10-3.6-14.9-1.2-11.9,6.7-21.1-14.2-24.8-.7-.9,11.3-9.3,1.5-20.9-15.4-18.3-36.7,19.6-9.3,21-5.9,8.4-12.1,9.7-10.3,21.8.1.8,4.1,11,6.7,17.2,4.4,3.3,8.9,6.6,13.5,9.8,6.9.6,14-2.2,15.8-9.2Z"/>
  <path d="M981.5,1024.7c.4,8.6,6.7,12,7.3,16,.7,4.4-4.1,11.3-1.4,16,0,.1.4.4.9.8,6.7-5.7,13.3-11.6,19.8-17.6l6.2-26.8c-5.4-8.8-33.6-6.6-32.8,11.6Z"/>
  <path d="M864.9,979.4l5.4-6.4c1.2-10-4-8.9-4.5-10-2.4-6.2-3-19.6-12.6-19.8-8-.2-16.9,15.3-29.5,10.7-12.8,36.6,26.9,9.8,33.1,15.5,6.8,13.8-17.8,21.4-4.9,37.3,18.5,22.7,47.1-21.1,12.9-27.2Z"/>
  <path d="M205.9,723.1c-8,7,6.6,24.2,4.9,25.6-26.9-6.4-20.4,18.9-23.8,23-.4.5-11.2,5-11.8,5.1-4.2.7-6.4-5.6-10.3-6.9-26.1-8.3-28.5,34.9-2.3,30.5,7.9-1.3,31-13.7,27.5-23.2,22,8.8,40.6-5.8,23.4-25.9,1.3-1,9.9,4.5,14.9-.7,10.5-10.8-11.5-37.1-22.4-27.6Z"/>
  <path d="M531.9,1028c-8.2-3.1-17.1,5.2-21.3,5-3.5-.2-9.3-9.5-17.8-6.7-10.3,9.9-10.2,33.7,3.6,40,8.8,4,12.2-2.9,19.5-3.8,3.5-.4,7.3,2.5,11.7,1.4,15.8-3.9,21.6-29.4,4.4-35.9Z"/>
  <path d="M545,608.1c6.8,15.6,32.2,11.8,29.2-7.1,15,9.2,33.7,9,31.5-12.8l7.1-.4.3-12.8c-6.3-2.7-11.6,4.2-14.8,4.7-3.8.6-7.4-7.5-19.1-3.6-7.6,2.5-8.3,6.8-7.7,14.4-15.2-12.4-35.5-3-26.6,17.5Z"/>
  <path d="M658.4,639.9c7.6-1.1,22.4-25.7,14.4-33.8,24.3.9,15.5-7.7,15.6-20.8-17.4-6.4-13,3.3-20.6,6.4-2.9,1.2-7.6-2.1-11.4-1-3.1.9-3.5,5.6-6.2,7.7-1.9,1.4-5.8,1.1-7.8,3.1-12.8,12.3.7,40.5,16.1,38.3Z"/>
  <path d="M697.1,590.3c20.1-3.4-8.6-31.3-8.7-4.9,2.6,1,5.4,5.5,8.7,4.9Z"/>
  <path d="M918.3,663.4c6.8-5.4,1.5-15.9,4.2-20.5,1.2-2.1,7.4-.2,7.5-9.6.1-17.8-17.4-8.8-27.5-8.9-6.9,0-21.3-7.3-24.3,1.4-3.3,18.2,21.2,52.4,40.1,37.5Z"/>
  <path d="M112.2,761.6c-1.1-4,3-1.8,4.2-3.3,8.9-11.2-9.2-13.4-9.2-3.4,0,1.9,2.8,6.4,2.4,6.7-2,2.1-18.2.7-15.2,16.2,1.4,7.5,26.3,23.2,31.8,22.7,1.8-.2,10.7-4.8,11.3-5.9.6-1,5.6-22.2,5.4-23.4-3.1-21-20.3-5.4-30.7-9.7Z"/>
  <path d="M718.3,641.8c-1.3,0-9.2-7.1-14.4-4.6,8.8-15.8-15.8-32.4-25.5-16.4-10.1,16.7,6.7,30.7,22.9,21.6-3.7,5,1.6,14.5,6.5,14.9,2.1.1,5.1-3.7,7.7-3.6,5.1.2,16.6,14,24.4,0,4.5-8.6-7.9-21.7-15.2-17.9-2.2,1.2-4.4,5.9-6.5,6Z"/>
  <path d="M747.8,1040.6c-16.9-27-49.8,2.2-32.7,23.6,12.5,15.6,48.8,1.9,32.7-23.6Z"/>
  <path d="M181,816.3c-10.4-.6-22.4,10-19.1,21.2.4,1.4,12.3,13.2,13.4,13.9,21.8,12.3,38.8-8.8,27.8-23.9-1.5-2-19.8-11.1-22.2-11.2Z"/>
  <path d="M755.9,634.6c0-3.4-.3-6.9.1-10.3,13.1,1.9,18.4-9.8,14.1-20.8-.7-1.8-4.2-3.3-4.9-5.1-1.5-3.9,3.7-11.9-5.7-15.5-12.7,1.3-5.9,14.3-6.4,15.1-.5.7-7.9,8.6-10.9,12.4-2.6,3.3-9.2,2.9-9.7,10-1.1,14.1,12.1,17.7,23.5,14.1Z"/>
  <path d="M775.6,631.8c-8.8-7.3-14.2,1.1-19.7,2.8,0,37.2,35.9,9.8,19.7-2.8Z"/>
  <path d="M761,690.6c-1.2-19.2-25.4-13.8-38.9-17-1.5,1.4,5.2,32.5,8.4,35.7,11.9,11.8,31.5-3.3,30.5-18.6Z"/>
  <path d="M665.8,1038.2c-8.4-9.5-8.5-27.9-25.4-25-18.8,3.2-2.5,30.6,6.5,34.9,4.9,2.3,11.6,1.1,16.3,3.8,3.3,1.9,4.1,10.7,9.7,9.5,23-4.9-5.4-21.3-7.1-23.1Z"/>
  <path d="M1189.2,677.1c-5.6,1.8-5.9,6.5-8.6,8.5-4.8,3.6-16.8,5.1-13.6,16.5,4.2,15.3,15.3,9.4,23.4,5.5,1.9-10.3,3.5-20.7,4.8-31.2-1.8-.1-3.7,0-6,.8Z"/>
  <path d="M531.2,909.8c-1.2,0-20.5,10.2-21.9,11.3-22,15.8,21.1,41.1,20.8,6.5,4-1.1,1.8,3.4,3.4,4.2,24,12.9,31.3-21.6-2.2-21.9Z"/>
  <path d="M530.1,984.6c-3.4-14.5-32-10.3-27.6,7.9,2,8.1,30.5,14.7,38.6,12.3,9.6-2.9,8.1-17.6,5.9-25.5l-10.3-2.3-6.7,7.6Z"/>
  <path d="M317.1,682.7c1,.7,22.3,1,24.2.7,15.5-2.4,11.5-24.6,3.7-32.5-7.2-7.3-28.8-8.8-26.6,4.8,1,6.3,6.5,9.2,6.5,15.2-7.3-4.4-14.6,7.2-7.8,11.8Z"/>
  <path d="M69.4,770.6c3.5.3,6.1,3.8,9.9,3.5,5.9-.5,12.5-7.1,12.1-13.5-.7-13.7-10.2-10.1-18.1-13.3-4.6-1.9-4.1-7.8-13.8-6-17,3.3-14.6,28.9-.4,30.8,3.6.5,7.4-1.7,10.3-1.5Z"/>
  <path d="M268,980.6c-11.7-3.8-33.1-3.8-31.5,13.1-.2,5,5.2,5.2,7,7.4,2.6,3,3.4,7.6,7.9,9,27.1,8.5,35.3-23.4,16.6-29.5Z"/>
  <path d="M288.7,696.8c11.8,8.7,17.6-8,9-10.3-8.9-2.5-8.9,10.7-11.6,7.7-.4-.5-1.3-5.2-3.8-7.8-15.5-16.6-33.3-5.5-23.5,15.6,8.9,19.3,30.4,16.6,29.9-5.2Z"/>
  <path d="M314.3,741.2c-24.5-3-56.5,23.4-15.9,30.3,21.4,3.6,24.1-15.1,15.9-30.3Z"/>
  <path d="M70.6,806.5c1,1.6,4.5,1.3,5.1,3.7.8,3.2-1,7.5.6,10.5.6,1,14.1,10.1,17.6,8.3,1.7-1.2-.8-38.5-3.2-40.8-10.4-10.4-28.4,4.4-20.1,18.3Z"/>
  <path d="M247.3,817.5c6.6-2.5,22.5-3.4,23.3-13.1.2-2-2.1-10.8-3-11.4-6.3-4.4-45.1,10.3-37.4,25.7,6.1,12.2,13.2.3,17-1.2Z"/>
  <path d="M387.6,676.5c.3,8.8-10.7,16.4-12.2,22.8-.2.8,2.2,14.9,2.6,15.6,8.6,17,31.3-5,14.4-14.2,9.3-6.2,8.4-14.5,7.8-24.6l-12.6.4Z"/>
  <path d="M384.5,1035.3c-1.4-1.6-6,0-5-4,2.2-.2,5.7.8,7.3-.4,1.6-1.2,6.7-20.1,3.3-24.4-10.9-13.8-16.3,9.1-19.1,11.3-2.9,2.2-9-2.9-7.1,7.1,1.5,8,8.7,5,13,10.3l-5,7.5c7.3,13.5,22.3,4,12.7-7.4Z"/>
  <path d="M277.6,748.1c6.7-6.7,3-22.1-6.4-24.8-13.5-3.9-16.2,10.7-26.7,16.4-1.5,6.7,25.9,15.6,33.1,8.4Z"/>
  <path d="M377.7,644.7c7.3-2.3,5.1-13.2,7.7-17.2,1.5-2.3,9.3-2,7-9.7-3.1-10.4-37.6,6.5-33.4,17.6,2.9,6,12.2,11.3,18.7,9.3Z"/>
  <path d="M60.6,847.9c1.7,9,7.2,7.3,10,9.7,3.3,2.9-7.4,1-5.1,6.4l6.5,6.5c10.6-.3,3.6-11.8,4.2-12.7.6-.9,5.7-.7,7.1-4.5,9.5-26.3-26.8-27.4-22.6-5.5Z"/>
  <path d="M304,1042.8c7.1-4.7,9.8-10.3,7.6-19l-9-2.8c-2.3-2.7,5.5-12.5-3.6-17.1-16.3-.4-6.6,10.4-6.5,15.7.3,8.9-5,34.2,11.5,23.2Z"/>
  <path d="M239.5,698.3c11.4-16-9.3-28.4-20.3-19-12.9,11.1,8.2,35.9,20.3,19Z"/>
  <path d="M319.1,718.1c.4.5-1.3,10.5,4.6,12.4,9.7,2.2,7.9-20.4,8.9-25.7l-16.8-4.4c-13.9,10.1-.4,13.1,3.3,17.7Z"/>
  <path d="M460.3,1062l20.6,1.8c4.4-3.1,2.6-15.5-.8-18.9-9.7-9.8-24.4,5.3-19.8,17.2Z"/>
  <path d="M718.1,585.4c19-2.8,6.8-34.2-11-20.1-4.2,3.3-3.2,22.2,11,20.1Z"/>
  <path d="M124.2,876l-11.8,17,3.6,6.1c9.4-3,30.2-6.4,19.6-19.7-2.7-3.4-7.4-4.7-11.5-3.4Z"/>
  <path d="M961,1066.2c-2.6-1.7-5.4-3.5-8.7-3.3-12.9,1.2-9.6,19.3-2.5,24.6,4.4-3.2,8.8-6.4,13.1-9.7,1-4.4,1-9.3-1.9-11.7Z"/>
  <path d="M389,1080.9c-5.3,1.8-10,12.8-2.6,14.9.7.2,13.7.2,15.5,0,19-2,4.7-21-12.9-14.8Z"/>
  <path d="M131.5,849.7l5.5-7.8c-4.1-4.8-7.1-27.7-15.7-25.8-8.9,1.9,2.9,35.3,10.2,33.6Z"/>
  <path d="M421,687.7c1.5-5.3-7-7.7-11.5-6.3-4,1.3-2.1,17.1-9.3,21.9l6.5,8.5c16.4-4,1.4-17,14.3-24Z"/>
  <path d="M794,662.4c8-9.6-.3-20.9-12.3-16.3-10.5,14.1-1.3,32.5,12.3,16.3Z"/>
  <path d="M947.6,665.4c5.5-8.8-6.8-24.7-17.2-14.5-11.4,11.1,11,24.4,17.2,14.5Z"/>
  <path d="M162.6,854.8c-9.8,7.9,3,25.6,13.8,15.1,8-7.8-4.9-22.3-13.8-15.1Z"/>
  <path d="M160.5,726.1c2.9-.4,5.8,1.7,7.6,1.6,10.5-1,5.7-19.2-5.3-9.8-1.6,1.4,0,5.9-4,4.9l-4.2-7.6-8.8,2.5c1.7,19.4,8.4,9.4,14.7,8.5Z"/>
  <path d="M29.7,787c1.5,4.5,3,9,4.6,13.4h7.5c7.5-10.7-2.9-14.1-12.1-13.4Z"/>
  <path d="M552.4,1078.1c-10.8,3.4-1.5,22.9,11.5,14.1,7.3-4.9-1.9-17.2-11.5-14.1Z"/>
  <path d="M448.6,953.7c-8.8,2.9-2.7,18.9,4.6,17.7,9-1.4,10.6-22.7-4.6-17.7Z"/>
  <path d="M706.3,896.2c7.7-11-15.1-18.4-17.9-8.8-3,10,14.7,13.5,17.9,8.8Z"/>
  <polygon points="719.5 919.8 734 917.4 735.1 904.2 720.7 906.7 719.5 919.8"/>
  <path d="M545.2,1008.3c-11.4-7-19.6,8.2-10,13.9,12.8,7.7,16-10.3,10-13.9Z"/>
  <path d="M698.5,1054.8c-6.6-4.7-21.8,8-12.8,14.1,10.3,7.1,20-9.1,12.8-14.1Z"/>
  <path d="M798.4,1041.4c10-3.1,6.3-21.1-4.9-17.9-6.6,1.9-6.2,21.3,4.9,17.9Z"/>
  <path d="M826.1,936.8c6.4-4.5,2.3-17.8-9-14.2-10,3.2-2.3,22.1,9,14.2Z"/>
  <path d="M357.6,932.9c8.2-11.7-10.2-16.5-14.1-10.3-5.5,8.8,8.4,18.4,14.1,10.3Z"/>
  <path d="M867.7,784.7c8.8,5.5,18.4-8.4,10.3-14.1-11.7-8.2-16.6,10.2-10.3,14.1Z"/>
  <path d="M658.2,735.5c7.2-2.3,5.9-17.6-4.5-15-10.4,2.7-8.8,19.3,4.5,15Z"/>
  <path d="M1077.6,678.6c6.4-11-8.3-22.5-14.3-10.3-3.8,7.7,9,12.2,14.3,10.3Z"/>
  <path d="M964.3,634.4c11.6-3,5.5-17.5-4.2-15-11.6,3-5.5,17.5,4.2,15Z"/>
  <path d="M556.1,582.7c4.9,3.4,16.1-3.1,14.3-10.3-10.2-14.8-20.4,6.1-14.3,10.3Z"/>
  <path d="M400.3,778.5c1.3,4.1,12.5,5.4,15.3,3.7,1.8-1.1,1.8-11.5,0-12.5-4.8-2.8-18.1.2-15.3,8.8Z"/>
  <path d="M1079.9,834.7c-7.6-4.6-18.7,3.3-14,10,7,10,24.4-3.7,14-10Z"/>
  <path d="M794.8,682.7l2.6-11.7c-21.1-4.7-21.5,21.6-2.6,11.7Z"/>
  <path d="M959.9,997.8c-7.6,2.5-5.3,18.1,4.7,15.1,8-2.4,9.6-19.7-4.7-15.1Z"/>
  <path d="M531.7,725.5c-8.8,1.4-10,19.7,4.6,15.2,8.7-2.7,1.8-16.2-4.6-15.2Z"/>
  <path d="M510.6,717.6c-6.4,1.8-6.1,18.1,4.7,15.2,12.1-3.3,4.4-17.7-4.7-15.2Z"/>
  <path d="M644.3,577.5c9.9,6.8,19-12.6,9-15.4-9.7-2.8-12.8,12.9-9,15.4Z"/>
  <path d="M527.4,549.1l2.4,11.8c12.5,8.9,22.5-16.2-2.4-11.8Z"/>
  <path d="M941.5,676.1c-6.9,2.1-5.3,18.6,5.1,15.5,6.9-2.1,5.3-18.6-5.1-15.5Z"/>
  <path d="M1132.3,686.4c6.2,4.7,20.2-7.2,12.8-12.8-6.2-4.7-20.2,7.2-12.8,12.8Z"/>
  <path d="M877.8,655.3c.9-1.4.3-8.6-1.1-10.5l-11.8-2.4.2,12.7c1.1,2,11.7,1.7,12.7.2Z"/>
  <path d="M560.1,1005.5c-5.6,1.7-3.1,11.4-1.2,12.6,12.9,8.1,19.2-18.1,1.2-12.6Z"/>
  <path d="M802.3,595.5c8.1-12.9-18.1-19.2-12.6-1.2,1.7,5.6,11.4,3.1,12.6,1.2Z"/>
  <path d="M213.6,1041.4c1.2,1.9,10.8,4.4,12.6-1.2,5.5-18-20.7-11.7-12.6,1.2Z"/>
</svg>