<?xml version="1.0" encoding="UTF-8"?>
<svg id="Layer_1" xmlns="http://www.w3.org/2000/svg" version="1.1" viewBox="0 0 1200 1200">
  <!-- Generator: Adobe Illustrator 29.0.0, SVG Export Plug-In . SVG Version: 2.1.0 Build 186)  -->
  <path d="M513.6,714.5c-10.3,7.2,4.2,14.1,4.7,14.9,5.2,8.9-4.1,25.4,21.3,7.2-1.2,5.5,6.9,7.1,7.5,8.3,1.2,2.1-5.3,10.5,1.6,17.7h11.7c2.2,11.7-31.3,18.4-18.2,27.2,1,.6,20.9,6.3,22.1,6.3,5.7,0,13.2-8.4,14.2-7.6,5.9,22.8,38,22.7,53.4,10.3l-2.1-9.6-17.4-.7c5.5-20.8-13.1-18.4-15.3-21-2.1-2.7,1.2-21.8-17.4-23-5.3-.3-15.4,8.2-16.7,1.2-.7-3.6,7.3-9,7.8-15.7.5-7.1-5.4-10.2-5.2-16.7,19.5,11.7,20.9,2.6,30.1-10.1,4.1-5.6,12.4-5.1,8.9-18.4.8-1.3,15.2,18.1,25.7-1.8,10.3-19.5-28.3-28.9-25.7-.8-13.8-5.8,12.5-24.7-8.6-25.5l-16.9,16.9,4.8,11.3c-8.8-.8-16.2.9-22.1,7.8-1.5-7.1-7.6-7.1-12-1.4-3.1,4.1.4,7.9-.2,8.8-.9,1.5-9.1,2.6-11.4,10.7-1.6,5.5,2.3,12.1-1.1,18.2-4.6.7-1.8-4.9-3.9-7.8-2.2-3-15.1-9.7-19.6-6.6Z"/>
  <path d="M979.1,835.9c3.6-2.6,9.5-1.1,13.4-6.1,9.9-12.7-2.4-27-1.2-28.4,7.5,2.1,35.9,4.3,40.9-.6,4.4-4.4,3.9-16.2-.6-20.2-11.4-10.2-30.8,7.4-41.6,13-9.5-21.5-24.5-3.5-31.1-3.5-3.3,0-8.3-5.1-15.6-4.6-5.3.4-9.3,4.9-10.4,4.9-1.7,0-12.4-14-23.5-2.1l1.5,13c-10.9-6.7-15.5-8.7-27.5-2.7-4.5,2.2-5.4,5.8-7.1,6.9-13.5,8.6-25.5,5.8-12.1,29.4-22.9,4.7-11.9,37.1,7.7,22,12.3-9.5-.9-18.7,0-19.4,9.9,3.4,13.4-4.3,18.3-6.4,4.7-2,9.7-1,14.3-3.8,5.5-3.5,5.5-11.4,8.8-14.4,3-2.7,14.7,2.8,13.1-16.9l6.9,19.9-.7,11.3c4.1,6.3,13.9-.7,14.4,0-.7,14.4,10,26.4,24.4,17.9,4.6-2.8,5.3-7.7,7.5-9.3Z"/>
  <path d="M868.1,1084l-2.5-5c9.4-11.4-3.8-25.4-16.9-18.3,6.4-3.9,6.8-18.4,8.3-20.2,1.6-1.8,8.7.4,11.4-8.3,6.9-22.3-20.8-23.5-30.1-5.2,1.7-18.6-10.7-14.9-20.6-19.6-5.8-2.7-7-9-17-9.1-24.1,0-20.2,36.1-2.5,39,10.1,1.7,15.3-5.4,24.5-5.2-4.6,10.5.4,14.8,1.7,22.4.6,3.6-2,7.8.7,12,5.1,8,19.7-1.4,21,5.7,1.2,6.7-22.7,9.5-12.4,30.5,6.4,13,28.4,20.1,33.2,4.5,37.2,21.2,41.7-46.9,1.2-23.4Z"/>
  <path d="M728.3,772.4c1.8,4,6.7,1.5,6.1,5.7-11.4,1.1-19.1.8-25.9-9.1,20.9,1.3,13.6-25.9-.8-21.7-15.4,4.6-3.7,19.3-4.4,20.3-1.5,2.1-15.9,3.1-10.1,19.2,2.2,6.1,9.4,2.7,12.1,4.8,2.9,2.3,2.4,18.4,17.4,19,14.9.6,14.9-7.5,20.4-16.1,1.8-2.8,8.1-1.7,7-9.8-.9-6.5-7.6-6.5,0-17,4.9.6,3.4,8.6,9.6,10,17.1,4.1,8.5-13.8,9-14.8.4-.8,8.9-4.1,8.6-8.2,4.4,19.2,31.8,22.7,36.6,2.6,1.1-4.6-1.4-9.6-1.1-10,.6-.9,5.7-.8,7-4.5,5.8-15.8-8.3-16.6-11.3-21.8-2.7-4.6.2-10.2-5.1-15.7-12.8-13.2-35.7,2.5-23.5,18.3,3.2,4.2,8.5,3.6,9,7.8-17.3.5-5.5,12.3-14.3,20.7l-7.5-5c-9.7,5.6-.9,15.4-14.5,18.1-2.2-25.3-35.2-17.6-24.3,7.3Z"/>
  <path d="M501.6,995.3c14.3-1,6-13.5,5.6-18.8-.6-7.8,5.2-19.6-8.3-21.6-24.1-3.6-19.7,16.6-16.3,33.2l-25.7-10.6c-9.1-21.5,20.1-22.8,7.3-44.9-.5-.8-10.4-10.6-11-10.9-7.5-4.1-16.5-4-23.2,1.5-3.7,3-3.3,8.6-7.1,11.8-6.2,5.3-22.1,4.3-19.7,19.6,2.8,18,16.4,11.8,17.1,12.8,5.1,8.1-3.1,25.8,10.6,34.9,16.9,11.2,21-7,34.4-3.9,3,.7,4.7,11.6,10.7,10.4,12.9-20.8,8.5-12.3,25.7-13.4Z"/>
  <path d="M921.3,749.6v2.5c-11.2-1.7-3.2,17.1,3.9,15.6,7.3-1.6,1.2-13.2,2.6-15.5,1.5-4.3,11.3-.3,11.7.2,1.6,2.1-10.1,27.1,8.6,25.4,1,0,16.5-10.6,17.3-11.3,3.7-3.4,3.6-8.5,5.9-11,10.4-10.7,24.1-4.2,36.5-8.5,7.6,9.5,13.9,20.1,27,23,10.1,2.3,16.6-2.8,18.9-12.5l2.6,7.7c12.6,3.6,21.6-12.2,8.5-15.2-3.3-.7-8.2,2.6-8.5,2.3-.3-.3.2-5.1-1.5-7.6-2.3-3.4-7.8-6.7-8.3-9.6-.6-3.5,4.5-9.4-.5-12.8-8.6-5.7-17.2,3-10.5,11.8-1.7,2.4-21.9-.5-23.5-1.4-4.8-3-5.4-15.1-18.1-11.5l4.6-3-1.9-11.4c-19.9-2.3-7,15.2-8,16.8-.4.7-10.3,2.8-7.7,13.1l-26.9-4.9-4.3,10.1c-16.8-3.5-13.3-25.6-33.1-16.2-12.7,6-8.3,21.7,4.6,24Z"/>
  <path d="M377.4,723.6c-7.1-.7-20.1,10.8-14.2,18.3-16.9,2.6-32.8,4.9-36.2,24.8-5.1,29.5,39.6,24.6,25.8-4,12.8,1.2,19.4-6.3,13-18.1,14.4-5.5,9,2.8,14.6,4.8,2.8,1,10.9,1.3,13.5-.2,1.3-7.7,10.7-9,12.9-14.3,4.1-9.9,6.7-23.9,5.8-34.4h7.8c-1.1,2.8-3.8,6.9-.1,9.2,15,9.2,8.4-5.9,9.1-10.5.4-3.1,4.6-5.6,5.5-8.9,1-3.9,6.7-25.8,6.5-27.3-1.1-7.5-9.6-10.1-15.6-6.7l-3-10-11.6,2.2-1.2,10.5,10.4,3.9c-10,13.3-26.3,4.1-35,16.9-17.8-24.5-32.3,20.7-1.3,10.4.7,8.5-6.4,16-5.2,24.5.7,4.8,10.7,11.9,7.8,14.4-5.3,4.7-8.5-5.2-9.1-5.3Z"/>
  <path d="M752.6,1108.7c7.4-8.6,19.1-11.1,18.2-24.6l5.5,12.6c19.9,3.8,13.1-8.1,17-20,3.5-11,21.5-21.8-6.6-20.8l-6.8,15.2c-5.9-10.4-17.1-21.5-28.5-10.2-2.4,2.4-14,21.2-14.5,24.4-1.9,13.8,2,17.9,10.5,27.3-6.6-.8-6.4,8.3-12.2,10.1-6.7,2-14.9-4.1-19-1.1l-1.4,12c7.5,7.1,19.8,2.1,25.8,3.1,3.9.7,7.2,6.8,13.3,6.9,20.7.1,24.4-35.1-1.3-34.8Z"/>
  <path d="M636.6,703.4c-19.4,4.1-5,20.8-6.2,22.7-.1.2-3.8-.1-5,2-5.9,9.8-12.2,23.7,1.2,29.6,8.8,3.8,16.3-4.7,27.4,2.4v18.1c-7.3-.5-14.5-.6-17.9,7-2.2,8.7,14.1,19.1,19.3,11.3l1.3-15.6,13.7-2.5,3.8-7.1c-14.5-15.4,7.5-20.7-2.3-35.6-9.5-14.6-25.5,0-28-1.8l-4.8-8.9c6-13.1,15.6,7.4,25.2-5.5,4-8-.3-14.6-7.7-17.8,5.4-8.9,10.1,2.1,14.2,1.3,3.1-.6,12.8-20.7,0-23.5-7.5-1.6-6.3,4.3-7,4.6-5.2,2.4-12-9.2-18.9-2-6.1,6.4-4.9,16,2.6,20.8l-1.3,7.8-9.5-7.3Z"/>
  <path d="M276.1,946.8c2.1,3.2,6.2,2,9.2,2.4,14.9-19.3-20-18.7-9.2-2.4Z"/>
  <path d="M285.3,949.2c-4.7,6.2-11.9,8.4-14.6,18.3-16.3,1.6-21.1-17.6-36.6-11.3-17.4,7.2-7.7,30.1,7,35.7l-9.3,12.9,2.2,6.1,7.2.5c-2.5,4.5-2.4,8-2.6,12.9,2.6.9,5,4.9,9.2,5.2,10.1.8,13.4-9.4,11.2-17.9l-15.2-4.2c6.3-6.3,14.7.9,22-6.5,8-8.2-2-20.7,5.3-23.3,11.5,20.9,47.6-2.3,31.1-23.3-5.9-7.5-9.7-4.2-16.8-5.2Z"/>
  <path d="M225.8,1021.9c-8.3,10.9,4.3,20.9,12.6,15.2,3.2-2.2.1-10.4.2-12.7-2.6-.9-11.2-3.6-12.8-2.5Z"/>
  <path d="M262,1087.9c8.1-5.2,5.8-13.6,0-19.5-6.9.8-14.8-2.9-15.6,7.8-5.5-5.7-11.8-6.2-16.8-4.2,7.1,5.6,14.4,11.1,21.8,16.3,2.9.9,6.8,1.4,10.6-.4Z"/>
  <path d="M275,1067.3c16.2-5.3,11.7-20.7,13.1-22,.9-.9,7.8,1.1,11.6-2.6,5.2-5,.4-17.6,10.7-17.9,7.6-.2,5.4,10.1,7.6,15.1,14.8,32.9,55.3-20.1,6.3-21.9,3.8-5.8,8.6-.4,13.6-1.7,9-2.4,13.2-17.1,7.3-24.5-18.1-12.5-24,7.3-18.4,22.3-7.5-5.7-12.1-4.3-20.6-2.6-.2-10.5-9.1-16.4-17.1-7.9-3.2,3.4-3.2,7.7-5.3,10.3-2.8,3.4-8.6,4.8-10.2,8-2,4.2-.3,11.1-1.6,12.7-.4.5-8.8,1.5-12.6,4.2-6.3,4.4-9.6,15.5-10.3,23,3.2,5.8,8.1,1.9,12.8,6.8,4.4-.5,8.1.5,13.1-1.2Z"/>
  <path d="M598.2,951.8c-4.2-.7-.3-13.5-7.4-19.9-16.8-15.2-36.9.7-28.3,21.8,5,12.3,15.1,9,18.2,11.6,4.7,3.9,1.5,16.3,21.3,9.8l2.4,11.9c49.5,7.5,40.3-66.2-6.2-35.2Z"/>
  <path d="M834.3,773c-6.5,6.3.6,11.2,1.3,18,16,13.7,4.2,13.5,8.9,20.9,4.1,6.4,17.2,2.6,14.6-8.8l-7.9-5.6c12.7-11-.1-14.8-.1-15.7,0-3.2,4.7-7.7,1.5-11.6-3.3-5-14.7-.7-18.2,2.7Z"/>
  <path d="M803.3,786.1c-1.5,0-2.6-7.2-9.1-9.4-7.3-2.5-20.4-2.9-23,5.9-5,16.6,11,19.7,11.8,25.3,1.1,8.1-23.9,8.1-12.5,25.5,6.7,10.2,16.7-.6,22.9-2.8,20-7.1,9.2-3.3,22.2-12.8,10.7-7.9,22.2-3.3,20-26.7-22.1-18.9-20.4-4.3-32.3-5Z"/>
  <path d="M980.8,1041.2c-3.4-1.4-4.5-7.5-11.6-8.9-18-3.6-26,6-24.6,23.2l-13.1,1.1c-7.8,13.4-.7,29.3,15.8,20.9,4.1-2.1,4.6-8.3,5.4-8.9.5-.3,7.3,2.7,11.4,2.7,3.2,0,8.1-1.9,10.3-2.5,9.8-7.8,19.3-16,28.6-24.4-1.3-1-2.8-1.9-4.6-2.6-8.2-3.4-14.7.5-17.6-.7Z"/>
  <path d="M692.9,1060.7l6.6,12.7c7.7-4.9,15.1.3,20.8,0,5.7-.2,7.4-6.6,11.6-8.7,4.3-2.2,12-2,14.8-4.6,7.7-7.3,1.6-29-11.1-28.2-7.1,4.3-17.2,6.5-24,10-6.1,3.2-4.9,9.9-14.9,11-7.6.8,0-11.9-4.1-15.3-8.6-7.4-27,10.1-27.4,19.2-.2,5.4,5.5,9.8,6,13.4.9,5.9-6.1,13.6,4.6,18.4l9-6.2-5-11.3c7.3.3,12.2-3,13-10.4Z"/>
  <path d="M820.1,1108.6c-15-7.3-16.9,6.7-22.4,14-2.1,2.8-5.9,3.6-8.3,7.3-1.8,2.8-2.6,10.9-3.1,11.2-1,.7-17.4-5.1-23.5,4.3-16.1,24.6,37.6,42.3,31.4,3.5,7.7.3,7.8,7.4,16.8,8,29.4,1.8,19.2-43.3,9.1-48.2Z"/>
  <path d="M551.2,1037.5c2,2.9,8.6,1.9,11.7,3.9,10.4,6.6,19.7,23,36.5,15.3,29.4-13.5-13.4-50.4-33.7-37.6,11.7-18.4,1.6-14.8-6.9-21.5-3.5-2.8-6.9-15.6-15.8-6.3-8.6,9.1,2.3,24.8,12.3,27.9v2.5c-7.5-2.5-6.6,12.2-4,15.8Z"/>
  <path d="M1079.6,819.6c-.5-17.1-17-17.4-28.4-8.9-7.3,5.4-3.8,11.3-5.8,13.6-1.9,2.3-24.2,4.3-19.2,21.2,12.4,14.4,32.7,5,27.4-12.9l20.8-5.2c-6.5,27.3,28.1,35.2,33.2,8.4,3.4-17.3-14.3-25.1-28-16.2Z"/>
  <path d="M720.3,1019.5c4.2.3,6.7,5.1,12.6,5,15.9-.5,16.6-32.1,10.6-33.7-5.2-1.3-9,5.2-13,5.2-4.2,0-10.4-9.3-18.8-10-6.2-.5-13.7,6.2-16,4.6-4.2-2.9-.8-15.2-19-6.9-13,5.9-6.6,13.8,5.8,12.3-10,39.3,20.8,22.4,37.8,23.6Z"/>
  <path d="M116.6,806.7c9.1,1.9,17.8-5.5,18.2-14.5.3-7.1-9.6-12.1-9.2-24.2.1-4.4,10.5-20.1-5.2-20-12.9.1-9.7,21.5-12.5,30.7-1.3,4.2-6,7.6-6.6,11.6-.7,4.3,3.5,11.6,2.1,13.6-1.4,1.9-14.4,1.1-15.3,14.6-2.1,29.6,43.2,17.1,28.4-11.8Z"/>
  <path d="M1100.4,717.2c6.5-12.4,17.7-6.6,26-10.4,9.5-4.4,9.8-22.3,1.8-29-5-4.3-9.9-2.6-15.4-.2-4.1,1.8-26.6,21.4-27.6,24.4-4.8,14.1,8,14.2,9.8,16.7.6.9-6,14.9.2,20.5l-12.6.4c-4.1,7.3-2.9,17.3,3.8,22.8,14.9,1.4,9.9-21.3,11.6-23,1.8-1.8,22.4,1,14.3-18.5l-11.9-3.7Z"/>
  <path d="M174,851.9c-12.8-3.9-18.8,5.4-31.4,1.4,4.5-29.9-42-21.2-20.7,9-.9,3.8-14.7,4.1-13,10.4.8,3,19.7,12.6,26,10.6,4.9-1.5,16.8-10.5,22.1-10.8,2.8-.2,4.9,3.9,11,2.5,13.5-3.2,17.8-19.5,6-23.1Z"/>
  <path d="M403,983.3c-4.6-.4-13.4,15.6-23.7,6.8-1.3-1.1-.7-6.7-4.2-10-19.5-18.2-41.6,30.2,1.1,23.5,2.1,8.4-8,4.2-12.3,8.4-11.8,11.4,10.6,26.5,22.4,17.1-2.8-14.9,11.6-6.2,11-20.2,18.3,7,24.5-24,5.8-25.6Z"/>
  <path d="M460.9,1034.9l-9.4,10.2c-1.1-12.6-3.2-19.6-16.9-20.8-26.7-2.4-39.6,27.8-32.6,50.2,17.5,14.2,32.3-14.8,45.6-24.2.8,14.5,3.6,17,18.2,15.6,26.1-2.5,12.8-25.7-4.9-31Z"/>
  <path d="M474.8,684.8c-13.1,30,51.5,35.8,37.6,5.2-3.2-7-19.3-13.9-27.2-13.1,3.8-16.5-5.2-15.3-9.7-21.2-1.6-2,1.3-13-13.8-9.8-1.2,17.1-16.4,39.5,13,38.9Z"/>
  <path d="M869.5,745.5c3.1,4.5,1.5,10.8,6.5,14.3,3.5,2.5,23.1,7,26,2.8.9-17.1,8.2-19.1-5.3-33.8-23.8-26-53.3-11.6-34.2,12.1,1.5,1.9,5.6,2.5,7,4.6Z"/>
  <path d="M904.3,1117.2c5.3-3.1,10.5-6.3,15.6-9.5-1.4-.4-3.1-.6-5.1-.6-10.6,0-11.3,5.6-10.5,10.1Z"/>
  <path d="M1162.6,787.3c.8-8.6-8.8-9.8-9.7-13.3-1.1-4,2.5-14.9-3.8-21.2-7.9-8-30-4-30.8,11.1-.5,9.6,4.1,9.3,6.5,14.5,5.1,11.1,7.5,20.3,21.4,25,6.2,1.4,15.9-11.6,16.3-16.2Z"/>
  <path d="M523.4,990.2c23.3,6.9,16.2-15.2,19.4-26.2,1.2-3.9,6.7-5.6,7.3-10.9,1.5-12.9-7.8-10.4-9.7-12.2-1.9-1.9-.9-7.8-4.6-9.7l-8.7,6.7,2.2,8.8c-24.3-5.2-20.1,39.3-6,43.5Z"/>
  <path d="M520.4,1036.5c-1.7.3-5.1-1.9-7.9-1.7-9.2.8-18.3.7-27.3,2.5-2.3,7.4,5.7,9.9,7.2,14.8,2,6.4-2.5,15.3,7.1,16.4,6.7.8,20.4-6.3,29.1-5.9,4.9-6.7,2.6-13,.6-20.2,8.6.3,14.1-4.1,8-11.9-9.3-11.8-13.7,5.4-16.9,5.8Z"/>
  <path d="M323.9,771.2c3.6-13.5-23.4-10.6-10,6.9,4-1.2,8.6-1.8,10-6.9Z"/>
  <path d="M324.5,795.1c-.4-11.1-5.8-10.7-10.6-16.9-2.2.7-16,4.6-16.9,4.5-2.8-.2-14.3-16.7-24.8-.7-12.5,19.1,19.3,16.2,20.6,17.3,1.1,1,.1,8.6,5.5,11.3,12,6.2,26.7-1.3,26.2-15.5Z"/>
  <path d="M150.3,798.9l-5.2,14.2c34.3,20.5,61.3-35.7,19.5-35-12.8.2-11,7.4-14.2,9.2-2.3,1.3-11.3-3.7-13.1,2.7-2,7,6.6,14,13,9Z"/>
  <path d="M221.9,827.4c4.9-7.7-9.7-27.4-20.6-25.3-4.1,3.8-25.2,17.8-26.3,20.1-5,10.4.5,20.2,11.4,22,3.3.5,34.2-14.8,35.4-16.8Z"/>
  <path d="M169.7,760.1c10.8,6.8,14.1-.8,16.8,19.5h13.3c7.6-7.9-1.6-14.8-2.6-21-2.2-13.3,3.5-34.3-21.6-29.2-14.7,3-19.2,22.5-5.9,30.8Z"/>
  <path d="M668.6,817.8c6.1-1,15.9,5.8,23-3.4,1.3,8.6,14.2,6.8,13.9-.9-.3-8.4-8.5-6.2-9.5-7.3-3.1-3.3.6-19.4-17.2-17.7-11.6,1.1-12.5,10.9-15.1,12.4-4.9,2.8-17.2-2.7-16.9,11.9.3,15.6,17.3,5.8,21.8,5Z"/>
  <path d="M893.9,1029.7c-2.5,5.6,1.4,10.8.2,13-1.1,2-6.9,3.4-9.2,6.2-10.3,12.7.7,30.1,16.4,26.8,17.4-3.6,9.8-15.3,10.9-24.2.6-4.6,9.8-12.6,3.3-18.7-4.5-4.3-17.7-11.6-21.5-3.2Z"/>
  <path d="M263,721.3c3.3,1,4.4,13.3,14.6,6.4,10.2-6.9-6.4-13.5-7.3-14.9-2.2-3.7.5-11.1-4-16.8-1.2-1.5-14.6-12.4-17.5-10-6.9,8.7-21.3,26-13.1,36.7,6.8,8.9,20.2-3.4,27.2-1.3Z"/>
  <path d="M339.9,949.3l7.8-9.1-12.9-3.9,2.6,12.9c-36.8-3.1-16.6,50,7.6,32.2,1.1-.8,12.6-14.8,12.8-15.8,2.9-10.5-14.4-8.5-17.8-16.4Z"/>
  <path d="M500.9,795.2c4.9-7.7,7.1-16.6,2.5-24.8,9.2.6,12.1-3.9,10.2-12.7-9.3-7.1-13.3,4-16.6,4.3-4.2.4-9.3-9.9-19.7-.9-15.9,13.8,4.5,38.7,23.7,34.1Z"/>
  <path d="M308.5,725.2c4.3,6.9,23.9-12.4,24.9-14.4,2.9-5.8,1.2-12.4-2.2-17.5-.8-1.3-4.8-1.8-5.6-3.2-2-3.8,7.2-16.3-12.8-13-22.6,3.7-6.9,19.8-5.5,30.6.7,5-4,13.7,1.2,17.4Z"/>
  <path d="M620,1076.9c-1.5-1.9-1.2-6-3-7.8-15.9-15.9-42.5,11.2-27.3,27.2,9.9,10.5,42.8,1.2,38-13.3-1-3-5.6-3.4-7.7-6.1Z"/>
  <path d="M1175,682.6c-17,3.3-14.6,28.9-.4,30.8,3.6.5,7.4-1.7,10.3-1.5,1.6.2,3,1,4.4,1.7,1.5-7.9,2.9-15.8,4.1-23.8-1.5-.3-3.1-.7-4.6-1.3-4.6-1.9-4.1-7.8-13.8-6Z"/>
  <path d="M414.2,786.1l13.9,5c6.4-10.4-3.7-12.4-4.6-17.1-1-5.3,7.9-19.7-7.2-21.8-20-2.8-11.5,20-24.1,27.7,3.5,14.3,11.8,18.7,22,6.3Z"/>
  <path d="M224.7,793.3l8.5-2.6.4-20.3c31.8,5.2,15.8-38-4.2-23.6-7.3,5.3-3.8,13.9-5.2,15.9-1.3,1.8-5.8,1.6-6.5,4.3-1.1,4.4,1.1,25,7,26.4Z"/>
  <path d="M186.7,1008.9c6.2,0,14.9,1.8,15.8-6.6,1.2-15.5-25.7-18-21,4-7.5-2.3-14.9-.5-18.2,5.2,6.3,6.7,12.8,13.3,19.5,19.7,6-4.1,9.5-12.4,4-22.3Z"/>
  <path d="M656.6,1051.6c-18-20.2-39.3,10.3-25.4,24.1,14.8,14.7,43.4-3.9,25.4-24.1Z"/>
  <path d="M336.5,1076.9c-1.6-1.4-5.7-.5-8.2-3.3-2.1-2.5-1.3-6.8-5.6-10.1-6.6-5-23.4-9-26.6,1.6-5.8,19.1,17.9,15.5,22.4,19.4,2.6,2.3-1.7,12,12.1,9.9,9-1.4,12.1-12.2,5.8-17.5Z"/>
  <path d="M711,710.7c.1-4.1,3.1-8.3,2.5-14-1.7-17.5-30-19.3-31.3,2.4-1.2,20.8,14.7,18.3,28.7,11.6Z"/>
  <path d="M735.7,726.2c6.6-1.4,10.4-10.5,19.5-7.7,3.8-10.4-11.6-19.6-19.7-20.7-9.8-1.4-16,8.9-24.4,13-.5,16.1,10.1,18.5,24.6,15.5Z"/>
  <path d="M996.6,866.2c0-5.2,8.1-.8,10.1-6.8,1.3-3.6-.3-13.1-3-15.9-9.8-9.9-38.5,14.7-26.7,25.3,5,4.9,11.4,2.4,16.9,0,.5,22.3,27.8.6,2.6-2.6Z"/>
  <path d="M669.5,1115.1c12.4-29.4-25.6-30.9-19.6-2.4l17,2.4c-17.4,21.3,17.9,29.7,17.5,9.4-.9-8.2-7.8-9.1-14.9-9.4Z"/>
  <path d="M899.8,843.4c-12.2,1.7-19.1,18.2-7,26.7,24.7,17.3,36.1-30.8,7-26.7Z"/>
  <path d="M200.8,728.8c21.9-1.4,17.5-33.6-1.8-30.7-18.6,2.8-18.4,31.9,1.8,30.7Z"/>
  <path d="M842.3,845.3c-.9-.7-20.4-9.7-21.5-9.8-6.8-1.1-11.8,4.9-11.2,11.2.8,8.2,8.3,7.4,12.9,10.8,4.8,3.6,9.8,13.2,20.4,5.6,4-2.8,4.4-13.9-.5-17.8Z"/>
  <path d="M711,1102.1c4.2-7.6,7.1-9.7-1.4-15.4-4.7-1.1-9.5,8-7.2,12.2l6,5.8c-8.6-1.9-3.7,8.5-5.3,10.3l-11.7,2.5c-3.9,34.1,27.8,8.1,27.3-11.2l-7.6-4.2Z"/>
  <path d="M375.6,948.6c32.3,20,31.7-22.9,10.4-22.1-14.2.5-25.2,12.9-10.4,22.1Z"/>
  <path d="M850.8,749.2c.6-11.4,4.2-27.5-11.3-28.4-28.1-1.6-10.8,38.4,11.3,28.4Z"/>
  <path d="M528.1,671.9c5.8-14.9-11.2-18.7-23-15.1-22.7,7,4.2,39.4,23,15.1Z"/>
  <path d="M437.2,755c20.3,1.1,7.5-17.1,9.1-18.4l12.6-.4,1.9-12.7c-13.7-7.3-23.5-1.6-17.1,13.1-16.3-7.1-23.5,17.5-6.5,18.4Z"/>
  <path d="M653.6,1027.7c1.3-4.5.2-8.3-3.3-11.4-4.3-3.3-10.2-3-15.2-1.8-8.6,1.9-11.3,9.5-14.4,16.8-1.2,14.2,31.1,3.1,32.9-3.6Z"/>
  <path d="M490.4,930l7.7-11.9c3.7,16.9,8,16.9,15.6,2.6-14.1-7.5-7-7.8-11.7-15.4-7.9-12.8-12,1.8-15.2,6.8-1.1,1.7-5.2,2-6.4,5.1-3.3,8.6.4,14.8,10,12.8Z"/>
  <path d="M529,922.9l.3-12.6c-12.4-1.5-11.5,2.7-15.6,10.4,5.8,3.1,7.2,7.2,15.2,2.2Z"/>
  <path d="M242.9,773.3c-10,3.4-8.6,21.7,2.7,25,23.3,6.8,22.1-33.7-2.7-25Z"/>
  <path d="M603.2,754.8c12.8,17.8,21.1-40.7,3.2-36-18,4.7-4.5,19.8-3.2,25.3.8,3.1-2.3,7.5,0,10.7Z"/>
  <path d="M59.3,770.6c-9.3-6.4-24.3,9.5-10.2,19.2-25.3,13.7,3.5,28.1,7.7,15.2,2.5-7.5-5.2-10.1-5-16.5,12.1,3.6,12.4-14.6,7.5-17.9Z"/>
  <path d="M380.1,809.2c12.5.4,7.3-23.7,3.3-27.9-8.1-8.4-19.1,1.1-20.2,11.2-.6,5.1,15.7,9,17,16.7Z"/>
  <path d="M72.8,877.9c-1.6.1-3,.4-4.4.6,3.5,6.7,7.2,13.4,11,19.9,3.3-8.5,5-15.5-6.6-20.6Z"/>
  <path d="M559.1,1071.1c10.5-1,11.9-16.7,6-22.7-15.4-15.6-33,25.3-6,22.7Z"/>
  <path d="M949.7,857.3c-.4-2.8-1.1-6.5-3.1-8.5-4.7-4.8-15.9-.4-22.2-.2-3.4,5.4-3.4,11.8,0,17.2,10.3,2.1,22,4.2,25.3-8.5Z"/>
  <path d="M371,1050.3c-6.6-.6-12.7-.6-16.9,5.2l-1.7-4.5c-4.7-3.8-20.7,6.2-5.4,14.2,13.8,7.2,24.2-.4,24.1-14.9Z"/>
  <path d="M754.4,833c-11.5,3.4-9,23.6,4.3,22.3,17.4-1.7,14.4-27.9-4.3-22.3Z"/>
  <path d="M230.2,838.4c-14.8-14.3-31.2,16.2-10.5,19.6,12.4,2.1,16.5-13.8,10.5-19.6Z"/>
  <path d="M612.8,1013.6c12.1,7.6,29.2-10.6,15.2-19.1-15.2-9.2-23.5,13.9-15.2,19.1Z"/>
  <path d="M483.8,739.1c8.2-9.3.2-21.3-12.3-17.5-16.1,4.8-1,32.7,12.3,17.5Z"/>
  <path d="M456.7,774.2c-15.2-9.2-22.4,14.5-15.2,19.1,12.1,7.6,29.2-10.6,15.2-19.1Z"/>
  <path d="M1059.1,783c9.3,2.2,25.3,7,28.1-5.9-5.5-10.4-18.9-6-28.1-3.9v9.8Z"/>
  <path d="M770.8,1037.4l6.7,7.6,8.8-2.5c-1.3-20.1-10.3-8.7-14.2-8.6-2,0-4.8-5.2-9.9-4.1-16.3,3.6.3,28.1,8.6,7.6Z"/>
  <path d="M735.7,840.6c19.4-1,6.5-27.5-8.7-18-4.6,2.8-6.9,18.8,8.7,18Z"/>
  <path d="M686.3,761.5c1.9-.2,4.7-.6,5.9-2.1,4-5.1,4.4-17.9-3.7-19.6-12.4-2.6-15.4,21.9-2.2,21.7Z"/>
  <path d="M1157.2,741.6c11.9-16.9-21.6-15.6-22.9-8.6l2.7,8.7h20.2Z"/>
  <polygon points="297.2 736.5 285.4 734.1 285.4 754.8 298.3 754.8 297.2 736.5"/>
  <path d="M1151.8,820.1l-10.1.6-2.4,11.8c5,1.2,9.3,2.4,12.6,3.1,1.3-3.1,2.7-6.3,3.9-9.4-1.1-1.8-2.4-3.8-4.1-6.1Z"/>
  <path d="M869.5,1128.2l1.8,7.1c4.4-2.2,8.8-4.5,13.2-6.9-.2-.2-.4-.4-.7-.6l-14.3.4Z"/>
  <path d="M940.7,1007.2c-15.4,0-8.3,23.9,4.9,14.3,8.3-6,2.7-14.4-4.9-14.3Z"/>
  <path d="M545.1,821c6.4-4.5,2.3-17.8-9-14.2-10,3.2-2.3,22.1,9,14.2Z"/>
  <path d="M72.6,836.7l2.9,8.5,15.2.4c2.9-13.2-9.4-18.1-18-8.8Z"/>
  <path d="M464.1,718.1c7.6-4.7-2.6-18.7-10-14.1-11.7,7.3.2,20.3,10,14.1Z"/>
  <path d="M676.3,941.7c-9.4,2.9-1.3,17.8,7.4,15.3,7.1-2,6-19.5-7.4-15.3Z"/>
  <path d="M358.4,1084.9c3.5,13.6,21.8,4,14.9-5.8-2.3-3.3-17.8-5.3-14.9,5.8Z"/>
  <path d="M843.3,708c5.6-8-6.8-16.4-15.5-12.9-4.9,10.4,11.4,18.7,15.5,12.9Z"/>
  <path d="M1029.1,822.2l1.2-13c-5.9-.7-10.8.2-14.4,5.1-1.1,6.9,8.3,15.1,13.2,7.9Z"/>
  <path d="M775.8,1021.7c3.8-2.6.7-18.2-9-15.4-10.1,2.9-1,22.2,9,15.4Z"/>
  <path d="M141.3,744.4c11.7,3.2,16.9-18.8,3-15.2-6.9,1.8-9.7,13.3-3,15.2Z"/>
  <path d="M965.2,869.1c-2.4-1.5-12.1-.6-14.2,2.3-2.4,22.7,24.4,4,14.2-2.3Z"/>
  <path d="M534.8,775.3c11.1,8,16.8-12.9,6.2-15.3-6.8-1.6-11.1,11.8-6.2,15.3Z"/>
  <path d="M642.5,998.7c-10.1,3.1-1.3,18.6,8.9,11.5,6.8-4.7.7-14.5-8.9-11.5Z"/>
  <path d="M668.2,1016.6c6.9-2.1,5.3-18.6-5.1-15.5-6.9,2.1-5.3,18.6,5.1,15.5Z"/>
  <path d="M347.7,665.5c11.3,5.4,12.1-11.2,7.7-14.3-5.2-3.7-20.1,8.4-7.7,14.3Z"/>
  <path d="M264.6,848.1c3.7-5.2-8.4-20-14.4-7.6-5.4,11.3,11.2,12.1,14.4,7.6Z"/>
  <path d="M473.5,1027c6.9-2.1,5.3-18.6-5.1-15.5-6.9,2.1-5.3,18.6,5.1,15.5Z"/>
  <path d="M570,970.4c-9.1,2.4-7.2,13.9-.5,14.5,10.1,1,13.3-17.9.5-14.5Z"/>
</svg>