<?xml version="1.0" encoding="UTF-8"?>
<svg id="Layer_1" xmlns="http://www.w3.org/2000/svg" version="1.1" viewBox="0 0 1200 1200">
  <!-- Generator: Adobe Illustrator 29.0.0, SVG Export Plug-In . SVG Version: 2.1.0 Build 186)  -->
  <defs>
    <style>
      .st0 {
        fill: none;
      }
    </style>
  </defs>
  <path d="M-.2,585.9c-1.8,1.1-.5,4,1.3,6.5,0-2.2,0-4.4.1-6.6-.5,0-.9,0-1.4.1Z"/>
  <path class="st0" d="M722.2,1176.3c-7.2-1.2-39.1-29.7-48.8-36.2-58.1-39.1-118.9-72.8-175.4-115.3-2.5-1.9-4.6-4-6.7-6.3,4.3-5.9,6.7-5.6,13.2-3.5,6.9,2.3,26.9,21.3,33.5,26.9,57.8,30.7,108.4,73.4,163.8,108.9,10.4,6.7,23.3,8.2,31.1,21.1-3.6,4.7-4.9,5.3-10.7,4.3ZM741.1,1141c-4.7-3.7-6.3-10-9-12.1-64-50.5-134.8-90.8-198.4-142.9-3.2-2.6-8.2-3-10.6-4.8-7.6-5.8-5.7-15.4,5.1-12.6,8.6,2.2,30.4,25.1,39.9,32,61.2,43.5,123.2,86.3,184.4,129.1,21.6,15.1,12,30.1-11.4,11.4ZM796.5,1124.8c-10.1-4.8-17.5-16.3-25.9-23.1-63.1-51-134.6-96.1-199.2-147-3.9-3.1-41-33.3-37.7-35.8,6.6-.8,11.7.6,17.5,3.6,10.9,5.7,28.7,26.8,40,35.1,30.6,22.2,61,44,91.3,67.1,31,23.6,61.5,49,93,71.9,7.6,5.5,19.7,8.6,26.7,14.8,11.1,9.8,10.8,21.2-5.9,13.4ZM850.6,1072.3c-19.4,3.9-28.7-12.6-42.8-20.9-60.1-35.3-124.2-66.5-183.7-100.5-8.6-4.9-67.4-39.5-67.4-43.5,0-3.5,7.2-5.1,11.2-4.8,13.3.9,35.4,23.9,47.8,30.7,71.6,39.2,143.9,83.5,217.6,118.8,3.2,1.5,11.1,5.9,13,8.1,2.8,3.2,4.8,7.6,4.3,12ZM883.3,1046.2c-20,4.2-28.4-14-40.8-22.9-58.4-42-125.3-75.6-185.7-114.7-18.5-12-45-28.6-61.9-41.8-7.4-5.8-6.4-14.3,5.1-12.6,11.4,1.7,39.3,28.9,51.6,36.7,64.8,41.4,130.5,85.5,196.7,126.6,11.7,7.2,36.1,9.7,35,28.7ZM912.7,1007c-20.6,4.4-26.6-11.9-39.4-21-66-47-142.9-86.2-209.9-133-4.2-3-40.2-27.4-34.8-32.1,22.6-2.4,39.1,21,57.1,32.6,62.8,40.5,125,81.5,188.1,122.2,8.9,5.8,28.7,12.6,34.6,19.2,2.8,3.2,4.8,7.6,4.3,12ZM924.5,970.7c-12.2-6.4-35.7-30.4-48.5-39.6-11.4-8.1-23.2-14.7-35.5-23.4-51-36.1-118.5-75.4-164.6-116.2-4-3.6-9.3-6.7-8.2-13,9.2-8,46.7,30.8,55.8,37.2,59.5,42.2,120.5,86.7,181.5,128.7,12.1,8.3,33.7,11.5,37,29.9-6.7.8-11.7-.6-17.5-3.7ZM939.1,926.8c-50.4-35.4-99.1-83-148.4-121-12.7-9.8-58.4-35.8-64.3-45.1-2.6-4-4.1-6.5-3.1-11.6,19.4-3.2,25.5,15.7,36.1,24.3,60.8,49.3,124.4,95.3,186.3,143.5,6.8,5.3,32.7,16.5,32.3,26.4-.6,13.5-34.6-13.7-38.8-16.6ZM1018.9,928.7c-2.8-.8-41.4-30-47.1-34.6-61.1-49.5-117-107.3-181.3-151.8-7.3-5.1-24.5-19.1-33-25.8-25-19.8-11.6-30.7,11.2-11.2,5.8,5,8,11.9,13.1,16.3,57,49,118.5,92.3,175.4,139.7,4,3.4,7.9,11.7,14.1,16.9,11.8,9.8,47,30.6,50.8,40.6,1.7,4.4,4.1,12.1-3.4,9.9ZM1036.8,905.8c-6.2,1.4-7.7-3.5-11.4-6.5-58.5-48.1-117-132.6-169.7-189.5-13.1-14.1-39.6-33.2-50.8-47.2-4.3-5.3-7.3-10.9-6.5-18,5.5-.4,11,.7,15.3,4.3,4.1,3.4,10.7,16.3,15.6,21.9,54.1,60.9,109.1,122.7,162.7,181.8,6.3,6.9,55.6,41.2,44.7,53.2ZM1049.2,827.5c-10.9-9.4-25-28.3-36.4-38-59.2-50.4-122.5-96.3-178.8-149.4-1.9-1.8-39-27-20.9-28,7.3-.4,34.7,26.8,43,33.7,60.3,50,118.2,104.8,179.2,155.5,13.1,10.9,35.4,16.7,37.5,36-9.5,1.8-16.9-4-23.5-9.8ZM1106.5,815.1c-6.4-2.7-51.3-43-60-51.1-4-3.7-4.3-10.9-7.4-13.8-47.5-44.5-96.1-91.6-143.8-133.7-12.1-10.7-35.1-16.2-34.8-37,7.8-8.2,50.2,42.6,57.1,49,49.7,47.1,100.3,93.7,150.3,140.3,15.4,14.3,40.4,24.4,47.4,44-.7,5.1-4.7,4-8.7,2.3ZM927.5,579.3c55.4,44.8,114.6,84.4,170.3,128.5,4.2,3.3,9.1,13.1,15.8,18.5,9.6,7.8,55.6,33.7,53.9,44-4.9,6.6-5.1,4.4-10.8,1.1-17.5-10-46.1-32.1-62.6-45.2-59.4-46.7-116.6-101-178.3-145-12.8-9.2-35.5-14.3-32.4-34.5,21,3.8,29.4,20.6,44.1,32.6ZM640,14.6c6.2,4.6,8.4,11.4,12.6,15.1,56.4,50.2,126.2,105.5,186.7,154.5,12.8,10.4,50.2,33,57.2,41.7,2.4,2.9,4,10,6.4,13.9-22.1,7.6-30.4-17.4-42.2-27.9-67.6-60.5-148.4-112.9-216.1-175.7-3.8-3.5-10.5-8.8-16-8.5-5.2,4.8,66.2,89.2,73.3,98.1,42.1,53.1,83.4,109.2,126,161.3,9.8,12,25.5,19.7,26,37.6-6.2,1.1-8.9-1-13.3-4.7-6.8-5.6-31.3-36.6-38.9-46-56.9-70.2-109.5-151.1-166.7-218.6-11.7-13.8-32.6-23-32.6-44.1,18.7,6.8,19.7-9.8,37.5,3.3ZM525.6,53.9c6.6,3.8,14.2,5.8,20.1,10.8,10,8.5,24.4,28.7,35.4,38.1,65.4,55.9,130.1,113.9,196.1,169.6,15.8,13.3,43.7,21.1,44,45.8-22-1.8-29.7-22.4-42.3-34.4-5.5-5.2-13.4-6.5-18.1-11.4-52.4-55.5-122.6-103.1-181.4-154.9-20.1-17.7-37.4-39.1-58.7-55.6l4.8-8ZM497.9,86.4c9.9-10.3,47.2,42.3,53.9,48.9,24.7,24.5,53.5,47.7,78.9,73,6.6,6.6,11.4,17.6,19,25.1,34,34.1,71.5,66,106.5,99.3l3.1,14.8c-7.7,8-33.1-28-37.6-32.6-51.1-52.9-110.7-105.2-163.3-156.7-8.1-7.9-58.3-59.3-59.9-64.2-.8-2.5-.5-5.1-.5-7.6ZM496.3,177.8c65.1,50.3,132.6,95,196.4,146.5,8.5,6.8,66.6,32.5,53.4,46.2-5.5.8-9.6-1.1-14.2-3.7-18.1-10.3-45-32-62.7-45.1-47.5-35.2-96.7-74.1-141-111.3l-74.3-48.9-1.7-13c20.6-.6,30.4,18.7,44.1,29.3ZM435.8,166.4c19.7,1.2,23.6,19.7,34.3,31.1,52.9,56.7,109.2,113.7,162.7,168.7,12,12.3,41.2,28.4,45.7,44.2,1.4,5,3.3,4.5-2.6,8.9-3.9.1-52.1-45.1-58.9-52.1-51.9-53.1-100-112.7-153.3-163.5-4.8-4.6-42.5-28.9-27.9-37.4ZM385.2,184.4c17,5.1,19.4,18.7,29.3,29.5,3.2,3.5,8.1,4.7,10.6,7.3,55.9,59.2,112.9,123.5,172.4,181.9,11.5,11.3,27.6,17,31.1,35.8-23.2,3.3-25.6-15.8-35.8-27.8-46.9-54.7-108.2-107.4-158.7-158l-53.3-61.1,4.5-7.6ZM341.1,217c19.8,2.8,22.1,20,32.6,31,28.3,29.5,61.4,57.9,90.3,87.7,31.6,32.5,61.2,67.7,94.1,100.1,11.5,11.3,27.6,17,31.1,35.8-20.3,3.3-26.3-17-37.4-29.5-54.4-61.4-122.8-118.4-179.8-179.4-6.7-7.2-36.5-38.2-31-45.8ZM317.1,273.7c16.2,14.1,32.5,30.4,48.5,44.5,52.2,46.1,100.8,94.8,153.5,140.4,10.6,9.1,30.1,13.7,31,32.6-7.1.8-12.7-2.2-18-6.5-11.4-9.1-28.7-32.7-41.1-43.8-61.6-55.4-128.6-106.4-189.3-163.3-10.1-17.4,5.1-12.9,15.4-3.9ZM278.3,317.3c12.9,3.6,24.4,21.3,35.2,30.2,19.3,16.1,39.7,31.1,59.2,46.9,45.7,37.1,92.5,74.9,138.5,111.3,3.3,2.6,13.7,12.5,12.9,16.4l-8.7,2.3c-13.1-12.5-29.2-20.8-43.2-32-63.8-50.7-125.1-104-188.2-154.7-7-5.6-24.7-25.9-5.7-20.5ZM217,321.5c18.7-1.8,24.4,16.7,34.2,26.3,3.3,3.2,7.4,4.7,10.4,7.5,54,49.8,106.7,103.2,161.1,154,6.3,5.9,63.8,49.1,55.6,57.1-8.3,1-13.8-3.1-19.7-8-15.2-12.7-33.4-37.9-48.8-52.5-56.6-53.6-119.5-102.3-173.1-160-7.6-8.2-21.8-10.8-19.7-24.3ZM225.2,399.8c42.8,38.8,90.3,72.1,134.4,108.9,19.4,16.2,39.3,34.8,58.3,51.1,7.9,6.8,46.6,32.5,37.5,42.4-6,.8-10.2-3.4-14.6-6.6-44.5-32.2-85.6-75.3-127.4-111-30-25.6-60.9-54.1-91.4-78.4-12-9.6-32.9-11.9-34.3-32.6,21.3-3.6,26.5,16.1,37.6,26.1ZM138.6,419.4c17-1.7,25.4,14,36.1,21,71.1,46.2,154.1,94.6,221.7,144,4.8,3.5,10.5,9.1,13.3,14.5-24.7,0-45.6-26.3-66.1-40-56.7-37.8-117.6-70.8-173.4-110.7-4.3-3.1-36.2-24.5-31.6-28.8ZM122.1,437.5c10.2,3.9,13.1,14.1,19.6,19.6,16.2,13.9,34,25.6,50.6,39.3,45.7,37.8,89.9,76.6,136,113.7,13.3,10.7,38.1,17.2,38.9,37.8-6.5,1-11-1.7-16.1-5.1-13-8.4-29.7-30.7-41.9-40.7-58-47.6-120.1-89.3-175.4-140.3-5.2-4.8-13.2-7.2-17.8-11.8-8.8-8.7-7.3-17.9,6.2-12.7ZM76.6,484.7c17.6,2.4,24.2,15.9,36.1,24.3,62.8,44,128,85.9,190.9,129.2,7.6,5.2,64.2,31.2,53.9,42.4-3,3.3-69-41.1-75.9-45.7-48.6-32.7-94.3-69.6-143.3-102.5-13.6-9.1-48.8-23.6-57-34.5-3.3-4.4-6-7-4.7-13.2ZM70.2,531.9c3.6,2.6,8,3.6,11.8,6.2,64,43.7,128.1,93.4,194.1,137.3,11,7.3,31.7,9.4,32.3,28.1-18.6,3.4-25.7-14.1-37.6-22.8-68.4-50.8-146.1-92.6-212.3-146.9-8.1-6.6-23.9-9.5-24.5-22.8,18.1-3.2,24.5,12.8,36.1,21.1ZM90.4,608.7c-13.9-9.3-36.4-18.3-49.6-27.9-4.5-3.3-10.9-8-10-14.5,16.8-3.3,22.4,10.6,32.8,17.7,21.1,14.3,42.6,28.2,63.8,42.3,31.3,20.8,63.4,44.8,93.9,66.1,10.5,7.3,30.2,14.2,39.3,21.1,12.3,9.4,6.2,17.3-8.9,8.9-56.9-31.6-108.7-78.6-161.3-113.9Z"/>
  <path d="M635,55.4c57.1,67.5,109.8,148.4,166.7,218.6,7.6,9.4,32.1,40.4,38.9,46,4.4,3.7,7,5.8,13.3,4.7-.5-17.9-16.2-25.6-26-37.6-42.6-52.1-83.9-108.2-126-161.3-7-8.9-78.4-93.3-73.3-98.1,5.5-.3,12.2,4.9,16,8.5,67.7,62.8,148.6,115.2,216.1,175.7,11.8,10.6,20.1,35.6,42.2,27.9-2.5-3.8-4.1-10.9-6.4-13.9-7-8.7-44.4-31.3-57.2-41.7-60.5-49-130.3-104.3-186.7-154.5-4.2-3.7-6.3-10.5-12.6-15.1-17.8-13.1-18.8,3.5-37.5-3.3,0,21.1,21,30.3,32.6,44.1Z"/>
  <path d="M886.2,166.8c13.8,11.8,38.9,44.7,53.5,51,5.1,2.2,9.9,3.1,15.5,2.5-2.9-21.9-26.2-27.3-40.7-39.2-48.7-39.9-93.3-83-140.5-124-18.8-16.4-41.3-29.3-59.5-43.4-1.3-1-2.7-2.3-4.2-3.7-7.1-1.3-14.2-2.5-21.4-3.5,4.7,4.1,8.9,7.7,11.4,9.9,60.4,51.4,125.2,98.6,185.9,150.5Z"/>
  <path d="M579.5,117.5c58.8,51.8,128.9,99.4,181.4,154.9,4.6,4.9,12.6,6.2,18.1,11.4,12.6,12,20.3,32.6,42.3,34.4-.3-24.6-28.3-32.5-44-45.8-66-55.8-130.8-113.7-196.1-169.6-11-9.4-25.3-29.6-35.4-38.1-6-5-13.5-7-20.1-10.8l-4.8,8c21.4,16.5,38.6,37.9,58.7,55.6Z"/>
  <path d="M528.2,210.3c44.3,37.2,93.5,76.1,141,111.3,17.7,13.1,44.6,34.8,62.7,45.1,4.6,2.6,8.7,4.5,14.2,3.7,13.2-13.7-44.9-39.3-53.4-46.2-63.8-51.5-131.3-96.2-196.4-146.5-13.7-10.6-23.5-29.9-44.1-29.3l1.7,13,74.3,48.9Z"/>
  <path d="M1143.3,703.1c-59.7-60.7-123.9-120.7-181.6-184.1-10.3-11.3-13.4-31-35.9-31-2.5,19,19.5,27.9,31.2,39,12.9,12.3,26.9,24.4,39.6,37.2,51.4,51.5,100,111,152.9,162.2,6.5,6.3,22,21.2,31.3,29,1.4-5.3,2.8-10.6,4-15.9-13.7-14.2-36-30.7-41.5-36.3Z"/>
  <path d="M945.3,159.9c10.3,10.7,15.2,31.4,35.9,31,1.2-11-6.1-17.6-13-24.6-29-29.8-67.9-58.6-98.2-87.9-7.1-6.9-14.4-16-21.6-25.2-11.4-5.2-22.9-10-34.7-14.4,44.4,39.9,90.8,78.5,131.5,121.1Z"/>
  <path d="M1114.4,310.7c-5.1-1.4-4.6-3.3-9,2.7,5.2,18.5,21.9,23.8,34.2,34.3,3.2,2.8,6.5,5.6,9.8,8.4-4.1-9.2-8.4-18.3-12.9-27.2-6.3-8-12.9-15.6-22-18.1Z"/>
  <path d="M558.3,158.3c52.6,51.6,112.2,103.8,163.3,156.7,4.5,4.6,29.8,40.6,37.6,32.6l-3.1-14.8c-34.9-33.3-72.4-65.2-106.5-99.3-7.5-7.5-12.3-18.5-19-25.1-25.4-25.3-54.2-48.5-78.9-73-6.7-6.7-43.9-59.2-53.9-48.9,0,2.5-.4,5.2.5,7.6,1.7,4.9,51.8,56.2,59.9,64.2Z"/>
  <path d="M463.7,203.8c53.3,50.7,101.4,110.4,153.3,163.5,6.8,6.9,55,52.2,58.9,52.1,5.9-4.4,4-3.9,2.6-8.9-4.4-15.8-33.7-31.9-45.7-44.2-53.5-55-109.8-112.1-162.7-168.7-10.7-11.4-14.6-29.9-34.3-31.1-14.5,8.6,23.1,32.9,27.9,37.4Z"/>
  <path d="M592.7,411.2c10.3,12,12.6,31,35.8,27.8-3.5-18.8-19.6-24.5-31.1-35.8-59.5-58.5-116.5-122.8-172.4-181.9-2.5-2.6-7.3-3.8-10.6-7.3-9.9-10.8-12.3-24.4-29.3-29.5l-4.5,7.6,53.3,61.1c50.6,50.7,111.8,103.4,158.7,158Z"/>
  <path d="M848.3,1017.5c-66.2-41.2-131.9-85.2-196.7-126.6-12.2-7.8-40.2-35-51.6-36.7-11.6-1.7-12.5,6.8-5.1,12.6,16.8,13.1,43.3,29.7,61.9,41.8,60.4,39.1,127.3,72.7,185.7,114.7,12.4,8.9,20.8,27.1,40.8,22.9,1.1-18.9-23.3-21.4-35-28.7Z"/>
  <path d="M1050.2,407.7c-10.2-9-17.2-27.2-36.2-24.2-.8,14,13,15.5,21.2,22.9,51.9,47.1,108.5,87.9,162.7,130.6-.3-3.2-.7-6.3-1.1-9.5-44.2-37-87.9-74.6-131.6-110.3-4.6-3.8-10.4-5.6-14.9-9.6Z"/>
  <path d="M915.7,581.2c61.6,44.1,118.8,98.4,178.3,145,16.6,13,45.2,35.2,62.6,45.2,5.7,3.3,5.9,5.5,10.8-1.1,1.7-10.3-44.3-36.2-53.9-44-6.6-5.4-11.6-15.2-15.8-18.5-55.7-44.1-114.8-83.8-170.3-128.5-14.8-11.9-23.1-28.8-44.1-32.6-3.1,20.2,19.6,25.3,32.4,34.5Z"/>
  <path d="M971.4,878.1c-6.2-5.2-10.1-13.5-14.1-16.9-56.9-47.4-118.5-90.7-175.4-139.7-5.1-4.4-7.3-11.3-13.1-16.3-22.9-19.5-36.2-8.5-11.2,11.2,8.5,6.7,25.7,20.7,33,25.8,64.3,44.5,120.2,102.4,181.3,151.8,5.7,4.6,44.3,33.8,47.1,34.6,7.5,2.2,5.1-5.6,3.4-9.9-3.9-10-39-30.8-50.8-40.6Z"/>
  <path d="M551.9,442.1c11.1,12.5,17.1,32.8,37.4,29.5-3.5-18.8-19.6-24.5-31.1-35.8-33-32.4-62.5-67.6-94.1-100.1-28.9-29.8-62-58.2-90.3-87.7-10.6-11.1-12.8-28.2-32.6-31-5.5,7.6,24.2,38.6,31,45.8,57,61,125.4,118,179.8,179.4Z"/>
  <path d="M873.8,975.8c-63-40.6-125.3-81.7-188.1-122.2-18-11.6-34.5-35.1-57.1-32.6-5.4,4.7,30.6,29.1,34.8,32.1,67,46.8,143.9,86,209.9,133,12.8,9.1,18.8,25.4,39.4,21,.5-4.4-1.5-8.8-4.3-12-5.9-6.6-25.7-13.5-34.6-19.2Z"/>
  <path d="M833.3,1052.2c-73.7-35.3-146.1-79.6-217.6-118.8-12.4-6.8-34.5-29.8-47.8-30.7-4-.3-11.2,1.3-11.2,4.8,0,4,58.9,38.7,67.4,43.5,59.5,33.9,123.5,65.1,183.7,100.5,14.1,8.3,23.4,24.8,42.8,20.9.5-4.5-1.5-8.8-4.3-12-2-2.2-9.9-6.6-13-8.1Z"/>
  <path d="M221.9,406.3c30.5,24.3,61.4,52.8,91.4,78.4,41.8,35.7,82.9,78.7,127.4,111,4.4,3.2,8.6,7.3,14.6,6.6,9.1-10-29.6-35.7-37.5-42.4-19-16.3-39-34.9-58.3-51.1-44.1-36.8-91.6-70.1-134.4-108.9-11-10-16.3-29.6-37.6-26.1,1.4,20.7,22.3,23,34.3,32.6Z"/>
  <path d="M236.7,345.8c53.6,57.7,116.5,106.4,173.1,160,15.4,14.6,33.6,39.8,48.8,52.5,5.9,4.9,11.4,9.1,19.7,8,8.2-8-49.2-51.2-55.6-57.1-54.4-50.8-107.1-104.2-161.1-154-3-2.8-7.1-4.2-10.4-7.5-9.8-9.6-15.4-28.1-34.2-26.3-2.1,13.5,12.1,16.1,19.7,24.3Z"/>
  <path d="M1007.4,439c-2,20.2,18.4,22.3,29.3,31.1,55.8,45.1,107.6,99,164.1,145.8.1-5.3.2-10.6.2-15.9s0-.3,0-.5c-53.4-43.7-109.2-89.4-159.8-135.6-9.7-8.9-16.2-28.6-33.8-25Z"/>
  <path d="M992.1,852.6c-53.7-59.1-108.6-120.8-162.7-181.8-5-5.6-11.5-18.5-15.6-21.9-4.4-3.6-9.8-4.6-15.3-4.3-.9,7.1,2.2,12.7,6.5,18,11.2,14,37.7,33.1,50.8,47.2,52.7,56.9,111.3,141.4,169.7,189.5,3.7,3,5.3,7.9,11.4,6.5,10.9-12-38.4-46.3-44.7-53.2Z"/>
  <path d="M1003,495.7c-10.5-9.1-31.1-32-42.9-30.5-3,.1-2,5.9-1.3,7.8,1.2,3.1,42.1,40.4,48.6,46.1,46.6,41.2,98.9,78.9,145.8,120.3,10.8,9.5,30.3,36.3,40.5,42.8.5.3,1.1.7,1.6,1,.8-6,1.6-12.1,2.2-18.2-7.9-5.8-17.2-10.3-25.1-17-57.9-49.4-112.3-102.7-169.4-152.2Z"/>
  <path d="M1095.8,332.6c-5.8-1.6-6.1-1.3-9.9,3.5,17.2,21.1,31.7,44.3,48.9,65.3,15.5,18.8,32.3,37.5,49.2,56.1-1.7-7.1-3.6-14.1-5.5-21-15.1-18.3-30.4-36.3-46-54-9.5-10.8-24.9-46.7-36.7-49.9Z"/>
  <path d="M1067.8,768.7c-50.1-46.5-100.7-93.1-150.3-140.3-6.8-6.5-49.2-57.2-57.1-49-.3,20.8,22.7,26.3,34.8,37,47.7,42.2,96.3,89.3,143.8,133.7,3.1,2.9,3.4,10.1,7.4,13.8,8.7,8.1,53.6,48.4,60,51.1,4,1.7,8,2.7,8.7-2.3-7-19.6-32-29.7-47.4-44Z"/>
  <path d="M945.6,917c-61.9-48.3-125.5-94.2-186.3-143.5-10.6-8.6-16.7-27.5-36.1-24.3-1,5.1.5,7.6,3.1,11.6,6,9.3,51.6,35.3,64.3,45.1,49.3,38,98,85.6,148.4,121,4.2,3,38.2,30.1,38.8,16.6.4-10-25.5-21.1-32.3-26.4Z"/>
  <path d="M133.8,462c55.3,50.9,117.4,92.6,175.4,140.3,12.2,10,28.9,32.3,41.9,40.7,5.2,3.3,9.6,6,16.1,5.1-.8-20.6-25.6-27.1-38.9-37.8-46.2-37.1-90.4-76-136-113.7-16.5-13.7-34.3-25.4-50.6-39.3-6.5-5.6-9.3-15.7-19.6-19.6-13.5-5.1-15,4-6.2,12.7,4.6,4.5,12.6,7,17.8,11.8Z"/>
  <path d="M1035.2,801.3c-61-50.7-119-105.5-179.2-155.5-8.3-6.9-35.7-34.1-43-33.7-18.1,1,19,26.2,20.9,28,56.4,53.1,119.7,99,178.8,149.4,11.4,9.7,25.5,28.6,36.4,38,6.7,5.8,14.1,11.5,23.5,9.8-2.1-19.2-24.4-25.1-37.5-36Z"/>
  <path d="M58.6,533.7c66.2,54.3,143.9,96.2,212.3,146.9,11.8,8.8,19,26.2,37.6,22.8-.6-18.7-21.3-20.8-32.3-28.1-66-43.9-130.2-93.5-194.1-137.3-3.8-2.6-8.2-3.6-11.8-6.2-11.6-8.3-18-24.3-36.1-21.1.5,13.3,16.4,16.2,24.5,22.8Z"/>
  <path d="M802.4,1111.5c-7-6.2-19.1-9.3-26.7-14.8-31.5-22.9-62.1-48.3-93-71.9-30.3-23.1-60.7-44.9-91.3-67.1-11.3-8.2-29.2-29.4-40-35.1-5.8-3-10.9-4.5-17.5-3.6-3.3,2.5,33.7,32.7,37.7,35.8,64.5,50.9,136.1,96,199.2,147,8.4,6.8,15.8,18.3,25.9,23.1,16.8,7.9,17-3.6,5.9-13.4Z"/>
  <path d="M283.9,337.8c63,50.7,124.4,104,188.2,154.7,14,11.2,30.1,19.4,43.2,32l8.7-2.3c.8-3.9-9.6-13.8-12.9-16.4-46-36.4-92.8-74.3-138.5-111.3-19.5-15.8-39.9-30.8-59.2-46.9-10.8-9-22.2-26.6-35.2-30.2-19.1-5.3-1.3,14.9,5.7,20.5Z"/>
  <path d="M905.1,944.5c-61-42.1-122-86.5-181.5-128.7-9-6.4-46.6-45.3-55.8-37.2-1.1,6.3,4.2,9.4,8.2,13,46.1,40.8,113.6,80.1,164.6,116.2,12.3,8.7,24.1,15.3,35.5,23.4,12.8,9.1,36.3,33.2,48.5,39.6,5.8,3.1,10.9,4.5,17.5,3.7-3.3-18.4-24.9-21.6-37-29.9Z"/>
  <path d="M752.5,1129.6c-61.1-42.8-123.2-85.6-184.4-129.1-9.6-6.8-31.3-29.8-39.9-32-10.8-2.7-12.7,6.8-5.1,12.6,2.4,1.8,7.3,2.2,10.6,4.8,63.6,52.2,134.5,92.5,198.4,142.9,2.7,2.1,4.4,8.4,9,12.1,23.4,18.7,33,3.7,11.4-11.4Z"/>
  <path d="M138.2,532.5c49,32.8,94.7,69.7,143.3,102.5,6.8,4.6,72.9,48.9,75.9,45.7,10.3-11.3-46.2-37.2-53.9-42.4-62.9-43.3-128-85.2-190.9-129.2-11.9-8.3-18.5-21.9-36.1-24.3-1.3,6.3,1.4,8.8,4.7,13.2,8.2,10.9,43.4,25.4,57,34.5Z"/>
  <path d="M491,440.9c12.4,11.1,29.7,34.7,41.1,43.8,5.3,4.2,10.9,7.3,18,6.5-1-18.9-20.5-23.5-31-32.6-52.7-45.6-101.3-94.3-153.5-140.4-16-14.2-32.4-30.5-48.5-44.5-10.3-8.9-25.4-13.4-15.4,3.9,60.7,56.9,127.7,107.9,189.3,163.3Z"/>
  <path d="M452.1,1044.6l3.4,6.5c42.1,30.4,87.2,56.4,130.4,85.1,29.6,19.7,59.7,39,88.7,59.3,4.4-.5,8.8-1.1,13.2-1.8-71-44.4-140.1-92.1-207.7-139.6-2.6-1.8-30.8-25.2-28-9.5Z"/>
  <path d="M138.3,760.9c10.1,9.2,35.6,42.8,45.8,45.7,14.9,4.2,7.7-10.1.4-16.8-5.5-5-12.8-6.7-18.1-11.2-48.5-41.1-92.5-87.1-138.8-129-8.5-7.7-17.2-16-26-24.1.3,6.7.7,13.4,1.2,20,3.4,3.1,6.3,5.7,8.3,7.5,40.4,36.8,86,70.1,127.2,107.9Z"/>
  <path d="M138.6,863.4l-4.3-12c-38.7-25.5-74.3-55-109.7-84.7,1.6,5.6,3.3,11.1,5,16.6,25.9,19.2,51.4,38.2,74.7,57.2,10.5,8.6,18.1,24.2,34.3,22.8Z"/>
  <path d="M701.9,1150.8c-55.5-35.5-106.1-78.3-163.8-108.9-6.6-5.5-26.5-24.6-33.5-26.9-6.5-2.1-8.9-2.4-13.2,3.5,2,2.3,4.2,4.5,6.7,6.3,56.4,42.5,117.2,76.2,175.4,115.3,9.7,6.5,41.6,35,48.8,36.2,5.9.9,7.2.4,10.7-4.3-7.7-12.9-20.6-14.5-31.1-21.1Z"/>
  <path d="M439.1,1059.3c-1.4,6.1,3.5,7.7,6.5,11.4,35.3,42.8,98.2,88.9,146.4,129.2,3,0,6,0,9,0s1.9,0,2.8,0c-39.7-34.3-79.6-68.7-118.7-103.5-6.9-6.1-37-45.5-46.1-37.2Z"/>
  <path d="M170.2,448.3c55.8,40,116.7,72.9,173.4,110.7,20.5,13.7,41.4,39.9,66.1,40-2.8-5.3-8.4-10.9-13.3-14.5-67.6-49.4-150.6-97.8-221.7-144-10.7-7-19.2-22.7-36.1-21-4.6,4.3,27.3,25.8,31.6,28.8Z"/>
  <path d="M260.6,713.7c-9.1-7-28.8-13.8-39.3-21.1-30.5-21.3-62.5-45.3-93.9-66.1-21.2-14.1-42.7-28-63.8-42.3-10.5-7.1-16.1-21.1-32.8-17.7-.9,6.4,5.5,11.2,10,14.5,13.2,9.6,35.7,18.6,49.6,27.9,52.6,35.3,104.5,82.3,161.3,113.9,15.1,8.4,21.1.5,8.9-8.9Z"/>
  <path d="M133.7,798.1c6.5,4.7,13.2,16,21,18.2,11,3.1,11.3-5.4,4.4-11.9-53.4-28.4-100.2-67.1-149.3-101.8,1,5.8,2.1,11.7,3.3,17.5,1.2.8,2.4,1.6,3.6,2.4,38.3,25.8,80.6,49.1,117,75.6Z"/>
  <path d="M421.1,1111.6l98.9,83c4.5.6,8.9,1.2,13.4,1.7-25-22.6-50-45.2-75.9-67.1-9.1-7.7-43.5-44-36.4-17.5Z"/>
  <path d="M402.2,1166.3c-2.1-1-4.2-1.8-6.4-2.3,2.1.8,4.2,1.5,6.4,2.3Z"/>
  <path d="M5,597.1c11.6,10.8,36.8,23.6,50.4,34.5,54.2,43.1,107.9,99.9,168,135.7,4.3,2.6,6.7,6.4,13.2,4.7-7.7-19.1-30.5-25.4-45.5-37.6-55.5-45.3-112.1-92.4-167.9-137.4-6.4-5.2-13-11.5-21.9-11.1,0,2.2,0,4.4-.1,6.6,1.4,2.1,3.2,4,3.9,4.6Z"/>
  <path d="M99.4,873.2c1.5-8-.8-8.2-5.3-12.6-8.1-7.8-27.4-18.9-46.9-29.7,1.7,4.1,3.5,8.3,5.3,12.4,14.5,11.2,43.2,33.9,47,29.9Z"/>
</svg>