<?xml version="1.0" encoding="UTF-8"?>
<svg id="Layer_1" xmlns="http://www.w3.org/2000/svg" version="1.1" viewBox="0 0 1200 1200">
  <!-- Generator: Adobe Illustrator 29.0.0, SVG Export Plug-In . SVG Version: 2.1.0 Build 186)  -->
  <defs>
    <style>
      .st0 {
        fill: none;
      }
    </style>
  </defs>
  <path d="M553-2.4c0,1.2,0,2.4,0,3.5,2-.2,4.1-.3,6.1-.4l-6.2-3.1Z"/>
  <path d="M664,1202.2c.6-2.8,0-4.6-1.2-6.2-3,.3-5.9.6-8.9.9,2.8,3,4.7,6.5,10.1,5.3Z"/>
  <path class="st0" d="M703.2,1182.6c-6.6,1.4-8.7-1.4-13.2-4.7-31-22.8-63.2-63.7-91.6-91.2-25.8-25-55.3-48.7-79.8-73.7-2.7-2.8-18.3-16.4-14.6-19.7,6.6-1.4,8.7,1.4,13.2,4.7,24.2,17.8,56.2,57.5,79.8,80.2,22.9,22,45.8,46.4,68,67.6,7.4,7,22.8,16,31.8,25.3,3.4,3.5,7.6,5.7,6.4,11.5ZM713,1150c-15.6,0-19-15.2-26.6-24-47.4-55.3-103.1-106.2-150.8-162.7-2.3-2.7-10-7.9-5.5-12.4,8.2-8.2,31.1,29.1,35.9,34.2,22.6,24.1,44.5,48.8,66.9,73.5,21.4,23.6,57.7,54.1,75.3,78.2,3.3,4.5,6.2,6.6,4.7,13.2ZM737.3,1130.6c-9.4-16.4-25.2-27.1-37.4-41-38.9-44.5-73.2-94.8-112-137.8-1.4-1.5-37.2-27-20.2-30.3,5.5.2,9.6,6,13,9.7,47,50.3,90.3,109.4,133.3,162.3,10.6,13,31.6,21.4,34.9,40.1l-11.6-3ZM732.8,1043.7c-40.1-36.9-84.8-70.5-124.4-107.5-6.4-6-48.6-45.6-48.8-49.1-.3-4.6,4.9-3.5,8.6-2.2,11.1,3.8,22.6,18.9,32.6,27.9,53.7,47.9,105,100.2,159.6,149,9.9,8.8,27.2,12.6,27.7,29.4-9,8.5-48-40.7-55.3-47.5ZM811,1071.6c-18.5-1.2-32.9-26.4-45.8-40.9-43.1-48.5-91.8-96.1-135.5-145.2-11.7-13.1-19.8-29.8-34.2-40.9-3.5-8.6,10.9-4.3,14.9-1.8,4.5,2.8,22.4,31.2,29.5,39,18.7,20.5,39.5,40.4,58.2,61,19.9,21.8,38.9,45,59,66.7,5.9,6.4,60.5,55.8,53.9,62ZM823.8,1037.6c-4.3-3.4-22.7-28.6-29.2-36.2-38.4-45.1-77.9-92.3-120.9-133.6l-48.8-63.8c10.9-9.3,38.2,35.6,45.7,44,47.3,53.2,94.3,107.5,142.4,161.3,9.3,10.4,25,15.3,27.4,32.9-7.3.9-10.9-.1-16.6-4.6ZM875.2,999.3c-2.2-.8-31.8-25-36.3-29-44.3-38.7-85.2-82.6-129-122.4-5.5-5-56.6-40.4-49.1-47.2,17.6-3.2,23.2,14.9,33,24.1,27.8,26.1,58.7,49.7,86.7,75,26.6,24,51.9,51.3,77.8,73.9,8.7,7.6,24.8,9.4,24.6,26.1-2.5,0-5.2.4-7.7-.5ZM858.1,951.1c-48.2-70.2-105.6-137.1-153.2-209.3v-9.8c19.4,7.9,24,32.7,35.2,48,40.8,55.7,83.1,113.8,125,170.5,7.4,10,18.5,15.5,21,29.6-19,1.3-21.2-19.1-28-29.1ZM954.8,852c-33.4-53.6-83.9-109.4-120.5-161.2-13.6-19.3-23.6-40.9-39-58.9l-.6-10.8c22.9,3.4,27.4,33.3,39.7,50.1,9.9,13.5,20,25.9,30,40.2,37.1,53.2,75.1,108.2,116.7,159.2l3,14.9c-21.7,2.1-21.2-20.5-29.3-33.5ZM909,490.5c20.6-1.1,25.7,19,36,30.9,47.7,55.2,99.9,105.6,148.6,158.4,17.8,19.3,28.9,41.6,53.9,55.5-11.5-30.4-47.4-76.3-65.4-106-29.9-49.4-58.9-105.5-91.3-153.6-8.2-12.1-26.3-20.8-22.9-40.7,19.8-.3,23.4,27.2,32,41.4,50.2,83.2,105.5,162.8,156.9,244.8,3,4.8,5.8,10.1,7.1,15.7-6.9,9.7-10,2-16.3-1.6,2.8,7.5,7.8,14.2,6.5,22.8-6,.7-10.3-3.1-14.4-6.8-15.4-14.3-36.2-37.5-50.9-53.6-41-44.6-79.4-92.4-119-138.9-12.7-14.8-43.4-35.9-54.1-50.4-4.1-5.6-7.6-10.5-6.5-17.9ZM899.2,506.8c5.5,2.2,10.8,5.1,14.6,9.9,7.9,10,21.2,36.7,29.8,50.1,39,59.9,74.9,121.5,114.2,181.4,7.7,11.8,24.1,20.4,21,39.4-6.5.9-11.1-5.5-14.5-10-16.1-21.4-24.2-55.3-45.7-71.8-22.1-44.5-55.6-83.8-81.4-124.7-9.3-14.7-29.3-44.7-35.6-58.7-2.2-5-3-10-2.4-15.5ZM837.1,568.9c10.1-9.8,42.8,37.3,49.3,43.8,29,28.5,57,57.9,86.1,87,27.2,27.2,64.3,55.2,90.1,82.9,2.5,2.7,12.7,15.2,9.6,18.1-20.4,1.5-24.6-18.3-34.6-29.1-57.2-62.1-124.6-114.5-182.5-180-6.1-6.9-19.1-10-18.1-22.7ZM801.4,596.3l38,35.5c2.9,2.9,2.4,8.6,5,11.3,3.6,3.6,17.1,7.8,23.7,13.9,24.8,23,49.1,56.2,73.4,80.1,29.1,28.6,71.7,58.8,98.3,87.9,5.6,6.2,10.7,12.2,9.6,21.3-7.1,7.6-57.4-52.9-63.5-58.9-57.9-56.4-119.6-107.7-174.8-168.1-5.4-5.9-33.5-21.6-9.7-23ZM753.8,663.5c3.8-.3,6.9-.5,10.6,1.1,2.4,1,24.6,36,30.3,42.9,51.8,62.5,104.4,124.7,156.8,186.1,8.8,10.3,16.2,33.4-5.2,18.2-5.7-4.1-29.5-44.4-37.3-54.1-16.6-20.4-35.1-41.2-52.3-62-34.6-42.1-71.6-80.4-104-124.5l1.2-7.7ZM726.1,709.3c17.9.6,21,17.9,29.4,27.7,28.2,33.3,59.1,64.9,87.1,97.4,21.2,24.7,39.4,51.4,60,75.7,9,10.6,31.8,26.1,37.5,37.5,1.9,3.7,4.6,16.1-3.2,13-8.6-5.8-13-16-19.7-22.8-59.4-60.4-107.2-130.4-163.5-192.4-9.4-10.4-29.3-17.2-27.5-36.1ZM507.3,30.2c7.6,3.1,14.4,8.3,19.6,14.7,58.3,73.2,113.4,150.8,174.2,222.5,6.7,8,23.7,14.9,21.7,30.5-3.6.4-6.5.1-9.8-1.6-3.6-1.9-39.9-45.2-45.6-52.3-45.7-56.6-87.5-117.9-134-173-10.3-12.2-32.8-23.7-26.1-40.8ZM451.7,71c8.6,4,31,34.8,40.2,43.1,60.4,45.3,111,103.3,167.3,154.4,11.2,10.2,34.3,17.3,34.2,36-7.1.9-12.7-2.2-18-6.5-13.3-10.7-32-37.3-45.5-49.2-43.8-38.7-90.3-76.1-132.6-115.5-20.2-18.8-38.4-40-58.6-58.9,4.2-5.5,6.5-6.3,13-3.3ZM446.6,112c7.1,6.1,12.2,20.6,18.1,27.6,38.3,44.8,79.8,87.5,118.7,131.1,12.2,13.7,19,23.8,29.3,36,8.6,10.2,28.8,23,36.7,33.5,10.3,13.6,8.4,27.1-6.7,13.2-14.5-13.3-35.5-36.9-49.1-52.1-38.7-43.4-75.2-93.2-114.5-136.9-9.4-10.5-46.2-39.4-48.9-49.1-3.7-13.2,9.4-9.4,16.4-3.3ZM376.6,137.9c6.8-.8,13.7,3.3,18.4,7.7,9.1,8.5,20.2,26,30.9,36.1,29.8,28.4,59.5,58.3,89.4,87,28.8,27.7,71.2,58,96.6,86.3,3,3.4,12.4,11.8,6.4,16.4-9.8,5.6-25.7-19.2-30.9-24.6-44.1-45-92.7-88.3-138.8-132.2-17.7-16.8-56.7-46.3-68.9-65-2.6-4-4-6.5-3.1-11.6ZM366.8,160.8c17.5,4.2,18.7,20.2,26.6,30.6,2.4,3.1,6.3,4.1,8.1,6.4,27.3,34.6,52.5,73.2,79.6,108.2,18.9,24.5,66.4,71.3,78.5,94.6,2.7,5.2,4.2,8.6,3.1,14.8-5.6,7.5-48.6-61.4-52.2-66-42.2-54.1-102.6-115-138.7-172.5-3.2-5.1-6-9.8-5-16.2ZM327.6,203.2c18.9,1,23.5,20.4,32.6,31,39.6,46.2,79,92.6,118.6,137.8,20.4,23.3,43.1,45,64.3,67.9,6.1,6.6,11.1,15.1,9.8,24.5-.3.5-7.9-3.7-9.6-5.1-9.7-7.8-34.7-36.2-44.3-47.1-48.1-54.7-92.6-118.3-142-171.5-9.9-10.7-31.1-17.8-29.5-37.5ZM294.9,239.1c22.4-1.1,31.2,31.6,43.4,44.7,44.6,47.9,87.3,97.9,131.3,147.9,11.1,12.7,28.7,20.3,31.1,39.1-20.8,3.5-21.7-16.7-29.8-27.3-39.7-52.1-99.1-106.1-143.2-157.2-4.2-4.9-35.6-44.5-32.7-47.2ZM257.3,291.4c20.3,18.8,35.4,29.7,56,46.8,48.8,40.5,96.2,85.9,146.5,126.2,12,9.6,33.1,13.4,34.3,32.6-6.4,1-11-1.7-16.1-5-13-8.4-29.7-30.7-41.9-40.7-53.4-43.8-111-83.7-164.1-128.9-13.3-11.4-24.9-25.4-39.1-36,.9-13.1,21,1.8,24.4,5ZM206.7,307.7c8.6-8.3,44,36.5,50.6,42.4,20.4,18.1,41.5,35.9,61.5,54.4,36.5,33.6,72.3,67.5,109.9,100.7,10.7,9.5,27.9,12.9,26.2,31-8.1,8-30.1-25.5-34.2-29.5-47.7-46.3-108.4-92.1-158.7-138.5-14.5-13.4-35.7-32.3-48.5-46.2-3.7-4-7.5-8.4-6.8-14.4ZM182.2,340.4c9.1-.2,37.4,37.6,45.1,44.6,59.5,54.4,121.2,109.3,182,162.5,3.1,2.7,16.6,17.8,12.9,21.3-7.1.8-12.7-2.2-18-6.5-12.7-10.1-30.8-35.2-43.9-47.5-52.8-49.7-111.6-95.3-161.7-148.6-1.5-1.6-33.5-25.5-16.5-25.9ZM139.8,382.7c14.3-1,21.5,15.5,28.8,21.8,60,51.4,130.5,105.7,193.2,154.5,11.6,9,34.8,14.3,34.3,32.6-17.3.9-25.9-16.5-37.5-26.1-59.8-49.4-125.2-93.9-186.1-143.7-4.6-3.8-33.2-29.2-34-31.3-.8-1.9-1.7-7.7,1.3-7.8ZM167.7,452.8c55.6,49.9,122.3,105.1,174.7,158.4,4.8,4.8,8.9,10,11.3,16.4-11.5,8.6-46.9-38.8-55.8-47-53.8-49.4-110.3-93.6-159.8-147.2-6.3-6.8-17.3-9.4-19.6-21.2,11.4-8.5,40.9,33.1,49.2,40.6ZM118.6,461.1c3.6-.5,6.5,0,9.8,1.6,4.2,2.2,46.1,49.7,54.3,58.3,31.7,33.3,62.9,69,93.7,102.3,9.8,10.5,31.2,20.5,35.5,34.7,1,3.3,3.1,9-2.2,8.7-2.2-.1-29.2-26.4-33.2-30.5-38.3-39.1-73.2-84.3-110.3-123.2-5.8-6.1-55.4-44.2-47.6-52ZM59.8,490.5c9.5-8.4,38.8,28.2,46,34,53.3,42.8,106.5,87.2,160,130.6,7.3,6,37.9,19.7,18.2,27.6-12.9-2.9-18.7-18.3-26-24.7-60.9-54-132.3-98.6-191.8-156-3.5-3.4-7.6-5.7-6.5-11.5ZM53.2,506.8c7.3-8.2,34.8,39,36.9,41.4,24.7,28.2,48.7,56.6,72.9,85.5,19.8,23.6,53.3,53.5,69.8,77.1,3.9,5.6,7.6,10.5,6.5,18-5.4-2.2-10.7-5.4-14.8-9.7-9.9-10.3-19.8-30.5-29-41.3-44.3-52-97-102-137.6-157.8-3.3-4.5-6.2-6.5-4.7-13.2ZM190.2,733.8c-37.8-41.2-76.4-85.3-115.3-124.6-6.1-6.1-61.4-50-54.3-56.7,6.6-1.4,8.7,1.5,13.2,4.7,20.6,15.1,57.5,64,78.3,85,36.6,37,76.5,71.8,112.8,109.2l4.7,13.2-39.4-30.9Z"/>
  <path d="M934.6,101.2c-4-2.7-8-5.3-12-7.9,3.1,3.6,7,6.4,12,7.9Z"/>
  <path d="M1163.7,736.9c-1.3-5.6-4.1-10.9-7.1-15.7-51.4-81.9-106.7-161.6-156.9-244.8-8.6-14.2-12.2-41.7-32-41.4-3.5,19.9,14.7,28.6,22.9,40.7,32.4,48.1,61.4,104.2,91.3,153.6,18,29.7,53.9,75.6,65.4,106,6.4,3.6,9.4,11.3,16.3,1.6Z"/>
  <path d="M969.6,558.9c39.7,46.5,78,94.3,119,138.9,14.7,16,35.5,39.3,50.9,53.6,4,3.7,8.4,7.5,14.4,6.8,1.3-8.7-3.7-15.3-6.5-22.8-25-14-36.1-36.3-53.9-55.5-48.7-52.8-100.8-103.2-148.6-158.4-10.3-11.9-15.4-32-36-30.9-1.1,7.4,2.4,12.4,6.5,17.9,10.6,14.5,41.4,35.6,54.1,50.4Z"/>
  <path d="M681.8,95.7c20.5,24.8,43.3,51.7,65.4,75,19.1,20,39.7,38.7,58.9,58.7,11.9-2.4,8-8.4,3-16.1-8.9-13.7-32.9-27-43-36.9-3.8-3.8-8.8-18.3-15.4-25.4-23.1-24.9-53.6-48.8-77-73.3-21.5-22.4-45.3-53.1-68.3-78.3-1.8,0-3.6,0-5.4,0-4.1,0-8.2,0-12.3.1,32.4,31.3,60,66.3,94.1,96.3Z"/>
  <path d="M1141.9,354c5.8,9.9,11.8,19.7,18.1,29.5-13.9-36.1-31.3-70.6-51.6-103l-2,7.8c13.5,20.9,23,44.2,35.5,65.7Z"/>
  <path d="M811.1,619.3c55.1,60.4,116.9,111.7,174.8,168.1,6.1,6,56.4,66.5,63.5,58.9,1.1-9.1-4-15.2-9.6-21.3-26.5-29-69.2-59.3-98.3-87.9-24.3-23.9-48.5-57.1-73.4-80.1-6.5-6.1-20.1-10.3-23.7-13.9-2.6-2.7-2.1-8.4-5-11.3l-38-35.5c-23.8,1.4,4.3,17.1,9.7,23Z"/>
  <path d="M1123.9,492.8l-62.8-120.1-11.6-3c-4.2,18.1,11.7,25.9,19.1,38,4.6,7.5,12.2,19.1,15.6,25.2,38.5,67.8,68,138.2,111.7,203.4.9,1.3,1.7,3.4,2.6,5.8.5-6.9.9-13.9,1.1-20.9-5.5-7.3-11.2-14.3-14.3-20.1-19.8-35.8-33.3-76.8-61.4-108.4Z"/>
  <path d="M479.1,164.4c39.3,43.7,75.8,93.5,114.5,136.9,13.5,15.2,34.6,38.8,49.1,52.1,15.1,13.9,17,.3,6.7-13.2-7.9-10.4-28.1-23.3-36.7-33.5-10.3-12.3-17-22.3-29.3-36-38.9-43.6-80.4-86.3-118.7-131.1-6-7-11.1-21.4-18.1-27.6-7-6.1-20.1-9.9-16.4,3.3,2.7,9.7,39.5,38.6,48.9,49.1Z"/>
  <path d="M856.5,159.4c4.4,3.7,7,5.8,13.3,4.7,2.4-2.3-7.4-18-9.8-21.2-7.3-9.6-25.9-23.8-31.7-32-21.6-30.6-44.5-60.2-67.6-89.8-4.6-1.3-9.3-2.5-13.9-3.7,22.8,31.6,45.3,63.5,69.4,94.2,8.9,11.3,30.8,39.9,40.3,47.8Z"/>
  <path d="M900.8,131.4c3.4,3.5,5.7,7.6,11.5,6.5,8.9-9.9-33.6-49.8-40.6-58.9-6.1-8-12.2-15.9-18.4-23.8-7.2-3.4-14.6-6.6-22-9.7,7.4,9.7,14.8,19.4,22.2,28.8,13.4,17,32.8,42.1,47.3,57.2Z"/>
  <path d="M1069,307.7c-2.4,13.1,8.6,20.2,13.6,30.4,33.3,68.4,75.8,131.5,113.9,196.7-.6-5.7-1.3-11.4-2.1-17-29.4-50.7-58-101.8-87.7-151.6-2.3-3.9-28.8-69.1-37.8-58.5Z"/>
  <path d="M864.4,711.4c-10-14.3-20.1-26.7-30-40.2-12.3-16.8-16.7-46.7-39.7-50.1l.6,10.8c15.4,18,25.4,39.6,39,58.9,36.6,51.8,87.1,107.6,120.5,161.2,8.1,13,7.6,35.6,29.3,33.5l-3-14.9c-41.6-51-79.6-105.9-116.7-159.2Z"/>
  <path d="M806.2,190c7.1,7.8,16.9,7.9,13.9-4-2.4-9.4-16.8-19.3-22.3-26.9-36.1-49-73.9-101.3-110.3-153.5-4.1-.6-8.3-1.2-12.5-1.7,24.2,33.3,46.6,67.8,71.1,102.4,17.6,24.9,39.9,61.7,60,83.6Z"/>
  <path d="M533.4,71c46.4,55.1,88.3,116.3,134,173,5.8,7.2,42.1,50.4,45.6,52.3,3.3,1.7,6.2,2,9.8,1.6,2-15.5-15-22.5-21.7-30.5-60.9-71.7-115.9-149.4-174.2-222.5-5.1-6.4-12-11.6-19.6-14.7-6.6,17.1,15.8,28.5,26.1,40.8Z"/>
  <path d="M1033.7,449.1c-8.3-12.3-11.7-33.5-30-36.9-1.1,7.1.2,11.8,3,18.2,4.6,10.5,30.4,36.9,38.9,49.2,33.7,48.8,63.8,99.9,97.1,147.8,8.6,12.4,29.6,43.6,38.8,52.6,4,3.9,6.9,6.7,12.2,6.6.3-1.9.5-3.8.8-5.7-7.4-18.3-22.9-32.1-34-48.5-41.5-61.4-85.2-121.4-126.8-183.4Z"/>
  <path d="M497.3,133.2c42.3,39.4,88.8,76.9,132.6,115.5,13.5,11.9,32.1,38.5,45.5,49.2,5.3,4.3,10.9,7.3,18,6.5,0-18.7-23-25.8-34.2-36-56.3-51.1-106.9-109.1-167.3-154.4-9.2-8.3-31.6-39.1-40.2-43.1-6.5-3-8.8-2.2-13,3.3,20.1,18.9,38.4,40.1,58.6,58.9Z"/>
  <path d="M643.4,125.8c30.1,42.9,54.9,92.8,89.6,134.1,7.5,8.9,17.6,13,12.6-2.8-5.1-15.9-22.7-28.4-32.6-42.5-12.5-17.8-24.8-42-37.8-60.2-35.1-49.1-77.1-94.8-105.9-148.7l-10.1-5.1c-2,.1-4.1.3-6.1.4.9,9.1,7.9,17,13.1,24.3,23.2,32.6,53.9,67.1,77.3,100.5Z"/>
  <path d="M448.5,214.5c46.1,43.9,94.7,87.3,138.8,132.2,5.3,5.4,21.1,30.2,30.9,24.6,6-4.6-3.4-13.1-6.4-16.4-25.5-28.2-67.8-58.6-96.6-86.3-29.9-28.7-59.5-58.6-89.4-87-10.7-10.1-21.8-27.6-30.9-36.1-4.7-4.4-11.6-8.4-18.4-7.7-.9,5.1.5,7.6,3.1,11.6,12.2,18.7,51.2,48.2,68.9,65Z"/>
  <path d="M357.1,240.7c49.4,53.2,93.9,116.8,142,171.5,9.6,10.9,34.6,39.3,44.3,47.1,1.7,1.4,9.3,5.5,9.6,5.1,1.3-9.3-3.7-17.9-9.8-24.5-21.2-22.9-43.9-44.7-64.3-67.9-39.6-45.1-79-91.6-118.6-137.8-9.1-10.6-13.7-30-32.6-31-1.6,19.7,19.5,26.7,29.5,37.5Z"/>
  <path d="M909,857.8c7.8,9.6,31.6,50,37.3,54.1,21.3,15.2,14-7.9,5.2-18.2-52.4-61.4-105-123.6-156.8-186.1-5.7-6.9-27.9-41.9-30.3-42.9-3.6-1.5-6.8-1.3-10.6-1.1l-1.2,7.7c32.4,44.1,69.4,82.5,104,124.5,17.2,20.8,35.6,41.6,52.3,62Z"/>
  <path d="M172.5,421.9c60.9,49.8,126.3,94.3,186.1,143.7,11.6,9.6,20.2,27,37.5,26.1.6-18.3-22.7-23.6-34.3-32.6-62.8-48.8-133.2-103.2-193.2-154.5-7.4-6.3-14.5-22.8-28.8-21.8-3,.1-2.1,5.9-1.3,7.8.9,2.1,29.4,27.5,34,31.3Z"/>
  <path d="M855.2,591.6c57.8,65.5,125.3,117.9,182.5,180,9.9,10.8,14.2,30.6,34.6,29.1,3.1-2.9-7.1-15.4-9.6-18.1-25.8-27.8-62.9-55.7-90.1-82.9-29.1-29.1-57.1-58.5-86.1-87-6.5-6.4-39.2-53.6-49.3-43.8-1,12.7,12,15.8,18.1,22.7Z"/>
  <path d="M436.1,451.3c12.2,10,28.9,32.3,41.9,40.7,5.1,3.3,9.7,6,16.1,5-1.2-19.2-22.3-23-34.3-32.6-50.3-40.3-97.7-85.7-146.5-126.2-20.6-17.1-35.7-28-56-46.8-3.4-3.2-23.5-18-24.4-5,14.2,10.6,25.8,24.7,39.1,36,53.1,45.2,110.7,85.1,164.1,128.9Z"/>
  <path d="M937.2,581.1c25.8,40.9,59.3,80.3,81.4,124.7,21.4,16.5,29.6,50.4,45.7,71.8,3.4,4.5,7.9,10.8,14.5,10,3.1-19-13.3-27.6-21-39.4-39.2-59.9-75.2-121.5-114.2-181.4-8.7-13.4-22-40.1-29.8-50.1-3.8-4.8-9.1-7.7-14.6-9.9-.6,5.4.2,10.5,2.4,15.5,6.3,14.1,26.3,44.1,35.6,58.7Z"/>
  <path d="M262.1,368.2c50.2,46.4,111,92.2,158.7,138.5,4.1,4,26.1,37.5,34.2,29.5,1.7-18.1-15.4-21.5-26.2-31-37.5-33.2-73.4-67.2-109.9-100.7-20-18.4-41.1-36.2-61.5-54.4-6.6-5.9-42-50.7-50.6-42.4-.7,6,3.1,10.3,6.8,14.4,12.8,13.8,34.1,32.8,48.5,46.2Z"/>
  <path d="M753.6,745.4c56.3,62,104.1,132.1,163.5,192.4,6.7,6.8,11.1,17,19.7,22.8,7.7,3.2,5-9.2,3.2-13-5.7-11.4-28.5-26.8-37.5-37.5-20.5-24.3-38.7-51-60-75.7-28-32.5-58.9-64.1-87.1-97.4-8.3-9.8-11.5-27.2-29.4-27.7-1.7,18.9,18.1,25.7,27.5,36.1Z"/>
  <path d="M470.9,443.6c8.1,10.6,9,30.8,29.8,27.3-2.4-18.8-19.9-26.5-31.1-39.1-44-50-86.7-100-131.3-147.9-12.2-13.1-21-45.8-43.4-44.7-2.9,2.7,28.5,42.3,32.7,47.2,44.1,51.2,103.5,105.2,143.2,157.2Z"/>
  <path d="M198.7,366.3c50,53.2,108.9,98.8,161.7,148.6,13.1,12.3,31.2,37.4,43.9,47.5,5.3,4.2,10.9,7.3,18,6.5,3.6-3.5-9.8-18.6-12.9-21.3-60.8-53.2-122.6-108.1-182-162.5-7.7-7.1-36-44.8-45.1-44.6-17.1.4,14.9,24.3,16.5,25.9Z"/>
  <path d="M812.9,1009.3c-48.1-53.8-95.1-108.1-142.4-161.3-7.5-8.4-34.8-53.4-45.7-44l48.8,63.8c43,41.3,82.6,88.6,120.9,133.6,6.5,7.7,24.9,32.9,29.2,36.2,5.7,4.5,9.3,5.5,16.6,4.6-2.5-17.6-18.1-22.6-27.4-32.9Z"/>
  <path d="M138.1,433.4c49.4,53.6,105.9,97.8,159.8,147.2,8.9,8.2,44.4,55.6,55.8,47-2.4-6.4-6.5-11.6-11.3-16.4-52.4-53.3-119.1-108.4-174.7-158.4-8.3-7.5-37.8-49.1-49.2-40.6,2.3,11.8,13.3,14.4,19.6,21.2Z"/>
  <path d="M757,1009.6c-20.1-21.7-39.1-44.9-59-66.7-18.7-20.6-39.5-40.4-58.2-61-7.1-7.8-25.1-36.2-29.5-39-4-2.5-18.4-6.8-14.9,1.8,14.4,11.1,22.5,27.8,34.2,40.9,43.8,49,92.4,96.7,135.5,145.2,12.9,14.5,27.3,39.6,45.8,40.9,6.6-6.2-48-55.5-53.9-62Z"/>
  <path d="M66.2,502c59.5,57.4,130.8,102,191.8,156,7.3,6.4,13.1,21.9,26,24.7,19.7-7.8-10.9-21.6-18.2-27.6-53.5-43.5-106.7-87.9-160-130.6-7.2-5.8-36.4-42.4-46-34-1.2,5.7,2.9,8.1,6.5,11.5Z"/>
  <path d="M858.2,973.7c-25.8-22.6-51.2-49.8-77.8-73.9-28-25.3-58.8-48.9-86.7-75-9.8-9.2-15.4-27.4-33-24.1-7.6,6.8,43.5,42.2,49.1,47.2,43.8,39.8,84.7,83.7,129,122.4,4.5,3.9,34.1,28.2,36.3,29,2.5.9,5.1.5,7.7.5.2-16.7-15.9-18.5-24.6-26.1Z"/>
  <path d="M760.4,1061.8c-54.6-48.8-105.9-101.1-159.6-149-10.1-9-21.6-24.1-32.6-27.9-3.7-1.3-8.9-2.3-8.6,2.2.2,3.5,42.4,43.1,48.8,49.1,39.6,37,84.2,70.5,124.4,107.5,7.4,6.8,46.3,56,55.3,47.5-.5-16.8-17.8-20.6-27.7-29.4Z"/>
  <path d="M510.5,349.4c3.6,4.6,46.6,73.6,52.2,66,1-6.2-.4-9.5-3.1-14.8-12-23.3-59.6-70.1-78.5-94.6-27-35.1-52.3-73.6-79.6-108.2-1.8-2.3-5.8-3.3-8.1-6.4-7.9-10.4-9.1-26.5-26.6-30.6-1,6.4,1.8,11,5,16.2,36.1,57.5,96.5,118.4,138.7,172.5Z"/>
  <path d="M175.2,763.6c3.3,2.9,18.1,14.7,21.7,10.9,1.4-17.2-18.1-21.3-27.8-29.4-49.7-41.6-98.5-81.9-148.2-122.8-7.6-6.2-13.7-15.6-20.9-23,0,5.4,0,10.8.2,16.1,11.6,10.4,23.1,20.2,25.2,21.9,49.9,42,100.1,83.6,149.8,126.2Z"/>
  <path d="M865.1,950.6c-41.9-56.6-84.2-114.8-125-170.5-11.2-15.3-15.8-40.1-35.3-48v9.8c47.6,72.1,105,139.1,153.2,209.3,6.8,9.9,9,30.4,28,29.1-2.4-14.2-13.5-19.6-21-29.6Z"/>
  <path d="M128.3,846.3c-.1-15.8-16.4-20.4-24.6-29.2-31.9-34.5-62.7-71.5-93.6-107.4,1.3,7,2.7,14,4.3,21,22.2,23.2,44.9,46.2,66.6,69.9,6.9,7.6,37.5,54.8,47.3,45.7Z"/>
  <path d="M166.1,513.1c37.1,38.9,72.1,84,110.3,123.2,3.9,4,30.9,30.3,33.2,30.5,5.3.3,3.2-5.4,2.2-8.7-4.3-14.2-25.7-24.1-35.5-34.7-30.9-33.2-62-69-93.7-102.3-8.2-8.6-50.1-56.2-54.3-58.3-3.3-1.7-6.1-2.1-9.8-1.6-7.9,7.8,41.7,45.9,47.6,52Z"/>
  <path d="M224.8,751.5c-36.3-37.4-76.2-72.2-112.8-109.2-20.7-21-57.7-69.9-78.3-85-4.5-3.3-6.6-6.2-13.2-4.7-7.1,6.7,48.2,50.5,54.3,56.7,38.9,39.3,77.6,83.4,115.3,124.6l39.4,30.9-4.7-13.2Z"/>
  <path d="M714,1093.5c-43-52.9-86.3-112-133.3-162.3-3.5-3.7-7.6-9.6-13-9.7-17,3.3,18.8,28.8,20.2,30.3,38.9,43,73.2,93.3,112,137.8,12.1,13.9,27.9,24.6,37.4,41l11.6,3c-3.3-18.8-24.3-27.1-34.9-40.1Z"/>
  <path d="M94.1,888.8c6.5,1.5,5.8-3.6,4.8-8.1-2.4-10.1-24.3-26.2-31.5-35.4-10.5-13.5-21-27.2-31.5-41.1,3.6,9.9,7.4,19.6,11.5,29.3,3,3.8,6,7.5,9,11.2,12.1,15,26.4,28.3,37.6,44Z"/>
  <path d="M195.5,677.9c9.2,10.8,19.1,31,29,41.3,4.1,4.3,9.4,7.4,14.8,9.7,1.1-7.4-2.6-12.3-6.5-18-16.6-23.6-50-53.5-69.8-77.1-24.2-28.9-48.2-57.2-72.9-85.5-2.1-2.4-29.6-49.7-36.9-41.4-1.5,6.6,1.5,8.7,4.7,13.2,40.6,55.8,93.2,105.8,137.6,157.8Z"/>
  <path d="M632.9,1058.6c-22.4-24.7-44.3-49.4-66.9-73.5-4.8-5.1-27.7-42.4-35.9-34.2-4.5,4.5,3.2,9.7,5.5,12.4,47.6,56.5,103.4,107.3,150.8,162.7,7.6,8.8,10.9,24.1,26.6,24,1.4-6.6-1.4-8.7-4.7-13.2-17.7-24-53.9-54.6-75.3-78.2Z"/>
  <path d="M17.4,662.7c36.5,44.2,69.4,93.2,107.8,136.3,3.1,3.5,22.9,23.7,24.4,24.4,4.3,1.8,5.7-.7,4.9-4.9-1.6-8.7-25.1-27.3-31.6-35.3-25.2-31.5-50.1-64.5-76.2-95.2-13.3-15.7-31.4-41-45.9-57.7.3,5.8.7,11.5,1.1,17.2,7.2,7.1,13.6,13,15.4,15.2Z"/>
  <path d="M696.7,1171.1c-9-9.4-24.4-18.3-31.8-25.3-22.2-21.2-45.1-45.5-68-67.6-23.6-22.7-55.6-62.4-79.8-80.2-4.5-3.3-6.6-6.1-13.2-4.7-3.7,3.3,11.9,16.9,14.6,19.7,24.5,25,54,48.7,79.8,73.7,28.4,27.6,60.6,68.5,91.6,91.2,4.5,3.3,6.6,6.2,13.2,4.7,1.2-5.8-3.1-8-6.4-11.5Z"/>
  <path d="M479,1077c-6.8-6-12.9-23.2-27.2-16.8,11.7,17.4,33.1,28.2,49.1,42.3,32.9,29,67.6,65.5,102.7,96.8,4.5,0,8.9,0,13.3-.2-.9-.7-1.6-1.3-2-1.6-44.9-40.7-90.4-80.2-135.9-120.4Z"/>
  <path d="M517,1161.4c-6.2-5.6-75-74.3-78.3-70.2,2,19.4,27.5,29.9,41,42.3,4.1,3.7,6,9.2,9.1,12.1,18.9,17.3,38.1,34.3,57.3,51.3,4.7.4,9.4.8,14.1,1.1-8.2-8.1-16.4-16.1-24.9-23.8-5.4-4.8-12.5-7.6-18.3-12.7Z"/>
  <path d="M409.3,1104.3l24.4,32.7c17.8,16.1,34.7,33.5,51.2,51.3,3.2.6,6.3,1.2,9.5,1.8-16.7-18-32.9-35.7-50.5-53.4-5.2-5.2-26-39.9-34.6-32.3Z"/>
  <path d="M389.7,1127.1l38.4,47.1c2.6.8,5.2,1.5,7.9,2.3-4.9-5.7-9.9-11.5-14.9-17.1-5.4-6.1-22.5-40.1-31.4-32.3Z"/>
  <path d="M657.5,1190.8c-41-49.5-96.8-92.7-142.7-136.5-8.1-7.8-22.1-32-32.1-34.9-4.6-1.3-5.8.3-4.8,4.8,30,32.1,63.4,60.9,94.9,91.4,25.3,24.5,53.6,58.3,79.8,80.1.5.4.9.8,1.3,1.2,3-.3,5.9-.6,8.9-.9-1.4-1.8-3.6-3.2-5.3-5.2Z"/>
</svg>