<?xml version="1.0" encoding="UTF-8"?>
<svg id="Layer_1" xmlns="http://www.w3.org/2000/svg" version="1.1" viewBox="0 0 1200 1200">
  <!-- Generator: Adobe Illustrator 29.0.0, SVG Export Plug-In . SVG Version: 2.1.0 Build 186)  -->
  <path d="M526.7.2c-.3,2.3-.3,4.3-.2,6.2,5.8-.7,11.7-1.3,17.6-1.9-4.6-3.3-10.2-5.2-17.5-4.3Z"/>
  <path d="M469.7,117.5c70.2,55.1,145.2,108,211.9,166.3,12.6,11,32.4,45.2,50.5,31-6.5-21.5-27.9-25-42.1-36.1-70.4-55.2-135.7-120.6-206-172.2-4.1-3-10.9-2.8-15.1-6.1-2.3-1.9-3.6-7.6-7.2-10.6-10.3-8.4-44.4-43.1-53.9-40.6-2,.5-6,5.1-5,8,23,19,43.5,41.9,66.9,60.3Z"/>
  <path d="M406.1,106.1c67.7,76.1,141.1,143.2,208.5,218.5,3.9,4.4,10.6,6.4,14.9,11.2,12.6,14.1,17.8,32.3,39,39.2,8.9-5.7,1.4-16.7-3.2-22.9-8.1-10.9-21.8-15.2-31.1-24.3-65.6-64.2-125.1-134-190.9-197-11.9-11.4-24.3-34.4-35.2-44.6-6.8-6.4-28.6-18.3-23.6-.9,2,7.1,15.6,14.1,21.6,20.8Z"/>
  <path d="M813.6,200.7c8.1,7.8,14.1,26.2,29.3,24.4,11.9-12.3-43.9-51.4-51.1-59.7-47.7-53.8-97.8-106.2-146.6-159.8-.6-.7-1.3-1.4-2-2.1-4-.3-8-.5-11.9-.7,7.4,8.5,14.6,17,21.4,24.7,51.7,58,104.6,119.4,160.9,173.3Z"/>
  <path d="M927.7,107.8c.5-3.1.5-5.8,0-8.3-16.3-10.7-33.2-20.6-50.6-29.7,3.3,2.8,6.7,5.6,9.9,8.5,11.7,10.3,19.8,30.5,40.6,29.5Z"/>
  <path d="M448.6,44c33.7,26.5,72.6,51,107.7,74.9,54.5,37.2,117.9,72.7,169.1,111.2,14.2,10.7,23.7,30.1,45.8,27.6-2.7-23.1-27.7-26.1-43.4-36.4-74.2-48.4-146.4-100.8-219.1-149.3-12.9-8.6-43.9-40.1-56.1-41.8-12.2-1.8-13.6,6.3-3.9,13.9Z"/>
  <path d="M318.7,270.7c20,15.7,38.9,34.6,57.7,50.8,55.3,47.6,106.7,96.8,164.9,141.6,2.3,1.7,33.2,35.9,34.1,18,.8-16.1-25.2-24.3-34.2-30.9-9.8-7.3-21.7-20.9-29.4-29.2-13.1-14.2-23.4-16.3-34.9-26.2-45.9-39.5-91.5-79.2-137.6-119.3-6.6-5.7-14.7-10.7-21.1-16.4-11.9-10.6-19-30.5-39.5-30.6-3.3,23.4,24.9,30.5,39.9,42.3Z"/>
  <path d="M821.5,124.3c10.6,13,15,36.8,37.7,35.6,10.7-10.9-38.1-48.8-45.7-56.9-17.8-19.1-37.1-39.2-54.2-58.3-8.2-9.2-16.4-18.4-24.5-27.5-6.1-1.4-12.2-2.7-18.4-3.9,19,19.5,38,39,56.4,58.9,15.3,16.6,34.1,34.1,48.8,52.2Z"/>
  <path d="M315.8,228.9c80.6,58.3,172,102.1,253.1,157.7,13,8.9,21.9,27.4,42.5,24.3.4-20.2-24.8-23.9-38.1-32-32.5-19.6-63.2-42.7-97.3-59.2l-87.6-60.7c-9.4-10.1-25.4-11.8-35.7-18.1-14.1-8.8-40.7-33.7-54.2-37.2-6.5-1.7-8.6-2.9-13.1,3.4,7.2,12.2,20.9,14.8,30.4,21.7Z"/>
  <path d="M559.2,34.6c63.3,46.9,124.1,108.8,186.3,159.3,7.7,6.3,36.4,29,43.1,31.9,4,1.7,7.6,2.9,8.7-2.3,1.5-7.2-6.4-13.8-11.4-17.9-48.3-39.4-99.1-75.7-147.2-115.2-23.7-19.5-49.3-41.7-73-62.3-7.7-6.7-13.1-17.4-21.6-23.5-5.9.5-11.8,1.2-17.6,1.9,1.7,16.4,21.5,19.8,32.7,28.2Z"/>
  <path d="M337.5,168.1c39.8,38.5,106.6,72.3,153.1,104.5,44.2,30.5,86.1,64.2,129.6,95.4,3.9,2.8,26.5,18,27.1,5.5.6-12-34.7-25.8-43.4-31.6-62.3-41.4-120.5-88.5-181.8-131.2-8.7-6.1-22.4-8.5-28.2-12.6-4.8-3.4-12.4-11.3-20.3-17.1-13-9.6-22-26.8-42.6-24.2-1.2,5.7,3,8,6.5,11.4Z"/>
  <path d="M996.1,455c29.9,33.8,66.1,67.9,96.4,102.4,21,23.8,46.2,48.8,64.9,72.1,10,12.5,15.6,38.3,37.7,35.6,0-21.1-20.3-27.2-31.1-39-58.2-63.5-113.5-130.5-171-194.1-11.1-12.3-28.3-41.2-39-49-4.5-3.2-6.6-6.2-13.2-4.7-1,6.5,1.7,11,5,16.1,9,14,37.9,46.6,50.3,60.6Z"/>
  <path d="M1118,347.9c-6.9-7-14.4-13.6-20.7-20.1-11.7-12.2-16.1-34-39.1-34.2-1.4,7.7.8,10.6,4.7,16.5,8.2,12.2,45,36,57.5,50.1,15.8,18,32.1,35.7,48.7,53.2-2.5-7.7-5.2-15.3-8-22.8-14.4-14.1-28.8-28.2-43-42.7Z"/>
  <path d="M875.2,500.9c70.5,67.9,150,124.4,220.5,190.3,11.4,10.6,20.2,32.6,40.7,32.6,1-23.2-23.9-27.9-37.5-39.1-65.4-53.7-129.1-112.3-193-167.2-9.9-8.6-21.3-25.3-30.2-33.3-4-3.6-20.2-15.1-24.5-14.6-8,1.1-1.1,10.7,1.6,13.7,5.7,6.4,16.2,11.6,22.5,17.6Z"/>
  <path d="M232.9,363.9c83.2,48.3,161,108.5,245.8,155.2,10.9,6,18.1,17.9,31.6,15.7,12.7-11.8-54.4-39.2-60-42.8-3.3-2.1-4.5-6.9-6.4-8.1-68.7-43.6-139-82.7-207.3-126.9-13.2-8.6-22.1-24.9-42.6-24.2-.5,21.4,25.8,23.6,38.9,31.2Z"/>
  <path d="M70.9,544.5c61,44.4,118.7,98.4,178.5,145.2,16.3,12.7,39,31.3,55.7,42.1,5.1,3.3,9.7,6,16.1,5,.5-19.7-22.7-24.8-33.9-33.1-33-24.5-66.3-56.2-101-83-36.1-27.9-75.1-53.9-111.2-82.8-13.8-11-23.3-31.7-44.1-29.2,2.5,21.8,25.5,25.3,39.9,35.8Z"/>
  <path d="M885.4,565.7c51.6,58.3,109.2,113.7,159.8,172.8,11.4,13.3,17.9,37.2,39.1,37.5-.2-20.4-19.9-27.6-30.6-39.4-57.4-63.3-112.4-128.3-170.5-189.7-2.9-3-3.2-8.6-6-11.8-6.2-7.1-29.3-37.6-32.3-39.5-4.5-2.9-17.4-6.9-14.8,1.8,18.9,22.4,36,46.6,55.4,68.5Z"/>
  <path d="M176.9,396.9c26.9,17.7,54.5,35,82.6,51.2,51,29.4,110.2,56.7,157.4,87.1,12.9,8.3,21.2,24.1,41.2,22.3.4-21-25.2-23-39.3-30.8-62.6-34.6-121.6-77.1-182.9-110.6-8.7-4.8-23-6.4-28-9.5-2-1.2-2.8-6.4-6.2-8.3-8.5-5-40-26.1-45.5-26.5-32.8-2.2,15.8,21.9,20.6,25Z"/>
  <path d="M841.3,942.2c-60.8-54.1-115.8-114.7-176.7-167.3-7.7-6.6-39.8-56.7-53.2-44.6-1.4,6.1,3.5,7.7,6.5,11.4,55.6,67.6,152.5,144.3,216.9,203.6,11.3,10.4,15.5,34.5,37.4,32.7,3.2-20.8-20.2-26.2-31-35.8Z"/>
  <path d="M99.2,517.1c59.5,34.9,119.7,83.1,178.8,122,19.8,13,47.3,31.8,67.6,42.4,5.2,2.7,8.5,4.2,14.8,3.1.3-6.9-4.8-13.8-9.9-17.8-9.7-7.7-34.8-17.2-46.7-25-67.4-44.3-137.1-88.7-204-135.1-11.1-7.7-19.5-23.5-36.1-20.9-2.1,21.2,22.3,23.4,35.6,31.2Z"/>
  <path d="M904.7,869c-16.5-15.4-34.4-35.2-50.9-51.8-38.2-38.6-77.2-76.8-115.2-114.6-11.4-11.3-25-36-38.4-43.1-3.1-1.6-9.5-5.8-12.2-.9-3.2,5.9,47.6,57.3,55.5,65.2,49.8,50,107.7,98.3,156.2,150.2,3.4,3.6,27.3,44.2,36.2,29,6.9-11.8-26-29.2-31.2-34Z"/>
  <path d="M323.5,346.7c20.1,18.9,44.7,41.6,67.1,60,33.7,27.5,67.3,55,103.2,81.1,7.2,5.2,12.7,14.8,20.7,18.5,19.7,9.3,7.5-11.9-2.5-20.3-23.9-20.1-54.2-40.2-78.8-59.8-45.5-36.3-92.6-73.5-138.1-111.3-13.4-11.1-22.7-29.9-42.3-31-1.1,8.4.6,12.5,6.3,18.1,14.5,14.2,48.8,30.1,64.5,44.8Z"/>
  <path d="M851.1,622.8c43.6,37.3,91.3,72,135,109.5,13.4,11.5,31.6,35.5,46.2,45.1,20.1,13.2,17.4-3.8,3.2-16.2-5.8-5-12.8-6.8-18.1-11.3-58.6-49.5-116-99.7-174.2-148.6-10-8.4-22-25.2-30.8-32.8-3.4-2.9-24.8-14.8-21.6-2.8,1.8,6.6,51.1,49.2,60.3,57.1Z"/>
  <path d="M206.8,755c12.8,8.4,23.4,28.1,42.6,20.9-5.6-19.7-25.2-19.4-39.3-27.5-70.7-41.2-139.6-85.6-208.9-128,.2,5.6.4,11.1.8,16.7,6.6,4.1,11.9,7.4,14.1,8.7,62.2,37.4,129.4,69.3,190.7,109.3Z"/>
  <path d="M658.8,828c-6.2-6.2-15.3-9.1-20.2-14-9.5-9.4-28.9-40-39.3-43.9-4.3-1.6-12.7-2.9-10.7,4.2.6,2.1,24.9,28.2,29.2,32.7,57.4,60.2,124.9,115.7,179.4,175.9,9.7,10.7,13,29.4,32.6,27.7l-4.7-16.5c-61.3-49.9-111-111-166.4-166.2Z"/>
  <path d="M800.3,637.7c26.3,21.2,61.1,53.6,87.3,77.4,28.2,25.6,53.5,56.7,82.5,82.1,8,7,34,29.4,41.4,33.6,5.8,3.2,5.8,5.5,10.8-1.1,1.6-11.4-37.6-35.2-47.3-44-54.8-49.7-111.4-99.1-166.4-149.8-13-12-20.4-31.7-40.7-32.7-1.5,21.5,20.3,24.7,32.4,34.4Z"/>
  <path d="M742,1035c-61.6-46.8-121.2-99.8-180.4-147.2-3.9-3.1-9.4-3.6-13.8-7.4-6.5-5.6-16.1-25.6-29.2-22.9-17.3,3.5,17.6,24.4,19.6,26.2,62.8,57,135.7,102.4,200.7,157.8,11,9.3,15.9,26.1,35.7,24.6-1-21-21.6-22.8-32.5-31.1Z"/>
  <path d="M285.3,759.6c3.8-3.2-10.7-15.8-13.2-17.7-50.4-36.7-103.6-72.1-154.2-108.2-23.2-16.5-47.6-31.6-70.3-48.8-13.3-10-23.4-29.3-42.6-27.4-1,19,21.8,21.7,33.7,29.9,46,31.3,90.4,69,136.1,101.9,27.8,20.1,66.5,51.7,95.9,67.1,5.2,2.8,8.5,4.2,14.8,3.1Z"/>
  <path d="M86.7,464.4c66.9,43.4,146.3,79.5,216.6,119.2,16,9,57.8,40.3,70.7,43.6,4.8,1.2,7.8-.7,12.3-1.2-8.8-18-27.8-19.3-42.5-27.5-82-45.7-163.3-93.6-243.3-141.5-17.5-10.4-34-5.6-13.9,7.4Z"/>
  <path d="M358.6,570.7c-12-9.6-22.9-19.7-36.4-30.4-44.8-35.4-91.5-72.8-136.3-109.8-7.5-6.2-19.9-31.4-34.2-17.9-.4,10.7,46.9,36.1,57,44,45.8,36.1,89.9,79.6,135.2,115.8,13.1,10.5,32.6,27,45.9,35.6,5.1,3.3,9.7,6,16.1,5,10-10.1-41.7-37.7-47.3-42.3Z"/>
  <path d="M1131.2,510.7c-29.5-36.1-60.1-71.6-89.2-108-11.6-14.4-16.1-33.9-35.9-40.7-1,7.8,1,13,5,19.4,7.9,12.6,30.9,29.9,40.6,41.8,50.3,61.6,94.4,126.4,147.3,185.3,0-2.5,0-5,0-7.5s0-4.9,0-7.4c-6.8-7.5-12.8-14-15-16.7-17.5-22.4-34.7-44-52.8-66.1Z"/>
  <path d="M942.3,485.9c55.1,46.4,108.4,99.9,161.8,151.2l68.1,54.1c9.8-11.6-39.3-41.8-47.2-48.9-36-32.3-71.1-67.5-107.1-99.9-22.5-20.2-46.9-39.1-69-59.8-11.7-11-18.2-29.4-37.5-32.6-1,20.4,18.5,25.5,30.9,35.9Z"/>
  <path d="M1087.5,370.2c-4.9-6.5-29.5-57.1-39.1-47.2-.4,4.6-.4,8.7,1.7,13,5.1,10.7,29.2,41.6,37.9,53.4,33.3,45,73.3,88.1,106,134-.6-4.3-1.2-8.6-1.8-12.9-31.4-41.5-58.5-86.2-89.5-127.7-2.6-3.5-10.6-6.4-15.2-12.5Z"/>
  <path d="M797.3,833c-28.3-26.9-54.3-56.4-83.1-83.2-13.9-12.9-28-28.7-41.9-41.2-2.4-2.2-21.3-15.8-21.6-6,11.4,12,24.1,28.2,35.7,39.3,51.1,48.8,106.6,94.4,158.8,142.8,13.5,12.6,29.3,36,43.4,46.3,4.5,3.3,6.6,6.1,13.2,4.7,1.4-6.6-1.5-8.7-4.7-13.2-16.3-22.3-75.6-66.6-99.6-89.5Z"/>
  <path d="M958.8,821.5c-27.5-22.8-67.5-45.8-97-68.5-34.8-26.8-72-54.2-105.9-82.3-8.2-6.8-11.7-22.8-30.3-18.6-1.3,14,10.8,13.2,17.9,19.5,64.1,56.4,138.1,104.8,203,159.8,20,16.9,32.5,6.9,12.2-9.9Z"/>
  <path d="M779.9,997c-65-46.5-129-95.9-192.4-141.7-10.1-7.3-25.6-21.2-34.3-26-14.2-7.9-20.5-3.5-8.2,8.2,5.2,5,18.7,14.3,25.7,19.9,64.3,50.9,137.6,94.2,202.1,143.5,12,9.2,22.7,26.6,40.7,26.1-3.1-17.4-22.7-22-33.7-29.9Z"/>
  <path d="M598.2,1045c-28-27.9-54.5-56.2-83-83.3-10.5-9.9-22.2-27.5-32.6-35.8-12.6-10-19.5-5.7-8.1,8.1,35.7,43.3,88.9,86.2,128.9,125.4,18.5,18.1,40.4,35.5,57.1,53.8,9,9.9,11.8,29.7,32.5,27.8,3.1-2.9-7.1-15.4-9.6-18.1-24.2-26-59.5-52.4-85.1-77.9Z"/>
  <path d="M630.9,1012.4c-31.3-31.5-61.9-68.8-92.1-98.6-2.6-2.6-7.2-3.7-10.6-7.2-7.7-8-16.1-27.5-29.2-26.3-6.9,11.4,9,14.9,14.6,21.2,57.2,63.9,124.3,119.9,182.6,182.5,9.8,10.5,12.8,29.5,32.6,27.7,3.1-2.9-7.1-15.4-9.6-18.1-25.3-27.2-61.8-54.5-88.3-81.2Z"/>
  <path d="M394,1058.4c-2.1-1.7-3.2-6.3-6-8.6-3.9-3.2-24.7-17.1-24.4-5,0,3.7,49.7,41.8,57,47.3,41.3,31.1,87.5,59.8,130,91.7,5,3.8,10.9,9.4,17,15.3,4.7.3,9.4.4,14.2.6-1-.6-1.9-1.2-2.8-1.9-60.4-45.8-127.7-93.4-185-139.4Z"/>
  <path d="M113.4,796.3c9.8,4.8,56.3,38.9,64.3,28.6-5.2-18.7-24.2-15.9-38.1-22.2-40.8-18.5-81-38.3-121.3-57.8.8,3.2,1.6,6.4,2.4,9.6,23.2,11.9,46.1,23.9,69.9,35.2,7.1,3.4,15.7,3.2,22.7,6.6Z"/>
  <path d="M666.7,1139.6c-66.3-49.4-146.2-96.2-214.8-143.8-11.3-7.8-14.9-22.1-32.8-17.7,1.5,11.1,10.4,10,16.1,14.7,55.4,46.1,127.5,89.1,187.2,130.7,6.7,4.6,14.4,6.9,20,11,9.9,7.4,15.4,19.5,29.4,22.7,9.8-6.7,1.4-12.8-5.1-17.6Z"/>
  <path d="M106.3,871.8c10.3,7.5,24,18,35.6,21.5,9.9-10.1-38.9-35-44.1-39-19.6-15.3-39.8-30.9-60.1-46.4,1.8,5,3.7,9.9,5.7,14.8,20.7,17,41.6,33.7,62.9,49.2Z"/>
  <path d="M321.3,1110c-.2,8.3,44.7,36.3,53.7,44,1.7,1.4,3.4,2.9,5.1,4.3,5.7,2.2,11.4,4.4,17.1,6.4-20-19.8-41.2-41.5-58-53.1-5-3.4-13.9-9-17.9-1.6Z"/>
  <path d="M136.5,774.7c7.7,5,56.1,36.4,59.6,36.7,4.3.4,5.1-1.8,7.6-4.5-4.5-4-8.2-9.5-13.1-12.9-59.3-41.4-123.9-77.9-185.1-118.4.4,3.2.8,6.4,1.3,9.6,34.7,22,67,47.8,101.3,70.6,9.4,6.2,19.6,13.1,28.4,18.9Z"/>
  <path d="M362.2,1088.6c-5.2-2.4-9-4-14.9-3-3.8,3.2,10.7,15.8,13.2,17.7,37.7,27.4,75.4,55.7,113.4,83.4,8.3,1.8,16.7,3.4,25.1,4.8-15.9-10.8-31.8-21.6-47.2-32.8-21.6-15.6-70.3-60.9-89.6-70.1Z"/>
  <path d="M611.8,1184.7c-54.9-50.1-108-103.8-162.3-155.6-8.6-8.3-15.7-26.6-30.5-24.9-8.2,8,42.8,44.5,49,50.4,44.6,42.7,85.7,87.6,130.3,130.6l19.1,14.7c4.8-.1,9.7-.3,14.5-.6-4.6-6.1-13.8-8.7-20.1-14.5Z"/>
  <path d="M125.5,922.6c1.5-8-.8-8.2-5.3-12.6-8.8-8.5-33.4-18.4-45.2-26.5-1.8-1.2-3.5-2.4-5.3-3.6,2.8,5.4,5.8,10.7,8.8,16.1,2.7,1.8,5.4,3.5,8.2,5.2,4.3,2.7,37.2,23.2,38.9,21.4Z"/>
</svg>