<?xml version="1.0" encoding="UTF-8"?>
<svg id="Layer_1" xmlns="http://www.w3.org/2000/svg" version="1.1" viewBox="0 0 1200 1200">
  <!-- Generator: Adobe Illustrator 29.0.0, SVG Export Plug-In . SVG Version: 2.1.0 Build 186)  -->
  <path d="M1079.9,320.5l3.2,16.3c-29.1-5.8-3.2,22.2,1.8,32.5,34.8,72.3,76.7,139.4,114.7,208.4-.4-9.8-1-19.6-1.8-29.3-25.9-50.4-51.7-100.6-83.4-146.6l-24.7-58.5c4.9,2.2,9.5,7.4,13,11.5,24.8,29.7,50.5,58.5,76.3,87-2.1-7.8-4.4-15.5-6.8-23.1-11.6-13.4-23.2-26.7-34.8-39.7-7.6-8.5-45.9-69.6-57.5-58.4Z"/>
  <path d="M874.1,261.7c2.1-24.6-21.1-33.9-34.3-48.9-60.1-68.7-116.9-140.4-175.6-209.4-5.9-.6-11.7-1.2-17.7-1.6,69.9,85,150.2,163.1,208,253.4,6.5,2.5,12.3,6.9,19.6,6.5Z"/>
  <path d="M578.5,36.5c-6.3-5.4-9.5-14.1-18.3-20.9-6.6-5.2-22.5-16.6-29-6.8,6.7,21.4,27.6,25,42.2,36.1,6.8,5.2,11.7,12.7,18.2,17.7,87.8,68.6,170.7,145.7,261.3,215.5,6.5,5,13.9,10,14.9-1.7.7-8.8-8.6-13.9-13.3-21.1-20.8-7.9-20.5-11.4-36.1-24.3-78.7-64.9-161.1-126.9-239.8-194.5Z"/>
  <path d="M882.8,550.1c73.8,80.9,137.5,177.5,211.9,259.9,7.1,7.9,16.8,32.2,29.2,29.5,10.3-2.2-4.7-23.8-8.1-27.7-9-10.3-17.6-18.6-27.2-29.9-32.8-38.6-66-76.9-99-116.5-39.5-47.3-75.1-98.7-113.8-145.8-7-8.6-25.8-25.7-24.5-5.1,1,15.3,22.7,26,31.5,35.6Z"/>
  <path d="M981.9,193.2c.6-5.5-.2-10.4-2.5-15.5-5-11.1-40.5-37.9-51.2-50-17.7-20.1-35.2-40.4-52.7-60.8-8.5-4.4-17-8.6-25.7-12.6,33,38.8,66,77.9,102.9,114.3,8.7,8.6,13.9,26,29.2,24.6Z"/>
  <path d="M692.9,216.1c20.9,15.5,44.9,31.6,65.2,48.9,3.3,2.8,42.7,49.8,47.4,27.7,3.2-14.9-33.4-29.6-42.3-36-60.2-44-116.2-92.7-174.8-137.1-22.8-17.2-47.9-32.5-68.8-50.4-10.5-9-24-37.7-44-21.3,26.6,22.5,52,46.1,79.8,67.1,44.8,33.9,91,66.6,137.4,101.1Z"/>
  <path d="M991.7,491.8c-10.7-12.5-13.1-27-28.4-36.9-9.2-5.9-21.6-10.8-16,6.2,3.6,11,47.5,46.7,58.7,58.9,61.1,66.7,116.2,140,181.3,203.2.9-4.5,1.8-9.1,2.7-13.7-32.4-33.4-63.1-75.8-94.9-110.5-32.7-35.7-71-69.6-103.3-107.3Z"/>
  <path d="M498.6,119.6c39.1,33.3,75.3,73.5,112.9,109.2,29.1,27.6,56.8,56.7,86.2,83.6,16.8,15.3,37.3,28.3,54,44,10,2.9,3-15-.1-19.5-5.3-7.5-38.7-29.6-48.9-39.3-27.9-26.4-53.1-54.4-81.2-80.4-25.3-23.5-53.7-45.4-79-69.6-12-11.4-58.4-64.3-66.7-67.2-4.3-1.5-8.7-1.8-13.2-1.4-.5,21.8,22.3,29,36,40.7Z"/>
  <path d="M1037.6,387.2c-3.6-3-6.2-5.8-11.6-4.7-12.3,2.5,7.5,24.3,8.8,27.1,29.5,61.6,68.1,117.7,100.5,174.5,17.6,30.9,37.1,58.6,53,89.9,2.1,4,3.7,8.8,5.3,13.7,1-6.6,1.8-13.1,2.6-19.8-45.1-73.3-84.3-149.8-128.9-222.3-8.4-13.7-20.5-50.9-29.7-58.5Z"/>
  <path d="M289.2,263.7c81,63.2,169.1,111,249.8,171.6,7.3,5.5,16.6,18.8,25.1,23.7,22,12.7,29.5.4,9.3-15.8-9.8-7.8-20.9-9.3-30.3-15.5-48.4-32-93.6-69.6-140.7-102.6-24.5-17.2-53-32.5-76.9-48.9-10.5-7.2-55.7-50-65.5-40.6-1.5,15.7,18.2,19.5,29.1,28Z"/>
  <path d="M1127,738.6c12.1,14.1,16.8,39.2,41,35.7,8.6-7.7-58.2-65.8-65.5-73.4-58.5-60.8-114.9-125.4-170.8-186.7-7.7-8.5-28.4-34.1-35-38.4-6.2-4.1-10.4-8.3-16-.2,14.2,15.3,27.1,35.8,40.7,50.7,66,71.7,143.5,140.2,205.6,212.3Z"/>
  <path d="M859.3,141.1c20.9,18.6,43.4,34.7,64.9,52.8,13.7,5.9,8.3-12.2.6-20.2-9.3-9.6-34.2-21.9-45.5-32.9-5.8-5.7-10.4-17.2-16.5-22.7-27.6-24.6-63-47.6-92-72.9-10.5-9.1-20.8-18.8-31-28.8-5.8-1.4-11.6-2.7-17.5-3.9,11,10.2,21.9,20.6,32.8,30.4,35.2,31.4,67.9,65.9,104.3,98.2Z"/>
  <path d="M377.9,263.1c62.9,44.9,134,85.4,194,132.5,12,9.4,30.2,38.7,47.3,24.5-7.3-20.2-25.7-20.5-39-29.6-60.9-41.6-118.4-93.1-177.2-132.9-16.9-11.4-35.8-18.7-53.7-32.9-2.9-2.3-4.6-8.4-9.2-12-11.2-8.8-34.9-16.9-22.8,3.2,21.5,14,39.7,32.4,60.6,47.2Z"/>
  <path d="M973.1,766.8c2.9,4.1,15.5,13.1,21.8,22.3,12.2,17.6,27,53,40.7,67,4.3,4.4,13.2,13.3,18,4.8-4.4-19.8-20.4-30.1-30.7-44.4-61.1-85.6-123.3-173.7-181-259.8-8.7-13-12.7-37.1-33.2-37-1.7,13.9,10.9,20.2,17.1,30.2,45.8,73.8,97.8,145.6,147.2,216.9Z"/>
  <path d="M480.5,183.4c55.2,52.2,117.4,102.2,170,156.5,11.8,12.2,20.3,33.2,40.7,32.8.6-22.2-22.8-28.8-36-40.8-48.9-44.3-95-91.9-142.6-136.6-13.3-12.5-27.6-24.2-40.5-36.2-9.4-8.8-43.3-52.9-53.6-50.8l-5,8.1c22.4,22.5,43.9,45.2,66.9,67Z"/>
  <path d="M813.7,953.8c-27.5-26-53.7-54.8-81.2-80.4-23.5-21.9-51.8-43.7-75.7-66.4-7.6-7.2-69.5-76.5-76.7-68.6-2.5,21.1,22,28.4,34.3,39.2,24.6,21.7,47.9,45.7,72,68.4,51.8,48.7,98.3,97.7,153.4,143.8,6.8,5.7,15.2,28.3,27.7,14.7-11.4-22.8-35.8-33.6-53.8-50.6Z"/>
  <path d="M197.7,387.7c64,41.7,124.9,95.4,186.7,139.9,11.3,8.1,55.5,39.5,64.9,42.9,3.4,1.2,6.4,1.9,10,1.4.3-4.8-.5-10-3.1-14-1.3-2-33.2-22.2-39.6-26.6-17.3-11.8-40.4-26.2-57.6-38.8-49.1-35.9-101.3-71.8-151-108.6-14.3-10.6-24.4-31.2-46-27.5-.6,21.1,23.7,23.5,35.6,31.3Z"/>
  <path d="M889.1,885c-57.8-58.8-120.7-118.3-176.9-179.1-7.7-8.4-10-19.7-20.9-28.1-8.6-6.6-24.8-12.4-17.3,4.2,5.8,12.7,54.6,50.4,68.2,64.1,57.1,57.3,108.3,120.8,169.6,175,8.8,7.8,11.5,22,27.6,19.7,10.2-10.2-43.1-48.4-50.3-55.8Z"/>
  <path d="M774.4,846.2c-36-47.8-84.1-83.7-125.6-125.8-5.3-5.3-9-14.8-14.3-20-3.7-3.7-24-19.6-24.9-6.1,22.8,23.1,43.9,47.3,66.9,70.2,56.5,56.2,122.6,111.3,176.5,169.6,11.9,12.9,17.3,35,40.7,32.7-2.3-5.8-4.1-11.4-8-16.4-25.4-32.9-82.5-70.5-111.3-104.2Z"/>
  <path d="M389,190c68.3,59.9,141.5,108.5,209,166.5,4.8,4.2,11.7,5.4,16.5,9.6,11.1,9.9,19.4,33.8,40.7,26.2-2.8-20.8-27.3-26.5-42.2-37.8-54.7-41.9-105.4-88.9-158.2-130.8-9-7.1-22.1-11.4-29.9-17.4-9.4-7.3-50.8-51.7-60.4-42.4-1.9,14.8,15.4,18.2,24.4,26.2Z"/>
  <path d="M159.7,421.6c61.3,40.9,121.7,94.9,182.2,138.7,19.6,14.2,45.6,33.4,65.5,45.6,22.2,13.6,17.4-6.9-.4-19.2-28.4-19.6-58.8-38.1-87.1-58.3-50.4-36.1-103.8-73.9-154.3-111.8-14.9-11.2-23.6-30-45.9-30.8-3.2,22.5,26.4,26.7,40,35.8Z"/>
  <path d="M941.1,859.2c-28.1-28.4-53-58.6-81.2-87-7.1-7.1-18.4-12.3-26.7-20.6-32.6-32.7-75.4-89-109.3-116.1-4.8-3.8-9.7-8.7-16.4-8.1-1.9,19.9,22.1,30.5,34.4,42.3,69.6,66.4,134.3,143.4,203.9,210.8,5.2,5,38.2,36.9,40.9,37.5,13.6,3,2.2-15.6-2.2-20.7-9.7-11.3-31.6-25.9-43.6-38Z"/>
  <path d="M983.8,829.5c-61.2-63.9-120-131-180.1-195.5-10.6-11.3-22.1-31.9-32.1-41.4-4.5-4.3-12-6.5-16.9-10.9-13.4,11.9,7.6,19.1,13.2,25.9,66.7,80.1,144.6,149.9,212.1,228.8,10.1,11.9,13.5,30.3,32.8,35.7,5.9-4.4,4-3.9,2.6-8.9-4.3-15.4-21.5-23.2-31.6-33.8Z"/>
  <path d="M131.5,476.7c63.9,41.2,135.5,78.9,196.9,123.1,13.2,9.5,22.2,27.1,42.6,24.3-.3-22.3-25.7-24.2-40.3-33.2-55.5-34.2-110.3-73.7-163.7-109-21.5-14.2-43-25.1-63.7-39.2-12.8-8.8-18.7-25.6-39.4-21l3.3,11.3c22.9,12.4,42.3,29.6,64.1,43.6Z"/>
  <path d="M277.5,376.5c54.8,42.7,105.6,88,161.2,129.4,16.8,12.6,36,22.4,52.1,36.1,14.3,1.2,2-17.2-3.1-21.4-9.4-7.7-32.9-16.4-44.4-25.8-62.1-51.1-127.8-97.7-191.3-148.3-13.5-10.8-24.3-31-44.2-29.3-.9,7.4-.2,10.8,4.8,16.4,10.3,11.7,51.7,28.9,64.9,42.9Z"/>
  <path d="M680,1048.2c-45.7-46.6-93.5-93.9-139.2-141.6-12.6-13.2-30.3-38.9-42.3-49.1-15.5-13.1-26.2-7.9-13.1,9.8,9.1,12.3,40.1,31.5,52.4,45.5,19.3,21.8,37.9,38.4,57.7,58.2,35.4,35.4,63.5,73.4,103.9,110,6.7,6.1,10.4,19.1,21.1,18.1,17.1-10.2-33.9-44.1-40.5-50.9Z"/>
  <path d="M371.3,387.2c43,31.1,85.9,62.6,131.5,90.6,9.1,5.6,14.9,17.8,28.3,15.8,10.9-10.9-44-37.7-50.6-42.4-16.9-12.2-36.1-31.2-54.1-43.9-16.2-11.5-37.7-20.7-54.1-32.4-24.8-17.7-51-37.6-76-56.2-12.8-9.5-20.3-27.1-39.5-24.2l5.7,16.4c41.1,19.1,73,50.4,108.9,76.3Z"/>
  <path d="M751.6,986.5c-37.8-44.4-75.1-90.4-111.5-135-10.8-13.2-21.6-25.1-32.2-38-6.6-8-30.8-45.7-34.2-47.4-7.3-3.8-16.5-3.8-12.6,6,16.8,18.4,29.4,40,45.3,59.2,37.9,46,82.5,90.7,120.8,137.1,6.8,8.2,43.9,71.6,55.5,60.4-.9-21.3-19.7-29.1-31.1-42.4Z"/>
  <path d="M720.6,1014.2c-11.7-11.6-22.9-23.7-34.8-35.4-49.6-48.3-101.1-108.6-151.2-154.1-5.7-5.2-13-7.9-19.7-11.3-.8,6,0,9.7,3.1,14.9,6.9,11.8,48.2,42.2,61,54.9,55.5,54.6,106.2,113.7,166.2,165.3,7.2,6.2,10.7,20.5,24.5,19.6,9.8-10.4-41.6-46.6-49-53.9Z"/>
  <path d="M519.4,1027.6c-20.6-26.5-41.2-53.7-61.5-80.5-11.2-14.8-17.2-39.4-37.8-42.1-9.2,10.1,39.3,55.7,47.1,65.5,44.6,57.1,86.4,123.4,132.6,177.6,3.4,4,28.8,35.2,32.6,31.1,0-23-25.8-39.4-39.2-57.1-24.2-32-49-62.7-73.8-94.4Z"/>
  <path d="M567.1,1148.1c-29.8-30.4-57.1-64.9-86.1-95.2-22.6-23.6-48.7-45.3-70.7-68.1-7-7.3-37.4-54.6-49-44-1.2,12.8,12.3,15.8,18.1,22.7,57.2,68.1,127.6,126.5,184.5,191.1,9.9,11.2,12.1,28.2,32.6,31.1,2.7-21.4-18.6-26.7-29.3-37.6Z"/>
  <path d="M230.8,599.5c8.8,6,17.1,12.8,25.1,18.2,24.2,16.5,50,31.8,75.9,45.6,9-12.1-30.4-31.1-39.5-37.2-69.9-47.4-145.2-95.8-213.1-147.7-8.1-6.2-17.4-12.4-28.3-10.9l4.8,13.1c61.7,34.5,116.8,79.1,175,118.9Z"/>
  <path d="M266.6,686.1c.9-19.2-21.3-22.8-32.4-31.2-56.1-42.5-108.8-86.3-165.8-126.5-2.2-1.5-3-6.5-5.8-8.7-7.3-5.7-33.5-30.6-39.2-29.5l-5,8.1c17.9,14.4,34.3,31.5,52.4,45.6,52.2,40.7,113,77.9,163.4,120.7,9.1,7.7,14,24.9,32.4,21.4Z"/>
  <path d="M635.7,1086.1c-15.1-16.6-29.8-34.7-44.5-51.8-43-50.2-86-101.7-126.9-152.4-5-6.2-12.6-14.4-21.3-12.9-2,12.1,10.5,16.5,16.3,24.5,52.2,70.4,118.2,131.8,171.3,197.6,10.3,12.8,12.5,28.4,31.2,32.5,3.6-21.3-16-26.5-26.1-37.6Z"/>
  <path d="M359.2,1070.2c-6.8-6.8-13.9-13.3-20.7-20.1-10-10-14.2-26.6-32.6-31-1.1,7.4.4,10.8,4.6,16.5,8.7,11.8,38.8,31.5,51.1,43.6,33,32.5,64.9,70,97.3,104,5.8,1.4,11.6,2.7,17.4,3.9-38.7-38.8-78.1-77.8-117.1-117Z"/>
  <path d="M171.8,800.4c.8-.7-9-16.6-10.9-18.5-7.6-7.6-25.5-16.8-35-25.4-27.8-25.5-56.3-50-84.8-75.2-12.1-10.6-25.7-24.3-39.6-38.1.3,3.9.6,7.8.9,11.7,47.8,44.2,94.1,91.3,146.2,131.1,6.6,5,9.4,17.1,23.2,14.3Z"/>
  <path d="M175.8,679.6c12.2,10,28.9,32.3,41.9,40.7,5.1,3.3,9.7,6,16.1,5-1.1-16.9-20.9-22.1-32.4-31.3-31.6-25.4-62-53.1-93-78.4-25-20.4-52.2-39.1-76.8-58.8-7.7-6.2-17.7-18.5-27.6-27.6-.6,4.8-1.1,9.6-1.5,14.5,7.2,6.3,13.7,11.8,15.7,13.5,51.1,42.9,106.3,80.4,157.5,122.4Z"/>
  <path d="M520,1169c-45.9-49.7-93-98.4-139.1-148.3-9-9.7-11.4-26.5-29.5-24.4-1.4,6.6,1.5,8.7,4.7,13.2,10.1,13.9,36.3,32.8,49.5,46.9,33.5,35.7,64.7,75.3,99.2,111.4,6.9,7.2,17.2,18.7,26.8,28.4,6.4.7,12.8,1.3,19.2,1.9-11.2-11.9-28-25.9-30.9-29Z"/>
  <path d="M191.7,752.8c3.9,2.7,7.5,6,12.8,5.1,10.1-10.6-39.4-36.2-45.5-41C106.6,675.5,52.9,631.7.1,589.4,0,593,0,596.5,0,600s0,1.8,0,2.7c8.1,5.1,16.1,10.2,22.7,15.4,55.3,43.1,111,95.8,169,134.7Z"/>
  <path d="M314.3,1077.7c-7.4-8.8-10.6-28.4-28.1-21,12.8,15.3,24.3,32.4,37.5,47.4,14.9,17.1,30.7,33.8,46.7,50.3,6.5,2.7,13.1,5.3,19.7,7.8-23-27-45.8-53.9-69-80-1.5-1.7-5-2.4-6.8-4.5Z"/>
  <path d="M113,805.3c.9-4.8-61.7-58.1-71.1-66.7-10.5-9.6-21.2-19.3-32-29.1,1,5.3,2,10.5,3.1,15.7,24.7,20.1,49.1,40.1,70.4,60.7,6.3,6.1,18.5,31.1,29.6,19.4Z"/>
  <path d="M69,852.6c-6.2-4-12.5-8-18.8-12,3,6.8,6.1,13.5,9.3,20.1,4.1,2.8,8.8,4.8,14.4,5l-4.8-13.1Z"/>
  <path d="M273.1,1084.4c-3,15.6,11.7,20.9,19.5,31,3.8,2.3,7.7,4.5,11.5,6.7-2.1-2.8-4.3-5.7-6.4-8.5-7.9-10.4-8.4-25.2-24.7-29.2Z"/>
  <path d="M101.6,839.6c4.2.8,6.7-.6,4.9-4.9-4.1-9.9-34.9-21.7-44.6-28.9-11.5-8.4-23-17.2-34.5-26.1,1.4,4.6,2.9,9.1,4.4,13.6,5.3,4.1,10.7,8,16,11.8,8.4,6,47.6,33.4,53.8,34.5Z"/>
</svg>