<?xml version="1.0" encoding="UTF-8"?>
<svg id="Layer_1" xmlns="http://www.w3.org/2000/svg" version="1.1" viewBox="0 0 1200 1200">
  <!-- Generator: Adobe Illustrator 29.0.0, SVG Export Plug-In . SVG Version: 2.1.0 Build 186)  -->
  <path d="M593.2,1199.8c0-.2,0-.3,0-.5-2.4,0-4.8,0-7.3-.1,2.1.7,4.4,1,7.2.6Z"/>
  <path d="M28.4,416.7c-.1.6-.2,1.2-.2,1.7.2-.6.4-1.3.6-1.9-.1,0-.3.1-.4.2Z"/>
  <path d="M1085.6,588.6c-32.8-56-61.1-115.8-91.4-172.9-21.8-41.1-45.8-27.4-19.7,13.3,27.9,43.5,54.7,83.5,79.6,129.2,31.6,57.9,69.9,115.7,95.8,175.1,6.4,14.8,15,28.2,24,41.2,2.1-7,4.1-14,6-21.1-3.6-9.7-5.4-22.3-10.8-32.8-23.3-44.6-57.9-88.5-83.4-132Z"/>
  <path d="M1005.4,862.9c-3.9-6.1-7.1-26.8-13.3-37.3-4.2-7.2-21.4-22.1-22.6-24.7-11.9-26.6-19.1-37.8-35.4-62.6-30.7-46.7-65.2-98.3-93-146.9-11-19.1-14.1-53.5-42.3-53.9-5.5,27.1,20.1,39.4,31.5,58.2,23.6,38.8,45.9,87.5,71.4,124.4,28.7,41.6,55.8,86.7,79.2,132.9,10.5,20.8,40,62.1,54.7,82.3,2.3,3.1,4.9,6,7.9,8.4,28.6-5.5-6.2-36.9-14-48.2-6.9-10.1-20-26.1-24.2-32.7Z"/>
  <path d="M1142,382c-4.5-9.5-17.7-60.3-34.6-56.7-23,4.9,17.1,51.7,20.7,57.6,4.8,7.9,4.9,18.5,10.2,25.7,3.5,4.9,10.8,6.6,12.3,8.9,4.3,6.8,6.1,28.8,9.9,37.4,9.1,20.5,21.1,41.3,33.7,62.5-2.4-17.7-5.6-35.2-9.6-52.3-14.8-27.6-29.2-55.4-42.5-83.1Z"/>
  <path d="M960.7,504.6c-10.2-17.4-17-44.8-25.5-62.6-1.2-2.5-8.3-13.1-10-14.5-4.4-3.6-9.8-4.7-15.3-4.3-3.1,18,11.8,30,18.7,44.9,38.8,83.6,86.2,163.9,131.1,244.3,16.6,29.8,35.1,59.8,50.1,90.2,8.1,16.6,9.4,50.7,32.2,54.3,1.8-3.8,3.5-7.6,5.3-11.4-4.3-21-20.9-34.2-31-52.6-53.5-96.3-100.1-194-155.4-288.4Z"/>
  <path d="M886.7,970.1c-56.8-56.2-115.1-114.6-171.6-172.7-23.6-24.3-48.7-48.8-71.4-73.8-13.4-14.8-20.3-40.4-47.2-39.2,0,26.6,26.5,35.6,42.5,50.4,29.7,27.6,56.2,58.4,84.8,88.1,42.1,43.5,86.1,86.8,124,133.9l83.3,76.6c10.6-6.7-.9-22.5-6.9-29-9.2-10-25.8-22.7-37.5-34.3Z"/>
  <path d="M1024.1,371c-2.3,26,18.5,38,30.8,55.7,23.4,33.8,42.9,69,65.3,104.4,26.1,41.1,50.9,83.5,76.8,125.5.8-8.6,1.4-17.2,1.9-25.9-45.7-70.3-92.7-140-136.2-211.8-9.7-16-14.5-46.5-38.6-47.9Z"/>
  <path d="M879.3,525.6c-3.1-2.9-7.3-4.8-10.7-7.3-25.1,15.6,14.3,39.4,21.2,50.5,20.4,32.7,40.4,64.6,62.6,97.4,10.2,15.1,18.2,31.8,27.9,47.2,29,46.3,61,93.6,94.3,137.5,7.7,10.2,10,30.7,27.9,29.2,7.1-20.7-12.2-30.6-22.3-44.6-6.2-8.7-18-21.9-21.6-27.4-4.4-6.7-6.1-22.8-12.7-33-45.7-71.3-102.2-138.6-147.1-211.9-7.2-11.7-6.8-25.7-19.5-37.7Z"/>
  <path d="M929.4,943.8c-27.6-30.9-49.1-67.6-76.8-99.4-7.5-8.6-14.7-16.4-22.2-25.2-35.1-41.5-73.8-82.2-108-125.4-13.9-17.6-21.7-47.8-47.6-48.7-3.6,26.6,21.4,34.7,34.3,48.8,23.9,26.1,43.7,55.9,66.8,83.4,51,60.7,96.2,124.3,150.2,182.7,2.4,2.6,30.9,48.6,35.8,25.9,3-14-24.3-32.8-32.6-42.1Z"/>
  <path d="M957.4,889.6c-51.7-68.2-96.2-141.3-145.7-210.2-12.3-17.1-25.3-26.9-37.5-45.6-2.6-3.9-6.5-7.7-9.3-12-8.7-13.5-11.1-38.3-34.7-35.5l.7,10.7c20,25.3,34.4,54.6,53.4,80.4,35.7,48.8,73.4,95.9,110,144.6,17.9,23.8,38.3,48.6,54.2,73,5.9,9,9,21.4,15.3,30.3,5.2,7.3,27.9,29,25.4,7.5-2.4-20.9-20.6-28.4-32-43.3Z"/>
  <path d="M736.7,1087.4c-17.7-15.9-27-33.8-42.1-49.2-42.7-43.6-88.1-83.5-131.9-127.6-17.2-17.4-39.6-35.6-56.1-53.2-10.1-10.8-14.1-24.3-27.8-34.2-20.6-14.8-25.2-3.6-11.3,14.5,8.7,11.3,21.6,15.5,31.2,24.3,22.7,20.8,42.4,44.6,63.6,66.9,41.3,43.5,83.8,86.9,125.6,129,19.7,19.8,50.3,53,71.7,68.7,4.5,3.3,6.6,6.2,13.2,4.7,2.8-24.7-21.8-31.2-36-43.9Z"/>
  <path d="M779.1,1051.5c-27.3-27.1-51.2-63.5-78.2-91.5-13.3-13.7-35.4-28.7-47.8-41.9-30.4-32.5-60.9-66.8-91-100-9.8-10.8-14.9-24.6-27.6-34.4-3.7-2.8-13.9-12.5-16.3-3-5.5,21.7,28.3,32.6,37.7,43.6,34.7,40.9,72.6,82.5,109.1,122.6,24,26.4,51.5,50.2,70.1,80l71.8,68.4c15.4-19.6-17.3-33.5-27.8-43.9Z"/>
  <path d="M642.1,1097.1c-18.8-41-56.1-70-83.7-104-23.8-29.3-48-60.4-71.1-90.5-11.9-15.5-17.9-42.4-41.1-42.1-2.2,22.3,17.1,30.3,29.4,44,24.6,27.4,45.8,59.3,70.1,89.9,37.3,47,75,96.1,116,141.7,6.8,7.5,7.9,21.9,22.8,21.2.3-5.6.4-11.1-1.4-16.5-3.2-9.4-32.7-34.4-41-43.8Z"/>
  <path d="M805.2,983c-14.3-14.4-32.9-32.2-47.8-48.4-43.7-47.8-91.8-94.7-134.9-144.2-9.9-11.4-14.6-32.4-35.9-31-2.7,21,15.7,27.2,27.8,39,34.5,33.7,65.3,72.7,97.9,107.7,33.7,36.1,66.2,71.6,102.9,106,8.2,7.7,11.7,23.5,26,21.3l-.7-14c-11.7-12.1-23.5-24.5-35.4-36.5Z"/>
  <path d="M929.7,228.8c3.6,3,7.7,5.8,12.8,5.2.7-7.1.5-11.7-3.1-18.1-5.7-10.1-36-30.8-44.9-41.6-43.1-52.2-88.5-101.5-133.5-152.4-4.1-1.1-8.2-2.2-12.3-3.3,46.8,54.2,90.6,111.9,138.1,164.8,10.4,11.6,32.2,36.2,42.9,45.3Z"/>
  <path d="M597,16.4c11.5,18,35.8,35.2,50.7,48.9,8.3,7.7,10.1,21.3,15,27.4,29.1,36.7,73,76.5,103.6,113.4,20.8,25,37,50.6,61.9,75.2,19,18.8,19.3-2.3,6.7-16.4-24.5-27.5-50.7-53.5-75.1-81.5-43-49.4-88.3-99.2-130.6-150.1-6.3-7.6-14.4-28-26-33.3-1,0-2.1,0-3.1,0-2.5,0-4.9,0-7.4,0-4.3,3.5,2.7,13.7,4.4,16.4Z"/>
  <path d="M935.9,137.8c15.1,13.8,34.3,24.2,47.9,40.3l7.6.5c3.1-20.1-19.4-25.6-31-35.9-21.7-19.2-43.2-42.4-65-64.9-13.5-7.6-27.2-14.8-41.3-21.4,27.1,28.2,54.3,56.3,81.8,81.4Z"/>
  <path d="M405.5,158.9c65.3,52.7,126.8,109.7,190.8,164.9,21.2,18.3,43.6,34.6,65.2,52.3,15.6,2.1,9.3-10.7,1.9-18.2-9-9.2-34.2-22.5-45.8-32.5-62.7-54.2-127.7-108.3-189.7-164.4-6-5.5-10.8-15.7-19.1-21.7-26.1-18.8-21.5,4.8-3.2,19.6Z"/>
  <path d="M505,72.5c54.4,70.2,117.3,131.1,174.9,197.2,12.4,14.2,25.7,37.8,39,52.4,5.6,6.1,11.6,14.6,21.2,13,.4-23.3-20.2-30.2-32.7-43.9-57.2-62.9-113.1-129.2-168.6-192-10.1-11.4-21.7-33.1-31.9-44.8-2.7-3.1-17.9-16.6-21.3-12.9-3,15.4,11.6,20.9,19.5,31.1Z"/>
  <path d="M326.6,227.9c81.7,57.6,155.7,126.9,240.2,184.1,9,6.1,12.4,17.6,26.4,14.4,10.6-9.8-49.3-43-55.3-47.5-18.1-13.7-35.7-32.5-53.6-46-50.8-38.1-103.7-72.8-153.8-112.2-14.1-11.1-22.7-30.5-44.1-29.3.7,21.6,26.3,26.5,40.3,36.4Z"/>
  <path d="M363.2,165.3c63.8,72.9,136,134,199.1,205.6,11.1,12.5,13.8,32.6,37.4,29.5-1.6-21.1-21.8-26.4-32.8-37.4-56.4-57-113.3-116-168.8-172.3-8.9-9-22.4-33-31.7-41.8-7.2-6.8-24.5-14.9-20.1.4,2.3,8.1,11.9,10.3,16.8,15.9Z"/>
  <path d="M565.3,1089.1c-18-21.1-38.1-42.4-55.8-63.3-25.5-30-51.2-61.3-76.2-91.9-12.4-15.2-18.4-40.8-42.5-40.7,1.1,21.3,22.1,28.9,32.7,40.7,54.1,60.4,104.4,130.6,156.7,192.5,7.3,8.6,55.7,63.8,60.3,63.6,11.2-.5-2.9-20.9-5.4-23.9-22.4-26.2-47.8-51.1-69.9-77Z"/>
  <path d="M596.5,95.3c36,44.6,75.3,91.1,114.4,131.3,12.4,12.7,27.4,43.4,39.1,58,6.3,7.8,11.9,13.3,22.8,11.4-.2-20-18-27.3-27.8-39-39.1-46.4-76.9-95.2-114.8-141.4-10.2-12.5-15.3-33.3-35-41.8-8.1-9.6-23.6-41.2-31.6-46.8-7-4.9-18.3-7.3-14.8,4.9,16.8,20.4,31,42.8,47.6,63.4Z"/>
  <path d="M864.3,225.7c8.2,7.7,11.7,23.5,26,21.3,10.6-10.8-38.4-46.2-45.7-53.8-12.7-13.3-25.3-28.2-38.2-41.8-42.3-44.5-87.6-90.7-129.7-136.4-2.9-3.2-5.6-7.1-8.3-11.2-7.3-.8-14.6-1.5-22-2.1,6.8,6.4,16.7,10.4,23.4,16.8,67.5,64.1,125,141.9,194.4,207.1Z"/>
  <path d="M983.1,138.3c.8.7,1.6,1.4,2.5,2.1-.8-.7-1.7-1.4-2.5-2.1Z"/>
  <path d="M253.7,1004c-3.9,22.3,17.2,24.3,29.2,34.4,51.1,42.6,97.8,90.8,146.8,136.5,8.5,2.5,17,4.8,25.6,7-59-53.1-117.3-111-176.7-163.6-7.2-6.4-15.9-11-24.9-14.2Z"/>
  <path d="M567.1,1165.6c-18.3-19.1-36.5-39-54.5-58.1-42.2-44.7-86.7-91.1-128.3-137.7-4.9-5.5-6.8-13.2-12.9-19.7-19.1-20.3-31.9-9.4-11.7,11.7,34.2,35.5,70.1,67.5,104.3,104.6,36,39,63.9,75.2,103.3,112.1,6.6,6.2,10.2,17.7,18.8,20.7,2.4,0,4.8,0,7.3.1,2.9-17.9-16.5-23.7-26.2-33.8Z"/>
  <path d="M388.7,1055.1c-24.7-16.1-55.4-65-76.4-78.6-5.1-3.3-9.6-6-16.1-5.1-.9,8.1,3,14,8,19.7,11,12.3,39,29.5,52.5,42.1,55.3,51.9,106.1,110.2,163.7,160.9,5.9.8,11.8,1.5,17.7,2.1-3.1-1.9-6-3.9-8.6-6.2-46.6-41.5-89.8-95.2-140.9-134.9Z"/>
  <path d="M251.4,296.7c72.2,47.8,141.9,110.8,217.5,154.4,7.2,4.2,10.2,14.8,23,11.2,11.3-10.8-45.7-36.5-51.9-41.1-59.2-44.2-122-86.1-182.9-130.4-12.2-8.9-20.9-25.1-39.4-24.2-1,20.6,22.7,22.9,33.6,30.1Z"/>
  <path d="M256.9,248.7c5.7,5.3,22.4,17.2,29.7,22.5,54.6,39,115.1,71.4,170.3,109.5,10.2,7,25.4,23.7,35.3,30.9,7.3,5.4,16.6,9.3,25.9,8.3-.9-20.3-20.6-20.5-32.3-28.1-64-41.1-125.8-89.1-187.6-130.6-3-2.1-7.2-2.1-10.2-4.3-12.1-8.9-17.5-24-37.6-19.6-1.1,5.5,2.9,8.2,6.4,11.5Z"/>
  <path d="M363,495c-58.5-49.9-115.6-101.9-173.7-151.1-9.3-7.9-24.5-30.9-33.4-36.7-5.8-3.8-12.7-8-19.8-3.1,19.1,21.1,39.1,41.6,60.4,60.4,52.1,46,109.1,88.9,160.1,136.9,10.8,10.1,14,26.2,34.1,23-.5-17.9-18-21-27.7-29.3Z"/>
  <path d="M222.7,312.3c63.7,56.2,120.8,125.4,187.4,181.4,3.8,3.2,12.8,20.2,19.9,16,6.2-3.7,3-8.6.2-13.2-6.1-10.1-31.2-24.7-40.9-34.1-38.9-37.6-77.5-77.8-117.1-116.2-14.6-14.2-30.2-27.3-44.6-42-9.8-9.9-15-27.8-32.5-24.5-1.6,19.6,16.8,23,27.7,32.6Z"/>
  <path d="M483.4,152.8c53.9,42.1,103.3,94.3,155.4,138.3,18.4,15.6,38.4,28.8,57.3,43.9,4.8-3.8,5.1-4.1,3.5-9.9-2.7-10-35.6-27.1-45.8-35.9-22.5-19.3-45-44.2-68.2-63.9-31.3-26.6-67.3-51.1-98.5-79.5-7.9-7.2-19.6-33.5-34.3-21.1-3.2,14.7,23.2,22.4,30.6,28.1Z"/>
  <path d="M221.1,1046.5l6.3,18.1c26.6,13.2,47,33.2,68.5,52.1,13.8,8.2,28,15.8,42.5,22.8-28.4-22.7-56.8-45.7-84.4-68.9-9.3-7.9-15.6-24-33-24.1Z"/>
  <path d="M36,427.1c56.5,40.6,120.7,71.3,179.7,107.5,8.3,5.1,50.6,42.3,57.6,35.4.1-2.4-2.5-12.3-3.2-13-2.2-2.2-22.7-9.1-28.4-12.4-55.3-32.3-109.1-67.8-163.9-100.5-8.2-4.9-40.4-33.3-48.9-27.6-.2.6-.4,1.3-.6,1.9-.4,5.3,4.1,6,7.8,8.7Z"/>
  <path d="M315.7,589.6c8.5-8.4-36.3-38.7-42.1-44.4-53.1-51.8-107.1-103.2-160.4-156.2-10.1-10-13.9-24.6-32.5-24.5.3,18.4,20.2,22.9,29.1,31.2,55.9,51.5,105.4,109.3,160.2,161.3,4.4,4.1,35.7,31.3,38,32.1,2.5.8,5.1.5,7.6.5Z"/>
  <path d="M346.8,517.8c-6.9-6-18-8.3-25.6-13.5-28.6-19.5-56.9-40.2-85.2-60.1-29.2-20.6-59.6-40.1-88.4-60.1-8.7-6-40.9-41.1-50.6-32.6-1,5.9,4.1,9.7,8.1,13,65.2,54.1,149.4,96.9,216.1,147.8,6.9,5.3,15,21.1,28.7,21.8,7.9-4.2,1.4-12.5-3.1-16.4Z"/>
  <path d="M208,625.5c1.2-6.9-4.4-9-8.7-12.5-25.8-20.9-70.6-43.4-100-63.2-28-18.8-58.3-42.8-88.2-63.6-.9,4.7-1.8,9.5-2.6,14.3,54.1,36.1,112.1,68.2,165.2,105.4,10.7,7.5,16.6,23,34.3,19.6Z"/>
  <path d="M25,441.3c10.9,10,31.5,22,42.8,32.3,50.1,45.5,95.1,96.5,148.4,138.9,5,4,6.9,15,17.9,12.9,8.4-8.7-33.7-35.4-39.3-40.6-51-47.9-105.4-105.2-157.7-150.7-1.5-1.3-6.6-4.7-11.5-7.5-1.2,3.9-2.3,7.9-3.4,11.8.9,1,1.9,2,2.8,2.8Z"/>
  <path d="M172.1,648.4c1-7.2-5.7-10.4-10.6-13.8-35.9-25.4-78-47.5-114.5-71.5-13.2-8.7-27.9-20.4-42.7-31.7-.2,2.1-.5,4.2-.7,6.3,44.1,29.3,87.6,63.6,132.9,92.6,4.6,2.9,32.9,20.7,35.6,18.2Z"/>
  <path d="M71.9,631c11.3,7.7,23.2,14.5,33.6,23.6l7.7-4.6c0-5.1-73.5-49.1-84-56.3-9.5-6.6-18.9-13.5-28.3-20.7-.1,2.6-.2,5.2-.3,7.8,18.4,11.2,36.2,22.8,51,36.2,11.5.4,15.7,10.7,20.3,13.9Z"/>
  <path d="M93.5,676.3c-25-20.1-63-42.4-93-61.2,0,2.8.2,5.6.3,8.5l99.5,63.9c1.2-5.9-2.9-8.1-6.7-11.2Z"/>
</svg>