<?xml version="1.0" encoding="UTF-8"?>
<svg id="Layer_1" xmlns="http://www.w3.org/2000/svg" version="1.1" viewBox="0 0 1200 1200">
  <!-- Generator: Adobe Illustrator 29.0.0, SVG Export Plug-In . SVG Version: 2.1.0 Build 186)  -->
  <path d="M28.6,416.5c.6-1.8,1.2-3.6,1.7-5.3-2.5,1-2.8,2.9-1.7,5.3Z"/>
  <path d="M1026.1,494.1c-4.9-8.3-6.7-20.2-11.7-29.2-11.9-21.6-33.1-41.6-47-67.3-9.9-18.4-12.6-50.4-40.6-49.1-3.5,19,12.1,28.5,20.2,43.5,46.2,85.8,99.8,162.8,150.3,244.8,18.7,30.4,42.8,60,58.3,91.7,6.1,12.4,9.6,31.8,19.4,43.7,2.9-9.8,5.6-19.8,8.1-29.8-6.7-8.2-14.4-16-19.9-24.5-47.3-72.4-94-150.1-137.1-223.6Z"/>
  <path d="M1185.8,598.7c-14-17.1-28.8-42.2-44.5-60.1-42.2-48-86.2-95.6-126.4-146.3-13.7-17.3-20.4-42.2-44.1-50.5-16.1,23,22.3,43.1,36.1,58.5,24.5,27.5,46.8,57.7,70,86.7,40.9,51.1,80.3,102.4,121.7,153.4.7-9.8,1.1-19.7,1.2-29.6-5.6-4.4-10.9-8.3-14.1-12.2Z"/>
  <path d="M936,484.4c4.5,8.2,5.2,18.8,10.2,25.7,3.5,4.9,10.8,6.6,12.3,8.9,4,6.3,5.5,27.3,9.2,34.9,2.1,4.4,8.8,7.9,11.9,14.2,38.4,77.9,78.6,156.4,124.2,231.7,5.1,8.4,8.8,31.8,20.5,31.9,22.8-11.9-2.9-32.9-10.1-43.9-24.5-38-38.2-81.4-60.7-120.6-35.7-62.2-74.6-122.6-106.4-187.4-8.8-17.8-8.2-50.1-36.7-49.8-6.8,26.1,16.1,37,25.6,54.4Z"/>
  <path d="M884.2,203.1c11.3,15.6,14.7,36.9,37.7,44,17-21.6-20.1-41-31-53.8-47-55-87.6-114.6-131.2-171.8-10.4-2.9-20.9-5.5-31.5-7.8,22.2,25.5,43.4,52.3,63.2,80,26.3,36.9,64.8,70.6,92.9,109.4Z"/>
  <path d="M660.5,361.5c7.2,9.2,22.4,52.3,39.2,48.9,25-5.1-27.9-53.5-30.9-57.2-37.2-46.2-71.4-95.4-106.5-143.3-31.2-42.5-69.4-85-97.5-126.2-10.1-14.8-13-38.1-35.9-38.9l-4.7,7.6c22.3,28.1,39.2,60.6,61.7,88.6,58.8,73.3,117.6,147.7,174.6,220.5Z"/>
  <path d="M1001.3,709.7c-36-59.7-75-117.7-107.8-179.5-5.3-10-16.2-54.7-33.6-51.2-22.3,4.4,18.7,47.8,21.1,51.4,5.2,8,6.2,19.1,11.6,26.8,4.2,6,11.9,8.2,13.7,10.8,4.4,6.5,6.4,26.4,9.9,34.1,2.9,6.4,10.1,10.1,13.3,16.1,39.6,72.9,78.9,149.5,124.1,218.8,9.4,14.5,12.5,40.2,33.2,36.9,3.8-22.5-16-35.5-25.7-51-22.1-35.5-37.6-76.3-59.8-113.2Z"/>
  <path d="M939.7,931.2c-12.5-11.7-21.1-22.4-29.8-35.5-24.9-37.3-71.3-71.4-102-103.8-13.6-14.4-25.4-32.7-39-47.5-17.4-18.9-39.4-36.6-56.1-56.6-14.2-17-18.6-43.1-47.3-42.5-.6,5.6.2,10.3,2.5,15.5,9.3,21.2,62,54.2,78.1,77,13.5,19.2,18.3,23.6,35.5,41.3,54.1,55.9,101.8,118,160.1,173,9.1,8.6,13.1,21,26,26.1,17.4-21.8-15.7-35.7-27.9-47.1Z"/>
  <path d="M420.4,186.9c36.7,35.9,72,73.7,107.9,110.9,34.8,36,72.2,67.4,104.7,104.3,13.9,15.8,24.5,43.2,48.8,44.2.8-24.7-23.3-34.7-37.6-48.9-62.9-62.3-121.1-129.7-183.3-190.6-17.7-17.3-40.8-45.6-58.4-64.1-13.7-14.4-34.9-43.6-49.5-51.8-9.5-5.3-17.4-3.8-11.7,8.4,27.5,28.2,50.9,60.1,79,87.5Z"/>
  <path d="M828.9,226.8c8.8,10.8,26.2,49.7,44,46.5,13.6-2.5-8.3-31.4-13-35.9-36.5-34.8-63.9-65.4-97.5-103.3-39.1-44.2-79.9-88.5-118.3-132.4-7.2-.5-14.5-.9-21.8-1.2,38.5,43.2,82,83.8,113.7,129.1,22.2,31.9,67.2,65.5,93.1,97.2Z"/>
  <path d="M576.1,462.2c-32.6-42.6-60-94.4-91.3-138.9-31.7-45.1-68.4-90.1-99-137.7-10.7-16.6-14.7-46.6-40.3-46.2-5,25.3,18.3,36.1,30.9,52.3,16.2,20.8,25.1,38.9,36.2,61.8,2.3,4.9,18.5,21,23.8,28.4,45.7,64.1,83.1,131.3,132.6,194,3.2,4.1,25.2,46.8,31.2,23.9,4-15.3-17.4-29.1-24-37.6Z"/>
  <path d="M642,102.5c32.5,57.6,62.5,116,94,173.7,17.5,31.9,40.4,60.2,56.7,92.8l9.9,2.2c12.1-11.9-35.4-69.9-42.6-83.1-50.8-94-107.1-184.5-158.3-279.2-1.5-2.7-2.8-5.7-4.1-8.9-4.4,0-8.8,0-13.2.2,2,2.4,3.9,4.9,5.5,7.5,18.9,30.9,34,62.7,52.1,94.8Z"/>
  <path d="M1010.3,828c-30.7-41.5-58.6-79-91.3-119.3-32.3-39.9-67.2-80.7-98.2-122.2-11.3-15.2-16.1-42.8-41-42.2-4.9,25.1,20.3,33.9,32.7,48.2,77.3,89,140.9,195.1,222,283.2,9,9.8,11.4,26.4,29.5,24.4.2-4.6.5-9.3-.8-13.9-4.1-14-42.3-43.9-52.8-58.2Z"/>
  <path d="M1093.5,268.7c.8,24.4,23.3,35.8,35.8,51.9,1.8,2.4,3.7,4.8,5.5,7.2-11-21.5-23.2-42.3-36.6-62.2l-4.8,3Z"/>
  <path d="M1049.3,309.2c-17.2,22.2,15.8,40.1,27.2,54.2,22.8,28.1,45.1,62.4,67.2,92.9,17.9,24.6,35.1,49.8,52.4,75.1-1.2-10.7-2.7-21.4-4.5-32-35.7-46.8-72.6-93.6-106.2-141.6-11.4-16.2-14.4-38.4-36.1-48.7Z"/>
  <path d="M930,820.2c-48.1-49.2-90.4-103.5-138.6-152-8.2-8.2-25.2-15.2-30.3-20.3-2.6-2.6-2.9-8.8-5.9-12-11.3-12.2-39.9-53-55.3-49.1-7.2,4.8-3.5,7.2.2,12.8,7,10.7,37.7,43.4,48.3,54.6,39.5,41.8,83,82.8,123,123.6,32.1,32.8,66.8,62.5,96.5,96.2,13.6,15.4,22.7,44.2,47.2,42.5l-1.4-13.2c-26.1-28.8-56.1-54.9-83.6-83Z"/>
  <path d="M520.2,80.6c22.3,22.5,47.1,56.3,68.6,81.6,42,49.4,81.7,101.8,124,150.3,14.1,16.2,32.4,28.8,43.9,47.5,6.7,7.6,17.6,6.5,15.3-5.3-3.8-19.4-18.4-21.5-29.4-32.8-11.5-11.7-20.3-24.1-28.6-36.6-34.9-53.1-99.1-109.5-142.1-160-12.6-14.8-26.2-29.8-38.4-44.9-12.7-15.6-17.9-38.8-40.1-44.9l-7.5,4.6c.4,22.9,22.9,29.1,34.3,40.6Z"/>
  <path d="M848.3,967.1c-52.1-84.9-111.9-163.8-165.9-248.8-7.1-11.1-11.4-29.6-21.3-39.1-4.5-4.3-11.9-8.4-18.5-7.6-4,25.5,18.3,36,30.9,52.3,20.7,27.1,37.9,59.2,58,88.9,16.3,24,32.9,46.3,47.8,69.7,14.4,22.7,29.5,52.9,43.4,74.3,17.4,26.8,40.9,49.3,56.5,77.3l14.8,6.4c.3-4.7.3-9.3-.7-13.9-3.7-16.5-35-43-45.1-59.4Z"/>
  <path d="M721.1,1091c-46.9-57-91.3-118.1-136.2-175.6-16-20.5-24.3-31.3-41.7-51.3-10.3-11.9-36.6-68.2-52.3-65.2l-4.6,7.7c14,16.7,24.3,36.9,37.5,54.1,56.6,74.2,117.7,145.7,173,218.7,11.6,15.4,23.4,34.2,34.2,47.6,5.5,6.8,26.7,26.5,24,5.6-2.4-18.5-23.1-28.6-33.8-41.6Z"/>
  <path d="M462,569.8c19.5,2.9,6.2-16.7-2.2-24.1-10.7-9.4-36.3-23.1-45-31.8-63.6-63.6-132.4-118.6-198.6-181.8-8.4-8.1-14.3-20.8-24.2-28-4-2.9-21.3-13.2-23-3.1-2.5,14.8,29.3,30.9,39.3,39,23.9,19.5,45.2,40.9,68.5,62.1,55.5,50.5,108.1,103.5,168.2,151.8,5.6,4.5,6.9,14.3,17,15.8Z"/>
  <path d="M797.7,1053.6c-17.2-15.2-28-35.1-42.3-49.2-21.6-21.3-45.7-42.8-68.1-64.2-37.8-36.1-80.9-71.1-118.2-108.8-8.9-8.9-14.6-22.4-24.4-31.1-3-2.6-20.9-16.2-23-6.3-3.6,17.2,29.3,33.1,39.3,42.3,48.3,44,96,97.1,143.5,143.9,35.2,34.7,73.3,77,111.1,107.7,7.9,6.4,18.3,12.7,16.5-3.3-1.5-13.4-26.1-23.6-34.4-31Z"/>
  <path d="M831.9,1003c-33.4-31.7-64.9-71.3-98.9-105.1-35.4-35.1-74.2-68.4-108.3-105.6-8.8-9.6-13.5-23-24.3-31.2-19.8-15.1-26.3-2.6-11.7,14.9,7.7,9.2,19.4,12.5,26.3,19.5,57.5,58.5,113.7,125,171.4,184.5,7.9,8.2,63.1,61.9,67.5,63.2,17.3,4.7,7.6-15.6,1.1-23.1-5.5-6.4-16.7-11-23.1-17.1Z"/>
  <path d="M442.8,399.6c18.5,24.4,38.6,47.1,55.6,71.7,7.3,10.5,22.8,49.1,38,46.8,11-1.7-6.6-28.3-10-32.4-59.8-72.8-112.5-149.3-168-223.9-6.2-8.4-21.5-17.3-25.1-22.2-4.9-6.7-12.8-19.8-18.8-28.6-6.2-9.1-17.6-41.7-32.8-39-15.6,2.8,12.3,29,14.1,31.6,46.6,68.7,97.3,130.5,146.9,195.9Z"/>
  <path d="M969.2,217.8c10.1-10.6-38.1-59.1-45.8-70.1-18.4-26.5-33.8-55.7-53.5-82.1-.6-.8-1.2-1.6-1.8-2.4-9.1-4.6-18.3-8.9-27.7-13,30.9,44.8,61.6,90.2,96,133.4,9.5,11.9,17.3,34.5,32.7,34.2Z"/>
  <path d="M263.7,314.1c57.5,51.2,121.5,98.6,179.3,150.5,11.9,10.7,49.2,55.2,59,58.6,4.3,1.5,8.7,1.8,13.2,1.4-1.3-24.2-25.4-29.6-40.7-42.5-55.6-46.7-110.1-96.7-164-144.6-28.8-25.6-56-54.1-84.1-80.8-7.5-7.1-16.9-14.5-27.9-12.9-.5,3.6,0,6.4,1.6,9.8,2,3.9,55.4,53.1,63.6,60.4Z"/>
  <path d="M681.7,1117.3c-64.7-67.8-124.8-141.8-187-209.8-2.4-2.6-7.4-3.8-10.5-7.3-11-12.3-16.6-32.2-35.7-36.1-14.9,2,16.4,29.1,17.9,31,24.2,30.4,49.2,59.9,75.1,88.1,44.1,47.9,93.9,92.2,133.9,140.4,7.9,9.6,22.3,40.5,37.5,37.6,9.4-1.8-2.5-18.3-4.8-21.2-7.6-9.8-18.4-14.4-26.3-22.7Z"/>
  <path d="M133.5,587.9c21.1,27.2,58.1,54.5,81.3,82,10.2,12.1,14.7,34.8,35.8,34.3,4.5-22.2-19.3-29.9-31.1-42.3-32.7-34.2-62.5-72.7-94-106.9-24.4-26.5-53.2-51.6-77.4-77.7-5.7-6.1-17.9-23.6-27.1-35.7-1.9,6.9-3.7,13.9-5.3,20.9,37.1,44,83.6,81.6,117.7,125.4Z"/>
  <path d="M307.8,599.8c-57.9-67-109.9-139-170.6-200-8.9-8.9-21.3-35.8-30.2-46.6-8.2-9.9-28.7-23.1-21.1-1.7,3.7,10.4,27.7,26.5,30.9,40.9,70.1,77.8,136.4,156.3,199.3,238.3,5.9,7.7,28.6,28.2,24.8,8-3.2-17-22.5-26.9-33-39Z"/>
  <path d="M649.1,1182.5c-33.9-41.6-69-87.1-103.1-130.4-25-31.8-50.4-64.5-74.6-96.8-11.4-15.3-14.4-33.2-32.9-42.3-4.8-2.4-3-4.6-8.2,1.8.5,20.4,20.9,29.6,30.8,41,65.9,75.7,119.5,164.9,187.3,242.3,5.1-.4,10.1-.9,15.2-1.4-4.9-4.7-10.4-9.2-14.5-14.2Z"/>
  <path d="M352.8,540.1c-12.8-12.8-20.3-22-35.7-36.2-45.2-41.6-93.7-81.7-138-124.9-11.4-11.1-17.6-31.7-39.5-30.7-2.9,20.6,19.5,26.4,31.1,35.8,27.1,22,51.1,50,78.3,75.2,28.1,26,56.9,55.5,84.3,80.6,20.6,18.9,44.8,34.7,66,53.1,9.6-6.9,2.6-16.8-3.3-22.8-9-9.2-35.1-22.1-43.2-30.2Z"/>
  <path d="M53.2,439.6c39.9,39.4,84.2,74.7,127.1,111.3,19.2,16.3,42.6,32,60.3,47.5,10.7,9.4,40.1,45.6,49.2,48.8,4.3,1.5,8.7,1.8,13.2,1.5,1.6-21.6-21.4-25.5-34.3-35.9-47.9-38.7-95.2-81.6-141.1-121.8-13.9-12.2-27.9-23.1-41.9-34.8-11.9-10-26-31.6-39-39.3-2.2-1.3-12.5-6.4-13.2-6.3-1.3.1-2.3.3-3.1.7-.6,1.8-1.2,3.5-1.7,5.3,3.7,8.1,22.9,21.5,24.6,23.2Z"/>
  <path d="M100.4,774.4c7.4,6.8,22.2,21,29.3,26.2,4.5,3.3,6.6,6.2,13.2,4.7.8-8-4.8-15.7-10.1-20.9-42.1-41-86.5-81.2-129.6-122.1.5,4.8,1,9.5,1.6,14.2,31.2,33.4,62.5,67.1,95.5,97.8Z"/>
  <path d="M84.1,607.9c22.5,23.8,43.2,52.2,65.2,75.2,19.1,20,40.4,38,60.6,56.9,9.3-5.9,2.5-15.9-2.8-21.6-9-9.6-27.2-20.9-38-32.2-54-56.7-110.3-113.7-162.9-172.2-.5,3.7-1,7.3-1.5,11,25.9,25.3,53.7,55.6,79.4,82.8Z"/>
  <path d="M156.1,754.6c6.8,6.1,10,19.1,22.7,18.1,10.2-11.2-39.2-44.7-47-52.5-23.9-23.8-47-52.2-71.7-76.9-6.6-6.6-17.6-11.4-25.1-18.9-10.8-10.8-22.7-24.4-34.8-38.4,0,4-.1,8-.2,12,51.3,52.4,100.6,107.3,156.1,156.6Z"/>
  <path d="M431.8,1161.4c-32.3-32.6-62.9-68-94.5-101.5l-14.8-3.1c1.7,17.8,20.4,25.3,31.2,35.8,27.9,27.1,54.8,55.8,81.8,84.6,5.6,1.6,11.2,3.1,16.9,4.5-6.9-6.8-13.8-13.5-20.5-20.3Z"/>
  <path d="M442,1010.8c-10.4-13-14.5-33.7-34.6-35.6-3.7,21.4,16.5,26.6,26.2,37.5,44.9,50.1,87.4,111.5,130.6,163.3,6.8,8.2,13.7,16.1,20.6,23.9,4.7.1,9.4.2,14.1.2-19.4-23-38.1-52.3-58.7-76.8-31.9-37.8-67-73.4-98.2-112.4Z"/>
  <path d="M75.8,812.1c5.2,3,8.8,3.9,14.8,3.1-1.4-19.6-21.7-24.2-32.7-34.2-13.7-12.3-27.2-24.8-40.6-37.4.9,3.7,1.8,7.3,2.8,10.9,3.8,3.4,7.6,6.9,11.4,10.3,10.9,10,35,41.8,44.3,47.2Z"/>
  <path d="M371.7,1028.9c-5-3.9-10.7-5.7-16.4-8-3,20.3,19.6,25.7,31,35.9,48.1,43.1,93.6,92.4,141.4,138.9,4.2.5,8.4,1,12.6,1.4-25.4-23.9-50.8-48.2-75.5-71.7-26.7-25.4-66.8-76.3-93-96.4Z"/>
  <path d="M67.8,841.3c6.9-6.9-13.8-21.4-30.1-31.7,2.6,7,5.3,13.9,8.2,20.8,2.9,2.1,5.8,4.1,8.8,6.1,4.4,3,6.3,6.4,13.1,4.8Z"/>
</svg>