<?xml version="1.0" encoding="UTF-8"?>
<svg id="Layer_1" xmlns="http://www.w3.org/2000/svg" version="1.1" viewBox="0 0 1200 1200">
  <!-- Generator: Adobe Illustrator 29.0.0, SVG Export Plug-In . SVG Version: 2.1.0 Build 186)  -->
  <path d="M1144,630.6c-57.5-57.5-120.8-110.7-178.6-169.2-9.4-9.5-19.8-18.7-29-28.1-15.3-15.7-24-42.5-50.5-45.8-5.3,30.8,27.3,35.8,42.6,50.4,13.9,13.2,15.3,15.8,31.5,28.9,7.6,6.1,27.9,33.3,38.6,44.6,20.4,21.5,40.5,40.5,60.4,60.5,43.9,44.3,85.6,87.6,132.5,129.3.8-4.9,1.6-9.7,2.3-14.6-1.2-.9-2.1-1.5-2.6-2-18.9-17.4-30.5-37.3-47.3-54Z"/>
  <path d="M849.9,452.8c0,23,24.9,31.4,39.3,43.9,20.6,17.9,33.3,34.8,50.7,53.8,5.4,5.9,14.9,8.9,21,14.9,57.7,56.6,114.8,117.9,176.4,169.7,6.7,5.6,26,33.2,34.3,21.3,10.1-14.4-22.4-30.1-29.5-36-23.3-19.2-33.4-38-52.1-55.6-44-41.7-89.5-80.5-133.6-122.8-16.4-15.8-39-32.5-54.5-48.4-15.6-16-23.7-45.2-52.1-40.9Z"/>
  <path d="M1028.1,309c-10.3-14.3-12.8-35-33.4-41.8l-7.6,4.7c-.7,14.5,13.8,21,20.9,31.1,33.2,47.3,66,83.1,101.7,126.9,17.2,21.1,33.5,42.8,49.9,64.3,12.3,16.1,24.9,31,37.4,45.9-.7-6.7-1.4-13.4-2.3-20.1-45-57.9-88.1-117.2-133.9-173.6-9.2-11.3-23.4-24.5-32.7-37.5Z"/>
  <path d="M1075.3,297.7c-13.2-13.2-28.2-38.1-40.3-49.4-6.6-6.2-26-18.6-28.2-2.8,33.9,29.1,56.7,71.5,96.4,93,20.5,25.2,42.9,48.5,66.1,71.1-3-8.9-6.1-17.6-9.5-26.3-28.1-28.7-56.1-57.4-84.3-85.5Z"/>
  <path d="M1040.5,441.9c-21-15.3-55.4-71.3-73.1-82-6.5-3.9-11.5-6.2-19.4-5,.7,22.2,25.6,33.8,39.3,47.2,27,26.2,51.7,53.9,78.3,81.7,44.3,46.2,87.9,98.8,133.8,144.1.3-7.4.5-14.8.6-22.3-52.6-53.8-103.1-112.2-159.5-163.6Z"/>
  <path d="M1031.1,776.1c-16.7-13.8-32.3-26.7-49.6-40.3-59.6-47.1-121.7-95-180.7-144.2-17-14.2-29.8-39.1-55.5-37.6,2.1,26.2,32.5,33.1,49.8,45.6,29.3,21.3,59,48.2,88.1,71.9,59.7,48.6,118.1,99.7,181.9,145.6,3.3,2.4,32.5,34.4,36.2,16,2.7-13.1-58.8-47.4-70.3-57Z"/>
  <path d="M722.4,160.7c17.9,22.4,39.4,45.2,55.6,68.5,11.6,16.7,15.2,46.1,42.5,44,0-24.7-20.3-32.4-32.6-47.4-49.6-60.4-94.8-124.8-142.7-185.5-10.3-13.1-20.2-26.6-29.9-40.2-5.1-.1-10.2-.2-15.4-.2s-4.1,0-6.2,0c2.6,3.5,5.2,6.9,8,10.3,40.4,50.3,80.1,99.6,120.7,150.4Z"/>
  <path d="M1063.1,729.5c-19-19-23.5-24.2-45.5-42.7-53.3-44.9-109.5-90.1-161.2-137.6-15.7-14.4-23.2-38.4-48.9-34.3.6,23.5,27.3,29.4,42.2,41,22.2,17.3,42.9,38.1,63.9,56.9,49.9,44.6,98.2,89.7,150.3,133.8,6.1,5.2,46.4,38,49.5,38.8,5.8,1.6,7.5-.3,10.9-4.5-.6-5-3.4-9.2-6.5-13-10.7-13.2-42.7-26.4-54.7-38.4Z"/>
  <path d="M939.7,870.8c-27.7-26.2-53.9-51.5-82.9-77.1-50.3-44.4-100.3-90.1-148.5-137.3-4.1-4.1-27.8-21.5-31.5-17.5-2.7,24.4,23.5,31,39.3,44,23.2,19.1,45,40.5,66.9,60.5,59.8,54.6,119.1,113.5,182.9,163.2,11,8.6,17.9,25.7,34.3,22.8.8-5.5-1-9.6-3.7-14.2-6.9-12-44.3-32.6-56.8-44.4Z"/>
  <path d="M743.1,1062.3c-17.4-12.7-29.2-22.6-48.9-36-55.6-38.1-115.5-77.7-170.7-118.3-15.9-11.7-28-34.6-52.4-30.8-1,5.1.5,7.6,3.1,11.6,5.6,8.8,68.4,43.3,83.4,53.7,54,37.4,108.2,81.6,161.8,119,15.1,10.5,61.5,43.4,75.2,48.9,4.3,1.7,8.3,2.4,12.9,1.8.4-3.6.1-6.5-1.6-9.8-8.4-16-47.9-29.3-62.7-40.2Z"/>
  <path d="M368.1,159.1c72.7,64.1,153.8,116.4,226.9,178,6.2,5.2,13.8,7.5,19.9,12.8,12.6,10.9,20.4,30.7,42.3,27.9,1.1-23.3-24.7-27.2-39-37.7-61.5-45.3-118.7-97.6-177.7-143.9-18.2-14.3-39.4-23.4-57.4-38.9-10.8-9.3-17.6-28-37.7-27.5-12,12.4,15.2,22.8,22.7,29.5Z"/>
  <path d="M456.8,111.1c57.7,63.8,109.4,142.7,164.4,209.5,20,24.3,43.4,46,63.7,70.1,10.7-8.2,2.4-17.9-3.6-25.7-9.6-12.7-30.5-28.3-40.6-41.1-28.7-36.4-56.2-71.9-86.1-108.2-28.6-34.7-59-68.9-86.9-104.1-11.7-14.8-19.7-44.4-42.4-44.1-3.3,22.2,20.3,31.2,31.5,43.5Z"/>
  <path d="M223.6,332c16.8,12.2,32.1,30.4,46.5,42.6,45.6,38.4,101.9,71,140.4,114.3l71.2,52.9c21.1,6.7,15.6-6.4,4-17.1-11.9-10.9-36.3-21.9-49-32.6-69.4-57.8-143-112.6-212.7-171-4.2-3.5-7.9-11.7-14.2-16.8-6-4.9-26.4-20.6-29.4-6.6,8.4,19.8,28.1,23.3,43.2,34.3Z"/>
  <path d="M949.4,142.7c10.6-2.1-1.8-20.7-4.8-24.5-6.7-8.4-16.2-12.1-23-19.4-3.9-4.2-7.8-8.4-11.7-12.6-7-4.2-14.1-8.3-21.3-12.3,9.1,10.4,18,20.7,26.6,31.2,10.4,12.6,12.9,32.5,34.2,37.6Z"/>
  <path d="M877.7,142.6c11.8,13.4,18.7,36.5,40.7,36,.3-21.7-23.8-31-36.1-43.9-33.5-35.1-66.3-70.7-99.2-106.2-7.4-2.4-14.8-4.6-22.3-6.7,39.8,39.6,79.8,78.9,116.8,120.8Z"/>
  <path d="M837.9,954.6c-24.8-27.3-47.8-58.1-74-86-34.4-36.6-72.8-71.8-106.6-110.5-5.5-6.3-7.1-14.6-14.5-21.4-18.3-16.8-29.8-6.4-13.4,13.4,7.2,8.6,17.5,11.3,23.5,17.3,34.3,34.5,66.9,76.5,100.8,113.1,20.8,22.5,41.1,46.7,61.8,68.8,20.5,21.9,44.1,40.8,63.8,63.6l9.9-3.4c2.8-14.6-41.5-44-51.2-54.8Z"/>
  <path d="M361.6,204.8c59.3,64.7,132.6,126.4,187.9,191.8,12,14.1,18.5,40.5,42.4,39.9,3-21.3-16.1-27.4-27.8-39.1-67.8-67.5-141.3-145.1-202.9-213.4-9.5-10.6-18.4-34-35.3-34.9-4.9-.3-6-.3-5,5.1.6,3.2,35.6,44.9,40.8,50.6Z"/>
  <path d="M520.1,36.5c67.6,72.1,145.3,130.2,212.3,199.1,11.2,11.5,19.2,31.9,39,31.1,3.3-23.1-15.9-25.6-27.8-35.9-37.4-32.7-71.2-69.4-107.3-103.3-25.4-23.9-53.3-45.7-78.9-69.7-8.4-7.9-45.2-57.2-57.2-45.7-2.4,14.2,12.7,16.9,19.7,24.3Z"/>
  <path d="M851.5,185.2c6.6,5.2,12.8,7.4,21.3,6.4.2-24.3-25.8-29.9-40.7-42.5-56-47-110.7-97.1-165.2-145.4-7.1-.8-14.3-1.5-21.5-2,52.9,45.5,108.9,87.7,160.4,134.5,13.4,12.2,33.1,39,45.7,49Z"/>
  <path d="M934.9,931.1c-10.9-10.5-32.4-20.5-44.2-30.9-63.9-56.2-132.3-108.2-197.5-164.9-6.2-5.4-9.8-12.9-14.2-16.8-8.4-7.5-19.7-15.9-31.5-14.2,0,22.7,25.2,27.4,39,37.7,22.8,17,44.3,38.2,67.1,57,55.8,46.1,106.8,94.6,165.7,137.1,1.5,1.1,22.4,25.3,25.4,11.4,1.6-7.3-5.3-12-9.8-16.3Z"/>
  <path d="M987.3,816.6c-74.3-55.4-147.4-112.9-220.7-167.9-8.5-6.4-54.9-54.6-63.7-45.7l4.7,13.3c62.1,50.6,127.4,95.9,189.6,143.5,29.1,22.2,61.4,43.7,88.7,66.4,12.2,10.1,20.2,31.8,43.6,28.2-3.9-21.7-27.8-27-42.2-37.7Z"/>
  <path d="M848.3,1014.3c-22-18.1-34.5-28.6-55.1-47.8-55.6-52.1-125.8-98.4-183.5-151.2-12-11-19.3-32.1-40.7-29.5-.9,8.1,2.8,14,8.2,19.6,10.7,11.1,43.4,29,57.3,40.7,58.2,48.8,113.7,108.4,171.4,155.1,16.8,13.6,36.2,24.4,52.2,39.2,14.9-3.4-4.1-21.4-9.9-26.1Z"/>
  <path d="M753,1112.8c-88.2-46.4-178.8-100.3-265.4-152.6-18.3-11-33.4-28.6-55.8-30.7.3,22.7,28.7,24.9,43.6,33.1,90,49.4,173.1,110.5,265.7,158.8,6,3.1,11,10.3,17.1,12.4,21.4,7.1,10.3-12.8-5.2-20.9Z"/>
  <path d="M467.7,79.1c15,13.7,39.7,28.4,55.7,42.3,67.5,58.5,129.1,122.9,200.8,178,8.9,6.8,14.7,21,27.7,19.6.7-5.3-.9-9.9-3.6-14.3-6.6-10.7-39.9-29.5-51.7-39.8-47-41.2-92.1-82-139.4-123.5-20.4-17.9-42-35.7-61.8-54.1-12.3-11.5-18.4-32.7-40.7-29.5-1.6,9.7,6.9,15.7,13,21.2Z"/>
  <path d="M283.2,230.9c66.7,61.8,139.2,111.6,208.2,169.7,14.6,12.3,36.6,41,51.7,50.5,6.4,4.1,11.6,6,19.4,5-1.9-20.8-24.6-25.4-37.5-35.9-68.7-55.4-136.9-112.7-203.9-168.4-7.6-6.3-50.4-55.8-59-47.1-2.3,17.3,11.9,17.6,21.1,26.2Z"/>
  <path d="M285.7,316.5c59.7,46.8,125.5,90.2,183.7,139.5,12.6,10.7,19.6,30.3,40.8,26.1.1-20.2-23.8-25.5-35.7-34.5-70-52.9-148.9-113.7-214.7-169-2.6-2.2-3.9-7.5-7.4-10.4-5-4.2-25.1-20-26.4-6.4,1.3,7.7,49.7,46.9,59.7,54.6Z"/>
  <path d="M412.4,1032.1c-12.2-8.1-20.3-25.3-39.4-21-.3,22.3,29.1,24.5,43.4,32.5,23.3,13.1,50.4,33.9,75.3,49.7,36.1,22.9,71.5,49.4,107.6,72.4,5.9,3.8,32.5,20.3,52.7,32.1,7.9-.7,15.8-1.5,23.7-2.5-14.6-11-45.5-23.6-53.2-28.6-68.6-44-140.8-88.7-209.9-134.6Z"/>
  <path d="M776.9,1010.6c-16.4-10.7-31.4-23-49.3-33.9-53.4-32.7-108.6-63.9-161.6-98.1-16.6-10.7-27.3-27.7-49.3-27.5-.1,22.1,29.1,24.6,43.6,33.1,65.6,38.3,128.8,85.4,192.4,124.7,16.2,10,59.1,37.9,74.1,43.1,3.4,1.2,6.3,2,9.9,1.4,12.1-12.2-52.2-37.9-59.9-42.9Z"/>
  <path d="M361.6,593.2c-20.1-18.9-39.4-40.4-59.3-59.9-48.5-47.6-97.1-95.7-145-144-10.5-10.6-18-29.4-35.8-31.1-2.3,19,19.4,28.1,31.2,39,66.8,61.8,126.8,132.5,192.5,196.1,5.7,5.5,38.5,34.6,42.6,35.8,9.9,2.9,2.6-12.2-.2-16.1-6.8-9.7-18.3-12.5-26-19.7Z"/>
  <path d="M391,531.2c-72.2-60.1-146.6-122.5-216-184-6-5.3-8.3-14.6-18.3-19.2-2.8-1.3-19-6.5-15.5,2.4,23,19.4,44,40.9,66.9,60.4,57.7,49.1,121.2,95.1,177.8,145.5,11,9.8,19.8,31,39.4,30.8,1.5-20.7-22.2-25.8-34.3-35.9Z"/>
  <path d="M292.5,598.6c-52.1-52-106.8-102.9-159.3-155.9-10-10-14-30.9-34.6-29.1-1.4,20.2,18.1,24.7,29.1,34.6,63.3,56.8,119.7,123.4,184.8,180.9,8,7.1,8.3,20,24.5,16.3,8.5-8.2-38.9-41.2-44.6-46.8Z"/>
  <path d="M650.9,1139.8c-60.3-49.3-118-99.3-178.9-146.1-12-9.2-24.7-32-38.3-38.4-14.3-6.7-18.5,1.1-8.2,11.4,4.5,4.5,12.5,7,17.7,11.7,57.6,52.2,118,95.8,177.7,145.6,10.5,8.8,25.1,28.6,35.5,37.3,3.4,2.8,20.3,12.9,23.6,9.7-.9-18.2-18.8-22.8-29.2-31.2Z"/>
  <path d="M170.4,702.7c13.7,12.9,37.8,35.1,52.2,45.7,4.5,3.3,6.6,6.1,13.2,4.7,8.6-8.6-39.6-42.1-45.4-47.7-33-31.9-66.6-62-100.5-93.8-29.4-27.6-58.2-57.5-85.3-87.6-.7,5.9-1.4,11.8-2,17.8,15.4,13.7,34.9,27.9,38.9,31.6,44.3,41.7,85.3,88.5,128.7,129.2Z"/>
  <path d="M260.4,629.1c-44.3-36.6-88.2-75-131.4-111.9-13.1-11.2-26.5-22.4-39.9-33.5-11.5-9.6-29.8-33.8-42.6-39.1-4.2-1.7-11.3-4.6-10,3.4,20.2,16.6,37.4,36.9,57.1,53.9,46.2,39.6,98,76.4,145,116.2,13.4,11.4,31.6,35.6,46.3,45.2,17.4,11.4,19.2-.4,6.4-13-8-7.9-21.9-13.6-31.1-21.2Z"/>
  <path d="M343.7,1034c-4.2,3.7,27.2,29.3,31.1,32.5,55.1,46.2,121.1,87.8,178.4,131.7,3.4.3,6.8.5,10.2.7-60.9-45.9-130.8-96.7-186.1-143.1-8.7-7.3-15.5-25.5-33.6-21.8Z"/>
  <path d="M219.4,666.8c-53-47.7-104.9-98.8-155.7-146.4-8.4-7.9-19.6-26.3-28.3-33.7-5-4.3-11.4-8.5-18.4-7.7-.9,5.1.5,7.6,3.1,11.6,6.8,10.4,37.9,38.4,49,49,38.6,36.7,80.9,72.6,121.2,107.3,13.6,11.7,31.3,39.1,45.4,49.3,4.5,3.2,6.6,6.2,13.2,4.7,1.5-20.9-18.2-24-29.5-34.2Z"/>
  <path d="M304.5,1105.8c-1.8,11.5,4.7,18.1,12.7,23.5,10.3,5.5,20.8,10.7,31.4,15.7-13.7-15.1-25.3-32.7-44.1-39.2Z"/>
  <path d="M304.5,1087.8c0,3.9,54,40.2,62.2,45.5,23.9,15.6,48.9,30.4,73.9,45.3,7.3,2,14.6,3.9,22,5.6-46.2-30.4-91.3-64.5-137.5-94.2-6.2-4-15.4-10.8-20.6-2.2Z"/>
  <path d="M173.6,745.2c8,5.4,11.6,16.6,23.1,14.5,10.2-9.9-38.8-34.8-44.2-39.1-12.1-9.6-28.2-27.4-41.9-38C74.6,654.8,36.3,629.4,0,601.6c0,3,0,6.1,0,9.1,6.4,4.1,12.7,8.2,18.1,12.4,52.3,40.8,100.6,85.1,155.4,122.1Z"/>
  <path d="M150.9,766.2c1-7.2-5.8-10.4-10.6-13.8-43.9-31-91.2-59.7-137-88.6.4,4.1.9,8.3,1.4,12.4,39.3,24.4,79.6,47.6,115.1,73.8,9.7,7.2,14.8,19.5,31,16.3Z"/>
  <path d="M110.7,801.9c6.3,3.4,7.8,1.3,14.1.2,1.3-1.5-11-12.8-13.3-14.5-32.7-23.8-66.3-46.5-99.9-69.3.9,4.3,1.8,8.6,2.7,12.9,18.8,14.2,38.1,27.7,58.9,38.2,9.8,7.4,28.2,27.5,37.4,32.4Z"/>
  <path d="M92.1,851.1c2-15.7-14.2-17.8-22.6-24.8-4.8-3.9-13-9.6-15.6-12-7.3-6.7-14.5-13.5-21.8-20.3,1.5,4.5,3.1,8.9,4.7,13.4,4.3,4.2,8.6,8.4,12.8,12.7l42.5,31Z"/>
</svg>