<?xml version="1.0" encoding="UTF-8"?>
<svg id="Layer_1" xmlns="http://www.w3.org/2000/svg" version="1.1" viewBox="0 0 1200 1200">
  <!-- Generator: Adobe Illustrator 29.0.0, SVG Export Plug-In . SVG Version: 2.1.0 Build 186)  -->
  <path d="M832.4,163.3c19.9,16.5,39.7,46.1,59.8,62.6,6.5,5.3,13.7,12.2,22.9,11.4,0-23.1-25-31.4-39.2-44-37.8-33.6-72.5-71.3-108.9-105-29.4-27.2-61.2-51.7-90.5-77.7-1.8-1.6-4-3.9-6.4-6.6-6.7-.8-13.4-1.4-20.2-2,15.2,14.6,30.6,28.9,35,32.9,47.2,43.4,98.8,88.1,147.6,128.4Z"/>
  <path d="M926.6,181.8c6.9,5,14.5,10.9,21.1,1.7-7.4-22.5-26.9-25.8-42.4-39.2-43-37-86.1-77.8-128.3-117.8-10-3.1-20.2-5.9-30.4-8.5,43.4,35.6,86.6,73.2,129.5,109.9,14.9,12.7,36.1,43.5,50.5,54Z"/>
  <path d="M293.6,386.9c73.4,36.6,145.9,85.8,217.5,125.4,18.3,10.1,60,34.5,77.3,40.3,4.4,1.5,8.6,1.9,13.2,1.5.5-4.4-1.5-8.8-4.3-12-8-9-48.2-23.1-62.1-30.9-77.6-43.3-156.6-86.5-235-130.7-16.5-9.3-29.7-25.7-51.3-25.5.2,22.9,29.3,24.2,44.7,32Z"/>
  <path d="M830.4,979.8c-66.8-54.3-137.5-101.8-204.9-156-9.9-8-21.8-32.3-40.3-23.3,4.1,20.8,24.9,23.1,39,32.8,79.2,54.5,151,121.9,231.9,176.3,9.2,6.2,20.4,26.6,32.8,12.9-11.9-22.2-39.7-27.4-58.5-42.7Z"/>
  <path d="M722.2,337.1c13.8,10.4,21,28.4,42.6,24.3-2.1-22-25.9-24.1-40.3-33.2-72.6-45.8-145.3-95.9-216.2-143-10.6-7.1-42.9-38.3-52.3-39.2-5.8-.6-7.8.2-11.2,4.9l70.7,53.3c66.2,43.8,144.6,86,206.7,133Z"/>
  <path d="M457.6,226.2c77.9,46.9,154.6,108,231.2,157.4,16.4,10.6,35.4,18.8,51.7,30,3.2-.8,1.8-8.4.9-10.7-3.9-10.1-47-29.8-59.7-38.2-16.8-11.2-37-29.2-55.2-41.1-55.8-36.4-113.3-69.7-168.2-107.7-12.3-8.5-20.5-24.9-39.4-20.9-.6,19.5,26.5,23.8,38.9,31.3Z"/>
  <path d="M645.7,80.6c59.8,50,129.3,98.8,186.2,150.1,6.6,6,10.7,16.1,19.5,22.9,6,4.6,18.8,14.3,24.4,4.9-9-20-28.9-25.4-43.9-37.6-56.3-45.8-108.4-96.3-162.9-142.4-9.8-8.3-23.9-12.9-31.4-19.2-14.5-12.2-38.7-46.4-57.2-47.3-5.1-.3-5.7-.5-4.9,4.9,22.1,22,45.7,43.2,70.2,63.7Z"/>
  <path d="M240.1,414.2c79.5,52.5,168.6,91.5,246.9,141.7,13.3,8.6,26.3,29.3,46,20.9-5.8-19.8-26.9-20.7-41.4-28.8-73.2-41-143.1-85.6-216.4-123.2-9.6-4.9-51.5-44.6-62.3-34-2.4,15,17,16.7,27.2,23.4Z"/>
  <path d="M586.8,106.8c16.3,11.2,32,29.1,45.7,39.2,47.4,35.3,93.1,71.3,139.1,105.9,23.7,17.8,50,32.2,73.3,50.7,16-17.2-19.5-27.4-30.4-34.9-6.4-4.5-18.9-11.9-22.6-14.9-66.2-52.5-138.3-101.9-205-155.8-11.9-9.6-19.6-29.4-40.8-26.1.4,21.1,26.9,26.3,40.8,35.9Z"/>
  <path d="M996.1,149.3c-19.2-16.9-39.5-32.6-60.7-46.9,7.1,6.1,14.2,12.3,21.2,18.6,11.3,10.2,18.7,31.3,39.6,28.3Z"/>
  <path d="M329.4,338c78,53,161.6,99.3,238.7,152.9,6.8,4.7,14.4,15.4,22.5,20.2,3.4,2,19.2,10.1,20.8,2,2.5-12.5-35.9-26.6-43.5-31.5-62.3-40-122.1-85.2-183.2-125.4-12.6-8.3-25.9-11.1-36.3-17.6-16.1-10-36.9-35.8-55.6-39.1-4.8-.8-9.3-2.1-7.9,4.7,1.1,2.8,38.3,29.5,44.6,33.8Z"/>
  <path d="M357.6,316.3c88.8,39.4,169.1,84.9,255.9,126.2,14.8,7.1,31.3,11,45.4,20,8.7-.7,8.8-6.4,3.8-12.1-2.3-2.6-11.6-7.3-15.4-9-85.7-40.2-173.1-79.8-258-124-15.8-8.2-29.1-24.2-48.9-21.3-2.6,9.8,9.7,16.8,17.3,20.2Z"/>
  <path d="M970.5,849.6c-66.5-64-132.9-127.9-197-193.3-3.6-3.7-23.9-18.1-28.3-14.2,1.7,19.7,22.7,25.4,34.3,35.9,73.2,66.4,139.4,142.6,216.9,207.6,3.8,3.2,12.8,20.2,19.9,16,5.4-3.2,2.6-6.4.8-10.6-4.8-10.8-35.6-31-46.6-41.6Z"/>
  <path d="M693,430c11.9-13.1-50.9-36.7-58.5-41.1-66.9-39-136.5-76.6-203.9-116.2-12.9-7.6-22.1-22.9-41.3-22.3l2.1,13.3,301.6,166.2Z"/>
  <path d="M869.6,944c-72.1-51.6-152.8-111.1-221.2-165.8-7.5-6-13.5-21.1-28.8-21.8l-5,8.1c15.8,9.7,28.2,24.8,42.7,35.7,57.9,43.5,120.5,83.5,179.1,127.9,14.2,10.7,41.4,40,54.7,46.6,4.7,2.3,8.5,4.9,14.2,3.8,1.5-21.5-22.6-25.1-35.7-34.5Z"/>
  <path d="M583.6,168.8c15.1,15.8,31.4,30.8,48.4,44.6,29.5,23.9,59.1,49.1,88.8,72.9,15.4,12.4,37.9,29.9,54.1,40.6,3.8,2.5,14.3,9,16.1.2.9-4.2-11.2-15.1-14.7-17.9-69-55.7-141.2-107.8-210.7-164.8-5.1-4.2-39.5-43.4-39.3-19.6,0,10.2,47.1,36.3,57.3,44.1Z"/>
  <path d="M197.7,499c69.5,42.7,135.5,95,203.6,139.3,6.6,4.3,48.5,29.6,51.6,30.1,12.7,1.7.2-13.7-5.1-17.8-11.7-8.8-37.6-17.5-47.9-25.6-62.6-49.7-133.4-88.9-199.9-134.8-12.3-8.5-20.5-24.9-39.4-20.9,2.7,20.4,23.2,21.4,37,29.9Z"/>
  <path d="M1181.5,658.3c-51-64.5-104.1-129.1-154.8-194.6-9.5-12.2-12.7-32.2-33.2-33.7-2.9,20.4,17.8,28.4,27.5,39.4,60.2,68.1,111.1,148.5,172.6,218.1.7-4.7,1.3-9.4,1.9-14.2-5.1-4.9-10.1-9.9-14.1-15Z"/>
  <path d="M902.3,908c-63.4-48.2-126-98.3-188.7-146.1-9.3-7.1-24.9-28.6-35.7-34.5-3.7-2-19.6-8.8-17.5,1.1,2.2,10,11.8,9.1,17.9,14.7,67,61.4,145.4,112.5,215.6,169.8,12.5,10.2,21.2,28.9,40.8,26.1-1-18.6-20.9-22.4-32.4-31.2Z"/>
  <path d="M328.7,697.8c-64.7-41.2-129.3-84.1-193.3-125.2-7.7-5-21.7-20.5-30.6-26.5-4.1-2.8-27.7-12.8-22.6-.3,2.3,5.7,54.7,40.5,64.2,46.8,56.7,37.4,120.5,72.4,175.8,111.6,11.2,8,19.6,24.3,37.6,22.8,2.5-20.1-19-21.6-31.1-29.3Z"/>
  <path d="M195.6,791.7c11.9,7.1,65.7,52.1,76,43.1-3.1-18.8-26.5-20.9-38.9-28-72-41.4-142.3-84.5-213.7-125.9-3-1.7-8.5-5.9-15-10.7.6,5,1.2,10,1.9,15,.5.3.9.6,1.4.8,61.4,37.2,127.3,69.2,188.2,105.7Z"/>
  <path d="M1107.8,408.8c-9.5-11.8-10.7-28.3-29.4-31-2.3,7.9-2.6,9.3,1.7,16.1,8.5,13.5,33.2,32.3,44,45.3,24.9,29.7,48.2,61.4,72,92.5-.7-6.1-1.5-12.1-2.4-18.2-5.4-6.5-10.9-12.9-16.2-19.3-23.5-27.9-46.8-57-69.7-85.4Z"/>
  <path d="M957.6,492c1.4,17.1,19.2,24.4,29.4,34.3,40.7,39.4,81.9,84.3,122.6,125.5,19.7,20,38.9,44.9,60.6,63.5,3.5,3,7.8,5.8,12.8,5.2,3.1-17.6-14.8-23.4-24.6-32.7-20.1-19.1-36.9-44-57-63.7-6.9-6.8-14-13.1-20.8-20-29.2-29.1-62.3-56.3-90.3-87.7-9.7-10.9-10.4-27.9-32.6-24.5Z"/>
  <path d="M643.9,1130.4c-65.5-36.9-130.5-75-195.5-111.5-13-7.3-40.4-30.3-52.4-32.6-14.9-2.9-8.4,7,0,13.1,29.1,21.2,67.4,40.1,98.8,57.9,39.2,22.3,79.7,41.5,118.9,64,21.7,12.4,43.7,37.7,69.5,36.6-5.7-19.6-25-19.5-39.3-27.6Z"/>
  <path d="M408.8,691.1l-6.7-14.5c-39.8-23.2-81.3-44.8-120.4-69-8.9-5.5-17.8-15.8-24.3-19.7-28.2-17.3-57.9-32.7-86-49.6-8.6-5.2-57.6-42.1-63-36.6l3.3,11.4c22.5,11.6,42,27.8,63.5,41,57.2,35.3,118.4,69.6,175.6,105.2,7.7,4.8,53.6,36.2,58.1,31.7Z"/>
  <path d="M214.9,478.5c14.7,7.7,37.8,12.1,53.1,18.8,57,24.9,113,56.2,170.2,81.1,5.7,2.5,50.3,20,52.2,18-.7-25.5-37.8-22.2-55.4-31.1-63.2-32.1-128.4-57.5-193-87.8-12.5-5.8-20.9-19-39-14.9-2,10.8,4.3,11.9,11.8,15.9Z"/>
  <path d="M1039.1,764.7c-57.8-47.9-119-94.6-176.4-143.6-10.8-9.2-16.4-25.3-35.8-27.9-1.8,11,3.6,16.6,11.4,22.8,12.4,10,34.6,20.3,47.5,30.9,45,37,89.1,80.6,134.1,117.4,19.2,15.7,40.8,28.6,59.3,45.2,3.7,4.3,12,1.1,12.1-2.4.1-8.2-42.7-34.5-52.3-42.4Z"/>
  <path d="M925.2,878.6c-59.3-53.7-115.8-116.2-171.1-170.2-2.7-2.6-7.2-3.7-10.6-7.3-9.8-10.1-15.6-27.8-34.2-26.3-.6,13.2,12.8,16.6,19.7,24.3,51.1,57.1,110.1,105,164.9,158.4,14.7,14.4,32.3,38.5,47.2,50.7,4.7,3.8,9.8,8.7,16.4,8.1,2.8-20.6-20.8-27.4-32.4-37.8Z"/>
  <path d="M1048.1,385.3c-6.5-5.6-13.7-4.3-10.8,5.7,1.2,4.2,32.9,51.5,38.4,59.6,36.5,53.9,78.3,105.7,115,159.3,2.6,3.8,5.6,9.3,8.8,15.4.2-6,.4-12,.5-18-42.6-61.1-88.8-121.2-126.7-183.6-12.1-9.2-14.5-29.1-25.2-38.4Z"/>
  <path d="M685.2,1128.1c-3.4-2.7-4.3-6.5-6.3-8.2-62.1-52-130.5-101.6-191.8-156-10.3-9.1-16.1-27.7-35.8-24.6-2.3,2,5.6,12.9,7.7,15.1,11.2,11.8,40.7,27.1,54.5,38.5,53,43.7,101.7,92.2,155,135.6,4.3,3.5,45.5,35,47.3,32.7,3.4-20.5-18.9-24.1-30.6-33.2Z"/>
  <path d="M775.8,1006.7c-55.8-46-114.4-90.3-169.8-137.2-9.6-8.1-14.4-25.7-33.8-21.7-1.3,8,2.6,11.7,8.1,16.3,12.4,10.5,36.9,23.1,50.8,34.1,55.4,43.6,107.3,95,166.2,134.3,8.9,5.9,12.2,17.8,26.3,14.5,10.5-9.5-43.6-36.7-47.9-40.2Z"/>
  <path d="M749.6,1036.1c-64.5-41.2-130-84.4-194.8-126.8-12.6-8.2-18.5-23.3-38.1-19-9.6,7.2,62.5,42.7,67.1,45.6,48.3,30.5,96.4,67.1,144,97.5,24.4,15.6,49.8,31.3,76.3,43,11.6-12.5-47.8-36-54.5-40.3Z"/>
  <path d="M289,721.1c-63.7-32.7-127.3-67.7-190.2-100.5-9.7-5.1-45.8-36.1-55.8-27.4-1.1,5.5,2.8,8.5,6.6,11.3,10.3,7.4,33.3,19.5,45.5,26.3,61.9,34.4,131.1,62.8,192.4,98.2,4.4,2.5,36.4,30.8,39.5,15.9,2.6-12.5-30.9-20.1-38.1-23.8Z"/>
  <path d="M639.2,1190.6c-11.6-8.3-31.9-16-43.2-23.9-61.5-42.8-124.1-85.9-186.9-128.2-11.2-7.6-18.9-21.1-36.2-20.9-1.2,6.6.8,8.7,4.8,13.1,8.1,8.9,41.4,23.1,53.6,31.3,48.1,32.5,96,70.6,143.3,102.6,7.1,4.8,35.9,23.9,53.8,34.7,6.1-.3,12.2-.7,18.3-1.1-2.5-2.8-4.9-5.7-7.5-7.6Z"/>
  <path d="M293.6,775.4c-25.6-15.7-58.2-28.5-84.8-42.5-48.7-25.8-98.7-51.3-147.3-78.1-12.4-6.8-21.5-23.9-41.3-19.1-3.5,3,7.3,12.7,9.9,14.5,13.7,9.4,46.6,19.8,64.1,29.1,53.6,28.6,108.1,64.7,163.2,93.1,9.1,4.7,26.5,13.2,35.6,16.7,15.9,6,13.7-5.7.6-13.7Z"/>
  <path d="M1134,328.8c-4,18,11.3,25.8,19,38.1,0,0,0,0,0,0-5.4-12.8-11.2-25.3-17.4-37.6-.5-.2-1.1-.4-1.6-.5Z"/>
  <path d="M877.1,686.7c-15.8-16.4-33.2-32-48.2-48.2-8.9-9.6-12.5-28.5-29.7-25.8-7,11.5,9.2,14.8,14.7,21.3,46.5,55,99.6,101.1,150.4,153.3,10.1,10.3,30.3,39.8,38.8,46.1,5.8,4.3,9,5.8,16.5,4.7.4-7.1-5.1-13.3-9.6-18.1-41.2-44.3-90.4-89.2-132.9-133.2Z"/>
  <path d="M716.1,1064.7c-67.3-38.5-136.6-76.6-203.9-116.2-11.6-6.8-20.4-22.2-38.1-19,.2,3-.9,6.4.7,9.1,2.7,4.6,29.7,13.9,36.3,17.4,63.4,34.1,126.1,75.8,189.3,111.2,21,11.8,44.4,19.6,64.1,33.9l10-3.5c-.3-9.4-48.4-27.1-58.5-32.9Z"/>
  <path d="M1098.1,715.5c-17.3-21.5-33.5-43.8-50.3-65.6-30.2-39.1-63.2-77.8-93.4-117.2-7.9-10.3-11.2-32.3-29.4-30.9-4.4,4.4,26.1,45.2,31.3,51.9,43.8,57.2,95.1,110.3,136.5,167.1,7.3,10.1,11.5,30,28.1,32.3,4-18.8-12.8-25.2-22.8-37.6Z"/>
  <path d="M217.9,837.9c-68.2-26.7-130.9-65.4-196.5-97.4-1.8-.9-3.6-1.7-5.5-2.5,1,4.2,2,8.4,3.1,12.6l203.6,100.6-4.7-13.2Z"/>
  <path d="M173.5,872.5c6.5,2,13.1,1.8,19.7,1.5.9-7.9-7.1-12-13-14.7-29.4-13.6-72.1-24.2-103.5-36.9-13.4-5.4-27-10.9-40.5-16.4,1.3,3.6,2.7,7.2,4,10.7,29.5,10,58.9,19.9,86.3,31,12.3,5,36,21.6,46.9,24.9Z"/>
  <path d="M333.7,1050.3c-1.2,5.8,2.9,8.2,6.7,11.2,57.4,45.9,131.5,82.9,193.1,123.7,2.7,1.8,9,6.8,16.6,12.7,5.5.5,11,.8,16.6,1.1-59.2-38.1-117.5-78-176.5-115.5-9.5-6-48.7-40.2-56.4-33.3Z"/>
  <path d="M1065.3,725.5c-30.6-27.2-61.3-55.4-92.5-82.2-18.9-16.3-39.2-31.6-57.8-48.3-9.6-8.6-14.6-24.3-32.5-24.6-.8,7.3,1.8,12.5,6.8,17.7,7.8,8.2,33.4,22.2,43.9,31.2,43.2,37.3,83.8,80.6,127.4,117.5,5.3,4.5,44.1,36,47.2,32.7-.4-20.6-27.9-31-42.5-44Z"/>
  <path d="M165.6,922.9c-4.2-7-37.7-17-48.1-23.1-2.5-1.5-3.2-4.3-4.1-4.8-16.9-9.6-33.9-18.9-51-28.2,3,6,6.1,11.9,9.2,17.8,19.2,11.5,38.3,22.6,57.3,32.4,5.9,3,49.5,27.4,36.6,5.9Z"/>
  <path d="M355.4,1106.9c-3-2.1-7.2-2.1-10.2-4.4-9.7-7.1-15.8-21.6-31.1-19.6-4.9,4.4,22.6,24.3,26.5,27.4,29.1,23.5,62,45.2,94.8,66.8,6.4,1.8,12.9,3.5,19.4,5.2-.6-.5-1.3-1-1.9-1.5-30.3-27.3-64.8-51.4-97.5-73.9Z"/>
  <path d="M121.4,931.1l-29.1-11.3c2.6,4.1,5.2,8.1,7.9,12.1,3,1.3,5.8,2.2,8,2.7,6.4,1.4,8.8,2.8,13.2-3.5Z"/>
</svg>