<?xml version="1.0" encoding="UTF-8"?>
<svg id="Layer_1" xmlns="http://www.w3.org/2000/svg" version="1.1" viewBox="0 0 1200 1200">
  <!-- Generator: Adobe Illustrator 29.0.0, SVG Export Plug-In . SVG Version: 2.1.0 Build 186)  -->
  <path d="M311.6,614c0-1.8-2.2-33.9-2.6-35.7-1.1-4.7-7.6-7.5-8.3-15.6-.7-9.4,4.7-12.5,5.2-16.7,0-.7-3.5-12.3-3.9-12.8-1.3-1.3-25.6,4.3-30.7-5.5,12.1-19.2,33.8-19.6,52.1-28.6,1.3-7.2-6.1-11.6-6.4-17.3-.6-9.5-1.7-18-2.4-27.6-.8-10.7,3.4-48.7-5.3-54.4-9-5.9-25.9.1-27.1-23.1,9.2-12.3,19.9-7.2,29.6-9.5,8.3-2-.8-15.7.3-22.4.8-5.2,7.1-6.5,7.9-11.7.8-5-3.6-12.8-3.9-19.3-.8-16.7,2.3-33.6,2.4-50.3l7.5-2.1c.4-4.7-44.6-5.7-32.2-30.1,1.3-2.6,33-4.4,36.6-13.2l-5.9-21.7,7-1c7.2-16.1-13-24.7-11.8-40.2.4-5.4,5.8-9.4,7.2-14.5,2.9-11.3-1.6-22.7,7-32.6-8.2-10.9-15.9-5.5-26.2-3.7-16.6-33.8,13-20.4,23.2-25.4.8-.4,2.5-11.8,12.4-11.5.4-3.9-3.3-5.2-6-7.1-29,14.2-56.7,30.6-82.8,49,1.4,7.2,3.1,14.7,1.4,22.1l-9.7.7,11.6,7.9-11.7,14.8c-10.8,3.2-7.6-10.4-17.3-7.8-.6,4.9-5.6,10.8-5.6,15.3s3.4,5.6,3.4,7.7c.2,5.8-2.2,13.2,0,19.8l19,5.1c1,8.9-6.3,14.3-6.1,23,.3,9.9,10.9,30,12,42,1.7,19.4-4.4,53.3-30.8,41.3-7.7,11.5,1.7,22.8-.7,35.1,4.2,7,23-5.8,26.9,10.2,1.9,7.9-7,35.3-6.9,47.1,0,18.7,21.1,54.8-20.9,36.3-6.4,10.5-11.8,31.1-1.4,40.1,5.6,4.8,20,4.6,25.1,12.8-14.6,13.9-6.1,28.5-6,43.7,0,5-2,10.3-2.1,15.9,0,7.8,3.7,15.6.9,23.6-2.1,5.9-13.8,8.7-12.5,17.9l-16.3-10.4c-1.8,1.6,7,43.6-7,42.9,5.3,9,20.1,3.3,28.4,7.5,4.2,2.1,9.2,12.8,8.7,17.4-.5,4.3-5,5.6-6.5,9.2-1.4,3.3,3.1,18.4,1.9,26.2-1,6.5-5.2,12.9-5.3,19.1,0,4.9,3.5,9.9,3.8,15,.9,16.7-16.9,22.7-26.8,9.2-1.9,12.1,3.3,27-9,34.4,14.6,11.7,42.3,5.3,34.1,31.6l-7,1c-1.7,10.8,5.5,22.4,5.7,29.2.3,14.1-13.2,26.9-4.5,42.7l-8.8,8.1-10.4-7.7c-1.3,11.9-13.4,40.6-6.1,50.1,3.9,5.1,21,4.3,17.2,14.1-.9,2.3-5.9,2.4-6.8,3.8-1.9,3,0,9.5-3.4,12.8-3.6,4.3-18.1,3.3-23.3,2.2-3.4-.8-8.7-11.8-9.4-15.6-1.2-6.8,5-13.3,4.6-16.7-.4-4.2-10.5-17.5-11.7-26.2-.8-5.8,1.7-9.6,1.4-12.9-1-9.9-11.3-21.2-7.2-33.2-10,1.6-21-3.1-21-14.5s10.5-9.3,5.9-19.9c10.3,7.5,15.5,4.1,26.3,1.3l-9.1-3.2c-1.9-4.8-2.8-10.1-2.1-15.4.2-1.9,8.2-23.3,9.1-24.3,1.1-1.2,10.5-1.1,11.8-6.1-.3-4.4-4.4-6.2-6-10.4-4.7-12.9,2.6-10.5,4.7-16.4,1.6-4.5-1-8.8-.3-11.6,1.6-7.4,7.6-15.1,4.5-24.5-6.7-8.5-41.8-7.1-39.3-17.7,9.4-11.9,24.2-18.6,39.2-18.8-16.5-17.3-6.8-24.2,11.3-31.8-12.2-2.6-17.9-14.7-19.2-26.2-.3-2.6-1.6-25.9-1.5-27.3.6-6.4,11.3-15.9,2.6-22.9-1-.8-16.3,6-23.5-7.3-2.9-5.4-2.3-16.4,3.6-19.3,2.5-1.3,6.1,1.7,9.4.6,5-1.7,10.6-8.1,17.4-7.5-6.7-12.1-7.4-36.8,9.3-39.2-9.1-20.6-4.9-41.7-6.4-64-11.6,2.5-27-10.3-24.6-21.8.8-3.8,34.7-12.7,40.9-15.8-.6-4.3-6.8-4.3-9.3-8.7-4.2-7.1-3.5-21.9,6.2-23.9-16-20.9,4.3-53.9-1.4-74.2-2.9-10.4-30.7-2.9-28.8-21.2,1-9.7,15.5-14.2,23.8-14.4-6-8.6-2.4-19.9-5.8-30.2l9.9-4.6c-6.7-11.9-1.4-23.2-1.8-33.7,0-1.8-.4-3.5-.9-5.3-24.7,22.7-47.5,47.4-68.1,73.8-.7,12.9,9.5,34.7,8.8,46.6-.5,9.4-12.3,20.3-13.4,30.3l-12-.7-6.4-16c-1.1,12.4-7.5,23.4-4.3,35.7l-9.8,3.2c10.1,3.6.8,15.1,7.3,20.7,18.5-12.1,44.4,3.5,19.5,19,1.6,2.3,3.7,5.1,3.9,7.9,1.2,14.2,0,30.1.7,42.7.2,3.7,4.7,6.7,4.1,9.6-1.6,7.6-18.6,17.8-27,17,0-4.8,2.3-8.5-4.4-7.5-1,8-7.9,34.7-2.1,39.6,40.2,9.6,28.6,0,25,32.9-.6,6,1,12.4-1.3,18.6l2.2,48.1c-10.6,5.6-4.9,3.6-5.2,9.6-.5,9.2-18.6,7.2-20.4-2.6l-10.6,2.1,1.6,13,7.2,1.9c-2.1,6.7-6,2-9.8,3.1-.7,4.2,4.4,5.7,5.7,8.8,1.9,4.7-3.1,11.3,2.7,15.8,33.6-2,24.4,6.4,23.2,29.8-1.2,21.5-1.7,44.7-8.6,64.6-.9,2.5-.4,5.6-.6,8.3-8.4-6.3-14.3-13.9-23.3-2.4,5.8,9.3-1.5,22.8,2.6,34.9,16.3-.4,30.2,4.9,24.6,23.7-1.4,4.6-7.1,8.1-6.9,11.7.8,16.8,7.2,39.5,5.4,58-.3,2.6-4,15.4-6.3,15.8-4.6-.4-10.1-1.1-14.3-2.9-4.7-2-1.1-6.9-7.7-5.6l-1.8,21.9c4.5,8.2,9.3,16.4,14.2,24.3,7.1.5,13.8,1.9,13.6,9.1,0,2.5-1.4,4.9-3.3,7.2,19.3,29.3,41.1,56.7,65.1,82.1,1.9-11.1,6-32.7,5.1-34.1-17.1,6.9-32.2-5.8-27.7-23.9,1.4-4.8,22.1.5,27.9,0,5.4-.5,8.1-3.6,12.2-4.2,8.9-1.3,17.3,4.3,24.2-6,5.3.2,8,30.4,6.8,34.8-.8,2.8-6-.4-5.1,3.6l7.2,1.6c-5.6,9.1-1.4,22-4.5,30.5-2,5.6-16.4,8.8-17.3,18.8l9.5,1.7c-4.4,3.9-7.3,4.6-7.6,7.3,27,24.8,56.3,47.2,87.6,66.7,1.7-2.9,4.1-5.9,3.2-9.7l-.4.8c-8.6-.2-17.9.3-23.6-7.2.2-4.1,31.4-10.9,34.3-20.4,1.4-4.6-1.5-8.3-1.2-11.8.6-6.1,3.6-14.6,2.5-20.6-2.7-15.5-17.1-22.2-11-42.1,1.9-6.2,1.8-4,3.2-13.9.6-3.9,6.1-8,4.8-13.3-8.1,0-34.6-5.6-35.4-15.1,3.1-9.7,16.7-6.9,22.2-8.4,8.6-2.4,16.7-8.9,26.8-7-7.4-9.8-22.8-15.4-17.2-30.4,1.1-2.9,4.8-4.3,5.8-6.3,2.6-5.5,3.5-27.4,2.8-34.4-1.1-11.5-10.4-19.1-4.1-33-11.2-12.8-7.6-6.6-18.8-7.9-17-1.9-14.2-14.4-9.4-27.1,5.1.8,8.2,2.1,13.7,1.6,30.5-3.2,14.3-14.6,19.2-34.7,3.3-13.2,11.8-7.9,5-29.8-3.8-12.3-10-22.8-11.3-35.7-.6-6,3.7-14.3,5.8-19.9-14.7-1.4-32.7,4-30.6-17.2,1.3-13.4,32.8-13.4,44.2-13.3-23.1-18.5-1.9-27.5-1.3-37.3Z"/>
  <path d="M59.7,638.9c1.7-11,3.7-27.9,3.1-39.8-.3-5.8-6-11.6-.7-20.8l-14.4-.8,4-7,8.1,5.2c3.4-21.5-7.4-9.5-14.9-15-9.9-7.2-11.4-27.4,2.8-30.4,6.5-1.4,12.8,3.4,20.2,2.5,9.4-1.2,20-18.4,33.1-10.4l-6.6-11.1,9.8-3.2-1-4.9c-10.6,3.6-24.5,1.7-26.7-10.3-.6-3,2.6-6.9,2.2-7.5-.4-.6-4.4-1.2-5.7-2.8-11.6-14.3-7.7-54,2.5-69.7-17.7-2.4-44.1,2.2-32.5-24.7,11.6-3.9,25,4.2,34.1-5.4-9.6-11.7-10.8-37,9-34.4-18.1-14.7-9.1-30.2-7.1-46.2C39,372.1,12.8,450.3,3.6,533.8c1.5,2.6,2.6,5,2.7,6.9.2,3.9-3.4,26.8-6,40.5-.2,6.3-.3,12.6-.3,18.9,0,76.3,14.2,149.2,40.2,216.3h0c1.8.5,3.6,1.1,5.5.8,2.1-.3,13.8-8,14.3-9.6,1.5-4.8-6.3-4.9-6.9-8-1.3-6.5,9-25.5,8.9-35.2,0-5.2-7-20.2-7.6-29.4-.7-12,1.7-24.8,1.6-36.9-10.1,3.6-24.6-5.7-13.7-13.9l-4.7-2.6,32-15.2c-15.2-3.8-11.9-14.8-9.9-27.5Z"/>
  <path d="M415.4,1035.3c.3-8.3-12.1-22.9-12-25.1,0-1.3,11.2-15.7,11.4-18.6.2-3.3-10.5-23.4-4.7-32.7-6.1,4.1-26.3,1.3-28.3-5.4-2.3-7.7,5.2-16.3,11.8-19.2,6-2.7,20.5-3.6,25.4-8.6,6.1-6.4-13.6-2.9-13.2-13.3.4-8.7,6.6-16.8,15.7-17.6l1.8-4.9c-8.3,3.6-15-9.8-15.9-16.5-2-14.9,2.6-38.6,5-53.7-14.6,5.6-29.2-16.4-21-30.2,5.5-3.6,29,5.8,30.2-4.2,1.1-9.4-8.3-13.4-8.8-19.8-.7-8.3,8.4-14,7.7-20.6-.5-4.8-8.3-16.6-9.6-23.1-1.3-6.5,1.4-14.3-2-21.1l5.1-2.3-6.5-14.8,9.5.6c.8-15.7-22.5-18.4-20-32.3,1.5-8.6,19.8-10.3,27-9.5,1.7-7.7-3.7-16.3-3.5-23.2.2-6.3,4.7-10.7,4.8-15.9,0-9.7-11.9-23.3-2.2-36.4l-4.9-3.1c2.4-10.7,9.5-25.6-3-31.1l12.2-5.4c-11.2,1.1-26.1-3.4-25.5-17,.5-11.5,11.9-9.3,16.7-11.8,5.4-2.8,10.4-7.5,15.6-10.6-18.3-3.6-.9-19.8-.9-31.1s-1.6-25.8-1.9-28c-1-6.4-8.1-14.1-7.6-23.3.2-4.3,4.6-2.7,5.2-4.8,1.7-5.8.8-15.6,3.6-22.2-7.8-2.4-17.7,3.1-24.7.7-7.9-2.7-8-17.3-1.9-18.9,8.1-2.1,5.7,6.9,10.4,7.7.7-12.3,12.1-15.4,22.5-16.9,0-5.5-8.6-10.9-5.2-20.7,1-2.9,5.7-5.9,5.9-8.1.8-9.1-6.6-28.5-6.8-36.7-.3-9.6,7.1-17.7-1.1-26.2l9.8-4.2c-1.8-8.5-14.5-14.3-16.9-5l-3.2.3c-2.8-3.9-9.8-8-9.6-13.1.7-20.3,17.2-24.3,34.4-26.4l-7-4,14.2-41.3-4.7,2.1c-7.7-14.8-4-26.1-2.7-42.3.8-9.7-4.5-15.9,5.5-23.6l-11-11.4c1.3,3.9,7.9,18.2-2.3,12.4-3.7-2.1-13.8-19.6-13.1-24.1,1.2-7.8,11.3-3.3,14-4.2,7.3-2.4,3-8.1,20.8-9.7,11.5-1-1.5-6.1-2-7.1-4.9-8.5,3.3-25.1,3-32.1,0-1.8-4.3-1.6-5.4-4.7-.4-1-.8-2.2-1.1-3.3-24,6-47.4,13.4-70.2,22.2.5.4,1,.8,1.6,1.2,4,7.2-1,13.2-.8,20.5l-.3.2c.2,7.2,5.2,13.2,5.8,20.1,1.2,14.5-4.8,41.5-5.7,57.5-.2,4.6,1.7,8.8,2,13.3-8.2,2.1-21.2-6.9-26.6-.4-5.9,7.1-2.4,26.1-1.6,35,11.8-4.8,18.9-4.1,31.1-.7-.9,5.2.9,17.6-1.5,20.9-.9,1.3-5.8,1.2-6.6,3.9-.5,1.7-2.9,28.3-3.5,33.8-1.9,18,2.9,38.6-14.5,52.9-2.1-6.1-8.8-9.3-15.1-10.4l-4.3,37c9.9-1.9,13.1,4.1,20.7,6.6,7.8,2.6,18-2.5,17.2,9.8-.5,7.5-6.6,8.4-7.7,12.1-.9,3.1,1.5,7.1.8,10.9-2.3,13.3-10.1,25-8,38.2,1.5,9.2,15.4,25.5-7.9,25.6-7.7,0-10.5-6.1-17.7-6,3.8,9-6.6,31.3-5.9,35.8,1.6,10.3,35.3,10.7,31.3,30.4l-6.8-7.5c0,5.3,1.2,10.2-5,9.6l-.5,4.5c11,1.9,9,15,15.7,22.5-15.2-2.2-7.7,15.7-8.3,24.8-.6,10-5.8,17.7-1.6,28.3l-8.7,6.2-17.6-8.4c-6.2,13.4,0,29.3-8.8,41.6l5.1,5.2,26,2.6,3.8,6c-12.7,11.7-2.5,14.4-1.8,24.4.6,8.2-6,25.3-6,30.2s3.7,7.9,4.1,12.6c1.3,15.1,5,30.6-14.6,29.4-9.5-.6-7.5-1.7-11.8-7.9-7.5-10.9.5,14.6.5,15.6,0,3.8-3.3,7.8-2.6,11.3.8,4,10.3,9.7,5.9,18.8.7.9,15.4-5.6,18.4,7.5,2,8.4-3.8,10.6-4.2,13.7-.4,3.5,6.5,12.5,7.2,17.7,3.1,20.5.6,71.2-31.2,56.7-1.7,4.2,3.5,6,3.5,8.6s-3.9,5.8-4.4,9.5c-1,7.5-.7,15.1-1.3,22.6,13.9-.5,25.5,3.2,35.5,12.7-14.5,24.5-1.1,58.5-16.4,83.2l4.4,4.5c-4.2,19.6-22.8,12.8-24.4,15l-2.9,28.5,18.1,16c-1.8,20.5,6.6,43.4-4,61.6l7.3-2,6.1,23c-.9,1.9-1.9,3.6-2.9,5.3,17.1,8.1,34.7,15.5,52.7,22,1-5.8,2.2-11.8,2.6-17.2.2-3.5-1.9-7.1-1.7-10,1.2-13.9,3.9-28.6,6.6-42.3l-23.3-11.1,14.3-14.5c21.1-5.8,8.7-6.9,11.5-20,1.4-6.7,9.7-8,9.9-13.6Z"/>
  <path d="M653.4,709.1c-.8-5.9-6.1-12.1-6-15.3,0-1.4,4.4-.7,5-2.5,3.3-10.6-1.3-29.4,4.5-41.4-16.9.6-34.2-3.9-22.8-24l30.9-14c-.5-10.9-2.3-17.5,9.4-22.4-11.3-6.7-2.6-25.3-5.4-35.7-.7-2.7-15.6-10.1-11-20.3,13.5,1.9.4-4.5.3-5.2-1.7-9.4,2.9-14.3,6-22.2l-16.6-3.3,4.4,7.4c-8,5.5-28.1-19.7-12.6-32.9,9.9-8.4,16.9-.6,24.8-2.8,13.3-3.7,4.5-19.5,5.2-27,2-19.6,4.9-39.6,8.2-59.6,1.7-10.2,4.4-26.8-7.5-30-21.5-5.8-36.8,7.7-28-28.4l35.8,1.7c-1.5-5.5,5.4-11.6,5.3-14.8,0-2.9-3.7-6.8-3.8-12.5-.4-27,.7-54.4,2-81.4-7.9-7.9-33.6-7.8-32.9-21.2.7-13.1,22.4-6.1,25.8-21.1l16.2,2.8c-1.7-10.4-5.6-12.1.3-22.4l-3.4-78.8c-4.8-19.2-35.3-9.2-33.1-29.3,1.8-16.7,12.7-9.3,20-10.1,8.6-.9,19.3-12.5,31-7.7-13.3-9-9.3-17.5-5.7-26.3C667.3,3,634.1.2,600.2.2h-.7c-1.5,4.4-3.3,8.7-5.9,13.2,11-.5,22.2-.4,32.4,5.1,5.9,10.8-5.4,16.1-6.9,20.7-1.7,5.2,4.4,11.6,5.5,17.1,2.1,10.5-3.3,17.6,8.5,26.7-8.6,7.8-9.1,24.6-14.6,31.3-5.6,6.8-15.1,3.9-20.9,9.8,5,7.4,3.5,16.4,6.5,23.8,3.8,9.1,15.5,10.9,15.2,20.7-.3,10.3-9.8,8.8-10.4,11.6-1.7,7.9,9.8,23.2,10.5,31.6.2,2.1-1.3,31.1-1.7,33.3-.2,1.5-7.9,18.7-9.3,20.3-4.5,5.3-7.5,2.4-13.4,1.5l-1.7,33.5c30.6-8.8,18.4,36.5,18.8,55,.5,23.6,15.8,64.2-24.7,56.5l-3.6,3.4-2.7,28.7c6.6,0,33.4.9,35.5,8.1,2.7,9.5-9.5,11.6-10.2,18.3-.5,4.6,3.6,13.3,3.7,19.7.3,16.7-4.3,35.8-1.4,52.8-7.6,11.5-16.4,21.3-29.6,9.3-4.5-4.1-3.1-10.6-7.7-12.5,5.4,17.2-5.5,29.2-5.1,46.3l-18.1,7.8c.9-11.2-7.6-27.4-6.5-37.4.2-1.5,4.5-.9,5-2.7,3.6-11.6-6.7-17.2-12.3-25.3l-8.2,1.8c-1-11.6,14.2-2.1,14.9-10-13-6.3-28.6-11.6-16.8-28.8,32.6.2,23.5-18.6,31.8-38.1,1.5-3.4,5.4-3.2,5.5-4.4.4-4.7-7.7-23.3-7.9-33.9-.3-13.5,3.3-26.4,6.8-39.3l-8.6,4.3c-3.1-10.3-20.8-14-21.3-24.3-.3-6.1,7.9-6.6,11.9-8.9,1.8-1,2.4-4.4,3.4-4.9,3.6-1.9,13.9,1.8,14-1.1-.8-6.2-4.3-13.2-3.9-19.4.4-5.8,4.5-10.3,4.8-14.4,1-15-1.1-54.7-7.7-67.5-5.5-10.8-23.3-7.5-17.6-27.3,2.4-8.5,18.2-15.1,26.6-16.8l-.5-24.4,9.8-10.8-7.3,2c4.8-6.8-1.2-10.9-1-15.1.4-11.2,5.4-26.7,3.7-38.8-.8-5.5-6.2-7.4-6.6-12.5-.5-5.7,4.1-11.7,3.4-17.7-8.2-1.2-12.3-1.6-15.9,6.4-12-7.9-14.3-24.4.4-30,6.9-2.7,10.3,1.6,15.1,1.2,2.1-.2,17.3-4.7,18.8-7.9l-9.3-.8c-.8-8.3-6.3-16-3.8-24.7.6-1.9,4.7-.5,5.3-4.9.6-4.5-.2-10.5-1.1-16.5-33.4,1.5-66,5.7-97.7,12.4.2,6.2,1.3,11.4,3.5,12.2l29.9-3.1c1.2,11.3-2.5,22-3.8,32.5-.5,3.8,2.2,8,1.3,11.4-1.1,3.7-7.6,4.6-7.5,11.9,0,4.7,9.1,24.6,9.5,30.5.3,5.3-10.3,11.6-2.5,21.7-7.5,2.1-19.5,7.6-25.9.5-2.5-2.7-.6-9.3-4.9-9.3,2.1,10.9-3.8,20.6-5.2,29.7-1,6.6,4.4,16-4.6,21.5,5,7.7,9.4-3.5,17.5-2.3,6.3.9,12.9,6,14.5,12.3l.3,98.2c-13.8,8.8-20.4,8.7-35.7,4.6-3.1-.8-2.3-2.9-2.6,2.4-.6,9-1.5,30.4,9.2,32.9,7.4,1.7,23.9-1.3,26.7,10.3,2,8.2-3.9,11.9-5.1,18.6-2.7,14.4,6.1,65.7-8.8,74-7.8,1.7-17.8-6.7-24.3.8-1.4,1.6-5.7,23.3-5.8,26.6-.5,10.5,30.3,4.2,32.7,13.8,1.4,5.5-5,17.6-12.6,14.7v2.3c1.1,0,3.4,0,3.8.9,3,5.8,9.1,35,10,42.5,1.1,8.9-1.5,18.1,1.5,27l-20.4,6.1-10-22c4.6,20.4-11.6,34.6-6.6,55,4.8,19.3,38.1-1.8,28.5,36.1l-7.1,1.1c-6.8,15.2,5.6,21.2,7.6,30.4,3.8,17.6-9.2,32.8,0,47.9,0,1.2-17.4,3.5-20.1,2.7-2.8-.8-4.3-13.3-13.2-10.4-2.9,5.5,4.2,12.3,3.6,15.3-.4,1.9-3.8,4.2-4.6,7.7-5.1,23,.8,24.8,23.6,21.6l3.3,4c2.4,9-4.3,24.7-3.1,32.5.5,3.2,4.3,6.9,5,11.5,2.5,17.3,2.6,35.8,7.9,52.2l-21.4,14.7c-8.6-1.9-16.7-8.7-16.9-17.9-3.3.2-4.4,3-5,5.8-1.5,6.8-3.6,28.2-3.9,35.8,0,2.8.8,5.6,1.9,8.1,7.5,5.3,23-3.3,24.7-2.9,9.6,2,12.3,22.9-1.6,24.1l-.9,3.1c7.5,23.4,9.7,47.6,3.9,72.3-2.2,1.8-13.3,5.2-16.3,5.1-7.1,0-11-10.4-13.9-5.5-3.7,27.2-23,53.4,20.4,49.2,2.7,6-5.1,15.4-5.1,17.8s8.8,11.1,9.9,17.8c.7,4.6,1.4,30.3.2,35.1-1.3,5.7-6.2,11.8-6.7,14.9-.6,4.1,5.4,6,3.9,10.6-7.2-1.7-28.3,6.1-30.7-3.1l.3-12.9c-8.5,2.2-3.5,10.6-4.3,15.5-1.5,9.5-1.1,15.5-2.3,23.9-.7,4.9-6,2-5.5,6.7,1.5,15.2,23.4,2.4,33.5,8.9l1,9.1c24.9,6.6,50.5,11.6,76.5,15,7.6-.9,14.2-1.5,17.3-2.3-8.2-1.1-22.4-9-22.6-18.4,0-4,4.5-7.4,5-11.6.7-5.8-5.2-10.5-5.5-15.5-.2-4.1,5.2-4.9,4.3-9.5-11.6.2-9.5-5.4.3-6v-2.3c-11.6-18.2-11.5-27.8-2.3-47.1-11.3,1.1-26-1.6-27.6-15.2-1.7-14.3,24.2-12.6,33.3-20.6,2.7-3.9-1.2-9-.7-13.2.5-4.4,5-7.7,5.2-11.9.3-5.3-5-8.7-5.8-12.9-1.7-8.8-3.3-34.2-2.9-42.9,0-1,12.9-4.9,9.9-15.8-2.9-10.8-26.8.7-28.5-.6-12.3-26.9,3.7-31.8,27.8-29.8,3.9-9.4-7-19.8-5.4-27.4,1.7-8.5,13.7-10,17.4-17.6-12.6.3-7.5-7.7-10-15-2.4-7-6.6-13-7.2-21-.7-9.8,3.9-16.4-1.4-26.1l12.7-10.3-29,3.3c2.2-6.7-6.2-23,2.8-25.7l32.3-3.7c-2.3-6.5-13.8-18.3-13.3-23.3.7-6.8,9.9-11.8,5.9-20.3l14.5-.5-11.2-4.7c-5.7-9.3,1.5-19.4.8-26.8-.4-4.3-4.4-7.2-4.3-14.8,0-7,3.9-13.2,3.6-20.2-12.5-1.7-25.2-3.7-25.4-19.4,9.7-22.5,28.7-8.1,44.1-17-7.2-8.4-19-11.2-15.6-24.8,2.9-11.6,20.9-7,27.5-7.6,8.4-.7,17.4-6.2,26.1-1.8,7.3,7.7-3.5,18.5-3.3,23.6.2,4.7,7.3,10.4,8.1,17.7,2.1,19.4-1.8,45.3-12.6,61.8l-19.2-2.3c-1.2,10.1.7,18.7,8.2,25.7,11.5,10.8,35.5,9.3,17.8,29.7l4.7,1.5v3.5c0,0-7.8,4.8-7.8,4.8,5,12.6.8,22.9.7,35.8-.2,22.2,7.8,64.1-28.2,35.7-4.4,6.7,1.9,15.4,1.4,20.3,0,1-15.2,9.1.7,10.7l4.4,10.3,15.5,2c1,1.6,2.9,34.2,2.7,38.5-.4,5.9-4.8,9.2-5.3,13.9-1.6,15.8,11.4,19.6,3.1,36.8-2.9,5.9-9,14.2-15.7,15.7-3.3.7-6.8-2-7.1-1.8-.3.3-.9,6.1-2.3,8.8-5,9.4-8.5,13.5-9.1,25.5,7.6,3.9,24.3-4.9,28.3,6.5,2.6,7.4-5.8,5.4-7.3,9.3-2.4,6,3.3,9.7,3.8,14.5.6,6.1-1.3,12.2-.3,18.6,2.8,18.8,8.9,13.1,4.9,39.5-.5,3.5,2.1,6.9.5,10.5-3.2,7-19.6,16-25.6,5.9-1.6,6.4,4.8,11.4,3.5,17.6-.2,1.1-5.2,14.8-5.7,15.4-1.9,2.5-9.5.3-9.4,4.8,9.3,2.3,32.3-6.6,37.1,4.4,3.5,7.9-8.7,16.5-8.8,22.3,0,2.5,3,5.9,3.3,9.9.2,2.2-1.3,4.7-1.9,7.1,8.6.4,17.3.6,26,.6h8.9c-2.3-2.6-4.1-5.3-4-8.8.9-21,25.2-7.4,37.8-15.7h.3c6.5-7.7-3.1-7.7-5.4-11.1-6.4-9.5,2.5-16.3,2.6-23.2,0-5.8-4.2-11.6-4.6-16.3-1.3-16.7.2-35.3,3-51,.5-2.7,4.6-8.9,4.3-9.2l-23.9,1.1c-12.8-28.8,4-29.4,27.9-32.2.2-6.4-6.1-9.2-6.4-16.1-.3-6.7,4.1-12.8,3.4-21-.6-8.1-10-19.3-10.1-25.2,0-4.8,1.9-8.8,1.3-19.1-.2-3.2,2.2-6.1,1.2-10.4-2.6-11.3-36.6-19.2-16.5-33.2,4.7-3.3,31.3-9.2,32.1-13.1-2-7.2-2.7-19.4-11.1-20.7l1.4-4.4,11-2.2c-8.7-10.4-3.6-18.4-4.3-29.8-.9-14.2-6.2-29,.3-43.8l-3.1-3.3-24.4-4.3-1.4-24.9c4.4-5.4,9.7.6,17.5-.8,6.4-1.1,12.2-9.3,21.2-5.7-2.8-8.1-5-14.7-5.7-23.4-.6-7.7,1.3-15.4.3-23.2Z"/>
  <path d="M1075.2,233.6s0,0,0,0c0,0,0,0,0,.1h0Z"/>
  <path d="M1065.8,221.8l-3.1,11.3c4.1.3,8.2.4,12.4.5-3.1-4-6.1-7.8-9.3-11.8Z"/>
  <path d="M1195.2,523.1c-3.6,7.8-8.8,14.3-8,20.7h0c.3,2.8,4.9,4.7,5.5,7.7.2,1.1,1.5,19,1.5,21.4.5,15.7,2.3,39.4-19.4,36.3l-5.2-22c-8.2,3.5-4.8,16.3-6.3,24.7-2.2,12.3-8.5,22.7-1.8,36.4l19.2-.2c2,1.5,3.1,42.9,2.7,49.2-.6,9.1-5.3,35.9-7.9,44.6-.5,1.8-4.6,8.3-6.3,8.7l-19.7-3.4-8.5,34.1c1.1,7.6,18.1,10.2,26.9,13.6,21-61.1,32.3-126.6,32.3-194.8s-1.7-51.8-4.9-77Z"/>
  <path d="M1173.9,497.4l17.7,2.1c-2.6-15.3-5.7-30.3-9.4-45.2-.3-.4-.7-.8-1-1.1l-8.8,41.3h0s1.5,2.9,1.5,2.9Z"/>
  <path d="M1161.5,812h0c1-2.6,2-5.3,2.9-7.9l-3.9,4.8c.3,1,.7,2.1,1,3.1Z"/>
  <path d="M1120.9,734.9c.2-4.6,3.5-9.1,3.4-13.9-.6-4.5-19.6-6.5-16.3-15.6,1.1-6.6,29-21.9,37.2-21,5.6-5.1-13.2-8.3-13.9-11.9-.9-10.9,6.2-17,6.4-28,.2-12.4-4.1-25.1-8-36.6l13.7-28-5.5-3.7c-12,11.2-26.2-6.1-17-17.5,1.3-1.6,5.7-1.3,7.8-2.8,2.5-1.8,3.7-5.5,4.8-6.1,3.3-1.7,20.4-1.2,21.1-2,3.2-13.3-12.3-6.3-13.7-16.3-1.9-13.6,10.4-16.6,11.3-25.8.7-6.8-5.6-17.2-6.1-26.8-.5-9.9.2-23.2,4-32.2-6.3-1.2-28.7-9.6-27.6-16.6,1.8-12.9,29.4-18.1,47.2-18.5-1.1-3.3-2.2-6.6-3.4-9.9-3-5.1-7.6-10.2-8-14-.2-2.1,0-4.5,0-7.1-16.5-42-37.6-81.7-62.7-118.4-3.3,6.5-4.4,11.5,6.7,25-7.9,11.3-3.9,64.9-25.4,62.2-1.6-.2-5.3-14.4-9.4-7.9-4.3,6.5.2,16.1-1.2,21.9-1.8,7.3-12.9,13.9-.9,23.3,11.8-3.1,21.4-1.4,31.7,4.7-1.9,6.5-.8,14-1.5,19.7-2.2,17.6.9,15.8,1.6,31.8,0,2.7-2,19.3-3.4,21.4-2.6,3.9-14.1,12.2-19,12.3-5.9.1-3.1-9-10.2-7.8,1.5,6.5-4.6,10.9-5.6,15.5-2.2,10.6,6.2,23.8-4.3,35.6.9,7.2,20.9-2.7,29.7.7,9.3,3.6-2.3,35-3.2,43.9-1.6,15.8,5.8,52.9-9.4,63-10.8,7.2-8.8-8.8-16.4-4.4-10.4,6-.2,16.6,0,21.8,0,5.7-5.5,15.2-3,22.5,34.5,4.4,11.4,18.9,11.1,30.9,0,4.8,4.9,16.4,5,24.3,0,14-1.1,14.9.8,28.9,2.4,17.9-14.6,24.7-26.9,11.7l-2.3,45.5c3.9,1.2,1.3-4.1,4.2-4.6,22.9-4.5,15.5,19.3,13.4,33.1-1,6.9-2.2,10.1-3.1,19.1-2.1,19.6-3.6,39.3-3.1,58.8l-21.2,1.8-9.3,32.7,12.1-1.8,1.5-7.1c18.8,14.4,4,27.6,4.2,40,0,3.4,3.6,6.2,4,9.8.4,4.4.7,8.9.9,13.3,23.5-25.8,44.7-53.6,63.5-83.2-.6-16.3-3.1-49.5,1.1-55.6h0c1.8-2.6,8.3-.1,6.4-6.8l-19.2,1.4c-8-19.6,18-25.6,21-38.7,1.4-6,0-12.7,1.2-18.9,5.2-26.2,1.9-41.4,3.2-67.1Z"/>
  <path d="M781.3,605.4c.5-12.7-17-8-20.7-17.8l16.5,5.6c-3.7-12.4,7.8-29.1,6.7-39.2-.6-5.3-5.6-8.5-5.8-12.7-.2-3.9.5-21,.9-25.8.9-11.7,10.2-12.1,10.5-16.6.5-7.6-16.5-10.8-22.1-19.1-7.6-11.1-1.5-8.1,4.5-13.1,1.6-1.3,2.1-5.2,3-5.7,1-.5,15,5.1,20.4-4,2.8-13.3-7.6-32.7,7.9-39.3l-6.9-1.7c-.4-4.2.9-8.4,0-12.5-2.4-9.9-4.5-16.3-5.1-27.5-.3-6.6,1.9-15.7.9-20.9-.3-1.4-7.6-5.7-10.2-9.6-24.5-35.7,19.5-28.3,22.1-36,1-7.7-6.6-8.9-6.6-17.1s6-10.7,5.6-15.9c-.3-4.2-5.8-11.4-7.2-16.7-4.9-18.4-2.2-39.3,1.6-57.4l-16.4-5.8,3.1,9.8c-3.9-1.9-7.9-.7-8.2-6.4-1.1-15.2,7.2-37.2,25.8-31.2-2.2-15,7.7-34.6,0-46.9l-15.9-16.4c7.1.3,13.8,6.7,19.2-.3-11.9-17.1-2.8-48.3,17.1-53.2.3-12.7-8,0-10.7-.3-9.4-.7-20.7-6.1-24.6-14.7,8.5,1,10.6-.9,12.6-3.6-19.6-6.9-39.7-12.8-60.2-17.7-1.5,4.2-2.3,9.2-2.4,11.3,0,1.6,3.8,1.7,4.7,3.3,3.7,7-2.2,22.4-3.1,31-.7,6.4,3.5,13.2-1.9,19.9,2.9,2.4,19.5-3.7,16.5,5.7-5,0-11.6-1.9-15.9,1.3-4.9,3.7-1.7,11.2-6.9,12.7l-16.2-1.6-4.5,40.6c19.6-7.3,41.1,22.5,17.7,29.8,2.5,4.8,5.8,7.6,6.4,13.6,1.2,11.4,1.8,39.6,0,50.4-2.4,14-12.2,18.1-23.3,9.6l-2.6,2.3c3.2,9.3-20.1,38.9-4.4,40.8,6.6.8,9.5-7.3,20.6-2.9,19.2,7.6-5.5,23.3-5.7,31.1,0,3.6,4.6,6.8,5.3,10.5,1.2,6-1.3,24.7-1,32.8.2,5.7,4.2,10.4,3.3,16.6-1.8,12-12.7,28.1-24.3,15-5.5,12.7-3,25.2-2,38.4l15.5-3.5c15.4,8.2,4.5,21.9,4.8,32.1.4,15,3.8,35.1,3.6,51.1,0,4.2.4,11,.2,13.9,0,1.8-4.4,1-5.8,4-2,4.2-1.4,12.9-4.7,15.1l-16.8-2.3c-4.4,14.2,7.1,33.2-6.9,41.7-.4,7,28.3-1.3,33.4,4.2.9,7.7-7.6,18.6-8.4,23.7-.6,4,2,9.3,1.7,14.3-.5,9.7-.4,41.5-2.9,47.7-1.2,2.8-4.9,2.7-6.4,4.4-1.6,1.9,0,6-2.2,6.4-9.8,1.4-12.9-3.7-5.5-9.9-23.9-8.5-20.8,39.3-9.7,46.4,10.5-.9,21.7-1.6,31.2,4l-15.3,14,4,16.8-4.9,2c-.9,4.5,4.1,8.8,4.4,14.5.2,3.9-2.5,39.6-3.4,41.9-5.5,14.2-16.9,8.1-24.1-1.2l-5.6,5.7,3.6,30.4,15.8,4.4c-.5,6.9,5.7,16.3,5.7,21.9s-3.4,8.4-2.7,13.6c.6,4.4,5.8,8.3,6,10.9.4,4-10.6,9.4-.5,16.4l-5,2.5c-.8,9.3-2.1,35-6.9,42.1-1.8,2.8-8.9,2-11.2,5.9l-3.1-8.1-7.1-2c1.7,14-9,34.2-1.2,48,4.7,8.4,6-4.7,12-1.8,8.1,7.5,2.8,14.4,3.3,20.3.8,8.2,8.3,28.9,9.1,39.4.5,6.1,0,22.5-2.5,27.3-.4.8-10.7,12.3-11.4,12.7-4.4,2.3-11.2-.6-14.7,1.5-6.7,4-1.3,27.8,8.3,28.3l-7.6,9.1c3.1,0,8.1,0,10.7-1.6,3.4-2.1-1.1-9.4,6.6-7.1-1.4,4.8,3.8,12.6,3.2,15.9-.4,2.3-5.2,4.1-6.4,7.3-3.8,10.2,4.6,19.5,4.7,29.2,0,4.1-1,8.3-1.9,12.8,13.8-1.9,27.5-4.3,41-7.1-1.2-2-1-5.2,1.2-10.4,2.9-6.2,28.4-19.1,35.9-23.4,3.3-1.9,3-8.5,12.5-5.1l-11.3-9.3c5.9-19.6-7.7-36.7-8.1-56.2-.2-10.7,5.9-24,2.9-36.3-12.2-2.7-24.8,7.5-26.1-9.8-.9-12.7,8.2-8.4,17.8-13.3,8.1-4.2,14.7-11.5,24.5-12.1l-16.4-8.1c3.1-5.3,11.5-4.8,12.7-12.6,1.2-8.3-12.9-28.9-12.7-39.1.2-7.9,9.5-20.7,8.8-30.4-1.2-5.2-28.2-8.2-32.7-16.6l3.3-10.1c16.3,1.9,30.4-8,43.6-16.3-2.8-9.5-8.6-17-5.4-27.6l7-1c-18.3-19.3-3.5-46.7-8.2-69.9l-23.4-5.6c-4.3-3.9-5.9-22.6-.8-25.9l25.8-5.8c-4.6-13.8,8.4-26.3-5.3-38.7l7.2.3c1.1-.9-1.2-23.9-1-27.7.3-7.3,7.9-13.6-1.6-17.1,14-32.1-2.2-16-16.2-26.3-9.1-6.7-12-13.2-7.3-23.8l31.2-3.5Z"/>
  <polygon points="865.2 1126 865.1 1126 865 1126.3 865.2 1126"/>
  <path d="M881.5,955.3c-1.1-4.3,2.7-8.7,2.4-13.4-.3-5.2-6.4-10.7-7-14-1.1-5.5,5.2-12.8-2.9-18.3l7.1-1c7.6-25.9-34.4-5-26.6-32.1,14.4-2.4,25.5-1.8,35.8-14.1l-3.6-13.5-9.6.7c-1-5.7,6.8-3.6,10-6.6,2.6-2.4,5.9-24,5.4-28.3-.7-6.4-7.3-12.6-7.6-15.6-.3-2.9,4.2-5.5,4.8-9,1.5-9-.3-18.3,3.9-27.3l-26-1.7c-7.5-21.7,4.3-39.3,27.9-34.3l.8-16.8-10,9.1c-2.8-9.9,5.5-16,7.1-23.3,2.1-9.1.4-17.4,3.2-29.8,2.6-11.2,6-31,11.7-40.4,3-4.9,6.3-.5,9.4-4.6l-44-.9c-5.5-1.6-2.6-24.3-2.5-29.1,43.1,4.9,28.1-1,35.6-27.7,1.7-6.1,8.6-9.5,9.4-12.4.5-2.1-5.3-15.1-5.7-21.6-.9-15.3,0-35.8,4.9-50.3l-4.7-2.9c-11.7,1.5-29.9,4.9-29.8-11.3,0-17,11.7-11.9,18.6-14.9,4-1.7,10.1-15.8,18.1-12.8.4-7.2-6.5-10.7-6.5-18.4s4.9-9.6,5.8-14.3c.5-2.4,1.7-25.8,1.6-28.6-.6-11.8-8-21.5-.5-35.9l-9.5-5.5c20.4-.8,5.5-12.2-6.9-6.3-1-6-3.6-10.9-.4-16.8,1.5-2.8,13.8-14.3,14.8-16.6,2.7-6.1,2.2-17.2,5.1-21.7,1.9-3,6.7-.6,7.4-1.2,2.9-2.5-5.1-15-5.7-18.8-.8-5-1.1-18.7-.8-23.9,1-16.5,15.9-41.4-12.1-39.9-5.9.3-8.7,8.9-15.9,6.4l-1.8-15.4c15.3-3,24.1-8.8,36.9-16.7-5.7-14.5-6-28.8,9.2-36.5-12.3-10.1-5.2-16.9-6.2-26.2v-.7c-23.2-15.5-47.6-29.4-72.9-41.5,1.2,1.6,2.3,3.2,2.6,4.9,4.5,22.8-3.2,38.4-27.1,25.6l-4.5,40.6,28.3,6.5c.9,6.7-5.3,10.8-5.6,17.4-.5,9.3,2.9,23.3,3.2,31.6.4,10.2,3.4,44.2-3.4,49.2-10.7,7.8-27-21.5-29.9-3.1-1,6.6-2.7,10.5-3.4,14.5-.6,3.7,1.9,23.3,4.5,25.6,6.5,4.6,12-1.3,20.6,1.8,23,8.4,6.1,25.1,5,39-1.8,24,21.6,75.4-27.1,62.2-3.5,6.2-6,34.7-1.6,37.9,6.6,1.7,30.4,4.1,32.3,10.8,4.5,15.8-13.9,16.2-12.6,25.1,2.5,5.1,8.4,8.1,9.9,13.9,5.1,20,1.1,77-31,63.5,6.2,11.5-5.7,19.1-8.7,29.5l35.5,14.3-8.1,25.8c11,5.5,3.8,8.6,4.6,14.5.5,4,3.1,7,3.2,12,0,8.8-.3,32.1-4.3,38.4-10.1,15.8-25.9,5.6-28.9,7.1-3.3,1.6-11.2,25.8-9.1,28.1l31.1,5.1c7,5.4-2.8,57.3-3.8,69.5-.4,4.4,2.3,9.5,1.9,14.6-1.7,25.2-8.2,32.7-32.5,21.2l-1.8,34.8c0,.3,3.3,5,4.6,2.6l7.4-2.2c1.8,1.1,9.9,15.7,10.5,18.2,2.7,11.4-8.1,7.2-7.1,13.1,7.5,11.4,14.1,25.3,12.3,39.3-1.4,10.3-8.5,17.5-5,29.9-13.9,5.4-20.5,4.9-29.9-6.4-.4,5,3.3,10.2,1.7,15.2-.9,2.8-7.1,1.5-7.6,7-.2,2.7,2.1,15.1,3.7,17.5,4,6.2,21.8,8.7,24.7,14.3,4.4,8.5-.7,39.9-.5,50.5,1.2,5.5,4,10.4,6,15.5,2.1,5.3-4.2,5.7,8.6,10.4l-12.1-.8c-4.3,13.6-11.7,24.6-24.6,11l-8.7-17.3c.2,6.8,3.5,12.4,3.9,19.4.8,15-12.6,39,7.6,40-3.6-7.4,4.5-9.2,10-5.5,3.1,2.1,6.5,17.1,4.9,20.7-1.2,2.6-8.5,6.7-8.4,10.5,0,1,8.2,10.7,9.4,18.3v.3c18.7-7,36.9-14.8,54.6-23.5l-6.1-12.5h6.7l8.3-22.3-11-13.3c23.5,9.7,12.1,3.9,8.4-11.1-1.3-5.2,0-10.4-.5-13.8-.2-1.2-4.2-1.2-4.3-2.8-.5-5.8,9.7-16,5.9-24.4-8.5-5.5-26-2.4-25.5-14.8.7-18.2,26.3-12.3,35.2-24.5,5-6.9-2.6-32.5,13.3-29.5-1.2-4-12.7-11.3-13.4-14.2Z"/>
  <path d="M1010.3,715.6c7.4-1.1,19.6-14.4,9.5-18.6l-.6,6.9-9.3-1.4c7.8-5.8,19.3-12.4,19.9-23.5.2-3.5-3.5-6-3.7-9.5-.9-16.4-4.2-22.5-5.4-33.9-.7-6.1,2.7-33.2,1.6-34.6-12.2,5.7-41.3-1.6-29.2-18.4,2.3-3.2,21.9-3.7,29.7-12.6,7.7-8.8,1.6-12.9,2.8-20.2.5-3.5,4.6-6.6,4.9-12.1s-3.4-8.9-3.8-12.7c-2.3-22.9-3.5-48.8,5.5-70.1-8.9-3.5-38.2,7.4-38.3-5.6,0-6.9,10.8-12,1.4-22.7,11.2,3.4,35,8.2,36.7-8.9.5-4.5-1.9-9-1.3-13.9.7-6.8,7.3-13.8,7.5-17.1.4-5.8-8.7-8.3-8.7-14.6s2.8-7.6,3-12c.6-13.1-1.6-25.7,6.3-37.8-1.2-9.7-26.2-4.8-31.2-17.6-6.7-17,15.9-16.4,27-22.7,1-.6,10.9-9.3,11-10,.4-26.5-9.8-50.9-1.6-75.8,0,0,0,0,0,0,1-3,2.3-5.9,3.8-8.9h-.1c-3.2-4.7-11.3-5.6-19-7.2,0,0,0,0-.1-.1-8.4-1.7-16-4.2-15.5-13.1,0-.7,0-1.3.3-1.9-10.1-9.6-20.6-18.9-31.4-27.8-3.3,8-8.8,15.5-6.4,24.9.9,3.6,5.4,5.2,6.2,10.5.8,5.3-.9,35.5-2.5,40.2-5.8,16.7-23.5.3-26.1,2.8-.5,16.6-9.6,29.8-7.3,47.7,4.7,1.5,24.8,0,26,5.2,2.9,11.9-11.1,18.1-20.1,20.3,1.8,4.7,14.2,1.3,17.2,16.5,1.3,6.5,2.5,38.2,1.1,44.4-2.2,10.1-11.9,10.8-9.4,22.5l-16.6-27.3-2.6,52.6c6,1.5,11.9-2.5,17.8-1.4,14.4,2.6,19.4,21.5.3,20.5-1.6,9.2,6.3,11.1,6.5,12.8,1.5,9.2-2.1,24.8-1.7,35.5.4,11,7.3,32.6.4,41.1-11.2,13.9-19.8,2-31.2-3-5.1,14.2-1.2,28.6-1.2,43.4l27.3,12.5c.8,9.7-4.5,18.6-4.1,28.2.2,5.9,3.8,10,4.1,14.8.8,15,.4,34.4-1.2,49.1-7.1,5.9-17.6,5.4-25.3,1.1l-4.2,33.5,25.9,4c2.5,9.7-7.8,14.1-3.3,23.6l-7.3.8,20.4,25.1-11.9-1.8c4.5,15.7,7.2,31.8-2.8,46.4-11.4,16.6-17.9-.3-26.2,6.2-7.4,5.8-3.6,10.5-7,15.3-1.3,1.8-5.8,1.5-6.3,3.6-1.1,4.7,5,16.4,3.9,22.6,12.3-1.3,19.8-2.6,30.9,4.2-4.1,13.3-2.8,27.9-1.9,41.8-6,12.2-1.4,31.9-5.3,42.5-3.7,10.2-20.2,12.5-26.1,2.7-.6,11.2-3.5,28.9,5.1,37.7,10,10.1,19.5-.2,10.7,28l-5.8-2.7-1.5,4.7c15.8,4.2,10.2,22.7,10.9,34.7,0,2.5,3.7,5.6,3.8,10.5.3,18.9-9.8,39.9-31.6,28.7l-10.1,29.3c7.4,2.2,14.5-2.6,22.3.3,2.6.9,6.6,6.5,8.8,11,22.4-14.4,43.7-30.3,63.9-47.5v-37.2c-14.8-.3-26.7,2.1-25.6-17h0c.8-15,15.8-16.1,27.1-11.8-2.7-7.3,6.6-12.5,7.1-15.2.7-3.8-3.7-11.9-2.9-16.8l-9.6-2c-.6-4.7,5.7-.8,7.2-2.1,1-.9,0-10.9,1.4-15,1.1-3.1,5.6-4.6,6.1-7.2,1-4.8-2.2-18.1-2.5-24.3-.4-7.2,2.4-17.4.8-23.6-1.7-6.8-6.9-2-10.5-2.4-8.9-.9-12.2-19.9-8.1-26.6l33.1-12.8c-2.3-15-11-24.5-22.3-33.6,7.6-6.2,18.9,18.6,23.3,14.4-7.7-26.9-7-52.5,1.7-79.2-7.9,3.8-9.9-1.5-15.6-3.1-5.4-1.5-13.3,1.2-16.4-5.8-3.8-8.6,3.5-13.3,5-21.2,6.6.9,16.1,1.9,22.4.9Z"/>
  <path d="M953.3,118.3c1.3.6,3,.6,5,.4-2.5-1.9-5-3.7-7.6-5.6.6,2.6,1.4,4.6,2.6,5.2Z"/>
  <path d="M1065.4,461.6l-1.8-12.1-4.7-.2c-1.6,3.3,5.2,13.9,6.5,12.3Z"/>
  <path d="M1038.7,701.7c2.4,4,10.3,4.9,12-.5-3.8-1-8.8-2.9-12,.5Z"/>
  <path d="M827.1,48.1l8.7,17.2c1.4-7.4.6-16.7-8.7-17.2Z"/>
  <path d="M835.6,163.8l-7.2-.4c-1,4.5,2.4,8.1,6.8,7.5h0c0,0,.4-7.1.4-7.1Z"/>
  <polygon points="816 311.8 825.7 309.9 825.9 305.1 822.4 305 816 311.8"/>
  <path d="M819.2,343.2c-2.6,2.3,4.2,9.9,6.8,7.5,2.6-2.3-4.2-9.9-6.8-7.5Z"/>
  <path d="M698.4,214.5l13.6,15.1c.7-9.6-3.1-16.4-13.6-15.1Z"/>
  <path d="M958.1,211.1h0c0,0-1.4-19.4-1.4-19.4l-7.2-.3c-2.1,1.7,3.9,18.5,8.6,19.7Z"/>
  <path d="M897.7,964.9v2.3c5.1.4,12.3,2,14.5-4l-14.5,1.7Z"/>
  <path d="M900.8,998.7c4.4.8,7,.5,9.7-3.1l-9.5-1.7-.2,4.8Z"/>
  <polygon points="922.6 294.5 932.1 296.1 928.7 291.2 922.6 294.5"/>
  <polygon points="937.1 294 946.8 292.1 943.4 287.2 937.3 289.2 937.1 294"/>
  <path d="M436.8,1049.4l-16.7,1.7c0,3.8-3.1,10.5,3,9.6h0c2.4-.4,15-6.4,13.8-11.3Z"/>
  <path d="M460.5,495.4l.5-9.6c-4.4-.8-7-.5-9.7,3.1,2.9,3.1,4.7,7.2,9.2,6.5Z"/>
  <polygon points="332.1 796.4 329 786.7 315.5 790.8 318.7 797.3 332.1 796.4"/>
  <polygon points="1118.8 824.8 1128.4 825.3 1128.5 823 1119.1 820.1 1118.8 824.8"/>
  <path d="M210.3,662.7c8.4-2.6-2.3-10.5-5.6-7.5-1.9,1.7-1.6,9.6,5.6,7.5Z"/>
  <polygon points="567.7 186.1 567.5 190.9 576.9 193.8 571.3 186.3 567.7 186.1"/>
  <polygon points="569.1 626 559.4 627.9 559.3 630.2 568.9 630.7 569.1 626"/>
</svg>