<?xml version="1.0" encoding="UTF-8"?>
<svg id="Layer_1" xmlns="http://www.w3.org/2000/svg" version="1.1" viewBox="0 0 1200 1200">
  <!-- Generator: Adobe Illustrator 29.0.0, SVG Export Plug-In . SVG Version: 2.1.0 Build 186)  -->
  <path d="M1119,901.3c-4.9,8.3-9.9,16.6-15.1,24.6,4.6-.8,8.8-1.8,11.9-2.8h0c13.3-4.1,4-13.2,3.4-19.3,0-.8,0-1.7-.2-2.5Z"/>
  <path d="M279.1,1114.2h0c2.7-.7,5.4-1.5,8.1-2.1-3-1.8-5.9-3.7-8.9-5.6.5,2.6.8,5.1.8,7.7Z"/>
  <path d="M615.3,1073.9c1.4-1.2,13.8,2.6,14.9-11.3l-15.6-3.1c-2.5-7.5,1-15.4,0-22.9-.6-4.6-4.5-8-6-12.9-1-3.4.8-7.9,0-11-.8-3.5-20.5-11.9-17.7-30.3,1.3-8.8,7.7-2.8,12.2-4.2,8.1-2.5,19.4-11.4,29.6-11.7l-9.5-2.9c3.9-7,.4-14.8,1.1-20.2.6-4.4,4.6-7.6,5.2-12,2.7-20.3,2.4-41.4,5.6-61.7l4.9-1.3-10.2-12.5c-7.2,12.4-5.2,3.2-10.7.8-3.5-1.5-10.6,2.8-14.2-5.7,15.4-12.2,33.4-25.3,53.7-17.7l-1.8-12.1-12.8,1.9c-9.9-8.9-.4-17.5,0-27.8.4-12.4-5.2-36.1-3.7-50.7.4-3.8,5.2-10.8,4.1-12.6-.4-.6-11.5-7.1-12.6-7.2-8.9-1-11.6,8.2-12.7,8.2-16.1-.8-15.3-18.1-5.1-27,11.1-9.7,24.3-7.5,35.6-10.5,10.1-2.7,0-13.9,0-20,0-9.1,6.6-20.3,6.7-30.8,0-8.1-5.7-19.3-5.5-24.9.2-6.3,12.1-26.5,13.5-34.6-.9-7.9-35.5-2.3-37.8-16.7,3.5-.2,11-7.6,11.7-7.8,4.9-.7,10.1,1.7,15.2-.5,1.5-.6,11.9-12.5,17.4-13.6-7.2-.9-5-19.6-3.2-23.9,1.4-3.4,6.9-2.9,7.3-4.9.9-4.3-3.8-8-4.3-12.2-1.8-17.3,3-28,6.8-42.9,2.2-8.8-2.4-17.7,8.5-23.5l-15.5.4.7,7.2-10.7-9.7-9.5,6.2c-20.4-31.1,12.3-20.1,28.8-33.2-2.6-6.8-6.2-19.4-1.7-25.5,1.2-1.7,5.8-1.4,6.3-3.6,1.4-5.8-6.1-15.8-6.2-21.7,0-13.9,7.5-37.2,6.8-51.7,0-2.7-1.5-6-1.6-8.9l-19.7-1.6c-14.7-18,13.7-18.7,20.2-27.6,5.3-7.2,2.9-15.4,5.4-21.9,1.2-3.3,5.4-4.6,6.6-7.9,4.2-11.5.2-41,4.2-58.7.6-2.8,4.4-4.6,4.7-9.9.5-8.2-9.8-16.7-13.1-6.8l-17.6-3.5.9-20.1c11.7-4,20.9-14.8,34.4-11.8-6-10.6,1.5-22.9,1.5-32.2s-6.7-26-5.1-38.8c1.1-8.7,5.7-11.5,7.5-17.2,2.2-6.9.4-13.9,6.5-20.6-15.4-11.6-42.6,5.4-40.1-15.5-11.1-1.5-22.2-2.6-33.5-3.5-.3,15.3-9.3,34.6,7.4,38.6,2.5,11.4-10.7,33.3-22.2,34-3.2.2-11-3.8-12.7-2.3-.6.5.6,4.9-.9,6.4-1.2,1.2-5.6.5-8.1,2.6-3.7,3-3.6,18.9-4.8,23.8,6.1,2.6,11.3-3.7,15.7-3.8,7.1-.1,17.8,8,26.2,8.1l-2.4,21.7-4.5-5-5.5,12.8,4.5,3.9,5.2-6.9c-.8,6.2-1.1,11.6,4,15.8l-9.5-1.7c2.4,13.2-1.4,51-10.1,60.5-3.2,3.5-9.3-.5-12,1.2-1.1.7-1.4,5.3-3.1,7.4-1.2,1.5-3.9,1.5-4.8,3.3-3.7,7.2-2.6,17.6-10.9,22.9l6.8-.3,1.5,4.5c9.5-2.5,23.7-8.5,28.5,3.8,4,10.2-4.7,16-7.1,25-6.2,23.7,2.5,50-12.6,70.3-11.5-6-13.9,5.5-25,3.3,3.9,10.2-1.6,22.4-1.7,33.5,8.7-1.8,19.1-4,26.4,2.9-7,11.7-.8,25-2.1,35.4-.8,6.1-5.6,11.4-5.9,19.2-.5,10.4,6.3,13.7,2.6,25.4-1,3.3-14,23.2-15.7,23.1l-3.3-7.3-12.2,4.2-2-7.3c-2.6,17.2,0,33.5,2.3,50.5,10.7.2,25.4,1.6,19.5,15.4-9.7,22.7-.3,27.9-3.4,46.9-.4,2.5-6,19.6-7.2,22.5-2.5,6.4-11.7,10.3-11.9,18.5-6.6-1.7-10.3-8.6-16.8-1.7l-1.4,29.6,30.9,6.4c-7.1,14.6-9.5,30.2-10.7,46.3-1.1,16,3.8,35.7-3.9,49.8-2,3.7-8.7,2.2-3.2,15.9-4.4,1.1-5.5-4-8.7-4.7-4.1-1-10.1,1.8-15-1.3l-4.1,33.4,15.2-1.2c13.6,6.9.8,17.7,1,22.1,0,3.8,5.2,8.6,5.4,13,.2,3.5-2.8,7.6-2.4,11.5,2,20.3,10.2,35.1-2.2,53.4-7.8,11.6-9.6,8.4-22.5,6.8l-2.9,33.5c4.2-7.3,27.9-9.7,29.9-1.7,2.7,10.5-9.3,19.8-10.3,23.5-.6,2.2,3.5,9.1,3.8,14.2.7,11.5-3.5,22.2-4.4,33.5-.5,6.6,2.7,14.1,1.7,19.2-.9,4.4-8.3,9.5-9.4,15.4l-20-6c3.7,10.6-1.4,24.9-4.2,35.8l15.9-3.6,3.2,5.8c-4.6,17.1.8,41.4-3,57.4-2.2,9.3-16,17.1-11,29.6l-7.2-.3,2,8.5c-17.9,2.6-3.8-10.1-4.3-10.9,0-.2-3.3.3-3.9-.9-1.8-3.8,0-7.5-3.8-11.6-8.6-9.4-2.4,13.9-2.4,15.9.2,7.9-.8,14.9-2.3,21.7,30.2,4.8,61.1,7.4,92.6,7.6-.2-1-.3-2.1-.3-3.2h.2c0-9.6,3.9-24.8,4.7-35.8.7-9.3-4-16,3.4-22.6-11-1.9-33.5-3.5-30.3-19.5,2.7-13.5,39-10.5,41.2-26.7.5-3.6-2.4-16.3-.3-18.1Z"/>
  <path d="M1139.1,644.9c2-8.4,5.8-22.6,7-30.2,4-25.1-1.4-52.9,8.7-77.7-15.6,0-29.2,5.7-25.7-16.8l31.8-7c-5-30.1,7.4-62.5,4.8-92.3-1.5-17.5-13.3-19.2-27.9-20.5l-4.1-5.6c-1.7-5.8,4.1-19.7,9.6-21.4,3.3-1,8.1,0,12.2-.7-13.6-33.1-30-64.8-49.1-94.6-3.1,7.9-5.8,14.5-7,16.3-4.4,6.7-9,11-16.3,4.5-5-4.5-1.7-12.4-9.2-11.2,1.5,18.6-4.6,32.9-9.8,49.9,14.4.6,30.2-3,44.5-.1,3.6.7,3.9-1.2,3.4,3.8-.9,9.2-7.6,14.6-9.3,22.7-1.7,8.5,1.5,19-1.2,29.1-1.4,5.1-6.6,9.2-7.4,14.8-1.2,7.9,4,16.3.6,25.8-2.5,6.9-17.6,18.3-24.2,9.1-3.5-4.9,1.5-12.8-6.4-11.3l-7,41.6c12.1.2,24.8-5.6,36.5.8,2.5,1.3,8.4,12.8,7.8,15.5-1.1,5-11.1,10.7-12.3,16.7-3.8,15.8-1.5,55-7.7,67.4-4.5,9-16.3,4.5-16,19-6.1,4.2-8.8-16.3-13.5-17.5l-2.2,46.4,3.7,3.7,10.3.9c-4.6,16.2,9.5,33.6,7.5,47.2-.8,5.3-4.6,7.8-5.5,11.8-2.9,13.3,3.7,46.4-22.2,38.5-2.8-.8.3-5.9-3.7-5-3.6,16.4.7,27.8-11.8,41.4,5.9,9.1,8.4-1.1,13.8-2.3,12.3-2.9,26.4,1.6,16.9,15.5-1.8,2.6-8.3,3.7-10.1,7.2-2.9,5.7,6.7,2.7,9,4.4,6.1,4.4-4.7,34-6.4,41.8-.9,4.1,1.4,8.4.5,13-4.1,22-28.4,29-27.9.8-12.7-.7.4,17.9.8,23.5.5,7-6,15.9.4,22.3,6.2,6.2,30.2-2,29.4,17,0,3.2-7.2,16.6-8.7,17.3-3.7,1.9-15.9-7.7-21.3.4l18.5,13-7.3.8c2.8,14.3,2.5,25.2-4.3,38.2l7.2-.8c-4.7,6.3-10,13.8-8.8,22l-25,6.4-5.9-5.2,3.4,25.5,21.9,3.7c23.6-23.6,45.2-49.1,64.6-76.3-3,0-6.1-.3-9.2-1.5-3-1.2-3.8,1.5-3.5-3.9s2.9-10.2,3.3-15.5c5.7,1.3,15.7.4,24.5-1.2,5.2-8.1,10.3-16.3,15.1-24.6-.5-9.1.9-19.2.4-26.2v-.2c-.6-9.2-6.1-24-4.3-33.6.9-4.7,19.9-32.6,18.6-34.1-8.7,4.5-38.3,8.8-35.9-5.4,1.2-7.5,31.8-16.3,39.4-16-6.5-7.8-1.2-12.9-1.5-20.1-1-19.1-7.3-39.3-6.6-58.4.4-11.3,8-18.3,6.5-29.7l-11,4.2-8-7.6-3.8,4.6c-21-29.1,20.8-10.6,26.4-34Z"/>
  <path d="M746.1,954.3c6.8-15,3.7-32.3,2.4-48-.4-4.8,1.3-10,.9-14.5-1.6-14.9-11.9-21.3,1.8-38.2l-22.1-9.4c-14-12.3,36.5-19.5,40.2-29.2l14.8,5.3c.9-6.7,1.7-11.4,8-15.2-5.4-4.9-13.5,2.9-18.2,2.7-15.6-1-7.6-37.5-8.5-47.2-.3-3.7-3.7-6.8-4.2-12.2-.5-6.1,3.3-35.9,2-37.2l-20-1.6c-12.2-20.3,6.5-17.8,15.5-22.6,13.7-7.3,10.9-27.5,12.5-39.3.6-4.3,4-7.3,4.2-9.2,2.3-20.9-8.1-45.7,7.1-66.9-2.9-4.7-8.1.5-6.9-6.4-15.1,13-22.5-.5-20.9-16.3,9.3-9.9,23.6,1.9,32-8.3,5-6.1-1.8-15.4-1.6-24.2,0-5.3,4.5-32.5,4-34.3-.2-.8-8.8-3.5-8.6-13.9.2-6.9,12.8-33.1,11.5-34.3-10.6.8-25.2,1.6-26-12.1-.9-15.8,5.9-11.1,13.8-15.5,4.9-2.7,4.1-9.4,13.9-6l.2-4.8c-9.9-.1-1.2-6.2,0-11.4,1.5-6.4,6.4-25.5,6.5-30.5.5-18.9-9.8-35.5-.3-58.9.8-2,18.4-22.2,8.3-18.7l-9.1,11.5-6.9-5.1c3.3,10.5-11.1,8.3-11.6,3.1l3-17.7c15.5-5.7,27.2-2.8,29.7-21.5,4.2-30.7.5-62.4,1.8-93.2-4.2-8-6.9-10.8-14.9-5.4l-2.4-1.8-5.2-18.1,32.5-15.4c3.2-4-3.8-20.7,8-20.2-8.5-8-3.8-13.8-4.6-20.3-1.2-9.5-3.3-19.1-4.5-28.7-18.5-7.5-37.5-14.1-57-19.7,0,.6,0,1.1-.2,1.7-.7,4.8-5.8,5.9-7,9.6l.7.3c-.9,2.8,1.4,9.3-1.4,13.6-.9,1.4-14.1,6-16,8.1-1,1.1-14.8,25.3-15,26.8-2.9,25.3,18.3,4.4,29.4,17.1l3.6,49.1c-7.8,3.5-15.1,14.8-13.4,23.4.4,1.8,4.5,1.7,4.4,2.8-.5,6.2-8.6,33.6-17.8,26.8l-4.2-13.1c-3.5-5.3-8.6,3.8-9.5,7-1.3,4.6-5.3,29.1-3.5,31.9l2.8,2.1c9.4.5,32.2.9,33.9,12.9,1.7,12.5-6.5,16.9-8.5,26.1-2.4,11.4-1.4,72.9-25.9,61.7l-8-11.9c-5.9,17.3-9.9,34.2-7.5,52.5,21.6-6.4,54.1,12.9,22.5,26.5,8.2,24.3-2.1,48.3-1.2,73.1l-10.5-5.4c-2.5,3.7-1.5,5.9-7.5,4.6l-2.1-5c-15.2,12.5-9.9,11.8-10,27.4,0,5.1-4.6,10.3-1.9,15.3l25,6.1c2.6,10.1-6.6,18.3-6.2,27.1.4,8.1,13.4,21.8,10.3,33.2l-9.3-5.3c2,17.5,1.5,39.8-15.8,49.6l-3.2-7.4c-3.1,1.4-7.9,2.9-10,5.4-2.5,3-7.4,25-8.7,30.9-1.1,5-.9,2.6,2.3,2.6,9.5,0,25.6-2.1,34.3,1,1.5.5,23.3,17,19.9,19.8-8.5-.7-10-7.4-18.9-2-1.6,1-15.1,19.8-15.4,21-.5,2.3,4.7,7.2,4.1,14.2-.5,5.9-5.1,9.5-5.7,14.3-.4,3.2,1.8,7,1.3,9.5-4.2,21-7.4,30.5-28,39.9l-3.9,29.3c9.1.6,29.1-8.9,33.1,5.7,2.4,8.7-8.3,13.3-8.1,20.6.2,5.4,7.3,9.2,6.4,17.1-.6,5.1-5.4,8.7-6.7,13.1-4.6,15.7-4.2,44.5-25.9,41.7l-8.1-12.3c-3.1,17.4-9.2,34.9-5.1,52.6,14-2.7,16.5-7.9,31.2.4,6.6,5.8-4.5,7.5-5.5,14.1-.9,6,3.6,16.4,3.3,23.9-.2,6.6-2.7,24.1-4,31-2.1,11.5-9.1,36.8-22.6,24.3-7.5,10.5-6.2,21.8-18.3,29.1-4.6,9.5,20.9-.2,22.5,0,5.4.5,11.7,6.2,18,5.8,1,11.6-10.8,15.7-12.6,22.6-3.9,14.3.7,21.6,0,30.9-.3,4.2-4.5,7.1-4.9,11.6-.5,4.8,3.4,27.1,6.5,30.6,4.7,5.3,13.8,0,15.4,5.5-7.2-1.6-28.3-.6-32.8,5.5-2.5,3.4.6,10-4,9.5l-3.4-7.2-8.4,1.8c.5-6.7,10.4-9.9,2-16.7-1.5,0-10.8,24.5-11.7,27.5-1.1,4-.6,8.9-.9,13.1,34.9-1.2,69-5.4,102.1-12.3-5-19.2,1.8-44.4,7.2-61.8-11.1-7-23.6,5.1-28.9-9.4-7.5-20.3,17.2-29.3,33-24.1,1.8-1.5-6.5-15.7-6-20.8.5-4.7,7.7-9.9,9.2-15.1.5-1.6,4.3-19,4.4-20.4.9-6.6-5.3-12.6-6.1-19.5-1-9.1,1.1-18.6,2.6-27.4-2.3-3.3-10.8-2.8-15.1-4.7-3.8-1.7-.8-7.5-8.3-4.2-14.7-18.5,18.7-21.8,31.1-25.5Z"/>
  <path d="M862.1,989.8c1.2-6.3,18.8-15.8-1.4-18.2l1.9,8.5-4.8.9-1.8-12.1-20.3,3.9c-9.1-22.2,16.2-23.4,31.3-28.7-6.4-13.2,2.3-21.7,3.8-31,3.1-19.6,1.4-30,0-47.8-.6-8.8,4.4-22.3,4-26-.2-1.7-9.8-4.6-6.8-11.5-6.9,4-7.7,8.3-16.5,8.3s-3.9,1.5-3-3.2c.4-2.2,5.4-16.8,6.1-17.4,1.3-1,7.4,0,11-1.7,20.1-9.2,10.2-14.5,14.6-31.9,1.5-5.8,6.6-11.8,6.8-16.8.8-17.6-2.5-34.8,1.3-55.3,1.1-6.2,5-7.4,5.6-12.8-12.9-3.3-32.9,7.9-30.8-12.4,1.1-11.3,11-8.4,18.6-12.6,24.6-13.5,17.6-72.3,16.4-96.4-.2-3.1,2-6,2.2-9l-12.2-11.5-8.7,6.7c-6.6-24.7,2.2-18.7,17-25.4,17.1-7.7,8.7-19.5,12.5-34.3,1.4-5.3,6.1-6.4,7.2-9.8,4.1-12.4-3-37.6-3.1-50.1,0-6.5,5.8-14.8,7.3-21.3-11.9,3.9-17.8-6.7-28.7-2.7l5.3-26.4,34.5-.4c-1.3-7.7-4.1-20.3-3.5-27.7.5-6,5.3-11.5,5.1-16.3-.2-6.2-5-17.2-5.3-27-.4-15.1,1.6-32.1,4.9-46.7-5.1,2.8-27.3,3.4-28.1-2.5,1.3-21.6,11.9-11.3,22-18.2,4.5-3.1,3.8-6.7,6.1-9.7,1.3-1.7,6.4-2.5,6.6-4,0-1.1-8.7-5.7-6.3-19.7,1.3-7.8,6.7-8.4,8.1-13.9,4.5-17.9-.8-45.4,8.1-64.4-2.2-5.4-6.8-1-8.9-2.2-3.2-1.7-10.8-17.4-20.7-5.5-12.9-18.2,9.5-21.9,21.8-26.5-27.5-19.1-56.7-35.9-87.4-50.2.4,1.5.7,3.1.5,4.7v-.6c-.7,6.4-4.5,13.2-3.2,20.5,19.6-6.8,38.3-7,27.9,19.4l11.9-.5c.4,7.7-8.6,5.4-10.3,12.7-1.1,4.9-4,23.8-4,28.6,0,10.8,10.9,35.9-6.9,43-20.9,8.3-23-25-19.6-38.2-2.7-4.2-8.2,18.7-8.2,22.2,0,6.7,6.1,13.2,5.7,16.9-.6,5.3-15.2,21.9-15.5,30.9,15-.7,25.7,7.2,40.7.9-5,21.1-7.8,41.4-5.5,63.2,1,10,8.8,11.2,9,13,.9,7.3-19.8,33.8-30.2,24.4l-13.8-13.8c-1.1,13.4-9.2,24.4-5.7,38.4,1.4,6,5.7,4.5,5.9,4.9.5.9-8.1,8-5.4,11.7,3.5,4.9,5.2-4.3,6.6-4.5,6.7-1.1,20.8,4,24.6,9.6,5.1,7.6-3.5,18.4-5.1,27.2-2.8,15.7-3.1,35.3-6.5,51.6-1.1,5.2-7.2,7.7-3.1,15.5-3.7-2.7-10.8-.4-12.9-1.2-3-1.1-3.8-11-10.4-7-.7.4-7.8,13.8-8.1,15.1-1.7,6.7-2.7,26.8,4.8,29.8,41.7-1.3,26.5,10.3,23,36.5-1.5,11.1-2,22.6-3.3,33.8-1,8.5.5,41.6-8.6,44.4-1.9.6-18.1,1-19.5.4-7.6-2.8.3-14.1-5.5-16.9,1.1,11.1-8.4,21.7-8.6,32.1-.2,15,20.5,14.6,30.6,22.2,17.3,13-1.8,20.4,7,37.2-9.7,18,4.2,62.6-25.9,57.9-4.8-.8-4.4-5.5-7.8-9.1-8.4-8.9-5.2,3.4-5.9,6.4-.5,2.1-3.1,3.3-3.3,6.6-.4,6.6.2,15.5,4.5,20.6l-9.4,5.5,6.6,8.9c10.8-4.9,34.1-7.1,28.5,10.5-.7,2.2-4.8,2.1-6,3.9-7.7,11.4-.2,14.5,0,22.6.2,12,.5,77.1-22.7,63.9-12.5-7.1,10.7-36.8-12.5-37.9,14,15.2-.6,21.9-1.7,30.1-.7,5.3,4.6,8.5,3.9,11.6-2,9.4-9,25.2-11,36-1.1,5.8.3,2.6,2.3,2.5,15.9-.2,30.5-14.7,32.8,11.4.8,8.8-2.5,20.5-1.2,28.1.4,1.9,4.2.8,4.7,5.4,1.3,12.2-5.3,10.7-5.7,12.3-1.1,4.1,1.4,8.8.7,11.7-1.8,8.1-7.9,17.6-7.6,27l-19.3.3-6.6-8.7c-1.7,6.9,2.1,14,1.5,20.5-.7,7.6-7.8,11.7-3.6,20.3,52.5-14,15.8,24.3,17.2,35.4.3,2.2,5.7,2.3,6.8,5.7,2.3,7.7-3.2,14.9-3.1,21.1,0,4,3.9,8.1,3.6,9.9-.2,1.7-5,4-6.4,7.5-8,19.8,7.2,32.2-28,20.9,1,6.1-5.6,10.6-6.6,13.9-1,3,.8,6.6,0,10.3-.2,1.1-.9,2.3-1.7,3.6,33.9-8.7,66.7-20.3,98.1-34.6l5.8-31.6c-5-3.8-29.7-3.4-28.3-12.1,2.1-13.2,10-8.5,17.4-11.4,2-.8,14.3-12.2,14.9-14.1,1.5-4.7-1.7-10.3-1.1-16,.7-6.9,5-14.9,6-23.9,1.7-14-1.9-38.5,0-48.1Z"/>
  <path d="M990.8,837.8c1-7.8,9.7-15.8,9.7-21.5s-6.9-8.8-5.8-14.4c21.4-7.5,11.7-15.4,17.2-29.6,2.2-5.7,9.4-6.3,11.5-12.5l-11.6-6.6,3.1-61.1c.6-12.4-34.5,2.9-41.7-3.1l1.9-20.8c10.5-.6,42.7-4.1,44.3-16.8.5-3.8-2.3-7.5-1.4-11.5,1.1-4.5,11.4-11.9,11.6-16.8.2-4.1-5.2-7.7-6.5-11.2-3.5-9.2-7.2-28.3-6.7-37.8.6-11.1,10.3-23.4,8.8-36.5-10.6,12.7-18.7,12.2-34.9,10.3-7.1-7-1.2-22.4,8.3-23,3.6-.2,7.3,2.6,11.3,2.2,3.4-.3,17.7-1.6,19.3-1.9,4.3-.9,5.3-9.2,10.9-10.6,6.2-1.5,11.4,3,17.4,2.9l.4-7.2c-12.3,5.8-12.2-3-13-3.2-11.6-2.6-2.6,8.7-11.2,6.7l-3.4-25.2,7.4-5.9-6.8-7.6c7,1.9,9.3-2.3,10-9-4.8-2.3-13.6-3.4-14.1-9.2-1.3-17.4,10.5-33.8,11.4-51.2l-27.5-7.6c-3.7-16.5,21.9-23.7,33-31.7-13.6-12.4,4-29.1,4.2-38.3,0-3.3-1.4-18-1.8-23.7-1-15.8-9.3-24.5,7.5-37.2-13.7.3-51.7-1.7-35.9-23.3,6.8-9.3,14.3-3.1,21.7-3.6,7.1-.5,12.1-5.7,21.3-1.4l1.8-4.8,4.8.2c-2.5,8.7,6,9.4,12.4,12.8,1.2-1,2.3-2.3,3.3-3.7,0-.1-.2-.2-.3-.4,5.1-8,5.3-20.1-5.7-19h0c0,0,4.3,8.7,4.3,8.7-2.2,0-4.5,0-6.8-.4,0,0,0,0,0,0-11.7-2.1-23.1-10.5-20.2-23.6,0-.3,0-.5.2-.8-17.4-20.1-36-39-55.9-56.6-4.3,16.3-23.6,7.6-27.2,10.9h-.4c-4.5,4.2-12.3,30-10,33,17.4,2.2,11,3.8,14.7,13,3.2,7.9,7.6,9.9,5,20.5-.9,3.5-5.1,6.4-4.9,9.1.2,2.1,4.6,6.2,5.7,11,3.4,15,5.1,48.2-7.1,59.2-9.2,8.3-15.2,4.4-18.8-6.1l-4.2-15.6c-3.9,21-.7,41.2-10.4,60.7h27.6c3.7,5.7,1.8,20,.9,27-2.1,16.8,1.7,10.3,2.7,22.6,1.1,13.4-4.5,18.1-6.4,28.5-1.4,7.3,0,16-1.1,23.5-9.7,7.2-24.4,17.6-22.7-1.6.3-3.1,4.4-7.9-2.4-2.8-3,8.1-1.3,16.7-2.6,24.9-1.1,7.1-10,16.8-2.4,23.1,4.8,4,15.9,1.3,17.4,9.6.8,4.4-2.5,8.2-2.1,11.1.4,2.7,4.4,4.3,5.2,7.7,1.4,6.2-.9,21.3-.3,28.7,1.1,13.8,7.1,16.9-.2,35.5-4.7,12.1-22.8,17.6-26.1,5.4l-4.8.9c6.9,10.4-5.7,32-.9,39.7,4.3,7,19.1-4.3,22.4,7.3l-12.5,27.4c.3,14.4,21.3,42.5,12.1,55.2-3.3,4.6-11.1,1.2-6.7,14.1-11.9,2.2-6.9-8.8-18.4-3.9-16.1,6.8-11.4,23.4-14.5,35.9,10.1-.7,19.5-2.7,28.8,2.9l-8.8,28.2,7.3-.8c-12.7,23.2,12,60-17.5,75.7-6,.5-7.2-15.7-14.6-11.2,5.3,14.9-1.6,29.5-2.2,44.3,32.1-1.9,18.9,33.9,17.3,54.6-.3,4.3,1.5,9.4.9,14.9-1.1,10.5-4.6,21.4-5.4,32.2-2,3-10.8,5.1-14.2,4.2-4.3-1.1-3.7-13.9-8.1-15l8.2,26.8c-9.4,2.7-18.9,5.7-22.4,15.7,10.7,2.2,29-13.5,35.4,3.6,6,16.2-7.1,26.8-7.9,34.6-1,11,4.3,26.6,2.4,40.1,13.4-7.9,26.5-16.3,39.2-25.2l-9.1-3.1c4.5-6.1,10.1-11.1,17.4-13.6,6.3-2.2,20.7-2.6,21.8-6.2,1.1-6.9-5.7-19.1-5.5-24.1.3-6.1,8.8-13.3,9.7-19,1.7-11-7.3-25.6-7.4-33.7,0-6.9,4.5-16.7,5.6-23.9-.6-4.7-21.6-6.5-21.5-17.7.2-20.6,26.2-9.8,30.8-20.6,3.3-7.9,9.8-40.1,10.3-49.4.7-13.2-6.1-34-4.9-43.2Z"/>
  <path d="M144.6,931.5c1.2-9.1-10-8.4-6.5-19.2l38.6-2.8c.9-13.6-11.7-16.5-17.6-26.5l15.2-20.5c-5-5.4-19.8-20.7-14.9-28,.9-1.3,7.7-1.5,9.2-6.4,1.5-5.1-3.7-26.5-.3-34.4-3.6-3.9-38.7,10.5-25.5-11.8,7.8-13.1,27.5-11.3,29.2-15.9-2.1-11-6.4-18.4-2.1-30,1.4-3.7,6-5.8,6.4-10.2,1.1-11.2-2.5-27.5,0-41.1,1.9-11.1,13.4-20.3,10.1-31.9-6.2,5.5-31.3,6.9-32.4-2.9-1.6-14.5,17-25.6,30-23.8,2.8-3.5-5.8-19-5.1-25.9.5-4.9,5.7-7,6.5-11.4,2.4-14.1-2.3-40.4,2-56.9l12.7-29.8c-4-4.5-21.8,24.2-23,3.6-3.9,5.2-8.9,11.1-16.2,11.2,4.8-13.6-.3-21.2,12.4-30.6,3.4-2.6,9.6-3.4,11.3-5.8,5.1-7,1.6-22.8,4.9-32,1.9-5.4,7.8-5.1,8.3-7.6,1.7-8.6-2.5-30.3-2.2-41.2.4-12,3.2-25.5,6.9-36.8-20.4,4.1-39.9-3.5-26-25.2l11.1,2.4c5.5-6.2,18,1.7,21.1-4.5,2.4-4.8-9.1-3.6-8.9-14.7.2-12,9.7-17.7,11-23.7,2-9.1-2.7-36.4-1.9-48,.6-8.5,4.8-18.7,5.7-27.3l-16.4,13.5c-37.8-15.2,7.2-35.5,25.1-43.1-4.4-5.3-10-13.7-9.8-20.7.2-4.4,6.1-7.9,7.1-15.5.2-1.8-.2-12.3-.7-20-27.7,22.7-53.3,47.9-76.5,75.1,1.1,15.4,4.8,30.6,1.1,45.7-3.3,13.8-12.1,18.3-23.3,8.3,2.1,6.5-5.4,6.6-5.6,10.4,0,3.1,1.9,6.7,1.6,9.9-.5,6.5-4,9.6-1.8,18,2.4,9.5,9.7,8.2,13.8,12.7,6.6,7.2-3.4,28.2-2.6,38.9.8,10.6,8.7,14.8,7.8,27.4-.6,8.2-10.4,29.3-19.1,26.4l-7.3-7.3c-6.9-.4-14.3,40.7-13.3,48.4l31.1,3c4.2,14.4-5.2,22.9-6.8,34.4-1.7,12.9,3.4,31.4,2.1,44-.4,3.7-4.2,5.6-4.6,8.9-1,7.2,6.2,11.8-3.2,19.2-3.7,2.9-9.5,2.9-12.4,6.6-6,7.9-4.4,20.2-4.3,28.7,0,15.2,1.6,8.3,3.8,17.2,1.6,6.7-3.6,16.9,4.2,20.2l5.5-14.1c3.3,8.6-.6,16.9-.2,24.1.5,8.8,7.7,13.1,7.8,14,2.5,14.8,0,43.6-20.4,43l-12.2-15.1-7.5,48.7c35.2,8.2,22.5,20.6,24.4,46.9.3,4.6,3.2,9.1,3.4,12.9.7,18.3.4,35.4-4.6,53.3-8.8-2.9-14.1-6.2-23.7-3.7-4.6-3.6,4.5-20.9-3-14.6l-2.6,26.3-7.4,1-.6,13.9c0,0,0-.1-.1-.2l-.3,7.4,4.2.4c0,.1.1.3.2.4l20.7,1.9,5.3-6.7,7.3,18.4-13.8,21c18.2,30,39,58.2,62,84.5,1.1-4.6,2-9.3,2.7-14,.6-4.1-2-8.8-1.3-11.7l-.2-.5c.7-3,7.1-6,8.6-10.5,1.7-5.3-1.1-18,4.8-25.1l-18.9-2.6Z"/>
  <path d="M51,737.3l14.2,3.1-18.5-13,7.4-3.2c-8.5-13.9-6.1-27.7-4.9-43.2-15.5-4.4-22.5-20.5-15.3-34.9l24.2-4.8c1.3-7.7-2.3-14.9,1.3-22.6,2.5-5.5,7.6-5.7,7.8-7,.7-5-10.5-27.5-10.5-36.4s1-21.9,1.6-26.1c.9-6,6.2-11.4,5.7-18-47,2.5-28.6-41.9,9-35.6-.2-7.2-6.1-7.4-6.6-15.9-.6-11.5,8.9-29.3,9.8-42.8.8-12.1-5.8-20.6-6-29.4,0-4.4,4.6-2.5,5.1-4.7.8-2.8.3-20.7-1.1-23.1-2.1-3.7-9.7-5-9-13.1,1.6-18.4,22.8-7.3,26.9-11.8-3.3-6.5-10.1-22-10-28.5,0-2.8,2.4-17.6,2.9-23.3.5-4.7,1.2-9.7,2.1-14.8C43,360.8,13.8,443.6,3.8,532.2c-.2,4.7,0,9.4,1.8,14-1.4.9-2.5,1.2-3.3,1-1.5,17.4-2.3,35-2.3,52.7,0,64.8,10.3,127.3,29.3,185.8h0c6.5-3.6,15.1-5.5,24.4-7.5-13.8-14.9-.2-26.1-2.7-40.9Z"/>
  <path d="M1143.3,803.2c0,0,0,0,.1,0,0,0,0,0,0-.1h0Z"/>
  <path d="M1143.4,803.2c2.6,7.4,9,20.5,8.3,28-.5,5.3-4.6,7.7-5.5,11.8-.5,2.4-.8,5-1,7.6,3.5-7.6,6.8-15.3,10-23-.8-10.7-1.3-22.8-11.8-24.4Z"/>
  <path d="M1199.6,578.1c-.5.4-.9.7-1.4.9-2.6,1.1-4.1-3.2-6.2-3.4h0c-5.1-.5-9.8,2.9-15.2-1.5,2.9,11.2-9.4,11-10.7,17.5-1.4,7.3,7,13.8,1.4,22.8l24.9-1.2c9.1,9-2.3,14.2-3.6,20.6-3,14.9,1.9,42.2,1.2,57.5-.5,10.6-8.4,20.1-19,21.8-3.8-1.1-3.9-16.6-12.6-15-2.3,16.9-10.1,32.6-6.4,50.3,4.8,5.5,22.1,3.7,27.9,5.9,13.1-49.2,20-100.9,20-154.3s0-14.6-.4-21.9Z"/>
  <path d="M1182,453.5c-.4-1.4-.7-2.8-1.1-4.3-1.6,1.5-2.2,3.1,1.1,4.3Z"/>
  <path d="M1176.8,480.3c1.3-7.4,4.2-11.8,8.2-14-.5-2.4-1.1-4.8-1.7-7.2h-5l-6.1,15.1h0l4.5,6.1Z"/>
  <polygon points="388.6 1134.3 388.6 1134.3 388.6 1134.3 388.6 1134.3"/>
  <path d="M374.6,1126.4c.5-18,.5-34.4-2-51.5l-7.2-1.8c-.3-4.1,5.9-2,7.4-5.8,2.3-5.7-3.5-9.6-2.9-13.3.8-6,12.4-14,9.5-18.5-2.7-4.2-13.8-1.6-17.7,1.2l-10.3-11.5c6.4-19.6,17-11.1,27.9-14.2,3.6-1,3.5-6.7,5.6-6.7,3.8,0,10.9,5.4,17.8,1,2.7-10-11.5-2.3-11.8-3,2.1-11.4-6.6-20.4-3.1-32.2.6-1.9,4.6-.5,5.2-4.9,1.2-7.8-1.8-15.9-1.5-24.1.6-15.9,3.1-31.1,4.9-46.7-6.2-1.4-31.9,1.4-32.8-5.2.3-24.9,34.7-14.7,43.5-33.9-9.3-10.4-2.3-17.3-2.4-28.9,0-6.8-3.6-13.6-3.7-19.8,0-17,5.3-36.5,7.4-53.3-2.1-2.4-26.4,9.5-23.7-12,1-8.2,28.8-11.8,30-15.7,2-8.9-1.2-17.4-1.4-26.1-.2-8.7-1.1-19.3-1-26.5,0-7,5.1-14.8,3.7-22.6l-7.3,2c2.7-13.5,8.3-24.4,6.9-38.9-4.6-7.4-16.5.4-21.7-3.7l-1.2-13.1c15-10.2,27.3,11.1,31.6-14.3,3.9-23.3.9-48.3,1.4-71.8-20.1-8.3-2-10.1-1.8-12.5,1.7-16.9-24.5-20.7-17.1-46,10.2-5.1,23-4.3,30.8-14.3.6-4.4-1.2-8.6-.5-13.2,2.6-18.3,4.3-38.7,5.7-57.5.9-12.1-4.2-24.4,4.1-37l-19.2.2c-24.4-32.9,9.4-19.8,22.8-25.3,10.2-4.2,1.5-11.5,1.5-16.2s6-16.7,5-23.7c-.7-4.7-5.6-7.8-6.1-13-.5-5.9.8-24.5,1.4-31.2.6-6.8,4-13.1,3.5-20.1-1.8-2-30.2,11.1-27.8-7,2.8-20.4,37.9-20.5,39.3-34.3.4-4.4-1.8-12.6-1.3-19.6.4-6.2,4.1-14.4,3.6-18.6-.2-1.9-4.4-.7-4.8-5.3-1.1-13.1,3.7-25.9,4.7-38.3.9-11.8-3.2-22.5,1.6-32.5-4.9-4.4-44.4,23.5-32.2-20.6l37.4-11.8c-27.2,5.7-53.8,13.3-79.6,22.5-.2,18.2,1.7,37.1,2.3,55.2l-10.4,14.2-19-4.7-2.1,40.7,26.4-1.1c5.7,10.3-2.1,14.2-3.3,20.4-.7,3.5-4,24.2-3.9,25.8,0,1.5,7.6,2.8,6.2,9.9-2.1,10.7-1.9,10.9-2.8,21.8-1.2,13.4-6.6,12-12.9,19-6.5,7.2,1.4,10.5-17.2,4.9-3,11.9-15.7,25.5-4.5,36.9,11.2-1.6,21.9-.2,31.2,6.7.7,5.9-6.4,14.3-7.1,18.6-1.5,9.2,2.4,24.8,1.7,33.5-.7,8.9-10.1,37.7-17.1,43.1-15.5,12-9-4.9-10.2-8.8l-5.3-3.3c4.9,8.4-2.6,11.6-4.8,18.8-3.9,12.9.6,23.4-.5,36.2,9.8-5.1,31.7-5.8,31.1,7.5-.7,15.2-14.6,12.8-15.2,21.3-.3,4.2,3.2,7.6,3.5,12,1.3,16,2.2,39-3.8,53.8-1.7,4.2-4.4,8.1-9.6,6.4l-8.2-12.2c4.8,10.6-11.2,43.1-9.1,48.8,3,8.3,22.2-.2,26.5,9.7,3.7,8.6-2.2,15.4-2.2,22.6s4.6,11.2,3.8,17c-.6,4-5.4,8-6.8,12.9-2.6,9.5-3.1,23.8-7.8,31.9-3.5,6-13.9,15.1-19.4,6.5l-4.8,2.2c5.2,8.9-10,33.5,1.2,34.4,11,.9,32-8.1,30.1,12.7-1.1,12.9-6.8,21-20.4,19.5,20.3,14.2,8.4,28.7,4.8,47.1-1.3,6.5.7,15.1-1.5,21.1-1.2,3.3-15,13.8-18.1,12.8-2.5-.8-1.8-9.3-8.1-7.7-2.5,14.9,11.5,17,.8,32.3l21.1,11.1-1.2,20.8-9.5,7.2c11.3,19.7-.2,40.6.6,62-8.2,15.5-27.6,5-29.7,25.4-2.1,19.9,11.1,12.3,25.8,14.5,3,2.9-12.8,28.7-13.3,32.2-.6,4.1,5.4,6,3.9,10.6l-12.1,3,12-.6c-3.1,16.1,5.3,47.2-10.3,58.2-12.6,8.8-17.1-7.3-21.2-4.5-4.8,9.9,0,20.2,2,30.9,2.9,1.9,5.9,3.7,8.9,5.6,5.4-1.1,10.8-1.2,16,1-1,2.6-1.5,5.1-1.8,7.4,15.3,8.8,31,16.9,47.1,24.4l40.1-10.6c-.1-9.1-6.6-10.7-14-7.9Z"/>
  <path d="M486.7,1137.1s0,0,0,0c0,0,.2-.1.3-.1h-.3Z"/>
  <path d="M506.6,945.8l-.5,9.6c15.9-1.6-5.2-18-5.7-28.1-.4-7.8,7.5-15,8.2-21.3.7-5.8-3.8-9.5-4-14.6,0-3.4,3.2-7.1,1.8-10.6-3.4-8.6-18-3.4-22.8-7l-1.3-18.3c20.6,7.3,23.8-12.8,41.4-9.9-6.4-6.4-2.2-9.9-2.6-15.3-2.4-31.4-.5-60.1,5.5-91.3-2.1-11-30.4,12-28.3-11.2,1.5-16.7,15.3-12,27.1-17,1.9-15-.9-27.1,7.4-40.5,2-3.2,6.3-2.3,7.6-7.6,1.7-7.1-4.1-5.7-4.5-7.8-3.8-20,21.3-50.8,7.2-70.1-10,10.3-5.1-.3-13.2-.7-.5,9.2,4.7,18.3-2.6,26.3l-9.7-25.7,4.4-5.7,12.8,1.9c.8-.4,9.7-13.7,9.9-14.5.6-2.6-4.5-13.3-2.9-21.1,2.1-10.9,9.9-20.9,11-33.4,1-11.1-4.1-20.8-3.2-28.7.9-7.9,8.2-14.6,3.5-25.2h-26.6l-1.5-16.7,39.4-17.6c-11.9-4.9-12-15.3-7.7-26.3,1.4-3.8,6.5-4.9,7-9.6,2.4-21.7-12.1-49.4,1.5-69,2.2-3.3,6.4-2.8,7.4-6.4l-30,5.8-5.9-13.6c1.2-7.3,10.1-5.4,15.1-8.9,7.3-5.1,4.3-10.9,6.8-17.8,11.5-30.6,15.1-59.2,18-91.5.3-3.3,2.2-6.2,2.9-9.4-10.2-1.4-34.3,6.6-30.7-11.1,2.7-13.1,18.4-14,21.4-19.5,5.5-10.1-2.7-27.5,17.3-34-18.2-10.4-4.6-41-3.9-57.9.3-8.8-5-14.2-10.3-20.8-7.4-2.7-10.2,11.4-19.3,3.9-7.2-6-2.7-20.1,3.2-23.4,2.3-1.2,6.4,0,8.8-1.5,7.1-4.2,13.8-8.7,21.1-12.5-19.5.4-38.9,1.7-57.9,4-.6,5.5-1.3,10.9-2.2,16-1.6,8.7-7.5,24.9-7.9,31.6-.5,8.6,10.2,18.9,0,28.2-11.3,10.5-20.1.8-24.2,3.6-3.7,2.5-11.3,39.6-9.2,41.8,10,1.9,23-7.2,28.1,5.5,0,19.6-1.2,39.8,0,59.4.3,5.2,3.8,10.3,3.8,15s-8,19-13.1,20.8c-.9.3-14.9-.3-15.6-.5-3.8-1.2-1.4-7.1-5.5-6.7l-7,42.9c8.2,3.5,23.8-6.5,28.9.2,4.5,5.9.6,18.6,1,26.5.3,5.8,2.8,11.5,2.7,16.9-.1,5.6-4.6,34.7-6.1,40.1-3.2,11.6-16.1,14.9-26.7,14.7-2-2.4,5.6-23.6-3.4-26.6,4.1,11.6-3.9,20.3-5.6,30.1-.6,3.4,1.7,7.7,1.1,11.6-1.1,6.7-5.7,16.3-5.9,21.7-.3,10.6,16.2,4.4,22.2,4.8,21.2,1.1,6.6,17.6,4.7,30.1-2.5,16.4,4.5,64.3-12,72.8-7,3.6-19,4.1-20.3-4.8-9.7,0-3.4,13.6-3.9,19.1-.8,8.3-4.2,17.8-5.7,26.1,5.2,3.3,11.9-.7,18-.3,29.2,2,14.1,18.1,11.5,35.5-1.4,9.4.7,19.8-.4,28-.4,3-7.6,29.2-8.6,30.5-3.1,4.3-18.6,6.3-21.7-1.2-2.3-5.4-.1-17.4-1.9-25.8-.9-4.2,2.1-6.6-4.8-5.8,5.2,24.5-2.7,50.4-3.5,75.2,1.7,7.4,22-3.7,26.9,7.7,3.8,8.8-4.4,16.6-5.1,25.1-1.3,15.9,6.4,44.2-2.3,60.5-3.2,6-13.1,6.3-13.4,14.3l-5.7-5.1c-7.2,14.3-18.3,21.4-15.3,40,13.9-2.1,15.1,12.9,28.6,3.9-1.6,12.6-4.7,24-4.2,37,.4,12.4,7.4,27.2,4.7,38.8-1.4,5.8-16.1,23-21.6,23.8-7.3,1-3.8-16.3-12.1-14.7,1.8,18.4-4.7,31.4-9.7,47.5,6.6,2.2,21.1-5.2,25.3,1.2v19.3l-7-2.8-.7,6.8h-6.9c13.8,16.3,18.5,102.1-17.8,66.4l-7.1,45.3,28.9-.9c2,14.4-11.2,24.9-10.5,39.2.2,4.3,4,7.6,4.4,10.9.7,6.7,1,17.5,1.2,26.3,19.9,6.4,40.3,11.7,61.1,16,4.7-19.6,11.1-47.4,8.9-50.6-7.2,4-12.2,8.7-18.9,1.3-.9,9.6-10.4,5.5-17.3,8.7-4.5-21.4,14.2-30.7,32.5-24.8-4.2-11.3,2.4-9,3-11,1.4-5,0-12.1.9-17.6l-7.6,9.2.7-14.4,7,2.8c2.7-11.9-9.2-9.1-1.2-22.4,6.5-10.7,3-7.2,6-19.2,1.3-5.4,10.4-32.2,8.8-34.6l-21.9,6.1c-5.4-26.8,5.1-18.4,17.5-28.7,10.5-8.7-.8-19.1,0-31.7.4-5.5,3.4-16.3,10.4-15Z"/>
  <path d="M268.3,942.7c1.1-1.1,4.2-25.9,6.7-30.5l-29,3.3-1.9-13,41.5-19.8c-4.4-7.7-4.6-17.9-2.8-26.5,5-23.3,0-26.1.4-48.2,0-4.9,5.8-27.3,3.5-29.9l-33.6-1.7c-1.5-29.5,27.2-21.4,45.4-27,10.3-3.1-1-17.2-1.6-25-1.1-13.1,3.9-32.6,3.2-46.9-.7-15.8-3.5-32-13.2-44.9-5.9-3.5-15.9,8.1-14-12.6,1.1-11.9,28.9-17.9,39.5-16,.3-5.5-4.3-7.1-4.4-13.4,0-7.9,6.1-12.5,6-18.7,0-5.3-5-10.2-5.8-15.5-2.4-14.5-2.1-37.1.3-51.7.4-2.2,4.7-4.6,4.4-7.3-1-10.1-21.3-2.8-28.4-5.4-2.5-23.1,24.2-18.9,37.7-28.4-4.1-12.8,3-25.8,3.6-37.9.9-18.2-8.2-40.7-4.9-57,1.1-5.3,8.4-9.9,4.4-18.7-6.1-2.9-4.4,4.7-6.2,4.6-3.7-.4-4.7-3.8-7.6-4.7-9.9-3-22.6-.9-19.1-17.2,2.2-10.2,18-5.9,25.3-7.6,3.3-.8,5.3-5.1,7.9-5.4,4.4-.4,11.2,5.6,15.8-1.4-11.5-13.6-3.1-24.4-3.2-36.3,0-12.8-4.6-34.4-4.4-50.5,0-7.7,0-15.8,3.7-22.7-11-3.8-14.4,6.5-23.7-6l-4.2,6.9-5.1-1.9c-11.4-15,11.3-19.4,19.7-25,14-9.3,6.8-9.7,8.9-18.3.7-2.8,11.7-14.5,13.8-18.7-6.3-16.5,8.7-55.7,3.3-68.4-3.9-9.3-12-2.9-16.5-3.2-1.4,0-.9-4.6-2.7-5.1-3.5-1-7.9.6-12,.5-14.9,7.9-29.5,16.4-43.6,25.5-1.3,6.2-2.6,11.6-2.9,12.6-5.1,14.6-15.5,2.6-19,4.1-10.8,4.8-9.1,29.3-6.6,39.3,35.2-.5,19.8,14.4,17.2,33.6-.6,4.5-1.6,24.5-1.4,28.7.8,16.2,13.5,36.7-6.5,46-7.4,3.5-12.6,2.1-19.9-.5l-1.8,33.6c52.2-5.7,19.5,16.1,17.4,38.3-.6,6.1,3.4,11.2,3.6,17,.5,15.4-.9,31.2.2,46.7-8.2-1-13.2,3.1-22.2-1.3-2.8-1.4.2-6.6-6.3-5l-6.1,45.5,23.8,6c5.9,8.8.5,21.7,2.1,29.6.6,2.8,6.1,2.8,6.7,5.7,1.5,7.9-7.8,35.9-8.7,43.1-.4,3.2,4.2,5.5,3,8.1-4,8.7-24.6,8.7-32.8,8.2l-7,42.4c9.2,3.6,16.9,6.9,26.9,4.2,6.8,2.3,6.6,52.4,5.6,61.5-.5,5-6.9,37.3-8.1,39.1-6.2,9.6-15.6-.3-16.9-.4-7.3-.6-17.9,37-9,39.6,15.9-3,32.6-3.2,29.1,17.5-1.6,9.3-9.1,10.2-10.1,14.1-.9,3.5,6.6,14.5,5.9,21.7-.4,4.8-4.3,7.4-4.6,9.7-2.1,16.3,2.2,19.5-9.8,35.2-2.9,3.8-10.5,1.6-7.9,12.7l-7.9-10-6.1,3.3c10.1,10.8-4.6,17.3-1.3,29.7l20.7,7.5-10.6,23.5c5.1,14.5,10.8,27.6,9.8,43.6-.5,9.3-9.2,16.3-3.9,27.3-17.4,9.8-25.6,5.2-43.2.3-2.1,5,4.4,9.5,3.7,12.9-.3,1.6-4,16.8-4.5,17.6-1.9,3.3-5.9,1.9-6.1,6.2-.6,18.2,14.5,4,18.7,2.8,4.8-1.4,13.9,3.9,19.8.5,2,6.9-5.7,3.8-7.3,8.3-1.2,3.4,0,8-1,11.6-.8,3.1-4.2,5.9-4.2,7.1-.1,2.3,10.4,15.2,11.9,20.5,0,.2.1.5.2.8,14.8,13.3,30.2,26,46.3,37.8,1.2-9.6,4-19,5.5-28.4l-13.1-5.4v.4c.1,0-1.5,7.1-1.5,7.1-21.3-16.5,12.6-29.9,27.1-33.7,3.4-10.2-3.1-21.9-2.7-26.3.2-2,4.8-6.6,5.9-10.4,2.5-8.8.9-33.3-6.6-40.1,1.8-3.7,8.3-2.3,9.4-3.5Z"/>
  <path d="M593.5,282.1l-24.1,1.1c10.6,0,23.2,17.7,24.1-1.1Z"/>
  <path d="M557.7,696c-.6-.7-14.2,5.9-14.7,6.5-6.9,7.2,18.2,6.3,14.7-6.5Z"/>
  <path d="M531.9,872.5l6.2,19.5c-.4-4.7,2.3-20.4-6.2-19.5Z"/>
  <path d="M579,471.2c.8-6.8.9-15.8-6.2-19.5l6.2,19.5Z"/>
  <rect x="605" y="209.4" width="7.2" height="4.8" transform="translate(366.3 809) rotate(-87.1)"/>
  <path d="M192.7,785.4c-3.5,2.6.4,11.1,2,14.3l9.4-1.8h0c.7-4.8-7.1-15.6-11.4-12.5Z"/>
  <path d="M208.6,663.7c-.4,4.3,2,13.1,6.4,14.7.5-5.4-1.1-12.4-6.4-14.7Z"/>
  <path d="M317.4,743.7l-9.2-7.7c-.9,6,3.4,8.3,9.2,7.7Z"/>
  <path d="M1151.3,697.7c13.8-1.6,13.5-8.8,13.1-20.9l-12.1,1.8c-2.6,6,3.4,4.4,3.9,5.4,3.3,6.8-5.7,12.9-4.9,13.7Z"/>
  <path d="M1149.3,782.8c2.3,3.9,4.9,4.4,9.4,4.1h0c0,.1.4-7.1.4-7.1l-9.6-.5-.2,3.5Z"/>
  <path d="M649.5,1015.5l.9-16.8-7.2-.3c-1.2,1,2.2,16.5,6.3,17.1Z"/>
  <polygon points="643 1094.5 639.4 1094.4 635.6 1098.9 642.6 1101.7 643 1094.5"/>
  <path d="M825.3,447.8c.7-4.8,8.4-18.1-1.5-16.9-1.7,5.7-6.4,13.3,1.5,16.9Z"/>
  <path d="M793.7,710.4h.1c0,0,3.5.3,3.5.3l.5-9.6-7.2-.4c-.8,4.4-.5,7,3.1,9.7Z"/>
  <path d="M760.8,953.9h0c0,.1,12,.7,12,.7l.2-4.8c-6-2.8-9.1-2.2-12.2,4.1Z"/>
  <rect x="491.6" y="58.5" width="14.4" height="4.8" transform="translate(412.7 556) rotate(-87.1)"/>
  <path d="M1044,540.8c.9,2.4,8.1,15.7,11.4,12.6,0-6.8-3.7-13.8-11.4-12.6Z"/>
  <path d="M902.7,671.8h0c0,0,0,0,0,0h0Z"/>
  <path d="M902.7,671.7c.2,3.3,9.6,1.3,9.8-3l-9.2-7.7-.6,10.7Z"/>
  <path d="M870.7,1106.2c-.5,4.5-1.2,10.5,4.1,12.2,2.4-6.2,2.5-9-4.1-12.2Z"/>
  <polygon points="881.5 943.4 890.9 946.3 891.2 941.5 885.3 938.8 881.5 943.4"/>
  <rect x="868.1" y="1070.6" width="4.8" height="7.2" transform="translate(-246.4 1889.2) rotate(-87.1)"/>
</svg>