<?xml version="1.0" encoding="UTF-8"?>
<svg id="Layer_1" xmlns="http://www.w3.org/2000/svg" version="1.1" viewBox="0 0 1200 1200">
  <!-- Generator: Adobe Illustrator 29.0.0, SVG Export Plug-In . SVG Version: 2.1.0 Build 186)  -->
  <path d="M978.1,1068.4c-7.5,6-15.2,11.9-23,17.6l23-7.8c1.3-3.2,1-6.5,0-9.7h0Z"/>
  <path d="M1177.6,399.8c-3-.7-6.1-.2-8.8-.3.5,1.4,1,2.8,1.5,4.2,2.6-.8,5.1-2.1,7.3-3.9Z"/>
  <path d="M997,919.9l-.9-4.8-7.2-.3c-7.6-10.8.3-22.3.7-32.6.2-4.6-1.8-8.8-1.7-12.6.3-12.3,5.3-33.4-2.9-41.8,1.1,7.2-3.5,9.2-10.1,9.1l-3.7-21.8c5.9,1.3,23.4-2.6,27-6.8,3.8-4.4,2.5-12.8,3.6-18.8.5-2.7,4.1-5.7,4.1-7.5s-5.3-4.6-6-9.9c-2.5-17.5,4.2-48.8,10.5-65.5-9.4-2.5-16.7-4.6-26.3-1.4l-1.4-19.3,27.8-.8c4.2-7.3-1.2-15.5-.2-22.8.8-5.5,6.1-9.4,6.8-14.2,2.3-15.5-2.2-34.8-2.9-48.6-.3-6,4.7-15.8,2.9-23.1-2.1-9.2-25,1.2-20.5-20.6,3.2-15.3,22.5-9.9,32.2-20.2-22.5-5.9-3.4-26.4-3.5-33.4,0-2.6-3.5-7.1-3.8-12.6-.6-10.9,6.1-23.4,4.2-33.1-.4-1.9-4.8-1.9-4.7-3.1,0-6,12.6-16.6,11-24.6-2.9-3.1-34.8,8.3-30.6-12.3,2.2-11.2,12.9-6.6,20.4-8,12-2.2,15.8-12.5,12.3-23.4-4.5-14.5-3.1-39.6-1.7-58.5.4-5.7,4.1-15.2,3.6-18.4,0-.6-6.9-8.3-7.4-8.6-4-2.5-23.3,4.7-20.1-11.9,2.8-14.5,9.4-8.9,18.8-12.2,14.4-5.1,7.5-12.1,9-20.2,6.4-35.1,13.2-23.4,42.7-21.3h.2c-5.2-6.8-10.6-13.5-16.1-20-3.4,7.9-7.6,14.4-11.9,13.8-12.4-4-13.8-24.2-11.6-40.2-19.4-20.6-40.3-39.7-62.4-57.4,2.4,5.8,6.9,11.4,8,19.9,2.5,18.9-4.6,19.1-7.3,30.3-1.1,4.6,2.5,6.8-1.4,13.4-6.8,11.6-22,7.4-24,10.3-2.5,3.6.5,23-11.2,25.5,1.3-8.9-5-14.7-5.8-23.3-.8-8.8,4.4-30.4,3.5-31.7-1.3-1.8-8.8-2.4-6.3-10.3-11.8,9.1-12-4.5-23.7-6-4.8-7.2,32.3-23.2,39.5-18.2l7.8-16.6c-12-6.7-13.8-10.2-9.5-16-24.3-17-49.9-32.2-76.6-45.5-3.1,1.4-5.9,3-8,5.2-3.6,3.8-6.7,22.7-9.6,34.1,3.8-1.2,8.3-1.3,14.5.3,10.3,2.7,4,13.4,15.2,7.9,3.3,9.1-8.2,16.4-8.3,22.4,0,2,10.9,28.2,11.9,37.2,2.1,19.7-5.6,18.5-7.4,25.8-.9,3.6,4.4,9.3-2.5,12.8l-2-7.3c-11.5,5.1-20.6,4.3-32.4,5.9.6,15.2-4.9,25.9-14.3,37.4,6.4.2,11.6-4.4,18.3-4,4.8.3,7.1,3.3,10.4,4,4.4,1.1,10.2-2.5,13.3,4.5,3.9,9.1-6.4,17.3-7,24.7-.6,7.3-.4,18.3-.8,26.9-.3,6.8,2.2,13.7.4,21.2-2.2,9.1-24.6,25.8-34.4,16.3-4.6,10.1-2.8,27.1-13.7,31.8,16.8,9.9,43.1-1.4,36.9,29.5l7.2.4c-12,13.2-3.4,36.4-5.1,51.1-.6,5.2-12,31.3-16,33.1-12.3,5.5-11.1-6.4-17.5-4.2-13.3,4.5-.5,21-7.7,30.3,13.8,9.8,31.5.4,33.6,23.5.3,3.8-6.1,5.4-7.1,12.9-1.8,13,6.1,32.1,2.6,45.8-3.6,14.4-24.9,25.2-39.2,21.2l-3.2,9.1,9.5,1.7c-7.3,9.5-21.8,13.7-25.3,25.1l32.8-6.8c12.5-1.2,23.9,4.4,19,18.6-1.8,5.2-12.3,8.7-12.4,14.3l8.4,3.9c-3.1,8.5,1.6,19.3-1.3,27.3-1.8,5-7.4,9.1-8.9,14.9-2.3,8.7-.4,23.9-5.7,31.6-3,4.3-8-5.6-13.2-.7l.6-12c-14.2-3.3-11.1,21.4-15.3,29.7-7.9,15.6-23.3,8.8-19.4-8.5.8-3.6,5.4-6.6,5.1-9.2-.2-1.3-9.6-18.3-10.6-22.5l5.1-2.4c-3.6-9.6-.5-10.9,5.5-17.5l-24.1,1.1c-2-6.3,3.8-4,4.4-4.9.6-.8-1.5-4.7.3-8.5,2.1-4.3,7.6-6.9,10.4-11.6,7.4-12.5,4.9-28.7,16.8-39.8l-11-10c3.2-6.5,1.9-14.5,3.7-20.8,1.7-5.7,8-10.5,7.6-16.8-.2-3.2-3.3-5.6-3.8-8.2-1.3-6.8,2.5-14.9-8.2-16.6-7.6-1.2-9.3,5.5-10.1,5.5-3.2,0-8.4-3.8-12.7-3.2-2.7-21,8.2-14.8,19.4-20h.2c5.7-2.6,24.1-12.9,20.3-20.4-.2-.5-4-.7-4.1-2.2,5.8-15.4,8.5-34.9,8.7-51.3,0-5.9-4.2-13.1-3.9-17.9.6-9.3,12-16.6-4.6-24.3l10-7.9c-5.7,2.4-33.4-1.7-35.6-4.5-1.5-1.9,0-13.2,2.9-15.4,1.5-1.2,31.3-.4,36.6-10-10.6-14.3,6.3-20.8,6.7-35.5.3-13-6.2-41-4.7-50.8,1.2-8,13.7-11,17.7-17.1l-41.9,2.4c-6.6-2.2-3.1-12.6.6-16.5,9-9.3,29.3.4,34-5.5l1.8-18.2-4.6-2.6c13.8-23.7,2.5-45.6,12.1-70.1,1.5-3.7,6.9-7.5,6.6-10.4-14.3-8.8-30.8-10.5-37-28.4,5-7.3,13.4-2,17.9-2.8,6.7-1.2,19.1-4.7,24.6-8.1l6.6,9.1,15.8-.8c.9-6.2.3-5.2-4.6-2.6-2.5-8-3.9-20.9-10.4-26.1-.1.2-.2.5-.3.7-.7,0-1.3-.8-1.9-2.1-.9-.4-1.8-.7-2.8-.9.7-.5,1.4-.9,2.1-1.4-3.2-12.9-2.7-51.2-1.6-69.2-17.7-7.3-35.9-13.8-54.4-19.4,0,5.1-.4,10.4-.6,10.9-.9,2-8.5,9.3-11.1,13.2-2.4,3.5-8,16.5-8.8,16.9-1.8,1.1-5.8-1.9-8-1.5-3.4.6-6.4,4.7-11,3.1l.3-5.4-4.7-2c-4,12.3-10.8,21.7-9.1,35.6,16.1,4.4,24.8-8.5,39-10-7.8,8.8-26,9.1-5.6,18,1.3,9.2-5.4,18.3-6.2,26.2-.8,7.2-.5,15.1-1.3,23.7-2,20.5,3.2,37.8-21.5,45.7-7.9-13.6-2-20.4,1.7-33.5-26.1,3.8-9.7,36-12.1,50.7-.3,1.6-4.1,1.4-4.9,3.1-12.1,27.4-5.2,16.3,12,20.4,11.2,2.7,4.3,13,5.5,20,.9,5.2,7.2,11.9,8,18.1.6,4.6,1.5,21.8,1.2,26.4-.7,12.7-10.8,31.6-25.6,31.1-2.9-11.7,9.1-39.6-10.1-36.5-1.1,3.8,3.4,1.2,4.5,4.4,1.1,3.1.7,8,1.4,11.5l-6.4,52.6c.8,5.6,20.7,3.5,22.7,11,1.1,4.2-3.1,10.4-3,16,0,9.1,5.7,22.7,5.5,34.2,0,5.7-4.7,44.7-6.1,46.6-4.3,6-7.4-1.9-10.7-3.9-1.5-.9-4.6.8-4.7.6-1.8-3,.9-18.1-7.4-21.9-5.9-.4-5.1,26.3-6.2,30.9-2,8.3-15.2,24.7-6.2,31.2,3.4,2.4,23.3,2.3,29.3,7.2l1.9,2.9c-5.9,29.1-.7,56.8-1.7,86.1-6.2-2.5-15.7,2.6-19.6,1.5-6.2-1.7-4.4-7.8-8.9-8.9-.7,8.7-6.3,18.8-6.4,27.3,0,3.5,5.1,16.7,6.9,17.9,4.4,2.8,16.1-2,19.8,6.4.9,2-2.5,25.6-2.4,31.7.4,15.4,0,26.7-3,43.5-3.1,16.2-10.9,23.2-27.1,21.9-.9,12.8-6.2,25.6-16.4,33.7,9.3,2.6,25.2-7.3,33.8-.8,6.6,5-2.8,14-3.4,19.3-.9,6.9,3.2,20.3,3.3,28.8.3,23.6-.8,57.2-31.5,55.2,0,10.4-2.8,19.9-6.6,29.5,12.9-1.5,18.6-2,31,3,3.1,3.4-7.4,61.7-8.3,70.3-1.5,14.8,5.4,17.8-7.9,34.3-4.6,5.8-19.2,12.4-19.9,13.4-2.4,3.2-.7,9.7-3.1,14.4-.6,1.2-13.4,14-15.1,13.9l-8.5-4.1c-5.7-26.8,3.3-52.5,11.4-77.7-13.5,6.5-12.7-13-28.5-6.3,5.1-4.7,13.9-11.9,20.1-14.5,6.4-2.7,11.5,2.3,15.8-7.4l13.1,5.2c3.7-11.3-9.7-5.8-8.9-14.8l-4.8,1-.3,7.2-12,.5c.6-12.7,0-28.5,11.5-36.7-9.9-4.3-10.2-19.5-10.5-29.4-.3-14.3.2-27.6,9.2-39.1-6.4,1.5-9.8-6.4-13.3-7.6-1.4-.5-29.7,2.3-29.6-.7,1.9-22.8,27.7-16.6,36.1-25.8,5.3-5.8,2.9-11.7,5.1-17.1,1.8-4.5,8.1-7,9.2-12.6,1.2-5.7-2.9-16.7-3.1-23.7-.6-17.4.2-35.1,0-52.5l-5.4-4.4-11.9,2.1-2.4-5.1c-5.8-1.6-2,6.6-7.4,4.4-4-1.6-2.3-7.8-.7-10.2,4.5-6.3,37.4-10.2,46.3-13.9,1-3.8-3-1-4.4-4.4-9.6-22.5,3-32.3,2.3-49.6-.2-4.6-5.6-9.6-5.9-15.4-.4-8.3,4.5-26,5.5-35.3l-10.1-4.3c-13.4,14-29.7-6.5-18-19.9,9.2-10.5,20.5.8,24.8-1.5.9-.5,11.6-15.1,11.9-16,3-7.4,3-28.8.6-36.5-.8-2.5-4.7-2.2-5.7-6.7-1.9-8.5.5-35.4,4.2-43.9,3.7-8.3,17.9-16.8,3.1-22.2-5.6-2-11.5-.8-16.9-3-8.7-17.9,8.6-21.2,22.8-21.9.3-6.3.6-12,3.3-17.9,2.9-6.5,10-8,10.5-14.9l-7.1,1.9c-6.7-8.1-1.7-14.5-2.3-20.1-.8-8.1-4.6-16.8-2.9-26.8,1.4-8.2,8.7-14.1,5.1-22.8-3.3-5.2-29.3,1.3-27.3-14.3,2.9-22.9,31.2-.2,41.8-14.8l-6.7-10.1c-1.1-8.6,6.4-2.8,5.4-10.4-11.7-1.3-11-7.4-7.6-17.4l8.4.6c2.6-6.4-4-3.9-4.4-6.6-4-23.1-2.8-50.1,3.7-72.7-4.2-1.6-7.8,3.8-10.9,3.4-4.1-.5-11.4-9.3-20.3-2.6-7.7-21,29.9-12.9,33.4-27.5,1.2-5-.9-10.2-.2-15.2,2.6-19.9.7-35.8,2.8-52.9.7-5.8,13.8-39.4.8-37.1l-9.6,6.4-18-11.7,4.2-13.2c-9.7-1.2-19.5-2.2-29.4-3-1.2,6.2-4.7,11.7-5.9,17.5-.9,4.2,1.8,8.4.6,13-3,11.6-15,17.8-23.1,25.2l-.8-8.6c1-6.9-2.7-2-4.3.3-10.5,15.1-.9,16.3-2.3,25.6-.8,5.3-9.8,14.5-10.2,21.4-.2,3.2,36.6-4.4,37.9,11.7.8,9.6-6.7,14.4-8.2,21.2-3.2,13.9-2.8,38.5-6.2,51.3-1.4,5.2-8.7,12-9.8,18.4l-16.3-5.3c-.7,13.5,2.5,24.2-4.1,36.8,1,4.7,10.4,3.6,15.2,6.8,10.5,7,1.4,25.7-.6,35.9l8.7,7.2c-5.3,14.8-1,30.8-10.5,43.3-6.3,8.4-16.2,13.5-20.4,25.5l4.3-14.2c-14.6,1.1-7.1,27-16.3,37.6,14.4-1.9,23.9,5.3,38.3,2,3.9,4.3-14.5,21.9-14.9,24.4-.4,2.3,3.2,9.5,3.3,14.6,0,9.5-3,16.7-3.4,24.1-.5,8.4,3.2,15.6.3,25.7-2.1,7.3-14.5,12.9-19.2,21.8-5.7,10.9-3.1,23.3-9.6,33.7,5.4,1.7,7.7-5.7,11.5-6.2,5.1-.7,13.6,11.2,22.2,5.6,2.9,3.6-10.1,20.8-8.3,29.5.9,4.5,9.3,1.3,5.5,22-1.6,8.6-2.8,22.1-4.2,28.2-.3,1.1-10.2,19.9-11.2,20.6-4.8,3.5-15.7-.3-20,8.4-3,6.1,2.2,15.4-2.3,22.6-.2,4.2,27.9-2.1,32.2,7.7,4.6,10.5-10.1,16.9-11.8,25.1-.8,4,1.9,8.1,1.4,11.6-1.3,10.2-8.4,54.9-15.1,59.5-1.8,1.3-6-1-8.9,0-11.8,4-12.6,25.4-19.3,34.5,11.5,0,14.5-8.2,26.4.2-1.8,9.9-14,17.7-13.2,27.1.8,9.5,10,17.6,10,23.8s-11,47.9-15.4,48.9l-7.9-2.7-16.3,34c7.4,3.9,14.1-2.8,23-2.6,7.7,0,14.8,4.2,22.6,3.8,1,9.6-17.6,20.5-18.3,24.2-2.4,13.4,6.2,17.1,6.2,24.6s-7.2,17.4-6.1,24.7l5.4-11.7c6.7-1.3,5.5,4.6,4.3,8.5-1.7,5.5-8.7,10.9-12.1,17-3.3,6-6.4,20-7.7,21.8-3.9,5.1-19.3-2.1-24.7,15.2-.8,2.6,1,5.8-.7,9.6-3.7,8.7-14.3,21.5-23.5,12.3-12.5-12.4-.9-19,1-29.4.6-3.3-1.3-6.8-.9-9.1,2.4-11.3,2.5-20.4,10.6-29.5l-15.3-12.6c-13.6,10.5-18.6,1-32.2,2.9l6.1-23.7c12.4,3.3,51.3,6.7,55.6-8l.3-6-6.2,4.5c-15.6-11.6-3-21,.6-34.8l-7.1-1.6,4.1-35.7c-6,0-10.7-1.3-13.7-6.8l13-26.7c-7.3-7.2-13.3-6.1-23.5-6.3-4.2-22,21.7-20.6,37.3-24.6-9.9-12.2,2.8-21.4,3.9-32.4,1.1-11.1-4.7-30.5-4.3-43.3.2-7.1,4.8-16.8,3.2-25.1-10.9.7-22.4.9-30.8-7.7,3.1-10.8,10.2-17.6,21.5-19,12.1-1.5,17.3,4.9,25.6-9.7.6-1.4-5.5-2.5-7.1-4.9-4-5.9,1.9-33.6,2.5-43.2.5-8-2.6-16.1-1.1-26.6,1-7.1,4.5-13.2,5.8-20.1l-25-1.1-1.4-7-6.4-1c-3-18.4,12.2-17.3,23.1-22.7,2.5-1.2,5.6-6.5,12.9-6.4,1.9-4.7,4-9.4,5.6-14.1.9-2.6,5.2-18.3,4.5-19-3.7-3.9-10.5,3.1-11.3-16.1-.5-13.4,2.2-39.5,5.3-52.7.9-3.9,3.9-5,5.2-8.2-9.8,4.1-33.1,5.8-32.7-9.7.3-10,30.5-15.1,38.4-18.1,3.1-1.2,3-5.1,4.9-5.3,5.3-.7,10,2.4,15,3.2,0-8.2,4.6-12.1,12.6-11.4-7.3-13.2-20.4,3.8-31-4.1-1-6.6,5.8-10.7,5.2-17.1-.7-7.5-10.4-15.4-10.4-20.2s2.7-7.6,3-12c1.1-16.8-.9-30.6,9.4-45.2-.7-5.2-29.6-5.9-35.6-7.9,4-17.2,24.9-15,38.9-17.6.6-4.4,4.1-9.6,4.6-13.4.6-4,1.9-23.4,1.6-26.8-.8-8.6-9.4-10.7-10.1-16-.6-4.9.3-21.5,1.2-26.6.6-3.7,1.9-4.6,3.2-13.9.8-6,4.3-11.6,3.5-18-1.4-1.6-25,11.2-16.3-10.5l-4.7-1.4,5.1-7.2c8.9,1.8,16.3.7,24.3-3.9,8.1-34.6-4.1-71.5,12.4-104.4-2.8-5.9-9.9-3.2-14.8-5-3.3-1.2-4.8-5.5-7.9-6.6-5.3-1.9-19.1,1.6-17.3-5,2.5-9.4,7-12.7,12.5-14-13.1.6-26.1,1.7-38.9,3.2.2,11-3.7,21.2-6,33.4-.7,4,1.9,8,0,12.4-2.9,7-19.4,20.3-27.8,13.7-1.2,21.3-2.4,39.4-27.4,41.9-3.3-1.3,3-3.8,3.2-5.8,0-1.4-3.5-4.4-3.6-7.5-.4-10.5-3.5-31.4-3-38.6.6-9,14.5-19.7-5.3-22.5-7.2-1-16.7,4.8-17-10.3-10.9,2.9-21.7,6.2-32.3,9.7,0,4.3-.7,8.6-2.3,12.9l3.3,3.2,6.1-1.3c-9.3,8.7,4.7,17.8-8.6,24.7-4.9,2.5-27.2,4.4-30.9,1.8-2-1.4-.2-9.7-4.6-9.5-6.4,8-.2,21.5-1.8,27.1-1.4,5.1-12.8,8.9-14.9,16.5-1.7,6.1,1.9,2.3,4.2,2.1,16.6-1.6,43.4,0,36.8,23-2.3,8.2-9.6,8.7-9.4,12.4l12.7,37.1c-6.5,11.5-12,28.2-26.4,31.5-4.1.9-7.9-1.6-11.2,0-4.1,1.9-7.7,11.4-12.8,13.9l6.9,5.2-7.7,10.4c27.6-8.4,39.4,1,29.4,29.3l4.8,6.1c-8.9-1.6-3,7.1-3.1,13.1,0,12.3-3.6,46.1-8.2,56.8-3.8,8.9-19.4,3-26,.3-2.9,13-12.1,19.6-13.8,34.2-.6,5.3-.7,3.1,2.4,2.6,9.7-1.7,19.1-.2,28.8.2,1.7,1.9-4.2,22-3.1,27.1.9,3.7,4.7,4.7,5.1,10.2,1,14-8,33.6-6.8,50.3.4,5.8,6.7,1.4,4.6,8.5l-6.9-2.6-14.3,15.9-3.2-7.4c-16.2,4.3-12.9,20.4-18.5,32.7,8.4,1.9,12.8-.7,18.8-6l3.8.2c2,.6,19,19.5,19.4,21.7,1.9,9.9-11.7,16.9-12.9,25.5-2.1,14.5,6.3,35.2,2,52.7-1.4,5.6-12,12.7-14,20l-24.4,3.2c-6,11.5-3.9,24.2-19.4,28,3.3-9.7-4.1-16.5-3.8-25.4.2-6.8,9-44.8,7.5-46.5-9.4-2-18.5,1.8-27.7,1.1-8.4-.6.9-13.8-.1-19.2,16.8,2.4,37.7,1.7,32.1-20.1-4.2.7-6.8,3.1-9.4-1.7,5.3-11.6,4.5-25.8,20.6-26.6l.2-4.8-7.3,2,2.7-7-7.3,2c4.2-20.2,1.1-42.7,5.7-63.3.9-3.9,3.9-5,5.2-8.2-8.1,3.2-9.3-5.6-12.8-5.7-7.6-.3-15.4,6.6-23.3,6.3l5.2-8.1-4.5-5,31.1-16.4c-2-10.2,5.3-19.7,6.1-28.3.5-5.3-3.5-8.4-4.1-13.7-1.1-9.7,4.5-21.7,2.7-30.7-.4-1.9-4.6-1.8-4.6-3.2,0-8.2,9-21.4,4.1-32.1l-12.1,1.8c-1-12.2-6.4-18.2,7.6-23.5,5.9-2.2,26-5.6,29.9-11.1,1-1.4-3.9-11.2,8.1-11.2l-5.6-6.9-5.4,3.6-5.4-3.5c13.5-13.2,3.3-21.2,1.8-33.7-1.2-10-.6-35.2,3.2-44.3,2.1-5,6.7-7.1,9.1-11.4l-33.5-1.8c-4.1-22.1,19.1-18.9,34.8-22.2-6.5-15.6-.5-29.9.1-47,.3-8.7,1.4-21.3,1.4-28.7s0-8.2,0-13.5c-34.7,16.1-67.6,35.4-98.3,57.5,7.8-.6,18.8-3.5,22.8,3.7,3.2,5.8-5.3,16.7-6.1,22.4-1,7.3,2.2,18.2,1.6,25.9-.8,9.8-10.4,52.3-24.6,48.7l-6.5-14.7-9.2,15.1,7.1,1.5-1.7,33.6c11.3-3,20.3-5.9,31.4.6,2.9,12.9-9.8,25-10.9,35.7-.8,7.2,5.8,11.9,5.4,18.8-.4,7.2-12,37-16.8,42.4-10.8,12-20.3-.3-26.4,3.6-5.2,10.8-4.5,23.3-4,34.8l35.8,5.6c-3.2,16-6.9,31.6-8.9,47.9-.4,3.1,1.7,6.8,1.2,8.8-.4,2-5.1,2-7.2,5.2-8.6,13-7.5,47.5-25.4,45.3-2.6-.3-1.9-9.4-8.2-7.7-.3,14.3,7,29.1-4.5,40.6,10.9-.5,15.9.4,20.1,10.8l10.7-1.9c-5,21.9-.8,43.6-4,65.8-2.7,18.5-4.4,41.3-29.7,31l-13.9,35.3c7.5,3.2,11.5,2.5,7.6-6.8,8.4-1.8,12.4,5,18.2,7.5,4.4,1.9,13-.6,14.6,5.2,1.9,6.8-5.3,10.8-7.4,16.7-8.3,24,13.3,71.7-16.1,86.1-8,3.9-12.2-.7-12.8-.4-1.7,1-5.8,31.7-16.2,34,11.3,1.6,23.8-2.9,33.3,6.5-21.2,5-3.2,15.5-1.6,22,2.8,11.7-4.8,51.2-12.6,61-10.2,12.8-25.8,4.2-27.7,7.2-2.5,5.6-1.1,11.7-2.5,17.5-.8,3.1-10,14.3-1.4,13.7,5.2-.4,30.1-7.4,32.2.8,2.6,10.1-4.1,11-7.8,16.1-4.5,6.3,6.9-1.4,4.5,5-1.4,3.8-7.9,11.4-7.6,13.8.4,2.8,6.1,4.7,6.5,12.6.6,12.4-7.6,13.2-8.2,18.7-.3,2.7.6,8,1.5,13.5,21.9,22.1,45.5,42.5,70.6,61,2.8-1.3,6.1-1.5,6.1-5.4s-3.5-8-4.2-12.4c-1.6-9.6-6.4-43.2-2.4-49.7,2.3-3.6,8.6-2.6,7.6-8.7-6.3,4-8.8-2.4-13.2-3.1-7.2-1.2-16.7,3.6-21.7-4.6,2.1-19.8,8.2-14.3,20.5-19.8,9.8-4.4,15.8-11.3,28.3-7.9-15.3-11.4-4.7-23.4-6.1-32.5-.5-3.3-5.8-4.8-6.2-12.5-.7-14.3,4.8-22.4,7.9-33.3,2.1-7.3-2-21.8.3-30-9.5,1.9-15-1.3-14-11.5,1.7-18.1,11.3-9.5,20.9-14.4.9-.5,14.6-15.1,10.9-16.4l-8.9,9.1c1.5-3.5.8-13.6,1.7-15.7,1.5-3.4,10.5-3.6,7-15.1-11,1.8-10.9,15.2-20.1,17-.2-6.2,15.1-17.7,15.4-18.9,3.5-11.2-1.6-27.6-.4-37.7.5-4,10.8-27.7,8.7-29.9-9.3.9-35.3-1.2-33.1-14.9,2.7-17,33.3-1.7,42.9-8.4,4.2-2.9,7.2-16.6,11.7-21.2l-14.7,6.4c-1.7-9.2,6.6-21.9,14.5-25.9,4.1-2.1,34,1.7,38.1,4.8,9.7,7.3-5.2,17.2-6.4,25-2.2,14.7-2.9,30.9-5.6,47.6-.7,4.4,2.5,28.8-12.5,19.1-5.8-3.8-9.7-36.9-18.1-29.3-2.5,2.2,5.2,15.7,5,20.6,0,4.6-3.6,9.7-4.2,14.5-1.3,11.6,0,23.3-4.4,34.3l14.6-6.3c-1.3,10.8,18.3,5.9,16.2,13.9l-12,11.4c7.7,10.1,2.7,23.1,2.4,33.7-.3,10.5,4.6,34.3-9.8,39.9-1.8.7-18.1,3.8-18.8,3.2-1-.8.3-10-4.3-9.8l-2.6,9.1c15.7,2.3-.8,30.3.5,31.6l26.3,3.8-2,4.3,4.1,1.8-8.6,27.2,9.9-6.7c-2.5,9.2,1.7,19.2,1.1,27.6-.5,6.4-4.5,12.9-5.6,19.3-2.1,12.5,3.2,27.7-10.9,33.5-4.8,2-11.6,1.2-14.6,2.9-2.4,1.3-13.8,17.7-11.3,20.4l16.9-1.5-5.1,5.7c4.6,6,11.6,7.2,18.8,7l-2.8,8.2c3.2,7,11.2-3,9.3,6.5-6.9-1-18,2.5-19.3,10.4-.4,2.4-.5,8.4.4,13.2,18.7,11.4,38,21.7,57.9,31l13.7-3.8c-21.2,0-39.7-1.6-26.9-27.4v-.3c-.1,0,28.9-7.2,28.9-7.2,2.6-2.7.6-10,1.9-15.2,1.6-6.2,7.7-13.8,8-15.7.8-5.1-8.7-31.9-8.3-43.7.2-5.3,4-11.7,2.8-17.9,6.2,5.1,10.2-1.9,14.7-6.4-10-2.6-22.7-2.8-32.1-6.4-3.1-1.2-3.9,1.7-3.4-3.8,1.4-16.6,16.5-18.3,24.2-29,15.4-21.5,17.3-33.6,16.2-59.9-.3-6.7-4.8-19.6-4.8-22.3,0-4,8.8-19.7,5.4-28.1l-21.5-5.1c1.6-20.1,18.7-20.2,34.9-24.7l-6.3-13.2,12.5-14.1-8.8-7.5,8.6-34.5-9.6-.5,9-35.6c-2.8-2.9-41.6,13.8-28.9-10.5,7.2-13.6,32.3-7.1,42.4-18.9-14.7-11.2-9-8.6-8.3-22,.5-10.2-.3-24.1,1.8-33.5,1.3-6.2,7.5-11.6,7.8-16.6.5-12.2-16.7-29.1,15.8-24.4,2.9,11.2-6.7,8.1-8.1,16.4,16.6,2.3,23.2-14.2,12.1-25.7-7.3,9.2-17.9,1.2-24.5,8.2h-3.5c0,0-.9-7.5-.9-7.5l-25.2,1.2c0-24.6,24-27.4,31.9-47.2,3.7-9.2-2.7-20.2,14.7-17.7.7-6.2-5.6-7.2-6.5-13.6-2.3-17.3,1.2-49.2,15.1-61.7l-12.1.6-1-4.9c-10.9,6.5-23,7.7-24.7-7.4-2-17.8,8.9-10.6,19.9-13.1,9.2-2.1,17.3-10.8,27-11.9l-1.2-5c-2.3-.8-5.9-1.2-7.4-3.2-5-6.6,4.2-47,5-58,1-15.3-8.9-29.1-.3-44.5l-23.7-6.1c.7-14.4,19.4-20.5,32-20.2,5.5-7.3-3.3-10.6-3.5-18-.2-9.1,5.8-28.2,6.5-38.3,1.1-15.9-4.1-34.6,2.9-51.2l-16.3-1.2c-16.2-31.8,13.1-14.1,28.6-27l-1.7,9.5c12.3,6.6,30.4-23.9,27.8-27.4-4.3-5.8-7.2,8.6-7.9,9-10.8-1.8-16.2-4.7-25.2,3.7-3.8-7.5,2.2-19.1,8.4-23.6,4.4-3.3,8.3-2.8,11.9-4.6,3.8-2,3-6.1,7.8-6.5,5.4-.4,15.4.6,20.6,2.3,15.4,5-1.6,27-1.4,33.3,0,3.9,5.1,9.3,5.7,15.2.4,4-.6,26.5-1.5,30.7-1.9,9.1-19.8,39.1-30,24l-11.2,30.6c52-2.2,34.8,23,31,55.9-.5,4.1,2.1,8.3,1.6,11.8-1.9,13.8-7.7,27.4-7,41.7-3.4,3-21.7-8.1-26.1-9.7-3.1-1.1-6.7-1-7.1,1.9,12.6,18.3,7.4,25.1-4.6,41.8,6.4,5.3,26.5-13.3,30.4,8.2,1.2,6.5-7.3,14.3-4.9,20.5,1.3,3.4,5.9,3.4,6.4,5.8,1.5,7.4.8,41.2-.3,49.9-1.1,8.4-28.4,44.8-39.8,28.1,2.3,7.1-14,22.5-4.8,23.9,9.8,1.4,16.5-2.6,27.2,5.1,7.5,5.4.4,9.2,2.1,12.7.8,1.6,8,1.8,6.6,6.7l-9.5-1.7c.2,3.8-2.6,7.5-2.8,10.9-1.2,18-.8,33.6-.6,52.6.3,17.1-1.1,20.1-17.2,26.5-17.1,6.8-19.7-1.5-23.7,24.5-.7,4.7,11.4,6.1,15.2,6.6,2.9.4,5.6-1.8,7.4-1.8s.4,3.7,2.5,4.6c8.7,3.6,13.7-3.7,12.2,14-1,11.6-9.1,63.9-13.7,71.1-8.8,13.8-17,1.6-19.1,2.9-.9,4.6-4.5,10.1-10.1,9.1l3.4-19c-5.7-3.6-10.9,19.8-10.8,22.2.3,4.1,4.8,6.3,3.9,11.7-.7,4.2-11.7,18.9-10.3,20.5l17.1-6.3-.4,7.2c10.7-5.6,21.6,2.2,20.8,13.9-.3,4-3.5,8.6-4.1,13-1.8,14-3.1,69.9-17.1,75.1-2,.8-4.5-1.7-6.6-.9-.5.2-4.3,7-8.2,6.2l2.9-9.4c-2.8-2.6-11.9,11.7-12.3,13.1-2.2,6.9,3.2,10.9,2.9,14s-7.5,7.2-7,11.7c-.2,4.2,16.8-1.8,20.1-1.7,34.5,1,2.6,23.6,2.5,29.4,8,2.6,2.3,5.5,3.3,8.8,2.2,7,8.3,10,4.6,20.1-3.2,8.6-13.3-4.8-12,5.7,29.8,4.2,7.6,25.3-4.3,37.1l7,2.7-8.7,5.6c.8-6.6-11.6-4.9-14.9-2.7-3.8,2.5-5,20.9-6.7,23.1-.3.4-5.3-4.8-7.2,3.3-.6,2.6,0,5.7-.4,8.4,1.4,1.9,39.6-13.7,37.9,10.3-1.8,25.1-2.8,51.8-6.3,76.6-.5,3.7-2.1,7.1-3,10.6-3.2-1.6-6-1.9-8.7-1.7,23.3,8,47.2,14.6,71.6,19.7-1.9-1.6-6.9-5.5-7.4-12.1-.3-3.8,2.4-6.6,2.4-8.8s-4.4-1.4-4.7-3.2c-2.7-14,15.7-29.7,27.1-35.5l-3.7,26.3c7.7-6,4.3-15,8.9-23.6,1.9-3.4,6.8-4.3,6-9.3l-30.2,5.8-2.2-5.1-16,6.4-3.9-15.6c2.1-6.1,42.7-.6,44-16l-7.2.9-2.1-2.5,5.4-19.3c14.9-4.4,35.9-12,50.3-3.8,13.3,7.6-2.1,16.8-3,23.4-.8,5.6,4.3,10.3,4.1,16.8-.3,9.3-7.2,18.9-8.6,26.3-1.6,8.8,5.6,22.3-9.6,23.4-5.1.4-16.2-6.9-19.2-2.4l-1.6,9.7,19.3-2.6c-13.9,6.7-20,14.2-26.6,24.8,32.2,5.5,65.2,8.5,98.9,8.6-.6-7.7-1.4-15.6-.9-22.6.6-9.6,5-18.8,4.2-28.7-.4-5-5.5-2.6-4.8-7.1,1.2-7.2,11.3-12.8,8.5-22.6l-24,2.6-4.7-2.9,5.2-12,33.7-6.9,2.4-27.8c8.9,1.7,18.7-7.7,25.4-8.1,4.4-.2,23.1,2.3,22.1,8.7-9.4,12.1-2.6,17.8-1.8,29.1.8,11-4.6,17.2-5.9,25.8-2.1,13.6,7.2,30.9-15.1,34-10.2,1.4-10.7-11-13.9-5.5-2.7,4.6-1.3,13.5-4.1,20.8-2,5.3-9.6,16.3-15.8,16.7-.8,3.8,3.2,2.7,5.8,2.7,10.4-.3,22.8-4.2,32.3,1.9,26.2-2,52-5.6,77.2-10.9,0-11.2-2.8-26.9-2.1-37.2.3-4.9,8.1-32.3,6.1-34.5-8.9,0-37.8,4.1-37-10.3.5-9.7,29.8-12.3,38.4-16.1-2.3-5.4-.5-16.9,1.7-22.1,1.8-4.4,8.8-7.6,9-9.7,0-1-3.4-4.2-3.7-7.5-2.1-19.6,3-22.5,6.1-38.6,1.3-7-3.5-16.3,4.2-24.4-8.9-4.8-15.3-2.8-24.3-4.3-2.7-.4-13.4-1.5-11.2-5.9,13-19.4,38.3-11.3,44.8-34,3.3-11.6,4.5-24.9-.5-35.8l5-4.4c-10.4-10.9-6.5-24-2.7-37.6l-7.2-.4c4.7-10.4,7.4-16.7,3.6-28.4l-28.5-1.7c-3.9-25.3,17-13.1,27.7-21.2,8.9-6.7,1.2-16.5,10.7-23.6,11.6-8.7,13.8-3.9,22.8-4.9,4.4-.5,7.2-4.7,12.5-4.4,4.8.2,7.8,5.7,13,3.3l-15,12.4c5.1,8.4,9.7-2.4,16.8-.3-8.6,13.6-.3,17.1.8,27.8.7,6.4-.2,22.2-1.5,28.5-1.9,8.8-15.6,34.2-26.5,31.4-2.7-.7.5-6-3.5-5.1l-9.1,35.6c31.5-6.1,38.6,3,25.2,30.9l11.1,11.8c-9,.3-10.1,11.4-10.6,18.7,18.6-7.4,3.8,11.1.6,19.7-1.7,4.7-5.6,21.8-7.5,24.5-4.6,6.3-14.5,6.9-19.8,11.1-4.6,3.6-24.7,28.2-12.7,30.9l30.2-4.7c4.6,11.7-4.6,18.3-6.1,29.5-1.3,9.5,1.4,17.3,1.3,26.5,0,5.9-4.7,14.3-2.5,18,1.3,2.2,7.6,1.7,5.9,6.2-9.2,12.8-22.2,31-39.6,20.8,2,12.8-.5,17.9-6.2,25.3,32.2-7.8,63.4-18.3,93.4-31.1l-.4-2.9,11.5-34.3c-7.8.3-14.6,2.9-22.7,1.1-2.4-.5-13.5-5.1-12.9-8.9,3.2-20.9,30.3-20.1,46.6-18.1-3.3-13.6-1.9-28-3.3-41.6-.8-8-5-14.9-5.5-22.5-.8-11.3,5.9-35.5,4.3-42.6-2.1-9.4-20.2-5.8-20.6-16.1-.5-13.4,16.1-10.7,22.8-15.4,13.7-9.5,5.1-39.9,7.6-54.9l17.1-55.8c-8.2,2.9-15-4.9-20-5.6-3.1-.4-6.6,2.9-10.9.5-5.5-3-4.6-11.5-4.1-16.9,1.3-3.9,25.3-.3,29.1-11.3,1.4-4.1.3-9.3,1.7-13.3,1.7-4.7,7.4-10.9,7.6-14.5,0-.9-7.3-1.9-6.8-14.9.3-8,4.1-12.6,4.8-17.6.4-2.9-2.6-5-2.1-7.6.8-4.3,8.8-24.4,7.4-25.9l-8.7,1.8-1.8-4.5-25.5.9c.7-5-.3-10.9.7-15.7,3.3-16.5,14.9-8.6,25.2-9.9,21-2.5,9.8-15.6,10.7-29,1-13.8,1.7-29.1,2.9-42.8,1.2-13.2,11.4-25.4,8.5-40.4-1.2-6.5-31.9-3.2-38.2-6-.3-29.9,17.8-16.6,33-20.3,14.9-3.6,5.7-40.8,6.6-51,.5-5.8,5.7-8.6,5.9-14,.3-5.4-4.6-8.7-4.5-14.5,0-3.2,2.8-17.4,3.7-21.5,1-4.4,10.5-11.6,0-12.8-5.3-.6-4.5,5.4-10.1-5.8-4.7-1.8-20.9,10.3-20.1,0,1.6-22.7,9.5-11.6,20.7-12.8,4.6-.5,14.1-10.1,23.4-5.4-1.1-8.4-3-18.5-.2-26.8-4.9-7.1-8-19.1-8.7-32.2-1.4-27.6,26.2-51.3-16.6-55.8l-3.8-18.3c13.5,9.4,24.4-3,38.9,4.5h0c2.7,1.4,0,5.6,3.8,4.9l7.3-10.4-7.3-11.2-6.2,4.4,3.9-23.5c14-2.3,23.7-14.1,38.8-12.7l-.3,7.2,7.3-2c2.5,9.6-10.5,30.3-8.2,36.9,1.7,4.8,8.6,3.2,8.3,12.3-5.5,8.7-10.2,46.7-17.2,49.8-9.5,1.1-21.1-3.9-22-14.5-6.2,6.2-3.4,34.9-1.8,52.6,12.3,1.7,30.8,5.6,31.2,7.4,2.1,9.4-4.8,7.8-6.6,10.2-5.2,7.1,1.5,12.1,1.5,15.7,0,6.5-3,13.4-2.2,21.4.8,7.6,8.1,14,5.6,21.5-1.5,4.6-12.8,9.8-12.9,17.7l-24.9-1.1c-1.1,15.3,2.7,28.4-3.3,43l21.1,6.1c2.2,2.4-2.8,19.6-2.2,24.1.5,3.8,4.5,7.8,5.1,13.3.9,8.3-2,17.2-.6,25.7.8,5.1,6.2,10.7,5.8,15.3-.2,3.1-15.1,17.3-17.8,18.3-6.7,2.6-11.3-2.8-15.2-1.9l-10.1,28.2,24.2-3.5-2.7,4.6c15.4.4,16.8,12.1,12.1,24.8-1.9,5-11.1,11-11.2,12.5,0,.9,5.1,6.2,5.8,10.4,1,5.4,1.2,33.5.7,40.1-1.9,23.2-38.6,8.7-32.9,34.3.6,2.6,7.2.4,4.5,6.6-6.8-.4-14.1,2.4-17.3,8.7,13.9-2.1,25-1.6,37.9,4.7,4.4,10.7-10.4,16.6-10.5,24.5,0,3.4,8.5,12.4,9.8,20.7,2.5,15.4-1,40.4-14.6,49.9-7.7,5.4-17.9,2.7-19.1,14.6-1,10,5.5,13-8.1,21.2,8.7,4.3,29.7-2.7,30.7,11.3.8,11-8.8,36.1-12.2,47.5,2.4,7.7,4.1,14,2,22.2-6.1,23.8-27.9,22.2-29.7,48.4-1,14.3,15.2,16.7,15.7,20.1.3,2-2.4,5.5-2.1,8.8.6,6.8,6.9,23.4,7.4,32.3.2,4.3-.3,10.1-1.7,16.3,13.1-7.5,26-15.6,38.4-24.1l.5-5.6,14.5-4.9c7.8-5.7,15.5-11.5,23-17.6-2-6.7-7-12.9-7.2-16.1-.4-4.9,3.3-9.2,3.2-11.6,0-2.1-5.9-2.1-6.9-5.6-1-3.6,3.1-12.9,3.4-18.7.3-7.6-2.6-16.7-3.5-24.5-.8-7.4,3.2-17.6-2.6-22.9-2.3-2.1-18.7-6.1-3.8-14,11-5.9,12,2.2,21.7-12.8.7-1.1,4.1-.5,3.9-1.8-.3-1.7-3.8-4.5-3.9-7.8-.3-6.5,7.9-13.6,14.6-12.1Z"/>
  <path d="M392.4,1158.5c-1.7-.2-3.2.5-4.4,1.8,1.9.7,3.9,1.5,5.8,2.2l-1.4-3.9h0Z"/>
  <path d="M1137,621.4c-.3-2.3-4.9-2.4-5.9-4.2-3.9-6.6,1.6-40.8,3.7-50.3l-21.3-3.6c.6-18.7,33.4-25.1,49.2-25-2.7-12.3-22.8-10.8-13.2-24.2,1.4-1.9,5.1-2.2,6.1-3.7.6-.9,2-11.6,4.5-14.3l-9.9,6.7c-15.7-19.7.8-45.6-4.3-65.8-1.8-7.2-21.1-12.6-17.7-25.2,12.3-9.1,29.1-4.3,41.6-8.2-.5-1.4-1-2.8-1.5-4.2-3.2-.1-5.9-1.2-7.4-6.1-1.8-5.9-1.6-10.5,0-14-16-40.4-36.3-78.7-60.2-114.2-1.6,1.2-3.4,2.2-5.6,3.1,7.4,2.4,3.9,6.7,4.3,13.3h.5s7,.5,7,.5c-2.9,8.6-5.3,18.3-6.2,27.3-.4,3.8,2.4,8.1,1.4,11.6-2.5,8.5-28.3,23.3-36.3,11.8l-16.5,38.8c17.1,2.2,33.7-3.7,47.8,10,.4,6.4-7.2,14.2-7.8,19-.5,3.9,3.8,8.5,3.7,14.2,0,5.9-3.4,12.2-3.8,19-.8,15.5,9.4,33.2-13.7,37.8-15.4,3.1-20.3-3.9-29.7,15.3l7.1,1.5c1.8,5.6-9.2,11.6-3.3,15.5,5.7,3.8,25.1-.3,30.5,11.5,1.7,6.4-4.5,10.6-5.1,16-.8,8.6,5.4,19.9,5.5,24.4,0,4.6-10.8,24.7-8.4,27.3l7.2,1.6c-5.8,19.2-8.8,28.7-31.2,23.8l-1-7.4c-11.7,5.3-4.3,16-7.1,26.2-1.9,7.2-8.2,12.4-12,18.5,11-.6,38.7-7.5,41.9,6.9,1.7,7.7-7.3,18.7-7.3,25s7.4,17.6,8,24.5c.9,9.7-1.7,46.2-13.4,47.8-6.7.9-15.6-8.5-19.8-6.6l-13.5,29.5,25,5.9c-2.2,13.4,9.4,14.6,11.2,26.6.8,5.1.5,11.2-.3,16.3-.8,5-7.9,26.8-10,32-2,5.1-8.1,10.7-11.7,15l4.5,5c-1.9,2.1-18.9,4.3-20.7,4-1.9-.3-6-6.4-8.1-4.3-5,5,4.4,7.9,5.4,9.8,5.8,10.4-9.5,20.1-10,30.8,15,1.7,36.1-4,32.1,17.8-2,11.1-5.4,16-3.2,30.5,1,7,9.1,9.7,8.9,15l-23.4,32.4c-10.4,2-22.2-1.8-30.6,6.8-2.5,4.1,3.6,7.2,3.1,13.1-.4,4.9-4.9,12.6-8.1,16.7l15.8.4c28.2-25.3,54-53.3,77-83.5-2.3-7.6,2.9-10.8,9.4-12.8,9.6-13.4,18.8-27.2,27.3-41.4l-1.4-12.6,4.7-2,.2-4.8c-.2-.9-4.3-1.1-4.7-3-2.8-15.7,9.3-34.6,9.6-50.5-8.2-4.6-16.8-2.8-25.1.8l-.7-9.6-9.7,1.9,1.8-7.3,39.9-9.8c.6-4-5.3-2.3-6.6-6.6-2.7-9,3.9-25,3-35.2-1.7-20.4-6.6-29.8.2-52.2,1-3.3,7.5-6.4,6.4-11.6l-8.4,1.7-4.9-7.4c-10.5,1.7-16.9,6.7-27.4,0-2.7-21,26-13.2,36.6-24.1.4-.4,6.4-10.3,6.1-10.9,0-.2-3.5.4-4.8-1.9-10.7-19.2,6.1-31.5,4.8-42.3Z"/>
  <path d="M1197.4,516.6c-.3,6.3-7.5,16.8-7.6,20.7,0,3.2,3.7,6.2,4.1,9.9h0c.7,6.2-8,47.7-10.9,51.1-4.7,5.5-15.5,2-19.8-2.9-2.4-2.8-3.1-7.4-3.1.5,0,14.7,5.6,28.9,2.7,42.2l12.3-6.6c-1,9.8,14.2,8.4,15.9,14.4,1.5,5.3-3.8,23.3-3.9,30.7-.2,13.2,5.9,48.7-.2,57.8-3.3,4.8-18.2,7.7-23,6.4-3.1-.8-4.1-5.7-8.5-4.6.6,14-1.1,22.9-9,34.3,4.9.4,22.1,1.4,30.8,4.3,16.8-55.3,25.9-114.1,25.9-174.9s-2-56.1-5.7-83.3Z"/>
  <path d="M1172.6,475.3c-12,8.8-4.7,21.9-7.8,33.2,5.7,1.5,29.7.7,32.4,6.8-2.2-15.4-4.9-30.6-8.3-45.6-.8.4-1.5.8-2.1,1.2-4.6,2.5-9.9,1.3-14.3,4.5h.1Z"/>
  <path d="M227.7,132c-7.5,6-14.8,12.2-22,18.5,6.3-1.4,14-1.6,21.2-2.7l.8-15.8Z"/>
  <path d="M82.9,301c-.2.4-.5.8-.7,1.3.3-.4.5-.8.7-1.2h0Z"/>
  <path d="M33.1,738.6l-14-.7c3.4,14.4,7.3,28.6,11.7,42.5.6-1.5,1.3-3.1,2-5,2.5-6.1-3.1-28.3.3-36.8Z"/>
  <path d="M40.3,646.6c1.8-9,12.2-24,11.2-33.2l-38.4-.8c-8.7-44.5,18-17.8,39.8-35.2-10.4-10.1,5-25.5,6.3-33.7,1.2-7.5-5.5-16.6-5.5-24s3.2-10.8,3.5-16.5c.7-11.6.9-23.3,1.7-34.9-10.8-1.5-21.6,4.4-31.2-3,.9-19.5,20.7-17.2,32.7-27l-7.1-1.5c3.2-5.8,0-12.2,1.3-17.3,1.4-6.1,8.5-12.1,10.1-19.5,4.8-23.3-.2-50.8,18.2-69.8-6.8,2.4-11.9,2.5-16.6,1.4C25.9,412.5,3.2,503.6,3.2,600s4.2,82.1,12.3,121.3c6.5-.2,13.5,0,18.6-1.9-17.5-17.1,3-23.6,6.2-35h0c2.6-9.5-2.4-25,0-37.8Z"/>
  <path d="M138,947.9s-.1,0-.3,0c0,.1,0,.2,0,.3l.4-.3Z"/>
  <path d="M141.9,847.7c22.4-6.6,9.1-14.1,11.7-24.4.6-2.4,6.1-1.1,7.9-7.1,2.6-8.9-4-4.9-6.2-6.9-6.2-5.7-1.6-15.5-2.4-21.8-1.8-13-10-17.3-4.4-31.4,2.4-5.9,9.1-11.8,9.8-19.3-.5-3.4-25.9-10.6-30.7-7.8,0-30,19.6-11.5,36-22.1-.8-13.1,6.9-25.8,8.1-36.8,1.1-10.8-2.8-21-3.3-31.5-.7-15.1,5.1-27.3-4.2-40-8.9-.7-31.5,2.7-29.3-12,2.5-17.1,39.6-3.6,49.3-21.7,1.6-7.1-4.6-.9-7.2-2.7-10.5-7,2.3-23.3,1-31.7-.8-5.1-4.8-9.2-5-14.5,0-2.1,3-29,3.6-32.9,1.7-11.7,5.4-23.4,8.7-34.6-7.5-2.7-4.1,8.1-8.9,9.1-4.2.8-5.3-4.6-5.6-7.5-2.3-2-13.1,11.1-12,.6.3-2.7,2.2-10.8,3.7-12.4.6-.6,13.4-7.7,14.2-8,5-1.8,18.6,1.2,21.9-9.3,2.3-7.5-11.8-10.2-7.9-26.2,4.5-18.4,2.2-40.8,8.5-61.6,1.8-5.8,7.2-9.6,7.4-15.8-13.9-1.3-28.8,6-30.5-13.6l39.1-12.5c1.1-4.9-4.2-7.4-5.5-12.1-4.2-15.2,5.4-14.8,7.3-22.6,2.3-9.4,2.2-25.7,1.7-35.6l5.1-2.5v-3.6c-16.2-1.3,1.3-34.6-1.3-38.6l-30-3.9c-.6-3.6-.6-6.6-.2-9.2-31,29.2-59,61.8-83.2,97,14-.6,26.9-3.3,38.5,8.2,2.1,2,1.9,2,1.3,5.1-19.7-1.7-13.3,13.1-12,24.6,2.6,23.7,4.6,38.2-7.6,61.4-8.3,15.6-15,7.4-20.3,12.9-2,2.1-15.7,24.3-2.2,19.1l-2.8,7c40.5-4.3,18.1,21.4,16.9,40.7-.3,4.5,4.5,2.3,4.8,7.1,1.3,16.6-4.9,37.9-12,53-11.1,23.5-24,3.1-27.3,6.5-.9,4,1.3,8.4.4,12.3-1.1,4.7-15.2,23.4-5.8,23.6,7.9.2,20.5.5,26.6-3.5,15.1,14.5-6.9,28.3-7.7,36.6-.8,8,3.4,23.4,3,31.6-.5,9.9-6.6,21.5-4.1,32.1-7.9-3-14.3,4-20.7,4s-10.9-5.1-11.8-5.2c-9.2,0-2,34-8.1,42.3l33.5,1.7c2.6,10.4-8.7,12.3-10.6,19.9-2.3,9.3,2.3,18.9.7,25.9-1.4,6.3-12.2,12.2-9,18.1l11.5-13.8c-5.4,11.5,1.2,49.7-18.1,48.7-7.8-.4-7.1-13.4-12.9-8.3-6,5.4-3,15.1-4.1,20.8-.9,4.7-9.8,21.3-1.6,21,13.9-.6,7.1.4,16.2,3.8,5.9,2.2,13-1.6,13.1,11.1,0,11.6-7.2,5.3-9.5,5.9-.7.2-7.3,8.9-10.5,9.7l15,16.2c-.8,4.7-1.3,9.4-1.8,14.1,15.9,30.9,34.5,60.2,55.3,87.7,3.1-5.2,7.1-11.7,7.8-12.7,1.2-1.6,3.6-1.5,4.5-1.5.2-2.5-6-19.3-5.9-27.5.2-16.4,9.4-29.5,7.3-46.5l-21.5-1.2c-.7-24.4,7.8-20.2,24.3-25Z"/>
  <path d="M436.3,562.3c8.2,1.9,14.2-6.2,15.1-13.6-10.2-1.9-16,3.1-15.1,13.6Z"/>
  <path d="M403.4,1014.8c-4.9-6.9-2.4-11.6-1.4-19.3-18.8,0-2.6,22.7,1.4,19.3Z"/>
  <path d="M387.2,1100.8c-1.4,5.9-1.4,8.7,5,6.8,10.3-3,6-12.7-5-6.8Z"/>
  <path d="M460.4,443.4l-4.2,10.3c9.7,2.8-2.6,9.6,6.5,13.8h0c2.3-2.9.7-23.9-2.3-24.1Z"/>
  <path d="M436.8,692.2l-7.1-.4c-2.4,6.1-3.7,9.3,4.2,9.8h0s2.9-9.4,2.9-9.4Z"/>
  <path d="M374.2,974.8c6.8.2,13.8-3.7,12.6-11.3-2.6.4-13.4,10.6-12.6,11.3Z"/>
  <path d="M435.1,724.5h0c0,0,.2-3.6.2-3.6-5.7-1.3-7.8,5-10.1,9.1,4.6,1.2,6.8-2.8,9.9-5.5Z"/>
  <path d="M400.8,969h.1l.2-4.7-9.7,1.9c-1.7,8.3,3.4,3.7,9.4,2.8Z"/>
  <path d="M480.6,168.1l1.8,12.1c11.2,3.1-.4-13.7-1.8-12.1Z"/>
  <path d="M425.6,816.5l-9.9,6.7c5.7,1.2,10.2-.6,9.9-6.7Z"/>
  <path d="M222,289.4c4.3,1,8-2.8,10-6.7-4.3-1-8,2.8-10,6.7Z"/>
  <path d="M668.7,807.4c-1.3-1.4-30.6,2.6-24.4,8.3,9.2-.5,25.5,6.2,24.4-8.3Z"/>
  <path d="M724.9,137.4l-14.5,2.8,4.1,13.4c6.3-2.7,10.6-9.3,10.4-16.2Z"/>
  <path d="M724.9,137.3s0,0,0,.1h0Z"/>
  <path d="M657.3,845.3l2.5,19.2c6.8-5.2,7.2-13.3,7.1-21.3l-9.6,2h0Z"/>
  <path d="M681,709.5c-7.9-.4-14,8.5-6.7,14l6.3-3.6.4-10.4Z"/>
  <path d="M704.8,434.3l-12.4,9c8.5,2,11.7-.3,12.4-9Z"/>
  <path d="M654.5,991.7l.4-7.2c-11.9-1.5-12.4,7.5-.4,7.2Z"/>
  <polygon points="728.4 115.9 721.5 115.9 718.4 122.6 728.1 120.7 728.4 115.9"/>
  <path d="M737.8,25.1c-5.1,1.7-8.4,6.1-7.8,11.6.9,2.3,9.1-9.9,7.8-11.6Z"/>
  <path d="M674.4,745.3c-4.3-1-8,2.2-7.5,6.7l4.7.3,2.8-7Z"/>
  <path d="M666.9,752.1s0,0,0,0h0s0,0,0,0Z"/>
  <path d="M542.6,829.7c1-.8,11.6-22.1,4.8-23.8-9.6-2.4-8.9,16.1-8.5,21.1.3,3.9-1.6,6.7,3.7,2.7Z"/>
  <path d="M574.4,435.2c2.2,2.3-.3,11.4,4.7,11.8-.2-7.2-.6-18.9-11.1-17.4h0c-2.3,7.7,4.5,3.6,6.3,5.6Z"/>
  <polygon points="334.2 444.1 333.9 472.9 342.6 458.2 334.2 444.1"/>
  <path d="M351.6,339.3l-3.9-17c1.1,5.1-5.1,18.5,3.9,17Z"/>
  <polygon points="355.7 261.4 362.4 270.1 367.5 263.2 355.7 261.4"/>
  <path d="M327.9,614.4c-7.3-1-8.1,5.6-7.8,11.6,1.2,1.9,9.7-9.4,7.8-11.6Z"/>
  <path d="M374,138.6l-5.5,14.1c4.8-.5,12.1-11.5,5.5-14.1Z"/>
  <path d="M377.6,254.1h0c-4.4-.8-7-.5-9.7,3.1l-.2,3.5,3.5.2,6.4-6.8Z"/>
  <polygon points="958.9 142.2 963 132.8 959.5 132.6 955.7 136.1 958.9 142.2"/>
  <path d="M500.8,53.6h0c.4-5.1,2-12.4-4-14.5l1.7,14.5h2.3Z"/>
  <path d="M1069.8,299.3l-14.9,10c11.8,12.5,15.7,4.3,14.9-10Z"/>
  <polygon points="1032.1 705.9 1032.5 720.3 1039.3 706.3 1032.1 705.9"/>
  <path d="M1002.3,941.4c-2.1,1.8-6.2,2-6.6,5.3,8.1,1,14.7-2.4,15-11.2-5.5-1.6-5.6,3.5-8.3,5.9h-.1Z"/>
  <path d="M1053.6,428.3c-2.4,2.1,2.4,11.8,6.5,12.3,6.1-7-1.9-16.4-6.5-12.3Z"/>
  <path d="M1009.4,805.2h0c-1.9.9-4.4.3-6.5.2l2.1,7.3,10.1-10.3c.3-8.8-4.2,2-5.7,2.8Z"/>
  <polygon points="1058.4 334.8 1065.9 326.6 1066.2 323.2 1061.4 322.9 1058.4 334.8"/>
  <path d="M300.3,822c-1.5-1.8-17.8,10.8-19.6,12.4-2.7,2.4-6.3,3.2-5.4,7.9,1,1.1,17.7-9.9,20.4-11.6h0c4.6-2.6,5.1-2.7,4.6-8.7Z"/>
  <path d="M315,695.7l-8,2c-7.9,11,20.8,7.9,8-2Z"/>
  <polygon points="277.9 1025.2 278.8 1007.4 271.7 1005.7 277.9 1025.2"/>
  <path d="M275.1,1032.3h0s-.5,9.6-.5,9.6l4.8.2c.8-4.4.4-8.3-4.3-9.8Z"/>
  <path d="M862,1115.2h0c0,0,11.8,3.1,11.8,3.1l.4-7.2c-4.5-.6-10.5-1.2-12.2,4.1Z"/>
  <path d="M894.9,944c-2.3-2.1-14.1,5.1-14.9,8.8,6.6,1.4,11.9-3.7,14.9-8.8Z"/>
  <path d="M870.8,945.1c-3.1.8-12.3,8.7-10.2,11.5,5.5-3.2,11.8-3.6,10.2-11.5Z"/>
  <path d="M800.3,585.8c1.5,5.6-5.9,23.1,3.7,21.8-1.5-5.6,5.9-23.1-3.7-21.8Z"/>
  <path d="M796.7,703.4l-10.3,13.9c6.1,1.8,8.4-10.3,10.3-13.9Z"/>
  <path d="M753.2,1128.9c5.5-1.2,5.4-7.3,5.4-11.7-5.5,1.2-5.4,7.3-5.4,11.7Z"/>
  <path d="M1161.8,590h0c8.7-4.7,6-20.4,5.2-29.8-.3-3.6,0-7.4-4.4-8.6.5,12.9-4.5,25.8-.8,38.4Z"/>
  <path d="M1168.9,433.4s0,0,0,0h0c0,0,0,0,0,0Z"/>
  <path d="M1176,429.8c-3.4-.9-5.5.5-7.1,3.6l1.7,8.1c5.5-1.2,5.4-7.2,5.4-11.7Z"/>
  <polygon points="630.6 1129.9 625.3 1139.2 634.9 1139.7 633.3 1126.2 621.2 1124.6 630.6 1129.9"/>
  <polygon points="634.8 1094 627.3 1100.8 634.4 1101.2 634.8 1094"/>
</svg>