<?xml version="1.0" encoding="UTF-8"?>
<svg id="Layer_1" xmlns="http://www.w3.org/2000/svg" version="1.1" viewBox="0 0 1200 1200">
  <!-- Generator: Adobe Illustrator 29.0.0, SVG Export Plug-In . SVG Version: 2.1.0 Build 186)  -->
  <path d="M355.2,1154.6h6.9l1.4-3c-1.5-.6-2.9-1.3-4.4-1.9-1.9,1.5-3.5,3.5-3.9,4.9Z"/>
  <path d="M600.5,1200h4.8c-1.5-1.1-3-2.4-4.6-3.9,0,1.3,0,2.6-.2,3.9Z"/>
  <path d="M1145.8,784.3h0s0,0,0,0l-.8-7.2-5.2,4.6c-2.5,4.4,3,8.5,2.9,13.2-.2,11-17.7,20.6.6,27.1,4.2,1.5,8.8,2.7,13.3,2.7,6.2-15.4,11.8-31.1,16.8-47-5.5,5.3-15,8.2-27.5,6.6Z"/>
  <path d="M212,901.1h0c10.2-6.6,22.1-10.7,34.3-11.6l-.7-7.4-8.4-3.9c8.7-8.5,9.5-22.4,13-33.7,1.3-4.1,5.7-9.4,6.1-11,.3-1.1-3.7-.9-4.5-3.2-4.8-13.5,5.2-12.1,7.5-18.7,1.6-4.7.5-10.6,1.8-15.8,1-4,5.5-6.4,4.9-11-5.5-2-34.4-4.4-35.4-10.4,3.9-20.9,24.7-10.4,39.4-20.7-10.2-13.4,3.3-21.1,4.3-34.7.6-7.8-3.2-12.8-3.7-19.5-1.1-14.6,4.2-38.8,14.3-49.6-5.2-2.9-13.7-4.3-19.6-3.8-9.5.8-7.1,5.2-14.1,5.7l1.2-16.5c13.1.2,28.8-2,38.7-11.5-5.5-1-11.1-18.2-10.8-22.2.4-5.7,8.8-7.7,9.6-11.7.2-.9.9-17.2.8-18.6-.2-4.2-4.9-8.4-4.9-12.5,0-6.1,8.8-17.9,12.3-23.5l-4.8-2.9,3.6-19.9c-15.2,4.7-17.7.6-31-4.1,4-6.4-2.6-14.4,4.4-19.2,6.6-4.5,26.2,0,33.1-8.9,1.3-4.6-17.7-9.4-3.6-24.4,2-2.1,4.7-2.9,7.4-3.1v-4.6c-12.3-4.7-1.3-25.2-.6-35.3.6-8-3.3-18.5-.8-27.4l-13-.4-1.1-7.5-7.3,2c-4.9-28.4,30.3-26,49.1-21.5l-12.4-15-1.9,4-6.8-.7c-2.3-5.2-4.7-16.8-1.3-21.3,2-2.7,6.5-1.6,7.8-7.3,2.3-9.5-3-17.7-3.5-26.6-.6-10.3,1.9-28.4,8-36.8,3.5-4.9,9.9-2.3,8.8-9.2l-22.7,1.1-15.4-9.1c8.2-18.6,32.2-4.4,36-23,1.9-9.6,6.6-20.2,7.4-25.4,1.3-9.2-3.6-25.9-3.1-36,.6-12.7,6.8-26.8,9.4-39.2l-12.2,4.2,7.7-9.2c-1.9-1.8-22.4,11.9-24-2.5-2-17.6,30.8-13.5,34.7-22.4l.5-4.6c-11.4-4.7,0-17.8,2.9-26.1-24.9,11.2-48.9,24.1-71.9,38.5-5,12.2-10.5,32.1,1.4,39.3-9.1,9.3-10.7,21.5-24.7,14.4,0,14.5-3.9,9.9-9.4,16.2-2.9,3.3-5.6,10.1-7.1,11.2-1.8,1.3-6.4.4-8,2.5-2.3,3-.8,8.9-2.3,12.8-2.2,6-14.8,9.6-1.8,10.5,4.5.3,8.9-.4,13.7,1.4l.4-8.4,12-.5c-.3,9.5-3.4,25.5-1.8,34.3.4,2,5,2.3,6.9,8,1.4,4,2.7,35.9,2.1,40.3-1.5,12.1-21.4,16.1-28.5,26.8l-8-7.6c-1.9,13-4.6,21.6-11.3,33,20.8-3.9,56,11.1,22.7,25.3l-.2,4.7c16.3,4.3,8.2,22.3,8.4,32.5.2,6.9,7.3,5.9,6.3,10.3-11.2,17.9-15.4,22.6-37.2,21l-.5-14.4c-20.4,9.5-3.8,38-25.1,44.4,2.5-7.4-4.1-7.6-6.4-11.4-5.8-9.8,4.1-11.9,5-16.7.4-2.3-5.5-10.7,1.5-18.6l-5-2.8,5.6-12.9c-5.4,3.8-10.6-1-15-.3-8,1.2-16.6,13.3-25.4-5.2,16.8-20.4,49.1-19.4,72.7-14.4l.6-12c-12.5,4.9-15.9-1.4-24.8-8.5l-1.4,4.7-4.6-3.9c.3-12.3,14.7-14.3,17.8-18.3,4-5.3-5.6-1.4-7.1-2.5-4.7-3.5-5.2-29.7-4.5-36.2,1.5-13.9,16.2-27,0-39.7-14,13.5-27.5-.4-29.2-16.2,10.6,3,18.6,2.1,29.3.8,4.9-.6,8.9-7.3,16.4-.8l-3.3-9.8c2.6-5.1,17.1-7.6,12.9-13.7l-16,6.4c-2.6-6.1,7.9-23.4,7.9-24.9s-5-4.3-5.3-7.3c-.2-2.2,2.3-6.1,2-9.5-.9-10.1-4.2-20.5-5-30-27.2,23.5-52.3,49.4-75,77.4l-2.3,34.8c-2.3,4.2-5.2,6.7-6.7,11.6-2.1,6.8,7.6-1.7,4.5,5-8.6,18.9-14.8,21.6-25.8,35.4-4.9,6.1-8.7,16.8-15.6,22.7l40.7,3.3c1.8,1.8-4.2,12.7-5.9,15-3.3,4.2-10.8,5.8-9.7,9.4l8.2,6.5,20.2,1-26.5,1.1c.6,9.9,3.5,27.8.5,36.8-.6,1.9-15.9,10.8-10.8,20.1l-20.6,3.9-9.8,29.7h26.4c1.8,12.8-4.7,18-11,27.2,6.5,2.2,17.4,21,13,25.9-1.1,1.2-9.1-3.5-7.4,4.5l9.7-.8c7.4,8-3.9,14.4-5.3,19.6-.8,3,1.2,6.3.7,8.8-1.5,7.9-17.6,20.5-26.5,19.6.9,10.4-3.1,20.2-4.2,29.6-1,8.3,9.8.4,14.3,3,9.3,10.6,10.3,33.9-6.6,35.8,9.3,4.3,5.4,7.1,7.1,14,4.9,19,.7,8.8-2.9,20.8-1.1,3.7,1.2,12.7-2,18l9.1,6.7-16.9,1.6,2.1,7.3h-7l-1.8,6.8c-7.4,1.3-15.3-18.3-22.5-4.7-2.7,5,9.8,4.1,6.6,12.3-.7,1.8-5.1,3.3-7.4,3.3l4.3,5.7-15.2,20.1c4.6-.5,10.8-.5,15.1-1.8,2.7-.8,1.5-6.3,8-4.2,1,7.4,7.3,3.9,10.1,5.8,6.2,4.3-.6,14.9-5.3,18.5l6.4,3.8c-5.3,7.1-.5,18.8-1.6,24.3-.5,2.6-5.2,4.2-6.3,7.3-2,5.7,1.6,10.6.8,15.8-1.7,9.8-5.9,13.8-11.3,18.1,12.8,30.5,28,59.8,45.4,87.5l2.4-10.7v-.9c8.7-1.2,4,9.4-.8,13.1,5.8,9.1,11.7,18,18,26.7,0-.4.2-.7.3-1.1.7-2.7,1.1-.5,2.8-9.9.9-5.1,7.5-7.5,3.2-15.6l-18.1,1.5-.9-4.8c7.3,1.5,3.7-5.6,5.8-8.8.8-1.3,18.4-11,20.4-10.7,1.9.3,3.6,4,7,4.4.8,0,3.6-8.9,13.4-4.2-.9-4.5-10.1-2.3-14.8-3.8-13.6-4.2-11.8-23.9,1.9-25.7-9.9-10.7-3.9-22.5-7.8-35.2l9.7-.7c1.1-10.5-6.2-22.2-5.1-32,1.7-14.7,13.6-6.7,19.6-17.7-7-.3-12.6,2.9-17.9-3.3-4.1,2.9-2.2,8.8-8.7,6.7,4.4-10.3-3.8-12.2-4.1-13.4-2.6-9.2,9,2,9.5,1.7-1.8-10.3,16.3-13.5,17-17,.3-1.8-1.6-6.1-1.2-9.7,1.2-12.2,1-17.5,3.1-29.4,3.1-17.4,2.6-32,3.5-49.7.3-5,6.9-15.3-2.7-15.8-3.2-.2-27.9,10.7-27.5-4.9.4-16,32.6-14.4,44.1-15.9,2.2-7.2-7.7-5.4-8.6-11.6-.5-3.4,7.8-19.5,8.1-26.1.3-7.7-9.4-12.2,1-18.8l-4.8-2.9c7.8-21.5-5-40.7,15.2-57.8-10.1-4.2-31.1,10.1-31.1-4l7.3-2c-19.3-9.8,3.9-11.6,14.6-14.3,3.9-2.8-.9-26,15.1-35.3,11.8-6.9,40.1-2.2,54.8-3.8l-5.2,8.1c-.9,2,3.4.7,4,1.9,3.6,6.2-10.8,38.7-4.4,48.4,2.5,3.8,12.7-2.5,4.1,14.7l4.7,3.9c-10.8.5-5,6.1-6,10.2-1.6,6.4-24.6,15.7-28.8,13.4-3.4-1.9-8.1-13.9-13-6.9l-1.6,11.9,6.9,2.9c-10.1,0-6.4,15.3-10.8,22.3,5.5,1.3,32.4,7.9,32.5,13.7-14.1,13.8-6.9,7.5-5.8,19.5.3,3.9-2.4,7.3-2.3,11.1.7,21.8,9.4,60.1-19.3,65.4l-5.4-11.1c-7.3-4.5-10.8,11.3-12.2,16.7-2.1,8.2,1.3,17.7-6.6,23.1,9.8,8.3,25.2-1.6,35.3,11.6,1.2,5-5.3,8.5-6.6,12.7-5.1,15.1,2.7,34.7,1,49-.6,5.3-16.3,39.1-19.9,38.9-14.4-11.3-7.4-19.2-4.3-33.8l-9.6,2,1.6,13-4,3.2-5.6-2.3-3.1,13.1c20.8-1.9,4.3,6.8,2.3,12.6-2.3,6.7-.2,17-4.1,24.6,12.2-5.7,24.9-12.2,36.3-1.6.6,6.3-12.4,18.9-12.6,23.2,0,3.5,4.7,6.8,4.9,9.8.2,3.6-3.6,8.9-3.7,13.9,0,7,4.6,12.8,2.5,21.5-3.2,12.9-11.8,19.2-24.6,19.8l-4.3-9.9c2.5,10.8-4.8,8.9-5.3,9.4-.7.8,4.1,5.1,4.4,8.7.5,6.1-4.7,13.3-3.5,20.1l12-.6-10.5,5.9c1.9,2.2,3.7,4.3,5.6,6.5l16.2,1.5c2.6,7.3,1.1,11.5-1.3,14.8,10.7,11.2,21.8,22.1,33.3,32.5-5.6-15.1,21.2-17.3,33.7-17.5,1-4.6-5-1.3-6.7-3-3.6-3.7,1.2-25,2.8-30.4,1.1-3.9,6-7.4,6.1-10.9,0-3.1-3.6-5.3-3.2-8.7.7-5.9,7.6-14.4,8.8-20.1,2-9.2-.8-27.3,2.8-37.8-10.5-5.9-29.3.5-30.7-16.1Z"/>
  <path d="M843.1,171.5h0c11.1,8.2,30.6-4.8,25.2,15.2-3.4,12.7-11,47.5-7.2,59.7.6,2,3.8,2.1,4,2.5l.2,2.9c-4.9,3.7-10.6,16.7-15.2,18.7-7.6,3.3-14.9-4-19.2-1.3l-13.8,35.5c11.9,4.3,26.3-9.2,35.9,4.4l-5.2,6.9c13.2,5.9-3.2,13.3-3.2,14.3,0,3.8,4.5,6.1,4.4,12.1,0,5.8-4.7,13.6-5.3,19.7-.5,4.9,1.6,9.3,1.3,13.8-1.9,29.4-23.5,16-27.4,21.8-1.9,2.8.8,12.2-5.9,14.9,17.3,2.7-4.7,14.7-1.3,25.1,6.9-2.1,11.6,3.7,15.8,4.9,6.5,1.8,9.6-3.2,17.3,7.9.3,6.4-8.9,14-15.3,14.7,8.8,8,4.2,10.9,4.9,17.8,1.8,18.6,3.8,43.9-17.2,53.3-9.4,4.2-19-.4-23.3,13.5l7.1,1.6c-5.1,2.2-7.5,14.7-11.8,17,2.6-.6,7-.4,9.8-4.1l29.5,4.6,1.5,20.9-11.8,2.1c6.1,8.6,11.5,13.3,5.9,24.3,13,3.9,25.1,4.6,38.4,2l-4.4-8.5c9.8-10.1,21.2-7.7,34-6.8-1.5-9.9-9.4-9-8.8-20.9.6-10.4,6.5-10.2,7.9-14.5,1.5-4.7.7-49.9,1.6-60.1.4-3.7,4.6-5.8,4.4-8.5-.7-7.9-16.5-12.7-23.4-7.6-3.2-30.6,24.8-19.6,44.5-24.2-2.3-6.5-19.6-5-20.8-12.1-.7-4.4,7.3-13,12.5-12.4l-7.1-2.7c-.8-4.8,4.7-5.7,4.9-10.1.2-5.9-5.7-17.6-5.5-27.2,0-6.3,5.3-34.9,7.5-40,3-7,19.9-6.2,14.8-25.7-.8-2.9-8.3-21.1-8.2-22.4,0-8.1,5.9-18.1,6.5-26.3,1-12.4-1-20.6,2.3-35.2.8-3.4,4.6-6.4,4.7-10,.3-6.6-14.3-15.8-20-16.1-2.7-.1-16.1,8.1-17.4-2.6,10.9-16.9,34.6-14,47.7-23.1,12.4-8.6-3.2-15.2-4.3-20.9-.3-1.4.8-24.4,1-28.1.7-10.5,3-32.1,5.7-46.1-19.4-13.4-39.7-25.8-60.7-36.9.4,3.4,2.8,5.7,2.9,8.4.2,2.9-2.3,6.1-2.1,9.1l-.2.2c.2,4.7,5.2,7,4,14.5-.7,4.3-16.2,31.1-19.7,34.2-6.3,5.7-10.5,2.8-17.4,6l-5,29.9Z"/>
  <path d="M215.8,1060.7h0c.9.8,1.8,1.5,2.8,2.3v-.2c-.4-.7-1.4-1.4-2.7-2.1Z"/>
  <path d="M786.7,568.8c.4,0,.7-.2,1.1-.4-.4,0-.8.2-1.1.4Z"/>
  <path d="M983.1,1049.9l.5,11.4c2-1.7,4-3.3,6-5-2.8-1.5-5.1-3.6-6.5-6.4Z"/>
  <path d="M1023.6,727.1h-.1c0-.1-4.2-2-4.2-2l-1.4-9.1-22.8,3.6,2.7-9.1-6.8-4.4c13.9-13.6,0-39.7,16.7-45.9v-2.3c-7.9,2.1-9.3-6.7-8.6-13.5.2-2.2,5.8-20.1,7-22.5,1.6-3.4,7.4-4.2,6.4-9.5-10.3,5.6-24.5,7.2-36.4,6.5.7-4.1,4.5-9.3,7.7-11.8,1.4-1.1,16.4-10.6,17.4-10.9,2.9-.9,6.5,1.9,9.6,1.6-5.5-13.8,6.2-31.1,7-42,.4-5.3-4-8-3.7-11.5.2-3.4,4.4-8.8,5.1-14.6,1.4-12.8,6.5-43.2-13-28.3,5.6-15.7-18.1-11.6-15.2-23.3,2.2-8.9,36.1-6,43.7-15.3-1-9.8,2.5-20.7,2.4-29.8-.2-15.5-7.2-35.3-5.7-51.6,1-11.7,13.7-15.9,8.8-27.2l-24-1.2c0-17.3,9.4-15.5,19.6-20.1,1.2-.6,19.5-12.6,15.3-3.3-5.4,11.8-15.4,7.4-17.3,11.2-1,5.1,1,4,4.9,2.8,14.1-4.4,32.2-29.9,6-27.5,2.2-12.2,12.7-19.7,11.4-33.9-.2-1.8-4.3-1.6-4.7-3.4-.4-2.2-1.2-25.3-1-28.6.5-7.5,8.7-15.4,6.2-24.8l-15.5,1.3c-7.6-5.6-1.9-13.4,3.1-18.8,1.3-1.4,3.3-2.8,5.5-4.1-22.5-25.5-47.1-49-73.6-70.3-7.6.2-12.1,2.1-16.6,20.7,4.2,4.7,8.6,3.4,6.4,11.3l-7.3,2c8.4,1.7,30.5-2.7,32.9,8.3,1.9,8.8-8.3,17.4-10.5,25.4l-12.1-.7c17,5.5,22.7,24.4,19,41.3-3.8,16.8-12.2,22.9-29.4,21.9l3.3-19c-15.3,3.2-9.2,24.1-12.3,36.2-1.9,7.3-9.6,13.4-7.5,22.8l14.6-4-2.8,7c9,.8,19-9.6,26.4.2-4.1,5.2-8.2,17.2-8.4,23.7-.2,7.6,5.3,12.5,6.1,19.6,1.7,15.5-5,24.9-7.9,39.1-7.1,6.3-16.6,7.3-25.6,8.3,7.4-15.6-11.4-17-9.5-1.8.5,3.6,4.7,7,4.1,9.6-.5,2.2-6.2,5.4-8,9-3.1,6.1-1.7,14.2-7.6,19.5l5.9,6.2c12-5.1,22.3,2.2,34.5,1.8,1.4,8.2-9.7,13.2-10.6,20-.6,4.3,2.3,9.4,1.8,14.4-.8,7.9-5.6,17.7-4,25.8.7,3.4,8.1,1.8,6.8,10.4-.2,1.3-18.2,16.5-19.5,16.7-9.4,1.8-12.7-5.5-7.2-13.2l-4.7-1.5c-13.1,17,.8,35.6-17.1,50.8,14.2,2.8,20.7-8.2,35.9.7,2.8,7.7-6.5,13.7-7.4,17.9-1.7,7.9.5,31.4-.4,40.5-1.1,12-1.5,24.3-13.7,30.3-1.3.6-15.3,4.9-16.1,4.9-3.3,0-8.2-8.7-12.8,1-2.3,4.7,7.2,5.6,9.2,6.5l-5,3.6-3.6,24.7c6.7-.8,15.9-3.5,22.4-1.3,2.1.7,5.7,11.8,13.2,10.3-3.8,5-6.5,9-7.8,15.4-3,15.5-.2,43-4.2,56.1-4.5,14.7-15.9,24.1-30.9,15.1-4.3,6.8-1,14.8-2.9,20.8-1.5,4.9-13.2,26-19.8,23.8-1.2-.4-9.3-21.5-9.6-23.6-1.4-11.7,1.2-35.8,5.4-46.9.8-2.1,5.3-5.8,4.5-6.4l-28.7-1.5,3.2-16.6-14.4-.8c-.4-3.4,4.4-3.3,6.9-3.7,14.7-2.7,31,2.9,41.9-11.8-12.5-10.5-1.1-35.5.3-50.6.5-5.2-2.1-9.8-1.8-14.4.5-8,8.8-23.8,0-29.7-5.1-3.4-50.7-11.1-53.4-9.3-5.9,9.4-5,33.9-10.4,41.7-2.5,3.6-16.6,6.6-19.6,11-2.1,3.1-.4,15.2-12,19.9-20.6,8.2-11-23.7-10.5-31.8.8-13.6-5.2-23.8,9-31.9l-32.1.4c-18.9-29.7,18.7-16.2,27.8-23,9.1-6.6,2.7-22.1,4.9-31.3.9-2,7-4.5,9.6-5.8-2.9.4-6.5-.7-9.6-.5-.9-22.9,2.8-44.8,1.1-67.2-55.5-3.3-24.7-38,12.9-18.6l2.8-8.5,10.5,1.8,4.5-11.6c-16.1,7.5-28.3-20.2-10.7-24.6l-6.7-8.8,7.5-6.8c-11-16.8-10.1-42.1.6-58.8-9.6,1.3-41,5.2-35.1-12.1,6.5-19.2,44.2-17,60.5-15.4,3.9-2.7.3-4.4-3.3-5-8.2-1.4-17-.5-25.1-3.7,4.4-8.8.8-10.1-3.9-17l9.4.3c1.7-8.5,5.9-13.6-3.5-17.9,11.8-16.8,0-35.9,6.1-53.9,4.1-7.5,17.3-3.1,24.3-3.5,3.6-.2,7.4-1.6,3.8-4.6l-50.5-.2c-2.9-32.6,19.3-16.6,37.7-20.3,10.9-2.2,23.4-15.2,2.6-16.1-.7-1.1,6.3-20.4,6.1-24.9-.2-5.3-7.6-9-8.6-17.4-1.3-11.8,3.2-20.6,4.1-30.9.7-7.8-3.7-16.1,1.1-25.2-5.5-.6-30-5.8-28.2-12.2.3-1.2,9.7-9.2,11.8-9.7,9-2.2,19,3.4,24.7,2.2,2.6-.6,23.4-12.2,21.4-17.2l-13.2-6.8c0-.6,0-1.6.2-2.7-30.2-13.3-61.7-24.2-94.3-32.5-1.9,5-5.6,9.1-10.6,15.6l3.8,5.9c5.6.2,28.4-.7,29.4,5.4l-13.1,18.6,9.1,12.6c-6.1,12.8,5.1,27.7-6.8,39l7.2.4c2.1,17.6-9.8,26.3-27,24.4-4.2-.5-5.7-5.6-10.1-3.7-8,3.5-9.7,20.9-10.8,28.6-13.1,10-22.2-5.7-21.1-18.1.4-5.3,4.7-7.8,5.5-11.7,2.3-12.5-2.5-24.8,11.5-32.9,6-3.5,13.7-1.6,17.1-7.6l-31.3.8.6-12c-5.8,4.3-7.7,4.6-14.5,1.6l-.4,7.2-14.1-6.7c7.8-11.5,16.7-6,27.5-7.5,10.3-1.5,15.8-7.3,29.8-6.3,3.5.2,10.1,9.6,13.4-5.3l-31.1-1.6c2.6-10.5,10-18.1,10.9-29.7.5-6.3-.5-14.8-1.3-23.1-22.8-4.7-46-8-69.6-10.1-2.3,1.9-5.7,3.2-10.5,3.9-5.9.8-8.6-3-10.4-5.3-1.2,0-2.4,0-3.5-.2-2.7,4.6-1.3,13.5-4.1,20.8-2,5.3-9.6,16.3-15.8,16.7-.8,3.8,3.2,2.7,5.8,2.7,12-.4,26.8-5.6,36.7,5.7-.8,6.8-5.4,17.6-5.4,23.7s4.2,8.3,3.7,14.2c-.8,9.9-15.1,22.1,5.7,26,3.9,5.1-12.2,19.5-16.6,22.9-8.9,6.8-36.1,16.8-36.5,28.2-.2,5.9,6.3,11.3,4.1,18.2,4.7-3.4,27.3-7.9,28.7-1.9,4.4,9.6-9.3,15-10.1,18.8-.5,2.3,3.4,5.9,3.9,9.7,2.5,19.2-3.3,23.2-4.2,35.6-1,14.4,14.6,32.1-13.7,35.7-8.5,1.1-11.1-5.5-15.6-2.5-13.2,11-.4,30.6-17.4,36.6,5.6,6.1,17.4-7.5,18.4-7.4,5.9,12.8,26.7-2.6,21.4,18.5-3.6,14.3-24.3,14.6-24.4,16.1,6.7,7.6,11.5-1.1,19.2-.2,2.2,16.1.8,54.9-12.9,65.5-6,4.6-11,1.5-16,5.1-8.1,5.9-11.1,28.3-25.3,27.6-10.8-1.5-8.6-23.4-7.8-32.1.9-10.4,2.7-21.1,7.3-30.5-11.5.6-24.3-1.8-27.7-14.2,7.9-15.5,34.2-10.4,36.9-32.6.4-3.5-4.6-6.5-3.9-9.2.8-3,16.8-7.5,15.2-15-9.8.3-14.5-14-15.3-21.9-.6-5.6,9.5-23.4,8.6-32.5-.7-7.8-7.9-6.2-11-9.8-3.1-3.6-5.9-17.1-4-21.9,1.2-3,28.6-13.8,30.4-13.7,2.7,0,11.8,10.8,17.5,9.7l3-11.9-31-4,5.3-10.5c-13.9-7.9,2.6-29.4,3.9-38.8.6-4.7-1.9-9.1-1.3-13.8,1.3-10.9,5.9-22.6,4.1-34.5l-30.9-1.8c1.7-18.6,36.9-18.3,40-30.4,3.3-13.5-1.1-31.2,0-45.7.5-7.3,3.1-14.4,4-21.8-22.4,0-44.6,1.2-66.4,3.6-1.5,1.5-3.9,2.5-7.5,2.7-1.5,0-3.5-.4-5.6-1.1-4.7.6-9.5,1.3-14.2,2l-1,6.3,19.3-2.6c-18.3,8.8-23.1,19-33.1,35.5,13.6-4.1,24.3,6.4,38.3,2-5.2,11.4-9.4,26.4-9.4,39.1,0,20.7,15.6,34.1-6.7,51.4-8.7,6.8-16.8,7.2-26.2,8.1-8.8,11.3-1.7,22.8-10.2,33.2,16-.7,26-3.2,39.1-12.4l-4.3,14.2,8.9-9.1c-3.5,7.5-9.2,25.8-18,23.1-1.7,6.2,1.5,3.6,4.6,6.5l-3.2,12.8,7.3-2c-5.4,10.5-.2,26.2-2.4,36.6-.4,1.9-12,20.9-13.3,22-3.8,3.4-20.1,5.8-21,7.1-2.4,3.5-1.5,24.8-13.8,29,5.9,5.4,36.7-2.7,38.2,4.5,1.2,5.8-7.4,12.4-9,18-1.3,4.7,2.1,6.4,1.9,7.8-.3,2.2-3.8,4.3-4.2,7.2-.8,5.4,3.4,8.7,3.6,12.6,1.2,17.7-9.9,26.4-8.9,43.4l4.7,2.6c-9.6-1.8-13.6,6.2-19.9,9.7-3,1.6-8.9.6-11,3.1-1,1.2,1.4,6.7.5,10.3-1.2,4.9-7.3,12.2-10.1,16.9l13.5-5.4,4.4,4.9c33.5-8.4,23.8,19.3,4.6,30.5l7.3.2c8.4,13.3-.4,15.2-3.1,22.3-3.3,8.9-2.9,18.7-5,27.4-2.2,8.9-14.3,18.6-.5,19.8-3.5,7.1-21.8-.7-25.6,4.5-2.2,12.7-6,33.3-19.8,37.6-.9,4.1,2.7,2.1,5.2,2,8.6-.4,17.4-2.4,26.1-2.8l-2.9,8.1c10.3,5.5,10.1,15.3-.9,19.4l1,3.7c1.8,1.3,5.4,1.9,5.9,4.3.9,4.7-.8,42.3-3,46.9-2.6,5.3-6.1,4.3-8.7,7-1.2,1.3-.3,5.1-2.5,6.4-5,3.2-15.8-.5-19.2,3.6-5.3,6.4-8,25.8-14.8,31.7,4.1,3.7,10.8-1.1,15.5-.4,5.3.8,13.4,9.2,22.6,5.9,4.2,12.9-11.9,19.7-13.5,27-1,4.4,3.9,3.1,5.3,6.8,2,5.3,5.5,19.1,4.7,24.4-1.6,11.4-19.1,45.7-34.8,33.6-1.1,1.1,7.7,17.6,1.2,21.7-2.2,1.4-8.8-5.1-11.9.6l9.5,1.7c3.9,3.5-14.7,16.5-15.9,16.8-3.7.9-17.9-2.6-18.5-5.7-.9-9.6,2.8-20.9,2.7-29.9,0-7.9-5.4-17.8-4.7-22.6.8-5.5,8.5-9,8-15.3l-23.5-6.3c-.6-5.6-4.7-19.1.8-22.7l12,4.4-9.9,5.6,5.9,1.6c4.3-11.6,11.5-7,18.5-10,10-4.3,2.3-32,13.6-34.3l-8.7-13.5c12.6-2.6,2-20,2.2-23.9,0-1.8,5-6.6,6-10.4,1.4-5.6-2.8-8.5-2.5-11.1s5.6-3.8,4.4-8.2l-20.2,1.4-6.6-7.4-1-5.6c3.6-12.4,28.1-13.5,38.4-18.4,7.4-3.5,4.3-10.5-3.9-5.7,3.5-5.5-1.7-10.7-1.6-15.9.1-5.4,4.1-8.3,4.5-11.9,2.7-24.1,1.6-48.9,7-72.5l-16.9,1.5c-1-4.5,21.2-2.2,14.8-8.8-.6-.6-4.7,1.4-7.4.7-3.3-.9-5.1-3.1-10.2-3.8-7-.9-12.2,5.3-18.3,2.5,8.3-6.3,10.4-18.6,21-22.4,4.4-1.6,40.4-5,40.7-8.1-11.3-3.5-14-12.4-9.8-23.5,1.2-3,6.1-6.8,6.2-8,0-1.1-8.8-9.4-8.2-19.6.4-7.6,1.1-19.1,1.8-26.4.5-5.6,2.1-22.3,3.2-25.9.8-2.8,5.9.3,5-3.7-7.3-.4-16-1.6-23.1.8-6.1,2.1-8.1,14.4-18.2,7.9,9-9.3,6.9-20.4,21.1-24.7,12.9-3.9,20.6-1,31.8-.7,3.9,0,19.1,1,20.5-2.1,4.3-9.6-8.8-5.1-12.8-6.5l-.9-7.4c-6.6-1.7-4.8,2.2-5.2,7l-9.5-4.5c.4-4.5-.2-9.6.9-13.8,4.3-17,2.9-29.8,6.6-48.4,2.6-13,4.7-23.7,9.6-36.2-3.1,0-18.8-4.7-16.3-9.2l34.6-19.9-13-6.5-4.4-26.8,5.7,5.1,4.1-9.4-7.4,4.4c-.2-8.4,0-22-1.4-29.6-2.6-14.6-15.7-30.3.3-42.6l-19.4,3.8c-13.2-34.6,9.9-23.2,26.4-32.8,9.7-5.7,3.7-11,5.2-19.3,1.6-8.8,5.7-17.1,5.7-26.6s-7.4-4.7-8.1-12.9c-.2-2.2.6-4.1,1.4-5.7-32.7,7.2-64.4,17-94.8,29.3-1.5,4.7-5.6,7.9-2.6,14,3.1,2.5,19.4-5.7,27.7,1.3,6,5,.2,9.9.7,15.3,1.3,15.5,2.2,25.2-.7,41.3-3.3,18.2-9.9,37.4-30.4,40.5l.9-19.2c-10.4,4.7-8.8,23.6,1,27.7l-.2,3.5c-8.7,0-8.3,10.3-12.8,16.2l28.9-.9c-.7,12.8-7.7,22.6-10,35.2-3.9,21,7.5,31.7-5.6,52.7-6.4,10.3-17.6,19.2-24,3.8-13.4,10.9-1.8,26.8-2.9,40.4,10.3,1.5,18.7,12.5,27.8,11.4,2.2,3.9-10.9,14.3-15.1,13.7l6.9,6.4-5.3,6.7c2.1,7.2,5.7,14.8,6,22.4.4,11.1-2.9,20.4-7,29.8-1.4,3.2-1.3,9.7-2.6,11-1.3,1.4-22.8,8.4-20.9-1.5l-4.9-1.8c3.5,14.7-13.3,18.3-7,32.3l-6.9,4.3c14.1,2.8,37.1-8,44.2,8.4,1.8,4.1-6.9,15.6-7,22.5,0,5.5,5.2,11.3,5.2,17.3.1,7.7-3.7,17.8-.6,27.3l12,.6c-4.9-.2-25.2,11.2-26.8,13.6-1.1,1.6,2.8,5.5-.6,7.9-8.8,6-20.8,1.9-9.3-8.8l-13.2,4.3-8.2-7.8c-3.4,7.3,5.4,6.7,4.3,10.9-2.4,9.9-19,23.4-4.4,36l-5.1,5.7c8.5,2.2,13.2-9.1,20.9-8.5,6.7.5,10.6,14.6,19.7,13,2.2,2.4-17.7,31.3-1.8,34.7-6.2,7.9-12.4,16.4-15.2,26.3-1.5,5.5,3.4,13-6.3,18.3l7,2.7c-12.7,9.1-23.4,19.6-36.2,4.2.8,16.2,0,29.8-4.7,45.4,6-3.6,18.2-1.6,21.9-2.7,2.3-.7,9.1-10.2,12.8.2,5.6,16-8.7,25.1-8.7,31.4s10.4,24,9.5,34.1c-1.2,12.9-16.5,17.1-6.5,29.7-10.8-5.9-19.4,10.2-23.7,10.6-3.6.4-8.4-9.1-14.1-3.1-6.9,5,2.3,29.8-9.8,31l-.3,4.7,31.3-.8-3.3,16.6-14.4-.7c-.7,4.1,5.6,2.4,6.7,6.7.6,2.4-2.6,6.1-1.5,8.2.9,1.6,5.9,1.7,6,4,.5,6-5.5,8.4-10.2,8.8,5.9,5.8,14.5,11.5,15.4,20.6.5,6.1-8.8,27.3-15.7,29.9-5.1,1.9-8.4-1.2-12-.5-4.3.9-17.9,11.6-24.6,13l7.1,1.6-3.2,16.6c7-5,11.2,1.9,15.5,2.2,1.4,0,3.6-2.8,4.9-2.6,1.6.3,15.2,4.4,15.3,5.7-2.1,5.9-6.5,13-7.7,18.9-1.7,8.4,6.3,14.1,5.8,24.3-.8,16.5-6.4,25.1-10.8,39-1.6,5,2.6,13.9-6,19.2-10.4-1.8-13-11.7-24.6-6.2,0,0,0,.2.1.3,31.4,23,65.2,43,100.9,59.6-.4-2.6-.8-5.3-.5-8,.9-8.2,3.7-14.8,4-23.9.7-19.3-2.9-44,7.1-62.7,2.1-3.8,6.1-1.1,5.8-5-18,5.8-27.6,7.3-25.6-15.8,6.1.5,12.3,0,18.2-1.5,4.5-1.1,5.2-4,6.2-4.4-21.3-.7,14.1-24.7,4.3-2.7-.3.7-4.1.5-4.3,2.7,3.2-1.5,10.9,2.4,10.2-7.9-.4-6.2-13.4-9.8-11.2-18.6l9.7-.7-18-24.9,7.5-6.8c.2-.5-13-2.7-6.7-8.7,5.1-4.9,3.6,6.3,6.9,5.1,1.2-6.7-4.2-11.5-4-18.2.3-8.5,11-23.8,10.4-30.8,0-.7-6.6-11.2-7.3-11.3-7.7-1.7-17.6,7.5-22.3,8.2-16.4,2.5-7.9-18.8,2-20.5,2.3-.4,6.2,2,10.4,1.3,10.5-1.6,19.1-4.9,29.2-7.2l-11.3-12.5c6.2-2.3,11.1-7.1,17.6-9.7,9.4-3.8,28-3.2,29.1-15.7l9.9-.6c.7,4.3-3.5,9.1-3.2,12.7,0,.8,8.3,3.9,3.1,13.7-3.7,6.3-14.7-9.5-13.3.5,1.2,8.3,12.8,25.1,14.1,35.5,1.1,8.3.3,22.2-1.4,27.1-3.6,10.1-6.2,8.5-.1,21-11,5-30.1-1.3-33.6,12.1-1.5,5.7-1,15.4-4.1,22,10.5,1.6,20.9-3.5,24.8,8.5l3.8-3.4c6.5-2.4,4.8,17,3.2,21.3-1.5,4.3-8.3,6.5-8.8,9.6-.7,4.4,5.1,10,5.3,12.8.2,3-4.2,5.2-4.6,8.8-1.4,11,4.6,18.5-2.2,33.4-5.8,12.7-9.8,9.9-21.8,7.6l7,2.8-.3,7.2-12-.6,2.7-4.6-9.6-.5c-1,3.6,3.1,1.5,4.4,4.4,5.7,12.2-6.1,11.4-5.8,21.9l24.8,1.1c8.2,8.3-5.5,15.6-6.8,22.8-.4,2.1-.9,11.7-1.4,20.6,23.5,8.9,47.7,16.3,72.5,22.2.2-3.8,1-7.6,2.9-11.6v-.8l-4.8-4.8c-9.1,6.2-8.4,1.8-14.2.4-8.7-2.1-12.7,1.4-12.5-14l20.2,1,2.7-4.4c9.5,6.1,19.9,0,30.2,1.3,2.2-9.6-10.1-2.6-15.3-3.3-4.7-.5-8.3-5-13-5.5,3.1-10.1,9.5-14.4,7.3-26l2.8-2.1c16.8,6.1,24.6-1.1,18.7-18.3-9.1-2.4-1.8,10.8-9.1,13.9-5.8,2.1-16.6-12.1-5.1-13.7l-2.2-8.2-4.8,2.1c4.6-11.3,5.7-26.5,3.7-38.9-3.3-20.7-31,3.5-24.8-21.1,2.5-9.9,32-13.9,41.6-13.5l-8.4-8.7,5.4-20,31.1-3.5c-4.4-10.5-18-1.5-22.7-2.1-12.3-1.6-7.5-12-8.1-14.9-.7-3.4-6.5-3.2-6.6-5.5,0-.9,3.7-15.5,4.5-17.6,4.5-11.8,13.6-17.4,9.7-33.8-1.6-6.9-12.4-14.4-15.1-4.8l-8.2-1.6c-15.6-26.4,17.6-21.9,35-23.6-.3-5.1-13.6-5.9-14.1-9.5-1.7-12.7,10.2-17,10.7-18.5.8-2.7-3.4-7-3.7-10.2-.5-5.9,5.6-53.7,7.3-58.8.8-2.5,7.2.4,5.1-6.1-13.8,4.7-41.5-9.1-29.5-25.1l40.7-5.6c-6.9-10.8-16.2-21.8-3.2-31.3l-11.8-4.3c15.6-23.5,1.6-58,27.9-75.5,2.5-6.2-8.8-1-9.7-.4-3.9,2.7.9,8.4-4.1,10.5l-2.1-5-11,4.4-3.2-9.8c-3.2-2.1-4.7,5.7-10,6.6-9.3,1.7,5.3-16.8,7-17.8,3.8-2,7.1,1.6,10.3,1.1,3.9-.6,11.2-5.3,16.3-6.8,6.9-2,14.4,1.5,19.6-6.2l-19.1-2.2c8.9-18,5.3-37.1,7.6-56.2,2.1-17.5,11.7-36,2.8-52.8-1-.8-22.8,2.6-19-5.5,7.6-8.3,32.2-22.2,42.7-18,4.5,1.8,1.5,9.4,8.3,7.4l8-14c-8.8-2.5-10-1.7-16.9.2-6.2,1.7-5-7.1.5-9.5-3.3-6-6.7-2.2-11.9-1.8l3.4-19c18.6,7,33.6-16,50.1,4l-7.9,21.2,2.5,40.7-4.8,2.2-14.3-4.3,9.5,2.9c-4,8.7,4.7,13.3.6,24.8-1,2.7-8.6,9.8-11.4,10.4-6.3,1.4-11.1-4.6-15.1.8l4.4,7.4c-5,2.2-17.6,24.1-15.8,26.9,4.7-6.3,24.2-3.6,26,3-2.5,9.6,3.3,17.4-8.1,20.8l4.8,2.9c-4.2,13.5-1,60.6-13.2,66.3-4.1,1.9-8.6,0-12.7,1.1-9,2.1-6.4,13.7-8.7,20.8-6.3,20-16.5,28.4,13.3,15.1,14.4,10.7,2.9,19.6,3,24.8,0,4.5,6.9,15.9,7.9,22.7,1,6.3.8,31.4-.2,37.9-.6,4.1-6.3,7.4-2.4,13.4-6.6-3.8-28.3,10.2-30.9,15.3-3.2,6.4,3,17.9-9.6,24.7,8.1,3.3,35.7-.6,37.3,11.8,1.5,11.4-9.3,13.9-10.2,18.5-1.4,7,4.5,10.6,4.1,16.7-.2,4.1-3.6,8.9-4.3,13.3-1.5,10.3-2.4,20.9-4.1,31.2-12.9,10.8-24.7-2.7-28.4,19-.8,4.8,0,3.1,3.3,3.7,7.8,1.4,21-2.6,25,6.1-14.4-4.8-30.5-6.3-41.1,6.3,8,9.7,8.6,1,11.3-.6,5.9-3.5,29.4,7.4,30.2,17.2.4,5.1-6.6,5.7-6.8,7.3-.3,2.4,2.3,6.1.9,8.2-1.1,1.7-6.1,2.2-7.7,4.3-3.3,4.4,2.3,27.3,12,27.1-1.6,5.2-7.7,4.4-12.2,4.2,8.9,6.5,6.8,12.9,8.4,23.2l-9.6-.5,8.9,13.7c-15.1-.2-18.5,17.9-36.4,7.7l-8.3,20c9.5,6.9,21.9-.5,33.4,5.4-8,8.8-12.9,22.4-13.3,34.2-.5,14.6,6,34.4,4.4,49.3,18.9,2.7,38.1,4.5,57.6,5.4v-.6c.8-3.8,4.6-7.1,7.3-9.7l-4.5-6.2,9.7-.7c-3.8-16.7-9.7-14.6-23.2-20.7l3.6-12.3c14.6-1.2,25.7-10.8,40.5-3.2,1.5-10-14.2-5.9-20-7.9-10.5-3.7.9-18,0-25.2l7.6-2.4c-1.9-19.1-14.8-70.7,17.1-69.5,5.4.2,6,7.2,11.1,7.3l1.6-6c-18.1-14.1-36,1.7-55.4.8l3.2-18c15.6,1.4,22.9-6.7,34.6-14.9l-9.5-3c0-12.3,12.6-17.5,13.4-25.9.6-6.4-4.6-8.9-5.5-13.2-4.9-22.9,3-35.7,9-57.3-7,1.5-35.8-2.1-32.7-12.1,4.7-14.6,47.6-9.5,48.7-17.3l-5.9-19.8c13.1-12.3.4-18-3.1-29.2-5.5-17.6-5.5-34.9-2-52,.8-4.1,5.2-6.2,4.6-10.9l-31.3.8,3-13.1c20.1-2,34.4-17.3,56-12.7l-18.9-9.7c-1.2-7.6,5.8-15,5.9-20.6.6-21.8-3.9-49.4-1.2-70.1.7-5.4,3-8.6,5.6-12.9-9.7,4.5-15.5,3.8-25.4-1.1-5.1,8.8-11.5,6.4-5.8-4.3,9-16.8,20.9-5.5,27.4-12.7,1.5-1.6,15.5-38,15.7-40.7.3-6.3-6-9.3-5.8-16.5.4-14.3,9.3-37.9,10.1-53.7-12-.5-35,.5-30.5-16.8.7-2.2,28.7-7.2,33.4-14.3,2-3-4.2-17.4,9.4-22.3l-4.7-2.6.2-4.8,7.5-4.5c-6-.2-6.8-27.6-5.3-31.2,1.8-4.4,9.3-3.3,14.5-8-4.2-.2-8,1.6-12.1,1.8-.9-12.8-.2-23.8,4.2-35.8l-19.3,1.4,10.1-9c-8.1,3.7-26-7.6-16.1-14l31.5-6.9c-7.1-8.6-11.2-1.5-8.8-16,2-12.5,12.6-14.7,12.8-16.1,0-.3-3-3.3-3.6-5.7-5.1-18.5,2.6-36.2,2.3-54.2,0-2.1,2.1-4.7,2.2-7.1l-3.6-3.5-22.1-5.2c1.6-4.9,2.4-9.3,6.9-12.6,1.4-1,30.5-11.6,32.7-11.9,6.1-1,11.4,5,17.1-3.8l-23.9-2.4c2.2-7.2,7.5-20,14.3-23.4,4-2,28.9-5,33.1-4.1,1.3.3,15.9,7.5,16.1,8.4,3,10.6-.2,17.3-6.2,25.6l6.7,5.1-8.1,18.9,4.9,2.8c-6.4,15.5-11.3,33.3-25.2,43-3.5,2.4-16.2,6.7-18.1,9.2-.6.8.9,14.8-6.1,18.4,9.3-.8,26.8-1.9,29.7,8.6,4.2,15.1-5.2,15.2-6.6,20.5-.8,3.2,3.1,13.7,3.3,19.3,0,2.3-1.8,29-2.1,30.5-1.2,6.4-9.6,10.7-13.4,15.6-1.9,2.4-1.6,7.3-4.2,10.6-3.8,4.7-17.6,10-9.8-1.6l-8.6-6.6,10-17.5c-3.2-3.5-18.5,16.7-20.2,18.2,14.8.5,9.7,25.5,7.7,36.4,35.7-.8,21.6,20.9,21.8,40.7,0,6.7,3.8,13.7,3.7,19.8,0,8-8.8,15.8,3.6,16.1l4.8,11.7c-19-2.2-16.1,24.7-39.4,19.7,0,13.1-2.9,26-13.8,34.1l31,3c-3.7,8,1.3,15.8.9,22.6-1,16.5-8.7,33.4-6.2,50.8-24.5,11.3-29.8,27.9-39.5,51.5,5.9-2.2,13.8-5.5,20.1-3.8,1.9.5,1.4,4.6,4.3,5.8,3,1.3,6.9-1,10.2,2,5.8,5.2-.7,14-1.5,21-2.6,23.1-6.5,25.3-12.2,45.2-3.1,10.7,1.1,23.4-9.4,32.6l4.6,3.8-21.4-3.5c0,16.3-.9,33.1-16.5,41.2,6.7,4.1,13.9-4.8,20.8-4.9,26.3-.4,9.8,24.5,6.3,38.7,5.1.2,9.1.8,9.5,6.6.4,6.9-10.6,46.3-15.5,50.1-8.6,6.6-15.3-4.9-18.4-2.6l1.1,21.3-12.2,8.2,6.7,8.7-9.6-.5,3,4.6,28.5-7.8-2.7,4.6,9.5,1.7c-8.1,3.9-5.4,18.8-6,19.7-.4.6-10.9,4.4-12.2,8.2l9.5,1.7-9.8,61.4c-6.9,10.1-12.9,11.1-22.3,4l2.6-6.8-9.7,1.9c7.7,17.6,7.3,24-2.1,40.7,5.5-1.1,26.9,4.1,27.5,9.7.3,6.5-7.6,16.6-6.9,21.8.7,5.3,4.4,10,5.4,17,2.1,14.5.5,33-6.2,42.9,22.1-1.2,43.8-3.5,65.2-7-5.9-2.4,0-9.6,2.5-6.3,1.2,1.6,1.2,4.2,2.7,5.4l2.1-.3c.7.2,1.5.2,2.7,0l-.4-1.2c-.4,0-.7,0-1.1.2l-2.9-9c8-13.2,18.8-7.5,31.1-8-4.4-3.5-12.1-8.9-17.5-9.5-6.6-.7-13.4,3.7-17,3.1-1.9-.3-3.9-4-6.6-3.8-3.2.3-27.6,17.1-23.1-5.2,2.6-13,27.9-9.1,34.6-10.5,5.6-1.1,10.1-6.4,14-7.1,5.5-1,12.5,5.8,12.8-4.5-12.5-4.1-16.3-10.3-13.1-23.4.9-3.7,4.8-6.3,5.1-9.5.8-9.3-9.6-43.4-8.8-58.5.3-5.5,2.8-6.3,5.2-10.1-13.2-6.1-23.4,7.9-35.8-5.9.4-3.6-.6-9.3,1.2-12.2,2-3.2,39.3-14.7,45-14.9,10-.4,17.6,7.9,25.1-2.4-9.5-.3-20.9,2-28.3-6.6-.9-9.7,7.4-16.7,8.5-25.7,1.2-9.7-4.3-16.7-3.8-24.3.6-9,10.3-17.9,4.3-30.7l14.6-6.8c0-.8-9.5-6-11-6.2-4.1-.6-7.1,6.9-10.5,2.7l15.2-14.8-18.8,8.4-4.2-4.9c-10,4.7-21.4,10.3-17.8-6.6.8-3.8,25.8-2,30.2-2.4,3.2-.3,5.7-3.3,7.9-3.6,8.8-1,13.4,5.6,22.8-8l-9.5-1.7,2.1,4.8-9.7,1.9,5.2-6.9-7.2-.4c7.6-10,0-18.7,13.4-25.7l-11.2-4.1c4.9-10.6-1.8-21.1-2.7-32.6-.6-8,4.4-16.2-1.5-25.5l21.8-16.8c-14.6-2.7-23,8.6-36.9-2.2-6.7-5.2-2.1-12.8,4.2-15.1,14.4-5.3,44.1,1.8,49.2-22.7l-10.9-2.8c-4.5-24.6,26.5-9.1,31.6-25l13.7,11.5c-7.1,6.3-16.3,12.6-10.7,23,.8,1.6,4.6,1.7,4.7,3.5.3,5.6-6.1,17.9-6.1,23.2s4.4.5,4.8,5.1c.8,9.9-5.4,18.8-2.2,28.6-1.8,7.9-25.4,10.6-29.3,15.3-4.9,5.8-2.3,20.2-5,25.3-2.2,4.1-9.4,5.4-8.7,11.5,10.6,1.6,12.9,1.8,19.5-6.2,1.3,15.3,22.5,4.1,10.9,23.5-2.2,1.3-12.1-5.8-14.6,2.7l14.3,3.2c-6.9,9.1,5.3,9.4,7.5,14.6,3.9,9.4-6.8,32.6-9.8,42.3-1.2,4,1.4,9.8-2.1,14.1-5.4,6.7-17.8,6.4-23.3-.5-.5,6.9-7.3,11.8-11.4,18.7-1,1.7.6,5.1-.8,7-2.3,3.1-9,2.8-8.8,8.1-.3,5.1,14.2-2.4,15.9-2.6,12.5-1.4,20.8,3.1,32,6.4.3,8.1-11.9,22.6-12.4,27,0,1.3,2.3,3.3,2.2,4.7-1,10.1-5.3,19,2.3,27.9l-9.4,2.3c1.9,14.4-.5,38.3-20.3,37.3-10.4-.5-5.6-11.1-11.7-5.7l-14.9,34.1,34.3.5c11.3,13.4,6.2,25.6-7.2,34.5,3,3.2,5.9,5.2,6.6,10,1.1,7.8.9,20.7-1.7,32.8,13.8-3.8,27.3-8.1,40.7-12.8-4.1-5.5-4.8-12.8,0-23.8l31-1.1c.9-5.3-4.2-7.3-6.1-11.8-4.8-11.5,6.3-25.9,15.5-32.5l.5-12.5c-18.9-8.2-15.2-25.3-2.6-37.8.5-1-11.9-3.8-9-14.6.7-2.6,6,.5,5.1-3.5l-9.6-.5-1.4,4.7c-6.8-5.7-14.9-17.6-5.5-24.4,2-1.4,26.5-10.1,29.1-10.3,10.1-1,15.5,8.8,27.2,3.7l-3.7-7.5c-9.3.3-35.8-4.4-30.7-16.6,1.1-2.7,2.8-4,4.8-4.8-.6-9,2.6-23.4-3.4-25.4l7.8-55.8c-10.9,2.1-14.7-6.7-23.4-12l33.3-13.9c2.9-4.1-6.2-15,4.6-22.6,7.8-5.5,47.2-13.8,47.6-2.4-3.5,6.4-7.8,19-8,26.1-.2,7.8,9.4,20.8,5.2,27.2h0c-8.2,12.7-.3,8.4-.9,18.1-.3,5-5.1,12.2-5.3,18-10.5,1.3-18.2-1.2-25.8-8.3,3.2,7-1.8,26.1-9.1,40.6.8,1.6,1.5,3.8,2.3,4.6,8.6,8.5,12.7-6,17.3-5.6l11,3c-8.1,17.1-10.6,33.7,2.2,49.4l-9.6.7c3.3,14.8,9.8,24.2,2.8,39.8-6.3,14-22,3.4-33,9-12.6,6.3-4.5,11.6-5.2,14.4-1.1,4.2-11.5,10.3-9.3,13.8,13.2,8.2,32.4-3.2,42.9,5.9,14.7,12.7-7,21.6-8.3,28.9-.3,1.7-.3,3.2,0,4.6,25.9-13.7,50.6-29.3,74.1-46.5-.3-5.6-1.9-11.3-1.7-17.3.6-16.3,3.9-31.7,5-47.8-.3-3.9-11.7.9-15.2,0-10.5-3.1-8.3-14.5.7-18.7l14.9,9.1c7-9.7-8.5-5.9-6.5-13.6,8.4-1.6,9.7,8.7,17.5,8.2,1.1,0,9.2-11.4,18.6-7.6-.3-9.4-12.2-9.7-18.8-9.4,4.9-9.1,3.7-19.5-8.7-17.3,12.8-10.9.2-17.9-.3-22.7-.6-6.1,1.9-44.2,4.1-49.9,1-2.6,6.7,0,5-6.2l-28.7-5.3.7-10.6c5.5,2.1,13.5,2.6,18.5,5,3.7,1.8,2.6,12.4,10,1.3l-4.8-1.6c.4-14.9,13.4-8.4,15.2-13.7,1.2-3.7-4.4-12-4-19.2.4-7.7,4.9-11.1,5.9-16.7,3.4-18.7-9.4-47.6-2.7-66.1.9-2.5,7.3-8.5,6.6-9.1-6-2.6-33-2.6-33.2-7.7l8.4-19.7c12.4,1.7,19.8-1.8,28-10.8l.8,7.2c5,.5,10.4,0,15.4,1,6.8,1.5,13.2,8.3,18.1,1.9Z"/>
  <path d="M1194.1,517.1h-.1c-5.4,6.1-12.2,8.9-20.7,4.1,4.4,11.5-2.6,20.3.8,31.2-18.7,3.5-31.3,6-29.9-17.1.5-7.7,3.9-26.8,10.7-30.7l-4.6-5c3.6-6.4,6.3-7.7,3.3-15.5-5.2,3.2-36.1-1-35.7-5.4,7.8-16.5,17-14.7,28.8-21.3,20.3-11.5,12.2-39,13.8-58.2.3-3.2.7-6.4,1.4-9.8-3.9-10.4-8-20.6-12.4-30.6h-1.3l1-.7c-2-4.6-4.1-9.2-6.3-13.8l-5.8-4c.3-.6,1.3-1.4,2.8-2.2-13.1-26.9-28.1-52.7-44.9-77.2-2.6,1.2-5.1,2.7-7.1,4.7-1.9,1.9-15.2,19.7-15.4,21h.2c-1.5,3.6,9.8,7,11.7,7.5,6.9,1.9,14.1-2.8,18.4,9.1-10,17.7-.6,38.7-2.5,56.9-.5,5.1-11.5,30.9-14.5,33.5-11.7,9.9-16.5-12.9-23-7.7,6.3,11.9-8.4,18.7-10.5,25.3-1.7,5,3.1,11.7-3.6,16.1,9.4,3.9,37.8-6.3,39.9,9.6.6,4.3-6.7,10-7.3,16-.8,8.2,5.7,18.1,5.6,22,0,3.7-4,6.6-4.7,9.9-2.4,11.3-4.9,21.7.3,31.9-8,5.8-36.8.6-38.5,6.6,4.8,12.6-2.8,22.3-4.4,34.4l17.9-1.1c13.5,10.6,5.2,24.8,5.5,37.1,0,2.2,3.2,5.2,3.2,9.6,0,9.9.6,36.4-13.7,31.9l1.5,4.9,5.4.3c1.8,17.9-27.2,22.5-29,24.8-1.9,2.4-1.5,9.4-3.6,13.7-2.4,4.9-9,6.6-8.4,12.2,4.9-.5,8.8,5.5,11.6,6.4,5.1,1.6,19.1-4.1,21.3,4.1,2.3,8.7-9.7,18-9.8,20.8,0,1.5,4.7,6.2,5.5,10.4,2.6,14.7-8.2,34.7,2.8,48.9-9.4-5.4-11.7,3.4-12.7,3.8-2.1.8-5-2-7.4-1.7-1.3.2-18.3,8.3-18.6,9.4,1.2,6.9,2.7,14.4.9,21.5-1.5,6.3-7.9,6.6-7.8,12.8,10.7,3.9,28.7-4,30.1,12.9.4,4.4-2.6,9-2.9,13.8-.9,18.8,3,49.6-10.2,61.9-2.4,4.5,9.5,3.9,4.3,8.6-.9.8-19.3-1.5-23.9,1.4l-9,30.6,33.6,1.7c5.4,13.1-10.3,21.4-10.9,27-.6,6,8.7,20.6,7.5,31.9-.4,3.7-2.2,7.9-4.1,12.4,8.1-7.9,15.9-16,23.6-24.3l-18.3-3.9,23.3-1.6h.3c.4-.2.8-.9,1.2-1.7,1-2,2.1-5,4.3-5.9h1c13.3-15.4,25.8-31.5,37.5-48.2-.9-12.5-.9-49.5,1.2-57.3.6-2.1,5.6-5.5,4.6-6.3l-25.4,1.3-10.4-6.8,6.9-1.1c-.8-17.9,22.7-10.3,34.8-17.2-7.7-7.1,1.2-13.4.3-20-.3-2.2-3.3-4.7-3.8-7.9-.7-4.6,4.9-1.8,5.5-6.7,1-7.7-1.6-15.7,0-24.1,2.4-14,7.4-23.1,19.5-30.3l-9.6,2.1-4.8-2.9,5.7-17.6c-9.8-5-18.9-2.6-28.7-2.7-3.3,0-4.2,1.9-7-2.8,5.6-17.8,21.1-18.3,37.3-22.3-3.6-10.6,5.7-25.4,5.7-32.8s-4.5-25-4.9-32c-.5-8.5,7.2-26,6.9-35.7,0-3.9-7.1-4.7-4.5-11l-11.3,6.5-3.2-4.8c7.8,1.4,3.3-7.5,7.6-13.1,6.3-8.2,16.3-4.1,22.1-5.7,4.2-1.1,7.1-6,11.1-5.7.9,0,3.8,9.6,15.3,5.7,2-9.1-8.5-2.1-15.2-8-4.3-3.9-7.7-13.3-2.7-18.1,7.8-7.6,44.6-15.5,53-4.3-2.7,11.4-8.4,18.1-15.7,25.5l11.4,15c-5.2,24-9.5,46.7-38.4,49.9-2.3,11.3,2.1,25.1-6.8,34.2,19.6,2.2,46.8-4.3,37.1,24.7l-14.3-.7,7,6.5c-5.5,7.2-2.3,21.1-13.3,22v2.3c7.7,5.9,12,12.4,13.4,18.7,14.2-51.1,21.8-105,21.8-160.7s-1.9-55.7-5.7-82.8Z"/>
  <path d="M20.6,756.3c.5,1.9,1.1,3.9,1.6,5.8l9.3,5.7c2.1-9.4-6.3-9.4-10.9-11.5Z"/>
  <path d="M57.1,371.9c23.2-7,0-21.9,18-33.2-6.1-4.7-7.3-11.1-6.4-17.8-9,17-17.2,34.6-24.5,52.6,4.5-.4,9.2-.4,12.9-1.5h0Z"/>
  <path d="M32,633.5c9-5.6-2.9-35.3-3.4-44.8-.6-12.6,4.2-16.5,5.4-24.1,1.7-11.1-3.5-29.4.4-41.7-8.8-1-17.4,8.8-25.3,1.1-5.5-5.3.8-18,6.3-21,6.6-3.5,24.9-.7,28.8-6.1-1-12.6,16.8-34.7,15.4-43.2-.3-1.7-3.6-2-4.4-3.8-3.2-7.5-.5-12.4.8-19.7-4.4.8-8.2,3-9.4-2.9,10.3-.8,9.2-13.9,12.5-20.4,2.4-5,10-7.3,8.5-14.6-8.2,1.7-20.8-.2-29.7-1.8h-.3C13.3,455.8,0,526.4,0,600s.5,27.9,1.4,41.7c1.7-.3,3.5-.7,5.3-1.3,8.4-2.8,14.7-7.1,25.3-6.9Z"/>
  <path d="M25.5,743.5c1.9-1.4-9.4-5.6-8.9-13.6l17.1-5.1-21.3-3.7,5.2-57.2c-3.5,1-9.1,1.1-14.2,0,3,28.5,8,56.4,14.9,83.5,1.2-2.5,3.8-4.1,7.3-3.9h0Z"/>
  <polygon points="282.1 893.7 271 876.3 258.5 888.9 266.5 894.7 274.3 888.6 282.1 893.7"/>
  <path d="M269.2,912.3c-14.1-.9-10.2,29.8-3,35.9.1-7.8-3.3-14-1.6-22.5.9-4.4,5.5-8,4.6-13.4Z"/>
  <polygon points="331.4 403.6 327.4 389 324.2 403.2 331.4 403.6"/>
  <path d="M298.6,666.3c1.9-4.7,5-14.3-1.5-16.9l1.5,16.9Z"/>
  <path d="M340.8,221.5c5,.6,8.9,1.4,12.1-3l-3.4-3.7c-2.6,3.9-9.1,3-8.7,6.7Z"/>
  <polygon points="216.1 1056.1 223.3 1056.5 223.7 1049.4 218.9 1049.1 216.1 1056.1"/>
  <rect x="55.2" y="629.3" width="4.8" height="9.6" transform="translate(-578.6 659.5) rotate(-87.1)"/>
  <path d="M70.4,524.8l-7.2-.4c-.4,8.8,6.7,9.2,7.2.4Z"/>
  <polygon points="359.2 1149.7 359.2 1149.7 359.2 1149.7 359.2 1149.7"/>
  <path d="M359.2,1149.7c1.5.6,2.9,1.3,4.4,1.9l1.6-3.7c-1.3-1.1-3.8,0-6,1.8Z"/>
  <path d="M629.8,769.8c-7.2,6.1,19.4,8.2,16.9-1.5l-16.9,1.5Z"/>
  <path d="M666.6,473.7l19.2-.2c-4.4-7.4-14.4-6.4-19.2.2Z"/>
  <path d="M607.7,1011.3c5.9,0,17.9,2,21.8-3.6-6.8.4-17.8-4.1-21.8,3.6Z"/>
  <polygon points="653.2 780.6 648.5 780.4 645.7 787.4 652.7 790.2 653.2 780.6"/>
  <polygon points="1070.9 324.9 1073.7 314.4 1063.9 319.9 1068 321.7 1065.9 326 1070.9 324.9"/>
  <polygon points="1013.7 594.9 1028 595.6 1016.4 587.8 1013.7 594.9"/>
  <polygon points="1054.4 457.6 1055.3 462.4 1064.1 455.7 1054.4 457.6"/>
  <path d="M836.7,1138.5c4.9,0,16.1,1.3,14.7-6.4-6.4-.7-14.9-2-14.7,6.4Z"/>
  <polygon points="434.1 511.1 434.1 511.1 434.1 511.1 434.1 511.1"/>
  <path d="M434.1,511.1l11.9,1.8c1-3.5-.8-5.1-3.3-7.4l-8.6,5.6Z"/>
  <polygon points="406.5 750.8 412.3 746.6 398 743.5 406.5 750.8"/>
  <polygon points="234.6 252 228.6 255.5 228.1 262.5 231.5 266.2 238.1 255.9 234.6 252"/>
  <path d="M252.5,137.6c3.7,0,8.9-21.5-.2-19.2,1.6,2.6-5.2,19.2.2,19.2Z"/>
  <path d="M207.3,478.9l-19.9,13.4c8.1,1.1,20.8-3.5,19.9-13.4Z"/>
  <polygon points="196.9 540.9 195.1 528.8 187.8 532 196.9 540.9"/>
  <polygon points="162.7 786.7 154.7 784.1 150.7 787.3 150.5 790.8 162.5 789 162.7 786.7"/>
  <path d="M191.3,511.8c-.6,4.5-1.2,10.5,4.1,12.2,1.4-3.3-2.6-15.1-4.1-12.2Z"/>
  <rect x="125.4" y="924.7" width="4.8" height="7.2" transform="translate(-805.8 1009) rotate(-87.1)"/>
  <path d="M182.5,489.7h.1c-4.5-.6-10.5-1.2-12.2,4.1l12.1-1.8v-2.3Z"/>
  <path d="M901.4,721.3c-4.2-.7-8.3-.2-12.5,0-2.5.2-11.8,0-11.7,3.5,8.3-1.3,22.5,9.9,24.2-3.5Z"/>
  <path d="M957.7,327.7c-3.5-.5-7-.3-10.5-.2-3,0-14.9.6-16.1,3.6,7.3-.2,15.7,1.7,22.8,1.2,3.5-.3,7.5-1.5,3.8-4.6Z"/>
  <path d="M887.6,756.6c2.8,6.1-9.2,22.8,1.3,21.7-.9-6.5,6.5-17.8-1.3-21.7Z"/>
  <path d="M939.9,369.9c0,.1,3.7-3.3,3.7-3.3l-9.2-6.5c-1.2,4.5,2.7,6.6,5.5,9.8Z"/>
  <path d="M954.4,344.3l.4-7.2c-8.8-.4-9.2,6.7-.4,7.2Z"/>
  <path d="M495.5,1050.2c1.4,2.2,1.3,7.9,1.6,10.8,7.8-2.4,5.2-10.6,8-16.4l-16.9,1.5c-.9,4.6,5.1.9,7.3,4.1Z"/>
  <path d="M553.4,505.9c-.5,0-1,.2-1.3.4l1.3-.4Z"/>
  <path d="M566.6,502.2l-13.3,3.6c4.8-.6,14.8,3.5,13.3-3.6Z"/>
  <path d="M1115.5,857.2c4.7.9,18.1,8.3,16.9-1.5l-16.9,1.5Z"/>
  <path d="M1125.7,889.2h.1c-.5-3.1-2.4-5.5-6.8-5.3.9,1.5,2.6,6.8,4.1,10.1,1,2,1.8,3.2,2.4,2.1.4-2.2.6-4.7.2-6.8h0Z"/>
  <path d="M1142.2,757.7c-1.5-4-4.9-8.2-9.2-7.6,1.5,4,4.9,8.2,9.2,7.6Z"/>
  <path d="M732.2,133.4l7.7-9.2c-6-.9-8.3,3.4-7.7,9.2Z"/>
  <path d="M591.4,253.6h2.4c0,.1,3-11.7,3-11.7-5.5,1.2-5.5,7.2-5.4,11.7Z"/>
  <polygon points="577 394.6 577.7 404.2 581.6 398.5 577 394.6"/>
  <polygon points="806.9 502.6 790.3 499.3 800.9 509.2 806.9 502.6"/>
  <path d="M716.5,250.4c-5.4,1.6-6.8,9.3-7.9,14,7.2,2.3,6-10.2,7.9-14Z"/>
  <polygon points="701.4 357.7 704.3 348.3 697 350.3 696.8 353.9 701.4 357.7"/>
  <path d="M698,331.1l-9.8,4.3.9,4.8c3.6-2.9,9.8-3.2,8.9-9.1h0Z"/>
</svg>