<?xml version="1.0" encoding="UTF-8"?>
<svg id="Layer_1" xmlns="http://www.w3.org/2000/svg" version="1.1" viewBox="0 0 1200 1200">
  <!-- Generator: Adobe Illustrator 29.0.0, SVG Export Plug-In . SVG Version: 2.1.0 Build 186)  -->
  <path d="M116.8,245.6c-1.1-4.7-4.8-5.5-9.3-5.1h0c0-.1-.2,4.7-.2,4.7l9.5.5h0Z"/>
  <path d="M100,269.6c.8-1.2,1.6-2.5,2.5-3.7l-4.5-2.1h0c-2.7,2.1-4.5,3.5-3.9,7l6-1.2Z"/>
  <path d="M1053,221.7c.5.5,6.2-.7,12.6-1.4-2.6-3.2-5.2-6.3-7.8-9.4-2.5,3.1-5.6,6.2-4.7,10.7h0Z"/>
  <path d="M1070.4,905.5c1-2.3,5.9-14.9,6-15.7,0-1.1-9-8.5-8.9-19.9,0-6.6,4.3-10.4,4.6-14,1-12.6-2.8-26.8,3.2-39.6-9.5-.6-39.8,6.2-27.9-11.9,7.8-11.8,12.8-7.7,21.8-11.3,13.5-5.5,14.1-33.7,24-44.3l-9.4-4.2c4.6-15.9,2.1-40.2,7.7-55.4,1.2-3.3,7-2.3,7.5-6.2-11.5-3.4-25.6-7.1-36,.5,5.1-17.6,15-27.7,34.9-24.7-1.1-6-.2-19.3,2-24.8,2.1-5.1,10.1-8,10.9-11.7,3.2-16-6.9-31.2-6.7-41.4,0-1.1,3.8-19.7,4.2-20.8,2.7-7.7,20.2-11.9,19.8-22.4-10.8,5.8-21-4-32.8,7.2l-12.8-7.2c-4.3-5.7,19.5-9.3,15.4-18.4,9.9,8.6,12.7,2.9,21.9-2.6-6.4-10.5-2.7-17.3-1.2-28.5l7.5-2.3c.5-3.5-3.3-6.5-3.8-10.3-1.9-14-.7-45.6,3-58.9,1.6-5.6,7.4-7.6,7.4-13.3-3.6-4.4-12.3,16.2-23,12.9-10.3-3.2-1.4-19.7-5.2-27.4,12.4-2.2,22-8,29.4-18.5,1.1-14.2,9.5-26.3,0-40.3l2.7-1.2c-16-31.6-34.7-61.5-55.8-89.6v1.6c0,7.9,6.2,19.3-3.4,21.4,8.2,6.1-.8,9.6-3.2,16.8-3.2,9.4-2.2,25.3-13.5,26.9-4.1,5.7,9.9,3.3,1.4,13-1.2,1.3-2,2.9-3.9,3.3-4.5,1.2-12-.3-15.9-2.8-2-1.3,0-5.8-3.7-5.1.4,8.5,3.5,21.6.9,29.6-.4,1.2-13.1,7.7-17.8,17.6,8.5-1.1,8.7-1.2,17.9-1.4,9.9-.2,20-5.5,28.9,3.7l-2.4,14.2-7.1,1.1c-3.3,12.8,5.8,11.9,6.1,14.5.3,2.4-5.2,11.7-5.3,16.9,0,5.6,4,8.3,4.3,12.3.5,6.7-3.3,23.1-6.4,29.5l16.8-.3c.9,4.9-4.1,3.8-7.4,4.4-12.8,2.1-26.8,6.4-38.6,1.7,1.8,15.9-11.6,20.9-16.2,34,7.2,1.3,16.5-6.3,23.3-7.1,6.4-.8,13.7,1.1,20.2.9,2.9,14.2-5.9,23.3-8.4,35-1.4,6.6-4.3,24.1-4.6,30.4-.9,22,14.1,40.2-22.6,43.3-3.8,0,2.4-20.8-5.4-13.6-11.2,10.3,2.8,7.2,1.7,15.8l-6.9-.2c0,12.6-5.6,23.5-11.6,34.1,6.6,6.4,15.4-2.6,20.5-2.5,1.9,0,19.9,7.9,19.9,9.3-.5,5.4-14.9,12.6-15,13.6,0,.6,4.1,3.3,4.1,7.3,0,10.3-5.9,28.3-5.9,36.4s3.8,6.2,3.7,9.3c0,3.9-7,8.8-7,14.1s3.3,5.9,3.5,7.4c.2,1.2-3.2.7-4,1.9-1.3,2-.9,5.3-1.5,5.8-1.5,1.3-8.5-.7-12.4.3-1.6.4-16,7.4-17.5,8.5-8.9,6.2-4.8,16.3-7.7,25.7,1.9,2.2,31-7.3,36,.7-3.3,8.7-5.7,18.8-5.5,28.2,0,2.8,3,5.6,3.2,8.4.6,7.4-5.7,19.3,6.8,17.7,2.2,6.4-4.6,3.6-5.2,6.1-1.4,5.4,1.6,12,0,17.2-6.3,20.7-20.1,20.9-29.9,30.3-2.1,2.1-14,19.3-14.5,22-.9,4.9.2,3.2,3.4,3.8,8.1,1.6,20,1.7,27.7-1,1.3,2-2.8,20.7-4.2,24.4-1.5,3.9-6.9,5.6-6.7,9.4,0,3.3,4.6,7.6,5,11.2.5,3.8-2.3,7.8-1.3,12.8,1,5.1,8.1,21.5,7.4,24.6-.2.9-9.2,14.8-9.9,15.5,2.1-1.9,13.5,6.5,11.6,7.8l-11.9-3,.2-4.8c-3.1,3.1-21.7,9.3-25.3,8.5l-6-7.7c2.3,6.3.2,16.5,6.3,18.3l-7.9,12.8c9.8,4.9,23.1-4.1,31,5.3-3.1,7.1-7.6,16-8.2,23.8,0,1.3-.2,2.5-.2,3.8,24-19.7,46.5-41.2,67.2-64.3-.6-2-.9-4.1-1-6.2,0-1,4.5-.6,6.1-5.3l.3.3c2.5-7,7.8-27.3,6.5-33.7-2.6-12.6-22.7,3.1-32.1-4.2-3-18.7,11.2-13.1,22.2-16.6,7.8-2.5,13.2-9.1,22-7.3,2.5-6.7-5.1-4.3-6.4-9-3-10.4,3.9-9.8,4.9-12.2Z"/>
  <path d="M924.5,809.7c4.1-1.6,7.3,1.5,10.3,1.1,5.7-.8,16.7-2.3,21.7-3.4,3.2-.7,19.9-13.4,21.4-16.8,2-4.5,1-6.7-4.1-5.9l-7.6,6.8c-3.9-13.1,6.3-18.8,6.4-30.9l-9.8,4.3c4.6-18.6-8.5-32.7-1.1-50.6,3.2-7.6,2.9,6,8.3,2.9l-1.7-14.5c-8.1,7.3-34.4-12.3-35-17.7-.4-4.4,10.1-7,5.4-15,5.4-1.2,11.2,2.8,15.6,2.9,3.9,0,6.7-2.8,10.2-3.5,7.3-1.3,14.5,2.5,17.6-8.4,1.7-5.9-8.5-4.9-9.1-7.6,4-18.7,11.8-35.3,2.8-54.8l5.1-2.4c-.3-5.8-1.9-19-1.2-23.9.8-6,8.3-6.6,7.9-12.8-12.9,2.5-23.9-2.6-35.7-5.4l-2.1-7.4c15.5-7.2,31-13.3,48.1-14.6,8-.6,17.3,4.8,25.1-5.7-9.4-2-31.6,6.1-33.2-9-1.1-10.2,10.3-26.6,11-38.2.3-6-5.2-25.5-4.4-32.7.9-8.6,7.6-19.6,10.6-27.7l-34.5-1.6-2.7-8.8c16.4-15.3,40.7-19.5,62.6-17.1,2.5-10.5-7.2-11.3-11.8-4.2-9.4,3.8-.4-21.6,1.3-25.2-1.5.2-6.3,0-6.9-.6-7.7-15.3-.7-25.9-.4-39.4.3-12.3-7.2-16,3.7-29.8-5.5-1-10.1-4.3-15.5-5.4-6.1-1.2-20.4,1.9-20.1-4.9,1.3-30,32.6-14.1,51.8-23.8l-6.7-2.7c4-6.1-3.7-11.4-3.9-17.7-.2-6,7.3-9.2,2.9-17.2l-9.8,4.3c9.1-9.7,5-23.8,7-33.8.4-1.9,2.3-6.9,4.2-12.2-19.9-20.2-41.3-39-63.9-56.2-.5,11.9,6.1,15,6.2,21.9,0,5.3-3.3,34.6-4.6,40.4-5.4,25.8-30.6,6.2-34,9.2,2.2,7.2-7.2,38.9-.5,40.9,10.8,1,32.1-3.6,26.2,14-2.1,6.2-16,6.2-12.6,17.9l9.7-1.9c2.4,15.9,8.4,27.7,4,44.3-.8,3.2-9.2,21.3-10.3,22.1-.6.5-14.6,4.4-15.4,4.5-4.5.3-12.4-6.2-15.3,3.4-1.4,4.6,1.4,8.2,1.2,11.8-.5,8.6-5.9,15.1,5,22.1l13.4-3.4-3.8,21.1c-4.3,2.4-15.8-5-14.3,4.4,20.6-6.6,14.6,17.7,15.5,28.3.3,3.8,3.6,6.5,4,10.2.7,5.3-3.9,23.6-7.3,27.1-3.5,3.6-20.4,4.6-25.9,9.3-10.4,9,.6,36.6-27.2,23.7,0-12-4.9-17.1-.6-29.1,1.2-3.2,7.2-6.4,3.4-8.9l-6.2,4.5c0-10.3,9-13,6.1-26.1l-26-6.2c-3-23.8,29.8-11.3,34.7-33.6.8-3.8-1.6-7.3-.9-11,.9-4.5,7.3-7.9,7-11.7-.5-4.5-7.8-13.9-7.6-22.4,0-5.4,3-27.1,4.4-32.8,1.9-8,8.5-14.2,7.7-23.1-7.5,2.6-15.1,8.5-23.2,8.5s-.9-14.9,2-18.1c7.2-7.9,29.2-7.6,30.2-22.4.5-6.6-7.6-2.4-9.2-7.9-1.8-6.2,4.7-9.5,5.1-13.8.9-8.2-2.8-29-7-36.6,13.2-8.5,6.3-5.2,7.6-13.7,1.4-9.1,4-18.6,6-27.6-1.8-1.9-32.5,16.7-25.4-16.8,2.8-13.2,9-10.2,17.1-13.9,6.6-3,9.5-8.8,17.3-4.9-9.1-8.6-5.4-16.8-.5-27.1.8-1.6,2.4-3,3.9-4.3-18.7-12-38-22.9-58-32.8-5.6,10-17.2,13.9-26.3,2.4-2.5,9.8-13.5,27.3-13.8,36.7-.5,14.6,15.6-6.9,19.3-2.8l-.4,7.2c21.8-5,6.6,9.5,6.1,18.3-.4,6.8,4.5,14.6,8.7,19.7l-7.2.8c1.8,9,5,28.3,2.4,36.8-1,3.1-5,5.5-6.1,8.6-2,5.5-.3,15.2-4.3,18-8.2,2.2-21.4,3.9-23.7-6.1-7.9-1.2-2.6,6.9-3.5,11.3-2.9,13.2-13.8,35.7-23.4,45,11.2,2.5,32.2-18.5,33.3,4.4.7,15.7,3.4,19.1,5.1,31.8.7,5-2.7,15.9-2.1,20.6,1.4,10.1,11,12.3-.8,23.1-16.5,15-26.5-2.6-27.5-1.4-4.5,13,4.7,12.4,6.4,14.8,3.6,5-4.9,4.8-6.3,6.8-3.5,4.8-5.2,23-12.4,29.5,12.3.6,23.8-3.9,35.9.8l-.3,8-5,3.6,7.2,1.6c-.7,17-8.3,31.7-14.6,47.2l9.3,6.5c-16.3,3.7-3.1,10.1-3,11,1.5,7.9-11,14.9-17.9,17.8-5.7,2.4-15.7,1.9-21.6,6.5-3.3,2.6-8.6,16.9-12.3,25.9,3.2-.6,6.2-1,7.8-1.2,3.3-.4,27-1.5,28.3-1,9.6,3.6-2.1,25.5-2.6,32.2-.4,5.2,2,9.9,1.7,14.4h-.2c-.8,17.3-2.6,34.6-1.5,51.8-2.8,5.4-23,7.7-28.1,4.5-1.9-1.2,1.3-10.4-6.5-8.8.9,11.7,1.4,30.5-6.8,39.3l11.9,1.8-5.3,9.3,20.6-3.1,4.5,4.3-12.9,77c-8.7,15-15.8,26.4-31.1,9.8,5,12-3.1,9.1-5.5,13.6s-.2,11.6-1.4,15.5c-.6,2.1-7.2,13.9-8.6,15.8-4.8,6.4-4.2-8.5-10.5-5.4l-5.1,6.9c-7.2-10.8-1-20.6-1-30s-3.1-6.7-3.1-9.8c0-9.2,6.6-20.6,5.4-30.7-4.2-5.5-7.6-2.8-12.1.2,2.1-6.5.6-23.1,4.5-27.9,2.8-3.4,13.9-5.5,15.9-7.7,4.3-4.8,1.5-20.2,11.5-24.1l-7.1-1.5c6.9-11.9,2.3-20.6,6.6-32l-4.7-1.7.3-4.6,4.8-1,.2-4.8c-13.5-6.4,6.9-21.2,4-32.2-8.5,3.1-16.5,1.1-19.2-7.9l-6.9,1.8c-1-1.2,2.3-8.3,3.5-10,5.1-7.7,22.9-14.5,28.1-22,2.9-4.1,1.1-13.7,3.4-20.9-1.2.5-2.4,1.3-3.4,2.4l8.5-32.3-4.9-2.9,5.9-20c-14.3,3.9.6-14.9,4.5-19.1,5.6-6.1,13.4-9.7,18.9-15.7l-28.3,10.4-15.1-7.9c3.9-12.5,21.5-4.8,18.3-22.8l11.8-2.1c-8.6-9.1-1.6-12.5-.5-19,2.4-14.5.2-28.2,1.3-42.1.9-11.6,4.1-27.7,6.7-39.3-4.2-3.4-35.4,16.5-20.4-23.9l29.6-14c-7.7.6-4.8-9.2-3-14.8l11.1-1.7-4.4-11,5.1-3.3c-18-1.7-10-29.6-7.2-42.2l-4.9-2.9,4.4-1.3,1.5-18.9c-5.9,4.1-8.3,5.9-14.5.5-10.9-23.3,17.4-31.5,31-44.1-11.9-9.2,3-20.8,2.9-26.2,0-1.6-3-4.4-3.3-7.6-1.3-14.2-3.7-32.2,2.3-45.2,2.6-5.6,12.5-11.3,4-13.2-6.9-1.5-12.2-1.3-18.8-6l-3.9,4.7.8-15.3c-14.1-4.6-28.5-8.7-43-12.2-.3,2.6-2,5.4-1.4,8.5.8,4.8,5.6,8.3,5.4,15.7-.3,12.1-10.6,26-10.5,39.2-10.9,8.9-14,9.7-21.8-1-4.7-6.5-10.9,13.9-11.4,17.5-1.8,11.4,5.8,20.1-8.6,25.7l9.3,1.4,1.8-6.8,15.1,8,6.2-6.8,12.9,6.9c-2.7,11.1-6.6,23-20.2,21.5-2.1,6.4,3.8,4.2,6.3,9,8.4,16.4.2,31.5-3.8,45.7-5,17.8,1.6,33.3-28.1,23.2-6.3,8.5,1.9,13.6,1,19.8-.7,5.1-6.1,15.4-10.2,19.4,7.1,9.8,19.3-1.4,27.7-2.2,4-.4,3.9.2,3.4,3.8-1.2,9.8-3.4,24.5-11.2,30.7,8.9,2.7,2.2,7.5,1.6,14.5-.7,8.8.4,23.4-1.6,30.7-.5,2-4.6,1.6-5.8,4.3-3.2,7.1,0,17-9.1,20.4l-6.8-2.4-2.9-12.2-9.6,43.6c11,10.5,27.7-3.3,38.1,9.5-7.7,3.7-16.8,17.4-18,25.8-1.4,9.4,4,21.7,3.3,28.5-.2,1.4-4.4.9-5,2.7-3,9.2,4.3,14.9,2.8,20.1-2.5,8.7-13.1,16.9-22.3,13.1-4.1-1.7-1.8-7.5-5.9-7.3-2.5,10.7-4.2,24.1-6.7,34.4-1.1,4.2-11.9,15.5.6,13.3,8.6-1.5,19-11.9,30.5-8-.4,8.6.8,23.6-10.8,22.3-.5,5.2,5.3,6.3,9.3,6.5,1.8,6.2-3.6,4-4.3,5.2-2.5,4.2-5.3,9.3-7.6,13.4-1.3,2.3,2.7,4.2,2.3,7.5-.7,4.8-6.4,11-9.3,15l5.8,7.4-10.3,24.4c-9.8,1.9-16.5,2.5-23.3-5.6l-9.4,41.4c.2,4.9,29,3.8,33.3,11.8-2.7,11.6-10.7,21.7-7,33.9-17.1,5.7-1,11.2-.4,14,3.7,18.3-16.3,28-2.3,43.8l-16.2,11.2c-6-.3-6-25.7-14.7-16.3l6.6,11.1-9.3-5.3c-1.9,5.5,4.1,10.8,3.5,15.4-1.1,7.8-13.1,12.1-3.1,24.2-17.6,12.8-19.9-16.2-30.1-23.1-1.3-7.3,4.8-5.2,5.3-7.2,1.7-6.8-4.3-12.2-3.9-16.7.3-3.5,11.8-22.8,8.5-27.2-5.4,3.3-9.8-2.8-12.6-2.6-3.1.3-5.5,5-12.7,3.7l-1-6.1,4.6-2,.8-9.7,26.5-2.3,3-10.7,9.6,1.9c.7-6.3-6.4-9-7.9-14.7-3.4-13.5,7.2-18.8,19.2-18.3,2.3-10.4-9.5-.3-14.3-4.1-13.2-24.9-7-47.6,3.7-71.9-2-8.6-31.5,0-32.8-11.8-1.1-10,38.1-18.8,46.2-13-10.4-11.7,6.3-33.1,6.3-38.9s-7.7-12.9-7.5-15.2c0-1.5,3.6-3.4,3.7-6.5.2-8.8-2.2-17-.3-26.9,1-5.4,6.2-9.4,5.5-15.4-9.2,3.1-23.1-15.3-24.6-15.7-8.5-2.5-7.1,11.4-15.8,5.2l5.9-17.5c14.4,4.5,21.2-4.4,35-8.1,8.4-2.3,30.1-2.7,33-9.1.5-9.6-9.2,2.6-13.3,2.2-1.8-.2-9.4-6.3-10-8.5-3.6-12.2,7.7-17.4,7.7-18.4s-6.3-4.5-6.6-10c-.7-10.6.9-41.9,2.7-52.4.7-4.5,4.5-7.5,5.4-11.9l-4.6-2.7-6.2,3.3-7.7-14.8c17.7,5.7,24-18.5,46.1-9.7l.7-14.3c-7.7,3.1-16.8-4.9-15.9-11.7.3-2.6,13.1-4.6,9.9-12.6-20.6,11.4-12.7-17.2-13-28.3,0-6.4-3.6-13.5-3.1-19.1.7-6.3,9.8-17.3,6.5-22.9l-6-2.7-1.6,7.1c-3.3-8.5-25.3-2.9-24.5-11.8l5.4-14.4,33.1-9.2,4.3,5.2c6.1-5,12-6.3,16.8.8l4.2-11.8-19.3,2.7-8.2-20.3,11.9-13.6c-1.8-7-7.9-22.5-7.5-28.9.5-7.3,9.5-12.9,10.7-21,.9-6.4-5.1-32.6-13.3-25.9,4.3,8,0,12.1-7.2,16l-17.4-6.5c-9.5-34.9,26.5-17.2,34.1-25.7l-.8-12.2,5.9,7.6,10.6-3.2-11.2-6.9c-2.1-3.7-1.3-7.4.4-10.6-30.4-4.7-61.5-7.2-93.2-7.2h-2.1c-.3,1.2-.6,2.4-.9,3.6l17.5-1.2,6,8.5c.6,28.6.2,56.7-4.3,85l-9.3-5.3-5.3,9.3-5.3-38.7c-16.2,1.2-.8,17.3-3.8,24.7l-12.2,6.9c6.5,12.1,11.4,21.5,7.3,35.9-1.6,5.6-7.3,7.6-7.4,13.3l26.3,1.5-6.1,26,8.4,2.7c3.5,6.2-2,13.2-2.1,18.4-.2,10.4,3.6,39.7-7.9,45.7-7.2,3.7-13-8.2-17.8,4.4l-3.2-7.3c-6.4,13.7-3.2,26.7-6.9,40.5,11.7,1.9,21.6,3.5,27.7,14.6-16.8,13.8-6.7,20.4-5.9,33.3.5,7.5-3.1,14.1-3.8,21.4-1.1,11.4,4.6,25.7-8.6,28.8-6.5,1.5-13.2-3.8-15.8,0,2,13.6-10.5,22.2-12.4,31.9-1.8,9.2,21.6.7,23.8,2.5,5.3,11.6-1,21.7-1.6,32.2-1,15.9,1.6,25.3,2.8,38.8,2,21.8-3.8,30.7-25.6,33.4l.5-9.6c-12,6.4-5.9,24.1-12.8,35.2l6.9,10.1,2.7-7,10.3,8.9-5,5.7c12,2.1,4.3,17.6,4.3,25.1,0,21.6.7,34.8-6.8,57.1-6.4,19.1-7.4,6.5-17.3,8.5-7.9,1.6-12.4,12.2-12,19.6l-10.1,3,.9,4.8,7.3-2c4.9,7.5-5.4,9.8-11.3,11.5-.9,4,5.8,3,8.1,2.7,7.7-1.1,23.5-9.1,27.2,3.2,2.6,8.8-3.8,7-4.7,9.4-1.4,3.6-.4,10.1-3,13.5-2.3,3.1-8.9-1.7-7.7,4.6,14.9,8,5.3,13.6,6,26.5.6,12.2,13.9,21.7,7.5,37.9-6.4-4.1-16.2.6-14.9,8.8-5.9-7.8-11.4-1.8-17.3-3.6-4.1-1.2-5.3-8.4-11-7.4,1.5,14.2,5.7,35.8-2.5,47.9,10.3,2.3,23.1-6.2,30.2,5-3.5,8.2.4,18.5-7.6,23.8l4.5,4.9c-2.1,2-4.5,3.7-4.9,6.9-1.4,11.8,6.3,35.7,7,48.5-2,9.6-30.2,17.4-39.2,11.3-1.6,11.4,2.2,24.4-6.5,33.3l17.1-6.3-5.4,11.7,10.6-1.5c12.3,9.5-2.1,18.2-.5,30.5l-9.4,3.4c1.2,4,7.2,1.5,8.2,3.8,1.5,3.3.2,7.5,1.3,10.5,3,8.2,6.8,9,5.6,20.1-1.7,15.7-11.3,16.1-19.5,26.7l-2.2-7.5c-14-6.1-5.5,10.2-7,14.9-.3,1.1-7.9,17.8-9.1,20.4-1.2,2.5-13.8,10.8-.9,9.1,8.2-1.1,8.2-4.8,11.1-5.8,20.5-7.2,19.6,10.9,8.9,23.1l4.7,2.8c-5.5,9.8,5.1,19.5,5.7,29.2.3,4.5-3.5,30.1-4.7,35.1-1,4.3-5.2,7.4-10.1,9.9,21.7,4.2,43.8,7.2,66.3,9.1-.8-8.7-2.4-18.8-1.7-25.7.9-9.2,8.4-20.4,5.7-31.8-2-2.2-31.1,8.5-19.6-15.4,3.3-6.9,22.5-15.5,30.8-15.3l-1.8-12.1,11.7,5.4-11-19.8c-.6,3,0,6.5-.5,9.6l-4.3-9.8,4.8.2c.9-4.8,1.4-9.6,3.1-14.2l-9.6-1.7c21.2-3.3,3.6-21.6,4-28.6.4-6.8,9.3-15.6,5.8-28.2l-13.9-5.7-1.9-9.8c5.2,0,11.4-6.7,14-7.2,2.3-.4,5.6,2.4,8.6,1.7,9-2.2,23-5.3,28.9-12.3-13.7-.4-20.2,4.3-27.9-9.8,15.1-11.9,2.9-17.3,8.4-32l-9.7,1.9,5.2-8.2,7.7-56-29,3.3c0-24,9.9-22.5,27.1-28.2.9-.3,1.5-3.8,4-4.6,6.1-1.9,16.8,3.7,23.2,4.3-5.2-10.5-33.1-6.9-17.7-26,6.9-8.6,17.6-6.1,25.3-7.3,5.1-.8,7-4.5,14.5-4.1,4.4.2,19.4,4.6,19.5,9.5-6.4,10.9-8.4,23.8-10.2,36.1-.4,2.9,3,5,2.6,8.1-1.2,9.1-8.2,33.3-13.4,40.8-8.8,12.8-11.4,6.2-21,5.8s-2.6,7.5-2.5,10.3c.9,15.3-6.1,21-14.7,32.8,14.7-.5,28.6-5.9,43.1,1.1-2.4,8.9-2.7,21.9-13.2,22.2-3.4,9.7,3.6,16.5,3.6,21.6.2,13.2-13.3,31.4-16.5,43.7-7.6-5.2-14.4-5.1-13.6-16.2-2.5-5.5-9.4,5.2-10,7.8l13.7,14-9.5-1.7-.2,10.4c1.7,7.5,11.4-2.9,8.9,6.8-8.9-1.8-14,.8-19.6,7.4,7.6,2.4,22.9-.6,23.3-9.6,9.8,10.5,26.1,29.7,4.2,36.3,8.5,9,1.5,15.7,1,25.1-.8,14.4.9,34.4-5.3,47.4-3,6.4-14.3,5.3-14.6,12.9-7.1,1-5.4-5.9-7.8-10-8.3,8.5-11.2,16.2-11.1,26.1,9.1.4,18.2.6,27.3.6,23.6,0,46.9-1.4,69.9-4,.2-.8.3-1.5.2-2-.5-2.7-4.5-6.9-5.8-11-2-6.4,0-14.2-6.8-16.7l7.6-4.6c-7.9-13.9,3.3-19.9,8.6-31.8l-28.6,2.9c-5.5-12.8-5.2-22.4-.9-35.7,14.2,8.5,24.6,4.5,38.7-1.8.4-5.3-3.6-12.1-3.1-16.9,1.3-10.9,1.8-21.9,3-33.6,1.6-14.7,8.4-29.7,6.9-44.9l-3.4-3.8-22-4.2.2-9.3c7.8,3.3,9.6-3.4,11.7-4,3.9-1.2,11.9-.4,14.5-2.4,2.4-1.9,1.9-8.8,8.3-10-3.3-20.1-3.8-39.8.8-59.6,1.6-7,9.1-9.5-.5-18.3l-8.8,8,15.1-16-5.2-13.5-20.6,3.8c.4-12.6-.6-32.3,15.7-26.8l22.4-13.3-11.9-3c6.3-7.5,5.4-21.1,12.8-27,6-4.8,39.6-6.5,47.7-4.7,11.5,2.7-1,20.7-1.9,29.4-1,9.3,0,36.5,1.8,46.1.9,4.9,4.8,6.5,4.1,11.2l-7-2.8c-4.5,15.9-7.5,26.4-26.6,25.3-6.6-.4-9.8-3.4-15.4-4.6l-2,39.5,36.1-.5c-5.3,8.6-3.6,20.1-5.3,28.6-.4,1.9-4.9,4.5-5.6,8.3-1.8,9.8,3.1,31.1-.4,42.5-.3.9-14,10.3-16.3,10.5-3.3.3-7.1-.8-10.1-2.2-4-1.9-.7-7.6-7.4-6l-10.5,40.3c13.9-9.2,31.6-12.2,46-2.5.2,10.2-12.4,17.9-12.6,27.1-.2,7.9,7.5,29.8,5.3,40.9-.6,3.3-4.1,6-5.1,9.8-2.5,9.5.8,18.8-12.8,21.4-4.9,1-22.3-5.6-23.8-8.3-1.7-3.1,2.6-9.5-2.3-9.3,4.2,13.7-5,22.7-6.4,32.4-.9,5.9,2.2,13.3-1.1,20.1l2.6.3c36.8-5.5,72.5-14.4,106.8-26.3.2-3.9-.3-7.7-4.2-10.6l9.7-3.1c3.1-6-4.7-4.4-4.6-6.2.2-3.9,4-4.8,4.8-7.5,1.7-5.7-5-17.3,1.7-24.6l-32.4-4,2.7-18.8,29.1-12.1-8.9-13.7c7.2,6.5,12.6,12.1,23.4,10.8l-.9-4.8-8.6.9c-3.3-2.7-2.9-14.8.8-17.1l12.3-1.6c-1.9-10.8-11.7-18.6-12.9-29.7-1.3-12.1,5.4-30.1,7.1-42.3l-9.6-4.5v-3.6c7.2-1.4,4.3-6.5,6.8-10.3,4.3-6.8,16-6.9,23.2-8.6l-16-6c-6.7-8.4,6.9-19.8,7.2-22,.2-1.8-4.2-9.4-4.8-13.4-1.4-8.9,2.4-41.3,4.1-51.4,1-5.9,7-10.7,5.6-17.9-12.6-2.7-33.5,3-35.3-15l43.9-13.4c2.9-6-4.3-4.3-4.6-6.4-2.1-14,15.9-11.9,24.9-14.2-6.8-6.4-16-11.4-17.7-21.9-1.2-7.6,3.1-13.1,2.4-18-.8-5.2-8.9-11.2-8.3-20.3.4-5.9,5.7-9.6,7.1-15.1.4-1.6,1.4-18.5.9-19.4-5.8-9.6-16.6,6.1-17.8,6.4-4.7,1-12.2-1.4-17.5-.9-2.3-28.4,27.6-16.5,44.4-25.6,15.7-8.5,7.9-13.9,8.5-25.8,1.1-21.1.6-13.9-3.6-33.1-4.6-21-.9-29.9,5.7-49.7l-20.5-3.2-2.1-19.3c6.8-2.6,16-.5,22.1-2.1,8.3-2.1,17.7-13.7,31.1-9.9,0-4.5-6.6-1.7-10.8-5.1-1.9-1.6-2.5-5.1-3.2-7.5-15,5-2.3-5.4.9-10.7,2.4-3.9,2.4-8.5,5.1-12l15.8-.3.9,7.3c20.1-11.3,10.5,13.5,10.9,23.1.4,9.9,6,15.9,3.1,29.2-.8,3.6-4.5,5.9-4.9,9.3-1.8,15.6,8.4,30.2-15.5,39.1l-12.5-12.8-4.7,45.4c6.9-5.3,15.2-6.3,22.6-1,11.8,8.3-2.4,43.4-3.3,56-.5,7,3.8,22.8,2.4,28.4-2.2,8.5-19.4,24-28.8,14.3l-2.2-9.4-.9,13.1c.8,3.3,10.7-1.8,6.9,8.9l-9.4-2.9c4.7,8.3-1.4,23-8.7,27.3l3.3,8.4,27.8-10.4c7.9,10.3-3.3,18.8-3.3,29.8s5.1,11,3.5,21.7c-.9,5.9-4.7,9.5-5.5,14.2-2.7,15.6-.9,34.2-11.4,47.9-5.9,7.7-12.3,2.6-17.3,5.1-4.2,2.2-9.6,21.2-11.6,26.4,10.6-.2,16.8-1.8,26.1,5.2-14.6,27.9,12.5,72.5-22.8,87.2-7.2.7-5-11.9-12.2-9.9l-8.3,20,9,12.4-6.9,1.2-3.4,11.5c8.2-.4,23.2,8,24.3-3.5,7.9-5.4-1.2,32.8-1.2,35.3,0,7.4,5.4,15.3,2.8,28.6-1,5.3-5.3,8.8-5.5,11.6-.5,7.2,12.3,9.4,1.3,21.7-10.8,12.1-23.8,4.1-25.7,6.9-.4,2.9-.7,5.6-.9,8.2,32.6-13,63.8-28.7,93.2-47,0-1,0-2-.2-3.1h1.9c0-.1,5.6-1.2,5.6-1.2l2.2-7c-6.2-1.2-9.7,4.1-15.8,4.2-7.4,0-14.5-5.7-22.6-5-.9-5.7,4.4-2.1,5.2-4.9,2-7.4-4.9-17.1,5.9-20.9,4.4-1.6,9.1,0,12.6-1.2,14.1-4.8,18.3-12.3,35.3,0l7.7-6.8c-4.2-11.4-19.7-5.1-20.9-14.2-1.9-14.9,3.5-22.1,4.4-33.4.6-8.1-2.5-15.4-1.5-24.1,1.3-10.4,8.6-19.7,11.2-29.5-1.2-1.6-17.5,15.4-29.2,6.9-4.1-3,1.1-8.3-14.1-5.3-11.4-24.8,34.2-13.3,47.1-26.6l-8.7-7.9c1.1-7.5,3.4-14.1,10-18.4-14.9-7.5-10.7-11.9-13-27.1l6.9-2.5c5.3-10.4,2.3-23,4.7-33,1.3-5.3,10.3-9.7,1.1-11.3l.8-4.4c-7.8,3.4-11.5,9.4-21.5,6.1-2.3-.7.3-8-11-3,1.1-7.2-1.9-24.2,6.2-27.5Z"/>
  <path d="M108.7,942.2h-.7c2,2.9,4.1,5.8,6.1,8.6.8-4.4,1.2-8.8.8-13.1-5.5-2.9-4.9,4.4-6.2,4.5Z"/>
  <path d="M15.9,527.6c.4-15,22.6-12.4,26.3-19.1l-3.2-9.8,9.6.5c-1.7-11.2-.3-19.9,10.8-24.7-10.3-9.4-7-19.8-8.5-31.1-1.1-8-7.4-15.4-1.8-25.9,2.6-4.7,10.3-1.9,8.9-9.1l-21.2-1.4c-1.2-2-1.9-3.7-2.3-5.4-15.4,43.9-25.8,90.2-30.6,138.2,2.3.3,4.3,1.1,3.9,3-1.4-.3-2.8-.6-4.1-.7-1.8,19.1-2.8,38.4-2.8,57.9s1,40.1,2.9,59.7h.1c2.6-3.9,5.5-7.7,6.2-8,5.5-2.8,19.9.2,26.1-5.2-13.4-12.7-.5-24-.4-36.1,0-9.2-7.7-19.9-6.8-32.6.4-5.9,4.1-9.5,3.9-15.2l-15.6-15.7c-.7-5.3,2.6-3.4,6.2-3.4s13.9,5.2,13.2-.4c-5.1-5.6-21.1-5.5-20.8-15.5Z"/>
  <path d="M130.9,902.3c-1.4-5.3-9.8-9.4-10.9-14.3-1.2-5.3,2.2-9.5,1.9-13.4-1.1-15.1-6.3-34.5-3-50.6,1.1-5.7,7.3-10.5,5.2-21.4-9-11.1-28.3,6.5-26-13.8,1.7-15.8,32.8-12.5,34.8-17.4l-4.8-2.8c3.5-5.6,2.1-12.9,4.1-18.3,1.8-4.9,11.4-12.9,11.5-14.4,0-1.3-4.1-5.9-4.6-9.2-1-6,3.1-10.9-3.1-15.3l7-1c4.9-13-2.8-16.7-6.3-24.8-4.7-11.1,2.3-8.1,3.6-10.4,2.2-4.1,1.9-9.4,3.6-12,1.5-2.2,8.3-1.4,6.9-7.5l-23.1,6c-2.2-9.5-10.2-14.3-9.6-22,15.3-4.3,31.2-2.2,41.6-16-9.8-3.4-.8-17.1,0-26.4,2.3-26.3-13.7-65.3,17.3-78.4l-12.8-6.7,3.1,9.8c-5.4-.7-32.4.4-33.4-5.7l.7-12.8,18.9.7,4.5-11.8c13.6,1.4.2-10,2.2-19.9,1-5.1,8.4-11.6,10.2-19.5,1.2-5.5,4.3-30.2,4.6-35.5.4-8-6.5-14.7-2-25.1-3.4-5.3-13.8-1.8-19.1-1.5l-4.8-4.5-.2-22.7,34.3-9.2c-14.9-15.1,2-23.7,2.3-41.9.3-17.4-11.9-31.7-12.3-37.1-.3-3.8,8.2-6.7,2.1-14.4-4.7-5.9-16-5.9-14.2-19.6,1.5-6.9,22.1-7.1,28.4-9.3l-1.1-27.2c1-3.4,15.3-4.2,15.2-14.1l-9.4-5.4c4.2-10.1,7.9-22.2,9-33.2,0-.8,0-1.5.2-2.2-27.5,24.3-52.7,51.1-75.3,80-.5,4.2-2.9,8.5-2.7,13.6.2,9.4,5.7,20.3,4,32v.4c-4.2,28.3-14.8,6.1-19.4,10.1,3.1,10.6-13.6,9.9-15,11.3s1.9,6.9,1.4,10.2c-.9,5.5-5,10.9-5,16.9l3.6,3.7,12.4,1.3c10.5,28.7-8.7,26.9-21.2,44.2,6.3,5.3,17.6-20.2,23.1-5.9,1.2,3.1,4.1,48,3.6,51.8-1.3,8.9-13.7,14-21.5,14.5-.5,0-1.4-8-8-5.2l-6.6,33.3c18.1-2.8,23.7,9.4,32.5,22.1l-.2,3.5-7.4,1.2-5.1,53.4-7.2-.3c1.2,6.7,3.9,21.1,0,26.5-5.2,7.2-18.2-7.1-25-6.2l4.2,2.8c2.6,3.9-3.6,7.9-4.2,10.7-.8,3.6,2,8.6,1,13.9-1.1,5.6-8.2,9-8,15.4l26.2,3.8-1.3,24,9.5,1.7c-13.7,3.4-7.8,8.5-14.3,18.6,8.9,10.1-3.6,56.3-12.9,57.8-3.7.6-8-3.2-11.2-2.5l-12.6,31.9c-.3,12,20.2-.4,26,8.4-3.4,4.7-3.9,11.3-5.9,15.7-1,2.3-4.8,1.1-5.1,5.2-.6,6.9,3.8,10.6,4.4,17,1.3,15.1-4.1,33.2-.4,49.3-2.8.4-6.7.7-10,1.7,12.1,27.9,26.2,54.7,42.1,80.2,3.6-1.7,7.7,2.2,10.3,1.7,3.3-.6,5.9-11.5,13.8-8.6l-4.3-6.4,3.6-5.3,15.6,2.8Z"/>
  <path d="M59,379.1c1.4-1.8.8-6.1,2.3-8.7,2-3.2,6.5-7,7.3-9.4.6-1.7,3.3-32.7,2.9-34.4l-3.3-2.8c-11.1,21.3-20.9,43.4-29.4,66.2,6.5-5.3,17.7-7.5,20.2-10.9Z"/>
  <path d="M22.3,683l-9.7,1.9,2.7-7c-2.8.3-6.4,0-9.5-1,3.1,24.6,7.8,48.7,13.8,72.3,1.9-3.2,1.7-8-3.9-17.6h0s6.6-48.6,6.6-48.6Z"/>
  <path d="M1179.2,439.4c0,.1,0,.2,0,.3h0s0-.3,0-.3Z"/>
  <path d="M1198.5,653.9c1.6-17.8,2.4-35.9,2.4-54.2,0-55.4-7.6-109.1-21.6-160l-4.7,6.6c-13.2,2.9-16.2-7.5-26.9-10.6,8,8.9,1,8.8-.6,15.7-.8,3.3-3.7,18.6-2.6,20.2l30.5,6.2c9.3,5.6-3.8,20.2-5.6,26.1-.7,2.3-4.4,16-4.6,17.7-3,21.3,7.2,36.6-1.5,56.6-13.6,4.8-20.8,4.7-29.8-6.4l-5.4,10.6,7,1.6-8.6,30.7c7.3,3.5,28.3-2.7,30.6,5.5,2.5,9.1-.8,22.5-10.6,25.6v3.4c11.3,2.3-.4,21.5-1.7,30.1-2.4,15.1,7.9,41.5-14.9,36.5-5.6-1.2-8.9-7.4-18-3.3l4.8,4.1c-1.1,12-12.9,22.2-6.8,34.2l-9.6-.5c-1.3,5.7.9,5.5,5.8,5.2,10-.7,21.6-13.2,31.1-.8.5.7,7.2,14.7,7.6,16,3.2,9.5-13.5-2.5-14.2-2l-2.7,6-12.2,1.6c.8,11.4,14.4,6.1,18.2,13.2,2.8,9.4-5.1,14.6-5,18.2,0,2.6,3.5,6.3,3.8,10.4.2,1.9-1.2,21.2-1.7,23.2-1.4,5.6-14.3,19.1-20.3,17.3-14.2-4.4-1.6-25.6-14.7-26.9.6,6.8-2.3,16.1-1.1,22.3.4,2.2,9,.9,1.7,12-1,1.5-4.1.9-4.8,3.2-1.3,4,.8,10.1-3.2,13.8,15.1-2.9,25,6,39.5,3.5,36.1-66.2,60.1-140,69-218.4l-7.2.2c-3.8-5.6,1.4-10.2,8.6-14.4Z"/>
  <path d="M445.7,1094l4.6,2.7c-3.6-21.6-3.9-42.1,1-63.6l-7.3-1.7c3.2-5.3,9.6-2.9,7.8-11.6-4.7-.9-19.9,1.4-20.6-4.6l2.2-14.4,26.7-2.2c-16.1-13.1-3.6-15.8.3-26.3,3.1-8.3-1.8-14.2,9.2-17.7-10.5-4-1.5-19.3-1.3-26.7.2-6.4-.7-29.4-4-32.7s-5.8,0-5.9-.2l.2-7c-7.3-3.5-4.2,11.2-11.2,9-6.9-2.1-3.7-21.4,0-25.3,8.7-9.2,31.2-2.2,30.1-21.2l9.4,2.9-10.1,9c14.8-3.2,20.5,4.3,33.3,6.5l-6.8-7.5,9.4,2.9,3.1-12.9-7-4.1.7,9.6c-8-7.5-30.5-10.4-32.6-23.2-.4-2.5,3-4.3,2.9-7.3-.9-25.6-6.5-50.1,7.5-74l-29.1,5.7,9.8-4.3-9.4-5.3c.8-15.3,14.6-28,30.1-24.9-2.3-15.2.3-27.9,13.9-36.5-8-5-14.5-24.8-12.3-33.7,1.5-6.1,9.5-20,10.6-26.6.8-5-3-9.5-3.9-14.2-4.1-5.8-29.5,3.6-28.6-10.2,9.8,1.5,16-8.2,25.4-1.4l3.8-5.5-6.7-8.8,8.1,2.9c3.1-10.1,8.8,1.4,13.5-5.6l.6-8.2c-3.9-1.2-1.3,4.1-4.2,4.6-2.2.4-9,.4-10.4-1.8,10-6.5.9-15.2,4.7-25.1,2.3-5.9,9.1-6.5,9.1-7.9,0-3-3.9-6.4-4.4-12-.7-8.7,1.4-32,5.9-39.3,6.1-9.7,17.9-3.2,7-23.8l-2.7,7.1c-12.7-6.8-14,8.3-24.1,2.3-15.8-9.3,13.1-24.8,22.2-12.1-1.6-11,6.5-11.3,12.9-17.4l-13.4-18.7,16.3,10.4c2.4-7-10.9-11.6-11.3-14.3-2.9-16.3,10.1-22,10.5-27.2.8-10.9-6.4-23.5-9.7-33.5l11.3,12.6c5-10,1.5-16-5.9-23.1l17.5-14.7c-14.1-.7-25.9,9.9-38.3-3.3,5.3-17.3,11.2-12,24.2-16.2,15.1-4.8,8.5-9.2,11.9-19.7,10.2-31.5-.7-25.5,0-49.1,0-1.5,5.8-27.9,6.5-29.9,1.3-4,7.6-8.2,7.2-12.2-.6-6.6-19.3,1.3-24.7,0-1.5-.4-1.4-3.3-2.5-4.1-3.9-2.8-9.3.2-5.7-11.6,1.6-5.3,27.7-7.9,32.3-13.1.2-14.6.8-25.8,6.6-39.4l7,2.8c-9.6-10.3-4.6-20.5-6.1-32.2-.6-4.8-5.5-12.2-5.5-12.9.2-2.2,8.2-4.8,7.4-11.4-13.1-6.7-2-9,2.5-17.4,2.1-3.8,3.6-8.1,3.6-12.4-5.6.8-5.6,8.5-8.3,11-9.3,8.2-32.1-2.3-23.8-17.4,4.2-7.6,23.5-6.2,30.9-11.8-4.9-12.1,1.2-18,2.8-26.4.8-3.9,1-9.4,1.3-14.6-32,1.4-63.3,5.3-93.7,11.6-.9,2.3-1.9,4.6-3.1,6.8,10,4.6,12.6-4.3,13.4-4.1,2.8.6,7.1,5.4,8.3,8.6,2.7,7.1,7.4,38.7,7.1,46.4-.2,4.3-3.3,22.5-4.4,27.8-4.9,25.9-30.5,16.8-35.9,26.4l5,21.9-14.5,1.7c.9,9.4,12.2,11.7,15.5,3.1l4.7.4,12.6,13.8-.3,3.4c-17.6,4.9,3.7,24.1,3.2,32.4-.8,12.9-6.5,28.9-11.9,40.7l4.8,4.9-9.5,12.4-24.9,1.6,6.3,6.1-10.2,22.5c5.2.5,30.3,0,31.1,5.6.9,9.5-10.6,23-11.1,30.3-.3,4.8,3.8,12,3.8,19.4s-2.9,32.7-5.2,37.6c-3.2,6.9-12.1,11.7-18.9,6.9-1.8-1.2-6-13.6-11.5-9-1.8,1.5,3.9,9.8,4.1,13.6.4,8.5-7,20.1-2.9,29.8l36.8,11.3.3-5.4c1.4-6.3,13.7,9.1,11.5,10.8-8-.7-20-7.9-26.2,0-3.1,19.9-10.3,43-6,62.2l-.9,17.5-17.8,6.7-5.9-7.7c-.6,10.3-9.3,27.3-15.9,35.4,10.6-1.5,23.1-1.3,27.7,1.3-1.8,7.8-3.5,24.4-3.7,32.7-.3,11.3,5.6,34,4.2,42.2-2.4,13.9-12.6,36-30.4,29.8-2.7-1-.7-11.9-8.1-10.2l-.3,41.8c-4.5,4.9-8.5,7.9-7.4,15.5,10.5-2.9,20.8-13,31.4-4.4-10.2,3.5-12.4,21.3,1.3,20.5l-7.7,7.9c1.1,11-2.7,23.4-2.9,33.6,0,2.9,2.9,6.3,3.1,9.9.5,10.4-6.5,23.4-16.9,26.6h.1c0,0-8.2-6.5-8.2-6.5,0-6.2-5.8-10.2-4.6-15.2,1.4-5.8-2.2-2.5-2.9-.9-4.7,11.9-5.5,24.6-8.4,36.3-.8,3.2-3.8,5.9-4.8,10.1-.8,3.3,4.9,10.5-2.9,9.4l-4.6-3.9c-.7,3.2-1.8,6.4-2.9,9.5,0,0,0,0,0,0,0,0,0,0,0,0,12.4.1,12.2,2.1,20.3,3.3,7.5,1.2,15.2.5,22.7,1.3-.2,4.3-.6,12.2-4.9,14.2-5.6,2.6-41.3,6.7-44,2.5,1.9-7.1,3.3-14.3,5.9-21.3,0,0,0,0,0,0,0,0,0,0,0,0-2.4,0-4.7-.3-7.1-.4,6.6-7.6-.8-12.1-.9-17.5,0-5,4.2-13.9,4.8-19.8,1.5-12.7-1.8-26.1,9.4-36.4-14.9-1-26.6,10.2-38.5-1.1l1.1-12.5,42.4-12.6-5.5-11.1c5.4-11.2,6.2-18.6,20.2-19.5,2.8-8.8-8.7-3-11.5-5.6-4.2-8,.6-16.6.4-22.5-.2-5.6-3.9-20.9-2.9-23.9,1.4-3.9,9.3-.2,7.9-14.3-.9-9-3.3-5.2-6.8-11.1l9.8-4.3-24.7-3.4-3.1-13.3,40.4-13.8.9-3.2c-4.2-6.5-8.7-26.3-4.5-33.5.6-1,1.9-1.9,3.6-2.8-5.5-3.1-8.7-11.3-3.1-18.6l-9-6.7,9.7-.7c-2.2-15.3-3.4-23.6,2-38.3-4.5-.6-26.5.6-26.1-5,8.7-17.2,24-10.1,36.9-19.7-2.7-8.8-11.1-6.9-11.2-17.4-.2-11.6,9-14.6,9.8-18.6,2.9-14.3,1-31.1,5.2-50.6.6-2.7-1.6-6.4-1.1-9.3,1-6.1,11-13.5,17.4-12.4-3.4-7.3-16.3.7-21.1,1-11.2.7-13.1-15.8-11.3-24.2,12.4,6.3,28.8-5.2,37.7-5.3,6.7,0,7.9,8.4,12.9,1.9l-28.5-8.7c1.6-9.7,5.6-28.3,18.3-26.6-2.6-8.3-4.6-19.9-13.5-21.2-.8-10,6-17.3,8.6-26.1,1.4-4.8-.3-11,1.4-16.1,1.5-4.3,8.1-5.3,7.3-10.9-14.7-2-41.6,6.1-37.8-17.6,1.9-11.8,63.1-8.8,38-27.1-1.6-11.2.2-19,12.6-19.5.4-4.5-8.4-9.9-8.7-10.5-.4-1.2.4-20.5.2-24.1,0-2-3.4-4.5-3.5-8,0-7.4,3.4-20.1,5.9-27.3-8.8-.9-31.7.5-30.8-12.4,1.1-17.2,36.4-14.8,39.7-24.9,1.4-4.2-1.6-12.8-1.4-18.8.2-5.4,3.2-10.7,3.1-14.4,0-.6-.1-1.2-.3-1.8-24,5.9-47.4,13.2-70.2,21.9-1.3,5.6-7.3,11.5-7.7,16.7-1.5,18.6,13.8,66.6-11.5,76.4-15.6,6-10.5-5.3-17.2-14-2.4,0-6.3,10.3-6.6,13.1-1.2,11.3,3.5,30-4.5,39.1,9.3,1.5,35-5.3,35.7,8,.4,7.5-7.7,11.1-8.5,18.7-.9,8.9,3.3,22,3.5,29.2.2,8-7.9,11.7-8,16.3,0,3.2,3.9,5.4,3.3,8.7-1.7,8.4-11.4,15.9-18,20.5l-10.3-10.1,6.6,11.1c-12.5,7.7-6.2,24-11.5,36.7,8.1-1.4,23.9-4.2,30.1,1.5,3.8,4.7.7,10,.5,15.3,0,2.6,2.1,5.8,1.9,7.5,0,1.2-14.1,4.9-15.1,18.6-.4,5.3-1,12.2-1.3,16.8l-1.9,37.2c-12.2,3.4-12.8,4.7-22.6-3.6-6.9,5-6.4,10.8-2.1,17.4,1.6,2.4,4.5,1.7,4.7,2,.5.9-9.8,9-4.6,19.2,7.3,2.9,16.5,1.9,24,3.4,3.4.7,4-1.3,3.4,3.8-.9,8.7-8.4,15.1-10.8,23.2l-7.2-1.3c6.4,6.7,9.5,7.9,8.8,18.4-.4,6.4-7.2,31.5-9.9,37.3-4.4,9.3-17.2,6.9-12.3,18-8,1.1-3.7-10.2-14-7.9,0,11.2-3.1,23.4-7.2,33.8-.8,2.1-9.3,10.5-1,9.1,3.5-.6,6.1-4.1,9.7-4.1s12,4.6,18,3.1c-1.3,10.5-.1,22-1.7,32.3-1.5,9.4-6.7,15-8.1,21.4-3.3,14.4,2.4,48.7-22.9,43.7l-3.3,2.9c3.1,11.2-6.8,22.3-9.4,33.2l28.5,7.5c-3.6,5.8-5.2,13.8-8.3,19.5-1.1,2.1-9.1,1.4-3.8,6.4l8.3.4c-4.1,5.3-8.3,8.1-9.6,15.4-1.9,10.6,1.5,18.3,2.6,26.4,3.1,23.6-12.5,21.5-18.3,30.8-3.4,5.5-14.2,37.1-9.1,40.7l14.2-1.4c.4,8.1-3.5,14.2-10.5,17.7l10.2,27.2c-10.1,12,0,34.4-9,44.7-11.7,13.2-18.6,1.7-19.4,2.6l-11.4,34.3c11.3,3.9,38.2-14,38.1,7,0,9-7.5,6.6-9.8,11.7-9.6,21.5,3.8,62.9-11.7,75.7-3.7,3-8.1,4.5-11.7,6.5,27,19.8,55.8,37.3,86,52.4.8-.6,1.6-1.2,2.2-1.9l-6.7-1.8-1.4-21.1c19.5-3.1,3-8.4,1.2-18.8-1.3-7.6,2-17,.7-23-.6-2.7-6.1-2.9-6.7-5.7-1.1-5.7,9.9-32.4,8.6-34.3l-21.8,3.7c-4.9-23.5,12-19.8,18.4-29,4.7-6.7,3.3-17.4,6.3-23.5,2-4,6.4-3.2,6.8-3.8,1.7-2.1-3.6-7.5-4-10.9-2-17.3,1.6-40.6,10-55.9-11.7-1.4-35.3,3.1-32.8-14.8,2.3-16.2,11.8-9.9,18.2-10.6,3.2-.4,6.8-6.3,10.6-8.2,8.4-4.1,18.8-5.1,27.4-1.3l-4.4-7.4,12,.6.8,7.2,9.5-11.1c34,1.1,8.6,49.8,10,70.7l-2.2,2.6c-3.5.6-8.2,2.5-11.5,2.3-6.6-.4-12-11-16.1-5-5.1,7.3,4,30.2-10.3,38l36.3-5.3-3,11.8,7.3,1.6c-1.4,13.7-8.5,26.5-9.5,40.3-1.1,14.5,7.4,22.5-1.3,36.5-7.5,12.3-10.8,7-20,3.4-10.7-4.2-7.9,22.9-10.9,30.4l-7.6,5.9,18.2-3.9c3.9,11.6,8.1,4.9,17.6,5.9,6,4.8-7.7,26.4-7.7,31.8s2.9,4.7,3.2,7.6c.7,6.3,1,12.4.7,18.4,17.8,7,36,13.2,54.6,18.5,1.3-5.5,3.6-10.9,7.5-15.8,3.2-3.8,8-2.9,8.7-6.8v-.3c-10.1-4.5-30,11.3-28.9-5.1.8-11.8,19.2-20.2,21.1-31.4,5.6,7.1,6,9.2,16.4,8l-23-19.2,7.8-12.8Z"/>
  <path d="M204.8,903c2.3-3.2,1.6-7.2,6.2-9.6,10.2-5.3,27.4-5.3,38.6-4.1,2.4-8.4-9.8-2.7-12.7-10.2l8.4-19c-5.1-10.6-5.6-19.8-16.8-26l9.5,1.7c.5-11.6,0-23.2,6.6-33.3l-7-4,12.6-12.6c-13.5-.4-28.5,15.9-34.5-4.3-1.8-6.1-2.7-14.7,3.3-18.9,6.4-2.3,6,5.2,7,5.3,5.9.4,17.1-10.4,27.8-3.5-1.9-5,4.4-10.9,4.6-13,0-1.2-4.8-9.2-5.3-14.9-.8-9,2.4-16.1,2.5-23.3.1-25.8-6.9-52.2,11.9-73.1-5.9-1-10.9,5.5-16.2,5.7-3.6,0-7.5-2.8-11.3-2.4-1.5,0-2.4,7.8-9,4.5l-1.2-17.7c5.6-8.2,17.1-6,24.1-8.9,9.1-3.7,20.8-18.7,32.1-13.8l-.8-7.3-15.9,6.4c-3.5-10,5.1-21.9,5.8-27.7.4-3.3-3.9-5.9-3.9-9.4s4.6-7.5,5.2-11.9c1.2-7.7,3.8-24.3,4-31.2.2-5.7-11.3-6.5-6.6-10.9,1.5-1.4,8.1,6.8,7.2-.8-7-9.5-18.9-5.4-28.5-8.5l-1.7-14.4c4.9-.7,14-6.4,17.2-6.7,4.1-.4,12.3,9,21.9-3.5l-14.1-5.5,7.4-2.1c-7.7-12.9,6.6-22.6,8-28.7,1.4-6.3-3.7-19.9-2.8-28.6.5-5.1,10.3-33.1,9.1-34.4-10.5-5.5-23.3,3.1-30.2-7.5,3.2-21.1,8.2-11.6,16.9-16.1,9.5-4.9,15.5-25.9,6.6-34.5,26.1-2.5,14.3-26.2,14.3-43.8s1.9-32.3,7-42.4c1.3-2.6,5.7,0,4.9-3.8-10.6-6.5-39.3,17.3-35.9-7.9,1.1-8.3,26.7-12.8,30.2-18.1,7.2-11-2.3-30.7,13.7-34.9-16.3-12-5.5-27.4-3.9-43.5.9-8.6-4.6-18.4,2.7-27.5-12.9.2-32-2.2-28-19.1-9.1,5.4-18,11-26.8,16.8,1.2,11.7,1.3,23-6.5,36.9-5.7,10.1-13.9,18.5-25.1,11.4l-9.3,39.2,28.8.3c3.9,10.2-10.8,20.2-10.5,26.7,0,2.7,3.3,6.3,3.7,10.3.5,6.1-1.7,12.8-.4,18.6,1.4,6.2,15.8,15.9,1.2,19,6.5,10.7-17.6,23.4-23.1,21.5-5.3-1.8-8.1-11.4-14.1-3.5,8.3,12.5.4,24.1.4,37.3l26.5-1c-3.4,9.8-5.4,26.8-4.5,37.2.4,4.3,2.6,2.8,4.8,4.8-15.9,19.5,3.9,47.2-19.3,64.9l-12.6-5.3-.7,12-4.6-2.7-8.8,29.6c4,3.5,8-2.7,13.2-2.6,3.9,0,8.7,3.5,13.2,2.8-9.8,15.8-2.5,31.7-4.9,47.8.8.9,31-.7,21.3,5.9l-19-3.4c.1,10.5-5.4,44.5-14.5,48.7-7.4,3.5-10.7-11.8-16.1-14.2,2.6,14.3-2.1,29.5-4.5,43.9l3.6,3.7c7.5,2.8,19.1-2.4,24.5,5.2-6.7,6.4-3.9,16.8-5.9,23.3-.8,2.6-5.8,1.9-7,5.1-3.5,9.3,6.1,21.1,5.5,26.4-.2,1.9-8-.2-5.3,5.8l7.1,2.7-4.9,1.3c-.8,12,1.4,31.5-12.1,36.9-14.9,5.9-19-4.8-21.9,18.8-.5,4.3-.6,8.8-.7,13.1l23.8,7.6c-8.3,20.3-3.6,38.7-5.6,59.6-.4,4.4-3.2,23.1-4.2,25.7-3,7.8-23.3,9.8-24.5,11.4-5.1,6.6-9.3,24.4-10.9,33-1.1,6,10.7,3.2,16.5,5.4,13.3,5,3.1,10.7,1.4,17.2-1.3,5.1,2.1,12.1,1.1,16.6-.9,4.7-4.5,7.9-5,11.9-1.8,14.3,6,33.1-4,48.7-7.4,11.6-13.9,1-20.6,5l-2.3,3.9c16.3,20.3,33.9,39.6,52.7,57.7l.2.3c11.6-.9,22.7-8.4,33.4-5.4-4.9-13.6,5.8-23,6-35.1,0-4.7-4.7-6-5.6-9.8-3.2-12.2,9.4-45.6,9.8-60.3l-31.3.8c.7-4.7-.6-10.9,1.2-15.3,1.1-2.8,5.1-2.9,6.2-4.4Z"/>
  <path d="M212.6,1046s0,0,0,0c0,0,0,0,0,0h-.1Z"/>
  <path d="M202,1048.1c2.8,2.5,5.6,4.9,8.4,7.4,1.7-2.7,2.9-5.6,2.2-9.5-3.6,1.5-7.1,2-10.6,2.1Z"/>
  <path d="M333,63.3h0v-.2c-5.3,2.6-10.5,5.4-15.7,8.2,8.3-3,15.8-5.8,15.8-8Z"/>
  <path d="M471.3,1157.9c-1.7,9.1-5,17.9-4.5,27.1,0,0,0,0,.1,0,0,1.3.2,2.6.5,3.9h-.1c2.9,3.5,4.2.4,4.9-2.7,0,0,0,0,0,0,0-.2,0-.4,0-.6,1.4-8.3.9-15,3.1-24.5h.1c1.1-4.6,0-2.9-4.1-3.2Z"/>
  <path d="M601,37.4l-14.2-3.2,8.9,12.5c-1.5-7.5,3.2-5.2,5.3-9.3Z"/>
  <path d="M473.6,1019.8l14.1,6.7c.7-.5-8.9-16-14.1-6.7Z"/>
  <polygon points="551.8 340.1 565.5 352.8 562.7 342.8 551.8 340.1"/>
  <path d="M587.2,306h0c-9.8.3-11.2,13.7-21.9,6l-.4,7.2c11.7-3.2,15.8-1.4,22.3-13.2Z"/>
  <rect x="501.5" y="748.1" width="9.6" height="4.8" transform="translate(-268.9 1218.2) rotate(-87.1)"/>
  <path d="M589.3,78.8h-.1l.2-3.5c-6-.9-8.3,3.4-7.6,9.2l7.5-5.7Z"/>
  <path d="M233.8,215.6l-19.5,5c2.9,7.8,24-.6,19.5-5Z"/>
  <rect x="1099.2" y="775" width="4.8" height="7.2" transform="translate(268.2 1839.4) rotate(-87.1)"/>
  <path d="M116.9,245.5h-.1c0,0,.1,0,.1,0h0Z"/>
  <path d="M100,269.7l3.7-.7v-2.3h0c0-.1-1.3-.7-1.3-.7-.8,1.2-1.6,2.4-2.5,3.7Z"/>
  <path d="M680,188.3l-3.1,9.2c7.3,1.5,10.8-1.6,10.1-9.1l-7-.2h0Z"/>
  <rect x="689.8" y="215.1" width="9.6" height="4.8" transform="translate(442.2 900.2) rotate(-87.1)"/>
  <polygon points="809.9 274.1 795.3 279.3 806.8 283.3 809.9 274.1"/>
  <path d="M861,813.2h-13.8c14.5,18.9,31.1,11.6,31.7-11.5h-.1c0,0-14-3.3-14-3.3-5.2,8.1,1.9,11.2,1.3,19.3-6.2,2.2-3.8-3.5-5.1-4.5Z"/>
  <path d="M882.5,683.9h0c3.4-10.9,9.9-21.7-8.7-17.2l6.9,5.1c1.4,1.7-8.5,13.9,1.7,12.1Z"/>
  <path d="M870,719.3h0s4.3-14.2,4.3-14.2l-9.8,3.1c8.1,2-.7,6.2,5.5,11.1Z"/>
  <path d="M858.4,687.5c-4,3.6,2.8,11.1,6.8,7.5s-2.8-11.1-6.8-7.5Z"/>
  <rect x="823.9" y="994" width="7.2" height="4.8" transform="translate(-209.5 1772.5) rotate(-87.1)"/>
  <path d="M694.3,1121.3l4,14.6c1.6-4.7,4.9-15.4-4-14.6Z"/>
  <path d="M727.7,892.3l2.1,7.3,4.7.2c1-4.5-2.4-8.1-6.8-7.5Z"/>
  <polygon points="734.6 899.8 734.5 899.8 734.5 899.8 734.6 899.8"/>
  <path d="M421.4,501.2l6.6,3.2c-.8-4.4.9-16.3-6.4-14.7h0c0-.1-.2,11.5-.2,11.5Z"/>
  <polygon points="477.3 105.6 472.6 105.3 472.4 108.9 479.2 115.3 477.3 105.6"/>
  <polygon points="456.2 189.8 465.7 191.4 462.3 186.5 456.2 189.8"/>
  <path d="M1051.1,257.6c-1.5-2.1-10.8-3.3-9.7,3.1,1.2,7.5,13,1.5,9.7-3.1Z"/>
  <polygon points="920.8 267.8 920.8 267.7 920.8 267.7 920.8 267.8"/>
  <path d="M921.2,260.6l-.4,7.1,9.6.5.2-3.5c-2.3-3.9-4.9-4.4-9.4-4.1Z"/>
  <rect x="577.8" y="1156.8" width="14.4" height="2.4" transform="translate(-601.1 1683.7) rotate(-87.1)"/>
  <path d="M1008.6,662.7c-.9-10.6-12.1-2.4-19-4.5-6.3,4.2,17.2,11.2,19,4.5Z"/>
  <path d="M989.9,792.8c-1.1-1.5-17.5,2.8-17.2,8.7,2.2.5,20.9-3.7,17.2-8.7Z"/>
  <path d="M992.3,723.3l-3.7,3.4,2.1,6.1,4.8.2c.8-4.4.5-7-3.1-9.7h0Z"/>
  <path d="M976,876.2l4.8.2c.8-4.4.4-8.3-4.3-9.8l-.5,9.6Z"/>
  <path d="M762.8,586.5h0c.6,7.7-9.3,17.4-2.4,23.9,2.7-4.1,3.9-10.4,4.5-15.3.3-2.6,2-9-2-8.6Z"/>
  <path d="M756,624.5s0,0,0,0h0c0,0,.1,0,.1,0Z"/>
  <path d="M763.6,615.3c-6-.9-8.3,3.4-7.6,9.1l7.4-5.6.2-3.5Z"/>
  <path d="M376,907.8l-14.3-3.1c3.4,7.2,12,16.2,14.3,3.1Z"/>
  <path d="M401.7,595.5l14.3,1.9c.9-3.5-.7-5.2-3.4-7.3h0s-10.9,5.4-10.9,5.4Z"/>
</svg>