<?xml version="1.0" encoding="UTF-8"?>
<svg id="Layer_1" xmlns="http://www.w3.org/2000/svg" version="1.1" viewBox="0 0 1200 1200">
  <!-- Generator: Adobe Illustrator 29.0.0, SVG Export Plug-In . SVG Version: 2.1.0 Build 186)  -->
  <path d="M394.1,29.8c-1.5,1.3.1,3.4,2.3,5.6,1.3-.5,2.6-.9,3.8-1.4-2.3-3.2-4.3-5.7-6.1-4.3h0Z"/>
  <path d="M415.8,28.8c.2,0,.4-.1.6-.2h-.6v.2Z"/>
  <path d="M1145.6,335.6c-2.1-.4-4.5-.2-6.8.2,4.4,9,8.6,18.2,12.6,27.4,3.6-11.6,6.8-24.9-5.9-27.6h.1Z"/>
  <path d="M285.1,1110.8c6.6,4.1,13.2,8,20,11.8,1.5-4.6,3.2-9.1,4.7-13.3-1.3-1.3-15.2,2.1-24.6,1.5h-.1Z"/>
  <polygon points="516 463.8 504.2 460.8 504.5 456.1 516.3 459.1 516 463.9 516 463.8"/>
  <path d="M849.2,61.9c0-.6-1.4-4.2-3.2-8.8-21.5-9.6-43.6-18.1-66.3-25.2l-5.1,10.3c-8.9,6.1-25.4-15.2-24.6,8.8.2,7.2,4.6,10.6-1.7,20.9,9.9-2.6,19-2.7,27.6,3.7,3.1,5-2.5,10.7-2.2,15.5.2,3.4,3.7,5.9,4,8,.3,2.2-7.2,32.9-7.8,42.5-.2,3.5,2.7,7.3,2.4,9.7-.7,5-15.1,6.7-5.4,21-3.7,10.1-17.4,5.3-20.6,7.4-2.5,1.7-8.9,12.5-9,15.5-.2,6.6,10.9,8.8,6.3,15.9,22.4-4.8,36.3,9.3,15.6,26.4,10.5,12.9,4.7,25.8,4.8,40.9,0,5,3.7,7.8,3.7,11.6,0,10.5-9,22.3-19.6,23.6-3.2.4-14.2-7.7-14.5-3.2l-1.6,32.3,22.8-3.8c1.6.3,6.8,14.2,5,16.9-.6.9-4.6.9-5.8,2.4-4.4,5.8,2.8,15.9,2.6,23.1-.2,6.9-4.4,10.5-4.7,14.1-.3,3.7,3.3,9,3.1,14.6-.2,4.7-4.9,23.6-7.6,27.1-9.1,11.6-23.2,1-25.3,7.5-2.5,8,8.6,33.1-12.9,38.8-15.4-6.5-10.7-18.6-11.7-30.6-.3-3.3-3.5-5.9-3.7-8-.4-4.1,6.1-10.3,7.3-16.1,1.6-7.4,4.1-25.1-6-20.6,3.5,9-6.6,8.8-2.4-.1-2.1-1.1-11.3,5.1-15-3.8-1.3-3.2-4.5-15.5-.8-17.5,11.4,2.8,21.7-2.5,31.7-8-7.7-10.3-1.1-16-.9-26.4.3-12-1.6-23.3-.4-35.8,1-10.1,10.6-22-.5-30.1-9.4-.7-23.4,2.2-27.9-9-9.7-24.4,33.6-13.8,39.7-24.3,2.9-10.3-2.8-21.5-4.1-33-1.6-14.3,3.7-27.5-7.8-41l6.9-1.1.8-9.3-19.2-1c4.8-16.9,11.3,0,20.8-6.1l4.7-21.4c-8.8-7.1-23.1,3.1-26.7,2.3-4.8-1-14.9-9-18.4-13.1,3.9-4.8,13.2,9.5,16.5,6.8-10.9-15.1,4.7-23.5,18.3-26.7l.7-7.8,4.3-.4c-10.6-14.7-.6-27.5,6.9-40.4l-9.4-2.9c7.5,2.6,10.7-18.3,10.2-22.1-.5-3.8-7.4-6.7-8.2-10.8-.5-2.8,1.8-6.2,2.3-9.2-19.5-3.8-39.3-6.8-59.4-8.7v.9c.8,14.2,9.2,24.2-6.5,33.4l6.7,8.7c-9.9,4.3-23.5-4.6-29.2,4.4-2.2,3.4-6.6,26.6-6.3,31,.2,3.8-1.3,4,3.3,3.7,8-.5,22.6-7.7,26.5,1.5,1,2.3,2.5,29.1,2.1,32.5-.6,5.5-5.6,10.7-5.2,13.7.3,2.8,4.9,6.3,5.7,10.8,2.8,15.2-1.3,18.5-6.7,29.2-1.2,2.4,1.5,5.9-1.8,8.3-11.4,8-16.2-7.4-24.2,1.2,8.9,6.9.9,11.2.2,16.7-.8,6.5,1.5,15-2.2,22.8,10.2-2,20.1-2.7,26.9,6.8,2.4,6.8-2.5,14-1.9,21.9.5,6,4.7,25,6.1,33.5,1.9,11.7,5.3,22.8,7.4,34.4-16.3,7.9-28.3,12.9-38.3-5.3-4.7,6.6-.7,13.2-1.3,18.1-.4,3-3.6,5.1-3.7,6.8-.5,6.2,1.8,13.8.2,20.5l24.2-3.6c.6,5.5-4.9,17.9-4.9,20.1-.3,10.7,9.4,36.4,8.7,51-1.6,31.4-17.4,20.7-37.7,34.4l-4.2,29.5c5,.9,10.4-3,15.2-1.3.9.3,12.5,13,12.7,13.9.7,3.3-2.9,9.3-3.1,14-.7,14.4,2.7,32,2.5,43.3,0,1.6-7.2,30.1-7.9,31.6-4.3,8.2-10.4,3-14.8,5.1-6.8,3.3-8.8,26.8-16.6,32.2,41.2-3.6,23.2,13.9,25.7,17.8.9,1.3,6.5,1.1,8.4,7.1,1.3,4.1-4.1,18.4-2.7,19.9l19.1,2.2c-29.2-3.7-24,20.7-18.9,41.1l-31.4-.5c-7,4.4,3.8,37.9-17.3,36.7-10-5-11.4-17.4-7.1-27l-9.8,4.3c-.9-7.8,10.9-8.5,12.4-12.9,1.7-4.9-4.6-12.7-3.6-18.9.7-4.3,6.7-7.5,5.5-13-33.7,1.4-38.5-14.8-6-25.3,2.4-.8,5.6,1.4,7.9.9,10.9-2.4,0-7.9-.3-8.5-7.9-14.8.2-14.1,2.3-24.4.5-2.4,2.3-20.8,2.3-23.2,0-14.9-8.1-28.6,4.8-42.8-3.8-6-11.2-3.2-17.2-5-12.3-3.6-16.1-15.4-9.8-26.4,1.7-1.1,20.2,8.5,32.6-3.1,9.5-8.9-1.3-10.7-2.5-16.3-1-4.7,4.1-10,4.5-15.7.6-9.5-6.5-42.1-8.3-54-.6-4.2,1-8.6.2-12.7l-23.1-8.9c0-22.2,8.2-15.6,21.5-20.1,8.4-2.8,12.6-10.6,25.3-6.1-2.8-7.4-13.1-5.3-13.3-14.4,0-7,5.7-8.4,6.5-13.4,1.1-7.3-5.9-34.3-6.2-46.1-.2-8.6.2-18.2,3.1-26.4-.8-6.3-19.6-1.4-25.5-10.6-11.1-17.4,18.9-22.2,30.4-26.3.6-.7-5.7-13.9-5.3-18.3.5-5.3,8.9-12.6,9-14,0-2-7.8-6.3-8.6-12.5-1-7.7,3.5-15.6,3.8-23.7.8-19.5-14.4-41.1-21.2-58.8l29.4-9.4c-12.6-16.5,0-33.3-.6-49,0-1-3.2-18.2-3.5-19.4-1-3.6-6.3-3.5-6.7-5.9-1.5-8.7,11.7-21.5,9.2-32.5-.5-2.4-17.2-3-18.2-13-16.7.4-33.3,1.5-49.6,3.2,1.9,4.2,4.2,9.1,4,15.5-.3,12.2-7,16.3-7.3,17.3-1.3,5.5,3.9,11,.4,17.6-.6,1.1-11.8,11.1-12.7,11.4-5.9,1.9-2.4-14-10.4-8.9,2.9,13.1,2.7,29.4-2.1,41.9l24-3.3c.6,5.8,2.9,11.2,1.3,17.3-1.9,7.5-9.5,8.5-9.8,9.7-2.2,9,6.2,6.8,8.6,9.4,5.5,5.9-1.3,47.2,2.5,58.3-5.5,11.2-18.6,10.7-29.3,7l-1.9,35.9c12.5-2.2,25.3-7.9,35.9,3.1.5,3.4-12,15-12.8,20.8-.3,2.1-1.3,29.2-1.1,30.9.4,5.2,6.2,19.3,7.1,25.4.9,5.9-7.2,21.2-11.4,24.3-3.8,2.7-9.1,1.1-15.1,6.1-6.5,5.4-17.4,21.1-7.3,27.2,8.1,1.1,18.3-2.5,23.6,6.5-17.3,21.3.7,37.6-5.5,59.3-3.1,11-7.2,17.8-19.7,14.9-1.4,6.8,6.5,13.1,6.6,13.9.7,8.2-11.1,18.1-14.2,24.2-1.8,3.4-1.2,9-3.6,14.1-3.3,6.9-15.6,12.7,5.7,7.7v9.2c16.4,10,4.6-6.7,7.2-8.8,4.6.3,18-.7,19,4.6.9,4.6-4.3,7.2-4.5,9.4,0,1.6,2.2,2.8,2.4,3.7,2,7.6-14.8,4.5-13-3-12.2,6.7-.8,6.5,2,10.8,1.6,2.5,6.1,12.5,6.3,15.1.2,2.6-3.5,32.1-4.3,35.5-1.7,7.1-10.6,18.4-18.4,12.6l-3.9,3.1c6.6,6.3.9,21.5-6.6,30.2,46.4-14.1,18.2,40.3-13.5,24.7-.5-4.8,2-13.1,5.6-18.6-1,.4-2,.5-3,.3-5.3-.8-8.6-10.5-12-14.3l6.9-51c-18.6-4.6-44,6.3-32.5-24.7l31.3-4.5c2.6-13.3-.2-27.2,11.7-36.4.7-1.4-3.9-.8-5.3-4.4-1.3-3.3-9.7-28.7-9.7-30.3,0-6.8,14.1-21.6,8.8-34-9.9-1.8-19.7-4.3-29.6-6.5-3.3-.8-7.2,1.9-5.9-3.9,3.7-16,35.1-25,49.5-27.5-9.8-8.9-3.8-12.1-4.3-20-.9-12.9-11.5-30.7-9-46.7.7-4.7,6.8-7.6,9.1-12.7,1.3-2.8,5.4-20.6,4.7-21.4-11.3,1.5-43.1-1.7-42.4-17.8.3-8.6,11.2-4.3,15.8-5.4,10.6-2.6,21.2-7.4,33-7.8l-11.6-9.5c-1.5-11.6,6.1-18.6,11.2-27.7-4.4-2.2-12.9-11-13.3-15.6-.2-2.8,3.4-4.7,3.7-6.6.5-3.1-3-8.1-3-12.4,0-12.8-.5-23.2,6.4-34.3-11.5-4.1-20.5-8.9-33.3-6.6-3.3-22,22.9-17.2,35.6-22.7,6.5-2.8,2.1-9.4,18.6-3.4-1.8-5.3-12.1-4.9-13.5-12-1.2-6.2,6.9-11.4,7.2-17.9.5-11.6-9.5-21.8-11-29.9-1.4-8,5.8-44.3,3.6-46.7-10.7,4.3-19.9-3.2-20.2-10.4-14.5,3.3-28.8,7.1-43,11.4.8,1.4,1.7,2.9,2.8,4.3l-11.3-1.7c-.2,0-.4,0-.6.2l-.9,11.3c-6.2,5.9-10.9-.9-14.6-6.1-1.3.5-2.6.9-3.8,1.4,2.5,2.6,5.6,5.2,5.4,6.8,20.1,8.1,10.4,16.8,4.2,31.1-26.8-8.7-22.1,13.4-22.9,32.7,6,3.1,35.8,2.7,35.5,7.9-8.1,8.9-8.4,35.8-7.1,47.6.5,4.8,4.7,7.5,4.2,14.8-.4,7.3-4.8,9.6-5.3,12.2-.7,3.6,7.4,7.8,1.3,16-6.3,8.4-24.6-1.6-26.6.3,1.5,8.6-6.1,23.7-6.3,29.9-.5,11.7,25.6,2.1,30.6,11-17.2,16.5-5.1,42.6-11.3,60.9-2.1,6.1-14.1,8.7-16.6,15.7l7,2.8c-.2-7.6,4.9-11.3,11.6-13.3,15.3,12.4,4.1,24.7-7.1,34.9l-17.3-5.4c.3,5.7-7.3,16.3-7.4,20,0,3.9,6,9.9,1,16.7l1.8,2.8c6.9,4.5,16-.8,22.4.3,15.7,2.9,4.6,20,4.8,29.8.4,22.7.4,28-4.1,50.6-.7,3.4,2.4,7.7.9,10.1-3.1,5-20.5,7.1-26.4,3.8.1,8.6-8.3,25.3-1.7,32.4l23.8,7.2c-4.2,8.1-1,23.1-8.6,24.8l10.5,24.1c-6.9,7-9.7,51.2-22.1,48.4l-13-10.1c-1,6.2,6.1,7.5,6.6,13.7.5,6.6-5.4,15.6-3.5,23.4l-10,4.6,27.1,12.1c-6.2,15.2-1.8,9.2.5,13.7,2.4,4.9,1.2,41.1-.2,47.5-1.1,5.4-9.3,16-14.5,17.1-7.4,1.5-10.8-8.2-12.8,5.9-1.2,8.2.9,16.8-.4,25,36.6,5.6,14.2,14.5-.3,31.1l14.6-4c-8.2,10.9,4.9,15.4,5.4,26,0,2.5-.4,18.8-.6,20.9-.5,4.5-5.3,8.1-5.3,11.9s4.6,6.6,4.1,9.5c-.9,4.7-23.5,13.7-28.8,26.5-.5,1.3,6.4,15,0,21.6l31.1,5.4c-2.3,4.2-.2,12.9-1.4,16-1.4,3.5-5.9,5.1-6.6,7.7-2.9,11.9,2.1,36.3,2.7,49,.6,11.4,2.8,22.3-12.8,20-7.1-1-6.1-9.8-12.7-9.1,3.9,7.1-3,10.9-3.6,17.9-.6,7.2,6.6,20.6,3.5,30.2l4.8-.9-2-6.1c14.5-1.9,8.9,7,9.6,7.4,1.4,1,5.3-.8,6.8,2.2,5.2,9.7-2.7,13.7-3.3,18.6-.5,4.1,3.9,11.1,3.9,17.2s-3.1,12.4-3.7,18.9c-.5,5.5,2.9,10.8,1.3,16.3-2.5,8.5-14.7,14-21,19.4,27.2,13.3,55.5,24.7,84.8,33.9,2-2.4,4.3-4.5,6.3-5.8,2.1-6.2-5.9-2.7-7-3.9,5.8-9.1-2.3-21.9-.2-30.5,1.4-5.6,6.2-6.4,7.2-11.3,1.4-6.5-2.7-15.2,1.1-22.6-9.9-1-31.4,2.2-30.8-12.3.9-20.3,30.8-11.2,44-11-2.7-11.1,6.6-8.2,8-16.4-12.5-4.6-10,11-22,8.4l10.2-12.7-9.6.7c-2.1-7.3,4.1-6.2,5.1-8.7,8.9-22.6.9-19.3-.5-35.4-1.5-16.2,12.2-37.9-2.3-45.9l5-3.3-37.6-2.5-5.3-3.4c4.2-20.3,13-12,25.4-14.8,4.9-1.1,25.2-7.5,26.4-11.4l-9.4-4.1c3.3-5.5,9.7-13.9,10.6-20.1,1-6.7-3.4-13.3-3.8-21.4-.8-16.1,3.8-33.4,7.4-49-80.7,4.4-23.9-55.8,19.3-25.5.7-3.5,6.3-8.5,7-10.3,5.1-13.7-14.4-14-16-16.9-1.6-2.7,1.3-14.7.6-20-1.1-8.6-7.1-9.6-6-24.5.2-2.7,4.4-25.3,5.2-27.1,4.4-10.6,18.1-10.3,21.5-20.7-5.5-2.7-13.6,6.5-15.9,6.4l-41.9-2.2.8-14.4c20.3,4,36.8-13.6,55.6-6.8l.5-9.6c33,.4,20.6,12.5,17.9,31.2-3.1,21.3,4.5,28.7-18.7,40-.8,10.5-.8,18.9-6.6,28.1,3.7,5.7,10.9,4,16.6,4.5l-4.3-11c.9-7,16.8,11,18.2,13.2,1.2,8.2-21.2,13.9-2.9,15.2-8.5,14.9,2.5,41.6-1.9,55.3-1.2,3.9-8.6,8.5-9.8,11.3-1.5,3.7,2.8,15-10.6,13.9-3.9-.3-5.8-6.1-8.1-4l-.3,30,24.3,17.1c1.1,4.2-6.6,13.5-7,19.6-.3,5.1,5,19.3,4.4,27.8-1.4,20.2-12,29.7-24.8,43.4l-2.1-5-7.6,4.5c7.8,11.4-8.8,16.1-2.1,28.3l23.2,7.6c-7.4,7.4-8.4,13.5-8.5,23.7,0,13,2.3,24.4,6.7,35.2,4,9.7-4.5,12.2-6.4,18.2-2.1,6.5.2,13.5-2.6,19.9-6,6-14.1-3.3-19.4,1.2-8.6,7.3-2.6,20.8-10,29.6,8.8,6.9,27.7-8.9,32.4,2.9-1.2,5,.3,12.9-.8,16.9-.3,1.2-.9,2-1.5,2.6,19.6,4.4,39.6,7.9,59.9,10.4,2.1-.5,4.2-1.3,5.9-2.6,10.6-7.7-.8-10.3-1.9-12.2-5.9-10.2,6.5-20.4,6.4-25,0-1.7-5.8-9.4-6.6-15.6-.5-3.4,0-34.2.4-37.6.9-6.6,5-9.4,5.7-15.3-42.3-1.2-26.5-30,4.1-33.5l-1.5-4.9-5.4-.3c-.7-.7,3.4-16.5,4.7-18.9,1.8-3.2,7.5-5.2,8.3-8.4.7-2.9-3-9.9-3.4-14.5-.7-6.9,4.3-18.7-4-18.1l.2-4.8c15.1,2.1,9.8-20.7,13.6-30.5-39.9-2.2-12.7-29.1,11.2-30.7-12-14.1,1.2-27.2-1.1-41.7-1.4-8.7-6.8-16.2-7-27.4,0-7,3.8-18,3.6-25.6-11.2-2.6-8.5-10.9-9.2-11.7-2.1-2.4-18.7,9.3-16.5-9.3,1.9-16.2,12.6-6.8,20.3-7.8,12.4-1.6,16.4-18,31.4-12.3,2.2-9.3-8.1-2.6-13.2-2.9-5.7-.4-9.8-3.3-10.3-9.2-2-24.2,49.4-28.4,63.2-13.5-1.4,5.2-11.5,13.6-12.4,16.7-1.4,4.8,1.6,33.9.9,42.8-1.5,19.1-2.7,28.6-24.7,24.2l-3,1.9c-4.3,14.9-4.2,28-3.3,43.2,1.3,1.6,35.5-16.6,13.5,16.4,11,4.3,2.3,23.4,1.8,28.9,0,1.4,3.9,6.8,4.1,11.4.4,7.7.4,30.5-4,35.3-13,14.4-20.6-2.2-27.3,1.5-19.3,44.5-4.9,30.2,23,36.9,13.6,3.2-.8,17.9-1.7,25.4-1.5,12.4,1.4,32.3,1.2,45.4-.2,10.8-6.9,20,1.2,32.5-12.6,6.6-20.5,1-33.3,1.1l-14,31.3,38.3,3.2c-1.5,14.5-13.6,17.1-10.8,33.7.4,2.3.8,4.4,1.2,6.2,7.9.3,15.8.5,23.7.5h3.5v-1.8c1.7-12.2,28.5-10.5,38.4-23.7,4.9-6.6-.7-20.3,11.7-21.1-8.8-10.3-9.4-33.4-6.6-46.6,1.2-5.6,10.5-22.1,9.2-25.4-3.8-9.8-54.7-2.8-38.7-22.5,6-7.4,27.3-8.6,35.8-13.5l1-7-6.6-4.3,13.5-25.5c-4.1-2.1-9.9-11.5-10.7-15.7-.6-3.3-1.9-25-1.7-28.5.6-8.5,10.6-11,10.8-19.7-39.6-13-23.4-35.2,9.3-40.5-5.6-11.3-1-18-.8-27.5.3-14.7-.6-32.9,2.5-47.9,1.6-7.8,9.7-13.5,8.2-22.5-1.4-1.5-28.1,6.1-28.2-9.7,0-15.5,17.2-15.7,27.3-20.4l-7.1-1.6c3.1-5.8.8-14.5,2.1-19.2,1.4-4.8,6.9-8.3,7.1-15.2,0-4.8-5.2-16.3-5.8-24.6-.5-7.5.7-15,.9-22.5l9.1,10.1c1.2-10.8,1.6-26-10.3-30.7-4.3-1.7-23.4-2.3-21.2-10.5l31.1-18.9c4.2-4.7-3.4-9.2-2.7-12.9,2.9-15.4,28.9-8.5,29.2-13.4-39.1-10-12-41-15.5-67.8-12.3-5.3-41.1,1-32.8-23.4,1.8-5.2,41.6-8.2,48.8-11-1.1-4.3-7.7-1.9-13.1-5.3-3.3-2.1-9.9-10.7-7.2-14.6,8.8.4,8.7-10.2,10.2-11.4,2-1.6,12.8,1.2,17.2.5,1.2-.2,5.5-8.7,11.6-6.7l-2.2-4.8c28.6-1.1,15.9,27.9,15.7,45.3,0,1.9,3,6.3,3.2,12,.3,15.9-7.5,26.2,1.8,41.2-8.3,10.1-20.9,11.6-30.6,2-5.9,8,1.1,12.9.9,17.6-.2,5.5-6.7,13.8-5.3,20.6,2.9,3.2,24.5-11.1,29.4,4.6,1.3,4.3-4.4,12-4.5,19.6,0,6,3.2,9.6,3.3,12.1.4,12-1,38.3-4.3,49.8s-16.8,13.2-26.3,7.5l-4.3,35.8c.8,1.1,20.6-6.9,25.2,3.7.7,1.6-5.5,26.4-12.2,23.4-1.1,3.4,3.5,2.6,5.8,4.9,7.6,7.7-1.1,25.9,2.9,36.3,3.3,8.4,12.6-1.8,10.4,7.7-10.9-2.7-15.9,16.6-22.6,19.3-5.6,2.3-12.8-1-16.4.8-5.8,2.9-12.8,23.7-4.4,29.4,8.2,5.6,22.1-10,25.8,6.6,1.6,7.5-5.1,11.1-5.2,16,0,3.3,3.8,6.3,4.1,9.9,1,13,.4,44.5-4,56.2-1.7,4.5-14,21.4-17.2,22.7-1.1.5-4.6-3-9.1-1.4-10.3,3.8-6.6,14.4-5.9,22.5,23.2.5,31.7,1.6,23.8,25.4-7.4,22.4-5.2,28.6-3.8,51.3.9,14.1-9.3,27.3,2.8,36.3-8.6,4.2-20,10.1-27.8,2.7l-2.5,1.5-9.9,29.7c8.2,5.8,23.7-3.4,30.2,2.5,5,4.6,2.5,25.2,1.8,32.9-.3,3.1-.7,7-1.1,11.2,9.4-1.5,18.8-3.3,28-5.2-.3-1.2-.4-2.7,0-4.3l-1.4.5c2.4-16.5,29.5-6.2,36.3-20.5-12.3-15.2-.6-20.7-.3-33.2.2-9.2-5.8-21.9-4.7-33.6,1.1-12.4,7.9-25.8,13-37-6,8.8-33.9,8.6-38.7,1.9-5.2-8,1.5-16.1,5.3-22.9l37.1-2.8c2.2-6.4-4-4.3-6.3-9-3.2-6.4-3-17.9,0-24.4,1.5-3.1,6-1.6,6.1-6,0-11.8-3.2-26.1-3.3-36.4,0-9.5,4.2-21.3,1.8-32.3-11.2,4.8-16.5-2.5-27-3.8l-1.4-6,4.6-2,.7-9.8c5.6-1.2,10.6-.5,16.4-2.1,9.2-2.6,10.3-9.6,18-11.7-7.4-12.3-11.8-25.1,4-32.1-6.4-9.8-7.8-34.7-6.1-46.1,1.3-9.2,20.2-19.8-10.5-16.4l-13.3-11.1c1.6-23.8,41.5-14.6,42.1-21.9-2.1-6.8-3.9-5.3-9.3-7.8-2.7-8.8,6.9-20.5,7.6-26,.8-5.9-6.2-13.9-6.4-19.4-.3-7.8,5.1-15.4,6.1-21.3,1.1-6.5-1.9-17.1,2.4-25.2-6.4.3-29-2.1-29.8-9.8l2.4-15.5,36.5-11.5c-15.7-10.5,0-25.3-.5-33.4,0-1.6-4-1.8-4.8-3.4-4.4-8.4,3.8-48.6,7.6-59-1.1-5.4-24.3-6.6-30.2-8.1-13.6-22,41.6-22.3,41.8-25.2l-14.2-8.2c2.7-5.5,2.2-13.1,4.1-18.2,1.3-3.5,6.4-5.8,6.5-7.4,0-.9-3.7-4.8-3.9-9.7-.4-11.3-.3-24.5-.2-35.9,0-2.9,3.1-6.6,2.9-9.4-.2-2.4-11.8-5.1-9.2-11.6l12.2-4.2c-22.7,1.1-40.8,8.1-34.8-23.4,5.5,3.3,28.1-4.8,32.6-8.2,13.1-9.6,1.6-18.1,2.6-27.2.6-5.7,5.8-8.6,5.9-13.9,0-5.3-5.8-11-5.6-14.9.3-5,9.1-23,7.2-30.5-4.3-16.7-17,3.9-20.5-14.2l-8.1-.7v-21.7c10.9,4,16-4.9,22.1-7.1,8.6-3.1,19.2-2,26.8-10.8-14.5-1.4-15.4-11-13.2-23.5l9.7-.7c-9-2.3-1.6-5.5-2.4-8.2-.2-.6-7.4-2.9-8.2-9.7-.4-3.8,2.5-7.1,1.9-10.7-.4-2.9-4.1-5-3.9-10.3.2-8.1,6.2-20.2,4.1-29.9-13.2,4.3-23.9,0-35.8-5.4l-1-20.2c9-2.2,36.4-9.7,41.7-16.1,2.8-3.4-1.1-10.6,1-16.4,1.2-3.4,6.4-5.3,7-7.7Z"/>
  <path d="M531,265.2c5.5-.6,9.9,2.7,11.6,7.8-1.7,1.3-13.9-6.8-11.6-7.8Z"/>
  <path d="M670.8,116.1c-1.5,1.3-15.6-7.1-11.5-10.2,2-1.5,13.8,5.1,11.5,10.2Z"/>
  <polygon points="715.3 1120.5 708.1 1120.1 708.3 1115.3 715.5 1115.7 715.3 1120.5"/>
  <path d="M77.6,868.5c2.5-5.5,10-8.6,9.8-15.8l-29.7,1c-5.8-5.7-9.5-21.4-.2-25.5l38.5-1.6c1.1-4.6-5.5-1.3-6.9-2.9-.9-1,.7-7,0-10.1-1.1-3.9-6-5.6-6.2-10.5-.7-11.8,12.4-17.4,13.1-23.1,1.2-11.2-3.9-33.3-9.3-43.6l17.5-17.4c-14.7-3.1-29.4,3.9-43.1-2.3,4.1-20.4,29.8-22,47-26.5l5.8-32.1c-16-11.8-12.7-16.7-14.4-34.1,11.3-3.9,7.3-13.4,8.7-23.5-11.2-9.1-42.7-5.9-38.7-26.4,1.2-6.3,24.6-13.9,29.9-13.9s15.9,7.9,20.4-1.4c-20.2-2.1-7-23.5-8.4-32.4-2.1-13.1-8.6-27.9-8.5-44.8,0-4.8,6-14.3,2.8-22.1-12.4.3-40.2-1.9-29.9-19.2,8-13.5,31.8-6.4,33.4-12.9-.7-7.6-2.7-19.1-2.1-26.3,1-13.1,1.3-10.6.6-24.4-.6-12.4,1.7-36.2,7.6-47,2.4-4.5,11.6-10.2,12.1-12,3.2-11.9-9.5-.3-11.3.2-9.9,2.4-21.2-2-30.2-5.7-6.5-15.7,30.1-13.6,32.9-20.4-5-11.2-1.6-20.5,6.6-29.4,2.7-2.9,7.6-1.8,7.5-5.5-5.5,1.5-11.1-6.1-14.8-13.6-35.4,47.7-63.8,100.8-83.9,157.9l4.4,3.4c-8.9,9.3-4.1,19.9-4.3,30.4,0,4.6-2.6,10.5-2,14.4,1.2,8.6,10.8,27.3,8.6,37.2-7.8,12.1-17.5,4.7-28,2.1l-4.6,43,28.3,4.2c.8,1.5.2,14.8-.6,17.2-.5,1.8-4.8,1.3-5,2.7-.9,7.6,7.2,19.5,8.8,26.2,5.3,22.4,3.1,67.8-30.9,53.2l-2.5,2-1.5,26.5,29.9,6.2c.7,7-11.4,10.7-12.4,15.3-.9,3.8,7.1,15.1,8.2,19.5,1.6,6.6.9,33.4-1.2,39.4-1.9,5.5-8.6,7.4-8.4,7.9,5.1,12.4,8.7-6.3,14.5-1.6-1,6.3-5.6,14.7-9.6,22.9,12.8,42.4,30.1,82.8,51.4,120.6-.6-10.6-.7-22.1.9-25.4h-.5Z"/>
  <path d="M161.5,221.9l-11.2-7.5c-11.5,6.7.1,9-.3,17.5-.4,6.6-6.6,17-7.8,24.1,10.3.3,31.6-8.4,32.6,9.2.7,13.7-11.3,11.6-12,12.3-5.1,4.9,10.5,15.5,10.9,18.9l-9.4,11.2c10,13.7,0,36.3-16.9,36.4l-4.4-7.4,6.3,18.3-7.5,2.1v30.2c11.6,4.3,31.1,1.2,26,18.5-1.3,4.5-6.3,9.1-6.8,12.7-.6,4.2,4.1,9.9,4.6,15.1.6,7.1.7,23.7-.1,30.5-1.9,15.1-13.7,30-30,23.7-3.8,7.2-6.5,30.3.4,34.7,3.2,2.1,16.7,2.9,22.8,4.7,2.6.8,7.6-1.4,5.7,3.9-.4,1.2-13.9,6.1-14.8,14.1-.4,3.7,7.2,10.1,1.1,17.7l7.2,1.6c-2.6,10.8-1.5,16.8-10.9,24.6l7,2.8,5.2-6.9c-4.7,8.7.7,19.4-1.4,27.1-.4,1.6-3.6,1.5-4,2.3-1.9,4-1.5,9.9-6.3,12.2-7.7,3.6-12.7-12.1-21.5,1.5-5.5,8.5.2,19.8-1.7,29.6,6.1,3.3,30-1.1,30.9,5.3.5,3.3-14.1,20.8-8.3,31.5.7,1.2,5.1,1.5,6,4.7,2.4,8.1-5.6,37.6-11.4,44.2-3.5,4-18.3,9.3-19.4,10.9-2.4,3.7-3.6,25.1-9.4,31.4l19,4.6c.2,9.9-1.8,20.2-1.7,30.1,0,5.1,4.1,8.5,3.8,11.7-.3,3.7-5,8.5-5.1,12,0,1.5,4.5.4,4.9,5,.4,5.2-.6,23.9-2.2,28.4-1.4,4.2-11.8,16.9-16.8,10.5l-9.1,35.5,33.5-.5c6.2,13-5.1,19.7-5.8,27.1-.9,9.6,4,24.3,4.4,32.5,18.1,21.9,37.8,42.5,58.8,61.6-1.1-9.8,3.6-14.6,4.1-21.2.7-9.6-2.4-24.6,1.3-34.6,2.2-5.9,5.8-2.5,6.4-6.7-5.9-1.2-14.8.7-20.1-1.4-4.6-1.9-1.1-11.3-14.2-5.4l-3.3-9.6c20.9,8.2,24.4-6.5,42.4-12.1l1.7-4.8c-17.2-5.3-8.7-15.5-9.2-27-.3-7.9-5-16.3-6.9-23.7-1.4-5.4,3.3-13.5-4.7-12.9-1-1.5,10.7-8.7,7.8-11.6-6.3-6.2-14.2,11-21.9,6.1.9-8.4,11.1-7.1,17.5-12.2,6.8-5.4,7.2-12.2,8.1-20.1-15.9,5.8-26.1-8.3-15.5-21.1,4.8-5.9,19.9-2.8,26.7-8.5-3.7-12.2-15.9-24.7-5.4-36.4l-4.7-2.5,9.7-1.9c-12.1-21.1-14.4-38.1-6.5-61.6-13.8,1.1-33-1.3-22.7-18.9,8.9-15.2,25.3-7.9,38.9-15.2-14.9-7.4-3.1-24.1-6.4-31.8-1.3-3-6-3-6.3-5.3-.9-10.4,2.5-42.6,4.1-54.8.4-2.8,5.5-4,4.1-8.1-6.9,5.1-29,3.2-32.2-4v-11.6c7.5-7.7,23.4-1.2,28.8-7.2,6.7-7.5-.6-13.4-.9-20.5-.5-13.3,17.1-9.8,24-12.1,11.4-3.7,18.9-11.7,32.4-9.4,8.1,2.2-6.1,34.3-5.5,41.7l4.9,3.2c-8.4,18.2,3.3,33.6-.3,52.2-5.6,7.3-24.1,2.4-27,6-2.2,6.7-2.9,16.3-3.6,24-.8,9.6,16-5.4,21.7,0-.3,2.7-1.9,5.1-1.9,7.9,0,23.9,1.1,46.9-3.8,70.2-1.1,5.3,5.1,13.4-5.5,17.1l-15.2-4.2c-6.2,3.9-7.2,28.7-4.4,36.1,6.4,3.8,15-.7,17.1.8,2.3,1.5,5.1,11.2,11.4,13-11.2,16.3-2.9,26.2-2.2,40.4.7,12.7-3.1,20.6-2.1,36,.7,12,.8,22.2-14.2,22.3-7.8,0-8.9-4.8-15.3-5.8,6.5,17.8-3.4,25.3-9.3,40.3,20.4-7.1,26.3,6.6,42.6,11.9-9.1,10.4-6.7,14.5-5,25,1.4,9-2,11.1,10.1,17.3l-5.6,13.8,4.7,3-.2,4.7c-8.3,3.7-10.7,15.1-18.1,20.6-4.9,3.6-21.4,6.8-22,9v24.9l21.8,14.3c-12.3,10-2,11.7-.9,21.8v1.3c10,7.3,20.3,14.4,30.8,21.1.1-4.7,2.2-15.5,3.1-16.7,2.2-3,30.2-11.7,36.2-11.8-18.2-5.2-2.9-14.6-8-27,5.6-.8-.5-20.8-1.6-30.6-.8-7.3-5.1-12.2-.8-21l-9.6-.5c8.9-6.5,13.3-13.2,18-23.1l-19.9-3.3c-5.2-3.7-4-16.6,0-21.2l13.7-2.5c1.8-8.6-.3-18.2,2.1-26.8,1.7-5.8,8.6-9.6,8.9-12,.3-2.2-3.1-9.6-3.3-14.6-.5-14.9,1.7-29.5,2.3-44.4l-12.2,4.2c-1.7-6.4,7.1-6.3,7.6-6.9.4-.7-8-9-1.7-14.4-7.9,1.9-13.5,2.6-18.9-4.6,5.3-2.3,11.2-13.2,14.5-15,5.4-3,10.5,1.4,12.2.5,2-1.1,5.8-11.7,15.3-8.5-1.7-6.1-11-6.8-14-11.3-8.9-13.6,10.1-25.8,9.3-33.1-.2-1.8-5.2-2.6-6.9-5.5-8.1-13.8,5.5-29.5,1.7-45.1-2.2-7.7-26.1-5.2-25-20.9.5-7.7,11.7-7.9,17.3-11.2,6.9-4.1,9.1-11.5,19.9-10.9.1-2.2-8.6,2.9-8-12.8.5-13.7.3-30,1.1-42.8.3-5.6,8.1-30.6,6.6-32.1l-26.2.8c-9-28.2,12.6-23.4,30.2-33.2,1.7-5.1-6-10.7-6.3-17.1-.5-11.5,8.3-36.3,7.2-47.3-.6-5.6-8.2-16-8-22.7.2-6.3,10.6-7.6,9.9-14.6l-24-2.3c-9.8-18.1,6.2-33,23.3-29-2.6-1.9-8.7-11.3-9.6-11.9-3.8-2.6-10.9,2.2-8.8-5.8,11,3.4,17.8-11.9,25-19.2l-8.9-9.8,14.7-54.7c-2.1-3-6.7,6.1-9.8,3.1-4.9-4.9,8.6-3.6,5.3-9.3-12.2,2.1-27.2-7.7-22.7-21.2,2.2-6.4,16.5-2.3,12.6-15.3,7.3,2.3,10.6,6.8,19,7.4,14.9,1.1-11-12.6-12.6-16.5-1.5-3.7,4.6-11.9,4.5-15.3,0-2.2-11.3-4.4-5.7-8.9l12.8,7.8c-4.5-16.6,6.1-33.2,3.6-50.5-4.1-28.3-17.4-15.5-30.8-26.7-7.2-6-7.1-14.4-6.1-23.1l16.7.6.5-7c4.8,1.4,10.1,8,14.3,1.9,1.1-4.3-7.3-6.5-6.5-14.5.8-7.2,10.1-14,10.5-18.9.4-4.6-5-10.2-5.8-15.3-2.1-12.9,3.6-25.5,5.9-37.9.2-1.3.2-2.5.2-3.8-32.7,14.2-64,31.2-93.4,50.8l-.8,12.1c11.2.6,21.9-3.1,31.1,5.6,1.4,7.7-5.5,13.6-5.4,18.2.1,3.7,4.3,9.7,4.5,15.9.5,12.7-5.4,28.8-1.9,42.4-5.9,21.5-37.6,12.5-37.9,34,0,3.6,5,21.9,7.2,24.3,6,6.6,17.7-.7,23.7,8.9-3.1,10.5-5.9,11.4-1.3,22.4l-7.4,3.2c12.2,7.5,14.6,41.8,9.8,53.9-4,10.1-9.4,12.6-19.5,7.4-6.2-3.1-5-8.4-9.6-10.7l-14.6,49.7c15.4-.7,30.9-.7,45.4,4.8-15,11.5-5,19.5-4,29.9.8,9.7,1.6,39.3-.9,47.4-3.6,12.2-19.8,12.3-26.8,2.7-1.7,5.7-12.5,14.4-13.7,17.8-1.8,5.2,3.6,34.9-10.5,32.9-11.3-1.6-7.5-9.6-9-13.9-6.5-18.6-9.6-31.2-.9-50.6-12.5-4.1-27.8-8-32.6-22.1.7-14.6,42.9-.8,51.4-16.6.7-1.5-5.7-1.6-8.2-4-7.9-7.7-2.7-34.4-3.7-46.9-.3-3.8-3.7-6.9-4.1-12.2-1.2-13.6,6.8-25.4,2.3-38.3-13.7-3.6-26.6.6-28.2-18.2,12.1-14.2,29.8-3,41.8-17.3-19-10.4-2-19-1.2-28.8.7-7.8.7-32.9-.3-40.8-.8-6.4-5.2-13.5-5.4-17.6-.1-3.7,2.9-7.7,2.5-11.2-.4-3-29.4-18.8-17.4-30.9l16.6-5.6-16.1-14,25.9,10.9c.7-8.4-3.6-19-1-27.2.9-2.7,6.8-2.7,7.5-5,.2-.6-.2-1.8-.9-3.2-30.7,21.7-59.3,46.2-85.3,73.1l-.6,31.3-6.9,8,.5-.4Z"/>
  <path d="M301.4,664.3l16.6,3.2c-5-.8-18.9,6.6-16.6-3.2Z"/>
  <path d="M294.2,851.4h2.3c0,0-.5,9.7-.5,9.7l-4.8-.2,2.9-9.4h.1Z"/>
  <path d="M1147.7,841c0,.9.3,1.9.5,3.1,1.1-2.4,2.1-4.8,3.2-7.2-2,.8-3.9,1.2-3.7,4.2h0Z"/>
  <path d="M1167.9,510c-5.7,4.7-7.4,22.9-7,30.2l26.5-1c-1.8,10.6-6,21.2-6.4,32.1-.6,14.2,3.3,37.1,1.9,50.7-1.7,16.4-37.5,27-33.5,49.8,9.7.4,20.6-5.1,28.8,3,0,8.2-10.2,19.4-10.6,26-.2,3.1,3.2,5.3,3.2,8.8s-6.7,50.2-8,54.4c-2.5,8.3-21.2,26.1-26,37.1-7.1,16.4,9.3,15.9,21.8,17.8-.4.9-.7,1.9-.9,3,27.3-68.6,42.4-143.5,42.4-221.9s-3.2-71.5-9.3-105.8c-.4,1.8-1,3.5-1.8,4.9-4.1,7.9-17.6,8.1-21,10.9h0Z"/>
  <path d="M866.7,1120l7.5-4.5c-13.8-9.6-8.5-19.5-10.9-31.2-2-9.4-11.3-16.4-2.7-30.7-20.1-4-47.6-39.5-17.9-49l-4.9,26.1,44-14.6c2.2-7.3-5.4-9.6-6.4-16.1-1.6-9.9,5.1-7.8,5.4-9.5,1.2-6.5-4.5-22-5.1-29.1-.3-4.6,3.6-9.3,2-15.9-.3-1.4-10.2-24.4-11-25.6-4.3-6.8-21.2-12.4-12-27.5,10.2,2.6,29.1-3.5,31.7-14.4.9-4-.3-27.6-.8-33.5-.3-4.3-3.5-8-3.8-12.5-1.2-18.1-2-36.7,4.9-53.6-29.5-3.8-19.4-27.2,4-31.1l-6.6-12.3,9.6.5-1.8-15.3,7.7-6c-11.5-1.8-3.7-9.7-3.7-18.2s-4.6-21.3-3.2-31.4l15.6-24.5c-14.1-.4-34.6,7.5-37.3-12.4,4.6-15.6,20.8-9.6,31.9-12.1,1.8-.4,3.6-6.8,9.2-4.2l-1.8-61.2c-1.8-23.2,20.9-40.8-13.5-45.1-10.6-20.4,18.7-21.8,31.9-29.8-11-11.3,3.2-23.6,3.1-29.8,0-2.4-7-10.4-7.7-17.4-1.3-12.8,1.3-30.5,1.7-43.8-3.4-1.7-6.4-4.6-10.2-5.6-5.1-1.4-13.9,2.2-13-4.5,2.3-17.3,13.9-21.9,28.1-27.7,2.1-6.9-1.8-16.3-.7-20.9.7-3,5.6-5.9,6.7-10.2,1.8-6.7-1.7-12.3-1.2-18.6.5-5.6,4.6-10.5,4.9-14.6.8-11.9-2.2-26.8.4-39.3-10.3.4-20.6,0-23.4-12,3.2-15.3,27.4-15.5,32.2-27.7,3.6-9.1-3.9-7.9-3.9-9.5,0-7.5,8.3-23.4,8.6-28.2.3-5.1-5-10.1-5.7-15.3-1.1-7.8,5.6-30.8-3.5-32.2v-3.4l4.4-2.5c-3.2-2.3-6.4-4.5-9.6-6.7-4.6,0-8.5-1.3-11-5.9-.4-.8-.8-1.5-1.1-2.3-12.7-8.3-25.8-16.1-39.1-23.5-1.3,13.6-.8,27.8.3,41.2.4,5.2,4.6,10.1,4.4,13.4-.2,2.7-15.4,28.2-17.7,30.2-3.4,3-8.3,1.9-12.6,7-4.8,5.7-3.7,13.5-6.3,17.1-1.6,2.2-9.9,2.9-9.4,8.5,10.8,2.8,45.5-9.3,43,9.4-1.2,9-8.8,3.7-14.7,2.9-.5,4,4.7,2.1,6.4,6.7,1.7,4.5,4.1,37.4,4,43.9,0,9.6-4.6,25.5-5.6,35.7-15.8,4.6-37.6-14.7-29.1,13.9.7,2.3,4.6,1.8,4.6,3.2-.2,5.6-8.8,6.5-7.9,12.8l31-.5c8.8,14.4-5.8,29.5-6.3,36.7-.3,3.9,4.2,8.7,4.1,14.6,0,3.2-7,37.9-8.2,41.8-2.4,7.8-10.3,18.1-18.9,13.3,2.5,13.6-10.2,20.5-6.5,33.3,10.7-.6,19-3.9,25.6,7.3-7.3,8.2-4.5,17.5-15.2,23.3l6.9,7.5c-9.2,9-2.8,16-3.7,23.9-1.5,13.2-7.3,26.2-9.2,39.2l-14.3-2.1c-7.8,4.3-5.4,26.4-6.6,34.7,13.3-6.3,21.2-12,35-3.1l-9.3,22.5,11.4,5.3-12.3,4.7c-.2,8.6-6.5,19.3-7.8,26.2-2.5,13.3,5.1,51.5-19.3,40.6-4,8.6-16,25.8-1.7,28.6.9,1.1-9.1,6.6-1.7,9.5,9.2,3.6,5.2-11.1,12.4-8.9,1.8.5,7.4,11.1,7.7,13.8,1,9.3-5.6,12.5-6.1,21.1-.9,13.5-1.9,37.2-2,50.6,0,4.6,4.1,8.3,3.9,12.1-.8,12.7-18.8,10.1-21.1,11.8-6.9,4.9-9,24.2-2,28.5,3.6,2.2,11.9-.9,13.5,5.2,1.1,4.1-2.8,9.2-2.8,13.7,0,9.3,6,19.3,5.7,29.4-.4,14.7-13,35-13.6,51-19.2,8.6-24.9,14.8-21.3,37.5,3.5,5.6,12.6.4,15.8,1.9,8.6,4.2.9,15.4.9,21.7s4.6,9.2,4.4,16.9c-.2,7.9-5.2,15.8-6.3,23.8-2.6,20.6,6.7,50.4-23.9,41.8-7.3,9.4-5.6,19.3-3.8,30.1,5.9.6,11.7-3,17.6-1.5.6,0,7.6,8.1,7.7,8.6.8,7.3-7,18.5-7.6,23.9-.2,1.9.4,3.9.9,5.7,22.9-8.1,45.2-17.6,66.8-28.4,1.5-6.4,2.8-12.7-.9-17.2h-.3Z"/>
  <path d="M913,289.6c2.5.2,4.7,8.2,3.1,9.7-4.5,4.3-10.2-10.2-3.1-9.7Z"/>
  <polygon points="855.7 680.8 867.7 681.4 867.4 686.2 855.6 683.2 855.6 680.9 855.7 680.8"/>
  <polygon points="834.9 710.9 830.3 707 834.2 701.3 837.6 705 834.9 710.9 834.9 710.9"/>
  <path d="M839.4,1136.6l16.6,3.3c-1.7,5.2-16.2,2.1-16.6-3.3Z"/>
  <path d="M953.1,1030c-9.3-18.8,23-24.7,35-27.7,3.2-6.7-3.9-7.1-4.3-8.9-.8-4.7,1-10.9.7-16l9.9-3.5c-17.1-18.3-8-40.6-6.9-61.6,1-18.3-13.6-6.2-18.9-19-6.5-15.9,9.1-12.1,15.7-19.2,9.3-10,5.7-26.2,8.5-32.3,2.1-4.6,13.8-12.2,14-13.1,2.1-7.9-8.2-25-7.7-33.6,0-2.2,5.6-19.5,6.8-22.5,1.8-4.6,6.9-6.4,6.7-11.6-12.4.5-25.2,9.5-36-1.2-8.2-26.5,14.7-21.5,31.6-27.7l-.9-9.7,7,2.7-8.2-20.6c1.8-6,23.5-5.8.9-24.3,16.5-20.8,16.3-47.8-13.7-52.7-7-12.2,16.5-26.6,27.3-27.3,1.7-9.5-5-14.8-3.3-25,2.1-12.4,13.2-17.8,14.5-22.1,1.5-5.3-7.7-11.7-7.4-18.6,0-1.6,5.8-27.5,6.6-30.5,1.6-5.8,7.7-7.8,7.4-13.3-13.1,7.4-40.5,7.2-40.3-12.8,0-15.4,22.7-13.4,34.5-13.9-.3-8.9-2.9-18.7-2.6-27.5.4-14.1,5.6-35.5,6.7-50.3.7-8.8-4.2-19.4,1.5-30.1-10-.9-28.6-3.2-25.1-17,.9-3.6,9.3-2.9,13.1-5.1,1.7-1,15.7-13.6,16.4-14.7.7-1.1,8.1-22.6,8.3-23.9.8-5.2-7.5-27.6-7.9-34,0-1,4.4-.6,5-2.4,2.4-7.8-4.2-13.1-3.6-16.2.9-4.5,11.6-16.5,10.4-23.9-1-6.3-11.3,0-15.9.2-9.1.4-14.6-.6-12.4-11.2,1-5,8.2-9.3,16.2-12.8-18.1-19.7-37.4-38.3-58-55.4-4.9.7-9.1,1.2-9.7,2.1-1.5,4.9,0,10.3-1.1,15.2-1.3,5.5-10.2,9.1-1.8,10.8,11.9,2.3,23.9-5.1,29.4,7.9l-12.5,15.8c20.9,20.1,1.5,50,5.9,74.3-10.2,9.6-14.5,12.9-29.5,9.8-4.8,16.6,8,27.9,22.4,32.4l-.2,3.5-13,19.8c17.5,9.5,6.4,30.1,2.6,44.8-1.7,6.6,2,19.6-7.8,21.8-4.7,1.1-12-1.4-14.8.1-4.1,2.1-12.3,37.9-7.5,41.4,3.6,2.7,17.6.8,21.4,8.7,0,7.8-1.5,15.6-1.1,23.3.7,14.3,0,13.5-.7,26.9-1.1,17.7,10.7,41.2-11.6,45.6l-7.8-9.7-9.3,39.1,13.6-5.3,11.6,10.2c-6.3,8.6-1.4,8.9.2,17.8l-10,5.8-.3,4.7c12.1,1.5,9.6,20.3,9.1,30.5-1.2,21.7-4.9,45.7-31.5,30.9,5.9,14.3-2.8,28.6-2.2,43.1,10.9,1,10.7-12.6,22-8.5,1.8,13.3-8.6,28.4-8.6,39.7s5.2,8.5,5.8,16.5c.4,6.1-3.2,42.2-5.3,47.4-2.8,6.8-20.5,5.6-26.6,11l-10.9,25.9c10.4,6.3,21.1-6,32.3,5.3-.3,18.1-.4,37.4-8.8,53.7-.4,4.1,2,8,1.7,12-1,15.4-7.9,14.1,8.1,28-6.5,0-10.9-1.7-12.8-7.8-6.4,11.3-14.9,2.4-20.6,4.8-7.5,3.2-5.9,37.9-7.3,46.6l22.9-1.3,5.4,4.3c-1.2,21.7-2.8,42.7-4.9,64.3-.3,3.6,1.9,7.8,1.5,12.1-1.3,13.2-10.2,16.8-22.4,14.7l-8.5,22.3,4.6,5c-5.2,4.8-9.3,10.9-17.3,10-.8,3.7,3.2,2.8,5.8,2.7,4.9-.2,14.6-3.4,21.6-3.6,23.9-14.2,46.8-30.1,68.4-47.4.9-12.3,3.1-24.3,9.4-35.2-2.7-2.7-26.2,6.4-31.1-3.4h.2Z"/>
  <path d="M993.1,673.4c4.7,1.5,5.1,5.4,4.3,9.8-4.7-1.5-5.1-5.4-4.3-9.8Z"/>
  <path d="M996.7,486.2c1.6,0,4.7,6,3.2,7.3-3.8,3.4-9.9-7.7-3.2-7.3Z"/>
  <path d="M1092.3,918.6l-8.4-2.7,1.7-4.9c13.9.2,6.2-16.4,14.3-25.5-10.7,0-19.9,1.1-20.9-12,6.7-15.5,24.7-14.8,37.1-22-2.5-3.4-7-6.6-8.7-10.4-2.2-4.9-3.2-54.8-1.9-62.3,1.7-9.7,10.3-17.7,7.8-28.5-.7-3.2-7.2-3.7-5.9-8.6-6.6,4.5-3.7,9.7-14,4.6-18-8.8-1.8-27.5,14.7-30.5,9.5-1.7,25.7,4,25.3-11.3-28-3.5-6.8-9.8-6.7-11.2l-16.3-9.3c1.5-6.4,14.7,2.8,16.7.9,1-7.1-4.9-11.6-5.5-18.6-.2-2.6,2-5.9,1.8-8.9-.9-12.9-3.8-27.7,0-39.9-19.9-1.8-21.2-16.3-29.7-30.4,19-1.9,33.5-11.4,53.2-6.9-5-9.2-19.8-1.5-22-15.2l12.8-86.1c-43.7-10.9-25.5-30.4,8.1-35.6,2.6-3.4-4.2-13.7-2.8-20.6,1.1-5.3,7.2-6.7,7.9-11.7,1.1-7.6-4-24.8-3.2-33.7.3-3.4,2.2-8.6,3.9-14.2-4-9.3-8.2-18.4-12.6-27.4-6.7,1.1-13,3.4-12.9-7.6,0-6.7,1.3-9.7,3.2-11.3-11.7-21.9-24.8-43-39.1-63.1-1.2-.1-2.6-.5-4.3-1.2-1.9-.8-10.4-21.1-19.6-20,4.9,12.7,1.8,35.1,5.2,46.8.9,3.1,5.1,3.4,5.9,4.8,1.3,2.5-.2,6.6,1.3,9,1.7,2.8,7.6,2.4,10.5,6.8,2.2,3.3-.2,13.7,0,18.6,0,3.2,3.3,6.6,3.3,10.3,0,8.2-7.7,15.2-8.3,21.3-.7,6.7,8.8,14.7,2.4,25.3-10.7,3.8-16.2,6.1-28.1,4.1-4.6,16.3-12.4,28.6.2,43.5l24,2.5c3.6,12-12.5,13.1-13.1,19.6-.6,7.8,10.1,16.2,10.9,22.4,1.3,10.3-7.1,26.6-6.6,35.5.6,10.5,8.9,2.8-5.7,16.6-1.8,1.7-3.9,10.8-7.3,3.9-1.5-2.9.3-9.2-6.8-8.3,1.4,9.9.9,16.2-3.7,25.2-.3,8.7,24.2,10.9,27.6,20.8.6,5-10.1,9.3-13.5,12.5-13.4,13-2.1,11,0,14.6,1.2,2.3-1.9,6.3-1.3,9.4.9,5,5.7,10.4,6.9,16.3,2.7,12.7-2.2,16.6-2.7,23.2-.5,6.7,5.5,14.3-2.4,20.6-9.3,7.4-12.5-.7-16.9-1-11.1-.8-9,26.3-10.1,33.1,36.2-3.9,20.7,23.8,19.4,45.4-.7,10.8,1.2,32.2-.9,42.2-.7,3.5-6.4,13.3-10,14.6-9,3.3-9.9-4.2-18.3-4.2-4.8,3.1-6.9,38-3.6,43.2,3.5,5.4,15.6-1.8,19,10.4.4,18-.8,38.5.7,56.3.8,9.1,11.1,24.6-4.2,31.2-8.8,3.8-21.1-6-25.4-.2l-7.9,39.3c5.5,4.1,27-1.1,28.3,6.5-.8,4.8-3.8,9.1-4,14-.3,5.5.7,15.9,1.5,27,22.2-23.1,42.7-48,61-74.5-2-6.7,0-14.1-1.1-22.8v.3Z"/>
  <path d="M1122.7,535.9l-.2,4.8-9.6-.5c1.5-4.7,5.4-5.1,9.8-4.3h0Z"/>
  <path d="M1071.7,965.8c-1.4,1.7-8.7-10.4-6.5-12.3,7.4-.3,7.4,6.4,6.5,12.3Z"/>
  <path d="M1087.1,899.4l-.2,3.5-10,7.9c-.7-5.8,3.7-12.3,10.2-11.5h0Z"/>
  <path d="M968.2,268.4c1.8-3.5-2.2-17.9-4-14.6-2,3.8,2.3,17.8,4,14.6Z"/>
  <polygon points="1035.6 593.9 1023.7 590.9 1023.5 595.7 1035.4 596.3 1035.6 593.9"/>
  <path d="M131.4,559.4c5.8-2.3,7.1-9.3,10.3-13.9-8-.7-11,7.5-10.3,13.9Z"/>
  <path d="M20.9,757.6c.3,1.3.7,2.5,1,3.8.2-1.2.5-2.3.7-3.3l-1.7-.5Z"/>
</svg>