<?xml version="1.0" encoding="UTF-8"?>
<svg id="Layer_1" xmlns="http://www.w3.org/2000/svg" version="1.1" viewBox="0 0 1200 1200">
  <!-- Generator: Adobe Illustrator 29.0.0, SVG Export Plug-In . SVG Version: 2.1.0 Build 186)  -->
  <path d="M1202.3,638c.5-5.4,1.2-18.4,1.2-23.5h0c0-13.8-6.8-26.8,0-42.3l-7.6-1c0,.7,0,1.4,0,2.1,0-.6-.1-1.3-.2-2.1l-17.2-2.4c-2.2-1.8-3.4-17.5,1.2-19.7l14.3-3.1c-3.1-35.1-9.3-69.4-18.2-102.6-4.6,0-9.2-.6-13.8-.8,0-3.6,8.7-3.7,11.3-3.9h1.2c-4.8-17.2-10.3-34-16.5-50.5l-8.7,21.5c16.2,5.2,5.7,41.8.9,54.2-6.4,16.4-16.5,13.2-20.3,18.1-.9,1.1-7.5,25.4-7.4,27.3.3,11.4,13.6,3,19.7,4.9,11.5,3.6,2.7,20.2-6.7,22.2,8.4,10.3-.9,11.5-1,18.9,0,3.9,3.8,8,4.1,12.6.7,9,2.1,31.3-2.1,38-6.9,10.8-18.8,6-21.5,7.9-2.3,1.7-7,30.1-4.4,33.1,5.1-1.1,13.1-.4,17.6-1.6,2.7-.7.8-6.7,6.7-4.4,3.7,8.5-4.3,15.4-5.2,22.9-1.5,12-1.8,28.9-3.1,42.7-.5,4.9,2.7,10.1,1.6,16.8-1.4,9-10.4,17.7-19.1,19.6-7.4,1.6.4-9.9-5.4-9.8-1.7,11.5-.9,27.4-11.4,34.3,6.7,1.5,5.4,11.2,4,16.7-.7,2.5-7.1-.5-5.1,6.1.8.7,13.4-1.3,15.3-2.1,5.9-2.6,2.7-12.2,13.3.4,1.6,5.6-2.7,11.1-3.1,16.4-1.1,16.5,6.4,57.3-7,68.1-8.1,6.6-15.5,2-20.2,4.2-9,4.3-2.8,28.6-7.2,37.5,1.3,1.5,15.2-5.3,21.6,2.3.4.5.8,1.1,1.1,1.6,18.2-29,34-59.8,47.1-91.9.6-2.6,1.6-5,2.9-7.3v-.2c0,0,.2-.2.2-.2,1.4-2.3,3.3-4.5,5.7-6.4,5.4-4,17.3-4.8,19.8-8.4,3.4-4.8-1.3-12-.4-17.9.9-6.4,7.6-9.5,8.3-16.6.7-6.8-3.2-10.4-3.4-15-1-18.9,4.1-36.9,4.4-55.9l-1.4.4h0c0,0-11.6,3.6-11.6,3.6-16.8-16.2.6-24.9,15.7-32.2,2.7-23.2,4.1-46.7,4.1-70.6v-13c0,4.3,0,8.7,0,13,0,23.9-1.4,47.4-4.1,70.5,4.1-2,7.9-3.9,11-5.7-10.7-8.7-2-17.1-1.2-26.8Z"/>
  <path d="M2.7,648.5l1.1-11.9,4.7-4.2c-6.7-13.7,3.2-31-12-32.6v.2c0,19.8,1,39.4,2.8,58.7h.1c1.2-1.5,3.5-3.1,7.9-5l-4.6-5.2Z"/>
  <path d="M34.6,404c3.2-3.4-.3-4.2-3.5-5.1-.9,2.6-1.8,5.1-2.7,7.7,2.8-2.6,5.7-2.2,6.2-2.7h0Z"/>
  <path d="M22.4,539.7c-1.2-7.4-7.1-22.8-7.5-32.4l4-35.3-2-2.9c-1.7-.5-3.6-.9-5.7-1.5-7.6,33.9-12.4,68.9-14,104.8,8.7-4.2,20-7.2,27.1-13.9-10.4-2.9-.9-12-1.9-18.8Z"/>
  <path d="M213.8,796.8c-.6-2.5-9.3.7,2-13.3,3.2-4,7.7-6.7,11.2-10.4-10-8.3-11.9-18.4-8-30.4l-9.6-.5c9.1-8.5,11.7-18.2,11.2-30.7-11.2.2-21.6-1.3-31-7.6l-1.6-4.3,10.2-21.7,31.5-4.4c-6.7-15.6-7.2-26.5,9-34.4-8.6-3.6-4.1-13.6-13.7-17.9l11.9-41.1c-11.4,5-8.8-2.3-11-3-8.7-2.6-17.2,6.2-22.6-9-3.2-9.2-2.1-14.9,7.3-18.4,6.2-2.3,12.6-.6,15.4-2,1.2-.6,10-11,15.5-11.8-9.8-12,3.9-26.1-5.2-41.2l7.8-53.6-25.9-6.4c-.2-19.4,20.3-20.2,34.5-24.7l-3.1-22.2,14.6-11.8c-8.8-1.7-20.6-23.2-21.9-30.6-1.2-6.8,1.4-24.6,3.5-31.6-5.9-2.9-18.7-1.2-18.9-9.4-.6-19.7,26.1-11.8,34.8-24.6-8.5-8.7-10.8-30.5,4.3-32.3v-2.3c-9.1.6-1.9-5.7-2.4-10.6-.2-2.4-3.6-5.1-3.7-10.1-.4-18.2,12.9-46.8-14.2-45.1l-.5,6.9c-11.2-5.1-18.6-10-15.3-23.4,5.8-23.9,32.1-4.5,39.1-17.4,3.3-6.1-8.8-2.1-9.3-5.3-1.3-5.3,4.3-2.3,5-4.8.9-3-1.4-10.5,1.4-16,1.8-3.5,6.2-2.9,7-5.3,1.2-3.5-3.4-12.8-3.8-16.7v-.4c-23.3,15.2-45.6,32.1-66.6,50.3-.6,1.4-1.1,2.9-1.3,4.3-3.5,19.8-1.3,45.8-2,66.1-3.1,9.9-15.4,7.6-23.2,3.5l-6.9,40.5,27.3-1.1c9.4,9.9-2.5,13.5-4.2,20.4-2.2,8.5,1.7,19.3,1.1,28.9-.9,15.3-9.9,31.5-7.6,46.1l-8.4,4.2-5.7-5.8c-8-4.3-1.4,20.1-2.2,24.1-.9,4.2-12.4,9.6-14.2,14.7,10.5-3.1,23.7-8.8,28.9,5,3.6,9.5-3.9,13.6-3.7,21.4.3,19.5,4,26.3,1.9,50.7-.4,4.3,2.6,10.6,2.1,10.9-.8.5-4.9-1.3-6.6.1-1.7,1.4-.7,7.8-4.9,8.7l-17.5-3.1-6.8,36.8c3.4,4,6.7-2.9,11.1-3,5-.2,11.8,4.5,17.8,3.3-.7,7.8.4,19.5-8.4,22.4,11.4,4.8.2,27.1.6,36,.2,4.5,4.6,7.3,5.5,11,5.5,21-11.9,26.9-28.6,20.3-7.5,12.8-6.2,26.1-7,40.4,10.8-1.5,21.4-3.5,31.2,3-3.3,15.5-6.2,31.7-7.6,47.5-.7,7.7,2.4,15.5,1.5,21.5-.2,1.3-5.8,19.4-6.4,21-2.6,6.6-17.2,11.9-23.9,7.7,4,9.1-5.5,9.4-6,17.8l4.7,7.3c-7.4,2.2-11.8,9-1.7,10.9,6,1.1,13.8-3.4,20.4-1.4,3.1,19.5,2.7,36.9,2,56.5-.5,12.3,3.1,16.8-4.7,30.4-10.2,17.8-16.8-3.8-22.7,8-2.4,4.7,1.3,8.5.2,12.5-.6,2.4-4.5,4.4-4.7,7.6-1.1,14,22.7,16,23.2,18.3,2.2,13.2-6.3,31.3-6.8,42.7-.3,5.9,3,16.8,4.1,26.4,13.9,16.1,28.7,31.5,44.2,46,2.4-5.3,5.8-11.8,6-17.2.3-5.8-4.1-8.5-4.2-14.2l-.2.3c0-9.8,4.5-26.2,4.6-37l-20.4-3.3c-3.1-16.2,8-25.3,22.1-29.6-.5-10.3,6.8-20.7,7.5-30.3.9-12.8-7.7-19.1-6-30.8,1.9-13.5,7.6-24,15.4-34.8-12.5-2.7-23.9,5.2-33.4-5.3,6.9-6.7,5.7-17.9,14.6-24.4h0c8.2-6,24-1.8,21-14.4Z"/>
  <path d="M95.3,574.5h0c.8-19.1,13.1-10.5,20.6-20.6,1.1-1.5,9.5-19.7,10.1-21.7,3.2-12,0-42.3,1.6-56.5,1.3-11.7,9.1-13.3,12.6-22.8-11,1.6-19.9,1-30.7-2l-2.4-12.5c6.1-.8,12.3-12,13.3-12.5,4.3-2.1,13.7,3,17.8-4.4,6.2-11.3,2.6-52,2.1-66.1-.2-7.8,6.8-16.6-3.8-22l3-7.9-33.7.7,3.9-23.5c13.2.6,28.5.4,38.5-9.2-17.6-10.5-1.1-18.5-.5-31.3.3-6.9-3.1-10.5-3.4-15-.8-14.9,4.3-30.5,3.9-46-26.9,30.2-50.8,63.2-71.2,98.4v2.3c0,3.4,3.2,7,3.1,12-.3,15.1-1.9,29.8-5.8,44.4-3,3.8-12,0-17.4,3.5-4.5,3-11.6,23.1-4.8,27.7,16.3-.6,15.3,3.1,25.7,13.5,1.3,5.8-10.1,13.5-10.4,20.9-.2,4.3,4.1,8.7,4.1,14.6-.2,16-.6,45-3.2,60-.6,3.6-.6,6.1-4.2,8.1-11.8-9.2-20.7-7.2-24.7,7.6-.9,3.2,2.1,6.8-.7,12.1-2.8,5.2-10,5-10.9,10.9l34-6.6c-1.4,11.9,3,23.9,3.1,34.9.3,17.9-5.6,34.5-2.7,51.6,5.1.2,0-11.5,7.5-5.6-2.2,14.4-6,8.1-10.7,10.4-2.4,1.2-2.3,4.2-3.8,4.4-5.2.9-13.2-2.4-17.7.2l-16.1,35.3,15.4-2.6c10.5,11.5,10.2,21.1,0,32.2,12.6,7.8,14.2,34.8,13.4,48.4-1.1,18.9-9.4,36.5-29.1,24.2l-.8,3.2c3.2,11,6.7,21.9,10.5,32.7,10.5-.7,21.3-1.4,22,3,.6,4-9.9,14.5-10.4,20.9-.2,1.8,0,4.3.4,7.1,15.3,36.7,34.2,71.6,56.2,104.2.3-1.3.7-2.6,1.3-3.7,2.1-4.4,8.5-9.2,8.8-10.7h-.3c.8-3.5-4.7-6.3-5.9-10.3-5.1-16.7,4.1-44.2-1.6-53.4-6.9-11-16.5.6-25.6-6.1-10.3-21.6,3.3-18.5,15.9-22.6,3.1-1,5.7-9.1,12.9-7.3-1.2-6.8-4-10.6-4-18.1s5.2-16.7,4.9-20.5c-.4-6.9-7.3-10.5-7.7-15.8,0-1,.8-17.8,1-18.8,1.4-8.5,8.4-17.2,6.2-27.6-5-.8-20,1.4-21.1-4.9,2.5-5,1.6-13.4,4.2-17.6,2.3-3.7,12-4.7,13.5-8.4,1.9-4.6,6.4-29.1,6.9-35,.5-6.3-2.7-12.1-1.6-19.1,2.1-12.5,14.3-26.4,7.7-42.8l6.9-8.3c-7-2.8-26.6,1.4-26.1-9.6Z"/>
  <path d="M4.8,699.7c3.4-2.5,7-5.1,12.4-4.6l-13.8-3.9c.4,2.8.9,5.7,1.4,8.5Z"/>
  <path d="M1083.5,613.2h0c-.2-4.4-4.1-8.4-3.9-12.4.2-5,5.8-7.7,5.3-12.9l-28.7-2.7c8.4-1.8,4.2-9.2,6.2-16,3.2-11,24.1-17.1,34.3-21.6.2-5.3-4.5-7.5-4.3-13.3.3-7.6,8.3-13.8,8.5-18.8,0-1.5-4.4-1.3-5.5-4.5-5.9-16.6,4.6-35.2,3.4-52.2-10.3,2.7-31.4-2-30.7-14.8.7-12.8,29.8-14.8,39.6-18.4-.2-6.9-6.9-9.4-7.7-17-1.1-9.8,8.4-22.9,6.7-34.6-1-6.7-7-12.8-7.2-15.3-.2-3,4.3-5.2,4.7-8.8.4-3.3-2.6-6.7-1.2-11.6.9-3.1,13.4-17.3,12.5-18-39.7,4.4-41.6-8.3-13.9-32l6.9,5.1,2.9-1.7c-14.3-23.9-30.3-46.7-47.7-68.3-1.4,1.9-2.7,3.3-3.5,3.8-7.7,4.8-24.7.8-26.7,3.9l-6.4,30.3c7.8,5.2,16.2,10.8,26.1,10l-9.5,15.1c4.3,15.7,11.8,27.5,10.7,43.8-1.4,20-4.6,52.4-31.1,33.4-6.1,3.3-2.9,10.2-4.5,15.2-.7,2.3-12.1,21.3-2.1,20.5,7.6-.6,15-10.4,25.5-5.9.9,6.2-3,12-3.1,17.6-.2,7.7,5.8,15.4,5.8,19.7s-4.9,11.8-5.7,18.9c-1.6,14.3,6,33.6-6.9,45.5-5.5,5-20.6,5.8-23.5,9.4-.8.9.5,5.6-1,8.9-3.2,6.8-7.6,13.5-13.6,18.2,4.7,2.3,12.5,2.3,17.7,1.9,6.9-.6,14-7.1,18.2,0l-5.5,9.4c-.4,4.7,4.7,3.9,6.6,7.9,4.3,9.7-.2,16.2-.2,23.6,0,12.5,4,54.6-16.2,53.2-9.7-.7-7.2-9.3-15.3-10.4l-4.5,40.6,28.6,1.6c-1.2,24.8,2.4,47-5.2,71.3-6.4,20.6-8.7,21.8-27.6,8.6,5,12.1-9.4,17.6-9.9,19.7-2.1,9.2,9.8,27.9-8.5,32.3-12.9-2.4-4.5-20.7-5.2-21.8-.7-1.2-5.7-.2-6.7-6.6-1.6-9.9,7.3-3.3,10.2-10.3l-14.5,1.6c-2-8.3,5.4-7.2,7.7-11.1.9-1.4,6.3-16.4,5.7-17.1l-22.4-1.9-5.2-5.5c2.6-18.4,6.2-12,15.7-17.1,3.1-1.7,10.4-9.1,11.3-12.8,1.3-5.6,3.5-22.2,4-28.5,1.4-17.7-1.2-35.4.7-53.1-3.3-9.9-28.6-8.3-28.2-20.5.4-12.9,20.8-12.8,26.2-26.7,1.1-2.8,7.8-23.2,7.9-24.4.4-6.6-5.4-10-6.3-15.3-1.4-9,10.5-27,10.9-34.9.2-4.6-5.5-9.5-1.5-15.7-16.5.2-34.3-.6-30.3-21.8,9.4-2,20.4-3.7,27.2-11.4,8.4-9.6,1.8-12.3,4.3-19.6,1.3-3.8,6.7-6.2,6.9-10.4,0-1.4-4.3-1.1-4.7-3-.8-3.9,1.8-16.6.9-17.6l-12-.6,9.4-2.2c4.9-8.9-3.5-18.7-1.8-29.9.9-6.1,13.2-15.9.9-18-6.5-1.1-14.4,5.6-18.9-5.7-5.9-14.8,27.8-24.6,38.7-28-11.9-4.6,1.7-21.7,1.5-31.1,0-4-3.3-7.2-3.6-10.5-1.2-14.6-2.3-33.6,1.9-47.2l-6.7-5.5,2.4-5.7c-11.3,2.2-24.3-1.7-25.6-14.6,2.5-12.6,21.2-9.6,26.5-12.4,2.2-1.1,5.3-5.5,8.2-10.8-20.1-19-41.6-36.6-64.2-52.7-7.2,5.8-12.5-1.6-17.4,3.7-1.4,1.5-15.6,34.5-16.3,37.8-.3,1.4-.8,3.9,1,3.7,10.9-9.7,27.1-10,39.8-4-19.8,25.8-2.8,59.1-14.6,85.2-6.7,14.8-24.6,8.1-26.2,13.9,2.9,9.9-3.1,18,3.8,27l25.4,8c0,8.9-11.1,15.7-12.2,24.3-.5,4.2,2.7,6.6,2.7,9.1,0,4.2-4.2,7-4.6,11.3-1.1,12.7,3.1,18.2-2.6,35.5-1.6,5-9.3,5.9-5.1,15.9l-16.5-5.6c-3.2,2-3.6,32.8-.8,36,4.6,5.2,10,0,15.6.8,2.5,8.8-5.4,18.1-5.8,24.9-.2,4.7,3.4,9.7,3.6,14.8.4,10.1,1.8,34.8.5,43.2-2.3,14.5-18.4,9.1-22,14.9-4.7,7.6,2,24.9-7,31.6,6.5,2.7,17.7,8.9,20.4-.2,6.4,5,.5,11.1,0,18-1,16.3-2.1,33.3-1.1,49.5,1.4,22.9,11.1,29-21.1,32l-.3,25.5-7.3,7.9,26.6-3.4c.5,16.9-11.5,33.9-28.3,37,.7,15.4,13.7-8.4,19.4-3.8-2.9,12.2-2.4,26.4-1.4,38.9.5,5.5,7.6,12-.3,18.7-11,9.2-11.8-6-17.5-10.5,1.8,17.3-3.2,36.1-5.2,53.8,1.9,2.7,4.2-3.1,8.2-2.8,4.6.4,7.4,9.8,15.6,7.6-6.3,17.2,1.6,31.9,0,49.3-.6,6.7-5.1,26.2-7.7,32-5.3,11.9-16,9.9-20,15.8-5.3,7.9-4,25.1-10.3,34.2l4.8,3,21.7-5.2c1.9,2.2-6,22.1-6.2,27.4-.3,8.1,4.4,15.4,3.6,26.6-.6,8.8-9.9,44-16.1,48.2-3.6,2.4-14.9,2.7-15.8,5.8-2.1,11.9-.7,15.4,5.7,24.3l-4.8,7.8c3.2.2,6.6.8,9.7-.6,4.3-1.9,3.4-8.2,7.5-8.1-2.1,5.9,3.1,11.9,3.3,16.1.3,5.1-4.5,12.4-5.1,18.7-.5,5.6-.2,18.9-1.4,31.8,24.6-12.2,48.3-26,70.8-41.3-4.7-7.9.4-15.5-.5-25.3-1.1-11.2-11-17.2-7.8-31.6.7-3.2,4.2-5.7,4.5-7.8,1.5-9.5-.7-22.1,4.6-31.5-14.8.7-24.4-12.7-12.7-25.5,12.4-13.7,26.2-8.7,23.1-37.5-1.7-15.1-5-34.3-2.2-50.9,1.5-9.2,7.9-14.8,6.2-24.7-8.1,0-13.2,3-19.9-3.2l-1.3-6.1c2.9-11.8,29.5-12.8,39.1-19,4.6-6.5-8.4-23.4,9.8-31,3.5-1.5,8.3-.5,10.8-1.9,5.1-2.9,11.2-16.7,21.9-14.7,7.2,4.9-.9,7.8-1.9,12.9-5.8,29.1,5,61.1-4.1,86.6-5.8,16.1-9.6,5.9-20.6,7.3-17.2,2.3-12.2,25.1-15.7,37.3,10.8-3.6,17.8-3.1,28.9-.9-4.3,17.3-6.9,30.2-2.5,47.9l-6.9-.2c-5.9,10.5,6.1,13.1,6,18,0,7.5-9,15.1-10,19.3-.6,2.5,2.1,6.4,1.1,7.7-2.1,2.9-22.2,14.7-26,23-1,2.3.8,6.1-.5,9.6-1.9,5.1-7.1,8.7-6.9,14.1,9.3-7.9,10.2-2.2,19.1,1l5.3-9.3,2.6,3.9c26.2-21.5,50.6-45.2,72.9-70.8,1.1-5.5,1.7-9.8.7-10.9l.7-.3c-13-.4-21.1,1.8-18.7-14.2,2.3-15.2,20.9-13.1,22.4-18.2-1.3-7.4-2.7-16.5-.8-23.9,1.4-5.6,6.9-6.2,8.1-14,1.5-9.8-2.6-27.5-.5-38.4,1.4-7,7.6-15.7,10.6-22.4l-24.7,13.1c8.4-17.5,4.4-9.7-1.2-18.3-4.1-6.4-3.7-10.8-1.8-17.9l6.7,2.6c1-6.5,9.1-7.3,11.6-11.1,3-4.6-5-20.9,14.6-22.2-8.9-19.9-6.8-32.9-5.7-53.1,0-1.7-3.1-4.4-3-7.2,0-4.9,9.8-20.7,8.1-22.5-38.5,1.9-21.1-24.5,1.8-34.9-11.9-15.9,2.3-24,4.4-35.6,1.4-7.5,1.8-23.2,1.4-31.1Z"/>
  <path d="M844.1,878.4h0c-10.5-1.3-13.3,6.5-24.3,2.5-8-3-10-9.4-8.8-17.5,2.1-14,23.8-20.9,36.2-20.8l7.9-37-6.6-1.9c.3-6.9-5.7-15.5-6.2-20.9-.3-3.7,2.3-7.1,2-10.8-.8-9.9-8.2-17.2,1.9-28.1-13.1.5-26.9-.8-25.7-16.9l4.3-5.3c7.9,2.5,13.4-3.4,20.4-5.6,5.7-1.8,10.9-.2,17.1-5.1l.3-4.7-9.7,1.9c3.6-15.1,1.7-31.5,2.2-46.7,0-4.4,3-8.6,3-12s-11.1-21.6-10.4-29.1c0-.8,8.2-1.7,5.4-8.2-5.6.4-19.3-1.7-18.9-9.4.2-2.9,15.3-17.3,17.9-18.3,7.5-2.9,16.2,2.7,21.8-3.8,1-3.7-5.7-6.5-6.5-12.4-1.4-10.5,6.5-16.6,5.7-20.8-1-4.9-8.1-5.4-9.7-9.9-5.2-14.5,3-39.9,7.2-54.4l13.4-2.9c-13.5,0-25.2-9.1-38.2-5.6l6.2-23.7c11.1,5.9,17.8.3,28.7-1-3.1-10-8.4-10.5-5.9-23,1.7-8.3,5.8-15.5,3.2-25.9-2.8-11-2.6-5.7-3.8-19.5-.3-4.2-5.5-9.3-5.2-12.7.6-6.2,13.2-14.4,12.2-22.3-1.8-2.1-28.6,7.3-32.8,8-8.7,1.4.6-7.2,1.1-8.9,1.3-4.7,0-11.8,2.4-15.1,2.2-3.1,15.8-3.2,22-8.5,2.4-2.1,9.7-13,10.7-16,2.6-7.9-1.2-18.7,9.3-18.9-13-12.6-8.3-7.4-8.5-20.7,0-3.9-1.7-7.3-1.3-11.6.5-4.8,8-29.7,5.8-32.7-8.2-2.9-27.3-4.7-28.1-14.9-.2-2.8,5.4-19,6.2-19.6,2.5-1.9,21.6.8,26.6-4.8.8-7.6,7.1-20.7,7.7-26.7.8-7.4-8.4-10.6-8.2-19.1,0-4.7,3.2-10.4,3.5-16.7.5-10.2-1.7-26.8-.9-33.9.3-2.6,1.7-3.7,3.2-4.4-2.9-1.7-5.9-3.4-8.8-5.1l-4.4.3c-1.4-1.6-2.5-3.1-3.1-4.5-13-7.1-26.4-13.8-40-19.9-.3,1.8-.5,3.2-.5,4.2,0,1.6,4.2,1.4,4.6,3.3.5,2.8.7,31.3.3,35.9-.3,4.1-3.6,21.6-5.5,23.7-4.6,5.1-17.3-.3-23.1,12.4-4,8.9-1,18.1-5,26.9l3.1,3.3,16.1,1.5c3,1,3.3,3.1,3.6,5.9,3.3,26.5-4.6,52.2-4,78.7l-18.5,5.4c-4,13.2-8.5,26.5-8,40.5l12.4-3.1c9.1,5.9,9.1,8.9,7.7,19.1-2.2,15.9-.6,33-1.5,50.7-1.1,22.8,8.9,35.7-25.7,26.6-3.9,14.8,1.2,28.2-9.3,40.4l22.9-8.6c6.2,7,6.8,16.7,4.9,25.6-.7,3.5-4.8,6.1-4.7,9.1.3,8.1,6.8,18.7,2.8,31.3-1,3.1-9.3.5-8.3,17,.6,9.6,9.2,11.8,8.9,17.1-10.6,5.8-17.9,12.3-29.1,4.5l-9.2,36.7,17-2.7-3.3,19c4.1,0,2.7-7.2,4.8-11.1,4.8-9.1,16.5-10.5,12.7-1.2-.6,1.4-5.9,1.5-7.2,4.7-6.3,16.1-1.3,33.7-.5,47.9.5,10.9-1.6,22-1.5,32.9-10,9.1-19.7,12-32.2,16-7.8,26,22.1,17.8,24.8,27.8,4,14.7-19.4,23-18.4,38.3l19.6-8.6c1.1,1.3-6.3,27.3-6.2,32.2,0,6.1,9.2,10.4-.2,20.2-8.5,8.9-18.7-.7-22.8,1.4l-4.3,35.8,19.2,1c-1.2,9.7-2.3,20.2-4.1,29.7-.6,3.3-4.4,6-4.5,7.1,0,.8,7.2,9.7,8.8,14.3,4.1,12.1,1.5,44.9-5.6,55.1-5.7,8.3-15.9-4.7-16.8-4.1-5.9,12.9-8.3,23.7-9.1,37.9l23.8,3.7c2.7,8.7-4.9,8.7-5.7,12.8-1.8,9.6,1.7,18.1,1.4,26.7-.2,5.7-3.3,10.9-3.7,16.6-.4,7.2,3,13.5,1.4,21.5-.4,2.2-7.5,14.8-8.2,15.2-1.5.9-6.3-3.1-9.9-2.4-10.8,2-2.2,9.4-2.3,15,0,6.7-5,18.9-6.3,26.2l21.6,2.4c-7.7,17.8,0,36.2-.2,54.1-.3,16.2-3.6,24.9-17.4,34-3,2-8.4,1.5-12,4,26.4-6.1,52.2-13.9,77.2-23.3,0-4.8-.2-9.6-.2-14.4l-1.8-3v.4c-13.1,2.6-23.2-3.4-20.9-17.8,1.8-11.8,28.9-15.7,37.6-24.9-1.5-7.6,3.1-18.8,2.4-25-.5-4.7-5.8-4.5-5.7-6.1.2-4.3,3.9-8.8,3.2-16.3-.5-5.7-5.1-9.2-5.4-12.4-.9-9.1,7.3-20.9,10-29.6l-24.8-1.6c-12.4-15.1,5.5-22.5,19-25.1l-2-7c27.1-12.1,11.9-52.8,15.9-77.5,1.4-8.9,6.1-14.3,8.4-22.4Z"/>
  <path d="M1156.2,383.1c-4.4-11.3-9.1-22.4-14.1-33.4-1.9-.3-4-1-6.3-2.1,13.6,12.3-1.4,23.4-2,38.3,0,.1,22.4-2.8,22.4-2.8Z"/>
  <path d="M306.7,836.3h0s1.9-9.6,1.9-9.6l-21.6-1.1c2.5-7,2.5-17.3,8.4-22.3.7-.6,16.4-8.6,17.4-8.9,4.7-1.3,6.3,1.1,8.7,1.1,13.9,0,.2-8.7-.7-10.6-7.9-18.6,4.2-24.6,6.1-35.5,1-5.4-2-17.7-2.1-24.8,0-6.3,3.4-14.1,1.7-20.3-2.2-7.8-31.5-.9-27.2-23.1,4.1-21.4,39.9-14.8,42.4-29.3l-6.9-9.8c10.2-12.2,2.4-19.4,2.1-29.4,0-4,2.4-7.5,2.2-11.1-.5-13.8-6.1-24.4,2.2-37.4-10.1-2.6-32.3,6-33.2-10.2-1-19.2,24.5-11.5,33.9-19.4,5-4.1,8.3-17.5,8.7-24,.7-10.2-6.5-22.7-7.1-36.6-.5-12.1,5.6-34-1.1-41.3-6.4-7-22.1-3.5-20.2-19.7,1-8,21.1-5.5,25-13.1-17.1-7.6,4.6-31.6,6.5-41,1.2-6.5-3.8-17-3.2-26.1.4-5.9,8-33.2,6.8-34.5l-28.8-1.5c-2.2-21,25.6-29.4,40.3-37.6-10.1-4.6-10.7-17.1-5.7-26,2.4-4.4,10.1-1.4,5.1-11.7-.9-1.9-4-2.1-4.3-3.9-1.7-9.9,8.3-26.1-5.3-36.1-.7-5,13.1-9.4,10.3-17.2-43.8,4.7-35.6-32.2,3.8-26.2.6-8.3.5-16.7,1.4-25,.4-3.7,4.2-7,4.2-9.5,0-4.8-9.3-20-4.7-28.8l-4.7-3c9.1-1.8,4.3-13.3,5.8-21.5.7-3.5,2.5-6.2,3.8-9.2-20.4,8-40.2,17-59.5,27.1.2,2.7.5,5.4,1,8-2,8.3-16.4,8.7-18.6,10.7-2.3,2.1-6,13.4.9,11.7v4.6l-7.5,5.6c8.2,10.9,20.2-.8,27.3,9.9,2.5,5.6-5.4,18-9.7,22.3l6.9,7.6c-16.3,11.3-.8,62.2-23.9,62.7-9.1.2-2.6-6.5-10.4-5.5l-4,33.3,20.2,5.8c-3,13,.7,24.3-12.6,31.9,5.1,2.7,13.6,16.6,13.2,21.9-.4,4.2-3.2,23.5-4.1,26.1-1.7,4.8-11.4,7.7-10,15.6-5.6.8-7.8-8.9-13.1-3.2l-8,40.5,13.1,3c3.8,7.6,1,18.1,2.2,24.9.4,2.4,5.7,3.3,8,7,6.3,10.3-.7,19.9-2.3,30.1-1.5,9.4,1.1,26.3-7.8,31.9-3.8,2.4-9.2,1.2-12.4,4-4.9,4.2-6.5,21.7-6.3,28.3.3,10.4,15.6,1.4,22.7,3.8.6,13.3-1.5,26.4-2.1,39.4-.7,14.6-2.6,11.5-3.4,16.6-1,6.7,2.1,13.4,1.2,18.9-1.8,11-14,17.3-24.3,14.9,3.9,12.2-8.7,23-9,32-.4,11.4,28.8-1.3,30.7,9,.5,2.4-4.6,12-5.2,16.6-2.5,18.9-.7,31.3-.4,47.9.3,12.2-6.2,25.7-15,33.9-2.2,2.1-5-.4-8.1,3.3-4.2,5-8.1,19.2-8.9,25.9-.7,5.9.4,2.6,2.3,2.6,7.8,0,16.3-1.3,24.1-2.5,1,7-5.5,13.1-6.8,18.6-1,4,1.8,8.9.2,13.2-1.3,3.4-10.4,3-9,18.3.5,6,7.7,2.7,5.4,9.5l-7-2.8c-5.6,6.6,14.4,30.7-5.7,40.7-3.5,1.8-6.5-1.2-9.7,1.6-6.3,5.6-9.3,28.9-5.1,33.2,1.2,1.2,7.2-.4,10.5,3.1,8.2,8.8,7,42.6,5.5,54.4-1.9,14.7-5.3,35.8-23.4,33.7,2,10.6-10.1,16.7-6.3,30.9l26.2,7.8c1.2,8.1-5.5,17.8-6.1,23.5-.7,6.1.6,15.1.7,24,16.4,12.4,33.5,24,51.1,34.7.6-8.5,2.8-17,6.5-25.8-10.3.9-19.6-2.9-28.5-7.5,0-1,9.8-15.6,10.6-16.2,2.7-2.1,10.7-3,15.4-5.7,16.8-9.6,10.3-23.2,19.4-38.2-4.1-12.4-5.1-30.7-3.9-43.2l-5-3.2,2.1-10.5-19-7.7-8.9,11.1c.6-9.4-.4-22.3,6.3-29.8,5.3-5.8,5.3,1,9.7.7,5.8-.5,22.8-8.2,22.5-15.7l-5-2.9c15.6-25.7-7.2-54.9,9.1-79.8l-10.8-2.9Z"/>
  <path d="M411.5,899h0c13.3-22.1,2.8-34.4,6.8-55.8.4-2.4,5.4-18.8,6.3-20.9.6-1.5,13.8-14.3,4.3-13.1-11.9,1.5-31.4,7.4-27.5-12.5,2.1-10.6,15.8-15.4,17.3-17.8,2-3.2,0-8.6,1.1-12.2.7-2.4,5.7-1.8,7.1-5.2,3.1-7.4-1.3-17.2,11.1-20.7-15.8-8.9-9-5.3-9.1-15,0-10.9-2.5-18.6-.2-33.3,1-6.1,3.1-12.3,5.4-18l-24.1,1.2c-15.3-24.1,30-32.9,31-38.4.5-3-2.6-7.6-2-11.7.5-3.3,4.3-5.9,5.2-9.6,2.3-9.7-5.4-34.6-4.2-48.1.6-6.4,8.3-21.1,8-23.5-.8-6.2-11.3-1.4-15.5-1.8-12.6-1.3-11.8-14.2-13.8-23.9,3.9-6.8,11.3-.9,16.6-1.5,6.7-.8,14-9.9,21.8-9.6,2.7-5.8-4.1-4.2-4.5-6.6-1.9-9.1,7.7-21.7,15.8-25.3-18.7-7.4-10.9-8.8-9.1-20.3,1.7-11.4,5-16.9,6.5-25.8,5-29.8-20.4-6.6-35.2-13.7-3.6-33.8,29.7-19,38.1-36.2,2.3-4.6,5.8-23.2,6.2-28.8.6-8.4-5.2-27.2-5.3-38.6-.1-13.4,1.7-26.4,4.4-39.4-3.1-3.3-35.4,11.3-27.8-19.4,4.5-18,23.8-3.1,34.2-12.8l-18.8-8.2c-8.4-10,16.9-29.1,27.8-26.2-2.8-7.4-12.5-5.4-13.7-13.9-.8-5.5,3.2-42.7,6.1-46.5,1.9-2.5,6.7-.8,6.1-4.5-12,2.3-21.9,5.5-34.6,3.1-5.6-5.2-2.1-14.6,2.9-19.3,8.1-7.5,21.5-1.7,28.4-14.1-18.3-8.5,4.1-23.5,6-31.5.4-1.6,2.4-30.6,2.2-33.1-.4-6.3-4.8-12-4.1-16.9.8-5.4,6.5-6.7,7.8-9.3,4.6-9.3-23.1.9-24,0l.4-7.6c-12.3,2.6-24.4,5.5-36.4,8.8,0,1,0,2-.2,3-1.1,13.6-6.9,25.6-9.7,38.6l-15.3,2-9.9,30.7,23.5,7.3c-4.7,7.7-8.7,19-6,27.9.7,2.2,4.2,1.3,4.5,5.6,1.2,14.2-4.4,17.7-6.3,26.5-1.9,8.8,4.3,10.8-4.9,19.7-6,5.8-10,6.8-18,4.1,1.1,6.9-5,15-5.3,20.6-.6,14.2,20.1,10,22,20.3.5,2.7-3.2,17-3.4,23.5-.2,8.7,0,17.3-.2,26.1-.5,19.8,9.8,45-19.8,38.9-1.4,14.8-11,24.2-6.9,40.5,6.3,1.6,26.4-1.9,28.3,5.4,0,9.4-6.2,15.9-6.2,25.8s4.8,15.1-2.1,32.8c-1,2.5-7.8,10.5-7.1,11.1l10.9-1.9c4.6,11-4.3,35.7-18.2,32.2-10.4-2.6.9-26.7-7.7-19.1-1,.9-12.6,21.3-12.8,22.6-.3,3,3.3,5.2,3.3,8.8,0,8.5-5.3,15.5-7.7,21.8-3.1,8.2,11.8.2,13.7,0,7.4-.9,15.1.5,22.4-1.8-5.3,7.4-11.4,24.2,1,26.5l-15.3,14.9c14.1,18.5,13.1,50.9-11.4,60.6l-.9-5.6c-.2-3.2-3-2.1-4.8-.8-7.8,5.8-9,25.5-8.9,34.4l24,1.2c-1.2,7-3.4,12.8-3.6,20.3-.4,15.9,5.1,53.3-2.2,65.7-5.2,8.8-11.4,6.1-19.1,1.7l-2.5,2.2c2.5,9.3-5.3,14.5-6.3,20.4-3.5,20.7,13.2,15.6,19.9,19.9,4.1,2.6,5.8,32.6,5.1,38.5-.9,7.5-8.3,16.2-8.5,24-.2,5.2,4.9,10.3,4.4,10.9-.4.4-4.5-1.8-5.2,3.3-1.1,8.2,11.2,27.4-6.4,22.3-8.3-2.4-.9-11.4-7.2-9.6-4.8,1.4-10,6.7-13.8,10.1l6.9,5.1c-7.6,7.8-6.2,17.8-3.7,27.5,33.5-8.2,17.2,11.9,17.6,30.9.2,9,1,19.2,1.4,28.3.4,7.4,5.2,12.9,2.2,21.3-4.1,11.7-25,12.5-31.1,21.4-4.1,6-3.5,16.4-6.3,23.4l23.9,1,4.7,3c-4.6,13.4-7.9,28.4-6.8,42.7.4,4.8,3.7,8.7,4,14.7,1.2,21.9,1.1,54.4-28.7,43l-1.7,13.7c24.1,12.6,49.1,23.6,74.9,33,1.3-3,9.7-29.5,10.1-31.6.2-1-4.3-1-4.6-2.9v.2c-2.5-13.8,2.8-43,10.2-55.6-44.8,2.7-24.2-30.4,2-39.6l-7-5.4c4.7-7,1.8-16.5,4.1-23.1,1.2-3.4,6.4-5.3,6.9-7.6.5-2.1-3.8-6.7-4.1-11.8-.8-13.4,2.8-29.3,2.5-43-.7-3.3-33.3-4.9-17.5-29.7,3.7-5.9,12.7-9.9,15.9-15.3Z"/>
  <path d="M617.2,973.8h0c.3-8.8-5.1-26.3-4.7-36.9.3-7.9,5.2-16.3,3.8-24.9-7.1-1.6-11.4,3.1-18.1,4-2.1.3-9.3.9-8.3-2.9l9.8-3.2c-13.6-20.7,9.3-33,26-39.4-8.7-8.9-1.1-18-1.2-26.2,0-7.4-3.1-17.1-2.8-24.5.4-12.6,4.4-28.5,8.8-40.4-9.4-1.6-18.5,10-24.1-3.4-10.7-25.6,23.7-18.5,30.7-32.3l-9.3-5.3c6.6-15.8,18.4-20.7,15-39-.8-4.5-4.3-8-4.9-13.4-1.4-13.2.2-28.9,9.1-39-6.3-2.8-11.8,4-15.8,4s-5.4-11.2-15.1-8.2c-1.3-22.9,1.5-17.7,15.3-24.6,6.7-3.3,10.9-8.9,19.9-8.4l-6.6-12.3c11.8-15.9,4.1-17.7,2.2-31.8-1.2-8.7-2.4-18.4-3.4-26.5-.6-4.9,7.2-14.2,5.5-22.9-14-4-13.1-13.3-22.4-23.1,5.3-12.4,19.5-16.4,31.6-18.9.2-4.4-7.8-3.6-8.2-8.7-.9-12.2,14.1-21.9,10.2-35.3-1.7-5.9-13.1-4.9-13.8-8.6l6.1-22.2c-5.5-3.9-5.3,9.5-9.8,4.3-4-4.6,18.6-11.8,13.1-20.9-22.1,1.6-14-14.5-12.6-29.1l24.2-12.3c-15.9-12.5,1.2-20.9,2-33.5.5-8-6.7-22.3-6.1-24.2.7-2.4,6-2.5,8.2-6.4,3.8-6.9,6.3-20.9,10.4-28.9,0-4.5-19.1,1.3-17.3,7.5l-4.7-.3-1-4.7c-6.4,6.1-14.7,4-20.3-2.2,5.6-3.9,10.2-18.6,13.7-21.5,3-2.6,9.9-2.1,13.4-4,3.3-1.8,4.1-4.8,7.6-6.7,7.6-4.1,27.9-5.4,6.1-12.6l10.4-26.6c-.6-6.2-7.1-9.6-9.4-14.3-7-14.3,1.3-35.8,6-50-40.9,1.3-29.1-24.7,0-34.2,12.8-4.1,27.5,5.3,33.3-6.2-22,.8-44.8-7.2-20.2-27.4-9.3-11.2-7.5-24.1-4.9-37.3-16.6-2.7-33.5-4.8-50.5-6.1-1.7,11.7-4.1,21.8-7.3,24.6-5.2,4.8-14-.2-17.8,1.8-.9.5-8.8,16.7-8.6,19.5.7,15.6,29.3,2.3,27.8,20.8-.3,4.1-5.3,5.9-7.1,9.8-5.9,12.7,6.9,32.6-10.1,44.5l6.9,6.3-7.3.9c2.8,8.1,1.2,16-5.8,21.4-4.9,3.8-10.7,2.3-13.6,5.2-5.6,5.6-3.1,22.3-7.6,29.6l31.1,2.9-15.5,29.6c7.6,18.5,18,49.8-2.4,63.2-11.6,7.5-17.9,1.8-19.3,21.8-.8,11.4,9,24,20.6,23.9-3.8,4.6-.4,13.1-1.2,15.4-1,3.1-6.4,2.3-7,4.9-3.2,14,6.1,34.7,6.7,46.4.4,7.3-3.3,15.1-1,22.8-5.5,8.9-15,7.9-23.9,5.3-4.2,10.3-5.3,22.4.6,32.5l16.9-.4c-2.4,11.2-14.4,19.7-3.7,29.7-4.7,21,3.5,47.3-1.3,67.3-2.1,8.9-9.5,8.6-17.1,7.6l1.9,9.7-14.2-4.3,1.8,22.4c3.5,4.2,12.5,0,17.2,1.2,2,.5.7,4.3,1.9,6.5,5.2,9.3,2,6.8,3.1,16.7,3.1,25.9,6,41-4.8,65.9-2.6,5.9,0,15.1-10.7,15.8-4.4.3-13.5-10-17.5-1.5-3.4,7.3,10.7,9.5,11.2,16.1-13.6-1.9-5.9,11.7-17.6,14.8,10.8,2.5,21.5-7.8,31.2,1.6,5.3,5.6-3.1,15-3.3,21.6,0,3.6,2.9,6.6,2.9,9.5,0,8.5-6.5,17.5-6.6,21-.2,6.4,6.3,20.1,4.7,29-1.8,9.8-13.5,20.4-24.1,17.7l-11.4,26.6c4.1,7.3,8.5-1.7,14.4-.4,3.8,20.9,10.1,37.4,6.5,59.1-.8,4.6-5.3,8.4-5.4,11.7,0,.9,3.7.8,4.9,5.1,1.4,5,0,18.8-1.4,23.6-1.8,5.6-23,1.3-22.9,20.9,0,17.6,10.2,9.6,20.9,16.8-2.6,5.8-10.8,19.1-10.7,24.7,0,3.4,3.7,6,4.1,9.9,1.4,15.2,2.9,28.3,4.9,43.5,3.1,23.6-13,24.4-31.4,28.1-5,7.2,3.4,19.2-4.8,25.2l24,1.1c4.4,3-1.4,10.5-2.6,15-1.5,5.6,2,8.6-6.2,14.6,6.2-1.7,9.8,7.6,10.8,7.9,7,1.8,14.8-5.3,19.9,2.2l-17,2.7c0,.6.3,1.2.4,1.7.2,1.5.4,3.2.4,5v.2c0,8-1.6,18.6-2.8,28.5,0,.5,0,1.1-.2,1.6,12.8,1,25.8,1.6,38.8,1.8v-.9c0-1.3.2-2.5.4-3.8.8-6.6,1.9-12.7,2.8-16.3l-15.4-6.8-.2-17.8,32.1-15.5c-3.7-4.9-7.3-9.3-13.9-9.2.5-3.9,6.3-2.9,7.5-6.2,5.8-16-.5-41.5.5-59.4.3-4.3,3.5-8.6,3.2-13.2-4.8-.4-15.9-3.4-17.6-8-.8-2.1,0-25.1,2.4-27.9,2-2.4,6.5-3.1,8.9-5.4l2.2,5.1,10.8-2c1.8-5.2-3.7-8.8-3.6-12.9.3-7.9,9.5-19.8,9.7-26Z"/>
  <path d="M724.5,982.7h0c-5.6-9.5,7.8-20.4,7.6-27.3-.2-6-7.9-8.8-8.2-12.5-.3-3.4,4.1-9.9,4.5-14.5.8-10.2-2.3-22.5,1.7-34.3-11.9-7.1-19.1,4.3-27.8-4.6-6.4-24.1,21.6-19.8,32.3-35.4l-6.2-9.6c12.2-12.1,16.4-33,14.1-49.7-1.3-9.9-14.2-19.9-.6-32.6-12.8,4.9-10.6-1.5-13.7-2.9-3.7-1.7-10.1-.6-12.5-4.8-4-22.4,24.3-17.6,27.7-27.6,1.4-4-5.4-19.1-2.6-28,1.3-4.1,7-4.9,7.3-9.7,0-1.5-3.9-1.2-4.6-3.2-5-14.6.7-22.4,3.8-35.5,2.2-8.9-2.1-17.6,8.6-23.4-2.4-2.9-10.6-1-13.1.7-5.1,3.3-2.1,9.1-6.6,9.1,5.5-15.5-8.2-10.2-8.8-18.5-1.5-18.1,21.2-20.5,26.9-28.7,2.2-3.2-1.5-13.1.2-17.4,1.5-3.9,7.1-5.5,7.2-9.7,0-1.8-4.9-13.6-5.5-20.3-1.3-15.5,6.3-32.7,6.5-48.2-6.1-.4-22,1-22.8-7.1,1.7-15.9,13.2-21.6,24.7-30.1-9.8-3.5-1.8-8.2,1-14.4,3.1-6.9-2.2-12.1,12.3-10.2-12.3-14.1-9.2-19.3-10.3-35.3-.2-3.5-4.2-6.5-3.8-9.5.4-2.7,4.2-5.7,4.9-9.9,3.2-21.4-22.6-5.8-23.6-7.1-2.4-23.8,23.9-28.4,38.2-42.5-3.9-4.8-11-2.6-10.8-10.5.2-7.8,11.7-17.2,12.6-23.2,1.1-7.1-6.7-15.4-7.9-22.4-.7-3.8-3.3-26-3.2-28.9.3-6.9,7.2-8.4,7.3-14.8-9-.8-21.5,2.1-23.6-9.6,1.9-12.5,33.1-17.9,34.9-24.9-10.3-12.3-1.6-15.5,1.8-28.5-6-6.7-6.7-11.3-6.2-21.9.7-16.1,8.6-32.5,9.6-48.7-4.5-4.9-32.8,14.3-25-16.4,6.1-24,20.9-4.4,33.9-15.6l-11.3-8.1c-.4-3.4,6.8-10.6,9.4-17.5-28-10.4-57-18.7-86.9-24.9-1.8,12-2.1,26.2,3.4,29.3,8.6,4.8,11.5-2.2,9.9,17.4-.2,1.9-4,4.1-3.7,6.6s5.2,4.8,6.1,8.3c1.5,6-1,14.2-.4,20.9.7,7.8,6.6,15.3,2.3,23.2-2.6,4.7-10.4,1.9-8.9,9.1l11.8,3c-10.8,2.4-15.9,10.3-27.6,3.7l-2.7,2c-6.6,11.4.2,25.7-7.7,34.5,5.2,3.4,11.8-1.3,17.8-.3,21,3.6,7.9,40.1-10.7,33l-4.4,7.1c5.8,2.9,22.3-3.9,25.2,1.3.7,5.3-3.9,11-3.9,16s3.9,6,3.4,8.8c-.5,2.4-5.3,4.5-5,9.6.2,3.5,4.1,6.4,4.4,10.1.9,14-16.3,23.9-24.6,10.6-6.1-3.3-13.4,26.4-13.4,30.8,0,16.4,30.5,0,30.6,13.4,1.4,7.3-7.2,14.3-7.9,19.2-.8,5.6,5.9,9.2,5.8,14.2,0,3.9-3.8,7.7-4.1,11.8-.6,10.1,5.9,48-5.3,51.2-10.1,2.8-25-7.7-28,9.6-1.4,8.1,1.7,17-1.1,25.3l23-6.1c1.2.2,4.8,9.8,5,11.7,1.4,12-4.2,28.1-3.7,39.9.2,5.2,3.5,9.8,3.7,15,.8,21.5,2.7,52.7-28.1,35.6l-4.2,39.1,5.6,4.4c27.5-9.4,15.1,3.4,15,18.7,0,4.7,2.8,8.3,2.5,13.6-.9,14-8,34-9.6,48.6-1.7,3.7-5.9,7.4-10.1,7.9-5.7.7-.8-7.2-8.1-5.3-1.6,15.4,2.4,33.7-11.8,43.8-.3,4.1,14.6,8.8,18.7,9.4-.9-1.7-5.1-7-4.4-7.4l9.6.5-.4,7.2c-1.6,0-3.2,2-4.8,1.8,8.5,16.1-2.5,16.7-1.7,30.1.2,2.5,6.1,2.3,6.6,5.5.3,2-2.4,5.2-2.1,7.1.7,4,3.5,6.5,3.9,9.8,1.7,18-3.8,32.6-24.1,24.5l-17.5,40.5c10.1,1.5,21.8-9.4,28.3,4.2-2.2,6.6-7,13.9-6.8,21,.3,16.1,6.6,42.3,7.4,58.4.2,3.3-4.9,9.7-3.7,15-4.4,5.2-14.1,1.4-17.3,3.7-10.6,7.6-9.3,22.4-7.6,33.5l19.3-1.4c1.3,9.5-4,18.4-3.9,27.4,0,13.5,7.9,26.9,4.6,43-.8,3.8-13.4,27.6-15.3,28.7-3.3,2-8.4.4-12.1.5,1.5,16.9-11.6,29-21.3,41-1.6,6,3.8,2.4,5.5,1,8.9-7,11.1-14.4,26.3-12.7-9.4,24.6,3.7,59.8-1.9,82.7-3.1,12.8-16,6.3-19.6,15.5,26-1.2,51.5-4,76.5-8.3.4-11.6,1.2-22.2,4.6-34-8.7,4.1-17.3-.6-26.1-2.3h-.5c-2.3-.4-4.1,2.5-2.4-2.7.5-1.7,6.3-14.6,6.8-15.3,2.4-2.9,8.4-1.6,12.4-4,2.8-1.7,20.8-37.2,21.9-41.6,1.8-7.1-2.2-20.8-2.3-28.4,0-4.7,3.4-10.3,3-16.7-.5-8.4-8.4-9.9.7-17.9-15.3,3.8-33.3,1.2-25.1-19,1.5-3.7,30.6-16.3,36.6-19,2.7-6.2-3.9-4.4-5.7-7.3Z"/>
  <path d="M521.6,801.8l-16.2-6h-.1s-3.6-22.2-3.6-22.2c8.1-13.8,23.9-12,36.6-17.9-8.9-6.7-4.7-16-6.5-23.9-3.2-13.8-9.5-24.5-8-40.9.7-7.8,8.2-24.9,7.1-29-2-7.5-21.5-1.9-21.1-11,1.3-24.8,30-14.2,34.3-30.5,1-3.6-3.6-8.3-3.3-13.6.6-8.8,8.5-9,3.7-25.5-.6-2.2-4.1-1.1-4.4-5.6-.5-8.9,16.8-49.3,14.8-50.9-12.3-1.2-43.4,1.6-33.3-17.9,7.3-14.1,15.2-5.4,24.4-10.8,14.8-8.6,7-11.1,6.4-18.4-.8-10.7,2.7-30.9,1.7-42.3-.4-4.6-4.3-25.5-5.7-29.3-3.4-9.5-20.6-6.3-20.6-16,0-17,34.7-28.9,35.7-38.9.4-4.1-2.9-10.1-3.1-15.1-.5-12.2-4.2-27.5-3.9-36,.3-9.4,3.9-20,4-29.7-18.4-1.7-21.7-14.9-22.3-31l26.7-9.8-7.8-33.9,14.2.6c2.5-2.6-3.9-41.9-4.5-49.4-.4-4.7,2-15.2.6-17.7-.6-1-9.3-2.7-12.7-5.7-1.5-1.3-13.6-18.5-12.1-19.9l7.8,5.1c8-7.9,20.2-8.6,30.9-10.3l.4-7.1-9.5-2.9c14.9.8,5.5-6.8,8.3-14.7,1.1-3.2,5.9-4.9,6.9-7.8,1.4-4.5-3.1-13.6-3.3-19.3-.3-8.8,1.3-32.3,5.5-38.9,2.9-4.5,8.5-2.7,8.9-7.2h-2.1c-19.1,0-38.1.9-56.7,2.7.3,1,.5,2,.5,3.1-.2,6.4-7.2,13-7.3,18.5,0,4.8,4.6,14.3,5.2,20l-3.8,2.9c-19.2-1-27.5,7.4-21.4,26.5l7.1,2c1.2-1-5.8-16,.8-16.7l19.5,41.8-22.8-22.8-2.8,7,11.3,6.8c-6.8,24.2-.2,49.7-5.8,74-2.5,10.7-12.3,2.9-19.4,2.6l-6.8,38.1c17.7-4.7,27.2-3.8,23,16.7-1.6,8-6.6,24.1-15.5,23.4l10.7,10.1-4.8,11.6,7.1,5.5c-9.2,11.7.5,20-1.5,33.2-22.1,1.9-23.9,17.6-20.9,36.1l16.3,3.6c1,1.6-7.3,14.5-7.2,20.1,0,3.3,3.2,7,3.2,12.1,0,13.7,1.7,43.9-.7,55.2-4.1,19.3-19.6,6-21.8,7.4l-9,34.4c5.9,5,15-4.2,19,3.4l-8,16.4,9.7-.7c-1.3,16.5-2.9,32.3-5.1,49-1.4,10.6,4.7,15.4-5.7,23.9-4.5,3.7-11.8,4.7-14.8,8.9-6.6,9.2-10.1,32.7,7.9,30.2l-.9,15.5-4.7,2.2c-4.8-6.1-10.4-3.5-16.8-2,3.4,7,18.4,1.3,20.8,9.8,1.9,6.6-1.6,22.1-1.1,30.7.3,5.2,3.7,9.4,3.9,17,.3,12.9-1.9,17.4-12.3,24.7l-8.1-5.2c1.3,7.8-3.7,15.5-3.7,22.6-.1,11.7,11.2,16.6,14,28.2,2.2,9.1-2.9,24.9-2.3,35,1.1,18.1,4.1,10.2-1.9,31.2-1.2,4.2.3,9.7-1.2,13.8-2,5.3-10.5,4.6-11.6,6.1-1.8,2.6-.2,12.6-1.4,17.5-2,8.7-10.9,10.4.6,20.7,14.8-8.2,15.6,2.2,9.3,13.2-2.2,3.9-6.9,3.1-7,4.9-.3,4.5,7.4,8.8,8.4,15.4,1.1,7.1,0,21.9-7.9,23.1,10.8,5.3,11.3,18.6,4.4,27.7-7.8,10.4-10.9-.7-20.2-.9-.5,7.5-.6,15.2-1.2,22.7-.6,6.9-7.3,13.8,3.9,17.2,4.1,1.3,8-1.3,12.1-.7l-4.3,82.6c-2.8,10.5-21.5,18-23,27.8-2.1,14.3,7.5,13.5,12.2,18.6,2.2,2.4,6.7,34.3,6.5,39.9-.2,5.3-1.2,9.3-2.5,13.1,8.3,2.2,16.6,4.3,25,6.1-2.6-24.3,15.4-20.8,27.3-29.7v-.5c8.3-6.1.6-9.5.5-13.3-.2-3.9,6.7-19.4,7.3-23.7,2.3-17-1.9-21.9-4-36.1-.7-4.7,6-9.4-3-12.4l8.1-15-24-1.2c-5.9-25.8,9-27.9,30.4-29.7,3-6.8-11.3-8.2-11.4-11.6,4.5-5.5.2-11.7.9-16.4.6-3.8,5-6.4,5.6-11.8,1.5-13-1-34.5,2.3-47.9,1.1-4.6,5.7-5.8,5.3-10.6-2.4-2.5-17.7,11.8-24.9-6.1-7.8-19.5,24.9-21.1,34.2-33.1-3.3-12.8-6.5-4.5-14.2-5.5-.9-4.9,6.4-4.5,7.3-6,1.6-2.7-1.8-7.2-1.1-10.2.7-3.1,6.4-5.1,6.5-7.1,0-.9-3.3-4.2-3.7-7.6-.5-4.1-.9-38.2,0-40.6,1.3-4.1,9.3-1.3,7.3-8.1Z"/>
  <path d="M742,760c7.1-.7,16.1-4.7,19.8-11-4-2.2-23.9,6.7-19.8,11Z"/>
  <path d="M141.4,428.7c1.3,1.7,9.2-4.2,9.5-4.6,4-8-12.5-10.7-9.5,4.6Z"/>
  <polygon points="163.4 422.7 156.2 422.3 153.5 428.2 156.9 431.9 163.4 422.7"/>
  <rect x="865.8" y="694.9" width="2.4" height="14.4" transform="translate(121.9 1532.5) rotate(-87.1)"/>
</svg>