<?xml version="1.0" encoding="UTF-8"?>
<svg id="Layer_1" xmlns="http://www.w3.org/2000/svg" version="1.1" viewBox="0 0 1200 1200">
  <!-- Generator: Adobe Illustrator 29.0.0, SVG Export Plug-In . SVG Version: 2.1.0 Build 186)  -->
  <path d="M1197.4,553.4c-.5-4.3-4.1-8.8-3.7-12.1,0-.7,1.9-3.2,3.7-6.2-2.9-26.7-7.5-53-13.8-78.5l-7.4.2c-2-5.5-4.5-16.2.7-20.1l1.3-.4c-9.1-32.3-20.9-63.4-35-93.2v.3h0c-2,15.9-11.7,27.7-27,15.7-2.4-1.9-.9-6.6-4.6-6.1,2.2,7.8-5.2,14.6-5.8,20.2-.7,6.2,3.2,14.5-1.2,22.6,10.9,7.3,19.7-8.6,28.2,5.6,2.4,8.6-8,19.2-8.1,28.1,0,7.1,5.8,11.9.9,23.3-1.4,3.3-10.7,3.7-7.8,13.4l6.9,1.3c.5,18.2-15.4,28.3-19.4,36.5-.9,1.9.9,5.9-.4,7.3-3.7,4-16.1-.4-19,14.6-1.6,8.1,8.8,0,13.4-.4,6.6-.6,13.6,1,20.3.9-1.8,23.4-19.6,32.8-14.6,60,.9,4.9,5.8,8.3,5.8,12.7s-3.3,22.6-3.7,23.7c-2,5.1-16.2,3.6-18.4,12.6l-.8-7.3-9.9,3.3c8.7,11.8-2.8,18.9-1.1,30.4,1,6.6,8.2,10.8,9.7,16.5,1.9,7.4-.7,15,.4,22.5.8,5.5,5.7,10.8,6.8,16.3,3.1,15,.7,43.5-9.1,55.8-13.6,17.1-17.3,0-21.4,2.9,2.2,12.2-5.6,29.8-14,38.9l32,.4c7,1.9,1,23.3-1.5,28.3-1.6,3.2-5.8,2.6-5.9,3.9-.3,4.4,5.9,9.6,6.6,17,.9,9.6-4.6,41.6-12.2,47.5s-17.2-1.9-21.9,3.6c-2,2.3-5.1,11.1-4.7,14,1,8.4,12.4,8.3-4,19.4-1.4,5.8,4.2,4.1,7.2,2.9,6.6-2.5,7-7.5,12.4-10.3-2.4,8.2,5.9,9.2,7.8,12.4,3.5,6-1.1,20.3-1.3,27.6v.4c27.9-33.8,52.1-70.6,72.1-110-6.7-2.2-13.8-4.3-12.2-7.5,2.6-5.1,8.8,0,9.6-.7l3.2-11.8,8,2.4c6.4-13.7,12.3-27.6,17.7-41.8-.5-9.3-1.5-18.3-1.2-27.9.6-14.9.7-7.6,3.5-14.8,5.2-14-.8-16.3-.8-23.4s3-6.2,2.4-9.2c-1.7-8.5-15.7-4.1-16.3-4.8l-1.2-24.1c11.2,6.4,9.4-2.1,14.1-4,4.6-1.9,14.5-1.3,19.8-1.5,2.3-1.7-13.1-18.9-3.5-25.6,3.7-2.6,10.4,6.1,9.7-1.7-1-2.4-5.7-2.9-6.5-4.4-4.2-8.5-1.6-60,1.5-70,.7-2.3,5.1-5.3,4.3-6.2-4.8-1.1-12.6-1.9-16.5-4.6-3.3-2.2-3.1-5.9-5.2-8-2.1-2.2-8.6,1.6-6.1-5.7l4.6-.9-1.9-6.2c11.6,1.4,36.2-1.1,34.4-16Z"/>
  <path d="M305.4,936.4c-11.3,2.3-32.3-3-28-19,.2-.9,14.4-11.4,15.3-11.7,3.7-1.5,6.9,1,9.7.3,9.5-2.2,21.4-4.6,29.2-10.3l-16.9,2.7c2.9-7.2-2.8-13.7-3.4-18.8-.8-6.7,3.9-14.1,3.1-23.1-.6-5.9-5.4-10.8-5.6-15.2-.3-6.3,7.6-39.9,6.2-41.4-14.2,2.9-34.5,1.5-24.2-18,8.4-16.1,20.1-7.6,28.2-9.2,18-3.6,1.5-35.6,16.6-42.6l.2-4.8c-11.7-6.1-4-6.6-4-14.6s-2.2-8.3-1.9-12.1c1.2-13.8,6.6-28.1,9.4-41.6-4,1.5-37.8-4.5-30.7-11.2l37.6-14.7,7.1-13.1c-6.7-3.4-5.1-28.8-4.2-38.1,1.5-15.5,7.2-33.9,8.4-50-2-10.8-21-4.1-28.2-5.5-.4-6.5.7-13.3,6.8-16.7,4.6-2.6,7.5.9,10.8-.3,6.3-2.3,10.3-17.9,22.4-14.5-.9-6.4-4.4-8.2-4.3-15.8.2-11.3,8.7-14,3.8-25.7-.8-1.9-4.5-2.2-4.5-3.5,0-3.2,4.6-9.4,5.6-14.2,1.8-9.2-3.5-15.3,8.5-23.3l-4.8-2.6,8-12.8-15.4,1.4-5.7-9.7c-1.8,21.1-20.3,0-18.8-9.3,2-12.6,23.4-9.3,33.8-15.6,12.9-7.8,1.8-15,4.4-28.3.9-4.7,5.3-2.9,5.3-4.4,0-4.8-8.9-17.6-8.4-29.2.7-15.2,10.1-27.3,14.3-41.3-6.9,2.7-22.8-2.5-27.3-1.2-4.2,1.2-2.6,7.3-6.6,6.7-1.3-11.5-11.2-11.4-2.3-26.6,3.5-4.4,8.4.4,13.4-.3,6.6-.9,13.8-6.7,18.9-7.2,6.3-.7,12.5,4.4,19.8.6-.6-5.5-12.4-2.7-14.1-7.2-2.9-8.3.6-17.7.5-25.4,0-2.3-3.7-5.4-3.6-10.2.3-16.3,17.7-34.9-17.6-28.7-.7-8.7,10.5-6.2,14.3-9.5,3.3-2.8,6.4-15.6,11.1-19.3l-33-11.3c-.4-3.6,11.9-15.8,14.8-17.1,7.4-3.4,14,3.6,19.8-2.7-17.6-7.2,3.2-29.3,4.1-38.1.7-6.7-1.1-17.4-1.8-26.7-29.4,10.4-57.8,23-84.9,37.6l-.2,1.2,21.7,1c5.8,4.6-2.4,13.7-.9,19,1.6,5.5,9.5,1.9,9.1,6.7l-9.3-.2-4.9,66.8-22.9,6.3c2.1,8.8-6.8,14.6-7.9,20-1.4,7.5,5.1,10.2-8.7,16.1,12.4,9.5,28.5-12.6,37.1,7.8-11.6,11.4-3.6,13.6-3.4,20.4,0,2.2-6.4,12.3-7.3,18.8-1.6,11.2,4.1,20.9,3.1,26-.2,1.2-8.5,21.9-9.2,22.9-2.8,4.2-17.6,8.4-20,10.9-1.8,1.9,1.3,7.5-.2,12.1-1.8,5.7-8.3,9.6-11.8,13.8l28.6-.7c-1.5,20.6-9.3,38.1,7,55.4l-9.4-2.9-2.8,7c2.9,2.2,17-3.6,14.1,5.5-24.2.6-10.3,46.4-41.7,17.1v43.3c10,1.9,22.7,3.9,20.9,16.5-.7,4.6-4.8,8.3-5.6,14.3-2.9,19.8,2.6,43.3-3.4,67-4.6,18-17.1,8.5-19.4,10l-9.1,33.1c11.2,1,15.4,5.5,24.2-3.5,5.4,11.6,0,12.8-1.3,22.6-3.5,28.3,12.1,60.1-19.5,79.7l-3-12.2c-.7-.6-3.2,1.2-3.7,2.2-1.9,3.3-12.3,43.4-10.7,45.2h21.7c2.3,16.1-4.9,21.2-16,30.3l9.7-3.1c0,11.5,5.1,61.4-5.7,65.8-4.9,2-11.6-1.1-15.9,2.7-3.6,3.2-12.8,35-10.3,38,7.1.9,10.1-4.1,13.7-8.9,1.4,7.7,8.6,3.3,12.7,9-3,7.9-11.5,15.5-13.1,23.6-2.1,11.4,3.9,23.3,3,36-.9,12.8-7.8,24.3-7.4,37.6-3.2,9.4-16.1,4.8-23.5,5.6l-10.4,32.8-11,4.3c-.7,3.2,9.4,4.6,11.2,4.7,6.3.5,13-3.9,17.5,2.5,4.9,6.1-.4,14,0,19.5.2,3.3,4.5,8.6,5.1,14.8.2,2.7,0,7.2-.5,12.6,15.2,12.2,31.1,23.7,47.5,34.3.6-6.5,1.3-13,2.2-19.4l-4.9.9h-.4c0-.1,3.1-13.1,3.1-13.1-21.4,8-27.6-14.1-9.6-24.6,9.2-5.4,23.1-.7,30.5-9.4-6.9-11.7.6-18.9,1.8-30.8,2.6-24.8-5.1-48.6,8.3-70.5Z"/>
  <path d="M418.7,927.7l-21-1.6c-3.8-5-9-22.6-2.3-26.1,4.7-2.5,21.6-6.1,26.9-3.6l5.8-10.2c-14.4-6.4,1.3-20.2,1.9-33.6.4-9.1-4.4-25.3-5.7-36.2-.4-3.2-3.5-6.3-3.4-7.5,0-2.6,8.2-7.8,7.1-12.8-11.3-1.5-28-21.2-16-29.8,10.9-7.8,25.6-.6,29.8-9.9,5.4-11.9.9-17.1,2.2-25.3.6-3.5,4.3-5.9,4.6-11.7.4-7.5-4-18.6-3.4-26.8.9-11.1,16.9-41.5,7.3-47.9-3.1-2.1-14.6,3.6-19.4-10-6.4-18.1,27.5-13.8,36.7-20.6l8.1,4.4.6-12-10.8,4.2c-12.4-13.5-1.3-30.2,0-42.3,1.4-12.6-4-30.8-2-43.2s5.1-7.4,5.6-12.8c-15.2,6.3-38.2-1.6-27.4-20.3,10.2-1.1,17.7,4.9,22.8-6.4l4.8.2,2.1,5,11.3-5.6.3-8.2c-24.1,2.3-9.5-19.5-10.2-35.4-.5-11.1-9.3-23.2-9.9-32.3-.4-7,5.4-17,2.9-25.4l-13.7-8.3c6.3-6.9,1.7-12.4,4.5-20.2l30.6-8-7.1-4.1c-2.4-17.7,9.7-19,10.8-23.7.7-3-4.3-7-5.3-10.7-5.5-21.5,2.3-38.5,1.9-60-11.6,1.2-21.4-.5-18.7-14.2,2.2-11.1,28.6-4.8,34-23.4,1.4-4.7-1.6-10.4-.8-15.8.7-5,5.3-8.5,5.2-11.3-.1-2.7-3.6-6.2-3.7-10.3-.5-15,4-24.5-7.8-37.5l8-6.6,6.6,2.5.6-12-6.2,4.5c-2.1-11.5-15.4,3.1-22.7-7-5.4-11.4,3.5-24.9,15.4-26.6,3.8-.6,7.7,3.1,9.7,2.2,1-.5,2.9-7.9,8-6.5-13.5-10.8,5.3-35.5,4.2-41.2-.5-2.7-4.5-6.9-5.8-11-2-6.4,0-14.2-6.8-16.7l7.6-4.6c-1.5-2.6-2.3-4.9-2.6-7.1-18.4,2.7-36.5,6.2-54.3,10.5-.6,1.9-1.2,3.6-2,5.3-3,6.4-14.3,5.3-14.6,12.9-7.1,1-5.4-5.9-7.8-10-10.7,11-12.5,20.8-10.2,35.5l33.4,1.9c.9,8.5-5.7,13.7-9,21.6-1.2,2.8.7,6.2.2,7.6-.6,2-4.8.4-5.1,4.7-.5,7.6,4.5,12.3,5.9,17.9,1.3,5.4-.6,11.3,1.4,16.9,1.5,4.5,10.3,4.5,7.4,12.9l-9.2-7.7c1.6,14.5-14,16-16,28l-16.6-4.6-6.1,24,10.3,13.6,5.4-6.7c6.4-1.2,12.4.7,14.7,7l-2.6,8.9,4.8,2.7c-5.1,5.6-3.9,11-3.4,17.7l-9.6,2.2,5.3,39.8-5,1.1c11.7,15.7-13.2,22-24.8,15.5-.3,13.2-9.5,23.5-6.4,37.8l21.2,1.5-5.5,14.1-4.6-3.9-4.9,2.2c6.7,5.9,4,7.5-.7,13.2,18.6,1.8,10.9,8.2,12.4,16.2,2.5,13.7,4.7,36.2-2.5,49.3-1.5,2.7-5.9,3-8,5.1s-1.3,6.2-3.4,7.7c-1.8,1.3-5.9-1.3-9.5-.6-15.8,3.3-2.2,23.2-9.1,34.2,28-10.9,33.3-8.6,24.7,21.1-1.2,4-5.8,7.6-6.8,12.9-1.6,8.5,2.6,22.1.4,33.2-1.5,7.5-8.2,13.6-6.4,23.3l-13.3,7.9-6.3-17c-6,3.5-9.4,41-8.2,42.8l24.1-1.2c2,10.2-10,18.9-11,27.2-.8,6.9,7.8,23.2,6,39.4-1.6,14.1-6.6,50.4-26.8,37.4-.3,11.3-16.9,24.1-7.7,33.2,9.3-12.9,17.7-1,29.9-.6.7,12.8.3,25.5.6,38.3,1.6,0,3.2.3,4.8.3,1.7-2.1-3.2-12,5.3-9.3l-8.3,21.2c-4.4-.2-1.7-8.9-1.8-12.1-2.4,0-4.8-.4-7.2-.4-2.9,21.4,3.1,74.5-31.9,60.8-4.2,15.8-11.9,27-9.6,45.2l33.3,1.9c1.5,7.1-2.4,13.4-3.2,20.1-1.1,9.4-3.7,20.8-4.1,28.6-.5,9.1,4.2,31.9,2.5,38.3-1.1,4.4-7.4,4.4-8.8,6.4-2.1,3-.9,9.3-5,13.7-1.5,1.6-4,0-5.4.6-.7.3-.9,3.5-2.1,3.7-9.1,2-5.5-10.8-11.7-5.5-9.3,7.9-11.8,29.5-24.6,36.1,16.5,3.3,30.1-4.9,40.2,13.9,7.1,13.2-4,10.5-5.5,14.5-2,5.5,7.4,16.8-3.5,18.8,4.6,3.3,7.3,37.6,6.2,40.1-3.8,8.9-28.7,13.4-37.8,10.9l-2.4,13.3c29,16.6,59.5,30.8,91.2,42.4-1.1-2.6-2.3-5.3-2.2-7.5.3-7.3,7.7-15.2,8-19.2h-.3c.3-3.6-3.5-7.7-3.9-12.4-1.7-19.7-.6-39.7,5.1-58.3l-23.6-7.4,3.7-17.4,31.5-13.2c-10.9-14.3,1.9-26.8,2.3-39.6.3-8.9-4-25-3.4-36.2.5-8.7,5.7-16.2,6.3-24.9Z"/>
  <path d="M755.4,1107.1c1.3-6.2,0-12.9,1.2-19,2.8-14.4,9.4-25.6,4.6-40.8-4.6-14.8-18.9-15.3-20.4-20.6-1.9-19.2,17.4-19.6,32.1-23.1.4-7-7.1-7.8-6.6-15.9.4-7.3,9.1-12.6,10.4-19.2,1-5.1-2.5-12.1,1.6-18.3-8.7-3.4-1.9-5.6-2.1-12.1-.4-13.9-5.4-29.6,7.1-40.8.9-6.2-.9-2.4-4.1-2.1-8.3.9-23.1,5.1-26.2-7.1-6.1-24,20.6-12.1,32.5-18.8,10-5.6-.8-17.5.4-27.2.7-5.7,5.4-8.1,5.7-13.7.5-9.6-8.3-24.6-7.2-36.8.9-10.5,11.5-19.7,13.3-30.1-8.3-10-25-3.4-28.1-18.6,9.4-20.4,36.8-13.9,53-19.6,4.2-1.5,3.5-3.3,6-6.2-7.2-4.7-23.4,7.3-27.1-3.1-5.1-14.2,4.2-17.5,14-24-7.9-3.6-11.4-11.3-11.1-19.9.2-7.8,4.8-11.1,5.7-16.5,1.9-12.3-.5-25.1,4.4-36.9-6.3-1.5-26.3,2.6-26-7.2,0-3.7,4.9-13.8,8.2-16.4,5.7-4.4,14.2-3.2,16.9-4.5,10.2-4.9,15.5-16.9,31.8-11.2l-1.7,9.5,6.6-11.6-28.3-4.2c2.7-31.8-5.2-64.9,7-95.4-5.2,0-16.3-7.2-16.5-11.7-1.4-14.4,15.3-9.5,22.8-18.2-4.9-8.3-5-15.6-3.3-25.1l16.8-1.7c.3-5.1-7.8-.7-10.6-5.2-5.6-8.6-4.9-54.6,6.9-62.2l-26.5,1,6.5-25.7c8-3,5.1,5.3,9.8,4.6l11.4-4-1-4.9-8.2-2.8,14.4.7c0-7.1-6.7-7.7-6.6-16,0-7.5,5.5-10.4,6.2-16.5.3-3.1-.2-38.3-.6-40.5-.3-1.9-4.5-2.1-4.7-3.1-.9-4.6,9.7-10.1,5.9-20.1l-14.6,4c11.6-12,.2-8-1.4-13.5-2.6-8.9,4.1-18.5,1.1-27.3,3.1,3.4,26.6.8,27.8-.8,6-8.1-3-9.4-3.3-13.4-.2-3.3.4-8.4,1.3-11.6,2.2-7.1,18.5-16.6,8.8-18l-6.2,4.5c-.5-4.9,4.3-6,5.3-10.7.9-4.4-1.7-10.4.8-15.4l-17.4,11.1c-.2-7.5,10.2-9.7,12.3-15.5,3.8-10.8-2.9-23.4,4.4-34.8-4.7-11.8-8.8-.6-13.9-3.4-10.4-5.7-12.8-16.3-8.1-26-9-4.1-18.2-8-27.4-11.6-1.9,9.2-5.3,18.9,0,26l-5.1,2.1,4.3,11c-8.5-1.1-4.5,14-6.5,22-4.5,17.8-31.5,22.1-30.1,32.6l4.8,2.6c-6.8,4.4-8.8,9.5-8.1,17.6,20.9-2.6,29.3-5,25.5,19.5-.7,4.3-4,7.4-4.2,9.2-1.2,12.3,0,29.6,1.4,42.1l-9.4-2.9-.8,13,4.8,2.7c-3.4,8.8-7.9,11.3-13,16.7-1.6,1.7-1.6,6.6-2.9,7.4-2.7,1.7-12.2-2.6-15.6,1.8-2.1,13.8-5.7,27.6-17.3,36.5l12.1-3,.8,7.3,17.4-11c8.2,11.3,9.8,22.1-.6,32.4v2.3c12.5,6-.3,11.6-.6,12.5-4.1,14.5,2.4,30.9-7.2,47.4-9.5,16.3-12.6.3-26.6,2.1,3.6,12.7-4.2,21.6-4.2,34.6s28.7-4.6,28.3-11.8c25.9,13.4,4.8,27.4,2.3,40.2-1.1,5.6,2.7,17.1,2.8,23.8.2,19.8-5.2,61.4-34.6,52.3-3-.9-2.2-7.2-6.1-7.6-.5,12.1,1,23.2-8.9,32,9.7,5.7,16.7-2.5,25.5-4.7l10.3,8.9c-8.6,2.1-5.7,10.4-10.4,16.5-2.9,2.2-8.2-5.7-7.4,1.8,10.1,3.8,3.2,15.4,3.8,21.7,1.2,12.6,1,14.1,1,26.5s10.2,19.6,8.3,26.6c-7.7,12-38.5,9.7-41.5,18-4,11,8.1,18.3-2,29.4l28.9-.9c-2.5,7.9,1.5,17.8.6,24.7-.9,6.7-6.9,15.6-7.9,24.2-.9,7,1.4,14,.7,18.9-.3,1.9-9.4,26.5-10.6,28.3-4,6.1-12.9,8.5-19.3,4.1-2.6-1.8,0-8.2-6.8-6.4l-1.9,37.2c0,2.5,17.6,15.5,23.5,9.6,2,9.9-4,21.2-4.1,29.8,0,15.9,2.4,13.9-1.3,33.9-1.4,7.3-5,41.5-15.5,41l-9.9-5c-8.9-1.5-9.7,22.5-16.7,28.8,18.8,13.8,38.1-11.6,34.8,23.4-1.6,17-7.2,34.3-9.8,50-1.3,7.7-.8,37.4-6.8,40.6-11.8,6.1-14.6-3.5-21.1-9.5l3.8,19.4-4.6-2.7-8.7,28.4c12.4-5.3,22.2,4.4,33.6-.7l-.6,15.3c-14.5,3.7-7,4.7-7.9,14.2-.7,7.7-1.6,35.2-1,47.6,22.1-3,43.9-7.3,65.2-12.7-.2-2.1-.5-4.2-1-6.4l-19.4,3.8c-7.8-14.9,9.6-30,22.3-34.7,6.7-2.4-2.3,7.8,4.5,5,2.7-1.1,4.7-4.2,9.1-5.1,7.5-1.6,15.6,1,21.4-4.1-14.1-.8-24.4.5-38-5.7-2.3-10.2,6.5-18.7,8.3-27.2Z"/>
  <path d="M659.7,123l.8,5.6c.2-1.5,0-3.4-.8-5.6Z"/>
  <path d="M522.9,1004.2c1-13.3,6.5-14.7,17.8-17.3,1.9-5-5.4-7.2-5.7-10.9-.8-9.2,1.5-38.4,4.5-47.4s8.4-8.1,7.4-14.6l-10.7,7.7-2.1,7.2-6.5-14.7c-5.4,1.1-4.8,5.5-2.9,9.4l-12,1.9c-4.7-12.4-3-23.2,4-34.7,7.5-3.3,29.5,2.3,32.8-4.2.6-1.3-3.7-21.7-3.4-28,.6-12.4,11-25.2,8-39.1l-4.9,2.2c-2.5-12.1,7.6-20.1,4-31l7,2.8c.7-3.9,1.3-9.1,3.1-12.5,1.4-2.7,5.6,0,4.9-3.8l-14.1-.4-2,9.2c-3.1-11.4-11.3-4.7-17.1-11.6l7.7-19.1c8.5,5.1,9-5.3,11.2-5.2.5,0,2.9,4.8,6.6,4.7,19.3-.2-.6-42.2,22.9-39.3-18.9-25.9-4.5-48.9-3.5-76.8-10-7.8-36.8,5.4-37.6-13.2-.6-14.3,34.2-20.2,44.7-25.3l-1.5-4.8-5.4-1.5c-.6-9.3,6.1-19.8,6.2-28.3,0-6.3-.4-22.4-.9-28.8-.7-9.4-8.2-19-.6-28.9,2.5-3.3,7.3-2,7.3-5.8-3.9,1-8.8-4.4-10.6-4.5-3.2-.2-17.6,14-22.3-2.7,2.6-24.5,27.8-20.2,33.7-33.7.8-1.9,7.2-21.3,7.3-22.5.7-5.8-4.2-10-3.6-14.1.5-3.1,4.8-6.1,5-9.7,0-1.2-4.3-1.1-4.7-3.2-.4-2.1-3.1-22.2-3-23.3.8-8.3,8.7-10.7,9.8-17.9l-10.8-2.7-2.6,4.6-17.6-4.6c5.3-25.6,12.4-16.5,26.5-23.8,7-3.6,16.3-25,16.6-32.2,0-2.7-4.9-25.1-5.8-27.6-1-3.1-3-5.1-1.3-9.5l4.5,5c-2-14.4,13-30.3,3.4-43-4.2,8.9-19.6.6-20.5,1.3-.7.6,0,9.3-5.3,9.3-5.3-16.3,17.5-45.8,35.5-36.6-9.9-11.8-7.2-32.8,6.8-39.3-6.3-2.4-7.4-16.7-9.2-18.1-2.1-1.6-7.5,1.3-6.5-3.1,15-3.8,10-28.8,15.3-42.7,1.7-4.6,8.1-5.6,9.1-11.3l-9.8,4.3-4.4-7.4-3.2,11.8c-5.9-1.4-13,.2-11-8.4.3-1.1,4.8-12.8,5.4-13.2,2.6-2,20.5,3.2,22.9-6.4l4.7.3-1.5,4.7,9.7-3.1-9-10.1,7.2-.8.4-7.2-14.5,1.6,1.1-21.6c5.4,5.5,13.8,8.8,14-1,0-4.8-4.9-6.1-5.8-9.9-1.7-7,3.3-15.7-4.1-21.4l9.7-3.1c.6-1.1.8-1.9.7-2.6-17.6-1.6-35.5-2.4-53.5-2.4s-11.8,0-17.7.3c-1,4.6-3.3,8.2-10.9,9.6-4.6.9-19.9-4.7-23.2-7.7-.7,0-1.3.1-2,.2-1.1,8.5-6.2,15.1-7.3,22.3-.9,5.9,2.2,13.3-1.1,20.1l38.2,4.4c2.1,8.1-7.1,17.3-7.9,22.8-.7,5,7,24.4,7.6,31.1,2.2,24.7-6.3,50.9-35.7,38l4.7,3.8c1.4,6.1-14.2,13.7-15.3,21.3-.4,2.8,6.8,11.3,8.6,12.2,1.3.6,21.8-7.1,26.3,4.1l-3.9,26.9-9.6-.5c-1.9,7.4,7,4.8,8.6,11.7,3.1,13.5-.8,22.2-3.1,33.6-.7,3.4,1.4,6.9.3,10.3-2.2,7.1-14.6,14-20.8,17.7-26.9-26.1-17.8,14.2-28.6,28.9,0,5.6,20.5.2,25.2.1,6.8-.2,13.6.9,20.3,1,1.7,13.5-12.2,24.6-11.7,36.7.4,8.5,8.4,21.3,13.2,28.3l-7-2.8c-1,8.8-1.8,30.3-11.4,34.3-9.9,4.1-22.2.6-18.6-11.8l-7.2-.4c-.9,10.6-.9,26.7-4.8,36.5-1.9,4.7-12.9,9.5-3.7,11.2,6.3,1.2,15.7-.7,21.2,1.5,12.3,4.9-2,25.9-2.7,34.4-1.6,18.4,4.7,19.8-1.5,45.9-.6,2.7,1.6,6.2.2,10.5-5.2,15.7-26,5.8-28.2,19.2-.3,2.1,0,25.8.7,27,.5.9,6.5,2.4,8.9,4.5,10.2,8.7-.4,11.2-.3,16.4.2,7.8,11,25.3,9.6,36.8-.8,6.5-9.2,15.9-10.2,21.8-.7,4.3,2.8,9.5.3,12.8-3.9,5-15.4,2.7-20.7,1.3,1.4,14.8-9,25.3-6.9,40.5,11.1,1.3,18.3,2.2,26.7-5.8l-5.3,10.5c14.5,5.7-2.8,20.4-1.8,33.6.8,9.8,6.4,25,5.1,36.4-.4,3.8-5.1,6.4-5.4,11.6-.4,5.8,5.8,9.7,4.3,15.8-12.7-2.3-10.9-.3-16.5,8.9l-22.1-1-6.1,25.7,6.9.5-5.3,9.3c8.6-3.8,16.4-6,25.1-1l3.9-4.7c5.1,10.7-6.5,17.5-7.8,27.5-.5,3.8-.4,30.4,0,35.5.7,11.3,11.6,33.4-10.6,37-10.6,1.7-7.2-4-11.3-8-1.7-1.7-4.4,0-5.6-.9-1.1-.7,1.3-5-2.6-4.1,2.1,10.5-16.2,42.2-7.5,49l33.5,6.4,2.1,2.7c1.4,6.5-4.9,12.9-5.5,18.9-1.4,13.4,6.4,39.5,4.3,52.8-.6,3.7-7.5,15.4-8.2,21.3l-31.5,9.5c1.1,12.6-5.1,19.7-9.1,30.5,2.1,2.3,48.1-25.3,40,20.2-1.7,9.3-12.5,14.5-14.5,21.7-.3,1.2-.2,2.5,0,3.8,11,2.9,22.2,5.5,33.5,7.8-.7-1.5-1-3.4-.9-5.7l.4-.4c1.3-18.6,22.4-14,34.2-22.8-4-9.8-7.4-17.8-4.7-28.6,2.2-8.8,10-7.2,11.3-12,.8-2.9-3.9-12.2-3.5-19,.6-10.2,10.1-34.2,9.5-40.4-.3-2.8-.9-5-3.8-6.1l-24.7.7c-1.6-8.4-3.8-16.6.8-24.5l3.3-2.3,25.9-.2c1-10.2-6.9-13.4-6.2-23Z"/>
  <path d="M666.4,975.3c-5.6-2.9-13-11.3-13.5-17.7-.3-3.8,3.5-27.1,4.4-32.9,1.1-6.9,4.2-13.5,5.6-20.4l-15.1-10.4-8.8,9.1,2.9-13.3-4.3-2.2,2.9-13.3c4.8,10.4,23.6,4,26.2-2.6,2.1-5.4.4-14.6,1.6-21,.8-4.4,4.6-7.5,5-11.8,1.2-12.8-5.8-34.9-4.6-48.4.7-8.2,7.4-12.4,8.4-20-12.5,2.5-14.2-10.5-26.1-6.1l-4.1-15.8c14-12.4,25.7-1.6,41.2-8.9,1-6.1-2.7-11.9-2.5-18,.9-25.3,7.1-47.4,11.9-71.7,1.1-5.9-4.3-13,3.6-20-16-1.3-51.2,2.4-37-22.1,11.5-19.9,23.3-4.5,29.6-5.3.8,0,13.2-6.6,13.9-7.3,12.6-11.6-.5-17.6-2.4-25.2-.7-2.8-3.5-30.7-3.3-33.2.5-7.2,6.3-12.4,6.8-16.4.4-3.2-4.2-6.1-3.8-11.5.5-7.3,8.8-14.7,8.4-22.7-15.9,14.3-35.6,15.5-37.6-10.1,13.5-10.5,23.3-15.3,40.1-16.3,3-.2,10.1,2.7,8.6-3.1l-11.8-5.5,3.6-44.5,10.8-49.6-33.7.7,3.5-18.9,9.4.3.8,7.2c11.2-15.1,32.7-5.2,41.7,7l-8.4-20.9,9.8-5.4c-10.5-5.9-27.3-11.7-10.8-23.4-19-12.4-8-29.3-4.7-46,.9-4.5-1.5-10-.6-13.4,1.9-6.9,11.6-6,11.5-13.5l-20.3,1.4c-3.3-4.1-15.9-3.7-15.5-9.3.3-3.4,7.8-19.7,10.8-21.1,7.1-3.3,13.2,3,19.7,1.9,6-1.1,12.2-10.4,19.2-10.6-21.5-14.5-10-25.1-10.6-44.2-.3-11.4-2.9-19.7-7.3-30l7.2.4-9.2-6.5c.7-4.5,6.5-2,10-6,5.4-6,4-18,10.7-24.2-4.4-1.6-6.1,3.5-9,3.9-3.6.4-6.3-4-9.3-4.2-5.9-.4-13.5,2.7-20.2.7-2.6-23.4,30.7-16.4,43.7-29l-4.6-29,17.5,10.5c.6-2.6,3.6-4.7,7.8-6.3-3.7-1.2-7.4-2.4-11.2-3.5l-6.9-.4c-.2,0-.3-.8-.4-1.8-30.3-8.8-61.6-15.2-93.7-19.1-1.3,12.2-.5,22-7.5,33.6l10.6,1.9c3.4-.8-1.8-10.1,7.7-7,13.2,11.6,1.5,20.6,9,35.3-4,5.3-13.6-4.9-14.2-4.3.6,7.8,7.5,9.7,8.5,18.6,1.6,14.6-4.5,20.2-5.7,28.8-.5,3.6,6.8,9.5,3.2,15-8.6,2.6-14.4,11-24.1,8.8l-.9-6.5c-.7,6.4-7.9,7.5-8.7,9.8-1,2.9,2,9,1.5,14-.7,6.3-7.1,12.9-5.8,20.4,1.9,2.1,42.1-17.3,24.8,14.9-1.8,3.3-13.6,5.5-8.2,12.4l8.7-6.7-3.2,16.7,4.7,1.4c-2.6,6.1-10,6.5-10.1,14,0,4.4,2.6,22.4,3.2,28.8.8,7.7,10.3,11.1-3.6,19.1-9.7,5.6-17.4,3.8-26.2-2.4-1.6,1.7,10.5,19.9,10.6,26.9-4.1-4.7-5.1-7.2-8.3-11.8-1.4-2.1.2-4.4-5.3-3.3v24.1c3.1,5.8,13.6.2,13.6-8.9,0,0,0,0,0,0,3.9,4.6,15.2,14.8,15.3,19.2.2,5.5-6.1,8.3-6.9,11.7-.5,2.2,6.9,20.6,7.4,24.5,1.2,9.7-6.8,57-15.7,59.9l-4.4-7.4c-4.3,7.5-10.4,10.2-18.3,6.2l-6,23.7c1,.9,23.7-6.4,26.1,2.9,1,3.9-2.8,10.9-3.2,16.2-.3,3.9,2.5,8.4,1.9,12.2-.7,5.1-7.1,6.5-7.9,11.7-1.1,6.9,6,17.3,5.9,24.5,0,4.5-2.7,8.9-3.1,14-.5,6.4,6.6,15.8-4.5,19.1-1.2.4-15.1.7-16.5.4-1.6-.4-1.7-7.9-8.5-5.3l-6.8,38.1c7.6,2.6,25.6-5.3,30.2,1.5,1.5,2.3-2.7,20.4-2.8,25-.2,7.3-.8,15.4-.9,21.9,0,5.2,6.6,6.3,6.2,14.2-.6,11.3-9.6,38.6-20.7,43.2-4.8,2-13.9,1.4-16.5,4.5-2.9,3.3-3.2,14.6-5.2,19.6-1.5,3.8-15.6,14.3-1.3,13.8,8.7-.3,17.9-8.1,22.4.4,5.1,9.7-.6,18.5-1.1,28.2-.9,16.6,3,51-4.5,63.4-3.3,5.4-12.9,10.5-19.2,8.9-2.3-.6.3-7.5-6-5.3-6.7,14.5-3.1,30.8-16.6,41.2l28.8.3c0,5.4-3.2,10.1-3.4,15.4-.8,18.8,5.2,37.6,4.6,55.5,0,3.9-3.7,22.5-5.9,23.9-4.9.9-13.3,1.6-17.7.2-3.3-1.1-2.7-10.7-7.5-5.3l-10.6,42.7,31.1,1.7c-1.6,16.9-.6,34.6-2.7,51.5-1.3,11-4.8,29.1-7,40.4-3.9,20.1-14.3,8.6-23.7,16.8-7.5,6.6-5.7,21-16.7,24.5,7,11.3,14.3,2.9,17.8,3,1.8,0,9.7,7.3,15.4,4.7-7.9,22.3,4,51.1-1.3,73.8,10.8.6,21.6.9,32.6.9s21.9-.3,32.8-.9c1.8-4.8,4.1-9.5,7.3-13.7,1-7.3-2.5-1.3-3.5-1.3h0c0-.1-39.5-2.1-39.5-2.1,11-26.3,11.6-16.4,29.8-18.9,3.9-.5,20.5-5.4,22.1-8.4-8.6-4.2-13.5-6.9-13.6-17.6,0-8.4,4.8-13.1,4.9-16.5.4-8.9-4.9-31.4-4-43.3.4-4.7,8.7-30.4,7.7-32.3-5.1-5.2-15.2-3.7-15.1-12.7l-13.6,8.9c-7.6-2.6-2.1-28.2,10.3-25.6,3,.7,5.6,4.6,9.6,4.5,4.7,0,12.2-7.6,18.7-5.8l-3.1-27.5,14.7-11.6Z"/>
  <polygon points="980 156.3 979.5 165.9 986.7 166.3 984.7 156.6 980 156.3"/>
  <path d="M891.8,987.8c-.7-.6-3.6-16.7-3.7-18.7-.2-7.2,5.3-7,6.9-11.5,5.3-14.2-6.8-36.2-4.2-52.7,1.3-8.5,9.6-9.8,8.5-18.6-14.4-3.7-19.8-18.3-5-25.7,5.8-2.9,11.6-.2,15.9-5l-8.4-20.7,9.6-6.2c.4-6.7-3.4-12-3.5-18.9-.4-16.4,2.5-42,6-57.1.7-2.9,5.7-4,4.6-8.5-5.7-2-27.2-2.3-28.2-7.7l5.8-17.2,28.7-3.7c2.7-6.2-3.9-4-4.5-6.6-2.8-12.5,7.3-21.6,8.8-30.7,1.1-6.7-1.7-12.5-1.6-19.1,0-4.7,3.9-10.9,3.2-14-.8-3.6-6.4-3.7-6.8-4.2-4.3-5.6,7.7-2.7,5.2-9.3l-7.3,2,6.1-26.1c-.9-1-22.5,6.3-26.2-2.6,8-5.4-.7-13.5,5.7-21.5,9.5-11.8,15.7-3.4,20.7-3.3.7,0,12.2-3.6,12.8-4,8.7-5,1.7-11.4,1.4-17.1-.3-8.2,3.4-15,3.4-21.3,0-21.2-8.3-44.5,3.5-63.7l-27.2-1.7c-10.2-7.2,1-9.6,1.4-10.8,1.1-4-.2-8.6.8-12.7,12.2,2.8,16.4-10.8,26.5-11-2.2-10.2,4.9-20.6,5.9-27.4,2.1-13.8-4.5-36.4-3.4-50.4.8-9.6,8.5-17.3,8.1-27.2-10.4,8.4-22.2-2.5-21.1-14.3.9-9.1,25.1-11.9,32.3-16.4.3-3.6-4.2-2.9-6.5-6.6-8.2-12.9.4-16.2,1.4-28.5.8-9.8-3.4-21.9-2.9-31.4.6-10.5,10.9-28.2,1.3-34.8,3.2,9.6-7.3,7.5-9.8,4.3-3.7-4.6,4.7-4.5,5.1-6.1,1.6-5.1-.7-12.4,1.4-18.3.9-2.4,15.2-20,17.6-24.8,2.9-5.8,3.6-12,5.6-16.8-18-15-36.8-29-56.5-41.9-6.1,7.8-14.3,12.9-26,11.5l-1.7-14.5c-8.4,2.2-3.5,10.4-4.3,15.4-.3,2-3.3,3.8-3.7,6.8s2.3,6.9,1.9,9.5c-.2,1.1-12.5,9.8-13,16.5l40.9-1.5c.9,10.2-12.3,17.4-13.1,26.8-1.2,15,4,34,4.4,48.5,0,2.8-1.6,18.6-2.6,20.3-1.7,3.1-13.9,11.3-17.2,11.1-5.6-.3-6.6-8.7-12.8-7.9l-11.7,41.5,11.6,6.5-2-7.3,16.8.8,1.3,21.7-10.5-5.3-1.4,4.7,4.5,1.3-2.8,7,5,3-2.9,8.1,7.3-2c-1.1,11.9,4.3,20.3,3.3,32.6-1.7,20.5-18.8,39.7-37.4,23.3l-6.9,40.5,27.4-.6c10.9,9.1-3.5,20.8-4.6,29.3-2,16.2-1.2,34.6-3.1,52.8-.6,6.1,6.1,14-2.6,17.4-2.4.9-15.8,2.5-17.7,1-6.3-5.2,4.8-23.8-5.9-23.3,3.8,9.8-4.4,17.4-5.4,25.3-.5,4.1,1.8,8.7.9,13.9-1.4,8.1-9.1,12.6-10.6,20.1,4,4.2,31.2-18.2,36.9,9,4.7,22-8.3,37.8,2.9,56.9-8.1-.5-5,14.5-1.6,15.5l15.2,1.9c-12.3.6-23.4,11.8-35.6,11.5-10.7-.3-12.8-7.8-22.3-8.5l-7.1,44c8,4.8,14.7-8.5,23.1-7.3l16.6,14c-.2,9.2-6.6,18.2-7.9,26.1-1.6,10.4-.9,23.5-2.1,33.6-.9,7.3-2.3,25.5-4,30.5-3.5,10.1-16.3,6.4-23.4,12.2l-7.6-7.2c-6.1,16.5-1.6,32.5-.3,49.4,7.4,9.1,6.8-.5,9-.9,4.4-.9,10.5,1.1,15.2.8,1.1,6.8-3.9,13.8-3.5,20.1.4,6,7.3,10.5,8.1,15.4,2.5,16.9-4.5,27-9.8,41.2-2.2,5.7,3.6,7.2-5.5,14.1-3.5,2.7-8.2,4.5-12.4,5.9-5.1-3.7-7.4-10.9-15.1-9.7,5.5,12.8-9.1,22.2-8.5,36.9.8,6.5,24.5,3.7,30.4,5-.6,24.7-3.5,52.4,3.5,75.8-2.9,3.7-7.8,23.9-8.9,24.7-1.1.9-5.5-.8-7.5,0-2.7.9-2.4,4.3-5,5.2-5.2,1.8-15.3-.3-17.8,3-1.2,14.9-12.6,26.6.6,38.6l1.6-7.1,7,.5,2.1,9.6,9.8-4.3c1.9,2.9-2.5,18.2-2.4,22.8.2,10.3,3.2,17.9,2.2,30.6,15.2-5.7,30.1-11.9,44.7-18.8.3-.2.7-.5,1-.7,2.7-1.9,5.2-2.9,7.5-3.3,5.7-2.8,11.3-5.6,16.8-8.5-4.4-2.6-9.8-4.6-10.4-10.7v.4c-.9-11.6,12.9-21.6,13-23.2,0-.7-5.4-6.9-6-12.5-.9-8.1,1.3-15,3.4-22.5l-4.9,2.2c-2.7-2.2.5-23.4,1.9-27,1.7-4.5,8-5.3,7.3-10.9-19.9,7.3-32.8-3.8-22.3-24.8,8.8,2.5,20.8-7.5,25.5-8.1,5.1-.6,12.5,6.5,17.7-1-2.5-6-12-2.9-13.9-4.6Z"/>
  <path d="M1037,777.9c1.5-10.1,7.8-22,8.6-33l-33.8-10c-6.7-25.3,22.4-16.9,33.3-21.4,12.1-4.9,4.9-20.4,6-28.6.8-5.7,5.6-8.7,6-14,.4-5.5-3.8-9.8-4.1-14.8-1-13.9,2.2-29.1-2.7-43.2l9.4,4.1c-.3-21.6-17.6-12.6-29.8-22.1l8.6-21.6c10.1-1.7,18.4-2.5,28.2.8,2.9-13.5-6.8-34,7-41.7-4-7.2-7-25.2-7.7-34.2-.7-9.3,1.8-20.8.9-30.8l-3.2-3.6-6.8,1.3-3.5-5.7c6.1-9.1,16.5-8.6,24.6-13.3,20.4-11.8,8.5-19.3,11.4-35.5.9-4.9,5.6-9.3,5.3-11.3-.2-2.1-6.5-7.3-8.4-10.8-11.2-20.3,1-38,5-58.2l-32.2-6.4c-6.1-6.9,11.4-18.4,16.6-19.8,6.7-1.8,13.2-1.1,19.2,2.3l4.2-9.4,9.4,4.7,6.2-5.1c-2.8-2.7-9.3-4.7-13-4.4-6.8.5-4.2,6.9-8.8,6.9-4.5-13.8,3.2-21.3,5.8-32.8,0-.4.2-.8.2-1.3-18.4-27.3-39-53-61.5-76.8-1.5,3.9-3.1,7.5-3.5,10.8-1.2,10.5,3.2,24.6-3.1,36.3-12.3,1.4-39.3,16.3-28.9,30.4,10.5,14.3,24.4,2.5,25.2,3.6-1.9,11.5-6.4,23.4-8.1,34.8-1.4,9,5,16-6.9,24.5,11.3,1.9,13.4,28.8,8,35.5-9,11-21.1,11.2-31.5,1.8,3.8,13.3.7,24.6-4.4,37-.4,5.4,18.3-2.3,20.2-2,16.5,2.1,3.1,17.6,2.6,24.8-.3,5.2,1.2,19.9,1.8,26,1.9,17.7,10.9,33,1.6,50l14.5-2.9c-7.6,3.8-26.2,13.3-33.7,13.5-7.4.2-14.4-10.3-20.7,4.8-1.7,4.2,1,8.2-.3,12-1.4,4.2-13.5,9.6-3.8,11.2,7.6,1.3,15.2-2.6,22.8,1.1l4.1-9.4c14.2,9.9,2.7,29.6,1.3,44.4-1.5,15.5,1.8,42-1.3,54.2-2.3,8.9-9.9,19.1-18.2,23-1.6-6.8-7.4-4.8-12.7-7.9-.8,4.8.4,10.6-.9,15.1-.6,1.9-4.4.4-5.2,4.8-.9,4.8.2,10.7-.6,15.8,12.6-1.5,10.7-7.2,16.4-16-1.6,9.7,12.3,12.6,12.7,14.1,2,9.1-6.8,13.6-7.7,18.9-1.4,8.5,1.2,36.8,1.8,47.8.2,3.6,2.6,6.5,3.4,9.9-9.1,12.6-17.6,30.5-34.5,33.1l-2-9.7c-5.4-4.5-6.5,37.9-14.1,41.4l29.8,7.3c3.5,9.4-2.5,18.7-2.9,27.5-.3,8.2,3.7,20.3,3.2,28.9-.6,10.7-7,39.7-21.7,38.2l-15.7-7.4c5.9,13.1,1.2,23.2-1.8,35.9,8.9-4.2,34.7,9.8,31.7,18.5-1,2.9-10.3,12.5-9.4,13.8l13.8,11.6-9.7,3.1-6.7-9.9c3.4,8.1,10.6,20.5,12.1,28.8,3,16.2-14.2,32.5-18.8,47.4l-21-5.5.7,33.7-9.6-.5c-4.7,14.9,10.4,9.8,18.7,6.6,7.1-2.7,9.3-12.3,16.6-4.2,20.5-14.1,40.1-29.4,58.6-45.9,0-1.3-.2-2.4,0-3.2l-.4-.2c.6-5.2,10.9-24.6,15.8-28.2-3.9-7.4-7.8,1.5-12.8.2-.9-.2-15.1-10.3-15.6-11-6-8.1,6.6-15.1,1.5-25.4,8-.3,21.2-2.9,28.1,2.1,2.4,1.7,1.4,8.2,7.5,6.9l2.6-10.8-9.2-2.7c-6.3-5.3,1.8-23.7,1.7-31-.2-13.1-7.6-39-6.3-51.5.5-4.3,6-7,4.8-12.4-10.8-3-21.6-7.3-27.9-17.1,4.3-12.5,39.8-6.7,41.5-12.7-3.4-12.3,5.4-26,6.1-35.3.9-11.4-2.1-25.4,0-38.6Z"/>
  <path d="M194.4,945l-23.5-3.9c-1.8-19.4,20-30.7,35.2-37.5-11.6-8.6-5.8-21,3.9-28.6-12.3-9.2-6.3-14.9-5.7-27.9l-16.8-.9c1.5-7.2,18.4-5.3,19.4-6.3l1.8-33.4c-21.2-.2-25.6-7.9-17.8-27.4l25.2,1.5c4.1-15.9-7.6-26,12.5-34.3-18.5-8.5,2.7-76-.8-78.1-6.4,1.4-33.8,5.3-33.4-5.2.5-13.8,12.8-8.6,20.5-10.4,3.1-.7,5.4-4.6,8.6-5.7,3.4-1.2,17-3.9,17.7-4.5,4.8-4.5-7.5-5.9-9.4-8.6-5.4-7.8.9-18.3,1.3-26.3s-3-15.1-3.4-24.5c-.6-14.5-1.9-25.5,4.5-39.4-5.1.9-25.2,3.6-26.4-3-4.1-23.5,18.7-15.9,29.9-29.6-6.1-15,3.3-22.6,6.3-33.5,1.1-3.8-1-13.5-.8-18.8.2-7.6,4.9-15.5.2-22.8l-11.5,13.8,11.5-34.1-4.8-2.8,5.2-8.2c-14.6,3.4-28.3,8.4-25.9-12.1,2-17.8,11.4-10.4,22.5-13.2,3.3-.8,16-6.4,17-9.2,1.5-4.1-1.7-8.6-1.2-11.7,3.5-22.2,2.6-29.2,2.4-50.5-.1-15.6,1.1-27.7,9.1-41.4l-27.5,3.2c-5.3-1.9-5.1-16.5-2.3-21.1,12.2-3.5,36.8-7.5,35.5-22.7l-6.2,4.5c-1.5-7.4,7.1-12,8.1-17.8,1.1-6-2.6-13.7-1.5-21.5,1.7-12.1,2.7-18.2,4-30.9.7-7.1,6-12.9,6-20.2-3.1-3.3-30.8,12.3-27.4-15.6,2-16.2,26.7-15.1,26.7-19.3l-9.2-7.7v-.4c-21,13.7-41.1,28.6-60.2,44.7.8,1.3,1.5,2.4,1.5,3.2,0,2.2-5.3,10.2-6.5,14.6-1.6,5.7,0,11.9-2.5,17.5l-19.2,3.8-4.8-7.6c-10.5,16-12.4,31.4-12.4,49.8l27.4,8.6-5.2,6.9,4.8.3-.2,4.8-9.8,3.2,8.6,7.5-7.9,61.7c-1.8,4.3-5.8,6.8-10.5,6.1-8.8-1.3-4.8-11.3-12.8-10.4-2.8,7.8.3,17.4-1.7,24.6-1.6,6-12.7,11.9-3.9,13.6,7.8,1.5,33.8-3.7,34.7,3.1.6,4.4-17.7,25.8-6.7,35.9-2.8,20.4,5.3,42.8-3.1,62.2-8.8,7.7-24.7,1.6-26.8,3.1-4.1,2.9-10.6,27.9-16,33-.3,5.2-.9,3.1,2.3,2.6,11.5-1.8,22.1-6.5,33.8-4.3.9,15.8-14.6,32.9-10.9,47.5,1.4,5.5,6.9,9,7.6,16.2.5,5.4-1.6,23.7-4.1,28.1-7.3,12.4-18.8,7.4-25.5,12.2-7,5.1-5.6,14.5-8.2,21.3-1.1,2.9-11.9,12.4-3.6,11.3,13.6-1.8,24.1-3.6,37.7,0l-12.2,86.6c-3.5,9.9-18,4.4-25.9,5.5l-9.6,38.8,28.9.3-5.6,15.3,7.4-3.2c1.8,8.7-5.2,14.9-6.1,22.5-2.5,20.7,13.8,70.9-24.8,61.3-1.7-1.4-3-19.2-7.7-11.4-1.7,2.9-6.7,32.6-8,39.3-.2,1.2-.1,2.4-.2,3.6,12.5-10.2,20.6,13.7,35.7,6.7.4,12.6-4.7,25.4-13.8,34.1,8.3,1.7,1,26-1.6,33.5-.9,2.6-2.8,5.1-4.4,7.3,1.3,1.7,2.6,3.5,4,5.2,6.3-1.7,6.8,1.9,4.8,6.2,14.6,18.3,30.1,35.7,46.7,52.1.4-2.1.8-3.9,1.2-5,1.3-3.7,6.1-5,7.2-9.9l.5-.3c1.9-8.4-.7-27.5.9-37.5,1.7-10.5,5.9-18,7.2-28.1Z"/>
  <path d="M103.6,709c1.5-5.4,10.2-10.3,6.4-15.8l-8.5,4.2c-.7-12.2-27.3-7.4-24.9-21.2,3.1-17.6,31.4-15.5,43.8-24.6-19.5-13.1,1.8-24.3,3.8-33.9.5-2.3-5.5-9.5-6-16.6-1-13.4,1.3-33.8,4.9-46.6-12-.7-22,5.4-31.1-5.6-2.1-13.2,24.4-19.9,34.9-20.6.2-6.1-2.6-11.9-1.7-18.1,1-6.9,8.2-18.9,8.6-28.5,0-1.7-5.3-1.6-6.3-5.3-3.6-12,3.6-43.9,9.7-55.7l-21.5-4.6c-8.2-22.3,23.1-21.2,33.1-34.5l-13.3-13.1,12-18.3c-17-17.4-1.7-44.4-1.9-66.2l-6-2.7,2,7.3-22.7-5.8,2.1-15.7,34.4-15c-16-12.4-1.3-18-3.2-31.3-.6-3.9-3.7-7.6-6-12.4-20.3,23.6-38.9,48.8-55.4,75.4.3,2,.4,3.9.3,5.8-.8,13.5-7.1,31.1-4.8,44.3-9.3-.8-17.7-.8-24.2,1.5-4.1,8.3-8,16.7-11.7,25.2,7.4-5.7,17.3-4,25.9-2.8l2.8,2c3.8,10.5-7.1,17.9-5.2,28.8l4.9-.9c-5.2,21.2-5.3,45.6-10.7,66.6-1.2,4.8-4.2,6.4-7.6,9.3l4.5,5c-3.5,1.4-13.7,18.9-17.6,14.7l6.7-11.9-10.5-7.5c-2.7,7.9-2.5,16.4-4.2,24.5-.5,2.5-9.4,16.8-1.9,15.6,27.9-4.5,14.4,13.2,15.3,26,.6,7.7,7.6,17.6,7.9,27.3.3,11.7-5.3,23.5-4.7,35.6l-13.9,3.6c-10.6,20.7-28,39,9.8,36.1,1.9,8.1-5.2,15.9-5.6,22.5-.5,7.5,2.7,24.6,1.5,32.7-2,14-6.4,29.4-17.6,38.8-4.9,4.2-9.2-1.4-12,4.3,1.2,5.5,1.1,9.9.3,14,1.9,7.6,3.9,15.2,6.1,22.6l15.6-1c-5.3,12-2.7,25.4-3.5,37.9,12.9,35.5,28.9,69.4,47.9,101.4h0q0,0,0-.1c2-7.9,6.5-17.7,7.4-24.8,1.5-11.9-4-22-3.4-33.8.5-10,5.2-17.7,6.4-27.3l-21.7.3-1.4-19.1,29.3-7.3c-6-14.8,2.2-31.1,2.4-44.2.2-13.7-5-22.8,0-40.5Z"/>
  <path d="M1.5,573.8c.2-.5.4-1,.6-1.5h-.6v1.5Z"/>
  <path d="M.9,603.8c0,8.1.3,16.3.6,24.4.3-5.2.6-10.8.5-13.6,0-3.7-.5-7.2-1.1-10.8Z"/>
  <path d="M.8,603.1c0,.2,0,.5.1.7,0-.3,0-.5,0-.8h-.1Z"/>
  <path d="M12.3,506.7c.1-5.2-.6-10.6-1.4-16.2-3.2,17.5-5.7,35.3-7.4,53.3l9.8-2.1h0c-13.6-12.1-1.3-22.7-1-35Z"/>
  <path d="M281.3,613.2h0c0-.1-4.7-.3-4.7-.3l-3,11.9c5.2-1.8,8.4-6.1,7.8-11.6Z"/>
  <path d="M314.6,104.1l-9.5-1.7-.2,4.8c4.4.8,7,.5,9.7-3.1Z"/>
  <path d="M865.6,370.4c.2,3.5,1.4,7.4,4.6,3.8l3.5-22.1-9.1-9.4c3.4,9.3.3,18.8,1,27.7Z"/>
  <path d="M850.6,476.6c-1.8,5.9-6.3,12.7,2.8,14.5,6.6-3.8,5.6-14.9-2.8-14.5Z"/>
  <path d="M829.4,607.6l-16.9,2.7c-.2,5.1,18.7,6.1,16.9-2.7Z"/>
  <polygon points="943.9 764.9 947.1 748.2 939.8 751.6 943.9 764.9"/>
  <path d="M563.6,1009.7l-14.5,10,6.1,13.5c4.9.5.7-6.5,1.7-9.8h0c1.2-4.1,8.2-7.5,6.7-13.7Z"/>
  <polygon points="598.7 468.3 610.6 468.9 610.7 466.6 598.9 463.6 598.7 468.3"/>
  <polygon points="679.9 56.8 679.7 61.6 686.8 61.9 687.2 54.8 679.9 56.8"/>
  <path d="M466.3,752.3l-.9-4.8c-2.7,2.7-8.2,1-10.4,2.4-1.1.7-8.1,11.8-2.4,13.8h-.1c2.8-7.6,4.5-12.3,13.8-11.4Z"/>
  <path d="M1093.1,573.1l.4-7.2c-4.4-.8-8.3-.4-9.8,4.3l9.4,2.9Z"/>
  <path d="M276.9,1073h-.1l2.1,6.1,7.7-9.2c-4.3-.8-7-.5-9.7,3.1Z"/>
  <polygon points="354.5 684.1 361.5 686.9 359.6 677.2 354.6 680.5 354.5 684.1"/>
  <path d="M773.5,196.2h0l5.3-9.3-9.6-.5c-.9,4.2-.4,8.4,4.2,9.8Z"/>
  <path d="M120.5,888.4c2.8,15.2-13.4,19.4-13.7,32.9l14.5-13c.5-6.4,7.7-16.1-.8-19.9Z"/>
  <path d="M144.3,656.4c-8.8-13.9-24-7.3-11.1,6.7,2.9-5.1,4.5-7.6,11.1-6.7Z"/>
  <rect x="154.8" y="379.3" width="4.8" height="7.2" transform="translate(-233.2 520.5) rotate(-87.1)"/>
  <path d="M167.5,299.6c-4.8,1-5.7,4.8-5.2,9.3,4.8-1,5.7-4.8,5.2-9.3Z"/>
</svg>