<?xml version="1.0" encoding="UTF-8"?>
<svg id="Layer_1" xmlns="http://www.w3.org/2000/svg" version="1.1" viewBox="0 0 1000 1000">
  <!-- Generator: Adobe Illustrator 29.0.0, SVG Export Plug-In . SVG Version: 2.1.0 Build 186)  -->
  <defs>
    <style>
      .st0 {
        fill: #231f20;
      }
    </style>
  </defs>
  <path class="st0" d="M999.9,514.2v-2.1c0,.7,0,1.4,0,2.1h0Z"/>
  <path class="st0" d="M738.4,60.4c-30-16.3-61.8-29.6-95.1-39.6v93l95.1-53.4Z"/>
  <path class="st0" d="M262.2,938.7l24.4-14.4v-108.3c20.6,12.7,44.1,23.4,64.2,36.5,2,1.3,6.2,3.4,6.9,5.6l.4,121.3c-31.8-9.4-62.2-21.8-91-37l-4.9-3.8Z"/>
  <path class="st0" d="M237.8,924.4v-108.3l-81.5,47c22.7,21.5,47.4,40.9,73.8,57.8l7.7,3.4Z"/>
  <path class="st0" d="M357.9,113.8l.2-93.4c-40,11.8-95,39.7-95,39.7l94.8,53.6Z"/>
  <path class="st0" d="M25.4,472.1l93.5,53.6c0-20.9,1.1-41.9.8-62.7,0-6.1,1.4-17.1-3.3-20.4l-102.5-59.4C5.7,416.8,1,451.8.2,487.7c1.3-4.4,20.2-13.7,25.2-15.6Z"/>
  <path class="st0" d="M762.2,925.8c29.6-18.3,57.2-39.5,82.2-63.4l-82.2-46.3v109.7Z"/>
  <path class="st0" d="M264.9,195.5c6.2-2,21.8-12.5,28.8-16.4,13.2-7.5,27-15.3,39.2-24l-94.9-54,1.3-27.9c-29.6,18.1-57.1,39.2-82.2,62.9l103.2,59.8c1.7.9,3,.1,4.6-.4Z"/>
  <path class="st0" d="M1.2,513.8c-.6-.4-.9-.9-1-1.5.9,35.5,5.4,70.2,13.3,103.5l80.3-47L1.2,513.8Z"/>
  <path class="st0" d="M668.4,155.8c13.8,9.3,28.5,17.7,42.9,25.9,6.3,3.5,19,12.2,24.7,14.2,1.4.5,2.5,1.1,4,.4l103.4-59.6c-25-23.6-52.4-44.7-81.8-62.7v27.5s-93.2,54.4-93.2,54.4Z"/>
  <path class="st0" d="M881.2,525.7l93.9-53.3c3.3-.8,20.4,10.7,24.4,13.2,0,0,.4-1.1,0-8.7-1.4-31.7-5.9-62.7-13-92.6l-105.3,60.7v80.7Z"/>
  <path class="st0" d="M986.8,614.8c7.6-32.4,12.1-66,13-100.5l-93.6,54.6,80.6,45.9Z"/>
  <path class="st0" d="M714.7,926.2v-110.2l-71.2,40.9-1.2,122.5c31.9-9.5,62.5-22,91.4-37.3,7.9-4.2,5.2-3.7,5.2-3.7l-24.2-12.2Z"/>
  <polygon class="st0" points="357.9 445.2 286.6 404.2 286.6 623.3 476.8 732.2 476.8 651.5 357.8 582.4 357.9 445.2"/>
  <polygon class="st0" points="689.6 362.9 501.1 253 311.6 362.3 382.1 402.7 500 334.6 619.1 402.7 689.6 362.9"/>
  <polygon class="st0" points="524.4 732.2 712.8 623.3 714.7 404.3 643.5 445.1 642.7 582 524.4 649.6 524.4 732.2"/>
  <path class="st0" d="M620,814.6c31.4-18.7,63.9-36,94.7-55.4v-80.7l-165.2,95.8,70.5,40.4Z"/>
  <polygon class="st0" points="167.6 447.4 167.9 553.6 237.1 594.5 239 404.3 169.7 443.2 167.6 447.4"/>
  <path class="st0" d="M832.5,444.9l-70.2-40.7v190.3l70.7-40c0-36.5.8-73.1-.4-109.6Z"/>
  <polygon class="st0" points="286.6 678.4 286.6 761 381.3 814.5 451.8 774.7 286.6 678.4"/>
  <polygon class="st0" points="381.3 184.2 286.6 237.8 286.6 320.4 451.8 224.6 381.3 184.2"/>
  <path class="st0" d="M712.8,319.1l1.6-2.8v-74.2c0-1.5-.4-2.8-1.3-4l-93.1-53.9-70.5,40.4,163.3,94.5Z"/>
  <path class="st0" d="M476.8,953.8l-46.3,26.9,32.4,18c4.6.3,9.2.6,13.9.8v-45.7Z"/>
  <polygon class="st0" points="476.8 869.9 476.8 816.1 430.5 841.7 476.8 869.9"/>
  <polygon class="st0" points="476.8 594.5 476.8 540.7 430.5 568.8 476.8 594.5"/>
  <polygon class="st0" points="595.8 937.5 595.8 884.9 549.4 911.8 595.8 937.5"/>
  <polygon class="st0" points="833.6 801.1 833.6 747.2 787.3 774.1 833.6 801.1"/>
  <path class="st0" d="M833.6,199c-2.5-.4-4.2.9-6.3,1.8-13.2,6.2-27.1,16.6-40,23.8l46.3,26.9v-52.6Z"/>
  <path class="st0" d="M906.2,293.5c12.9,7.2,26.8,17.7,40,23.8,2.1,1,3.8,2.2,6.3,1.8v-32.2c-2.7-5.5-5.4-11-8.2-16.5l-38.1,23Z"/>
  <path class="st0" d="M906.2,705.3l38.9,22.6c2.5-4.9,5-9.9,7.4-15v-33.3s-46.3,25.7-46.3,25.7Z"/>
  <path class="st0" d="M431.3,17.4l-.8,2.6,44.4,25c1.8-1.2,1.7-2.4,1.9-4.3,1.4-12.5-.6-26.8-.5-40.1-5.5.3-10.9.6-16.3,1l-28.8,15.8Z"/>
  <polygon class="st0" points="476.8 182.7 476.8 130.1 472.2 131.1 430.6 155.8 476.8 182.7"/>
  <polygon class="st0" points="476.8 456.8 476.8 404.2 430.6 431.2 472.2 455.8 476.8 456.8"/>
  <path class="st0" d="M881.2,801.1l31.1-18.1c2.9-4.2,5.7-8.4,8.5-12.7l-39.6-23v53.8Z"/>
  <polygon class="st0" points="239 320.4 239 266.5 191.4 292.8 239 320.4"/>
  <path class="st0" d="M881.2,197.7v53.8l38.8-23c-3.1-4.8-6.3-9.5-9.6-14.2l-29.2-16.6Z"/>
  <path class="st0" d="M120.1,335.4l-46.3,26.9c12.8,7.1,26.9,17.7,40,23.8,2.1,1,3.9,2.2,6.3,1.8v-52.6Z"/>
  <polygon class="st0" points="881.2 335.4 881.2 389.2 927.5 362.9 881.2 335.4"/>
  <polygon class="st0" points="405.5 525.7 451.8 498.8 405.5 473.1 405.5 525.7"/>
  <path class="st0" d="M48.7,320.4l46.3-26.9-39.4-22.9c-2.4,4.6-4.7,9.2-6.9,13.9v35.9Z"/>
  <polygon class="st0" points="762.2 678.4 762.2 732.2 808.5 705.3 762.2 678.4"/>
  <path class="st0" d="M116.4,611.5c-7.8,3.3-33.8,18.2-40.6,23.3-1.4,1.1-2.5,1.3-2.1,3.5l46.3,25v-52.6c-1.5-.3-2.4.2-3.7.7Z"/>
  <polygon class="st0" points="762.2 266.5 762.2 320.4 808.5 293.5 762.2 266.5"/>
  <polygon class="st0" points="788.6 363.5 829.8 387.4 833 386.7 832.3 335.4 787.3 360.4 788.6 363.5"/>
  <polygon class="st0" points="167.7 197.7 167.7 251.5 213.9 224.6 167.7 197.7"/>
  <polygon class="st0" points="167.7 335.4 167.7 389.2 214 362.9 167.7 335.4"/>
  <path class="st0" d="M570.7,978.8l-46.3-25.1v45.6c4.3-.2,8.7-.5,13-.8l33.3-19.8Z"/>
  <polygon class="st0" points="788.9 635.5 787.3 638.3 833.6 663.4 832.3 610.8 788.9 635.5"/>
  <polygon class="st0" points="881.2 610.8 881.2 663.4 927.5 635.8 881.2 610.8"/>
  <polygon class="st0" points="405.5 61.3 405.5 113.8 451.8 86.3 405.5 61.3"/>
  <polygon class="st0" points="524.4 816.1 524.4 869.9 570.7 843.6 524.4 816.1"/>
  <polygon class="st0" points="405.5 937.5 451.8 912.4 405.5 884.9 405.5 937.5"/>
  <path class="st0" d="M118.2,251.5l.6-52.5-30.7,17.5c-2.7,4-5.4,8-8,12l38.1,23.1Z"/>
  <polygon class="st0" points="524.4 594.5 570.7 567 524.4 541.9 524.4 594.5"/>
  <polygon class="st0" points="167.7 801.1 214 774.7 167.7 747.2 167.7 801.1"/>
  <polygon class="st0" points="524.4 458.1 570.7 431.8 524.4 404.2 524.4 458.1"/>
  <polygon class="st0" points="167.7 610.8 167.7 663.4 214 635.8 167.7 610.8"/>
  <path class="st0" d="M95,704.7l-46.3-25.1v35.9c2.1,4.3,4.2,8.6,6.4,12.8l39.9-23.7Z"/>
  <path class="st0" d="M594.5,113.8l-.6-52.6c-13.2,8.2-28.7,15.1-41.5,23.5-1.3.9-3.2,1.3-2.9,3.4l45.1,25.7Z"/>
  <path class="st0" d="M524.4,45l45.1-25.7-2.1-2.9-26.4-14.7c-5.5-.4-11.1-.8-16.6-1.1v44.4Z"/>
  <polygon class="st0" points="524.4 128.8 524.4 182.7 570.7 155.2 524.4 128.8"/>
  <path class="st0" d="M118.8,799.8v-52.6l-39.6,23c2.6,4.1,5.3,8.1,8,12.1l31.5,17.5Z"/>
  <polygon class="st0" points="237.8 732.2 237.8 678.4 191.4 705.3 237.8 732.2"/>
  <polygon class="st0" points="594.5 473.1 549.4 498.8 594.5 525.7 594.5 473.1"/>
</svg>