<?xml version="1.0" encoding="UTF-8"?>
<svg id="Layer_1" xmlns="http://www.w3.org/2000/svg" version="1.1" viewBox="0 0 1200 1200">
  <!-- Generator: Adobe Illustrator 29.0.0, SVG Export Plug-In . SVG Version: 2.1.0 Build 186)  -->
  <path d="M1086,952h0c-3.5-3.1-7.9-4-11.9-.3l3.6,4.7c.9.9,2.2,1.6,3.6,1.9,2.2.5,4.7.2,6.1-1.1.6-.5,1.2-2.1.8-2.9-.7-.9-1.4-1.7-2.2-2.3Z"/>
  <path d="M682.5,922.9c-.7,5.2,4.3,9.4,9.4,8.3,1.4-1.3-5.8-10.6-9.4-8.3Z"/>
  <path d="M719.1,1182.8c6.1,1,6.2-3.8,5.2-8.3-4,.2-5.6,5-5.2,8.3Z"/>
  <path d="M1188.5,692.2c-6.6.6-16.2,4.9-15.1,12.6-4,.2-10.1-.9-13.5,1.6-.5.3-6.5,7.4-7.2,8.4-17.3,22.8,4.2,21.4,7.2,2.4,1.2-1.2,18.6,10.6,23,7.3l-5.9,5.1-2.4-2.5c-1.7-1.5-4,5-.2,4.9l.2,1.4c-6.1,5.1-7.4,13.3-6.2,20.8.3,1.6,2.1,3.1,1.9,4.1,0,.3-3.8,5.2-4.1,5.4-2.8,1.7-14.5-.2-19.1.8-4.7,1-8.8,6.4-14.1,6.3-3.1,3.4-.5,8.5-2.1,12-4.7,9.9-14,6.6-23,9.4-4.6,1.4-9.2,5.2-13.4,6.2-7.5,1.8-19.7,0-27.5-.7l2.1-2.6-2.1-1,2-6-4-2.8c1.1,4.7-3.3,1.9-4.2,5.7-1.2,4.9,1.9,4.6,2.1,5.4,1.3,4.4-1.9,3.3-4.1,5.1-5.8,4.8-7.4,10.7-11,14.1-1.8,1.7-5.5,2.9-7.8,4.8-5.2,4.2-9.3,10.2-16.8,10.9l1-4.2c-5.9-.7-5.1,5.1-6.9,8.3-1,1.9-3.7,3.4-5.1,5.3-3.1,4.2-1.3,7.5-10,7.3l1-4.2c-4.9-1.1-3.7,3.7-5.5,6-.6.7-13.2,10.3-15,11.6-5,3.5-11,5.3-15.5,9.6-3.1,1.3.4-6.1-.5-7.3h5.2c.9-7.1-1.8-5.8-3.9-8.7-1-1.4-3.2-12.3-5-12.2-3.5,2.2-5.4,7.1-9.9,6.3l2.2,2.5c-2.5,6.5-2.3,12.4-2.3,19.2l-5.1,1.2c-1.2-5.8-7-8.8-12-11.1-2.6,2.5-12.4,3.6-13.9,5.1s-.8,3.9-1.5,5.3c-1,2-4.3,1.6-2.9,5.9-4.2-3.5-8.1-1.6-5.5,4,.7,1.7,2.3,1.2,2.4,1.3.2.4-1.8,2.1-2.1,3.7-1,5.7.9,10.6,3.1,15.7-2.9,7.3-12.3,6.8-17.7,9.4-1.8.9-2.8,3.5-5.7,4.7-11.6,4.8-21.6,4.3-31.8,14.1-2.6,2.5-3,6.6-7.1,7.5-2.7.6-5.5-.2-8.1.3-2.2.4-3.7,1.8-6.3,2.1-3.9.4-8.4-.4-12.4,0-.2-1.9-5.5-11.9-7.3-11.5-4.6,1-13,13.8-13.2,18.3,0,2.4,2.1,3.3,1.9,5.9-.3,4-3.7,2.6-4,2.9-.3.3,1.8,5.5,0,7.3-1.9,0-.7-3.2-1.6-5.2-.3-.6-6.4-10-7-10.3-1.1-.6-3.4.3-5-.7-1.2-.7-2.6-4.6-5.3-6.2-8.5-4.9-8.3,1-12.5,3-1.6.8-3.8.4-5.2,1.1-4.7,2.2-8.9,5.8-12,9.9-1-2.2-.9-2.4-3.7-2.1,7.2,6.1-1,10.3,2.2,17.1l-4.7,1.7c-2.5-1.4-.4-3-.6-5.2l-4.2-1.6c2.8-3.3,5.8-15.7,5-19.6-.2-1.2-6-9.7-7.2-10.7-3.8-3.1-17-9.3-21.8-10.6-3.8-1-8,.6-11.1-2.5l-.6,2h-1.5c-9-18.2-31.7-16.6-7.9,1.7l-7.3,6.8-4.2,13.5c-6.2.3-10.9-2.8-16.7,1.1-1.1,3.6,12.1,11.7,11.5,12.5-6.6,1.5-14.2-1.6-20.8,1.6-5.2,2.5-2.8,4.4-2.7,6.6.2,4.6-.9,5.2,3.1,9.2s10.8,7,16.5,9.9c1.1.5,3.5,5.2,5.5,2,1.7-2.7.6-6.7,6.8-6.8,4.1,4.6,5.5,12.9,12.5,14.2l-1,6.2c3.2,1.9,6.2-.6,7.8-.7,1.8,0,5.1,3.4,7.8,2.8l-4.7,5.2c-2.1-.5-3.2-2.2-5.4-2.9-.9-.3-4.7-1.1-4.5.8l8.8,4.1c5.9-2,4-6,12.1-4.6l8.2,3.5-6.3,3.7,4.2,1.5c-3.9-.4-3.3,9.1-5.4,10.3-2.3,1.4-6.5-1-11.4,3.8-4.5,4.5-7.6,17.3-11.9,20.5-3.4,2.5-11.4,2.5-13.6,8.3l-6.3-7.2c-13.7,1.1-9,4.8-8.9,14.1,0,2.7-1.3,4.9-.9,8.2.5,3.8,3.8,4.6,4.1,7.9-2.6,0-5.2-.9-7.8-1-1.6,0-3.3,1.1-4.1,1.1s-1.9-4.4-6.4-3.8c-1.6.2-4.8,4.1-3.1,5.9l2.6,1.5c-4,2.6-5.1,8.3-7.7,11.7-.8,1.1-3.7,1.8-4.3,3.4-.4,1,.5,2.8.3,4.5-.2,1.2-1.4,2.2-1.5,3.4,0,.3.9,6.3,1.1,6.8,0,.4,4,5.8,4.4,6.1l16.1,5.9c-8.3,3.5-15.9,4.3-21.9,11.8-3,3.7-3.3,11.2-8.3,10.7v1c4-.7.4,5,0,8-.2,2.2,1.2,11.2,2.2,12.6,2.2,3.1,13.2,3.6,14.2,4.6,1.2,1.2,2,9.4,3.3,11.6,1.2,1.9,11,8.3,13.4,8.8,1.5.3,3.1.5,4.7.5s4.1-.3,6.1-.8c5.4-1.3,10.7-3.9,14.9-6.9,1.9-1.4,2.1-4.3,4.8-4,1.2,1.9,0,5.2-1.5,8.2,9.7-1.6,19.3-3.4,28.8-5.4,0-.3,0-.7-.3-1.1-1-2.9-3.7-.4-5.5-.8-1.2-.3-1.4-1.8-1.7-1.9-7.3-4.6-9.6-2.9-17.7-2.1-.5-3.4,2.8-5.2,3.9-8.1,2-5.2,1.3-10.4,5.5-14.8-2-1.9-6,1.2-6.2,1,0,0,0-1.7-1-2.6-1.9-1.8-5.5-2.6-5.3-5.7l4.5-1.1c.9,0,4.1,8.4,8,5.9,4.9-3.9,3.1-9.6,4.3-13.5.6-1.9,5.7-2.4,4-6.9l-4.2-.5c4.4-2.2,9.9-7.4,8.4,1.6l3.7-5.3,9.9,5.3c0-4.9-5.2-6.8-9.4-6.3,2.7-7.4,1.1-12.6-1-19.8,3.1.3,8.1-1.7,10.2,1.4.6.9,0,2.6.3,2.8.3.4,7.5-1.2,9.8-.9,4,.5,9.3,2.7,13.2,4.1l-3.1,1.1c-.2,1.7-.2,4.4,1.6,5.2,2.3,1,1.3-5,4.7-4.2l-2.1-3.1h7.2c1-1.6,1.4-5.5-.6-6.3l-15.9-1c-.6-2.9,1.1-2,3.1-2.1-1.3-2.8-.8-4.6,2.1-5.7l-1.1-2.6c-5.7,2.9-6.8-.5-12.5-1.1l5.8-4.2c1.1-3.4-2.3-5.6-5.2-5.2-2,.2-2.6,2.5-4.7,2.1l-.5-4.1-3.6,4.2,3.1-11.5-5.2,1v-3.1c2.2,1.2,5.2-1.2,6.3-3.1l-7.3,1.6c5.3-3.7,13.1-8.4,13.5-15.8,0-2.1-1.6-5.2-.5-6.7.9-1.7,3,0,3.5-.2.6-.3,2.3-4.9,5.4-3.9l-3.1,2.1,1.9,1.1c0,6.9-5.6,12.1-5.9,19.2,0,2.3.8,10.9,1.3,13.1,2.1,8.9,10,11,16.3,4.1.5,5.3-4.8,2.4-2.7,8.4,2.1,5.7,5.4,1.3,8.2,1.3s10.6,1,13.8,1.7c-1.7,5.3,6.5,12.5,8.3,5.6,1-3.9-4.2-5.4-7.3-6.1,2.4-2.6,10.2-3.9,13.6-6.7,1.7-1.4,2.8-4.6,4.3-5.1,2.7-.9,6.5,1.2,8.7-1.7-1.8-2.6-5.2-.8-7.3-2.1-1.3-.7-4.8-6.6-8.3-7.3,3.5-2.1,8.5-5.5,7.4-10.3-.4-1.8-6-1.1-7.9-2.7-.6-.5-3.7-7.1-3.6-7.9,0-6.3,8.5,1,10.8.4,8.9-2.3-6.1-15.5-9.2-17.6-4.1.5-.6,6.2-5.7,3.1-.9,3.3,2,1.4,2.9,2.3,3,3.1-.6,4.4-.7,4.7-.9,3.2-2.3,8.9-.5,11.7.9,1.3,3.6.6,2.5,4.2l-14.6,4.2,2.1-4.2-5.7,3.2-1.1-2.2-3,1.2-.6-2.1h-2.1l-1,3.1c-1.4-3.4-1.1-7.2,0-10.7.4-1.1,3.1-.8,2-3.9l-11.5-5.8c8.1-4.3,17.6-18.1,27.4-14,1.3.5,0,2.4,1.8,2l.6-3.2c8.5,2.6,4-5.4,9.6-6,5.9-.6,6.4,6,7.7,7,1.2.9,4.2-.6,5.7-.4,2.3.3,4.8,2.6,7.8,1.6,0-5.3-4.1-8.6-7.2-12.1,1.4-3.7,5.3-6.2,4-10.8l-3.1-.6c2.4-1.2,4.6-6.5,6.2-7.3,2.6-1.3,8-.3,12.5-2.1,1.5-.6,9.5-4.5,10.4-5.2,3.6-2.7,2.5-7.4,9.4-4.7.8-1.3-4.2-.9-1-2.6,4.2-2.3,10-3.1,14.6-6.3,4-2.8,8.2-8.2,9.5-12.9l2,1c-.6-4.2-.7-12.3,5.2-11.5,2.6,10.3,17.4,11.4,26.1,9.4-.6,5.1-5.7,5.7-7.8,9.3l-7.9-4.1,3.1,5.2c-3.3-.3-11.4,5.3-12.5,7.9-1,2.3,1.2,1.2,2.2,1.1,4.5-.5,7.7-2.8,11-5.8,1.9-1.7,1.1-5.5,4.6-1.6-4.1,2.1-7,20.5-4,22.3,3.1,2.1,10.9-.8,11.9-.7,1.1,0,2.3,4.2,4.9,5.3,2.1.9,5.7-1,8.4-.3,1.2.3,2.2,5.7,5.9,4.2.3-8.8,10.3-5.5,9.4-13.9l3.2-.7c-1.1-2.2-5.8-1.2-5.2-5.2,6.7,1.1,10.7-5.8,17.1-6.2,2.9,1.2,8.8,14.3,9.6,14.5,1.9.5,3.1-1.6,4.1-1.7.9,0,2.6,1.5,4.2,1.7,5.8.4,10.1.7,15-2.6,3.6-2.4,6.2-7.4,8.8-9.6.6-.5,2.3,0,2.6-.4,1.2-1.3-1.8-7.2,2.2-6.2.2,8.6,12.5,28.6,22.3,26.1.4,0,4.3-5.3,4.7-6.1,2-4.2-.8-11.2,2.3-15.9l5.5,3c6.9-4,11.1-11.6,8.6-19.7-3.2-3.6-8.1-1.1-10.4-5.3-1-1.8-.3-5.6-3.7-5.1-1.4,2.3,1.7,13.3-2.6,12.5-3.3-3.9-3.6-8.5-8.4-11.5-4.8,4.5,6.1,8.5,4.5,14.4-4.3,3.7-5.3,0-9-.7-5.3-1.1-8.4,2.7-13.3,4-3.1-1.9,0-4.1,0-6.7,0-3.5-3.8-13.1-6.3-15.1-3.1-2.6-10.4-.3-5.2-7.3l6.7,4.8c6.8,1.2,1.2-19.2-2-21.9,2.6-3,5.4-5.6,9.3-3.8-3.4-3.4,0-6.3-1.3-10.7-.8-3.1-5.2-7.9-7.6-10.2l1.1-4.1.5,3.1,4.2-2.1c-.2,5.9,5.5,9.6,11,9.3,5.9-.4,7.4-11.1,14-10.3-1.3,3.1.6,5,2.6,7.3l4.7-5.7-5.8-4.7-4.1,2.1c-2.2-4.9-7.6-7-7.9-12.5l-3.1,1.1,5.2-10.4,1.7,2.2-1.7,2.6c1.9.7,3.4,3.5,3.9,5.5.5,2.1-.6,6,1.3,6.5v-7.3c6.1,3.8,9.1-5.3,13-8.4,4.5-3.5,10.3-4.2,13.6-10.4,2.5,3.7,5.8,3.3,9.9,3.1.9,4.3-6.2.2-7.2,3.8l1,9.8,3.1-5.8h5.3l-5.2,11-3.1-4.2c.8,4.1-2.9,5.7-3.8,9.3-.5,2.1-1.1,9.4.3,10.6,1.4,1.2,4.6,1.7,5.2,2.3s2.3,7.2,3.6,9.5c2.5,4.2,7.8,6.2,8.7,9.1.8,2.5-.6,3.8-.5,6.2l2.1-1.1c.3,7.6,1.9,5.6,7,8.1,3.5,1.7,4.1,5.4,9.2,1.3,2.8-2.2,8.3-14,8.6-17.4.2-2-3.3-6.5-1.9-9.7,4.6,3.4,9,7.3,14.3,10.2.9.5,1.8.9,2.7,1.3,9.4-14.5,18.2-29.5,26.4-44.8-.2-.3-.4-.6-.5-.8-.4-2,2.6-4,2.6-5.1s-2.7-3.7-1.7-5.8c-3.5-1.2-2.3,5.1-3.7,5.3-1.7,0-11.7-2.3-9.8-5.2,2.6,0,2.6-2.8,4.8-4.1,2.9-1.7,7.7-1.5,10.4-4.2.3-.3,5-7,5.2-7.4,1.4-3.1,1.5-9.5,1.5-12.9,0-5,2.3-5.1-3.1-10,3.8.3,12.3-.2,19.1-2.3,1.9-4.6,3.7-9.2,5.5-13.8-2.2-1.1-4.7-1.6-6.8-3.2,0-.9,5.6-6,6.2-6.2,1-.4,2.6.5,4,.5,13.3-36.4,23.2-74.5,29.3-113.9h-4.5v-1Z"/>
  <path d="M416.2,1099.3c-3,.7-9,2.1-8,6.3,1.9,7.3,10.6-1,8-6.3Z"/>
  <path d="M564,1147.5c-5.1.5-5.3-7-8.3-10.7l.5.9c-6.1-7.5-13.6-8.3-21.9-11.8l16.1-5.9c.5-.2,4.3-5.7,4.4-6.1,0-.5,1.1-6.5,1.1-6.8,0-1.2-1.3-2.3-1.5-3.4-.2-1.6.7-3.5.3-4.5-.6-1.6-3.5-2.3-4.3-3.4-2.5-3.4-3.6-9-7.7-11.7,7-2.9.5-9.9-5.2-6.2-.9.6-.8,2.5-1.7,2.6-.8,0-2.5-1.1-4.1-1.1-2.6,0-5.2.9-7.8,1,.4-3.3,3.6-4.1,4.1-7.9.4-3.2-.9-5.4-.9-8.2,0-9.3,4.8-13-8.9-14.1l-6.3,7.2c-2.2-5.8-10.2-5.8-13.6-8.3-4.3-3.1-7.4-15.9-11.9-20.5-4.8-4.8-9-2.4-11.4-3.8-2-1.2-1.5-10.7-5.4-10.3l4.2-1.5-6.3-3.7,8.2-3.5c8.1-1.4,6.2,2.6,12.1,4.6l8.8-4.1c.2-1.9-3.6-1.1-4.5-.8-2.2.7-3.3,2.4-5.4,2.9l-4.7-5.2c2.7.7,6.1-2.8,7.8-2.8s4.6,2.5,7.8.7c-2.4-8.5-.2-4.8,3.6-8.4,3.4-3.2,4.7-8.6,7.9-12,6.2.2,5.2,4.2,6.8,6.8,2,3.2,4.4-1.5,5.5-2,5.7-2.8,11.8-5.1,16.5-9.9,3.9-4,2.9-4.6,3.1-9.2,0-2.2,2.5-4.1-2.7-6.6-6.6-3.2-14.2,0-20.8-1.6-.7-.8,12.6-8.8,11.5-12.5-5.8-3.9-10.4-.9-16.7-1.1l-4.2-13.4c5,1,10.1-3.1,9.4-8.3-3.4-2.1-10.1,6.2-9.5,8.1l-7.2-6.7c3.3-1.1,16.8-14.9,7.9-15.1-5.1,0-13.6,9-15.8,13.5h-1.5l-.6-2.1c-3,3.1-7.3,1.5-11.1,2.5-4.8,1.3-18,7.4-21.8,10.6-1.1.9-6.9,9.4-7.2,10.7-.8,3.9,2.2,16.3,5,19.6l-4.2,1.6c-.1,2.2,1.9,3.8-.6,5.2l-4.7-1.7c3.2-6.8-5-11,2.2-17.1-2.7-.4-2.7,0-3.7,2.1-3.2-4.1-7.3-7.7-12-9.9-1.4-.7-3.5-.3-5.2-1.1-4.2-2-4-7.9-12.5-3-2.7,1.5-4.1,5.5-5.3,6.2-1.7,1-4,0-5,.7-.5.3-6.7,9.7-7,10.3-.9,2,.3,5.1-1.6,5.2-1.8-1.8.3-7,0-7.3s-3.7,1.1-4-2.9c-.2-2.6,2-3.5,1.9-5.9-.2-4.5-8.6-17.3-13.2-18.3-1.8-.4-7.2,9.6-7.3,11.5-4-.4-8.5.4-12.4,0-2.6-.3-4.1-1.7-6.3-2.1-2.6-.4-5.4.3-8.1-.3-4.1-.9-4.5-5-7.1-7.5-10.2-9.8-20.2-9.3-31.8-14.1-2.9-1.2-3.9-3.9-5.7-4.7-5.4-2.6-14.8-2.1-17.7-9.4,2.2-5,4.1-10,3.1-15.7-.3-1.6-2.3-3.3-2.1-3.7,0,0,1.7.4,2.4-1.3,2.5-5.6-1.4-7.5-5.5-4,1.4-4.3-1.9-4-2.9-5.9-.7-1.4-.3-4.1-1.5-5.3-1.4-1.5-11.3-2.6-13.9-5.1-5,2.3-10.8,5.4-12,11.1l-5.1-1.2c0-6.8.2-12.8-2.3-19.2l2.2-2.5c-4.5.9-6.4-4-9.9-6.3-1.8,0-4,10.8-5,12.2-2.1,2.8-4.8,1.6-3.9,8.6,6.4-.8,5,.4,6.1,5.9.3,1.4,0,1.9-1.4,1.4-4.5-4.2-10.5-6.1-15.5-9.6-1.8-1.2-14.4-10.9-15-11.6-1.9-2.2-.6-7.1-5.5-6l1,4.2c-8.7.3-6.8-3.1-10-7.3-1.4-1.9-4.1-3.4-5.1-5.3-1.7-3.2-1-9-6.9-8.3l1,4.2c-7.5-.7-11.6-6.6-16.8-10.9-2.3-1.9-6-3.1-7.8-4.8-3.6-3.4-5.2-9.3-11-14.1-2.2-1.8-5.4-.7-4.1-5.1.2-.8,3.3-.5,2.1-5.4-.9-3.8-5.3-1.1-4.2-5.7l-4,2.8,2,6-2.1,1,2.1,2.6c-7.8.7-20,2.4-27.5.7-4.2-1-8.8-4.7-13.4-6.2-9-2.8-18.3.5-23-9.4-1.6-3.5,1-8.6-2.1-12-5.3,0-9.3-5.3-14.1-6.3-4.6-.9-16.3.9-19.1-.8-.3-.2-4-5-4.1-5.4-.2-1.1,1.6-2.5,1.9-4.1,1.2-7.5,0-15.7-6.2-20.8,1.1-1.9,4.7-5.1,0-6.3l-2.4,2.5-5.9-5.1c4.4,3.2,21.7-8.6,23-7.3,3,18.9,24.5,20.4,7.2-2.4-.8-1-6.8-8.1-7.2-8.4-3.4-2.5-9.5-1.4-13.5-1.6,1.1-7.7-8.5-12-15.1-12.6-1.6,0-3.1,0-4.5,0,6.1,39.3,15.9,77.4,29.3,113.9,1.4,0,2.9-.9,4-.5.6.2,6.3,5.3,6.2,6.2-2.1,1.6-4.7,2.1-6.8,3.2,1.8,4.6,3.6,9.2,5.5,13.8,6.8,2.1,15.3,2.6,19.1,2.3-5.4,4.9-3.1,4.9-3.1,10s-1,3.7-.8,5.1c.2,1.6,1.9,2.6,2.2,3.7.4,1.2-.6,2.6,0,4.1.2.4,4.9,7.1,5.2,7.4,2.7,2.8,7.5,2.6,10.4,4.2,2.1,1.3,2.2,4.2,4.8,4.1,1.9,3-8.1,5.2-9.8,5.2-1.4,0-.2-6.5-3.7-5.3.9,2.1-1.7,4.9-1.7,5.8s3,3,2.6,5.1c0,.2-.2.5-.5.8,8.2,15.3,17,30.3,26.4,44.8.9-.4,1.9-.8,2.7-1.3,5.3-3,9.7-6.8,14.3-10.2,1.5,3.2-2,7.8-1.9,9.7.3,3.4,5.9,15.2,8.6,17.4,5.9,4.7,8.8-2.7,15-3.4l1.3-6,2.1,1.1c-3.4-8.9,4.6-9.1,8.2-15.3,1.3-2.3,3.2-9.1,3.6-9.5.6-.6,3.8-1.1,5.2-2.3,2.7-2.3.3-3.3.3-4.7,0-2,.6-3.4,0-5.8-.8-3.6-4.6-5.2-3.8-9.3l-3.1,4.2-5.2-11h5.3l3.1,5.7c-1.2-3.2,2.8-10.2-.7-11.3-2.3-.7-6.4,1.4-5.6-2.2,4.1.2,7.4.6,9.9-3.1,3.3,6.2,9.1,6.9,13.6,10.4,4,3.1,7,12.2,13,8.4v7.3c2-.5.8-4.4,1.4-6.5.5-2,2-4.7,3.9-5.5l-1.7-2.6,1.7-2.2,5.2,10.4-3.1-1.1c-.3,5.5-5.7,7.7-7.9,12.5l-2.1-2.1h-2.1l-5.8,4.7,4.7,5.7c2-2.3,3.9-4.2,2.6-7.3,6.6-.7,8.1,10,14,10.3,5.5.3,11.2-3.3,11-9.3l4.2,2.1.5-3.1c3.9,4.9-5.1,8.8-6.5,14.3-1.2,4.4,2.2,7.3-1.3,10.7,4-1.8,6.7.8,9.3,3.8-3.2,2.7-8.8,23-2,21.9l6.7-4.8c5.2,7.1-2.1,4.8-5.2,7.3-2.5,2.1-6.4,11.7-6.3,15.1.1,2.6,3,4.8,0,6.7-4.9-1.3-8-5-13.3-4-3.6.7-4.6,4.4-9,.7-1.6-5.9,9.3-10,4.5-14.4-4.7,3-5.1,7.6-8.4,11.5-4.3.8-1.2-10.2-2.6-12.5-3.4-.5-2.7,3.3-3.7,5.1-2.3,4.2-7.2,1.7-10.4,5.3-2.5,8.1,1.7,15.7,8.6,19.7l5.5-3c3.2,4.7.4,11.7,2.3,15.9.4.8,4.3,6,4.7,6.1,9.7,2.5,22-17.6,22.3-26.1,4.1-1.1,1,4.9,2.2,6.2.3.3,2,0,2.6.4,2.6,2.2,5.2,7.1,8.8,9.6,4.9,3.3,9.2,3,15,2.6,1.6,0,3.3-1.7,4.2-1.7s2.2,2.2,4.1,1.7c.8-.2,6.7-13.3,9.6-14.5,6.3.4,10.4,7.3,17.1,6.2.6,4-4.1,3-5.2,5.2,5.1-1.2,2.2,3.7,4.4,6,2.1,2.2,8.2,1.7,8.2,8.6,3.7,1.5,4.7-3.8,5.9-4.2,2.6-.6,6.2,1.2,8.4.3,2.6-1,3.9-5.1,4.9-5.3,1,0,8.8,2.8,11.9.7,3-1.8,0-20.2-4-22.3,3.5-3.9,2.7,0,4.6,1.6,3.3,3,6.5,5.3,11,5.8.9,0,3.2,1.2,2.2-1.1-1.1-2.6-9.2-8.2-12.5-7.9l3.1-5.2-7.9,4.1c-2.1-3.6-7.2-4.3-7.8-9.3,8.7,2.1,23.5,1,26.1-9.4,5.9-.8,5.8,7.3,5.2,11.5l2-1c1.4,4.7,5.6,10.1,9.5,12.9,4.6,3.3,10.3,4,14.6,6.3,3.1,1.7-1.8,1.3-1,2.6,6.9-2.7,5.8,2,9.4,4.7.9.7,8.9,4.7,10.4,5.2,4.6,1.8,9.9.8,12.5,2.1,1.7.8,3.9,6.1,6.2,7.3l-3.1.6c-1.3,4.6,2.6,7.1,4,10.8-3.1,3.5-7.3,6.9-7.2,12.1,3,1,5.5-1.3,7.8-1.6,1.4-.2,4.5,1.3,5.7.4.5-.3.4-2.4,1.2-3.3,4.4-5.2,9.9-5.7,10.5,2.3h5.6l.6,3.2c9.6-9.2,20.5,7.6,29.2,12l-11.5,5.8c-1.1,3.1,1.6,2.8,2,3.9,1.2,3.4,1.4,7.3,0,10.7l-1-3.1h-2.1l-.6,2.2-3-1.2c-1.8,5.3-3.4-1.1-6.8-1l2.1,4.2-14.6-4.2c-1-3.6,1.7-2.9,2.5-4.2,1.8-2.8.4-8.5-.5-11.7,0-.3-3.7-1.6-.7-4.7.8-.9,3.7,1.1,2.9-2.3-5.1,3.1-1.6-2.6-5.7-3.1-3.1,2.1-18.1,15.3-9.2,17.6,2.3.6,10.7-6.8,10.8-.4,0,.8-3.1,7.4-3.6,7.9-1.9,1.7-7.5.9-7.9,2.7-1.1,4.8,3.9,8.1,7.4,10.3-3.6.7-7.1,6.6-8.3,7.3-2.1,1.3-5.5-.6-7.3,2.1,2.2,2.9,6,.8,8.7,1.7,1.5.5,2.6,3.7,4.3,5.1,3.7,3,12.5,4.1,14.1,7.3,2.8-.7,11.7-1.8,14.3-1.8s6.1,4.4,8.2-1.3c2.2-6-3.1-3.1-2.7-8.4,17.4,14.2,19.3-13.7,15.4-25.3-1.3-3.9-4.2-6.3-3.8-11.1l1.9-1.1-3.1-2.1c3.1-1,4.8,3.6,5.4,3.9.4.2,1.6-.7,2.3-.6,3.1.8.5,5,.7,7.5.5,7.4,8.2,12.1,13.5,15.8l-7.3-1.6c1.1,2,4.1,4.3,6.3,3.1v3.1l-5.2-1,3.1,11.5c-2.7-2.9-6-7-4.2,0-2.1.4-2.7-1.9-4.7-2.1-2.9-.3-6.3,1.8-5.2,5.2l5.8,4.2c-5.7.6-6.8,3.9-12.5,1.1l-1.1,2.6c2.8,1.1,3.4,2.9,2.1,5.7,2.1,0,3.7-.8,3.1,2.1-5.7.6-21-2.2-16.6,7.2h7.2c0,0-2.1,3.2-2.1,3.2,3.4-.8,2.4,5.2,4.7,4.2,1.8-.8,1.7-3.5,1.6-5.2l-3.1-1.1c3.9-1.4,9.1-3.6,13.2-4.1,2.3-.3,9.5,1.3,9.8.9.2-.2-.3-1.9.3-2.8,2.1-3.1,7.1-1.1,10.2-1.4-2.1,7.2-3.8,12.5-1,19.8-4.2-.5-9.3,1.4-9.4,6.3l9.9-5.3,3.7,5.3,1.5-5.2,6.8,3.6-4.2.5c-1.6,4.5,3.4,5,4,6.9,1.3,3.8-.6,9.6,4.3,13.5,3.9,2.5,7.1-5.7,8-5.9l4.5,1.1c.2,3.1-3.4,3.9-5.3,5.7-.9.9-.9,2.5-1,2.6-.3.2-4.2-2.9-6.2-1,4.2,4.4,3.5,9.6,5.5,14.8,1.1,2.9,4.3,4.7,3.9,8.1-8.1-.9-10.4-2.4-17.3,1.9,0-3.2-1.6-7.1-5.3-7.3-1,4.3-.9,8.9,4.4,8.4-.2.4-.6.9-1.2,1-1.8.4-4.5-2.1-5.5.8-.1.4-.2.8-.3,1.1,9.5,2,19.1,3.9,28.8,5.4-1.5-3-2.7-6.3-1.5-8.2,2.8-.3,2.9,2.7,4.8,4,4.2,2.9,9.5,5.6,14.9,6.9,2,.5,4.1.8,6.1.8s3.2,0,4.7-.5c2.4-.6,12.2-6.9,13.4-8.8,1.3-2.2,2.2-10.4,3.3-11.6,1.1-1.1,6.4-.9,8.4-1.6,5.2-1.7,6.8-4.6,7.7-9.8.8-4.7,0-8.9-1.8-13.3l2.1-1.6Z"/>
  <path d="M644.1,1083.6h-.2c0,0,7.3-4.6,7.3-4.6-3.2-1.6-3.8-7-5.4-8.6-1.4-1.5-4.8-.2-3.9-3.4,5.2-3.6,8.2,1.2,13.6-2.1.4-.6-4-9.7-6.8-8.4-4.7,0-3.8,3.9-6.4,6.2-1.4,1.3-18.1,9.5-19.7,9.6-5.1.3-10.3-2.8-15.6-3.2-3.8-.4-10.9-.4-14.7,0-5.6.6-10.2,4.2-16.5,2.9-1-.2-17.1-8.6-17.9-9.3-2.4-2.1-1.8-5.6-5.4-6.2-4.9-.7-5.6,4.4-7.8,7.8,4.9,4.5,8.4-1.2,13.6,2.6.9,3.2-2.5,1.9-3.9,3.4-1.6,1.7-2.3,7-5.4,8.6l7.3,4.7-3.1,6.2c5.6,2.3,10.5,3.9,16.7,3.2-3.1,5.2,2.6,7.3,3.2,11,.3,2-2,1.3-2.2,2.2-.5,2.9,1,5.7,3.7,6.6,3.5-8.1,12.4,2.2,17.3,3.6,3.5,1,12.2,1.1,15.8.3,4.8-1.1,8.6-6.9,15-7,2.3,0,2.3,5.2,5.4,1.8,3.9-4.2-1-6.6-.8-7.5.6-3.7,6.3-5.8,3.2-11,6.2.8,11.1-.9,16.7-3.2l-3.1-6.2Z"/>
  <path d="M230.4,1042h-.1c-2.7-.6-1.8.4-2.6,1.9-1.6,3-1.6,6.9-3.2,9.4-.7,1.1-6.7,6.1-8.6,7.6,4.8,4,9.6,7.9,14.6,11.8-.9-1.9-1.6-3.7-1.9-5.4-1.4-7.7,2.6-17.5,1.8-25.3Z"/>
  <path d="M975.5,1053.2h0c-1.8-2.6-2.1-8.1-3.8-11.3-1.5-1.5-1.9,0-2.1,1.6-.7,5.4,2.2,13.9,2.2,19.8s-1.1,6.3-2.6,9.6c5-3.9,10-8,14.9-12.1-1.9-1.5-7.9-6.5-8.6-7.6Z"/>
  <path d="M406.1,1150.6h0c-2.2,0-4.7,2.8-6.4,2.8s-3.5-2.8-7-1.9c-.7.2-.7,1.6-1,1.8-4.3,2.1-11.3-2.5-14.9-2.8-3.4-.3-4.6,2.7-7,2.8-.7,0-1.8,0-3.1-.3,8.5,3.6,17.1,7,25.8,10.2h0c1-1.5,3.4-2.3,4.9-3.3s.7-1.7,1-1.8c1.7-.9,13.6,1.6,7.6-7.5Z"/>
  <path d="M823.8,1150.3v.2c-3.4-.2-10.2,4.3-15.3,3.1-.8-.2-.7-1.6-1-1.8-3.6-1.7-5.5,1.7-7.4,1.6-1.8,0-4.3-2.9-6.4-2.9-6,9.1,5.8,6.7,7.6,7.5.3,0,.4,1.4,1,1.8,1.5,1,3.9,1.9,4.9,3.2h0c8.7-3.1,17.3-6.5,25.8-10.1-1.2.2-2.3.3-3.1.3-2.2,0-3.5-2.7-6.1-2.9Z"/>
  <path d="M41.1,602.7v.2c-1.4,3.5-1,8.9-2.5,12-.8,1.7-3.6,2.9-4.2,5.2-.7,2.5,1.4,9.8,0,13.6-.7,1.9-6.9,8.3-5.8,9.4,2,.4,2.5-1.1,3.7-2.1,4.6-3.8,9.5-11,14.2-14,11.7-7.6,28-5.8,38.2-19.8,4.6-6.4,4.9-12.6,4.4-20.4-3.6-.7-6-3.2-9.8-3.4-5.7-.2-21.8,3.6-26.9,6.6-4.1,2.5-9.5,8.3-11.3,12.7Z"/>
  <path d="M1115.2,607.5v-.2c10.3,14,26.6,12.2,38.3,19.8,4.6,3,9.6,10.2,14.2,14,1.2,1,1.7,2.5,3.7,2.1,1.1-1.1-5.1-7.5-5.8-9.4-1.4-3.8.8-11.1,0-13.6-.6-2.3-3.4-3.5-4.2-5.2-1.5-3.2-1.1-8.5-2.6-12-1.9-4.4-7.2-10.2-11.3-12.7-5.1-3-21.2-6.9-26.9-6.6-3.8.2-6.2,2.6-9.8,3.4-.5,7.8-.2,14,4.4,20.4Z"/>
  <path d="M630.3,831c.2,13.3,5.1,22,15.8,29.7,7.4,5.3,19.2,9.6,25.5,15.2,3.9,3.5,7.9,10.3,11.8,14.3,1,1.1,1,3,3.3,2.4-.6-3.6-3.8-5.6-4.9-9.2-1.6-5,1-9-.2-12.3-.9-2.5-3.1-3.3-3.8-4.7-1-2.1-.6-5.9-1.5-8.9-2.7-9.1-11.6-16.7-19.9-20.8-2.4-1.2-14.5-6.3-16.4-6.6-3-.5-4.8.7-7.6.8,3.6-3.7,9.1-6.4,6.3-12.5-2.3-1.7-15.5,8.9-12.5,13.6l4.1-1Z"/>
  <path d="M518.5,871.2h0c-1.2,3.2,1.4,7.3-.2,12.3-1.1,3.6-4.3,5.6-4.9,9.2,2.3.6,2.3-1.3,3.3-2.4,4.1-4.2,8.1-11.1,12.4-14.8,5.9-5.1,17.4-9.4,24.3-14.3,11-7.8,16.2-16.4,16.4-30.1l4.2,1c2.9-4.8-10.2-15.3-12.5-13.6-2.9,6.1,2.7,8.8,6.3,12.5-2.8,0-4.6-1.3-7.6-.8-1.9.3-14.1,5.4-16.4,6.6-8.3,4.1-17.2,11.7-19.9,20.8-.9,3-.6,6.8-1.5,8.9-.6,1.3-2.8,2.2-3.8,4.7Z"/>
  <path d="M953.7,1002.6v-.2c-2.9.8-2.2,7-7,2.5-.4-.3-.8-.6-.8-1.1l.9-4.6h-3.1l-1.2,6.1-12.1.4c-4.6,12.4-4.9,21.4,11.2,20.1-3.5,6.1-13.4,1.6-18.8,4.2-14.5,13.3,8.3,37.2,19.2,18.2,1-1.7,3-10.1,5.9-7.2s-.6,9.6,7.3,3.6c-.5-2.7-2.3-5.5-5.2-5.7,3.7-3.3,5.9-11.2,0-13.1-2.4-.8-6.4.5-7.4-1.5l6.6-3c3.9,5.6,10.8,4.4,12.9-1.9,2.1-6,.3-19.2-8.4-16.8Z"/>
  <path d="M277.2,1029.8h0c-5.4-2.5-15.3,2-18.8-4.1,16.1,1.3,15.9-7.7,11.2-20.1l-12.1-.4-1.2-6.1h-3.1l.9,4.6c-5.8,6.4-4.8-.5-7.9-1.3-8.8-2.4-10.4,11-8.4,16.8,2.2,6.3,9.1,7.5,12.9,1.9l6.6,3c-1,2-5,.7-7.4,1.5-5.8,1.9-3.6,9.8,0,13.1-2.4-.2-6.2,4.3-4.7,6.3,7.8,4.5,6.3-3.7,6.8-4.2,2.9-2.9,4.9,5.5,5.9,7.2,10.9,19.1,33.7-4.9,19.2-18.2Z"/>
  <path d="M1010.2,821.6h-.1c1.9.4,3.7-.6,5.1-.5,6.3.8,5.9,2.7,14.1,0,5.4-1.8,2.3-6.9-1.1-8.4-2.9-1.3-4.8.9-6.6.5-1.1-.3-2.6-5.1-6.3-4.1l-.6-2.1c9.5-2.8,9.6-21.3-3-17.6-.6,4.6-6.1,7.1-4.3,11.3-3.3.9-4.9-1.8-7.3-2.6-3.3-1.2-7.4,0-8.5-4.5l-1.4-.2c-2.2.2-2.6,2.6-4.3,4.1-1.6,1.4-4,.6-4.6,3.8-2,11.2,20.7,18.6,28.9,20.3Z"/>
  <path d="M179.8,802.5h.1c1.7,3.8,5.5,3.5,5.5,6.6-3.9-1.3-5.8,3.8-6.9,4.1-1.8.5-3.8-1.7-6.6-.5-2.7,1.2-6,5.5-2.6,7.8.4.3,9.4,2.8,9.9,2.7.5,0,8.8-1.4,9.8-1.6,8.4-1.7,29.3-8.1,29.9-18.3.3-5.3-2.4-4.1-5.3-6.3-1.1-.9-1.4-2.9-2.8-3.5-2.9-1.3-2.5,2.2-4.8,3.3-1.8.9-4.2.6-6.1,1.3-2.4.8-4,3.6-7.3,2.6,1.8-4.2-3.8-6.7-4.3-11.3l-7.2.3c-3,3.5-3.1,8.7-1.3,12.8Z"/>
  <path d="M1017.2,950.1c2.7-.4,3.5,1.4,7.8-.6,10.6-4.7,1.4-12.1,3.1-20.4-4.2,4.4-9-1.6-14.6-1.1l4.2-5.2-5.2-1.1-2.1,7.3c-2.7.6-4.2-2.3-6.7-2.1s-8.3,3.1-8.8,6c-1,5.5,3,4.2,4.7,5.8,2,1.9,5.5,5.3,7.3,7.3,1.1,1.2,1.3,3.8,2.9,5v.2c3.5,2.7,4.8-.7,7.4-1.1Z"/>
  <path d="M171.8,929.3s0,0,0,0c0,0,0,0,0-.1h0Z"/>
  <path d="M171.8,929.3c1.7,6.1-4.3,12-1.1,17.2,3.1,5.2,8.6,3.1,12,3.6,2.6.4,3.9,3.8,7.4,1.1,1.6-1.2,1.7-3.8,2.9-5,1.9-2,5.3-5.4,7.3-7.3,1.4-1.3,9.1-3.3,3.3-8.7-3.7-3.4-9.9-3-14.1-1l-2.1-7.3-5.2,1.1,4.2,5.2c-5.6-.6-10.4,5.4-14.6,1.1Z"/>
  <path d="M839.6,751.6h.1c11.4,9.5,26.9-3.9,18.7-16.5-2.4-3.7-11.5-6.8-15.4-6.2-2.6.4-9.6,7.4-10,9.9-.5,3.4,3.9,10.6,6.6,12.8Z"/>
  <path d="M342.5,750.6h.1c10.8,12.4,28-5,23.3-13.9-1.5-2.8-7.2-8-10.6-7.8-12.1.9-22.1,11-12.8,21.7Z"/>
  <path d="M616.1,984.5c-2.6-3.7-19.7-3.5-24.7-2.9-8.5,1-12.9,7.2-5,12.8h0c8.9,6.3,38.5,2.3,29.7-9.9Z"/>
  <path d="M845.3,922.4h0s1.6,2.5,1.6,2.5c4.9-1.9,10.7-2.2,14-6.8.5-2.1-2.7-2.8-4.2-2.6,0-2.6,2.3-4.1,2.2-6.8,0-2.4-2.4-4.1-2.2-5.2.2-.9,2.2-1.2,2.8-1.9,4.8-5.5-6.1-15.2-12.2-14.3,1,3.8-1.5,5.9-1.1,11,.2,2.1,1.8,4.3,1.7,5.2,0,2.2-4.7,6-.6,9.4,2.2,1.8,5.9.5,5.2,3.7-3.9,0-6.7,1.9-7.3,5.8Z"/>
  <path d="M338.8,918.2h.1c3.3,4.5,9.2,4.9,14,6.8,4.2-3.6-1.1-8.7-5.7-8.3-.7-3.2,3-1.9,5.2-3.7,4.1-3.3-.5-7.2-.6-9.4,0-.9,1.5-3.1,1.7-5.2.5-5.1-2.1-7.1-1.1-11-5.1.7-9.8,2.4-12,7.3-3.6,8,2.2,7.2,2.6,8.9.2,1-2.1,2.8-2.2,5.2,0,2.7,2.2,4.2,2.2,6.8-1.5-.2-4.6.5-4.2,2.6Z"/>
  <path d="M607.4,1167.3l9-1.4c5.6-13.1-16.3-15.1-11.3-.4-1.6,3.4-8.1,3.6-9.9.7-1.4-2.3,2.5-8.6-2.2-10.3-7.4-2.6-13.5,3.5-9.1,10.4l8.6,1.1c.8,2,.6,4.2,3.2,4.1l-2,7.2c5.5-1.8,7-1.8,12.5,0,1.1-2.8-2-5-2.1-6.8,0-.3,3.7-1.7,3.3-4.6Z"/>
  <path d="M444.5,1154h0c0,0,4-7.1,4-7.1-1.3-.8-3.9-5.4-4.2-5.7-1.8-1.1-10,.5-12,1.5-6.3,3.2-2.7,12.6,3.9,12.9-4.1,4-7.4,11.5.7,12.3,3,.3,4.6-5.7,6.6-6.7,1.1-.6,7.5.8,7.1-4.1-.2-2.9-6.1-1.2-6-3.1Z"/>
  <path d="M764,1155.8h0c6-.5,10-8.2,4.9-12.3-1.9-1.5-10.2-3-12.5-2.4-.6.2-3.5,5-4.8,5.9l4,7.2c0,1.9-6.7.2-5.8,3.7,1.3,5.3,5.3,2.4,7.5,4,1.7,1.2,2.7,5.3,5.3,6.2,9-1.5,5.9-7.2,1.4-12.3Z"/>
  <path d="M771.6,871.4h0c5.1-12.4-13.2-17.7-19.7-10.8-1.2,1.3-3.5,5.8-3.4,7.5,3.6,8.1,18.9,13.7,23.2,3.3Z"/>
  <path d="M428.6,871.6h-.1c4.2,10.3,19.6,4.7,23.2-3.4,0-1.7-2.2-6.2-3.4-7.5-6.5-7-24.8-1.6-19.7,10.9Z"/>
  <path d="M354.9,696.6c-2.2-4.4-10.8-3.4-14.6-1.5-3.3,1.6-16.6,11.6-12.6,15.6s32.3-3.8,27.2-14.1Z"/>
  <path d="M872.2,710.7h.1c2.6-2.6-1.1-6.8-3.2-8.8-1-.9-7.6-5.9-8.7-6.5-4.2-2.3-14.9-3.7-15.9,2.7-1.4,9.7,23.8,16.4,27.7,12.6Z"/>
  <path d="M1172.4,650.4h0c-1.6-10.2-12.7-9.6-18.8-3.4-.9,7.1,4.5,12.7,11.1,13.8,8.4,1.5,5.6-7.7,8.3-8.3,3.7,1.5,5.1,5,9.2,6.5,4.4,1.5,2.1-4,.7-6-.9-1.2-5.5-4.7-6.6-4.5-1.2.2-1.9,2.5-3.8,1.9Z"/>
  <path d="M18,658.9h0c4.1-1.3,5.5-4.8,9.2-6.4l4.4,8.2c2,.7,8.1-.9,9.9-2,2.8-1.6,6.6-9.1,4.8-12.2-1.3-2.3-9.7-4.6-12.3-4-2.5.6-6.7,5-6.2,7.9-4.2-2.3-5.9-2.2-9.4,1.5-1.7,1.8-5.4,8.8-.3,7Z"/>
  <path d="M682.5,1042.4c1,.4,1.9,2.4,3.2,3.1,11.9,6,18.1-3.1,9.3-11.9,5.6-1.2,9-4.7,6.3-10.5l-14.4,4.3c.8,6.5-1.5,5.6-4,8.5h0c-1.4,1.7-1.2,4.3-5.5,5.5,1.5,2.7,3.4.2,5.2,1Z"/>
  <path d="M517.5,1042.4c1.8-.8,3.7,1.7,5.2-1-4.4-1.2-4.1-3.8-5.5-5.4-.9-1-2.7-1.1-3.3-2.4-1-2,0-4.9-.7-6.1l-14.4-4.3c-2.7,5.7.6,9.3,6.3,10.5-8.7,8.8-2.6,18,9.3,11.9h-.1c1.3-.8,2.2-2.8,3.2-3.2Z"/>
  <path d="M1119.9,734.2h-.1c-5.9,1-12.6,10.7-13.1,16.2-.8,7,12.9,1.3,15.8,1.1,3.2-4.8,9.4-6.6,7-12.8-1.7-4.4-5.1-5.3-9.6-4.5Z"/>
  <path d="M87.8,754.3c2.4.2,6-1.9,5.3-4.7-1.8-7.6-8.5-17.4-17.6-15.5-3.5.7-6.4,5.3-5.7,8.5,0,.5,6.1,7.6,6.6,7.9h-.1c.5.5,10.9,3.8,11.5,3.8Z"/>
  <path d="M756.8,1133.8c2.5.3,7.3,6.2,7.8,6.2,2.2.3,7.3-1.1,10.4.8l1.6-4.9h6.2c-.7-6.4-6.2-3.3-9.5-3.8-9.3-1.3-10.5-6.8-22.6-3.9-5.6,1.4-11.5,1.7-4,8.3,4,3.5,8.2,2.1,10.1-2.7Z"/>
  <path d="M449.5,1128.2h0c-12.1-2.9-13.4,2.6-22.6,3.9-2.9.4-7.8-2.1-9.5,2.2-1.2,3,5.5.8,6.2,1.6l1.6,4.9c1.9-1.8,10.3-.7,10.8-.9.4-.2.6-1.9,1.3-2.4,1.9-1.3,4.2-1.9,5.7-3.7,2.7,4.5,6.2,6.6,10.6,2.7,7.5-6.6,1.5-6.9-4-8.3Z"/>
  <path d="M371.5,1110.3h0c.2,4.6,7.3,4.7,4.1,10.9l5.2-7.9c2-4,23.3-6.8,24-7.9,3.3-5-7.2-2.2-8.7-1.9-2.5.6-4.7,3-7.9,2,2.3-4.3.7-3.8-.6-5.6-7.3-10.2-16.3,3.1-16,10.4Z"/>
  <path d="M795.9,1105.8h0c5.5,1.8,20.2,3.3,23.4,7.6,1.7,2.2,1.7,6.1,4.7,7.9-.7-5.9,0-3.9,2.2-6.6,1.7-2.2,2.6-3,2.1-5.9-1-5.6-5.5-14.6-12.5-12.3-2.3.7-6.9,6.6-3.8,9.2l-16.7-3.1.6,3.2Z"/>
  <path d="M384.5,882.5h0c3.7-2,6.4-6,9-8.3,1.7-1.5,7.2-1.3,3.9-6.1-3-4.4-9.3-4.2-13.6-1.9-.9.5-9.1,8.2-9.5,9.2-4,9.8,2.5,11.1,10.2,7.1Z"/>
  <path d="M806.3,874.2h0c.8.7,1,2,1.9,2.8,4.6,3.8,12.7,10.7,18.1,5.6.8-3.7,0-6.6-2.3-9.4-.5-.6-7.6-6.8-8.1-7.1-5.4-2.8-12.2-2.2-14.6,4.1,0,3.2,3.7,2.9,4.9,4Z"/>
  <path d="M532.4,1043.4c2.8.6,5,3.4,8.9.4,5.1-9.8-.7-15.6-10.7-16.5-14.3-1.2-10.1,13.2-1.5,16.2h-.1c1.3.3,2.4-.4,3.4,0Z"/>
  <path d="M669.5,1027.2c-10,.9-15.8,6.7-10.7,16.5,3.9,3,6,.2,8.9-.4.9-.2,2.1.5,3.4,0h-.1c8.6-2.9,12.8-17.3-1.5-16.1Z"/>
  <path d="M774.7,1173.7c-4.4-.8-6.8.6-7.7,2.8,2.9-.9,5.9-1.7,8.8-2.6-.3,0-.7-.2-1.1-.2Z"/>
  <polygon points="767 1176.5 767 1176.5 767 1176.5 767 1176.5"/>
  <path d="M425.3,1173.6h0c-.4,0-.8.1-1.1.2,2.9.9,5.9,1.8,8.8,2.6-.9-2.3-3.3-3.6-7.7-2.8Z"/>
  <path d="M1052,953.6h0c-.4,6.5,13.9,16.6,19.7,10.8.8-.8,1.3-3.3,1.3-4.5,0-10.8-20.4-16.8-21.1-6.3Z"/>
  <path d="M147.8,952.6h0c0-.7-3.2-4.3-3.4-4.4-5.6-2.3-17.2,4.2-17.6,10.7-.9,14.9,22.8,3.3,21-6.3Z"/>
  <path d="M269.6,854.2h0c0,0,9.8,0,9.8,0,0,0-3.1-3.2-3.1-3.2,3.9-.8,5.6-6.7,5.2-10.4,2.2,0,4.9.7,6.2-1.7l-1.7-3.6-5.4,1c-.6-4.4-6.9-3.7-9.6-1.2-4.9,4.7-3.7,13.5-1.4,19.2Z"/>
  <path d="M912.7,839.4h0l5.8,1c-.4,3.8,1.3,9.6,5.2,10.4l-3.1,3.1,10.2-.2c1.6-5.6,3-15.1-2.2-19.3-1.8-1.5-6.3-2.1-8.1-.8-.8.5-.8,2.2-1.1,2.5-.4.3-8.2-3.9-6.7,3.3Z"/>
  <path d="M308.5,1071c3.6-3.4-1.6-26.8-10.7-22.7-7.7,8.6-1.9,24.9,10.7,22.7Z"/>
  <path d="M891.5,1071c12.6,2.3,18.4-14.1,10.7-22.7-9.1-4.2-14.2,19.3-10.7,22.7Z"/>
  <path d="M911.1,898c-.2-.4-6.3-4.9-6.8-5.2-5.3-2.6-16.4-2.2-15.8,5.5h-.1c.8,11.6,27.4,7.9,22.7-.3Z"/>
  <path d="M302.6,906c5.2-1,11.8-6.5,7.8-12-2.3-3.2-9.5-2.8-13.1-1.7-1.1.3-8.1,5.3-8.3,5.8h0c-3.3,5.5,9.7,8.6,13.6,7.9Z"/>
  <path d="M27.8,504.9h0c3.3.9,13.5-5.3,14.5-8.7,1.1-3.8-2.4-9.9-6.3-9.5-7.9.8-18.7,15.4-8.1,18.2Z"/>
  <path d="M1164.3,502.4h0c2.9,1.7,7.3,3.6,10.1,1.3,7.6-6.2-5.1-17.1-11.8-17-7.8,5.4-5.7,11.5,1.7,15.7Z"/>
  <path d="M19.6,674h0c1-.3,2.7.4,2.8.3.3-.4,0-2.1.7-2.9,1.3-1.8,2.6-2.1,3.3-4.6,1.6-5.8-5.3-6.4-9.4-4.9-1,.4-.9,1.7-2.1,2.3-3.6,1.9-7.1,4-10.8,5.5.2,1.3.3,2.7.5,4,2,1.9,4.9,3.7,6,3.8,3,.4,5.8-2.4,9-3.5Z"/>
  <path d="M1184.6,664.1h0c-.6-.4-.7-1.7-1.1-1.8-4.3-2-12.2-1-9.8,5.3.6,1.6,2.2,2.5,3.3,3.9.6.8.4,2.5.7,2.9,0,0,1.7-.6,2.8-.2,3.2,1.1,6,3.9,9,3.5,1.2-.2,4.1-2.1,6-3.7.2-1.3.3-2.6.5-3.9-2.9-2-8-4.2-11.4-6Z"/>
  <path d="M154.1,917.6h0c2.6,1.5,6.1.6,8.6,1.3,2.7.8,2.5,4.4,7.4,4,6-.6,5.6-7.8,11-9.9,0-2.3-30.5-7.1-27,4.6Z"/>
  <path d="M1037.3,918.9h0c2.4-.8,6,.2,8.6-1.3,3.5-11.7-27.1-6.9-27-4.6,5.4,2.1,5.1,9.4,11,9.9,4.9.5,4.7-3.1,7.4-4Z"/>
  <path d="M1000.5,750.6c3.6-3.1,0-3-.1-3.4-2.5-5.5-1.4-6.8-6.6-11.7-12.1-11.2-16.4,1.6-7.2,10.3,5.6,5.4,9,1.9,13.9,4.8Z"/>
  <path d="M1000.6,750.6s0,0,0,0c0,0,0,0,0,0h.1Z"/>
  <path d="M217.5,732.2h0c-4.8-3.4-12.8,3.6-15.3,7.7-2,3.3-1.8,6.2-4.3,9.2l9.7.4c5.2,0,14.3-14.3,9.9-17.3Z"/>
  <path d="M603,747.4c1-6.2,8.3-9.6,7.5-16.5-3.4-1.6-9.1,4.3-10.8,4-2-.3-6.4-5.5-10.1-4-.8,6.9,6.4,10.3,7.5,16.5h5.9Z"/>
  <path d="M1106.9,672.9h0c2.9,2.5,17.7,10.8,19.3,5.1,2-6.6-15.5-18.2-20.9-10.4-2.1,3-.7,3.4,1.5,5.3Z"/>
  <path d="M83.5,678.7h0c1.8-.7,11.3-6.4,11.8-7.5.9-2-1.2-4.7-2.9-5.5-11.9-5.4-29.9,19.7-8.9,13Z"/>
  <path d="M1141.5,564.8h0c5.2,6.8,17.1-2,11.4-10.3-1.5-2.2-10.8-5.4-12.9-4.1-2.8,1.8.5,6,.6,6.9.3,2.5-1.3,4.7.8,7.5Z"/>
  <path d="M47,554.4h0c-5.7,8.3,6.2,17.2,11.4,10.3,2.2-2.8.5-5,.8-7.5.1-1,3.5-5.1.6-6.9-2-1.3-11.4,1.9-12.9,4.1Z"/>
  <path d="M523.5,763.9c0-3-2.4-5.7-5.5-5.5-4.3.3-16.1,11.5-11,16.9,4,2.8,16.6-6.7,16.5-11.4Z"/>
  <path d="M693,775.2c5.1-5.4-6.7-16.6-11-16.9-3.1-.2-5.4,2.5-5.5,5.5,0,4.7,12.5,14.2,16.5,11.4Z"/>
  <path d="M310.8,883.7h-.1c.8,3.5,19.8,7.3,22.5,2.6.6-1.1,1-4.1.4-5.1-2.3-3.6-24-2.4-22.8,2.5Z"/>
  <path d="M866.6,881.3h-.1c-.6,1-.3,4,.4,5.1,2.7,4.6,21.6.9,22.5-2.6,1.2-4.9-20.5-6.1-22.8-2.5Z"/>
  <path d="M581.3,1158.3h-.1c5.2-4.4-8.6-19.4-12-19.1-1,0-2.2,1.7-2.1,3,.2,5.1,7.7,21.5,14.2,16.1Z"/>
  <path d="M630.9,1139.2h-.1c-3.4-.3-17.2,14.7-12,19.1,6.5,5.4,14-11,14.2-16.1,0-1.3-1.1-2.9-2.1-3Z"/>
  <path d="M559.7,903.9h0c-1.6,1.8-1.7,3.8-2.5,4.7-1.2,1.5-4-.6-3.2,2.7,1.7,0,2.9,2,4.5,1.9,3.5-.2,17.7-10.2,18.5-13.9-1.3-.2-2.2-2.3-2.3-2.4-3-1.3-12.5,4.6-15,7Z"/>
  <path d="M627.7,905.1h0c4.1,3.7,13.2,10.3,18.2,6.3.8-3.3-1.8-1.4-2.8-2.3-.7-.6-1.3-3.5-2.8-5.1-4-4.1-9-6.1-14.6-7.2-4.3,3.1-1.4,5.2,2,8.3Z"/>
  <path d="M740.9,1159.2h-.2c-1.2-.9-3.6-.1-3.9-.3-1-.9.7-8,2.1-9.4-2.2-.8-5.1-2.2-7-3.5-.7-.5-.9-2.2-1.9-2.7l-2.6,1.5c2.9,2.1,4.3,4.7,8.4,4.7l-1,8.7-3.1,1.8c-.2-3.1-1.4-4.9-4.6-5.2-5.4,4,3.8,11.6,7.6,12,1.5.2,11.6-3.8,10.6-4.7-3.2.9-3.7-2.4-4.4-2.9Z"/>
  <path d="M788,895.8h0l-1,4.7,2.2-3.5c1.4.3,2.5.6,3.7-.4,9.9-8.2-6.2-17.1-11.3-10.8-3.3,4.1,2.1,9.3,6.4,10Z"/>
  <path d="M410.8,896.9h0s1.7,4,1.7,4c3.1-2.2.7-3.1-.5-5.2,14-4.1,5.1-17.7-5.2-9.9-5.7,4.3-1.8,11.8,4,11.1Z"/>
  <path d="M468.6,1160h-.2c0-.1-2.9-1.3-2.9-1.3l-1.2-8.6c3.4-1.3,6.2-2.7,8.4-5.8l-3.1-.6c-1.3,3.2-5.3,4.5-8.3,5.8,1.4,1.4,3.1,8.5,2.1,9.4-.3.3-2.7-.5-3.9.2-.8.5-1.2,3.8-4.4,2.9,5.6,4.8,12.8,6.7,18.2,0,5.6-7-3.7-10.6-4.7-2Z"/>
  <path d="M135.3,480.3c-9.6-1.7-16.7,7.5-13.6,16.2,3.9,2.8,16.3-11,13.6-16.2Z"/>
  <path d="M1078.4,496.5c3.1-8.7-4-17.9-13.6-16.2-2.7,5.2,9.7,19.1,13.6,16.2Z"/>
  <path d="M875.7,1131.1c.3.4.8.8,1.4,1.2,3.3-1.7,6.7-3.5,9.9-5.3-5.1.9-11.1,2.5-11.3,4.1Z"/>
  <path d="M875.7,1131.2s0,0,0,0c0,0,0,0,0,0h0Z"/>
  <path d="M312.9,1126.9h0c3.3,1.9,6.6,3.7,9.9,5.4.6-.4,1.1-.7,1.4-1.2,0-1.6-6.1-3.3-11.3-4.2Z"/>
  <path d="M636.5,1042.4h0c2.1,2.2,5,.2,6.3,1,2.6,1.6,5.2,11.2,11.5,5.3-1.9-2.1-2.1-8-3.4-9.7-2.6-3.3-21-3.4-14.4,3.4Z"/>
  <path d="M563.5,1042.4c1-1,1.6-3.7,1-4.7-.7-1-13.5-1.3-14.9.9l-3.8,10c6.2,5.9,8.8-3.7,11.5-5.3h0c1.2-.7,4.1,1.3,6.3-.9Z"/>
  <path d="M1044.2,935h0c-.8-.7-1.2-2.3-2.1-2.6h-2c-1.5,3.9-7.9.2-7.8,7.1l12.8,7.3c5.7-3.4,2.6-8.3-1-11.8Z"/>
  <path d="M154.6,946.6h0c0,.1,12.8-7.2,12.8-7.2-.2-6.1-3.8-4.1-6.5-5.2-1-.4-.8-1.6-1-1.7-3-1.6-8.2,6.5-8.7,9-.4,1.9,1.6,4.3,3.3,5.1Z"/>
  <path d="M1050.1,604.5c2.8-6.3-9.2-16.4-13.7-11-2.7,7.2,7.4,12.2,13.7,11Z"/>
  <path d="M163.6,593.5c-4.5-5.3-16.5,4.7-13.7,11,6.3,1.2,16.4-3.8,13.7-11Z"/>
  <path d="M1169.2,570h0s1.5,13.6,1.5,13.6l8.9,3.1c.4-6.7-1.7-18.3-10.4-16.7Z"/>
  <path d="M29.3,583.7h0s1.5-13.6,1.5-13.6c-8.7-1.6-10.8,10-10.4,16.7l8.9-3.1Z"/>
  <path d="M134.1,750.2h.1c-.7-2.8-3.7-4.6-3.1-7.9h3.1l-1.1-9.4c-5,1.4-5.2,5.1-3.1,9.4-7.7-4-7,.9-4.2,6.6,1,1.9,10.5,10.8,8.3,1.3Z"/>
  <path d="M1074.7,747.6c4.6-11.8-3.6-4.4-4.7-5.3,2.1-4.3,1.8-8-3.1-9.4l-1.1,9.4c6.9-.7,1,4.7.3,7-.5,1.8-.2,3.7-.2,5.5h-.1c1,1.1,8.2-5.4,8.9-7.2Z"/>
  <path d="M724.7,897.8h0c4.3-.2-1.2-18-9.3-15.5l-1.6,2.3c2.7,5.5,4.7,10.9,10.8,13.2Z"/>
  <path d="M475.2,897.8c6.1-2.3,8.1-7.7,10.8-13.2.3-2.8-3.5-2.8-5.4-2.2-3.2,1-9.9,12.5-5.4,15.4Z"/>
  <path d="M615.2,1190.1c.9.3,4-3.1,4.7-3.9,1.5-1.7,7.1-9.8,5.2-11.7-6.6-2.1-17.5,12.9-9.9,15.6Z"/>
  <path d="M574.9,1174.5c-.9,6.5,5.6,10.5,8.5,15.6,11.8-2.1-4.9-19.2-8.5-15.6Z"/>
  <path d="M657.3,1011.1c.4,7.5,7.2,1.7,11.6,4.7l-1.3-10.2c-4.5-2.6-10.6-.3-10.3,5.5Z"/>
  <path d="M531.1,1015.8c4.4-3,11.1,2.8,11.6-4.7.3-5.7-5.8-8.1-10.3-5.5l-1.3,10.2Z"/>
  <path d="M55.9,511.1c0-.6-2-4.3-2.3-4.5-4.8-2.7-12,4-9.8,9.2,3.2,3.2,12.2-1,12.1-4.7Z"/>
  <path d="M1156.2,515.8h0c2.2-5.2-5-12-9.8-9.2-.3.2-2.3,3.8-2.3,4.5,0,3.8,8.9,7.9,12.1,4.7Z"/>
  <path d="M898.3,864.9c-3.2-2.8-5.4-4.4-10-3.6-3.1,6.2,11.6,14.8,13.5,9.8h0c1.1-2.7-1.5-4.5-3.4-6.2Z"/>
  <path d="M311.8,861.3c-4.6-2-16,6.2-13.1,10.5,2.5,3.7,16.3-4.7,13.1-10.5Z"/>
  <path d="M53.8,845c-.2,0-.9,0-1.7-.2,1.2,2.8,2.5,5.5,3.8,8.3,4.2-2.1,6.9-6.4-2.1-8.1Z"/>
  <path d="M1144.1,853.1c1.3-2.9,2.6-5.8,3.9-8.7-5.4.9-12.6,5-3.9,8.7Z"/>
  <path d="M75.7,637.6h0c1.4,2.1,1.3,4.1,4.7,5.5l.5-5.2,6.3.6c3.2-5.3-.5-7.5-5.7-8-1.9,5.7-5.5,2.8-7,3.7-3.5,2.2.6,2.6,1.1,3.4Z"/>
  <path d="M1118.9,630.6h0c-5.4-.4-10.2,3.5-5.4,8.2l5.6-1,.5,5.2,6.8-7.8c-1.3-2.6-6.7,1.2-7.5-4.6Z"/>
  <path d="M331.6,994.5h0c0-.1-3.1-3.7-3.1-3.7l5.7,1.1c.9-.2-.2-3.9,2.6-3.2l-11.2-7.1c-10.7.9-.6,6,1.5,8.4.3.3,1,6.7,4.5,4.5Z"/>
  <path d="M877.1,981.5h0c-5.2,0-8.8,5.1-14,6.6,1.9.8,2.3,1.3,2.1,3.6l6.2-.9-3.1,4.2c3.9.8,4.3-4.7,4.5-5,1.8-2,9.4-4.6,4.2-8.5Z"/>
  <path d="M664.8,1048.2c-7.2-1.1-14.7,2.4-11.5,10.4,6.6-.6,11.9-2.9,11.5-10.4Z"/>
  <path d="M249.7,829.9h3.4c5.6-17.5-9.6-22.9-4.9-1.6l1.5,1.6Z"/>
  <path d="M946.8,829.9c6.1,4,8.1-14.1,3.5-15.5-5.5-1.7-5.4,12.6-3.5,15.5Z"/>
  <path d="M535.2,1048.2c-.5,7.5,4.9,9.8,11.5,10.4,3.2-8-4.3-11.6-11.5-10.4Z"/>
  <path d="M150.6,971.1c-1,.3-4.6,3.7-4.7,4.5,7.8,16.2,19.6-9,4.7-4.5Z"/>
  <path d="M1044.6,971.1h0c-1.3.4-2.2,1.4-2.7,2.6-1.2,4.3,7,11.5,11.2,3.8,2.2-4.1-4.3-7.7-8.5-6.4Z"/>
  <path d="M362.9,839.8c-4,5.2,1.3,14.6,7.2,10.9,3.4-2.2-1.1-15.2-7.2-10.9Z"/>
  <path d="M829.9,850.7c6,3.8,11.2-5.7,7.2-10.9-6.1-4.3-10.7,8.7-7.2,10.9Z"/>
  <path d="M114,951.9c1.6,2.1,3.1,4.3,4.7,6.4,2.6-1,4.7-3.8,7.2-5.1-1-5.8-8.1-4.2-11.9-1.3Z"/>
  <polygon points="114 951.9 114 951.9 114 951.9 114 951.9"/>
  <path d="M1081.1,535.5c11.4,7.6,9.5-9.2,0-8.8-5.6.2-3.7,6.3,0,8.8Z"/>
  <path d="M118.9,535.5c3.8-2.5,5.8-8.6,0-8.8-9.6-.4-11.6,16.4,0,8.8Z"/>
  <path d="M514.4,831c-8.4-1.2-9.9,9.2-9.4,15.6,4.5.8,10.5-14.6,9.4-15.6Z"/>
  <path d="M685.6,831c-1.1,1,4.8,16.4,9.4,15.6.6-3.7-.7-11.7-3.4-14.3-1.3-1.3-4.2-1.3-6-1.3Z"/>
  <path d="M847.7,797.9c1.9,9.9,14.4,3.7,8.9-3.1-2.5-3.1-10.3-4.4-8.9,3.1Z"/>
  <path d="M342.5,799.8c2.7,10,14.2-3.5,8.8-7.3-2.3-1.6-10.3,1.9-8.8,7.3Z"/>
  <path d="M296.2,694.9h0c-1-4-10,3.6-10.9,4.6-1.7,1.8-2.9,3.6-2.6,6.3.7.7,16.1-5.8,13.6-10.9Z"/>
  <path d="M917.6,705.7s0,0,0,0c0,0,0,0,0,0h0Z"/>
  <path d="M917.5,705.7c.3-2.6-.9-4.4-2.6-6.2-.9-1-10-8.6-10.9-4.7-2.4,5.1,12,11.3,13.5,10.9Z"/>
  <path d="M890.1,829.2c-3.2-1-9.5-2.3-10.2,2.4-1.5,8.9,14.9,6.1,10.2-2.4Z"/>
  <path d="M311,835.9c9.4,6.8,15.1-12.2-1.1-6.8-1.9,1.4-.5,5.6,1.1,6.8Z"/>
  <path d="M966.1,1020c-3.7,4.4-4.4,12.6,2.1,14.6,4.7-4.9,3.3-10.9-2.1-14.6Z"/>
  <path d="M231.9,1034.6c6.5-1.9,5.7-10.2,2.1-14.6-5.4,3.7-6.8,9.7-2.1,14.6Z"/>
  <path d="M1173,688.4c.7.6,1.3,2.7,1.9,2.7,6.9-5.1,1.3-10.8-5.1-12.3l-1.8,1.3h0c-3,3.8,2.4,6.2,4.9,8.3Z"/>
  <path d="M25,691.1h0c.6,0,1.2-2.1,1.9-2.7,2.5-2.1,7.9-4.4,4.9-8.3-3.5-4.5-15.7,6.2-6.9,11Z"/>
  <path d="M526.5,781.9h0c3,1,7.7-3.6,9.7-5.8l-1.4-3.6c-1.2-1-2.5-1.2-4-.8-2.7.8-8.7,8.8-4.3,10.2Z"/>
  <path d="M674.2,781.6h0c3.2-2.3-3.1-11.2-7.7-9.9-1.2.3-2.2,1.5-2.7,2.7-.8,3,7.4,9.2,10.4,7.2Z"/>
  <path d="M793.2,898.9c-.4,2.9-3,2.9-4.2,5.7-2.3,5.2-.7,10.8,4.7,5.8,3.4-3.1,3.8-9-.5-11.5Z"/>
  <path d="M411,904.6c-1.2-2.8-3.8-2.8-4.2-5.7-11.1,9.5,10.7,20.7,4.2,5.7Z"/>
  <path d="M998.4,643.1c4.3-4.8-.2-10.3-4.2-13.5-6.1,4.8-.6,10.3,4.2,13.5Z"/>
  <path d="M775.5,1145.3c.2,7.9,7.5,8.1,12.5,3.7-2.4-5.5-7.3-5.5-12.5-3.7Z"/>
  <path d="M412.1,1148.9c5,4.4,12.3,4.3,12.5-3.7-5.2-1.8-10.1-1.8-12.5,3.7Z"/>
  <path d="M212.4,822.2h0c-.6,1.8-.6,2.5,1.5,2.6,3.7.2,9.6-1.7,10,3.1l1.7-2.1h6.6c0-4.3-7.7-4.4-11-4.6-1.4,0-8.4-.3-8.9,1Z"/>
  <path d="M967.6,825.8h6.6l1.7,2.1c-.2-5.7,10.3-2,11.5-3.1l-1.5-3.9c-5.4,1.9-16.1-1.9-18.3,4.9Z"/>
  <path d="M967.6,825.9s0,0,0,0h0Z"/>
  <path d="M205.7,629.6c-4,3.2-8.5,8.7-4.2,13.5,4.7-3.2,10.3-8.7,4.2-13.5Z"/>
  <path d="M600.9,773.6h0c-.8,5.8,3.6,8,8,10.3,4.1.4,1.7-6.3,0-7.9-1.1-1.1-7.2-3.2-8.1-2.4Z"/>
  <path d="M599,773.6c-4.7-.3-9.5,2.1-10.2,7-1.1,7.7,12.7-1.3,10.2-7Z"/>
  <path d="M605.2,818.5l-1-8.3h-8.3l-1,8.3c3.8-1.3,6.6-1.3,10.3,0Z"/>
  <path d="M605.3,818.5s0,0-.1,0h0s.1,0,.1,0Z"/>
  <path d="M545.1,968.8h0s1.8,6.1,1.8,6.1l7.8-1.9c.9-6.6-5.3-8.7-9.6-4.2Z"/>
  <path d="M655,968.8h0c-1.2-2.5-5.6-2.7-7.9-1.6l-1.6,5.8,7.8,1.9,1.8-6.1Z"/>
  <path d="M230.8,704.7c4.1.9,5.1-11.6,1-13.5-4.7,1.7-5.1,12.7-1,13.5Z"/>
  <path d="M969.2,704.7c4.1-.9,3.7-11.8-1-13.5-4.1,1.9-3.1,14.4,1,13.5Z"/>
  <path d="M818.3,1048.2c-2.2,2.2,10,13.1,11.5,11.5,1.1-5.3-5.3-6.2-4.2-11.5h-7.3Z"/>
  <path d="M668.9,816.4c.9-5.7-5.6-9.1-10.4-9.4-1.3,6.3,4.9,10,10.4,9.4Z"/>
  <path d="M370.2,1059.6c1.5,1.6,13.6-9.3,11.5-11.5h-7.3c1.1,5.3-5.3,6.1-4.2,11.5Z"/>
  <path d="M531.1,816.4c5.6.6,11.8-3.1,10.4-9.4-4.9.3-11.3,3.7-10.4,9.4Z"/>
  <path d="M667.6,990.9h0s-3.3,1.9-3.3,1.9c-2.1,6.2.3,4.4,2.9,6.2.7.5.7,1.8.9,1.9,5.7,2.8,5-9.5-.5-10Z"/>
  <path d="M528.4,1000.2c3.6,3.3,3.8-2.2,7.7-2.2l-.4-5.1c-4.7-5.7-9.9,3.7-7.3,7.3Z"/>
  <path d="M541.5,1074.9c3.8-3.1,2.6-5,1-8.9l-7.8,3c-2.5,3.1,4.9,6.9,6.8,5.9Z"/>
  <path d="M658.5,1075h0c0-.1,6.8-2.7,6.8-2.7v-3.2l-7.8-3c-1.6,3.9-2.8,5.8,1,8.9Z"/>
  <path d="M760,922h-.1c-2.9,2.9-1.6,4.4-2.2,8.2,7-1.6,5.1,3.5,9.4,6.3-1.3-5-1.3-12.8-7.1-14.5Z"/>
  <path d="M440.7,923.3h0c-.5-.4-.4-1.2-1-1.5-4.6.8-6,10.6-6.8,14.6,4.3-2.7,2.4-7.8,9.4-6.3-1-3.7,1-4.1-1.6-6.8Z"/>
  <path d="M862.3,1104.7h0v8.2c0,.3,5.2-.7,5.8-1.3,3.9-3.4.5-11.5-5.8-6.9Z"/>
  <path d="M337.9,1112.9v-8.2c-10.5-5.1-9.5,9.6,0,8.2Z"/>
  <path d="M883.1,1089.5c-.6,3.7,7.5,4.7,10.1,2.2,6-5.7-9.3-7-10.1-2.2Z"/>
  <path d="M316.9,1089.5c-.8-4.8-16.2-3.5-10.1,2.2,2.6,2.5,10.7,1.5,10.1-2.2Z"/>
  <path d="M711.7,1016.8c-4.1-.7-7.3-1.8-11.5-.5-5.1,1.5,1.5,5.5,3.5,5.5s10.1-2.7,8-5Z"/>
  <path d="M501.8,1016.9c-3.8-2.4-20.1-.6-10.4,3.6,4.3,1.9,9.1,1.6,10.4-3.6Z"/>
  <path d="M460.1,1171.4h0c0-.1-.9,10.2-.9,10.2l7.2,2.3c-1.1-4.5-1.5-10.2-6.3-12.5Z"/>
  <path d="M739.5,1171.4c-4.2,3-4.7,7.9-5.7,12.5l7.1-2.3-1.4-10.2Z"/>
  <path d="M733.8,1183.9s0,0,0,0h-.1s0,0,0,0Z"/>
  <path d="M261.5,854.9l-1.4-6.2c-4.5-4.4-7.8,4.3-6.4,6.3h0c2.3,2.1,5.4.8,7.8,0Z"/>
  <path d="M946.3,855.2h0c0-.1-1.8-7.3-1.8-7.3l-4.6.9-1.4,6.2c2.1.8,6.3,2.2,7.8.2Z"/>
  <path d="M858,654.6v-7.2c-11.6-4.2-9.2,8.7,0,7.2Z"/>
  <path d="M348.9,652.1c3-5.4-2.1-6.8-6.8-4.7v7.2c2.6.4,5.4,0,6.8-2.5Z"/>
  <path d="M64.2,632.7c-.7,4.7,1,10.5,6.3,11.5.5-4.9,0-11.8-6.3-11.5Z"/>
  <path d="M1083.5,577.9c.7-3-7.6-7.5-10.4-5.7-1.9,4.4,9.5,10.2,10.4,5.7Z"/>
  <path d="M126.9,572.1c-2.8-1.8-11.1,2.7-10.4,5.7,1,4.5,12.4-1.3,10.4-5.7Z"/>
  <path d="M509.1,1006.4c5.2-3.1,11.4-1.1,10.4-9.4-1.2-1.2-12.6,5.2-10.4,9.4Z"/>
  <path d="M690.8,1006.4c0-1.7-.2-3.6-1.3-4.9-.8-.9-8.2-5.4-9.1-4.5h0c-.9,8.3,5.2,6.2,10.4,9.4Z"/>
  <path d="M1135.8,632.7c-6.2-.3-6.7,6.6-6.3,11.5,5.3-.9,6.9-6.8,6.3-11.5Z"/>
  <path d="M1102.7,697.3l2.6-3.8c-1.5-8.8-10.2-5.3-5.9,2.6l3.3,1.2Z"/>
  <path d="M97.3,697.3l3.3-1.2c4.3-7.9-4.4-11.4-5.9-2.6l2.6,3.8Z"/>
  <path d="M525.2,1023.1c.3-.6-.4-1.8-.3-1.9,1.1-.9,5.8,0,6.1-2.2-3.8-.7-8.8-3.6-11,1.1h.1c-2.3,4.9,2.9,7.1,5.1,3Z"/>
  <path d="M668.9,1018.9c.3,2.2,5,1.3,6.1,2.2.2,0-1.2,2.4,1.1,3.5,5.3,2.7,5.5-5.7,1.1-7.3h.1c-1.8-.6-6.2,1.4-8.4,1.6Z"/>
  <path d="M474.4,816.6c-1.9.4-3.7,2.1-4.9,3.5,8.4,8.9,14.8-5.4,4.9-3.5Z"/>
  <path d="M918.5,1014.8c-1.2,2-4.7,1.1-5.2,1.5-2.3,1.9-2.7,11.4,1.9,8.7,1-.6,4.2-9.1,3.3-10.2Z"/>
  <path d="M281.5,1014.8h0c-.7,2.5,2.7,12.8,6.2,10.4,1.2-.8.4-7-.5-8.4l-5.7-2Z"/>
  <path d="M699.2,909.3c-.4-4.9-4.4-9.8-9.4-10.4-2.2,3.7,8,11.8,9.4,10.4Z"/>
  <path d="M510.2,898.9c-4.9.7-9,5.5-9.4,10.4,1.4,1.4,11.6-6.7,9.4-10.4Z"/>
  <path d="M730.5,820.1c-1.8-2.1-4.6-4.3-7.6-3.5-7.6,2.1,2.9,10.7,7.6,3.5Z"/>
  <path d="M546.6,996.1h0c0-.1,10.4-1.1,10.4-1.1l-1.2-5.1c-4.1-.5-8.5,1.7-9.3,6.2Z"/>
  <path d="M653.2,995.9c-.8-4.5-5.2-6.6-9.3-6.2h0c0,.1-1.2,5.2-1.2,5.2l10.4,1Z"/>
  <path d="M1042.9,991.8h-.1c0,2.4-1.2,7.7,1.3,9.2.5.3,1.2.4,1.9.4,1-1.1,2-2.2,3-3.3-1.6-2.6-2.5-6.2-6.1-6.3Z"/>
  <path d="M153,994.4h0c-.3.4-1.4,2.1-2,3.6,1,1.1,2,2.2,3,3.3,4.1,0,3.9-5.1,3.2-9.5-1.9-.3-3.1,1.3-4.2,2.6Z"/>
  <path d="M784.9,1115.9h0c0,0,1.7,5.2,1.7,5.2h3.4l1.8-4,4.6.9-5.7-5.2c-1.6,2.9-2.1,3.7-5.7,3.1Z"/>
  <path d="M408.3,1117.3h0c2,6,7.4,5.8,6.9-1.2-1.2,0-2.9.4-4-.2-.6-.4-1-2.9-1.8-2.9l-5.7,5.2,4.6-.9Z"/>
  <polygon points="999 836.3 991.7 832.1 993.7 839.4 988.5 837.8 995.8 842.5 995.4 840.4 998.5 839.4 999 836.3"/>
  <polygon points="211.5 837.3 206.3 839.4 208.3 832.1 201 836.3 201.5 839.4 204.6 840.4 204.2 842.5 211.5 837.3"/>
  <path d="M1065.8,662.4c1.2-4.4-6.4-6.5-9.4-4.7-1.7,1.9,8.1,9.4,9.4,4.7Z"/>
  <path d="M134.2,662.4c1.3,4.8,11.1-2.8,9.4-4.7-3-1.8-10.6.3-9.4,4.7Z"/>
  <path d="M219.8,1013.7h0c6.1.2,10.9-5.1,6.8-10.4-1.8-.9-2.1,2.8-3.2,4.1-.7.9-2.4.9-2.6,1.1-1.2,1,3.7.7,2.1,3.1l-3.1,2.1Z"/>
  <path d="M342,774.6c3.2,2.2,10.3-.3,9.4-4.7-.8-3.5-11.2,2.3-9.4,4.7Z"/>
  <path d="M858,774.6c1.8-2.3-8.6-8.2-9.4-4.7-1,4.3,6.2,6.9,9.4,4.7Z"/>
  <path d="M980.2,1013.7h0s-3.1-2.1-3.1-2.1c-1.6-2.4,3.3-2.1,2.1-3.1-1.5-1.3-4.4-1.1-4.2-5.2-7.2,2.2-1.2,11.4,5.2,10.4Z"/>
  <path d="M743.1,868.6c.7-5.5-2.5-7.3-6.8-9.4-4.3,3,5.4,10.9,6.8,9.4Z"/>
  <path d="M463.7,859.2c-4.3,2.1-7.5,3.9-6.8,9.4,1.4,1.6,11.1-6.4,6.8-9.4Z"/>
  <path d="M480.9,1155.7c-.7-4.3-3-8.9-7.3-10.4-.3,6.6.3,8.8,7.3,10.4Z"/>
  <path d="M725.8,1145.2s0,0,0,0c0,0,0,0,0,0h-.1Z"/>
  <path d="M725.8,1145.3c-3.8,2-6.1,6.2-6.7,10.3.6.6,6.9-3,7.1-3.3.2-.3,0-5.9-.4-7Z"/>
  <path d="M787.6,1163h-.1s-1.4,3.5-1.4,3.5c.3,1.1,1.6,2.3,3.2,3,2.2,1,4.9,1.2,6-.8l-1.1-.8-6.6-4.9Z"/>
  <path d="M411.6,1163.1l-6,4.7-.5.4c-1,2.3,2.5,2.5,5.4,1.3,2.2-.9,4.1-2.7,3.5-4.9l-2.4-1.5Z"/>
  <polygon points="411.5 1163.1 411.6 1163.1 411.6 1163.1 411.5 1163.1"/>
  <path d="M346.2,1041.9c-.4-.7-1-2.8-1.2-2.9-6.5-4.3-16.7,10,1.2,2.9Z"/>
  <path d="M919.7,1074.2h-.1c3.5,1.1,7.3,2.4,9.2-1.7l-.8-3.5c-2.8,1.5-8.3,1-8.3,5.2Z"/>
  <path d="M272.2,1069h-.1l-.8,3.5c1.9,4.1,5.7,2.8,9.2,1.7,0-4.2-5.5-3.7-8.3-5.2Z"/>
  <path d="M862.8,1040.1h.1c-1.7-1.5-5.2-1.5-7.4-1.4l-1.8,3.2c2.9,2.7,14.3,2.6,9.1-1.8Z"/>
  <path d="M1022.5,785.1h0c1.2,1.2,8.4,7.4,9.9,6.2-.4-1.3-1.2-2.5-2.2-3.5-1.3-1.5-7.4-7-8.5-7.6-.8-.5-3.2-1-2.9.8,2.9-.2,2.4,2.8,3.7,4.1Z"/>
  <path d="M176.9,785.4h0c0,0,4.2-5.6,4.2-5.6-1.7-.3-5.9,2.5-7,3.4-1.8,1.5-5.3,5.8-6.6,8,4.3.5,5.8-4.3,9.3-5.8Z"/>
  <path d="M428.7,854c-2.9-.8-8.4.9-7.3,4.7,1.1,3.8,9.5,0,7.3-4.7Z"/>
  <path d="M382.8,839.4l1.3,3.9c10,3.5,8.5-8.1-1.3-3.9Z"/>
  <path d="M778.6,858.7c1.1-3.8-4.4-5.5-7.3-4.7-2.2,4.6,6.2,8.5,7.3,4.7Z"/>
  <path d="M159.3,776.8h0c3.4.7,1.2-2.3,2.7-3.3.8-.6,2.5-.7,3.6-.9-3.5-10.6-7.7-3.7-6.3,4.2Z"/>
  <path d="M1040.7,776.6c0-2.8,1.2-10.8-3.6-9.3l-2.6,5.2c1.1.2,2.8.4,3.6.9,1.5,1-.6,4,2.6,3.2Z"/>
  <path d="M1040.8,776.6s0,0,0,0c0,0,0,0,0,0h0Z"/>
  <path d="M814.2,844.2c2.2-.4,3-2.8,3.1-4.8-7.4-3.6-12.6,4.3-3.1,4.8Z"/>
  <path d="M318.1,990.7h0l-2.1,6.3c2.5,1.1,11.3-.7,8.4-4.2l-6.2-2.1Z"/>
  <path d="M884.1,997l-2.1-6.3c-3.1,2.3-8.9,1.1-5.2,5.8l7.3.5Z"/>
  <path d="M620.9,879.1c-3.8-.4-8.9,1.6-8.3,6.3,4.2.5,8.1-1.7,8.3-6.3Z"/>
  <path d="M820.2,1129.8c-.9-.5-2-.2-2.9-.3-2.1,2.1,3.8,9.3,4.7,9.4,3.6,0,0-8.1-1.8-9.1Z"/>
  <path d="M378.1,1139c.9,0,6.8-7.3,4.7-9.4-4-2.1-8.7,9.6-4.7,9.4Z"/>
  <path d="M587.5,885.3c.6-4.7-4.6-6.7-8.3-6.3.2,4.5,4.1,6.8,8.3,6.3Z"/>
  <path d="M946.7,811.2l-4.7-9.4-2.2,2.6c.6,3.4,2.9,7.3,6.9,6.8Z"/>
  <polygon points="946.7 811.2 946.7 811.2 946.7 811.2 946.7 811.2"/>
  <path d="M900.3,719.3c3.5-2.6,4-4.1,2.5-8.2h-3.9c-.9,3.5-2.1,5.9,1.4,8.2Z"/>
  <path d="M299.7,719.3c3.5-2.3,2.4-4.7,1.4-8.2h-3.9c-1.5,4.1-1,5.6,2.5,8.2Z"/>
  <path d="M260.2,804.4c-3.2-6.1-5.9,3-6.9,6.8,4,.5,6.3-3.4,6.9-6.8Z"/>
  <path d="M803.6,1038.8c.3-3.9-2.3-7-6.2-7.3l-.9,3.5c.3,2,4.9,4.2,7.1,3.8Z"/>
  <path d="M797.3,1031.5s0,0,0,0h0s-.1,0-.1,0Z"/>
  <path d="M403.4,1035h0l-.9-3.5c-3.9.2-6.6,3.4-6.3,7.3,2.2.4,6.8-1.8,7.1-3.8Z"/>
  <path d="M301.3,821.6l6.2-2.2-1-5.1c-3.9-.6-6.7,4.1-5.2,7.3Z"/>
  <path d="M1095.5,922.9l-5.7,2.6c-.6,2.4,8.2,6.7,9.4,2.6h-4.2c.5-2.1,3.3-3.4.5-5.2Z"/>
  <path d="M1095.5,922.9s0,0,0,0h0s0,0,0,0Z"/>
  <path d="M105,928.1l-4.2,1c2.2,2,10-1.1,9.4-3.6-4.2-3-9.6-3.8-5.2,2.6Z"/>
  <path d="M893.5,814.3l-1,5.1,6.2,2.2c1.5-3.2-1.3-7.9-5.2-7.3Z"/>
  <path d="M40.2,690.1c3.9.2,10,.2,9.4-5.2-3.1.9-9.2.9-9.4,5.2Z"/>
  <path d="M1159.8,690.1c0-4.3-6.3-4.3-9.4-5.2-.7,5.4,5.5,5.5,9.4,5.2Z"/>
  <polygon points="102.3 795.5 105 793.8 103.9 787.2 99.8 788.9 102.3 795.5"/>
  <path d="M1098.7,787.2c-3.8-1.5-4.3,6.3-3.6,7.2,3.1,3.9,7.3-5.7,3.6-7.2Z"/>
  <path d="M978,1033.5c.7.7,6.3,1.3,7.7.9,2.1-.6,1.1-3.3.6-3.9-1.7-1-10.5.6-8.3,3Z"/>
  <path d="M986.2,1030.4s0,0,0,0c0,0,0,0,0,0h0Z"/>
  <path d="M221.9,1031.5c-1-1.1-9.4-2.6-9.4,1.6,1.4,3.4,11.7,1,9.4-1.6Z"/>
  <path d="M114.9,743.3c-2.4.5-2.5,9,1,8.3,2.4-.5,2.5-9-1-8.3Z"/>
  <path d="M1085.1,751.7c2.4-.5,2.5-9-1-8.3-2.4.5-2.5,9,1,8.3Z"/>
  <path d="M524.8,893.7c3.6-2.7,5.1-4.6,4.2-9.4-5.2-1-5,5.7-4.2,9.4Z"/>
  <path d="M862.1,831.6c-.3,1.5,0,3.2,0,4.7,10.7-.6,1.4-12,0-4.7Z"/>
  <path d="M337.9,836.3c0-1.5.3-3.2,0-4.7-1.3-7.3-10.7,4.1,0,4.7Z"/>
  <path d="M671,884.3c-.9,4.8.5,6.7,4.2,9.4.8-3.7,1-10.4-4.2-9.4Z"/>
  <path d="M87.9,541c-3.1.2-4,3.3-3.9,6,4.6,1,10.6-6.6,3.9-6Z"/>
  <path d="M1116,547.1h0c0-1.5-.2-3.9-1.3-4.9-.5-.5-1.8-1-2.5-1.1-6.7-.6-.8,7.1,3.9,6Z"/>
  <path d="M200.5,969.8c2.1-1.5,1.6-4,1.6-6.2l-7.3,1.5,5.7,4.7Z"/>
  <path d="M1005.2,963.6h-7.3c-1.8,12.1,8.8,1.5,7.3,0Z"/>
  <path d="M347.3,1020c.2,1.8-.6,4.8.5,6.3,1.2,1.7,7.1,2.9,5.3-1.1l-5.8-5.2Z"/>
  <polygon points="347.3 1020 347.3 1020 347.3 1020 347.3 1020"/>
  <path d="M848,1028.3c4.1.3,5.7-4.8,4.7-8.3-1.8.4-9.2,8-4.7,8.3Z"/>
  <path d="M392.2,1051.3l-9.4,1.6c2.7,4.1,8.9,3.7,9.4-1.6Z"/>
  <path d="M817.2,1052.3l-9.4-1.1c.4,5.3,7.5,5.8,9.4,1.1Z"/>
  <path d="M385.9,1067.5l6.3,1.1c2.9-1.9-1.3-4.6-3.5-4.6l-2.8,3.5Z"/>
  <path d="M771.3,1101.4h-5.1c-2.9,8.9,4.2,8.2,5.1,0Z"/>
  <path d="M936.2,742.3h0s-4.2-7.3-4.2-7.3l-2.1.6-.6,3.6c1.7,2,4.1,3.4,6.8,3.1Z"/>
  <path d="M269.9,735h0c-1.8-1.7-2.2,1.5-2.7,2-.8.8-4.5,4.4-3.6,5.3,3.8.9,9.6-4.3,6.2-7.3Z"/>
  <path d="M807.8,1068.5l6.3-1.1c.3-1.4-2-3.6-3.5-3.5-1.8,0-5.6,2.8-2.8,4.6Z"/>
  <path d="M773,1163.1c-3.8.3-5.2,5.5-2.2,6.1,3.9.8,6.9-6.5,2.2-6.1Z"/>
  <path d="M429.2,1169.3c3.7-.7.4-7-3.1-6.3-3.7.7-.4,7,3.1,6.3Z"/>
  <path d="M434.9,1106l-1-4.5h-5.1c1.1,3.4,1.9,9.2,6.1,4.5Z"/>
  <path d="M208.3,781.4l-3.2-2.2,2.2-4.6c-7.3-1-4.8,12.6,1,6.8Z"/>
  <path d="M992.7,774.7l2,5.1c-6.6,1.8,1.2,6,2.2.6h0c.6-3.2-.2-6.6-4.2-5.7Z"/>
  <path d="M230.2,787.1c.6-.3,1.6-3.4-.5-4-2.8-.8-5,.3-6.7,2.5,0,1.6,6,2.2,7.2,1.5Z"/>
  <path d="M969.8,787.1c1.2.7,7.2,0,7.2-1.5-1.6-2.3-3.9-3.3-6.7-2.5-2.1.6-1.1,3.7-.5,4Z"/>
</svg>