<?xml version="1.0" encoding="UTF-8"?>
<svg id="Layer_1" xmlns="http://www.w3.org/2000/svg" version="1.1" viewBox="0 0 1200 1200">
  <!-- Generator: Adobe Illustrator 29.0.0, SVG Export Plug-In . SVG Version: 2.1.0 Build 186)  -->
  <path d="M1060.8,984.4h0,0q0,0,0,0Z"/>
  <path d="M230.5,1073.7c.2,0,.4-.3.6-.4-.2-.2-.4-.3-.6-.5v.9Z"/>
  <path d="M1180.5,727.9c3.1,7.3.7,3.3.7,7.5s1.2,3.8,2.3,4.9c3.3-13.7,6.1-27.6,8.4-41.7-2.4.3-5.4-.2-8.1.8-12.5,5.1-7.3,19.2-3.3,28.5Z"/>
  <path d="M1061,980.3s0,0,0,0h0s0,0,0,0Z"/>
  <path d="M1061,980.3l3.9-1c.8-1,1.6-1.9,2.4-2.9-1.7,0-3,.2-3.3.3-1.6.5-3.4,1.7-3,3.6Z"/>
  <path d="M1128.8,839.8h.3c-4.8,6.1-4.8,14.6-2.5,21.8l-3.7,2.7c-1.3-1,.8-2.9.4-4.4-.4-1.6-4.1-3.4-3-6.8h-4.1c-.8-.7,7.5-12.5,3-20-.5-.8-6.3-6.3-7.4-7-20.2-11.5-57.6-10.5-50,21.7l-2.6-3.1c-2.4-1.3-1.6,3.4-.2,4.9,1.8,1.9,8.2,2.1,6.9,6.4-3.3.5-7.5-3.4-9.7-3.6-3.2-.3-16.9,1.9-18.1,1.1-1.9-1.3.2-5.4,0-8.1-.2-2-2.5-8.5-4.3-9.2-9.5-2.4-8.1,8.3-9,14.7-3.9-.3-7.5,1.2-10.7,3.1-2.2,1.3-11.2,8.9-12.8,10.8-2,2.3-1,6.2-4.2,5.6-1.6-2.9.2-8.9-.2-10.6-.3-1.1-1.9-1.8-2.3-2.9-2.5-5.7-7.2-14.4-14.5-14.4s-4.1,5.2-8.2,6.3l-2.5-3.1-1,3.5c5.2,2.8,1.9,2.9,1.5,6.6-.6,6,1.3,13.7,1.1,17,0,1-2.7,3.4-1.7,5.7,3.4-.8,5.6-2.9,9.2-1l-9.2,5.6c4,2.5.7,5.4,7,7.4,6.8,2.3,13.5-.5,17.7-5.9-.6,3.5,1.8,10.1,4.1,12.6,1.8,2,7.2,2,8.3,4.3.9,1.9-4.2,2.1-5.1,3.6,0-2.2-6-6-7.8-4.2-4.9,5.3-3.7,11.5-2.4,17.9.3,1.6,2,3.1,1.9,4.1-.5,2.8-8.2,8-11.2,3.7-.6,1.9,1.7,2.5,1.9,3.8.2,1-1.7,2.8-2,4.9,0,1.2,1.1,10.7,1.5,11.4,1,1.9,5.2,1.7,5.8,4.5-5.9-1.8-10.9,3.3-15.4-2,.6,3.9-5.8,1.8-6.1,2.1-.5.5-.4,4.8-3.2,5.1-1.9-3.9,1.1-6.4,1.6-10.2.5-3.9.5-12-1.2-15.4s-4.3-6.5-4.6-6.7c-3.5-3.1-10.5,1.5-13.3,4.2-2.9,2.9-2.7,8.3-9.6,6.6-.7-.2-6.2-10.8-7.9-12.6-4-4.5-13.4-9-19.3-9.8-6.4-.9-3.9,1.4-6,3.8-1.9,2.2-4.3,3.4-5.9,6.4-1.1,1.8-1.3,5.1-2.1,6.1-1.9,2.3-16.9.3-12.4,11.3l9.3,2c1.1,3.8,1.2,11.1,3.1,14.4.7,1.2,9.5,8.9,11.2,10.3,1.6,1.3,3.6,1.7,5.2,3v6.2l-3.5.9c-4.9-8-13.9-13.2-23.7-12.2.4-5.6-4-9.1-8.3-11.8l2.1-7.6c-3.5.9-8.5,2.6-9.2,6.7-.7,3.7,3.2,2.3,3.1,5,0,1.3-4.1-.8-3.1,2.6,6-.3,9.2,4.1,14.4,6.7-.9,1.1-2.9.9-4.1,2.1-2.9,2.9-4.3,7-5.7,10.7-.3.9-2.1,1.6-2.2,2.6-.2,1.3,2.4,6.4,2.3,9.3,0,2-1.6,3.6-1.6,5.6,4.7-.6,5.9,4,8.2,5.6,4.1,2.8,11.6,4.8,14.3,7.3,1.6,1.5.8,1.2-.5,2.5-8-2.6-17.6-4.7-22.5-12.1-5,3-10.4.9-15.7,2.6-4.3,1.4-16.6,14.8-19.3,14.6l-5.4-4.9-15.2,2-2.5-2.1-1.5,3.1c-5.8,1.2-13.8,11.3-18.8,12.1-.8,0-14.9-4.6-15.5-5.1-.2,0,.6-1.5.3-1.9l-2-1.1-4.6,1.1,2,2-10.3,4.1c5.8-5.9,11.8-17.7,9.2-25.9,0-.3-2.9-4.1-3.1-4.3-5.2-5-9.4-1.3-14.7,1.6l-15.1,14.7c-.8-2.8,4-7,4.1-7.4.3-1.3-.4-3,.2-4.2.4-.8,11.9-8.9,14.2-12,8.2-11,7-24.6,5.1-37.4-7.4-1.9-13.1.9-19.2,4.8-1.6,1-2.1,2.8-3,3.4-1.3.8-4.3.8-4.4,1-.2.2.8,2,.4,3.1-.9,2.5-5.8,7.2-7.2,10.2-6.6-.8-5.9-8.6-12.4-8.9-3.1-.2-8.8,8.5-9.8,11.3-1.1,3.1-1.3,11.8-2.3,13.1-.8,1.2-3.5.7-4.7,1.5-2.7,1.8-1.6,9.2-2.3,12.1-.5,1.8-3,3.7-3.3,5.8-.3,1.8,1.2,5,.4,6.2-.7,1-10.4,2.2-11.7,5.2l-4.6-3.1c-.2,2.4,1.1,3.7,3.1,4.6-8.5,9-7.4,21.1,3.1,27.7-2.5,2.5-12.4,5.6-13,9.2,0,0,.6,2.5.7,2.6,1.9,1.5,14.9-7.4,17.9-8.2.5,0,4.1,7.7,4.3,8.2.6,2.1-3.2,4.4.3,5.6,1.7.6,4.4-1.5,6.5-1.2,2.9.4,8.9,4.2,12.9,3.8l-2,11.2-2.6-7.1c-1.4-3.9-11.5-4.4-11.7,0h-2c-.3-4.4-4.7-6.5-8.1-8.4-.7-3.5,4-8.1-1.2-8,.3,8.4-7.2,6.9-11.3,9.8-.6.4-10.3,10.2-10.7,10.8-2.8,3.9-5.4,14.6-8.2,17.4-1.9,1.9-6.3,2.7-8.4,5l-5.8-2.8-4.8,4.5c2.9.6,9.2,8.1,11.3,6.7l.5-6.2,5.1-3c2.5,4.9,1.4,10.4,4.8,15.7,3.4,5.4,6.4,4.4,10.5,6.8.9.6.6,2,.7,2.1.4.2,4.8-3.9,8.2-1,1.1,1.5-3.7,4.8-4.5,6.2-4.7,8.1-6.4,19.4-7.8,28.6,7.3-1.7,13.6-4.9,19-10l7.7,5.9-3.1,5.1,3.5,1.1c1-1.8,1.4-2.4,3.7-2.1l-3.1-2.1c4.3-3.8-.4-11.3-4.1-13.8v-1.5c3.7.7,4.1-2,4.1-5.1h-3c1.7-9.4-3.2-9.7-7.3-15.9,6.2-2.7,13.7-13.1,14.4-19.6,0-.3-4.7-1-.5-4.6l1.5,8.8c1.7,1.1,3.9-.3,6,0,3.1.7,5.8,5.2,8.9,2.4,3.8-3.4-3.7-8.7-3.2-10.3l2.7-6.1,7.2,2.1-.5,3.1c.9-3.1,3.7-2.8,5.1-4.1,6.3-5.6,9.3-16.3,4.1-23.6l1.1-2.1,8.6,2.2v4c1.8.2,1-2.3,2.8-2.9,2.3-.8,7.1.2,10.1-.2,1.9-.2,3.4-1.8,5.3-2,7.7-.8,7.7,6,18.6.2,2.5-1.3,5.4-5,8.1-5.3,3.7-.5,13.7,4,19.3,4,8.8,0,18.5-5.6,28-6.9,7-1,11.1,0,17.2,0,7.2,0,15.5-4.4,23.1-3.1,1.2,2.9-6,3.2-3.1,5.6,1.3,1.1,9.2,3.6,10.6,3.4,3.1-.6,6.8-6.9,8.9-8.5,2.3-1.7,7.1-3.2,10.2-5.2,3.5-2.3,5.7-8.3,10.8-5.6l.5-3.1,3.1,5.1-3.1,2.1h5.1l-2-8.2c8.4-4.5,4.7,1.4,11.3,4.1.5-2.8-.5-3.6-3-4.2l1.1-2.8h8.4c3.3,4.7,10.7,10.5,16.6,10.2,3.2-.2,5.1-3,8.7-1.1-3.3-3.2-1.1-6.3,1.6-9.2,6.6,2.6,14.3,4.6,20.9.9l-1-5c4-2,4.7,3.1,9.2,2.1l-1,2c6.2.7,11.5-.6,17.5-2,0,3.1-1.7,6.3-2.1,9.4,3.4-3,6.7-6.1,10-9.3-1.5,0-3.1-.2-4.8,0l5.7-6.2c1.4-.2,2.7,1,3.8,1.9.7-.6,1.3-1.3,2-1.9-1.4-.6-3.8-.5-3.2-2.3.6-1.7,3.3-4.1,4.4-5.9,1.5-2.4,1.2-4.9,4.5-6.8l7.7-20.6c3.9-2.9,6.8,2.1,11,1.8l-11.3,4.6,2,1c-5.2,3.5-1.5,9-4.2,14.2l1.5,1.3c7.7-8,15.2-16.2,22.5-24.6.7-2.6,2.5-7.3,3-7.7.9-.6,2.5,0,3.7-.2h0c-4.5-2.8-1.3-6.1-4.5-10.3l-7.7-6.1c8.7-2.1,13.2-12,21.1-15.4,2.7-1.2.3,2.7,1,4.1.5,1.1,3.5,3.3,4.7,4.6.7.9,0,2.7.9,3.1,0,0,.2,0,.4.2,3.8-5,7.6-10.1,11.3-15.3-2.5.4-7.5-.9-10.5.2,5.5-4.9,6-10.9,8.3-17.4,3.5.8,8,1.6,12.8,2,21.7-32.2,40.3-66.7,55.4-103-9.2-.6-19.1,1.2-24.7,8.5Z"/>
  <path d="M550.3,1099.9c-2.1-2.3-6.6-3.1-8.4-5-2.8-2.8-5.4-13.5-8.2-17.4-.4-.6-10.1-10.4-10.7-10.8-4-2.9-11.6-1.3-11.3-9.8-5.1,0-.5,4.5-1.2,8-3.4,1.9-7.7,4-8.1,8.4-2.9,1-1.8-2.3-3.7-2.9-2.2-.6-9.3-.2-10.1,3l-2.6,7.1-2-11.2c4.1.4,10-3.5,12.9-3.8,2.1-.3,4.8,1.8,6.5,1.2,3.6-1.3-.3-3.5.3-5.6.1-.5,3.8-8.1,4.3-8.2,3,.9,16,9.7,17.9,8.2,0,0,.7-2.5.7-2.6-.6-3.6-10.5-6.7-13-9.2,10.5-6.6,11.6-18.7,3.1-27.7,2-.9,3.2-2.2,3.1-4.6l-4.6,3.1c-1.3-3-11-4.3-11.7-5.2-.8-1.2.7-4.4.4-6.2-.4-2.1-2.9-4-3.3-5.8-.7-2.9.4-10.3-2.3-12.1-1.2-.8-3.9-.3-4.7-1.5-.9-1.4-1.1-10-2.3-13.1-1-2.8-6.7-11.5-9.8-11.3-6.5.3-5.8,8.2-12.4,8.9-1.4-3-6.3-7.7-7.2-10.2-.4-1,.7-2.8.4-3.1s-3.1-.2-4.4-1c-.9-.5-1.4-2.4-3-3.4-6.1-3.9-11.8-6.7-19.2-4.8-1.9,12.7-3.1,26.4,5.1,37.4,2.3,3.1,13.7,11.2,14.2,12,.6,1.2,0,2.9.2,4.2,0,.4,4.9,4.6,4.1,7.4l-15.1-14.7c-9.5-9.1-20.1-.6-18.6,10.4,0,.7,4.5,11.4,5.1,12.4,1.3,2.2,3.9,3.4,5,5.8l-10.3-4.1,2-2-4.6-1.1c-3.2.2-1.5,2.9-1.7,3-.6.5-14.7,5.2-15.5,5.1-5-.8-12.9-10.9-18.8-12.1l-1.5-3.1-2.5,2.1-15.2-2-5.4,4.9c-2.7.3-15-13.2-19.3-14.6-5.3-1.7-10.7.3-15.7-2.6-4.9,7.4-14.5,9.5-22.5,12.1-1.3-1.3-2-1-.5-2.5,2.7-2.5,10.2-4.4,14.3-7.3,2.3-1.6,3.6-6.2,8.2-5.6,0-2-1.5-3.6-1.6-5.6,0-2.9,2.4-8,2.3-9.3,0-1-1.8-1.7-2.2-2.6-1.4-3.7-2.8-7.8-5.7-10.7s-3.2-1-4.1-2.1c5.1-2.6,8.3-7,14.4-6.7,1.1-3.4-3.1-1.3-3.1-2.6,0-2.7,3.8-1.3,3.1-5-.8-4.1-5.8-5.8-9.2-6.7l2.1,7.6c-4.3,2.7-8.7,6.2-8.3,11.8-9.8-1-18.8,4.2-23.7,12.2l-3.5-.9c-.6-8.1.6-5.6,5.2-9.3,1.8-1.4,10.5-9.1,11.2-10.3,1.9-3.3,2-10.6,3.1-14.4l9.3-2c4.5-11-10.4-9-12.4-11.3-.9-1-1.1-4.2-2.1-6.1-1.7-2.9-4-4.2-5.9-6.4-2.1-2.4.4-4.7-6-3.8-5.9.8-15.3,5.3-19.3,9.8-1.6,1.8-7.1,12.4-7.9,12.6-6.9,1.7-6.7-3.7-9.6-6.6s-9.7-7.3-13.3-4.2c-.3.3-4.4,6.3-4.6,6.7-1.6,3.4-1.6,11.5-1.2,15.4.5,3.8,3.5,6.3,1.6,10.2-2.8-.2-2.7-4.6-3.2-5.1s-6.6,1.8-6.1-2.1c-4.4,5.3-9.5.3-15.4,2,.6-2.8,4.8-2.7,5.8-4.5.3-.7,1.6-10.2,1.5-11.4-.2-2.1-2.2-3.9-2-4.9.2-1.2,2.5-1.9,1.9-3.8-2.9,4.2-10.7-.9-11.2-3.7-.2-1,1.5-2.5,1.9-4.1,1.3-6.5,2.4-12.7-2.4-17.9-1.7-1.8-7.9,2-7.8,4.2-.9-1.4-6-1.6-5.1-3.6,1-2.3,6.5-2.3,8.3-4.3,2.3-2.5,4.7-9.1,4.1-12.6,4.1,5.4,10.8,8.2,17.7,5.9,6.2-2.1,3-5,7-7.4l-9.2-5.6c3.6-1.9,5.8.2,9.2,1,1-2.2-1.6-4.6-1.7-5.7,0-.9,1.5-3,1.7-5.1.4-4.6-.8-12-2.2-16.3l3.1-2.2-1-3.5-2.5,3.1c-4.1-1.1-4.5-6.3-8.2-6.3-7.3,0-12,8.7-14.5,14.4-.5,1-2.1,1.8-2.3,2.9-.4,1.7,1.4,7.7-.2,10.6-3.2.6-2.2-3.3-4.2-5.6-1.6-1.9-10.6-9.5-12.8-10.8-3.3-1.9-6.9-3.4-10.7-3.1-.9-6.4.5-17.1-9-14.7-3.7,3.8-5.5,10.2-3.4,15.3l-.9,2c-1.2.8-14.9-1.5-18.1-1.1-2.2.2-6.4,4.2-9.7,3.6-1.3-4.4,5.1-4.5,6.9-6.4,1.3-1.4,2.1-6.2-.2-4.9l-2.6,3.1c7.6-32.2-29.8-33.3-50-21.7-2.5,1.4-8.1,7.4-8.5,10-1,6.1,1.9,11.4,4.1,16.8h-4.1c1.1,3.4-2.6,5.3-3,6.9-.4,1.5,1.7,3.4.4,4.4l-3.7-2.7c6.2-22.2-8.7-31.7-27.2-30.4,15.2,36.3,33.8,70.7,55.4,103,4.8-.5,9.4-1.3,12.8-2.1,2.3,6.5,2.8,12.5,8.3,17.4-3.1-1.1-8.1.2-10.6-.2,3.7,5.2,7.5,10.3,11.3,15.3,0,0,.3,0,.4-.2.8-.4.2-2.2.9-3.1,1.2-1.4,4.2-3.5,4.7-4.6.6-1.4-1.8-5.2,1-4.1,7.9,3.4,12.3,13.3,21.1,15.4l-7.7,6.1c-3.2,4.2,0,7.5-4.6,10.2,1.2,0,2.9-.4,3.8.2.5.3,2.3,5.3,3,7.8,7.2,8.4,14.7,16.5,22.4,24.5l1.6-1.3c-2.7-5.2,1-10.7-4.2-14.2l2-1-11.3-4.1c3-.5,8.7-5.2,11.1-2.3l7.7,20.6,2.9,2.5c.1,4.2,4.9,7.2,6,10.2.7,1.8-1.9,1.7-3.3,2.3.7.6,1.3,1.3,2,1.9,1.1-.9,2.5-2.1,3.8-1.9l5.7,6.2h-5.1c3.4,3.1,6.8,6.3,10.3,9.5-.3-3.1-2.2-6.3-2.1-9.5,5.9,1.4,11.2,2.7,17.5,2l.5.4-1-2c4.6,1,5.2-4.1,9.2-2.1l-1,5c6.6,3.7,14.3,1.7,20.9-.9,2.7,2.9,4.9,6,1.6,9.2,3.6-1.9,5.5,1,8.7,1.1,5.9.3,13.3-5.5,16.6-10.2h8.4c3,4.4-2.8,2.1-1.9,7l6.5-6,4.8,1.9-2,8.2h5.1l-3.1-2.1,3.1-5.1.5,3.1c5.1-2.7,7.3,3.2,10.8,5.6,3,2,7.9,3.5,10.2,5.2,2.1,1.6,5.8,7.9,8.9,8.5,1.4.3,9.3-2.3,10.6-3.4,2.9-2.4-4.2-2.7-3.1-5.6,7.6-1.3,16,3,23.1,3.1,6.1,0,10.2-.9,17.2,0,9.5,1.4,19.1,6.9,28,6.9s15.6-4.5,19.3-4c2.7.4,5.6,4,8.1,5.3,10.9,5.8,10.9-1,18.6-.2,1.8.2,3.4,1.7,5.3,2,3,.4,7.8-.6,10.1.2,1.8.6.9,3.1,2.7,2.9v-4c0,0,8.7-2.2,8.7-2.2l1.1,2.1c-5.2,7.3-2.3,17.9,4.1,23.6,1.4,1.2,4.2.9,5.1,4.1l-.5-3.1,7.2-2.1,2.7,6.1c.5,1.6-7,6.9-3.2,10.3,3.2,2.8,5.8-1.7,8.9-2.4,2.1-.5,4,.9,6,0,1.8-1.2-1.4-6.6,1.5-8.8l1.2,3.9c-3.1-.3,2.3,11,3.5,12.9,1.8,2.7,6.5,5.3,9.1,7.3-4.1,6.1-9,6.5-7.3,15.8h-3c0,3.2.4,5.9,4.1,5.2.8,2.5-2,2.3-2.8,3.4-.4.5-3.4,7.1-3.4,7.5-.2,2.3,2.4,4.1,2.1,4.5l-3.1,2.1c2.3-.3,2.8.3,3.7,2.1,6-1.4,2.9-2.6.4-6.2l7.7-5.9c5.4,5.1,11.7,8.3,19,10-1.4-9.2-3-20.5-7.8-28.6-.9-1.5-5.6-4.8-4.5-6.2,3.4-2.9,7.8,1.3,8.2,1,0,0-.2-1.5.7-2.1,4.1-2.4,7.1-1.4,10.5-6.8,3.3-5.3,2.3-10.9,4.8-15.7l5.1,3,.5,6.2c2.1,1.5,8.4-6.1,11.3-6.7l-4.8-4.5-5.8,2.8Z"/>
  <path d="M139.3,980.3h0s0,0,0,0h0Z"/>
  <path d="M136.2,976.7c-.4,0-1.7-.2-3.4-.3.8,1,1.6,1.9,2.4,2.9l4,1c.4-2-1.5-3.2-3-3.6Z"/>
  <path d="M8.1,698.6c2.3,14.1,5.2,28,8.4,41.7,1.1-1.1,2.4-2.5,2.3-4.9h.1c0-4.2-2.4-.2.7-7.5,2.8-6.6,7.4-18,2.2-24.3-4.6-5.5-8.4-4.1-13.7-5Z"/>
  <path d="M179.2,1027.7h0c0,0,0,0-.1,0,0,0,0,0,.1,0Z"/>
  <path d="M179,1027.6h0,0c0,0,0,0,0,0Z"/>
  <path d="M814.8,895v-.2c4.3,4.6,14.7,5.9,20.7,5.3,3.3-.3,8.9-3,11.4-2.9,2.2,0,3.6,2.8,8.1,2,2.1-.4,2.8-2.2,4.4-2.8,3.6-1.3,7.3-2.3,11.1-3.1,2,.4,3,11.5,7.6,11v-10.2c.8-.9,8.4,3.3,8.2-.5-1.6-3.2-18.3-7.9-21.6-11.2s-3.3-7.9-4.4-10.1c-2.7-5.5-7.5-14.9-11.5-19.1-.7-.7-1.5-1.1-2.5-1.1,4.1-4.2,1.1-6.9-3.6-8.2-2.7,1.8-.8,3.7-.5,6.2-3-.9-9.7-3-12.7-2.8-.9,0-15.9,5.3-16.6,5.8-.9.7-6.4,10.6-6.6,12-.6,4.8,2.2,9.2,3,13.3,1.4,7.2-.8,9.6,5.5,16.6Z"/>
  <path d="M321.9,894v10.2c4.6.5,5.7-10.6,7.6-11,6.4-.2,14.1,6.9,19.5,5.8,1.6-.3,2.7-1.8,4.1-1.9,2.6-.2,8.2,2.5,11.4,2.9,6,.6,16.4-.7,20.6-5.3,6.4-6.9,4.1-9.3,5.5-16.6,1-5.3,4.6-9.6,2.2-15.7v.2c-.2-.8-4.8-8.7-5.2-9.1-3.1-2.9-13.1-3.5-17.1-6.3l-12.7,2.8c.3-2.4,2.2-4.3-.5-6.2-4.8,1.4-7.6,4-3.6,8.2-1,0-1.8.4-2.5,1.1-4,4.3-8.8,13.6-11.5,19.1-1.1,2.3-1.4,7.1-4.4,10.1s-20,8.1-21.6,11.2c-.2,3.8,7.4-.4,8.2.5Z"/>
  <path d="M613.7,1061.3c8.5.4,12.1-10,19.3-13.8,3.3-1.8,7.5-1.2,10.2-4.2-1.3-2-1.7-1-3-1-3.7,0-10,1.7-13-.5-2.5-1.8-4.3-11.8-8.6-13.9l3.1-.5c2.2-4.5-6.7-11.6-7.2-5.6-.2,2.6,2.3,3.3,2.1,5.6-5.8-.4-11.9,2.1-16,6.1-5-3.3-10.5-6.8-16.8-6.1,0-2.6,2.9-3.5,2-6.6-1.3-4.5-9.4,2.9-7.1,6.6l3.1.5c-4.4,2.1-6.1,12.1-8.6,13.9-3,2.2-9.3.5-13,.5s-1.7-1.1-3,1c2.7,3,6.9,2.4,10.2,4.2,7.3,3.9,10.8,14.5,19.6,13.8.5.5-2.1,9,4.6,11.5,3,1.1,5.4-1.2,8.3-1.3,3.5,0,6.8,2.7,9.9,1.1,4.5-2.3,4.3-6.7,3.9-11.3Z"/>
  <path d="M807.1,1089.7c5.6-5.1,3.8-15.5-2.2-20.2-10.4-8-21.6.6-21,12.3l-7.2-1c1.3-2.3,4.1-1.4,3.1-5.1-5.3.6-9.6,4-14.4,6.6-2.7,1.4-5.2-.5-5.1,5.3,0,4.4,2.6,2.6,3.9,3.8.9.9,3.2,6.9,5.5,8.4,1,.6,10.4,3.2,11.8,3.2,5.9,0,11-6.3,7.7-11.8,2.8.4,4.6,2.8,7.7,2.6,1.3,0,9.4-3,10.4-4h-.2Z"/>
  <path d="M435,1082.2h0c-4.9-2.5-9.2-5.9-14.4-6.5-1,3.7,1.8,2.8,3.1,5.1l-7.2,1c.3-23.8-32.8-17.4-25.3,4.3,1.5,4.3,8.4,7.3,12.5,7.5,3.2.2,4.9-2.2,7.7-2.6-3.1,5.4,1.3,11.2,7,11.8,1.6.2,11.2-2.3,12.4-3.1,2.3-1.4,4.6-7.5,5.5-8.4,1.3-1.2,3.8.6,3.9-3.8,0-5.7-2.5-3.8-5.1-5.3Z"/>
  <path d="M234.5,1075.9c1.3,1,2.6,2,3.9,3-.6-1.4-1.9-2.5-3.9-3Z"/>
  <path d="M236.4,1057.5c.6-2.1,2-10.8-.4-11.5-3.2-.9-8.4,6.6-12.3,8.1l-3-2.1c-2.8-.3-7.9,3.9-5.7,6.3.5.5,4.3-1.1,4.1,1-.9.5-1.9,1.2-2.8,2.1,3.9,3.2,7.8,6.4,11.7,9.5.8-.8,1.7-1.4,2.4-1.3h0c0,0,0,3.1,0,3.1.2.2.4.3.6.5,6.1-4.3,1.2-5.9.5-8.5-.9-3.1,4-4.6,4.8-7.2Z"/>
  <path d="M961.7,1078.8c1.2-.9,2.5-1.9,3.7-2.8-1.7.3-3.1,1.2-3.7,2.8Z"/>
  <path d="M979.3,1052l-1.7,1.9-1.3.2c-3.3-.8-10.7-11.3-13.5-7.2-.6.9.4,9.3.8,10.6.7,2.4,5,4,5,6.4s-5.9,4.7,0,9.5c0,0,0,0,0,0,0,0,.1.2.2.3v-.4s0,0,.1,0l.4-3.5c.7,0,1.5.4,2.4,1.3,3.9-3.1,7.8-6.3,11.7-9.5-.9-.8-1.9-1.6-2.8-2.1-.2-2.1,3.6-.5,4.1-1h0c2.2-2.4-2.9-6.6-5.7-6.3Z"/>
  <path d="M314.2,1097.9h.2c.6-1.7.6-3.3,0-5.1-1.7-4.7-9.6-2.4-10.1-2.7-.5-.3-2.9-8.7-5.1-9.8.4-1.5,6.5,1.5,6.1-1,0-.2-3-3.3-3.2-3.4-.6-.2-5.7.8-5.1,2.7l-2-.4c0-7.6-16.2-12.3-15.5-3,.2,1.9,2.1,1.4,2.2,2.1.2,1.5-1.2,3.6-1.1,5.9.2,2.7,2.7,5.7,2,8.8l-5.1-1c-2.5,8.6,4.4,4.2,7.9,5.9,2.2,1,2.7,3.6,4.3,5,3.3,2.8,13.2,4.6,17.3,2.8.5-.2,6.9-6.3,7.1-6.8Z"/>
  <path d="M922.3,1091.2l-5.1,1h0c-.7-3.3,1.9-6.2,2-8.9.3-4.6-1.7-2.6.7-6.8,2-3.4-1-6.7-4.5-6.7s-7.8,2.5-8.1,2.7c-1.8,1.4-.9,4.8-3,6.3-.7.4-3.9-3.8-6.5-2.9-.2,0-3.2,3.1-3.2,3.4-.3,2.5,5.7-.5,6.1,1-2.3,1-4.7,9.4-5.1,9.8-.4.3-5.9-1.8-9.2,1.5-4.1,6.2,5.9,14.1,11.8,14,2.6,0,8.6-1.4,10.7-2.7,2.6-1.5,3.3-5.3,6.2-6.2,3.4-1,9.5,2.8,7.2-5.5Z"/>
  <path d="M1122.5,824.2c3.2-1.8,15.9,3.8,16.5.4.8-3.5-3.2-4.7-3.9-5.8h0c-1.1-1.6-1.7-6.1-3.6-9.2-2.4-4-20.7-25.2-25.3-18-1.2,6.6,1.1,15.3,7,18.3l-6,2.1v3.9c3.2,2,8.8-.5,9.2,4.2l5.6-3.1,4.6,5.6-4.1-1.5v3.1Z"/>
  <path d="M93.8,791.9v-.2c-4.5-7.3-22.8,13.9-25.2,18-1.8,3.1-2.5,7.5-3.6,9.3-.4.7-5.7,3.7-3.8,6.4s6.3-.7,7.7-.9c2.8-.4,5.8,0,8.7,0v-3.1l-4.1,1.5,4.6-5.6,5.6,3.1c.3-4.8,5.9-2.3,9.1-4.2v-3.9l-6-2.1c5.9-3,8.2-11.7,7-18.3Z"/>
  <path d="M1160.4,753.6v-3c-1.1-.7-4.4,0-4.9-.4-2.1-1.3-.7-2.5-6-3.6-8.6-1.9-12.9.4-17.2,8.2-2.8,5,.7,14,6.3,16.1h0c14,5.3,21-4.1,18.9-17.3h2.9Z"/>
  <path d="M57.5,771.8h0c8.5-1,14.1-10.7,9.8-17.8-4.7-7.9-11.3-10.6-20.1-6.8-2.5,1.1-2.7,4.2-7.5,3.3v2.9h2.9c-1.2,11.4,1.6,20.1,14.9,18.4Z"/>
  <path d="M945.6,1063.4c1.4-4.3,5.3-10.9-2.4-12.1h0c-4.3-.7-7.2,5.2-10.5-2.8l3-1.7-.9-2.9-3.4,2-3.7-3,4.1,7.2c-2.3-1.6-5.7,1-6.7.8-1.4-.2-2.1-5.3-5.6-3.9-.5,3.2-1.3,5.2.6,8.2.5.8,2.1.9,2.3,1.2.2.4-1,2.2-.9,3.4,0,.4,1.9,5.4,2.1,5.7,0,0,1.5-.8,2.3-.6,3.1.7,1.7,2.4,5.8-1.4-1.1,6,3.3,10.6,8.2,13.3l.6-2.1,3.5,1.1c.4-4-6.5-5.6-.7-10,.7-.5,2.2,0,2.6-.4,0,0-.5-1.3-.3-2Z"/>
  <path d="M278.9,1059.6c.2-1.2-1.1-2.9-.9-3.4.4-.2,1.7-.4,2.2-1.1,1.9-2.9,1.1-5,.6-8.2-3.5-1.4-4.2,3.7-5.6,3.9-1,0-4.5-2.4-6.7-.8l4.1-7.2-3.7,3-3.4-2-.9,2.9c4.2.2,2.3,4.6,0,5.8-2.1,1.1-8.7-4.3-11.8,1.5-1.4,3,1,6.3,2,9.2.2.7-.4,1.9-.3,2,1.1.7,5.1.5,5.1,4.7s-4.4,1.8-3.1,5.6l3.5-1.1,1.1,2.2c4.5-3.4,8.9-7.2,7.7-13.3,4.1,3.9,2.7,2.1,5.8,1.4.8-.2,2.2.7,2.3.6.2-.2,2.1-5.3,2.1-5.7Z"/>
  <path d="M1025.2,690.7c4.8-11.9-8.1-18.6-18-19.3-1.8,2.6-4.9,6.6-4.9,9.8s4.6,10.7,5.5,11.5c4.1,4.2,14.6,4.9,17.4-2Z"/>
  <path d="M192.6,692.4c.9-1.1,5.1-9.6,5.1-11.1,0-3.5-3.1-6.5-4.4-9.6-9.8.2-21.7,6-19,17.6,2,8.5,14.2,8.1,18.3,3.1Z"/>
  <path d="M193.3,671.7s0,0,0,0c0,0,0,0,0,0h-.1Z"/>
  <path d="M687.7,953.7h0c-.8-.2-8.1,0-8.5.2-.5.3-6.9,7.9-7.2,8.7-1,3.4-1.2,12.2,3.4,12.6.7,0,9.2-.9,10.2-1.1,15-3.2,11.8-18.9,2.1-20.4Z"/>
  <path d="M527.2,973.6h.1c1.4-1.7,1.4-8.8.7-11.1-.2-.8-6.7-8.4-7.2-8.7-.4-.2-7.7-.4-8.5-.3-7,1.1-11.6,12.2-5.2,17.5,3,2.5,18,5.3,20.1,2.6Z"/>
  <path d="M869.2,1136.3h0c5.6-2.8,11.2-5.7,16.8-8.8l-5.4-4.6c-5.7.9-10.3,7.5-11.4,13.4Z"/>
  <path d="M319.5,1123c-2.6,1.7-4.3,3.1-5.4,4.6,5.5,3,11.1,5.9,16.8,8.8-1.1-5.9-5.7-12.5-11.4-13.4Z"/>
  <path d="M812,1111.5h0c-.6.4-7.9,6.8-8.2,7.3-2.7,5.5,1,10.5,7,10.2,7-.4,8.4-3.4,12.3-7.8.8-.9,2.1-1,3.2-2.5.6-.9,3.7-7,3.7-7.7,0-6.2-15.1-1.2-18,.5Z"/>
  <path d="M396.3,1118.9h0c-.2-.6-7.6-7-8.2-7.3-2.9-1.7-17.9-6.7-18-.5,0,.7,3.1,6.8,3.7,7.7,1,1.4,2.4,1.6,3.2,2.5,3.9,4.4,5.3,7.4,12.3,7.8,6.1.3,9.8-4.7,7-10.2Z"/>
  <path d="M1103.5,726h0c-1.2,3.8-7.6,32.9,4.4,23.2,4.6-3.8,10.5-13,11.4-18.9,1.3-8.2-9.5-10-13.7-3.3l-2.1-1Z"/>
  <path d="M96.6,725.9l-1.6,1c-3.1-2.3-5.4-4.9-9.7-4.1-7.3,1.3-3.2,13.9-.5,18,1.6,2.5,8.8,10,11.8,9.8,7.1-.6,0-20.5,0-24.7Z"/>
  <path d="M280.9,814.6h0c.5-6.9-2.7-5.7-5.3-10.6-2.8-1.7-11.8,7.4-12.9,9.9-7.4,16.5,17.1,16.8,18.2.7Z"/>
  <path d="M938.2,823.3c3.7-6.6-6.4-18.5-13.2-19.6-.8,2.6-3.6,3.4-4.5,4.5-7.1,8.7,8.4,25.5,17.7,15.1Z"/>
  <path d="M915.4,902.7h0c5.9,2.5,16.3,2.1,16.1-6.1,0-2-2.9-5.7-4.4-7.2-8.9-8.3-20.6-2.2-16.9,8.2,0,.3,4.9,5,5.2,5.1Z"/>
  <path d="M275.1,904.3c4.2.4,13.9-3,14.9-7.7.6-2.7-.2-7.6-2.4-9.5h0c-8.3-6.9-23.1,6.4-17.9,13.8.4.6,4.5,3.3,5.3,3.4Z"/>
  <path d="M101.7,595.6c9.7,7.4,21.3-11.8,13.6-18.2-7-5.8-22.4,11.4-13.6,18.2Z"/>
  <path d="M1098.4,595.6c8.8-6.8-6.5-23.9-13.6-18.2-7.7,6.3,3.9,25.6,13.6,18.2Z"/>
  <path d="M493.2,1158.2c-2.1,2.5.8,6.3,1,9.2-6.5,3.5-13.1,10.1-13.1,17.9,6.5,4.8,18.3-6.8,18-12.7,0-1.9-2.7-3.8-2.7-4.1,0-.7,2.2-1.2,2.7-1.8,3.1-3.7-.3-14.1-5.9-8.5Z"/>
  <path d="M706,1167.4h-.1c6.4-12-7.2-15.3-6-3.2.3,3,3.8,3.5,3.9,4.3,0,.3-2.6,2.2-2.7,4.1-.3,6,11.6,17.6,18,12.7,0-7.8-6.6-14.4-13.1-17.9Z"/>
  <path d="M994.7,712.5h0c4.3-.9-2.6-13.2-4.1-15.3-.8-1.1-6-6.3-6.9-6.9-3.8-2.6-9.3-2.7-8.9,3.1.7,9.2,12.3,16,19.9,19.1Z"/>
  <path d="M206.9,712c2.4-.6,12.2-7.3,14-9.1,2.2-2.3,5.4-9.2,4.4-12.3h0c-7.7-8.3-22.9,15-21.4,20.2.5,1.7,1.6,1.6,3,1.2Z"/>
  <path d="M510.2,863.5h0c1.3,1.8,14.6,3,16.7,2.2,4.1-1.6,6.9-9.2,3.1-12.3-5.8-4.7-25,2.7-19.8,10.1Z"/>
  <path d="M673.2,865.6h0c2.1.9,15.4-.3,16.7-2.2,5.2-7.3-14-14.8-19.8-10.1-3.8,3.1-1,10.7,3.1,12.3Z"/>
  <path d="M332.1,992.5c6.4,2.5,10.6,4.9,17,0,3.7-2.8,1.8-6,8.7-4.6l1-2.6c-1.8.8-3.2,1.1-4.8-.3h0c-.7-.5-.9-2-1.8-2.7-8.8-7.3-22.1,8.1-20.1,10.2Z"/>
  <path d="M841.2,985.5c0,5.1,4.6,1.6,6.1,2.5.9.5,1.9,3.4,3.6,4.7,6.4,4.9,10.5,2.4,17,0-.9-7-11.6-14.5-18.2-11.5h0c-3.3,1.4-3.4,6.9-8.5,4.3Z"/>
  <path d="M480.7,1154.9h0c-1-1.2-5.6-1.8-7-.8-4,6.1-3.9,21.1,5.7,21.2,5.8,0,3.4-17.9,1.3-20.4Z"/>
  <path d="M727.2,1155.4c-1.6-2.7-6.9-2.1-8.1,0-1.8,3.4-3.9,18,.3,19.5,9.2,3.3,11.4-13.5,7.8-19.5Z"/>
  <path d="M784.8,938.2h0c6.9-4.1,17.4-.5,23.6-7.7.9-4.3-14-3.7-15.2-4.8-.6-.5,0-3.2-1.7-3.9-4.1,4.9-8.2,9.4-6.7,16.4Z"/>
  <path d="M391.6,930.5c6.2,7.2,16.7,3.6,23.6,7.7,0-2.5.2-5-.2-7.5-.5-2.7-2-2.4-2.5-3.1-6-9.7-3.4-3.9-5.7-1.9-1.2,1.1-16.2.5-15.2,4.8Z"/>
  <path d="M944.9,879.2c3.5-3,1.6-7.6-2-9.2-2.4-1-3.7.4-5.5.2-1.1,0-2.2-1.4-3.2-1.4s-7.8,1.8-8.8,2.2c-6.2,2-.7,9.3,5,5.8.8,4.8,11.9,4.6,14.5,2.4Z"/>
  <path d="M270,876.7h.1c1.3,0,3.6,1.8,5.4.8.2,0,2.8-4.1,1.8-5-.5-.8-10.4-3.7-11.4-3.7s-2.1,1.3-3.2,1.4c-1.8,0-3.1-1.3-5.5-.2-5.8,2.5-4.9,10.1,1.6,10.8.7,0,7.9-.5,8.3-.7,1.8-.9,2.3-3.4,2.9-3.4Z"/>
  <path d="M377.2,768.5h0c-1.2-3.5-5-6.9-8.7-6.2-6.5,1.1-10.1,6-7.8,12.4,6.6,6.2,15.1,2.1,16.5-6.2Z"/>
  <path d="M838.2,775.6c5.9-4.4-2-15.1-8.7-13.4-13.7,3.5-2,21.4,8.7,13.4Z"/>
  <path d="M880.3,1069c-.4.4-3.5,7-3.6,7.6-1.1,5.5,10.3,5.2,12.6,2.9h0s6.3-10.7,6.3-10.7l-2.9-6.5c-1.9-.3-.5,2-1.2,2.9-.5.6-9.2,1.9-11.1,3.8Z"/>
  <path d="M307.5,1062.4l-2.9,6.5c3,4.6,4.7,11.5,10.6,12,2.9.3,8.4.7,8.4-3.6s-3.3-7.7-3.7-8.2c-2-1.9-10.6-3.2-11.1-3.8h0c-.7-.9.8-3.2-1.2-2.9Z"/>
  <path d="M368.8,1080.1c-.5-.5-2.2-.6-3.3-1.3-1.2-.8-1.8-2.4-3.3-2.9-2.6-.8-6.2,0-9-.3-4.6,8.5,4.2,15.2,12.2,14.4,4.3-.4,6.3-7.3,3.4-9.9Z"/>
  <path d="M368.7,1080s0,0,0,0c0,0,0,0,0,0h0Z"/>
  <path d="M837.9,1075.9h0c-1.5.5-2.1,2.1-3.3,2.9-2.3,1.5-4.3.4-4.6,4.7-.7,12.5,23.6,4.9,17.4-7.7-2.9.2-6.8-.7-9.5,0Z"/>
  <path d="M1184.1,594.1c7.6-4-.2-27.1-9-17.7-2.4,2.6,2.6,21.1,9,17.7Z"/>
  <path d="M16,594.1c6.4,3.4,11.4-15.1,9-17.7-8.8-9.4-16.6,13.7-9,17.7Z"/>
  <path d="M1068.7,816.2h0c2.8-7.2-10.8-14.6-16.3-13.3-.9.2-2.2,1.4-2.4,2.4-1,6.1,15.4,15.3,18.7,10.9Z"/>
  <path d="M131.4,816.2c3.4,4.7,21-5.8,18.5-11.4-.9-2-3-2-4.8-1.8-5.9.6-15.7,6.1-13.7,13.2Z"/>
  <path d="M245,1076.4c-.9,1.8-1.7,3.7-2.3,5.7,2.3,1.7,4.7,3.4,7,5.1,2.4-5.9,2.3-14.7,3.4-19.7-4.2.7-6.4,5.5-8.1,8.9Z"/>
  <path d="M947,1067.5h0c1,5,.9,13.7,3.4,19.6,2.3-1.7,4.7-3.4,7-5.1-.6-1.9-1.4-3.8-2.3-5.6-1.6-3.4-3.8-8.2-8.1-8.9Z"/>
  <path d="M528.2,1022.7c-10.7,2.4-.3,14,5.9,14.8,2.1.3,3.3-2.1,5.4-.9h0c.8-5.9-4.9-15.3-11.3-13.9Z"/>
  <path d="M660.6,1036.6h0c4.5.8,8.1,1,12-2.3,1.3-1.1,4.6-6.6,4.2-8.3-7.5-9.4-16.9,2.1-16.2,10.6Z"/>
  <path d="M463.9,1077.7h0c0,0-2.2,0-2.2,0l-.6-5.2-2.1,7.2c-1.3-3.7-7.3-4.8-7.7,0l-2-2c-2,3.6-2.2,8.1,0,11.8,4.4-.8,10.3,2.3,12.1-3.4.4-1.3-.8-5.2.5-6.3.2-.2,6.2-.5,2.1-2.2Z"/>
  <path d="M751.1,1077.9l-2,2h-.2c0-4.7-7-4-7.2,0-2.9-1-2-4.7-2-7.2l-.9,4.6-3.1.6c-.9,3.4,2.3,1.1,3.1,2.7.8,1.7-.3,4.4.2,5.8,1.8,5.7,7.7,2.6,12.1,3.4,2.1-3.8,1.9-8.2,0-11.8Z"/>
  <path d="M35.5,803.8c1.2,3.3,2.4,6.5,3.6,9.7.3-4.7.9-10.8-3.6-9.7Z"/>
  <path d="M1163.2,804.1h0c-3.6.8-2.6,5.2-2.1,9,1.1-3,2.2-6,3.3-9-.4,0-.8-.2-1.2,0Z"/>
  <path d="M498.4,942.9c7.2-2.9-2.7-17.3-9.9-11.5-6.8,5.5,1.5,14.8,9.9,11.5Z"/>
  <path d="M701.7,942.8c8.4,3.4,16.8-5.9,9.9-11.5-7.2-5.8-17.2,8.6-9.9,11.5Z"/>
  <path d="M782.1,1018c4.5-.2,15.6-10,11.7-13.9-4-4-19,9.6-17.2,12.1h0c1.9,0,3.5,1.9,5.5,1.8Z"/>
  <path d="M405.5,1007.1c1.3,6.1,11.9,13.9,18,9.1,1.1-5.7-20-19-18-9.1Z"/>
  <path d="M461,1105.6h0c-5.2,5.7-12.4,17.7-6.2,24.5.6-1.5,4-2.7,4.4-3.3.4-.7,3.3-15.2,3.4-16.7,0-1.9.3-3.3-1.6-4.5Z"/>
  <path d="M737.6,1109.9h0c0,1.6,2.9,16.1,3.4,16.8.4.6,3.8,1.8,4.4,3.3,6.2-6.8-1-18.8-6.2-24.6-1.8,1.3-1.6,2.6-1.6,4.5Z"/>
  <path d="M946,905.4v5.1h5.6c1.8-3.6-2.3-5.8-5.6-5.1Z"/>
  <path d="M951.1,913.6l-2.6-2-1.5,2.1c0-.8-.6-2.6-1-3.1-.3-.2-5.8-3.6-6.1-3.7-7.9-2.5-10.8,9.5.7,11.6h0c9.3,1.7,4.3-2.2,10.5-4.9Z"/>
  <path d="M254.1,905.4c-3.3-.6-7.5,1.6-5.6,5.1h5.6v-5.1Z"/>
  <path d="M259.5,918.5c11.5-2.1,8.6-14.2.7-11.6h0c-.3,0-5.9,3.4-6.1,3.7-.9.9-.4,3.5-2,3.1l-.5-2.1-2.6,2c6.2,2.7,1.2,6.6,10.5,4.9Z"/>
  <path d="M466.5,854.5c6.3-4.8-.8-13.2-8.5-10.6h0c-2.4.9-4.9,6.8-3.3,9.2,1.2,1.9,9.4,3.3,11.8,1.4Z"/>
  <path d="M737.1,855.7c13.6.4,9.9-14-.8-11.6-7.4,1.7-6,11.4.8,11.6Z"/>
  <path d="M60.3,688.6c1-2.2,4.5-10.9,1.2-11.9-8.6-2.6-9.2,16.4-9.6,21.4,2,2,7.8-8.2,8.4-9.5Z"/>
  <path d="M1148.2,698.1c-.5-4.9-1-16.8-4.3-20.2-1.9-1.9-7.2-2.4-6.8,2,.5,5.5,5.3,16.6,11.1,18.2Z"/>
  <path d="M1148.2,698.1s0,0,0,0c0,0,0,0,0,.1h0Z"/>
  <path d="M429,913.3c6.8,6.1,14.4-2.5,10.4-7.8-6.5-8.7-16.5,2.4-10.4,7.8Z"/>
  <path d="M771.1,913.3c6.1-5.4-3.9-16.5-10.4-7.8-4,5.3,3.6,13.9,10.4,7.8Z"/>
  <path d="M1122.7,614.1h0c.4-.8,2.1-2.1,2.3-2.5.5-.9,1.4-1.4.9-2.8-11.2-19.1-20.9.8-3.3,5.3Z"/>
  <path d="M76.8,613.8h0c6.6,2.2,12.8-10,9.1-12.6s-12.6,4.7-11.9,8.9c0,.3,2.6,3.6,2.8,3.7Z"/>
  <path d="M604.1,976.8c6.7,2.2,13.9-5.4,10.2-11.7-5.4-3.2-14.2,9-10.2,11.7Z"/>
  <path d="M585.8,965h0c-3.6,6.2,2.9,13.2,9.5,12.1,4.2-1.4-.7-9.3-2.7-10.9-1.8-1.4-4.6-1.6-6.8-1.2Z"/>
  <path d="M1088.2,794.1c1.7,1.5,2.3,3.2,5.5,3.2l2.1-1.2c-.6-2.5-3.2-12.5-5.6-12.6h0c0,0-7.7,3.5-7.7,3.5-.2,1.1,4.5,6.1,5.7,7.1Z"/>
  <path d="M104.3,796.1h0c3,3.1,6.6-.7,8.8-3,.9-.9,4.7-5.4,4.5-6.2l-7.7-3.4c-2.5,0-5,10.1-5.6,12.6Z"/>
  <path d="M.8,630.8c.2,3.5.4,7,.6,10.4,1.6-2.1,2.4-5.6,2.8-8.8-1.2-1-2.3-1.5-3.4-1.7h0Z"/>
  <path d="M1195.8,632.5c.4,3.1,1.2,6.5,2.7,8.7h.1c.2-3.5.4-7,.6-10.4-1.1.2-2.2.7-3.4,1.7Z"/>
  <path d="M1160.7,658.4c-3.6-8.2-16-2.6-8.1,5.5,4.7,4.8,11.1,1.4,8.1-5.5Z"/>
  <path d="M47.4,664c7.9-8.1-4.5-13.8-8.1-5.5-3,6.9,3.4,10.4,8.1,5.5Z"/>
  <path d="M900.4,903c12.2.8,3.9-11-3-9.8-8.5,1.5-3,9.4,3,9.8Z"/>
  <path d="M307,898.3c1-3.5-4.3-5.5-7-5-1.6.3-5.8,3.6-6.4,5-2.8,5.9,10.1,6.5,13.4,0Z"/>
  <path d="M472.4,1145.4l4.5-1.6-1.2-13.5-3.9-1.1h0c-2.1,4.9-4.2,12.1.6,16.2Z"/>
  <path d="M616.5,1101.3h0c-1.4,1.3,5.8,7.3,6.8,8.1,1.2.9,10.1,7.4,10.6,3.7.7-4.6-12.8-12.6-17.4-11.8Z"/>
  <path d="M583.6,1101.5h0c-4.6-.9-18.1,7-17.4,11.7.6,3.6,9.4-2.9,10.6-3.7,1-.8,8.2-6.8,6.8-8Z"/>
  <path d="M723.4,1144.3l4.3,1.1c4.8-4,2.8-11.3.6-16.3h0s-4.1,1.6-4.1,1.6l-.8,13.6Z"/>
  <path d="M137.1,774.1h0c1.3-5.8-.2-10.9-2.1-16.4-10,.8-2.8,10.8-1.1,15.8l3.2.6Z"/>
  <path d="M1067.2,769.8c.4-.7,1.5-.9,1.6-1.2,1.7-4.7,3.1-11.1-3.7-10.9-1.8,5.5-3.4,10.6-2.1,16.4,4.5.9,2.8-1.8,4.2-4.3Z"/>
  <path d="M329.7,1109c-1.9-1.1-2.8-2.6-4.7,0,2,5.1,6.1,12.3,12.3,11.8,1.2-5.5-3.4-9.4-7.6-11.8Z"/>
  <path d="M809.4,986.4c4.5,0,9.6.8,12.1-3.7l-1.1-3.2c-7.5-3.2-11.7-1.5-11,6.9Z"/>
  <path d="M378.8,983.4c3,3.8,7.5,3.2,11.9,3.1-1-1.7.3-3.7-.2-5.4h0c-1.5-5.3-14.3-2.9-11.7,2.3Z"/>
  <path d="M872.5,1114.6c.7-1,3.8-6.7,1-7.1h0c-2.4-.4-13.8,9-10.8,13.3,2.1,2.1,8.5-4.3,9.7-6.2Z"/>
  <path d="M786.9,918.3c-.4-2.6-6.4-7-8.6-6.6-9.4,1.8,10.5,19,8.6,6.6Z"/>
  <path d="M414.2,922.4c4.5,3.4,15.2-11.3,6.9-10.7-3.8.3-11.3,7.4-6.9,10.7Z"/>
  <path d="M398.4,826.2h0c3.2.8,6.1-.5,8.1-2.9.7-2.7-1.2-6.6-4.2-6.8-6.1-.2-7.6,8.5-4,9.7Z"/>
  <path d="M801.5,826.4h.1c3.6-1.3,2.2-10.1-4-9.8-2.9,0-4.8,4-4.2,6.8,2,2.4,5,3.6,8.1,3Z"/>
  <path d="M954.3,776c6.2,3.5,5.9-13.4-1.6-13.2-3.7,2.3-.7,11.8,1.6,13.2Z"/>
  <path d="M245.8,776c2.4-1.4,5.3-10.9,1.6-13.2-7.6-.2-7.8,16.7-1.6,13.2Z"/>
  <path d="M646.2,1072.1c-1.4-4.7-15.7,1.4-12.3,7.7.7.8,13.7-3.1,12.3-7.7Z"/>
  <path d="M553.9,1072.1c-1.4,4.6,11.6,8.4,12.3,7.7,3.4-6.3-10.9-12.3-12.3-7.7Z"/>
  <path d="M1160.8,739.4c-1.6-.7-7-3.6-7.6-.6h0c-.9,4.2,12.6,8.9,16.4,7.6-.9-3.4-5.7-5.7-8.9-7Z"/>
  <path d="M45.5,741.9h0c1.6-1.6,1.8-4.7-1-4.6-2.4,0-16.2,7.5-14.1,9,3.5.9,12.8-2,15.1-4.4Z"/>
  <path d="M668.8,1074.7c1.4-6.7-3.4-10-9.2-11.3-3.1,5.4,4,11.1,9.2,11.3Z"/>
  <path d="M531.3,1074.7c5.2-.2,12.3-5.9,9.2-11.3-5.8,1.3-10.6,4.6-9.2,11.3Z"/>
  <path d="M542.4,1021.7c.8.8,1.7,3.4,2.8,3.7,4.6,1-.2-7.7-.4-9.8-2.4-2.7-10.3-2.1-7.8,2.7,1,1.9,3.9,2.2,5.4,3.4Z"/>
  <path d="M657.8,1021.6h0c1.5-1.2,4.4-1.5,5.4-3.4,2.5-4.8-5.7-5.5-7.8-2.7-.3.4-3.1,7.8-3,8.3,1,5.1,5-1.9,5.4-2.2Z"/>
  <path d="M289.9,760.3l-3-5.6c-13.5.8-4.6,17.3,3,5.6Z"/>
  <path d="M913.2,754.7l-3,5.6c7.6,11.7,16.5-4.8,3-5.6Z"/>
  <path d="M398.5,1140.7h0c-1.9-1.2-4.8-2.2-6.8-.9,2.3,3.8,3.7,10.4,9.6,9.7,4.5-1.5-.5-7.4-2.8-8.8Z"/>
  <path d="M797.6,1148.6c3.6,5.1,10.4-6.2,10.8-9.3-4-1.7-13.7,5.2-10.8,9.3Z"/>
  <path d="M63.1,798.2c-.6-6.4-4.9-2.8-9.1-1.5l1,4c5.6-2.9,10.7,4.9,15.4.5l-1.1-2.4-6.2-.6Z"/>
  <path d="M70.4,801.2s0,0,0,0h0c0,0,0,0,0,0Z"/>
  <path d="M1145.1,800.9h0c0,0,1-4.1,1-4.1l-7.6-2-1.5,3.6c-2.1,1.1-7.4-.8-7.3,3,0,4.5,12.9-3.3,15.4-.5Z"/>
  <path d="M641.5,957.8c2.7,10.3,11.7,1.1,7.5-3.9-3-3.6-9-1.9-7.5,3.9Z"/>
  <path d="M468.2,1171.1c-2.8.7-4.6,13.4,0,13.4s3.5-14.2,0-13.4Z"/>
  <path d="M730.9,1171.1c-3.4,2.5-3.6,15,2,13.3,3.1-.9,1.9-14.2-2-13.3Z"/>
  <path d="M553.4,962.8c3.9-1,6.9-6.7,4.3-10-3.5-4.4-12.3,5.7-4.3,10Z"/>
  <path d="M1063.2,962.9s0,0,0,0h0s0,0,0,0Z"/>
  <path d="M1057.8,970.5l8.1,1.5c1.3-4.3,1.6-6.6-2.6-9.1l-6.4,4.2.9,3.4Z"/>
  <path d="M143,967.1h.1s-6.4-4.2-6.4-4.2c-4.2,2.5-3.9,4.8-2.7,9.1l8.1-1.5.9-3.4Z"/>
  <path d="M193.6,750.9h0c-.2,2.9,6.2-.4,7.1-1,1.6-1,8.3-6.6,6.2-8.7-3.2-2.4-13.3,8.9-13.3,9.7Z"/>
  <path d="M993.1,741.3h0c-2.2,2.2,5.2,8.1,6.8,9.1,1.4.8,8.1,3.6,5.5-.4-.7-1.1-4.4-5.5-5.6-6.2-2.1-1.4-3.9-3.2-6.8-2.5Z"/>
  <path d="M95.6,707.4c5.3,1.6,8.9-12.6,1.1-10.1-2.7.9-4.2,8.3-1.1,10.1Z"/>
  <path d="M1104.5,707.4c3.2-1,2-12.1-4-10.2-3.9,1.3-.7,11.1,4,10.2Z"/>
  <path d="M276.4,1105.4c1,.6,2,1.3,3,1.9.2-2.5.3-4.4.4-4.9l-3.1.7c0,.5,0,1.3-.3,2.3Z"/>
  <path d="M923.4,1102.4h-3.1c0,.5,0,2.4.4,4.8,1-.6,2-1.3,3-1.9-.2-1.2-.4-2.3-.3-2.9Z"/>
  <path d="M958.3,895.1c5.7-1,4.4-9.1,4.1-13.3-8.7,1-4.2,7.7-4.1,13.3Z"/>
  <path d="M241.8,895.1c0-5.6,4.6-12.3-4.1-13.3-.3,4.3-1.6,12.3,4.1,13.3Z"/>
  <path d="M682.1,1011.6c2.5,1.1,8.8-6.6,7.2-8.7-2.4-3.2-9.9,3.4-9.1,6.4h0l1.9,2.3Z"/>
  <path d="M979.8,835.6c1.5-6.8-15.5-9.5-10.3-2.5,2.1,2.9,7.1,2.6,10.3,2.5Z"/>
  <path d="M220.2,835.6c3.2,1.6,14-2.2,11.3-6.1-1.3-1.9-13.2,1-11.3,6.1Z"/>
  <path d="M518,1011.6c6.1-3.3-4.6-12.3-7.2-8.7-1.6,2.1,4.7,9.9,7.2,8.7Z"/>
  <path d="M1074.3,698.2c5.4-.3,5.1-3.7,5-8l-4.4-2.2c-1,1-4.3,4.9-3.6,6,0,.2,3.7.8,3,4.2Z"/>
  <path d="M125.9,698.2c-.6-3.4,2.9-3.9,3-4.2l-3.6-6-4.4,2.2c-.2,4.3-.4,7.7,5,8Z"/>
  <path d="M949.6,858.3h0c1-3.1,2.6-9.9-2.1-10.4-5.5-.6-2.8,8-1.3,10.1.4.5,2.8,1.7,3.4.3Z"/>
  <path d="M253.9,857.9h0c1.5-2,4.2-10.6-1.3-10-4.7.5-3.1,7.4-2.1,10.3.6,1.4,3,.2,3.4-.3Z"/>
  <path d="M1121.5,776.2l4.1,16.7,3.1.7c-.4-1.5-4.2-20.9-7.2-17.4Z"/>
  <path d="M887.9,1107.2h0c-1.3-1-1-3.7-4.4-2.8l-1,11.3c2,.2,1.6-3.8,2.1-4.1.5-.3,5.1,2.6,6.7-1,.5-3.5-2.2-2.6-3.3-3.4Z"/>
  <path d="M315.6,1111.6c.5.3.1,4.3,2.1,4.1l-1-11.3-6.3,3.1h0c0,.1-1.7,2.6-1.7,2.6,1.2,4.2,6.4,1.2,6.9,1.5Z"/>
  <path d="M78.6,776.2c-3-3.4-6.7,15.9-7.2,17.4l3.1-.7,4.1-16.7Z"/>
  <path d="M336.2,933.1c-.6,5.1,4.3,9.9,9.2,10.2,2.2-3.6-7.9-11.7-9.2-10.2Z"/>
  <path d="M863.8,933.1c-1.3-1.4-11.4,6.6-9.2,10.2,4.9-.4,9.8-5.2,9.2-10.2Z"/>
  <path d="M649.8,1045h0c3.8-.7,6.3-2.9,8.7-5.7-1.3-1.5-2.2-2.7-4.4-2.4-2.5.3-5,3.4-5.8,5.7l1.4,2.4Z"/>
  <path d="M544.3,1036.8h0c-1.2.4-1.9,1.7-2.8,2.5,2.4,2.8,4.9,5,8.7,5.6,4-.8-1.5-9.2-5.9-8.1Z"/>
  <path d="M758.1,878.2c-1.2-2.7-4.3-5.5-7.5-4.5-5,1.6,1.9,12,7.5,4.5Z"/>
  <path d="M444.4,1179.6h0c1,.3,2,.5,2.9.8,0-.4-.2-.7-.4-1.1l-2.6.3Z"/>
  <path d="M451.1,875.3c-1-1.9-2.5-1.8-4.3-1.5h0c-2.5.5-3.7,2.4-4.8,4.5,4.1,4.3,9,3.3,9.1-3Z"/>
  <path d="M752.6,1180.4h0c1-.3,1.9-.5,2.9-.8l-2.5-.3c-.2.4-.3.7-.4,1.1Z"/>
  <path d="M773.7,1113h0c3.7,3.8,3.1,11.4,8.1,13,.7-4.6-1.5-7.4-3.6-10.7-1.5-2.3-2.8-7.4-4.4-2.3Z"/>
  <path d="M425,1110.6h0c-1.4,0-8.5,12.9-6.7,15.4,0,0,2.6-1.1,2.8-1.3.3-.4,4.1-8.9,4.6-10.3.6-1.4,1.1-3.9-.7-3.8Z"/>
  <polygon points="970.6 900.3 970.6 900.3 970.6 900.3 970.6 900.3"/>
  <path d="M975.5,900.5c-1.3-.7-3.4,0-4.9-.2-.2,2.9-.3,5.8,2.8,7,6.1,1.7,4.5-5.5,2.1-6.8Z"/>
  <path d="M229.5,900.3c-4-2.4-9.4,4.5-6.2,6.7l5.3-1,.9-5.7Z"/>
  <path d="M966.8,895.9c4.6,3.8,8.3-.6,2.7-5.2-5.2-4.3-6.6,1.9-2.7,5.2Z"/>
  <path d="M233.3,895.8c3.9-3.3,2.5-9.6-2.7-5.2-5.6,4.7-1.9,9.1,2.7,5.2Z"/>
  <path d="M609.3,1135.2c-1.1,3.4,7.5,8.8,9.2,7.2,0-4.7-4.7-8.1-9.2-7.2Z"/>
  <path d="M1158.4,790.5c5.9.7,6.7-3.2,6.1-8.2-5.1-1.4-6,4-6.1,8.2Z"/>
  <path d="M943.9,708.4c.6-3.5-1-5.9-4.6-6-7.5-.3-2.2,8.5,4.6,6Z"/>
  <path d="M264.4,703.3c-1.8-2.5-10.4,0-8.2,5.1,2.8,1.5,10.6-1.8,8.2-5.1Z"/>
  <path d="M581.6,1142.4c1.7,1.6,10.3-3.8,9.2-7.2-4.5-.9-9.3,2.4-9.2,7.2Z"/>
  <path d="M39.4,782.5c-1-.6-2.7,0-3.9-.2-.6,5.1.3,8.9,6.1,8.2.8-.7-1.5-7.6-2.2-8Z"/>
  <path d="M308.9,957.6c-2.1,6.4,10.1,0,7.8-5-2.8-.3-7,2.6-7.8,5Z"/>
  <path d="M965.4,905.4v10.1l11.3,2.7c-2.3-3-4.4-4.2-8.2-3.6,0-3.2.4-7.5-3.1-9.2Z"/>
  <polygon points="300.9 878.7 300.8 878.7 300.8 878.7 300.9 878.7"/>
  <path d="M300.8,878.7l2.3-4.6c-.6-1.3-2.7-3.7-4.1-3.5-1.6.3-3.4,3.7-2.6,5.4l4.4,2.7Z"/>
  <path d="M227.2,916.8c2.3-.5,4.7,1.1,7.3-1.4l-.4-10.1c-2.8,2.4-2.7,5.8-2.6,9.2h0c-3.8-.4-6.5.7-8.2,4.2,1.9.6,2.5-1.6,3.9-1.9Z"/>
  <path d="M899.3,878.7c5.5-.7,6.5-6.4,1.1-8.1l-3.4,3.5,2.3,4.6Z"/>
  <polygon points="900.4 870.6 900.4 870.6 900.4 870.6 900.4 870.6"/>
  <path d="M891.1,957.6c-.8-2.4-5-5.3-7.8-5-2.4,5.2,9.9,11.4,7.8,5Z"/>
  <path d="M673.4,932c.7-.9,3.3-5.5,2.6-6.1-9.3-2.7-8.3,13.3-2.6,6.1Z"/>
  <path d="M703.8,1143c1.6-.3,6.5-8.4,6.1-8.8-2.7-2.5-14.2,10.4-6.1,8.8Z"/>
  <path d="M496,1136.6c-.6-.5-7.3-4.6-5.8-.9.6,1.5,5.6,8.2,7.7,7.7h0c3.4-.7-.8-5.9-1.9-6.8Z"/>
  <path d="M524.1,925.9c-.6.6,1.9,5.2,2.6,6.1,5.7,7.2,6.7-8.8-2.6-6.1Z"/>
  <path d="M674.7,905.1h0c4-3.5-4.6-5.7-6.9-4.8l1,6.1c1.8,0,4.5,0,5.9-1.3Z"/>
  <path d="M531.3,906.4l1-6.1c-9.5-.9-11,6.2-1,6.1Z"/>
  <path d="M373.2,1148.1h0c0,0-2,5.6-2,5.6h7.1c.7-1.7,1-3.4,0-4.9l-5-.7Z"/>
  <polygon points="821.6 1149.2 821.9 1153.6 828.9 1153.7 826.9 1148 821.6 1149.2"/>
  <path d="M939.7,1084.6l-3.5-4.8c-9.8,7.5,3.9,9.5,3.5,4.8Z"/>
  <path d="M263.9,1079.8l-3.5,4.8c-.4,4.7,13.3,2.7,3.5-4.8Z"/>
  <path d="M508.7,1167h0c1.4,6.9,8.6,15.5,5.9,2.3l-5.9-2.3Z"/>
  <path d="M509.7,794.6v-5c-2.7-4.2-14.2,6.3,0,5Z"/>
  <path d="M697.5,792.1h0c-2.1-2.3-3.3-4.5-6.6-2.7l-.6,5.2c1.8.2,7.8.5,7.2-2.5Z"/>
  <path d="M685.2,1176.2h0c2.5,1.9,5.6-8,6.2-9.2l-5.9,2.3c-1.2,2.3-1.1,4.5-.3,6.9Z"/>
  <path d="M158.2,567.9c2.6.6,5.4-5.9,4.6-8.2-2.1-2.1-9.2,5.8-4.6,8.2Z"/>
  <path d="M1041.9,567.9c4.6-2.4-2.5-10.3-4.6-8.2-.8,2.3,2,8.8,4.6,8.2Z"/>
  <path d="M375.2,956.8c1.1-3.8-2.7-4-3.8-5.4h0c-.4-.6-2.4-8.9-5.4-5.9s3.3,4.9,4.1,5.9c1.6,1.9,1.7,4.9,5.1,5.4Z"/>
  <path d="M1085.1,633.5c-3.4.9-.5,8.7,3.6,7.2h0s.6-5.1.6-5.1l-4.1-2.1Z"/>
  <path d="M115.1,633.5h0s-4.1,2.1-4.1,2.1l.6,5.1c4,1.5,6.9-6.2,3.6-7.2Z"/>
  <path d="M828.9,950.7c-1.2,1.9-5.1,2-4.1,5.9,3.4-.5,3.5-3.5,5.1-5.4.8-1,6.1-3.8,4.1-5.9-2.9-2.7-4.7,4.9-5.1,5.4Z"/>
  <path d="M834,945.3s0,0,0,0c0,0,0,0,0,0h-.1Z"/>
  <path d="M156.1,687.9c2.6.5,7.9-8,4.1-8.2-1.7,0-8.2,6.1-4.1,8.2Z"/>
  <path d="M362.9,969.5c2.1,4.3,9.7-2,8.2-3.6-4-1.3-6.8-.9-8.2,3.6Z"/>
  <path d="M837.1,969.5c-1.4-4.5-4.2-4.8-8.2-3.6-1.5,1.6,6.1,7.8,8.2,3.6Z"/>
  <path d="M1039.9,679.7c-3.8.2,1.4,8.7,4.1,8.2,4.1-2.1-2.4-8.2-4.1-8.2Z"/>
  <path d="M17,653.1c4.5,1.4,7.1-6.1,3.6-7.2-4.2-1.3-3.8,4.9-3.6,7.2Z"/>
  <path d="M1179.5,645.9c-3.5,1.1-.9,8.6,3.6,7.2.3-2.3.6-8.5-3.6-7.2Z"/>
  <path d="M1075.8,804.9c-2.9-1.1-1,8-1.5,9.2,5,0,5.5-7.7,1.5-9.2Z"/>
  <path d="M124.3,814.1c2.9,1.1,1-8,1.5-9.2-5,0-5.5,7.7-1.5,9.2Z"/>
  <path d="M345.9,849h0l-.6-3.1c-1.9-1.4-7.6,2.1-7.2,5.1,2.9,0,5.9.6,7.7-2Z"/>
  <path d="M861.7,851h0c.5-3-5.3-6.5-7.2-5.1l-.6,3.1c1.8,2.6,4.8,2.1,7.7,2Z"/>
  <path d="M508.2,879.8h0s3.4,0,3.4,0l-1.1-7.2-3.1.6c-1,1.4-1,6.2.7,6.6Z"/>
  <path d="M688.3,879.7l3.9-.2c1.2-1.3,1.1-6.3,0-7h0c0,.1-3.1.6-3.1.6l-.9,6.6Z"/>
  <path d="M472.9,1103.4h0s0,0-.1,0h.1Z"/>
  <path d="M466.7,1093.6l6.7,1.5-.5,8.2c3.3-1.7,1-6.4,3-9.1l-5.8-3-3.4,2.4Z"/>
  <path d="M733.5,1094.1l-2.7-3-6.5,3,2.6,9.2v-8.3c2.1-2.1,4-1.6,6.6-.9Z"/>
  <path d="M563.1,887.4h0c.8-2.7-3.5-6.2-5.2-4-1,1.9-.7,3.6,0,5.5l5.1-1.5Z"/>
  <path d="M642,888.8h0c1-2.1.8-3.8,0-6l-4.6,2c-1.8,3.6,1.6,4.7,4.6,4Z"/>
  <path d="M343,1062.5h0l-2.3,2.9,3.2,4.1c2.1-1.5,3.2-3.4,2.5-6l-3.4-1Z"/>
  <path d="M853.7,1063.5c-.7,2.6.4,4.5,2.5,6l3.2-4.1-2.3-2.9-3.4,1Z"/>
  <path d="M508.2,983.4c-2.8.5,0,8.2,1,8.2,4.1-1.5,2.5-8.9-1-8.2Z"/>
  <path d="M690.9,991.6c1.1,0,4.4-8.5,0-8.2-3.5,2.6-3.5,5.7,0,8.2Z"/>
  <path d="M263.9,1095.2c-.4.4-.8.7-1.1,1.1,1.8,1.3,3.7,2.5,5.6,3.7l.2-.7-4.6-4.1h0Z"/>
  <path d="M936.1,1095.3s0,0,0,0h0c0-.1,0,0,0,0Z"/>
  <path d="M933.4,1098.9c1.3-.9,2.6-1.8,3.9-2.6-.4-.4-.8-.8-1.2-1l-2.7,3.6Z"/>
  <path d="M1170.2,765.9c-6.9,1.3,3.7,10.1,4.6,0-1.5,0-3.2-.3-4.6,0Z"/>
  <path d="M29.8,765.9c-1.4-.3-3.1,0-4.6,0,.9,10.1,11.5,1.3,4.6,0Z"/>
  <path d="M383.6,920.9c-1.1,2.5-2.2,5.6,1.4,6,4.3-3.2,5.4-6.7-1.4-6Z"/>
  <path d="M816.5,920.9l-5,1.4,3.6,4.6c3.6-.5,2.5-3.5,1.4-6Z"/>
  <path d="M587.6,934.2h0c0,0-.2-4.5-.2-4.5-3.5-4.5-6.5.3-3.8,4.3l3.9.2Z"/>
  <path d="M613.9,927.9h0c0,.1-1.5,6.2-1.5,6.2l3.9-.2c1.6-2.9,2-6.3-2.4-6Z"/>
  <path d="M1024.9,659.2h0s-2.1-3.6-2.1-3.6l1.9-.6-.9-2.5-4.1-.5c-.7,4.2.7,7,5.1,7.2Z"/>
  <path d="M486.2,1121.9s0,0,0,0c0,0,0,0,0,0h0Z"/>
  <path d="M482.1,1108.6c-3.6,6.7-1.8,9.3,4,13.2.5-3-3.4-4.9-3.9-6.8-.6-2.2,2.2-5.7,0-6.4Z"/>
  <path d="M714.1,1121.8c5.9-4,7.7-6.6,4.1-13.3h0c-2.3.8.5,4.2,0,6.4-.5,1.9-4.5,4-3.9,6.9Z"/>
  <path d="M990.6,1042.9c-3.9,3,3.2,5.1,1.5,9.2,3.9-1.2,2-9.9-1.5-9.2Z"/>
  <path d="M180.2,652h0s-5.1,1.6-5.1,1.6l2.1,2-2.1,3.6c4.5-.2,5.8-3,5.1-7.2Z"/>
  <path d="M209.5,1042.9c-3.5-.6-5.5,8.1-1.5,9.2-1.7-4.1,5.4-6.2,1.5-9.2Z"/>
</svg>