<?xml version="1.0" encoding="UTF-8"?>
<svg id="Layer_1" xmlns="http://www.w3.org/2000/svg" version="1.1" viewBox="0 0 1200 1200">
  <!-- Generator: Adobe Illustrator 29.0.0, SVG Export Plug-In . SVG Version: 2.1.0 Build 186)  -->
  <path d="M10.9,714.2c-.1-.6-.2-1.1-.3-1.7,0,.6.1,1.2.3,1.7Z"/>
  <path d="M1157.3,737c6.1,3.9,10.1.6,16.5,1.1,3-7,12.8-12.9,9-21.5-3.2-2-16.9,8.1-19.6,10.8-1.6,1.6-5,9.2-5.9,5.1-2.5-11.3-6.8-12.4-18.2-9-5.7,1.7-8.6,7.4-13.9,5.8-1.5,9.4-14.9,16.1-14.4,26.3,0,1.3,1.4,2.1,1.4,3.3,0,5.8-8.5,4.4-13.1,6.1-4.1,1.5-17.1,11.5-19.4,14.9-1.1,1.7-.8,8.2-2.9,9.4-3.8.4-3.8-2.8-7.2-3.9-2-.7-8.9-.7-10.7,0-1.3.4-3.2,4.9-7.8,2.5v3.6c.1,0,2,0,2,0l.7,1.8c-5.5.5-9.5,4.6-13.8,6.9-.9.5-2.2-.4-2.5-.2-.4.2-.4,1.8-2.3,2.6-5.9,2.7-18-3.3-25.5-1.7-10.1,2.1-11.7,17.5-22.1,16.2-1.4-.2-2.3-1.7-3.5-1.7-1.9.1-5.2,3-6.6,4.4-6.6-9.6-10-1.6-13.9-1-1.5.2-3.4-3.4-7.9-2.4-5.4,1.1-3.5,8.8-7.7,8.9-2,0-9-11.9-13.1-11.8,3.5-5.1,7.6,3.7,12.8,0,.2-1.8-2.2-.4-3.5-1.1-.3-.2-2.1-3.6-2.9-4.4,2.2.3,4.9-5,5.7-5.4,1.1-.6,2.5,2,4.3-.7,2-2.9,0-4.6.3-7,.5-4.2,5.7-10.9,6-15.1.2-2.5-1.7-4.9-1.7-7.5-10.7-1.9-19,3.5-25.5,11.4-1.5,1.8-4.3,7.7-5.5,8.3-.9.4-4.9-2.7-7.3-.4,1.3,8.2,5,8.7-1.9,15.9-2.4,2.6-13.8,10.3-14.7,11.9-.2.4-.2,1.6.4,1.4l8.2-4.6c2.1,2.8,2.1,6.6,4.1,9.6,2.2,3.2,7.7,6.1,10.1,9.6-6.4,1.6-8.8-3.7-13.3-7.3-8.8-7-16.1-8.8-27.3-7.2-6.1.8-5.5,2.4-9.1,5.1-.7.6-2.3.1-2.4.3-.3.3.9,2.3.8,3.2,0,1.9-3.7,4.7-.9,7.3,4.7-.1,9.4,3.8,5.5,7.7,4.1-.8,6.1-.9,9.1,2.3-4.2.4-6.9,3-10.1,5.5,1.2.4,4.6,3.6,2.8,4.6-2.2,1-5.6-.5-6.4,2.3l2.7.9c-5.7,1.9-11.2-.6-16.9-1-2.4-.2-5.8,1.2-7.2.8-1.6-.4-2.2-3.1-4.3-2.6l.5,3.7-16.6,11-5.1-3.3c2-5.5,5.3-10.7,4.6-16.8-3.3-.7-4.8,4.4-8.2,2.3,6.2-4,12.3-12.4,10.2-20.1l.8-1c2.3-1.5,5,.5,6.8.2,2.6-.4,5.4-5.9,9.7-4.4.1-5.1,5.9-17.1,3.7-21.2-.6-1.1-2.5,0-1.8-2.5l7.3.9c2.5-2.1-13-8.1-14.6-6.4-1.2,4.5,4.2,2.2,5.5,5.5-8.6,4.6-13.5,15.3-16.5,24.3-1.7,1.3-.5-1.9-1.1-3-.2-.3-5-4-5.4-4.2-1.9-1.1-7.8-2.5-9.7-1.8-1.3.5-2.4,3.2-3.9,4.5-6.7,5.6-9,7.7-13,16.3-.8,1.6-3,10.4-3.5,10.7l-5.5-.9c.8,2.4,3.6,1.8,5.5,1.8-4.2,4.5.4,11.8-.2,15-.2,1-2.1,2.2-2.7,3.6-.8,1.5-.4,3.4-1.6,4.8-.8.8-3,1.2-4.1,2.3-2.7,2.6-3.3,6.8-8.1,5.4l-1.9-2.6c-2.6,3.2-9.5,4.6-11.8,6.3-.4.3-2.5,7.8-4.3,9.2-1.8.4-3.9-2.6-4.2-2.6-2.9-.7-12.5,1.5-14.4,3.6-1.5,1.7-3.3,9-2.2,10.8,1.3,2,12.5,4.8,15.4,3.8-6.4,8-16.6,3.5-24.4,8-4.7,2.7-3.9,6.3-5.8,7.9-1,.9-4,1.3-5.8,2.5-4.2,2.9-7.4,7.2-13.9,7.1-1.8,0-3.2-2.2-5-1.4-6.4,3.1-4.3,18.5-9.6,23.4-1.8-3-2.6-7.3-6.9-7.3l.9-1.8c-1.6-1.1-16.2,5.4-14.8,9.9h-8.1c0,.1,5.5,1.9,5.5,1.9-1.7,8-6.4,17.8-1.7,25.9,2.1,3.6,10.7,7,5.4,12.9-1.3.9-2.4-2.5-3.4-3.2-.8-.6-7.5-4.5-8-4.5-1.2-.1-10.1.7-11.8.9-1.8.3-3.2,1.6-5.1,1.8-.1,4,4.2,2.1,6.4,3.2-11.8,11.4-24.2,39.2-2.2,46.1l10.4.6c-2.3,4.6-7.3,5.5-11.9,4.1.8,3.4,1.4,6.6,5.5,5.5-1.6,2.6-5.5,18.3-2.2,19.2,10,2.5,14.5-8.4,20.8-14,2.1-4.3-1.4-3.2-2-4.9-.7-2,.4-4.7-1-7-.9-1.5-7-3.2-6.5-5.7,5.5-3,10.2-8.3,10.9-14.7.3-3-1.1-5.6,0-8.6,5.5,1,.6,6.9,4.1,10,5.7-2.3,9.3-7.9,10.6-13.6,3.4-.3,6.5-.3,6.8,3.6.8-2.6,3-2.2,4.6-3.6,2.7-2.5,4.2-8.4,5-11.9,4.4,1.2,6.2,2.4,2.7,6.4,2.1-.3,3.8,3.8,4.8,4.3.8.5,7.1-2,8.9-.7.8-4.7,1.3-7-1-11.4.1-.8,5.3-2.5,6.6-3.7,4.6-4.3,3.6-10.2,3.6-16,.3-.3,7.2-1.2,7.3.9-7.3,2.5-3.2,4.6-2.7,8.7.7,5.4-2.2,6.8-2.4,9.6-.1,1.3,1.5,2.2,1.4,3.2-.4,2.2-7,1.7-5.5,8.2.2,1,2.6,1,3.7,2,.9.9,1.4,2.4,2.3,3.2,4.9,3.9,12.9,8.5,18.8,4.1,2.7-2,8-6.7,11-8.2,2.7-1.4,10-1.1,15.5-4.1,6.6-3.7,7.5-10.5,2.7-16.5,11.3,2.4,22.7,3.6,33.7-1.1,4.9-10.1-9.3-22.2-6.2-5.3-2.4.3-5.8-3.5-6.1-3.6-3.1-.9-7.4-.1-10.7-2.6-2.3,2.6-7.6,3.5-9.3,5.2-1.9,1.9-1.1,5.5-5,4.6l.6-2.8c-5.9-1-2.8-8.1-7.9-10.9l9.5-.8,2.8-5.6c.1,2.7,3.5,4.1,6,5,2.5.9,3.7,1.5,6.4.5-3.3-3.1-2-3.2-2.1-6.2-.1-5.6-5.8-2.6-4.3,2l-2.7.6,1.9-5.9c-7.3-5.3,1.2-3.5,1.8-5.5.6-3.6-2.5-2.8-4.6-3.6l7.3-12,6.5.5-4.6,3.2c2.2,2.6,5.4.6,7.7-.5l2.4,5c-.1,1.3-8.2.8-7.3,9.1.2,1.6,1.6,3.8,1.5,4.7-.1,1-4.6,4.7-2.9,6.8,3-3,4.6-8.7,9.5-8.4v-4.4c4.5-.8,12.4,0,10.8-6.4-2.2-3.1-9.3-.5-9.7-.9-.3-.3-.1-5.7-3.6-5.6.2-3.1,3.2-4.7,4.3-6.9,2.1-4.2,1.4-9.8,4.8-14l1.8.5v3.6c0,0-2.8,2.3-2.8,2.3h3.6c-.4,5.9,2.1,5.8,5,9,10-1.5,14.2-2.4,7.8-12.7l-.9,1.8h-1.8s0-2.7,0-2.7c-2.9,1.9-7.7.2-7.8,4.6l-2.3-6.4c4.9-.1,7.3-3.1,11-5.5.5.3,1.9,7.3,3.7,5.5,2.2-2.1-.7-2.9-1.1-4-1.2-3.6-.5-6.4,2-9.3,4.6-5.3,9.3-1.3,15.1-1.3,6.3,0,10.4-4.3,16.4-1.9l1.5-1.4c-5.7-9.9,3.8-14.2,12.5-15.1,2-.3,1.4,2.8,3.7,3.5,1.7.5,4.9-.3,5.7.3.5.3.4,2.4,1.3,3.3,1.9,2,8.9,3.9,11.7,2.5,4.4-2.2-.1-7.6.1-9,.5-2.3,7.1-5.6-.5-9.7l-10.6,2.7,6.1-7.1c4.8-.7,12.6,0,17-1.1.9-.2,2.5-4.5,6.6-4.6,1.6,0,8.7,1.9,10,2.9,2.4,1.7,2.4,6.2,6.5,6.3l.5-3.7-3.7.9c2-3.9,7.5-3.1,11.2-4.8,2.6-1.2,5.7-4.6,8.2-6.4,2.2-1.6,4.4-1.6,6.2-4.3-.7,3.2,2,5.4,2.5,8,.7,3.1-1.5,6.3-.7,9.4,2.5-2.8,3.9-7.7,8.7-4.6.9,2.5,1.9,6.6.2,8.9-.9,1.2-4,1.2-3.4,4.4.2.8,5.1,1.2,4.6,4.1l.9-3-3.7-2.9,4.1-3.2c3.9,3.9,2.2,11.1,9.6,8.2,2.1-2.3-8.4-15.9-10.9-17.8,6-4.2,8.9-5.2,10,3.2l-3.6.9c6.7-.8,12.2,3,18.8,3.6l1.3-1.7c1.7,5.1,5.3,9.7,11,10.1.7,3.6-4.6,2.7-5.3,3-.2,0-.3,1.8-1.9,2.1-1.8.3-2.8-1.8-4.7-1.4-1.3,2.3,1.9,3,1.9,3.2,0,4.3-3.4,4.9-6.4,6.4,5.9,3.5,12.5,11.6,19.8,12,13.8.8,12.2-6.9,8.6-17.1l9.2.9c1-3.5-1.8-3.6-2.8-6.4,9.5,0,20.6-4,23.8-13.7,4.8,6.5,10.8,10.1,19.2,9.1,3.2-3.1-14.9-13-18.3-9.1l-2.8-10.5c2.6-4.6,8.2-8.2,7.2-14.1h-2.6c0-.1-.1-4.6-.1-4.6-1.6.4-1,2.8-2.3,4.5-1.8,2.3-6.8,4.5-8.2,8.2-4.3-2.9-7.9-7.5-13.3-7.7v-4.1c-6.4,2.4-13.2,4.1-19.7,6.4-5.2,1.8-4.3,2.7-10.8,1.6-1.9-.3-2.5-1.8-5.4-1.4-2.8.4-6.7,3.1-8.5,5.3-2.3-1.4-1.8-3.1-2.2-5.4,9.4-2,20.5-1.5,29.1-6.1,7.3-3.8,11.6-17,22.1-13.2-1.3-5.5,4.2-4.2,7.5-5.6.9-.4.8-1.8,2.4-2.3,6.6-1.8,8.7.8,16-4.2,5.4-3.7,2.6-1.6,9.2-2.6,2.1-.3,3.7-2.2,6-1.8-.3,2.7,0,4.8,2.3,6.4,2-1.8,5.5-5.3,5.8-8,.3-2.2-2.3-3.4-1.7-5.7,5.2,0,11.1-9.2,15.1-9.2,2.3,0,1.2,1.2,1.4,2.8l.9-2.7,6.4.9-4.6,5,1.9,1.9c-1.8,3.9-2.3,16.2,1.8,18.3l6.4.5c-1.4,4.2,2.2,9.6,2.5,13.5.2,2.5-1.7,5.2,0,8l5.5.6,1.9,8.1h-4.6s4.6,4.6,4.6,4.6c-4.9.6-4.7,5.9-6.4,8.5-.6.9-2.5,1.1-2.7,2.1-.2.7,3.8,9.6,3.6,11.8,0,.3-3.2,1.1-1.9,4.2,5.5-2.4,4,4,8.8,4.3,1.7-3,3.4-5.9,5.1-8.9.3-3.3,0-6.7,0-9.6,0-1.1.7-2.2.5-3.4-.3-2.3-3.1-5.1-2.6-8,3.3,1.5,6.3,2.5,9.9,3.4.6.2,1.3-.1,1.8-.3,4-7.7,7.8-15.6,11.5-23.5,0,0-.2-.2-.2-.3-.7-2.2-.5-8.3-1.3-11.5-.9-3.8-5.6-18.1-10.3-17.7l-10.5,5.1c1-2.7-2.8-3.7-2.8-4.2-.4-3.5,6.5-3.9,9.3-6.3,1.7-1.4,7.2-10.2,8.7-10.5l3.1,2.3c-2,1.9-5.2,2.4-4.6,5.9l3.2-2.7c10.2,11.9,29-1.5,13.2-11.3l-6.3-2.4c5.3-3.2,8.8-3.8,14.7-5,3.4-.7,4.1-2.8,7.6-.9,4.9-14.6,9.3-29.5,13.1-44.5-4.2,1.1-4.4,8.7-6.7,10-1.4.8-14.8,4.6-14.5,1-2,2.4-5.2,1.8-8,3-3.6,1.5-6.1,5.5-10.8,5.2,0-5.6,6.1-8.2,5.5-13.7l-9.1,1.4c9-3.8,15.3-8.2,19.2-17.4Z"/>
  <path d="M774.4,1024.7c3,1.3,3.7-4.5,4.2-6.3,6.5.6,11-.6,16.3-4.3.9-5.1,0-10.2-6.3-8.1-1.1,6.5-7.6,3.4-10,5.1-.3.2-1.4,4.7-2,5.8-1.3,2.1-6.2,3.9-2.1,7.9Z"/>
  <path d="M411.5,1006c-6.3-2.1-7.2,3-6.3,8.1,5.3,3.7,9.8,4.9,16.3,4.3.5,1.8,1.2,7.6,4.2,6.3,4.1-4-.8-5.8-2.1-7.9-.7-1.1-1.8-5.6-2-5.8-2.4-1.6-9,1.4-10-5.1Z"/>
  <path d="M556.1,996.4c-1.8-.2-3.3-1.5-5.1-1.8-1.7-.2-10.6-1.1-11.8-.9-.5,0-7.2,3.9-8,4.5-1,.8-2.1,4.1-3.4,3.2-5.3-5.9,3.3-9.3,5.4-12.9,4.7-8.2,0-18-1.7-25.9l5.5-1.8h-8.1c1.5-4.7-13.1-11.2-14.8-10.1l.9,1.8c-4.2,0-5.1,4.4-6.9,7.3-5.3-4.9-3.3-20.3-9.6-23.4-1.8-.9-3.2,1.3-5,1.4-6.5.1-9.7-4.2-13.9-7.1-1.7-1.2-4.7-1.6-5.8-2.5-1.9-1.6-1.1-5.2-5.8-7.9-7.9-4.6-18.1,0-24.4-8,2.9,1,14.1-1.8,15.4-3.8,1.1-1.8-.6-9.1-2.2-10.8-2-2.2-11.5-4.3-14.4-3.6-.3,0-2.4,3-4.2,2.6-1.9-1.4-3.9-8.9-4.3-9.2-2.4-1.7-9.3-3.1-11.8-6.3l-1.9,2.6c-4.8,1.3-5.4-2.8-8.1-5.4-1.2-1.1-3.4-1.4-4.1-2.3-1.2-1.3-.9-3.3-1.6-4.8-.7-1.3-2.5-2.6-2.7-3.6-.6-3.2,4-10.5-.2-15,1.9,0,4.7.6,5.5-1.8l-5.5.9c-.4-.3-2.7-9.1-3.5-10.7-4-8.5-6.3-10.7-13-16.3-1.5-1.3-2.6-4-3.9-4.5-1.9-.8-7.8.7-9.7,1.8-.4.2-5.2,3.9-5.4,4.2-.6,1.1.6,4.4-1.1,3-2.9-8.9-7.8-19.6-16.5-24.3l4.9-2.6.5-2.8c-1.7-1.7-17.1,4.3-14.6,6.4l7.3-.9c.7,2.4-1.2,1.4-1.8,2.5-2.2,4.1,3.6,16,3.7,21.2,4.2-1.5,7.1,4,9.7,4.4,1.8.3,4.6-1.7,6.8-.2,1.5.9-.1,3.3.1,5.3.7,5.8,5.8,12.8,10.8,15.8-3.5,2.1-4.9-3-8.2-2.3-.7,6.2,2.6,11.3,4.6,16.8l-5.1,3.3-16.6-11,.5-3.7c-2.1-.5-2.7,2.2-4.3,2.6-1.4.3-4.7-1-7.2-.8-5.7.4-11.2,2.9-16.9,1l2.7-.9c-.9-2.7-4.2-1.3-6.4-2.3-1.9-1,1.6-4.2,2.8-4.6-3.1-2.5-5.9-5.1-10.1-5.5,3-3.2,5.1-3.1,9.1-2.3-3.9-4,.9-7.8,5.5-7.7,2.8-2.6-.8-5.4-.9-7.3,0-.9,1.2-2.9.8-3.2-.1-.1-1.7.3-2.4-.3-3.6-2.8-3-4.3-9.1-5.1-11.3-1.6-18.6.3-27.3,7.2-4.5,3.6-6.8,8.9-13.3,7.3,2.4-3.5,7.9-6.4,10.1-9.6,2-3,2-6.8,4.1-9.6l8.2,4.6c.6.2.7-1,.4-1.4-.9-1.6-12.2-9.3-14.7-11.9-6.9-7.2-3.2-7.8-1.9-15.9-2.3-2.3-6.4.8-7.3.4-1.2-.6-4-6.5-5.5-8.3-6.5-7.9-14.8-13.3-25.5-11.4,0,2.5-2,5-1.7,7.5.4,4.1,5.6,10.9,6,15.1.3,2.4-1.7,4.1.3,7,1.8,2.6,3.2,0,4.3.7.8.4,3.5,5.7,5.7,5.4-.8.7-2.6,4.2-2.9,4.4-1.3.7-3.6-.7-3.5,1.1,5.2,3.7,9.3-5.2,12.8,0-4.1-.1-11.1,11.8-13.1,11.8-4.2,0-2.2-7.7-7.7-8.9-4.5-.9-6.3,2.7-7.9,2.4-3.9-.6-7.3-8.5-13.9,1-1.4-1.4-4.7-4.3-6.6-4.4-1.2,0-2.2,1.5-3.5,1.7-10.4,1.2-12.1-14.1-22.1-16.2-7.5-1.6-19.7,4.4-25.5,1.7-1.9-.9-2-2.4-2.3-2.6-.3-.2-1.6.7-2.5.2-4.3-2.2-8.3-6.4-13.8-6.9l.7-1.8h1.9c0,0,.1-3.7.1-3.7-4.6,2.4-6.5-2.1-7.8-2.5-1.8-.6-8.7-.7-10.7,0-3.4,1.1-3.4,4.3-7.2,3.9-2.2-1.2-1.9-7.7-2.9-9.4-2.2-3.5-15.3-13.4-19.4-14.9-4.6-1.7-13.1-.2-13.1-6.1,0-1.2,1.3-1.9,1.4-3.3.5-10.2-12.9-16.9-14.4-26.3-5.3,1.6-8.2-4-13.9-5.8-11.3-3.4-15.7-2.4-18.2,9-.9,4.2-4.3-3.5-5.9-5.1-2.7-2.7-16.4-12.9-19.6-10.8-3.8,8.5,6,14.4,9,21.5,6.5-.4,10.4,2.8,16.5-1.1,3.9,9.3,10.2,13.6,19.2,17.4l-9.1-1.4c-.6,5.5,5.4,8.1,5.5,13.7-4.7.2-7.2-3.7-10.8-5.2-2.8-1.2-6-.6-8-3,.3,3.6-13.1-.2-14.5-1-2.2-1.3-2.4-8.9-6.7-10,3.8,15.1,8.2,29.9,13.1,44.5,3.4-2,4.1.1,7.6.9,5.8,1.3,9.4,1.8,14.7,5l-6.3,2.4c-15.8,9.9,3,23.2,13.2,11.3l3.2,2.7c.6-3.5-2.6-4-4.6-5.9l3.1-2.3c1.5.3,7.1,9.1,8.7,10.5,2.7,2.4,9.7,2.7,9.3,6.3,0,.5-3.8,1.5-2.8,4.2l-10.5-5.1c-4.6-.3-9.4,14-10.3,17.7-.8,3.3-.5,9.3-1.3,11.5,0,.1-.1.2-.2.3,3.7,7.9,7.5,15.8,11.5,23.5.5.2,1.2.5,1.8.3,3.5-.9,6.6-1.9,9.9-3.4-1.2,5.3-2.9,9.7-2.7,15.1,0,1,.3,3.4.7,5.9,1.6,2.9,3.3,5.9,5,8.8,3.4-.2,3.4-1.6,5.8-4.9l3.1.8c1.4-3.1-1.8-3.9-1.9-4.2-.1-2.1,3.8-11.1,3.6-11.8-.2-.9-2.2-1.1-2.7-2.1-1.7-2.7-1.4-7.9-6.4-8.5l4.6-4.6h-4.6s1.9-8.1,1.9-8.1c9.2,1,5.2-3.6,5.6-8.6.3-3.8,3.9-9.3,2.5-13.5,8.5.5,9.9-3.2,9.7-11.3,0-2.2-1.6-6-1.5-7.4,0-.6,3.5-.2,1-3.8-1.1-1.6-3.4-1.5-3.7-3.1l6.4-.9.9,2.7c.2-1.6-.9-2.8,1.4-2.8,4,0,9.9,9.1,15.1,9.2.6,2.3-2,3.5-1.7,5.7.4,2.7,3.9,6.2,5.8,8,2.4-1.6,2.5-3.7,2.3-6.4,2.3-.4,3.9,1.5,6,1.8,6.6,1,3.8-1.1,9.2,2.6,7.3,5,9.4,2.4,16,4.2,1.6.4,1.5,1.9,2.4,2.3,3.4,1.3,8.9,0,7.5,5.6,10.4-3.8,14.8,9.3,22.1,13.2,8.7,4.6,19.7,4.1,29.1,6.1-.4,2.3.1,4-2.2,5.4-1.8-2.2-5.7-4.9-8.5-5.3-2.8-.4-3.5,1.1-5.4,1.4-1,.2-5.8,1.1-6.1,1.1-1.1,0-3.1-2.1-4.7-2.6-6.5-2.3-13.2-4-19.7-6.4v4.1c-5.4.3-9,4.9-13.3,7.7-1.4-3.7-6.3-5.9-8.2-8.2-1.3-1.7-.7-4.1-2.3-4.5v4.5c-.1,0-2.7.1-2.7.1-1,5.9,4.7,9.6,7.2,14.1l-2.8,10.5c-3.4-3.8-21.5,6.1-18.3,9.1,8.4,1,14.4-2.7,19.2-9.1,3.2,9.7,14.3,13.8,23.8,13.7-.9,2.8-3.7,2.8-2.8,6.4l9.2-.9c-3.6,10.2-5.2,17.8,8.6,17.1,7.3-.4,13.8-8.5,19.8-12-3-1.5-6.4-2.1-6.4-6.4,0-.2,3.1-.9,1.9-3.2-1.9-.4-2.8,1.7-4.7,1.4-1.6-.2-1.7-2-1.9-2.1-.7-.3-6,.6-5.3-3,5.7-.4,9.3-4.9,11-10.1l1.3,1.7c6.6-.6,12.2-4.4,18.8-3.6l-3.6-.9c1.2-8.4,4-7.4,10-3.2-2.5,1.9-13,15.5-10.9,17.8l5,.2,4.5-8.3,4.1,3.2-3.7,2.9.9,3c-.5-2.9,4.5-3.3,4.6-4.1.6-3.2-2.5-3.2-3.4-4.4-1.7-2.3-.8-6.4.2-8.9,4.8-3.1,6.1,1.8,8.7,4.6.9-3.1-1.4-6.3-.7-9.4.6-2.6,3.3-4.8,2.5-8,1.8,2.8,4,2.7,6.2,4.3,2.5,1.8,5.6,5.2,8.2,6.4,3.7,1.7,9.2.9,11.2,4.8-3.1-1.4-5.8-.7-3.2,2.8,4.1-.1,4.1-4.6,6.5-6.3,1.3-.9,8.4-2.9,10-2.9,4.1.1,5.7,4.4,6.6,4.6,4.4,1.1,12.3.4,17,1.1l6.1,7.1c-2.9-.7-10.2-3.9-12.3-1.8-4.8,4.5.9,7,1.2,8.9.3,1.5-4.3,6.8.1,9,2.7,1.4,9.8-.6,11.7-2.5.8-.9.8-3,1.3-3.3.8-.6,4,.2,5.7-.3,2.1-.6,2.1-3.1,2.6-3.4.5-.3,8.9,1.4,10.1,2,4.8,2.1,6.9,8.8,3.4,13,1.8,2.7,4.1.2,6.8.5,3.1.3,6.3,2.8,11.1,2.8,5.8,0,10.5-4,15.1,1.3,2.5,2.9,3.2,5.7,2,9.3-.4,1.1-3.2,1.9-1.1,4,1.8,1.8,3.2-5.2,3.7-5.5,3.7,2.4,6.1,5.4,11,5.5l-2.3,6.4c0-4.4-4.9-2.7-7.8-4.6v2.8s-1.8,0-1.8,0l-.9-1.8c-6.4,10.2-2.1,11.2,7.8,12.7,2.9-3.2,5.4-3.1,5-9h3.6s-2.8-2.4-2.8-2.4v-3.6c.4-2.5,4,2.9,4.4,3.9,1,2.8.8,6.7,2.3,9.6,1.1,2.1,3.8,3.7,4.3,6.6-2.9.5-3.2,4.7-4.5,5.5-1.2.7-10.4-2.4-8.8,4.1.8,3.3,7.7,3.1,10.6,3.6-1.6,5.9,1.3,3.6,3.6,5,1.4.8,4.3,6.4,6,7.8,1.7-2.2-2.8-5.8-2.9-6.8-.1-.9,1.3-3.1,1.5-4.7.8-8.3-7.2-7.8-7.3-9.1l2.4-5c2.4,1.1,5.5,3,7.7.5l-4.6-3.2,6.5-.5,7.3,12c-2.1.9-5.2,0-4.6,3.6l4.5,2.7-2.8,2.8,1.9,5.9-2.7-.6c1.4-4.5-4.2-7.6-4.3-2,0,3,1.2,3.1-2.1,6.2,2.7,1.1,3.9.5,6.4-.5,2.5-.9,5.8-2.3,6-5l2.8,5.6,9.5.8c-5.1,2.8-1.9,10-7.9,10.9l.6,2.8c-3.9.9-3.1-2.7-5-4.6-1.7-1.7-7.1-2.6-9.3-5.2-3.3,2.5-7.5,1.7-10.7,2.6-.4.1-3.8,3.9-6.1,3.6,3.1-16.9-11.1-4.8-6.2,5.3,11,4.7,22.4,3.5,33.7,1.1-4.7,6-3.9,12.8,2.7,16.5,5.5,3,12.8,2.8,15.5,4.1,3,1.5,8.4,6.2,11,8.2,5.9,4.4,13.9-.2,18.8-4.1,1-.8,1.4-2.3,2.3-3.2,1.1-1,3.5-1,3.7-2,1.5-6.5-5.1-6.1-5.5-8.2-.2-.9,1.5-1.9,1.4-3.2-.2-2.8-3.1-4.2-2.4-9.6.6-4,4.7-6.1-2.7-8.7,0-2,7-1.1,7.3-.9,0,5.8-1,11.7,3.6,16,1.2,1.1,6.5,2.8,6.6,3.7-2.3,4.3-1.8,6.7-1,11.4,1.9-1.3,8.1,1.2,8.9.7,1-.6,2.7-4.6,4.8-4.3l-1.7-4.4,4.4-1.9c.8,3.5,2.3,9.5,5,11.9,1.6,1.5,3.8,1.1,4.6,3.6.3-3.9,3.4-3.8,6.8-3.6,1.3,5.7,4.9,11.3,10.6,13.6,2.7-2,.7-6,1.3-8.5l2.8-1.5c1.2,3-.3,5.6,0,8.6.7,6.5,5.4,11.8,10.9,14.7.6,2.4-5.6,4.2-6.5,5.7-1.4,2.3-.3,5-1,7-.6,1.7-4.2.6-2,4.9,6.3,5.6,10.7,16.5,20.8,14,3.3-.9-.5-16.6-2.2-19.2,4.1,1.1,4.7-2.1,5.5-5.5-4.5,1.4-9.6.5-11.9-4.1l10.4-.6c22-6.9,9.6-34.7-2.2-46.1,2.2-1.1,6.5.8,6.4-3.2Z"/>
  <path d="M926.4,927.1c-7.6.7-20.9,19.8-8.9,23.1l-6.9,4-2.3-1.7c-.6,4.8-10.5,4.1-12.9,5.9-1.5,1.2-.4,3.6-1.1,4.9-.4.8-6.9,3.4-8.5,4.7-5,4.2-8.8,11.4-5.1,17.7.5.8,2.7,1.7,3.8,2.9,1.6,1.8,4.7,6.2,6.3,7.4,2.9,2.3,6.6,2.4,8.8,6.8.9-.2.5-3.4.4-3.6-.5-.5-3,.8-2.7-1,2.7-.2,4.8,1.3,7.5.7,4.9-1.1,16-7.4,19-11.5,5.8-8-.9-13,0-21.2-1.7,1-2.6,0-3.6-1.4l1.4-.6.4-1.7c-6.6.8-1.6-9.1.1-12.3.6-1,2.1-1.2,2.5-1.7.2-.3-.7-2.9.7-5.2,3.3-5.7,11.9-4.9,9.5-13.8-3.3,1.4-6.4-2.7-8.5-2.6Z"/>
  <path d="M314.5,968.4c-1.7-1.5-8.6-4.4-9-5.2-.7-1.3.5-3.7-1.1-4.9-2.4-1.9-12.3-1.1-12.9-5.9l-2.3,1.7-6.9-4.4c7,0,4.9-9,2.6-13.1-1.7-3.1-7.9-9.2-11.5-9.5-2.2-.2-5.2,3.9-8.5,2.6-2.3,8.9,6.3,8.1,9.5,13.8,1.3,2.3.4,4.9.7,5.2.3.5,1.9.6,2.5,1.7,1.7,3.2,6.7,13.1.1,12.3l.4,1.7,1.4.6c-1,1.4-2,2.4-3.6,1.4.9,8.2-5.9,13.8.3,21.6,2.7,3.5,15.3,10.8,19.4,11.3,2.3.3,4.5-1.3,6.8-.9.3,1.8-2.1.4-2.7,1-.1.1-.5,3.3.4,3.6,2.2-4.4,5.9-4.5,8.8-6.8,1.6-1.2,4.7-5.7,6.3-7.4,3.1-3.4,5.1-2.6,5.3-9.3,0-3.3-3.7-8.6-6.1-10.8Z"/>
  <path d="M370.5,1062.5c-.2-1.8,1.7-5.5,1.7-9,0-3.9-2.1-7.6-1.9-10.9.2-2.9,2.8-6.2,1.8-9.7-3,1.5-3.9,5.2-4.6,8.2-2.2-.1-3.2-2.3-5.8-1.9-.7.1-.7,1.5-1.3,1.8-.9.6-3.3,1.6-3.7,2.1-.9,1.3-.2,4.9-2.5,6.1l-2.3-1.8c.7,1.2,0,7.5-.5,8.2-1.1,1.6-8.3,5.1-10,7.4-1.4,1.9-1.5,6.1-3.7,8.1-3.7,12.6,5.6,20.8,11.1,31,2.9.5,7.1,3.2,9.9,2.8.6,0,10.9-6.2,11.2-6.7.7-.9.5-2.7,1.3-3.7.9-1.3,2.9-1.6,3.4-3,1.3-3.6,1.1-11.7.3-15.6-.7-3.2-4.3-11.1-4.5-13.7Z"/>
  <path d="M848.5,1055.8c-.5-.7-1.2-7-.5-8.2l-2.3,1.8c-2.4-1.2-1.7-4.8-2.5-6.1-.3-.5-2.7-1.5-3.7-2.1-.6-.4-.6-1.7-1.3-1.8-2.6-.5-3.6,1.7-5.8,1.9-.7-3-1.5-6.8-4.6-8.2-1,3.5,1.6,6.8,1.8,9.7.3,3.2-1.8,7-1.9,10.9,0,3.5,1.8,7.2,1.7,9-.3,3.8-4.6,12.1-5.1,16.7-.2,2.2.4,11.7,1.3,13.2.5.8,2.3,1.2,3.1,2.4.8,1.2.5,2.9,1.6,4.1,1.1,1.1,10.9,6.5,12.5,6.3.9,0,8.2-2.7,8.8-3.2.9-.8,4.1-7.6,5.2-9.5,3.3-5.7,5.9-6.6,6.2-14.6.1-3.4-2.6-12-4.6-14.7-1.7-2.3-8.9-5.8-10-7.4Z"/>
  <path d="M983,976.2c1.8-2.1,6.7,1,10-4.7,2-3.3-.4-8-2.4-11.2-1.9-3.2-7.1-7.2-8.5-9.8-.8-1.4-.6-3.4-1.5-4.9-2-3.2-10.1-7.6-13.1-12.5-1.2-2-.7-6.2-4.2-7.3l.7,14.4c-1.4,1.7-7.1,2.5-7.8,3.2-.4.5-.3,2-1.2,2.9-1.6,1.7-5.3,2.3-3.6,6-5.1,0-13.2-1-14.6,5.5,5.4,2.3,10.1.7,15.6-.5.2,2.6,5.1,7.4,5.3,8.5.9,3.5-5.5,12.7,2,14.6,2.2.6,3.5-.7,4.9-.6.7,0,.6,1.4.9,1.5,4.7,2.3,9.8,1.9,14.7,3,2.3-.8,1.2-6.2,2.8-8.2Z"/>
  <path d="M248.6,952.5c1.6-3.7-2-4.3-3.6-6-.9-.9-.7-2.4-1.2-2.9-.7-.7-6.4-1.5-7.8-3.2l.3-14.4c-3.4,4.6-4.4,8.7-8.8,13.2-5.9,5.9-5.2,3.5-9.6,11.5-2.6,4.7-14.6,13.3-11.2,20.4,3.1,6.4,8.6,3.2,10.3,5.3,1.6,1.9.5,7.3,2.8,8.2l13.2-2.2c3.1-3.7,3.6-1.1,6.6-1.5,8.3-1.1,1.8-11.4,2.6-14.8.3-1,5.1-5.9,5.3-8.5,5.4,1.2,10.2,2.9,15.6.5-1.5-6.5-9.5-5.5-14.6-5.5Z"/>
  <path d="M723.1,1129.9c-.8-1.8-.1-3.9-.9-5.5-.7-1.5-8.6-5.9-10.2-8.5-1.1-1.7-1.5-5.8-2.4-8.2-.4-1-.3-2.7-1.6-2.5-.6,7.5,1.8,14.9.8,22.3-.9,6.5-6.7,14.9-8.4,21.7-2.2,8.5-1.1,13.5,1.7,21.7l9.1,8.4c3.3-1.1,7.4-1.6,9.7-4.2.9-1,8.3-12.6,8.9-14,3.4-7.3,3.8-14.6.4-21.9-1.6-3.6-6.2-7.4-7-9.4Z"/>
  <path d="M492,1111.2c0-1.2.7-5.7-.9-6-1.4,2.8-1.5,7.9-2.8,10.3-1.6,3-8.7,6.5-10.1,8.4-1.3,1.9-.5,4-1.3,6-.7,1.7-5.1,5.5-6.5,8.2-7.9,15.6,1.8,25.4,9.6,38.1,1.3,1,8,3.4,9.5,3.2.3,0,4-4.5,4.6-5.2,1-1.1,2.9-1.4,3.8-3.1,9.5-19.4-7.3-32.8-6.9-52.6,0-2.3.9-4.7,1-7.2Z"/>
  <path d="M327.7,941.5l3.2,7.8-1.9,1,1,3.2c-2.6,0-4.2.7-3.7,3.7,3-2.8,6.8-2.3,6.4-7.3,5.4,3.2,15.2.3,20.4-2.9,4.3-2.6,2.9-5.2,9.6-3.8,3.8.8,7.2,3,11.2,3.1-1.5-3.2-6.7-3.1-8.9-4.8-3.9-3.1-6.1-13.9-10.8-17.1-.9,3.1,5.2,5.7-.4,6.4-1.3-5.4-7.2-6.8-10.7-9.4-.8-.6-1-2.8-2.7-3.3-1-.3-5.8.9-8.1.8-7.5-.2-7.6-.8-14.6,1.4-5.2,1.6-10.2,2.2-13.2,7.4l2.6,8c4.2-.2,6.2,3.5,9.2,4.6,1.4.5,3.4,0,4.4.6,1.7,1,2.5,5.4,7.1.7Z"/>
  <path d="M892.9,935.5c1.8-5.8,4.9-9.6-2.5-13.1-3.5-1.6-8.1-1.5-11.3-2.4-1.8-.5-1.7-2-2-2.1-1.8-.8-8.4.7-11.3.7-2,0-5-1.2-6.2-.9-1.7.4-1.9,2.7-3.1,3.6-3.4,2.4-9.2,3.8-10.3,9.1-5.7-.7.5-3.3-.4-6.4-4.7,3.2-6.8,14-10.8,17.1-2.2,1.7-7.4,1.6-8.9,4.8,4,0,7.4-2.3,11.2-3.1,6.7-1.4,5.3,1.2,9.6,3.8,5.2,3.2,15.1,6.1,20.4,2.9-.4,5.1,3.4,4.5,6.4,7.3.5-3-1.1-3.7-3.7-3.7l1-3.2-1.9-1,3.2-7.8c4.6,4.7,5.4.3,7.1-.7,1-.6,3,0,4.4-.6,2.9-1.1,5-4.8,9.2-4.6Z"/>
  <path d="M1061.3,933.8c.8-6.4,5.8-13.1,6.3-19.7-2.8,1.2-3.5,6.7-5,8.2-2.3,2.4-8.8,4.2-10.6,5.9-2,1.8-1.4,3.9-2.7,5.5-1.2,1.5-5.2,2.8-7.3,5.5-4.2,5.3-6.6,14.3-6.4,21,0,.9,3.7,17,4.1,17.9.3.6,5.1,5.3,5.6,5.4,3.4-1.4,5.2-4.2,9.4-3.7,1.7-5.4,4.8-8.6,6.1-14.5,2.4-10.7-.9-21.1.5-31.5Z"/>
  <path d="M150.7,933.7c-1.3-1.6-.7-3.7-2.7-5.5-1.5-1.4-4.9-2.5-7.7-4.6-.8-.6-2.1-.5-2.9-1.2-1-1-1.1-3.1-2-4.5-.3-.5-2.3-4.4-3.1-3.3.8,6.4,5.5,13.1,6.3,19.3,1.4,10.7-2.1,21.3.7,32.3,1.4,5.5,4.4,8.6,5.9,13.7,4.2-.6,5.9,2.3,9.4,3.7.8-.1,5.5-5.1,5.9-6.1,4-11.8,5.7-28.6-3-38.7-2-2.3-5.8-3.7-6.9-5Z"/>
  <path d="M735.4,872c-3.1.5-8.5,3.9-6.4,7.5,2.2,3.7,11.8,2.1,15.5,1.1,1.5-.4,9.5-4.3,10-5.6,2-4.8-3.6-2.2-5.3-4.9,8.3-1.7,6.4-7.8-.3-10.3-4.3-1.6-18.1,1.2-18.1,7.1l4.6,5Z"/>
  <path d="M445.8,875.6c2.2,3.7,21.5,8.7,24.9,4.3,2.8-3.7-2.9-7.5-6.1-8,4.2-3.2,6.8-7,.7-10.3-5.8-3.1-15.9-3.7-19.8,2.7-1.1,3.9,2.9,4.9,5.4,6.2,0,1.3-8.2-.2-5.1,5Z"/>
  <path d="M202.8,936l3.6-.9c-.9,1.6,2.5,7.1,3.4,7.4,5,1.2,17.4-3.8,18.2-9.7l-.7-2c-1.7-1.3-4.9-1.2-6.5-2.2-2.3-1.4-1.2-5.4-5.2-4.4v3.7c-1.3-.5-7.6,1.4-8.1,2-.6.8.2,3-.2,3.5-.4.4-5.2-.7-4.5,2.8Z"/>
  <path d="M992.5,929.7c-.5-.6-6.8-2.5-8.1-2v-3.7c-4-1-2.8,3-5.2,4.4-2.5,1.5-9.2.7-6.8,6.1.4.8,6.6,6,7.5,6.4.8.4,9.6,1.6,10.3,1.4.9-.2,4.3-5.8,3.4-7.4l3.6-.4c-.8-1.8-4.2-1.1-4.5-1.4-.4-.5.4-2.7-.2-3.5Z"/>
  <path d="M937.5,897.8c-1.9.4-3.6,2.2-4.3,3.9.2,2.2,8.2,1.2,10,1.4l-3.6,3.2,3.6.5v5.4c.7.3,5,.3,6,.2,1.7-.2,1.2-1.7,1.9-1.9,1.4-.3,4.2.4,4.8-.1.3-.2-.2-1.8.3-2.4.6-.9,4.5-1.2,5.2-3.6l-.8-2.6c-1.5-1-4.1,0-5.8-.4-.7-.1-.7-1.2-1-1.4-5.8-3.7-9.3-3.5-16.3-2Z"/>
  <path d="M239.8,905.9c1.9,1.7,4.8.9,4.2,4.4,5.1-.7,6.6,3.3,12.1,2,1.8-1.4,1.6-3.7.6-5.5l3.6-.5-3.6-3.2c2-.4,10.1,1.3,9.6-1.9-.2-.5-.4-1.1-.8-1.5-1.6-1.8-11.3-3.3-13.8-3-3.4.3-6.3,4.5-6.7,4.6-2.1.4-10.7-.4-5.4,4.6Z"/>
  <path d="M521.3,929.6c-2,4.2-3.6,20.1,4.2,15.6,4.6-2.7,6-9.6,4.4-14.5-1-3-2.7-2.5-3-3-1-1.4,5.4-5.5.2-7.1-4.5-1.3-13.9,1.9-10.4,7.6l4.6,1.4Z"/>
  <path d="M680.5,939.1c.2-3.6-1.1-6.1-1.8-9.4,13.8-2.2-1.9-14-8.2-6.9,5.2,6.1,1,3.9-.4,7.9-3.7,11.1,9.6,23.4,10.3,8.4Z"/>
  <path d="M855.3,835.4l.9-5.5-2.8.6c-.8,8.1-2.1,3-5.4,4.4-10.5,4.4,8.1,13.2,13.7,8.7,1.8,1.8-8.6,6.6-4.1,9.1,4.2-1.3,8.4-4.2,9.6-8.7-3.4-4.4-5.4-9.1-11.9-8.6Z"/>
  <path d="M332.8,843.3c-1.5,4.9,12.2,13,10.9,7.2l-5.5-6.9c4.7,1.6,10.2,1.2,14.4-1.6,5.2-3.4-.4-9.3-5.2-6.6l-1-5.5h-2.7s.9,5.5.9,5.5c-2.3-.1-5.6.8-7.3,2.3-1.7,1.5-1.3,2.5-2.2,3.8-.4.6-2.1.8-2.4,1.8Z"/>
  <path d="M126.2,907.9c1.2.2,2.4,2.1,4.3,1.5.4-3.2-.6-8-3.2-10.1-1.2-1-3.3-1-4.2-2.2-2.5-3-1.6-12.8-9-10.5-2.4,1.5.1,14.3,1.7,16.6.2.4,6.7,5,7.1,5.1,1.1.3,2.3-.6,3.3-.5Z"/>
  <path d="M1076.9,897.2c-1,1.2-3.1,1.2-4.2,2.2-2.6,2.1-3.6,6.9-3.2,10.1,1.9.6,3-1.3,4.3-1.5,1-.2,2.2.7,3.3.5.4,0,6.9-4.7,7.1-5.1,1.6-2.3,4-15.1,1.7-16.6-7.3-2.3-6.5,7.5-9,10.5Z"/>
  <path d="M764.2,1045.2c-4.9.7-7.4,19-3.7,20.3,12,4.1,15.3-22,3.7-20.3Z"/>
  <path d="M439.4,1065.5c3.8-1.3,1.2-19.6-3.7-20.3-11.6-1.7-8.3,24.4,3.7,20.3Z"/>
  <path d="M952.8,919.5c-1.9-.6-10.3-5.6-11.5-4.6l1.8,4c-4,3.1-8.3,9.4-2.6,12.8,8.1,4.8,15.9-3.6,12.3-12.3Z"/>
  <path d="M256.9,919l1.8-4c-1.2-1-9.5,3.9-11.5,4.6-3.6,8.7,4.2,17.1,12.3,12.3,5.7-3.4,1.4-9.8-2.6-12.8Z"/>
  <path d="M390.7,1001.1c-1.1-.3-4.7.4-5.5,1-3.6,3-5,14-.7,17.2,10.7,7.8,12.8-16.5,6.3-18.2Z"/>
  <path d="M815.6,1019.3c4.3-3.1,2.9-14.2-.7-17.2-.8-.7-4.4-1.3-5.5-1-6.6,1.7-4.4,26,6.3,18.2Z"/>
  <path d="M345.3,1010.1c-7.2,5.6-2.3,16.8,7.5,12.4,2.7-1.2,9.2-9.1,6.2-12.1-1.5-1.6-11.3-2.1-13.8-.2Z"/>
  <path d="M854.7,1022.7c5-1.4,3.5-9.5.4-12.3-2.5-2.3-11.2-1.8-13.7-.3-4.3,2.6,3.8,15.4,13.4,12.6Z"/>
  <path d="M1005.2,950.9c-4.9-5.1-16.1,3.1-11.7,10.3.5.8,4.5,3.7,5.3,3.9.6.1,6.8-.4,7.1-.6.7-.6,2.8-5.3,2.8-6,0-.4-3.1-7.1-3.5-7.5Z"/>
  <path d="M207,955.2c-2.1-6.4-10.6-7.9-13.8-1.4-7.9,15.8,17.9,14,13.8,1.4Z"/>
  <path d="M427.9,877.5c3.8.5,8.3-.7,10.6-4,10-14.6-8.5-19.5-10.5-4.6-.4,2.8,0,5.8,0,8.6Z"/>
  <path d="M772.1,877.5c0-5.1.8-12.9-4-16.1-1.4-.9-2.8-1.9-4.6-2-10.9,4.7-1.5,20.4,8.6,18.1Z"/>
  <path d="M1072.9,923.3c-6.5,1.3-11.2,22.3-1.6,18.6,7.7-2.9,10.9-20.4,1.6-18.6Z"/>
  <path d="M124.8,923.3c-7.3,1.9-2,17,4.5,18.8,9.5,2.6,3.6-20.9-4.5-18.8Z"/>
  <path d="M544.8,1114.5c-6.9,6.2-2.7,21.9,7.6,20,1.8-4.3-1.3-22-7.6-20Z"/>
  <path d="M655.2,1114.5c-6.3-2-9.4,15.7-7.6,20,10.3,1.9,14.5-13.7,7.6-20Z"/>
  <path d="M377.7,1057.8c-.7,2.8.2,5.4,1.4,7.9.5,1.1,3.4,1.7,2.1,3.8-.4.6-8.1.9-.4,5.3,2.2-1,2.4-3.1,2.3-5.3,4,3.3,11.6.8,9.9-4.8-.6-2-12.5-10.6-15.3-6.9Z"/>
  <path d="M820.5,1066.1c1.4-2.6,2.5-5.3,1.7-8.3-2.4-3.7-15.6,4.6-15.4,8.5.3,5.1,6.4,5.9,10.1,3.3l1.3,4.7c2.1,1.9,4.5-1.9,4.2-3.7l-3.1-.8c-2.2-2.3.9-2.8,1.3-3.5Z"/>
  <path d="M503.2,1072.5c-7.7-1.3-7.8,19.2.6,19.6l5.6-2.4c-2.2-4.3-.4-16.2-6.2-17.2Z"/>
  <path d="M700.5,1073.4c-3-1.9-5.8-1.2-7.1,2.1-1.7,4.5-.9,9.7-2.8,14.2,4.4.2,4.1,4.4,8.7.9,4.2-3.1,3.7-12.9,1.1-17.2Z"/>
  <path d="M931.6,890.1c-1.5.1-11.8-9.1-11.3-.8,4-1,4.1,1.8,6.3,4.3-3.1,3.3-4.6,9.4,1.9,7.3,3.5-1.1,5.8-7.2,9-5.2,3.9-3.7,2.9-4.8,3.8-9.9-3.7-1.3-7.2,4.2-9.8,4.4Z"/>
  <path d="M279.7,889.4c.6-8.3-9.8.9-11.3.8-2.6-.2-6.1-5.7-9.8-4.4,1.3,1.9,0,5.7.8,6.9,1,1.4,3.9,3.7,5.4,2.4,3.9,7.2,16.3,9.8,8.5-1.4,2.3-2.4,2.4-5.2,6.3-4.3Z"/>
  <path d="M871.4,978.9c-2.6-2.8-4.8-.7-7.2-.9-2.4-.2-3.9-1.5-6.8-1.1-2.1.3-11.4,3.6-9.3,6.7,6.7,3.3,12.7.3,19,.2,1.3,0,2.1,1.4,2.5,1.4.6,0,4-5.9,7.6-4.6l1.1-6.2c-4.1-.8-4.7,1.9-6.8,4.5Z"/>
  <path d="M352,983.6c2.1-3.1-7.2-6.3-9.3-6.7-2.9-.4-4.3.9-6.8,1.1-2.4.2-4.6-1.9-7.2.9-2.1-2.6-2.8-5.3-6.8-4.5-.7,8.5,3.4,5.4,5.5,6.9,1,.7,2.1,3.9,3.2,3.9.4,0,1.2-1.4,2.5-1.4,6.3,0,12.2,3.1,19-.2Z"/>
  <path d="M981.2,796.5c.4,0,6.3-3.2,6.6-3.5,3.8-3.9-1-9.2-5.2-10.3-8.5-2.3-12.6,15.4-1.4,13.8Z"/>
  <path d="M218.8,796.5c11.3,1.6,7.2-16.1-1.4-13.8-4.3,1.2-9.1,6.4-5.2,10.3.3.3,6.2,3.4,6.6,3.5Z"/>
  <path d="M1165.8,704.9c5.7,2.8,14-8.6,6.8-13.7-8.7-6.1-13.3,8.9-6.8,13.7Z"/>
  <path d="M34.2,704.9c6.5-4.7,1.9-19.8-6.8-13.7-7.2,5.1,1.1,16.5,6.8,13.7Z"/>
  <path d="M700.9,869.9c5.3,4.4,15.1-5.1,9.8-11.2-8.1-5.2-17.6,4.6-9.8,11.2Z"/>
  <path d="M499.1,869.9c7.8-6.6-1.8-16.3-9.8-11.2-5.3,6.1,4.6,15.6,9.8,11.2Z"/>
  <path d="M1103.4,727c3.1,1.6,4-.5,6.1-1,1.6-.4,3.1,1.3,4.9-1.7.9-1.5,2.7-8.6.4-8.7l-2.8,1.6c-2-3-6.1-3.4-8.4-.5-1.6,2-3.2,8.8-.3,10.3Z"/>
  <path d="M90.5,726c2.1.5,3,2.6,6.1,1,3-1.5,1.3-8.3-.3-10.3-2.3-2.9-6.4-2.5-8.4.5l-2.8-1.6c-2.3,0-.5,7.2.4,8.7,1.8,3,3.3,1.3,4.9,1.7Z"/>
  <path d="M885.8,780.3c5.5-2.7,10.2-9.8,8.8-16.1-3-4.8-12.8,10.1-13.4,13.3-.8,4.3,1.4,4.3,4.6,2.7Z"/>
  <path d="M315.7,771.4c-1.2-2-7.8-11.2-10.3-7.3-4.3,12.1,22.4,26.6,10.3,7.3Z"/>
  <path d="M783.4,1141.2c-6.2,12.9,8.8,16.9,9.7,7.4.7-7.1-6.8-13.3-9.7-7.4Z"/>
  <path d="M414.9,1139.3c-7.7-2.8-10.8,12.3-4.6,14.2,9.8,3,8.7-12.7,4.6-14.2Z"/>
  <path d="M973.4,1020.2c-5.1,1.9-12.5,1.9-12.8,8.8-.2,5.2,8.1,5.2,11,2.7,3.7-3.1,1.6-7.5,1.7-11.5Z"/>
  <path d="M226.6,1020.2c.2,4-2,8.4,1.7,11.5,2.9,2.4,11.3,2.4,11-2.7-.3-6.9-7.6-6.9-12.8-8.8Z"/>
  <path d="M836.1,977.1l8,.8c2.3-4.4,8.3-6.1,9.3-11.7l-9.1-1.9c2.1,7.2-8.9,5.1-8.2,12.8Z"/>
  <path d="M346.5,966.2c.9,5.4,6.9,7.2,9.3,11.7l8-.8c.7-7.7-10.3-5.6-8.2-12.8l-9.1,1.9Z"/>
  <path d="M817.8,958c-1.3,1.3,7.3,21.2,12.8,20.1,3.1-5.6-2.7-13.3-6.7-17.1-1.5-1.4-3.9-3.4-6.1-3.1Z"/>
  <path d="M369.4,978.1c5.4,1.1,14.2-18.8,12.8-20.1-2.5-2.4-18.5,14.9-12.8,20.1Z"/>
  <path d="M413.7,842.7c-2.3,3.8-1.6,8.7-.4,12.8,2.6.9,3.7-2.2,5.2-2.6,2.9-.8,9,3.1,12.1-1.5-3-3.4-7.9-2.1-11.9-2.3.8-2.7-1.5-10-5-6.4Z"/>
  <path d="M781.5,852.9c1.6.4,2.6,3.5,5.2,2.6,4.2-8.8-3.9-22.4-5.5-6.4-4,.2-8.8-1.1-11.9,2.3,3.1,4.6,9.3.7,12.1,1.5Z"/>
  <path d="M372.1,954.3v-3.7s-.9,3.7-.9,3.7c-2.4.2-2.7-2.4-5.1-2.8-7.3-1.1-4.9,12.6,1.1,13.6,2.9.2,4.7-7.8,4-10,1.9.5,2.7,4.2,4.5,1.4l-.9-3.2-2.7.9Z"/>
  <path d="M827.9,954.3l-2.7-.9c-.2,1.7-1.7,5.6,1.4,3.7l2.3-1.8c-.7,2.2,1.1,10.2,4,10,5.4-1.9,7-8.6,4.3-13.2-3.5-2.6-7.1,3.4-8.3,2.3l.9-3.6-1.8,3.7Z"/>
  <path d="M177.2,987.2l-3.7-.5,6.4-11.4c-2.8-2.5-13.7,10.3-12.9,14,.2.7,2,1.2,2.8,2,.6.5.7,2,1,2.2,1.5,1.1,8.7-2.2,6.3-6.3Z"/>
  <path d="M1020.1,975.3l6.4,11.4-3.7.5c-.8,5.4,1.4,5.4,5.9,6.4.4-2.2,3.8-3.5,4-3.9,2-3.3-9.8-17-12.6-14.5Z"/>
  <path d="M896,1065c-1.1-1.3-7.8-6.3-9.1-6.2-4.5.4,1.4,9.9,2.8,11.6,6.5,7.9,12.4,2.1,6.3-5.4Z"/>
  <path d="M302.5,1073.7c4.8,3.5,11.5-8.6,12.5-12.4l-1.9-2.6c-4.1.7-15.9,11.1-10.6,14.9Z"/>
  <path d="M1048.4,755.8c-4.7-.8-5,5-4.4,8.4,1.7,9.3,11.4,11,9.8.3-.9-5.9-6.7-3.1-5.5-8.8Z"/>
  <path d="M151.5,756.4c.9,4.1-1.5,2.8-3.1,4.1-3.2,2.6-3.1,7.2-1.3,10.7,8.6,4.5,12.9-16.5,4.3-14.8Z"/>
  <path d="M489.7,1029.3c-1.7.4-12.2,18.9-5.5,21,3.4-2.8,5.5-7.6,6.5-11.8.4-1.7,2.3-10-.9-9.2Z"/>
  <path d="M715.8,1050.3c2.9-2,2.5-4.2,1.9-7.4-.5-2.2-6-14.1-8.3-13.7-1.9.4-.8,2.5-.8,3.5.4,6.2,2.3,13.4,7.2,17.6Z"/>
  <path d="M982,1047.9c-1.9,3-1.5,11.7,2.8,10.6,3.2-2.4,7.2-11,6-14.8-1.3-4.1-7.9,2.9-8.7,4.3Z"/>
  <path d="M209.3,1043.6c-1.2,3.9,2.8,12.4,6,14.8,4.2,1.2,4.7-7.6,2.8-10.6-.8-1.3-7.5-8.3-8.7-4.3Z"/>
  <path d="M112.4,816.9c-.3-.2-.2-1.7-.7-1.6l-5,4.6-1.8-3.6c-2.3,6.2,3.8,4.8,2.9,10.9,4.5,2.2,6-.5,9.9-1.8l-2.7-8.6c-.7-.4-1.9.7-2.6.3Z"/>
  <path d="M1095.1,816.2l-2.7,3.6-4.2-4.6c-.7,3.1-2.2.8-3.2,1.4-1.7.9-2,6.7-2.7,8.6,4,1.2,5.4,4,9.9,1.8-.9-6.1,5.2-4.7,2.9-10.9Z"/>
  <path d="M156.1,748c2.6,1.9,7.8,2.4,11,2.3,1.5-5.1-14.2-15.4-15.6-10.5-.4,1.4,3.3,7.3,4.6,8.2Z"/>
  <path d="M1043.9,748c1.3-.9,5-6.8,4.6-8.2-1.3-4.9-17,5.4-15.6,10.5,3.2,0,8.3-.4,11-2.3Z"/>
  <path d="M441.7,1150.5c3.2-4.4,6.1-9.4,5.5-15.1-3.3-3.5-17.4,16-5.5,15.1Z"/>
  <path d="M752.8,1135.4c-.6,5.7,2.3,10.7,5.5,15.1,11.9.9-2.2-18.6-5.5-15.1Z"/>
  <path d="M1076.4,860.1c2.8.6,11.9-14.7,10.5-18.3-1-1.3-16.7,14.7-10.5,18.3Z"/>
  <path d="M113.1,841.8c-1.4,3.6,7.7,18.9,10.5,18.3,6.2-3.6-9.5-19.6-10.5-18.3Z"/>
  <path d="M363.9,1001.4c1.8-1.1,3.4-4.8,1.6-6.6-1.8-1.8-7.6-3-9.6-.9-1.9,1.9-.3,6.4-1.1,8.9,1.7.5,2.2-1.4,3.4-1.7,1.8-.4,3.7,1.6,5.7.3Z"/>
  <path d="M841.2,1001c1.7,0,2.2,2.2,4,1.8-.8-2.5.7-7.1-1.1-8.9-2.6-2.6-11.3-.2-10.5,3.7,1.1,5.9,5,3.4,7.6,3.4Z"/>
  <path d="M304.1,1094.4c-1.2.2-2.9,1-3.3,2.3-.5,5,.4,10.2,6.5,8.3,4-1.2,4.1-12.1-3.3-10.6Z"/>
  <path d="M892.6,1094.4c-3,1-3.9,9.5,0,10.7,6.2,1.8,7-3.4,6.5-8.3-.7-2-4.7-2.9-6.6-2.3Z"/>
  <path d="M245.8,721.1c1-6.1-6-15.1-11.9-10.9,1.6,5.1,5.7,11.8,11.9,10.9Z"/>
  <path d="M966,710.2c-5.9-4.2-12.8,4.8-11.9,10.9,6.1.9,10.3-5.8,11.9-10.9Z"/>
  <path d="M285.6,1016.9c-2.2.2-5.1,2.8-3.7,5.1,2.7,1.7,5.4,5.8,8.7,4.1,2.7-2,2.9-4.8,2.3-7.8-.8-.8-6.1-1.5-7.4-1.4Z"/>
  <path d="M914.4,1016.9c-1.3-.1-6.6.5-7.4,1.4-.6,3-.4,5.8,2.3,7.8,3.4,1.7,6.1-2.4,8.7-4.1,1.4-2.3-1.5-4.9-3.7-5.1Z"/>
  <path d="M346.3,1041.9c5.2-5.1-10-12.8-10.7-3.9.1,3.6,8,6.5,10.7,3.9Z"/>
  <path d="M853.7,1041.9c2.7,2.7,10.6-.2,10.7-3.9-.7-8.9-15.9-1.3-10.7,3.9Z"/>
  <path d="M1023.3,928.7c-3.7,2.1-9.3,5.8-9.6,10.6-.6,9.4,15-6.5,9.6-10.6Z"/>
  <path d="M186.3,939.3c-.3-4.7-5.9-8.4-9.6-10.6-5.4,4.1,10.2,20,9.6,10.6Z"/>
  <path d="M989.4,807.1c3.9-.3,6.5-13.8-.7-11.8-4.8,1.3-5,12.3.7,11.8Z"/>
  <path d="M212.2,806.9c4.9-1.4,2.7-13.6-3.3-11.7-4.3,1.4-1.8,13.1,3.3,11.7Z"/>
  <path d="M753.9,1171.2c-2.2,4.2-2.2,7.4-1.2,9.2,2.2-.6,4.3-1.2,6.5-1.7.5-1.3.8-3,.8-5.1-.7-2.5-4-2.9-6.1-2.4Z"/>
  <path d="M440,1173.6c0,2.1.3,3.8.8,5.1,2.2.6,4.3,1.2,6.5,1.7,1-1.8,1-5-1.2-9.2-2.2-.6-5.4-.2-6.1,2.4Z"/>
  <path d="M697.9,1051.8c-.6,2.6-2.3,12,.6,13h3c2.7-4.9,1.3-8.4,0-13.5l-3.6.5Z"/>
  <path d="M502.1,1064.6c1.9-1.4.6-10.6-.2-13.2h-3.5c-1.4,4.3-3.7,15.5,3.6,13.2Z"/>
  <path d="M1067.7,864.7c2.9,5.1,10.3,5.5,15.6,5.5,1.2-6.8-10.8-6.6-15.6-5.5Z"/>
  <path d="M102.1,854.6l-4.6-9.7-4.4.7c-.8,3.4.5,6.8,2.6,9.5l6.4-.5Z"/>
  <path d="M1106.9,845.6l-4.4-.7-4.6,9.7,6.4.5c2.1-2.7,3.4-6.1,2.6-9.5Z"/>
  <path d="M116.8,870.1c5.2,0,12.7-.4,15.6-5.5-4.7-1.2-16.8-1.4-15.6,5.5Z"/>
  <path d="M1015.1,970.8l1.4,1.8c1-2.6-1.4-2.6-1.5-3-1.2-2.4,1.4-7.7-3.5-7.2-5,.5-4.5,18,3.7,8.3Z"/>
  <path d="M190,962.9c-5.3-3.5-4.2,4.2-4.6,6.3-.1.6-2.9.8-1.8,3.3l1.4-1.8c1.6,1.9,3.2,3.4,5.9,2.7,1.4-2.2,1.2-9.1-.8-10.5Z"/>
  <path d="M697,841.4c8.6-5.3-4.6-11.6-6.3-8.6-2.1,3.7,2.3,8.7,6.3,8.6Z"/>
  <path d="M822,1015.6c-3.6,5-2.3,12.9,5,11.9.4-4.8.2-10-5-11.9Z"/>
  <path d="M378.3,1026.3c2.6-2.5,1.8-11.4-1.1-10.7-4.2,3.1-4.6,6.9-4.1,11.9,1.6,0,4.1,0,5.3-1.2Z"/>
  <path d="M503,841.4c4,0,8.4-5,6.3-8.6-1.7-3-14.9,3.3-6.3,8.6Z"/>
  <path d="M989,1017.4c-.4.5,1.5,4.4,2.1,5.2,3.5,4.1,11.9,4.9,7-2-2.5-3.5-4.9-5.1-9.1-3.2Z"/>
  <path d="M203.3,1025.7c3.4,0,7.7-4.8,7.8-8.3-5.2-4.4-15.5,8.5-7.8,8.3Z"/>
  <path d="M613.7,1010.1c5-.4,9.3-2.5,11.9-6.9-4.7-3.7-13.4.4-11.9,6.9Z"/>
  <path d="M574.4,1003.2c2.6,4.3,6.9,6.5,11.9,6.9,1.6-6.5-7.2-10.6-11.9-6.9Z"/>
  <path d="M504.8,910.9c-2.2,3.1.4,9.7,1,13.2l2.8-.4c2.9-2.2-.3-17.6-3.8-12.8Z"/>
  <path d="M3.8,580.2c3.6.8,6.3-9.2,5-11.9-6.2-2.4-8.8,11-5,11.9Z"/>
  <path d="M692,924.1c2.5,1.1,2.4-1,2.9-2.5.7-2.1,2-10,.3-11.2-4.5-2.9-6.4,12.3-3.2,13.7Z"/>
  <path d="M1191.2,568.3c-1.3,2.7,1.4,12.7,5,11.9,3.8-.9,1.2-14.3-5-11.9Z"/>
  <path d="M967.1,927.7l7.2-.3c7-10.5-11.3-8.6-7.2.3Z"/>
  <path d="M179.5,997.6c-2.9.3-11.3,5.1-7.4,8,3.4,2.5,10.3-3,9.6-5.8l-2.2-2.2Z"/>
  <path d="M219.3,909.9c2.5,4.2,9.1-1.3,10.2,3l1.2.2c5.6-4.9,3.3-10.4-1.8-2.8-2.5-1.6,0-2.7.5-4.5-4.4-1.5-7,1.5-10,4.1Z"/>
  <path d="M971.1,910.4c-7.4-10.2-5.5,2.9-.9,2.8.6,0,.3-1.7,1.1-1.9,2.7-.7,6.4,1.6,8.6-.4,1.3-1.2-1.7-3.5-2.2-3.7-2.4-1.5-4.1-2.1-7-1.3.4,1.8,2.9,3,.5,4.5Z"/>
  <path d="M225.6,927.3l7.2.3c4.1-8.9-14.2-10.8-7.2-.3Z"/>
  <path d="M1020.5,997.6l-2.2,2.2c-.7,2.8,6.2,8.3,9.6,5.8,3.9-2.9-4.5-7.7-7.4-8Z"/>
  <path d="M958.4,893.5c.2-1.3-1.6-5.6-2.7-6.6-.9-.9-3.1-1.3-4.3-2.1-1.8,5.3-1.9,9.1,4.1,11l2.8-2.3Z"/>
  <path d="M248.5,884.8c-1.2.8-3.4,1.3-4.3,2.1-1,1-2.9,5.3-2.7,6.6l2.8,2.3c6-1.8,5.9-5.6,4.1-11Z"/>
  <path d="M113.1,879.3l3.5-1c0-17.4-10.7-16.2-3.5,1Z"/>
  <path d="M1083.4,878.3l3.5,1c7.1-17.2-3.6-18.4-3.5-1Z"/>
  <path d="M975.9,798c-2.9.8-7.7,8.8-3.8,9.9,4,1.2,12.3-12.3,3.8-9.9Z"/>
  <path d="M1014.3,1020.3c-4.1,1.1-4.5,10.1-2,10.8,5,1.5,7.6-12.4,2-10.8Z"/>
  <path d="M184.1,1020.2c-3.3,1-1,12.3,3.6,11,3.3-1,1.4-12.4-3.6-11Z"/>
  <path d="M1009.1,747.6c-6.1-.9-8.3,3.2-10.1,8.2,5.5,2.1,10.6-2.6,10.1-8.2Z"/>
  <path d="M201,755.8c-1.8-5-4-9.2-10.1-8.2-.5,5.7,4.6,10.3,10.1,8.2Z"/>
  <path d="M221.7,798c-.8.3-1.7,1.2-1.5,2.2.8,2.3,5,8.6,7.8,7.8,4.2-1.2-1.6-11.4-6.3-10Z"/>
  <path d="M522.1,1076c-5-3.3-6.3,6.6-4.5,10,7,2.7,6.4-8.7,4.5-10Z"/>
  <path d="M677,1085l5.4,1.1c3.8-12.2-7.6-14.9-5.4-1.1Z"/>
  <path d="M583.4,895.8c-3.6-2.5-9.6,4.9-5.4,8.7,4.6,2.9,8.3-6.7,5.4-8.7Z"/>
  <path d="M622,904.5c4.2-3.8-1.9-11.1-5.4-8.7-2.8,2,.8,11.5,5.4,8.7Z"/>
  <path d="M371.1,1133c-.5-.7-.4-2.2-.9-3l-3.6.3c-2.1,4.2-2.8,7.7,2.4,9.5,3-1,2.1-6.7,5-4.4.8-3-2-1.1-2.8-2.4Z"/>
  <path d="M826.1,1133.6l1.8.9,3.2,5.3c5.2-1.5,4.8-6.3,1.7-9.8-4.9-1.8-2,4.7-6.8,3.6Z"/>
  <path d="M455.4,1096.1l.9,9.1c6,.9,7.8-5.9,3.7-9.6l-4.6.5Z"/>
  <path d="M492,1099.7c6.4,0,6.5-7.9,3.2-11.9-4.6,1.9-4,7.9-3.2,11.9Z"/>
  <path d="M704.8,1087.8c-3.3,4-3.2,11.9,3.2,11.9.8-4,1.4-9.9-3.2-11.9Z"/>
  <path d="M743.7,1105.2l.9-9.1c-8.7-3.2-9.3,9.9-.9,9.1Z"/>
  <path d="M1096.3,894c-2.1-.5-4.4,1.6-5.8,3.1l2.7-.5c0,1.6-1.3,6.3,0,7.2,4.3,3,7.9-8.6,2.9-9.9Z"/>
  <path d="M103,903.6c5.5,2.1,4.4-2.6,3.7-6.4l2.8.4c-6-7.9-10.7-1.2-6.5,6Z"/>
  <path d="M1184.9,733.3c0,.2.1.3.2.5.4-1.9.8-3.7,1.2-5.6-.7,1.8-1.5,4.7-1.4,5.1Z"/>
  <path d="M15,733.8c0-.1.1-.3.2-.5.1-.4-.8-3.3-1.4-5.1.4,1.9.8,3.7,1.3,5.6Z"/>
  <path d="M239,922.2c2-1.6,5.7-8.2,3.2-10-2.8-2-11,8.1-3.2,10Z"/>
  <path d="M957.9,912.2c-2.5,1.7,1.1,8.4,3.2,10,7.8-1.9-.3-12-3.2-10Z"/>
  <path d="M812.3,779.6c.3-4-9.9-7.9-10.9-4-1.1,4,8.2,5.7,10.9,4Z"/>
  <path d="M397.5,778.4c5.8-5.6-9.5-5.8-9.8,1.1,2.7.9,7.7.9,9.8-1.1Z"/>
  <path d="M785.3,838.1c3.8-2.8,2.3-8,1.4-11.9-5.6.9-5.2,8.9-1.4,11.9Z"/>
  <path d="M864.8,970.5c1.2,1,2.8,1.3,4.3,1.2.9-.7-7.1-10.4-8.6-11.5-1-.8-1.9-1.5-3.3-1.3-.1,1,0,1.8.5,2.7.3.5,6.7,8.5,7.1,8.9Z"/>
  <path d="M330.9,971.7c2.5,1.9,9.2-7.2,10.6-9.1.9-1.3,1.7-1.8,1.3-3.7-1.9-1.9-11.8,10.5-11.9,12.8Z"/>
  <path d="M414.7,838.1c3.8-2.9,4.2-10.9-1.4-11.9-1,3.9-2.4,9.1,1.4,11.9Z"/>
  <path d="M835.2,983c-1.1-4.7-5.4-2.2-9.1-2.2-.2,1.2-2.4,1.9-1.8,3.7,4.6.6,7.7,3.5,10.9-1.5Z"/>
  <path d="M816.9,978.1c1.8,3.4,6,2.7,9.2,2.7l-.4-1.9-8.8-.9Z"/>
  <path d="M383.1,978.1l-8.8.9-.4,1.9c3.1,0,7.4.7,9.2-2.7Z"/>
  <path d="M364.8,983c3.2,5,6.4,2.1,10.9,1.5l-1.8-3.7c-3.7,0-8-2.6-9.1,2.2Z"/>
  <path d="M758.3,1033.4c.5-2.5-7.4-7.5-10.1-5.9-1.5,4.1,9.2,9.8,10.1,5.9Z"/>
  <path d="M451.7,1027.5c-2.6-1.6-10.6,3.5-10.1,5.9.8,3.9,11.6-1.8,10.1-5.9Z"/>
  <path d="M422,1094.3c-3.7,2.5-5,7.3-.8,10,4,.7,4.4-10.8.8-10Z"/>
  <path d="M777.1,1094.2c-2.3.5-2.4,10.1,1.7,10,4.2-2.6,2.9-8.7-1.7-10Z"/>
  <path d="M487.4,900.3c-.5,5.4,3.1,8.6,8.2,6.4.1-4.2-4.2-7.2-8.2-6.4Z"/>
  <path d="M704.3,906.7c5.1,2.2,8.7-1,8.2-6.4-4-.8-8.3,2.2-8.2,6.4Z"/>
  <path d="M395,973.5v-3.5c-4.2-1.7-11.3-2.6-11,3.5l1.4-1.8c2.3,3,6.3,1.6,9.6,1.8Z"/>
  <path d="M805,970.4v3.1c3.4-.2,7.3,1.2,9.7-1.8l1.4,1.8c1.7-6.1-10.5-5.2-11-3.1Z"/>
  <path d="M865.4,823.5c2.8,1.5,8.7-4.5,7.8-6.4l-2.1-1.7c-3-.8-7,5.1-5.8,8.1Z"/>
  <path d="M334.6,823.5c1.3-3-2.7-8.9-5.8-8.1-6.1,2.1,3.7,10.2,5.8,8.1Z"/>
  <path d="M778.5,877.5l6.4.9c2.3-8.9-7.2-11.9-6.4-.9Z"/>
  <path d="M415.1,878.4l6.4-.9c0-1.8.1-4.8-1.1-6.2-3.5-3.8-7.2,3.9-5.3,7.1Z"/>
  <path d="M859,742.1c1.5-3.6-7.3-9.9-9.1-8.2.1,4.8,4.6,8.2,9.1,8.2Z"/>
  <path d="M810.5,952.5l9.2.4,1.4-4.1c-2.3-2.4-10.6-.6-10.6,3.7Z"/>
  <path d="M378.9,948.8l1.4,4.1,9.2-.4c0-4.3-8.2-6.1-10.6-3.7Z"/>
  <path d="M350.1,733.9c-1.8-1.7-10.6,4.7-9.1,8.2,4.5,0,9-3.4,9.1-8.2Z"/>
  <path d="M1106.1,910.8c-1.6-.9-.9-3.9-2.7-4.1-3,7.1,2.5,15.6,6.4,5-.9-1.9-3-.6-3.7-1Z"/>
  <path d="M95.7,906.7c-.4,5-2.6,3.2-5.5,5,2.9,9,8.6,4.6,6.9-3.2-.2-.8-.3-2.1-1.4-1.8Z"/>
  <path d="M187.2,764.5c1.1-3.5-5.2-4.8-7.6-4-.9.3-1.7,1.1-1.5,2.1,2.1,3.1,6.1,4.9,9.1,1.8Z"/>
  <path d="M1014.3,765.7c3.5.9,5.6-.4,7.6-3.1.6-2.6-3.9-2.5-5.7-2.1-2.8.6-5.2,3.2-1.9,5.1Z"/>
  <path d="M232,749.3c.6-4-2.2-7.8-6.3-8.2l1.8,9.1,4.5-1Z"/>
  <path d="M972.5,750.3l1.8-9.1c-4.1.3-7,4.1-6.3,8.2l4.5,1Z"/>
  <path d="M517.7,1040.2l-1.5-2.7c-5.9,1.8,1.6,12.5,2.3,3.6l5.5.9c.2-4.9-6-1.7-6.3-1.9Z"/>
  <path d="M684.6,1037.5c-1.9-.5-1.9,2.4-2.4,2.6-.3.2-6.5-3-6.3,1.9l5.5-.9c1.3,9.6,7.3-2.8,3.2-3.6Z"/>
  <path d="M568.9,1164.7c.6,3.6,1,7.1,5.5,7.3,1.9-4.9.5-10.1-5.5-7.3Z"/>
  <path d="M625.6,1172c4.5-.1,4.9-3.7,5.5-7.3-6-2.8-7.4,2.4-5.5,7.3Z"/>
  <path d="M1068.4,843.8c-.7-1.1-5.6-2.5-7.1-2,6.6,4.8,1.9,4.3.9,10,.8.9,8-4.9,6.2-8.1Z"/>
  <path d="M52.2,671.7c2.9-.9,1.6-9.5-2.7-8.2-2.8.8-1,9.4,2.7,8.2Z"/>
  <path d="M131.9,847.3c1,2.1,7.8,7.3,5.8,2.4-.7-1.6-3.2-2.4-2.6-4.6l3.6-3.3c-3.7-.3-9.1,1-6.8,5.5Z"/>
  <path d="M1151.5,664.3c-.8-1-1.4-1.1-2.6-.8-7.2,1.9,2.4,17.2,2.6.8Z"/>
  <path d="M459.1,1032l-6,7.3-1.3,6.5c3.7-.8,3.3-4.6,4.6-7.5.6-1.3,3.9-2.6,2.7-6.2Z"/>
  <path d="M743.6,1038.3c1.4,2.9.9,6.8,4.6,7.5,1.2-5.9-4.3-8.6-5.5-13.7-5.3.3.5,5.4.8,6.2Z"/>
  <path d="M253.1,979.9c-4.6-.4-7.2,1.5-6.4,6.4,4.2.4,8.2-2,6.4-6.4Z"/>
  <path d="M831.5,1005l-1.9-1,1-4-4.5,1.5.8,7.6c3.5.7,3.3-1.9,4.6-4.2Z"/>
  <path d="M373,1009.2l.8-7.6-4.5-1.5,1,4-1.9,1c1.3,2.3,1.1,4.8,4.6,4.2Z"/>
  <path d="M953.3,986.3c.9-4.9-1.7-6.7-6.4-6.4-1.9,4.4,2.1,6.8,6.4,6.4Z"/>
  <path d="M688.3,938.8c-3.2,1.1-3.6,4.1-3.1,7.2,6.7,3.3,6.5-3.2,3.1-7.2Z"/>
  <path d="M514.8,945.9c.6-1-.1-5.1-1-6.1-.4-.5-1.6-.5-2.1-1.1-3.4,4-3.6,10.5,3.1,7.2Z"/>
  <path d="M492,846.8l-5.1-2.3c-1.3-.4-1.1,1-1.7,1.4-.8.6-1.6,1.1-2.3,1.8,2.8,3.5,7.5,3.4,9.1-.9Z"/>
  <path d="M1001.8,761.3c-1,5.9,2.6,6.5,7.3,5.5.5-4.1-4-5.8-7.3-5.5Z"/>
  <path d="M197.3,766.3l.9-5c-3.3-.4-7.8,1.4-7.3,5.5,2.3.3,4.3.9,6.4-.4Z"/>
  <path d="M716.7,847.3c-1.3,0-2.3-2.5-2.5-2.5-1.4-.7-4.5.7-5.8,1.6-.5,6.3,10.1,3.2,8.3.9Z"/>
  <path d="M277.8,923.7c-2.3-2.6-3-5.9-7.3-5-.6,4.9,3,8.9,7.3,5Z"/>
  <path d="M922.2,923.7c4.3,3.9,7.9-.2,7.3-5-4.3-.9-5,2.4-7.3,5Z"/>
  <path d="M524,881.1c-5.3-.6-6,2.9-5.5,7.3,4.2.2,6.1-3.5,5.5-7.3Z"/>
  <path d="M681.4,888.4c.5-4.4-.2-7.9-5.5-7.3-.7,3.8,1.3,7.5,5.5,7.3Z"/>
  <path d="M313.7,1126.9l.2.6c1.5.8,2.9,1.6,4.4,2.3.9-2,.8-4.8-.1-5.4-1.2-.8-4.1.9-4.4,2.5Z"/>
  <path d="M881.9,1124.4c-.9.6-1,3.4-.1,5.4,1.5-.8,2.9-1.6,4.4-2.3l.2-.6c-.3-1.6-3.2-3.3-4.4-2.5Z"/>
  <path d="M523.1,1064.1c.9-3.2-.7-3-1.4-4-1.4-2-3.1-4.3-5.9-4.2,1.4,3.6,2.5,8.9,7.3,8.2Z"/>
  <path d="M795.4,1039.4c-2,.4-3.7,7.7-.9,9.1,2.7-2,5.5-7.9.9-9.1Z"/>
  <path d="M617.4,908.1c-1.7-3.3-9.3.5-9.1,2.8.2,2.5,6.9.3,8-.7.5-.4.5-1.6,1.1-2.1Z"/>
  <path d="M403.7,1039.4c-3,.6-.8,8.1,1.8,9.1,3-1.7.9-9.7-1.8-9.1Z"/>
  <path d="M582.6,908.1c.9,4.5,12.4,5.3,8,.7-1.3-1.4-6.7-3.3-8-.7Z"/>
  <path d="M676.9,1064.1c4.8.7,5.9-4.6,7.3-8.2-1.3-1.3-9.1,5.5-7.3,8.2Z"/>
  <path d="M167.1,669.8c-4.5-.7-4.6,5-4.6,8.2,4.8.6,4.8-4.8,4.6-8.2Z"/>
  <path d="M1037.5,678.1c0-3.3,0-9-4.6-8.2-.2,3.4-.2,8.8,4.6,8.2Z"/>
  <path d="M333.7,808.9c-.2-4.6-4.5-7-2.7-11l-3.5,2.1,3.5,8.2,2.8.6Z"/>
  <path d="M866.3,808.4l2.6.4c.3-4.1,7.5-11.1,0-10.9,1.8,3.9-2.4,6.1-2.7,10.5Z"/>
  <path d="M33.7,798.8c.2.6.4,1.2.7,1.8.8,0,1.2,0,.9-1.8h-1.6Z"/>
  <path d="M1165.6,800.6c.2-.6.4-1.2.7-1.8h-1.6c-.3,1.9.1,1.8.9,1.8Z"/>
  <path d="M147.9,847.3c.6-2.7-2.1-6.1-4-7.9-.6-.6-6.6-5.1-5.2-1.7l9.1,9.6Z"/>
  <path d="M470.5,765c3.1.7,3.8-5.2,2.2-7.3-4.9-1.2-5.3,6.6-2.2,7.3Z"/>
  <path d="M1166.5,711c2.2,4.4,1.7,5.3,7.3,4.6.7-5.1-3.2-6.2-7.3-4.6Z"/>
  <path d="M26.2,715.6c5.7.8,5.1-.1,7.3-4.6-4.1-1.7-8-.5-7.3,4.6Z"/>
  <path d="M729.5,765c3-.7,2.7-8.5-2.2-7.3-1.5,2.1-.8,8,2.2,7.3Z"/>
  <path d="M153.4,923.2c1.2-2.2-.5-5.6-2.1-7-.9-.8-2.1-1.4-3.4-1.2-1.4,2.3,3.7,9.6,5.5,8.2Z"/>
  <path d="M1046.6,923.2c3.1.5,6.8-6.8,5.5-8.2-3.3-.9-7.5,6.6-5.5,8.2Z"/>
  <path d="M1052.1,847.3c1.4-.6,2.6-2.1,3.6-3.2.8-.9,6.1-7.1,5.5-7.7-1.2-1.2-11,8-9.1,11Z"/>
  <path d="M709,1080.5c1.8,0,3.5,1.7,4.5-.5l-.9-6.8h-2.7s-.9,7.3-.9,7.3Z"/>
  <path d="M487.9,1081.2l3.2-.8-.9-7.3c-3.8-2.1-4.8,7.6-2.3,8Z"/>
  <path d="M910.2,722.9c-2.9,1.5-7.7,5-4.1,8.2,3.9-1.1,4.6-4.6,4.1-8.2Z"/>
  <path d="M293.8,731.1c3.7-3.3-1.2-6.7-4.1-8.2-.5,3.6.2,7.1,4.1,8.2Z"/>
  <path d="M531.4,1085.1c-.5,3.5,1.8,6.1,2.8,9.1,3.6.3,2.9-4.3,1.5-6.1-.2-.2-4.1-3.2-4.3-3Z"/>
  <path d="M665.9,1094.2c1-3.1,3.3-5.7,2.8-9.1-3.6,1.4-8.7,7.9-2.8,9.1Z"/>
  <path d="M300.7,925c.4.4,2.9-.6,3.4-1.2,2.2-2.4,1.6-8.1-2.5-8l1.8,4.6h-2.7c0,0,0,4.6,0,4.6Z"/>
  <path d="M849.4,853.7l3.2-8.2c-4.4-.8-7.3,6.4-3.2,8.2Z"/>
  <path d="M347.4,845.5l2.8,8.2c4.7-1.7,1.8-8.8-2.8-8.2Z"/>
  <path d="M899.3,925v-4.5c0,0-2.7,0-2.7,0l1.8-4.6c-5.7.6-4.6,9.4.9,9.1Z"/>
  <path d="M241.8,990.9c-3.7,2.2,6.6,8.5,5.8-.9l-5.8.9Z"/>
  <path d="M1185.7,669.8c-1-3.3-4.1-2.6-2.7-7.3l-2.8.5-.8,5.9c3.1-1.6,3.7.3,6.4.9Z"/>
  <path d="M20.7,668.9l-1-6.3h-2.7c1.3,4.6-1.8,3.9-2.7,7.3,2.7-.6,3.3-2.5,6.4-.9Z"/>
  <path d="M958.8,990.9l-6.4-.9c-1.2,5.8,6.3,7.4,6.4.9Z"/>
  <path d="M1098.8,874.7l1.1,8.1,3.5,1.1c.7-.7-1.3-9.9-4.6-9.1Z"/>
  <path d="M96.6,883.9l3.5-1.1,1.1-8.1c-3.2-.8-5.2,8.4-4.6,9.1Z"/>
  <path d="M252.8,1065.1c-3.1,1-2.5,6.7.7,6.3,3-.5,3.6-7.6-.7-6.3Z"/>
  <path d="M945.5,1065c-2.8.9-1,6.8,1.7,6.3,3.8-.7,1.9-7.4-1.7-6.3Z"/>
  <path d="M811.4,1039l1.8-5.1c-5.6-3-8.5,6-1.8,5.1Z"/>
  <path d="M392.2,1038.4c1.7-2.4-2.1-7-5.4-4.5l1.8,5.1c.7.6,3.4-.4,3.6-.6Z"/>
  <path d="M96.6,637.8c-1.1-1.1-8,1.6-7.3,4.6,3.6.4,7.7.2,7.3-4.6Z"/>
  <path d="M290.6,807.9l3.8-6.3c-4.1-.6-7.2.9-6.3,5.4l2.5,1Z"/>
  <path d="M1110.7,642.4c.7-3-6.2-5.6-7.3-4.6-.4,4.7,3.7,4.9,7.3,4.6Z"/>
  <path d="M905.7,801.5l3.8,6.3,2.5-1c.9-4.4-2.2-6-6.3-5.4Z"/>
  <path d="M944.7,942.5c-1.7.5-2.2,3-.6,4.1l5.5-1c-.2-2.3-2.8-3.7-4.9-3.1Z"/>
  <path d="M400.5,999.1l-6.4-.9c.9,3.9,5.5,4,5.5,8.2,2-.8.4-5.5.9-7.3Z"/>
  <path d="M314.4,910.4c-4.5-1.2-3.9,4.9-1.3,7.3l2.4-1.5-1-5.7Z"/>
  <path d="M314.9,1016.5c3-.6-1.5-8.1-4.1-7.3-1,2.3,1.7,7.8,4.1,7.3Z"/>
  <path d="M889.2,1009.2c-2.6-.8-7.1,6.7-4.1,7.3,2.4.5,5.1-5,4.1-7.3Z"/>
  <polygon points="799.5 999.1 799.5 1006.4 805.9 998.2 799.5 999.1"/>
  <path d="M252.9,942.6c-1,.3-2.7,1.9-2.5,3l5.5,1,.9-2.8c-1-1.5-2.2-1.7-3.9-1.2Z"/>
  <path d="M888.2,910.4l-2.8.5c-3.5,9.5,5.5,7.9,2.8-.5Z"/>
  <path d="M1189.2,709.3c-5.4-3.2-5.6,3.7-1.2,6.3.6-.4.9-.8,1.1-1.3,0-.3.1-.6.2-1,0-1.3-.4-2.7,0-4Z"/>
  <path d="M657.6,829.8c3.4-9.2-4.2-10.1-2.7,0h2.7Z"/>
  <path d="M545.1,829.9c1.6-9.5-5.8-9.8-2.8-.5l2.8.5Z"/>
  <path d="M338.7,997.3c1.6,0,3.5-9.7-1.4-9.1.4,2.9-1.2,6.9,1.4,9.1Z"/>
  <path d="M1053.6,898.5c.3-2.1-1.7-3.5-1.5-5.5-1.5.3-2.2,4.3-2.3,5.5,0,.8.2,3.4.5,3.7,1.5,1.2,3.1-2.4,3.3-3.6Z"/>
  <path d="M861.3,997.3c2.5-2.2,1-6.2,1.4-9.1-4.9-.6-3,9.1-1.4,9.1Z"/>
  <path d="M147.9,893c.2,2-1.8,3.4-1.5,5.5.2,1.2,1.9,4.8,3.3,3.6.3-.3.6-2.8.5-3.7-.1-1.1-.9-5.2-2.3-5.5Z"/>
  <path d="M14.3,708.2c-1.9-1.4-3.7,1.6-3.7,4.2.1.6.2,1.1.3,1.7.2.6.6,1,1.1,1.4,2.4-1,4.3-5.9,2.3-7.3Z"/>
  <path d="M46.3,818.9c-1.7,0-1.9-.4-1.9,1.4.1,3.5,2.7,7.3,6.5,5.5l.9-2.3-4.6-.4-.9-4.2Z"/>
  <path d="M692.9,1104.3c-2.3.5-3.9,7.8,1.3,6.4.8-1.4,1.8-7.1-1.3-6.4Z"/>
  <path d="M507.1,1104.3c-3.1-.7-2.2,4.9-1.3,6.4,5.2,1.4,3.6-5.9,1.3-6.4Z"/>
  <path d="M1152.9,823.1l-4.6.4c1.8,6.6,8.4.5,7.3-4.6l-2.7,4.2Z"/>
  <path d="M140.6,731.6l-4.1-3.2c-5.4,5.8,4.9,7.2,4.1,3.2Z"/>
  <path d="M395,1144.6c-1.2,2.8-.6,7.6,3.6,5.4.5-2.9.2-6.1-3.6-5.4Z"/>
  <path d="M802.2,1145c-3.7,7.9,5.6,7.4,2.8-.4l-2.8.4Z"/>
  <path d="M1063.6,728.4l-4.1,3.2c-.8,4,9.5,2.6,4.1-3.2Z"/>
  <path d="M913,888.4v-2.7c-9.3-2.8-8.4,5.7,0,2.7Z"/>
  <path d="M293.4,888.4c.5-.7-.1-3.3-1.4-3.5l-5,.8v2.7c1.3.9,5.8.9,6.4,0Z"/>
  <path d="M420.6,1048.1l-1.1-2.2c-8.2-2.6-5.2,5-1.3,4.5.2,0,1.3-2.2,2.4-2.3Z"/>
  <path d="M932.2,911.3c-5.1-.8-10.1,4.5-2.4,4.5l2.4-4.5Z"/>
  <path d="M336.4,746.7l-.9-8.2-2.7,2.2c.5,2.3,1.2,5,3.6,6Z"/>
  <path d="M1013.2,1001.8c2.2-1.9,2.5-4.6,2.3-7.3l-2.8.5c-.7,2.2-1.9,5,.5,6.8Z"/>
  <path d="M186.8,1001.8c2.3-.8,1.1-6.8.4-7.2-4-2.5-3.1,5.5-.4,7.2Z"/>
  <path d="M267.8,911.3l2.4,4.5c7.7,0,2.7-5.3-2.4-4.5Z"/>
  <path d="M108.5,833.6l1,5.3h3.5c.5-3-1.1-5.8-4.6-5.3Z"/>
  <path d="M865.9,738.4c-2.5-1.2-2.5,7.2-2.3,8.2,2.5-.8,5.2-6.9,2.3-8.2Z"/>
  <path d="M739.1,1071.4c3.8-1.6,2.7-5.7,2.7-9.1-4-.2-2.5,6.7-2.7,9.1Z"/>
  <path d="M458.1,1063.6c-.4,2.8-.4,6.6,2.7,7.8l-.9-9.1c-1.4-1.3-1.6,0-1.8,1.4Z"/>
  <path d="M1086.9,839h3.5c0-.1,1-5.5,1-5.5-3.5-.5-5.1,2.4-4.6,5.5Z"/>
  <path d="M783.4,1050.3c1.1-.5,3-4,2.4-4.5h-4.9c-2.9,1.3.4,5.4,2.5,4.5Z"/>
  <path d="M665.9,854.6l-1.5-2.6-5.8-.2v2.7c2.6,0,4.8,1.1,7.3,0Z"/>
  <path d="M541.4,854.6v-2.7c-2.7.1-7.4-1.2-7.3,2.7,2.6,1.1,4.7,0,7.3,0Z"/>
</svg>