<?xml version="1.0" encoding="UTF-8"?>
<svg id="Layer_1" xmlns="http://www.w3.org/2000/svg" version="1.1" viewBox="0 0 1200 1200">
  <!-- Generator: Adobe Illustrator 29.0.0, SVG Export Plug-In . SVG Version: 2.1.0 Build 186)  -->
  <path d="M1182.7,743.5h.2v-.2c0,0-.2,0-.2.2Z"/>
  <path d="M1164.7,757.9c-.2-1.6,3.9-3.8,4.5-5.3,1.1-2.5,0-5.4.4-7.7.2-.7,3.2-.4.9-3.6-.8-1-2.1-.4-2.3-.6-3.3-3.1-5.5-5-8.9-8-2.9-2.5-3.1-6-7.4-5.8-7.4.4-1.4,14.5.5,18.4,2.3,4.5,5.2,8.6,9.7,11l-10.2,2.2c-9.5,3.5-8.9,15.2-5.6,23-17.3-3.5-14.5,8.7-3.6,16.4,6.7,4.7,9.1,3.4,14.8,5.4.9.3,1.8,3.4,4.8,2.8.8-1.1,1.4-1.9,2-2.5,4.3-11.8,8.1-23.7,11.7-35.8-3.1-4.4-5.6-7.7-11.3-9.9Z"/>
  <path d="M1144.1,853.1h.1c.4-.8.7-1.5,1-2.3-.4,0-.8-.2-1.3-.4.4,1,.4,1.9.2,2.7Z"/>
  <path d="M1131.1,862.4h-.4c-2.8,1.9-6.2,6.2-8.9,7.7-4.1,2.3-9.8,2.8-13.3,6.7l-10.2-2.4,7.6-3.3,1.5-2.4c-3.7-1.2-8,2.1-11.1,1.6-1.2-.2-9-2.8-10.6-3.4-1.1-.4-1-2.6-4.4-2.5-2.6,0-3,2.1-4.2,2.4-1.5.3-10.9-3-14.9-2.7-.9,0-7.4,1.7-8.3,2.1-1.6.8-7.2,7.4-7.7,8.9-.6,2.1.2,4.4-.2,6.4-.6,2.9-2.6,6.3-2.8,9.4,0,2.6,3.3,9.8,5.4,11.2.7.5,12.1,4.5,12.8,4.5,2.2,0,10.4-2,12.5-3.2,5.7-3.2,5.3-5.6,7.9-10.1.5-.9,1.7-1,2.3-2.1,2.5-4.7,3.4-13.9,10-14.8,1.2-.2,8.4,4.1,10,5l-5.8,1.6,4.1,2.9c-2.8.5-11.8-4.6-13.2-1.2-.7,1.7,0,1.7,1,2.3,2.1,1.3,9.6,2.9,10.2,3.9.5,7.5-8.5,5.6-13.8,7.1-6.9,2-6.1,5.2-9.9,9.1-3.4,3.5-9.8,9.3-13.6,12.9-3.5,3.2-9.4,5.9-12.6,9.4-2.7,2.9-3.1,6.7-5.3,9.2-.8.9-9.9,7.9-10.8,8.2-3.1,1-6.3,0-9.8,1-3.2.9-6.1,4.4-8,5.2-2.5,1.1.3-4.4-2.9-3.3-.9,4.2-.3,6.9-5.4,7.5-1.3-5.7-5.1-9.8-11.2-7.5-.3-1.6-.9-4.1-2.9-4.1-2.1.4-1.9,12.6-1,15.1.3,1,4.7,5.5,1,6.4-2.3.6-3.3-2.9-4.4-3.8-2.8-2.1-7.3-4.1-10.6-5.1-1.3-.4-3.2.2-4.2-.4-.5-.3-1-2.8-2.2-3-3.1-.4-1.2,6-5,4.8-1.7-.5-1.3-4.3-1.3-5.8h5.8c-1.1-2.5.5-4.7-.6-7.2-.8-1.8-3-2.9-3.9-4.4-1.2-2.2-.2-4.8-3.4-5.7l.4,4.1c-4.3,1.3-5.5-2.3-9.1-2.5-2.3,4.6,4,9.5,4.1,12,0,3-2.8,4.6-.7,9.9,1,2.5,3.4,3,3.3,3.4,0,2.5-3.3,5.6-3.3,5.9-.4,1.6.2,3.5,0,5.2-1.3.3-.8-1.5-1.6-2.1-4-2.7-8.8,4.1-3,3.8,1.5,0,3.1-1.9,3.8-1.3,1.8,2,1.4,6.1,2.5,8.1.6,1.1,2.8,1.1,2.5,2.7-.7,3.4-7.9-1.7-9.9.4l-.4-3.3c-1.4,0-5.9,2-7,2.9-2.4,2-10.8,9-12.5,11-5.5,6.9-9.9,10.8-15.8,17.1-1.9,2.1-5.5,8.2-7.5,9.1-4.1,1.8-10.2,1.2-15.9,4-5.2,2.6-9.9,8.8-15.6,8.5,3.2-2.9,10.7-6.9,5.8-11.6-8.8-1-9.6,7.4-15.4,11.2l2.1,4.2c-1.9.4-2.4-1.8-3.9-2.3-4-1.2-7.3.6-7.7,4.8l3.3.8-6.2,1.7c-.4-1.8,1.4-4.4,1-6.1,0-.5-6-7.3-6.4-7.5-2.1-1.2-13.3-2.3-16.1-2.1-13.4,1.1-18.9,9-17,22-.3,2.5-5.3-4.3-4.2-6.2h-3.3c-.3-1.9,1.7-2.3,2.3-4,.8-2.3,2.5-9.5,1.1-11.5-.2-.3-4.8-4.7-5-4.9-2.8-1.9-7.5-2.6-10.5-4.3-1.3-.7-1.4-2.4-2.4-2.7-1.2-.4-11.9,1.2-14,1.6l-.8-1.6,1.2-2.8-2.4-1.9c-5.6,1.6-4.5,4.4-6.2,7.9-.7,1.4-3.6,3.4-4.9,5.1-5.2,7.2-1.7,12.5,1.2,19.8-4.4-.7-7.6-3.5-12.4-2.5l5.8-6.6c-5.3-1.2-8.4-.8-12,3.3-.9,1-1,2.9-2.1,3.7-1,.6-2.7.5-3.9,1.1-5,2.3-1.4,8.1,1.4,10.9-2.4.2-4,2.7-4.1,5,2.7.7,1.2-2.1,2.4-2.9,1.5-1,6.7-.5,8.3.9-1.6,1.7-5.1,1.5-5,4.6,3.3,0,7.3,0,5.8-4.1l7.9,3.3c1.7-4.2,5.1-6,9.5-6.6-1.2-3-.6-5.2,0-8.3,7.1,5.5,14.3,8.3,22.8,3.3l1.3,2.5-6.5,1.8v4.1c-6.6-.8-12,3.5-18.3,1.6,1.1,5-5,8.8-9.5,6.6l-1.1,1.2.7,2.9c-7.1-1-13.5-4.9-20.5-6.4-5.1-1.1-8.8-.4-13.8-1.1-2.9-.4-6.7.6-8.3-.8-4-3.3-.7-4.1-.5-4.8,2.3-6.1-2.3-3.6-1.2-7.7,1-3.7,3.5-5.2,7.1-5.8l-3.3-.8c0-5.1,1.2-10.2.9-15.4-.2-3.3-2.1-8.3-2.2-10.7,0-2.3,2.5-4.5,2.1-7l-3.7,1.7c-4.8-7.3-10.4-11.2-18.9-6.7-1.3.7.5,3.2-2.2,2.5,1.3-4.5-1.6-25.4-6.3-26.3-4.8-.9-6.1,6.9-6.7,10.4-.2,1.2-1.1,9.2-1,9.6.4,1.3,2.3,1,3,1.6,2.1,1.7,2.7,7.5,9.2,6.6,1.7,1.2-1.3,6.5-1.4,8.7-.2,2.9,1.3,4.9.4,7.8-.7,2.4-2.1,1.1-3,2.1-2.3,2.7-1.9,10.6-1,14l-3.6,1.3-2-1.7c-2.3,7.6-2.7,12.5,1.6,19.6l-1.6,1.6,1.7.9-.9,4.5-2.5-2.5c.8,3.2,1,4.6-1,7.4l-3.2-.7c-.8,2.2,1.5,1.3,1.7,2.2.8,4.1,0,8.1,3.3,12.2-.3,1.4-14.8,6.1-16.9,12.1-2.5,7,8.6,3.6,12,2,1.2-.6,6-4.3,6.6-3.7-.9,2.4,2.5,3.3,2.6,3.9.2,1.4-1.4,6.1,0,8.4.3.4,8.2,4.1,8.7,4.1,3.1.4,9.5-2,11.4-2s2.5,1.8,4.1,1.3c1.4-.4.9-2.6,1.9-3.4.9-.7,11.3-3.7,12.7-3.7s3.8,3,5.8,3.3c-.3.5-5,3.3-6.1,3.9-11,5.6-21.2,3.2-33.3,3.1-1.6,0-4,.9-4.8.7-1.1-.2-2-2.2-2.6-2.2s-6.7,3.4-7,3.7c-1.2.9-4,5.8-4,7.3s1.2,2.3,1,4c-.2,2.3-2.8,4.1-1.7,6.5.2.3,4.6,5.7,4.9,5.9,1.8,1.1,6.4,1.6,9,2.5.6.2.6,1.6,1.1,1.6,3.3,0,4.4.6,6.5.7,1.7,0,9.9-1.1,11.4-1.8.3-.2,5.9-3.9,6.2-4.2,2.6-2.5,4.8-9.1,6.4-10.6,1.2-1,4-1.2,5-3.3,1.9,1.4,1.6,4.1,4.6,3.3,1.1-6.5-5.4-8.7-1.2-14.9,1.6-2.4,7.8-3.4,7.7-8,6.5.2,13,1.4,19.4.4,2.7-.4,9.8-2.3,12.3-3.3.7-.3,4.7-4.7,4.8-5.7h1.6l.5,1.7,2.1-1.3c-1.9-2.6-1.8-5.3.4-7.8,3.1,1.2,5,4.1,7.9,3.7l.8.8-.8,3.3,5,.4-8.7,5.9-3.4.6c-2.7,14,13.5,2.2,17.4,2.5.4,0,2.5,5.2,6.3,3.4-1.1-1.6-2-2.2-.8-4.1l-3.3-.4c4.1-2.1,7-5,10.5-7.7,2.9-2.2,4-3,6.9-5.5,8.7-7.7,4.8-.9,6.7.5,2.2-.6,4.3-1.6,6.4-2.3,4.5-1.4,8.2-1.8,12.9-2.9,2.1-.5,4.1-2,6-2.2,2.3-.3,6.7,1,7,.8.2-.2-.5-1.9.5-2.6.3-.2,6.2-2.5,6.5-2.5.5,0,.5,1.4,1,1.7,4.9,2.6,16.2,5.5,13.5-3.3l4.1-1.7c-1.7,5.8,1.3,9.2,7.2,9.6.7,0,5.5-1.5,4.4.7-1.8,2.2-5.8,3.1-7.5,4.9-2.3,2.6-.3,6-4.5,6.2v1.7c7.6,2.4,16.6,5.6,24.2,1,3.3-2,3-5.3,1.3-8.3-.8-1.3-1.7-1.4-2.4-2.2-.4-.5,0-1.8-.3-2-.6-.6-6,.3-6.5-2.6l12.4.8-1.7-4.1c8.6-2,16.5-7.9,18.2-16.9-2.5-1.7-3.5-4.9-6.1-6.5-4.4-2.8-10.5-3.4-15.5-4.7.2-2.3,4.4-3.1,4.8-3.5.5-.6,0-2.2.6-3.1,5-8.3,10.5-7.6,18.1-10.9,8.6-3.7,17.3-8.3,25.7-12.4,3.9-1.9,6.3-5.8,10.5-5.7-2.7,3.3-6.6,4.5-8.1,8.9-.8,2.5-1.9,9.3.8,10.8,1,.6,8.3,1.1,10,.8,3.8-.6,7.6-3.9,11-5.6l5.4,13.6c-12.3,2.5-.8,11.9.8.4,2.8,3.6,7.2-1.5,8.7-1.4.6,0,2.6,1.5,4.7,2.3,1.2-1.1,2.5-2.2,3.7-3.3v-1.7c0,0-4.7-2.1-4.7-2.1.7-2.7,2.6-4.6,3.5-7.3,1-3.1,1-15.5,4.4-14.6,2.2,2.4,2.6,5.3,6.6,4.9,1.9-.2,6.6-3.5,7.5-5,.3-.6,2.9-11.1,2.9-12.1,0-3.5-1.8-8.4-2.4-11.9,6.7-2.4,2.3,10.9,5.4,11.6,3.7.8,1-6.3,1.2-6.6,2.6,2.5,4.3,1.3,7.4.8l4.1,9s0,0,0,0c0,0,0,0,0,0h0c0,.1.2.1.3,0,.3-.3.6-.6.9-1,1.6-3.1.3-11.6-.6-12.8-4.5-2.2-9.8-4.4-14.2-1.1l-1.3-4.1c4.6.9,4.6-2.2,6.6-3.7,2.5-1.8,6.1-1.7,8.7-4.5,3.4-3.6,7.2-17.1,9.8-19.2,1.4-1.2,7.2-2,9.9-3.4,3.8-2,8.9-8.8,11.2-9.7,9.9-4,13.8,1.7,23.4-8.8,2.6-2.9,5.5-6.4,8.3-9.8,17.2-25.5,32.5-52.4,45.7-80.4-2.6,3.5-9.4,5.4-12.5,7.4Z"/>
  <path d="M1143.4,833c-1,3.7,5.2,2.5,7.9,4.1,1.2-2.7,2.3-5.5,3.5-8.3-5.3-.2-10.5.8-11.4,4.2Z"/>
  <path d="M57.4,833c-1-3.6-6.7-4.4-12.2-4.2,1.2,2.9,2.4,5.8,3.7,8.7,2.1-2.3,9.6-.5,8.5-4.5Z"/>
  <path d="M506.3,1146.7c2.8-.4,2.4-.6,5.9-.7.5,0,.5-1.4,1.1-1.6,2.7-1,7.5-1.4,9.4-2.9.6-.5,4.9-6.1,4.9-6.7,0-1.5-1.9-3.5-2.1-5.3-.2-1.8,1.3-3,.9-5.1-.2-1-3-5.5-3.9-6.1-.3-.2-6.6-3.7-7-3.7-.6,0-1.5,2-2.6,2.2-.8.2-3.2-.7-4.8-.7-12.1,0-22.4,2.5-33.3-3.1-1-.5-5.8-3.3-6.1-3.9,2.1-.4,4.2-3.3,5.8-3.3s11.8,3,12.7,3.7c1,.7.5,3,1.9,3.4,1.5.5,3-1.3,4.1-1.3,2,0,8.3,2.4,11.4,2,.5,0,8.5-3.7,8.7-4.1,1.5-2.3,0-7,0-8.4,0-.6,3.5-1.4,2.6-3.9.6-.6,5.4,3.2,6.6,3.7,3.4,1.5,14.5,5,12-2-2.2-6-16.6-10.7-16.9-12.1,3.3-4.1,2.5-8.1,3.3-12.2.2-.8,2.5,0,1.7-2.2l-3.2.7c-1.9-2.8-1.7-4.2-1-7.4l-2.5,2.5-.9-4.5,1.7-1.3-1.7-.4c.7-2.7,3.4-6.9,3.7-9.4.5-3.7-2-7.2-2-10.9l-1.3,1.7-4.1-.8c.5-3.7,1.4-11.5-1.1-14.4-.7-.8-2.1-.3-2.6-1-1.8-2.4,0-5.6,0-8.2,0-2.6-2.9-7.6-1.8-9.1,1.8-1,3.9-.7,5.8-1.8,2.5-1.5,2.6-4.3,3.6-5.1.7-.6,2.6-.2,3-1.6,0-.5-.8-8.4-1-9.6-.6-3.4-1.9-11.3-6.7-10.4-4.7.9-7.7,21.8-6.3,26.3-2.7.7-.9-1.8-2.2-2.5-8.6-4.6-14.2-.7-18.9,6.7l-3.7-1.7c-.4,2.5,2.1,4.8,2.1,7s-1.9,7.4-2.2,10.7c-.4,5.2.8,10.2.9,15.4l-3.3.8c3.7.5,6.2,2,7.1,5.8,1.1,4.1-3.6,1.6-1.2,7.7.2.6,3.5,1.5-.5,4.8-1.6,1.3-5.4.3-8.3.8-5,.7-8.7,0-13.8,1.1-7.1,1.5-13.5,5.4-20.5,6.4l.7-2.9c-1.3-2.5-3.7,0-5.9-.5-1.9-.5-6.3-4.8-4.7-7.3-6.3,1.8-11.7-2.5-18.2-1.6v-4.1l-6.6-1.8,1.3-2.5c8.5,5,15.6,2.2,22.8-3.3.7,3,1.2,5.3,0,8.3,4.5.6,7.8,2.4,9.5,6.6l7.9-3.3.5,3.4,5.3.8c.2-3.1-3.4-2.9-5-4.6,1.6-1.3,6.8-1.9,8.3-.9,1.2.8-.2,3.6,2.4,2.9,0-2.3-1.7-4.7-4.1-5,2.8-2.8,6.4-8.6,1.4-10.9-1.2-.6-2.9-.4-3.9-1.1-1.2-.8-1.3-2.7-2.1-3.7-3.6-4.1-6.7-4.5-12-3.3l5.8,6.6c-4.8-1-8,1.7-12.4,2.5,2.9-7.3,6.4-12.6,1.2-19.8-1.2-1.7-4.2-3.7-4.9-5.1-1.7-3.5-.6-6.3-6.2-7.9l-2.4,1.9,1.2,2.8c.9,2.4-2.4.8-3.3.8-2.1,0-11-.9-11.5-.7-1,.3-1.1,2-2.4,2.7-3,1.7-7.8,2.4-10.5,4.3-.3.2-4.8,4.6-5,4.9-1.4,1.9.3,9.2,1.1,11.5.6,1.6,2.5,2,2.3,3.9h-3.3l-2.5,6.6-1.6-.4c1.9-13-3.6-20.9-17-22-2.8-.2-14,.9-16.1,2.1-.4.2-6.3,7.1-6.4,7.5-.3,1.7,1.5,4.3,1,6.1l-6.2-1.7,3.3-.8c-.4-4.2-3.7-6-7.7-4.8-1.5.5-2,2.7-3.9,2.3l2.1-4.2c-5.8-3.8-6.6-12.2-15.4-11.2-4.9,4.7,2.6,8.8,5.8,11.6-5.7.3-10.3-5.9-15.6-8.5-5.7-2.8-11.8-2.2-15.9-4-2-.9-5.6-7-7.5-9.1-5.8-6.4-10.2-10.2-15.8-17.1-1.6-2-10-9-12.5-11-1.1-.9-5.6-3.1-7-2.9l-.4,3.3c-2-2.2-9.2,3-9.9-.4-.3-1.6,1.8-1.5,2.5-2.7,1-1.8.9-6.9,2.5-8.1,11,4.4,5.6-5.7.8-2.5-.8.5-.3,2.3-1.6,2.1,1.9-4.5-3.3-7.7-3.4-11.1,0-.3,2.4-.9,3.3-3.4,2.1-5.3-.9-6.9-.7-9.9.1-2.5,6.3-7.3,4.1-12-3.6.2-4.8,3.8-9.1,2.5l.4-4.1c-3.2,1-2.2,3.6-3.4,5.7-.9,1.6-3.1,2.6-3.9,4.4-1.1,2.5.5,4.7-.6,7.2h5.8c0,1.5.5,5.3-1.3,5.8-3.4,1.1-2.5-3.1-3-4-2-2.9-3.9,2-4.2,2.1-1,.5-2.9,0-4.2.4-3.4,1-7.8,3-10.6,5.1-1.1.8-2.1,4.3-4.4,3.8-3.7-.9.6-5.4,1-6.4.9-2.5,1-14.7-1-15.1-2,0-2.6,2.6-2.9,4.1-6.1-2.3-9.8,1.8-11.2,7.5-5.1-.6-4.4-3.3-5.4-7.5-3.1-1.1-.4,4.4-2.9,3.3-1.9-.8-4.8-4.3-8-5.2-3.4-1-6.7,0-9.8-1-.9-.3-10-7.3-10.8-8.2-2.2-2.5-2.6-6.3-5.3-9.2-3.2-3.4-9.1-6.1-12.6-9.4-3.9-3.6-10.2-9.4-13.6-12.9-3.8-3.9-3-7.2-9.9-9.1-5.3-1.5-14.2.4-13.8-7.1.6-.9,8.2-2.6,10.2-3.9,1-.6,1.8-.5,1-2.3-1.4-3.4-10.4,1.7-13.2,1.2l4.1-2.9-5.8-1.6c1.7-1,8.8-5.2,10-5,6.7.9,7.6,10,10,14.8.5,1,1.7,1.2,2.3,2.1,2.6,4.6,2.2,6.9,7.9,10.1,2.1,1.2,10.3,3.2,12.5,3.2s12.1-4.1,12.8-4.5c2.1-1.5,5.5-8.6,5.4-11.2-.2-3.2-2.2-6.5-2.8-9.4-.4-2,.4-4.3-.2-6.4-.4-1.5-6-8.1-7.7-8.9-.9-.4-7.4-2-8.3-2.1-3.9-.2-13.3,3.1-14.9,2.7-1.2-.3-1.6-2.3-4.2-2.4-3.4,0-3.3,2-4.4,2.5-1.6.6-9.4,3.2-10.6,3.4-3.1.4-7.4-2.9-11.1-1.6l1.5,2.4,7.6,3.3-10.2,2.4c-3.5-3.9-9.2-4.4-13.3-6.7-2.7-1.5-6.1-5.8-8.9-7.6-4.3-2.8-15.6-5.4-13.2-12.1-.9.5-1.5.5-2.1.4,12.9,27.9,27.8,54.7,44.6,80.1,4.1,4.6,8.3,10.1,12.2,14.4,9.6,10.5,13.5,4.8,23.4,8.8,2.2.9,7.3,7.7,11.2,9.7,2.6,1.4,8.4,2.2,9.9,3.4,2.6,2.1,6.5,15.5,9.8,19.2,2.7,2.8,6.2,2.7,8.7,4.5,2.1,1.5,2.1,4.6,6.6,3.7l-1.3,4.1c-4.5-3.3-9.8-1.1-14.2,1.1-1.1,1.3-2.6,13.1.6,13.8.3-3.7,4.5-5.2,4.2-9.1,3.1.4,4.8,1.7,7.4-.8.2.3-2.5,7.4,1.2,6.6,2.1-.4,1-9,2-11.1l3.4-.5c-.6,3.6-2.5,8.4-2.4,11.9,0,.9,2.6,11.5,2.9,12.1.8,1.5,5.6,4.8,7.5,5,4,.4,4.4-2.5,6.6-4.9,3.4-.8,3.4,11.5,4.4,14.6.9,2.7,2.7,4.6,3.5,7.3l-4.6,2.1-.2,2.4c1,.9,2.1,1.8,3.2,2.8,2.4-.6,4.7-2.4,5.3-2.4,1.5,0,5.6,4.7,8.4,1.7.3,5.4,7.3,8.1,5.9.9l-5.1-1.8,5.4-13.6c3.3,1.7,7.2,5,11,5.6,1.6.3,8.9-.3,10-.8,2.7-1.5,1.6-8.3.8-10.8-1.5-4.4-5.4-5.6-8.1-8.9,4.2-.2,6.6,3.8,10.5,5.7,8.4,4.1,17.1,8.7,25.7,12.4,7.6,3.3,13.1,2.6,18.1,10.9.5.9.2,2.5.6,3.1.3.4,4.6,1.1,4.8,3.5-5,1.3-11.1,2-15.5,4.7-2.6,1.6-3.6,4.9-6.1,6.5,1.8,9,9.6,14.9,18.2,16.9l-1.7,4.1,12.4-.8c-.6,2.9-5.9,2.1-6.5,2.6-.3.2,0,1.6-.3,2-.6.7-1.7.8-2.1,1.6-1.6,2.7-2.7,6.4.4,8.5,7.2,4.9,17.2,1.7,24.8-.7v-1.7c-4.3-.2-2.2-3.6-4.5-6.2-1.7-1.9-5.7-2.8-7.5-4.9-1.1-2.2,3.7-.7,4.4-.7,5.9-.4,8.9-3.8,7.2-9.6l4.1,1.7c-2.7,8.8,8.7,5.8,13.5,3.3.6-.3.5-1.7,1-1.7s6.2,2.2,6.5,2.5c.9.7.3,2.4.5,2.6.2.3,4.7-1.1,7-.8,5.2.8,14,3.6,18.9,5.1,2.1.7,4.2,1.7,6.4,2.3.5-6.9,3.3-3.4,6.7-.5,2.9,2.6,4,3.3,6.9,5.5,3.5,2.7,6.4,5.7,10.5,7.7l-3.3.4c1.2,2,.2,2.5-.8,4.1,3.8,1.9,5.9-3.3,6.3-3.4,3.8-.3,20.1,11.5,17.4-2.5l-3.4-.6-8.7-5.9,5-.4-.8-3.3.8-.8c2.9.4,4.8-2.5,7.9-3.7,2.2,2.5,2.3,5.2.4,7.8l2.1,1.3.5-1.6h1.6c.1.9,4.2,5.4,4.8,5.6,2.5,1,9.6,2.9,12.3,3.3,6.5,1,13-.2,19.4-.4,0,4.5,6.1,5.6,7.7,8,4.2,6.2-2.3,8.4-1.2,14.9,3,.8,2.6-1.9,4.6-3.3,1,2,3.8,2.2,5,3.3,1.6,1.4,3.8,8,6.4,10.6.2.2,5.3,3.8,5.6,3.9,1.6.9,11,2.2,12.6,2Z"/>
  <path d="M65.4,782.4c-3.6-2.1-7.1-2-11-.8,3.4-7.8,4-19.5-5.6-23l-10.2-2.2c4.5-2.4,7.5-6.5,9.7-11,1.7-3.3,6.1-14.7,3.3-17.4-5.9-3.5-7.2,2.2-11,5.6-2.7,2.4-7.1,5.4-9.5,7.2-4.1,3,0,3.7,0,4.2.5,2.1-.5,4.9.2,7.1.6,2,5.9,4.5,4.4,6.4-6.1,1.7-8.4,5.8-11.7,10.5,3.3,11.4,7,22.6,10.9,33.6,1.7,1,1.9,5.5,6.2,3.1h.2c4.3-2.5,3.5-1.5,8.1-3,6.7-2.2,21.3-11.9,16-20.3Z"/>
  <path d="M565.9,972.7v.2c3.6-2.8,6.8-1.7,9.6-2.9,1.7-.7,3-4,4.7-5.3,4.4-3.3,7.5-3.4,11.8-8.9.6-.8.8-2.7,1-2.8.5-.4,7.1,2.9,6.6-.8h1.2c.5,3.7,6.4.3,7,.8,0,0,.3,2,1,2.8,4.3,5.5,7.4,5.6,11.8,8.9,1.6,1.2,2.9,4.5,4.7,5.3,2.8,1.2,6,0,9.5,2.9,2.1,1.6,2.8,4.7,5.4,5.8-1.1-6.1-7-11.3-8.9-17.2-3.4-10.7-.9-22.6-8.6-32.8-3.6-4.7-7.9-6.5-13.5-7.9-.3,0-4.3,5-4.5,5.4-.4,1.5-.4,14-.2,16.4.2,2.1.9,4.2,1.7,6.2-4.6,1.5-7,1.5-11.6,0,1.6-3.8,2.7-20,1.2-23.2,0-.3-3.9-4.8-4.2-4.9-14,2.7-17.5,13.7-20,26.2-.9,4.7-.7,10-2.2,14.4-1.9,5.9-7.8,11.1-8.9,17.2,2.6-1.1,3.3-4.2,5.4-5.8Z"/>
  <path d="M12.2,668.3h0c1.1-1.8,6-11.9,6.7-12.4.3-.2,1.3.6,1.8.4,2.9-1,4.7-6.2,3.5-8.8-.5-1.1-2.2-1.8-3-3.7-2-5-.6-4.3-4-9.4-.7-1-2.2-4.7-2.7-5-.6-.4-6.3,0-7.4.3-2.6.8-4.4,3-6.1,5.3,1,16.7,2.6,33.3,4.9,49.6.3-4.9.8-9.4,3.9-14.3.6-.9,1.9-1.2,2.4-2Z"/>
  <path d="M1186.4,629.4h0c-.5.3-2,4-2.7,5-3.5,5.1-2.1,4.4-4,9.4-1.5,3.8-5.8,3.9-2.1,10.2,2.1,3.5,4,1.7,4.4,1.9,1,.6,10.9,17.8,11.3,18.9.7,2.1,1.1,4.1,1.3,6.2,2.1-15.5,3.6-31.3,4.5-47.2-.5-.7-1.1-1.4-1.5-1.8-2-1.8-8.9-3.9-11.2-2.6Z"/>
  <path d="M796.9,975.9h0c-1.6,3.4-1,6.2-1.8,8.8-.3,1.1-6,2.9-4.1,7.2h-4.1c-.7,2.7,3.9,5.8,3.9,7.9s-6,5.4-5.5,8.7c3.9-.8,5.7-4.9,7.8-6.6,10.4-8.6,17.2-6.7,28.6-11.2,5.9-2.3,12-7.1,14.2-13.2.4-1.2,1-10.3.5-11-.2-.3-4.6-3.5-5-3.7-3.1-1.4-4.3.2-6.8.2-12.2.2-21.9.5-27.7,12.9Z"/>
  <path d="M364.3,967c-1.3,4.5,1.5,13.2,4.5,16.8,8.7,10.5,24.4,7.7,34.1,14.3,2.3,1.6,5.6,5.7,7.8,7.5.6.5,4.7,3.2,4.9,2.9.5-3.3-5.5-6.2-5.5-8.7s4.6-5.1,3.9-7.9h0c0,.1-4.1.1-4.1.1,1.9-4.4-3.8-6.1-4.1-7.2-.8-2.6-.2-5.5-1.8-8.8-.3-.7-4.7-7.4-5.1-7.7-1.1-1.1-9.4-4.7-11.2-5-1.7-.3-15.9-1.1-17-.9-.9.2-6.3,4.2-6.4,4.6Z"/>
  <path d="M825.9,1152.3h0c-3,3.7-9.6,5.9-12.4,8.3-.2.2-.4.4-.6.6,5.5-2.1,10.9-4.2,16.3-6.5l1.7-9.5c-3.2,1.1-3.1,4.9-4.9,7.1Z"/>
  <path d="M375.5,1152.7h0c-2.2-2.3-2.1-6.1-5.4-7.5l1.7,9.9c5.5,2.2,11,4.4,16.5,6.5-.1-.2-.3-.4-.4-.6-1.3-1.6-9.6-5.3-12.4-8.3Z"/>
  <path d="M256.1,929.1l2.5,2.5.8-1.7c13.3,13.4,19.8-8.8,19.5-19.4-.2-9.2-4-10.6-8.5-17.6h0c-2.2-1.5-18.4-1.4-20.1.5-4,4.6,5.1,9.2,8.7,9.6-1.1,2-1,5.5-1.7,7.2-.5,1.1-2.3,1.1-2.9,3.1-1.4,4.2-1.2,11.4-3.1,16-.8,1.9-3.4,4-3.9,6.4,1.8,1.4,7.1-5.9,8.7-6.6Z"/>
  <path d="M941.4,930l.8,1.7,2.5-2.5c1.6.8,6.9,8,8.7,6.6h0c-.5-2.5-3.1-4.6-3.9-6.5-1.9-4.6-1.7-11.8-3.1-16-.7-1.9-2.4-2-2.9-3.1-.8-1.7-.8-5.6-1.7-7.6,4.3.9,13.3-6.2,8.3-9.5-2.1-1.4-18.1-1.6-20,.2-.6.5-7,9.4-7.2,10-3,10.9,2.4,41.8,18.5,26.7Z"/>
  <path d="M664.6,933.9h0c-.6.9-.3,2.5-.9,3.3-1,1.5-2.3,2.3-3.3,4.2-4.8,9-1.2,17.9,7.5,8.3l1.7,1.7c5.5-2.7,13.6-1.1,17.5-7,1.9-2.8,3-6.1-.2-8.7-5.8-4.7-10.2-1.4-15.6,1.5-1.2-.3-3.3-8.2-6.7-3.3Z"/>
  <path d="M521.1,949.2c3.4.9,6.6,0,9.5,2.1l1.2-1.3,1.1-.2c6.1,7.1,11.4,4.9,9-4.8-1-3.9-3-4.9-4.8-7.7-1.2-1.8,0-4.9-4.6-4.6l-2.9,4.6c-5.4-2.2-5.9-5.2-12.2-3.1-10.4,3.5-3.7,13.1,3.7,15Z"/>
  <polygon points="530.6 951.3 530.6 951.3 530.5 951.4 530.6 951.3"/>
  <path d="M815.5,1105.5c-2.5,6.5-2.3,17.1,5.9,19.1,7.4-1.8,10.2-8.7,8.6-15.7l4.1,1.7v-.2c-.2-2-.5-3.8-2.5-4.5l2.5-6.2-6.6,3.3c.7-1.1-3.1-5.4-3.5-5.6-1.3-.7-4.1-.4-5.2.6-1.2,1.2-.3,2.9-.8,4.1-.5,1-1.8,1.8-2.5,3.4Z"/>
  <path d="M366.9,1110.4l4.1-1.7c-1.6,7.1,1.3,14,8.6,15.7,8.2-2,8.4-12.7,5.9-19.1-.6-1.6-2-2.3-2.5-3.4v.2c-.4-1,.1-2.1-.2-3-2.1-4.9-9.4-.2-9.3,3.9l-6.6-3.3,2.5,6.2c-2,.7-2.3,2.5-2.5,4.5Z"/>
  <path d="M154.2,1001.5c.4.5.9,1,1.3,1.4,0-.6-.6-1.1-1.3-1.4Z"/>
  <path d="M148.9,715.9c-2.2,7.3,1.5,14.5,9.4,15.3,7.7.7,13.9-10.6,11-15.6-.4-.7-8.3-5.7-9.5-5.8-4.7,2.1-9.3.9-10.9,6.1Z"/>
  <path d="M1050.2,712.3h0c-5.6,0-6.6-4.2-12.1-1.3-.6.3-6.3,4.3-6.5,4.6-.7,1.2,0,4.2.2,5.7,3.6,19.7,29.3,6.5,18.5-9Z"/>
  <path d="M1000.4,915.9l-2.3,2.3c0-6.1,0-13.1-3.7-18.2l-1-.5c-4,1-7.3-.3-10.2,3.1l-1.7-2.5,4.1,12.4.8-3.3h2.8c0,0,1.2,1.4,1.2,1.4-.5,8.9,2.1,17.3,3.4,26h2.5c.8-5.1,2.3-8.7.9-14l3.2-.9v-5.8Z"/>
  <path d="M214.2,909.3c0,0,.8,3.2.8,3.2h.1s4.1-12.4,4.1-12.4l-1.7,2.5c-2.9-3.4-6.3-2.2-10.2-3.1-4,.7-5.2,15.5-4.7,18.9l-2.5-2.1v5.3l3.4,1.4c-1.9,5.1.2,8.6.8,13.6h2.5c1.3-8.7,4-17.1,3.4-26l1.2-1.3h2.8Z"/>
  <path d="M540.7,1069.9h0c-.4,2.3-2,4.8.4,6.6l.4-3.3c12.6,3.7,20.9-15.6,5-15.7,2.3-3.6-2.2-5.9-5.3-4.9-2,.7-2.2,5,.3,5.3-1.3,2.1-4.3,1.6-5.8,2.5-3.8,2.5,0,11.5,4.9,9.5Z"/>
  <path d="M665.5,1060.6c-1.5-1.4-4.8-.7-6.2-2.9h-.1c-.3-.6,1.2-.1,1.4-.5,2.9-4.6-4.6-6.8-7.1-2.7l.7,2.8c-16,0-7.5,19.5,5,15.7l-.8,3.3c4.5.3,1.3-6.4,1.7-6.6,4.8,1.9,8.5-6.2,5.4-9.1Z"/>
  <path d="M258.2,818.5h0c4.1-3.8,4.3-7.3-.3-10.8-6.1-4.7-12.9-2.4-16.1,4.4,1.9,9.3,8.7,13.5,16.4,6.4Z"/>
  <path d="M948.9,822.2c5.6.8,11.9-7.3,9.3-11.9-3.4-6.1-13-7-16.9-1.1-2.6,3.8-2.5,5.5.9,8.8.9.9,5.6,4,6.7,4.2Z"/>
  <path d="M593.9,1107.8h0c-.6-.5-.9-4.5-2.1-5.4-1.8-1.5-8.3-2.9-10.5-1.1-.6-3.3-5.3-4.9-8.2-4.4-9.6,1.5-3.9,8.4,2.9,9.3,1.2,0,3.3-.9,3.5-.7.2,0,.3,2.6,1.3,4.1,4.7,7.2,8.3.5,12.5,0,1.9-.2.4,2.5,2.8,1.7.8-4.6-1.4-2.7-2.3-3.5Z"/>
  <path d="M624.7,1106.2h0c2.7-.4,7.5-2.4,8-5.5.8-5.3-12.6-5.1-13.2.6-2.2-1.8-8.7-.3-10.5,1.1s-.6,6.5-4.2,5.7v3.2c2.3.8.8-1.9,2.7-1.7,3.4.4,4.9,4.2,8.8,3,4.5-1.4,4.6-6.8,4.9-7.1.2-.2,2.4.8,3.5.7Z"/>
  <path d="M1054.8,695.6h0c2,1.1,11.7,3.8,13.5,2.2,2.9-2.4-4.7-12.1-6.9-13.8-5.8-4.4-15.9-2.8-12.3,5.7.2.4,5.3,5.6,5.7,5.9Z"/>
  <path d="M146,695.6c.4-.3,5.6-5.5,5.7-5.9h0c3.6-8.5-6.5-10.1-12.3-5.7-2.3,1.7-9.8,11.4-6.9,13.8,1.8,1.5,11.5-1.1,13.5-2.2Z"/>
  <path d="M515.2,1158.3h0c-4.7,8,12.6,14.5,18.9,10.9l.8-7.2c-4.7-3.5-15.1-11.6-19.7-3.7Z"/>
  <path d="M684.1,1156.4c-6.7-4.8-12.8,2.4-18.1,5.5l.8,7.2c7,4.8,26.8-5.9,17.3-12.7Z"/>
  <path d="M587.1,1075.2h0c0-5.3-7-20.1-11.9-11.8-4.9,8.4,2.4,12.6,3.5,20.5l2.4-.9-.8-1.6,4.9.8c.6-2.3,1.8-4.5,1.8-7Z"/>
  <path d="M625.2,1062.9c-5.3-7.1-11.6,7.5-11.6,12.3s1.2,4.6,1.8,7l4.9-.8-.8,1.6,2.4.9c1-7.4,8.9-13.4,3.3-21Z"/>
  <polygon points="621.9 1083.9 621.9 1083.9 621.9 1083.9 621.9 1083.9"/>
  <path d="M180.2,1017.7s0,0,0,0h0s0,0,0,0Z"/>
  <path d="M177,1014.4c-.6-.6-3.8,1.4-7.1,4,3,3.1,6.1,6.2,9.2,9.3,1-3.6,1.4-7.9,1.1-10l-3.2.8v-4.1Z"/>
  <path d="M1023.9,1018.5h0l-3.3-.8c-.4,1.5,0,5.7,1,9.3,3.1-3,6.1-6.1,9.1-9.1-2.3-1.8-4.5-3.2-5.5-3.5-2.4-.7-.7,3.5-1.2,4.1Z"/>
  <path d="M339,1024.3h0c-.7.1-.2-.8-.7-1.3-8.7-8-17.6-1.3-9.6,5.8,1.3,1.1,9.4,3.8,10.3,3.6,1.1-.2,1.6-4.8,6.2-2.3,3.4-5.9-2.2-12.2-6.2-5.8Z"/>
  <path d="M861.8,1032.4h0c.4,0,6.5-1.5,7.3-1.7,4.2-1.4,9.1-8.6,3.9-10.9-3.4-1.5-9.7,1-10.8,4.5-4.8-6.1-9.9-.4-6.6,5.8,4.5-2.5,5.1,2.1,6.2,2.3Z"/>
  <path d="M985.2,794.1c5.6-.9,5.3-21.9-3.2-21.5-4.1,4.2-5.3,22.9,3.2,21.5Z"/>
  <path d="M215.6,794.1c3.1.5,5.7-2.6,6.1-5.5.4-2.6,0-16.3-3.5-16-8.2.7-7.9,20.7-2.6,21.5Z"/>
  <path d="M803,878.5h0c-.5-1.6-2.4-3.6-4.2-3.7-2.4-.2-8.6,3.4-9.9,5.5-8,13.3,18,10.6,14.1-1.8Z"/>
  <path d="M411.9,880.3c-1.3-2.1-7.5-5.7-9.9-5.5-1.7,0-3.6,2.1-4.2,3.7-3.9,12.3,22.1,15,14.1,1.8Z"/>
  <path d="M549.6,949h0c-.2.7,1.6,9,2.2,9.7,3.4,3.6,13.3-4.8,9.6-12.4-1.4-2.9-6.2-4.7-8.7-2.9-.3.2-2.9,5.3-3,5.6Z"/>
  <path d="M649.4,958.3c.3-.5,2-7.7,2-8.5s-2.8-6.3-3.1-6.5c-1.5-1.1-5.3-.6-6.9.6-8.7,6.6,4.6,19.7,8,14.4Z"/>
  <path d="M229.2,1071.8c3.7,2.9,7.5,5.8,11.3,8.7.2-.6.2-1.1.2-1.8,0-1.6-1.5-6.5-2.6-7.7-2.3-2.4-6.3-1.5-8.9.8Z"/>
  <path d="M963.5,1070.4h0c-.2,0-2.3,2.9-2.3,3-1,2.7-1.1,4.7-.8,6.3,3.7-2.8,7.3-5.6,10.9-8.4-2.1-1.7-5.2-2.1-7.8-.9Z"/>
  <path d="M1138.2,679.1c-1.7,3.8,5.7,21.3,10.5,16.3,4-4.2-1.3-10.8-1.8-13.8-.2-1,1.2-5.8-1.3-4.7-.4.2-.9,1.3-1.6,1.6-1,.4-4.2-.4-5.7.6h0Z"/>
  <path d="M52.5,695.6c5.6,3.8,11.9-14.4,10.1-16.5-1.5-1-4.7-.2-5.7-.6h0c-.7-.3-1.2-1.4-1.6-1.6-2.4-1.1-1.1,3.7-1.3,4.7-.6,3.7-6,8.9-1.5,14Z"/>
  <path d="M539.9,1120h0c3.9,3.4,5.2,2.5,9.6,2.5s2,2.1,4.9-2.1l1.2,1.6c-.2-9.3-9.3-19.2-9.9-4.1l-4.1-1.7,3.3-4.1c-5.1.5-10.3,3.2-5,7.9Z"/>
  <path d="M651.3,1122.5c4.4,0,5.7,1,9.6-2.5,5.3-4.7.2-7.4-5-7.9l3.3,4.1-4.1,1.7c-.6-15.1-9.8-5.2-9.9,4.1h0s1.2-1.6,1.2-1.6c2.9,4.2,3.1,2.1,4.9,2.1Z"/>
  <path d="M664.5,1149.1c1.4-.8,9.6-7.5,8-9h0c-1-.9-12.7,2.4-14.7,3.2-2.7,1.2-8.3,5-6.5,8.5,1.7,2.3,11.1-1.5,13.2-2.7Z"/>
  <path d="M543,1143.5h0c-1.9-1-13.7-4.2-14.7-3.2-1.6,1.5,6.5,8.1,8,9,2.1,1.2,11.5,4.9,13.2,2.7,1.7-3.5-3.8-7.3-6.5-8.5Z"/>
  <path d="M10.1,710.1c.9,4.8,1.8,9.5,2.8,14.2,3.8-5.6,5-17.5-2.8-14.2Z"/>
  <path d="M1187.3,723.4c.9-4.5,1.8-9,2.7-13.5-6.5-2-5.8,7.9-2.7,13.5Z"/>
  <path d="M360.1,1119.5c-17-2-12.5,16.4,1.5,12.3,2.7-5.5-3.3-7.2-1.5-12.3Z"/>
  <path d="M840.7,1119.5c1.8,5.1-4.2,6.8-1.5,12.3,14,4.1,18.5-14.3,1.5-12.3Z"/>
  <path d="M140.2,962h0c-10.9-.5-7.3,13.2,1.7,12.7,2.6,0,2-1.1,3.2-2.3.8-.8,2-.7,2.2-2.4.4-3.6-3.5-7.8-7.1-8Z"/>
  <path d="M1053.7,970.8h0c0,.3,3.9,3.8,4.5,3.9,6.2,1.1,11.8-7.2,8.5-10.6-5-5-14.9.8-13,6.7Z"/>
  <path d="M282.7,782.5c2.5-1.8,3.2-13.5,1.6-15.8h.1c-.7-1.1-2.1-1-3.2-.7-6,1.7-5.9,21.9,1.5,16.5Z"/>
  <path d="M918.1,782.5c8.3,6,7.4-19.2-.7-16.6-2.7.9-2.1,14.5.7,16.6Z"/>
  <path d="M543.5,985.6c-1.4,1.1-5,10-5,12-.3,11.2,12.6-2.7,10.4-10-.7-2.3-3.4-3.6-5.4-2Z"/>
  <path d="M651.9,987.6c-2.2,7.3,10.7,21.1,10.4,10,0-2-3.6-10.9-5-12-2-1.6-4.7-.3-5.4,2Z"/>
  <path d="M515,1179.2h.1c3.1-7.3-2-8.3-8.2-7.3-2.6,5.9.7,8,6.5,7.3-4.8,4.1,4.7,11.8,5.8,6.2.7-3.6-.4-5.8-4.2-6.2Z"/>
  <path d="M685.7,1179.2h.1c-4.6.3-5.3,4.3-3.4,7.9,2.9,2.1,9-4.9,5-7.9,5.8.6,9.1-1.5,6.5-7.3-6.2-1-11.2,0-8.2,7.3Z"/>
  <path d="M153.8,841.3c3.8,2.3,19.5,4,18.9-2.7-.2-.7-.4-1.6-.9-2.1-4-3.4-20.3,1.7-18,4.8Z"/>
  <path d="M1047,841.3c2.7-3.7-19.6-9.8-19-2,.5,5.9,15.6,4.1,19,2Z"/>
  <path d="M876.9,888.1h-.1c1-1.4,3.4-5.5,2.5-7.1-7.9-4.2-12.8,4.3-12.8,11.5,3.2,2,8.5-1.8,10.4-4.4Z"/>
  <path d="M334.4,892.6c0-7.2-4.9-15.7-12.8-11.5-2.2,3.5,8,15,12.8,11.5Z"/>
  <path d="M201.4,786.6h0c1.6-3.3,4-21.4,0-22.3-2.2-.5-3.5,5.6-3.6,7.1-.7,5.7.4,11.3.7,16.9,1.3.2,2.4-.7,2.9-1.7Z"/>
  <path d="M1002.3,788.3h0c.3-5.6,1.4-11.2.7-16.9-.2-1.5-1.4-7.6-3.6-7.1-3.9.9-1.6,19,0,22.3.5,1,1.6,1.9,2.9,1.7Z"/>
  <path d="M322.3,1132h0c2.2,1.2,4.5,2.3,6.7,3.5,1.1-.3,2.1-.8,2.7-1.3,10.4-8.2-7.5-16.1-9.4-2.2Z"/>
  <path d="M869.1,1134.1h0c.6.6,1.3,1,1.9,1.3,2.6-1.3,5.1-2.6,7.7-4-.2-1.5-1-3.2-2.6-5.1-6.1-6.8-14.3,2-7,7.8Z"/>
  <path d="M545.8,1032c3.7,5.6,10.6-.4,13.1-4.2,0-.7-1.3-2.9-1.8-3.3-3.8-3.1-15.1,1.7-11.3,7.5Z"/>
  <path d="M558.9,1027.8s0,0,0,0c0,0,0,0,0,0h0Z"/>
  <path d="M641.9,1027.9c2.5,3.7,9.4,9.8,13.1,4.2,3.8-5.8-7.5-10.6-11.3-7.5-.5.4-1.8,2.6-1.8,3.3Z"/>
  <path d="M641.9,1028s0,0,0,0c0,0,0,0,0,0h0Z"/>
  <path d="M236.4,840.2c8.6-5.6,2.1-14.4-5.5-9.2-5.7,3.9.5,12.5,5.5,9.2Z"/>
  <path d="M964.4,840.2c5,3.3,11.2-5.3,5.5-9.2-7.6-5.2-14.1,3.6-5.5,9.2Z"/>
  <path d="M1114.1,849.7c-.6,3.9,4.7,6.8,8,7.1.7,0,5.8-.5,6-.7.3-.2.8-3.9,2.6-4.4l-1.4-2c-4,.6-6.1.6-9.9-1l-1.6,1.7-3.7-.7Z"/>
  <path d="M1114,849.7h0s0,0,0,0h-.1Z"/>
  <path d="M71.5,849.7c-2.9,1.7-.5,2.4.6,4.2.4.6.3,2,.6,2.2s5.7.7,6.6.6h0c3.2-.4,8.1-3.3,7.4-7.1l-3.8.7c-.4,0-.3-1.2-.5-1.3-2.2-1.2-4,1.2-6,1.3-1.4,0-3.2-1.3-4.9-.6Z"/>
  <path d="M1138.7,609.6h0c3.9-.1,2.3-7.8,1.7-10.1-.4-1.4-2.4-2.4-1.2-4.1-10.3-1.6-6.4,14.2-.4,14.2Z"/>
  <path d="M61.2,609.2c5.4,3.1,12.4-15.6.7-13.9,0,3-4.9,11.5-.7,13.9Z"/>
  <path d="M730.1,1048.2h0c3.8-.4,13.4-14.2,11.2-16.5-5.9-1.2-10.6,9.5-12,14.1-.3,1.1-.3,2.2.8,2.4Z"/>
  <path d="M61.8,800.2c3.6,4.4,6.3,2.2,10.3,2.2s5.6,1.7,8.8,0h0c0-.1-1.4-2.4-1.4-2.4h-6.9c0,0,.8-4.3.8-4.3-4.1,0-10.1-.2-11.6,4.5Z"/>
  <path d="M1128.7,802.3h0c3.5.1,4.5,2.2,8.4-.6,5.7-4.1-6.1-6.9-9.7-6l.8,4.1c-.8.8-8.7-1.8-8.3,2.5,3.2,1.8,6.1,0,8.8,0Z"/>
  <path d="M885,987.9h0c2.6,3.7,12.5-1.2,12.6-4.6,0-.4-1.3-3.5-1.5-3.6-3.6-2.3-14.1,3.9-11.1,8.2Z"/>
  <path d="M459.6,1031.8c-1.9,2,5.1,12.1,6.9,13.8,6.6,6.2,5.5.7,3.2-4.4-1.8-4-5-10.3-10.1-9.4Z"/>
  <path d="M314.8,988.6c5.7-3.5-6-11.8-10.3-8.5-1.3,2.7-1.8,3.5.4,5.8s6.9,4.5,9.9,2.7Z"/>
  <path d="M660.8,872.2c1-1.8,1.8-8.2-.3-8.6-3.4-.7-11.1,10.3-8.7,14.1,1.5,1,8.2-4,9-5.5Z"/>
  <path d="M549,877.7c2.4-3.8-5.3-14.7-8.7-14.1-2.1.4-1.4,6.8-.3,8.6.9,1.5,7.5,6.5,9,5.5Z"/>
  <path d="M712.3,1171.7c7.5,3.3,11.1-5.6,12.4-11.6-4.1-2.9-14.2,9.1-12.4,11.6Z"/>
  <path d="M476.1,1160.1c1.3,5.9,4.9,14.8,12.4,11.6,1.8-2.5-8.3-14.5-12.4-11.6Z"/>
  <path d="M530.7,1056.3c-.6-1.8-7.8-3.4-8.1-2.9h0c-1.1,1.4.2,6-5.1,4.9l.8,4.1,3.3-3.3.8,4.6c4.5,1.9,9.5-3.4,8.3-7.4Z"/>
  <path d="M683.3,1058.3c-5.3,1.1-3.9-3.5-5.1-4.9h0c-.4-.5-7.6,1.1-8.1,2.9-1.3,4,3.8,9.3,8.3,7.4l.8-4.6,3.3,3.3.8-4.1Z"/>
  <path d="M191.7,861.8c3.6-2.3.6-9.8-3.4-9.7-9.9.4-4.4,14.7,3.4,9.7Z"/>
  <path d="M1009.1,861.7c7.8,5,13.3-9.3,3.4-9.7-4-.2-7,7.4-3.4,9.7Z"/>
  <path d="M409.9,945.7c-1.2,1.8,4.9,14.5,9,13.2.5-3.6-.7-10.6-3.5-13-1.3-1.1-4.7-1.2-5.5-.2Z"/>
  <path d="M790.9,945.7c-7.4-3.5-9.6,7.7-9,13.2,4.2,1.3,10.3-11.4,9-13.2Z"/>
  <path d="M979.6,953.7c.9,2,5,1.4,6.9,2.7,1.2-1.7-5.3-17.4-7-17.4s-1.9,1.7-1.9,2.7c0,2,2.9,6.2,3,7.8,0,1.4-2,1.9-1,4.2Z"/>
  <path d="M214.4,956.4l6.4-1.9c2.2-2.1-.5-3.7-.5-5s3-5.7,3-7.8-1.5-2.7-1.9-2.7c-1.7,0-8.2,15.7-7,17.4Z"/>
  <path d="M310.9,833.8c5.4-2.4,9.1-12,3.3-15.7-1.8,0-7.2,13.7-3.3,15.7Z"/>
  <path d="M890,833.8c3.9-2-1.5-15.7-3.3-15.7-5.8,3.7-2.1,13.3,3.3,15.7Z"/>
  <path d="M605.4,1014.8l-1.7-.8c4-4.5.4-10-2.5-3.7h-1.6c-2.9-6.3-6.5-.8-2.5,3.7l-1.7.8c1.6,3.1,9,2.9,9.9,0h0Z"/>
  <path d="M184.1,890.1c5,1.2,2.6-14.6.4-17.4-5.7,0-2.1,17-.4,17.4Z"/>
  <path d="M1016.4,872.8c-2.3,2.8-4.6,18.5.4,17.4,1.8-.4,5.3-17.3-.4-17.4Z"/>
  <path d="M576.2,875.8c5-4.9,2.6-16.9-3-9.2-3.5,4.8-2.7,14.8,3,9.2Z"/>
  <path d="M627.6,866.7c-5.6-7.7-7.9,4.2-3,9.2,5.6,5.6,6.4-4.4,3-9.2Z"/>
  <path d="M543.2,1026.8c-2.2-2.3-13.8,10.7-13.2,14.1,1.3,1.3,16.1-9.4,13.2-14.1Z"/>
  <path d="M670.8,1040.9c1.3-1.3-9.2-15.5-13.2-14.1-2.8,4.7,12,15.3,13.2,14.1Z"/>
  <path d="M396.4,901.5c4.1-3.6-3.4-12.2-7.6-7.2-4.8,5.7,5.3,9.3,7.6,7.2Z"/>
  <path d="M804.4,901.5c2.3,2.1,12.5-1.5,7.6-7.2-4.2-4.9-11.7,3.6-7.6,7.2Z"/>
  <path d="M257.4,868.6h0c4-1.1,3.4-5.7,9.1-4.1l-3.7-11.6c-2.8,1-6,15.1-5.4,15.7Z"/>
  <path d="M943.4,868.6h0c.6-.6-2.5-15.2-5.8-15.7l-3.3,11.6c5.7-1.6,5.1,3.1,9.1,4.1Z"/>
  <path d="M1013,1029.2h0c0,2.2,0,4.1.3,5.7,1.7-1.6,3.3-3.2,5-4.8-1.5-.9-3.3-1.3-5.3-.9Z"/>
  <polygon points="187.8 1029.3 187.8 1029.3 187.8 1029.3 187.8 1029.3"/>
  <path d="M182,1030.5c1.8,1.7,3.5,3.4,5.3,5.1.5-1.7.5-3.9.5-6.3-2.2-.5-4.2,0-5.8,1.2Z"/>
  <path d="M632.3,1175c2.6,5.2,12.3-1.2,9.4-5.7-1.8-2.8-12.1.5-9.4,5.7Z"/>
  <path d="M564.8,1168.8c-6.5-2-7.7,3.8-3.9,6.9,6.2,5,12.2-4.3,3.9-6.9Z"/>
  <path d="M588.8,962.2c-1.6,7.7,5,9.5,10.8,11.6,2-2.7-7.1-12.1-10.8-11.6Z"/>
  <path d="M601.3,973.8c5.8-2.1,12.4-3.9,10.8-11.6-3.6-.5-12.7,8.9-10.8,11.6Z"/>
  <path d="M300,961.4c-4.5-1.3-6.9,8.1-3.4,11.3,4.6,4.2,6.5-10.4,3.4-11.3Z"/>
  <path d="M904.3,962.4c-5.5-5.7-6.9,9-1.9,11.2,4.6-.7,4.1-8.9,1.9-11.2Z"/>
  <path d="M1124.1,862.8l-6-.7-5.6,4.4c4.2,5.8,11,3,11.6-3.7Z"/>
  <path d="M76.8,862.8c.3,7.1,9.4,9.9,11.6,2.5-4.4-2.5-6.2-4.4-11.6-2.5Z"/>
  <path d="M1.1,573.8h0c-.2.2-.4.4-.6.5,0,3.5-.3,7-.4,10.4.2.2.5.4.8.6,4.1-2.5,6-10.7.2-11.5Z"/>
  <path d="M1199.8,585.3c0-3.7-.2-7.5-.4-11.2-.4,0-.7-.2-1.1-.3-4,3.5-2.3,8.7,1.5,11.5Z"/>
  <path d="M392.5,939.4h0c5.5-1.2,1.6-9.9-6.2-7.9-1.5.9-1.2,4.5-.3,5.6.6.7,5.4,2.5,6.5,2.3Z"/>
  <path d="M805.9,935.3c-1.1,7.6,13.1,3.3,9-3.7-2.9-.5-8.5.2-9,3.7Z"/>
  <path d="M862.7,918.3c-3.9.4-6.2,4.6-5.4,8.2,6.5,3.4,13.7-9.1,5.4-8.2Z"/>
  <path d="M343.5,926.5c.8-3.7-1.5-7.8-5.4-8.2-8.3-.9-1.1,11.6,5.4,8.2Z"/>
  <path d="M445.5,1127.1h0v-2.5c-4.8-1-8.4,1.3-11.6,4.5,3.7,5.5,8-.7,10.5-1.1,1.4-.2,3.7,2.4,6.1.7-1.1-2.7-2.6-2.1-5-1.6Z"/>
  <path d="M755.5,1124.5h0v2.5c-2.4-.5-4-1.1-5,1.6,2.4,1.7,4.7-.9,6.1-.7,2.5.4,6.8,6.6,10.5,1.1-3.2-3.2-6.8-5.5-11.5-4.5Z"/>
  <path d="M653.9,932.4l-3.2-1.5c-10.7,10.9,4.7,15.7,3.2,1.5Z"/>
  <path d="M551.8,941.4c4.4-.8.7-10.8-2.2-10.5-6.1.5-2.2,11.3,2.2,10.5Z"/>
  <path d="M572.2,980.1c-2.7-3.5-6.6,1.7-10.3-.4l-1.2,1.9,2.8,3.8,2.9-4.1-1.6,4.6,1.9,1.1h0c2.2-.8,6.2-4.5,5.5-6.9Z"/>
  <path d="M637.2,985.3h0c0,.1,2.8-3.7,2.8-3.7-.2-3.1-2.7-1-4.3-1.3-2.4-.4-5.3-3.1-7.2-.2-.7,2.4,3.3,6.2,5.5,6.8l1.9-1.1-1.6-4.2,1.6-.4,1.2,4.1Z"/>
  <path d="M982.4,930.7c-.3,4.6-.4,10.9,5.9,8.8,2.3-5.5.7-9.9-5.9-8.8Z"/>
  <path d="M218.5,930.7c-6.5-1.2-8.2,3.3-5.9,8.8,6.3,2.1,6.1-4.1,5.9-8.8Z"/>
  <path d="M1048.6,800.2c3.6,3.3,6.6,2.7,9.8-.5,2.1-4.7-10.2-7.3-9.8.5Z"/>
  <path d="M142.8,799.9c2.1,3.3,6.4,2.9,9.3.7,1.2-8.4-12.3-5.5-9.3-.7Z"/>
  <path d="M102.4,695.1c1.4-1.3,3.7-3.6,3.2-5.6l-1.9-2.1h0c-2.7,1-4.8,3.7-6.1,6.2-3.9,7.5,1.1,5,4.8,1.5Z"/>
  <path d="M1098.4,695.1h0c3.8,3.5,8.7,6,4.8-1.5-1.3-2.5-3.4-5.2-6.1-6.2l-1.9,2.1c-.5,2,1.8,4.3,3.2,5.6Z"/>
  <path d="M662.1,1008.6h0c-2.4,3.7,2.1,9.2,5,11.5,1.8-1.3,1.7-2,1.4-3.9l1.5-.2v-1.6c-3.3,1.8-5.4-9.8-7.9-5.8Z"/>
  <path d="M622.4,891h0c5.4,7.3,10.4-5.5,7.7-7.4-2.5-1.8-6.5,3.1-6.2,5.8h-2.1c-.4,1.2,0,1.1.5,1.6Z"/>
  <path d="M530.8,1014.3v1.6l1.5.2c-.3,2-.4,2.7,1.4,3.9h0c3.4-2.9,7.9-7.8,4.1-12.3-2.7-.6-3.3,7.9-7,6.6Z"/>
  <path d="M578.3,890.9h0c.4-.4.9-.2.5-1.6h-2.1c.4-4.6-7-9-6.8-3.1.2,5,4.6,9.8,8.3,4.7Z"/>
  <path d="M845.7,1109.1c-4.9-1.5-8.1,4.6-5.8,8.7,5.3-.2,8.6-3.5,5.8-8.7Z"/>
  <path d="M288.9,990.4c2.1,1.4,14.2,5.3,14.9,2.1-1.4-4.6-8-4.1-11.9-3.6h0c-.8,0-3.1.3-3,1.5Z"/>
  <path d="M355.1,1109.2c-2.7,5.3.5,8.5,5.8,8.7,2.2-4.1-.9-10.3-5.8-8.7Z"/>
  <path d="M897,992.4c.6,2.6,9.4.3,11.2-.4.9-.3,3.5-1.4,3.7-2.5-4.6-1.1-12.8-2.6-14.9,2.9Z"/>
  <path d="M22.2,723.3l2.3,7c-1-3.7,2-3.6,3.2-5.5,4.2-7.1-4.7-11.7-5.5-1.5Z"/>
  <path d="M1173.1,724.8h0c.8,1.3,2.3,1.5,2.7,2.2.8,1.3-.3,3.4,1.2,3.3.7-4.4,2.8-7.7,0-11.9-2.4-3.5-7,1.3-3.9,6.4Z"/>
  <path d="M1038.4,930c1.5-1.2,2-4.9,1.1-6.6-12.2-2-7.6,11.9-1.1,6.6Z"/>
  <path d="M161.4,923.3c-2.2,4.2,2.6,9.9,6.6,7,.6-.4,1.5-4,1.2-4.6-.9-1.6-6.2-3.3-7.8-2.4Z"/>
  <path d="M281.8,808.1h2.8c1.7-3.8.8-7.6,0-11.5-4.8-1.3-5.4,10.6-2.8,11.5Z"/>
  <path d="M916.1,797.1c-1,3.7-1.4,7.3,0,11,8.2,2.5,2.7-15.8,0-11Z"/>
  <path d="M805.1,1116.8c-.7,2.2-8.8,8.9-7.4,10.2.6.5,2.8,0,3.7-.8.4-.3,5.8-7.7,5.9-8.2,0-1.7-2.4-1.9,1.2-5l-7.5,1.7,4.1,2.1Z"/>
  <polygon points="399.9 1114.4 399.6 1114.5 399.9 1114.6 399.9 1114.4"/>
  <path d="M399.6,1114.5l-7.2-1.6c3.6,3.1,1,3.3,1.2,5,0,.5,5.5,7.9,5.9,8.2.9.7,3.1,1.3,3.7.8,1.5-1.4-7.1-8.3-7.4-10.4l3.8-2Z"/>
  <path d="M317.8,914.2c-1.9-1.2-10.3,1.4-9.8,4.4,2.4,6,13.3-2.2,9.8-4.4Z"/>
  <path d="M892.8,918.6c.5-2.9-7.9-5.6-9.8-4.4-3.5,2.2,7.4,10.4,9.8,4.4Z"/>
  <path d="M316.6,960.5l-.2,5.7c1.7.8,5.8,1.8,7,.2,1.4-4.2-2.7-8.7-6.7-5.9h0Z"/>
  <path d="M877.5,966.4c1.2,1.6,5.3.7,7-.2,2.3-10-8.5-7.9-7,.2Z"/>
  <path d="M937.6,1050.4h0c-1.3,2.4,6.3,1.2,7,1.1,1.4,0,2.7.8,3.4.8s.3-1,.7-1.2c1-.6,2.2-.7,3-1.6,1.2-3.9-12.9-1.5-14.1.9Z"/>
  <path d="M249.1,1048.7c.2.7,3.4,3.6,3.7,3.6.6,0,1.6-.8,2.5-.7,2.6,0,5.2.6,7.9,0,2.4-2.5-13.4-6.2-14.1-2.9Z"/>
  <path d="M300.1,873.5c2.3-2.2,4.1-8,1.9-10.5-2.9-3.2-4.4,4.5-4.6,6.2-.2,2.4.6,3.5,2.7,4.3Z"/>
  <path d="M902.6,872.5h0c1.9-2.1-.7-10.4-1.9-10.5-4.8,1.9-2.8,7.8-.4,11.2.5.5,2-.4,2.3-.7Z"/>
  <path d="M870.6,1118.3c.6-6-11.4-.9-7.5,4.6,2.5-.5,7.2-1.7,7.5-4.6Z"/>
  <path d="M330.3,1118.3c.3,2.8,5,4.1,7.5,4.6,3.9-5.5-8.1-10.6-7.5-4.6Z"/>
  <path d="M924.3,859.2h0s3.2-.6,3.2-.6c0-3.3,1.3-7.6-1.9-9.8-4.1,2.7-3.1,6.5-1.3,10.4Z"/>
  <path d="M273.3,858.5h0s3.2.6,3.2.6c1.8-3.9,2.8-7.7-1.3-10.4-3.2,2.2-2,6.5-1.9,9.8Z"/>
  <path d="M466.2,1029.3c.5-4-1.6-7.5-4.6-9.9-3.6,3.4-.6,10.9,4.6,9.9Z"/>
  <path d="M739.2,1019.4c-2.9,2.5-5.1,6-4.6,9.9,5.1,1,8.2-6.5,4.6-9.9Z"/>
  <path d="M550.7,1134.3h0c0,.1,6.2,2.3,6.2,2.3l2.8-3.4c-1.7-4.6-11.5-2.6-9,1.1Z"/>
  <path d="M641,1133.4s0,0,0,0h0s0,0,0,0Z"/>
  <path d="M641,1133.3l2.8,3.4,6.2-2.2c.3-5.4-6.5-4.7-9-1.2Z"/>
  <path d="M364.3,1132.8c-2.3,4.7,1.1,8.1,5.8,8.3.8-4.4-1.4-7.6-5.8-8.3Z"/>
  <path d="M830.8,1141.1c4.7-.2,8.1-3.6,5.8-8.3-4.4.7-6.6,3.8-5.8,8.3Z"/>
  <path d="M434.7,1169.7c1,4.7,4.1,5,8.3,4.5.7-4.8-4.7-7.9-8.3-4.5Z"/>
  <path d="M757.8,1174.2c4.2.5,7.3,0,8.3-4.5-3.6-3.4-9-.2-8.3,4.5Z"/>
  <path d="M747.1,956.4c-5-.9-7.8,1.6-7.4,6.6,1.6,2.2,9-3.2,7.4-6.6Z"/>
  <path d="M461.2,963c.3-5-2.4-7.5-7.4-6.6-1.6,3.4,5.8,8.8,7.4,6.6Z"/>
  <path d="M670.4,992c3.2-.9-.4-10.2-4.5-8.3-.8,2.5,1,9.3,4.5,8.3Z"/>
  <path d="M530.5,992c3.5,1,5.3-5.8,4.5-8.3-4.1-2-7.7,7.3-4.5,8.3Z"/>
  <path d="M669.1,900.9h0c.8-1.2-.7-6.8-1.6-7.5-.8-.7-3,1.9-3.3,2.3-.9,1.6-1.9,3.3-1.7,5.2h6.6Z"/>
  <path d="M538.3,900.9l-3.3-7.4c-2.1-1.4-4.1,5.7-3.2,7.4h6.5Z"/>
  <path d="M341,963.8c1.3-4-5.4-8.3-7.9-5-2.2,2.9,5.8,6,7.9,5Z"/>
  <path d="M859.8,963.8c.8.8,6.2-.9,7.2-1.9,5-5.1-8.7-6.1-7.2,1.9Z"/>
  <path d="M1173.3,609.4h0s2-1.4,2-1.4l-.9-5.9c-7.3-4.3-5.2,7.3-1.1,7.3Z"/>
  <path d="M29.9,601.2c-1-.3-2.5.5-3.5.9-3.3,16.5,9.4.7,3.5-.9Z"/>
  <path d="M136.6,650.4h0s0,0,0,0h.1Z"/>
  <path d="M136.5,650.4c.7-1.7,2.3-5.8.7-7-.9-.6-4.8.5-5.3,1.5l.6,4.9,4,.6Z"/>
  <path d="M639.9,1036.6h-.1c-1.1-1.3-3.6-.3-4.5-.8-.7-.5-.2-3.3-1.8-3.2-.3,1.2.9,2.9.9,3.6s-4,1.1-2.1,3.8c1.2,1.8,5.1,0,6.9-.2l.7-3.2Z"/>
  <path d="M1068.5,649.8h0l.6-4.9c-6.3-4.2-7.2.2-4.6,5.5l4.1-.6Z"/>
  <path d="M568.9,1038h0l-2.4-1.4v-4c-.5,4.4-1.5,2.6-3.7,3.3-8.1,2.5,8.2,8.3,6.1,2.1Z"/>
  <path d="M556.1,982.9c-3.3-.9-5.5,6.6-5.4,9.1,3.6,1.4,8.5-8.3,5.4-9.1Z"/>
  <path d="M650.1,992c0-2.5-2-10-5.4-9.1-3.1.8,1.8,10.5,5.4,9.1Z"/>
  <path d="M452.9,1165.1c-.6,3.2,1.1,6.7,4.5,6.7,7.7,0-3.1-8.2-4.5-6.7Z"/>
  <path d="M743.3,1171.8c3.4,0,5.2-3.5,4.5-6.7-1.4-1.5-12.2,6.8-4.5,6.7Z"/>
  <path d="M954,951.6l.2-2.7h-4.9c-.5.8.6,8,2,9.1h0s2.7-6.4,2.7-6.4Z"/>
  <path d="M251.6,949h-5c-.3,3.3,2.6,5.5,1.7,9.1,3,1,3.7-8.5,3.3-9.1Z"/>
  <path d="M998.1,885.2c3,1.1,8.6-.2,6.2-4.1-2.3-3.7-7.3.5-6.2,4.1Z"/>
  <path d="M202.7,885.1c1.1-3.6-3.9-7.9-6.2-4.1-2.4,3.9,3.2,5.3,6.2,4.1Z"/>
  <path d="M1118.2,654.9c.5-.7-1.2-5-1.9-5.5-.5-.4-3.8-1.2-3.9-1.1-.3,4.5.4,9.1,5.8,6.6Z"/>
  <path d="M88.4,648.3c-4.1,0-5.6,2.7-5.8,6.6,5.4,2.6,6.1-2,5.8-6.6Z"/>
  <path d="M934.8,771.7c.3-.6-.2-1.9-.7-2.3-1.6-1.5-7.8-1.7-7.2,1,2.1,2.9,5.2,4.4,7.9,1.3Z"/>
  <path d="M274,770.5c.6-2.7-5.6-2.5-7.2-1-.4.4-.9,1.7-.7,2.3,2.7,3.2,5.8,1.6,7.9-1.3Z"/>
  <path d="M615.3,1122c-4.4-.3-7.5.8-6.6,5.8,3.8.4,6.8-1.7,6.6-5.8Z"/>
  <path d="M585.5,1122c-.2,4,2.8,6.2,6.6,5.8.9-5-2.2-6.1-6.6-5.8Z"/>
  <path d="M181.1,750.7h0c.6,1.8-.4,3.9,2.1,5.3,2.1-2.6.1-5.9.3-9l-3.2-1c-2.2,4.1.5,3.9.8,4.7Z"/>
  <path d="M525,1111.2l-3.3-5.4c-3.6-1.8-5.6,9.4,3.3,5.4Z"/>
  <path d="M679.1,1105.8l-3.3,5.4c4,2.5,8.9-1.2,5.6-4.7h0c-.4-.4-1.7-1-2.3-.7Z"/>
  <path d="M1019.8,750.3h0c0-.2,2.7-.5.5-4.3-4.7-.3-4,6.5-3.3,9.9,2.9-.9,2-3.5,2.7-5.6Z"/>
  <path d="M607,897.6c.8-3.1.2-8.7-4.1-8.3-1.1,3.2.5,7.8,4.1,8.3Z"/>
  <path d="M597.9,889.3c-4.4-.5-4.9,5.2-4.1,8.3,3.6-.5,5.2-5.1,4.1-8.3Z"/>
  <path d="M1014.3,804.8c-.6-1.4-2.1,0-2.1.4v12c2.5-1.6,3.2-10.4,2.1-12.4Z"/>
  <path d="M783.5,1124.6h0c3.6-.1,4.5-3.6,6.3-5.8,1.3-1.6,4.4-1.8,3.6-5-1.9.3-10.9,9.9-9.9,10.8Z"/>
  <path d="M407.4,1113.6h0c-.7,3.3,2.3,3.5,3.6,5.1,1.8,2.2,2.6,5.8,6.3,5.7.9-.9-8.1-10.5-9.9-10.8Z"/>
  <path d="M201.9,797.7c5.5,7.9,9.6-3.2,3-2.6-1,0-3.3,1.4-3,2.6Z"/>
  <path d="M188.6,817.3v-12c0-.4-1.4-1.8-2.1-.4-1.1,2.1-.4,10.8,2.1,12.4Z"/>
  <path d="M995.2,800.7l3.7-3.7-3.6-1.9c-4,.9-4.1,4.4,0,5.6Z"/>
  <path d="M1043.7,748.5v-3.2c0,0-4.6-2.5-4.6-2.5-5,3.8.2,6.2,4.6,5.7Z"/>
  <path d="M653.4,1197.7c.4,0,.8,0,1.1,0l-1.1-.2v.3Z"/>
  <path d="M161.7,742.8l-4.4,2.5v3.2c4.1.5,9.4-1.9,4.4-5.7Z"/>
  <path d="M546,1197.6c.5,0,1,0,1.5,0v-.3l-1.4.2h0Z"/>
  <path d="M910.1,916.9c-.5-.5-2.7-1.4-3.1-1-2.3,12.5,7.6,5.9,3.1,1Z"/>
  <path d="M294.1,920.6c.4-1.6-.4-3.2-.3-4.8-8.5.7-1.5,12.2.3,4.8Z"/>
  <path d="M960.8,842.1h-2.4c-1.2,11.1,6.8,10.9,2.4,0Z"/>
  <path d="M239.2,850.4c4.4-.3,3.3-5.3,3.3-8.3-3.6-1.8-4.4,7.4-3.3,8.3Z"/>
  <path d="M1175.3,737.9h0s0,0,0,0h0Z"/>
  <path d="M1179.4,737.9h-4c-.2,3.6,3.9,6,7.3,5.7h0v-.2l-3.3-5.5Z"/>
  <path d="M25.4,737.7c-5.4-.8-3.3.8-4.4,2.2-.8,1-2.9,1.6-3.1,3.6,3.5.4,7.7-2,7.5-5.8Z"/>
  <path d="M846.5,1141.5h0c.9,1.6,2.2,1.1,3.5.2.4-.2,3.8-3.1,3.1-3.9-1.8-1.9-7.5-.3-6.6,3.7Z"/>
  <path d="M345.5,1093.1h.1c-2.8,1.8.6,2.7.4,4.9l-6.6,2.1,6.2,2.1-2.1-2.5h4.1l-2.1-6.6Z"/>
  <path d="M855.1,1092.9h0c0,0-2.1,6.7-2.1,6.7l4.1.4-2.5,2.1,6.6-2.1-6.6-2.1c-.2-2.1,3.2-3,.4-5Z"/>
  <path d="M1053.6,848.7c2.9-2.4,4.3-5.5,3.3-9.1-4.4-.9-3.6,6.2-3.3,9.1Z"/>
  <path d="M143.9,839.6c-1,3.6.4,6.7,3.3,9.1.6-3.3.2-6-.9-9.1h-2.4Z"/>
  <path d="M353.2,1138.1h0c-1.3-1.4-3.6-1.1-5.1-.3l-.5,1.7c2.1,1,6.9,6,6.4.6,0-.6-.5-1.6-.9-2Z"/>
  <path d="M40.9,717.6c1.2-1.3,1.5-5.6-.2-5.6h0c-.9,0-4.9,5.9-4.6,7.5.4.4,4.3-1.4,4.8-1.9Z"/>
  <path d="M1107.5,822.2c3.1-.8,6.6-3,5.8-6.6-3.7,1-6.9,2.3-5.8,6.6Z"/>
  <path d="M92.1,822.2c1.9.7,1.5-3.2,1.1-4-.2-.3-5.2-3.1-5.6-2.6h0c-.9,2.6,2.4,5.8,4.6,6.6Z"/>
  <path d="M1164.7,719.5c1-1-5.9-11.8-5.8-4.6,0,3.1,3.1,4.1,5.8,4.6Z"/>
  <path d="M562.3,1042.5c-1.2-1-7.1,4.3-8.2,5.5-.9.9-2.1,1.2-1.7,2.8.7.8,10.1-6.1,9.9-8.3Z"/>
  <path d="M648.5,1050.8c.4-1.6-.9-2-1.7-2.8-1.1-1.1-7-6.4-8.2-5.5-.2,2.2,9.2,9,9.9,8.3Z"/>
  <path d="M523.8,1000.3h0c-2.4,1.2-1.1,8.9.8,9.1,1.2,0,1.1-5.7,1-6.4-.2-1.5-.7-1.8-1.8-2.7Z"/>
  <path d="M676.2,1009.4h0c1.9-.2,3.2-7.9.8-9.1-1.1.9-1.6,1.2-1.8,2.7,0,.7-.3,6.5,1,6.4Z"/>
  <path d="M659.2,1175.1h0c2.3,0,4.8.4,6.2-1.7l-.5-2.4c-3.1-.6-6.1.5-5.7,4.1Z"/>
  <path d="M540.4,1171.6c-5.4-4.1-8.3,5,1.2,3.4.2-1.3,0-2.5-1.2-3.4Z"/>
  <path d="M63.4,817.2l.9-6.5-4.9,3.4c-.8,2.9,1.5,3.7,4,3.1Z"/>
  <path d="M1136.5,811l.7,5.7c1,1.5,4.8.5,4.3-2.4,0-.5-3.8-1.5-3.4-3.7l-1.6.4Z"/>
  <path d="M634.4,1132c-1.2-1.7-7.1.5-6.6,2.9.5,2.5,8.6,0,6.6-2.9Z"/>
  <path d="M566.4,1132c-2,2.9,6.1,5.3,6.6,2.9s-5.5-4.6-6.6-2.9Z"/>
  <path d="M871.3,1106.7c-2.5-2.2-6.2-1.8-9.1-1.2l3.5,3.1c1.1.7,5.6-1,5.6-1.9Z"/>
  <path d="M329.5,1106.7c3.7,3.4,6.1,1.7,9.1-1.2-2.9-.6-6.6-.9-9.1,1.2Z"/>
  <path d="M766.9,860.3c-3.7,0-5.3,2.5-4.1,5.8,3.5.3,5.4-2.9,4.1-5.8Z"/>
  <path d="M840.7,927.4c-3.8-.5-6.3.8-5.8,5,3,.3,5.7-1.9,5.8-5Z"/>
  <path d="M438,866.1c1.2-3.3-.4-5.9-4.1-5.8-1.3,2.9.7,6.1,4.1,5.8Z"/>
  <path d="M365.9,932.4c.5-4.2-2-5.5-5.8-5,0,3.1,2.8,5.2,5.8,5Z"/>
  <path d="M314.6,1118.3c-.4,2.3,3.5,3.7,5.6,1.9,3.7-3.3-5.1-4.4-5.6-1.9Z"/>
  <path d="M880.7,1120.2c2.1,1.9,6,.4,5.6-1.9-.5-2.5-9.3-1.4-5.6,1.9Z"/>
  <path d="M926.8,869c-2.1-4.7-8-2.4-5.7,1.2.9,1.3,5,.9,5.7-1.2Z"/>
  <path d="M279.7,870.2c2.3-3.6-3.6-5.9-5.7-1.2.7,2.1,4.8,2.5,5.7,1.2Z"/>
  <path d="M615.8,1143.5h0c-3,1.9-1.3,3.9-1.3,6.7l3.2-1c.5-1.3.4-6.2-1.9-5.7Z"/>
  <path d="M584.2,1143.6s0,0,0,0c0,0,0,0,0,0h0Z"/>
  <path d="M584.3,1143.6c-1.7,1.2-1.3,3.4-1.3,5.2l3.3,1.4c0-2.9,1.9-5.7-2-6.6Z"/>
  <path d="M527.4,1071.5c.5-.7,0-2.9-1.4-3.2l-5.2.7c-.8,3,6.1,3.3,6.6,2.5Z"/>
  <path d="M526,1068.3s0,0,0,0h0s-.1,0-.1,0Z"/>
  <path d="M678.5,1071.3c1.1-.6,1.7-.9,1.5-2.3-9-3.6-8.3,5.7-1.5,2.3Z"/>
  <path d="M694,1167.7h0c0,0-.8-3.4-.8-3.4.5,1.3-1.7,6.4.4,6.6,1.2,0,6.7-3.7,5.4-4.9l-5,1.7Z"/>
  <path d="M508.4,1169.5l-.8-5.3-.8,3.3-5-1.7c0,2.7,2.9,3.9,4.9,4.6l1.7-.9Z"/>
  <polygon points="508.4 1169.5 508.4 1169.5 508.4 1169.6 508.4 1169.5"/>
  <path d="M576.4,910l-1.7,4.1,5,2.5c.2-2.4,0-6.5-3.3-6.6Z"/>
  <path d="M626.1,914.1l-1.7-4.1c-3.3,0-3.5,4.2-3.3,6.6l5-2.5Z"/>
  <path d="M521.3,975.4c3-.8-.8-5.8-2.5-5.8s-1,6.7,2.5,5.8Z"/>
  <path d="M291.4,874.9l-4.1-2.1c-2.2,5.3,3,8.6,4.1,2.1Z"/>
  <path d="M914.2,876.4c.2-1-.8-2.4-.6-3.6-9.1,2.1-.3,8.8.6,3.6Z"/>
  <path d="M682,969.7c-1.7,0-5.5,5-2.5,5.8,3.5.9,4.7-5.7,2.5-5.8Z"/>
  <path d="M332.6,838.2c-2.5-1.3-4.9-.7-3.8,2.5,1.5,4.3,6.1,1.3,3.8-2.5Z"/>
  <path d="M872.2,838c-.3-.4-3.3-.7-3.9.2-2.6,8.2,6.4,3.4,3.9-.2Z"/>
  <path d="M93.3,723.7c-1.7-.6-2.9,2.7-3.3,3.7h0c-.4,1-1.1,1.6-.8,2.9,4.9.3,4.9-2.7,4.1-6.6Z"/>
  <path d="M1111.6,730.4h0c0-.1-2.5-6.7-2.5-6.7-1.8-1.8-2.5,3.7-1.7,5.2l4.2,1.5Z"/>
  <path d="M627.8,1076.9c1.6,2.4,7.4,1,7.4-2.1-.9-.2-8.5-.2-7.4,2.1Z"/>
  <path d="M573.1,1075.7l-7.4-.8c-1.9,1.6,7.8,6,7.4.8Z"/>
  <path d="M498.9,940.7h0s-2.1,2.9-2.1,2.9l2.9,2.9c2.2-1.1,1.6-6.3-.8-5.8Z"/>
  <path d="M701.9,946.5h0s2.1-2.9,2.1-2.9l-2.9-2.9c-2.2,1.1-1.6,6.3.8,5.8Z"/>
  <path d="M182,919.1h-5l.4,3.4c3.5,2.3,4.6,0,4.6-3.4Z"/>
  <path d="M1023,922.9l.8-3.8h-5c0,3.2.6,5.3,4.2,3.8Z"/>
  <path d="M586.3,1192.4c-.6,3.5,3,4.3,5.8,4.1-.2-3.6-2.4-4.7-5.8-4.1Z"/>
  <path d="M608.7,1196.6c2.8.2,6.4-.6,5.8-4.1-3.4-.6-5.6.5-5.8,4.1Z"/>
  <path d="M851.5,1105.5l-.8-3.8-3.4-6.2c-.5,4,0,8.1,4.1,9.9h.1Z"/>
  <path d="M765.3,1018.5h0c-3.4,0-5,2.9-5.8,5.8,3.5.4,5.7-2.4,5.8-5.8Z"/>
  <path d="M352.7,1095.5l-3.3,9.9c1,.2,3.8-3.3,3.9-3.6h-.1c.4-1,1.1-5.8-.5-6.3Z"/>
  <polygon points="435.5 1018.5 435.5 1018.5 435.5 1018.5 435.5 1018.5"/>
  <path d="M435.5,1018.5c0,3.4,2.3,6.2,5.8,5.8-.8-2.9-2.4-5.7-5.8-5.8Z"/>
  <path d="M419,1125.3c-.4,2.4.7,1.3,1.8,1.9,2.5,1.2,3.7,1.8,6.5.6-1.8-2.5-5.5-3.3-8.3-2.5Z"/>
  <path d="M528.3,971.3c-4,.3-2.6,5.7-2.5,8.3,3.1-1.6,2.5-5.4,2.5-8.3Z"/>
  <path d="M900.4,940.7c1.3-.8,2.7,0,3.7,0,5.5-.8-2.6-8.6-3.7,0Z"/>
  <path d="M672.5,971.3c0,2.8-.6,6.7,2.5,8.3,0-2.5,1.5-8-2.5-8.3Z"/>
  <path d="M66,769.7c-.6,3,5.5,1.5,5.8,1.2,2.1-2.5-3.9-4.9-5.8-1.2Z"/>
  <path d="M1134.8,769.7c-1.9-3.7-7.9-1.3-5.8,1.2.3.3,6.4,1.8,5.8-1.2Z"/>
  <path d="M621.1,1110.4c2.9,1.4,4.4-.2,6.6-2.1-2.1-2.6-6.6-1.3-6.6,2.1Z"/>
  <path d="M573.1,1108.4c2.2,1.9,3.7,3.4,6.6,2.1,0-3.3-4.5-4.7-6.6-2.1Z"/>
  <path d="M773.6,1127.8c2.8,1.2,3.9.6,6.5-.6,1.1-.5,2.3.5,1.8-1.9-2.8-.8-6.5,0-8.3,2.5Z"/>
  <path d="M296.8,940.6c1,.2,2.4-.8,3.7,0-1.1-8.6-9.2-.9-3.7,0Z"/>
  <path d="M766.9,913.3c-2.3-.5-5.5,1-5,3.7.6,2.8,6.3-1.4,5-3.7Z"/>
  <path d="M433.8,913.3c-1.3,2.3,4.4,6.5,5,3.7.6-2.7-2.6-4.2-5-3.7Z"/>
  <path d="M766.9,994.9c-1.9-3.7-6.8,2-5.8,2.9,2.3.3,5.4,0,5.8-2.9Z"/>
  <path d="M433.9,994.9c.4,2.9,3.5,3.2,5.8,2.9,1-.9-3.9-6.6-5.8-2.9Z"/>
</svg>