<?xml version="1.0" encoding="UTF-8"?>
<svg id="Layer_1" xmlns="http://www.w3.org/2000/svg" version="1.1" viewBox="0 0 1200 1200">
  <!-- Generator: Adobe Illustrator 29.0.0, SVG Export Plug-In . SVG Version: 2.1.0 Build 186)  -->
  <polygon points="69.5 893.5 70.9 898.6 76.6 895 74.9 892.5 69.5 893.5"/>
  <path d="M1138.3,772.2l.2,1.1c-2.2,2.3,0,6.4-1.6,8.7-.7.9-2.3.3-2.9.9-.6.6-.3,2.4-1.3,3.3-4.1,3.7-20.4,4.7-21.6,13.9-5.6-4.5-12.1-9-18.9-4.1-2-6.1-8-6.6-13.9-7.2.5-2.2,3.3-1.7,4.6-3.1,6.8-6.9,4.6-24,1.8-32.6-.7-2.3-6.4-14-7.8-15.3-3.8-3.7-13.8-4.5-18.2-8.5l1,3.1c-9.6,0-15.9,9.3-21.5,15.4-1-5.8.4-10.4-4.1-14.9,1.8-2.3,5,.2,6.1-3.6-2.2-2.5-8.3-2-9.2-2.5-2.4-1.5-4.7-9.1-10.6-7.8-.4,0-5.1,4.9-5.3,5.2-4.7,6.9.2,20-1.6,27.6,5.8-2.8,9.6,2.1,13.8,2.1s6.7-2,9.3-3.1c3,1.9,0,4.4-.3,6.9-.6,6.5,1.4,12.4,6.5,16.6,2.7,2.2,11.2,4.6,1.5,5.6-1.2-2.6-6.9-3.8-7.9-4.8s-.2-3.1-3-4.7c-6.7-4-11.3,3.2-17.9,1.9.7,4,2.6,7.1.5,11.3-2.7-2.5-3.2-12.4-6.3-13.2s-7.4.3-7.4,4.4c2.3,3.3,5.7,2.7,9.2,2.1l1,7.8c-.6.6-14.1-2.6-15.6-3.3-3.4-1.6-6.7-8-10.6-7.9-3.9,0-10.4,12.4-8.7,16.4l3.1-.6,7.1,10.3c1.2,2.9-5.5.9-6.2,1.5-.8,11.2,14.6,8.2,22.1,9.2,9,1.2,18.9,2.6,26.5,6.4,1.1.6,2.5,1.6,2.8,2.8-6.1-1.3-12.7-3.9-19-4.1-3.3,0-8.3,1.4-10.1,1.1-.7,0-.9-3.4-3.7-2.1,1.7,2.2-.6,3.6-.6,5.2,0,2.2,3.4,9.6,5.1,11.3,1.6,1.5,4.9,1.6,5.7,4h-10.7c-2.9,0-13.5-1.4-11.8,3.6.5,1.4,3.3.9,3.1,2.6-5.1-1.2-13.4,8-15.9,8.2-.7,0-12.2-2.3-12.8-2.6-1.8-.9-2-4.1-4.1-4.6l2,6.1-18.5,7.2,5,3.2c-1.4,3.8,0,7.8,0,10.7s-5.2,8.6-5.8,8.7l-12.6-2.1c-.8-3.5,4.2-1.6,5.7-4.1,5-8.3-8.1-11.1-13.8-7.2l-1.6-4.1c-1.5,3.1-6.4,3.6-8.1,5-1.6,1.3.8,4.5-2.7,2.1l1.5,4.1,1-2c4.7,1.8-1,5,2.1,6.1,1,.4.6-4.4,2.5-4.1l1.6,5.1c-3.6,1.2-7.2,5-10.1,6.4-2.1,1-10,2.2-10.5,2.8-2.4,2.4-.4,5.3-3.2,7.1-1.3.8-3.9,1.1-5.5,1.2l4.1-3.1c-7.9-.6-3-6.8-8.2-8.7l1-2.1c-7.7.6-16.6-5.9-22.5,1.2l4,11.2c3-.2,5.5-2,6.7-4.7,3.1,3.1,7.7,3.6,11.3,1.1l2.5,4.5c0,1.8-7.4,1.4-8.7,1.8-.3,0-1.4,3.2-4.6,1.8l-.6,3c-3.9,1-9.5-7-16.9-3.6-5.2,2.4,2.7,11,5,13.5l-1.9,6.5c-2.1-.8-1.7-4.5-4.1-5.7-1.3-.6-5,0-5.9.8-3,2.6.3,12.5.8,16.1-3.8,0-5.6-3.9-8.5-5.3-6.3-3.1-17.6-.9-13.6,7.4.9,1.8,4.5,1.6,3.6,3.6l-4.1,2.6c.3-1-1-2.2-1-2.6v-15.4c0-.6-4.6-9.7-5.8-10.6-7.1-2.3-8.3,4.4-10.2,4.8-4.3.9-7.7-11.9-9.8-15.6-3.1-5.3-8.3-8.3-8.5-14.1l-1.1-1c-3.4,2.6-6.9.3-9.7,3.9-1.2,1.5-2.1,5.3-3,5.9-2.3,1.5-11.3-.6-12.1,5.1,1.9,2.8,4.2,5.2,7.9,4.6l-2.1,4.1,5.1-3.1c-1.7,4.9,3.2,13.3,3.1,16.8,0,.3-3.5,3.4-3.7,3.5-1.7.4-7.8-2.4-8.7-1.9,1.8,3.2-1.5,3.8-1.7,4.4-2.8,6.8-2.3,12.4,0,19.4,1.2,3.7,6.5,10.5,5.4,13.1-2,4.4-11.6,5.1-14.7,2.9-1-.7-1.4-4.6-2.5-5.7-1.6-1.5-5.5-1-5.8-1.4s-.4-6.7-2.3-9.5c-1.2-1.8-3-2.6-4.6-4.2,3.7-.3,6.1-.5,4.9-5h0c-2.1-.5-4.3-3.2-6-.7-1.9,2-.6,3.6.7,5.2-7,.5-11.6-1.5-9.1,9.2l-8,1.2c-2.8,5.4-3.5,16.9,3.6,19.1,9.6,2.9,8.1-7.3,11.5-9.6.7-.5,3.7,1,5.5.6.8-.2.8-2,1.2-2.1,3-.8,2.4,1.8,4.2,3,2.7,1.9,5.1-1.6,4.5,2.1-1.3,1-8.8,4.9-9.1,5.3-.8,1.2.6,4.7-1.7,6l-.5-4.1c-7,1.7-12.9-1.8-16.1,7-2.6,6.9.6,7.3,4.3,12.5,2.7.7,1-2.4,1.5-3.1,3,1.8,5.5-.9,8.2-2,1.3,1.6-4.9,9.7-6.8,10.1-2.1.4-5.4-3.1-8.6-1.4l-4.6,6.7-.9-2c-6.6,1-11.2,2.7-15.5,8.1l-3.6-3.1c.9,4,.7,7.1-2.1,10.2-1,1.1-1.2-4.2-3.1-2-1.1,1.3.5,3.2,2.1,3.6l-2.1,4.6c-4,.6-3.1-3.7-3.3-3.9-.7-.6-15.9-6.3-16.8-6.3-5.2-.2-4.3,7.4-10.7,5.1-1.2-4,3-3,3.9-5.8,2.5-8.1-3.8-13-9-17.8,4-1.9,8.7-.3,12.6-1.3,3.6-.9,6-6.6,11-4.9l-5.7-10.2-4.5-4.7,3.1-2.6c-4.4,1.4-6.5-2.5-9.3-3.6-1.7-.6-3.5-.4-5.3-.9-2.7-.6-3.8-3.6-7.4.4-1.6,1.8-1.5,5.2-3.6,6.1,0-5.7-.9-8-4.6-12.3l-3.6,9.2,4.1-1c.5,4,3,7.6,4.6,11.3.6,1.4,0,3.4.6,4.3.4,1,4.8,4.9,5.1,6.9-1.7,1.3-12.5-7.3-14.4-8.7l2-1.5c-3.4,1.9-9.1-.2-11.3.4-1.7.5-2.8,2.6-4.1,3.1-2.2.9-13.1,5.4-14,5.6-2.3.4-3.5-1.1-5.4-1.9-1.5,3.4,2,4.4,2,4.7.5,6.1-3.7,13.2,2.1,19.4-3.1,1.7-6.1,5.2-5,9,1.6,5.3,8.9,1.3,11.1,2.2,1.1.5,2.3,2.7,3.6,3.6,2.7,1.8,6.6,4.2,9.8,5.1l-3.1,8.2c3.6.8,2.3-4.5,3.6-6.2l1.2-.9c5.1.3,9.1-2.3,12.7,1.9,0-3.2,5.1-3.5,7.7-4.2l1.5,3.7c4.2-1.2,6.4,3.2,9.8,3.5,1.1,0,9.1-1.5,10-2,1.9-1,.7-4.1,2.8-4.1l-1,9.2c-2.5,1.3-1.8-2-2.6-2.1-1.9-.2-2.9,1.5-4.7,1.6-9.5.6-18-4.9-29.4-1.7-3.8,1.1-9.2,4.1-10.5,7.9-.8,2.2-1.3,10.1-.9,12.3,0,.7,3.6,8.8,3.9,9.2.5.5,10.6,7,11.2,7.2,5.2,1.5,12.6.8,17.7-.8,3.5-1.1,8.6-7.2,10,.3-13.4,5.4-10.8,31.1,6.2,19.5-.5,17.8,15.4,10.9,19-1,2.9,2.7,6.9,2.6,10.1,4.2,2.9,1.4,5.1,5.2,7.1,6.2,1.9,1,14.9,3.1,16.5,2.7.4,0,7.9-3.6,8.3-3.9,1.4-.9.9-3,2-3.9,1-.9,4.6-1.2,5.6-2.6,2.8-4.3,2.4-11.3,1.8-16.1l6.5,3.8c.9,2.1-4.9,5.8-5,8.5l4.1-2c.3,10.3,0,17.8,12.6,14.1,3.6-1.1,8.6-9.5,10.6-13,1.9-3.3,1.6-6.9,5.6-9.8l-5.1-2.5,5.1-1c0,6.7,7.5,4.8,11.6,6.2,1.3.5,0,2.4,1.7,2l2.1-12.3c-5.2-1.5-6.3,7.6-8.8,8.2-1.4.3-3.4-1.9-3.3-3.4.3-4,5.7-4.1,8.3-5.9.9-.6,9.1-8.7,9.5-9.2,2-3.3,0-13.9-2-17.5-1.3-2.5-3.7-4.6-5.4-7-.9-1.2-1.3-3.9-1.5-4.1-.9-.8-7.3.4-8-3.2h6.7c0,0,.9-2.1.9-2.1l2.6,4.1v-4.1h5c2.1-8.2,3.9-16.1-1.9-23,1.4-1.6,4.1-3,6.2-2.6,0-1.2-.5-3.5.5-4.1l4.6,5.1c0-1.7.4-3.6-.5-5.2-.7-1.1-3.2-.3-2.6-2.5l5.1-2.6c-3,4.4,4.1,11.1,4.1,11.8s-5.3,4-4.1,6.7c-2.8-1.5-4-8.7-7.2-9.2v3.1l-4.1,1h6.1v3.6l-3.1,1,6.1.6,1.2,5.9c2.3-.5,4.9,2.1,6.3,2,2.8,0,7.3-4.9,10.9-2.9-2.1-5,.3-9.2,0-14.4l-2.5,5.1c-4.5-1-7.4-6.5-7.7-10.9-.2-2.3,3-.4,2.1-3.5-4.2,2.1-7.9-1.3-2.5-3.1-1.3-4.5,1.7-1.8,1.4-5.2-1.3,1.6-8.9-1.2-7.2-3.1,10.3-6.3,19.7-5.3,31.2-4.2,2.6,6.2,4.4,13.8,12.9,12.2,3.6-7-5.5-11.6-4-17.3l-4-1.6c2.8-4.1,8.1-2.1,12.2-3.2,2.8-.8,9.2-5.6,9.7-5.5,7.3.4,7.3,5.2,9.5,6,3.5,1.2,8.1-.6,11.6-.8-3.2,3.6-8.6,3.5-10.2,8.8-1.8,6-.4,11.2,1.3,17,.6,2.2,6.3,11.4,2.2,12.1-3.7-2.3-15-4.2-17.7-6.4-1.4-1.1-2-6.7-5.9-6.9l-8.6,2.1v7.1c0,0-9.8.9-9.8.9-1.9-1.1-.8-3.8-3.6-3l-.5,3.1c-2.4-2.3-8.3-7.6-11.3-8.2-1.5-.3-1.8,0-1.5,1.5l2,2.6-5.1,3.1,6.1-1.6c.5.3,7.9,7.6,8.3,8.2,1,1.7.6,4.2,1.6,4.7,1.3.7,4.1,0,5.5.6,6.5,2.5,13.7,7.9,21.5,4.4,0,4.8-4.8,11,.5,14.4,1.5.9,3.4.8,4.6,1.6.9.6,10.2,9,9.4,4-.7-4-9.7-7.4-9.9-9.1l-.2-10.2c3.7-3.4,9.5-5.8,7-11.9,6,3.5,8.6,13.5,12.7,17.5,1.7,1.6,3.7,1.8,5.1,3.1,3.2,3,15.3,22.7,21.6,13.2.3-.5,3.6-10.9,3.7-11.7.3-2.7-1.4-6.8-1-8.1.2-.7,8.5-8.6,10.2-11.4,1.2-2.1,1.6-4.4,2.1-6.7,2.8-.4,1.6.3,2,1.5.9,2.3,1.4,6.8,2.6,8.7.6.9,6.5,6.5,6.6,6.9.3,1.3-.2,3,0,4.4l2.5-2c2.4,1.9,6.9,6.1,10.1,5,11-9,0-21.1-.3-31.7-2.1-.6-3.5,1.7-5.2,1.6-2.4-.2-5.8-3-8.4-2.4-2.1.5-9.8,7.8-9.8,2.6s1-6.5-1.3-11l5-1.2v-4c-2.1-1.4-7.5,1.8-8.1,1.6-2-.9-3.6-5.8-8-4.9l-1.2-4.9c2.9-.5,8.7,7,10.1,2.4,2.7-8.7-8.2-18-3.7-22.7,1.2-1.2,17.1-1.8,19.7-.3l6.3-10.1,8.7,2c-2,3.9.6,2.7,1,3.8,1.5,4.3,0,6.9,5.5,8.7,6.3,2.1,17.1,1,17.9-7,.7-6.9-6.7-6.1-9.9-8.1-1.1-.7-2.8-4.5-4.7-4.5h-15.9c4.6-11.3-8.3-16.7-14.4-23.6,7.2-4.7,14,5.8,20.5,7.7,3.1.9,5.8,0,8.7.5,2,.3,4.3,2.5,6.1,1.9,1.3-.4,1.8-2.9,3.4-3.9,4.1-2.7,12.3-6.1,16.8-8.3-2.4-3.9.4-2.7,1-3.8,5.9-11.3.5-12.8-3.1-22.9,12,2.6,23.2-8.4,32.3,3.1l1.5-2-3.1-2.1c3.4.4,6.1-.4,9.2-1.6,2.2-.8,14.2-7.4,15.7-8.7,2.3-2,4.8-10.3,8-12.8s10.1-1.6,13.8-4.7c3.1,0,10.4,12.2,17.5,13.3,14.5,2.1,1.2-15.2,2.5-16.3,5.9-.8,8.2-2.3,14.4,0l-.9-7.7c6.3-6,8.4,1.1,14,3.4,4,1.6,10.5.5,9.2,5.1l6.5,2.3-2-2c3.6.3,7.1,1.6,10.7,2.4,1.2-2.6,2.4-5.2,3.6-7.8-5.1-1.9-11.3-3.3-16.3-3.8.9-6.2-2.3-7.2-6.2-10.7,0-5.4,19.7.5,23.1.5s4.1-.9,6.2-1.7c7.5-18,14.2-36.5,20-55.4-2.3-.6-4.1-2.6-6-3.2-6.3-1.8-24-3.4-29.3.7Z"/>
  <path d="M454.5,934.6v3.8c1.5.8,3.2,1,5,1.2,1.4-1.8,3.1-3.6,1.1-5.7h-.1c-1.7-2.4-4,.2-6,.7Z"/>
  <path d="M65.2,855.2l.7-.7c-.2,0-.4,0-.6,0v.8Z"/>
  <path d="M586.6,1009.1c5.8-6.2,1.6-13.2,2.1-19.4,0-.3,3.6-1.3,2-4.7-1.9.8-3.1,2.2-5.4,1.9-.9,0-11.9-4.7-14-5.6-1.3-.5-2.4-2.6-4.1-3.1-2.3-.6-8,1.5-11.3-.4l2,1.5c-1.9,1.4-12.7,10-14.4,8.7.3-2.1,4.6-5.9,5.1-6.9.4-1,0-2.9.6-4.3,1.7-3.7,4.1-7.3,4.6-11.3l4.1,1-3.6-9.2c-3.8,4.3-4.6,6.6-4.6,12.3-2.1-.8-2-4.3-3.6-6.1-3.6-4-4.7-1-7.4-.4-1.8.4-3.6.2-5.3.9-2.8,1-4.8,5-9.3,3.6l3.1,2.6-4.5,4.7-5.7,10.2c5.1-1.7,7.5,4,11,4.9,3.8,1,8.6-.6,12.6,1.3-5.2,4.7-11.6,9.7-9,17.8.9,2.8,5.1,1.9,3.9,5.8-6.4,2.2-5.5-5.3-10.7-5.1-.9,0-16.2,5.7-16.8,6.3s.7,4.5-3.3,3.9l-2.1-4.6c1.5-.3,3.2-2.3,2.1-3.6-1.9-2.2-2.1,3.1-3.1,2-2.8-3.2-3-6.3-2.1-10.2l-3.6,3.1c-4.3-5.4-8.9-7.1-15.5-8.1l-.9,2c-3.2-2.3-2.4-7.4-7.1-7.2-2,0-4.5,2.2-6.1,1.8-1.9-.4-8.1-8.4-6.8-10.1,2.7,1.1,5.2,3.9,8.2,2,.5.7-1.2,3.8,1.5,3.1,3.7-5.2,6.9-5.6,4.3-12.5-3.2-8.7-9.1-5.2-16.1-7l-.5,4.1c-2.3-1.3-.9-4.7-1.7-6-.3-.4-7.7-4.3-9.1-5.3-.6-3.7,1.8-.2,4.5-2.1,1.2-.8,1.6-2.9,2.2-3,2.9-.8,2.3,1.9,3.2,2.1,1.9.4,4.8-1.1,5.5-.6,3.4,2.3,1.9,12.5,11.5,9.6,7.1-2.2,6.4-13.7,3.6-19.1l-8-1.2c2.5-10.8-2.2-8.8-9.2-9.2-1.6,2.1-3.7,2.7-5,4.7-1.9,2.9-1.9,9.2-2.3,9.5-.4.4-4.2,0-5.8,1.4-1.2,1.1-1.6,5-2.5,5.7-3.1,2.2-12.7,1.6-14.7-2.9-1.1-2.6,4.2-9.4,5.4-13.1,2.2-7,2.7-12.6,0-19.4-.2-.6-3.6-1.2-1.7-4.4-.9-.5-7,2.3-8.7,1.9-.2,0-3.7-3.2-3.7-3.5,0-3.6,4.9-11.9,3.1-16.8l5.1,3.1-2.1-4.1c3.7.6,6-1.8,7.9-4.6-.8-5.7-9.8-3.6-12.1-5.1-.9-.6-1.8-4.4-3-5.9-2.9-3.6-6.4-1.3-9.7-3.9-2.4,1.3-.9,4.2-1.8,5.9-.5.9-6,6.1-7.7,9.2-2.1,3.7-5.5,16.4-9.8,15.6-1.9-.4-3.1-7.2-10.2-4.8-1.2.9-5.8,10-5.8,10.6v15.4c0,.4-1.3,1.5-1,2.6l-4.1-2.6c-.9-1.9,2.7-1.8,3.6-3.6,4.1-8.4-7.3-10.5-13.6-7.4-2.9,1.4-4.7,5.4-8.5,5.3.5-3.7,3.8-13.5.8-16.1-.9-.8-4.6-1.5-5.9-.8-2.4,1.2-2,4.9-4.1,5.7l-1.9-6.5c2.3-2.5,10.2-11,5-13.5-7.4-3.5-13,4.6-16.9,3.6l-.6-3c-3.2,1.3-4.3-1.8-4.6-1.8-1.3-.4-8.6,0-8.7-1.8l2.5-4.5c3.7,2.5,8.2,2,11.3-1.1,1.2,2.6,3.7,4.5,6.7,4.7l4-11.2c-5.9-7.1-14.8-.6-22.5-1.2l1,2.1c-5.2,1.9-.3,8.1-8.2,8.7l4.1,3.1c-8.7.7-5.8-5.4-8.7-8.3-.6-.6-8.5-1.8-10.5-2.8-2.9-1.4-6.5-5.2-10.1-6.4l1.6-5.1c1.9-.3,1.5,4.5,2.5,4.1,3-1.1-.6-3,0-4.1l2.1-2,1,2,1.5-4.1c-3.5,2.3-1-.8-2.7-2.1-1.7-1.4-6.6-1.9-8.1-5l-1.6,4.1c-5.7-3.9-18.9-1.1-13.8,7.2,1.5,2.5,6.5.6,5.7,4.1l-12.6,2.1c-.5,0-5.7-7.5-5.8-8.7,0-2.9,1.3-6.9,0-10.7l5-3.2-18.5-7.2,2-6.1c-2.1.6-2.3,3.8-4.1,4.6-.6.3-12.2,2.6-12.8,2.6-2.5-.3-10.9-9.4-15.9-8.2-.3-1.7,2.6-1.1,3.1-2.6,1.6-5-8.9-3.6-11.8-3.6h-10.7c5.1-3.5,10.4-8.6,10.8-15.3,0-1.5-2.3-3-.6-5.2-2.9-1.3-3.1,2-3.7,2.1-1.8.3-6.8-1.2-10.1-1.1-6.3.2-12.9,2.8-19,4.1.3-1.3,1.7-2.3,2.8-2.8,7.6-3.7,17.5-5.1,26.5-6.4,7.4-1,22.8,1.9,22.1-9.2-.6-.6-7.4,1.4-6.2-1.5l7.1-10.3,3.1.6c1.7-4-4.8-16.3-8.7-16.4-3.9,0-7.1,6.4-10.6,7.9-1.6.7-15.1,3.9-15.6,3.3l1-7.8c3.4.6,6.8,1.2,9.2-2.1,0-4-4.3-5.2-7.4-4.4-3.2.8-3.6,10.7-6.3,13.2-2-4.2-.2-7.2.5-11.3-6.6,1.3-11.2-5.9-17.9-1.9-2.7,1.6-2,3.7-3,4.7s-6.6,2.2-7.9,4.8c-9.7-1-1.2-3.4,1.5-5.6,5.1-4.2,7.1-10.1,6.5-16.6-.2-2.6-3.4-5-.3-6.9,2.6,1.1,6.5,3.1,9.3,3.1,4.2,0,8-4.9,13.8-2.1-1.8-7.7,3.1-20.8-1.6-27.6-.2-.3-4.9-5.2-5.3-5.2-5.9-1.3-8.2,6.3-10.6,7.8-.9.5-7,0-9.2,2.5,1.1,3.8,4.3,1.3,6.1,3.6-4.5,4.5-3.1,9.1-4.1,14.9-2.5-.4-2.5-3.7-3.4-4.8-.7-.8-9.1-8.2-9.6-8.5-2.4-1.4-5.7-2.1-8.5-2.1l1-3.1c-4.4,4-14.4,4.7-18.2,8.5-1.4,1.3-7,13-7.8,15.3-2.7,8.6-5,25.7,1.8,32.6,1.3,1.4,4.1.9,4.6,3.1-5.8.6-11.9,1.1-13.9,7.2-6.8-4.9-13.3-.4-18.9,4.1-1.2-9.2-17.5-10.1-21.6-13.9-1-.9-.7-2.7-1.3-3.3-.5-.5-2.2,0-2.9-.9-1.7-2.3.6-6.4-1.6-8.7-5.3-4-23-2.5-29.3-.7-1.9.6-3.7,2.5-6,3.2,5.7,18.7,12.3,37,19.8,54.9,2,.8,3.7,2.1,6.4,2.2,3.4,0,23.1-5.9,23.1-.5-3.8,3.6-7.1,4.5-6.2,10.7-5.1.5-11.2,1.9-16.3,3.8,1.2,2.6,2.4,5.2,3.6,7.8,3.6-.8,7.1-2,10.7-2.4l-1.3,1.3c6.9.6,5.3-4.7,5.7-5.1.7-.8,7.2-1.5,9.4-2.4,3.1-1.3,5.6-4.1,8.3-5.9l5.6,2.5-.9,7.7c6.1-2.3,8.5-.8,14.4,0,1.3,1.1-12,18.5,2.5,16.3,7.1-1.1,14.4-13.3,17.5-13.3,3.7,3.1,10.6,2.1,13.8,4.7,3.2,2.5,5.7,10.8,8,12.8,1.5,1.3,13.5,7.8,15.7,8.7,3.1,1.2,5.8,2,9.2,1.6l-3.1,2.1c1.3,4,3.8-.7,6.6-2.1,8-4.1,17.9,3.5,27.2,1.1-.6,5.4-6.1,8.9-6.1,15s2.8,8.7,5,8.7l-.9,2.9c4.5,2.3,12.8,5.6,16.8,8.3,1.5,1,2.1,3.5,3.4,3.9,1.8.6,4-1.6,6.1-1.9,2.9-.4,5.7.4,8.7-.5,6.4-1.9,13.3-12.4,20.5-7.7-6.1,6.9-18.9,12.2-14.4,23.6h-15.9c-1.9,0-3.6,3.8-4.7,4.5-3.2,2-10.6,1.2-9.9,8.1.8,8.1,11.6,9.2,17.9,7,5.4-1.8,4-4.4,5.5-8.7.4-1.1,3,0,1-3.8l8.7-2,6.3,10.1c2.6-1.5,18.5-.9,19.7.3,4.6,4.7-6.3,14-3.7,22.7,1.4,4.6,7.2-2.9,10.1-2.4-.2,6.5-2.4,4.1-5.1,5.7-1.6,1-3.1,3.7-4.2,4.1-.5.2-5.9-3-8.2-1.6v4c.1,0,5.1,1.2,5.1,1.2-2.3,4.5-1.3,7-1.3,11s-7.6-2.2-9.8-2.6c-2.6-.6-6,2.2-8.4,2.4-1.7,0-3.1-2.2-5.2-1.6-.3,10.6-11.3,22.7-.3,31.7,3.2,1.1,7.7-3.1,10.1-5l2.5,2c0-1.4-.3-3.1,0-4.4,0-.5,6.1-6.1,6.6-6.9,1.2-1.8,1.7-6.4,2.6-8.7.5-1.2-.8-2,2-1.5.5,2.3.9,4.6,2.1,6.7,1.6,2.8,9.9,10.7,10.2,11.4.4,1.3-1.3,5.3-1,8.1,0,.8,3.4,11.2,3.7,11.7,6.3,9.5,18.3-10.2,21.6-13.2,1.4-1.3,3.5-1.4,5.1-3.1,4.1-4,6.8-14,12.7-17.5-2.5,6,3.3,8.4,7,11.9l-.2,10.2c-.3,1.7-9.2,5.2-9.9,9.1-.9,5,8.4-3.4,9.4-4,1.2-.8,3.1-.7,4.6-1.6,5.3-3.4.5-9.6.5-14.4,7.9,3.5,15-2,21.5-4.4,1.4-.5,4.2,0,5.5-.6,1.1-.6.6-3,1.6-4.7.4-.6,7.8-8,8.3-8.2l6.1,1.6-5.1-3.1c-.2-.3,4.4-4.8.5-4.1-3,.6-8.9,5.9-11.3,8.2l-.5-3.1c-2.9-.8-1.8,1.9-3.6,3l-9.7-.9v-7.1c-5.5,0-8.2-4.6-12.3.4-1.1,1.3-1.6,3.8-2.3,4.4-2.7,2.2-14,4.1-17.7,6.4-4.1-.8,1.6-10,2.2-12.1,1.7-5.8,3.1-11,1.3-17-1.6-5.3-7-5.2-10.2-8.8,3.5.3,8.2,2.1,11.6.8,2.2-.8,2.3-5.5,9.5-6,.6,0,6.9,4.8,9.7,5.5,4.1,1.1,9.4-.9,12.2,3.2l-4,1.6c1.4,5.7-7.6,10.3-4,17.3,8.4,1.5,10.3-6.1,12.9-12.2,11.5-1.1,20.8-2.1,31.2,4.2,1.8,1.8-5.9,4.7-7.2,3.1-.3,2-.2,2.1,1.8,2.2-2.4,3.9,3.1,3.2,2.3,5.5-1,2.7-4.8.2-5.1.5-.9,3.1,2.2,1.1,2.1,3.5-.3,4.3-3.3,9.9-7.7,10.9l-2.5-5.1c-.3,5.2,2.1,9.3,0,14.4,3.7-2,8.2,2.8,10.9,2.9,1.4,0,4.1-2.5,6.3-2l1.2-5.9,6.1-.6-3.1-1v-3.6h6.2l-4.1-1v-3.1c-3.2.6-4.4,7.7-7.2,9.2,1.2-2.7-4.1-6.1-4.1-6.7s7.1-7.4,4.1-11.8l5.1,2.6c.7,2.3-1.9,1.4-2.6,2.5-.9,1.5-.5,3.5-.5,5.2l4.6-5.1c1,.6.4,2.9.5,4.1,2.1-.4,4.8,1,6.2,2.6-5.8,6.9-4,14.8-1.9,22.9h5v4.2l2.6-4.1.9,1.9h6.7c-.8,3.8-7.1,2.6-8,3.4-.3.2-.7,2.9-1.5,4.1-1.7,2.4-4.1,4.4-5.4,7s-4,14.2-2,17.5c.3.6,8.6,8.6,9.5,9.2,2.6,1.8,8,1.8,8.3,5.9.1,1.4-2,3.6-3.3,3.4-2.5-.5-3.7-9.7-8.8-8.2l2.1,12.3c1.7.4.4-1.6,1.7-2,4.1-1.4,11.6.6,11.6-6.2l5.1,1-5.1,2.5c4,3,3.7,6.5,5.6,9.8,2,3.5,7,11.9,10.6,13,12.4,3.7,12.3-3.7,12.6-14.1l4.1,2c0-2.7-5.9-6.5-5-8.5l6.5-3.8c-.6,4.8-1,11.9,1.8,16.1.9,1.4,4.6,1.8,5.6,2.6,1,.9.6,3.1,2,3.9.4.2,7.8,3.7,8.3,3.9,1.6.4,14.5-1.7,16.5-2.7,1.9-1,4.2-4.8,7.1-6.2,3.2-1.6,7.3-1.6,10.1-4.2,3.6,11.9,19.5,18.8,19,1,16.9,11.6,19.6-14.1,6.2-19.5,1.4-7.5,6.5-1.3,10-.3,5.1,1.6,12.6,2.4,17.7.8.6-.2,10.8-6.7,11.2-7.2.3-.4,3.8-8.5,3.9-9.2.4-2.2-.2-10.1-.9-12.3-1.4-3.8-6.8-6.9-10.5-7.9-11.4-3.2-19.9,2.3-29.4,1.7-1.8,0-2.8-1.8-4.7-1.6-.8,0,0,3.4-2.6,2.1l-1-9.2c2,0,.9,3.1,2.8,4.1.9.5,8.9,2.1,10,2,3.4-.2,5.6-4.6,9.8-3.5l1.5-3.7c2.6.7,7.8.9,7.7,4.2,3.5-4.3,7.6-1.6,12.7-1.9,3,1,.6,7.7,4.7,7l-3.1-8.2c3.1-1,7-3.3,9.8-5.1,1.3-.9,2.5-3.2,3.6-3.6,2.2-.9,9.5,3.1,11.1-2.2,1.1-3.8-1.9-7.3-5-9Z"/>
  <path d="M271.1,752.8c6-.6,16.4,5.1,20.2,3.9,1.5-.5,2.2-2.6,4.4-2.9,2.6-.4,6.5,1.8,9.7,1.1,0,2.9.8,6,2.2,8.6.5.9,5.9,9.2,6.3,9.6.5.4,1.9,0,2.8.9,4.5,4.5,2.6,11.4,1.8,17-.4,2.8-4,7,.2,9,1.8-2.8,2.9-7.9,4.6-10.2.4-.5,6.3-5.5,6.7-5.6,4.1-1.9,15.6,1.4,18-2.6,2.6-4.3-1.4-7.7-5.7-6.7-3.4-3.7,2-4.4,4.6-6.7,5.3-4.7,12.2-13.2,10.6-20.8-1.7-8.1-5.5-6.6-10.3-10-2.3-1.6-6-6.1-9-6.7-3.3-.7-5.1.6-8.2.6,1-4.2,3.6-8.3,3.2-12.8,0-1.1-3.5-8.6-4.1-9.3-.9-1.1-13.3-4.2-15.2-4.3-5.5-.5-14.2,4.3-18.1,8.1-3.7,3.6-5.2,9-7.8,13.2l-3-3.1c.1,2.9.6,5.8-2.1,7.7,4.9.7-1.4,9.7-3.6,11.8-4.3,4.2-11.5,6.3-15.9,9.8-1.4,1.1-3.5,2.4-3.2,4.5.6.6,9.2-3.9,10.9-4.1Z"/>
  <path d="M858.5,771.9l-1.1,3c-3.7-.5-6.9.7-6.2,5.1,1,6.3,14.1,2.1,18.5,4.1.4.2,6.3,5.2,6.7,5.6.8,1,4.3,10.6,5.1,10.2,3.4-2.7.2-6-.3-9-.8-5.6-2.7-12.5,1.8-17s2.4-.5,2.8-.9c.5-.4,5.8-8.7,6.3-9.6,1.5-2.5,2.1-5.7,2.2-8.6,3.1.7,7-1.5,9.7-1.1,2.1.3,2.8,2.4,4.4,2.9,3.8,1.2,14.3-4.5,20.2-3.9l.3.2c1.7.2,10.3,4.7,10.9,4.1.3-2.1-1.7-3.4-3.2-4.5-4.4-3.5-11.6-5.6-15.9-9.8-1.7-1.6-6.1-8.6-5.7-10.7l2.1-1.1c-2.6-1.9-2.2-4.8-2.1-7.7l-2.6,3.1c-.4-1.3-1.8-1.9-2.1-2.4-1-1.7-1.1-3.8-2.3-5.5-4.3-6.5-13.9-14.1-22.1-13.4-1.4,0-14,3.3-14.7,3.8-.8.6-4.5,8.5-4.6,9.8-.4,4.5,2.1,8.7,3.2,12.8-2.3.4-4.5-1.1-6.6-1-4,.2-7.5,5-10.6,7.1-5,3.5-8.6,2.1-10.3,10-1.9,9.1,8.5,20.6,16.2,24.4Z"/>
  <path d="M455.4,863.7c-2.2,3.4.2,11.7-4.1,12.3v1c3-.4,2.1,3.9,3.3,6.5,4.1,9,10.5,11.1,17.3,16.6,9.5,7.7,3.3,20.1,7.6,26.2,2.6,3.6,3.4-7.8,4.1-8.2,5.9,2.2,14.5,9.4,20,5.1-1,8.1,7,12.8,14.1,9.6,2.1-1,5.5-11.1,4.1-13.5-.2-.3-5.6-4.7-5.9-4.9h0c-1.1-.5-2.9,2.3-4.6,1.7l-1.5-2.1c-.8,2.2-3.5,5.9-5.1,7.5-.8.9-.7.9-2.1.7.7-4.3-2.6-6.3-4.6-9.3-.7-1.1-.3-3-.8-3.8-.6-1-5.9-1.8-6.9-3.8,1-3,4.8-3.9,5.7-6.6,1-3-.6-4.8-.3-6.6.3-2.1,7.3-10.4,8.5-15,.7-2.9,0-7.4,1.4-9.6,1.5-2.3,8.9-1.3,7.3-5.3-1.2-3-6.4.2-9.5-.7-3.1-.9-6.5-10.4-14.1-8-.4-2,2.4-.5,3-1.1.9-.9.8-6.6-3.4-2.9-.5.4-.4,1.7-.7,1.9-.5.4-7.5-4.3-11.4-3.9-6.5.8-12.3,3.3-15.7,9-12.5-15.5-27.4,7.2-5.6,7.2Z"/>
  <path d="M712.4,851.3c-2.5-6.4-6.8-1.4-4.5,1,.6.6,3.3-.9,3,1.1-7.6-2.3-10.9,7.1-14.1,8-3.1.9-7.6-2-9,.2l-.5,3.1c10.4,1.3,6.9,5.1,8.7,12.3,1.1,4.6,8.1,12.9,8.5,15,.3,1.8-1.3,3.6-.3,6.6.9,2.7,4.7,3.6,5.7,6.6-1,2-6.3,2.8-6.9,3.8-.5.8,0,2.7-.8,3.8-2,3-5.3,5.1-4.6,9.3l-2.1-.7-6.1-7.5c.3,4.8-4,0-5.1.4-.4.2-5.7,4.6-5.9,4.9-1.1,2,1.7,11.6,3.1,12.9,5.1,5,17.4-1.1,15.2-9,5.5,4.3,14.2-2.9,20-5.1.7.4,1.5,11.9,4.1,8.2,4.4-6.1-1.8-18.5,7.6-26.2,6.7-5.5,13.2-7.6,17.3-16.6,1.1-2.4.3-6.6,3.1-6.5v-.9c-4.3-.6-1.9-9-4.1-12.3,21.8,0,6.9-22.7-5.6-7.2-5.5-9-18.1-11.5-26.7-5.2Z"/>
  <path d="M749,876.9c0,0-.1,0-.2,0h0c0,.1.2,0,.2,0Z"/>
  <path d="M1050.3,972.4h0c-.8.2-.7,1.7-2,2.3-2,.9-9.6,3.8-11.5,3.9-6.3.3-11.8-5-18-2.1-.6-.7,3.1-6.9-1.3-11-1.2-1.1-6.7-3.4-8.4-3.4-5.5,0-10.6,5.5-15.9,3.1v5.1c-8.6-1.4-11.4,5.5-4.1,10.8l-3.1,2,3.6,3.6,1.5-3.1c2.9-.7,4.6,2.5,6.9,2.9,4.9.8,7.8-3.3,7.7-7.8,5.2-2.8,11.6,1.6,15.7,2,2.5.2,4.8-1.2,7-.9,2.1.3,17.7,6.6,19.5,8,1.6,1.2,3.3,3.5,4.9,6,6.6-7.6,13-15.3,19.2-23.2-4.6.4-10.1,3.5-12.8,3.6-1.7,0-4.2-2.9-8.9-1.8Z"/>
  <path d="M194.4,978.8c-.2,4.5,2.8,8.7,7.7,7.8,2.3-.4,4-3.6,6.9-2.9l1.5,3.1,3.6-3.6-3.1-2c7.3-5.2,4.5-12.2-4.1-10.8v-5.1c-5.8,2.4-11.5-4.1-17.7-2.9-7.4,1.5-10.6,7.1-8,14.2-9.6-2.1-13.9,4.2-24.5.4-4.9-1.8-6.5-5.4-11.9-4.4-1.5.3-2.7,1.9-4,1.8-2.5,0-8.3-3.3-12.7-3.6,6.2,7.9,12.6,15.6,19.1,23.1,1.7-2.5,3.4-4.8,4.9-6h.1c2.1-1.7,16.1-7.3,18.8-7.8,2.9-.6,5,.9,7.7.7,4.1-.3,10.5-4.8,15.7-2Z"/>
  <path d="M877.2,1128.7h-.1c-3.3-2.6-14.1,0-13.3-6.6l-1.1,1.9c-3.8,2.8-7.7-10.2-12.2-10.1l10.3,24.1-3.1.5c-.2,1.5,1.9,1.2,2.7,2.1,6.2-3,12.4-6.1,18.5-9.3-.2-.8-.6-1.7-1.7-2.6Z"/>
  <path d="M337.8,1124.3c-1-.2.2-2.6-1.5-2.1.8,6.5-10,4-13.3,6.7-1.1.9-1.6,1.8-1.7,2.6,6.1,3.2,12.3,6.3,18.5,9.3.8-.9,3-.6,2.7-2.1h0c0-.1-3.1-.1-3.1-.1-.5-.5,4.2-11.4,5-13,1.6-3.4,6-7.5,4.8-11.6-4.8,1.2-6.7,11-11.3,10.3Z"/>
  <path d="M1192.3,622.2c-6.6,5-.6,14.3,4,18.4.4.4,1.2.9,2.3,1.6.6-8,1-16,1.2-24.1-3.5,1.9-7.1,3.8-7.5,4.1Z"/>
  <path d="M8.4,622.6h-.1c-.3-.2-4.2-2.4-8-4.4.2,8,.6,16.1,1.2,24,1-.6,1.8-1.2,2.3-1.6,4.6-4.1,10.1-12.6,4.6-18Z"/>
  <path d="M379.2,842.3v-.2c0,0,0-4.1,0-4.1-1-1.4-12.5,13.2-13.4,14.9,4.2,2,5.3-4.9,9.2-5.6,1,3.9-4.8,5.2-4.1,8.7.8,3.5,8.8-4.1,8.2,1.6-7.3,1.1-15.7,4.3-21.9,8.4-3,2-5.1,4.9-7.5,6.8-2.2,1.7-8.7,2.2-5.1,6.4l9.8,2c-3.8,8.5,9.8,4.7,1-1l6.5-2.1,4,4,5.9-2.4-5.1-2.5c2-1.4,10.8-1.8,11.3-2.1,0,0-.9-1.4-.5-2.1.7-1.2,3.5-1.7,5-3.1,1.4-1.3,5.2-7.9,4.7-9.6l-3-2.1c8.5-5.7,6.5-20.2-5.1-15.9Z"/>
  <path d="M855.3,875.3c-1.1-1.1-3.8-1.3-5.3-2.5h0c-2.1-1.7-4.2-4.6-6.9-6.4-6.3-4.3-15.1-7.6-22.5-8.8-.5-5.6,7.5,2,8.2-1.6.7-3.5-5.1-4.8-4.1-8.7,4.2,1,4.7,6.8,9.2,6.1l-8.8-12.2-4.5-3.2v4.1c-11.7-4.3-13.6,10.2-5.1,15.9-5.8,1.1-1,9.2,1.6,11.7,1.5,1.5,4.3,2,5,3.1.4.6-.6,2-.5,2.1.5.3,9.3.7,11.3,2.1l-5.1,2.1c-1,1,5.4,3.1,6.6,3.1s3-7.7,9.9-2c-8.8,5.8,4.8,9.5,1,1,.6-.6,15.4-.7,10-5.9Z"/>
  <path d="M607.4,769.1h0c8.8-1.1,14.8-12.8,9-19.8-6.3-7.8-13.8,3.9-16.8,3.4-3.1-.5-6.9-7.6-13.3-5.8-7.7,2.2-5.8,16.6,1.6,20.5,8.6,4.6,8.6-1.7,12.5-1.3,2.6.3,2.5,3.5,7,3Z"/>
  <path d="M277.7,1072.8h0c0,.1-3.1-10.1-3.1-10.1l4.1-2.1c-8.7.7-22.2-1.8-27.8,7.6-2.7,4.6,1.4,6,2,9.5.5,3-3.4,14.7,4.8,9.6,2.2-1.4,3.4-6.2,4.2-6.3h8.6c0,0-1,6.2-1,6.2,6.2-3,10.2-9,13.3-14.9l-1.5-1.5-3.6,2Z"/>
  <path d="M949.2,1068.4c-5.5-9.4-19-6.9-27.8-7.6l4,2-3.1,10.1c-.3.3-5.9-4.4-5.1-.5,3.1,5.9,7.1,11.9,13.3,14.9l-1-6.1h8.6c1,2.5,5.2,9.5,8.8,7.1,2.3-1.6,0-8.1.3-10.4.6-3.5,4.7-4.9,2-9.5Z"/>
  <path d="M685.4,899.1h-.1c.9-.3,7.4-7.4,7.8-8.1,1.8-3.6-.9-13.9-3.7-15.6-4.3-2.6-12.1,1.7-15.8,1.3-1.9-.2-5.2-4.6-7.6-.5-2.5,4.2,2.9,6.1,2.9,6.5,0,.8-1.1,2.6-1.1,4.1,0,10.4,7.5,15.7,17.6,12.3Z"/>
  <path d="M534.2,876.2h-.1c-2.4-4-5.7.3-7.6.5-3.7.5-11.5-3.8-15.8-1.3-.9.6-4.7,9.1-4.8,10.4-.4,3.4,5.9,12.3,8.9,13.3,10,3.3,17.6-2,17.6-12.3s-1.2-3.3-1.1-4.1c0-.4,5.4-2.3,2.9-6.5Z"/>
  <path d="M206.5,1004.6c-.7-1-5.3-5.2-6.5-5.4l-14.6,4.5c4.5,3.6-2.1,10.3-.6,13.8.5,1.3,6.2,7,7.8,7.7,13.1,5.2,19.7-12.3,13.9-20.6Z"/>
  <path d="M1014.6,1003.7l-14.6-4.5c-9.6,3.8-11.2,17.1-4.5,24.1,4.4,4.7,11,3.1,15.5-.8h-.1c9.4-8.2-1.1-10.7,3.7-18.8Z"/>
  <path d="M671.3,804.3h0c.6.5,8.5,5.9,9.3,6,2.7.5,10.3-.7,12.5-2.3,12.9-9.6-13-26.6-23.1-16.9,0,4-1.5,10.1,1.3,13.2Z"/>
  <path d="M520.2,810.1c.6-.2,9.2-6.4,9.5-7l.3-12.1c-8.2-5.2-20.8-2.2-25.3,6.6-4.7,9.4,8.1,14.7,15.5,12.5Z"/>
  <path d="M1171.7,717h0c1,7.4,7.5,10.9,14.2,12.9.9-4.1,1.7-8.1,2.6-12.2-5.6-1.7-11.4-2.4-16.8-.7Z"/>
  <path d="M28.3,717c-5.4-1.6-11.1-1-16.8.7.8,4.1,1.7,8.2,2.6,12.2,6.6-2.1,13.2-5.6,14.2-12.9Z"/>
  <path d="M833.8,1024c-.3-.4-2,0-2.5-.5-1.1-1.1-1.4-3-2.9-3.8l-2.5,1.5,5.1,15.9-9.2-3.1c1.2,10,10.7,15.1,18,20.5h0c2.7,2,4.7,6.2,8.7,6.2.6-12.5-7.9-22.7-13.8-32.9-.7-1.1-.2-3.1-.8-3.8Z"/>
  <path d="M371.7,1019.7c-.8,2.9-5.2,4-5.4,4.3-.6.7-.2,2.7-.8,3.8-5.9,10.2-14.3,20.4-13.8,32.9,4,0,6-4.2,8.7-6.2h-.1c7.3-5.4,16.8-10.5,18-20.5l-9.2,3.1,5.1-15.9-2.5-1.5Z"/>
  <path d="M658.6,832.4h-.1c3.1,1.2,20.2,5.7,18.4-.9-.5-1.8-2.8-2-3.7-3-3.3-3.7,5-5.8-.3-11.5-4.2-4.6-10.5-2.6-11.3,3.6-16.5-6.8-16.4,6.7-3,11.8Z"/>
  <path d="M525.2,821h0c0,.1,2.6,5.8,2.6,5.8-.3,2.7-6.8,3.5-4.2,7.1,3.1,4.2,32.7-3.4,27-14.2-4.5-2.3-7.7-.4-12,.8-1.5-8.8-11.6-7.5-13.3.5Z"/>
  <path d="M1044.7,673.6c1.1,0,6.4-1.5,6.7-2,.5-.7,1-4.8.8-6h0c-1.9-9.2-17.7-10.7-25.1-8-3.3,10.2,9.1,17,17.6,16Z"/>
  <path d="M147.8,665.7c-1.5,7.2,6.4,9.1,12.3,8.2,1.2-.2,9.1-4.4,10.2-5.2,3.5-2.8,2.9-7,2.6-11h0c-7.4-2.9-23.2-1.3-25.1,8Z"/>
  <path d="M383.5,1090.3l2-6.1-3.1-1-.5,4.1c-2.1-3.5-4.5-3.2-7.4-4.5-.4-.2-.4-1.3-.6-1.3-4.7-2.4-9,12-9,15.7,0,6.7,7.8,9.5,12.4,5.1,2.3-2.2,1.4-4.1,2.2-5.4.7-1.1,5.9-2.7,6.9-4.9l-3-1.6h0Z"/>
  <path d="M828.3,1081.2l-6.5,2.5-3.7,3.5-.5-4.1-3.1,1,2,6.1-3,1.6c1,2.2,6.2,3.8,6.9,4.9h0c1.7,2.7,0,6.6,6.4,7.6,12.8,2.1,7.9-18.1,1.5-23.1Z"/>
  <path d="M760.9,787h0c-3.9.5-8,3.4-9.6,7,.2,5.8,6.5,12.4,12.4,12.4,16.5,0,8.2-20.8-2.8-19.4Z"/>
  <path d="M438.2,806.2h0c3.8-.5,11-7.8,10.6-11.6-.4-4.7-9.2-8.7-13.4-7.6-9.4,2.3-13.9,21.6,2.7,19.2Z"/>
  <path d="M786.3,1144.4c-2.3-2.1-2.1-3.3-6.8-1.4s-3.8,20.5.2,22.9h-.1c1.1.6,5.2-1.5,7-1.4,3.2,0,6.6,5.7,6.5-3.8l-3.1-.5c1.7-7.5,1.9-10.6-3.7-15.8Z"/>
  <path d="M415.6,1142.1h0c-.3-.1-3.7,3.5-3.9,3.8-3.5,5.3-3,8.3-1.7,14.3h-3c-.6,10.1,3.1,4.5,6.3,4.4,1.7,0,5.8,2,7,1.3,4-2.3,7-25.6-4.8-23.8Z"/>
  <path d="M493.8,681.1c6.3-5.9,4.9-15.7-4.9-14.1-23.5,3.8-10.7,28.5,4.9,14.1Z"/>
  <path d="M720.7,684.2c11.4-6.7-5.1-19.9-14.2-17.3-11.4,3.3,2.6,24.1,14.2,17.3Z"/>
  <path d="M281.7,847.2c.5-4.4-2.5-9.3-7.2-9.2h.1v-1.5c5.3-3.6,2.4-11-4.1-7.7l-1.2-5c-16-3.6-10.8,26.2,3.2,14.2-.3,5.6,3.3,10.3,9.2,9.2Z"/>
  <path d="M937.6,824.1l-6.6-.6h0c0,0-1.7,5.3-1.7,5.3-5-2-6.3-.7-7,4.5l2.9,4.7c-4.7,0-7.7,4.8-7.2,9.2,5.9,1.1,9.5-3.6,9.2-9.2,10.8,9.1,16.7-5.3,10.3-13.9Z"/>
  <path d="M276.4,1101.9c-.5-.6-4.9-1.4-8.2-1.9,3,2,6.1,4,9.1,6,.1,0,.3-.2.4-.2-.7-1-.7-3.2-1.3-3.8h0Z"/>
  <path d="M922.2,1105.7h0c0,0,.3.1.4.2,3-1.9,5.9-3.8,8.8-5.8-2.4.4-4.8,1-7,1.2l-2.3,4.4Z"/>
  <path d="M265.5,973.4s0,0-.1,0c0,0,0,0,0,0h0Z"/>
  <path d="M250.5,961c-2.1,2.5-3.1,11.1,0,13.5,4.1,3.3,10.1-2.5,14.9-1.1-2.7-6.4,1.9-5.7,2.9-7.4,1.3-2.2-1.3-7.3-3.2-8.7-.9-.7-6.6-2.8-6.9-2.4,1.9,6.9-5.5,3.6-7.7,6.1Z"/>
  <path d="M951.6,967.2c-.8-7-3.6-7-9.7-8.3h0v-4c-5.1,0-11.7,5.3-10.4,10.6.3,1.3,6.2,2,3.1,7.9,7.1,0,18.4,6.9,17-6.2Z"/>
  <path d="M962.3,678.6c4.3,6.5,2.4,13.2,10.1,17.6,18.8,10.7,7-21.2-2.2-19.9h0c-.7,0-1.6,1.3-2.4,1.4-1.9.3-3.9-1.9-5.5.9Z"/>
  <path d="M233.7,689h0c.8-2.1.8-4.4,1.6-6.6.4-1.1,2.1-2.2,2.2-2.9.6-3.6-4.1-1.6-5.4-1.8-.9,0-1.8-1.6-3.1-1.6-2.7,0-9.6,8.4-10.7,10.9-6.3,15.1,10.7,13.5,15.3,2Z"/>
  <path d="M465.6,1131.4c6.8-1.2,10.3,4.3,15.8-3.1,5-6.8,2.1-11.5-.5-18.4-6.8-2.4-17.1,19.7-15.3,21.5Z"/>
  <path d="M719.1,1109.9c-2.6,6.8-5.5,11.6-.5,18.4,5.5,7.5,9,1.9,15.8,3.1,1.8-1.8-8.6-23.9-15.3-21.5Z"/>
  <path d="M451.8,924.1h0c0,.1-7.7,5.2-7.7,5.2,3-4.5,3.7-8.9,3-14.2-7.1-4.2-9.1,13.6-9.2,17.9,0,1.9,2,1.3,2.5,2.7.4,1.3-.6,3.1-.2,3.6.5.7,9.7,7.9,8.1,1.7l-2.1-1c3.6-1.2,12.7-16,5.7-15.9Z"/>
  <path d="M752.8,915.7c-.5,5.2.2,9.3,3.1,13.7-3.1,0-3.5-4.1-6.9-4.9-8.1-2,.8,14.6,4.8,15.7-3.9,1.7-2.7,5.3,1.6,2.6.5-.3,4.3-3.1,4.4-3.3h.2c.4-.7-.6-2.4-.2-3.7.4-1.3,2.3-1.2,2.4-2,.4-2.4-2.6-16.9-4.5-18.5-1.3-1.1-4.5-1.2-4.9.4Z"/>
  <path d="M407,1101.7l-5-1.1-.2-6.9c-11.4-4.5-7.6,5-9.7,9-1.2,2.3-8.1,6.2-4.5,9.7,5,4.8,22.9-5.8,19.4-10.7Z"/>
  <path d="M807.9,1102.7c-1-1.9,0-6.3-.9-8-2.7-4.8-12.7-1.8-9,5.9-2.9.6-5.8,0-5.1,3.6,1,5,14.6,11.7,18.9,8.7h0c5-3.5-2.6-7.7-3.9-10.2Z"/>
  <path d="M250.1,764.7c2.1-1.5,5.3-4.8,2.6-6.7h0c-7.3-5.2-10.4,7.6-13.9,4.2.3-2.6,0-8.4-2.3-10-7.2-4.6-20,9.7-16.6,15.1,2.4,3.9,8.8,3,12.2.9,2.4-1.4,2.8-4.6,5.7-5.6,2.8-.8,5.1,7.1,12.4,2.1Z"/>
  <path d="M976.1,755.9c-7.8-8.2-16-6.1-14.8,6v.2c-4.8,1.2-3.9-1.9-6-3.7-3.1-2.5-7-2.2-9.3,1.1-.2.5,3.3,4.4,3.5,4.6,2.8,2,4.3,2.6,7.8,1.6,1.8-.5,1.8-1.9,2.3-2.3,1.3-.8,1.9-1.4,3.5-.7,7.8,12.6,26.3,7,13-6.8Z"/>
  <path d="M588.6,1081.7h0c-2.5-1.6-3.9-3.2-5.4-4.3-5.9-4.2-13.5-5.7-20.2-2.4,2.3,2.1,1.4,6.4,2.3,8,1.4,2.4,10.3,4.7,13.4,4.1,4.8-.9,2.9-1.2,8.6-.9,3.9.2,4.6-2.2,1.3-4.5Z"/>
  <path d="M617.2,1077c-1.1.8-1.3,2.3-2.3,3.1-1.4,1.2-6.3,2-5.7,4.6.6,3,6.3.3,8.5.7h0c4.5.7,3.9,3,10.6.9,7.9-2.5,5.6-5,8.7-11.3-6.2-3.2-14.2-2-19.8,2Z"/>
  <path d="M223.4,795c-5.4,8.4,3.8,23.7,13,16.1h0c6-4.9,3.5-14.8-4.6-15.9-2.9-.4-5.5,1.1-8.4-.2Z"/>
  <path d="M962.4,798.6h0c-4.9,5.9.8,15.3,7.6,14.6,7-.7,10.4-12.5,6.8-18.2-5.3,1.2-10.1-1.6-14.3,3.6Z"/>
  <path d="M309.5,817.4c-7.9-1.5-19.3-2.5-18.5,8.7h0c.9,13.6,13.9,8.6,16.6.1.6-2-.2-3.4,0-4.9.3-1.4,2.3-2,1.8-3.9Z"/>
  <path d="M906.2,833.9c2.7-3.2,4.2-10.6,1.5-14.1-4.4-5.6-11.3-2.6-17.1-2.3h-.1c2.6,4.6.7,9.1,4.7,13.3,2.4,2.5,7.9,4.9,11,3.1Z"/>
  <path d="M196.7,1036h0s-.6,3.1-.6,3.1c-1.4-.4-3-.3-4.6.3,2.7,2.5,5.5,5,8.3,7.5.6-1,1.1-2.1,1.1-3.2,0-2.1-2.2-6.5-4.2-7.7Z"/>
  <path d="M1002.3,1036c-2.3,3.9-3.8,7.5-2.3,11.2,2.8-2.5,5.6-5,8.3-7.6-2.2-.4-4.7-.5-4.9-.6-.6-.7.9-3.3-1.1-3Z"/>
  <path d="M514.8,1000.2l.5,4.1c5.5-2.9,4.2-6-1.5-7.2l.5,2-4.6-1v3c-1.6-.2-3.5.2-5.1,0h0c1.5-4,12.2-24.6,2.6-23.6-3.2.3-7.9,10.5-8.3,13.4-.3,2.1.5,10.5,1.5,11.9s2.9.4,3,.6c.7.9,0,4.1,2.7,4l3.1-1.1c.9-1.6.3-3.5.5-5.2h0c1.6.3.5,5.3,5.1-.9Z"/>
  <path d="M690.8,1006.3l3.1,1.1c2.9,0,2-3.1,2.7-4,0,0,2,.8,3-.6,1-1.4,1.8-9.9,1.5-11.9-.4-2.9-5-13.1-8.3-13.4h0c-9.6-1,1.1,19.6,2.6,23.6-1.7.2-3.4-.2-5,0,0-1,0-2,0-3h0s-4.6,1-4.6,1l.5-2.1c-5.7,1.2-7,4.3-1.5,7.2l.5-4.1,2.1,3.1c2.8.9,1.5-1.7,3-2,.2,1.7-.4,3.4.5,5.1Z"/>
  <path d="M686.2,740.1h0c6.2,3.1,8.6-8.2,7.9-12.2-.6-3.4-5.7-10-10.3-8.7-.9.3-3.9,3.1-4.3,4-1.4,3,3.8,15.4,6.7,16.9Z"/>
  <path d="M514.4,739.6c2-1.5,6.5-11.6,6.6-14,.2-3.6-4.7-7.5-8.5-6.4-1.8.5-6.3,7.1-6.6,8.7-.7,4.3,2.2,16.4,8.5,11.7Z"/>
  <path d="M195.1,919.1c-.9,1.6-7,2.5-6.7,6.7l9.2-3.6c10.9,21.5,18.2-10,4.6-11.3h0c-7.1-.7-5.4,5.4-7.1,8.2Z"/>
  <path d="M1004.9,919.1c-1.9-3.2-.3-10.5-8.8-7.8-11.9,3.8-3.5,31.3,6.2,10.9h0l9.2,4.1c.8-4.6-5.7-5.5-6.7-7.2Z"/>
  <path d="M1038.2,693.4l-1.5-5.1c-4-1.8-25.2-13.5-27.2-6.6h0c-2.2,7.5,23.5,13.3,28.7,11.7Z"/>
  <path d="M163.3,688.3l-1.5,5.1c5.2,1.6,30.9-4.2,28.7-11.7-2-7-23.2,4.8-27.2,6.6h0Z"/>
  <path d="M134.3,573.1h0c7.6,2.4,21.2-3.5,17.7-13.1-4.6-3.4-18,1.5-19.6,6.2-.8,2.2-.4,6.2,1.9,6.9Z"/>
  <path d="M1067.7,571.1c3.1-10.2-17.3-14.6-19.8-11.1-5.7,10.2,17.7,17.9,19.8,11.1Z"/>
  <path d="M450.9,690.6c-12.6,1.5-21.9,15.5-1.3,13.1,8.3-1,12.9-14.5,1.3-13.1Z"/>
  <path d="M761.8,702.8c4.6-6.5-11.8-14.2-17.4-12.3-4.2,1.5-1.2,9.6,1.4,11.7,2.5,1.9,14.6,2.5,16,.6Z"/>
  <path d="M423.5,778.6l1.6,5.2c9.4-1.1,12.8-13.6.5-8.2h-.1c.6-2.9-1.7-6.7-4.1-7.8-10-4.6-14.4,18.7,2.1,10.8Z"/>
  <path d="M775.5,783.7l1.1-5.1c3.8,2.2,7.6,2.5,10.8-1,2-11.7-12.1-14.6-12.9-2.1-12.7-5.4-8.6,7.9,1,8.2Z"/>
  <path d="M28.8,759.1c2,0,15.3-1.6,12.3-5.2l-3.6-1c1.8-3,.4-6.2-2.5-7.8-4.7.4-12.9,2.6-13,8.3,0,4.9,2.5,5.9,6.8,5.7Z"/>
  <path d="M1165,745.1c-2.9,1.6-4.3,4.8-2.5,7.8-11.2,3,4.2,6.1,8.7,6.2,4.2,0,6.8-.9,6.8-5.7s-8.2-7.9-13-8.3Z"/>
  <path d="M404.5,643.3c2.2-1,9.9-9.6,9.5-11.7l-3.1-4.5h0c-11.2-4.8-20.3,22.2-6.4,16.2Z"/>
  <path d="M795.5,643.2c13.9,6.1,4.8-21-6.4-16.3h0c0,0-3.1,4.6-3.1,4.6-.4,2.1,7.3,10.7,9.5,11.7Z"/>
  <path d="M320.8,636.4c8.7-8.9-3.2-15.5-9.9-8.3-7.3,7.8,1.4,17,9.9,8.3Z"/>
  <path d="M889.1,628.1c-6.7-7.2-18.6-.6-9.9,8.3,8.5,8.7,17.1-.5,9.9-8.3Z"/>
  <path d="M548,843.4h0c-8-2.8-12.2,14-10.7,19.6l4.1,1.8c.7-3.6,13.1-19.2,6.6-21.4Z"/>
  <path d="M662.5,863.5c2.8-3-2.5-24.6-11.1-19.9h-.1c-3.5,7.8,5.4,14.1,7.3,21.1.9-.7,3.4-.8,3.9-1.2Z"/>
  <path d="M829.9,891.3s0,0,0,0c0,0,0,0,0,0h0Z"/>
  <path d="M842.2,899.5c-4.5-2.6-13.4-.7-12.3-8.1-3.9-.5-1.9,2.9-2,3.1-.7.5-6.1-2.4-5.1,2.5.6,3.4,4,3.3,5.6,5.7,1.6,2.5.4,5.7,1.6,8.3,2.5,1.8,2.8,7.8,4.9.9l-1.9-.6c2-3.3,4.1-8.1,3.1-11.8.2-.2,5.7,2.9,6.1,0Z"/>
  <path d="M366.5,914.9c2.1.8,1.3-3.5,3.5-3.9,1.2-2.6,0-5.9,1.6-8.3,1.9-2.9,7-3,5.6-8.3h-5.1c1-1.9.5-3.3-2-3.1,1.2,7.5-7.8,5.6-12.3,8.2.4,2.9,5.9-.3,6.1,0-1,3.7,1.1,8.5,3.1,11.8-2.7.3-2.8,2.7-.5,3.6Z"/>
  <path d="M330.3,853.1c.4-1.2,1.4-3.7.7-4.7h0c-.3-.4-3.4-1.2-4.3-1-3.5.8-13.2,16.6-12,21.4,2.6,2.6,14.6-12.9,15.6-15.7Z"/>
  <path d="M885.3,868.8c2.3-2.3-8.5-20.5-12-21.4-4.6-1.1-4.9,2.1-3.6,5.7,1,2.8,13,18.3,15.6,15.7Z"/>
  <path d="M250.4,722c7.1-3.7,5.3-13.9-1.7-13-13.2,1.6-9,18.6,1.7,13Z"/>
  <path d="M955.2,722.7c9.5-3,2.2-14.9-5.4-13.8-8.9,1.3-3.7,16.6,5.4,13.8Z"/>
  <path d="M76.2,533.5h-.1c1.3-2.7-2.8-5.4-5.9-5-4.5.6-13.6,9.9-10,13.7,3.3,4.3,14.7-6.1,16-8.7Z"/>
  <path d="M1130.1,539.5c18,13.9,8.8-14.3-2.9-11.1-7.6,2-.6,8.4,2.9,11.1Z"/>
  <path d="M1091.2,938.4c-1.4-.5-1.5-2.4-1.9-2.7-.9-.5-1.9-.2-2.9-.3l3.1,4.1-6,2.2c-1.8,2.9,2.9,4.2,6.3,4.8,1.8-2.6,3.6-5.2,5.4-7.8-1.5,0-2.9,0-4.1-.3h0Z"/>
  <path d="M110.5,939.6l3.1-4.1c-3.6-1.2-3,2.4-4.7,2.9-1.2.4-2.6.3-4.1.2,1.8,2.6,3.6,5.2,5.4,7.8,2.4-.5,4.7-1.1,6.4-1.8v-2.9h-.1c0,0-6-2.1-6-2.1Z"/>
  <path d="M627,779.5c1.9-.6,4.3-6.3,3.7-8.4-.5-1.5-7.6-5.6-9.5-5.5h0c-10.1.1-2.3,16.5,5.8,13.9Z"/>
  <path d="M573,779.4c8.6,2.9,16-15,5.1-13.9-1.5,0-8.3,4.2-8.8,5.5-.4,2.9,1.3,6.6,3.7,8.4Z"/>
  <path d="M1106.8,733.6c1.3,2.1-3.7,9.2,1.6,9.9,3.9-.3,6.6-9.5,8.8-12.6-3.3-4.4-11.1-6.3-15.3-2.2h0c.2,2.7,4.7,4.4,4.9,4.9Z"/>
  <path d="M91.6,743.6h0c5.2-.9.2-7.9,1.6-10,.3-.5,4.7-2.2,4.9-4.8-4.2-4.1-12-2.2-15.3,2.2,2.2,3,4.9,12.3,8.8,12.6Z"/>
  <path d="M56.8,742.9c-9.8,1.7-12.4,9,1.8,7.9,17.1-1.2,13.9-10.6-1.8-7.9Z"/>
  <path d="M1134.5,742.9c-16.8,3.1,14.8,12.6,16.7,6.4,1.8-6.1-12.8-7.1-16.7-6.4Z"/>
  <path d="M405.6,739.6c-4.2-5.7-17.3,10.3-16,15.4,2.6,2.4,19.5-10.6,16-15.4Z"/>
  <path d="M794.4,739.6c-3.5,4.8,13.4,17.9,16,15.4,1.3-5.1-11.8-21.2-16-15.4Z"/>
  <path d="M496.4,784.7l-6.1,1c-.5-.5,6.6-11.6-4.5-10.2h-.1c-9.1,1.1-6.9,16.9,2.5,12.3v3.1c.9.9,10.1-2.5,8.2-6.2Z"/>
  <path d="M446.1,686.6c4.8,6.8,18-4.2,13-8.4-3.1-2.6-18.1,1.2-13,8.4Z"/>
  <path d="M753.7,680.3c-2.3-2.3-14.7-5.4-13.9,1.1,1.5,11.7,21.8,6.6,13.9-1.1Z"/>
  <path d="M711.9,787.8c6.3,3.8,10.9-4.9,6.9-10h-.1c-2.8-3.5-11.3-3.2-11,2.2,0,2.2,2.3,3.5,2.1,5.7l-5.6-1c-4.4.4,8.9,11.5,7.7,3.1Z"/>
  <path d="M721.1,989.9l3.9-12.7c-11.2-11.6-16.2,10.4-3.9,12.7Z"/>
  <path d="M478.9,989.8c12.3-2.3,7.3-24.3-3.9-12.7l3.9,12.7Z"/>
  <path d="M1036.2,923.2c-1.1-.4-4.5-.7-5-1.2-.7-.9.6-6.4-4.8-4.6-1.7.6-1.3,3-2.6,4.2-1.4,1.3-4.7,1.5-6.1,3.1,1.7,3.5,19.9,6.6,18.5-1.5Z"/>
  <path d="M182.2,924.2c-4-1.3-7-2.3-8.1-6.7l-4.7.4c-.7,1.2-.1,3.3-.7,4-.9,1.1-5.4,0-5,2.8,1.2,7.2,20,1.8,18.5-.5Z"/>
  <path d="M380.9,1074c1.4-3.3,7.1-16.5-.9-14.2-5.9,1.7-11,19.6.9,14.2Z"/>
  <path d="M820.3,1074.8c11.2,3.7,4.3-17.4-3.1-15.2-3.5,1.1.8,14.4,3.1,15.2Z"/>
  <path d="M803.7,701.1c13.9,1.3,6.4-13.4-2.8-10.6-5.4,1.6-1.9,10.2,2.8,10.6Z"/>
  <path d="M391.2,700.5c13.5,3.4,14.1-13.7,2.2-10-2.7.8-7.8,8.6-2.2,10Z"/>
  <path d="M1024.8,1023.7h0c2.4-2.3,4.7-4.7,7-7.1-1.2-.6-2.3-.9-3.1-.9-3.5.3-4.4,4.5-3.9,8Z"/>
  <path d="M170.7,1015.7h0c-.7,0-1.5.4-2.4.8,2.3,2.4,4.7,4.8,7.1,7.2.5-3.8-.6-8.4-4.6-8Z"/>
  <path d="M835.1,760.7h0c7.8-2.2,2-13.7-4.4-11.7-.9.3-4.7,3.9-4.7,4.4,2.7,3.3,3.7,8.8,9.1,7.3Z"/>
  <path d="M365.8,749h-.1c-2.8.9-6.1,7.2-3.3,10.1,5.3,5.4,9.2-1.3,11.7-5.7-2.2-2.7-4.3-5.7-8.3-4.4Z"/>
  <path d="M58.1,619.6c-5.2-4.6-19.5,11.5-17.4,13.3,4.1,1.1,19.8-9.9,17.4-13.3Z"/>
  <path d="M1159.4,632.9c2-1.8-12.2-17.9-17.4-13.3-2.6,3.7,15.3,15.3,17.4,13.3Z"/>
  <path d="M901.7,852.5l1-13.3c-2.9,3.5-5.2-.3-7.6.2h0c-6.9,1.2-1.2,16.9,6.5,13.1Z"/>
  <path d="M297.2,839.1h0s1,13.3,1,13.3c1.7-.2,4.5.6,5.9-.2,1.6-.9,4.4-7.4,3.6-9.7-2.5-6.7-6.9.7-10.5-3.4Z"/>
  <path d="M368.6,678.1h0c6.2-6.4-2.6-11.1-8.4-5.9-1.1,1-2.5,3.5-2.2,5.1,2.1,6.4,6.8,4.6,10.6.8Z"/>
  <path d="M842.1,677.2h0c.2-1.5-1.2-4-2.2-5-5.7-5.2-14.6-.4-8.4,5.8,3.9,3.9,8.6,5.7,10.6-.8Z"/>
  <path d="M389.8,717.3l2,4.6c19.7,1,8.6-20.5-2-4.6Z"/>
  <path d="M808.2,722c1.2-.8,2.3-5.1,1.3-6.5-1.7-2.5-7.6-5.5-10.3-3h0c-6.5,5.8,5.2,11.8,9,9.5Z"/>
  <path d="M967.1,958.2c-6.6,2.1,7,11,10.9,10,8.2-2.3-3.4-12.3-10.9-10Z"/>
  <path d="M228.2,958.3c-2.7.4-9,3.3-9,6.4,0,11.5,27.6-9.3,9-6.4Z"/>
  <path d="M694.1,1120.9c-4.7-2.1-9,10.4-5.6,13.4.6.5,3.1,1,3.9.7h0c4.1-2.4,6.4-12,1.7-14.1Z"/>
  <path d="M508.1,1135.1c7.3.3,4.4-10.5,1.3-13.7-5.8-6-9.2,11.4-1.3,13.7Z"/>
  <path d="M682.1,965.3c5.6-.4,13.7-1.3,15.4-7.7h0c-1.2-1.8-3.2-1.2-4.8-1.9-.3-.2-.4-1.2-.6-1.3-1.1-.5-2-.6-3.3-.4-3.9.3-1.4,4.1-2.6,6.4-.9,1.7-4.8,2-4.1,4.9Z"/>
  <path d="M514.1,960.8h0c-1.5-2.1.7-5.9-2-6.7-4.3-1.4-4.2,1.3-4.8,1.5-1.6.7-3.6.2-4.8,1.9,1.7,6.4,9.8,7.3,15.4,7.7.7-2.8-2.9-3.2-3.8-4.4Z"/>
  <path d="M320.3,833.9c5.7-1.1,4-9,4.6-13.3-2.7-2.1-20.2,16.4-4.6,13.3Z"/>
  <path d="M875.1,820.6c.6,4.3-1.1,12.2,4.6,13.3,15.5,3.1-2-15.4-4.6-13.3Z"/>
  <path d="M73.6,875.9c6.9,1.5,9.8-5.2,13.2-9.7-4.8-7.7-17,6.9-13.2,9.7Z"/>
  <path d="M1113.2,866.2c3.4,4.5,6.3,11.2,13.2,9.7,3.8-2.7-8.4-17.4-13.2-9.7Z"/>
  <path d="M1097.3,576.5c8-7.1-20.1-12.5-11.5-2.4,1.9,2.3,9,4.6,11.5,2.4Z"/>
  <path d="M69.4,660.6c7.4,1.1,10.5-7.5,11.3-13.3-9-2.5-9.7,6.8-11.3,13.3Z"/>
  <path d="M1130.7,660.6c-1.6-6.5-2.3-15.8-11.3-13.3.8,5.8,3.9,14.4,11.3,13.3Z"/>
  <path d="M114.2,574.1c8.6-10.1-19.5-4.8-11.5,2.4,2.5,2.3,9.6,0,11.5-2.4Z"/>
  <path d="M989.5,749.9c1.5-.2,7.1-3.9,7.7-5.7l-3.5.5c-.6,0-.6-1.3-1-1.6-3.3-2.7-6.5-6-9.9-1-2.3,3.3,3,8.4,6.7,7.8Z"/>
  <path d="M214.1,749.3c.2,0,3.7-3.5,3.9-3.8,2.7-5.7-9.2-8.3-11.7-.8l-3.5-1c-1,.8,6.9,7.9,11.3,5.6Z"/>
  <path d="M550.8,1098.7h0c-.5.6.6,8.1,1.2,8.9.3.5,4.7,2.3,5.4,2.3l3.4-2.8c1.4-5-6.8-12-10-8.4Z"/>
  <path d="M648,1107.5c.6-.8,1.7-8.3,1.2-8.9-3.8-4.2-13.9,6-8.7,10.3,1.8,1.5,6.6,0,7.5-1.4Z"/>
  <path d="M723,935.7c-.8-.8-3.6-1.4-4.9-2.3-1.7,3.8-3,6-1.6,10.3,3.2,10.3,11.4-3,6.5-8Z"/>
  <path d="M483.6,943.8c1.4-4.4,0-6.5-1.6-10.3-1.2.9-4,1.5-4.9,2.3-4.9,5,3.2,18.3,6.5,8Z"/>
  <path d="M217.2,990.8h0s1-2,1-2h-3.1c1.6,5.4-5.6,4.8-3.6,9.2,2.8,6.2,13.2,1.2,10.3-5.1l-4.6-2.1Z"/>
  <path d="M989,996.5h0c0-2.4-5.9-3.3-4.2-7.7h-3.1l1,2c-12.8,3,1.9,17,6.2,5.7Z"/>
  <path d="M646.9,925.4c-5.1,1.6-2.4,8.3,2.9,9,10.1,1.4,5.6-11.6-2.9-9Z"/>
  <path d="M548.4,925.4c-2.9.9-5.2,5.5-3.4,8.1,11,5.6,15.2-11.6,3.4-8.1Z"/>
  <path d="M351.6,1107.8c7.1,3.9,13.4-5.5,8.7-11.3-6.5,1.2-7.3,5.6-8.7,11.3Z"/>
  <path d="M839.7,1096.5c-4.7,5.7,1.5,15.2,8.7,11.3-1.2-2.8-1-6.7-3.4-8.9-.7-.6-4.6-2.5-5.3-2.4Z"/>
  <path d="M1181.7,573.1c.6-.6,1.1-1.9.7-2.8-1.7-3.6-5.2-5.5-9.2-5.2-9.8.7,3.7,12.5,8.5,8Z"/>
  <path d="M488.2,968.7h0c-3.6,7.9,4.6,9.2,10.2,5.6.6-1-.2-4.9-1.1-5.8-1.8-1.8-7.1-1.6-9,.2Z"/>
  <path d="M26.8,565.1c-4-.3-7.5,1.6-9.2,5.2-.4.9,0,2.2.7,2.8,4.8,4.4,18.3-7.4,8.5-8Z"/>
  <path d="M711.9,968.8c-5.3-3.3-11.4-1.4-10.2,5.5,2.7,1.4,7.3,3.1,9.9.9,1.3-1.1,2-5.2.3-6.4Z"/>
  <path d="M1155.1,602.4h0c.2-2.7-7.1-5.9-9.4-5.3-2.3.6-3.6,3.9-2.3,6,4,2.5,10.1,5.6,11.7-.7Z"/>
  <path d="M56.6,603.2v-4.1c-1.1-1.6-2-2.1-3.9-1.9-13.1,1.3-7.5,14.8,3.9,6Z"/>
  <path d="M389.6,879.5c3.3,3.8,3.6,10.5,10.2,8.2,5.6-5.9-.2-9.9-6.6-7.7l.5-2-4.1,1.5Z"/>
  <path d="M806,887c1.2-1.2,2.5-5.9,4.3-7.4l-4.1-1.5,1,2c-15.5-3.9-8.2,13.7-1.2,6.9Z"/>
  <path d="M892.4,814.3c-1.2-5.7-3.6-7.6-9.1-9.1-2.6,6.3-.3,9.8,5.6,12.3l3.5-3.2Z"/>
  <path d="M316.4,814.2h0c2.2-2.8,1.2-5.9.3-8.9-5.5,1.5-7.6,3.2-9.2,8.8l3.6,3.5c.5,0,4.9-2.9,5.3-3.4Z"/>
  <path d="M444.5,833.9l-.7-8.1c-16.4-1.6-3,15.8.7,8.1Z"/>
  <path d="M756.2,825.9l-.7,8.1c3.7,7.8,17-9.7.7-8.1Z"/>
  <path d="M618.3,887.1c3.9-3.1.4-11.8-3.9-10.7-6.9,1.8-1,13.6,3.9,10.7Z"/>
  <path d="M581.7,887c4.6,1.7,8.2-4.5,6.9-8.3-5.2-6.9-11.7,3.4-6.9,8.3Z"/>
  <path d="M499.4,957c-.1-4-5.6-3.6-5.1-8.2l-8.2,5.6c4.4,5.2,7.3,4.6,13.3,2.6h0Z"/>
  <polygon points="700.6 957 700.6 957 700.6 957 700.6 957"/>
  <path d="M705.7,948.8c.4,4.6-5,4.2-5.1,8.2,6,2.1,8.9,2.7,13.3-2.6l-8.2-5.6Z"/>
  <path d="M357.3,990.9c1.7-5.3,8.4-6.9,8.7-13.3-4.6,1.9-6-1.3-9.1,3.8h0c-2,3.2-3.5,7.1.4,9.5Z"/>
  <path d="M840.2,978.1c-1.3-.5-4.2,1.2-6.2-.6,0,6.6,7.6,7.9,8.2,13.3h0c5.9-1.3.9-11.6-2-12.7Z"/>
  <path d="M861.6,681c1.1-5.5-2.2-9.9-8-9-3.4,5.6,2.3,11.7,8,9Z"/>
  <path d="M346.4,672c-5.8-.9-9,3.5-8,9,5.7,2.7,11.4-3.4,8-9Z"/>
  <path d="M763.5,955.2c1.4.3,2,2.4,3.8,1.8.5-.5-2.7-7.1-3.4-7.9-2.2-2.5-6.5-3.5-7.7.4h0c-2.1,6.9,3.5,4.8,7.3,5.7Z"/>
  <path d="M432.7,957.1c6.3-2.4,18.1-2.4,7.7-10.3-4.8,1.1-6.6,5.9-7.7,10.3Z"/>
  <path d="M883.4,1118.1h-.1c-.4,2.1,1,2.4,2.4,3.3.9.6,4,1.9,6.9,2.6,1.8-1,3.6-2,5.3-3-2.9-2.9-11.9-3.2-14.5-2.9Z"/>
  <path d="M316.7,1118.1c-2.7-.3-11.6,0-14.5,2.9,1.8,1,3.5,2,5.3,3,2.9-.8,5.9-2,6.9-2.6,1.4-.9,2.8-1.2,2.4-3.3h0Z"/>
  <path d="M1061.6,894.6c-6.8,1.4-2.9,7,2.8,7.1,8.6,0,3.8-8.5-2.8-7.1Z"/>
  <path d="M138.5,901.4c6.6-2,2.9-8.7-3.7-6.8-5.6,1.6-5.3,9.5,3.7,6.8Z"/>
  <path d="M238.2,1046.3c-2.7.9-8.8,11.5-5.1,12.3,3.2.7,8.2-7.2,7.5-9.5l-2.4-2.8Z"/>
  <path d="M961.8,1046.3l-2.4,2.8c5.1,17,15,7.9,2.4-2.8Z"/>
  <path d="M97.1,765.8l1-5.7c-4.3,0-11.8-1-11.3,5.1h0s10.3.6,10.3.6Z"/>
  <polygon points="1101.9 760.1 1101.9 760.1 1101.9 760.1 1101.9 760.1"/>
  <path d="M1113.2,765.2c.5-6.2-7-5.2-11.3-5.1l1,5.7,10.3-.6Z"/>
  <path d="M711.4,1104.7l-7.2-4.1c-2.9,2-.6,5.4,0,8.2,3.9,2.8,7.5.5,7.2-4.2h0Z"/>
  <path d="M495,1100.8c-12.3,2.8-3.1,13.3.9,8.1h-.1l1.5-6.6-2.3-1.5Z"/>
  <path d="M243.8,836c-2.4,0-18.5.6-18.4,2.6,1.4,3.9,22.4.7,18.4-2.6Z"/>
  <path d="M974.5,838.6c0-1.9-16-2.5-18.4-2.6-4,3.3,17,6.5,18.4,2.6Z"/>
  <path d="M956.2,627.8c-2,5-1.7,5.5,1.1,10.1,9.2-1.2,6.7-8.4-1.1-10.1Z"/>
  <path d="M242.7,637.9c2.8-4.6,3.1-5.1,1.1-10.1-7.8,1.8-10.3,8.9-1.1,10.1Z"/>
  <path d="M1012.5,989.4c2,3.4,3.1,12.1,8.2,7.1h0l-2.2-8.6-6.1,1.5Z"/>
  <path d="M181.4,987.9l-2.2,8.6c5.2,5,6.3-3.7,8.2-7.1l-6-1.5Z"/>
  <polygon points="181.3 987.9 181.4 987.9 181.4 987.9 181.3 987.9"/>
  <path d="M218.7,817.5h0c-6.3,7.7,0,6.4,3.6,8.8,1.3.8.3,3.3,3.1,2.5v-7.2l-5.2-.4-1.5-3.7Z"/>
  <path d="M976.6,828.8c1.8-5.2,11.9-2.9,4.6-11.3l-1.5,3.7-5.2.4v6.7h.1s2,.5,2,.5Z"/>
  <path d="M645.9,1083.2c4.7,4.4,9.9-2.4,8.5-4.1-4-2-13.7-.7-8.5,4.1Z"/>
  <path d="M545.6,1079.1c-1.6,1.9,4.4,8.9,8.9,3.8,4.3-4.8-5.3-5.6-8.9-3.8Z"/>
  <path d="M246.8,832.3l7.3,1.2,2-5.7c-4.4,1.6-11.5-4.6-9.3,4.5Z"/>
  <path d="M765.2,863.7l-3.1-15.4c-5.8-4.4,0,18.9,3.1,15.4Z"/>
  <path d="M194.1,766.3c1.1-3.2,5.3-9.9,1.3-12.1-1.1-.6-2.6,0-3.9-.2,1,4.4-1.5,9,2.6,12.3Z"/>
  <path d="M938.7,777.5c1.6,6.1,10.1,8,15.4,9.2-.8-3-14-10.5-15.4-9.2Z"/>
  <path d="M952.8,832.7c3.1-9.3-4.5-3.5-9-4.9l2,5.7,7-.8Z"/>
  <path d="M261.3,777.5c-1.4-1.3-14.6,6.2-15.4,9.2,2.4.9,18.1-6.7,15.4-9.2Z"/>
  <path d="M1005.4,766.2c4.8-2.6,1.9-8.1,3.1-12.3-9.2-.3-4.3,6.7-3.1,12.3Z"/>
  <path d="M434.8,863.7c2.1,2.5,8.2-13.7,4.6-15.4-1.8-.8-1.9,1.8-2.2,2.9-.5,1.7-2.9,11.9-2.4,12.5Z"/>
  <path d="M196.6,736.5c5.5-11.1-6.1-13.3-5.1-1.1l5.1,1.1Z"/>
  <path d="M149.4,715c-5.1,0-12,.8-15.4,5.1,4.5,0,14,.6,15.4-5.1Z"/>
  <path d="M1050.6,715c1.3,5.7,10.9,5,15.4,5.1-3.3-4.4-10.3-5.2-15.4-5.1Z"/>
  <path d="M1003.4,736.5l5.1-1.1c1-12.1-10.6-10-5.1,1.1Z"/>
  <path d="M205.8,720.7c-2.1,3.3-1.1,6-.9,9.6,2.1,2.5,11.4-13.5.9-9.6Z"/>
  <path d="M989,721.7h0c.9,3.2,2,8.5,6.1,8.6.3-2.2.9-8.8-1.2-10.1-1.2-.7-4.6,0-4.9,1.5Z"/>
  <path d="M213.1,1019.6c7.2,1.1,7.2-3.4,7.2-9.2-3.4-1.5-8.1,8.4-7.2,9.2Z"/>
  <path d="M788.8,1117l1.1-10.2c-4.3,1.4-8.3,6.7-4.5,10.2h3.4Z"/>
  <path d="M274,851c-.7-.5-.9-2.2-1.8-2.4-1.4-.2-8.8,1.6-6.8,3.8,4.3,1.2,7.6,2.9,12.3,2.1-.5-1.8-2.5-2.4-3.7-3.5h0Z"/>
  <path d="M416,1111.1h0c-.2-.3-5.3-4.9-5.9-4.3l1.1,10.2c4.3,2.1,6-3.9,4.8-5.9Z"/>
  <path d="M581.6,852.7l-1.2-4.4c-13.2-.6-6.9,11.1,1.2,4.4Z"/>
  <path d="M695.4,840.1c-1.5,1.6,3.4,11.9,7.2,11.3,1.8-2.2-3.5-11.6-7.2-11.3Z"/>
  <polygon points="619.6 848.3 619.6 848.3 619.6 848.3 619.6 848.3"/>
  <path d="M626.5,849.5c-1.2-1.1-5.2-.4-6.9-1.2l-1.2,4.4c3.1,5.1,11.8.3,8.1-3.2Z"/>
  <path d="M497.4,851.4c3.8.6,8.6-9.7,7.2-11.3-1.7-1.8-9.3,8.3-7.2,11.3Z"/>
  <path d="M668.2,742.6c-4.5,0-6.3,4.3-5.6,8.2,4.5,1.2,9.5-4.7,5.6-8.2Z"/>
  <path d="M537.4,750.8c.7-3.9-1.1-8.1-5.6-8.2-3.9,3.5,1.1,9.4,5.6,8.2Z"/>
  <path d="M960.2,978.6c-1.2,2.3.4,13.1,3.6,12.3,4.8-1.2-.6-11-3.6-12.3Z"/>
  <path d="M236.2,990.9c3.2.8,4.7-10,3.6-12.3-3,1.3-8.3,11.1-3.6,12.3Z"/>
  <path d="M922.2,854.4c4.8.9,8-.9,12.3-2.1,2-2.2-5.4-4-6.8-3.8h0c-.4,0-4.6,5.1-5.6,5.9Z"/>
  <path d="M986.9,1019.6c.7-.7-2.7-7.2-3.4-7.9-.7-.6-3.4-1.8-3.8-1.3,0,5.8,0,10.3,7.2,9.2Z"/>
  <path d="M20.5,704.7h0c1.1-1.4,2.1-1.8,1.6-4.1l-11.2,8.8-.8,1.3-1.4,2.2c.2.2.9,0,1.7-.4,3.1-1.6,9.1-6.6,10-7.8Z"/>
  <path d="M1177.7,700.6h0s0,0,0,0h0Z"/>
  <path d="M1177.8,700.7c-.5,2.2.5,2.6,1.6,4,.9,1.2,7,6.2,10,7.8,0-.6.2-1.2.3-1.8l-.8-1.3-11.1-8.7Z"/>
  <path d="M747.8,843.7c-1.7-2.5-4.6-3.3-7.5-2.4-5.5,1.8,2.7,10.4,7.5,2.4Z"/>
  <path d="M454.9,841.4h0c-1.2.3-1.9,1.4-2.8,2.3l5.6,3.6,3.1-2-.5-3.6c-1.3-.9-4-.7-5.5-.3Z"/>
  <path d="M823.3,783.6h0c-1.4,2.1.2,5,.6,7.2l8.2-1c-.3-2.5-4-2.5-4.8-3.4-.5-.5-1.5-6.5-3.9-2.8Z"/>
  <path d="M368,789.8l8.2,1c.7-2.8,2.8-7.5-1.5-8.2-1.3,4.7-4.5,3.8-6.7,7.2Z"/>
  <path d="M288.5,1109.9c2.3.5,6.7-6.8,5.6-9.2-4.2-1.7-9.4,8.4-5.6,9.2Z"/>
  <path d="M552.8,881.6c-1-4.5-3.7-6.4-8.2-5.6-1.6,1.6,5.4,10.6,8.2,5.6Z"/>
  <path d="M655.4,876c-4.5-.8-7.2,1.2-8.2,5.6,2.9,5,9.8-4.1,8.2-5.6Z"/>
  <path d="M905.9,1100.7c-1,2.4,3.3,9.7,5.6,9.2,3.8-.8-1.5-10.9-5.6-9.2Z"/>
  <path d="M823.5,724.7c-.5-2.4-3.9-5.2-6.4-4.6-4.3,1.1,2.7,11.8,6.4,4.6Z"/>
  <path d="M991.9,1042v-3.8c-11.4-4.8-9.8,7.4,0,3.8Z"/>
  <path d="M208.1,1038.2v3.8c1.7,1,5.3,1.1,6.8,0,4.7-3.9-3.5-6.7-6.8-3.7Z"/>
  <path d="M376.5,724.7c4.5,7.6,11.8-5.5,4.6-4.5-2.1.3-4,2.4-4.6,4.5Z"/>
  <path d="M835.1,818.6h-7.2l3.6,8.2h0c4.3-.7,3-5,3.6-8.2Z"/>
  <path d="M367.5,826.8c3,.7,2.3-6.7,4.6-8.2h-7.2c.5,3.1-.6,6.3,2.6,8.2Z"/>
  <path d="M668.8,836l1.2,7h3.8c2.6-4.5.2-7.6-5-7Z"/>
  <path d="M530.1,843l1.2-7c-5.1-.6-7.5,2.5-5,7h3.8Z"/>
  <path d="M547.7,672.9c-4.1-.6-9.1,3.2-7.2,7.2,4-.9,8.2-2.4,7.2-7.2Z"/>
  <path d="M640.7,1125.3l-3.8,4.5,6.1,2.5,1.8-4.6h.1c-.7-1.5-2.3-2.8-4.2-2.4Z"/>
  <path d="M555,1127.9h.1c0,0,1.8,4.5,1.8,4.5l6.1-2.5-3.8-4.5c-1.8-.5-3.4.9-4.2,2.5Z"/>
  <path d="M659.5,680.1c2-4-3.1-7.8-7.2-7.2-1,4.8,3.2,6.3,7.2,7.2Z"/>
  <path d="M132.5,926.2c2.9.6,3.6-7.6,3.6-9.2-4.9-1.8-6.8,8.5-3.6,9.2Z"/>
  <path d="M368.7,1118.3c-5.6-.2-2.5,9.9,2.3,6.9,1.6-1,1.7-6.7-2.3-6.9Z"/>
  <path d="M828,1122.4c.4,6.4,8.8,1.5,5.8-3.2-1.2-1.9-6.1-1.2-5.8,3.2Z"/>
  <path d="M554.8,736l3,.3,2.2-6c-1.8.9-4.6-3-5.7-1.1h0c-.9,1.7-1,5.7.5,6.8Z"/>
  <path d="M352.7,1087.3c4.2,0,6.6-4.5,7.2-8.2-5.4-.9-7,3.7-7.2,8.2Z"/>
  <path d="M878.6,1056.6c-3.7,1.5,0,12.1,2.6,10.2,1.6-3.9.7-7.5-2.6-10.2Z"/>
  <path d="M321.3,1056.5c-3.3,2.7-4.1,6.4-2.6,10.2,2.6,1.9,6.3-8.7,2.6-10.2Z"/>
  <path d="M840.2,1079.1c.6,3.7,2.9,8.2,7.2,8.2-.2-4.5-1.8-9.1-7.2-8.2Z"/>
  <path d="M1063.9,917c0,1.7.6,9.8,3.6,9.2,3.2-.7,1.4-11-3.6-9.2Z"/>
  <path d="M859.7,1054.5h0c1.4-1.4-6.3-7.3-7.2-8.7-1.3-1.9-.6-4.8-3-5.7,0,1.4-1.3,2.6-.6,4.1.6,1.1,9.5,11.6,10.8,10.3Z"/>
  <path d="M610.4,817.1c1.3-1.7,1-3.8.9-5.7-9.9-1.3-5.6,11.8-.9,5.7Z"/>
  <path d="M588.7,811.4c-1.4,2.9,2.2,9.2,5.1,7.2,2.8-2-.2-9.1-5.1-7.2Z"/>
  <path d="M644.6,728.3h0l-4.6,2,2.2,6c5.5,2.1,4.6-8,2.4-8Z"/>
  <path d="M347.6,1045.8h0c-.9,1.3-8.6,7.3-7.2,8.7,1.3,1.3,10.3-9.2,10.8-10.3.7-1.5-.7-2.6-.6-4.1-2.4.8-1.7,3.7-3,5.7Z"/>
  <path d="M376.8,699.6c4.8,1,6.8-8.5,1.2-7-3.2.8-3.7,6.5-1.2,7Z"/>
  <path d="M474.8,721.1l-7,2.2v5c4.2.5,7-3,7-7.2Z"/>
  <path d="M732.4,728.3v-5c0,0-7.2-2.2-7.2-2.2,0,4.1,2.8,7.7,7.2,7.2Z"/>
  <path d="M50.2,841s0,0,.1,0c0,0,0,0,0,0h0Z"/>
  <path d="M55.9,841.2c-1.7.5-3.6.2-5.6-.2.7,1.7,1.5,3.4,2.2,5.1l3.4-4.9Z"/>
  <path d="M823.2,699.6c3.2-.6,1.3-8.4-3-7.2-3.6,1-.8,7.9,3,7.2Z"/>
  <path d="M1144,841.1l3.4,4.9c.8-1.7,1.5-3.4,2.2-5.1-2,.4-3.9.6-5.6.2Z"/>
  <path d="M1143.9,841.1s0,0,.1,0h0s0,0,0,0Z"/>
  <polygon points="585.6 982.2 589.2 980.6 591.8 972.4 583.6 980.1 585.6 982.2"/>
  <path d="M867.4,837l-2.1,3.1c5.5,11.8,9.5,3.7,2.1-3.1Z"/>
  <path d="M614.4,982.2l2-2.1-8.2-7.7c2.1,3.5,1.2,9.9,6.2,9.8Z"/>
  <path d="M259.2,812c-.3-1.9-1.3-1.2-2.5-.5h0c-3,1.6-4.8,3.7-5.7,7.1,3.3,1.4,8.6-3.9,8.2-6.6Z"/>
  <path d="M536.9,938.5l-2.6,1.6,2.3,5.4c7.3,4.7,4.4-7,.3-7Z"/>
  <path d="M663.4,945.5l2.3-5.4c-4.3-4.3-6,1.4-7.1,5.2l2.3,1.3,2.5-1.1Z"/>
  <path d="M818.6,824.7l-2.3-5.4c-5.9-2.8-6.5,7.6,2.3,5.4Z"/>
  <path d="M217.2,706.7c.3-6.8-6.9-4.3-9.2-.5,2.9,1.9,6.1,1.1,9.2.5Z"/>
  <path d="M992.1,706.7c-1.5-4.9-11-6.3-8.6,0h8.6Z"/>
  <path d="M949,818.4c-.8-3.3-2.7-5.4-5.7-7.1-1.3-.7-2.3-1.4-2.5.5-.4,2.7,5,8,8.2,6.6Z"/>
  <path d="M949,818.4s0,0,0,0c0,0,0,0,0,0h0Z"/>
  <path d="M381.4,824.7c8.8,2.2,8.2-8.3,2.3-5.4l-2.3,5.4Z"/>
  <path d="M537.4,1158.1l7.2-1c0-7.3-8.5-5.4-7.2,1Z"/>
  <path d="M332.7,837c-1.7.8-6.2,8.6-3.1,9.2h0c2.3.4,4.3-4.5,5.2-6.1l-2.1-3.1Z"/>
  <path d="M915.1,1047.8l9.2,2.6c2.6-5.4-6.4-7.1-9.2-2.6Z"/>
  <path d="M274.6,1047.8h0l.9,2.6,9.2-2.6c-2.6-3.8-7.3-3.2-10.2,0Z"/>
  <path d="M656,1157.1l6.6,1c1.1-10.2-10.6-3.9-6.6-1Z"/>
  <path d="M196.7,960.6c1.7,3.8,9.7,0,9.2-3.6-1.4-.7-10.3,1.3-9.2,3.6Z"/>
  <path d="M249.9,742.6c3.1-2-1-10.1-4.1-5.4-2.6,4,1.2,7.2,4.1,5.4Z"/>
  <path d="M805.2,1145.7h0c-1.4,3.7-1.1,5.9.5,9.3.7,1.5-.2,2.5,2.5,2,0-3.8,1.1-9.1-3.1-11.3Z"/>
  <path d="M953.8,736.7c-3.6-3.8-6.4,4.1-3.7,5.8,3.1,2,7.1-2.2,3.7-5.8Z"/>
  <path d="M391.5,1155.5h.1c.2,1.4.6,3,2,1.5,1.1-4.1,3-7,1-11.3-3.4,1.6-3.5,6.6-3.1,9.8Z"/>
  <path d="M1003.4,959.1l-9.2-2.1c-2.1,1.9,9.1,9.3,9.2,2.1Z"/>
  <path d="M88.1,913.1c.5.8.9,1.5,1.4,2.3,0-.8-.2-1.7-.6-2.5-.3,0-.5,0-.8.2Z"/>
  <path d="M1110.5,915.4c.5-.8.9-1.5,1.4-2.3-.3,0-.5,0-.8-.2-.4.8-.6,1.6-.6,2.5Z"/>
  <path d="M451.2,741.2c4.1,0,4.6-3.3,4.1-6.7-4.4.4-8.9,2.7-4.1,6.7Z"/>
  <path d="M750.7,736.6l-6-2.2c-1.5,6.8,5.9,10.1,6,2.2Z"/>
  <path d="M967.4,780.1c0-1.9-7.1-4.6-9.2-3.6-.9,4.3,9.3,6.9,9.2,3.6Z"/>
  <path d="M241.8,776.5c-2.1-1-9.2,1.7-9.2,3.6,0,3.3,10.1.7,9.2-3.6Z"/>
  <path d="M446.5,731.4c3.3-.7,3.9-8.5-.9-7.1-3.6,1.1-2.1,7.7.9,7.1Z"/>
  <path d="M754.4,731.4c3.1-.7,2.8-8.1-2-7.2-3.4,1.7-.6,7.8,2,7.2Z"/>
  <polygon points="295.5 801.2 290 802.2 291.7 806.2 297.2 805.2 295.5 801.2"/>
  <path d="M545.6,1174l3.4,1.4,1.3-.8,2.5-6.2c-1.7-1.3-7.5,3.9-7.2,5.6Z"/>
  <path d="M653.4,698.6c-4.8-3.1-8.3-1.8-6.1,4,2.8.7,6.2-.7,6.1-4Z"/>
  <path d="M910,802.2c-3.6-1.2-7.7-2.4-7.2,3,3.6,1.2,7.7,2.4,7.2-3Z"/>
  <path d="M647.2,1168.3l2.5,6.2,1.3.8,3.4-1.4c.4-1.8-5.5-6.9-7.2-5.6Z"/>
  <path d="M860.7,1032.9l-7.2,2.1c-.3,9.4,7,4.2,7.2-2.1Z"/>
  <polygon points="346 1039.1 346.5 1035 339.3 1032.9 343 1040 346 1039.1"/>
  <path d="M552.7,702.6c2.3-5.8-1.3-7.1-6.1-4,0,3.2,3.3,4.7,6.1,4Z"/>
  <polygon points="517 1136.2 518.4 1140.6 522.9 1138.5 520.5 1133.5 517 1136.2"/>
  <path d="M679.5,1133.6l-2.5,4.9c3.6,2.1,6.5,3.7,5.9-2.3h0l-3.5-2.6Z"/>
  <path d="M436.4,638.1c1.9,1,3.6.7,5.5,0l-1.5-5c-2.7-.8-6.2,3.5-4,5.2h0Z"/>
  <path d="M89,863c1.5,3.8,8.1,2.8,5.8-2.3-3.4-1.5-7.7-2.6-5.8,2.3Z"/>
  <path d="M1105.1,860.8c-1.4,4.3,1.5,5.7,5,3.5h0c0-.1,1-4.7,1-4.7l-6,1.2Z"/>
  <path d="M764.3,638h0l-2-4.6c-3.6-1.8-4.7,1.6-4,4.6,2.2,1,3.9.8,6.1,0Z"/>
  <path d="M673.4,962.2l3.4-4.6c-.8-1.5-2.6-3-4.4-2.5h0c-2.9.7-1.5,5.9,1,7.1Z"/>
  <path d="M525.8,955.1c-.8.2-2.5,1.7-2.5,2.4,4.8,11.2,9-4.2,2.5-2.4Z"/>
  <path d="M38.6,582.6c-2.9-.7-6.9,1.2-6.2,4.6.7,3.2,8.4-.5,6.2-4.6Z"/>
  <path d="M868.9,983.7c-3.6-.5-6.6,1.1-6.2,5.1h6.2v-5.1Z"/>
  <path d="M331.1,983.7v5.1h6.1c.5-4-2.5-5.6-6.1-5.1Z"/>
  <path d="M342.1,619.7c-1.1.3-2.1,1.5-2.7,2.5l2.5,3.2c4.6-1.1,6.3-7.5.2-5.7Z"/>
  <path d="M1167.6,587.2c.7-3.3-3.2-5.3-6.2-4.6-2.2,4.1,5.5,7.8,6.2,4.6Z"/>
  <path d="M858.7,625.2c4.1-1.8.7-6.7-3.6-5.7-3.4.8,1.3,6.7,3.6,5.7Z"/>
  <path d="M201.8,562.1c-3.3-.4-8,1.2-8.2,5.1,3.9,0,8.4-.3,8.2-5.1Z"/>
  <path d="M103.1,881.9h0c-2.4,1.2-6,.7-7,5.4l8.8-3-.6-4.1c-1.6-.4-.7,1.4-1.2,1.7Z"/>
  <path d="M319.8,976.5c.8,4.3,5.5,2.6,3.1,8.2,6.2-1.1,2.9-9.7-3.1-8.2Z"/>
  <path d="M876.6,980.6c.7-1.2,4.3-1.3,3.6-4-5.3-1-8.5,4.1-4.6,8.2,3.3.5.2-2.9,1-4.1h0Z"/>
  <path d="M1096.9,881.8h0c-.5-.3.4-2.1-1.2-1.7v4.6l8.2,2.6c-1-4.7-4.6-4.2-7-5.5Z"/>
  <path d="M448.2,643.2h0s-3.4-.8-3.4-.8c-2.5.9-3,3.5-2.7,5.9,3.2,0,6.9-1.3,6.2-5.1Z"/>
  <path d="M758.1,648.3l-1.5-5.2-1.2-.7c-6.9.7-2.7,6.3,2.7,5.9Z"/>
  <path d="M1006.4,567.2c-.2-3.9-4.9-5.5-8.2-5.1,0,4.9,4.3,5,8.2,5.1Z"/>
  <path d="M141.2,653.4c-.8-.8-9.2,1.8-8.2,5.1,3.2,0,9.3-.9,8.2-5.1Z"/>
  <path d="M1058.8,653.4c-1.1,4.2,5,5.1,8.2,5.1,1-3.3-7.4-6-8.2-5.1Z"/>
  <path d="M348.6,849.4v3.9h-.1c0,0,9.2-3,9.2-3-3.4-.9-5.6-3.1-9.1-.9Z"/>
  <path d="M851.5,853.5h0v-4c-1.3-1.9-8.4-.6-9.2,1.9,3.7-1,5.8,2,9.2,2.1Z"/>
  <path d="M868.9,866.8h0c-.2,0,1.2,2.6-1,3.6l4.1,1.5-1-3.1,5.1-1.5c-.4-1.8-6.9-.7-7.2-.5Z"/>
  <path d="M332.1,870.3c-2.2-.9-.8-3.5-1-3.6h0c-.4-.1-7.9-1.7-7.2,1.6l5.1.5c-2.3,3.9.3,4.3,3.1,1.5Z"/>
  <path d="M593.8,661.6c1.5-2.2-3.1-7.3-5.7-3.1-2.4,3.8,4.2,5.2,5.7,3.1Z"/>
  <path d="M611.3,662.6c2.3-1.6-.2-6.9-3.1-5.7-5.4,2.4.6,7.5,3.1,5.7Z"/>
</svg>