<?xml version="1.0" encoding="UTF-8"?>
<svg id="Layer_1" xmlns="http://www.w3.org/2000/svg" version="1.1" viewBox="0 0 1200 1200">
  <!-- Generator: Adobe Illustrator 29.0.0, SVG Export Plug-In . SVG Version: 2.1.0 Build 186)  -->
  <path d="M3.1,627.9c3.6-2.3-.6-4.6-.6-7.1,0-5.9,8.5.4,10.4.6.7,0,10,0,10.5-.2,1.3-.3,15.2-10.3,16.4-11.8,1.6-1.9,1.9-4.1,1.7-6.4-12.5-.5-23.6,6.2-34.2,11.9,2.4-8.7-1.5-12.3-7.4-13.1,0,7.6.2,15.2.5,22.7l2.6,3.4h0Z"/>
  <path d="M437.7,1069.7l-9-.3,10.4-6.5-1.7-6.5c4.8-.2,5.2,4,9.9,3.7,5.8-.3,11.1-4.4,17.3-4.2l1.6-3.9c4.5.7,8.2,1.3,12.4-1l2.2,3.3-.5-3.2c3.3.2,6.5-.5,9.6-1.2,6-1.2,21.7-4.7,27.2-4.9,2.1,0,7,2.4,10.1,2.5,7.7.3,19.1.5,26.9.3,2.9,0,19.1-2,20-3.3.2-6.3-17.3-3.6-16.3-8.1,5.7-7,10.6-8.8,19.5-9.2l-6.5-2.2c-.2-2,2.8-.6,3.9-2.1.8-1.1.4-3.1.5-4.4l-15.8,2.1-.5,3.3,3.3,1.1-6.9.7-36.5-13.7c3.7.5,18.4-9.8,15.2-13l-9.7,1.1-1.1-3.2c12.2.8,20.4-3.1,27.6-12.8,3.2.3,3.5,4.6,6,5.7,2.9,1.3,6.1,0,9,.6,1.4.3,3,5.9,6.2,4.3l-2.2-1.6c6.2-8.1,19.3-10.4,17.4-23.3-5.1-2.9-15.2,3-18.8,2.2-.9-.2-1.4-2.8-2.9-3.8-7.1-5.1-28.5-9.3-37.2-7.9-10,1.6-34.9,15.8-36.4,26.6-.5,3.2,7,9.4,9.6,11.7-3.2,0-3.6,7.7-2.8,9.2,1.2,2.4,6.7,3.3,9.3,3.3l-9.1,2.9-2.6-1c-1.1-8.5-2.9-16.3-11.9-19-13.6-4-26.3,3.5-37.7,10.1-5.9-6.2-13.9-7-20.6-10.4-2.6-1.4-11.9-7-14.1-8.7-2.5-2-3.8-4.8-5.9-7,.8-1.6,3.3-1.2,4-1.9,2.8-2.7-2.9-15.3-5.5-17.8-1.6-1.5-7.1-5.1-9.3-6.4-3.6-2.2-6.8-.7-9.3-5.9l-1.6,4.3c-2.6-1.3-14.4,3.7-10.2,6.6l5.8,1.1-.5,5.4c-10.6-5.4-20.6-12-31.9-15.8-1.6-.5-4.8-.2-5.3-.6-.3-.3-2.3-7.6-2.3-8,0-1.9,2.5-2.7,2.1-4.8-6.7-2-9.7-8.5-18.4-5.4l-1.1-5.4,4.3-2.2-5.4-.5,5.4-2.8c-2.6-3.9,0-16.4-3.2-17.8l-3.3.5v-3.3c-6.8-.2-5.6,4.2-7.6,6.8-1.1,1.5-6.2,4.9-6.4,5.3-.3.5,2.4,5.1-2.3,7.9-6.7,4-9.6-5.4-17.4-2.2l-7.5-11.9c8.9-3.5,18.2-8.5,9.7-18.4,3.7-1.6,5.5-7.7,3.8-11.4-2.3-4.9-11.6,1-9.2,6.5l-4.9-5.4-1.6,3.2c-1.7-6.1-9.2-5.3-14.1-4.3.9-3.3,4.4-2.7,6.5-3.9,1.2-.7,1.4-3.4,4-3.5,2.1,0,4.9,4.7,8,3.6,5.3-2.6,12-12.1,7.3-17.6-.9-1.1-3.8-.6-4.1-2.1-1.5-6.2,1.5-11.4-3.4-19.1-1.2-1.9-13-9.5-15.4-10.6-6.2-2.7-19.4-5.2-26-4.2-1.3.2-8.4,2.8-9.6,3.4-4.1,2.3-10.7,16.3-9.5,21.4l-6.5-1.1v3.1c-8.2-1-7.2,4.6-9.7,10.3-1.5,1.9-6.4.7-5.4-2.9.7-2.6,12.1-11.9,14-15.3.4-.6,4.2-10.4,4.3-11,1.3-9.2-3.4-16.8-10.3-22.1-5.8-4.5-11.4-5.2-17.5-8.5l-15.3,4.4c-3.4,5.4-5.1,9.4-6.2,15.9-.6,3.6,2.4,8.5-3.8,9.9,2-4.4-.2-2.6-1.1-4-3.9-6.6-.9-4.8,1.3-9.3.6-1.2,2.9-5.5,3-5.9.2-1,.6-10.2.3-10.9-2.1-4.8-11.6-3.1-15.5-1.4-1.3,1.7,4.4,6.4,3.3,0,5.9,0,6.3,11.9,1.5,13-1.6.3-4.8-5.4-9.1-2.1,2.3-8.3,1.6-15.1,1.3-23.4,0-.9,1.1-2.5.9-2.7s-2.1.4-3-.2c-2-1.4-3.8-12.9-11.6-10.7l-.3,8.4,8.3,7.5c-.6,6.5,0,13.1,2.3,19.3,0,1-3.8.3-5.5,1.1-2.3,1.1-1.6,5.6-3.7,2.7-5.9-8.1-3.8-22.5-15.8-27.6l3.2-4.9c-2.8-1.1-4.3,4.5-4.9,4.3l-8.7-6.5c.2-4.6.5-12.2-.5-16.6-.3-1.2-3.2-1.5-3.3-2.4l3.3-1.1,3.2,3.8c.2-3.8,7.4-2.6,10.8-3.8,4.2-1.6,8-6.7,8.2-11.2.2-4.3-4-4.2-4.7-6.3-.8-2.5.9-6-1.7-8.1l-9.3-1c2.6-3.4-1.2-4.9-.9-7.8.2-2.9,3.9-7.4,3.8-10.1,0-1.7-2.3-2.9-1.8-4.8,2.6,0,6.7.7,6.5-3.3-8.9,3.5-6-4.5-9.1-7.7-5.3-5.4-10.2-1.3-15.4,0-2,.5-4.4,0-5.9.5-2.4.8-10,9.2-11.1,11.7-1.8,4.1-1.5,10.5-3.6,13.7-1.7,2.6-5.6,3.8-8.1,8.1-2.6,4.5-3.6,13.5-5.3,16.1-3.3,5.4-10.4-6.2-13.7-9-3.5-2.9-11.9-6.8-14.2-9.7-2-2.5-1.1-4.6-1.6-5.5s-14.7-7-17.2-9.3c-2.8-2.6-4.2-7.8-8.8-10.7-.9-.6-1.8-1-2.7-1.3,3.4,21.6,8,42.8,13.6,63.6,3.2.7,6.9.9,8.2,2,1.5,1.2,1.2,3.9,1.7,4.3.7.6,2.8-.2,3.9.4.6.4,1.9,4,3.5,4.7l-6.5,4.9c.3,3.2,6.1.8,6.5,1.1l-2.2,3.2,6-4.3,1.6,2.2,1.6-2.2,3.6,2.3-.9,3.7h-9.8l-4.3,4.9,1.1-5.4c-4.4,3.7-5.7-.9-8.5-2.8,1.8,5.7,3.6,11.4,5.5,17,.2,0,.4-.2.6-.4.9-.7,1.1-7.4,4.5-6.3.9,1.1-2,9.1-2,11.4,0,3.8,3.6,7.2,3.7,8.6,0,.8-.4,2-1,3.3.4,1,.8,2,1.1,3,3-3.3,3.5-6,10-3.6.9,4-5.3,1.5-7.6,2.2l6.4,3.9c.1.5-3.7,7.7-4.4,8.7.3.8.6,1.5.9,2.3.5-.6.6-1.5.4-3l10.3,8.6,4.9-7.5c6.6,3.6.5,5-1.2,9.1-1.9,4.6-2.4,11.3-.7,16.1.8,2.3,4.2,3.6,3,7.3-1.1,0-2.1,0-3,0,5.3,11.2,11,22.3,17,33.1h.1c3.4-1.5,8.8-16.3,6.5-20.1h6.5c.9.9-7.8,15.9-8.4,19.2-.5,2.7-.6,5.6-.4,8.5,2.1,3.7,4.3,7.4,6.5,11,12.8,2.1,24.4-4.7,32.7-14.3h.2c1.4-1.5,1.9-3.7,3.2-5.4.8-1,2.9-1.4,3.1-1.7,1.7-2.9-2-3.2-2-3.7-.3-2.1,1.6-3.7,2-5.6.5-2.1,0-4.3.4-6.2.5-2,2.7-.5,3.6-1.7.7-1,.8-2.7,1.7-3.8,3.9-4.8,6-6.6,7.1-13.5,3.7,5.5-4,14.2-6.4,19.6-1.5,3.4.2,8.5-5,7.5v3.2l2.1-2.2c-1.9,10.3,0,19.5,12.6,19.4.4,0,6.6-1.3,6.9-1.5,6.7-3.3,12-15,16.3-20.7l-2-2,1-9.3c4.2-.3,2.5,4,3.3,6.5l2-.8c.2,4.5,1.9-.7,4.1-1.1,5.5-1.1,7.9,6.7,4.2,5.2l-3.8-3.2,2.2,7.6c-5-1-10.4-.8-10.9,5.4l-2.1-4.3c.3,3.6-.6,7.7.2,11.2.8,3.4,3.8,3.2,4.1,6.2,1.7.5,1.4,0,2.1-.7,2.8-2.4,5.3-5.3,9.1-5.9,1,0,2.7,11.8,8.8,6.6,2.5-6.9-1.9-12.8-8.2-7.6-.5-2.9,1.4-4.3,3.2-6,0-.6-5.9-2.4-3.8-7,3.1-4.7,7.7,1,11.4,2.7,1.9.8,9.3,2.5,9.6,2.9.7.8.2,6.2,2.9,7.4l1.1-5.4c4.1,5.9,10.1,12.9,6.9,20.5l-5.3.7c4.3,1.5,8.7,4.8,10.3,9.2.4,1.1-1.7,2.7-1.8,4.9,0,1.9,1.3,4.2,1,5.3-.2,1-12.2,9.3-14.8,13.3-1.8,2.8-6.6,14.1-4.4,16.5.3.3,2.1,0,2.7.4,1,.8,1.2,2.4,2.6,3.4,8.2,5.8,19.7,7.6,29.2,4.9-.7,4.6,2.8,7.3,4.9,10.8,9-2.3,2.7-11.9,3.2-13,.9-2.1,5.8-4.6,7.7-6.5s6.5-9,7-9.3c1.2-.7,2.8.7,4.3,0,.8-.3,1.4-1.8,2.3-2.1,3.2-1.3,6.7-1.2,9.7-3.9,1.6,1.7-10.3,8.8-12,10.3-1.9,1.7-7.5,7.7-8.7,9.8-3.5,6-4.6,12.1.4,17.7.4.4,1.8,0,2.5.6.8.6.8,2,2.2,2.7,8.4,3.7,14,1.2,22.3-1.1l19.2-12.8c3.1,5.9,1,9.6,1.1,14.6,0,2.9,2.5,7.7.6,10.4-.8,1.1-3.2.5-3.9,1.8-.9,1.6-.8,5.3-1.9,7.6-1.4,2.9-4.1,3.9-5.4,7.7-2.3,6.6.8,18.2,9,13.3,4.3-2.6,3.2-9.2,4.8-10.4l9.8-.5c-.8-3.9-10.4-2.8-10.8-3.2l2.2-9.8c3.8,0,5.4,4.4,7.3,5.2,2.8,1.2,13.1,2.8,16,2.3.8,0,7.2-2.7,7.7-3.1.4-.3,4.7-7.7,4.8-8.2.8-3.4,0-13,0-17.3s-.2-1.7-.4-2.3c.3.2.6.4.9.7,1.7,3.2,4.7,6.1,5.5,9.6,1,4.4-.8,12,0,14.2,3.4,8,15.8,17.6,23.9,20.4,4.9,1.7,15.2,3,19.8.8,2.2-1.1,3.9-6.9,5.1-7.1,4.5-.9,10.5,4.5,13.4,7.7-4-.4-7.3.6-9.7,3.8,0,3,15.8,1.9,16.9-2.7l5.9,1.1-7.5,6.3c-6.9,13.9,14.6,11.2,22.7,14.3,0,1.9-3.5,2.1-4.7,2.1-6.2-.2-16.8-3.1-21.9-3-.5,0-.5,1.7-1.3,1.9-3.8,1.1-7.4,1.3-11.1,2.8-6.6,2.6-11.8,10.8-17.8,3.7-3.9-4.6-3.6-10.1-13-9.4-5,4.5-5.2,10.3-.2,15,6,5.6,9.1.9,12.9,2.2,1.9.7,2.1,6.7,8,8.3,11.5,3.1,27.5.8,39.4.3-.7,2.2-3.7,1.4-5.3,3.9-2.5,3.9-2.2,8.9,3.1,9.7,10.9,1.6,20.8-5.6,30.4-9.3l-12.7-5.2Z"/>
  <path d="M1191.9,611.6h.2c0,1.8,2.3,2.5,1.1,3.3-10.6-5.8-21.7-12.4-34.2-11.9-.2,2.4,0,4.5,1.7,6.4,1.3,1.5,15.1,11.5,16.4,11.8.5,0,9.8.2,10.5.2,1.9-.2,10.4-6.5,10.4-.6s-4.1,4.8-.6,7.1c.6-1.2,1.3-2.1,1.9-2.7.3-7.7.5-15.5.5-23.3-4.5.9-7.8,3.7-7.9,9.7Z"/>
  <path d="M1190.6,695.7c-4.6,3-6,8.2-8.8,10.7-2.5,2.4-16.7,8.4-17.2,9.3-.5.8.4,3-1.6,5.5-2.3,2.9-10.7,6.7-14.2,9.7-3.3,2.8-10.4,14.4-13.7,9-1.6-2.7-2.7-11.6-5.3-16.1-2.5-4.4-6.5-5.6-8.1-8.1-2.1-3.3-1.8-9.7-3.6-13.7-1.1-2.5-8.6-10.9-11.1-11.7-1.4-.5-3.8,0-5.9-.5-5.2-1.4-10.1-5.4-15.4,0-3.1,3.2-.2,11.2-9.1,7.7-.2,4,3.9,3.4,6.5,3.3.5,2-1.7,3.1-1.8,4.8,0,2.7,3.5,7.2,3.8,10.1.2,2.9-3.5,4.4-.9,7.8l-9.3,1c-2.6,2-.9,5.6-1.7,8.1-.7,2.1-4.9,2-4.7,6.3.2,4.5,4,9.6,8.2,11.2,3.4,1.3,10.6,0,10.8,3.8,1.2.9,3.4-7.6,6.5-2.7,0,.9-3,1.1-3.3,2.4-1,4.4-.6,12-.5,16.6l-8.7,6.5c-.5,0-2-5.4-4.9-4.3l3.2,4.9c-11.9,5.1-9.9,19.5-15.8,27.6-2.1,2.9-1.5-1.6-3.7-2.7-1.6-.8-5.5,0-5.5-1.1,3.5-4.8,1.1-15.6,2.3-19.3,1.2-3.7,13.7-8.1,7.9-16-7.8-2.2-9.6,9.3-11.6,10.7-.9.6-2.7,0-3,.2-.2.2.9,1.7.9,2.7-.4,8.2-1,15,1.3,23.4-4.3-3.3-7.5,2.5-9.1,2.1-4.8-1-4.4-13.1,1.5-13-1.1,6.5,4.6,1.8,3.3,0-3.9-1.7-13.4-3.4-15.5,1.4-.3.7,0,9.8.3,10.9,0,.3,2.4,4.7,3,5.9,2,4,6.5,5.9-.6,10.2l.9,3.1c-6.3-1.4-3.3-6.3-3.8-9.9-1-6.4-2.7-10.4-6.2-15.9l-15.3-4.4c-6.1,3.3-11.7,4-17.5,8.5-6.9,5.4-11.6,13-10.3,22.1,0,.6,3.9,10.4,4.3,11,2.2,3.8,23.4,20.2,8.6,18.2-2.5-5.7-1.5-11.3-9.6-10.3v-3.1l-6.6,1.1c1.3-5.1-5.4-19.2-9.5-21.4-9.7-5.4-25.7-3.6-35.6.8-2.4,1.1-14.2,8.7-15.4,10.6-4.9,7.8-1.9,12.9-3.4,19.1-.4,1.5-3.2,1-4.1,2.1-4.7,5.4,2,15,7.3,17.6,3.1,1.1,5.9-3.6,8-3.6s2.9,2.8,4,3.5c2,1.2,5.6.6,6.5,3.9-4.9-.9-12.4-1.7-14.1,4.3l-1.6-3.2-4.9,5.4c2.4-5.5-6.9-11.4-9.2-6.5-1.7,3.7,0,9.8,3.8,11.4-8.4,9.9.9,15,9.7,18.4l-7.5,11.9c-7.8-3.3-10.6,6.1-17.4,2.2-4.7-2.8-2-7.4-2.3-7.9-.2-.3-5.3-3.8-6.4-5.3-2-2.6-.8-7-7.6-6.8v3.3l-3.3-.5c-3.6,4.2-.3,12.1-3.2,17.8l5.4,2.8-5.4.5,4.3,2.2-1.1,5.4c-8.7-3-11.7,3.4-18.4,5.4-.4,2.1,2,2.9,2.1,4.8,0,.4-1.9,7.8-2.3,8-.5.4-3.8,0-5.3.6-11.4,3.8-21.4,10.4-31.9,15.8l-.5-5.4,5.8-1.1c4.1-2.9-7.6-7.9-10.2-6.6l-1.6-4.3c-2.5,5.2-5.7,3.7-9.3,5.9-2.2,1.3-7.7,4.9-9.3,6.4-2.6,2.5-8.3,15.1-5.5,17.8.7.7,3.2.3,4,1.9-2.1,2.3-3.5,5.1-5.9,7-2.1,1.7-11.4,7.4-14.1,8.7-6.7,3.5-14.7,4.2-20.6,10.4-11.4-6.7-24.1-14.1-37.7-10.1-5.1,1.5-5.1,3.8-9.2,6.5l-2.7,12.5-2.6,1-9.1-2.9c2.6,0,8.1-.8,9.3-3.3.8-1.5.4-9.3-2.8-9.2,2.6-2.2,10.1-8.5,9.6-11.7-1.5-10.8-26.4-25-36.4-26.6-8.7-1.4-30.1,2.8-37.2,7.9-1.5,1.1-2,3.6-2.9,3.8-3.6.8-13.7-5.1-18.8-2.2-1.9,12.9,11.2,15.2,17.4,23.3l-2.2,1.6c3.3,1.6,4.8-4,6.2-4.3,2.9-.6,6.1.7,9-.6,2.5-1.2,2.8-5.4,6-5.7,7.2,9.7,15.5,13.6,27.6,12.8l-1.1,3.2-9.7-1.1c-3.2,3.2,11.4,13.5,15.2,13l-36.5,13.7-6.9-.7,3.3-1.1-.5-3.3-15.8-2.1c0,1.4-.4,3.3.5,4.4,1.1,1.4,4.1,0,3.9,2.1l-6.5,2.2c9,.5,13.8,2.3,19.5,9.2,1,4.5-16.4,1.8-16.3,8.1,1,1.3,17.1,3.2,20,3.3,7.7.2,19.2,0,26.9-.3,3.1,0,7.9-2.6,10.1-2.5,5.5.2,21.3,3.6,27.2,4.9,3.2.7,6.4,1.4,9.6,1.2l-.5,3.2,2.2-3.3c4.2,2.3,7.9,1.7,12.4,1l1.6,3.9c6.2-.2,11.5,3.9,17.3,4.2,4.7.2,5.1-3.9,9.9-3.7l-1.7,6.5,10.4,6.5-9,.3-12.7,5.2c9.7,3.7,19.5,10.9,30.4,9.3,5.2-.8,5.6-5.8,3.1-9.7-1.6-2.5-4.6-1.7-5.3-3.9,11.9.6,27.8,2.9,39.4-.3,5.9-1.6,6.1-7.7,8-8.3,3.8-1.3,7,3.4,12.9-2.2,5-4.7,4.9-10.5-.2-15-9.4-.7-9,4.8-13,9.4-6.1,7.1-11.2-1.1-17.8-3.7-3.8-1.5-7.4-1.7-11.1-2.8-.8-.2-.8-1.9-1.3-1.9-5.1,0-15.7,2.8-21.9,3-1.2,0-4.8-.2-4.7-2.1,8.1-3.1,29.6-.4,22.7-14.3l-7.5-6.3c6.9-2.2,5.3.3,8.6,1.6,2.3,1,14.1,3.2,14.1,0-2.5-3.2-5.7-4.2-9.7-3.8,2.9-3.1,8.9-8.6,13.4-7.7,1.2.2,2.9,6,5.1,7.1,4.6,2.2,15,.9,19.8-.8,8.2-2.8,20.5-12.4,23.9-20.4.9-2.1-.9-9.8,0-14.2.8-3.5,3.9-6.5,5.5-9.6,4.2-2.9.5,1.1.5,1.6-.3,5.7,0,11.6,0,17.3s4.4,7.9,4.8,8.2c.6.4,6.9,3,7.7,3.1,2.9.5,13.2-1.1,16-2.3,1.9-.8,3.5-5.2,7.3-5.2l2.2,9.8c-.4.4-10-.7-10.8,3.2l9.8.5c1.7,18,19.2,12.7,13.8-2.9-1.3-3.8-4-4.8-5.4-7.7-1.1-2.3-1-6-1.9-7.6-.7-1.3-3.1-.7-3.9-1.8-1.9-2.6.6-7.5.6-10.4,0-5-2-8.7,1.1-14.6,11.5,5.4,17.9,14.3,31.2,16.1,2,.3,8.4-1.3,10.4-2.2,1.5-.7,1.4-2.1,2.2-2.7.7-.5,2.2-.2,2.5-.6,5-5.5,3.9-11.6.4-17.7-1.2-2.1-6.8-8.1-8.7-9.8-1.7-1.5-13.6-8.6-12-10.3,3,2.7,6.5,2.6,9.7,3.9.9.4,1.5,1.8,2.3,2.1,1.5.6,3.1-.7,4.3,0,.5.3,5.5,7.7,7,9.3,1.8,1.9,6.8,4.4,7.7,6.5.5,1.1-5.7,10.7,3.2,13,2-3.5,5.6-6.3,4.9-10.8,9.5,2.7,21.1.9,29.2-4.9,1.4-1,1.6-2.7,2.6-3.4.7-.5,2.4,0,2.7-.4,2.3-2.4-2.5-13.8-4.4-16.5-2.6-4-14.6-12.3-14.8-13.3-.3-1.1,1.1-3.5,1-5.3,0-2.1-2.2-3.8-1.8-4.9,1.6-4.4,6.1-7.7,10.3-9.2l-5.3-.7c-3.2-7.5,2.9-14.5,6.9-20.5l1.1,5.4c2.8-1.2,2.2-6.5,2.9-7.4.3-.4,7.7-2.1,9.6-2.9,2.3-1,7-5.1,9.1-4.7l2.4,2c2.1,4.6-3.8,6.5-3.8,7,1.9,1.7,3.7,3.1,3.2,6-6.3-5.2-10.7.8-8.2,7.6,6.1,5.2,7.8-6.5,8.8-6.6,3.8.5,6.4,3.4,9.1,5.9.7.6.5,1.2,2.1.7.4-3,3.4-2.8,4.1-6.2.8-3.4,0-7.6.2-11.2l-2.1,4.3c-.4-6.2-5.8-6.4-10.9-5.4l2.2-7.6-3.8,3.2c-3.7,1.5-1.3-6.3,4.2-5.2,1.4.3,3.3,3.6,3.9,3l.2-1.9,2,.8c.8-2.5-.9-6.8,3.3-6.5l1,9.3c-5.3,1.7.4,4.2,1.2,5.6,1.5,2.8,1.5,4.8,3.8,7.9.9,1.2,8.3,8.7,9.3,9.2.3.2,6.6,1.5,6.9,1.5,12.4,0,14.5-9.1,12.6-19.4l2.1,2.2c1.2-4.9-2.3-2.3-3.4-3.9-.9-1.4-.7-4.8-1.6-6.9-2.4-5.5-10.1-14.1-6.4-19.6,1,6.9,3.2,8.7,7.1,13.5.9,1.1,1,2.9,1.7,3.8.9,1.2,3-.3,3.6,1.7.5,1.8,0,4.1.4,6.2.4,1.8,2.3,3.5,2,5.6,0,.6-2.1.7-2.3,1.2-1,3.4,2,2.5,3.3,4.3,1.3,1.7,1.9,3.9,3.2,5.5,8.2,9.4,19.5,16.2,32,14.4,2.5-4.1,4.9-8.3,7.3-12.4,0-2.5,0-4.9-.5-7.2-.6-3.3-9.3-18.3-8.4-19.2h6.5c-2.2,3.6,2.7,17.4,6.1,19.9,6-10.7,11.6-21.7,16.9-32.8h-2.4c-1.2-3.7,2.2-5,3-7.3,2.8-7.9.2-16.2-5.1-22.3l3.2-2.9,4.9,7.5,10.3-8.6c-.2,1-.2,1.7,0,2.2.3-.7.6-1.4.9-2.2-1.2-2.1-4.1-7.7-4-8.1l6.4-3.9c-2.3-.7-8.5,1.9-7.6-2.2,6.2-2.3,7,0,9.6,3.1.4-1.1.8-2.2,1.3-3.4-.4-.9-.7-1.8-.6-2.4,0-1.5,3.7-4.9,3.7-8.6s-2.9-10.3-2-11.4c3.4-1.1,3.6,5.6,4.5,6.3,1.8-5.3,3.6-10.7,5.2-16-2.3,2.1-3.7,5.4-7.7,2.1l1.1,5.4-4.3-4.9c-1.4-.8-12.4,3.8-10.7-3.6l3.6-2.3,1.6,2.2,1.6-2.2,6,4.3-2.2-3.2c.4-.3,6.2,2.1,6.5-1.1l-6.5-4.9c1.6-.6,2.9-4.3,3.5-4.7,1.1-.6,3.2.2,3.9-.4.5-.4.2-3.1,1.7-4.3,1.2-1,4.4-1.3,7.5-1.9,5.7-20.7,10.2-41.9,13.6-63.5-.7.3-1.3.6-2,1h0Z"/>
  <path d="M966,1023.1c.1-2.3,3-3.8,2.1-8.6-.4-2.1-2.2-2.9-2.9-4.7-2.9-7.7-5.8-12.1-2.4-20,.6-1.4,3.8-.8,1-6.2-1.6-1.3-4.2,3.4-4.8,4.4-4.1,8-6.7,21.6-16.6,24.6-1.8.5-4.1-.3-5.5.5-.4.2-.9,2-2,2.8-5.9,4.4-12.5,6.4-16.2,13.1-1.8,3.3-4.3,13.3-4.4,16.9,0,1,6,17.4,6.8,18,.4.3,9.1,4.1,9.6,4.2,6.2,1.2,10.2-2.4,15.5-4,3.2-.9,8-.6,11-2,1.5-.7,9.7-8.7,10.3-10.3,1.3-3.2,2-13.1,1.7-16.8-.3-3.7-3.2-9.6-3.2-11.9Z"/>
  <path d="M265.7,1016h0c-1.1-.9-1.6-2.7-2-2.9-1.4-.8-3.7,0-5.5-.5-9.9-3-12.5-16.6-16.6-24.6-2.8-5.5-6.6-5.9-5.9.3,0,.7,1.8.7,2.1,1.5,3.4,7.9.5,12.3-2.4,20-.7,1.8-2.5,2.6-2.9,4.7-.9,4.8,2,6.3,2.1,8.6.1,2.1-2.7,7.7-3.1,11-.4,3.9,0,14.2,1.5,17.7.6,1.5,8.2,9,9.7,9.9,3.4,2,8,1.4,11.6,2.5,4.9,1.4,8.7,4.7,14.5,4.1.9,0,10.7-4.2,11.1-4.7.7-.7,6.3-16.7,6.3-17.6s-.9-8-1-8.5c-3.3-13.6-9.9-14.4-19.6-21.5Z"/>
  <path d="M752.6,810.8h0c-1.5,6.9-.2,21.1,3.4,27.1.2.3,4.7,5,5,5.3,2,1.6,4.8,2.2,7.3,2.5,5.8.7,16.7-1.9,21.1-.5,6.8,2.2,10.3,15,17.3,14.2-.6-3-5.9-9.2-6.3-11.1-.3-1.4-.3-10.6-.3-12.8,0-4.3,2.8-7.6-.3-12.1-4.4-6.4-2-4.4-2.9-11.7-1.2-9.5-7.1-21.8-18.7-19.9-.9,0-15.3,5.6-16.6,6.3-2.1,1.1-8.4,10.5-8.9,12.7Z"/>
  <path d="M404.4,808.8c-.7,4,.2,9.6-.7,12.4-.6,1.7-3.7,1.2-4.1,5.7-.5,5.4,2,15.6.8,21.3-.4,2.1-6,8.2-6.3,11.6,3.5,2.7,13-14.2,17.3-14.7,7.1-1.2,21.7,2.7,27.8-1.5.3-.2,5.4-5.4,5.6-5.8h.1c3.6-6.1,5.2-22,2.7-28.6-.2-.6-5.6-9.3-6-9.7-.7-.8-18.7-7.8-19.8-7.9-10-.7-15.8,8.4-17.4,17.2Z"/>
  <path d="M885.1,797.1h0c1.1,2.5,0,5.4,1.8,8,1.1,1.7,6.8,5.7,8.5,7.7,5.2,5.9,6.8,10.3,8.7,17.9,3.6,3.4,1.6-9.3,1.7-10.3.5-13.9,2.4-9.4,10.6-15.9,6.5-5.2,9.7-9.4,8.3-18.3l2.2,1.1v-2.7c-.3-1.1-3-.8-4-1.9-3.6-4.1-8.6-13.9-13.8-17.1-1-.6-11.1-4.2-12.1-4.3-1,0-16.6,4.3-17.7,4.9-.7.4-5.4,5.6-5.7,6.4-1.1,3.3,1.2,10.5,2.8,13.7,1.8,3.5,7.6,8.3,8.7,10.8Z"/>
  <path d="M279.1,779.1c-1.6,1.9-.4,4.9-5.3,5v3.2l2.1-1.1c.2,2.6-.3,5.5,0,8.1,1.3,8.3,16.8,13,18.2,17.6h0c1.6,5.4-.3,13.1.2,18.7,2.5.5,1.7-.3,2.4-1.4,2.1-3.3,1.5-7,3.6-10.5,2.9-5,11.2-10.1,13.4-13.7,1.6-2.6.7-5.5,1.8-8,1.1-2.5,6.9-7.3,8.7-10.8,2.9-5.7,4.6-10.8,1-15.7-1.4-1.8-2.3-3.7-4.6-4.7-2.2-1-16.1-4.8-17.9-4.4-11.4,2.2-16.5,9.4-23.6,17.7Z"/>
  <path d="M1115.6,629v7.6h0c-26.1.5-49-27.1-74.9-11.9,1.5,2.2,2.2,5.8,4,7.6,1.1,1.1,23,13.5,24.8,14,11.6,3.2,18.1,0,28.4-1.9,2.3-.5,4.4,1,7.4,0,1.6-.5,6.9-5.6,9.7-5.6s2.6,2.1,3.8,2.7c9,4.4,6.3-15.9-3.3-12.5Z"/>
  <path d="M80,642.1c5.4-4.5,6.9-3,12.8,0,4.2,2.1,13.4,4.6,18.8,5.3,4.4.6,15,0,19.4-1.1,1.8-.5,23.7-12.9,24.8-14,1.9-1.8,2.5-5.4,4-7.6h0c-25.8-15.2-48.8,12.4-74.9,11.9v-7.6c-7.5-1.7-10.4,6.8-7.7,12.6l2.8.5Z"/>
  <path d="M669.8,1088.9v-.2c-3.8-.9-6.4,2.3-9.5,3-4.7,1.1-20.3,3.4-24.7,3.6-7.7.3-16.1-4.8-24.8,0-3.3,2.9,3.6,5.1,3.6,6s-3.8,2.8-1.6,7.1c.3.6,9.4,7.5,10.4,8,9.1,4.9,28.4,3.2,37.5-1.3,11.6-5.7,4.5-8.9-.5-17l9.6-9.2Z"/>
  <path d="M579.2,1093.1h0c-4.7,0-10.3,2.6-15.1,2.1-8.3-.8-20.3-3-28.1-5.6-1.7-.6-3.2-1.1-5.1-.8l9.6,9.2c-3.6,6.4-11.6,10.6-2.7,16,9.1,5.5,30.4,7.5,39.7,2.4,1-.5,10.1-7.5,10.4-8,2.2-4.3-1.6-6.7-1.6-7.1,0-1,6-2.5,4.3-5.9-3.9,0-7.5-2.2-11.4-2.3Z"/>
  <path d="M532.2,1077.6c5-1.2,8.4-5.7,13.2-7.4,3.8,4.6,10.6,9.1,14.7,2.2-1.4-.8-5.8,0-6.3-.3-.2,0-.8-2.2-2.8-3-2.1-.8-12.4-5.2-13.7-4.3l2.2,3.2-10.8,2.1c0-11.1-11-10.7-12-19.5-5.5,1-8.2,5.7-14.1,4.4.3,1.4,1.9,2,2.6,3.3,2.7,5.2,4,7.7-3.2,8.5-6-1.8-11.4-6.2-14.6,1.8,5,5,12.7,4.9,17.9.6h0s2.7,6.5,2.7,6.5c-6-1.5-19.2-1.5-12,7.1-4.4,3.1-7.2,2.9-6,9.2,1.7,2.5,5.6,0,7.1-1.6l-5.4-2.2c1.6-2.4,3.7-3,6.5-2.7l-1.1-2.2c6.5.8,13.7,2.2,15.7-5.4,5.4,4.2,8.4.9,13.1,0,1.9-.4,4.1.2,6.2-.3Z"/>
  <path d="M649.5,1069.2c-2,.8-2.6,2.9-2.8,3-.6.3-5.2-.9-6.3.8h0c5,6,10.8,1.8,14.7-2.8,4.7,1.7,8.2,6.2,13.2,7.4,2.1.5,4.3,0,6.2.3,4.7.9,7.7,4.2,13.1,0,2.1,7.6,9.2,6.2,15.7,5.4l-1.1,2.2c2.8-.3,4.8.4,6.5,2.7l-5.4,2.2c9.6,7.7,9.9-4.9,1.1-7.6,7.3-8.5-5.9-8.5-12-7.1l2.7-6.5c5.2,4.4,12.9,4.4,17.9-.6-4.3-10.9-12.3,1.8-19.5-3.3-1.8-1.3,2-5,1.7-6.9l2.6-3.3c-5.9,1.3-8.6-3.4-14.1-4.4-1,8.8-12,8.4-12,19.5l-10.8-2.1,2.2-3.2c-1.2-.9-11.6,3.4-13.7,4.3Z"/>
  <path d="M1073.2,918.8h-.1c-.8-1.2-5-2.5-5.1-5.7l3.8,1.1,1.7-2.7c-5.3-4.7-2.3-3.2-7.1-2.2-.8.2-2.3-.9-2.7-.6l1.1,3.2c-3.9.5-5.4-6-7.6-7-4-1.9-11.2-1.1-14.6-6.8-9.2,4.6-6.4,15-.8,21.6l5.7-.7c4.7,8.3,10.5,21.2,21.4,22,7.4.6,8.9-7.2,7.8-13.2,0-.6-3.2-8.6-3.5-9Z"/>
  <path d="M158.3,898h0c-3.5,5.9-10.6,5-14.6,6.9-1.8.8-3.6,5.9-6,7l-.5-3.2-6.4-1c-3,4.5-6.1,6.5,2.1,5.9-5.8,5.1-12.7,18.7-6.6,25.8,8,9.3,25.4-13.2,27.2-20.5,1.2-.9,3.2,2.9,6.2.3,5.4-4.7,7.1-18.2-1.3-21.2Z"/>
  <path d="M304.3,892.9l2.6,1.7c5.7-6,9.2-13,11.3-21-6.2-3.3-3.5-7.1-4.5-12.8h0c-1.3-7.2-6.1-27.8-16-20.4l-1.6-4.3c-5.4,2.4-9.4,5.9-5.4,12h3.8l3.3,17.3-4.9-5.4c-4.4,3.3,4.5,5.1,2.7,10.8,4.1-2.2,2-.6,4.3,1.1l2.2-2.2c-1.8,4.8,4.1,11.5,4.4,13.6.3,2.8-2.3,6.6-2.1,9.6Z"/>
  <path d="M904.3,836h-.2c0,0-1.1,4.4-1.1,4.4-10.1-7.5-14.9,14-16.1,21.3-.9,5.4,1.9,8.6-4.3,11.9,2,8,5.6,15,11.3,21,5.6-1.1,0-7.7.5-11.4.2-2.1,6.1-8.7,4.4-13.6l2.2,2.2,1.2-2.1,3.2,1c-1.8-5.7,7.1-7.5,2.7-10.8l-4.9,5.4,3.3-17.4c9.1,1.7,5.7-10.8-2.2-11.9Z"/>
  <path d="M1017,775.9c1.8,2.7,3.1,13.4,8.7,11.9,6.5-1.8,10.6-17.5,5-22.9-2.4-2.3-6.2-2.1-7.8-3.6h0c-2.9-2.7-1.9-10.1-3.2-12-.7-1-3.2-1.1-4.4-2.1-2.5-2-4.4-5.5-8.1-5.4-4.8,9.8,2.5,17,4.3,24.4.8,3.4-4.6-1.4-3.2,2.1,1.7,4.2,6.3,4.1,8.7,7.6Z"/>
  <path d="M175,787.8c5.6,1.5,6.8-9.2,8.7-11.9,2.4-3.5,7-3.4,8.7-7.6,1.4-3.6-4,1.3-3.2-2.1,1.8-7.5,9.1-14.6,4.3-24.4-3.8,0-5.6,3.4-8.1,5.4-1.2,1-3.7,1.1-4.4,2.1-1.2,1.8-.4,8.2-2.8,11.3-1.6,2.1-5.3,1.9-7.8,3.9-6.3,5.1-2,21.5,4.6,23.3Z"/>
  <path d="M365.2,867.3c-6,2.4-12.5,9.8-16.6,11.6-1.8.8-4.2.2-5.2.7-.6.4-2.7,7.2-3.6,8.9-.9,1.8-3.7,3.3-4.1,4.7-.5,2,1.7,3.3,2.1,5.3.4,1.9-1.1,4.6,0,6.9,2.1,1.7,14.9-23.6,20.1-11.9l6-3.3-.6-2.2-3.8.6c6.7-6.1,17.9-11.3,16.1-22.1h0c-3.3-1.8-7.1-.5-10.4.8Z"/>
  <path d="M840.9,888.7l-3.5-.6-.6,2.2,6,3.3c6.5-9.7,14.1,8.3,19.5,11.9,2.1-1.8.2-4.9.5-6.9.4-2,2.6-3.3,2.1-5.3-.4-1.5-3.1-3-4.1-4.7-.9-1.7-3-8.5-3.6-8.9-1-.6-3.4,0-5.2-.7-4.1-1.8-10.7-9.2-16.6-11.6-3.3-1.3-7.1-2.6-10.4-.7-1.7,10.7,9.3,15.9,15.9,22Z"/>
  <path d="M920.7,682.8h0c-3.9,8.7-1.8,19.6,9.1,19.8,9.8.2,14.8-16.8,9.6-23.8-1-1.3-2.6-1.6-3.4-2.5-.8-.9-.4-3.1-2-4-.9,3.7-1.9.7-4.1,1.2-1.9.4-8.2,7.2-9.2,9.3Z"/>
  <path d="M261.8,678.3c-6,7.2-1,24.6,9.1,24.4,13.4-.3,13.5-16.2,5.7-24.5h0c-.6-.6-5.4-4.5-5.8-4.6-1.3-.3-3,1-3.4.7l-.7-1.9c-.9,3.6-3.5,4.2-4.9,5.9Z"/>
  <path d="M761.5,1100.9h-.3c-4.2-1.3-16.7,0-13.3,6.3-1.9,1.5-7.6-5-9.1-6.7-.6-.6-.4-2.2-.9-2.8-2.1-2.6-11.8.4-12.6,3.7-1.3,4,4.9,4,5.9,5.7.6,1.1-2.5,6,2.4,7.4,3.8,1.1,17,1.3,19.3-2,.6-.9.4-2.8.7-3.1.7-.6,12.7,3.9,12.9-5,0-.3-4.7-3.4-5-3.5Z"/>
  <path d="M467.4,1114.6h-.2c4.9-1.6,1.7-6.4,2.4-7.5,1-1.7,7.2-1.8,5.9-5.7-.8-2.9-8.1-5.2-10.8-4.6-3.1,1.9-6.8,10.7-11.3,10.4.7-8.8-13.8-7.9-18.9-3.1.4,9.6,11.8,4.4,12.9,5.4.3.3,0,2.5,1.2,3.7,2.4,2.5,15.2,2.5,18.8,1.4Z"/>
  <path d="M715,783.7h0c.6-.5,2-3,2.2-3.7,2.7-12.3-12.4-18.2-22.6-17.2-1.9,5.5-4.2,8.6-.5,13.7,4.1,5.6,14.3,12.5,20.9,7.2Z"/>
  <path d="M483.4,780c.2.7,1.6,3.3,2.2,3.7,6.6,5.3,16.8-1.6,20.9-7.2,3.7-5.1,1.4-8.2-.5-13.7-10.2-1-25.3,4.9-22.6,17.2Z"/>
  <path d="M617.8,1024.7h-.1l-3.2-2.2,2.2-4.9c.2-7.7-30-9.7-32.6,0l2.2,4.9-3.2,2.2,13,4.4c-.4-2.4.3-3,2.2-3.8l-2.2-3.8h8.7c-4.6,4.9.4,3.1,0,7.6l13-4.4Z"/>
  <path d="M962.5,704.6h-.1c2.5,1.1,2.1-.3,2.9-1.1,4.6-4.6,5.8-11.3,8.4-17.1,14.8,9.4,10.5-17.3-1.1-8.7-6.8-12.4-12.6,6.2-13.1,13.5-.2,3.3-.4,12.1,3,13.4Z"/>
  <path d="M227.1,686.5c.7.6,3.6,10.4,4.6,12.2.4.7,3.9,5.9,4.2,6.1,6.3,3.7,5.5-13.9,5.2-16.6-.9-6.7-7.7-22-12.9-10.4-11.5-8.6-15.9,18-1.1,8.7Z"/>
  <path d="M259.9,609.2c.6-1.3,3-11,2.8-11.9-.4-2.5-3.5-5-5.3-6.8-4.9-2.1-21.4,17.1-12.7,25.2,4.5,4.2,13.2-2.2,15.2-6.5Z"/>
  <path d="M944.2,613.3c2.9,2.7,8,5.8,11.7,2.4,8.7-8.2-7.8-27.3-12.7-25.2-8.3,4.6-4.5,17.7,1,22.8Z"/>
  <path d="M804.4,649.5h0c0,.1-1.9,1.3-1.9,1.3l-.2,3,5.4,1.1-1.1-6.5c3.9,2.7,6.7-3.5,7.8-6.9,2.6-8.1-2.8-16.1-9.4-20.2-4.3,8.1-13.5,23.7-.5,28.2Z"/>
  <path d="M394.2,648.7l-1.1,6.3,5.4-1.1-.2-3-1.9-1.2c12.9-4.5,3.8-20.1-.5-28.2-6.6,4.2-12.1,12.2-9.4,20.2,1.1,3.3,3.8,9.3,7.7,7Z"/>
  <path d="M626.8,1155.7h.1c-.2,2,3.9,8.7,5.2,9.6s13.4,2.6,15.1,2.3c1.3-.2,8-5.1,8.1-5.8-.6-10.8-27.5-16.5-28.5-6.1Z"/>
  <path d="M545.2,1162.1h.1c0,.6,6.9,5.4,8.1,5.7,1.7.3,13.8-1.4,15.1-2.3s5.4-7.7,5.2-9.5c-1-10.3-28-4.7-28.5,6.1Z"/>
  <path d="M768,674.4h0c2.6-5.7-8.2-14.3-13.6-15.1,7.6-11.2-8.5-10.7-1.1-1.1-17.5,4.8,8.1,30.5,14.7,16.2Z"/>
  <path d="M447.3,658.5v-.2c-.2-.3,3.8-4.5,2.1-6.4-.2-.2-4.1-1.3-4.8,0-2,3.4,2,7.2,1.6,7.6-5.4.8-16.2,9.4-13.6,15.2,6.5,14.3,32.1-11.4,14.7-16.2Z"/>
  <path d="M763.9,936.6c-.7-9-11.2-13.1-16.8-5.9-1.5,1.9-1.8,5.8-3.4,8,3.4,9,21.2,9.4,20.2-2.1Z"/>
  <path d="M436.7,936.6h0c-.9,11.5,16.8,11.1,20.2,2.1-1.6-2.2-1.9-6.1-3.4-8-5.6-7.2-16.1-3.1-16.8,5.9Z"/>
  <path d="M808.9,882.9h0c-1.7,1.8-3.1,10.2-1.9,12.8,1.1,2.5,9.9,7.1,12.4,6,7.9-4.2,3.5-20.4-3.9-21-.6,0-6.4,2-6.6,2.2Z"/>
  <path d="M381.2,901.8c2.5,1.1,11.3-3.5,12.4-6h0c1.2-2.8-.1-11.1-1.9-12.8-.2-.2-6-2.3-6.6-2.2-7.5.6-11.8,16.7-3.9,21Z"/>
  <path d="M507.5,803.6c1.1,1.7,2.3.6,3.6.3,8.6-2,23.2-9.4,21.9-19.8-9.8-2.7-18,6.9-23.4,14h0c-1.1,1.3-4.6,1.5-2.1,5.5Z"/>
  <path d="M692,804.5h0c1.7-.3,2.3-3.6,1.5-5.1-.2-.4-1.7-.7-2.3-1.4-5.4-7-13.6-16.6-23.4-14-4.1,8.8,20,21.5,24.3,20.5Z"/>
  <path d="M161.6,555.1c12.6,4.4,17.3-26,5.5-22.5-4.1,1.2-12.7,19.2-5.5,22.5Z"/>
  <path d="M1039,555.1c7.4-2.5-1.2-24.4-8.3-22.4-9,2.5-2.5,26.1,8.3,22.4Z"/>
  <path d="M796.9,690.3h-.1c0-.1.9-5.2.9-5.2l-7.5-5.6c6.8-2.6,6.6-9.6,4.1-15.4-5.3-5.5-12.7,11.1-7.3,14.9-10.5,3.1,6.1,16.5,9.9,11.3Z"/>
  <path d="M403.8,690.3h0c6.8,4,18.9-8.4,9.9-11.4,3.3-3.2,1.9-7.6,0-11.4-6.9-14.1-14.6,8.5-3.3,12l-7.1,4.9.5,5.9Z"/>
  <path d="M738.7,1117.8h0c-3.9-2.7-15.5-.4-18.5,3.4-7.5,9.4,15,11.3,19.8,6.2,2.3-2.4,1.4-7.7-1.3-9.6Z"/>
  <path d="M481.8,1126.4c2.8-8.3-20.4-14.8-22.4-4.4-2,11,20.7,9.1,22.4,4.4Z"/>
  <path d="M925.2,607.3h.1c-1.1-3.3-7.4-14.2-11.9-12.9-1.7.8-1.8,2-1.8,3.7,0,9.5,7.9,18.5,13.6,25.5,4.1,0,.9-13.8,0-16.3Z"/>
  <path d="M275.4,623.6c6.3-8,15.9-18.1,12.5-28.8l-2.5-.3c-3.4.5-9,9.8-10,12.8-.8,2.5-4.1,16.3,0,16.3Z"/>
  <path d="M674.1,1179.3h0c.4,2.7,4.2,3.3,2.2,7,8.3-4.7,15.7-.2,14-13.4-1.8-13.4-17.5-2.1-16.2,6.4Z"/>
  <path d="M510.4,1172.7h0c-1.8,13.3,5.7,8.8,14,13.5-2-3.7,1.8-4.3,2.2-7.1,1.3-8.5-14.4-19.8-16.2-6.4Z"/>
  <path d="M270.5,990c-9.3,1.7-16.3,11.2-12,20.1,10.7,1.4,18.3-11.1,12-20.1Z"/>
  <path d="M942.1,1010.2c4.3-9-2.6-18.5-12-20.1-6.4,9,1.2,21.6,12,20.1Z"/>
  <path d="M722.4,693c9,.9,3.2-16.1,1.4-20.5-16.6-4.8-9.6,19.7-1.4,20.5Z"/>
  <path d="M478.2,693c8.1-.8,15.1-25.3-1.4-20.5-1.8,4.4-7.5,21.4,1.4,20.5Z"/>
  <path d="M195.6,932h0c.7-2.5,0-12.7,0-16.3s-2.8-7.7-3.9-9.1c-.8-1.1-1.9-3.1-3.2-1.2-1.8,3.2-2.5,21.7-1,24.9,1.3,3,7.1,4.9,8.1,1.7Z"/>
  <path d="M1008.9,906.6h0c-1.3,1.8-3.6,7.2-3.9,9.1-.6,4.5,0,11.4,0,16.3s6.5,2.1,8.1-1.7c1.4-3.2.8-21.7-1-24.9-1.3-1.9-2.4,0-3.2,1.2Z"/>
  <path d="M354.8,663.4h0c.8-.7,7.7-12.6,7.8-13.4.2-1.9-3.3-4.3-5-4.5-6.7-1.1-13,12.1-9.1,17.8,1.6,2.1,4.4,1.7,6.3,0Z"/>
  <path d="M852.1,663.2h0c3.9-5.7-2.3-18.9-9.1-17.8-1.7.3-5.2,2.6-5,4.5,0,.8,7,12.7,7.8,13.4,1.9,1.6,4.7,2,6.3,0Z"/>
  <path d="M790.5,897.7c8.9-2.4-6.9-15.9-16.9-12.7-7.3,6.3,13.2,13.7,16.9,12.7Z"/>
  <path d="M419.9,885.1c-10.9,1.9-17.8,14.8-6,12.5,11.3-2.2,23.9-15.6,6-12.5Z"/>
  <path d="M690.1,859c-8.1,1.1-8.8,19.8,3.6,15.6,6.2-2.1,4.7-16-3.6-15.6Z"/>
  <path d="M508.9,859.1c-6.7,1.4-7.5,13-2.7,15.3,13.6,6.4,12.6-17.3,2.7-15.3Z"/>
  <path d="M1033,694.4c-2.7-2.8-19.4-7.1-20.4-2.8h0c-1.5,6.4,7.7,8.4,12.7,8.9,4.2.4,12.5-1.3,7.7-6.1Z"/>
  <path d="M187.9,690.9c-2.1-3.3-21.8.4-21.4,6.8,1.5,6.1,26.5,1.4,21.4-6.8Z"/>
  <path d="M45.4,629l-1.7,4.4-3.2-1c-7.6,10.2,1.6,7.1,9.7,7.5.3.2-3.3,5.3,1.1,4.3-1.9-7.6,4.4-5.9,7.3-9,.6-.7.8-1.7,1.4-2.4-4.1-4.9-9.5.8-14.6-3.8Z"/>
  <path d="M1149.2,644.1h0c4.4,1.1.8-4,1.1-4.2,2.3-.4,12.4,1.2,13-1.7l-3.3-5.9-3.2,1-1.7-4.4c-5.1,4.6-10.4-1.1-14.6,3.8,2.3,5.8,10.6,3.2,8.6,11.4Z"/>
  <path d="M90.5,587.3c1.9-1.3,3.4-18,2-18.9-9.4-5.8-14.9,21.8-2,18.9Z"/>
  <path d="M1110.2,587.3c12.9,2.9,7.4-24.7-2-18.9-1.5.9,0,17.6,2,18.9Z"/>
  <path d="M211.1,780.6l9.5-8.4c-3.4.2-2.8-3.5-4.4-4.9h0c-4.3-4-13.9,4-12.9,9.6,2.9,2.3,3.5,5.2,7.8,3.7Z"/>
  <path d="M994.6,779.2c.8-.7,2.4-1.4,2.7-2.3,1.1-5.5-8.5-13.6-12.9-9.6h0c-1.5,1.4-1,5-4.4,4.9l8.7,8.1c3.9,1.8,3.9.6,5.9-1.1Z"/>
  <path d="M957.2,739.1c1.2,2.6,8.4,11.9,11.4,11.3,6.6-5.2-6.9-20.5-11.9-19.5h0c-2.5.5-.2,7,.4,8.2Z"/>
  <path d="M232,750.4c3.1.6,10.7-9.3,11.8-12,1.2-2.6,2.8-8.5-1.9-7.3h0c-4.9,1.2-15.9,14.2-10,19.3Z"/>
  <path d="M389,747.4h0c-1.8,1.1-4.8,19.8-.6,22.6,3.1.6,9.5-16.8,6.1-21.2-1-1.3-4.2-2.3-5.4-1.4Z"/>
  <path d="M811.9,747.2h0c-1.2-.7-4.4.3-5.4,1.5-3.5,4.4,3,21.9,6.1,21.2,4.1-2.8,1.2-21.4-.6-22.7Z"/>
  <path d="M1113.5,598.5h0c.2-1.7.2-2.3-1.1-3.7-2.2-2.4-19.8-7.8-21.7-6,1.6,9.4,14.9,10.5,22.8,9.7Z"/>
  <path d="M87.1,598.7h0c7.9.6,21.2-.5,22.8-9.8-1.9-1.8-19.5,3.6-21.7,6-1.3,1.4-1.3,1.9-1.1,3.8Z"/>
  <path d="M840.8,902.2c-.3-1.3-3.4-6.7-4.2-7.2-.5-.3-4.8-.3-5.8.7-8.2,8.1,8.1,14.9,14.7,15.2,0-2.4-5.2-3-5.4-3.3-.2-.2,1.3-2.6.7-5.4Z"/>
  <path d="M371.4,899.6c-1.2-8.8-9.8-4.9-11.5,2.6-.6,2.8.8,5.2.7,5.4-.2.3-5.3.9-5.4,3.3,6.1-1.4,17.3-3.5,16.2-11.3Z"/>
  <path d="M359.5,768.9c5.2,1.2,16.3-15.3,14.1-18.4-7-4.7-16,16.4-14.1,18.4Z"/>
  <path d="M841.2,768.9c2-2-7-23-14.1-18.4-2.3,4.3,11.3,21.2,14.1,18.4Z"/>
  <path d="M725.1,747.2h0s-4.3-2.2-4.3-2.2c-2.4,6,11.9,4.6,12.9,3.1.4-2.3.4-11.8-1.1-12.7-5.6-3.5-11,6.7-7.5,11.8Z"/>
  <path d="M600.7,1001.4h0c3.6,0,7.4,3.3,11.4.5v-4c-.3-.4-6.3-1.8-7.3-1.8-1.9,0-2.9,1.3-4.1,1.4-2.5.2-8-3-12.2.4-1.6,9.1,7.9,3.3,12.2,3.5Z"/>
  <path d="M480,745h0l-4.3,2.2c1.5-3.7,1.6-10.2-2.9-11.7-7.7-2.5-5.6,7.4-5.6,12.6.9,1.4,15,3.1,12.9-3.1Z"/>
  <path d="M145,582.3h0c7.4-4.2,4-13.2,9.4-18.3l-8.8,1.8c-.5,6-10.7,14.7-.6,16.5Z"/>
  <path d="M1051.8,578.4h0c2.8,4.7,8.4,4.6,8.5.2,0-.7-5.1-12.9-5.7-13.3-1-.8-7.1-2-8.4-.8,4.7,3.4,2.6,8.9,5.6,13.9Z"/>
  <path d="M761.3,971.8l.7-6.6c-6.3,0-11.5-.8-16.7,3.2h0c-2.3,8.4,11.1,5.5,16,3.4Z"/>
  <path d="M438.7,965.1c-.8,6.1.2,7.5,6.2,8.4,4.7.7,11.8,1.4,11-5-5.5-4-10.6-3.7-17.2-3.4Z"/>
  <path d="M139.8,669.1c1.9.4,2.2-1.4,2.7-2.7,2.2-5.7,2.3-12.9,2.2-19-8.8-2.2-8.1,21-4.9,21.7Z"/>
  <path d="M1058.2,666.4c.5,1.3.8,3.1,2.7,2.7,3.2-.7,4-23.8-4.9-21.7h0c-.2,6,0,13.3,2.2,19Z"/>
  <path d="M788.1,734.6c-8.8-2.9-9.5,4.3-8.6,11.3,9,4.7,11.6-3.9,8.6-11.3Z"/>
  <path d="M412.6,734.6c-3,7.3-.4,15.9,8.6,11.3.9-6.9.2-14.2-8.6-11.3Z"/>
  <path d="M954,640.9c-6.8-2.8-13.4-2.3-20.6-2.2-4.1,3.6,19.9,11.9,20.6,2.2Z"/>
  <path d="M248.8,640.5c-.9.4-3,.2-2.2,2.1,2.3,4.9,20.1,3.6,20.6-3.8-6.4.2-12.5-1-18.4,1.7Z"/>
  <path d="M207.7,730h0c1.9-1.2,7.3,1,9.1-4.5,1.9-5.9-6.1-5.1-10-3.4l-3.7,13.1c3.5.9,3.6-4.6,4.5-5.2Z"/>
  <path d="M983.8,722.1h0c-2.1,8.4,6.9,6.5,9.1,7.9.9.6,1.1,6.1,4.5,5.2-2.2-8.8-1.3-17.9-13.6-13.1Z"/>
  <path d="M883.8,709.1c7.9-2.2-3-16.4-10-10.6-1.7,2.5,6.3,12.5,10,10.6Z"/>
  <path d="M516.3,1147.3h0c-7,2.8,1.3,5.9,6.4,5.3,1.8-.2,12.6-3.4,10.4-6.4-4.9-1.9-12-.8-16.8,1.1Z"/>
  <path d="M291.8,992.8l-4-12.5c-6.7,0-14,10.4-3.3,7.6h0c-2.3,5.1,4.3,10.5,7.2,4.9Z"/>
  <path d="M912.8,980.3l-4,12.5c2.9,5.6,9.5.3,7.2-4.9,10.6,2.9,3.6-7.4-3.2-7.6Z"/>
  <path d="M912.7,980.3s0,0,0,0h0s0,0,0,0Z"/>
  <path d="M221.5,746.3c-.8-1.3-7.8-1.6-9.6-.7h0c-2.1,1-1.8,4.5-3.8,5.9l-2.7-2.1v4.3c4.6-1.6,9.4,1.3,13.8-.8,2.3-1.1,3.5-4.7,2.3-6.6Z"/>
  <path d="M316.8,709.1c3.7,1.9,11.7-8.2,10-10.6-7-5.8-17.9,8.4-10,10.6Z"/>
  <path d="M995.1,753.7h0v-4.3l-2.7,2.1c-2.4-2.3-1.5-5.8-5.5-6.5-4.8-.8-10.9.8-7.6,6.5,2.4,4.1,11.7.5,15.7,2.2Z"/>
  <path d="M684.4,1147.3h0c-4.8-1.9-11.9-2.9-16.8-1.1-2.2,3,8.6,6.2,10.4,6.4,5.1.5,13.4-2.6,6.4-5.3Z"/>
  <path d="M393,871h-.1c.3-1.7-.7-3.5-.3-4.7.5-1.3,3.7-2.5,2.7-5.4-7.6,2.8-13.6,7.4-10.8,16.3,3.7-.4,7.7-2.3,8.5-6.2Z"/>
  <path d="M805.5,861h-.1c-1.1,2.9,2.2,4.1,2.7,5.4.4,1.2-.6,3-.3,4.7.8,4,4.8,5.9,8.5,6.2,2.8-8.8-3.2-13.4-10.8-16.3Z"/>
  <path d="M711.3,1141.1h0c-7.4-1.8-11.5,1.6-16.6,6.2,1,1.2,16.2,0,18.2-.8,4.4-2,2.1-4.6-1.6-5.4Z"/>
  <path d="M500.2,1142.2h0c-3.7-2.1-13.4-3-14.8,2.3.7,3.1,17.7,4.3,20.6,2.2-2.4-.5-5-4.1-5.8-4.5Z"/>
  <path d="M353.9,735.6c3.9,5.6,15.2-2.5,11.9-7.8-2.8-4.4-15.2,2.9-11.9,7.8Z"/>
  <path d="M846.4,736.1c.7-.7,1-2.1.8-3.1-1.8-7-15.3-9.4-12.3-.7,1.3,3.9,8.1,6.9,11.5,3.8Z"/>
  <path d="M503.2,951c5-2.2,6.2-6.8,8-11.4-.2-2.4-9.7-3.1-11.8-2.7h0c-.3,2.4,2.9,4.3,3,4.6,1.1,2.2-3,7.2.8,9.5Z"/>
  <path d="M701.2,937h0c-2-.5-11.5.2-11.8,2.6,1.8,4.6,3,9.2,8,11.4,3.7-2.5.2-6.4.5-9,0-.3,3.7-2.7,3.3-5Z"/>
  <path d="M1197.1,659.2c.2-1.7.3-3.4.5-5.1-2.8.2-5.6.3-8.1,1.5,2.2,2.5,4.8,3.4,7.6,3.6Z"/>
  <path d="M11.2,655c-2.8-.5-5.9-.7-8.8-1,.2,1.7.3,3.5.5,5.2,3.3,0,6.2-1.1,8.3-4.2Z"/>
  <path d="M1113.7,652.6c5,3,11.5,2.7,11.6-4.4-1.3-5.4-16.4-3.8-11.6,4.4Z"/>
  <path d="M87.3,652.1l-.4-5.5c-17.1-6.9-13.6,14.2.4,5.5Z"/>
  <path d="M214.1,578.6h0c-1.8-2.4-2.7-2.8-5.6-2.5-2.1.2-12.7,4.2-12.8,5.8,2.6,5.3,18.4-.6,18.4-3.3Z"/>
  <path d="M1005,581.8c-3-2.6-11.8-6.8-15.5-5.8-1.3.3-2,1.7-2.9,2.5,0,2.7,15.9,8.5,18.4,3.3Z"/>
  <path d="M392.6,915.3c-3.2,3.2-.8,7.2.7,10.7,11.1,2.6,6.9-18.3-.7-10.7Z"/>
  <path d="M807.4,925.9c1.5-3.4,3.9-7.5.7-10.7-7.6-7.6-11.7,13.2-.7,10.7Z"/>
  <path d="M892.7,1077.9l-3.1-2c-17.2,6.4,3.7,19.5,3.1,2Z"/>
  <path d="M310.2,1075.9c-4.9,1.6-2.6,9.3,1.2,10.4,9.1,2.8,7.7-10.8-1.2-10.4Z"/>
  <path d="M897.6,1119.5h0c-1,.7-1.5,1.6-1.8,2.6,1.7-1,3.4-2,5.2-3-.9-.4-2-.4-3.4.4Z"/>
  <path d="M303.1,1119.6h0c-1.6-.9-2.8-.9-3.7-.3,1.9,1.1,3.7,2.1,5.6,3.2-.2-1.2-.8-2.3-1.9-2.9Z"/>
  <path d="M1019.1,983.7h0c-.5,2.1,1.1,2.4,2.5,3.4,2.3,1.6,15,7.1,15.9,2.5.7-3.3-15.7-6.9-18.4-5.9Z"/>
  <path d="M163.1,989.4h0c1,4.7,13.7-.8,15.9-2.4,1.4-.9,3-1.2,2.5-3.5-2.8-1-19.1,2.6-18.4,5.9Z"/>
  <path d="M1092.9,664.8c-6.3-1.3-12.6-1.4-18.4,1.6,3.9,5.4,16.5,4.8,18.4-1.6Z"/>
  <path d="M107.8,664.8c-3.5,3.3,16.9,9.1,18.4,1.1-6.4-1.9-11.8-2.7-18.4-1.1Z"/>
  <path d="M619.5,1135.4h0c-1.8.2-6.4,4.2-6,5.9,6.2,5.9,5,.4,7.2-.4,2.3-.8,6.4.2,9.1-1.2,2.2-3-8.1-4.7-10.2-4.3Z"/>
  <path d="M571,1138.1h0c-2,3.7,11.8,1,11,5.8l5.3-2.6c-.7-7-14.1-7.3-16.3-3.2Z"/>
  <path d="M151.1,961.9l2.2-19-3.3-2.7c-.9.7-4.5,20.8,1.1,21.7Z"/>
  <path d="M1047.3,942.9h0l2.2,19c5.6-.9,2-21,1.1-21.7l-3.3,2.7Z"/>
  <path d="M982.3,740.7l-.5-7.6c-3.8-6.9-9.5,12.3-8.2,15.2,3.4-.4,5-6.8,5.7-7.4.8-.7,2.7,0,3-.2Z"/>
  <path d="M227.2,748.3c0-3.4-1.7-17.5-7-16.3h0c-.7.2-2,8.4-1.6,8.7.2.2,2.2-.4,3,.2.7.6,2.3,7,5.7,7.4Z"/>
  <path d="M854.5,756.7l4.1.9c7.9-12.9-10.7-17.4-4.1-.9Z"/>
  <path d="M342.1,757.5l4.1-.9c6.6-16.5-12-12.1-4.1.9Z"/>
  <path d="M722.6,806.9c-3.9,1-6,7.9-1.1,9.4,9,2.7,7.1-11,1.1-9.4Z"/>
  <path d="M476.3,806.9c-4.9,1.3-5,11.8,2.8,9.5,6-1.8,1.5-10.6-2.8-9.5Z"/>
  <path d="M713.2,1116.9v-3.2c-4.9-1-9.7-2.1-14.6,0h0c-2.9,7.3,10.1,3.3,14.6,3.3Z"/>
  <path d="M1018.2,684.3h0s1.1,0,1.1,0c0-.6-.2-1.6.2-1.9,1.4-1.2,6.8,1.2,8.5-1.9-3.2-4.3-7.9-5.3-13-4.9l3.3,8.7Z"/>
  <path d="M180.8,682.1l.7,2.2c.6.7,5.6-6.4,4.3-8.7-5.1-.4-9.8.6-13,4.9,1.9,2.9,5.5,1,8,1.6Z"/>
  <path d="M487.5,1113.7v3.2c5,0,9.6,2.4,14.6,0h-.1s.6-3.3.6-3.3c-5.1-2.1-10-1.1-15.1,0Z"/>
  <path d="M502.7,830.7c-5.8,2.9-12.2,5.5-16.3,10.8,4.1,1.3,19.8-6,16.3-10.8Z"/>
  <path d="M714.3,841.5c-4.1-5.3-10.5-7.9-16.3-10.8-3.5,4.8,12.1,12.1,16.3,10.8Z"/>
  <path d="M1172.1,639.8c-3.5,2.9,14.3,6.8,15.2,7.6v-4.9l-15.2-2.7Z"/>
  <path d="M28.5,639.8c-4.8.6-19.2,0-15.2,7.6.8-.8,18.6-4.6,15.2-7.6Z"/>
  <path d="M793.5,775.5c-2,2.6,3.3,9.9,6.9,9.7,5.9-4.1-3.8-13.8-6.9-9.7Z"/>
  <path d="M400.2,785.1c3.6.2,8.9-7,6.9-9.7-3.1-4.2-12.8,5.5-6.9,9.7Z"/>
  <path d="M113.1,768.4c5.4,6.9,9.7-10.1,1.2-10.4-.8,3.5-3.9,6.9-1.2,10.4Z"/>
  <path d="M318.2,851.3l3.2-2.8,3.3-16.7c-6.5,2.1-5.4,13.9-6.5,19.5Z"/>
  <path d="M879.2,848.5l3.2,2.8c-1.1-5.6,0-17.4-6.5-19.5l3.3,16.7Z"/>
  <path d="M1087.6,768.4c2.7-3.5-.4-6.9-1.2-10.4-8.5.3-4.2,17.3,1.2,10.4Z"/>
  <polygon points="705.1 945.7 705.1 945.7 705.1 945.7 705.1 945.7"/>
  <path d="M708.8,947.2l-3.7-1.5-3.9,5.9c3.6,10.1,11.3-.3,7.6-4.4Z"/>
  <path d="M499.4,951.6l-4.7-5.9c-8.4.7-.6,18,4.7,5.9Z"/>
  <path d="M933.1,747.5c-.8-.6-5.8-1.7-6.2-1.4-2,6.9.2,9.3,7.5,8.6,1.2-1.8.2-6-1.3-7.2h0Z"/>
  <path d="M211.9,633.3c5.4,1.2,10.3.7,14.1-3.8,0-3.2-15.1-1.8-14.1,3.8Z"/>
  <path d="M988.7,633.3c1-5.6-14.1-7-14.1-3.8,3.8,4.5,8.6,5,14.1,3.8Z"/>
  <path d="M273.7,746.1c-5.6-.3-9.5,3-7.5,8.6,7.3.7,9.5-1.7,7.5-8.6Z"/>
  <path d="M1038.6,657.7c12.6,9.5,20.2-1.8,1.8-2.6l-1.8,2.6Z"/>
  <path d="M161.1,655.4h0c-1.5-.8-3.1-.4-4.6-.2-1.7.3-7.8,2.2-7.3,4.6.9,4.3,17-1,12-4.4Z"/>
  <path d="M599.8,987.8h0c3.6.2,5.9-2.4,9.1-3.2l-1.7-3.2-6.6,4.2c-1.7.3-7.2-7.4-9.1-2.6-.8,2,6.7,4.7,8.2,4.8Z"/>
  <path d="M25.3,671.8c4.2,1.4,1.5,7.4,4.9,10.3,4.3-3.1,2.9-7,.5-10.8l3.3-2.2-8.7,2.7Z"/>
  <path d="M1166.7,669.1l3.3,2.2c-2.4,3.8-3.8,7.7.5,10.8,3.4-2.4.7-9.7,4.9-9.8,1-1.5-7.1-3.9-8.7-3.2Z"/>
  <polygon points="1170.5 682.1 1170.5 682.1 1170.5 682.1 1170.5 682.1"/>
  <path d="M363.8,849.5c-4-3.1-4.2,4.6-4.9,6h0c-1.6,3.9-5,6.7-4.9,10.9,4.2-2.9,7.8-9.1,9.6-13.8.5-1.4,2-1.7.2-3.1Z"/>
  <path d="M836.9,849.6h0c-1.8,1.4-.3,1.7.2,3.1,1.7,4.7,5.3,10.9,9.6,13.8-.5-6.1-6.1-9.7-5.9-16.4l-3.8-.5Z"/>
  <path d="M1021.9,662.6c3.3-1.8,3.5-8.1,1.3-10.6-1.1-1.2-4.9-1.1-5.2.5,0,3.7.8,7.7,3.9,10.1Z"/>
  <path d="M1021.9,662.6s0,0,0,0c0,0,0,0,0,0h.1Z"/>
  <path d="M178.8,662.6c3.2-2.5,4.2-6.9,3.7-10.7-7.1-3.2-8.7,7.2-3.7,10.7Z"/>
  <path d="M504.8,925c-.7-6.9-9-2.6-13-1,.9,6.3,9.1,2.4,13,1Z"/>
  <path d="M708.8,923.9c-4-1.6-12.3-5.8-13,1,3.9,1.3,12.2,5.2,13-1Z"/>
  <path d="M480.4,1152.7c-3.6,2.5-5.9,7.2-2.1,10.8,6.3,0,6-7.4,2.1-10.8Z"/>
  <path d="M720.2,1152.7c-3.9,3.4-4.2,10.7,2.1,10.8,3.7-3.6,1.4-8.3-2.1-10.8Z"/>
  <path d="M1140.1,695.1l-2.6,5.7c6.8,10.2,11.7-2.3,2.6-5.7Z"/>
  <path d="M59.6,695.2c-6.6,1.5-4.2,16.9,3.6,5.7.5-1.7-1.4-6.1-3.6-5.7Z"/>
  <path d="M282.4,649.6c-2.3-2.6-10.8,12.7-9.7,15.2,5.1-3.4,9.1-9,9.7-15.2Z"/>
  <path d="M918.2,649.6c.7,6.2,4.7,11.8,9.7,15.2,1-2.5-7.4-17.8-9.7-15.2Z"/>
  <path d="M192.4,674.5c2.8-2.1-1.8-10.8-6.4-8.6-2.9,3.9,3.5,10.8,6.4,8.6Z"/>
  <path d="M1012.4,673.7c3-1.7,3.5-4.8,2.4-7.9-7.5-2-10.1,12.2-2.4,7.9Z"/>
  <path d="M851,1056.2h0c-.4,2.6.3,2.1,2.2,2.7,1.8.6,13.6,3.2,14.1,2.7,3.5-3-14.7-6.4-16.3-5.4Z"/>
  <path d="M333.4,1061.6h0c4.4-.6,10-1.4,14.1-2.7,1.9-.6,2.6,0,2.2-2.7-1.6-1-19.8,2.4-16.3,5.4Z"/>
  <path d="M223.9,722.3v3.2l9.7-1.1c1.3-3.6-3.3-9.1-5.9-5.3h0c-1.1,1.6.4,4-3.8,3.2Z"/>
  <path d="M969.9,718c-2.5.7-3.2,4-2.9,6.4l9.8,1.1c1.1-4.9-2-2.4-3-3.5h0c-1.1-1.1,0-5.1-3.9-4Z"/>
  <path d="M880.1,725.1c1.6,3.9,4.5,6.4,8.8,6.9.2-4.7-3.7-8.7-8.1-9.8h0c-2,1.6-1.4,1.2-.7,2.9Z"/>
  <path d="M312.2,732h0c1.6-.4,4.5-1.5,5.6-2.5,1-1,4.8-6.2,1.9-7.3-4.3-.6-10.5,9.8-7.6,9.8Z"/>
  <path d="M816.2,936.9c1,1.1,11.9-6.9,9.7-9.8-5.3,2.7-10.6,1.8-9.7,9.8Z"/>
  <path d="M384.4,937c.9-7.9-4.4-7.1-9.7-9.8-2.2,2.9,8.8,10.9,9.7,9.8Z"/>
  <path d="M326.9,1023.6h0v-4.3l-2.5,1.4-.8,3.4c3.8,2.7,5.2.7,7,6.1l3.7-2.7c-1.2-3.7-4-3.7-7.5-3.9Z"/>
  <path d="M793.4,933.7c-3.3-.4-12,0-8.2,5.5,2.4,3.5,9.3-1.5,8.2-5.5Z"/>
  <path d="M414.8,934.2l-7.6-.5c-.5,7.6,11.9,9.6,7.6.5Z"/>
  <path d="M873.7,1023.6h0c-3.3,0-7.4.2-7.1,4.4,5.8,4.9,2.8-3.2,9.9-3.2l-.6-5.5c-3.8-1.2-1.4,3.4-2.2,4.3Z"/>
  <path d="M568.9,803c-.9-3.6-10.7.5-9.8,4.9,3.1.6,11.1.2,9.8-4.9Z"/>
  <path d="M641.6,808h0c-.8-1.2-.8-3.5-1.4-4.1-.4-.5-6.2-2.5-6.7-2.4l-1.7,2.7c1.1,4.8,5.9,3.9,9.8,3.8Z"/>
  <path d="M1026.8,751c0-5.2-1-11.5-1.1-16.8-1.5-1.6-2,0-2.2,1.6-.7,5.3.6,11.5,1.1,16.8,2,0,2.2.5,2.2-1.6Z"/>
  <path d="M176.5,749.4c1-4.7.5-10.3.6-15.2-2.8-.6-2.3,1.3-2.7,3.2h0c-.7,4.3.9,10.4-.6,15.2,2.9.6,2.2-1.3,2.6-3.2Z"/>
  <path d="M849.8,932.6c.5-1.7-1.4-.9-1.8-1.4h0c-1.3-2.2-1.2-4.6-3.2-6.2l-8.1,3.3c1.9,4.6,5.4-.9,8.7,0l-2.2,7.6,6.5-3.3Z"/>
  <path d="M171.7,977.6c1.7,1.7,3.2,1.8,5.5,1.6-.2-10.5-14.3-10.6-5.5-1.6Z"/>
  <path d="M363.8,928.3l-8.1-3.3-4.9,7.6,6.5,3.3-2.2-7.6c3.3-.9,6.8,4.7,8.7,0Z"/>
  <path d="M53.5,623.6c.5-6.6-11.9-.9-11.9.6,3.5,3.9,8.2.4,11.9-.6Z"/>
  <path d="M1159.1,624.1c0-1.5-12.4-7.1-11.9-.6,3.8,1,8.4,4.4,11.9.6Z"/>
  <path d="M54.6,640.9c4.8.9,11,1.6,14.1-3.2-4.4-1.9-10.8-.5-14.1,3.2Z"/>
  <path d="M1146.1,640.9c-3.3-3.7-9.7-5.1-14.1-3.2,3.1,4.9,9.3,4.1,14.1,3.2Z"/>
  <path d="M226.6,647.4l-2.2-1.9c-11.6,5.3.4,14.8,2.2,1.9Z"/>
  <path d="M976.3,645.5l-2.2,1.9c1.7,12.9,13.8,3.4,2.2-1.9Z"/>
  <path d="M1023.5,979.2h0c2.3.2,3.8.2,5.5-1.6.9-.9,4.5-6.7,1.5-7.1-2.9-.4-7.6,5.5-7,8.7Z"/>
  <path d="M842.8,594.3c1.6,0,3-7.8,1.4-9.5-4.7-4.8-7.3,8.1-1.4,9.5Z"/>
  <path d="M357.8,594.3c.5-.9,2.2-.8,2.5-1.3,1.2-1.7,1.3-9.2-1.4-9.4-4.3-.4-3.8,8.8-1.1,10.7Z"/>
  <path d="M1104,663.2c2.3,2.1,2.5,5.8,6.2,4.9,2.3-7.2-1.4-13.6-6.2-4.9Z"/>
  <path d="M93.7,667.3h0c.6-.5,1.3-3,2.7-3.6l-1.9-4.1c-6.7-3.9-6,12.3-.8,7.7Z"/>
  <path d="M564.5,1005.2c5.2-.3,6.7-5.5,11.9-1.1l-2.2-6.5c-2.6-1.8-10.6,6.8-9.7,7.6Z"/>
  <path d="M1123.8,656.1l-3.3,3.2,1.8,5.4h8.6c-.5-2.4-3.8-1.7-4.9-3.2-1-1.4,0-4.2-2.2-5.4Z"/>
  <path d="M76.8,656.1h0c-2,1.2-1.2,4-2.2,5.4-1.1,1.5-4.4.8-4.9,3.2h8.6c2.1-4.7,2.9-5.3-1.5-8.6Z"/>
  <path d="M632.4,1000.3c-1.8-1.3-3.5-3.1-6-2.7l-2.2,6.5c5.2-4.5,6.7.8,11.9,1.1h0c.5-.5-3-4.4-3.7-4.9Z"/>
  <path d="M755.1,747c4.3,1.7,3.8-6.4,2.4-7.3-4.1-2.9-8.5,5-2.4,7.3Z"/>
  <path d="M447.4,740.1c-5.6-3.8-6.2,5.8-4.4,7.1,2.6,1.9,7.9-4.4,4.4-7.1Z"/>
  <path d="M733.8,1081.7c0-2-12.6-3.6-11.9,1.6,4.2.9,8.4,1.9,11.9-1.6Z"/>
  <path d="M466.9,1081.7c3.5,3.5,7.7,2.6,11.9,1.6.7-5.2-11.9-3.6-11.9-1.6Z"/>
  <path d="M683.2,1084.6h0c0,0,.6-3.4.6-3.4l-9.1,1c-2.9,5.9,5.1,3.5,8.5,2.4Z"/>
  <path d="M1151,832.9h0c-1.8.5-2,4.1-1.5,5.7l.9.7c.9-2.1,1.8-4.3,2.7-6.4-.6-.3-1.3-.4-2.1,0Z"/>
  <path d="M47.5,832.8c-.2,0-.4.2-.6.3,1,2.3,2,4.7,3,7,2.6-2.8,1.6-8.6-2.4-7.3Z"/>
  <path d="M516.7,1081.1c-2.6,4.5,8.9,5.6,9.8,4.3v-3.1l-9.8-1.2Z"/>
  <polygon points="41.6 677.8 44.7 677.7 45.8 669.8 44.9 668.5 41.6 668 41.6 677.8"/>
  <polygon points="1154.9 669.8 1155.9 677.7 1159.1 677.8 1159.1 668 1155.8 668.5 1154.9 669.8"/>
  <path d="M999,632.2c3.5-2,1.2-9.2-2-8.6-4.8,1.3-.8,9.2,2,8.6Z"/>
  <path d="M206,626.9l-3.2-3.3c-3.2,1.7-4.3,6.1-1.2,8.6,2.2.5,4-3.6,4.4-5.3Z"/>
  <path d="M195.7,787.9l6.5-10.4c-2.4.4-2.8,4-4.3,4.9h-.1c-2.6,1.5-12.8,1.4-2.1,5.5Z"/>
  <path d="M378.5,1088.8s0,0,0,0h0s-.1,0-.1,0Z"/>
  <path d="M378.6,1088.8l-6.1,6.4,5.4,1.1-1.1-3.2h6.5c.4-2.7-2.6-3.9-4.7-4.3Z"/>
  <path d="M1003,782.4h-.1c-1.6-.9-2-4.5-4.3-4.9l6.5,10.4c10.6-4.1.5-4-2.1-5.5Z"/>
  <path d="M822,1088.8l-4.7,2.7c-1.4,2.9,5.8,1,6.5,1.6l-1.1,3.2,4.8-1,.6-2.2c-3.6.5-4-2.2-6.1-4.3Z"/>
  <path d="M822,1088.8s0,0,0,0h0s0,0,0,0Z"/>
  <path d="M574.3,1061.2c-1.4.8-2.8-.4-2.2,2.6,11.7,2.1,15.5-9.9,2.2-2.6Z"/>
  <path d="M297.1,708.1h0c3-2.4,1.6-6.6.4-9.6h-4.2c1.6,3.1.2,7.4,3.8,9.6Z"/>
  <path d="M903.6,708.1h0c3.6-2.2,2.2-6.5,3.8-9.7l-4.5.6c-.9,2.9-2.3,6.8.7,9.1Z"/>
  <path d="M617.7,1060c-.8,4,14.1,5.4,10.8,1.6-2,.6-10-5.9-10.8-1.6Z"/>
  <path d="M360.6,934.6h0v5.4h6.5c.8-5.4-1.8-5.9-6.5-5.4Z"/>
  <path d="M833.6,940.1h6.4v-5.4c-4.7-.5-7.3,0-6.5,5.4h0Z"/>
  <path d="M198.9,608.9c0-2.8-11.8-.2-10.8,3.8,2.2.8,10.7-1.6,10.8-3.8Z"/>
  <path d="M1001.8,608.9c0,2.2,8.6,4.6,10.8,3.8,1-4-10.9-6.6-10.8-3.8Z"/>
  <path d="M362.2,686.5c4.8-1.2,5-6,1.1-8.6-3,2-4.2,6-1.1,8.6Z"/>
  <path d="M838.5,686.5c3.1-2.6,1.9-6.6-1.1-8.6-3.9,2.6-3.7,7.4,1.1,8.6Z"/>
  <path d="M61.1,693c1.6,2,7.6-.6,9.8-1.1.6-6.4-11.8-1.6-9.8,1.1Z"/>
  <path d="M1129.9,690.3h-.1c-.9,1.8,4.5,3.2,5.4,3.3,1,0,4-.3,4.4-.6,2-2.4-8.1-6.6-9.7-2.7Z"/>
  <path d="M703.4,657.2c.8-4.7-2.7-7-6.5-8.7-2.2,4.7,2.5,7.4,6.5,8.7Z"/>
  <path d="M503.5,653.6h0c1.4-1.7.7-5.4-.2-5.1-3.4,2.2-6.8,3.9-6,8.7.6.7,5.7-3,6.2-3.6Z"/>
  <path d="M866.1,721.2c2.1-2.7-5.1-10.1-6.5-4.9-.9,3.3,4.7,7.2,6.5,4.9Z"/>
  <path d="M341,716.3c-1.4-5.3-8.6,2.2-6.5,4.9,1.8,2.3,7.4-1.5,6.5-4.9Z"/>
  <path d="M324.7,591.1c-4.9-1.3-6.6,3.3-6.5,7.6,4,0,6.9-3.6,6.5-7.6Z"/>
  <path d="M882.4,598.7h0c.8-1-1.4-6.9-2.4-7.4-1.2-.6-2.8,0-4.1-.2-.4,3.9,2.4,7.5,6.5,7.6Z"/>
  <path d="M975.8,789.4c-2.9-.7-3,3-4.3,3.9h-.1c-1.8,1.1-4.8-2.5-4.3,1,3.3,5.4,9.7.5,8.7-4.9Z"/>
  <path d="M316.6,1089.8c-5.7,6.3,4.1,12.1,3.7,2.8l-3.7-2.8Z"/>
  <path d="M884.1,1089.8c-8.8,3.4-.3,11.4,1.5,5.8.6-2,.5-4.4-1.5-5.8Z"/>
  <path d="M1030,934.7h0v5.4h8.7c-1-1.7-6.9-6.6-8.7-5.4Z"/>
  <path d="M233.6,792.8c-5.7,3-4.1-2.6-8.7-3.3-1.2,6.2,7.4,11,8.7,3.3Z"/>
  <path d="M170.7,934.8c-1.8-1.2-7.6,3.7-8.7,5.4h8.6v-5.4Z"/>
  <path d="M408.8,886c3.3-.7-.5-8.8-4.9-6.5-.7,3.1,1.3,7.3,4.9,6.5Z"/>
  <path d="M796.7,879.5c-4.3-2.3-8.2,5.8-4.9,6.5,3.5.8,5.6-3.4,4.9-6.5Z"/>
  <path d="M859.4,830.8c-.6-1.1-6.4-3.8-7.4-.7l3.9,4.9c2.4-.5,5.1-1.4,3.5-4.2Z"/>
  <polygon points="346.9 828.5 346.9 828.5 347 828.5 346.9 828.5"/>
  <path d="M341.7,834c4.1,2.1,2.9.4,4.1-.7.9-.8,1.9-1.3,2.8-2.1l-1.7-2.7-5.9,2.8.7,2.7Z"/>
  <path d="M333.3,861.7l-6.4-3.9c-.6.6,5.8,16.3,6.4,3.9Z"/>
  <path d="M873.8,857.8l-6.4,3.9c.6,12.4,6.9-3.4,6.4-3.9Z"/>
  <path d="M177.7,909.7l-1.7-3.1-2.1.6-1.1,2.6c3.3.5,6.8,3.7,10.8.6l-3.8-3.8-2.1,3.1Z"/>
  <path d="M1024,911.9h0c.5,0,1.3-3.1,3.8-2l-2.7-3.2-2.7,3.3v-3.3c-.9-1.1-5.4,3.4-5.4,3.8,0,1.4,6.6,1.5,7,1.4Z"/>
  <path d="M109.7,917.6c-4.5-2.8-8.2-3-9.6,3.1h0l5.8-2.3,3.9,3.3-.2-4.1Z"/>
  <path d="M1090.7,918.2v3.6l4-3.3h0c0,0,5.8,2.2,5.8,2.2-1.3-6.1-5.7-6.2-9.8-2.5Z"/>
  <path d="M735.9,774.3c.8-4.9-2.9-7.7-7.6-7.6-2.3,2.4,6.1,6.9,7.6,7.6Z"/>
  <path d="M472.3,766.7c-4.6,0-8.4,2.7-7.6,7.6,1.5-.7,9.9-5.2,7.6-7.6Z"/>
  <path d="M531.8,724.7h-.1c-.6-.7-2.8-1.8-3.6-.3l-.5,6.6,4.2-.2c1-1.8,1.4-4.4,0-6.1Z"/>
  <path d="M669.4,731h3.6c.8-16-8.9-1.3-3.6,0Z"/>
  <path d="M848.9,835.2c-1,1.6,0,7,2.5,6.3,5.6-4.1,0-10.6-2.5-6.3Z"/>
  <path d="M346.4,835.5c-.5,2.9,4,9.5,5.4,3.2h.1c.2-.9.3-2.8-.2-3.6-.5-.9-4.9-1.8-5.3.4Z"/>
  <path d="M559.1,1135.3c.3-1.5-.4-2.6-1.8-3.1-10.5-3.3-8.8,6.9,1.8,3.1Z"/>
  <path d="M650.2,1132.1c-3.2,0-8.8-1.4-8.7,3.2,2.9.3,5.2,1.6,8,0l.7-3.2Z"/>
  <path d="M650.2,1132h0c0,0,0,.1,0,.1h0Z"/>
  <path d="M1001.2,1045.4h0s1.6-2.2,1.6-2.2l.8.8c.6-.5,1.2-1.1,1.8-1.6l-5.8.3,1.6,2.7Z"/>
  <path d="M208.6,497.8c-2.7-2.1-5.7,6.3-4.3,8.7,3.5.7,6.1-7.3,4.3-8.7Z"/>
  <path d="M762,715.7c-1.5,1.5,4.1,9.5,6.5,4.9.2-3.9-3-5.4-6.5-4.9Z"/>
  <path d="M438.7,715.7c-3.5-.5-6.7.9-6.5,4.9,2.4,4.7,8-3.4,6.5-4.9Z"/>
  <path d="M996.3,506.5c2.1-10.7-9-10.7-3.5-2.5,1,1.4,1.3,3,3.5,2.5Z"/>
  <path d="M491.7,1163.4v-4.2c-9.2-1.3-8.5,7.5,0,4.2Z"/>
  <path d="M714.3,1159.7h0s-5.4-.5-5.4-.5v4.2c.8,1.1,6,.8,6.5,0,.4-.6,0-3.3-1.1-3.8Z"/>
  <path d="M91.5,546.5h0c0,.1-3.3.7-3.3.7l-1,9.1c2.4-.9,5.8-8.3,4.3-9.8Z"/>
  <path d="M1113.4,556.3h0l-1.2-9.7h-3.2c-1.5,1.4,2,8.8,4.3,9.7Z"/>
  <path d="M336.7,819.8c-2.9-2.7-8.5,5.6-7.6,6.5,2.2,1.1,9.9-4.4,7.6-6.5Z"/>
  <path d="M871.6,826.3c.6-.5-3.2-6.1-3.5-6.3-7.2-4-3.5,7.4,3.5,6.3Z"/>
  <path d="M109.3,939.1h.1c-1,.2-2,1.5-2.5,2.9,1,1.4,1.9,2.8,2.9,4.2,2.1-1.9,3.1-7.8-.5-7.1Z"/>
  <path d="M1090.1,939.1h.1c-2.2.4-1.4,4.7.2,6.6,1-1.4,2-2.9,3-4.3-.7-1.5-2-2.6-3.3-2.3Z"/>
  <polygon points="574.3 1054 558 1050.8 569.5 1055 574.3 1054"/>
  <polygon points="642.6 1050.8 642.6 1050.8 642.6 1050.8 642.6 1050.8"/>
  <path d="M626.3,1055.1l5.7-.2,10.6-4.1c-3.6,0-7.4.7-10.9,1.6-1.4.4-5.2,1-5.4,2.7Z"/>
</svg>