<?xml version="1.0" encoding="UTF-8"?>
<svg id="Layer_1" xmlns="http://www.w3.org/2000/svg" version="1.1" viewBox="0 0 1200 1200">
  <!-- Generator: Adobe Illustrator 29.0.0, SVG Export Plug-In . SVG Version: 2.1.0 Build 186)  -->
  <path d="M1199.7,618.7c0,0,0-.2,0-.3,0-.2-.3-.4-.5-.5-3.1-2.2-9.9,4.1-8.1,8.1,3.3,1.7,7.1-1.2,8.5-4.1,0,0,0,0,0-.1.5-1.1.5-2.3,0-3.1Z"/>
  <path d="M1179.2,757c1-.5,1.8-1.2,2.6-2.2-.6,0-1.2-.3-1.9-.5-.2.9-.5,1.8-.7,2.7Z"/>
  <path d="M115.2,953.7c-1.5-1.1-3.5-1.8-5.9-1.8l.8,3.5h3.8v5.8c2.7-1.7,3.5-3.6,3-5.1-.6-.8-1.2-1.6-1.7-2.4Z"/>
  <path d="M109.2,951.9s0,0,.1,0h0s0,0,0,0Z"/>
  <path d="M70.7,877h0c-.6,0-1.6.4-2.7.8,1.4,2.7,2.8,5.3,4.2,8,.4,0,.8-.3,1.1-.4,13.2-5.9,12.9-11.4-2.6-8.4Z"/>
  <path d="M406.3,1071.2c-2.2-.9-4.3-4.7-7.7-5.2-3.8-.6-8,2-12.1,1.1-.5-3.3,2.3-4.9,3.2-7.8,1.5-5.1,0-12.9-2.9-17.4-2.1-3.3-11.6-7.3-1.6-8.3l5.5,6.7c6.8,1.2,5.9-20.5,3.9-24.2l7.5-3.5,2.9,3.5c-2.1-5.7,4.1-8.7,2.3-15.1l3.1,9.9-1.9,2.9,8.1,4.6-1.2-3.9c5.3-2.6,1.7-12.1,0-16.9,13.3-2,24.2-9.4,19.7-24.4,2.5.7.5,3.9,4.1,5.3,1.9.7,3.8-1.4,4.8-1.4,9.3,0,21,1.5,28.3-6.8,13-14.8-13-21.8-23.2-13.4-1.1-1.3,3.4-6.5-.6-5.8l-4,3v5.1l3.4.6c-1.5,3.1-5.8,2.5-7.6,4-2.1,1.7-1.7,7.8-5.7,9.3-9.8-9.6-19.6-19.1-28.3-29.7-1.8-2.2-2.3-5.2-4.2-7.4-5.9-6.6-10.4-3.6-18-3.5l-1.2-9.3c3.5-.7,3.4,5.2,6.5,5.7,2.3.4,5.7-3.8,6.8-5.6l9.5,5.6,1.5-.4c8.5-5.4,10.5-39.1,9-48.5-.9-5.7-6.5-19-13.1-19.4-2.1,0-9.1,1.5-8.7,4.6-3.7-1.4-.2-7.3,0-11,.5-9.6,0-19.5-3.5-28.4-11.2,2.6-8.7,17.4-12.5,25.9,3.4,2.6,4.1,10.3,5.8,12.1,1.3,1.3,5.7,1.6,6.5,4.5l-2.2,7.4-2.3-8.1c-5.1-1.4-5.2,5.1-3.2,8.5.9,1.5,2.7,1.5,3.5,3.6,1.3,3.4-.3,5.5,0,7.9.7,4.2,5.9,15.9-.3,11.7-.2-1.4-.1-9.6-2.9-8.5-7,4-.8,25.8-11,18.5.4,1.9-2.2,4.2-2.3,5.2-.8,4.4,0,12.5,0,17.4s1.9,2.4,1.1,4.1c-6-1.9-5.3-19.2-13.4-14-2.4,1.6-3.1,4.3-2.9,7.1-1.7,1.8-15.4-8.6-18.3-9.1-3.4-.6-6,1.4-8.7.7-4.3-1-13-12.4-16-9.7l-1.8,4.2c-3.8,1.1-15.9-2.7-19.4-4.9-3-1.8-5-5.4-7.8-7.3-12-8.3-20.3-1.2-30.4-3.2-4.2-.9-12.9-7.6-18.3-9.6-17.3-6.5-19.9-4.9-36.7-15.5-9-5.6-17.8-4.6-27.1-8.3,3.5-3.8,10.8-4.6,14.5-8.1.7-.6,4-6.7,4.1-7.6,0-.9-2.5-13.8-2.9-14.4-.8-1.4-3.8-1.7-5.2-2.9-2.6-2.4-3.5-5.4-8.2-6.9l5.8-2.3c.7-3.3-8.3-6.3-10.9-6-3.6.4-4,3.9-4.4,4.1-.4.2-6.2-1.9-8.4-1.8-9.4.6-10.8,4-16.4,8.9-1.5,1.3-5.3,2.3-5.9,3.4-.5.8.8,3.2.4,5-.8,3.4-2.6,6.7-3.4,10l-9.1.2,7.7-6.2c3.9-5.7,2.7-10-1.9-14.7,4.7-.3,15.6-12.5,14.9-16.6-1.1-6.6-4-13.6-8.4-19-8.2-10.1-23.4-21.8-37-19.8-8.8,1.3-12.2,4.2-16.6,11.3-2,3.2-.9,7.6-6.3,7l2.3,1.9c-.1,1.8,1,4.5-1.7,3.9l-14.5-8.7,13.9-1.7-2.3-1.7c15.5-17.2-19-21.9-30.5-19.1-3.5,3.2-5.8,6.8-6.6,11.6l10.8.2,8.9,9.1c-7.3-1.6-18.9-3.4-18,7-5.7-2-3-5.8-4.3-7.9,0-.2-1.5-.8-3.1-1.4,7.8,24.5,17.1,48.3,27.9,71.3,9.6,3.9,22.7,9.1,27.4,9.7,2.4.3,10-.9,11.9-.2.5.2,6.6,6.7,8,8.2.9.9,1.7.9,1.3,2.8l-7,3.5,2.3,6.9c-4.9-2.4-10.1,3.1-12.4,3.3-1.6,0-4.6-3.3-7.4-2.1,4,4,.7,4.9,0,9.3.7.6,11.3-1.2,10.4,3.5-4-.4-7.9-1-11.9-1,7.2,12.6,14.9,24.9,23,37,.2-.8.4-1.5.5-2.3,1.6-.3,1.5-.2,2.4.7l.7-.8c.6.6,10.3,13.8,11.5,6.8.4-2-4.7-6.4-5.9-8.1-.7-1.1,0-2.2-.3-2.6-.6-.9-3.6-.8-3.1-3.1l11-6.4c3.3,7,9.6-.4.6-1.2,5.1-4.7-1.4-12.7-5.8-15.6,3.2-.2,5.6-4,5.8-7,.3-4-3.6-4-3.5-7.5h5.1c2.9,14.2,3.5,22.6,20.2,25.2,1.9.3,20.4.5,21.5.4.9,0,1.1-2.4,2.7-3.4,6.9-4.1,12.4-3.9,19.4,0,8.6,4.8,13.7,15.6,24.6,16.1,3.4.2,6.9-2,9.8-.7,2.2,1,7.2,7.7,9.9,9.9,13.8,10.8,28.3,7.4,40.8,14.9,8.6,5.1,11.8,18.1,23.5,17.7v4.6c5.9-5.5,13.3-9,21.4-5.9l.7,4.8,1.7-3.5c2.7,3.3,7.8,3.5,10.4,7,2.7,3.7.2,5.2.8,8.3,3.3,16.3,14.9,29.1,32.6,25,4.8-1.1,16.6-10.1,19.8-7.9l4.3,9.4c-4.8-2.1-7.1-5.1-13.1-3.2-3.5,1.1-1.9,6.5-7.3,6.7l.7,4.7c-4-2.7-18.8-.8-21.6,2.2-.6.7-5.9,9.4-6.1,10.2-3.1,12.9-.8,39.9,11.1,47.9,15.5,10.3,25.6,3,37.4-8.1,1,3.3-1.1,8.2-.8,10.9.4,3.6,7.5,19.2,10.1,21.9,1.3,1.4,3,1.8,4.6,2.7,15.6-5,9.6-22.4,14-34.3-2.1-1.2-5.2,0-6.9-.6Z"/>
  <path d="M1164.7,791.8c.9-10.4-10.6-8.6-18-7l8.9-9.1,10.8-.2c-.9-4.8-3.2-8.4-6.6-11.6-11.5-2.8-46,1.9-30.5,19.1l-2.3,1.7,13.9,1.7-14.5,8.7c-2.8.6-1.6-2.1-1.7-3.9l2.3-1.9c-5.4.6-4.3-3.8-6.3-7-4.4-7.1-7.8-10-16.6-11.3-13.6-2-28.8,9.7-37,19.8-4.5,5.6-5.4,8.6-6.5,14.9-.3,1.5-1.6,2.8-1.8,4.1-.7,4,10.2,16.3,14.9,16.6-4.6,4.7-5.8,9-1.9,14.7l7.7,6.2-9.1-.2c-.9-3.4-2.7-6.6-3.4-10-.4-1.7.9-4.1.4-5-.6-1.1-4.4-2-5.9-3.4-5.5-4.9-7-8.4-16.4-8.9-2.2,0-8,2-8.4,1.8s-.8-3.8-4.4-4.1c-2.6-.3-11.6,2.7-10.9,6l5.8,2.3c-4.7,1.5-5.5,4.5-8.2,6.9-1.4,1.3-4.4,1.6-5.2,2.9-.4.6-3,13.6-2.9,14.4,0,.9,3.5,6.9,4.1,7.6,3.6,3.5,11,4.4,14.5,8.1-9.3,3.7-18.1,2.7-27.1,8.3-16.9,10.6-19.5,9-36.7,15.5-5.4,2-14.1,8.7-18.3,9.6-10.1,2-18.4-5-30.4,3.2-2.8,1.9-4.8,5.5-7.8,7.3-3.6,2.2-15.6,6-19.4,4.9l-1.8-4.2c-3-2.6-11.7,8.7-16,9.7-2.7.6-5.2-1.4-8.7-.7-4.3.8-10.9,7.7-16.6,9h-1.7c2-5.4-7-11.2-9.3-6-1.7,3.8-2.3,10.7-7,13-.7-1.7,1.1-3.2,1.1-4.1.4-5.5,0-11.8,0-17.4s-2.8-3.5-2.3-5.2c-10.3,7.2-4-14.5-11-18.5-2.8-1.1-2.7,7.1-2.9,8.5-6.2,4.1-1-7.5-.3-11.7.4-2.4-1.2-4.5,0-7.9,1.3-3.2,7.5-5.4,3.6-12h-3.4l-2.3,8.1-2.2-7.4c.8-2.9,5.2-3.2,6.5-4.5s2.5-9.4,5.8-12.1c-3.8-8.5-1.3-23.4-12.5-25.9-4.4,11.9-4.8,25.5-1.5,37.7l-2,1.7c.5-3.1-6.5-4.7-8.7-4.6-6.6.4-12.2,13.7-13.1,19.4-1.5,9.4.5,43.1,9,48.5l1.5.4,9.5-5.6c1.1,1.8,4.5,6,6.8,5.6,3.1-.5,3-6.3,6.5-5.7l-1.2,9.3c-7.6-.2-12.1-3.2-18,3.5-1.9,2.2-2.4,5.1-4.2,7.4-8.7,10.6-18.5,20.1-28.3,29.7-4-1.6-3.6-7.7-5.7-9.3-1.8-1.5-6.1-.9-7.6-4l3.5-.6v-5.1c-9.9-7.6-3.6,1.4-4.7,2.8-10.3-8.5-36.3-1.4-23.2,13.4,7.3,8.3,19,6.7,28.3,6.8,1,0,2.9,2.2,4.8,1.4,3.6-1.4,1.6-4.6,4.1-5.3-4.5,15,6.4,22.4,19.7,24.4-1.6,4.8-5.3,14.3,0,16.9l-1.2,3.9,8.1-4.6-1.9-2.9,3.1-9.9c-1.7,6.4,4.4,9.4,2.3,15.1l2.9-3.5,7.5,3.5c-2,3.7-2.9,25.4,3.9,24.2l5.5-6.7c10.1.9.5,4.9-1.6,8.3-2.8,4.5-4.4,12.3-2.9,17.4.9,2.9,3.7,4.5,3.2,7.8-4,.9-8.3-1.7-12.1-1.1-3.4.5-5.5,4.3-7.7,5.2-1.6.7-4.8-.6-6.9.6,4.3,11.9-1.6,29.3,14,34.3,1.6-.9,3.3-1.3,4.6-2.7,2.6-2.7,9.7-18.3,10.1-21.9.3-2.7-1.8-7.5-.8-10.9,11.8,11.1,22,18.4,37.4,8.1,11.9-7.9,14.2-35,11.1-47.9-.2-.8-5.4-9.5-6.1-10.2-2.8-3-17.5-4.9-21.6-2.2,2.3-7-1.2-4.3-3.2-6.1-1.1-1-.2-4.2-3.4-5.3-6-1.9-8.3,1.2-13.1,3.2,4.1-19.1,13.2-4,24.1-1.4,17.7,4.2,29.3-8.6,32.6-25,.6-3.2-1.9-4.7.8-8.3,2.6-3.5,7.7-3.6,10.4-7l1.7,3.5c-1.7-9.3,12.2-5.7,17.3-2.8,1.8,1.1,2.8,3.2,4.7,4v-4.6c11.8.4,15-12.6,23.6-17.7,12.6-7.4,27-4,40.8-14.9,2.7-2.1,7.8-8.9,9.9-9.9,2.8-1.3,6.4.8,9.8.7,10.8-.5,16-11.4,24.6-16.1,7-3.9,12.5-4,19.4,0,1.6.9,1.8,3.2,2.7,3.4,1.1.2,19.6,0,21.5-.4,16.7-2.7,17.4-11,20.2-25.3h5.1c0,3.5-3.7,3.5-3.5,7.5.2,3.1,2.6,6.9,5.8,7-4.4,3-10.9,10.9-5.8,15.6-9,.8-2.7,8.2.6,1.2l11,6.4c.5,2.3-2.5,2.2-3.1,3.1-.2.4.5,1.6-.3,2.6-1.2,1.7-6.2,6.1-5.9,8.1,1.2,7,10.9-6.2,11.5-6.8.9-1,.8-1,2.4-.7,0,.6.2,1.1.3,1.7,7.9-11.8,15.4-23.9,22.5-36.3-3.5,0-7,.5-10.4.9,0-4,9.8-2.4,10.4-3-.7-4.3-4-5.2,0-9.3-2.8-1.2-5.8,2.3-7.4,2.1-2.3-.2-7.4-5.7-12.4-3.3l2.3-6.9-6.9-5.2c3.6-1.2,6.7-8.3,9.2-9.2,2-.7,9.6.5,11.9.2,4.5-.6,17.1-5.6,26.6-9.4,10.8-23,20.1-46.8,27.9-71.3-1.3.5-2.3,1-2.4,1.1-1.2,2.1,1.5,5.9-4.3,7.9Z"/>
  <path d="M1127.2,885.1h0c.2,0,.4.3.6.3,1.4-2.6,2.8-5.3,4.2-8-.9-.3-1.7-.6-2.2-.7-15.5-3-15.8,2.5-2.6,8.4Z"/>
  <path d="M566.1,1124.9h0c-.2-3.6,1-6.8.2-10.9-1.7-8.1-9.3-17-16.8-20.3-3.8-1.7-6.9-.8-9.9-1.7-1.9-.6-3.1-3-5.4-3.9-9.4-3.3-19.1,1.2-28.2-.7-1.6-.3-3.9-1.5-4.4-3.3,13.5,5.9,24.5-21,7.4-21.6-8.3-.3-17.8,11.6-12,18.7l-2.4,2.3,19.1,18.1c6.9,25,10.6,50.6,43.1,47.6,4-.4,11-9.4,11-13.4s-1.4-7.4-1.7-10.9Z"/>
  <path d="M705.7,1075.8c-.6-6-7.8-13.5-14.2-13.2-17.1.6-6.1,27.5,7.4,21.6-8.5,7.8-21.6,0-32.6,4-2.3.8-3.6,3.3-5.4,3.9-3,.9-6.1,0-9.9,1.7-7.5,3.3-15.2,12.2-16.8,20.3-.8,4.1.4,7.3.2,10.9-.2,3.5-1.7,8.1-1.7,10.9,0,4,7,13,11,13.4,6.9.7,16.6-.9,22.6-4.3,14.1-8,15.4-29.5,20.5-43.3l19.1-18.1-2.1-1.9c-1.1-1.4,2.2-3.1,1.9-5.9Z"/>
  <path d="M317.9,784.1c1.1,1.7.2,4.8,2.6,7.3,2,2.1,4.6,1.7,6.2,2.8,5.1,3.7,5.6,10,10.1,14-1.6-8.9-7-18.5-8-27.4-.7-6.1,1.2-10.5,1.1-16.1h0c0-9.7-2.3-31.2-8.5-38.6-.9-1.1-7.2-3.2-8.6-6-1.7-.3-5.2,3.9-6,5.4-1.2,2.6-3.5,19.1-3.7,22.9-.7,9.9,1.7,21.4,7.6,29.5,1.8,2.5,6.7,5.4,7.2,6.2Z"/>
  <path d="M871.6,780.9h.1c-.9,8-5.6,17.7-8,25.6-.3,3.4,1.4,1,2.1-.2,2.5-3.9,3.5-8.8,7.5-11.6,2.1-1.5,4.8-1.3,6.7-3.2,2.4-2.5,1.5-5.6,2.6-7.3.7-1.1,5.7-4.1,8-7.6,9-13.8,7.3-32,4.1-47.5-.8-4-3-6.6-6.3-8.9-1.5,1.6-8.8,5.3-9.4,6-6.1,7.4-8.3,27.9-8.5,37.4,0,6.1,1.8,11,1.1,17.3Z"/>
  <path d="M610.7,924.7c5.5-6.9,6.1-14.5,1.2-22.1-4.2-.3-8.9-1.5-13-1.4-1.4,0-9.7,1.1-10.3,1.4-10.8,14.3,8.2,39.4,22.1,22.1Z"/>
  <path d="M64.9,731.2c2.9,7,10.6,5.3,11.7,6.3.4.4,0,2.6,2,4.3,6.6,5.7,21.7,4.2,27.8-2.2,1.7-1.6-2.1-6.9-3.3-7.8h0c-2.9-2.2-16.1-3.1-19.9-1.5-2.8-10.4-24.5-14-18.3.9Z"/>
  <path d="M1121.8,741.9h0c2-1.7,1.6-3.9,2-4.3,1.3-1.2,10.4.5,12.3-8,3.2-13.9-16.6-8.3-19,.8-5.8-2.3-23.7-.5-23.8,7.6,0,7.4,22,9.5,28.4,3.9Z"/>
  <path d="M631.2,872.6h0c-1.7-2.1-3-5.5-4.7-7.2-1-1-7.5-5.6-8.6-5.9-8-2.1-17,4.3-13,12.8,2.4,5.1,24.7,9.7,26.3.3Z"/>
  <path d="M575.3,877.5h.1c7.6,1.3,22-1.1,21-10.7,0-.9-1.6-4.5-2.3-5.1-.9-.8-6-2.4-7.4-2.6-8.9-.8-25.4,16.2-11.4,18.4Z"/>
  <path d="M437,1149.5c.3,1,5.1,10.1,5.7,10.9.9,1.1,3.8,2.1,4.9,3.7,4.5-3.7,7.1-4.4,6.9-10.9-.4-16-23.1-22.5-17.5-3.7Z"/>
  <path d="M747,1159.5h0c1.3,2,5.7,1.3,5.2,4.6.3.2,5.2-3.5,5.4-3.8,2.9-3.6,8.9-17.2,5-21.1-6.8-6.9-21.8,10.5-15.7,20.3Z"/>
  <path d="M741.5,1058.9c-8.4,1.1-18.7,18.5-8.1,21.6,11.8,3.5,24.2-23.7,8.1-21.6Z"/>
  <path d="M457.2,1058.9c-13.6,1.1-1.1,21.6,6.7,21.9,15.2.5,4.5-22.8-6.7-21.9Z"/>
  <path d="M221.2,844c7-15.3-26-12.9-23.7,2.3,6.2,2.2,20.1,5.7,23.7-2.3Z"/>
  <path d="M979.2,844.1c3.6,8,17.5,4.5,23.7,2.3,2.2-15.2-30.7-17.6-23.7-2.3Z"/>
  <path d="M695.4,1181h0c-2-1.7-12.9-4.8-15.5-3.9-7.5,2.5,1.3,13,9.4,16.3,2.9-.4,5.8-.9,8.7-1.4,1.3-3.1-.5-9.3-2.6-11Z"/>
  <path d="M515.2,1177.2c-8.3,1.6-16,6.5-12.1,15,2.8.4,5.5.9,8.3,1.3,9.7-4,18.6-19.2,3.8-16.3Z"/>
  <path d="M144.2,977.9c-4.1-1.4-6.7,0-8.1,2.6,4.1,5,8.3,10,12.6,14.9.5-6,2.4-15.2-4.5-17.5Z"/>
  <path d="M1056.3,977.9c-6.7,2.2-5.1,10.9-4.6,16.9,4.2-4.8,8.4-9.7,12.4-14.7-1.4-2.3-4-3.5-7.8-2.2Z"/>
  <path d="M746.5,885.2h0c-.3-.5-5.7-5.9-6.1-6.1-2.4-1-5.5.3-7.3,2-6.9,21.9,25.2,21.6,13.4,4.1Z"/>
  <path d="M467.3,881.2c-.8-1.4-4.1-2.4-5.8-2.4-2,0-1.6,1.5-2.2,1.9-23.3,16,12.8,29.7,8,.5Z"/>
  <path d="M461.4,878.8s0,0,0,0c0,0,0,0,0,0h0Z"/>
  <path d="M1070.1,724.8c-6.6-4.8-18.6-2.5-17,7.1,3.1,18.2,21.7.6,17-7.1Z"/>
  <path d="M143.9,739.4c.7-.4,3.3-6.3,3.5-7.6,1.6-9.6-10.4-11.8-17-7.1h0c-3.4,6.7,7.4,18.3,13.5,14.7Z"/>
  <path d="M575.1,1170.1c-7.1-1.3-13.1,1.4-11.8,9.4.3,1.7,3.6,10,4.8,11,1.3,1.1,3,1.6,4.7,1.4,5.8-3.7-.3-8.1-.2-9.8,0-1,8.4-9,2.5-12Z"/>
  <path d="M625.4,1170.1c-6,3,2.4,11,2.5,12,0,1.7-6,6.1-.2,9.8,1.7.2,3.4-.4,4.7-1.4,1.2-1,4.5-9.3,4.8-11,1.4-8-4.7-10.7-11.8-9.4Z"/>
  <path d="M971.1,745.5c7.2-1.2,10.6-21.4,4.4-23.1-1-.4-2-.3-3,0-6.4,1.7-8.3,23.1-1.4,23.1Z"/>
  <path d="M230.3,745.4c6-1.5,4.1-25.5-5.3-22.9-6.8,1.9-1.8,24.7,5.3,22.9Z"/>
  <path d="M454.9,1014.7c-1.2-1-13.6-5.2-15.9-5.6-2.7-.5-5.4-.8-8.2-.5-1.4,1.2,3.9,5.6,4.7,6.3h0c4.5,3.7,13.9,8.5,19.6,8.4,3.8,0,1.3-7.2-.2-8.6Z"/>
  <path d="M769.7,1008.8c-2.8-.2-5.4,0-8.2.5-2.3.4-14.7,4.5-15.9,5.6-1.1,1-1.8,5.6-2.6,7.2.3,2.5,8.3.3,10.1-.3h0c1.8-.6,19.7-10.4,16.6-13Z"/>
  <path d="M247.8,960h.1c-4.2,5.2-.8,17.6,6.7,16.1,5.4-1.1,8.9-7.6,5.1-12.3-2-2.4-8.8-7.3-11.9-3.8Z"/>
  <path d="M940.6,963.9h.1c-3.8,4.7-.3,11.2,5.1,12.3,7.5,1.5,10.9-10.9,6.7-16.1-3-3.5-9.9,1.4-11.9,3.8Z"/>
  <path d="M356.6,845.1s0,0,0,0c0,0,0,0,0,0h.1Z"/>
  <path d="M356.5,845.1c.5-.9-.5-8.7,0-10.7.3-1.4,3.1-1.4,3.5-2.6,1.3-4-3-3.3-4.3-4.4-1.3-1.1-1.7-5.7-4.5-6.6-7.1-1.2-4.5,27.2,5.3,24.3Z"/>
  <path d="M844,834.5c.5,2.1-.6,10.2,0,10.8,9.5,2.7,12.2-23.3,6.2-24.3-5,1.8-3.8,7.2-9.7,8.6-1.1,3.6,3.1,3.4,3.5,4.9Z"/>
  <path d="M572.4,1066.8c-5.7,5.9,26.7,19.7,21.9,5.4-1.8-5.3-17.1-6-21.9-5.4Z"/>
  <path d="M606.2,1072.2c-4.8,14.3,27.6.5,21.9-5.4-4.8-.6-20.1,0-21.9,5.4Z"/>
  <path d="M824.9,779.1c5.9,1.2,10.5-24.7,1.1-26.6-3.1.2-5.4,23.3-1.1,26.6Z"/>
  <path d="M375.6,779.1c4.3-3.3,1.9-26.4-1.1-26.6-9.4,1.9-4.7,27.8,1.1,26.6Z"/>
  <path d="M1012.8,802.3c-.7,1.1,1.7,7.5,2.6,8.2,1.5,1.3,13.1,6.3,14.3,2.8l-2.1-.7c5.5-8.1-10.9-16.6-14.8-10.3Z"/>
  <path d="M173,812.3l-2.2,1.1c1.1,3.8,14.1-2.3,14.8-3.2.3-.3,2.6-6.7,2.5-7.1-1.6-7.2-21.5.7-15.1,9.2Z"/>
  <path d="M210.4,966c-.6,9.5,6.1,7.2,12,7,1.5,0,3.1,1,4.6,1,3.3-.2,4-4.3,1.8-6.4-2.4-2.4-15.3-5.3-18.4-1.6Z"/>
  <path d="M971.7,967.6h0c-2.2,2.2-1.6,6.3,1.8,6.4,1.5,0,3.1-1,4.7-1,5.9.2,12.6,2.4,12-7-3.1-3.7-16-.8-18.4,1.6Z"/>
  <path d="M73.2,653.8c2.5-5.7-9.9-15.5-13.5-11.2-5.1,6.1,6.5,16.7,13.5,11.2Z"/>
  <path d="M1140.8,642.6c-3.6-4.3-16,5.4-13.5,11.2,7,5.5,18.6-5.1,13.5-11.2Z"/>
  <path d="M290.9,789.5c4.2-2.3-.6-7.2-.5-8.7.2-1.6,8.8-2.5,6.8-7.5-7.6.8-9,4.7-15-2.2-3.5,8.1,3.5,13.3,8.7,18.4Z"/>
  <path d="M282.1,771s0,0,0,0c0,0,0,0,0,0h0Z"/>
  <path d="M909.9,780.8h0c.2,1.5-4.6,6.4-.5,8.7,5.2-5.1,12.3-10.5,8.7-18.5-6.1,7-7.4,3.1-15.1,2.3-2,5,6.7,5.9,6.8,7.5Z"/>
  <path d="M252.6,643.4c5.4-3-3.3-22-5.8-22-7.2,6.1-.5,17.9,5.8,22Z"/>
  <path d="M947.9,643.4c6.3-4.1,13-15.9,5.8-22-2.5,0-11.2,19-5.8,22Z"/>
  <path d="M606.9,1098.3c-7.5,2.2-.5,19.8,8.5,12,3.7-3.7-2.5-14.7-8.5-12Z"/>
  <path d="M589.5,1098.3c-3.9,1.1-7.6,9.7-3.6,12.5,10.7,7.5,16.1-16.1,3.6-12.5Z"/>
  <path d="M451.6,1049.8c.2-.9-.8-6.2-1.4-7-1.3-2.1-12.2-8.8-13.3-3.1-.7,3.8,6.9,10.6,9.8,13l4.9-2.9Z"/>
  <path d="M762.2,1044.4h0c1-1.9,2.1-4.4.5-6.1-2.7-3.8-15.9,4.2-13.9,11.5l4.9,2.9c.7,0,8-7.5,8.4-8.3Z"/>
  <path d="M317,995c2.3,4.3-.3,10,2.9,13.8,1.6,1.9,1.1.7,2.3,0,.6-.3,3.5-2.3,3.7-2.6,2.3-2.9,3.4-9.4.9-12.4-3.2-3.4-6.2,1.3-9.8,1.2Z"/>
  <path d="M316.9,995s0,0,.1,0c0,0,0,0,0,0h0Z"/>
  <path d="M879.4,1009.9c4.7-3.9,1.5-10.2,4.1-15-15-7.7-14.1,9.4-4.1,15Z"/>
  <path d="M967.6,875.5c11.2-.4,18-10.2,3.9-9.1-9.9.8-14.4,9.4-3.9,9.1Z"/>
  <path d="M226.2,866.3c-15.5,1.8,8.6,14.9,13,6,.7-3.9-9.9-6.4-13-6Z"/>
  <path d="M132.5,740.9c-1.1,3.5,1.5,19.7,6.4,18.5,4.2-1,2.9-21.3-6.4-18.5Z"/>
  <path d="M1061.6,759.4c4.9,1.2,7.4-15.1,6.4-18.5-9.2-2.7-10.6,17.5-6.4,18.5Z"/>
  <path d="M863.1,646.9c-6.3-1.9-7.4,14.7-5.2,18.5,5.1,4.2,9.9-17.1,5.2-18.5Z"/>
  <path d="M342.6,665.5c2.2-3.8,1.1-20.5-5.2-18.5-4.7,1.4,0,22.7,5.2,18.5Z"/>
  <path d="M895.8,1062.6h0c-.9-.9-3.8-3-4.8-2.8-4.3,3.5,0,9.2,2.4,12.7.9,1.3,3,5.3,4.5,4.7,6.2-2.3,1.3-11.6-2.1-14.6Z"/>
  <path d="M309.5,1059.8c-6.4,1.9-15.5,14.9-5.2,17.4,1.7-5.6,10.8-11.7,5.2-17.4Z"/>
  <path d="M841.7,902.2s0,0,0,0c0,0,0,0,0,0h0Z"/>
  <path d="M841.7,902.1c2.5.6,2.6-1.4,3.7-2.6,3.8-4.1,12.2-15.6,7.3-20.5-5.9,6.2-9.7,14.6-11,23.1Z"/>
  <path d="M355.1,899.4c1.1,1.2,1.2,3.2,3.7,2.6-1.3-8.4-5.2-16.9-11-23.2-4.9,4.9,3.5,16.5,7.3,20.5h0Z"/>
  <path d="M445.6,1088.5c.5-.4,1.1-2,1-2.6l-4.2-7c-15.4-3.4-5.4,17.5,3.2,9.6Z"/>
  <path d="M758.1,1078.9l-4.2,7c0,.6.5,2.2,1,2.6,8.6,7.9,18.6-13,3.2-9.6Z"/>
  <path d="M195.2,854.6h0c-3.4,5.4-.9,19.8,6.9,13.3l-2.2-5.1c7.9-2.6.7-8-4.7-8.2Z"/>
  <path d="M1000.2,869.5c6.8,2.1,8-10.6,5.1-15l-8,4.2h0c-1,3.9,2.8,3.3,3.3,4,.6.8-4.1,5.5-.4,6.8Z"/>
  <path d="M277.5,761.9c-5.7-2.7-9.2-.9-12.5,4.1,2.2,10.1,13.7,4.5,12.5-4.1Z"/>
  <path d="M935.5,766c-3.2-5.1-6.7-6.9-12.5-4.1-1.2,8.6,10.2,14.2,12.5,4.1Z"/>
  <path d="M711.8,1075.5c0,6.7,16.3,1,13.8-7.5-4.4-2.6-13.8,3.9-13.8,7.5Z"/>
  <path d="M474.9,1067.9c-2.6,8.5,13.7,14.2,13.8,7.5,0-3.6-9.4-10.1-13.8-7.5Z"/>
  <path d="M602.1,946.2c-2.6,5.9-2.9.5-3.3.3-1.6-1-6.4.4-7.4,2-2.5,3.9,7.7,6.3,7.6,1.3h1.7c5.8,8,14.9-3,1.4-3.6Z"/>
  <path d="M602,946.2s0,0,0,0c0,0,0,0,0-.1h-.1Z"/>
  <path d="M245.6,731.6c3.5-.8,2.6-14.5-1.1-14.8-7.7.6-3.4,15.9,1.1,14.8Z"/>
  <path d="M954.9,731.6c4.5,1.1,8.8-14.2,1.1-14.8-3.7.3-4.7,14-1.1,14.8Z"/>
  <path d="M673.4,861.5c0-1.6,0-3.1-.6-4.6-.9-1.9-8.8-8.8-10.5-5.9-3.8,6.6,6.1,10.6,11.1,10.5Z"/>
  <path d="M538.2,851c-1.7-2.9-9.5,3.9-10.5,5.9-.7,1.5-.7,3-.6,4.6,5,0,14.9-3.9,11.1-10.5Z"/>
  <path d="M624.6,1016.9c6.1,1.5,12.5-3.2,10.3-9.2-7.5-.9-11.7,1-10.3,9.2Z"/>
  <path d="M575.9,1016.9c1.4-8.1-2.9-10.1-10.3-9.2-2.1,5.9,4.3,10.7,10.3,9.2Z"/>
  <path d="M960.1,1073.7c6.7.4,10.7-6.9,8.1-12.7-6-.3-9,7.5-8.1,12.7Z"/>
  <path d="M232.3,1061c-2.6,5.8,1.4,13.1,8.1,12.7.9-5.2-2.1-13-8.1-12.7Z"/>
  <path d="M920,672.4c7.2-.4,6.7-19.7.9-13.6-2.2,2.2-4.4,12.9-.9,13.6Z"/>
  <path d="M280.5,672.4c3.6-.7,1.3-11.3-.9-13.6-5.9-6.1-6.3,13.2.9,13.6Z"/>
  <path d="M1177.2,734.4c-2.6-1.5-11.5,5.8-9.3,9.9,5.5,2.4,15-6.6,9.3-9.9Z"/>
  <polygon points="729.1 982.1 729.1 982.1 729.1 982.1 729.1 982.1"/>
  <path d="M729.1,982.1c-.8-.7-20.8,2.5-19.7,8.1,4.4,1.1,7-1.7,10.4-2.9,3.2-1.1,9.2-.2,9.3-5.2Z"/>
  <path d="M471.4,982.1c0,5,6.1,4.1,9.3,5.2,3.4,1.2,6.1,4,10.4,2.9,1.1-5.6-18.9-8.8-19.7-8.1Z"/>
  <polygon points="471.4 982.1 471.4 982.1 471.4 982.1 471.4 982.1"/>
  <path d="M32.6,744.3c2.1-4.1-6.8-11.4-9.3-9.9-5.7,3.4,3.8,12.3,9.3,9.9Z"/>
  <path d="M922.4,731.6c-3.8,1.8-4,14.9-1.2,15,5.9-.4,5.4-16,1.2-15Z"/>
  <path d="M279.3,746.6c3.1,0,2.5-16.1-2.3-15-2.8.6-3.4,14.8,2.3,15Z"/>
  <path d="M759.3,775.6c.4-3.5.8-14.5-5.2-12.7-4.3,1.3-1,14.6,5.2,12.7Z"/>
  <path d="M446.4,762.9c-6-1.8-5.6,9.2-5.2,12.7,6.2,1.9,9.5-11.4,5.2-12.7Z"/>
  <path d="M843.4,870.8h0c2.7-4.8,3.4-9.6,2.9-15.1l-3.6.7c-.5,2.9-4.1,15-2.2,16.7,2,1.8,2.4-1.4,2.9-2.3Z"/>
  <path d="M357.1,870.8c.5.9.9,4,2.9,2.3,1.9-1.7-1.8-14.4-2.4-17.3h-3.4c-.5,5.4.2,10.2,2.9,15Z"/>
  <path d="M768.5,906.7c1.8-2.1-2.4-14.2-7-13.9-.7,5.6.5,12.6,7,13.9Z"/>
  <path d="M439,892.8c-4.5-.3-8.8,11.8-7,13.9,6.4-1.3,7.7-8.3,7-13.9Z"/>
  <path d="M407.6,1040h0c.4,2,0,4.3,1.7,5.9,3.2,3.2,6.6,1.7,4.7-3.6-1.7-4.7-3-3.3-6.4-2.3Z"/>
  <path d="M401.8,1024.9h0c0,0,2.3,16.3,2.3,16.3,1.4.4,2.5-.9,3.5-1.2-.2-1-2.3-19.3-5.8-15.1Z"/>
  <path d="M792.9,1040.1c-3.4-1-4.7-2.4-6.4,2.3-2.5,6.9,4.3,7.8,6.4-2.3Z"/>
  <path d="M796.4,1041.3h0c0,0,2.3-16.3,2.3-16.3-3.5-4.2-5.6,14-5.8,15.1,1,.3,2,1.5,3.5,1.2Z"/>
  <path d="M583.8,814.9c6.7-9.4-6.9-15.2-5.7-1.8l5.7,1.8Z"/>
  <path d="M622.1,813.7c2.3-14.6-13.1-7.9-4.9,1.4l4.9-1.4Z"/>
  <path d="M177.8,750.1c-6.7-.8-7.6,3.6-7,9.3,6.7.8,7.6-3.6,7-9.3Z"/>
  <path d="M1029.7,759.4c.6-5.6-.3-10.1-7-9.3-.6,5.6.3,10.1,7,9.3Z"/>
  <path d="M339.1,815.1c-.1,4.6-.5,13,5.8,13.9,0-4.3-.2-13-5.8-13.9Z"/>
  <path d="M861.4,815.1c-5.6.9-5.9,9.6-5.8,13.9,6.3-.9,5.9-9.3,5.8-13.9Z"/>
  <path d="M833,834.8c4.8,2,5.3-9.1,4-11.6-4.4-3-7.5,10.2-4,11.6Z"/>
  <path d="M363.4,823.9c-1.2,3.9-.2,7.2,1.3,10.9,8.6,2.1,2.5-16-1.3-10.9Z"/>
  <path d="M7.2,619.6c-8.6-7.3-9.1,8.9,2.2,6.5.3-2.7-.1-4.7-2.2-6.5Z"/>
  <path d="M730.2,1033.1c6.8,1.2,7.6-5.5,5.8-10.4h0c-5.4.7-6.5,5.8-5.8,10.4Z"/>
  <path d="M420.4,1070.2c2.6.4,4.6-.7,5.6-3.1l-1-9.6c-4.8-1-5.4,12-4.6,12.7Z"/>
  <path d="M775.5,1057.5c.5,5.7-4.2,12.7,4.6,12.7.7-.8.2-13.7-4.6-12.7Z"/>
  <path d="M464.5,1022.7h0c-1.9,5-1,11.7,5.8,10.4.7-4.6-.4-9.7-5.8-10.4Z"/>
  <path d="M766.8,1110.8c6.4,1.4,5.4-8,4-11.6-2.6-2.4-7.3,10.9-4,11.6Z"/>
  <path d="M429.6,1099.2c-1.4,3.6-2.3,13,4,11.6,3.3-.7-1.5-14-4-11.6Z"/>
  <path d="M617.2,1138.7c-4.7,1.5.8,9.1,4.5,8,3.5-1,1.2-9.8-4.5-8Z"/>
  <path d="M580.1,1138.8c-7.7,7.4,1.5,12,5.1,2.8,0-2.8-2.9-3.5-5.1-2.8Z"/>
  <polygon points="727.7 1026.6 726.6 1022.8 719.8 1023.2 718.7 1026.7 725.7 1029 727.7 1026.6"/>
  <polygon points="480.7 1023.2 473.9 1022.8 472.8 1026.6 474.8 1029 481.9 1026.7 480.7 1023.2"/>
  <path d="M276.4,1004.8c4.1-.2,6.6-3.6,5.8-7.6-5.6-1.3-10.8,3.3-5.8,7.6Z"/>
  <path d="M918.3,997.2c-.8,4,1.7,7.4,5.8,7.6,5-4.3-.2-8.9-5.8-7.6Z"/>
  <path d="M992.2,946.3h0c-2.3.4-4.5,2.9-6.1,4.4-.5,7.7,7.6,0,9.9-2.9-1.3-1.7-1.7-1.9-3.8-1.5Z"/>
  <path d="M206.2,946.1c-4.3.9,3.4,7.2,5.1,7.6,7.5,2.1.6-8.8-5.1-7.6Z"/>
  <path d="M118.2,715.6c-.9-.8-7.4-1.9-7.8-1.5-.6,9.8,14.5,7,7.8,1.5Z"/>
  <path d="M1090.1,714.2c-3.2-.3-10.2,1-9.3,5.1,1,4.4,11.1-.5,9.3-5.1Z"/>
  <path d="M311.8,674.8c-4.2,3.8-.4,8.7.6,12.7,4.3-1.2,2.4-12.7-.6-12.7Z"/>
  <path d="M888.1,687.5c1-4,4.7-9,.6-12.7-3,0-4.9,11.5-.6,12.7Z"/>
  <path d="M285.1,846.4c3.4-.7-.2-10-.7-10.3-5.8-3.7-3.6,11.2.7,10.3Z"/>
  <path d="M915.4,846.4c3.7.8,4.7-8.2,4-10.4-3.4-3.4-7.9,9.6-4,10.4Z"/>
  <path d="M20,754.5c-.4,0-.9.2-1.3.3h0c.5.8,1.1,1.4,1.8,1.8,3.1,2,7.4,1.1,10.9,1.7-1.6-6.4-6.9-5-11.5-3.8Z"/>
  <path d="M722.1,1055.1c4.2.4,9.9-1.7,9.3-6.9-3-2.1-10.8,5.6-9.3,6.9Z"/>
  <path d="M1169,758.2h0c3.2-.5,7.2.3,10.2-1.2.2-.9.5-1.8.7-2.7-4.5-1.2-9.3-2.2-10.9,3.9Z"/>
  <path d="M476.7,1093.4c-3.6,1.1-1.3,8.6,2.2,8,4.8-.9,2.4-9.4-2.2-8Z"/>
  <path d="M721.7,1093.5c-3.9,1.2-3.2,8.6.9,7.9,3.9-.6,4.5-9.6-.9-7.9Z"/>
  <path d="M765.1,931.5h0c2.5,1.3,4.7,6.2,6.1,7.3,2.4,1.9,4.8.9,7,1.5,1.5.4,0,2.8,2,2.3,1.1-5.1-2.2-2.6-5.3-4.6-2.2-1.4-5-6.6-5.4-6.8-.8-.5-3.9-.8-4.4.3Z"/>
  <path d="M422.3,940.4c1.9-.6,4.3.2,6.5-1.1,1.2-.7,4.9-6.7,6.6-8.2-5.6-1.6-5.9,4.5-9.8,7-3.1,1.9-6.3-.6-5.3,4.6,1.9.5.5-1.9,2-2.3Z"/>
  <path d="M311.3,1112c-.5,2.1-4.6,9.6-.6,10.4,3.1.7,6.5-11.3.6-10.4Z"/>
  <path d="M469.1,1048.2c-.6,5.2,5.1,7.4,9.3,6.9,1.6-1.4-6.2-9.1-9.3-6.9Z"/>
  <path d="M889.8,1122.4c4-.8,0-8.4-.6-10.4-5.9-.9-2.5,11.1.6,10.4Z"/>
  <path d="M322.9,895.1c0,4.3,3.5,8.7,6.3,11.7,1,1.1,0,2.9,3,2.2,1.2-1.5-6.7-13.2-9.3-13.9Z"/>
  <path d="M644.3,1037.7c1.3-8.4-10.5-9.5-5.5-.2l5.5.2Z"/>
  <path d="M561.7,1037.5c5.4-9.5-7.2-7.4-5.6-.4.4,1.6,4.5,1.7,5.6.4Z"/>
  <path d="M877.7,895.1c-2.9,1.5-9.5,10.9-9.3,13.3h0s2.3.6,2.3.6l7-13.9Z"/>
  <path d="M330.9,864.5c-1.7,1.5.3,6.7,1.3,7.3,7.3,4.2,2.9-12.8-1.3-7.3Z"/>
  <path d="M704.7,1011.1c-3.3-.5-8.9,7.2-7,9.3,2.5,2.5,8.5-6.7,7-9.3Z"/>
  <path d="M869.5,863.8c-3.4-2.4-7.9,6.6-4,8.1,4.1,1.6,5.9-6.8,4-8.1Z"/>
  <path d="M970,777.6h0c0,0,4-4.9,4-4.9-1.4-2.1-4-2.3-6.2-1.6-4.1,1.3-1.2,6.1,2.2,6.5Z"/>
  <path d="M228.3,771.2h.1c-.7.1-2.3,1.3-1.4,2.2l2.9,4.1c3.1.5,6.8-3.7,3.5-5.9-1.5-.8-3.5-.9-5.1-.4Z"/>
  <path d="M502.7,1020.4c2-2-3.7-9.8-7-9.3-1.5,2.6,4.5,11.8,7,9.3Z"/>
  <path d="M164.9,739.8c-.6-.9-5.6-.4-6.8,0-2.3,9,10.6,5.5,6.8,0Z"/>
  <path d="M783.1,1034.2h0l5.2-4.6-7.6,3.5.7,10.4c4-1.1,1.1-8,1.7-9.3Z"/>
  <path d="M1042.3,744.2v-4.4c-10.1-3.7-9.1,8.9,0,4.4Z"/>
  <path d="M417.4,1034.2c.6,1.4-2.2,8.3,1.7,9.3l.7-10.4-7.6-3.5,5.2,4.6Z"/>
  <path d="M1013.5,713.6c.8-3.6-7.3-4.6-9.3-2.9-2,2.7,8.5,6.7,9.3,2.9Z"/>
  <path d="M196.3,710.7c-2-1.7-10-.8-9.3,2.9.8,3.8,11.3-.2,9.3-2.9Z"/>
  <path d="M503.9,1138.7c-2.3-.6-3.9-1.1-5.9.6h0c0,0-1.1,6.3-1.1,6.3,3.9.4,7.5-3.1,7-6.9Z"/>
  <path d="M696.6,1138.7c-.5,3.8,3.1,7.4,7,6.9-1.1-5.2.2-9-7-6.9Z"/>
  <path d="M946.2,985.6c-1,.7-.9,6.3,0,6.9,3.7,2.5,10.2-8.8,0-6.9Z"/>
  <path d="M248.6,987.3c2,8.2,8.7,6.5,5.7-1.7l-5.7,1.7Z"/>
  <path d="M819.1,709.5c5-1,2.5-7.1,1.7-10.4-3.2,1-4.9,9.7-1.7,10.4Z"/>
  <path d="M381.4,709.5c3.2-.7,1.4-9.4-1.7-10.4-.8,3.3-3.3,9.4,1.7,10.4Z"/>
  <path d="M737.9,1000.7l.5-3.5c-4.1.6-4.4-3.3-4.7-3.5l-2.3.6,1.2,7.5,5.3-1.1Z"/>
  <path d="M467.9,1001.8l1.2-8.1-7,3.5c-.7,4.4,2,5,5.8,4.6Z"/>
  <path d="M1155.1,746.7c-.8-6.9-12.4-5.3-6.3,1l6.3-1Z"/>
  <path d="M53.5,743.8c-1-3.5-8.7-.9-8.1,2.9,2.9.3,9.7,2.5,8.1-2.9Z"/>
  <path d="M134.8,925.3c-4.2,2.5-2.9,9.8-2.3,13.9,4.4-2.6,1.6-9.7,2.3-13.9Z"/>
  <path d="M1065.7,925.3c.7,4.2-2.1,11.4,2.3,13.9.6-4.1,1.9-11.4-2.3-13.9Z"/>
  <path d="M115.2,953.7c.6.8,1.2,1.6,1.7,2.4-.2-.9-.9-1.7-1.7-2.4Z"/>
</svg>