<?xml version="1.0" encoding="UTF-8"?>
<svg id="Layer_1" xmlns="http://www.w3.org/2000/svg" version="1.1" viewBox="0 0 1200 1200">
  <!-- Generator: Adobe Illustrator 29.0.0, SVG Export Plug-In . SVG Version: 2.1.0 Build 186)  -->
  <path d="M765,1125.8c-1.7-.2-1.2,7.1-1,8.2.2,1.8,2.7,11.4,4.2,12.7.1,0,.2.2.3.2,4.5-6.2-1.8-14.2-2.6-20.5-.3-.4-.6-.6-.9-.6Z"/>
  <path d="M785.5,1117.1s0,0,0,0c0,0,0,0,0,0,.9,4.9,1.5,11.6,6.2,14.4,1.2-1.5-1-9.1-3.3-12.8-1-1.7-2.1-2.6-2.9-1.7Z"/>
  <path d="M880.1,1079.2v.2c0,0,0-.2-.1-.3l-1.1,3-5.7,1-.4,4.2s0,0,.1,0h0c4.1-.4,8-3.7,7.2-8.1Z"/>
  <path d="M883.8,1111.3c-.4-.4-2.5-1.5-2.7-1.4-2.6,5.4-1,10.2.5,15.5.2.7.4,1.4.5,2.1,3.8.3,5.3-2.4,5.3-5.8,0-3.8-1.6-8.4-3.6-10.4Z"/>
  <path d="M933.1,1024.4c-.6,0-1.2.2-1.7.3,0,4,3.5,6.2,7.1,6.2,2.5,0,4.9-1.2,6.2-3.6-3.2-3.2-7.4-3.4-11.6-2.9Z"/>
  <path d="M953,1071.4h-.1,0s-1,5.7-1,5.7c.5,0,.9,0,1.4,0,3,0,5.3-1.7,4.8-5.2l-5.2-.6Z"/>
  <path d="M964.3,1024.7s0,0,0,0c-11,2.1-11.5,13.9-13.4,22.6h.1s0,0,0,0c.2,0,.4,0,.6,0,1.4,0,2.2-1.1,3-2,1.8-2.1,9-12.9,9.5-15.2h0s.1,0,.1,0c.4-1.8.2-3.6.2-5.4,0,0,0,0,0,0Z"/>
  <path d="M1090.7,935.4h0c0,0,0,0,0,0,0,0,0,0,0,0Z"/>
  <path d="M248,1071.4h0s-5.2.6-5.2.6h.1c-.4,3.5,1.8,5.2,4.8,5.2.4,0,.9,0,1.4,0l-1-5.7h0Z"/>
  <path d="M319.9,1109.9c-3.6,1-6.3,6.5-6.4,11.1,0,3.5,1.5,6.5,5.4,6.4,1.2-5,3-9.4,2.1-14.2-.2-1.1-.6-2.2-1.1-3.3Z"/>
  <path d="M327.2,1082.6h0s-5-.5-5-.5h0v-3c-.1,0-.2,0-.3,0-1.5,0-.8,2.7-.6,3.4.9,2.2,4.4,4.8,7,4.8h0s-1-4.7-1-4.7Z"/>
  <path d="M951.2,906.4l-.2.2,9.6-2c.3.6,1.7,3.9,1.7,4h6-.1c0,0,.2,0,.2,0,0,0-5.1-3.5-5.1-3.5l4.1-2.6c.5-.7-.5-4.1-1.2-4.8s-7.7-2.5-11-2.5c-.8,0-1.4,0-1.6.3-2.4,1.8-3.1,7.7.3,8.6l-3,2.5h.3Z"/>
  <path d="M1127.7,794.1c.7,1.2,2.7,1.8,4.2,1.8.7,0,1.3-.1,1.8-.4.9-.5,1.2-1.2,1.3-2,.1-2.6-4.1-5.2-7.3.6Z"/>
  <path d="M1113.1,646.5c0-2.1-1.9-3.7-6.8-2.7l-2.1,5.3c4.1,5.3,9,.8,8.9-2.6Z"/>
  <path d="M1078.4,723.8c5.3,1.3,9.3-13.5,7.1-15.4-6.7-1.1-7.1,7.4-7.1,13.2,0,.8,0,1.6,0,2.2Z"/>
  <path d="M1018.8,814.2c3.3.5,7.9-1.8,8.8-5.1h0c.3-1,.3-1.6,0-2.1-.6-1.4-3-.9-4.7-1.1.2-.8.3-1.7.3-2.6,0-2.8-1.1-5.5-4.4-4.6h0v7.2h0c1.3.2,2.8,0,4.1,0-.6,2-4.4,3.6-4.3,6.7,0,.5,0,1,.3,1.5Z"/>
  <path d="M1024,718c-.7-.5-1.5-.7-2.2-.6-1,0-2,.5-3,1.3-.4.3-.8.6-1.2,1-.4.4-.8.8-1.2,1.2-.2.2-.4.4-.6.7-.6.7-1.1,1.5-1.6,2.2-2.4,3.9-3.8,8.7-2.6,11.2.4.2.8.3,1.3.3,6.5.5,15.1-14.5,11.1-17.3Z"/>
  <path d="M1035.2,806.4l7.7,6.7s0,0,0,0h0c1.1-.9-.2-4.8-.8-5.7-.3-.4-.8-.9-1.5-1.2-1.8-1.1-4.6-1.8-5.5.3Z"/>
  <path d="M1035.8,791.6c4,.3,5.1-8.3,5.1-13.9,0-2.6-.2-4.5-.5-4.7h0c-7.5-.6-4.6,6.3-9,9.8h0c0,0,0,0,0,0l4.4,8.7Z"/>
  <path d="M1031.2,819.4l2.1,3.6,3.8-.3c2.5-1.2,2.9-4.8,3.3-7.4,0,0,0,0-.1.1,0-.1,0-.2,0-.3-3.7,3.4-3.2,6.2-9.2,4.1v.2c.1,0,.1,0,0,0Z"/>
  <path d="M1040.4,815.2s0,0,0,.1c0,0,0,0,0,0h0Z"/>
  <path d="M1014.4,684.5c.2,0,.5,0,.7,0,5.5.6,5.6-.4,9.3-3.6,1-.8,2.4-1.4,3.2-2.4,3-4.3.9-15.5-4.3-18.3-2.5-1.3-4.7-2.3-6.8-2.7-3.4-.7-6.5.2-9.7,3.8h0c-8.4,9-4.9,21.7,7.6,23.1Z"/>
  <path d="M998.4,777.4s0,0,0,0c.9,6.9,11.7,12.5,18.6,12,.2,0,.5,0,.7,0,0,0,0,0,0,0,0,0,0,0,0,0,1-2.3,1.5-4.2.2-6.4,0,0,0,0,0,0-.6-1-8.1-7.2-9.3-7.9h0c4.5-.1,9.3-2.7,9.3-7.7s-1.1-3.5-2.6-3.5c-3.7-.2-9.9,5.9-6.8,11.1-1.3-.7-7.8-2.9-9-3,0,0-.1,0-.2,0,1.1,2.1-1.2,3.3-.9,5.4ZM1008.6,775.1s0,0,0,0c0,0,0,0,0,0,0,0,0,0,0,0Z"/>
  <path d="M983.8,788.9c2,.4,6.1-2.5,5.2-6.6-.3,0-.6,0-.8,0-1.9,0-4.2,1.7-4.9,3.2-1,2.3-.5,3.3.5,3.5Z"/>
  <path d="M801.9,986.7s0,0,0,0v.2c0,0,0-.2,0-.2Z"/>
  <path d="M792.3,799s0,0,0,0h0l-4.1,3.8h0c0,5.3,3.8,7.7,8.7,5.7,0,0,0,0,0,0h0s0,0,0,0c5.2-4.4,0-7.9-4.5-9.5Z"/>
  <path d="M803.7,894.4c-5.8,1.7-4.9,18.9,3.6,19.3.9,0,1.8,0,2.9-.4,2.2-.7,3.1-3.1,3.2-5.9.1-6.2-4.2-14.7-9.7-13Z"/>
  <path d="M852.1,841.3c0,0,0-.1,0-.2,0,0,0,0,0,0,0-1.1-.4-2.4-1.1-3.1-1.4-1.4-4.6-1.3-5.9.2-1,1.1-1.3,2-1.3,2.8-.1,3.5,7.5,4.3,8.3.3Z"/>
  <path d="M892.5,921c1-.3,4.4,0,4.8-.3.2-.1.5-.6.8-1.1.2-.3.4-.6.6-.9.6-.8,1.4-1.6,2.4-1.8h.1c.1-.7,0-1.3,0-1.7-.7-3.1-7.1-.3-9.8-.5h.1c0,0,0,.2,0,.2,0,0,0,0,0,0l1.1,6.1Z"/>
  <path d="M908.8,796.5c1.1,0,1.9-.4,2.1-1.4-.3-3-4.4-6.6-7.4-6.7-.4,0-.9,0-1.3.1-4.5,3,2.8,8,6.6,8Z"/>
  <path d="M927.7,852.5c0,.2.1.5.2.7.3.9.8,1.6,1.5,2.1,1.1.8,2.7,1.1,5,.9,1-4.5-3.4-7.2-7.2-8.2,0,.3,0,.7,0,1,0,1.3.1,2.5.4,3.5Z"/>
  <path d="M924.2,857.4s0,0,0,0c0,0,0,0,0-.1-7.1,2.6-7.3-6.3-11.4-8.7-4.8-2.8-7.9-.8-7.9,2.4,0,1.4.6,3.1,1.9,4.7,1.1,1.2,7.1,4.4,7.3,6.3,0,.8-1,1.4-4.2,1.5-2.2,5.9-2.7,10.3,0,13.4,1.4,1.6,3.6,2.8,6.8,3.7,4.5,1.3,8.8,2.2,11.6-2.3h0c.7-1,.9-2.1.9-3.2,0-4.9-5.7-9.6-5.7-15,0-.9.2-1.8.6-2.8Z"/>
  <path d="M952.4,798.2c-.5,2.6-4.1,8.7,1.2,8.5,0,0,0,0,0,0,0,0,0,0,0,0,2.2,0,7.3-4.2,7.6-6.5.5-4-2.7-5.5-4.3-8.5,0,0,0,0,0,0,0,0,0,0,0,0h0c-6.7.3-3.9,3.8-4.4,6.5Z"/>
  <path d="M937.9,740.9c1.7,1.4,3,1.9,4.1,2,4.7,0,4.1-10.3-1.2-11.5-.4,0-.7-.1-1.1-.1-5-.2-5.5,6.6-1.8,9.6Z"/>
  <path d="M919.3,756.5s0,0,.1,0c3.4,3.1,9.6.5,13.5-3.4,2.1-2,3.6-4.4,3.7-6.4h0c.2-3.5-3-7.1-6.5-7.4-5.7,3.1-11.4,7.4-11.2,14.1,0,1,.2,2,.4,3Z"/>
  <path d="M914.4,777.1c-.1.2-.2.5-.3.8-.8,2.8,3.4,6.6,3.7,9.2,0,.1,0,.2,0,.3,0,1.3-.7,3.1-.8,4.5,0,1.2.4,2.2,2.1,2.3,1.3-1.2,1.7-2.4,1.7-3.6,0-1-.3-2-.6-3.1,4,.2,5.4-1.5,5.3-3.7-.1-4.8-7.7-12-11.1-6.7Z"/>
  <path d="M902.8,745.4c-.6.3-1.1,2.9-1.1,4.5,0,.4,0,.7,0,.9.9,3.5,11.8,9.1,14.8,4.9.2-.3.4-.7.4-1,1.3-4.7-10.6-11.6-14.2-9.3Z"/>
  <path d="M902,675.6c.5.4,1.1.7,1.6.9,3.5,1.3,5.9-2.9,3-5.9-1.3-1.3-2.6-1.6-3.7-1.3-2.4.6-3.8,3.9-.9,6.3Z"/>
  <path d="M858.2,729.6c-.2-1.1-.5-2.1-1-2.6-1.6-1.6-8.9-1.7-10.1,0h0c-1.1,1.7-1.5,3.2-1.6,4.6-.2,7.4,12.4,10.6,13,.8h0c0-.7,0-1.8-.3-2.9Z"/>
  <path d="M830.9,817.5s0,0,0,0h0c3.2,1.8,6.4,10.4,8,11.5,1.8,1.2,11.3,3.6,13.8,3.7,2.9.2,6.5-.2,10.2-.8,1.8-.3,3.7-.5,5.5-.8,1.2-.2,2.4-.3,3.5-.4s2.2-.2,3.3-.2c1.5,0,2.9,0,4.1.3.9.2,1.8.6,2.7,1.1,2.3,1.2,4.6,3.1,7,5,.4.3.8.7,1.2,1,1.7,1.4,3.5,2.6,5.2,3.5.2.1.4.2.7.3.4.2.7.3,1.1.4.3,0,.6.2.8.2.4.1.9.2,1.3.2.2,0,.5,0,.7,0,.5,0,1,0,1.5-.2l-9.6-10c1-3.4-1.1-5.1-1.6-7.6-.8-4-.6-9-1.7-12.7-1.4-4.7-4.4-2.5-5.4-3.2-.5-.4-2.3-9.5-3.2-11.7-2.7-6.8-8.6-14.2-16-15.8-2.3-.5-4-.7-5.4-.7-4.2,0-5.4,2-10.8,3.9-4.2,1.5-11.9,2.7-14.5,6-.6.8-5.5,9.3-5.5,9.9,0,0,0,0,0,0-.7,4.5,3.9,11.8,3.1,17Z"/>
  <path d="M821.8,737.4c0-.9-.2-2-.6-3.2l-6.9-.2c0,.3,0,.6,0,.8,0,7.1,7.6,8.6,7.5,2.6Z"/>
  <path d="M781.6,733.2c-.9.8-1.2,2.1-1.2,3.5.1,4.2,3.8,9.6,8.7,8.5,7.8-1.7,3.4-13.8-3-14-1.5,0-3,.5-4.5,2Z"/>
  <path d="M781.4,567.2c.9-.6,1.2-1.4,1.1-2.2,0-1.7-2-3.3-4.6-2.5-1.3.4-1.8,1.3-1.8,2.2,0,2.1,2.5,4.4,5.3,2.5Z"/>
  <path d="M766.2,637.4l3.8,1h0c.5-1.4,1.7-2.7,1.7-4,0-.6-.2-1.2-.8-1.8h0c-2.9-2.9-5.1-.5-5.1,2.6,0,.7.1,1.5.4,2.2Z"/>
  <path d="M650.9,1012.8c0-.2-.1-.4-.1-.5,0-1.1,1.7-.9,1.8-1.1h0q0,0,0-.1c.2-.3.3-.7.3-1,0-5.3-20.7-12.2-21.4-4.2-.6,7.3,13.6,6.7,18.3,6.4h0l1.6,6.2h0s0,0,0,0h0s2.6-2.5,2.6-2.5h0c0,0,0-.1,0-.1l-3.1-3.1Z"/>
  <path d="M665.3,964.1c2.2-.4,3.2,2.2,5,2.6h0c3.2.7,7.5-1.6,7.5-5,0-.5,0-1-.3-1.6-5.4-2.9-7-2.7-11.7.9-4.2-10.4-23.1-8-22.8,2.6,0,.3,0,.7,0,1,.2,1.2,5.5,7.3,7.1,7.9,0,0,0,0,0,0,6.4,2.7,9.6-1.2,10.5-1.2.9,0,2.3,5.7,5.6,4.1-.2-3.1-1.6-5.5-1.6-8.3,0-.9.2-1.9.6-3,0,0,0,0,0,0Z"/>
  <path d="M708.4,1018.5s0,0,0,0c0,0,0,0,0,0h0s0,0,0,0c4.6,1.2,3.8-2.8,7.7-3l-.6-5.2s0,0,0,0h0c-1.9-.3-.6,2.2-2,3.5h0c-.9.8-3.3.9-4.6,1.4l-.6,3.2h0c-1.2-1.4-2.4-2.8-3.6-4.1-1.3-.3-1.7,0-1.6.7,0,.4.2.9.5,1.5.7,1.6,7.5,9.4,8.8,8.1-.2-2.3-2.6-4.5-4.1-6.2h0s0,0,0,0c0,0,0,0,0,0h0s0,0,0,0Z"/>
  <path d="M721.8,966.2c.4-.7.5-1.8.5-3-.2-5.5-4.4-14.8-7.2-16.9,0,0-.2-.1-.2-.2-.2,0-.3-.2-.4-.2,0,0-.1,0-.2,0-.2,0-.4,0-.6,0,0,0-.1,0-.2.1-.3.2-.5.6-.7,1.3-.2.9-.3,2.2-.3,4,0,4.4,3.6,16.8,9.3,14.9Z"/>
  <polygon points="724.9 945.6 724.9 945.6 724.9 945.6 724.9 945.6"/>
  <path d="M727.8,945.8l-2.9-.2h0c-.4,3.9.2,9.7,5.1,10.3h0l-2.2-10.1Z"/>
  <path d="M728.4,997.6c0,.8.6,1.2,2.3.6,2.7-.9,6.4-2.3,6.5-5.7,0-.2,0-.5,0-.7-2-.2-3.7,0-5.5,1.1-1.5.8-3.4,3.4-3.3,4.7Z"/>
  <path d="M721.2,844.9s0,0,0,0c0,0,0,0,0,0,3.1-2.5,1.4-7-1-9.2,0,0,0,0,0,0,0,0,0,0,0,0-3.3,1.3-.3,9.2,1,9.2Z"/>
  <path d="M714.5,732.1c.5,0,1,0,1.6-.2,2.9-.9.9-6.2-2.2-6.1-.2,0-.5,0-.7,0-4,1.1-2.3,6,1.3,6.2Z"/>
  <path d="M698.7,839.8c.6.8,1.2,1.5,1.7,2.1.3.3.5.5.7.7,2.7,2.3,13.5,7.3,16.1,3.6,0,0,0-.1,0-.2.5-8.6-6-20.1-15.4-19.7-1,0-2,.2-3,.5,0,0,0,0,0,0-5.3,1.6-3.6,7.8-.8,12.1.2.3.4.6.6.9Z"/>
  <path d="M683.2,811.1s0,0,0-.1c0,0,0,0,0,0,3.3-4.8-1.1-11.6-2.6-16.4-1.4-.2-2.4,0-3,.7-3.5,3.1,2.4,15.9,5.5,15.8Z"/>
  <path d="M667,898.9c.6,1.8,1.3,3.3,2.1,4.6,3.1,5.8,7.3,8.3,12.1,13.2,1.7,1.9,2.3,4.9,4,6.3,0,0,0,0,0,0,0,0,0,0,0,0,2.2,1.8,6.5,2.4,9.3,5.1,0,0,.2.2.3.3,2,2.2,2.8,5.4,5.5,7-2-8.3-7.8-15.3-9.8-23.6-1-4.2-1-9.3-1.8-13.6-.7-3.8-3.9-14-3.8-16.8.2-2.9,6-5.4,6.9-9.4.5-2.4.6-8.6-1.1-10.3,0,0,0,0,0,0,0,0,0,0,0,0-.3-.3-7.3-4-7.7-4.1-5.3-1.4-8.4,1.9-12.9,4.1h0c-.9.4-2.4-.3-2.6-.1-.7.6-3.2,7.1-3.3,8.5-.4,4.5,1.4,24.7,2.9,28.9Z"/>
  <path d="M665.3,832.6s0,0,0,0c.6-1.9-2-10.2-3.6-10.2-1.1.5-1.5,1.5-1.5,2.7,0,3.6,3.9,8.9,5.1,7.5Z"/>
  <path d="M645.7,889.1h0s0,0,0,0c.6-.5.9-1.8.9-3.3,0-4.1-2.2-10.2-6-8.9,0,0,0,0,0,0-.3,4.5-.1,10.9,5.1,12.3Z"/>
  <path d="M634.4,988.3c-3.9,3.9,2.4,7.5,4.2,11.8,2.2-.5,4-1.6,5.4-2.9,5.9-5.7,3.5-16.5-7.2-10.6-1,.6-1.8,1.1-2.4,1.7Z"/>
  <path d="M636,824.4c.2,0,.3,0,.5,0,0-4.5-.5-10.8-5.6-12.3,0,0,0,0,0,0,0,0,0,0,0,0-3.8.8.8,12.3,5.2,12.3Z"/>
  <path d="M51.7,769.1c.7,0,1.4,0,2.1-.2.5-.5-.5-7-1.3-7.9h0c-.9-1.1-2.3-1.8-3.6-1.8-1.1,0-2.1.5-2.8,1.6h0c-3.2,4.8.8,8.4,5.6,8.3Z"/>
  <path d="M67.3,795.5c.4.3,1,.4,1.8.4,1.6,0,3.6-.6,4.2-1.8-3.1-5.7-7.4-3.1-7.3-.6,0,.7.4,1.4,1.3,2Z"/>
  <path d="M122.6,723.8c0-.7,0-1.4,0-2.2,0-5.8-.4-14.3-7.1-13.2-2.2,1.9,1.8,16.7,7.1,15.4Z"/>
  <path d="M160.7,815.1s0,0,0,.1c0,0,0,0,0,0,0,.6.2,1.2.3,1.8.2,1,.4,2,.7,2.8,0,0,0,.2,0,.2,0,.1.1.3.2.4.5,1,1.1,1.8,2,2.2,2.8,1.7,5.9,0,5.9-3.4,0,0,0,0,0,0,0,0,0,0,0-.1-6,2.1-5.5-.7-9.2-4.1Z"/>
  <path d="M188.2,735.3c.5,0,.9-.1,1.3-.3,2.3-4.8-4.7-17.4-10.2-17.6-.8,0-1.6.1-2.3.6-3.8,2.8,4.8,17.8,11.2,17.3Z"/>
  <path d="M192.5,775.1c.6-.9.8-1.8.9-2.8.4-6.4-10.2-12.5-10.2-4.9h0c0,5,4.8,7.6,9.3,7.7-1.2.7-8.7,6.9-9.3,7.9-1.3,2.2-.8,4.1.2,6.4.2,0,.5,0,.7,0,6.9.4,17.7-5.2,18.6-12.1,0-.7,0-1.2-.3-1.8,0-.2-.2-.4-.3-.6-.1-.2-.2-.4-.3-.6,0-.2-.2-.4-.2-.6-.1-.5-.1-1.1.2-1.8,0,0,0,0-.2,0-1.3.1-8.2,2.5-9.1,3.1Z"/>
  <path d="M212.8,782.2c-.3,0-.5,0-.8,0,0,.4-.1.7-.1,1.1,0,4.7,6.4,7.4,6.3,4,0-.5-.2-1.2-.6-2-.6-1.5-2.8-3.1-4.8-3.2Z"/>
  <path d="M212.6,887.4s0,0,0,0c-2,.7-3.8,9.1-1,9.9,0,0,0,0,0,0,0,0,0,0,0,0,9.3-.8,10.1-9.6,1-9.9,0,0,0,0,0,0Z"/>
  <path d="M250,917.9s0,0,0,0h0c2.5-5.4,0-7.4-2.5-7.3-2.6,0-5.4,2.3-3.3,5.3l5.7,2Z"/>
  <path d="M423.8,567.2c.9-.6,1.2-1.4,1.1-2.2,0-1.7-2-3.3-4.6-2.5-1.3.4-1.8,1.3-1.8,2.2,0,2.1,2.5,4.4,5.3,2.5Z"/>
  <path d="M411.9,745.2c4.8,1.1,8.6-4.3,8.7-8.5,0-1.4-.3-2.6-1.2-3.5-1.5-1.5-3.1-2.1-4.5-2-6.3.2-10.8,12.3-3,14Z"/>
  <path d="M398.5,654l1.6,2.6c3.2.7,5.4-1.6,5.3-4.4,0-.4,0-.8-.2-1.3-3.1-1-7.1-1.6-6.7,2.7,0,.1,0,.2,0,.4Z"/>
  <path d="M353.9,727.2c-1.2-1.8-8.5-1.7-10.1,0-1,1-1.4,3.9-1.3,5.4.5,9.8,13.2,6.6,13-.8,0-1.4-.5-2.9-1.6-4.5Z"/>
  <path d="M284.4,755.7c3,4.2,13.9-1.4,14.8-4.9,0-.2,0-.6,0-.9,0-1.6-.5-4.1-1.1-4.5-3.7-2.3-15.6,4.5-14.2,9.3,0,.4.2.7.4,1Z"/>
  <path d="M275.6,784.2c0,1,.4,2,1.1,2.8l4.2.5c-.1.3-.2.6-.3.9s-.2.6-.2.9c0,.4-.1.9-.1,1.3,0,.3,0,.5,0,.8,0,.4.2.8.4,1.2.1.3.3.5.5.8.2.3.4.5.7.8,1.7,0,2.1-.9,2.1-2.2,0-1.4-.7-3.3-.8-4.5,0-.2,0-.3,0-.4.3-2.8,5.2-7.1,3.4-9.9-3.2-5.1-11.3,1.6-11,7Z"/>
  <path d="M248.4,806.7c.7,0,1.3-.3,1.6-.9,1.3-2-1-5.5-1.4-7.5-.6-2.7,2.4-5.5-4-6.8h-.1s0,0,0,0c0,0,0,0,0,0-2.1,3-5.8,5.2-4.5,9.6.7,2,5.7,5.8,8.5,5.6Z"/>
  <path d="M257.7,766.8c.6,0,1.1-.1,1.6-.4,4.6-2.3.3-11.1-5.3-10.9-.4,0-.7,0-1.1.2-2,.5-3,1.5-3.4,2.6-1.2,3.5,4.1,8.7,8.2,8.5Z"/>
  <path d="M273.6,890c0,.4,0,1,0,1.7.6,2.6,8.6-.5,9.2-2.5-.2,0-.4,0-.6,0-2.8,0-8.1-2.1-8.7.8Z"/>
  <path d="M297.8,788.4c-.5,0-1.1.1-1.8.3-1.8.5-5.6,3.7-5.8,5.6.8,1.8,2,2.4,3.3,2.3,4.3-.2,9.8-8.6,4.3-8.2Z"/>
  <path d="M352.2,843.8c.6.1,1.3.1,1.9,0,.9,0,1.6-.3,2.1-.5.3-.1.5-.3.6-.5,1.9-3-1.6-5.8-4.6-5.7-1.8,0-3.3,1.2-3.3,4.1.1.6.5,1.1.9,1.5.3.3.7.5,1,.6.4.2.9.3,1.3.4Z"/>
  <path d="M306.6,862.4c0,.2,0,.4,0,.6,0,.4,0,.8,0,1.2,0,.4,0,.8,0,1.1,0,.2,0,.4,0,.5.1.7.3,1.3.7,1.8.6.8,1.5,1.3,2.9,1.5l3.1-1.6-.6-5.2h-6.1Z"/>
  <path d="M299.4,916.3c3.3,2.3,3.8,4.9,7.8,4.8.3,0,.5,0,.8,0l1.7-6.2c-3.4.3-9.2-3.5-10.3,1.5Z"/>
  <path d="M350.8,966.1c-.3,1.2-.4,2.2-.4,3.2,0,1.6.6,3.1,1.6,4.9h3.8c.1-.2.3-.5.4-.7.3-.7.4-1.5.4-2.2,0-2.9-2.4-5.5-5.8-5.2Z"/>
  <path d="M357.5,953.5c1.3,1.6,4.7.6,6.7.4h-.2c0,0,0,0,.1-.1l-5-2c3.7-4.8,4.9-14.6-.2-19.1,0,0-.1-.1-.2-.2-8.4-7-16.2,4.5-17.1,12.7,0,0,0,.1,0,.2-.2,1.5.2,9.4.9,10.1,5.3,2.3,10.9,2.8,12.9-3.6h1.4c0,.7.3,1.2.6,1.6Z"/>
  <path d="M379.5,831.6c2-.7,3.7-2.1,4.7-4.1,3.8-8-11.3-5.9-17.1-1.6-2,1.4-2.9,3-1.8,4.6,3.7,1.8,9.8,2.8,14.2,1.1Z"/>
  <path d="M380.1,962h0s0,0-.1,0h.1Z"/>
  <path d="M399.8,941.4c2.1.4,3.8-.6,4.9-.4,2,.3,2.8,5.1,6.6,2.7h0c0,0,0,0,.1-.1l-4-3.7,2-5.6c-5.2,2.4-4.1-1.1-5.3-1.9-1.6-1-5.9,1.4-8,.8h0c0,.1,0,.1-.1.1l1,5-5-1.5c.1.1.3.2.4.4l-.6-.2c1.7,1.8,5.7,4,8,4.4Z"/>
  <path d="M438.1,918.9c4.2.4,9.5,0,9.8-5.1-4.3-5.2-8.6.3-9.8,5.1Z"/>
  <path d="M442.1,853.1c-2.1-.2-3.3-1.9-5.9-1.6h0c-1.6.2-3.2.7-4.6,1.4-2.3,1.2-4,3.2-3.8,6.3l-3.9-1,.2.2h-.4c0,0,8.2,9.6,8.2,9.6-4.9,2.2-6.3,15.4-1.7,17.3,3.1.5,6.1-.3,8.4-1.9,4.3-2.9,6.1-8.5,1.8-13.5-1.1-1.3-4.8-1.4-2.6-3.6,0,0,.2-.2.3-.2.8-.4,2-.5,2.8-1.1.2-.1.4-.2.6-.4,3.8-3.7,1.2-7.8,1-11.5,2.4,0,4.8-1.9,6.6-4.3,0,0,0,0,0,0,.1-.2.2-.3.3-.5,2.4-3.5,3.2-7.8.6-8.6-.9-.3-1.7,0-2.5.4-3.3,2-5.4,9.9-5.3,12.8Z"/>
  <path d="M557,997.1c1.4,1.4,3.2,2.4,5.5,3,1.7-4.4,8.1-8,4.1-11.9-.6-.6-1.4-1.1-2.4-1.7-10.8-5.9-13.1,4.9-7.2,10.6Z"/>
  <path d="M537,923.5c.1.8,1.3,1.5,1.9,2.1,0,0,0,0,0,0,.5.2,1,.2,1.5,0,.6-.2,1.2-.5,1.8-1,.5-.4,1.1-.9,1.6-1.4,3.4-3.5,6.5-9.8,5.2-12.6,0,0,0,0,0,0-1.5-1.8-12.2,11.9-12.1,12.8,0,0,0,0,0,0Z"/>
  <path d="M517.3,811c.2,0,.3,0,.5,0,4.5-1.1,9-14.7,5.1-16.3h0c-1.1-.5-1.6-.5-2-.2s-.5.9-.8,1.5h0c-.4.6-.7,1.1-1,1.7-2.1,4.1-3,8.9-1.8,13.4Z"/>
  <path d="M496.8,941.5c-.2-.3-.4-.4-.7-.4-2.4,0-6.3,11.2-5.5,12.7,4.3-2.5,6.7-7.5,6.2-12.3Z"/>
  <path d="M486,892.3c-.3-.8-1.2-1.4-2-1.9-.7-.4-1.5-.8-2-1.2-.1,0-.2-.2-.3-.3-.8-1.1-1.1-4.6-2.4-5.6-.2-.2-.4-.3-.6-.4-3.9-.9-7.6,19.2-6.7,22.6,0,0,0,0,0,0,0,0,0,0,0,0h0c2.7,3,8.9-8.6,8.2-11.2l5.1,1,.5-3.1Z"/>
  <path d="M471,955.9s0,0,0,0c0,0,0,0,0,0,5-.6,5.5-6.4,5.1-10.3-.4-.2-.8-.3-1.2-.3-3.5,0-4.9,9.5-4,10.6Z"/>
  <path d="M465.1,995.8c.6.6,7.3,4.2,7.8,2.1,0-.1.1-.3.1-.5,0-2.5-6.3-6.8-9.2-5.6,0,0,0,0,0,0,0,0,0,0,0,0-.5.4.7,3.2,1.3,3.8h0Z"/>
  <path d="M516.2,881.3c.1,2.8-3.1,13-3.8,16.8-.8,4.3-.8,9.4-1.8,13.6-2,8.3-7.8,15.3-9.8,23.6h-.1c0,0,.1,0,.2,0,0,0,0,0,0,0,2.7-1.6,3.4-5,5.7-7.2,2.9-2.7,7.7-3.6,9.7-5.5,1.4-1.4,1.8-4,3.5-5.8,5.9-6.1,10.8-8.5,14.2-17.8,1.7-4.7,3.1-22.6,2.9-27.9,0-1.9-2.3-8.6-3.3-9.6s-.1,0-.2,0c-.3,0-1,.2-1.7.2-.3,0-.5,0-.7-.2-3.5-1.7-6.5-4.5-10.4-4.4-.3,0-.5,0-.8,0-.4,0-1.1.3-2,.7,0,0,0,0,0,0-2.9,1.3-7.6,3.8-8,4.8-1.1,2.5-1,7.5-.2,10.1,1.1,3.3,6.5,5.8,6.7,8.6Z"/>
  <path d="M506.1,997.5c-1,.6-1.3,1.8-.5,3.6,4.2.8,6.6,2.6,10.6,0-1.3-3.5-7.7-5.4-10.1-3.6Z"/>
  <path d="M540.4,971.3h.1c.4,0,3.4,3.2,9,1.9,2.3-.6,8.2-6.6,8.5-8.5,0-.4,0-.7,0-1.1.3-10.5-18.6-13-22.8-2.6-4.7-3.6-6.3-3.8-11.7-.9-.2.6-.3,1.1-.3,1.6,0,3.4,4.3,5.7,7.5,5,1.8-.5,2.8-3,5-2.6.4,1.1.6,2.1.6,3,0,2.8-1.4,5.1-1.6,8.2,0,0,0,0,0,0,0,0,0,0,0,0,3.3,1.6,4.6-4.1,5.6-4.1Z"/>
  <path d="M549.9,1018.5c.3-.2.6-.4.9-.9l.5-5.1c.9.3,2.2.4,3.7.4,7.1,0,19.6-3.5,13.5-9.5-.7-.7-2-1.1-3.6-1.2-6-.4-16.4,3.8-16.9,7.6l2.1,3.1c-4.6,2.3-2.3,6.8-.2,5.6Z"/>
  <path d="M565,824.4c4.5,0,9-11.5,5.2-12.3,0,0,0,0,0,0,0,0,0,0,0,0-5.1,1.5-5.6,7.8-5.6,12.3.2,0,.3,0,.5,0Z"/>
  <path d="M511.8,1121.3l-2.8,3.5s0,0,0,0h0c0,4.4,7.2,1.9,7.1-.8,0-1.1-1.1-2.1-4.3-2.8Z"/>
  <path d="M519.1,1108.3c-.4-.3-.9-.5-1.4-.6-.3,0-.5,0-.8-.1s-.6,0-.8,0-.6.1-.9.3c-1.3,2.5,1.4,7.7,4,7.6.4,0,.7-.1,1.1-.4.5-.4.8-.9,1-1.6.4-1.7-.5-4-2.2-5.2Z"/>
  <path d="M570.8,1156.9c-2.5-2.1-5.9-3.3-8.7-2.6h0c-1,.2-4.5,2.6-4.8,3.5.1,2.9,1.2,5.5,2.8,7.3,3.9,4.8,11.1,5.5,14.3-2.2-.2-2.3-1.7-4.4-3.7-6Z"/>
  <path d="M602.8,827.6c.6-1.2,1-2.9.8-5.3h0c0,0,0,.2,0,.2,0,0,0,0,0,0l-1.8,2.3-2.1.6-2.1-3.1c0,0,0,.2,0,.2h0c0-.1,0,0,0,0-.7,7.1,3.7,8.8,5.4,5.1Z"/>
  <path d="M591,1018.7c-3.5.7-4.9,2.8-4.9,5.1,0,.2,0,.4,0,.7,0,.3,0,.6.2.9,0,.1,0,.3.1.4,0,.1.1.3.2.4.4.9.9,1.7,1.5,2.4,0,0,0,0,0,0,1.3,1.4,3.1,2.3,5,2.2.4,0,.9,0,1.3-.2,2.7-.8,3.7-2.8,3.7-5,0-3.7-3.3-7.8-7.3-7Z"/>
  <path d="M593.3,957.9c0,0,.1-.2.2-.3,0,0-.2.1-.3.2h0Z"/>
  <path d="M643.6,1157.9c-.8-1-1.7-1.8-2.7-2.5-1.6-1.1-3.4-1.6-5.7-1.1,0,0,0,0,0,0h0c-3.1.6-8.7,4.7-8.5,8.4,0,.2,0,.5.1.7,1.2,3.9,3.9,5.4,6.9,5.2,5-.2,10.4-4.9,9.9-10.7,0,0,0,0,0,0Z"/>
  <path d="M714.5,1179.6c-.4-2.1-1.3-3.5-2.9-3.6-.5,0-1.1.1-1.8.4,0,0,0,0,0,0h0c-.6.3-1.2.6-1.6.9s-.8.6-1.1.9c-.6.6-.9,1.3-1,2,0,.2,0,.4,0,.6,0,1.4.3,3,.4,5.1h0c4-.8,9.1-1.1,8.1-6.4,0,0,0,0,0,0Z"/>
  <path d="M566.7,1069.8h-.6c-2.8-3.1-6.4-14.3-8-18.6-.6-1.7-2.6-2.5-2.8-4.4-.3-2.4,2.1-5.3,2.1-8.2s-1.8-8.4-2.1-8.7c-5.3-3.7-8.2,10.2-10.9,11.1-3.1.7-5.6-.8-8.8-.7-5.1.2-12.5,4.9-15.8,4.8-2,0-3-2-5.7-1.6-2.5.4-6.4,4.9-9.3,6.2-7.2,3.2-12,1.7-18.9,2.7-.8-2.8,3.3-4.9,4.1-8.2.9-3.3.9-8.4-2.6-9.8v-2l2-1c-1.3-3-.3-4.6-4.4-3.5-3.4,1.1,0,5.6-.6,6-5.5.4-16.4,5.5-12.3,12.3l-7.2,1.6v3.6c-1.4,1.5-7.9-6.2-7.7-8.3-5.8-1.6-2.6,5.5-7.7,4.2l5.2-9.2c3.2-.7,1.8,2,2,4.1l3.1-1,1.6,4.1c3.5-1.4,6.8-4.4,6.6-8.7,0-1.9-2.3-3.1-2.7-5.2-.5-2.9.9-8.3-1.3-11.7h3.1l-1.5-4.1c-4.3,1.8-5.5,5.8-6.4,10-.7,2.8,1,7.1-2.3,8.5l-1-14.4-4.1,1c-1.8-1.9,4.9-21-1-23.6-.9,3.3-2.2,7.2-3.7,10.3-.7,1.5.2,2.6-2.5,2.1.4-4.4,3.2-7.5,3.8-12.1.7-4.6-.7-13.5,1.3-17,.6-1.2,8-4.1,7.2-9l4.1,2c-2.8-3.8-.8-9.6-1-14.9,0-2.1-1.2-11.7-2-12.3-4.7-3.8-4.1,2.4-8.2,1.6l2,1.5c-4.8,3-3.7,24-6.1,25.8l-11.3-.6-2-5.1c-.5,2.4,1.1,5.1.6,7.2-.8,3.4-5.1,4.5-5.5,5.2-.2.3.8,1.8.4,2.9-3.6,9.7-5.1,18.4-5.8,28.7-3.3-.2-14.1,1.7-15.4,4.7,4.8,2.9,10.8,3.8,16.4,3.6l1,8.2-22.9-2-5.9-20.1,4.7-9.8c-4.1-3.6-7.1-4.9-12.9-4.1l2,3.1c-11.5,1.3-20.1-9-28.3-15.4-3.9-3-9.2-5.5-12.7-8.9-3.7-3.5-5.7-8.9-9.4-12.1-5.4-4.6-14.5-7.6-21.5-7.8l.5-2c3.7,1.9,7.4,2.2,7.7-2.5-2.5-3.2-6.6-1.7-9.2.4-.2-5.5-2.7-16.7-8.8-18.5-2-.3-1.4,0-1.6,1.5-.8,7,5.7,15.5,9.3,21-6.2,0-15.8,1.3-18.2-5.9-.6-1.9-.2-4-1.1-6.1-1.7-3.9-7.1-12.6-11.5-13.2-1.4-.2-2.2,1.6-3.4,1.4-1.3-.2-3.5-2.8-5.9-1.9-.6-2.8,2.3-4.7,1.9-7.5-.3-2.2-4.3-9.2-5.5-12.1-1.9-4.7-.8-9.6-7.3-12.2-7.1,3.3,3.3,8.8,5.8,12.2l-7.2-1.6c-10.5,9.3,7.7,13.5,8.2,21.6l-6.2-1.5,3,4.5c-1.3,3.1-5.8,5.1-7.7,1.7-.5-.9,1.1-2.9,0-5.2-.5-1-4.5-4.5-5.6-4.8-3,.5-4.4,3.1-3.1,5.8-11.3-3-21.6-8.8-31.7-14.5v-2.9l4-2.1c-6,2.3-5.9-5-9.5-7-1.4-.8-14.3.8-17.3-1.7l2.6-3.6,2.6,3.1c-.6-5.1.2-8.8,6.2-8.2-2.7-3,.8-5.7.6-7.2-.3-2.1-4-7.4-3.7-10.7l2.1-1.1c-1.5-4.3-9.2-5.8-8.9-10.3,0-.8,1.5-1.9,1.7-3.2.2-1.8-.9-3.5-.7-4.9.3-2.3,4.5-7.4,3.8-10.9,10.6,2.2,13,15.6,24.7,17.5l-.6,2.1c-5.5,1.3-8.5,7.3-14.8,5.1l1,3.6,2-.5-1,8.2c9,.9,11.8,4.5,18.9-3.2l6.1-8,5.8,5c-2.5,0-6.4.9-6.2,4.1l11.3,3.1c-2.9,10.1,4.9,3.8,9.2,9.2l-.5-4.2c6.1-2.5,7.3-4.8,3.7-10.8l-7.2-.5c-.5-2,1.9-5.1,1.8-6.5-.2-3.3-3.1-4.8-3.6-6.6-1.2-4.1.9-9.9-2-14.2,6-4.6,10.6-10.2,14.1-16.9l2.1.6,4,6.1,2.6-.5c1-3.3.7-6.8-.2-10.1-1.1-4.1-4.5-5.5-4-9.5-.4-.7-10.5-5.8-11.3-5.9-1.6-.2-3.6,1-5.9.7-4.9-.5-4.9-3.6-10.8.7-3.3,2.3-7.9,8.1-10.7,10.3-.6.4-6.7,4.3-7.2,4.3-1,0-7.7-2.5-7.9-3.4.6-2.8,3.7-3.8,4.7-6.6.4-1,1.5-6.2-1.1-5.2-4.6,2.4-5.4,9.9-7.7,12.9-.9,1.2-2.9,1.3-4,3.2-2.3,3.9,1.5,13.2-5.3,11.1,2.8-9.1-7.2-33-16.9-19-4.7,6.7-2.2,14.4-2.6,21.5-3.8-3.4-5.9-4.4-4.2,1.9l-7.1,4.7c3.3,5.1,10.2.4,13.9-2.5,3.2,2,.5,8.1,1.7,10.1l4,3.2c-9.3-3.8-20.8-4.3-25.7,6.2l-2-.5c-.5-4,1.5-4.1,4.1-6.2l-4-1.6c-.6-.8,1.8-8.2,2.5-9.1.8-1.1,2.9-1.1,4.1-2.1,8.1-6.7,2.1-12.2-6.5-9.4l-4.2-6.7,3-2.9c-1.9-7.2-4.5-2.8-7.9-4.3-2.4-1-2.7-3.3-4.2-4.4-2-1.5-8.2-4.4-9-6.1-.7-1.4.9-4.2.6-6.6-.3-1.8-2.4-3.5-2.1-5.7-4.5,1.7-6.4,1.2-9.2-2.6,4.8-2,15.6.2,14.4-7.7-6.2-.8-17.4-2.1-21.6,3.6-.8,1.1-2.9,5.9-3,7.2,0,4,5.3,6.4.9,10.3-1.1,1-3,1-3.8,1.8-1.5,1.5-2,6.5-4.9,7.9l-4.2-10.2c-14.1-16.6-35.5,3.1-44,16.5-2.3,3.7-7.7,14.3-5.3,18.4.8,1.4,10.4,7.6,12.9,6.2-3.1,6.1-9.7,1-13.9,1s-2.1,0-3.3.4c10.4,22.5,22.1,44.2,35.1,65.1,2.1-.2,4.2-.2,6.7.3-1.8,2.9.8,8.3,2.6,3.1,2.8,6.6,11.4,3.9,16.2,5.3,1.4.4,2.2,2.4,3.5,2.7,1.9.5,5.9-1.2,8.5,0-.8-3.3-8.4-1.4-9.2-2.1,2.9-9.4,6.3-1.5,12.3-2,1.6,4.9-3.4,5.4-4,6.3-.3.4,1.9,6.2-.3,10.5-.8,1.6-2.9,1.6-2.9,2.3,0,4.1,8.8,13.5,12.9,9.7l1.5-3.5-4-3.2c3.7-5,9.4-3.4,14.8-3.7l1.6,3.1c-.5-3.5,0-4.1,3.1-5.1l.2,2.9,2.9.2.5,3.1c3-2-1-4.6-.5-7.2l6.1,1.5c-4.5,1.8-2.4,3.6-3.3,6.9-.8,3.3-2.9,5.9-1.8,10-4.1-.4-8.6-7.7-12-4.8-5.1,4.3-2.1,8.6,2.1,12.7,1,1,6.4,1.8,4.3,4.4l-9.3,2.8c-1.2-.2-4.5-8.4-7.6-4.3l5,6.4c-.8,1.7-1.8,4.5-2.3,7.3,2.6,3.1,5.2,6.2,7.8,9.2,4.2-1.2,5.8-5.8,10.1-5.4l1-4.7c3.9,3.3,7.8,2.7,12.3,4.1,1-4-4.9-1.7-5.7-3-1.7-3,.3-7.9-6.7-8.3-1.5-2,5.3-5.9,7.2-4.7,2.4,7.3,4.1,3.8,8.2,5.1,2.8.9,4.1,4.4,6.8,4.8,1.9.3,16.6-4.6,18.4-6.2,6.5-5.9,5.4-7,6.8-14.8.3-1.7,1.8-2.8,2-4.2.4-3.6-2.3-9-1.5-12.8,3.3,3.2,6.5,5,5.8,10.2h2.9c-.6,5.9-4,17.3-2.8,22.9.6,2.6,3,3.4,3.9,4.6,2.1,3.3,2.6,6.3,3.6,8.4.8,1.8,4.9,4.3,6.2,6.2l1.7-2.9c2.7-1.1,3.7,1.9,5.8,2.7,4.4,1.7,11.5,3.1,16.2,3.4,2.1,0,9.8-1.1,10.8-.6,1.2.6,1.8,3,3.2,4.1,5.3,4.1,14,8.1,20.4,9.9,1.5,1.6-5.5,4.3-6,7.9-1.1,8.3,11.1,6.6,14.6,7.4,1,.2,10.1,14.5,15.6,5.2,3.1,1.6,2.5,6,3.9,7.9.3.4,6,6.2,6.9,7,4.6,4.1,12.3,7.5,18.5,6.2,2.4-.5,4.3-2.9,6.2-4.1,2.6-1.6,5.6-.7,7.1-5.3,4,.5,0,6.8,3.1,9.8-3.5.2-14.3,6.2-16.1,8.5-.5.7-2.9,10-2.9,11.1,0,12.3,7.8,23.9,15.6,32,.9,1,.8,2.9,1.5,3.6,1.3,1.1,8.8,2,11.1,2.3l-1,4.1c-11.1-4.5-8.2,22-3.1,25.2,6.3,4,5.3-12.4,5.2-15.5,0-1.9-1.3-4.7-1-6,.4-1.3,2.4-1.4,3-2.4.9-1.6.7-4.2,2.4-5.5,1.9-1.5,6.3-1.6,9.5-4.4,1.5-1.4,8-10.1,9-12,1-1.8.2-4.4,1.9-5.9-.6-1.7.8-3.8.7-6-.3-4.2-3.4-10.3-6.8-12.8-3.6-2.8-7.7-1.3-9.6-5.3,4.7-3.5,5.5.3,9,.9,2.1.3,3.8-.9,5.6-.6.7,0,7.8,3.2,8.5,3.8,2.2,2,1.7,4.4,2.9,5.9,2.2,3,10.7,5.4,10,11.6-8.5-4-12.3-1.3-19,4.1,1.2,2.7.9,6.3,2,8.6.7,1.4,2.7,1.5,3.3,2.3,6.3,8.1,10,11.5,20.6,13.9,6.1,1.3,9-6.9,10-6.9l2.6,1.5,3.1-4.7c1.8-.2.4,1.8,1.7,3.2,3.7,4.2,7.9,1.4,6.5-4.2h4c.9,4.9.7,14.9,7.7,12.5l1.1.8c1.5,6.8,2.3,11.5,6.3,17.4,3.7,5.5,3.2,5.4,5.8,11.7.6,1.4,2.3,2.3,2.7,3.5,1.2,4-2.8,4.5-3.7,7.2-.3.9-2.3,10.4-2.3,11,.2,2.6,4.9,14.7,8.9,18.7,1.1.2,2.2.5,3.3.7,2-2.2,1.3-7.3,1.1-10.1-.5-7.8-2.7-15.8-5.1-23.1.9-1,8,7.4,12.5-3.4,3.7-8.9,2.2-18.4.3-27.5-1.9-9.3-5.2-21.2-12.4-27.7l-7.2,7.2-.6-3c-6.6-1.8-7.1.5-7.1,7.1l-2.1-8.7c.3-4.9,8.7-1.4,9.3-2,.8-.7.7-2.7,1.3-3.3,2.5-2.6,7.6-7.6,11-5.5-2.1-1.3.7-9.7,1.2-10.1.8-.6,3.2.6,4.1-.7l.8-3.8c-5.9-3.9-4.6-11.8-9.1-17.1h5.1v3.1h3.1v-3.6c5.8-2.9,8.9,1.4,13.7,2.8,2.2.6,11.8,2.1,12.9,3.1.6.5.4,3.7,1.7,5,1.6,1.5,4.9.9,6.7,2.6,1.1,1,3.4,5.9,5.1,7.9,7.4,8.5,12.5,10.6,20.8,16.6,5.3,3.8,4.7,0,8-1.8,3.2-1.8,13.6-7.5,16.5-8.3,2.6-.7,3.9.9,6.8-.2,1.7-.7,5.2-4.4,5.3-6.1-.7-4.4-8.2-3.8-9.6-5.5Z"/>
  <path d="M1142.6,851.1c-4.2,0-10.8,5.1-13.9-1,2.4,1.4,12-4.8,12.9-6.2,2.5-4.1-2.9-14.7-5.3-18.4-8.5-13.4-29.9-33.1-44-16.5l-4.2,10.2c-2.9-1.4-3.4-6.5-4.9-7.9-.8-.8-2.7-.9-3.8-1.8-4.5-3.9.9-6.3.9-10.3s-2.1-6.1-3-7.2c-4.2-5.6-15.4-4.4-21.6-3.6-1.2,7.9,9.5,5.7,14.4,7.7-2.9,3.8-4.8,4.2-9.2,2.6.4,2.2-1.8,3.9-2.1,5.7-.3,2.3,1.3,5.2.6,6.6-.9,1.7-7.1,4.7-9,6.1-3.3,2.5-3,6.6-9.9,4.3l-2.2,4.5,3,2.9-4.2,6.7c-8.6-2.8-14.6,2.7-6.5,9.4,1.1.9,3.3.9,4.1,2.1.7.9,3.1,8.4,2.5,9.1l-4,1.6c2.6,2.1,4.6,2.2,4.1,6.2-2.1,1.8-3.1-2.7-5.7-4.6-7.7-5.8-13.7-3.7-22.1-1l4-3.2c1.2-2-1.5-8.1,1.7-10.1,3.7,3,10.6,7.7,13.9,2.5l-7.1-4.7-.6-5-3.6,3.1c-.4-7.1,2-14.8-2.6-21.5-9.7-14-19.7,9.8-16.9,19-6.8,2.1-3.1-7.2-5.3-11.1-1.1-1.9-3.1-2-4-3.2-2.3-3-3.1-10.4-7.7-12.9-2.6-1-1.4,4.1-1.1,5.2,1,2.8,4,3.8,4.7,6.6-.2,1-6.9,3.4-7.9,3.4s-12.9-9.5-15.1-11.3c-1.2-1-1.7-2.5-2.8-3.3-5.9-4.2-5.9-1.1-10.8-.7-2.3.2-4.4-.9-5.9-.7-.8,0-10.9,5.1-11.3,5.9.5,4-2.9,5.3-4,9.5-.9,3.3-1.3,6.8-.2,10.1l2.6.5,4-6.1,2.1-.6c3.5,6.7,8.1,12.3,14.1,16.9-2.9,4.3-.8,10.1-2,14.2-.5,1.8-3.4,3.3-3.6,6.6,0,1.4,2.3,4.4,1.8,6.5-6.9-1.1-10.1,1.3-8.8,8.2l5.2,3-.5,4.2c4.4-5.4,12.1.8,9.2-9.2l11.3-3.1c.2-3.2-3.7-4-6.2-4.1l5.8-5,6.1,8c7.2,7.6,9.9,4.1,18.9,3.2l-1-8.2c2.6,1.2,3.4-.2,3.1-3.1-6.3,2.2-9.2-3.7-14.8-5.1l-.6-2.1c11.6-1.9,14.1-15.3,24.7-17.5-.7,3.5,3.5,8.7,3.8,10.9.2,1.4-.9,3.1-.7,4.9,0,1.3,1.6,2.4,1.7,3.2.4,4.5-7.3,6-8.9,10.3,4.9,1.1-1.2,9.2-1.6,11.7-.2,1.6,3.3,4.2.6,7.2,6-.6,6.7,3.1,6.2,8.2l2.6-3.1,2.6,3.6c-3,2.5-15.9,1-17.3,1.7-3.6,2-3.5,9.3-9.5,7l4,2.1v2.9c-10.2,5.7-20.5,11.5-31.8,14.5,1.3-2.7,0-5.2-3.1-5.8-1.1.3-5.2,3.7-5.6,4.8-1,2.3.5,4.3,0,5.2-1.8,3.3-6.4,1.3-7.7-1.7l3-4.5-6.2,1.5c.5-8.1,18.7-12.2,8.2-21.6l-7.2,1.6c2.5-3.4,12.8-8.9,5.8-12.2-6.5,2.7-5.4,7.5-7.3,12.2-1.2,2.9-5.1,9.8-5.5,12.1-.4,2.7,2.5,4.7,1.9,7.5-2.4-.9-4.6,1.7-5.9,1.9-1.3.2-2-1.6-3.4-1.4-4.4.6-9.8,9.3-11.5,13.2-.9,2.2-.5,4.2-1.1,6.1-2.4,7.3-12,5.9-18.2,5.9,3.6-5.6,10.1-14,9.3-21-.2-1.5.5-1.8-1.6-1.5-6.1,1.8-8.6,12.9-8.8,18.5-2.6-2.1-6.7-3.6-9.2-.4.3,4.7,4,4.4,7.7,2.5l.5,2c-7,.2-16.2,3.2-21.5,7.8-3.8,3.3-5.7,8.6-9.4,12.1-3.5,3.3-8.8,5.8-12.7,8.9-8.2,6.4-16.8,16.7-28.3,15.4l2-3.1c-5.7-.8-8.7.5-12.9,4.1l4.7,9.8-5.9,20.1-22.9,2,1-8.2c5.6.2,11.6-.6,16.4-3.6-1.3-3-12-4.9-15.4-4.7-.7-10.4-2.2-19-5.8-28.7-.4-1.1.6-2.6.4-2.9-.4-.7-4.7-1.8-5.5-5.2-.5-2.2,1.1-4.9.6-7.2l-2,5.1-11.3.6c-2.4-1.8-1.4-22.8-6.1-25.8l2-1.5c-4.2.8-3.5-5.4-8.2-1.6-.8.6-1.9,10.2-2,12.3-.3,5.3,1.7,11.1-1,14.9l4.1-2c-.8,4.9,6.6,7.8,7.2,9,1.9,3.5.6,12.4,1.3,17s3.5,7.7,3.8,12.1c-2.7.5-1.8-.6-2.5-2.1-1.5-3.1-2.8-6.9-3.7-10.3-5.9,2.6.7,21.8-1,23.6l-4.1-1-1,14.4c-3.3-1.4-1.6-5.7-2.3-8.5-1-4.2-2.1-8.2-6.4-10l-1.5,4.1h3.1c-2.3,3.4-.9,8.7-1.3,11.7-.4,2.1-2.6,3.3-2.7,5.2-.2,4.3,3.1,7.3,6.6,8.7l1.6-4.1,3.1,1c.2-2.1-1.2-4.8,2-4.1l5.2,9.2c-5,1.3-1.8-5.7-7.7-4.2.2,2-6.3,9.7-7.7,8.3v-3.6l-7.2-1.6c4.1-6.8-6.8-11.9-12.3-12.3-.5-.4,2.7-4.9-.6-6-4.1-1-3.2.6-4.4,3.5,4.9,2,.4,3.4,0,4.3-1.2,2.8-1.4,5.5-.6,8.5.9,3.3,4.9,5.5,4.1,8.2-7-1-11.8.6-18.9-2.7-2.9-1.3-6.8-5.8-9.3-6.2-2.6-.4-3.7,1.5-5.7,1.6-3.2,0-10.6-4.6-15.8-4.8-3.2,0-5.7,1.4-8.8.7-2.7-.9-5.6-14.8-10.9-11.1-.4.3-2.2,7.5-2.1,8.7,0,2.9,2.4,5.7,2.1,8.2-.2,1.9-2.2,2.7-2.8,4.4-1.6,4.3-5.2,15.6-8,18.7-1.5,1.7-9,1-9.6,5.5,0,1.7,3.7,5.4,5.3,6.1,2.9,1.1,4.2-.5,6.8.2,2.9.8,13.3,6.5,16.5,8.3,3.4,1.9,2.8,5.6,8,1.8,8.3-6,13.4-8.1,20.8-16.6,1.8-2.1,4.1-6.9,5.1-7.9,1.8-1.7,5.1-1,6.7-2.6,1.3-1.3,1.1-4.5,1.7-5,1.1-.9,10.7-2.4,12.9-3.1,4.8-1.4,8-5.7,13.7-2.8v3.6h3v-3.1h5.1c-4.5,5.3-3.2,13.3-9.1,17.1-.7,6,3.8,3.7,4.9,4.6.5.4,3.2,8.8,1.2,10.1,3.3-2.2,8.5,2.9,11,5.5.6.7.5,2.6,1.3,3.3.7.6,9-3,9.3,2l-2.1,8.7-2-7.8-5.1.7-.6,3-7.2-7.2c-7.2,6.5-10.4,18.4-12.4,27.7-1.9,9-3.3,18.6.3,27.5,4.5,10.8,11.6,2.4,12.5,3.4-2.5,7.3-4.6,15.3-5.1,23.1-.2,2.7-.8,7.6.9,9.9,1.3-.3,2.5-.6,3.8-.8,4-4.2,8.4-15.9,8.6-18.4,0-.6-2-10.1-2.3-11-.9-2.7-4.9-3.1-3.7-7.2.3-1.2,2.1-2.2,2.7-3.5,2.5-6.2,2.1-6.2,5.8-11.7,3.9-5.8,4.7-10.6,6.3-17.4,1.1-1.7,3.1.3,4.6-.4,3.2-1.5,3.7-9.6,4.2-12.8h4c-1.3,5.5,2.8,8.3,6.5,4.1,1.3-1.4,0-3.4,1.7-3.2l3.1,4.7c4.5-3.3,3.8,2.2,7.8,4.4,4.7,2.5,4.4,0,7.4-.6,2.1-.5,3.9-.3,6.1-1.1,2.8-1.1,14-11.4,15.2-13.6,1.2-2.3.9-5.9,2-8.6-6.6-5.4-10.5-8-19-4.1-.7-6.1,7.8-8.6,10-11.6,1.5-2,.5-4.7,4-6.8.6-.3,7-2.9,7.3-3,1.9-.3,3.5,1,5.6.6,3.4-.5,4.3-4.3,9-.9-1.9,3.9-6,2.5-9.6,5.3-3.3,2.6-6.5,8.6-6.8,12.8,0,2.3,1.2,4.3.7,6,1.7,1.5.9,4.1,1.9,5.9,1,1.9,7.5,10.7,9,12,3.2,2.8,7.6,2.9,9.5,4.4,1.7,1.4,1.5,4,2.4,5.5.6,1,2.7,1.1,3,2.4.3,1.2-4.2,26.8,4.2,21.5,5.1-3.2,8.1-29.7-3.1-25.2l-1-4.1c2.2-.3,9.7-1.2,11.1-2.3.8-.6.6-2.6,1.5-3.6,7.8-8.1,15.7-19.8,15.6-32,0-1.1-2.3-10.4-2.9-11.1-1.9-2.3-12.7-8.3-16.1-8.5,3.1-3-.9-9.3,3.1-9.8,1.5,4.5,4.5,3.7,7.1,5.3,1.9,1.2,3.9,3.6,6.2,4.1,6.2,1.3,13.9-2.1,18.5-6.2.9-.8,6.6-6.6,6.9-7,1.4-1.9.8-6.3,3.9-7.9,5.5,9.3,14.6-4.9,15.6-5.2,3.5-.8,15.7.8,14.6-7.4-.5-3.7-7.5-6.4-6-7.9,6.5-1.8,15.1-5.8,20.4-9.9,1.4-1.1,2-3.5,3.2-4.1,1-.5,8.7.7,10.8.6,7-.3,14.7-2.5,20.6-6.2l3.1,3.1c1.3-1.9,5.4-4.4,6.2-6.2,1-2.1,1.5-5.1,3.6-8.4.8-1.3,3.3-2,3.9-4.6,1.2-5.6-2.2-17-2.8-22.8h2.9c-.7-5.3,2.5-7.1,5.8-10.3.8,3.8-1.9,9.2-1.5,12.8,0,1.4,1.7,2.6,2,4.2,1.3,7.8.3,8.9,6.8,14.8,4.4,4,12.7,3.7,18.4,6.2,2.6-.4,4-3.9,6.8-4.8,4.1-1.3,5.8,2.1,8.2-5.1,1.9-1.2,8.7,2.7,7.2,4.7-7,.4-5,5.3-6.7,8.3-.7,1.3-6.7-1-5.7,3,4.6-1.4,8.4-.8,12.3-4.1-.7,6.7,2.3,3.6,4.1,4.6.7.4,1,2,1.8,2.6,1.3.8,2.8,1.8,4.5,2.5,2.8-3.3,5.6-6.5,8.3-9.9-1-2.6-2.5-4.8-2.1-6.3,2.6-1.6,7.6-10.4,1.6-6.7-2,1.2-3.3,4.5-4.2,4.7-1.4.2-13.4-2.1-8.1-5.7.9-.6,2.3-.7,3.1-1.5,5.1-5,7.5-10.3-.2-13.7l-9.8,5.8c1-4.1-1-6.8-1.8-10-.9-3.3,1.2-5.2-3.3-6.9l6.1-1.5c.5,2.5-3.5,5.2-.5,7.2l.5-3.1,2.9-.2.2-2.9c3.2,1,3.6,1.7,3.1,5.1l1.6-3.1c5.4.3,11.1-1.3,14.8,3.7l-4,3.2c1.7,10.6,14.5-.8,14.4-6.2,0-.7-2.1-.7-2.9-2.3-2.2-4.3,0-10.1-.3-10.5-.6-.9-5.7-1.4-4-6.3,6,.5,9.5-7.3,12.3,2-.8.7-8.5-1.2-9.2,2.1,2.6-1.4,6.6.4,8.5,0,1.4-.4,2.1-2.3,3.5-2.7,4.9-1.5,13.4,1.3,16.2-5.3l2.6,2v-5.1c2.1-.4,4-.5,5.7-.4,13-20.9,24.8-42.7,35.2-65.2-.9,0-1.7-.2-2.4-.2h0Z"/>
  <path d="M299.4,842.9s0,0,0,0c0,0,0,0,0,0,3.5,2.3,17.6-11.1,22.2-12.1,0,0,0,0,0,0,6.3-1.4,18.7,2.4,26.5,1.9,2.5-.1,12-2.5,13.8-3.7,0,0,0,0,0,0,1.4-.9,2.5-4.8,3.7-6.6,0,0,0,0,0,0,0,0,0,0,0,0,1.2-1.7,3.8-3.1,4.3-4.9,0,0,0,0,0,0,.5-1.6,3.1-14.1,3.1-15.5h0s0,0,0,0c0-.6-.3-1.7-.9-2.9-1.3-3.1-3.6-7.3-4.6-8.6-2-2.6-7.2-3.9-11.4-5-1.1-.3-2.2-.6-3.1-1,0,0,0,0,0,0-2.4-.9-6-3.8-8.1-4,0,0,0,0-.1,0-.6,0-1.1,0-1.7-.1-8.9-.2-16.5,5.4-20.7,13.1,0,0,0,0,0,0-1.8,3.3-4.1,14.7-4.7,15.2,0,0,0,0,0,0,0,0,0,0,0,0-.2.1-.5.2-.8.2-.3,0-.7,0-1.1,0-1.4,0-3,.4-3.9,3.8,0,0,0,0,0,0,0,0,0,0,0,0-1,3.7-1.8,17.5-3.3,20.1,0,0,0,0,0,0-.4.6-10.9,8.8-9.3,10Z"/>
  <path d="M214.2,1014.8c-8.2-4.2-21.5-5.5-28.5-9.5-11.4-6.5-2.4-6.8,2.1-9.6,3.8-2.4,7.4-11.8,3.4-15-5.2-4.1-18.7,2.6-21.3,8.5l-4.1-.6c1.7,2,1.5,5.4,2.6,7.1,1.1,1.8,3.9,2.1,4.3,3.8.8,2.9-.7,10.2-.5,13.1.3,4.2,5,5.2,5.4,8.8.1,1.1-.7,2.2-1.3,3.3,7.6,7.6,15.5,15,23.5,22.2,6.4,1,20.3,2.5,21.8,2.1h0c.6,0,7.5-5,7.7-5.5.2-.7-.7-12.1-1-13-1.5-5-9.4-13.3-14.1-15.7Z"/>
  <path d="M1028,985.2c-9.9-8-26.7-8-17.6,7.4,3.4,5.9,18,5.4,5,12.8-6.3,3.6-18.9,5.2-26.4,8.5-5.9,2.6-14.4,10.5-16.2,16.6-.3,1.1-1.2,13-.8,13.6.2.4,7,4.8,7.5,4.9.9.3,14.1-.9,20.2-1.7,8.4-7.5,16.6-15.3,24.6-23.3-.5-.8-.9-1.7-.9-2.5.4-3.6,5.1-4.6,5.4-8.8.2-2.9-1.3-10.2-.5-13.1.5-1.7,3.3-1.9,4.3-3.8,1.1-1.8.9-5.2,2.6-7.1-5.2,2.3-4.3-1.1-7.2-3.5Z"/>
  <path d="M516.4,922.5s0,0,0,0c0,0,0,0,0,0h.1Z"/>
  <path d="M1073.3,956.4c-5.1,1.4-2,6.7-5,10.4l2.5,5.1c3.7-4.7,7.3-9.4,10.8-14.1-3.1-.8-7.4-1.7-8.3-1.4Z"/>
  <path d="M135.4,979.6l.6-1.1-2.6-1.3c.7.8,1.3,1.6,2,2.4Z"/>
  <polygon points="133.4 977.2 133.4 977.2 133.4 977.2 133.4 977.2"/>
  <polygon points="132.7 967.5 132.7 967.5 132.7 967.5 132.7 967.5"/>
  <path d="M130.7,958.1c-.2-.4-3.7-2.2-4.4-2.2s-4.5,1.2-7.7,2.2c3.7,4.9,7.4,9.8,11.2,14.6,1.1-1.9,2.8-4,2.9-5.2,0-1.5-1.3-2.8-1.6-4.2-.4-1.7.2-4.1-.4-5.2Z"/>
  <path d="M431.9,963.7c.3-1.8,0-3.6-1-5.3-2.8-4.8-6-2.3-9.6-2.7-3.6-.3-10.5-2.6-13.5,0-1.5,1.2-3.9,8-6.5,8.4v2.1c.6,0,4,3.5,4,3.8,0,.2,0,.4,0,.6,0,3.1-3.3,2.6-4.6,3.7-1,.9-.3,2.6-.8,3-.8.7-2.9-.6-2.9.8,0,.1,0,.3,0,.6l4,1.6-1.9,6.4s0,0,0,0v.2c2.9.4,4.7,1.7,7.5,0,1.1-.7,1.4-2.4,1.8-2.7,2.6-1.7,8.8-1.8,14.6-7,3.3-3,8.1-8.3,8.7-13.4Z"/>
  <path d="M800.4,974.1v.2c-1-.8-3.8-.6-4.5-2.6v-1.8l4-4.1s0,0,0,0h.1c0-.3-2.1-3.8-2.4-4.3-.7-1-4.9-6.2-5.5-6.4-3.9.2-17.2-.3-19.8,1.4-1,.7-1.8,1.5-2.3,2.4-3.6,5.9,4.3,15.9,8.7,19.4,4.6,3.6,12.4,4.8,13.8,5.8.4.3.7,2,1.8,2.7,2.8,1.7,4.7.4,7.5,0v-.2s0,0,.2,0l-1.9-6.3,3.9-2c-.2,0-.4,0-.6,0l.7-.4c-4.4,0-2.4-2.5-3.7-3.7Z"/>
  <path d="M1150.6,828.5h0c-1.4.5-2.9-1.2-2.4,2l5.5.6c.3-.8.7-1.7,1-2.5-1.1-.8-1.8-1.6-2.5-2.1-2.9-2-.8,1.7-1.7,2Z"/>
  <path d="M1150.3,839.5c.5-1,.9-2.1,1.3-3.1-2,1.4-3.3,2.6-1.3,3.1Z"/>
  <path d="M50.3,828.6c-1.4-.4.7-1.7.3-2.1-.3-.3-3.1,1.5-5.4,2.7.3.7.6,1.4.9,2.1l6.5-.7h.1c.5-3.2-1-1.6-2.4-2Z"/>
  <path d="M51.7,838.3l-3.9-3.1c.7,1.6,1.3,3.1,2,4.7,1.1,0,2.4.3,1.9-1.5h0Z"/>
  <path d="M172.1,675.8c.6,3.2,7.4,8.6,10.8,8.9,10.4,1,17.1-6.6,15.7-14.9-.5-2.8-1.9-5.7-4.4-8.4-.8-.8-5.4-4.4-6.3-4.4-5.4,2-12.9,2.4-14.7,8.9-.4,1.2-1.1,7-1.1,9.2,0,.3,0,.6,0,.7Z"/>
  <path d="M924.2,857.2s0,0,0,.1c0,0,0,0,0,0h0Z"/>
  <path d="M284.2,880.6c9.8-2.8,10.1-8.3,6.9-17h0c0,0,0-.1,0-.2h-3.9c.4-6.3,7.7-5.3,8.8-11.2.3-1.5.1-2.5-.3-3.3-1.2-2.3-5.2-1.9-8.1.1-3.3,2.3-3.8,11-10.7,8.3h0c3.2,7.6-7.8,14-4.6,20.5.6,1.3,1.4,2.2,2.4,2.8,2.6,1.9,6.3,1.2,9.8.1h0Z"/>
  <path d="M854.9,934.2c-8.3-8.5-16.2-.8-16.3,8.6,0,1.4.1,2.8.4,4.2,0,.3,3.1,2.6,3,4.6,0,0,0,0,0,0l-5.1,2.1c0,0,.1,0,.2,0h-.2c2.5.3,7,1.8,7.3-1.9,3.3-.9,2.4,4.1,4.7,4.9h0c1.5.7,9.8.2,10.5-2.5,0,0,0-.1,0-.2,0,0,0,0,0,0-1-7.4,1.4-13.8-4.5-19.9Z"/>
  <path d="M751.9,848.8s0,0,0,0c1.8,2.5,4.3,4.4,6.8,4.3-.2,3.7-2.8,7.8,1,11.5,0,0,0,0,.1,0h0c1,1,2.8.9,3.7,1.8.3.3.4.7.4,1.4s-2.2.9-3.1,2c-3.3,3.8-3,8-.7,11.1,2.2,3.1,6.3,5.1,10.8,4.3,3.5-1.4,3.5-9.3,1.2-14,0,0,0,0,0,0,0-.2-.2-.4-.3-.5,0-.2-.2-.3-.3-.5,0,0,0,0,0,0-.6-1-1.4-1.8-2.3-2.3l8.2-9.7h-.2c0,0,.1,0,.1,0l-4,1c.1-2.2-.6-3.8-1.8-5-1.6-1.6-4-2.5-6.5-2.8-2.7-.4-3.9,1.5-6.2,1.6,0-2-.9-6.4-2.6-9.7-1.3-2.5-3-4.3-5.1-3.6h-.1c-2.7.8-1.8,5.1.6,8.6.1.2.2.3.3.5Z"/>
  <path d="M856.1,644.5h0c2.5.5,9-.5,10.4-2.5,5.7-7.5-.3-20-9.7-20.5,0,0,0,0,0,0h0c-10.5-.6-13.2,20.7-.8,23Z"/>
  <path d="M344.9,644.5c.8-.1,1.5-.4,2.1-.6,1-.4,1.8-1,2.6-1.7.2-.2.5-.5.7-.7.9-1,1.5-2.2,2-3.4.3-1,.6-2,.7-3,0-.7.1-1.4.1-2.1,0-2.8-.8-5.6-2.2-7.7-.3-.5-.7-1-1.2-1.5-1.5-1.5-3.4-2.5-5.7-2.3-14.6.9-16.9,26.2.8,23Z"/>
  <path d="M141.3,684.5c.6.3,1.1.5,1.6.5,4.9.2,7.5-13,7.5-16.2,0,0,0,0,0,0h0c0-4.4-2.1-14.7-7.7-14.9,0,0,0,0,0,0-2.1,0-4,1.4-5.5,3.4-1.9,2.6-3.2,6.1-3.2,8.5h0c0,2.8,5.3,17.5,7.3,18.7Z"/>
  <path d="M1058.1,685c.5,0,1.1-.2,1.7-.5,2-1.2,7.3-15.9,7.3-18.7,0-4.2-3.9-12.1-8.7-11.9h0s0,0,0,0c0,0,0,0,0,0-5.6.2-7.7,10.5-7.7,14.9s2.6,16.4,7.5,16.2Z"/>
  <path d="M791.8,855.9c0,0,0,.1,0,.2-.2,1.3,1.1,8.5,1.8,9,8.3,2.4,17.4-3.2,20.4-10.8,0,0,0,0,0,0,.1-.3.2-.5.3-.8,0-.2.1-.4.2-.7,0,0,0-.1,0-.2.2-.9.4-1.8.5-2.7,0,0,0,0,0,0,0-.2,0-.4,0-.7,0,0,0-.2,0-.3,0,0,0,0,0,0,0,0,0,0,0,0-1.2-4-9.1-4.6-12.5-3.6-1.1.3-10.6,9.8-10.8,10.8Z"/>
  <path d="M403.2,866.2c1.5,0,3-.3,4.3-1.1,1-2.8,2.5-8.1,1-10.4-.6-.8-8.8-8.9-9.4-9.2-1.1-.5-2.6-.7-4.2-.7-1.6,0-3.2.2-4.4.4-12.5,2.8,2.1,20.8,12.7,21Z"/>
  <path d="M112.2,930.9s0,0,0,0c0,0,0,0,0,0h.1Z"/>
  <path d="M111.8,926.2c-4.6,0-9,1.4-13.1,3.4,1.5,2.3,3.1,4.7,4.7,7,1.2-1.3,8-5,8.7-5.6.8-.9,1.6-4.4-.3-4.8Z"/>
  <path d="M114.4,952.5c.2.3.5.7.7,1,.4-.7.6-1.4.3-1.7l-1,.7Z"/>
  <path d="M1085.6,951.8c-.2.2-.2.5,0,.8,0-.2.3-.4.4-.6l-.3-.2h0Z"/>
  <path d="M1088.1,927.2h0c-1.6,2.8,6.4,7,9,8.9,1.5-2.2,3-4.5,4.5-6.7-6-2.9-11.9-4.6-13.5-2.2Z"/>
  <path d="M863.7,915.7c-6.1-10.3-19.9-4.2-21.4,6.7h0c0,.1,0,.1,0,.1,0,0,0,0,0,0,.2,3.2,11.1,5.3,13.7,5.5,1.8,0,3.5-1.1,4.9-1,.5,0,.9,3.4,3.7,2.1h0c0,.1,3.1-15.3,3.1-15.3h0s0-.2,0-.2l-4,2Z"/>
  <path d="M337.4,929.4c.3,0,.5,0,.7,0,.6-.1.9-.5,1.1-.8.3-.5.3-1.1.5-1.2,1.5-.7,3.5.8,5.3.7,2.7-.2,13.5-2.3,13.7-5.5h0c-1.3-10.1-13.2-16.4-19.9-8.8-.5.6-1,1.2-1.5,2l-4-2,3.1,15.4c.4.1.7.2,1,.2Z"/>
  <path d="M488.5,831.8c-.2.3-.4.6-.7.9-2.1,3-3.7,6.6-4,9.6,0,.3,0,.6,0,.9,0,2.8,1.1,4.8,4.1,4.7.3,0,.6,0,1,0,0,0,0,0,0,0,.3,0,3-1.2,5.6-2.4,2.1-.9,4-1.8,4.3-2,1.1-.7,2-1.5,2.9-2.4.4-.5.8-.9,1.2-1.4s.4-.5.5-.7c.5-.8.9-1.5,1.3-2.3.5-1,.8-2.1.9-3.1.3-2-.1-3.9-1.3-5.1-.6-.6-1.4-1.1-2.5-1.5s-1.7-.4-2.7-.4c-.3,0-.7,0-1.1,0-.8,0-1.6.2-2.5.4-1.9.4-3.8,1.7-5.5,3.5-.5.5-1,1.1-1.4,1.6Z"/>
  <path d="M892.4,898.5c0,0-.1,0-.2,0,0,0,.1-.1.2-.2-4.2-.4-5.7,2.3-7.8,5.1-4.5-3-13-7.5-16.9-1.3-.7,1.1-1,2.2-1,3.2,0,7.1,14.6,11.8,20.5,8.5,0,0,0,0,0,0,0,0,0,0,0,0h0c-.2-2.2-.4-3.8-.5-5.2,0-4.1,1.2-5.8,5.7-10Z"/>
  <path d="M334.3,905.9c.2-1.4-.1-2.8-1.3-4.2-6.1-7.3-15,2.1-16.6,1.8-2-2.6-3.4-5.2-7.1-5.1-.2,0-.5,0-.7,0,4.5,4.3,5.7,6.1,5.7,10.2,0,1.4-.2,3-.5,5.1,3.8.4,6.4,1.5,10.3.7,3.8-.8,9.5-4.5,10.2-8.5Z"/>
  <path d="M772.6,682.7c-.2-.6-.5-1.2-.7-1.8-.2-.4-.4-.8-.6-1.2-.2-.4-.4-.8-.6-1.2-.3-.6-.7-1.2-1-1.7-.2-.4-.5-.7-.8-1.1-.4-.5-.8-1-1.3-1.4-.3-.3-.6-.6-.9-.8-.5-.4-1-.7-1.5-.9-1.4-.6-2.9-.7-4.7-.1-.4.2-.9.4-1.3.6-.5.3-.9.6-1.4.9-4.2,3.2-.4,10.4,2.3,13.5,5.7,6.4,17.3,7.4,12.5-4.8Z"/>
  <path d="M427.3,689.9c2.4,4.8,10.9.7,13.6-2.4.5-.6,4.2-7,4.3-7.6,0-.4.1-.8.1-1.2.2-5.4-6.5-7.9-11-5.6-2.1,1-7.3,11.6-7.2,15.7,0,.5,0,.8.2,1.1Z"/>
  <path d="M594.1,893.4c.9,1.1,2.8.8,6.1-2.1l5,3.1,2.4-1.8c1.2-6.7-2.1-12.6-4.1-18.7h0s0,0,0-.1l-6.1.5c-2,4.1-5.8,16.5-3.2,19.1Z"/>
  <polygon points="936.6 746.8 936.6 746.8 936.6 746.8 936.6 746.8"/>
  <path d="M264.4,746.7c.1,2,1.6,4.4,3.7,6.4,4,3.9,10.3,6.7,13.7,3.4,1.4-5.1-.9-10.3-4.9-13.5-.2-.1-.3-.3-.5-.4-1.7-1.3-3.8-2-5.5-3.3l-1.4.2c-2.8,1.3-5.3,4-5.1,7.2Z"/>
  <path d="M393.4,913.8c9.3,0,10.2-19.8,2-19.7-.5,0-1.1.1-1.8.3-2.5.7-5.9,7.5-6,12.8,0,3.7,1.4,6.6,5.8,6.6Z"/>
  <path d="M890.8,757.8h0c1.5-.1,2.2-.9,2.4-2.3.7-4.4-4.2-14.3-3.3-18.5,0-.4.2-.7.4-.9,0,0,0,0,0,0,0,0,0,0,0-.1-2.9.9-6.3-.4-9,.7h0c-1.4.5-1.9,1.8-1.8,3.5.1,6.1,8.1,17.5,11.3,17.6Z"/>
  <path d="M310.8,736.1s0,0,0,0c.3.4.4.8.5,1.4.5,4.4-3.9,13.6-3.5,17.9,0,1.2.5,2,1.5,2.3,1.8.5,4.7-2.1,7.2-5.7,3.7-5.2,6.7-12.4,4.3-14.7-2.2-2.1-7.1-.3-10-1.3,0,0,0,0,0,.1Z"/>
  <path d="M592.3,802c3.4,0,6.4-7.2,8.5-7.4,0,0,0,0,0,0h0c2.5,2.5,4.1,7,8,7.2.3,0,.5,0,.8,0,1.9-3.6-6.3-18.2-9.5-18.4-.1,0-.2,0-.3,0-4.8,5-9.3,11.2-8.8,18.4.4.2.8.2,1.1.2Z"/>
  <path d="M848.5,674.2h.1c2.8-1,4-4,3.9-7,0-4.5-2.8-9.3-6.7-9-4.4.4-6.5,7.9-5.9,11.6.6,3.5,5.7,3.8,8.6,4.4Z"/>
  <path d="M352.4,674.2h0c2.9-.6,8.1-.9,8.6-4.4h0c.6-3.8-1.7-12-6.6-11.6,0,0,0,0,0,0,0,0,0,0,0,0-6.3.6-8.6,13.4-2.1,16Z"/>
  <path d="M715.1,892.2l.5,3.1h0s0,0,0,0l5-1c-.6,2.3,4.1,11.6,7.1,11.7.4,0,.8,0,1.2-.5h.1c.9-3.2-2.7-22.8-6.5-22.6-.1,0-.3,0-.4,0h.1c-1,.2-3.8,8.6-7.2,9.2Z"/>
  <path d="M816.9,827.5s0,0,0,0c.9,2.1,2.6,3.4,4.7,4.1,4.4,1.7,10.5.6,14.2-1.1,0,0,0,0,0,0,1.1-1.6.2-3.2-1.8-4.6-5.8-4.3-20.9-6.4-17.1,1.6Z"/>
  <path d="M238.6,908.6s0,0,0,0h0c.2-2.1.7-3.1,1.5-3.4,1.2-.4,3.1.6,5.2,1.2,1.5.5,3.1.8,4.7.3h-.1c0,0,0,0,0,0l-3-2.5c0-.3.1-.5.4-.5.4,0,1.1,0,1.3-.2,1.4-2.2.6-7-2.1-8.3,0,0,0,0,0,0-.9-.4-9.7,1.5-10.8,2-.7.3-1.2.9-1.6,1.6-.6,1.2-.7,2.7-.6,3.8l4.1,2.6s-5.1,3.6-5.1,3.5h.1-.1c0,0,6,0,6,0Z"/>
  <path d="M242.7,1027.1h0c-.7-.6-4.5-2.4-5.5-2.5-.2,0-.3,0-.4,0-.1,2.1-.1,4.1.5,6.2.6,2.1,8.1,13.1,9.8,14.9h0c.9.9,1.4,1.7,2.6,1.6.2,0,.4,0,.7,0-2.1-6.8-1.2-14.9-7.5-20.2Z"/>
  <path d="M481.7,966.2c.5,0,1,0,1.4-.3,2.1-1.2,7.9-16.8,4.2-20-.1-.1-.3-.2-.4-.3h0s0,0,0,0c-3.6-.5-7.7,12.8-7.8,18.6,0,.8,0,1.5.2,1.9,0,0,0,0,0,0,.2,0,.3,0,.5,0,.6,0,1.4.1,2,.1Z"/>
  <path d="M285.3,905.3s0,0,0,0l7.2-.8,3.7,3.1s0,0,0,0h0c0,0,.1,0,.1,0,1.4-3.6-1.6-4.1-1.7-4.4-1.3-2.8,1.3-9.5-3.5-9.6-.3,0-.7,0-1.1,0-6,.7-9.1,7-4.9,11.7h0Z"/>
  <path d="M904.8,907.6l3.7-3.1,7.3.8s0,0,0,0c2.6-2.6,2.7-7.3,0-9.8-.6-.5-4.8-2.1-5.6-2.1-2.9,0-3.3,2.6-3.3,5.3,0,1.1,0,2.1,0,3s0,.8,0,1.1c0,.4-2.3,1-2.4,3.1,0,.5,0,1,.4,1.7Z"/>
  <path d="M611.3,1030.3c2.2-1.1,3.3-3.3,3.4-5.6,0-1.2-.2-2.4-.8-3.5-.5-.9-1.1-1.6-1.9-2.1-.3-.2-.7-.4-1.1-.5-1-.3-2.2-.3-3.5,0-6.2,1.7-6.5,13.4,1.8,12.2.8-.1,1.5-.3,2.1-.6Z"/>
  <path d="M163.6,791.3c.2.2.5.3.8.3,1.6.4,5.4-8.2,5.4-8.7,0-.1,0-.2-.2-.4-.2-.5-1.1-1-1.7-1.6-.2-.2-.3-.4-.4-.6-.7-1.7-1-4.9-1.9-5.9,0,0,0,0,0,0,0,0,0,0,0,0-.7-.7-4.3-1.7-4.9-1.3-.9,3.6-.7,16.2,3,18.3Z"/>
  <path d="M440,1178.3h0c1.6.6,3.3,1,5,1.4-.2-1.9-.5-3.3-.7-4.1-2.4-.6-3.6.8-4.3,2.7Z"/>
  <path d="M809.2,936.5l-.4.2c0-.1.1-.2.2-.4l-4.8,1.9.9-4.8h0c0,0,0,0-.1,0h0c-2.3.4-5.6-1.6-7.5-1.2-1.3.2-1,4.8-5.8,2.1l2,5.6-4,3.7s0,0,.1,0h0c3.8,2.2,4.1-1.7,6.1-2.5,1.1-.5,3.1.8,4.6.5,2.8-.6,7.6-2.4,8.8-5.1Z"/>
  <path d="M1172,779.2c.3,0,.6-.2.9-.3.8-2.6,1.6-5.2,2.4-7.8-2.6,2.3-4.4,5.7-3.3,8.1Z"/>
  <path d="M1172,779.3s0,0,0-.1c0,0,0,0,0,0h0Z"/>
  <path d="M24.4,770h0c.8,2.9,1.7,5.8,2.6,8.6.7,0,1.4.3,2.1.6,1.4-2.8-1.4-7-4.7-9.2Z"/>
  <path d="M311.9,889c1.5.8,3.4,1.2,5.3,1.2,3.2-.1,6.2-1.6,6.7-4.9,1.5-9.7-15-4.3-12,3.7Z"/>
  <path d="M877.1,885.3c.5,3.3,3.6,4.8,6.8,4.9,1.9,0,3.8-.3,5.3-1.2,1.9-5-3.9-9-8.1-8.9-2.6,0-4.6,1.5-4,5.2Z"/>
  <path d="M944.2,756.2c0,0-.2,0-.2.1-.8.4-1.5,1-2.1,1.7-1.6,1.9-2.5,4.6-1.8,6.8h0c.6,1.4,1.7,1.9,3.1,1.9,3.4,0,8.2-3.7,8.7-5.7h0c.8-2.8-2.8-5.5-5.7-5.4-.2,0-.5,0-.7,0-.4,0-.8.2-1.2.4,0,0,0,0-.1,0Z"/>
  <path d="M484.4,1099.1l-4-.3h0c-1.4,2.6-2.2,5-2.2,7.3,0,2.9,1.4,5.6,4.6,7.9h0c1.9-1.6,3-3.8,3.4-6.1.1-.7.2-1.3.2-2,0-2.4-.7-4.8-2-6.8Z"/>
  <path d="M720.6,1098.8c-3.8-2.3-6,2.5-5.9,7.4,0,3.3,1.1,6.7,3.5,7.8,5.1-1.8,5.8-13.2,2.4-15.2Z"/>
  <path d="M62,765.4c.2,3.9,16-.4,18.5-2.1,0,0,0,0,0,0,.6-.4.8-.7.8-1,.2-1.7-6.1-2.7-8.3-2.4-3.2.5-8.1,2.4-10.5,4.9-.2.2-.3.3-.4.5,0,0,0,0,0,0h0s0,0,0,0Z"/>
  <path d="M1139,765.4h0c-3.2-3.6-11.2-6.5-15.7-5.5h0c-1.5.3-2.8,1.1-3.8,2.3,0,0,0,0,0,0,0,0,0,0,0,0,0,1.6,17.2,7.5,19.5,3.1Z"/>
  <path d="M263.1,740.9c3.9-3.2,3.1-10.8-2.9-9.5-6.5,1.4-6,16.8,2.9,9.5Z"/>
  <path d="M608.6,952.4h0c-.3-.6-.5-1.1-.8-1.4-2-2.5-4.7-.4-7.6-.4s-5.8-2.5-7.4,1.1c-.4,1,1.9,3.8.8,5.9,0,0,.1-.1.2-.2,0,.2-.2.4-.3.5,6.2-4.5,8.2-4.5,14.4,0l.8-5.6Z"/>
  <path d="M663.8,924.2h0c.1-.4.2-.6.2-.9.1-1.5-1.9-2.2-2.4-2.8-.2-.3-1.3-1.8-2.6-3.6-1.4-1.9-3.1-4-4.5-5.3-1.1-1-2-1.5-2.5-.9h0c-.2.4-.3.9-.3,1.6-.1,5.7,9.3,18.1,12.2,11.9Z"/>
  <path d="M408.8,799h0s0,0,0,0c-4.6,1.6-9.7,5.1-4.5,9.5,4.9,2,8.8-.4,8.7-5.7l-4.1-3.8Z"/>
  <path d="M732,1015.5s0,0,0,0c0,0,0,0,0,0,.2-1.7-.4-3.2-1-4.7-.6-1.6-8.3-14.4-10.9-14-.2,0-.4,0-.5.2-.3,8.1,6.7,13.7,12.3,18.5Z"/>
  <path d="M469,1015.5c5.6-4.7,12.6-10.4,12.3-18.5-.1-.1-.3-.2-.4-.2-2.6-.3-10.3,12.4-10.9,14-.6,1.5-1.2,3-1,4.7Z"/>
  <path d="M830.6,948.7c.4-1.9,2-4.7,1.7-6.5,0-1.1-.7-1.9-2.6-1.9-.3,1.9-1,5.1-2.5,6.3-1.2,1-2.7-.4-3.4,0-.5.3-.5,1.9-2,2.7-1.6.9-4.6,1-6.5,1.3,0,0,0,.2,0,.4-.1,1.3,2.7,8.9,3.4,9.8.4.5,2.8,2,2.9.5,0-.2,0-.5,0-.9-.4-1.4-3.2-5.9-3.3-7.9,0-.2,0-.4.2-.6l12.2-3.2Z"/>
  <path d="M380.1,962.1c2.9,0,6.3-10.6,5.7-11.3,0,0,0,0,0,0,0,0,0,0,0,0-1.9-.4-4.9-.5-6.5-1.3-1.5-.8-1.5-2.4-2-2.7-.6-.4-2.2,1-3.4,0-1.5-1.2-2.1-4.4-2.5-6.3l-2.8,1.5h0c0,0,0,0,0,0l2,6.6,12.2,3.2-2.6,10.2s0,0,0,0h0Z"/>
  <path d="M437.1,1126.4c-.2,0-.4,0-.5,0-2.2-.3-1.1,1-1.8,2.3-.9,2-6.9,18.3-2.3,18.3,2.4-3.8,3.7-8.1,4.3-12.6.4-2.7.4-5.3.3-7.9Z"/>
  <path d="M588.9,1108.8c-.2-.5-.6-1-1-1.6-.9-1.1-5.8-2.8-7.3-2.3-1.7,2.5-1.9,4.4-1.4,5.8.2.4.4.8.7,1.1.3.3.6.6,1,.8.4.2.8.4,1.2.6.6.2,1.3.4,2,.4,2.5.2,5.1-.8,5.3-2.9,0-.6,0-1.2-.4-2Z"/>
  <path d="M613.1,1107.2c-.5.6-.8,1.1-1,1.6-.4.7-.5,1.4-.4,2,.2,2.1,2.8,3.1,5.3,2.9.7,0,1.4-.2,2-.4s.8-.3,1.2-.6c.4-.2.7-.5,1-.8.3-.3.5-.7.7-1.1.6-1.4.3-3.4-1.4-5.8-1.5-.5-6.4,1.2-7.3,2.3Z"/>
  <path d="M1141.1,790.5c-.7,2.5-.1,14.9,3.8,14.8.4,0,.8-.1,1.3-.5,2.9-1.8.8-14.3-5.1-14.3Z"/>
  <path d="M56.4,805.1c.4,0,.8-.2,1.3-.4,2.8-1.6,2.3-11.1,2.2-14.2-3.1,1.2-5.6,3.2-6.1,6.8-.4,2.5,0,8,2.6,7.8Z"/>
  <path d="M1153.4,759.1c-.4,0-.7,0-1,.1-.5,0-1,.2-1.4.4-.2,0-.5.2-.7.3-.2,0-.3.2-.5.3-2.2,1.5-2.6,4.4-2.6,7.8,0,.3,0,.6,0,.9,5,1,8.7-1.3,8.7-4.7,0-1.5-.8-3.3-2.5-5.1Z"/>
  <path d="M990.8,892.4c-.4-1.5-1-3.1-1.3-4.3-.5-.7-3.6-.7-4.1-.5-.3.1-.7.4-1,.7-1.5,1.3-2.8,4-2.5,5.4.1.6,4.2,3.4,6.8,3.4.4,0,.8,0,1.2-.3,0,0,.1,0,.2-.1.2-.1.3-.3.5-.5,0-.1.1-.2.2-.4.1-.3.2-.6.3-1.1h0c0-.7,0-1.5-.3-2.4Z"/>
  <path d="M256.3,1027.3c1.3,2.4,3.7,3.5,6.2,3.6,3.6,0,7.2-2.1,7.1-6.2-.6-.1-1.2-.2-1.7-.3-4.1-.5-8.3-.4-11.6,2.9Z"/>
  <path d="M494.7,1179.3c-.2-.3-.4-.7-.7-1-.3-.3-.7-.6-1.1-.9s-1-.6-1.6-.9c0,0,0,0,0,0-.7-.3-1.3-.5-1.8-.4-1.6,0-2.5,1.5-2.9,3.6,0,0,0,0,0,0-.4,2,.1,3.3,1.1,4.1.3.3.7.5,1.1.7.6.3,1.3.5,2.1.7,1.2.3,2.6.5,3.9.8,0-.6,0-1.2.1-1.7,0-.8.2-1.5.2-2.2,0-.4,0-.8,0-1.2,0-.6-.2-1.1-.4-1.6Z"/>
  <path d="M37.6,809.5c.1.4.3.8.4,1.2,0,0,.2,0,.3-.2,0-.5-.3-.8-.7-1Z"/>
  <path d="M616.9,879.9c.5-.7.6-1.9.6-3.3,0-.2,0-.4,0-.6,0-.5,0-1-.2-1.5,0-.6-.2-1.3-.4-1.9,0-.3-.1-.5-.2-.8-.2-.7-.5-1.3-.8-1.9-.1-.3-.3-.5-.4-.8-.8-1.3-1.9-2-3.2-1.6-1.3.4-1.8,1.8-1.7,3.5.1,3.8,3,9.1,6.3,8.8Z"/>
  <path d="M583.6,878.5c0,.3.1.5.2.8s.2.4.3.6c3.4.3,6.2-5,6.3-8.8,0-1.7-.5-3.1-1.7-3.5-.3,0-.5-.1-.8-.1s-.5,0-.7.1c-.2,0-.4.2-.7.4-.4.3-.8.8-1.2,1.3,0,.1-.2.3-.3.4-.8,1.5-1.4,3.4-1.6,5.3,0,.2,0,.4,0,.6,0,.7,0,1.4,0,2.1,0,.3,0,.6.1.9Z"/>
  <path d="M408.9,1002.4c-.3-.5-.5-1.1-.7-1.6-.1-.4-.3-.8-.4-1.1-.2-.6-.3-1.1-.4-1.7-5.2,1-3.5,8,0,11.4,1.2,1.1,2.6,1.9,4.1,1.9l.9-6c-1.2-.3-2.1-1-2.8-1.9-.2-.3-.4-.6-.6-1Z"/>
  <path d="M795.2,997.9h0c-1.7-.7-3.2,4.7-4.2,6.2-.4.6-1.6.9-2.3,1.2h0c0,0,0,0,0,.1l.9,6c.5.6,4.2-1.8,4.8-2.4h0c1.3-1.4,2.5-4.4,2.5-7,0-1.6-.5-3.1-1.7-4.1Z"/>
  <path d="M257.3,1050.4c-.4,1.8,1,4.1,2.8,5.7,1.6,1.4,3.6,2.4,5.3,2.3.3,0,.5,0,.8-.1.5-.1.9-.4,1.3-.8,3.2-3.6-6.5-9.1-10.2-7.1Z"/>
  <path d="M934,1053.5c-1.7,3.3-.2,4.7,2,4.6,3.3,0,8.3-3.2,7.8-7.7-3-.4-8.3,0-9.8,3.1Z"/>
  <path d="M860.2,1110.1c-2.3.7-3.5,2.6-3.6,4.6,0,2,1,3.9,3.4,4.6,2.4,0,4.6-3.6,4.6-6.3,0-2.1-1.1-3.8-4.4-2.9Z"/>
  <path d="M339.2,1109.8c-.4,0-.8,0-1.2.2-3.8,1.2-.4,9.3,3.2,9.2.3,0,.5,0,.8-.1l2.6-5.4c-1.1-1.9-3-4-5.4-3.9Z"/>
  <path d="M96.8,649.1l-2.1-5.3c-5-1.1-6.8.6-6.8,2.7,0,3.4,4.9,7.9,8.9,2.6Z"/>
  <path d="M723,975.2c-.2.1-.3.3-.4.5-1.8,3,1.6,10,4.8,12.9.6.5,1.1.9,1.6,1.1,1-5.7-2.8-10.2-4.1-15.4-.8,0-1.4.4-1.9.8Z"/>
  <path d="M472.1,989.8s0,0,0,0c3.7-1,9.5-13.6,5.6-15.4-1.8-.8-1.9,1.6-2.4,2.7h0c-1.9,4-3.9,8.2-3.3,12.7,0,0,0,0,0,0Z"/>
  <path d="M555.3,889.1h0s0,0,0,0c5.2-1.4,5.4-7.8,5.1-12.3,0,0,0,0,0,0-3.8-1.3-6,4.8-6,8.9,0,1.6.3,2.9.9,3.4Z"/>
  <path d="M178.1,805.9c1.3-.2,2.8,0,4.1,0v-7.2c-4.4-1.1-4.9,4-4.1,7.2h0,0s0,0,0,0c-2.3.3-5.8-.7-4.7,3.1.9,3.4,5.4,5.7,8.8,5.1h0c.2-.5.3-1,.3-1.4,0-3.1-3.9-4.8-4.4-6.8Z"/>
  <path d="M1107.2,791h0c0-.1,0-.2,0-.3,0-3.2-10.9-2.7-12.7-2.1h0c-.8.2-1.2.9-1.7,1.4,0,0,0,0,0,0,1.7,2.9,13.8,3.9,14.4,1Z"/>
  <path d="M477,791.4h.1c1-2.4,1.7-6.7-1.2-7.8,0,0,0,0,0,0h.1c-.3-.1-.6-.2-.9-.2-1.9-.5-3.5.3-4.7,2l1.8,6h4.8Z"/>
  <path d="M93.6,790.1c.2,2.3,12.2,4.4,14.7-.1,0-.4-.4-.7-1-1-.3-.1-.7-.2-1.1-.3-.1,0-.3,0-.4,0-.6-.1-1.3-.2-2-.2-.2,0-.4,0-.5,0-.7,0-1.5,0-2.2,0-.2,0-.4,0-.5,0-.7,0-1.4,0-2.1,0-1.3,0-2.3.2-2.7.3-1.5.5-2.1,1-2,1.5Z"/>
  <path d="M724,791.5h4.8c0-.1,2.1-5.4,2.1-5.4,0,0,0,0,0,0h0q0,0,0,0c-3.5-5-7.8-2.5-7.8,1.7,0,1.2.2,2.5.9,3.8Z"/>
  <path d="M308,589.2h0c1.1.3,1.9,0,2.6-.5,2.1-1.7,2.5-6.7,2.1-8.8l-5.3.6h0s0,0,0,0h-.2c-.9,2.8-2.1,6.5.6,8.6Z"/>
  <path d="M753.1,913.8c.3,5,5.6,5.5,9.8,5.1-1.2-4.8-5.5-10.3-9.8-5.1Z"/>
  <path d="M894.3,587.5h0c0,0,0,0,0,0,0,0-1-7.4-1-7.5h-5c-.4,2,0,5.2,1,7.3,1,2.1,2.7,3,5,.3Z"/>
  <path d="M886.2,847c-5.8,0-8.2,3.6-7.2,9.2,4.1,0,7.2-3.5,7.3-7.5,0-.6,0-1.1-.1-1.7Z"/>
  <path d="M322,856.2c1-5.6-1.4-9.2-7.2-9.2-.1.6-.2,1.1-.1,1.7,0,4,3.2,7.6,7.3,7.5Z"/>
  <path d="M386.7,734.3c0,0,0-.2,0-.3l-6.9.2c-.5,1.5-.6,2.8-.5,3.8.4,5.4,7.8,3.7,7.5-3.7Z"/>
  <path d="M759.4,1151h0c-.2,0-.3.2-.4.3-2.4,1.9-.7,12.3-1.2,15.2h3s0,0,0,0h.2c-.7-5.7,2.6-10.6-1.5-15.4Z"/>
  <path d="M441.3,1151h-.1c-3.1,5.3-.6,9.6-1,15.4h0s0,0,0,0h3s0,0,0,0h.1c-.8-4.6,2.1-12.3-2-15.4Z"/>
  <path d="M668.1,913.5c.2-.1.3-.3.4-.4,2-2.3-.7-7.2-5.3-5-2,.9-2.8,2-2.9,3-.2,2.6,4.6,4.7,7.8,2.4Z"/>
  <path d="M692.6,1002c1.9-.3,3.3-.7,3.5-.9,1.3-1.6.4-2.9-1.4-3.6-.4-.2-1-.3-1.5-.4-.2,0-.4,0-.5,0-.4,0-.8,0-1.1,0-.2,0-.4,0-.6,0-1.8.1-3.6.6-4.8,1.8-.3.2-.5.5-.8.8s-.4.6-.6,1c.4,1.2,2,1.6,3.9,1.7,1.3,0,2.7,0,3.9-.3Z"/>
  <path d="M537.8,908.1c-2.5-1.2-4.4-.3-5.3,1.2-1,1.4-1,3.3.4,4.3,3.2,2.3,8,.2,7.8-2.4,0-1-.8-2.2-2.9-3.1Z"/>
  <path d="M415.6,1117.1c-.2-.3-.5-.4-.8-.3-2.7.2-7.1,12.8-5.4,14.7.2,0,.4,0,.7-.2.2-.1.4-.3.6-.5.1,0,.2-.2.3-.3.3-.4.6-.8.9-1.3,0-.2.2-.3.3-.5.2-.4.4-.7.6-1.1,0-.2.2-.4.3-.6.2-.4.3-.8.5-1.3s.2-.4.2-.6c1-2.8,1.7-5.8,1.8-7.2,0-.1,0-.2,0-.3,0-.2,0-.3,0-.4,0,0,0,0,0-.1Z"/>
  <path d="M1157.5,799.7h0c.4.5,4.6,1.4,8,1.2.5-1.3,1-2.7,1.4-4.1-3.9-.6-10.1-.7-9.4,2.9Z"/>
  <path d="M852.1,841.1s0,0,0,0c0,0,0,0,0,0h0Z"/>
  <path d="M33.1,797c.4,1.3.9,2.5,1.3,3.8,3.5.5,8.7-.5,9.1-1.1.7-3.9-6.7-3.5-10.4-2.7Z"/>
  <path d="M975.6,743.3c.5-1.1.7-2,.7-2.8,0-3.4-4.1-4.4-7.9-5.5-.1.6-.2,1.3-.2,1.8,0,4,3.3,6.3,7.4,6.5Z"/>
  <path d="M709.8,1115.9l.8-4.8h-.1c0,0-.1-.2-.1-.2-5.4.7-7.9,6.4-6.1,11.3h0s0,0,0,0l5.4-6.4Z"/>
  <path d="M232.6,735.1c-4.6,1.4-9.7,2.5-7.2,8.2,4.7-.2,8.3-3.2,7.2-8.2Z"/>
  <path d="M495.4,1113.3c-.5-.6-4.3-2.9-4.8-2.3h0c0,.1,0,.3,0,.4-.4,3.4,1.8,6.2,3.6,8.9.4.6.7,3.7,2.5,2h0c.5-.4.7-1.3.7-2.4,0-2.3-1.1-5.5-2-6.6Z"/>
  <path d="M213,691.9c.2,0,.4,0,.6,0,2.5-1.1,3.6-5.8,2.2-8.1-.3-.5-.7-.9-1.3-1.1h-3.4s0,0,0,.1h0c0,1.6-.9,9,2,9.1Z"/>
  <path d="M951,917.9l5.7-2c4.1-6-10.7-8.9-5.7,2Z"/>
  <path d="M110.3,935.3s0,0,0,0c0,0,0,0,0,0,0,0,0,.1,0,.2,0,.1,0,.2,0,.3,0,0,0,0,0,0,0,.3.1.6.2.9,0,0,0,0,0,0,0,.1,0,.2.1.4.4.9.9,1.6,1.1,2.5,0,.1,0,.2,0,.3,0,0,0,0,0,0,.1.7,0,1.5-.6,2.4h0s0,0,0,.1l4.7.8,1.5-3.9h0,0c0-.1-3.9-.1-3.9-.1l4.9-2.5s0,0,0,0h0c-2.3-3.1-5-1.7-8.2-1.5Z"/>
  <path d="M1082.5,936.8h0c0,.1,5.1,2.7,5.1,2.7h-4.1l1,3.6,5.2-.6c-1.9-2.9.9-4.3,1-7.1,0,0,0,0,0,0,0,0,0,0,0,0-3.2-.2-5.9-1.6-8.2,1.5Z"/>
  <path d="M987.4,691.9h0s0,0,0,0c.2,0,.4,0,.6,0,2.9-.2,1.9-7.7,1.9-9.2h-3.5c-3,1.1-2.1,7.8.9,9.2Z"/>
  <path d="M294.8,676.4c1.1.6,2.6.5,4.2-.8,2.1-1.7,2-4,.8-5.3-1.2-1.3-3.3-1.7-5.3.3-2.1,2.1-1.5,4.8.3,5.8Z"/>
  <path d="M615.9,1055.5c.2-2.8-.5-4.5-1.5-5.4-.3-.2-.5-.4-.8-.5-.4-.2-.9-.3-1.4-.3-.3,0-.6,0-1,.1-.5.1-.9.3-1.3.5-.3.2-.5.3-.8.5-.3.3-.6.6-.8,1-.1.2-.2.5-.3.8,0,.4,0,.8.2,1.2.1.3.3.5.6.8s.6.5,1,.8c1.7,1,4.3.4,6.2.5Z"/>
  <path d="M850.2,966.1c-3.4-.3-5.7,2.3-5.8,5.2,0,.7.1,1.5.4,2.2,0,.2.2.5.4.7h3.8c1-1.8,1.5-3.2,1.6-4.9,0-1,0-2-.4-3.2Z"/>
  <path d="M592.8,1051.5c-.2-.4-.5-.7-.8-1-.2-.2-.5-.4-.8-.5-.4-.2-.9-.4-1.3-.5-.3,0-.6-.1-1-.1-.5,0-1,0-1.4.3-.3.1-.6.3-.8.5-1,.9-1.7,2.6-1.5,5.4,1.9,0,4.5.5,6.2-.5.4-.2.7-.5,1-.8s.4-.5.6-.8c.2-.4.2-.8.2-1.2,0-.3-.1-.5-.3-.8Z"/>
  <path d="M273.1,853.2c0-.2.2-.5.2-.7.3-1,.4-2.2.4-3.5,0-.3,0-.7,0-1-3.8,1-8.2,3.7-7.2,8.2,2.4.2,4,0,5-.9.7-.5,1.2-1.2,1.5-2.1Z"/>
  <path d="M894.4,862.4h-6.1l-.6,5.2h0c0,.1,3.1,1.7,3.1,1.7,3.1-.6,3.7-2.5,3.7-5,0-.6,0-1.2-.1-1.9Z"/>
  <path d="M710.5,953.8c.8-1.5-3.1-12.6-5.5-12.7-.2,0-.5,0-.7.4-.5,4.8,1.9,9.8,6.2,12.3Z"/>
  <path d="M800.9,656.7h0c0-.1,1.6-2.7,1.6-2.7,0-.1,0-.2,0-.4.4-4.3-3.6-3.7-6.7-2.7h0c-.1.4-.2.9-.2,1.3-.1,2.9,2,5.2,5.3,4.5Z"/>
  <path d="M879.9,918.6s0,0,0,0c0-.4-.2-.7-.4-1-.2-.3-.6-.6-1.1-.7,0,0,0,0,0,0-3.8.7-4.3,5.3-5.6,8.2,0,0,0,0,0,0h0c3.4,2.5,7.4-3.3,7-6.5Z"/>
  <path d="M321.3,920.7c0,.3.2.6.3.9.3.8.8,1.5,1.3,2.1.5.6,1.2,1.2,1.8,1.5.3.1.5.2.8.3.3,0,.5.1.8,0,.4,0,.8-.1,1.2-.3.1,0,.3-.2.4-.3-1.3-2.9-1.8-7.5-5.6-8.2-1.5.3-1.7,2-1.2,3.8Z"/>
  <path d="M158.2,989.9c-1.3.4-1.8,1.4-1.8,2.6,0,.4.1.8.3,1.3,4.8,3.7,7.2,1.6,7.2-.8,0-2-1.8-4.4-5.7-3.1Z"/>
  <path d="M1038.5,990.3c-1.6.8-2.2,2.7.3,5.7l5.5-2.2s0,0,0,0h0c2-3.5-3.4-5-5.9-3.5Z"/>
  <path d="M685.8,1107.9c-.6,0-1.2-.1-1.7,0-6.2.3-4.8,7.5-1.7,7.4.8,0,1.6-.5,2.5-1.6,1.3-1.7,1-3.8.9-5.7Z"/>
  <path d="M473.1,997.4s0,0,0,0c0,0,0,0,0,0h0Z"/>
  <path d="M499.7,995c-.5-.2-.9-.2-1.3-.2,0,0-.1,0-.2,0,0,0-.1,0-.2,0-3.5.7-3.2,8.2-.8,9.3.2,0,.3.1.5.1,0,0,0,0,0,0,0,0,0,0,.1,0,2.1-.4,2.1-8.4,1.8-9.3Z"/>
  <path d="M682.5,1021.3c1,0,2.2-.2,3.4-.7l-2.2-5s0,0,0,0h0c0,0-.1,0-.2,0-.9,0-1.6,0-2.3.2-.2,0-.4,0-.5.1,0,0,0,0,0,0-5,1.2-3,5.6,1.9,5.4Z"/>
  <path d="M515.2,1020.6c1.1.5,2.2.7,3.2.7,5.1.2,7.5-4.8.3-5.8-.3,0-.6,0-.9-.1l-2.6,5.2h0s0,0,0,0Z"/>
  <path d="M701.2,995.4l1,8.7s0,0,0,0h0c2.8,2.1,4.6-6.6,2.1-8.7-.7-.7-1.7-.8-3.2,0Z"/>
  <path d="M164.9,807.4h-.1c.9-1.3.5-2-.3-2.2-1.4-.4-4.4.5-5.6,2.1-.9,1.3-1.3,4.1-1.3,5.8h-.1c.3,0,.6-.2.9-.4,2.3-1.2,5.2-3.3,6.5-5.3Z"/>
  <path d="M687.6,1121.4c-1.9,1.3-2.5,2.5-2.3,3.4,0,0,0,0,0,0,0,.1,0,.2,0,.3,1.2,3.1,10.3,3.3,4.6-3.4l-2.4-.4Z"/>
  <path d="M536.2,832.8c.1,0,.3,0,.4,0,.7-.2,1.7-1.2,2.5-2.5.3-.4.5-.9.8-1.4,0-.2.2-.3.2-.5.2-.5.4-1,.5-1.5.6-2,.4-3.9-1.2-4.6-1.6,0-4.2,8.3-3.6,10.2,0,.1.2.2.4.2Z"/>
  <path d="M484.7,731.8c.7.5,1.7.6,3.2,0,2.7-1,2.7-4,1.1-5.4-.7-.7-1.8-1.1-3-.7-2.3.7-3.4,4.8-1.3,6Z"/>
  <path d="M149.4,753.5c3.4.3,3.5-3.6,2.9-6l-6-2.2,3.1,8.2Z"/>
  <path d="M1050.2,753.5c.3.2.6.2.8.2.9,0,.9-1.6,1.2-2.2.6-1.1,3.2-5.6,2.6-6.2h0s0,0,0,0l-6,2.2c-.6,1.7-.4,5.1,1.4,6Z"/>
  <path d="M488.5,1024.7c1.3,1.3,8.1-6.5,8.8-8.1h.1c.7-1.6,1-2.6-1.1-2.2,0,0,0,0,0,0,0,0,0,0,0,0h0c-1.2,1.2-2.3,2.5-3.5,3.9l-.6-3.1c-1.3-.5-3.7-.6-4.6-1.4-1.3-1.2-.2-3.6-1.8-3.6,0,0-.2,0-.3,0l-.6,5.2c3.4.2,3.2,3.3,6.3,3.2.4,0,.9,0,1.5-.2h0c-1.5,1.7-3.9,3.9-4.1,6.2Z"/>
  <path d="M431.1,638.3l3.8-1c1.4-7.4-4.4-7.1-5.2-3.5-.3,1.2,0,2.7,1.4,4.5Z"/>
  <path d="M443.8,892.2s0,0,0,0c4.5-1,3.8-4.8,2.5-8.2-.3-.1-.6-.1-.8,0-1.7.2-2.2,3.3-2.6,4.5-.5,1.8-1.7,2.1.7,3.8,0,0,0,0,.1,0Z"/>
  <path d="M756,883.6c-2.2-.2-4.2,8.5,1.2,8.6,3.4-2.3-1.1-5.2-.5-8.2-.2-.2-.5-.4-.7-.4Z"/>
  <path d="M918.1,889.1c1.3,2,5,3.5,7.3,3.5,2,0,3-1.2.3-4.4l-7.6.9Z"/>
  <path d="M27.2,641.4c0-.5,1.4-2.8.9-3.9-6,.2-6,3.3-3.5,5.1,1.3.9,3.3,1.5,5.6,1.1,0,0,0,0,0,0,0,0,0,0,0,0,0-1.6-2.7-1.7-3-2.2Z"/>
  <path d="M479.8,844.9c1.3,0,4.3-7.9,1-9.2-2.5,2.2-4.1,6.7-1,9.2Z"/>
  <path d="M1173,637.5c-.5,1.1.9,3.4.9,3.9-.3.5-3,.6-3,2.2,0,0,0,0,0,0,0,0,0,0,0,0,4.2.7,6.9-.6,7.2-5.1h0c0-.1-5.1-1.1-5.1-1.1Z"/>
</svg>