<?xml version="1.0" encoding="UTF-8"?>
<svg id="Layer_1" xmlns="http://www.w3.org/2000/svg" version="1.1" viewBox="0 0 1200 1200">
  <!-- Generator: Adobe Illustrator 29.0.0, SVG Export Plug-In . SVG Version: 2.1.0 Build 186)  -->
  <path d="M186.4,1034.6c7.7,7.3,15.6,14.5,23.7,21.4l-7.1-23.8c-3.9,1.1-9.6,1.9-16.5,2.4Z"/>
  <path d="M139.4,917.8l-13.8-10.8,30.2-.2-10.8,10.9c92.3,1.1,186.6-8.2,277.7,2.8l5.3-10.8,73.9,10.6-11.1-24.6,8.1-8.3-207.7,1.5-6,11.1c-56-11.3-147.7-16.2-210.8-10.9,6,11,12.4,21.7,19.1,32.3,15.2-3,32-7.1,46-3.7Z"/>
  <path d="M944.3,983.5c-5.2,2-8,19-13.6,15.8,4.3-21.3-59.7-18.8-65.3-15.2l-8.9,21.3-8.4-13.8,10.9-8.2c-20.4,2.8-32.7-4.8-41,16.6l-2.9-16.3-277.3,4.9c-22.9-12.8-43.9-4.8-68.6-5.4-20-.5-40.3-1.8-60.5-1.7l-2.6,11c-4.7-14.8-11.8-12.2-26.8-10.9l-6.2,11.2-6.4-11.1c-30.6,3.8-69.2-3.7-98.5.4-10.9,1.6-6.8,11.9-10.5,11.7-12.3-.5-22-24-38.4,0-6.5-21.4-39.6-7-59.7-10.6l-6.2,11.2c-2.6-6.4-7.9-9.3-14.6-10.4,9.2,11,18.7,21.6,28.6,31.9l106.1-.9,14.4-16.3-2.5,16.5c90.6-2.3,181.3-5.9,271.7,3.3-2.5-18.3-1.2-22.2,16.2-27.6l-5.2,27.4,24.6-11.1-2.7,11c92.4-3.2,184.9-1.6,277.6-2,19.1,0,62.4-11.9,65.6,4.9h10.9c18.5-32,19.5-5.3,25.8-1.6,5,2.9,31,1.8,57.8.5,9.5-9.7,18.7-19.7,27.6-30-16.3-.2-32.9-.3-50.6-.3-11.6,0-57.9-7.5-60.8-6.4Z"/>
  <path d="M992.7,847.9c-40.8-.3-110.8-14.9-153.6-6.7-8.2,1.6-17.9,12-19.3,10.8-.7-.5,1.5-9.4-3.6-10.8-5.1-1.4-44.3,4.3-54.4,3.2-9.6-1-14.5-10.1-24.7-8.1l-2.6,11-10.7-11.5-354.6,3.4,2.8,11c-12.4-3.3-18.7-9.6-32.8-10.9-69.7-6.5-145.4,6.3-214.5,7.6-22.2.4-49.5-7.8-74.8-6.6,5.1,11.6,10.5,22.9,16.2,34.1,1.2.2,2.5.4,3.9.5,103.6,10.7,249.9-6,357.3-7.3,14.8-.2,73,8.1,79.5,3.5l-2.9-27.4c21.2-.5,5.4,24.5,8.4,27.4,52,1.6,103.7-1.9,155.5-4.6,14.3-.8,33.4,14.1,39.2-7.9,14.9,17.1,32,6.7,47.8,8.2,62.3,6.2,124.2,10.1,187.6,6.6l19.9-22.3-5.3,21.9c30-16.2,74.1,25,90.6-6.2h5.4s-2.7,11-2.7,11l27.5-.2-5.3-10.6,16.1-6,.2,16.5c15.7-5,29.8-3.9,44.4-2.4,5.7-11,11.1-22.3,16.1-33.7-49.6-1-110,6.9-156.8,6.6Z"/>
  <path d="M1154.1,797.4c-10.8-4.8-119.8-1.5-140.2-1.9-84.4-1.7-172.5-6.9-258.1-3.4-18.3.7-33.3,11.5-51.5,1.2l-3.1,10.5c-15.4-32.2-31.5,6.3-51.8,5.6,2.7-29.7-12.4-10.1-30.6-10.5-17.7-.4-47.5-17.7-54.8,5.9-53.2-22.6-117.7-9.4-176.4-15.6l-10.4,11.5c-41.3-19.3-130.7-10-181.6-9.8-18.8,0-20.2,1.4-43.3.3-38.3-1.8-81,3.7-120.7,1.7,3.9,11.5,8.2,22.9,12.8,34.1,52.1-1,106-7,157.1-2.6l2.9-16.9,9.8,3.7c11.2-28.5,23,8.7,32.4,11.8,12.8,4.1,32.9-4.8,47.6-.4l19.8-26.9c4.4,58.1,33.5,10.3,46.8,10.5,5.1,0,1.2,13.7,16.5,16.5l109.1-.8,11.7-22.3.3,27.5,244.2-2-11-10.8c23.3-5.3,23.7,18.7,49.5,10.5-16.8-24.3,25.6-30.1,11,0l124-.5,18.7-11.5v13.7c0,0,16.5,2.6,16.5,2.6l8.1-22,2.9,22c20.5-4.3,132.1,3.6,141.8-2.5,2.6-1.6-1.5-10.5,3.6-9.7,5.2-.2-.2,9.3,6.5,11,12.1,3.1,25.2,4.6,38.9,5.2,3.7-8.8,7.2-17.7,10.5-26.6-3-3.5-5.9-7.5-9.4-9Z"/>
  <path d="M701.1,1127.4l8.3,16.4c-26.1-19.2-90.6-22.2-120.9-15.6-13.6,2.9-12.1,9.1-14.4,21.2l-15.5,1,5.3-21.9c-35.6-3-73.7,10.8-107.2-4.5-12,.8-2.5,35.3,6.4,37l46.1.8,2.6-16.5,10.8,14.6c100.2,3.6,201.1-3.1,301.4-3.1,18.3-7.4,36.1-15.6,53.5-24.7-58.7-5.5-116.6-8-176.3-4.7Z"/>
  <path d="M921.7,939.3c-26.1-.1-57.8-14.5-82.2,5.9-9.6-15.4-67.4-11.6-88.1-10.6-22.6,1.2-27.6.9-49.9,1-80.8.2-163.5,9-243.2-3.8l-5.7,21.9,46.7,16.5,156.6-1.7-5.6-16.4c50,29.3,111.7,7.9,167.4,15.4l2.8-16.8,7.9,10.7c15.5-.5,20.6-16.6,22.1-16.5,9.4.7,17.4,11.9,14.1,21.9l27.2-16.6c-1.8,15.5,10.8,6.3,23.4,10.9,4.1,1.5,4.1,10.3,8.1,10.8,21.3,2.6,88.4,1.3,103.3-11.8,3.2,9.5,26.2,14.1,44.1,12,8.8-11.1,17.1-22.4,25.1-34.1-59.7.2-119.3,1.5-174,1.3Z"/>
  <path d="M977.8,1048.4c-46.5-11.7-100.9-21.8-148.6-14.5-9.4,1.5-13.7,9.9-21.6,10.5-3.7.3,0-10.7-10.8-11.7-68.1-6-150.9,7.3-220.1,5.3-19.6-.6-41.6-12.7-71.5-8.1-12.9,2-22.5,12.9-32.2,11.8-3-.3-2.5-10.1-6.8-11.2-10.8-2.5-74.1-1.6-87.3.2-8,1.1-14.3,20.5-35.3,11.6l5.5-10.9-126.3,1,33.1,27.1c-8.1-.7-19.6,3-26.4-1.1-3-1.8,2.4-11.9-6.5-9.5l-4.6,14c1.3,1,2.5,2.1,3.8,3.1,15.7,1,65.2-.4,68.8-1.4,5.6-1.6.9-9.6,6.1-10.9,12.6-3,5.6,9.8,11.8,11.2,6.4,1.5,81.2-.9,84.7-3.4l13.1-19.6,3,22c16.2,5.7,10.6-19.7,24.5-16.6,19.5,4.3,1,9.3-2.5,16.4,29.7,4.1,63.2-4.7,91.2-4.3,40.1.6,99.8,13.6,137,8.5,12.9-1.8,2.7-14.1,15.9-11.6l-2.7,11c24.2.9,36.3,4.5,41-22.3,5.2,23.5,28,5,39,6.7,5.6.9,5.8,11.7,8.9,13.6,7.3,4.5,111-1.9,127.9-2.9,14.4-.9,28.4,12.5,32.9-8.1,5.3-.5.6,8,5.3,10,2.6,1,23,2.4,47.5,3.6,12.3-9.9,24.2-20.2,35.6-31-13.7-2.7-30.9-.5-44.6-5-28.9,4.5,38.2,9.1,11.1,16.6Z"/>
  <path d="M802.5,1077c-57.6-1.5-115.8,3.5-173.2,1.6,14.6,8.2,10.5,25.7,11.7,26.7,16.1,12.2,121.8,1,149.6,1.4,27.2.4,62.6,11.9,94.2,8.6,13.9-1.4,19.4-11.4,27.4-11.8,2.2-.1,1.7,3.6,3.3,6.9,9.8-6.1,19.3-12.4,28.7-19-3.4-2.8-6.7-6.2-12.5-7.7-19.8-5.2-101.8-6.1-129.2-6.8Z"/>
  <path d="M597.3,1180.4l-157.3-2c49.6,13.7,101.9,21.2,155.8,21.6-.7-6.3-2.5-14.1,1.6-19.6Z"/>
  <path d="M1058.7,897c-7.3-.2-16-8.2-27.4-8.6-24.7-.8-53.8,4-79.5,1.1l5.7,13.5-11,2.9-3.1-16.8c-19.9,2-40.6-1-60.4.5-10.7.8-18.6,9.6-21.7,9.7-3,0-16.7-13.1-32.9-14.6-44.7-4.2-103.4,5.3-148.3,5.8-26.2.3-79.5-10.7-103.7-3.9-6.5,1.8-2.1,21.5-14.1,22.4l-6.5-21.1-48.6-.3,11.3,32.8h10.9c0,0-5.6-21.9-5.6-21.9l21.9-.2.2,22,164.5-1.4v-16.5c17,16,63.9,28.6,74.2,4.9,10.2,24.9,55.1.8,79.3,15.3l3.1-10.5c5-.8,1.1,7.9,3.8,9.6,5.9,3.7,120,1.4,139.3.6,20.8-.9,47.7.3,62.7-11.7l-5.3,16.4c11.4-1.3,23.8-1.3,36.4-.9,6.4-9.8,12.4-19.8,18.2-30-21.2.9-42.3,1.5-63.3,1Z"/>
  <path d="M323.7,954.9l10.6,11.4,118.4-1.5-24.9-31.4c-13.2,16.4-19.7-3.9-37.9-1.2-3.9.6-2.3,16.7-16.9,11.4l2.7-11-27.5.2c1.9,17.1,2.2,20.9-13.6,27.6-4.4-12.6-22.6-13.7-13.9-27.3l-60.4.5,27.4,5.3-24.4,22.1c-18.9-46.2-75.8-20.9-114.8-26.7l-6.2,11.2c-1.6-13.4-26.5-14.6-36.7-5.3,6.5,9.4,13.2,18.5,20.1,27.5l176.3-1.3,21.6-11.4Z"/>
  <path d="M539.4,1101.7l16.1,10.4-2.8-16.4c14.9,24.9,44.5,12.9,71.4,15.8l-16.6-8.1,16.4-16.5c-7.9-19.2-79.9-2.5-96.7-2.5-23.3,0-109.8-16.5-120.5,7.1,5.7,35.2-14.2,13.8-7.9-11.1l-46.9,1-2.4,15.9c-15.9-25.4-50.9-23.1-68.6.4l-2.9-16.3h-36c16.8,12.7,34.4,24.3,52.5,35.1,75.6,4.4,175.6-5.6,244.8-14.8Z"/>
  <path d="M437.6,1124l-44,.4-2.6,11c-5.4.5-.9-8-5.4-9.9-11.5-4.7-43.7-1-73.5,1,21.1,11.6,42.9,21.9,65.5,30.9l60.2-.5-.3-33Z"/>
  <path d="M608.2,1177.5l5.8,13.2c-7.8,3.2-8.8,5.5-9.2,9.2,54.2-.4,106.7-8,156.6-21.9.2-.6.4-1.2.6-1.7l-153.7,1.2Z"/>
</svg>