<?xml version="1.0" encoding="UTF-8"?>
<svg id="Layer_1" xmlns="http://www.w3.org/2000/svg" version="1.1" viewBox="0 0 1200 1200">
  <!-- Generator: Adobe Illustrator 29.0.0, SVG Export Plug-In . SVG Version: 2.1.0 Build 186)  -->
  <path d="M339.3,1116.7l5.7,17,370.3,1.8.2-33-56.8-.5-8.7,18.8-14.3,3.3-7.7-19.6-216.7-4.1-6,11.4c-18.9-24.2-44-1.8-54.9-2.4-25.1-1.4-49.7-3.2-75-4.5,12.8,8.3,26,16.1,39.5,23.4,5.6-5.2,12.6-12.2,24.3-11.4Z"/>
  <path d="M960.4,1016.2l2.8-11c-20.8,4-56.8-11.4-63.3,10.6l-6.2-11.5c-39.7,6.2-86.9-5.8-125.9-.8-10.7,1.4-7.7,11.7-10.8,11.7-7.1,0-18.9-10.1-32.5-11.6-12.9-1.4-83.8-2.6-92.8-.2-5.7,1.5-1,10.7-6.3,10.8-12.4,2.8-6.3-7.5-9.3-9.6-16.6-11.9-131.5,8.6-160.4-2.9l-14.3,22.3v-22c.1,0-101.9-1-101.9-1-17.6,18.4-7.5,5.5-21.6,3.1-13.2-2.3-43.4-5.6-41.3,13.5l-18.8-17c-30.1,4.5-70.7-.8-106.6-2.4,11,12.4,22.5,24.3,34.5,35.7l55.5.3,21.8-16.8,7.9,13.8,241.9,4.1,2.7-11c5.5,19,43.9,6.5,63.1,11.4l2.7-11c5.1.4.6,9.3,6.1,10.9,4.2,1.2,76.7,1.8,80.9.8l6.3-11.1,6.2,11.2,65.1.3-2.6-16.5c2.5-2.8,11.9,11.6,16.4,13.7,22.5,10.4,172.1,4.3,252.2,1.9,10.3-9.8,20.3-19.9,29.9-30.4-28.6-1.6-57.5-3.9-81.7,10.6Z"/>
  <path d="M962.3,863.7c-9.5,2.8-13.1,16-23.1,15.3l-5.7-16.9-345.4-1.8-3.1,22.1c-15.5,3.7-14.7-12.2-10.8-22l-197.6-1.2,5.3,19.3-10.8,2.5v-21.9c.1,0-311.6,1.4-311.6,1.4,4.8,10,10,19.9,15.4,29.6l38.1.2-27.3-11.1c2.3-33.5,43.7,9,46.5,10,3.1,1.1,26.6,1.6,32.9,1.8,90,4,181.5-4,271.9,1.2-11.7-24.8,5.6-24.3,8.4.5,2.7.7,41.1-.5,43.8-1.4,2.8-.9,44.7-43,46.6-9.5h-24.7c0-.1,0,10.9,0,10.9l224.4,1.4,6.3-11.1,2.6,11c21.3-8.4,55.9,13.4,63.3-10.6l6.2,11.2,67.8.2-2.6-22c11.9-1.2,12.3,15.1,19.1,19.3,20.2,12.4,130-4.6,161.3,3.6l6.2-10.9,10.5,11.6h45.7c6-10.7,11.7-21.5,17.1-32.4-31.7-.6-63.4-1.4-95.4-1.4-16.5,0-72.1-1.7-81.1.9Z"/>
  <path d="M988.1,967c-10.4-31.9-30.1,10.3-46.7-.4l2.8-10.9c-49.7-1.8-99.1,3.3-148.3,4.6-9.7.2-54.9-6.8-60.5-5.1-2.4.7-3.8,19.8-13.6,10.1v-10.9c-19.4,21-28.4,2.3-43.9,1.7-78.6-3-164.8,8.4-244.7,1.5l-10.6,11.5-5.2-10-291.7,2.1-4.9-9.8c-2.1.4-4.2.8-6.3,1.1,7,9.6,14.2,19,21.8,28.1,40.7,1.7,83.9,7.1,124.2,3.8,1.6-10.9-14.1.8-10.9-13.7,3.9-17.5,24,7.4,25.5,7.8,24.1,6.6,123.9,10,147.6,7.3,11.7-1.4,8.8-9.4,16.4-16.8l5.6,16.9,24.4-.3-5.3-16.4c33.5,20.2,73.9,17.6,112.6,17.3,20.2-.2,34.8-.8,55.4-.5,126.9,1.9,254.2,0,380.9,2.9l2.8-16.6,19.2.3-5.6,16.3c7.6-1,19.1,1.8,27.1.6,9.2-10.7,18-21.8,26.4-33.2l-88.2-.6-6.3,11.1Z"/>
  <path d="M1125.9,813.8c-10.1,1.3-7.2,10.1-11.7,11.2-28.8,7-30.5-10.5-32.5-10.8-13.1-1.6-59-2.6-71.2-1.1-10.9,1.3-7.1,19.3-18.9,11.3-1.4-.9,13.1-13.9-2.6-11l-22.1,21.9-2.6-21.9h-200.5c0,.1-16.5,10.1-16.5,10.1l-21.7-12.1-22.1,16.8c-13-29.3-41.9-21-55,5.1l-2.6-21.8c-33.8,2.5-67.5,4.7-101.6,5.3-107.6,1.8-229.8-11.9-340.5-5.2-11.5.7-21.2,19.1-41-2.9l2.5,27.5-19.2-.2,11.1-27.3-118.8,3.2c3.4,9,7,18,10.9,26.8,39.7-.4,90.9,10.1,120.4,3.2,6.8-1.6,6-16.1,14.9-16.5l3,16.9,101.4.2,2.7-11,6,11.1,92.3,1c6.5-1.5,1-22.1,17.1-22.4,7.3-.1-1.9,46.8,21.9,11.1,7.7,10.3,21.2,10.3,33.1,11.1,43.1,2.7,90.7-1.6,134.4.9l-5.3-21.9c15.8,4.2,14.8,9.2,19.4,22.4l128.7.3,2.7-11c10.7,23.5,59.8,6.1,85,11.5l-21.9-16.5,32.9-5.3,8.1,22,.2-27.5,10.8,27.6,65.6.7,3.2-16.8,14.3,16.4c68.7-.6,137.9,1.6,206.8,1.3,5.1-11.2,9.8-22.6,14.2-34.1-16.7,0-30.9.1-35.2.7Z"/>
  <path d="M961.8,774.8l2.8-10.9-150.3,4.4-6.3,11.1c-5-21.5-19.8-7-33.8-7.8-16.8-.9-33.8-6.4-51.2-3.7l2.6,22-10.9-22.1-647.7-3.8,2.7,13.7-24.8,2.7,8.2-8.2c-2.6-6.1-14.8-8.7-30.8-9.4,3.2,11.5,6.8,22.8,10.7,34l659.5,4.2c138.2-1.3,284.7-9,417.2-2.9,11.9.5,37,1.3,56.4,1.2,4-11.3,7.6-22.7,10.9-34.2l-206.9-1.2-8.2,10.9Z"/>
  <path d="M235.7,940.8c71,.9,142.8-3.2,213.2-3.2,53,0,124.9,16.8,171.6-5.7l6,11.1c21.7,6.5,18-11.2,21.4-11l5.9,11.1c17.9-7.1,48.3,2.5,64.7.2,6.7-.9,4.2-20.4,22.7-16.2l3,15.9,55-7.3,5.3-24.6-126.3-.7,27.4,11.2c-6,14.1-20.3,16.9-32.5,10.1l-3.5-21.5c-16.5,1.7-33.2-7.8-38.1,10.9-38.7-21.8-104.6-11-148.8-6.9l-372.5-7.4h-26.1c6.4,10.6,13.1,21.1,20.1,31.3,44-2.9,87.6,2.2,131.5,2.8Z"/>
  <path d="M800.5,1147c-13.2.5-37.4-1.2-38.4,10.6-47.9-12.2-104-6.6-154.1-6.7-55.7,0-111.5,2.5-167.3-.7.6,14.1,3.6,20.6-11.2,24.6l330.4,3.5c27.9-7.7,55-17.4,81.1-28.8-13.9.2-27.7-3-40.6-2.5Z"/>
  <path d="M881.2,936.1l131.7,3.5v-13.8s24.7-2.5,24.7-2.5v16.6c0,0,56.6.4,56.6.4,6.7-9.7,13.1-19.6,19.2-29.7l-221.1,1c.8,14,3.3,20.4-11.1,24.6Z"/>
  <path d="M523.7,1195.2c25,3.2,50.5,4.8,76.3,4.8s51.9-1.7,77.1-4.9l-151.5-.5c-.9,0-1.5.3-1.9.6Z"/>
  <path d="M781.6,1075.5c10.1,5.1,13.3,11.2,14.4,11.4,6,.7,14-4.7,21.4-4.4,44.6,1.8,89.1,3.2,133.8,4.1,13.9-10,27.3-20.6,40.2-31.8l-215.1-1.3c-2.9,8.6,4.4,16.2,5.3,21.9Z"/>
  <path d="M460.4,1080.3c58.5-1.7,122.9,8.9,186.8,5.6l134.3.5c-.3-3.5.6-7.5,0-10.9-1.9-.9-7.8,1.6-10.4-.5l-.5-21.5-84.8-.9-5.9,16.9-5.7-16.9-150.8-.5,5.5,10.9c-18.2-5.3-31.2-1.8-47-1-3.1.2.2-9.4-10.2-10.8-18.4-2.3-41.2,2.6-60.4-.2-6.5,1.1,1.1,30-17,27.7l-16.7-27.9-139.4-.4-3.1,16.4-10.9-16.7c-6,1.6-12,2.4-18.1,2.6,11.7,10.2,23.9,20,36.3,29.2,72.6.4,145.3.4,217.8-1.7Z"/>
  <path d="M727.1,1129.2l125.5,7,2.9-21.9,2.6,22h11.1c18.6-9.3,36.7-19.6,54.2-30.8l-196.8-3,.6,26.7Z"/>
  <path d="M360.7,1150.4c10,4.4,20.2,8.5,30.6,12.3-1.3-12.7-17.1-16.4-30.6-12.3Z"/>
  <path d="M810,911.1l16.3,13.8-16.5,19.1c14.6,5.2,26.1-9.8,36-10.6,13-1.1,30.6,16,30-13.5-4.9-15.9-51.4-2.3-65.8-8.6Z"/>
</svg>