<?xml version="1.0" encoding="UTF-8"?>
<svg id="Layer_1" xmlns="http://www.w3.org/2000/svg" version="1.1" viewBox="0 0 1200 1200">
  <!-- Generator: Adobe Illustrator 29.0.0, SVG Export Plug-In . SVG Version: 2.1.0 Build 186)  -->
  <path d="M778.2,1094.5c-4.5.3-41.5,5.4-43.5,6.2-8.7,3.5-7.4,19.7-33.6,14.7l2.9-16.4c-19,.9-43.8-4.9-57.9,10-4.1-17.7-31.7-12-49.5-11.9-92.2.5-212.9-1.5-302,5.6-7.2.6-8.1,5.6-8.9,8.6,14.7,9.1,29.8,17.5,45.3,25.3,46,1.5,114.9,7.2,143.1-8.8,6.2-3.5,2.8-10.4,7.2-10.5l5.5,17c25.1-3.2,52,1.4,76.2,1,68.7-1.1,185,5.1,242.3-18.2l6.1,11.3c19.3-6.2,50.1,5,70.3,1.6,5-2.7,10-5.4,15-8.3.7-1,1.4-2,1.9-3.1,1.7-.3,3-.4,4-.3,8.3-4.9,16.5-9.9,24.5-15.1l-5.9-6.7c-45.9,5.8-97.9-4.9-143-1.9Z"/>
  <path d="M638.6,1064.9l-16.4-.3,5.7-16.3c-35.7,2.5-77.3.6-112.4,4.1-11.3,1.1-21.4,11.3-38.7,9.9-6.9-.5,10.8-13.9-5.5-11.3l-258.1,6.9c0,.3,0,.5,0,.8,11.7,9.8,23.7,19.2,36.1,28.2,42.2-1.8,83.5-3,123.6-2.3,53.5.9,105.7,1.8,158.4,1,80.4-1.2,160.3-10,241.5-2l-2.5-16.5,10.7,16.6c58-8.7,118.3-5.4,177.9-3,13.1-9.8,25.7-20.1,37.9-30.9l-363.6-1.5,5.2,16.5Z"/>
  <path d="M872.7,996.9c-18.1,19.1-9,4.3-21.3,2.5-8-1.2-22.3,5.1-33.3,5.1-19.5,0-43.1-2.6-63.1-3.6l-3,16.4-16.5-5.4,3-11.1-90-1.4-6.3,10.8-4.9-10.6c-44.3,10.1-92.6,2-137.8,2.9-15.3.3-29.7,7.2-41.8,7.5-50.6,1.1-115.5-16.9-156.2,11.1-8.4-18.2-64.2-13.3-87.8-12.6-17.3.5-34.3,1.4-51.1,2.4,7.9,8.4,16,16.6,24.4,24.5,7.1-10.4,4.9,2.6,21.2,5.9,10.8,2.1,85.8,2.2,90.5-.9,3.5-2.3,5.4-9.3,5.6-13.7l13.1,11.6c22.4,2.6,154.1,3.5,169.7-4.2,9-4.5,8.7-16.2,12.2-15.3l5.3,11.2,8.3-10.9c2.2,23.3,59.1,18.5,79.7,18,77.5-1.8,161.6-6.1,241.2-7.5,48.8-.8,113.2,7.7,159.6.5,7.5-1.2,22.1-22.5,24.8-19.2l-11.3,21.7,9.1-.3c9.9-9.5,19.5-19.4,28.7-29.6-57.4-2.8-115-6.7-172.2-5.7Z"/>
  <path d="M1004.1,873.4l-18.9-15.5-16.8,9.5c-5-20.3-29.7-8.8-46.3-11.7l10.8,8.3-19.4,13.5-2.4-22.1c-15.9,3.2-50.6-10.7-49.8,9.9l-8,.2-5.9-11.3-15.2-.2c-8.6,22.9-13.7,2.8-24,.9-10.4-2-49.8-1.3-58.2,3.2-4.8,2.6-2,12.1-6.5,11.1-3.1-17.3-18.4-6.4-32.6-7.5-101.9-8-196.2-3.5-296.8,1-14.4.6-32-16.6-36,11.4l-8-11.1-5.6,10.9c-5.8-8.1-11.8-10.4-21.5-11.6-72.6-9.3-156.6,11.3-230.7,1.7l-3.3,16.8-10.7-11.1-3.2,21.9-2.4-22.1-28.9.2c4.1,8.1,8.4,16.2,12.8,24.1,3.7-2.3,6.4-5,7.6-7.9,5.1.2,0,9.7,6.1,11.3,4.2,1.1,81.1,2.4,87.5,1.7,9.4-1,7.6-8.7,9.3-9.5,3.7-1.7,8.3,9.3,12.5-7.2l5.3,11.2,5.6-10.9c4.3,5.4,9.3,9.9,16.4,11.1,26,4.3,75,2.2,104.1,2,13.8-.1,7.7-6.7,8.6-16.5l5.3,16.6,101.4-12.6c24.3,19.6,51.3,4.3,76.8,4.3,22.5,0,142.5,6.1,150.2,1.3,2.7-1.7-1.2-10.5,3.9-9.6l6.1,11.3,34.9.4-5.2-16.5c33.4,23.4,85.8,8.6,124.3,9.6,56.1,1.5,113.4,8,169.6,6.2,15.9-.5,37.8,1.6,43.8-15.8,5.5,1.1-2.4,9.8,10.4,11.7,9.6,1.4,40.7,2.2,65.3,2.2,5.4-9.9,10.6-20,15.5-30.3l-140.3-.8,2.4,16.5Z"/>
  <path d="M632.9,1199.1c5.7-.3,11.4-.7,17.1-1.2l-15.5-1.5-1.6,2.7Z"/>
  <path d="M584,1195.6c-9.9,0-19.3,1.2-28.4,2.8,14.7,1.1,29.5,1.6,44.4,1.6s16-.2,23.9-.5c-8.3-7.8-26.1-3.8-40-4Z"/>
  <path d="M1040.9,954.4c-64.3-3.4-114.9-1.7-177.8-.8-23.5.3-141.2-6.5-150.1-1.5-3.2,1.8-7.5,17.7-15.2,20.4-15.5-6.4-6.8-21.3-7.9-21.9-6.7-3.9-70.9,6.3-85.2,6.4-29.1.3-71-6.7-99-4.6-10.4.8-7.6,11.2-11.6,11.6-7.6.7-20.6-6.2-31.9-6.5-96.3-2.7-191.5,7.4-285.7,8.9-7,.1-29-1.2-53.6-2.5,8.4,11,17.1,21.7,26.3,32,20.8.6,41.5,1.3,62.2,1.6l-8-11.1,106.9,7.3-5.4-11c78.7,13.1,158.9,6.4,238.2,3.1l3.6-15.6,10.9,4.2v12.2c35-8.9,95,20.4,112.6-14.5l10.3,11.6,241.8-1.7,3.3-16.8c15-4.8,9.9,10.2,15.9,14,10.4,6.5,39.6,8.3,41.6-7.6,12.4-2.4,6.2,7.5,9.2,9.7,3,2.2,33.9,3.2,67.6,3.6,7.2-8.6,14.2-17.5,21-26.5-6.2-15.7-25.3-3.3-40.2-4.1Z"/>
  <path d="M678.3,1158.9c-5,.7-.9-7.9-3.6-9.7-5.4-3.6-62.6-6.7-62.3,8.6-9.5-27.4-17.6-3.6-22-1.8-12.6,5.1-15.4-10-16.5-10.2-11.6-1.4-17.6,9.8-27.1,10.2-20.2.9-94-16.1-104.8-1.2-3.6,5-.2,16.4-5.6,16.5-4.8-.3-1.9-8.9-6.2-11.3-9-5.1-37-7.1-65-7.7,32.1,13.7,65.7,24.6,100.4,32.6l198.5-4.4c2.7-8.3-20.8-3.9-10.6-16.6,2.6-3.2,35.9,17.1,46.2,17.4,15.5.4,45.1-2.8,65.4-4.3,5.3-1.5,10.5-3.1,15.8-4.7,3.4-2.4,6.4-4.5,9.9-3.2,3.4-1.1,6.8-2.3,10.1-3.5l.9-4.6c2.1.7,3.5,1.7,4.5,2.7,13.3-4.9,26.5-10.2,39.3-16-35.7.7-70.9,1.9-106.8,4.1-17,1.1-54.2-12.8-60.6,7.3Z"/>
  <path d="M182.3,936.7c7.6,26.4,32.7,4.2,43.8,3.4,25.6-1.7,19.1,8.8,48.2-5.6,3.6-1.8,8.3,9.5,12.5-7.1l10.7,16.7,13.7-3.7,2.9-7.1,6.1,11.5c21.1-2.1,44.2-7.6,65.2-7.9,107.8-1.4,216,3.7,324.1-2.5,14.2-.8,54.9,4.1,61.9-.6,2.3-1.5.8-8.8,1.4-9.3,1.7-1.2,11.2,9.5,19,11.1,20.5,4.1,41.7,5.3,49.6-15.4,9.6,25.6,28.5,15.4,51.9,17.2l-19-33.6c-21.6-2.9-44,2.4-64.6,2.7-15.2.2-38.5-15.3-45,6.9-12.7,2-6.1-7.4-9.2-9.7-88.2,11.1-215.8-18.6-292.9,15.7l-10.3-11.6-246.4,1.8-12.4,16.4c-.2-13.5-36-12.5-48.8-11.6-7.5.5-13.5,8-22.3,8.4-7.2.3-21.4-5-33.2-8,6.4,10.3,13.1,20.5,20.1,30.4,26.3,3.7,55.2,8,73.1-8.4Z"/>
  <path d="M96.1,803.8l3.6-22,5.1,22,10.9-2.5-5.1-13.9,21.9.3-8.4,16.4,44.1-15.8c4.8-1.9.8,8.8,5.1,10.4,3.4,1.2,64.5,2.4,71.7,2,20.4-1,49.6-4,66-15.6,3.4-.7-.7,10,10.3,11.7,29.3,4.4,67.9-2.8,98.5,1.2l6.4-11.1,4.8,10.7c53.9-13.9,112.3-.7,168-2.4l-6.7-5.7-1.1-16.4,8,11.1,5.7-10.8-.3,22c14.9-4.4,31-2.2,46.3-5.2,9.4-1.9,15.2-10.1,22.5-10.4,3.6-.1-.4,10.2,10.4,11.8,41.8,6.3,97-3.5,140.4,1.8l-1.8-27.6-208.8-9c-18.6-5.2-56,15.5-66.3,15.9-3.6.1.4-10.2-10.4-11.8-36.1-5.5-169.9-2-209.5,2.1-10.2,1.1-7.6,9.3-10.8,10.3-3.2,1-44.3-11.7-65.7-11-19.5.6-55.1,1.8-60.8,20.9l-2.6-11.1-11,10.7c.8-21-46.9-19.8-63.3-17.9-10.8,1.2-5.8,11.6-16.1,11.8-23.5.3-47,.2-70.7,0,2.6,8.5,5.4,16.9,8.4,25.3,20.6,1.6,41.4,3,61.2,1.5Z"/>
  <path d="M1147.7,826.3c-30.8,9.5-33.2-17.3-57.6-17.8-15.7-.3-26.8,10.9-31.7,9.9-20.9-4.2-15.9-4.2-40-5.7-178.7-10.6-357.9-4.7-537.6.3-37.1,1-80.7-16.3-115.6,11.4-4.4-5.3-.4-10.1-10.2-11.6-56.5-8.7-185.3-.3-248,1.9-16.3.6-44-.6-49.3,15.8-2.7-12.5-8.9-12.9-16.3-11.3,4.4,11.2,9.1,22.1,14.1,33,24.6-1.9,49.7-8.4,68.2-9.5,31.1-1.8,72.8,11.3,103.7,6.7,11.3-1.7,31.1-17.5,38.9-14.6,3.2,1.2.3,9.3,10.5,10.6,22.8,3,50.9-2,74.5.8l3.2-27.5,10.6,22.1,8.4-16.3,2.6,22.1c54.4-10.3,109.4-2,164.3-2.8,126.1-1.9,252.9-7.7,380.3-8.3,42.5-.2,149.3,13.7,184.7,6.6,4.4-.9,3.6-11,7-11.1l39.3,5.4c3.9-9,7.5-18.1,11-27.3l-31,.5,16.1,16.6Z"/>
  <path d="M1074.6,763.7c-16.8.2-47.4-17.8-55,5.7-24.6-13.2-104.6-15.4-137-13.6-17.5.9-34.3,8-52.3,5.1l13.5,33.3c18.5-10.4,41.7-1.2,59-4.8,3.7-.8,4.1-7.9,5.9-8.6,14.1-5.6,26.9-7.9,39.5-18.1l13.6,8.7c-6.5,24.2-17.6-1.4-27.6,18.7l233.8,3.9c3.7-10.9,7.1-21.8,10.2-33-31.1-4.2-88.6,2.7-103.6,2.8Z"/>
  <path d="M1052.6,934.5l-8.2-11.1,8.5-10.8c4.4,28.7,25.3,21.5,46.1,20.8,6.7-10.1,13.2-20.4,19.3-30.9l-147.3-2.3c-23,52.2,49.9,25.8,81.6,34.2Z"/>
  <path d="M943.3,899.8l-55,12.8c14.9,24.7,40.2,17.9,65.5,20.2-8.4-13.5-18.6-15.3-10.5-33Z"/>
</svg>