<?xml version="1.0" encoding="UTF-8"?>
<svg id="Layer_1" xmlns="http://www.w3.org/2000/svg" version="1.1" viewBox="0 0 1200 1200">
  <!-- Generator: Adobe Illustrator 29.0.0, SVG Export Plug-In . SVG Version: 2.1.0 Build 186)  -->
  <path d="M851.9,1142.4l-5.2-17.1c-78.4-.7-156.6-3.1-234.9-3.3-13,0-26.5-13.7-34,5.2l-180.7-10.2-3.6,16.8-68.6-13.6-8.4,8.7c7.1,3.8,14.3,7.5,21.5,11l.5-2.3c.6,1.3,1.2,2.4,1.9,3.5,9.6,4.6,19.4,9,29.2,13.1,17.2.2,36.8-6.6,48.4-14.1,4.8-1.8.7,8,4.9,10,4.7,2.1,97.6,4.3,102,1.6,5.2-3.3,4.2-14.8,8.5-13.6l2.5,11.1,8.5-10.7,26.6,17.8,113-8.1,3.5-16.3,5,16.7,8.7-16.2-.6,21.9,90.5,2.8,9.1-27.1c12.1,0-.8,15.8,8.1,22.9,1.9,1.5,8.1,2.8,16.3,3.8,23-9.3,45.3-20,66.8-31.9-10.7-8.4-34.2,3.1-39.4,17.7Z"/>
  <path d="M903.4,1072.5c-40.2,3.4-28.4,32.2-33.8,32l-11.1-27.1c-55.6,6.6-120.7-11.4-174.9-6.4-12.3,1.1-21,10.6-27.5,10.4-8.9-.2-40.1-29.6-41.2-1.3l-5.3-.2c3.7-20.2-19.8-6.2-35.3-6.3-84.3-.5-167.9-6.1-252-2.6l-6.6,11-6-11.5c-15.5,4.2-57.2-2.1-86.6-3.9,15.8,12.7,32.2,24.7,49.2,35.8,8.9,1.4,17.9,2.3,26.6,1.4,10.7-1.2,7.9-11.5,11.1-11.4,6.4.1,21.8,10.9,37.8,12.9,22.7,2.8,41.9-6.5,60.5-6.8,38.4-.5,83.6,6.8,121.1,6.6,21.1,0,41-11.1,55.2-10.2,10,.6,7.4,10,10.5,11.1,2.4.8,35.7-3.3,49.3-2.9,91.6,2.5,183,4.1,274.5,5.2,17.1-10.8,33.7-22.4,49.6-34.8-22-2-44-3-64.9-1.3Z"/>
  <path d="M789.4,1024.5c-10.3.5-7.3,10.2-11.8,10.9-3.5.6-49.7-8.3-65.9-9.2-20.2-1.2-66.5-14.7-68.2,11l-5.3-.2c6.5-16.3-46-14.6-56.4-12.5-3.9.8-3.8,8.3-5.2,9-4.3,2.3-12.2-14.4-10.2,12.3-10.6,1.2-1.1-11.7-8.1-17.3-13.3-10.7-60.6-4.1-79-7.3l-6.1,21.8-2.5-22.1c-21.6-.5-52.4-6.8-58,20.3l-18.5-17.1c-54.7,2.2-110.8-6.3-165-5.1-9.8.2-10.6,21-34.9,5.7-.4,16.7-5.4,4.7-18.8-.5,9,9.1,18.4,17.8,28,26.3,13.3,2,28.1,1.5,41.1,2.3,73.8,4.2,139.7-.6,209.2-2.4,22.4-.6,48.5,12.5,71.8-5.6,17.3,16.8,81.2,13.3,114,13.7,112.7,1.2,233.4-.9,350.4-2.3,11.1-9.5,21.9-19.4,32.2-29.7-78.9-2.6-158.8-5.5-232.9-1.7Z"/>
  <path d="M865,879.8l-5.3,10.3c-22.2-23.2-48.6-5.6-73.2-5.4-87.1.7-183.2-18.3-267.9-1.2l-117.2-7.5-1,33c32.2-2.6,64.5,2.2,96.4,1.7,29-.4,70.1-4.9,93.5-11.1,12-3.2,26.1,9.6,38,11.3,17.2,2.4,34.4-4.4,49.9-3.7,39.9,2,76.8,9.2,116.8,1.8l4.1-9.9c2,14.1,23.4,11.3,37.8,12.4,67.8,4.9,135.8-1,203.6-1.9,15-.2,46,6.1,59.3,4.3,6.4-.9-2.8-8.5,12-6.7,7.4.9-.7-15,6.1-14.8l2.2,7.3c3.9-6.8,7.7-13.6,11.4-20.6l-117.3-1.1c-45.8,6.2-99.8,4-149,1.8Z"/>
  <path d="M95.8,905.5l148.5,4.7,16.3-11-3.1,10.9,131.9-1.4-10.2-27.7-5.8,10.7c-8.5,2-4.1-6.9-6.9-9.1-25.4-19.5-52.6-.9-78.8-1.1-41.5-.2-177.7-18.4-206.5-4.1-4.1,2.1-4.9,6.4-4.4,10.5-2-2.1-4.1-3.9-6.2-5.4,3.7,7,7.6,13.8,11.6,20.6l8.4-14.8,5.1,17Z"/>
  <path d="M1008,976.9l-.6,16.5-10.5-11.2-3.5,21.9-2.8-21.3c-5.4-9.4-98.4-16.7-98.6,12.6l-7.8-11.2-6,16.4-2-22.1-89.8-2.6c-19.7,30.1-31.6-2-33.7-1.1-2.7,1.1-5.7,8-11,8.2-80.5,2.9-171.5-12.2-252.8-11-15.7.2-31,3.8-46.6,4.3l4,29.8c18.1,15.5,41-5.2,53.2-6,8.8-.6,18.1,5.9,27.1,6.2,22.8.8,45.8,1.4,68.6,2.1l-5.2-11c24.5-1.4,25.6,19.1,56.5,12.9l10-27.3,14.1,18.2-4.1,9.4,68.6,2.2-2.4-11c18.1-6.8,22.7,9.8,24.4,10.4,7.9,2.5,146.3,2.7,165.1,1.5,10.4-.7,7.6-11,11.5-11.2,31.1-.9,67.8,5.6,103.8,8.5,10.1-10.8,19.9-22,29.2-33.5-20.4,3.9-41.4,7.8-58.6-.3Z"/>
  <path d="M427.9,1175c2.1.6,4.2,1.2,6.3,1.8-1.6-.7-3.4-1.9-5.7-3.6l-.6,1.7Z"/>
  <path d="M402.5,1166.7c5.6,1.9,11.2,3.8,16.9,5.6l-2.4-5.3-14.4-.3Z"/>
  <path d="M718.7,1182.2l-5.9-11.4c-40.1,3.5-79.8-3.4-120.1-3.7-23.6-.2-133.9-1.5-147.2,1.3-4,.8-2.4,9.6-7.7,9.4,20.9,5.8,42.2,10.6,63.9,14.2,1-1.6,1.9-3.4,2.8-5.5.2,2.3,1.8,4.5,4.1,6.6,16.6,2.5,33.4,4.4,50.3,5.5,2.3-1.2,4.1-2,5.7-2,20.1.4,40.2,1.5,60.4,2.9,51.8-2.1,101.9-10.8,149.5-25.3-18.8-5.2-38.9-7.4-55.8,8Z"/>
  <path d="M1045.5,929.2c-13.7,1.3-17.1,3.6-22.8,15.4-15.3-33.5-77.4-14.3-109.2-14.2-73.4.4-146.3-1.1-219.8-1.4-40.5-.2-100.5-7.7-136.7-4.1-11,1.1-20.5,10.6-28.2,10.3-3.1-.1,0-11.5-10.5-12.2-11.1-.8-22.5,5-33.4,5.1-49.2.2-126.2-10.2-170.3-5.4-14.8,1.6-25.1,12.4-35.4,13.2-8.1.6-18.6-13.5-35.2-9.9l-6.5,11.1c-5.1.7-.8-8-3.4-9.8-8.6-5.8-93.1-6.9-137.5-.7,5.7,8.8,11.7,17.5,17.8,25.9,17.2,5.1,37.7-2.3,56.5,4.6l6.1-16.5,2.3,16.7,183.2.2,6.6-11c2.6,17.9,45.2,18.9,49.3,1.5,16.6,14.6,55.6,16,77,13.8,10.3-1.1,7.4-10.5,11.6-10.9,21.1-2.1,61.9,21.5,81.9-3.2l5.6,11.2,191.1,5.8,6.3-10.8,4.8,10.9,43.6-3.6,6.6-11c11.1,16.3,91.9,17.3,104.5,12.1,6.1-2.5,8-18.6,21.7-12.3,3.5,1.6.8,8.9,10.5,10.3,18.5,2.7,41.1-1.2,60.3,1.5l3.9-21.9c10.6-1.2,1.1,11.7,8.1,17.3,3.9,3.2,12.4,5.1,22,5.9,8.8-11.6,17.2-23.4,25.1-35.6-19.2-.2-38.5,0-57.4,1.8Z"/>
  <path d="M857.3,780c-31.2.4-64.9,8.5-97.9,2.6l-6.6,11c-4.7-22.5-35-.4-53.8-13l-12.4,22-2.1-22.1c-17.5,6.8-35.7-11.2-41.5,9.8-12.6,2.5-5.3-9.6-11.4-11.5-26.6-8-79.7,6.2-109.6,6.5-41,.4-88.5-5.3-125.6-8.6-21.8-2-57.1,11.2-82.1,4.7l-14.6,14.8c-5.3-30.7-16.5-8.6-24.6-8.2-5.1.2-13.3-8.9-22.3-9.6-55.3-4.4-112.1-2.2-166.6,6.2l-3.7,16-2.1-22.1-18.5-.6-6.5,11c-.5-10.8-15.1-12-28.7-11.8,3.5,11.3,7.3,22.5,11.4,33.5.1,0,.2,0,.3,0,39.3,0,78.7,0,117.9,3.2l.3-13.8,22.1-1.9c-16.9,29.1,18.4,11.7,35.2,11.8,43.8.2,87.5,1.8,131.1,4.3l6.6-11,5.9,11.6c71.2-7.3,148.9,4.8,219,1,34.1-1.8,20-4.2,56.2.7,32.1,4.3,72.6-2.6,105.4-1.8l3.5-16c4.8,16.8,32,16.8,48.6,18.3,46.5,4.2,90.1-5.8,130.8-3.5,16.9,1,96.2,7.4,105.6,4,5.4-1.9,5.5-12.2,11.4-15.1,28.7,27.1,78,5.6,104.2,5.8,6.7,0,13.5.3,20.4.8,2.8-7.4,5.4-15,7.9-22.6-103.7-2.6-208.7-7.5-313.2-6.4Z"/>
  <path d="M1078.1,833.9c-23.6,1-61.7-14-74.3,11.3l-2.5-16.2c-17.5-4.2-34.5,3.7-51.8,3.8-79.8.4-151.3-1.1-230.6-2-69.8-.8-139-4.7-208.7-1l-3.6,16.7c-8.5,1.9-4-8.6-8.7-11.4-12.9-7.7-43-7.4-58.4-5.1-5.5.9-10.2,8.4-17.7,8.6-3.3.1-1.7-10.1-6.1-11.4-26.6-7.8-70.7,2.9-97.9,2.7-89.8-.6-184.4-6-274.8-6.2,4.5,11.2,9.3,22.3,14.5,33.1,33.4-.2,66.1-.7,100-1.5,23.7-.6,78.4,17.8,85.5-11.4,5.7-3.2,7.9,15,14.2,17,33.8,10.4,104.4-8.9,139.1-6.8l3.5-22c5.4,0-1.1,24.3,20.9,27.3,80.8,6.1,161.8-.9,242.9-.7,34,0,82,16.2,109.1-4.2,3.7,17.6,23.3,11.9,38.5,12.1,55.1.7,125-10.8,175.3-10.3,46.8.5,60.5,14.3,110.2-1.4,19.6-6.2,20.5,10.2,22.1,10.3,3.4.3,11.8-.3,20.4-2.1,5.2-10.6,10.1-21.4,14.7-32.4-25.1-.1-45.8,1.9-76,3.2Z"/>
  <path d="M177.9,1000.9c10.1-23.8,27.1,4.7,30.9,5.9,8.5,2.7,74.9,5.3,73.8-13.6,21.3,21.8,46.2,1.5,73,13.6l6.5-11.3c5.3.2-.3,9.3,5.8,11.1,11.7,3.5,57.6-3.7,73.5,2.4l-4.5-33-8.7,16.2c-8.7-23.2-56.9-27.8-65.9-2l-5.2-17.1-37.4-.9-6.6,11-5.9-11.5-43.5,10.2-5.3-11.7-22.3,10.5c-4.9,1.6-1.4-7.7-3.5-9.3-5.4-4-49.1,4-58.7,4.1-15,0-29.2-1.2-43.3-1.9,8.8,11,17.9,21.7,27.5,32.1l36.1,1.1-16.3-6Z"/>
</svg>