<?xml version="1.0" encoding="UTF-8"?>
<svg id="Layer_1" xmlns="http://www.w3.org/2000/svg" version="1.1" viewBox="0 0 1200 1200">
  <!-- Generator: Adobe Illustrator 29.0.0, SVG Export Plug-In . SVG Version: 2.1.0 Build 186)  -->
  <path d="M577.8,1104.7l-17,16.2-5-17c-39.7.4-80.2-4.8-119.7-3.6-23.3.7-68.6-2.7-78.5,17.9l-10.3-16.9-5.8,10.8c-19.8-17-44.9-13.6-69.6-9.6,17.3,11.3,35.2,21.8,53.7,31.3,10.8-1.1,21.6-2.1,31.8-2.4,19.4-.5,49.2,13.7,54.7-5.5,139.4,24.3,294.7,13.2,439.1,15.5,2.5,0,5,.1,7.5.2,17.9-8.6,35.3-18,52.2-28.2-41.2,0-82.3,1.1-123.4,4.3l-209.7-12.8Z"/>
  <path d="M886.7,1079.3c-3.7-18.8-9.2-4.3-20.3-7.3-32.7-8.8-25-5-55.8-6.5-70.7-3.4-141.1-3.6-211.4-8.8l2.3,11.1c-16.1,3.8-9.8-11-21.2-12.4-21-2.6-46.1,5.8-68.4,5.4-23.2-.4-146.6-11.7-154.8-6.1l-8.6,19.3c-2.4-16.7-13.6-8.6-19.8-12.3-6.2-3.6-3-11.5-11.9-11.7-12.6-.2-47.7,10.5-61.6,14.5-2.4.2-1.4-10.3-5.6-11.4-4.5-1.2-23.6-1.3-43.8-.8,8.4,7.3,16.9,14.4,25.7,21.2l4.5-4.2c-3.7,18.7,37.7,19.5,51.4,18.9,15-.6,33.4.2,39.2-15.3,5.1.4-.3,9.7,5.8,11.4,5,1.5,98.1,5.1,103.2,4.4l6.4-16.6,5,11.3,8.6-10.7,2.3,11.1,8.6-10.7,2.4,16.9c36.7-4,94,9,128-4.3,8.1-3.2,5.9-14,9.8-12.5,3.2,16.8,8.6,5.9,12.1,7.8,1.7,1-.6,8.5,8.8,10,24.2,4,56.3,7.3,69.6-14.1l2.4,16.9c23.3-3.2,54.7,4.1,76.3,2.9,21.6-1.2,28.2-18,46.7-10.4l3.8-9.8c5.4,14.6,11.6,15.5,26.7,17.6,15.8,2.2,48.2,4.3,79.1,5.3,15.8-10.5,31-21.7,45.7-33.7-33.7-2.7-73.1-5.1-91.2,13.2Z"/>
  <path d="M965.7,1027.6l-2.2-11-16.5-.8-3.4,16.4-5-11.3-5.9,10.8c-4.1-24.7-57.6-20.8-78-16.2-12.8,2.9-12.9,10.8-15.3,11.4-5.4,1.3-18.7-8.3-25.7-9.1-67.6-7.8-146.4-9.2-215.2-11.2-87.1-2.5-187.1-.4-274.8,3-15,.6-37.1-8-54.4-5.1l-4.1,21.9c-10.6,1.1-1-11.7-7.9-17.4-19.6-16.2-42.1,2.3-49.1,2-3.4-.1-7.8-7.6-14.9-8-8.8-.5-22.4,2.1-28.8,9.6,6.6,6.9,13.3,13.7,20.2,20.3,50-.8,99.8-1.3,149.1-.8,73.9.7,149.8,9.8,223.8,12.2l10.1-21.9,23.9,17.5,3.7-21.8,4.6,22.2,126.1,5-10.6-8.6,14-7.8c10.9,31.3,54.6,8.3,81,20.2l6.7-11.2c23,14.3,63.4,10.1,93.3,9.8,23.3-.2,12.7-2.2,38.3.9,22.4,2.8,40.1,8.4,49.9-14.1l-3.4,16.3h1c11-9.8,21.7-19.9,32-30.3-4.2.3-8.4.5-12.6.7-16.3.7-35.5-12.5-49.8,6.5Z"/>
  <path d="M933.1,883.5c-4.8-21-31.2-8.8-48.6-13.3l-6.4,16.6-15.8-17.5-43-1.6-6.7,10.9c-21.4-24.7-59.8-6.3-88.9-6-24.5.3-48.9-8.8-73-.6,11.3,29.5-12.4,21.2-5.2-5.8l-263.3-10.7-1.2,27.4c-11.2-.4-.7-16.5-13.7-21.8-8.1-3.4-88.3-4.8-103.7-4.9-32.4-.2-58.5,11.8-92.4,2.3l-12.5,20.9c-6.7-42.3-67-11.8-98.3-19.9l-.4,1.9c4.9,10,10,19.9,15.4,29.6,83.2.8,165.4.8,247.9.7,23.8,0,43.3-8.3,65.1-2.6l6.7-11.2,5.9,11.6c19.6-8.1,46.8,14,54.4-9,39.1,19.9,106.8,16.8,153.6,17.6,14.6.3,22-7.7,27.5-8,11.5-.5,49.7,21.2,54.6,0,20.3,13.2,58.1,14.3,77.3-2.4,4.4-1.7.3,9.5,5.8,11.2,29.8,9.3,30.4-9.9,32.3-9.6,12.1,1.9,34.8,19.9,54.4,13.5l3.7-16.7c29.5,33.8,76.8,12.7,111.9,13,34.2.3,87.2,15.2,115.7-3.7l5.3,11.5c6.7-1.4,13.5-2.5,20.2-3.3,6.4-10.9,12.4-22,18.2-33.2-56.8-3.9-165.3-2-202.6,13.1Z"/>
  <path d="M797.2,1164.7c-13.3,6.8-6.8-6.2-17.7-7.9-17-2.8-67.8-7.9-72.2,8.6l-7.9-.8c.6-23.7-16.6-3.5-24.8-3.3-90.3,2.4-197.1-25.9-283.6,1.3,15.2,5.7,30.8,10.7,46.6,15.2,1.9,0,3.7-.1,5.5-.1,32.8.3,87,17.1,115.5-1.9l10.2,11.7,10.6.2,6.5-10.8c37,20.4,93.9,10.9,141.4,9.6,24.1-5.2,47.6-11.8,70.5-19.8l-.6-1.9Z"/>
  <path d="M363.4,1151.5c8,3.4,16.1,6.7,24.3,9.8-3.3-5-12.7-8-24.3-9.8Z"/>
  <path d="M812,1158.6c-6.9-1.5-8.6,2-8.9,6.2,3.5-1.2,6.9-2.5,10.4-3.8,0-1.2-.3-2.1-1.4-2.3Z"/>
  <path d="M1068.3,938.5l-5.1-17.1c-15.7.6-28.2-7.4-33.1,10.1l-10.2-12.1-118.5-1.5,10.3,3.5-.4,24.3c20.6-1.7,62.5,15,69-5.5l5.8,11.4,43.1,1.7-2-16.6c10.9,20.7,34.7,19.1,57.9,16.4,8.4-11.6,16.5-23.4,24.1-35.6-15.7-3.2-33.1,4.6-40.8,20.9Z"/>
  <path d="M299.3,791.6c76,.9,152.2,6.3,227.8,9.5l.7-16.5c11.9,8.8,20.3,10.9,34.9,12.7,43.8,5.6,138.5,10.5,181.6,7.4,9.7-.7,15.9-2.6,22.1-10.4,9.6,24.9,54.3,8,76.3,8.4,61.3.9,122.8,6.6,184,7.7l1.3-32.9,4.6,22.1,11.3-10.4c-1.9,24.7,56.9,23.9,62.9,8,14.7,11.7,34.4,13.8,55,13.2,4.4-11.8,8.5-23.7,12.1-35.8-12,1-23.9,2.5-36,1.9l-1,21.8c-9.6-.5-6.1-14.7-15.5-19.9-14.6-8.1-127.6-9.3-146.1,7.9-8.7-25.3-48.2-3.5-70-14.2l-6.7,11.1c-5.1.6-.7-8-3.3-9.8-14.1-9.8-108.6,1.2-134,.7-24.6-.4-168.4-12.9-176.9-7.9-2.8,1.6.9,10.5-4.1,9.5-8.6-26.4-50.7-4.2-73.8-8.5l-3.7,21.8-1.8-22.1-210.4-8.8-6.9,11.1-13.5-.8,8.6-10.7c-23,11.8-63.5-1.2-81.4,2.2-3.9.7-4,8.4-5.5,9-3.7,1.7-8.1-9.7-12.7,6.8-6.9-29.6-78.1-22.6-85.3,1.9l-5.3-.2c-4.4-27.9-40.1-19.3-66.1-14.2,2.8,10,5.9,19.8,9.2,29.6,5.1-.3,10.1-.5,15-.6,84.9-.4,167.2-2,252.6-1Z"/>
  <path d="M61.8,826c-4.5,10.8,22.4,11.6,23.6,10.7,2.7-2.2-2.6-12,6.5-9.4l-.6,16.5c26.2-22.1,51.5,7.5,74.8-13.5,5.3,16.2,51.8,14.1,70.7,13.8,85.4-1.3,172.2,7.6,257.5,4.5,23.4-.9,53.9,3,53.9-24.6-38.9-16.9-70.5.2-109.2-15.4l-3.7,21.9c-1.6,0-6.7-17.8-23.9-20.8-26.5-4.8-101.9-1.5-134.8-1.9-79.1-1-159.3,4.5-237.3,6.5,3.4,8.9,7,17.8,10.9,26.5,4.5-2.1,8.4-6.4,11.6-14.6Z"/>
  <path d="M1155.5,821.2c-18,.5-64.3-.4-64.1,19.3l-5.3-.3c-4.5-21.5-56.7-19.9-79.2-19.8-64.1,0-218.2-8.4-264,10-12,4.8-14.5-9.6-17-10.2-6.9-1.6-19.8,4.1-29.1-1.3l-.8,16.5-15.9-11.7-5.9,10.7c0-4.4-1.5-11.5-4.8-14-6.3-4.7-79.4-12.9-79.9,5.1-12.5-13-29.3-13.1-46.3-12.8-2.3,1.3,5,8.5,5,11.1,11,4.8-.2,18.3,18.2,22.8,6.7,1.7,73.3,3.4,77.2,2,4.8-1.7.3-10.4,5.6-9.8,5.4,0-2.7,9.7,10.1,11.9,51,8.7,129.1-1.6,181.8-1,48.3.6,98.4,8.5,146.9,8.6l12.7-16.1,21.3,12c4.5-17.5,16.2,1.7,14.7-16.1l7.5,16.9h18.8c0,.1,3.9-15.8,3.9-15.8l5.2,9.8c9.7-6.8,10.6,16.2,24.2,7.9,3.3-2-1.1-52.6,19.3.9l5.9-10.8c5.5,4.8,13,7.4,21.4,8.6,5.4-11.4,10.4-23,15.1-34.7-.8,0-1.6,0-2.4,0Z"/>
  <path d="M863.4,968.2l-3.4,22.1c-10.6,1-1-11.7-7.9-17.4-10.5-8.7-68.2-14.9-71.3,8.8l-10.3-16.9-13.7-.6-3.4,16.4-2.1-16.6c-24.8,2.3-49.4-2.2-74.4-3.1-22.5-.8-73.2-7.8-74.7,19l-18-20.6c-43.4,10.4-95.2-5.2-137.9-2.8-10.5.6-8.2,11.1-10.8,10.8-49.7-6.1-68.2-9-120.9-10.1-24.1-.5-113-8.6-127.7-1.3-10.1,5.1-7.5,7.7-7.6,17.7l-7.8-17.1c-18.4-.6-36.7-.8-54.9-.8,7.3,10,15,19.7,22.9,29.2,65.3,1.6,145.5,12.8,201.4-3.6l98.5,8.6,3.9-21.9,4.6,22.2c41.8-5.5,82.2,4.3,123.7,5.2,45.2,1,91.5-.7,137.4.2,16.6.3,27.6,1.5,43.3,1.8,61.6,1.2,122.8.3,184.4,1.6l-2.3-11.1c13.2-2,2.7,9.9,15.5,12.1,14.4,2.5,64.2,4.3,93.4,4.3,10.5-11.5,20.5-23.4,30.1-35.7-7.6,1.2-15.1,2.4-22.7,2.3-26.8-.4-180.2-12.4-187.3-2.7Z"/>
  <path d="M410,935.7c44.1.7,108.9,18,147.5-1.5,6.2,21.2,31,15.2,38.5-3.9,20.1,11.5,6,22,30.3,9.3l166.6,10.1,6.4-16.6,4.8,16.7c12.4-17.7,16.7.2,32.6,1.7,20.9,2,42.5.3,63.4,2.2l-10.1-38.2c-43.7,11.4-88.6-2.1-133.2-.6l-6.7,10.9-10.1-11.9-181.4-1.8-6.4,16.6-5-17.1c-9,0-18-1.3-27-.4-47.2,4.5-106.5-7.3-159.5-7-15,0-97.3,3.7-101,8.1-2.3,3.1-.6,7-1.2,10,9.3,9.2,12.6,8.9,23.6,17.9,42.7,4.6,85.4-4.9,127.9-4.2Z"/>
  <path d="M129.1,927.6l5.7,11.1,81.4,3.8,3.7-16.7c9.1-2,2.1,9.6,8.5,11.4,8.4,2.3,20.2-.3,29.4,1.1.9-5.3-.4-11.5.6-16.5-3.6-3.6-6.4-4.9-5.1-11.1l-11.3,10.4-.5-9.7c-13.5,7.2-6.9-6.9-17.8-8.1-18.3-1.9-63.4,19.8-83.2,12.9-2.8-1-1.7-9.2-6-10.3-16.1-4.3-33.7-2.1-50,1.3,6.6,11.1,13.6,22,20.9,32.6,11.4-1.8,20.9-5.4,23.6-12.3Z"/>
</svg>