<?xml version="1.0" encoding="UTF-8"?>
<svg id="Layer_1" xmlns="http://www.w3.org/2000/svg" version="1.1" viewBox="0 0 1200 1200">
  <!-- Generator: Adobe Illustrator 29.0.0, SVG Export Plug-In . SVG Version: 2.1.0 Build 186)  -->
  <path d="M869.5,1119.9c-9.4.6-4.2-12.5-13.7-16.3-6.2-2.5-46.4-4.2-54.3-3-17.3,2.7-11.3,17.2-23,26.6l-4.4-27.7c-24.8,4.3-50.2,3.5-74.9,5.8-5.9.5-11,6.8-13.6,7.2-1.6.2-.5-17.9-26-12-4.3,1-3.5,10-6.5,9.8-19.8-1.1-51.4-11.9-70.3-7.6-4.4,1-13,19.9-24,20.9l-1.8-21.9c-19.3-6.2-8.2,18.2-11.9,21.5l-21.9-1,16.7-7.5c-3.6-9.5-25.5-11.4-34.4-9.6-4,.8-5,17.2-20.5,10l11.4-10.4c-21.9-10.5-50.7,7.6-63.2,7.8-21.6.4-59.3-13.5-85.1-8.3-.8,11.6,11.2-1.7,10.4,14-.3,6.3-14.5-11.1-11.4,7.8l-4.8-16.7-25.1,10c-2.3-13-24.2-16.9-38-12.3,16,10.1,32.5,19.5,49.4,28.1l2.2-9.8c17.1,26.2,13.5,11.9,35.1,12.4,54.9,1.2,107.7-6,159.5-7,47.6-1,97.3,11.2,145.6,3l-9.8-27.8c17.1,5.9,18.5,10.1,15.3,28.1l120.9-.6,3.6-21.8,1.8,22c20-3.5,45.4,3.2,64.5,3.5,4.4-2.2,8.7-4.4,13-6.7.9-2.4,1.3-4.6,2.9-4.6,1.4,0,3,.2,4.7.5,13.9-7.6,27.4-15.7,40.6-24.4l-55.1,1.3-4.1,16.6Z"/>
  <path d="M964.7,1074.4c-10.7-.3-7.1-16-4.6-22.1-12.3,4.2-23.6-1.7-35.1-1.3-8.6.3-15.5,7.1-22.7,7.3-14.7.5-37.2-8.8-53.8-5.2-2.1.4-29.1,37.5-31.5,4.3l22.2-4.6c-18.9-.3-39-2.4-57.8-1.1-2.8.2-2.7,7.9-5.6,8.3-24.3,3.4-53.2-21.7-77.4,8.9l-11-17.3-68,3.2,15.8,14.3-22.6,18.3,38.3,1.6,4.8-27.5,23.3,1.7-.4,21.4c36.9-5,92.7,20.1,108.1-23l7.3,22.3,41.7-9.4c.4,13.6,34.5,13.2,48.4,13.2,22.3,0,45-.8,67.6-1.8,13.8-10,27.1-20.5,39.9-31.6-15.5-1.2-28.9,1.6-27,20Z"/>
  <path d="M980.9,1014.7l-10.3-11.6c-17.4,17.4-58.5-.1-72,3.6-4.5,1.2-1.8,8.3-3,9.9l-21.4-11.7,2,16.5c-13.7,1.8-4.4-14.2-21.2-17.7-23.4-4.8-43.4,13.1-49.9,12.7-13-.7-37.2-14-65.8-12.1-10.7.7-7.4,16.8-24.8,10.3l11.4-10.4c-23.8,6-70.2-6.6-80.2,13.2l-2.2-11.1c-20.4-6.7-46.9,6.5-64.2,6.5-17.4,0-38.9-6.4-59.9-6.3-33.8.2-67.4,4.2-101.3,1.6l10.7,5.9c-10.4,37.4-19.4-2.1-36.3-5.3-21.4-4.1-25.5,14-27.2,13.7l-2.3-11.1c-11-1.8.6,13.7-14.1,10.4-6.9-1.5,6.7-9.7.4-11-11.3-2.4-43-3.4-55.1-2.5-38.8,2.8-81.3,8.6-122,12.2,9,9.1,18.3,18,27.8,26.6,56.1-3.2,112.6-9.7,169.6-2.1l3.7-16.7c9.1-2,2.1,9.5,8.5,11.4,13.2,3.9,34.8,2.4,43.6-9.3l5.6,11.3,10.6.7c18.6-19.4,24-5.3,44-4.1,49,2.9,127.8,5,176,2.3,11.1-.6-.7-6.2,32.9-4.7,22.5,1,45,1.1,67.3,1.6,12.8.3,5.8-6.1,7.5-15l4.8,16.7c6.8-1.6,11.4-7.7,19.2-7.8,33.8-.5,79.1,7.5,115,7.9,33.4.3,66.9.2,100.5,0,10.3-9.6,20.3-19.6,30-30-21-4.7-43.9-10.3-57.8,5.4Z"/>
  <path d="M1011.9,862.3l-8.6,10.5c-14.5-14.1-34.1-13.1-53.3-13.1l-16.1,26.8c-20.4,5.2-5.9-23.6-9.7-27.8l-280.5,5.1,5.1,11.1c-28.7-13.9-58.5-15.4-90.5-15-13.3.2-23,7.6-27.3,7.6-58.1-.6-116.6-8.5-175.4-4.8l-3.7,16.7c-8.6,1.3-4.9-9.6-10.1-14-7.5-6.3-72.6.4-87.5,1.3-24.4,1.5-29,7-30.8,6.9-52.8-3.9-105.3-3.1-157.7-.3,6.2,12,12.7,23.8,19.6,35.3,147.5-10.8,295.1-23,433.5-16.8,16.4.7,32.9,1.1,49.3,2.3l3.7-16.7c19.4,2.4,22.5,16.2,46,17.2,46.6,1.9,91.6-6.2,137.6-4.2,73.9,3.1,151.8-7.2,219.8,4.2,32.4-18.7,97.4,3.2,137.6-.1,7.4-.6,6.2-2.3,12.2-3.3,5.9-10.6,11.5-21.4,16.7-32.4l-140.4-2.2,10.7,5.9Z"/>
  <path d="M148.7,805.2l3.8-21.9,4.8,16.7c155.3.7,311.2-3,467.1-3.1l-15.3-28c23.7-1.1,19.4,26.6,48.7,18.5l-11.4,10.4c31.7,10.5,43.4-22.2,73.7-13.3,3,.9,10.7,27.1,33.9,1.3,3.9,16.7,14.5,11.4,29.7,12.1l-5.2-11.1,16.4.3,1.1-21.6-271.8-.2-3.9,21.9-4.5-22.1-29.3-1.5c-6.5,1.3-21.8,59.8-40.1,3.7-27.3.5-54.7-3.2-82-3.3-76.6,0-259.8-5.3-328.8,8.9-4,.8-4,9.4-7,10.7,2.6,8.2,5.4,16.3,8.4,24.3,28.9-3,57.6-5.8,85.3-7.8,8.9-.6,17.2,5.7,26.3,4.9Z"/>
  <path d="M805.5,1150l-16,19.5c17.4-5.8,34.5-12.4,51.1-19.7-11.7,0-23.4,0-35.1.2Z"/>
  <path d="M963.3,772.4c-5.9-25.1-27.9,5.3-46.3-7.4l-.9,21.9c-13,1.2-19.8-11.8-21.1-22.8l-10.9-.4,4.8,16.6-16.2-4.9-2.6-12.7c-19.3,3.1-51.1-11.2-63.3,8.7l27.4,1.2-6.3,21.6c27.8-.8,58,4.9,85.4,3.9,21.6-.8,54.8-17.7,60.8-18.2,4.3-.4,50.6,22.3,81.8,17,2.7-.5,1.9-7.8,7-9.4,9.4-2.9,25.8,8.2,24.1-10.1,9.9,2.3,8.7,9.4,4.7,16.6,25.3,4.8,51.6,1.2,76.5-.6,3.7-10.8,7-21.7,10.1-32.7-12.8,2.3-25.1,5.4-33.1,5.4-58.4.3-128.5-15.4-181.8,6.3Z"/>
  <path d="M944.9,809.6c-10.9,1-7.5,11.6-11.1,11.2-7.6-.8-11.9-9.1-20.5-10.8-13.4-2.6-45.9,4.2-67.6,2.2-10.1-.9-13.2,3.3-8.1,9.9h13.5c4.8,37.5,29,18.7,54.1,19,24.3.3,66.3,7.4,86.9,3.7,3.2-.6,16.8-23.8,39.9-9.2l-2.3-11.1c17.4-3.1,7,13.9,23.9,17.6,6.7,1.4,61,3.5,71.6,3.4,12.6,0,19.6-5.9,25.5-7.4,3.4-7.8,6.6-15.6,9.6-23.5-9.5.2-19.1.3-28.5.3-59.9.2-126.1-10.9-187-5.3Z"/>
  <path d="M279.4,1095.5l49.3-2.9,9.3-10.7,3,11.2,15.3.6,9.2-10.7c-2.7,18.1,5.4,6.1,18.9,6.1,20.1,0,40.2,2.1,60.2,2.9l3.7-16.7,5,11.1c25.4-3.4,143.7,5.9,154.2-4.7,1.1-1.1-8.8-17.9,6.5-27-6-4.9-147.8,1.4-155.3,4.7-5.2,2.2-4.2,11.4-7.3,10.6-58.6-14.9-57.4-6.6-110.5-6.1-15.8.2-38.3-10-56.8-6.2l5.1,11.1c-23.4-5.4-47.3-6.8-71.4-6.3,12.5,10.3,25.4,20.1,38.7,29.4,6.4-1.9,12.5-4.2,18.3-7.2l4.6,10.7Z"/>
  <path d="M1001.7,977.1c-23.6-16.4-52.7-24.2-81.6-17.1,3.4,19.1,15,20.7,28.7,32l60.7-3.6-2-16.6c13.7,22.9,24.9,17.8,48.1,18.6,9.1-10.7,17.9-21.6,26.3-32.9-26.4-.1-52.8-.7-79.3-2.3l-.9,21.9Z"/>
  <path d="M161.4,833.1c9.3-.6,4.2,12.5,13.7,16.3,17.7,7.1,79.4-2.6,103.9-3,24.3-.4,36.9-3.5,55.8-4.7,14.9-.9,39.7,8.7,59.9,6.7,10.5-1,7.7-10.5,11.9-11.1,13.7-1.9,41.2,13.1,59,8.5l3.7-16.7c16.4-1.8,9.2,15,23.8,17.9,30,5.9,41.2-6.1,60.8-8.1,15.7-1.6,55.3,8,77.1,8.1,35.4,0,72.2-7.4,108.9-1.2l6.7-10.9c3.4.1-.9,17.6,20.9,12,8.4-21.2,6.7-3.2,16.9-1.9,23.5,3.2,38.3-3.4,37.2-29-35.2-2.3-71.6-4.3-107.2-4.6-125.3-1.3-253.4-.8-378.9,1.3-94.6,1.6-194,8.8-290.6,14.9,4,9.7,8.2,19.3,12.7,28.8l103.1-1.4.9-21.9Z"/>
  <path d="M241.5,945.6c25.4-2.6,24.1,2.1,37.4,1.4,7.2-.4,48.1-8.9,43.5-19.4l7.7,17.1,43.7,1.4,19.3-4.6c-18,.2-25.4,3.5-21.3-17.4l-11.1,5.2-2.3-17c-19.8,1.2-40.8-3.2-60.3-2.3-16.8.8-51.7-.2-52.9,20l-5.2-16.1-21.5-1.4,5.1,11.1c-30.2-17.7-56.3,1.5-80.4,2.1-15.6.4-31.4.2-47.4-.1,5.3,8.3,10.9,16.4,16.6,24.3,1.1,0,2.2-.1,3.3-.2,42-2,81.1.7,125.8-4Z"/>
  <path d="M526.2,1182.8l-15.5-22.5,19.5-4.7,1.6,27.5,170.3,1.4c-5.6-15.2-23.8-17.6-37.7-18l11.6-15.9-29.9-1.6-3.7,16.7-13.1-12c-86.2,1-173.9-2.5-260.3.3,34.4,14.4,70.4,25.6,107.7,33.4,4.6-.2,9.1-.4,13.6-.7,11-.7,19.3-15.1,36-3.8Z"/>
  <path d="M468,993.8c-8.5-20.5,9-10.5,10.5-11.8,2.7-2.3,3.4-9.6,6.1-13.2-2.4-22.2-12-4.9-17.8-5.1-50.9-1.3-109.9,2.5-154.2-3.3-40.8-5.4-89.7,8.8-131.6,5l-3.8,16.7-5.9-9.9c-10.5,3.9-8.4,2.5-12.2-6.7-10.6,1.7-21.2,3-31.9,4.1,8.3,10.6,17,20.9,25.9,30.9,60.6-4.3,121.1-8.1,181.7-9.6l133.2,3Z"/>
  <path d="M1062.1,910.6c-21.5.1-48.9-7.6-71.6-5.8-10.5.9-7.9,10.7-10.7,10.4-33.1-3.4-70.5-12.8-104.8-9.6-10.6,1-7.8,11.1-11.5,11.1-10.2,0-25.1-8.6-43.3-7.6-14.4.8-26.4,9.2-40.8,10.2l-1.7,21.2,104.5-1.2.9-22c13.3-.4,22.4,11,15.5,22.5l175.8,1.7,1.1-27.4,4.6,22.1,5.9-10.7,11.3,9.8c5.4-7.9,10.5-16,15.5-24.2-14.5-.6-30-.8-51-.6Z"/>
  <path d="M600.2,988.2l6.1-10.5,13.7-5.2,5,17c23.3-4.6,66,13.9,76.6-7.6l46.8,6.7-7.5-16.8c17.2,13,47.6,33.6,60,8,22.2,29.3,36.5,1.4,38.8,1.4,5.3,0,13.5,6.1,21.3,6.5,21,1.1,42.1,1.6,63.1,2.5l-10.1-33.1-318.5,6.1,4.5,24.8Z"/>
  <path d="M644,924l13.7.7-6.1,16.1c14-1.3,32.8,4.4,45.6,1.8,4.2-.9,3.7-9.9,8-10.6,9.2-1.6,50.3,13.5,56.3,7.8l1.4-32.8c-5.5-3.1-65.3-3-61.1,13.9l-5.3-.2c.4-21.9-29.9-14.4-36,4-9.9-4.4-1.4-16-2.1-16.4-5.7-3.7-40.7,5-49,6-23.1,2.8-24.2,7.6-25.8,7.6-9.4-.5-19.1-17.1-43.2-13.3l-3.7,16.6-18.5-17.6-98.9,1.9-31,17.8c22.9,18,47.9,17.6,79.1,17.3,11.6-.1,51.6-1.5,59.6-3.2,5.2-1.1,3.6-10.5,4.1-10.8,1.5-1.1,13.4,14.2,29.6,12.1l3.7-21.8,4.5,22.2c24.2-2.2,64.2,5.6,75-19.1Z"/>
  <path d="M548.7,969.7l-2.2-11.1c-24.6-3.5-49.4-1.9-61.3,22.2l18.7,9.2,3.3-11,12.8,11.9,69.2-3.2-10.1-22.3,11.2-5c-17.2,1.2-35.7-9.8-41.6,9.3Z"/>
  <path d="M791.4,1149.8l-71.6,2.6c-1.5,20.7,8.4,29.8,21.3,30.9,9.3-2.2,18.4-4.7,27.5-7.3,10.1-6,18.9-15.2,22.7-26.2Z"/>
</svg>