<?xml version="1.0" encoding="UTF-8"?>
<svg id="Layer_1" xmlns="http://www.w3.org/2000/svg" version="1.1" viewBox="0 0 1200 1200">
  <!-- Generator: Adobe Illustrator 29.0.0, SVG Export Plug-In . SVG Version: 2.1.0 Build 186)  -->
  <path d="M770.8,1123.4c-8.6,3.1-14.4,24.7-34.2,19.3l9-21.7c-16.6-5.7-23.2,9.5-24.7,9.4-3.5-.3-9.7-5.6-16.9-5.8-19-.4-63.8-5.6-75.8-3-6.3,1.4-1.6,11.2-6.7,10.9-4.6-22.3-31.2-7.1-48.9-7.3-87-1.3-174.3-6.7-260.8-10.8,6.5,11.2,13.7,18.5,21.6,23.4,3.5,1.7,7,3.4,10.5,5.1,17.7,6.4,38.3,4.9,61.7,8.6l4.1-11.1,7.7,11.3,8.6-10.7,2.3,11.1c6.9-23.9,18.4-2.5,30.2-.9,42.7,5.7,131,4.1,178.4,4.2,13.7,0,34.9,4.3,38.9-9.9,5,21.9,45.3,5.4,65.7,5.7,27.3.4,55.7,2.4,84.5,4.7,20.4-8.3,40.3-17.7,59.5-28.1-32.2,4.5-90.8-13-114.8-4.4Z"/>
  <path d="M817.5,1041.5l-10.2-12.1-38.9,10.3,5.7-11.1-247.4-5-11,11.1c-5.1.6-.7-8-3.3-9.8-11.2-7.8-117.8,3.3-141.6-7.1l4.8,16.6c-13.7-11.1-14.2,2.7-17.1,15.8l38.4,1.5-4.8-16.6,22.1-4.6c4.7,10.1-6.4,21.9,7.5,22.4,18.8.7,25.2,0,25.6-21.1,23.6,23,51.6,24.2,83.7,25.6,46.4,2,91.8-3.3,137.9-2.4,57.1,1.1,115.5,7.1,172.6,9.4l.7-16.5,27.4,1.2-6.1,16.2c38-3.3,76.8-1.8,115.4,0,13.1-10.7,25.8-21.9,37.9-33.7-35.1,1.2-70.3,2.2-105.5,2.6-28.6.3-71.1-7.8-93.7,7.2Z"/>
  <path d="M938.2,890.6c-14.4-.3-77.1-11.6-84-6.8l4.8,16.6c-5.2-6.3-28.9-13.2-35.4-11.8-5.3,1.2.7,12.7-8.4,10l-2.3-16.9-68.3,3.4-6.9,26.8c85.1-2.6,169.7,10.4,255,10.4,38,0,76.5-1.1,115.2-2.8,7.5-11.9,14.6-24.2,21.3-36.6-63.5,4.9-127,9.1-191,7.7Z"/>
  <path d="M872,785.2c-21.2,0-77.6-.6-93.7,2-9.8,1.6-13.3,5.8-14.3,16l-7.7-17.1c-118.6-3.8-237.7,2.9-356.9,0-119.1-3-254-21.6-375.5-18,2.9,10,6.1,20,9.5,29.8,25.5,2.2,79.8,9.7,88.3,4.2l5.9-19.3c21.6-.2-.5,18.4,28.9,23.4,24.7,4.2,56.1-.6,81.8,3.2l6.7-10.9c5.1-.6.7,8,3.3,9.8,6.8,4.8,148.4,9.7,166.4,8.3,18.1-1.4,23.7-9.3,38.8-15.1l7.9,11.3-11.2,5,62.3,2.7,6.7-10.9,5,11.2c18.2-16.3,42.4,2.2,65.4-3.6l7.1-20.9c17.1-2.1,11.3,9.8,16.8,11.2,15.9,4.1,57.7,7.9,75.5,9.1,27.3,1.8,78.1,12.8,88.7-12.9l5,17,29.9.8-4.8-16.6c32.6,30.3,73.9,12.5,112.4,13.4,45.7,1.1,66.8,7.9,109.7-3.6,2.4-.6,36.9,7.3,49.2,6.8,26.4-1.2,53.4-3.3,80.7-5.8,4.6-11.8,8.7-23.8,12.6-35.9-10.2,3.4-19.2,8.2-25.9,8.6-91.7,6.4-181.2-3.3-274.5-3.4Z"/>
  <path d="M920.4,1078.5c-54.7-4.8-105,10.9-148.6,10.8-3.6,0,.5-10.4-10.1-12.1-28.8-4.6-126.6-8.5-154.4-6.3-11,.9-3.9,4.2-32.7,4.1-101.4-.2-221.2-18.3-318.4-12.7-6,.3-12.5-.5-16.8,4.9l1.3,13.2c7,5.3,14.2,10.4,21.4,15.3,47.3,2.2,94.6,3.1,141.5.2,5.5-.3,11.8,3,16.6,5.8l5.5-10.3,5.8,11.4,265.5,5.1,6.1-16.2,1.9,16c23.5-3.5,114.4,12.5,128.2,4.4,2.8-1.6-.9-10.5,4.1-9.5l3.2,10,56.6-1.6,3.8-16.7,10.4,11.3,3.7-21.8,2.6,21.3c.4.8,1.5,1.5,3,2.2,12.3-7.8,24.2-15.9,35.9-24.5-10.7,1.3-21.1,4.7-30.9,12.4-8.5-6.1,13.7-15.2-4.9-16.8Z"/>
  <path d="M216,1061c2.4,2,4.7,3.9,7.1,5.8l3-5.4-10.1-.4Z"/>
  <path d="M825.5,844.8l-10-11.6c-14.5,5.6-23.2,1.4-20.5,20.7-8.4,2.2-4.4-9.9-10.2-14.2-4.8-3.6-102.2-9.4-111.7-7.2-5.4,1.2-2.6,12.7-6.7,10.7-14.5-6.9-48.4-23.9-52.5,3.4l-13.4-17.2c-65.2,8.4-131.1,6.7-196.7,3l-4.1,10.9-8.5-11.4h-67.8s7.4,25.4,7.4,25.4c35-5.6,246.1,17.9,259.6,3.5l1.6-15.1c15.1-4.5,9.6,10.4,15.6,14.4,14.6,9.8,141.5,4.7,167.7,5.1,118.9,2.2,242.1,9.9,363.2-.3,5.2-10.5,10-21.1,14.6-31.9-34.8,1.8-69,3.1-102.1,3.7-74.4,1.3-155-5.3-225.6,8.1Z"/>
  <path d="M1037,935l-9.4,10.7c3.3-20.8-25-10.4-35.9-1.4l-18.6-11.7,10.5,11.3-19.7,4.1c-2.7,0,.5-9.5-9.8-11.2-7.2-1.2-93.6-4.7-98.4-3.7-6.2,1.3-1.6,11.1-6.7,10.9l-5.8-11.6c-18.3,5.1-38-3.1-54.2-2.5-9.1.3-11.9,19.1-30.5,10.3l11.4-10.4-24.4-1.4-6.4,16.5c-14.9-9.4-11.7-19.7-32.3-18.2-24.9,24.2-22.6,6.4-38.8,4.7-36.8-3.8-79.6-3.7-115.2,3.3l-81.6-6.3-6.7,10.9c-5.3.2-.2-8.1-4.8-10.2-24-11.1-103.7,2.1-134.6-6.5-2.7,41.1-17.1,5.4-22,2-7-4.8-161.8-12.6-169.2-8.4-2.8,1.6.9,10.5-4.1,9.5l-10.1-12c-9.8,1.2-20,1.6-30.4,1.5,6.5,10.5,13.2,20.7,20.3,30.7,10.4,5,24.6,2.2,39.1-.1v-13.9c18.8,4.4,13.7,25.3,43.3,18.1l-2.1-16.5,29.5,17.6-4.6-22.1,22.1-4.6-16.9,10.3,12.8,17.4c28.7-5.4,73.2,7.4,99,3.6,11.7-1.8,28-23.8,41.9-14.6,1,.7-11.4,13,7.5,16.8,9.5,1.9,20.4.1,30.2,1.1l-10.5-11.3,33.1-4.2-6,10.6,49,7.1c3.5-3-7.3-21.3,14.8-15.7,13.3,3.4,9.9,12.9,14.1,16.2,5.1,4.1,119.4.4,130.9-1.5,10.9-1.8,26-13.7,35.7-12.9,3.3.3,0,10.3,10.5,12.2,10.2,1.8,100.5,5.8,109.3,4.2,4.4-.8,3.5-11.3,6.8-11.1,88.6,20.2,182.3,20.4,275,14.9,8.4-10.9,16.5-22.1,24.2-33.5-20.4,1.2-40.9,1.7-61.5.9Z"/>
  <path d="M578.7,1174.5l32.5,9.6-9.9,15.9c62.7-.1,123.2-9.9,180-27.8l-95.4-4.4-107.2,6.8Z"/>
  <path d="M572.4,1190.9c-13.5,1.1-13.1-15.8-21-20.4-11.9-6.9-39.8,1.6-54.9-4.7l2.4,11-14,4.9.4-16.4-90.7-1.4c53.9,19.6,111.5,31.8,171.4,35.1,3-1.4,5.3-3.8,6.4-8.2Z"/>
  <path d="M830.6,992.8c-6.2-22.3-46.1-4-68.1-13.9,4.9,9.9,16.3,5.6,10.1,24.5l-11.5,8.3c68.7-.2,137.4,8.1,206,8.6,20.5.2,41,0,61.5-.4,9.5-9.7,18.7-19.7,27.5-30-73.7-5.6-155.2-16.1-225.5,3Z"/>
  <path d="M191.1,848.3c6.4-1.9,13.5-17.1,22.3-18.1l-11.6,18.7c2.6,2.9,4.7,6.4,8.6,7.8,6.3,2.2,107.8,3.6,111.9-.2l-13-28.3-268.7-10.7c4.5,11.5,9.3,22.9,14.5,34l100,4.2c15.4-18.8,24.8-4.1,36-7.5Z"/>
  <path d="M213.8,890.6c2.4,17.9,56.1,19.9,60.3,2.5,8.3,12.6,21.2,12.9,35.3,12.3l-4.9-16.6-22,4.6.8-22c-14.7,8.1-31.3-2.9-36.3,15.1-5.4-.4,2.7-9.8-10.1-11.9-20.5-3.4-145.6-9.1-164.9-6.1-1.8.3-4.3,1.5-7,3.1,4.3,8.4,8.8,16.8,13.4,25l128.8,5.2,6.7-11.1Z"/>
  <path d="M165.6,993l-13.2-11.5c19.1-.6,37.5-28.1,38,12.5l-16.7,4.8c18.7,9.1,46.6-8.3,58.4-8.6,8.9-.2,38.3,7.1,54.3,7.5,39.1,1,78.9,1.9,117.9,5.1l3.6-21.8,10.7,22.7,105.5,3.1,12.9-26-414.4-17.1c9,11.8,18.4,23.2,28.2,34.3,3,.2,6,.4,8.9.6,5.4.4,13.6.5,5.7-5.5Z"/>
  <path d="M310.4,880.8l16,9.1-.4,10.8-11.1,5,137.2,5.6-2.3-11.1,19.2.9-6,10.6,27.5,1.1-5.1-11.1,13.7.4c6.5,25.6,59.7,5.6,76.5,5.8,44.4.4,91.2,8.6,136,7.6l15.5-12.3c-12.8-.5-8.3-15.9-10.8-18.7-4.5-4.9-127.4-4.5-133.1-1-5,3.1-1.8,10.2-6.8,10.9-12.2,1.7-6.2-7.8-9-9.8-9.7-7.1-107.6-2-129.4-2.9-37.5-1.5-75.4-9.8-113.5-8.5-8.2.3-15.7-4.9-13.9,7.6Z"/>
  <path d="M344.3,1050l10-32.8c-19.6-1.3-39.5-1.2-59-.7-9.1.2-34.7,5-42.7,4.8-16.9-.3-51.4-4-86.6-7,10.7,11.2,21.8,22,33.4,32.4,48,1.1,101.6-3.7,144.9,3.4Z"/>
  <path d="M680.1,975.6c5.6,10-2.1,28.1-14.8,26.9l-7.5-13.7-10.9,1.4.2-15.9c-17.8,9.9-62.7-.4-73.6,2.9-10.1,3.1-7,15.7-11.1,19.7-6.3,6.2-29.9-.6-32.1,11,40.6,8,80.6-3,119.2-4,25.6-.7,84.9,22.5,67.9-25.9l-37.5-2.3Z"/>
</svg>