<?xml version="1.0" encoding="UTF-8"?>
<svg id="Layer_1" xmlns="http://www.w3.org/2000/svg" version="1.1" viewBox="0 0 1200 1200">
  <!-- Generator: Adobe Illustrator 29.0.0, SVG Export Plug-In . SVG Version: 2.1.0 Build 186)  -->
  <path d="M1033.1,808.7l-2.8,16.6c-14.5,2.3-20.2-2.7-22-16.5h-8c-23.1,31.7-25.3,1.1-38.2-.4-33.8-4-141.3-3.6-176.3-.2-10.8,1-7.1,11.9-10.7,11.8-7.6-.3-14.9-10.4-32.9-11.6-15.9-1.1-49.5,4.7-60.4,16.9l-10.5-11.5c-70.8-5.7-138.7,12.8-208.2,5.7l-6.3,11.3c-3.5-16.8-44.4-9.2-63.1-8.8-27.2.7-60.8,7.7-91.1,2.7l-10.6,11.5-2.7-11c-14.5,0-26.4-5.2-30.3,11h-13.7c0-.1,5.6-11,5.6-11-19.1,2.9-55.5-7.4-62.9,10.4l-16.2-5.4c-5.5,17.5-22.2.3-33.5,22.3l-10.9-16.5c-6.7,1.6-3.8,24.7,5.2,26.2,34.5-18.2,86.3,5.8,104.5-31.6,10.2,3.5.9,15.7,5.5,16.4,41.5,5.7,87-8.2,129.1,0l-2.7-11c11.8-3.5,6.3,8.2,10.7,9.9,16,6.3,54.8-2.5,72.2-4,16.3-1.4,15.8,11.9,32.2-6.4,28.7,20.7,66.8,4.6,98.8,3.4,28.2-1.1,56.9,4.7,85.3,2.5l-2.7-11,16,11.5,143-.3c8.1-40.8,22.6-2.4,27.2-1.6,4.3.8,83.2-2.8,87.4-3.8,5.8-1.4,1.3-10.6,6.4-11.3,12.4-2.7,6.3,7.5,9.3,9.6,10.5,7.4,130.9-1.4,154.8-1.8,7.8-.1,24.9,1.2,42.7,2.3,4.8-11.2,9.2-22.5,13.3-34-37.9.8-74.9,3-110.1,7.8-14.8,2-16.9,21.4-22.1-.3Z"/>
  <path d="M849.2,1110.4l-16.4,11h64.3c1.8-1,3.7-2.1,5.5-3.2l-9.4-18.7h27.5s-3.3,9.7-3.3,9.7c10.5-6.5,20.7-13.4,30.7-20.5l-109.8,5.3,10.9,16.3Z"/>
  <path d="M1011.2,945.9c-2,.3-1,15.8-2.8,22,17.4,4.6,37.2,14.7,55.6,12.5,9.4-11.5,18.4-23.3,27-35.5-28.3-1.7-55.8-2.6-79.8,1Z"/>
  <path d="M380.2,984.8c10.9-1.5,7-11.8,10.6-11.7,7.4.3,13.9,9.7,27.1,11.5,46.7,6.5,187.1,5.1,236.7.3,10.8-1,7-12,10.7-11.8,7.2.4,11.9,8.4,16.2,8.6,24.4,1.1,56.1-7.1,82.2-2.5l5.8-17,19.2.2-.5,13.9,216.9,2.8c6.5-.3,2.2-7.8,3.2-11.2-5.8-1.5-15.2,1.1-22,0l8.1-22c-21.2,5.2-49.8,1.6-65.8,16.5l-10.5-11.5c-61.2,5.9-127.2-3.3-187.4.2-23.9,1.4-12.9,2.6-38.3.6-41.9-3.3-54.6,10.6-82.2,13.5-16.7,1.8-68.7-8.5-93.3-8.5-44.8,0-89.4,6-131.6,8.3-21.8,1.1-67.4-14.5-77.2,8.5l-2.7-11-16.3,4.2-3,6.8c0-16.5-43.4-13-54.9-9.7-6.2,1.8-15.1,24.5-38.4,3.9l-5.8,11.5c-7.8-5.4-32.4-5.7-55.3-3.6,6.7,8.4,13.7,16.5,20.8,24.5,34.6-3.2,90.6-14.3,111.8-15.6,36.2-2.2,82,4.9,115.6.4Z"/>
  <path d="M509,1193.1c2.8.4,5.7.8,8.6,1.2l-.6-1.9c-2.6.3-5.3.5-7.9.7Z"/>
  <path d="M644.1,1187.2l-6.3,11.2c-3.2-17.2-43.3-12.7-60.6-11.3-15.1,1.3-22.4,5.8-29.9,10.6,17.3,1.5,34.9,2.3,52.6,2.3,34.3,0,68-2.9,100.8-8.4-15.1-10-34.4-2.5-56.6-4.4Z"/>
  <path d="M709.7,1190c3.4-.6,6.8-1.3,10.2-2-3.6-.2-7.1-.4-10.7-.7l.4,2.7Z"/>
  <path d="M1033.2,869.3l-19.2-.2,5.5-16.4-339.4,6.8-3.7,9.7c-5.1.3,1.2-17.5-13.7-10.9l-2.4,10.4-55.3-5,2.7,16.5-29.9-16.8-159.2,5.5-3.5,16.1-16,6.1c24.8-2.5,135.9,5.9,147.3-1.3,2.7-1.7-1.3-10.5,3.7-9.7l10.8,11.7,208.6-5.7,3-16.9,27.5,2.7v13.8c0,0,327.7.4,327.7.4,5.9-10.9,11.5-22.1,16.8-33.4h-108.5c0,.1-2.8,16.8-2.8,16.8Z"/>
  <path d="M923.3,918.5l-19.3-2.9,2.8-13.6c-9-1.9-110-1.1-115.3,1.1-4.1,1.7-8.8,19.5-27.3,15.4l-.2-16.6c-59.7,13.7-122.9,3.4-183.9,5.6l2.8,11c-41.2-14.4-92.4-4.1-137.2-3.1-28.7.6-64.9-6.4-93.7-2.8-10.7,1.3-8.1,10.9-10.6,11.5-16.1,4-12.2-9.8-17.4-11-25.4-5.8-143.2,7.9-223.3,19.7,5.6,8.4,11.4,16.7,17.5,24.8l8.2-1.1c39-14.2,110.4,2.3,130.1-37.9l10.5,19.6,225.5,2.3-5.4-21.9c11.1,5.3,17.9,3.6,13.9,16.4h178.2s-2.7-16.5-2.7-16.5h24.7c0,0-5.5,16.4-5.5,16.4,60.3-8.5,137.5,8.3,195.3.5,13.4-1.8-2-5.8,32.8-5.7,44.7.2,89.4-3,134.3-.3l-2.7-11,16,11.5h30.1c6-9.1,11.8-18.5,17.3-27.9h-203.4c0,0,8.2,16.5,8.2,16.5Z"/>
  <path d="M1022.1,1006.3c-5.1-19.7-33.2-13.4-43.9,0l-10.5-11.5-126.7.5,2.8,13.6-19.3,2.9,8.2-16.4c-18.7-3.8-25.3,7.1-38.4,16.4l-2.7-16.4c-20.1,11.4-41.8,8.2-63.2,5.4,15.9,48.8,75.3,17.7,115.3,27.4l-5.6-10.9h13.7c6.5,21.9,43.1,6.8,63.2,10.9-10.6-34.1,43.8-1.6,63,.2,11.4,1.1,26.3,1.4,40.8,1.2,11.4-11.1,22.3-22.6,32.8-34.6h-7.8s-21.7,11.3-21.7,11.3Z"/>
  <path d="M728.1,1048.3c-9.9.4-20-4.6-29.8-4-15.4,1-25,13.3-41.3,5.9l2.7,11c-15,3.8-19.7-10.6-27-11.4-15.8-1.8-52.4-5-55.2,11.4-20.3-20.3-73.4-15.5-87.6,10.3l-19.5-4.9,11-16.3c-51.4,7.3-112.1-3.4-162,2.6-4.6.6-8.1,4.8-11,8.2l-5.3-11c-15.1,17.3-31.1,3.6-49.2,5.3-11.4,1.1-25.3,3.4-38,5.5,8.4,7,17,13.8,25.8,20.4,21.5-2.9,43-5.4,64.2-6.7,17.4-1,60.6,14.7,60.3-7.9l32,9.6,3.5-9.8,10.8,11.7,41.4-.7-2.8-11c9.1.5,12.1,9.1,22,10.9,13.3,2.4,91.4,1.9,109.8.7,11.1-.7,5.7-12.7,16.1-12.2,12.3.7,19.8,10.6,32.9,12,24.9,2.8,64.9-6.2,92.7-.4l6.3-11.2c4.3,18.4,19.6,9.8,35.7,11-5.9-36.4,19-5.7,24.3-5,55.3,7,120.1-.7,181.8-2.5,10.3-8.2,20.4-16.7,30.1-25.6-91.8-.3-183.9.4-275,3.9Z"/>
  <path d="M732,1137.6l-6.3,11.4c-5.2.7-1.4-7.4-3.6-9.9-1.5-1.7-39.5,4.1-45.5,4.8-13.5,1.6-13.8,15.7-33.2-.6l-11.1,16.6v-16.5c-61.9,8.5-137.9-8.5-197.9-.2-13.2,1.8-16.1,8-27.1,11.3l2.8-11c-17.9,4.6-43.7-.9-65.5-.4,14.3,6.7,29,12.9,43.9,18.6.4-1,1.1-1.7,2.4-1.8,8.4-1.7,8.3,2.4,8.6,5.8,5.9,2.1,11.9,4.1,17.9,6,22.3,1,59.3-.6,72.6-.5,16.1,0,27-.1,43.3,0,80.7.5,161.3-2.2,242,.1l19-16.9,2.2,12.7c24-8.3,47.4-18.1,69.9-29.3-44.9.5-89.8,3.4-134.4-.2Z"/>
  <path d="M187.9,893.2c13.6-1,58.1,9.3,76.9,2.3,4-1.5,1.7-9.2,2.6-9.7,12-7.5,10.3,9.1,13.5,10.1,3.9,1.3,78.5.6,82.5-.1,2.7-.5,2.4-8,3.6-8.4,5.9-2.1,21.1,7.6,26.5-12.6-10.1-2.5-19.3-5.1-29.9-5.8-94.9-6.5-203.2,9.1-288.2,22.6,4.7,8.4,9.5,16.6,14.6,24.8,23.1-3,50.3-7.6,68.9-9.9,11.7-1.5,22.9-12.7,28.9-13.1Z"/>
  <path d="M578.2,1000.7l-6.3,11.2c-5.2.7-1.4-7.4-3.6-9.9-2.5-2.7-60.4,6.5-73.3,6.7-13.3.3-74.7-6.4-79.6-2.4l5.5,16.4c-8,6.7-30-16.5-35.4-17-17.9-1.6-43,13.3-55.2,10.5-3.5-.8-.6-9.2-10.6-10.3-26.2-3-54.4,5-80,8.7,11.7,15.1,29.7-1.7,45.5,2.5,5.6,1.5,5.2,11.6,11.9,15.1,12,6.2,103.9-8.5,125.9,1.7l6.1-11.1,3.2,10.2,40,.9,6.1-11.2,5,10.5c17.4-7.5,37.2-5.1,55.7-7.6,7.2-1,14.6-8.6,21.4-8.6,3.2,0,.4,10.9,10.9,11.9,12.4,1.2,24.2-4.3,34.2-4,33.4.8,67.4,1.3,100.6,3.4l-9-26.9-119.2-.7Z"/>
  <path d="M453.9,1121.5l-9.2-22.1-117.1.3,2.7,11c-11.3,3.5-6.9-8-9.4-9.5-3.7-2.2-24.6-1.3-49.8.9,9.5,6.2,19.2,12.2,29,17.9,4.6-.4,9.1-.6,13.7-.8,45.9-1.8,93.9,4.9,140,2.4Z"/>
  <path d="M233.1,1031.2l-4.7-19.1-56.6,8.2c7.7,7.8,15.6,15.5,23.7,22.9,11.1-1,21.3-2.5,29.8-4.8,3.8-1,6.6-3.4,7.8-7.2Z"/>
  <path d="M759.4,1093.9l-6.3,11.2-6.3-11.3-78.8.3,5.4,21.9c-12.2.4-21.5-20.8-25.8-22-13.8-3.7-50.1-2.7-59.3,11-4.8.7-1.3-7.9-3.8-9.5-6.6-4.1-103.7,1.8-103.2,25.9h345.9c-2.4-39-39.2-25.7-67.8-27.5Z"/>
  <path d="M107.9,852.8c-13.6-3.8-14.1-16.8-32.5-10.8l-.4,16.2c-9.1,2.4-2.5-9.8-9-11.2-1.2-.3-6.3,0-12.8.6,2.7,6,5.5,11.9,8.4,17.8l43.5-1.5,2.7-10.9Z"/>
</svg>