<?xml version="1.0" encoding="UTF-8"?>
<svg id="Layer_1" xmlns="http://www.w3.org/2000/svg" version="1.1" viewBox="0 0 1200 1200">
  <!-- Generator: Adobe Illustrator 29.0.0, SVG Export Plug-In . SVG Version: 2.1.0 Build 186)  -->
  <path d="M843.6,52.2c-11.9,16-14.2,51.5-34.1,87.7-19.9,36.3-64.9,75.1-108,77.4-107.6,5.8-114.2-142.2-93.4-217.2-2.7,0-5.5,0-8.2,0-15.9,0-31.6.6-47.1,1.9,3.6,48.5-35,194.6-87.5,202.2-73.3,10.6-103.6-84.4-131.4-140.2C165.8,149.3,42.9,312.1,10.2,500.1c56.4-45.6,104.7-88.7,194.4-79.2,72.1,7.7,103.2,77.6,162.3,92.7,72.4,18.5,162.9-10.3,229.6-38.5,28.4-12.1,67.8-54.2,130.7-54.2s83.8,37.3,116.1,56.3c20.4,12,40.1,23.3,59.5,33.3,74.5,38.2,144.7,55.6,235,8.7,6-3.1,27.8-19,49.2-35.5-38.1-191.9-168.4-352.6-343.4-431.4Z"/>
  <path d="M749.6,124.7c51.8-32.4-26.3-80.6-63.7-54.2-1.5,27.5,37.2,70.8,63.7,54.2Z"/>
  <path d="M466.2,114.9c10-40.3-43.7-64.9-66.3-27.3-1.9,7.8,1.8,19.9,7.2,25.7,11.4,12.4,49.6,22.5,59.1,1.5Z"/>
</svg>