<?xml version="1.0" encoding="UTF-8"?>
<svg id="Layer_1" xmlns="http://www.w3.org/2000/svg" version="1.1" viewBox="0 0 1200 1200">
  <!-- Generator: Adobe Illustrator 29.0.0, SVG Export Plug-In . SVG Version: 2.1.0 Build 186)  -->
  <path d="M849.7,53.2c-17.7,24-18.5,63.6-39.4,87.1-35.7,40.3-112.3,82.6-152.5,24.8-19.4-27.9-12.1-124.3-34-166.2-7.9-.3-15.9-.5-23.8-.5-11.5,0-23,.3-34.4,1-25.7,50.3-11.6,180.5-81,198.7-55.1,14.4-136.5-5.9-169.1-55-13-19.6-12.9-38.6-25.6-56.3C132.8,183.8,23,350.9,3.2,539c36.8-43,82.4-116.7,177.5-116.7s167.1,110.9,281.9,110.9,125.3-114.6,261.6-115.2c136.3-.5,135.1,134,301,134,26.8.5,110.6-31.2,165.5-57.4-34.9-195.4-164.9-359.9-341-441.3Z"/>
  <path d="M765.7,92c0-36.6-83.9-13.8-63.4,21.4,20.5,35.2,63.4,15.3,63.4-21.4Z"/>
  <path d="M462.8,94.1c-29.2-29.2-60,3.6-44.7,35,15.3,31.3,74-5.7,44.7-35Z"/>
</svg>