<?xml version="1.0" encoding="UTF-8"?>
<svg id="Layer_1" xmlns="http://www.w3.org/2000/svg" version="1.1" viewBox="0 0 1200 1200">
  <!-- Generator: Adobe Illustrator 29.0.0, SVG Export Plug-In . SVG Version: 2.1.0 Build 186)  -->
  <path d="M908.3,84.4c-20.6,16-39.7,43.8-53.2,55-56.9,47.4-116.8,60.9-189.1,41.8-24.6-6.5-50.7-41.7-55.6-65.8-4.8-23.3,3.6-79.7-4.5-117-1.9,0-3.9,0-5.8,0-20.4,0-40.6,1.1-60.5,3.1-9.5,39.5-5.1,97.5-7.8,115-14.4,94.6-147,62.9-200.9,22.8-14.2-10.6-30-36-46-49.3C145.6,177.8,44.4,321.1,11.5,484.8c36.2-25.2,81.6-59.9,108.9-62.1,133.1-11,205.4,138.9,350.5,118.8,72.1-10,167.6-85.9,237.9-113.2,48.9-19,96-4.5,144.7,13.4,120.9,44.3,197.6,126.6,341.2,79.3-24.5-184.2-133.1-343.7-286.4-436.5Z"/>
  <path d="M761.5,82.6c-28.2-15.6-51.5,7-47.6,37.6,26.3,25.8,57.1-6.7,47.6-37.6Z"/>
  <path d="M436,78.3c-10.4,12.6-11.1,27-6,41.7,46.6,5.7,67.9-58,6-41.7Z"/>
</svg>