<?xml version="1.0" encoding="UTF-8"?>
<svg id="Layer_1" xmlns="http://www.w3.org/2000/svg" version="1.1" viewBox="0 0 1200 1200">
  <!-- Generator: Adobe Illustrator 29.0.0, SVG Export Plug-In . SVG Version: 2.1.0 Build 186)  -->
  <path d="M877.1,66.8c-21.5,34.1-27.3,94.6-47.5,113.5-18.6,17.3-66.4,26.9-91.1,21.3-59.4-13.5-60.2-139.3-85.8-200.8-17.4-1.5-34.9-2.3-52.7-2.3s-12.6.1-18.8.3c-22.9,46.8-37,127.9-51.6,143.5-16,17.1-68,36.4-91.1,33.8-57.9-6.6-82.8-88-116.9-94.6-6.3-1.2-13.1-1.7-20.3-1.5C139.4,175.1,25.4,343.6,3.7,534.1c63.8-46.6,101.3-140.5,184.7-110.2,50.1,18.2,98.4,104.6,161.6,121.3,121.6,32,183.8-56.2,284.5-99.8,141.3-61.2,148.4,36,265.8,73.6,94.7,30.3,144.5,19.4,237.6-4.8,9.4-2.4,30.1-7.5,53.5-14.8-31.8-187.3-150.9-346.7-314.4-432.7Z"/>
  <path d="M768.9,132.5c43.8-7.9,47.2-87.1-11.3-69.1-22.1,6.8-45.9,79.4,11.3,69.1Z"/>
  <path d="M461.9,126.4c43.6-6.3,47.4-79.4-11.1-63.3-24.7,6.8-38,70.4,11.1,63.3Z"/>
</svg>