<?xml version="1.0" encoding="UTF-8"?>
<svg id="Layer_1" xmlns="http://www.w3.org/2000/svg" version="1.1" viewBox="0 0 1200 1200">
  <!-- Generator: Adobe Illustrator 29.0.0, SVG Export Plug-In . SVG Version: 2.1.0 Build 186)  -->
  <path d="M908.9,84.7c-41.7,39.6-111.2,126.3-159.8,135.8-47.7,9.3-105-70.3-103.3-116.5.6-14.8-1.4-79.1-.2-94.2.3-3.4.3-6.6.2-9.7-15.1-1.2-30.4-1.7-45.8-1.7s-26.2.4-39.1,1.3c-10,39.1,12.1,111.2-15.2,151.3-27.2,39.9-128.9,77.8-173.9,66.6-62.7-15.5-62.9-102.8-107.4-114.1C143.4,186.8,54.1,312.9,17.8,456.8c21.9-11.3,42.1-20.6,49.9-23,139.1-42.1,152.6,70.3,271.9,102.9,157.5,43,285.3-163.1,479.8-105.2,127.1,37.9,234.3,115.7,374.1,80.7-26.6-180.3-134-336.1-284.7-427.5Z"/>
  <path d="M733.8,143.8c35.5,8.1,42.3-41.7,27.3-56.1-15-14.5-62.9,48-27.3,56.1Z"/>
  <path d="M406.9,145.3c28.6,9.8,39.1-1,53.8-9.3,35.3-20.1-23.9-55.6-45.5-42.5-21.5,13.1-36.9,42-8.3,51.8Z"/>
</svg>