<?xml version="1.0" encoding="UTF-8"?>
<svg id="Layer_1" xmlns="http://www.w3.org/2000/svg" version="1.1" viewBox="0 0 1200 1200">
  <!-- Generator: Adobe Illustrator 29.0.0, SVG Export Plug-In . SVG Version: 2.1.0 Build 186)  -->
  <path d="M906.6,83.4c-12.2-1.7-23.9-3.4-35.5,7.8-6.9,6.7-16.3,32.1-27.9,45.6-39.5,46-82.8,68.2-140.3,34.3-47-27.7-.9-125.6-21.8-167.1-26.5-3.6-53.6-5.5-81.2-5.5s-37.2.9-55.5,2.6c-8.3,25-6.2,59.4-7.9,80.4-3.4,41.3-65.8,121-110.5,120.2-36.9-.6-124.5-41-141.5-75.6-4.2-8.6-5.8-19.9-8.2-30.7C156.5,173.9,65.9,293.8,24.6,432.1c7.6-.7,16.6-.7,27.5,0,78.2,5.4,147.2,130.9,260.6,135.3,190.6,7.5,252.8-147.8,417.2-148.7,70.4-.4,161.4,60.9,229.4,86.5,78.6,29.6,156.5,47.6,238.9,48.1-15.4-198.5-128.3-372-291.6-470Z"/>
  <path d="M739,121.4c1.7,4,4.9,7.2,8.8,9.1,10.4,4.9,20.9,6.4,29.9,2,8.3-4,11.7-14.1,8.2-22.6l-3-7.2c-2.8-6.6-9.2-10.8-16.3-10.8h-13.4c-6.1,0-11.7,3.1-14.9,8.3h0c-3.1,4.9-3.6,11-1.3,16.4l2,4.8Z"/>
  <path d="M386.5,125.8s24.8,11.5,44.3-8-35.4-35.8-46.4-19.1c-11.1,16.7,2.1,27.1,2.1,27.1Z"/>
</svg>