<?xml version="1.0" encoding="UTF-8"?>
<svg id="Layer_1" xmlns="http://www.w3.org/2000/svg" version="1.1" viewBox="0 0 1200 1200">
  <!-- Generator: Adobe Illustrator 29.0.0, SVG Export Plug-In . SVG Version: 2.1.0 Build 186)  -->
  <path d="M857,58.4c-32.2,92-90.7,206.8-196.3,119.6C622,146,607.1,62.3,602.2,0c-.7,0-1.4,0-2.2,0-14.2,0-28.3.5-42.3,1.5-12.3,32.5-13,76.8-20.3,104.1-22.1,82.6-121.6,129.6-189.3,66.2-17.9-16.8-36.5-54.7-50.6-87.8C147.5,173.9,39.6,327.3,9.8,502.3c35.8-22.9,72.6-46.8,105.9-59.6,112.8-43.4,183.8,27.2,280.4,63.6,124.4,46.8,184.4-34.6,288.2-68.7,67.7-22.2,157.7-30.6,227-13,58,14.7,202.6,122.8,284.4,119.3-20-213.2-152.8-396.1-338.8-485.5Z"/>
  <path d="M700,77c-16.4,5.6-19.8,37.1-16.2,52.2,57.6,40.3,104.4-62,16.2-52.2Z"/>
  <path d="M432.6,64.4c-8.5,2.5-24,18.5-24,27.6,46.4,67,96.3-48.9,24-27.6Z"/>
</svg>