<?xml version="1.0" encoding="UTF-8"?>
<svg id="Layer_1" xmlns="http://www.w3.org/2000/svg" version="1.1" viewBox="0 0 1200 1200">
  <!-- Generator: Adobe Illustrator 29.0.0, SVG Export Plug-In . SVG Version: 2.1.0 Build 186)  -->
  <path d="M848.2,54.3c-7.5,13.1-10.9,31-21.1,45.9-14,20.4-63.3,48.7-98.7,48.7s-65.9-49.5-72.7-61.7c-16.1-28.8-8-57.2-14.8-85.8-13.5-.9-27.1-1.4-40.8-1.4s-3.4,0-5.1,0c1.1,47.6-15,90.7-55.5,118.4-8.5,5.8-69.2,37.8-75.8,39.1-48.6,8.9-125.1-38.2-135.7-90.5C167.1,151.1,48.7,306.2,12.9,485.9c2-1,3.6-1.7,4.9-2.1,57-17.9,116.2-75.3,253.2-49.4,137,25.9,185.2,136.1,349.1,93.1,46.1-12.1,111.3-117.7,243.2-108.5,93.6,6.6,212.7,106.6,332.4,122.3-21.2-215.4-157.5-399.6-347.4-487.1Z"/>
  <path d="M491.1,111.6c35.2-50-40.2-80.6-49.3-33.3-8.1,42.2,14.1,51.5,49.3,33.3Z"/>
  <path d="M735.2,97.7c21.9-7.2,28.7-33.2,24.4-53.9-56.3-29.9-83,73.2-24.4,53.9Z"/>
</svg>