<?xml version="1.0" encoding="UTF-8"?>
<svg id="Layer_1" xmlns="http://www.w3.org/2000/svg" version="1.1" viewBox="0 0 1200 1200">
  <!-- Generator: Adobe Illustrator 29.0.0, SVG Export Plug-In . SVG Version: 2.1.0 Build 186)  -->
  <path d="M810,1170.9l4-7.9c-7.2,2.7-14.5,5.2-21.8,7.6,5.9.1,11.9.2,17.8.3Z"/>
  <path d="M1057.3,995.8c-3.1,3.5-6.2,6.9-9.3,10.3,7.7-1.4,8.4-7.2,9.3-10.3Z"/>
  <path d="M-6.3,576.1l13,3.3c.2-4.5.4-9,.6-13.5-6.1.4-11.1,3-13.6,10.1Z"/>
  <path d="M288.1,74.4c1.2,2,5.4,5.9,10.8,10.3,5.7-3.4,11.5-6.7,17.3-9.9l-28-.3Z"/>
  <path d="M16.3,455.3l2.6,21.7c1.5-7.3,3.2-14.5,4.9-21.7h-7.6Z"/>
  <path d="M1142.7,764.3c-6.6-.9.6-8.7-6.5-11.1-9-3.1-16.8-8.7-18.5-8.8-96.1-8-208,5.4-306.1,2.7-23.7-.7-69.5-21.8-76.4,3.3-4-16.6-28.8-12.7-44.6-13.4-55-2.3-157.2-8.5-207-4.1-13.7,1.2-28.2,25.5-35-2.6l-3.3,12.8-9.5-12.8-9.5,12.7-4.1-13.1c-46,5.2-81.9-6.4-110.7,38.2,100.5-.4,201.9-2.2,302.8.7,20.6.6,50.6,19.6,57.1-6,6-.1,0,11.1,7.2,13,13.8,3.6,66-.2,88,.3,8.3.2,15.8-5.7,19.8-5.8,1.7,0,8.6,17.9,28.1,12.1l-9.4-25.6c23.2-5.2,28.8,20.1,38.7,24.1,29.1,11.8,104.4-8.3,139.4,2.2l9.6-19.2c-5.6,21.5,10,26.5,25.4,14.3l3.3-8,6.9,12.9c17.1-12,50,14.1,47.3-12.6l10.3,12.9c30.5-.7,60.8,0,91.1,1.4,3.7-11.5,7.1-23.2,10.1-35-8.7,0-17.4.3-25.9.6-16.3.6-12.9-16.8-18.9,13.9Z"/>
  <path d="M948.2,852.8l6.3,19h-31.8s0-19.2,0-19.2c-66.3-.2-134.3,3.7-200.5,2.1-53.5-1.3-105.8-9.7-159.7-9.7-37.3,0-69.9,0-98.3,25.4.6-24.5-6.7-25.7-28.6-25.8-16.1,0-3.9,14.2-9.8,25.6l-25.3-6.5,6.4-19-44.5-.2c2.6,15.3,2.5,31.3,19,19.1l-6.4,19c28.1-10.8,151.1,7.4,164.5-1.1,3.1-2-1.5-12.1,4.4-11.2l12.2,13.4,287,6.8-6.1-13.2,44.6,14,12.5-13.5c25.5,18.5,75.1,11.3,108.2,13.1,41.4,2.3,82.8,5.3,124.1,8.5,7.7-13.4,15-27.1,21.7-41.2-66.1-.7-134.2,2.8-199.7-5.7Z"/>
  <path d="M1146.2,576.3c-6,3.9-3.7,16.2-9.3,16.1-9.3-28.8-72.6-21.7-101.6-19.3-8.7.7-15.5,10.6-20.7,11.3-5.7.8-51-11.4-62.2-12-40.1-2.2-81,1.8-121.2-.2l9.5,12.7-19,6.4-3.4-19.6-107.7-.3-3.6,19.5c-18.7-30.2-23.4-12.5-41.3-15.9-35-6.7-103.3-20.6-127.5,2.9-35.1-36.3-122.8,5.3-146.4,3.5-5.5-.4-33.3-15.2-58-16.5-15.5-.8-74.5-2.3-79,8.8,16.6,5,13.8,12.6,12.6,28.7,16.7,7.1,32.4-8.9,41.7-10,2-.2,24.2,9.9,38.1,10,83,.7,165.3-3.5,248.7,1.4l12.3-13.3,7.2,13,129.7,6.6,3.1-12.7c6.4-.6.5,10.5,6.2,11.6,48.7,9.4,117.5-6.1,169,1.7l3.1-12.7c4.3,20.6,53.7,20.6,57.4.2l3.9,11.5,78.5,2,6.7-19.6c4-.2,3.1,26,38.1,19.6l9.6-19.3c4.5,18.6,51.5,23,85.3,23.3.1-5.2.2-10.4.2-15.6,0-8.2-.2-16.4-.5-24.6-30.6-.9-56.8-1-59.6.9Z"/>
  <path d="M1080.3,357.3c-25.9.2-63.7-21.7-76.5,12-6.1-20.5-32.7-15.1-50.9-19.8l-525.1-.8-.5,31.5c76.3-3.3,156.7,5.3,232.5.7,4.7-.3,8.5-4.5,15.9,0l-6.2-25.4c15.6.9,20.2,20.1,29.7,24.1,26.7,11.3,151.6,12,183.8,7.4,11-1.6,16.1-11.3,25.2-11.9,4.2-.3-.4,11.8,12.3,13.6,76.6,10.6,164,5.2,246.8-2.2-3-8-6.2-15.8-9.6-23.6-.4.2-.7.4-1.1.5-10.1-28.3-52.9-6.3-76.3-6.1Z"/>
  <path d="M794.8,1024.1l6.6,31.4,79,7.4,3.6-19.5c10.7-2.7,3.2,10.3,9.3,12,7.4,2,35.2-4.8,41.6-11.8l-6.4,19c4.8,3.7,35.1,1.3,61.2-1,14.3-11.9,28.1-24.4,41.2-37.6-78.8.3-157.5,6-236,.2Z"/>
  <path d="M877.3,1132.6l-34.7-.6-6.7,19.5c-11.1-30.4-70.5-20.3-102.2-19.5-20.7.5-69.3,2.8-88,6.8-6.5,1.4-.3,15.5-20,12.2l-7.2-24.6c-26.3-7.9-55.3,12.3-75.6-7.5l-6.3,12.7-7.2-13h-72.3s12.7,6.4,12.7,6.4l-9.8,12.7c-17.3-7.4-23.4-16.8-44.2-19.4-11.5-1.4-67.1-2.5-115.8-2.3,23.1,13.8,47.3,26,72.3,36.6,8.1,0,16.2.1,24.2.3,132.3,2.5,264,15.3,395.8,17.8,7.3-2.4,14.6-4.9,21.8-7.6l5.9-11.6c.2,3.5.7,6.4,1.6,8.8,18.7-7.2,37-15.3,54.7-24.2l1.2-3.5Z"/>
  <path d="M114,812l-25.5,12.7,121,.4-12.7-25.4,31.8-6.3-3.6,25.6c4.7,6.6,12.2,5.9,19.2,6.6,112.5,11.4,252.2-3.5,369.7,1.4,33.4,1.4,25,4.9,37.7,6.5,32.1,4,145.7,4.4,179.3.5,12.4-1.4,8.2-13.7,12.4-13.5,50.5,2.1,108.1,22.8,171.7,20.1,21.6-.9-3.7-12.6,6.5-19.2,31,26.7,69.8,14,101.9,16.6,10.7.8,21.7,1.6,32.9,2.4,5.3-12.1,10.2-24.5,14.7-37-11.6-.5-23.1-.9-34.5-1.1-18.6-.4-117.2-3.3-123.7,7.3l-4.1,24.6-3.2-25.5-12.6,12.6-3.5-19.5-65.6-4.8-4.2,11.4c-5.9.9-1.2-9.2-4.3-11.2-15.6-10-121.7,3.9-148.8-1.4l-3,18.4-6.3-19.1-308-7.5-7.3,12.9-5.8-12.3c-5.7,3-13.1,6.6-19.5,5.9-125.3-13.4-253.7-2.8-380.4-6.3,4.3,13,9,25.7,14.1,38.3,9.7-1.2,17.9-3.1,24-6,6.5-3,34.2-46.4,39.6-8.1Z"/>
  <path d="M73.1,646.4l3.5,7.9,18.8,4.9-6.3-19h22.2s-3.2,19.1-3.2,19.1c21.9-4.6,58,13,66.9-12.5,22.2,25.3,61.6,4.3,92.3,12.9l-19.1-6.4,16.1-25.3,4.5,11.4,24,4.7-9.5,15.9,298.2-3.1c53.3.7,165.8,20.9,210.2,11.3,6.4-1.4,1.7-12.3,7.4-13.1l3.1,12.8,282.9,1.5,7-13.4,7.2,13c27.2,1.4,55-1.8,82.2-.2,6.8.4,13.8.9,20.8,1.4,1.3-11.5,2.3-23.1,3-34.8-75.6-2.6-150.9-2.4-231.4-1.1-28.6.5-85.5-17.3-98.3,8.4l-9.3-.4c-.2-3.2.5-9.3-1.5-10.7-12.3-8.7-108.9,2.5-132.4-2.1l12.6,25.4-15.9,6.2c-10.2-4.6-3.7-13.9-5.9-17.2-11-17-49.2-20-70.4-21.6-67.5-4.9-188.5-5.6-254.9-.3-15.8,1.3-36.2,13.4-44.2,13-2-.1-1.4-19.5-32.1-13.6l-3.5,19.5c-10.3-.5-9.2-17.3-17.1-19.3-37.3-9.2-103.9,7.3-144.5,1l-13.6,30.6c-18.6-.1-18.4-28.3-38-32.1-28.9-5.5-65.8,2.4-98.3,1.6.5,12.8,1.3,25.4,2.6,38,22.6,2.1,62.8,1.2,63.7-14.3Z"/>
  <path d="M641.5,1077.7c-7.1,4.4-1.5,21.8-18.8,15.9l-1-17.6c-15-17.5-260.9-.9-301.1-9.1l-9.9,29.1,78.6,3.4,10.4-12.8,4.1,12.8c76.1-1,152.6.4,227.8,13.5l16.4-19.2c3.4,31.8,43.5,13.8,60.7,6.6,4.9-2.1,1,11.1,7.2,12.8,10.9,2.9,124.1,1.2,129.8-2.7,6.9-4.7,2.9-18.9,12.5-16-4.1,22.2,6.1,17.9,22.7,25l12.2-13c8.7,2,17.5,3.8,26.5,5.4,14.9-9.2,29.4-19,43.5-29.3-42.7-.7-85.1-1.2-127-2.2-30.3-.8-177.2-13.2-194.6-2.5Z"/>
  <path d="M291.9,987.4c5.8-3.7,24.3-44.4,25.4,3.4,36.2-8.4,127.9,10.9,156.3-.7,5.5-2.2,0-12.1,6.1-11.6l7.2,13,94.9-3.1c40.9,9.9,90.4,12.2,133.3,9.7,18.8-1.1,17.1-21.9,44.7,7.4,23.8,2.7,20.5-9.4,38.3-19.5l6.6,19.5,28.3-.4-12.6-12.6c22-9.3,24.3,12.6,34.8,13.5,18.8,1.5,42-7,63-.1l7.3-13.2c6,0,0,11.1,7.2,13,5.5,1.4,105.8,1.8,114.2.7.4,0,.7,0,1-.2,3.1-3.4,6.2-6.9,9.3-10.3.3-1.3.7-2.1,1.6-2h.1c7.2-8.2,14.2-16.7,20.9-25.4-71.5-3.2-142.7-1-211.7,11.6-3.8.1-2.3-12-7.4-13.2-10.1-2.3-114.9-2.2-126.9-.7-12.3,1.6-8.9,13.4-12.7,13.6-11.3.4-28.1-14.1-40.7-16.8-13.2-2.8-145.5-12.8-151.6-8.4-5.1,3.7-1.6,14.8-17.2,18.1-25.9,5.4-12.4-15.3-16.4-18.9l-57.1,5.8,6.4,12.6-38.2-6.5,12.7-12.5c-11.3.7-23.9-1.9-35-.2-22.2,3.4-8.4,18.3-9.6,19-16.5,9.9-34.3-16.5-47.8-19.1-29.7-5.8-81.9,6.9-114.9-.9l-15.7,19.5,19.1,12.8-25.4-6.5,6.5-25.3-35.1,18.9,3.3-19c-23.2-6.7-28.3,2.6-36.1,10.5,7.6,10,15.4,19.7,23.6,29.1,56.2.7,134.5-1,140-4.4Z"/>
  <path d="M1073.3,534.8c-5.7-17.5-27.6-19-44.5-19.6-17-.6-44.8,9.9-57.2,10.1-39.4.6-90.3.9-132.8.2-52.5-.8-104.6-8.4-157.1-10.7l-6.4,19-3.5-19.5c-36.9-4.8-79.7,5.4-114.4,5.2-36.8-.2-91.8-10.6-127.8-5.9-15.1,2-23.1,13-31.4,13.3-3.8.1-2.2-11.6-7.4-13-22.2-5.8-55.8,3.4-78.7,6.2l6.4,12.6h-15.8c-3.4-17.2-73-30.2-67.1-6.6l-9.4-12.7c-10.4,11.1-33.1,13.6-18.8,31.8l311.6.9-9.5-6.5c3-13,17.5-13.8,28.7-12.7l3.2,19.1,79.4.4,9.7-25.5,4,25.6,163.8,6.9,7.3-12.9,3.6,12.1,40.6,1.2,6.7-13.1,7.3,13.3c84.3-.6,169.6-5.4,253.9-2.5,28.9,1,57.8,2.5,86.8,4.3-1-13.3-2.4-26.4-4.2-39.4-44.4-1.7-96.8-2.4-127.2,18.6Z"/>
  <path d="M915.3,137.4c-5.6,0-18.2-15.3-37.3-10.8-8.4,9.7-20.5,35.7-1.2,38.6,18.1,2.7,77.8,3,95.6,0,10.5-1.7,16.3-12.3,25.6-12.7,4.2-.2-.4,11.8,12.3,13.6,3.9.5,7.9,1,11.9,1.4-15.4-14.8-31.5-28.8-48.4-41.8-11.1.2-22.1.5-33.2.9-12.2.4-21.1,10.8-25.3,10.8Z"/>
  <path d="M1080.5,248.5c-3.6-21.8-73.4-19.2-73.3,6.1l-12.2-.5c6.1-20.3-90.4-13.7-94.6-10.7-3.4,2.4,3.5,14.1-10.9,11-5.8.5-1.5-9.2-4.5-11.1-14.1-9.1-228.8-3.9-263-8.9l-6.4,19.2-6.7-19.6c-76.1,5-153.4-3.1-228.9,0-18.2.7-69.3,3-81.9,5.9-4.9,1.1-4.3,13-7.6,13-8.6.2-19.7-11.3-31.9-12.9-16.2-2.1-81.1-3.9-89.3,5.6-3.3,3.8-1.5,9.9-2.8,12.9,3.4,5,8.8,13.5,15.5,13.3h126.8c0,0,7.3-12.9,7.3-12.9l7.2,13,95.1.7,12.3-13.3c1.9,19,45.6,15.9,62.5,12.8,2.5-.5,6.8-17,20.2-10.8,54.5,25.1,185.6,6.2,254.9,8.6,11,.4,50.4,24.2,57.3-3l7.2,13h69.1c0,0-9.4-12.6-9.4-12.6l38.2-19.1-19.1,31.7,198.6-5.5c-7.3-11.2-14.9-22.2-22.9-32.9-2.4,1.9-4.7,4.2-6.8,7.2Z"/>
  <path d="M162.8,271.4c7.6.5,2.3-9.4,3.8-12.9-2.4-3.5-10.7-5.2-6.3-19.1-23.1-4.9,0,13.9-19.1,19l-3.3-19.3h-10.8c-8,10.6-15.7,21.5-23,32.6,20.1-1.1,40.6-2.5,58.8-.3Z"/>
  <path d="M226.9,220.9l6.7-19.6,3.1,19.2h15.9s-3.2-12.7-3.2-12.7c16.8-6.2,10.6,12,16.9,13.1,21,3.6,107.6.3,113.8-25.5,13.6-.3,15.1,9.5,9.4,19.1,69.3-4.3,138.2,1.2,207.5.7,36.4-.3,37.5-4.4,76.2-.1,31.6,3.5,47.7-5.4,76.1-12.2l-3.2,12.7c35.5,1.8,75.8,12.4,111.3,6.6,10.7-1.8,16.7-12.7,25.6-12.7,3.9,0,2.2,11.3,7.2,12.7,6.4,1.8,123.6,2.2,132.8.5,10.6-2,16.4-12.2,25.6-12.7,4.2-.2-.1,12.5,12.4,13.7,4.2.4,8.5.5,12.8.3-10-12.4-20.4-24.4-31.3-35.9-4.1.4-8,.7-11.7.6-110.5-2.6-221.5-5.9-332.1-5.4l-3.5,19.5c-18.3-12.7-41.9-33.4-54.1-6.5l-7.2-13h-116.9c0-.1,12.6,25.3,12.6,25.3l-28.3-26-245.5-.2-3.1,12.8-7.3-13.2c-16.6,3.9-42.7,3.6-71.7,2.2-11.6,12-22.7,24.6-33.2,37.5,26.9,2.5,63.4-6.4,86.3-.8Z"/>
  <path d="M619.5,18v31.9c23.9,4.5,34.1-5.1,50.8-19v19c23.4,11.3,39.2-18.4,41.6-19,24.1-5.9,10,9.6,12.6,13,10.8,13.7,30.8,2.7,44.5,3.6,26.3,1.7,57,4.8,88.5,7.5-35.1-16.2-71.9-29.1-110.3-38.3-1.3,1.8-2.4,4.3-3.2,7.4l-124.6-6.1Z"/>
  <path d="M822.5,688.5c-3.1,2,1.5,12.1-4.4,11.2-6.7-26.3-42.7-8.2-63.7-9.3-34.9-1.8-69.9-9.6-105-10.3l12.5,22.3-38.1,9.5,123.9,13.3,249-.7,6.1-11.6,6,11.7c59.4-1,119.2,1,179,2.1,1.7,0,3.4,0,5.1.1,2.2-10.3,4.2-20.8,5.9-31.3-49.2-2-99-3.3-150.3-3.9-34.9-.4-212.5-11.6-226-3Z"/>
  <path d="M1162.5,460.1c-16.7.9-34.5,20.2-57.3-1.4l-6.1,12.7-6.3-12.8c-27.9,26.3-147.7-26.7-118.3,41.4l224.2,4c-2.4-15-5.4-29.9-8.9-44.5-9.1-.1-18.2,0-27.3.5Z"/>
  <path d="M61,384.6c40-4.9,39.3-6.4,83.3-5.2,87.4,2.3,176.5,1.5,263.9-2.5l-7-21.8c-6-4.2-20.3,4-28,2.7-25.3-4.1-57.8-8.9-82.4-10.3-19.9-1.2-64.9-7.5-70.4,12.9l-14.2-11.3c-48.3.4-96.6.2-145-.3-5.5,11.9-10.6,23.9-15.3,36.2,6.3.1,11.7,0,15.1-.5Z"/>
  <path d="M1159.5,423.9c-4.2,18.5,11.3,21,26.9,22.3-3.4-12.7-7.1-25.3-11.3-37.6-7.1-.4-12.7,2.8-15.6,15.4Z"/>
  <path d="M1055.1,293.1c-13.6,1.3-21,12.2-22.6,25.2l-9.4-12.8-6.4,19.2,3.3-31.8-12.6,4.3c-6.9,22.9-55.8-24.7-57.6,14.5h-6.2c.5-4.4,1.2-11.4-4.1-12.9-22.1-6.1-70.5,9.3-97.8-.1.8,14.3,16.9,6.4,18.1,7.7,3.9,4.3,3,15,6.8,19.8,19.1,23.9,16-9.9,38.2,4.1l3.8-12.4c5.8-.9,1.2,9.2,4.3,11.2,14.5,9.3,133.2-3.6,161.6-3.4,22.2.2,44.3.5,66.4,1-5.4-10.5-11.1-20.9-17.1-31-23,0-45.8-.7-68.5-2.6Z"/>
  <path d="M249.5,692.6l20.4-7.2,13.9,25.7,231.5,6.5.3-19,16,6.4-3.3,12.7c17.8-6.5,49.7,4.7,63.9-2.7,9.3-4.9,9.7-24.5,25.3-22.5-2.3-11.6-12.5-11.9-22-12.9-131.1-14.7-287.2,10.8-421.1-1.6l-12.3,13.3-3.1-12.8-98.1-.2-7.1,12.6c-17.3-36.5-35.8.1-38.4.2-.7,0-1.4,0-2.2-.2.9,5.9,1.9,11.8,3,17.6l232.5-.9.8-15Z"/>
  <path d="M827.1,909.7l12.9,10.2c6.2,22.2-6.7,16.6-13,27.8,26-10.3,71.3,12.9,79.7-12.7,57.2,18.2,121.8,19.4,185.2,17.6,9.4-13,18.4-26.3,26.8-40.1-17.4-1-34.8-1.8-52.3-2.5-79.6-2.9-159.6,3.3-239.2-.5Z"/>
  <path d="M846.5,75.7c-21.4,20,8,41.1,31,39.3,21.5-23.6,10.1-3.5,31.9-.5,4.4.6,24.5,0,48.2-1-19.5-14.1-39.9-27.1-61.1-38.8-17.3.8-36.6,4.1-50.1,1Z"/>
  <path d="M310.6,1067.2c-2.9-2.9-51.5-5.4-88.4-6.3,16.4,13.7,33.5,26.5,51.3,38.4h20.6c0,0,16.5-32.1,16.5-32.1Z"/>
  <path d="M224.8,1028.7c4.8,21.1,24.7,9.1,41.3,19.3l.2-25.5,25.3,6.4,6.5-19c-16.3-1.4-31.2-1.6-41.5,12.5-4-20.4-66.3-20.8-70-.1l-7.3-13.3h-11.9c10.9,11.7,22.3,22.9,34.1,33.7,4.8-.2,8.5-.5,11-.8,14.9-1.8,6-13.2,12.3-13.3Z"/>
  <path d="M552.2,903.5l-122.5-1.8-13.6,25.8-3.1-25.5c-45.3,1.7-91.5.7-136.9-.1-18.5-.3-53,6.6-63.3,5.9-13.6-.9-45.1-22.5-67.2-12.9l19.1,6.4c-2.6,47-22.6,14.2-44.7,12.5l15.8-12.6c9.4-6.5,0-6.9-6.4-6.7-15.2.5-30.6.4-45.9.1,7.4,13.1,15.3,26,23.7,38.5l458.5,1.1-13.6-30.8Z"/>
  <path d="M411.3,438c10.7-1.2,59.1-30,41.4-.5l140.1.4c-18.2-27.5,24.1-30.8,6.4,0,21.5,4.6,29.5-8.2,44.5-18.9,4.8,34.9,59.1,13.4,85.8,19.8l16.2-19.5v25.5c15.1,7.8,35.9-10.3,41.4-10.3,4.2,0,12.9,10.5,25.1,10.8,37.2.9,74.7-1.1,111.9,0l-4.9-15.1,14.4-10.5,4.4,11.1,11.5-4.6,3.2,19.5,200.6.3v-31.9c-136-10.9-273.8-5-410.9-7.3-94.7-1.6-192.4-8.1-286.3-8-47.8,0-95.6,4.1-143.4.1l12.7,22.2-16,3.2-3.1-25.4-38.3-.2v25.5c-10.6,2.7-2.9-10.9-10.5-12.8-37-9.7-24.2,27.3-53.2,12.6l12.7-25.4c-30.4,5.8-29.6,35-65.6,25.4-6.7-1.8-6.3-13.2-10.7-16-4.9-3.1-66.2-3.9-101.7-4-3.7,10.6-7.1,21.4-10.1,32.3,0,0,0,0,0,0,111.2.6,278.9,13.6,382.3,1.6Z"/>
  <path d="M283.9,93.9c-4.7,3-9.4,6.1-14.1,9.3,8.2-.1,16.5-.2,24.7-.2-8.4-1.2-10.1-4.8-10.6-9Z"/>
  <path d="M286.8,765c3.7-12.9-2.5-13.7,12.3-19.3,1.4-5.9-5.3-13.9-9.8-15.9-14.6-6.4-4.5,15.4-15.8,12.6l-4.2-13-249.1-.5c3,13.9,6.6,27.6,10.5,41.1,79.2,5.9,178.9-8,256-4.9Z"/>
  <path d="M275.3,131.5h12.7c0,.1-6.4,31.8-6.4,31.8l44.5.3.2-25.6c21.7-4.8,3.1,11.8,15,19.5l131.4,6.4c-10.5-23.8,17-23.7,6.4,0l34.7.2c8.4-1-.4-35.5-3.5-38-3.6-2.9-89-5.5-85.4,12.2l-9.3-.4c-.2-3.2.5-9.3-1.5-10.7-14-9.9-66.4,3.4-84.7,3.1-29.2-.4-60.5-7.2-90.3-5-12.9,10-25.4,20.6-37.5,31.6,2.2,0,4.4-.2,6.6-.3,24.3-1.1,64.5,23.5,67-25.2Z"/>
  <path d="M63.8,538.2l12.8-18.9-34.7-6.8H12.7c-1.5,10.7-2.8,21.3-3.8,32l74,.2-19.1-6.5Z"/>
  <path d="M140.3,599.5c33.7.4,67.8,1.4,101.7,2.9-12.4-13.9-9.9-20.6-6.3-38.1-18.5-7.7-34.6,12.2-41.2,12.8-21,1.8-46.8-8.7-67-13.2l-9.7,25.4-12.4-23.6c-21,3-42.8,4.1-64,4.6-10.3.3-23.8-5-34.1-4.3-.2,4.5-.5,9-.6,13.5l25,6.4c-10,10.1-18.1,12.3-25.3,10.5,0,1.2,0,2.4,0,3.6s0,1.4,0,2c1.2,0,2.3,0,3.4,0,44.8-.6,87.6-3,130.5-2.5Z"/>
  <path d="M556.7,495.3l7.3-12.9,3.6,12.1c26.4-6.5,56.2.5,85.8,1.2,12.9.3,24.9-6.4,37.2-5.9,18.5.9,88.9,19.5,99.4,12.3l-6.4-12.6h22.3s-3.2,12.7-3.2,12.7l133.8.4-4.9-22.7,17.8-15.3-436.5-8.3c-12,1.3-34.9,48.3-34.8.5l-57.3-.2,6.3,38.1,129.6.6Z"/>
  <path d="M313.8,1048.1c44.1,3.4,88.4-4.3,132-4.1,25.3,0,138.6,10.9,150.2,3.2,3.3-2.2-3.1-13.5,10.9-10.9,5.8,1.1,1.7,9.2,7.4,12.9,6.4,4.3,148.9,11.1,154.3,5.5,3-3.1-1.3-21.1,13.5-21.1l-17.3-15c-51.9-3.3-106.5,3.8-158,2-19.5-.7-80.2-26.5-89,2.8l-16-.2,6.5-12.6h-31.9c0,0,6.4,12.6,6.4,12.6h-22.3s3.2-12.7,3.2-12.7l-159.2-.5,12.6,6.4v12.6s-19.1,9.7-19.1,9.7c-2.7,14.4,6.3,8.8,15.8,9.5Z"/>
  <path d="M561.9,107l-25.4-19.2c24-40.6,45.6,17.6,55,19l201.4.9,30.2-38-344-1.1c5.4,10.5,8.4,21.3-6.3,25.4v-25.4s-16,12.7-16,12.7l-15.9-12.8,6.3,19-28.6-19.3-5.9,12.3c-31.2-11.3-49.3-14.4-57.9,19.5l-3.2-25.5-15.9,19.1-3.5-18.7-16.2-.2c-5.8,3.2-11.6,6.5-17.3,9.9,11.7,9.6,28.7,21.6,30.5,21.6l232.5.7Z"/>
  <path d="M378.8,44.6c-8.7,3.6-17.4,7.4-25.9,11.3h15.4s10.5-11.3,10.5-11.3Z"/>
  <path d="M495.2,44.4c35-.8,86.8,25.2,105-16.9.4-13.7-84.5-10.9-98.9-10.1-10.7.7-32.1,13.8-37.9,11.8-2.9-1-1.6-7.2-6.4-10.5-25.9,6.6-51.1,14.9-75.4,24.8,27.5,20.4,80,1.6,113.7.9Z"/>
  <path d="M112,328.7c2.2-.2,5.4-21.3,22.5-12.9l-6.5,12.6,38.3.2v-38.2s-75.8,2.8-75.8,2.8c-4.4,7.3-8.6,14.7-12.6,22.2,13,2.8,21.9,14.6,34,13.3Z"/>
  <path d="M238.1,872.8c9.2.2,38.7,7.1,49.2,7.8,22.6,1.5,45.6,2.7,68.4,2.1l-9.9-38.6c-70,8.3-161.7-10.6-228.9-.4-23.8,3.7-1.1,24.4-19.1,19.2-5.2-1.5-.9-10.3-7.7-12.6-8.4-2.9-22.1,1.1-31.1-6.1l-.5,1c5,11.1,10.3,22,15.9,32.7,55.7.3,133.7-6,163.6-5.3Z"/>
  <path d="M542.1,329.7l235.8.6,3.1-12.8c6.7,20.8,40.2,15,60.4,19.3l-.4-24.9c-90.5-33.7-185.3-14.1-279.7-20.4l3.3,19.1c-7.2,10.9-14,0-22.4-.1,1.1,5.6-.9,13,0,19.1Z"/>
  <path d="M452.9,319.9l9.7-16.1,10.2,25.2c12.4-5.9,30.2,2.8,39.3.8,8.2-1.8,1.4-19.5,30-19.4-.6-3.3,2-9-.7-11.8-11.3-2.7-22.7-5.8-34.3-7.5-19.1-2.8,9.2,21.5-19.1,12.8-6-1.9,2.5-8.4,3.2-12.7l-53.9-.6-6.7,19.6-19.2-19.5-232.3-.4v31.5c0,0,286.5,7.4,286.5,7.4l-12.7-9.4Z"/>
  <path d="M843,153.3c9.9-4.7,21-5.9,18.2-20-30.2-4.9-66-16.5-92.5,6.1-8.5-28.6-42.5-1.6-63.7-12.3l-6.2,12.1c-6.2,0,.1-10.7-7-12.7-22.5-6.1-101.7,7.8-129.8-.5l-6.5,38.1,293,.9-5.4-11.7Z"/>
  <path d="M414.4,456.6l-200.9-1.1c-10.8,1.2-19.9,24.1-31.6,23.6-7.7-.3-22.1-20.9-41.4-4.2l-.3-18.5-31.5-.7,25.4,19.2-6.5,19,280.2.9,6.5-38.1Z"/>
  <path d="M608,940.3c12.4,4.4,64.9-5.3,85.1,7.1l.5-18.4,12.5,2.1,9.4-15.5c14.7-.8,22.7,20.6,15.7,31.9l43.6-.8c22.2-55.3-47.8-31.4-77.4-33.5-44.7-3.1-90.5-17.9-138-10.7,1.9,13.6,29.6,6.9,36.6,14.4,4.5,4.8.3,19.3,11.8,23.4Z"/>
  <path d="M29.1,480.5c13.2-.3,60.6,28.4,85.9,10.1-17.2-19.2-19.8-11.8-44.6-9.7l31.8-25.3-78.3-.3c-1.8,7.2-3.4,14.4-4.9,21.7l.5,3.8h-1.3c-.9,4.6-1.8,9.1-2.6,13.6,3.1-.4,6.1-1.4,8.6-2.8,1.9-1.1,1.7-10.9,4.9-11Z"/>
  <path d="M96.5,513.6l-7.2,31,95.5.3v-31.9c-29.5,1.6-59,1.6-88.4.5Z"/>
</svg>