<?xml version="1.0" encoding="UTF-8"?>
<svg id="Layer_1" xmlns="http://www.w3.org/2000/svg" version="1.1" viewBox="0 0 1200 1200">
  <!-- Generator: Adobe Illustrator 29.0.0, SVG Export Plug-In . SVG Version: 2.1.0 Build 186)  -->
  <path d="M976.5,773.2l91.8-.9c-19.6-27.7,30.3-3.2,41-2.6,21.7,1.3,43.7,1.8,65.8,1.8,1.6-5.4,3.1-10.8,4.6-16.2l-207.1,4.2,3.9,13.7Z"/>
  <path d="M1068.4,772.3h0s0,0,0,.1h0Z"/>
  <polygon points="198.8 761.1 195.7 775.4 220.5 774.9 198.8 761.1"/>
  <path d="M865.4,749.4l-1.5,12.4,10.6-.2c-1.9-4.3-4.3-8.6-9.1-12.2Z"/>
  <polygon points="610.7 767 610.6 767 610.7 767 610.7 767"/>
  <path d="M610.9,762.3l-.2,4.7,10.2-.2c-3.1-2.5-6.5-4.3-10-4.5Z"/>
  <path d="M609.5,787.6h0l1-20.7-14.6.3s0,0,0,0c0-1.9-.3-3.4-1.1-4.1l-25.3,2h0l6,2.5,20.4-.4c0,8.8-4.5,26.8,13.5,20.3Z"/>
  <path d="M364.3,772h.6c-.3,14.8,13.3-2.4,13.9,4.4h0c1.5,18.1-12.9,3.2-11.5,16.6,30.2,4.9,73.3-12.6,98.3-13,14.4-.2,48.6,19.5,73.6,6.5l-13.6-11.6c17.8-8.9,19.5,10,24.2,10.8,10.4,1.7,35.7-1.4,39.5-12.5l-13.7-5.5-210.6,4.3c0-1.2.1-2.6.3-4.2l-1,4.2Z"/>
  <path d="M133.6,785.6c14.9,0,23.1-7.3,31.8-8.6,1.7-.3,11.5,25.4,28.9,5.8l1.6-7.4-168.6,3.4c.5,1.5,1,3.1,1.5,4.6h-.2c35,1.1,70,2.1,105,2.2Z"/>
  <path d="M971.1,754.2c-4.4,0-6,2.3-7,5.5l8.5-.2-1.5-5.4h0Z"/>
  <path d="M989.4,791h0c-16.1.4-55.7,1.3-55.6,17.1l-48.7-9.2-7.6,26.1c-19.7-49.3-83.4-18-126.3-22.3l1.3,24.8-27,2.9-6.6-31.7-44.4,3.4,27,20.3-17.1,16.6-8.5.2c-16-10.2-5.9-29-7.2-30.2-12.6-11.9-149.3,3.5-178.9.6l-3.1,19.5c.5-.1.9-.3,1.4-.4,3.5-1,2.8,9.6,8.8,12,2,.8,12.2,1.5,26.7,2l-199.7,4.8s0,0,0,0h0s0,0,0,0c13.1-2.9,25.9-7.1,36.4-7.4,59.9-1.5,60.5,7.6,122.6-9.9l-3.3-26.7c-23.2,1.7-46.4,4.9-69.7,5.7-15.6.6-25.5-13-21.7,7.9l-11.1-12.1-17.7,1.3-3,13.1-11.3-12-57.3-1.4-4.9,12.6c-54-25.2-130.8-6.3-185.2-5.1-3.8,0-3.8-11.2-8.9-12.1-20.5-3.7-36.4,8-49.8,9.3-.6,0-1-.2-1.4-.6,4,10.6,8.2,21.1,12.8,31.4,16.9.4,33.7.8,50,1.2,66.1,1.7,135.3,11,199.7-6.2l-4.9,11.7-239.2,5.7c1.6,3.3,3.2,6.7,4.8,10,21,1.1,42,1.9,62.9,2.2,89.2-5.8,179.8,10.1,270.6-5.3l5,19.2c10.6,1.9,2.1-11.1,9.4-13.6,15.2-5.1,40.2-4.2,50.9,9.1l6-13.4,12.2-1.2c22.4,21.8,28,5.2,51.2,3,56.6-5.3,148-10.8,203.9-9.6,12.9.3-.6,7.3,38.3,4.2,26.1-2.1,52.1-3.1,78-4.5,14.8-.8,6.9,6.8,9.2,17.1l4.9-19.5c8,1.5,13.5,8.4,22.6,8.3,39.2-.7,91.4-11.9,133-13.7,43.2-1.9,86.6-3.2,130.1-4.2,2.1-4.7,4.1-9.5,6.1-14.3l-103.3,2.5c8.7-1.8,17.5-3.9,26.9-1.1-3.2-6.9-8-25,4.4-25.8-2.7,39.3,52.8,15.3,73.9,15.6.5,0,1.1,0,1.6,0,3.5-9,6.9-18.2,10-27.4-59,0-120.1-2.6-179.3-.6Z"/>
  <path d="M1084.5,305.1v.2s-2.2-17.8-2.2-17.8l-50.6-3.7-1.9,19.2-35.3-3.7,5.5-13.1c-41.4,4.3-82.5,7.8-124.2,9.6-13.1.6-28.2-5.6-38.2-3.9-12,2.1-14.7,16.4-27.8,14.8l2.3-12.9c-21.2,1-42.4,4.1-63.7,4.9-15.6.6-25.5-13-21.7,7.9l-6.2.5c.2-24.6-55.7-.3-77.2-6.9l7.9,14.9-12.7,7.8.8,9.4,309.3-4c6.1-1.7-11.7-22.3,7.6-26.1,8.9,33,58.2,16.1,85.3,16.4,29.4.4,58.7.1,88.2-.7-4-7.5-8.2-14.9-12.5-22.3-.7,2.9-1.2,5.5-2.3,6.4-3.5,2.7-22.3-5.4-30.4,3.1Z"/>
  <path d="M142.2,896c54.3,1.8,113.4,8.4,166.3,10.4,14,.5,50.8-1.9,63.8-5.1,7.3-1.8-8.8-10.7-.9-12.8,16.9-4.4,4,14,16.7,11.5l2.3-13c1.9-.3,7.4,20.4,32,14.9,8.7-2,15.3-12.2,21.1-19.2l-368.6,7.6c1.8,3.2,3.5,6.3,5.3,9.5h0c7.7.4,8.5,1.4,18.5,2.8,16,2.3,31.5-7.1,43.5-6.6Z"/>
  <path d="M443.4,882.7l16.1-.3c-5.5-10.1-10.4-6.4-16.1.3Z"/>
  <path d="M464.2,894.4l-12.1,7.2c39.2-4.4,78.4-1.1,117.6-2.2,24.4-.7,49.1-8.9,69.2-9.6,20-.7,51.3,13.6,74.6,5l2.1-12.9c12.4,22.5,65.7,6.1,93.5,12.1l-13.6-11.6c19.8-8.1,16.7,10.6,29.1,11,33.3,1.1,60.9-15.2,75.9-16.6,7.6-.7,31.5,19.3,58.4,12.8,13-3.1,12.1-12.4,15-17.6l-514.4,10.6c1.5,2.8,3.1,6.6,4.7,11.8Z"/>
  <path d="M982.8,868.1c-5.2-.5-7.5,1.1-8.9,3.7h0l8.6-.2.3-3.5Z"/>
  <path d="M981.3,887.3l24.3-14.4c1.5,1.8-1.4,10.1,3.9,11.4,15.8,3.8,62.7-18.2,83.6,1.3l11.5-13.8c6.9,7.3,15.5,10.3,24.9,10.9,2.5-4.7,5-9.4,7.4-14.2l-154.2,3.2-1.4,15.6Z"/>
  <polygon points="981.3 887.5 981.3 887.3 981.2 887.4 981.3 887.5"/>
  <path d="M986.3,607.7l-249,6.5c4.9-.5,9.9-1.7,14.4-3.2,3.9-1.3,1.1-16.6,29.2-11.2h0s7.9-16.9,7.9-16.9c21.9,11.2,126,18,175.4,22.4,36.3-2.6,109.5-2.6,109.5-2.6,29-1.1,89.9-.4,126.2-4.4,0-9.8-.3-19.6-.8-29.4l-234.4,3.7c1.2-.9,2.4-1.6,3.5-2,45.2-13.2,94.4-.4,138.9-2.7,25.2-1.3,59.7-7.4,91.1-11.1,0-1.4-.2-2.8-.3-4.2L13.6,573.4c19.3,2,38,3.8,54.1,4.2,25.3.7,73.3-9.5,100-5.6,4.9.7,4.9,11.8,7.8,11.4,31.8-3.9,69.4-8.5,101.6-6.7,7.7.4,16,4.6,25.2,6.5L0,588c0,4,0,8,0,12v4.9c54.4,4.8,112.6,14.7,166,12.1,18.6-.9,37.9-16.9,39.7-15.8.6.3-.3,9.1,5.4,12.4,11.6,6.6,178.8,8.8,186.3,3.1,2.8-2.1-2-11.6,3.6-11.2,54.4,24.4,129.2,9.9,189.3,11.3l-28.4-10.5-5.7-18.8c29-9.2,37.5,22.8,51.1,26.9,3.6,1.1,9.6,2.1,17,2.9l-484.5,13.1c24.1.8,48,1.5,71.6,2.2,40.3,1.1,80.8,7.5,121.4,4,44.4,16.1,107.1-9.7,152.2,1,4.2,1,6.8,5.5,8.9,9.7,10.4-4.4,26.7-9.1,30.9-9.9,9.5-1.9,23.7,4.6,34.6,3.6,36.6-3.2,72.3-9.9,109.1-4.5l-12.2,7.3,2.5,4.2-153,3.6s-9.5.2-9.4.3L3.3,663.4c.2,2.3.5,4.6.8,6.9,119.3,6.3,242.4,12.5,338.3-2.2,3.1-.5.7,11.3,12.8,11.7,23.7.9,50.1-11.3,75.7-5.9l6.3-13.7c17.3,26.4,77.2,20.2,98.8-1,5.3,30.6,63.5,9,86,8.7,30-.4,60.6,3.7,90.7,3.8l-4-12.7,17.2-1.3c9.2-6.3,12.4-26.7,27.6-27.5,16-.7,33.5,13.9,40.2,13.7,15.1-.6,45.3-19.4,53.5,11.7l-113.6,2.7-5,11.9c39.6-10.2,86.7,6.3,124.1-3.2,9.8-2.5,16.7-13.7,24.7-14.3,7.6-.6,18,10.1,32.4,10.7,94.1,3.7,191.2-2.8,287.9-9.6.5-6.1,1-12.3,1.3-18.5l-84.4,2c0,.2,0,.4,0,.6l-88.7,1.4.9.6-164.6,3.4.6-15.1,20,11.4,4.9-12.5,115-3.2h0c0-.1,18.5,12.3,18.5,12.3l2-1-4.2-12.2,12.5-.8,4.2,12.2c11-17.4,45.7-16.1,69.5-12.8l-.5-5.2c31,4,63,2.8,95.1.3,0-5,.2-10.1.2-15.1l-215.6,5.8c.7,0,1.4.2,2,.3Z"/>
  <polygon points=".7 573.6 .7 573.6 .6 573.6 .7 573.6"/>
  <path d="M.7,572v1.6l12.9-.2c-4.3-.4-8.6-.9-12.9-1.4Z"/>
  <path d="M992.6,187.8h0l-23.7,24.1c17.5-.3,34.2-2,51.2-6.7,14.6-4,15-10.3,18.7-14.5-4.7-5-9.4-10-14.3-14.8l-45.2,3.4,13.4,8.5Z"/>
  <path d="M1057.1,211.3h0c-1.9-2.3-3.8-4.5-5.7-6.7l.6,7.6c1.6-.4,3.4-.7,5.2-.9Z"/>
  <path d="M226.8,345.5c-4.6-.7-11.2.5-18.3,2.1l24.3-.6c12.3,3.5,35.5,12.2,32.3,19.7l8-19.6c5,9.8,17.4,5.2,21.6,7.4,2.4,1.3,1.5,9.5,2.2,9.8,3.6,1.9,9.1-11.7,19.8-12.6,32.1-2.9,74.9,6.3,106.4,6,109.6-.9,218.7-8.4,329.2-8.2,17.2,0,47-.8,52.4,15.2l9.1-1.2,2.6-12.8,26.4,11,2.1-12.8,108.5-1.8c2.4,1.9-1.4,8.8-4.7,15.7l-265.4,7.8-1,22.3c31.2-6.7,75.6,6.2,97.5-19.8,9.1,32,41.7-9.3,47.5-3.8l4.9,19.2c45.8-10.9,95.9.4,140.1-4.2,34.4-3.6,42.7-6.2,76.3-6.7,12-.2,24.5-6.4,37.7-2.1l-4.1-12.5c24-3.7,47.7,1.3,71.5,5.6-1.6-3.9-3.3-7.8-5-11.6l-178.2,5.2c7.2-7.3,14.9-14.5,19.4-16.4,20.1-8.2,84.6.3,109.5-9.6l-4.9,19.4c17.3,3.8,9.3-9.4,16.5-13.9,5.1-3.2,15.5-4.3,28.4-4.6-2.1-4.2-4.2-8.4-6.3-12.6l-900.2,22.5c-2.7-.8-4.9-1.3-6.1-1.5Z"/>
  <path d="M177.6,352.9h.1c7.2,1,19.5-2.7,30.7-5.3l-59.4,1.5c-28.8-3.5-59.2-6.4-90.2-8.5-1.7,3.6-3.4,7.2-5.1,10.9l95.2-2.4c9.8,1.2,19.4,2.5,28.7,3.8Z"/>
  <polygon points="681.6 370.6 683.2 370.6 683.4 367.4 681.6 370.6"/>
  <path d="M576.5,393.2h.1c31.5-.3,63.6-4.1,95.3-5.4l9.6-17.1-453,13.2c-62-2.7-124.1-5.4-185.4-7.4h-.1c-1.7,4.3-3.4,8.6-5,13l190.4-5.6c119,5.2,237.5,10.1,348.1,9.3Z"/>
  <path d="M1127,404.1v.2c0,0-8.3-12.4-8.3-12.4l-97.5,7.5,25.7,4.6,4.9,25.2c6.6,8.3,71,9.2,69.7-11.9,14,16.5,34.1,8.8,53.4,10.3-3.7-12.5-7.9-24.9-12.4-37.1l-29.6.3-5.9,13.3Z"/>
  <path d="M811.3,1148.8v.2c-34.9,11.5-49.8-25.9-86.1-12.5l13.6,11.6c-34.3-8.3-28.2,23.6-55.7,23.3l16.7-33c-115.4,3.9-230.8,6-346,8.9,32.2,14.5,65.9,26.2,100.7,34.9,13.4-1.3,26.7-2.4,40.1-2.6,19.1-65.8,39.1,1.5,46.7,2.7l33.9-2.9,4.4-25.8,5.4,25.2,196.4-6.9c23.5-7.5,46.4-16.3,68.6-26.5-27.5-28-35.3,2.3-38.7,3.4Z"/>
  <path d="M850.7,1145.3c9.7-4.5,19.2-9.2,28.6-14.1-14.7.3-25-2.5-28.6,14.1Z"/>
  <path d="M1185.7,675.6c-27.6,4-36.1,25.5-70.5-2.1l-251.2,12.5,27.7,31.4-14.5.3c-19.3-35.7-83.9-49.6-80.9,1.9l-55.1,1.3-9.6-12.2c16.1-1,37.1-4.5,43-22.4l-197.4,8.4-.7,30.1-7.9.2-14.9-3,17.1-26.7c-18.9,13.8-29.1-2.5-41.9-2.9-51.2-1.6-112.7,3.6-165.3,5.7-46.8,1.9-77.2,1-119.3-1-18-.9-55.8-16.1-49.7,7.3l-6.2.4c2.2-15.9-24.6-15.2-37.6-15.6-49-1.6-96.9-2.6-144.6-2.8,1.8,12.4,3.9,24.6,6.4,36.7,48.5,3.9,99.9,9.5,147.5,11.6l-144.2,3.4c.3,1.4.7,2.9,1,4.3,23.4.8,46.4,1.8,68.8,2.6,41.2,1.6,88.3,11.9,124.6,12.2,22.6.2,59.3-19.2,59.9,17.2l-49.7,1,5.2,3.3-5.5,13.1,54-9.7c5.3,18.4,53.6,16.2,56.6-5l29.6,10.6,3.8-15.3-93.7,1.9,7.9-19.2,62.9-4.7,5,19.2c18.8-31.1,15.2-14.3,40.3-15.8,63.6-3.6,125.2,2.7,185.2,1.8,55.2-.8,112.4-16.9,168.7-9.2l-5.8,18.4-113.9,2.3c8.2,6.6,14.9,18.1,18.6,18.8,22,4.2,58.2-9.5,81.2-11.6,3.4-.3,2.9,10.2,7.9,11.1,29.8,5.8,27.9-15.1,29.7-14.9,3,.4,9.2,7.4,16,7.8,28.7,1.7,58.2-.3,87.1,3.7l2.5-19.8-115.2,2.3c1-4.5,0-10.3-1.6-18.7l140.2-4.1,4,19.9-16.8.3c3.6,8.2,5.4,16.1,18.7,17.7,9.2,1.1,55.7-2.4,62.8-5.6,6.4-2.8,6.8-9.2,8.2-13.9l-71.6,1.5,1-20.3c25.1,3.5,57-6.9,79.6-6.8,12.4,0,9.7,12.8,14,12.6,14-.6,42.4-16.4,62.2-11.6l8.1,19.2,22.2-2-20.4-17.5c42.2-1.9,84.5-5.3,126.9-5.7,1.2-5.3,2.2-10.5,3.2-15.8v-.3s-135.5,0-135.5,0c.4,0,.9,0,1.3-.1h134.1c0-.4.2-.8.3-1.2,0,0,0,0,.1,0,0-.5.2-1.1.3-1.6.3,0,.6,0,1-.2h-.9c2.2-11.9,4.1-23.9,5.6-36-3.3.4-6.6.8-9.9,1.3Z"/>
  <path d="M788.9,107.4c50-6.2,100-2,150.2-2.4-19.9-13.7-40.7-26.2-62.2-37.4-19.7-.2-39.4.2-59.2,2.6l7.8,18.5-36.6,18.7Z"/>
  <path d="M788.6,107.5h.3c-.1-.1-.3-.1-.4,0h0Z"/>
  <path d="M1108.1,450.4l7.7,18.5-53.9,4.1-1-12.8,40.8-9.3-53.7,3.5-2.6,18.9-43.2,13.7c.5,5.9,16.6,5.4,21.8,5.5,53.3.8,109.2-1.8,165.5-5.4-2.5-13.4-5.5-26.6-9-39.6-23.8-1.3-47.8-2.3-72.4,2.9Z"/>
  <polygon points="1108.1 450.4 1108.1 450.4 1108.1 450.4 1108.1 450.4"/>
  <path d="M.6,626.3c.1,2.6.2,5.2.4,7.8l138.9-3.8c-46.9-1.5-94.2-3.1-139.3-4Z"/>
  <path d="M1036.1,937.7c22.1,4.6,44.1,1.9,64.1-6.2,6.7-10.1,13.1-20.3,19.1-30.8l-51.2-1.3c-15.5,13.7-28.8,16-32,38.3Z"/>
  <path d="M883.2,1076.4c-11.7,2-9.1,22.8-19.6-1.5-25.5-5.6-19.8,14.4-23.7,14.7l-8.2-12.4c-42.3,8.7-85.3,1.5-126.3,3-25.2.9-70.8,13.7-89.1,12.4-22.7-1.5-36.3-15.1-70.8-7-16.7,3.9-7.8,23.1-26.9,21.7l-4.9-19.2c-20.8-4.7-52.1,13.8-68,12.1-5-.5-2.1-11.6-14.3-12.4-23.5-1.5-51.8,10.7-69.1,10.2-22.1-.6-36.8-3.7-64.9-3.2-9.4.2-23.6-.7-39.1-1.6,20.5,14.2,41.8,27.2,64,38.8,14,0,27.9-.2,41.8-.4,145.6-2.5,294.1-7,439.4-13.5,37.7-1.7,76.1-5,113.6-8.6,3.4-2.1,6.9-4.3,10.2-6.5-1.9-25-18.7-30.9-44.1-26.6Z"/>
  <path d="M346.6,562.7l.2-.3c5.5-1.1,9.5-10.6,18.2-11.9,3.8-.5,3.1,11.4,8.4,12.4,20.9,3.9,46.3-10,61.1-9,64.6,4.8,134.1,11.6,199.3-3.5l7.4,11.5,36.7-2.3,6.2-13.8c31.9,15.8,70.8,10.8,106.2,11.4l-14.1-18,34-15.2c20.5,11.5-4.9,19-7.2,32.3,32.9-10,75.5,4.5,105.5-.9,13.1-2.4,26-16.1,27.2-15.2.7.5-.4,9,2.3,10.6,12,7.2,43.8-5.1,58.9-5.3,64.9-1,129.5,3,194.4-5.5l-3-27.5-10.4-9.2-294.8,15.2,14.1,18-23.2-10.9-11.6,13.5c-27.1-27.1-59-20.7-94.2-18.3l-2.1,13c-5.8-.3-1.6-11.2-8.3-12.3-13.5-2.3-117.2,0-121.9,3.9-4.4,3.7-2.8,18.3-12.7,19.1l-2.2-18c-9.9-.6-20.2-2.9-30-3.1-67.9-1-158.4-8.4-217.2,14,1.6-16.4-28.8-13.7-43.8-14.8-23-1.7-56.8-5.5-71.6,10.8,1.9-16.5-28.8-13.8-43.7-14.9-61.3-4.5-134.7-7.8-208-9.3-2.1,13.8-3.7,27.8-4.9,41.9,61.5,1.5,122.7,3.5,183,5,39.5,1,131.4,12.6,161.8,6.6Z"/>
  <path d="M296.6,147.5c29.7,16.8,76,17.9,110.3,17.3,16.4-.3,19.4,1.7,23.9-14.7,36.1,23.2,96.5,15.3,141.8,15.6,117.4.7,256.1-5.4,382.7-3.6,14.5-3.9,30.7-5.8,47.7-6.7-10.9-9.8-22.1-19.3-33.6-28.3-5.7.9-11.1,1.6-16.2,1.7-41.9,1.4-85.6-12.9-128.4-2.4-10.5,11.5-27.1,27.4-15.3,1.8-39.3-8.3-78.6,2.3-118,2.3s-96.5-9-121.8-4.4c-9.4,1.7-24.5,29.3-39.2,29.2l3.9-32.1c-43,2.9-87.6,4.7-130.6,3.3-55-1.8-108.9-4.7-162.4-7.5-15.3,11.5-30.1,23.6-44.2,36.5,32.2,2,63.9,3.6,94.7,4.5l4.7-12.5Z"/>
  <path d="M295.7,264.9v.2c33.7.9,78.8,18.2,119.4,14.6,17.5-1.5,25.7-12.8,30.9-13.6,7.6-1.1,20.2,12.6,33.1,14.1,20.9,2.4,40.5-7.4,56.9-7.4,96.5,0,191.4,2.5,291.2-2.2,10.6-.5,26.3,8.1,34.2,5.8,4-1.2,20-32.6,33-33.5l12.8,30.1,78.6-5-1.9-25.5,25.4-1.9,2,25.4,87.1-.5c-8.4-12.5-17.2-24.6-26.5-36.4-32.6,1-65.3,1.3-98.1,1l-2,19.8-16.4-4.4-6.1,12.4-21.4,1.7-1.9-25.5c-22.2,1.3-44.4,4.1-66.7,5.1-18.8.8-32.9-15.1-37.7,9.4-29.2-21.6-56.1-3.3-83.3-3.5-47.5-.4-100-1.5-149.9-1.2-35.6.2-74.2-13.8-107.6,5.4l-5.3,25-2.9-38.1c-11.9,2.4-36.4-1.2-44.8,6.1-8,6.9,1.6,24-10.4,23.6-2.9-43.5-39.4-21.1-61.6-23-9-.7-17-7.5-27.5-8.2-67.2-4.6-132.3,1.5-197.5-8.7-9,11.2-17.5,22.8-25.7,34.7,56.2,20.5,135.1,2.7,190.6,4.2Z"/>
  <path d="M372.4,215.2h-.3c45,2.9,57.9-2.6,94.8-4.1,4.2-.2,1.3,11.5,13.7,12.4,13.7,1,47.3,1.3,40.9-16.3l6.2-.5c12.3,31.1,72.7,4.2,100.9,17.3l5.4-13.1,25.1,5.5,5.3-13.4c27.3,16,49.7,18.9,81.7,19.2l-7.7-18.5c30.8-10.7,29.6,28,64.5,13.7l-.9-18.5,19.4,4.9c1.1-8.6-3.8-14.5-10.6-18.7-14.6-9-163.6,2.5-198.1,2.4-85.7-.4-208.2-16.3-288.6-9.2-23,2-4.3,10.6-37.6,3.5-34.7-7.3-69.9-7.3-105.1-11.4-1.6-.2-3.3-.4-4.9-.6l-3.4,8.9-1.4,3.7c-.6-.2-1.1-.3-1.7-.5-9.9,10.2-19.4,20.7-28.5,31.5,54.2,2.1,107.3,3.6,154,5,25,.7,51.4-4.9,76.9-3.2Z"/>
  <path d="M493.8,50.1l.2.2c15.3-2.8,2.8-14.8,14.4-14.4,5,26.8,52.1,10,74.3,10.5,32.6.8,70.1,7.3,104,7.3s109.7-1,114.9-3.4c1.5-.7,3.7-10.3,9.7-12,1.2-.3,2.4-.4,3.9,0l-12.5-3.1-7-1.8.3-.6,10.9-19.3c-21.3,2.9-42.7,3.7-64.1,3.6-37.1-.2-74.3-3.3-111.4-3.6-19.8-.2-31.2,7.5-44.7,9.3-3.2.4-.8-11.5-12.9-11.8-13.4-.3-28.1,7.2-38.4,6.8-23.7-.8-47.2-1.7-70.5-2.7-35.5,8.2-69.8,19.5-102.6,33.6,13.8.5,27.6.8,41.7,1.1,23.5.5,70.1,3.9,89.8.3Z"/>
  <path d="M465.9,492.4v-.2c0,0,5.3,12.4,5.3,12.4,48.5-2.1,97.9,2.1,146.2,1.6,43-.5,25.4-7,40.3-18.3,22.5-17,37,1.1,56.6-8-.5,4.5-8.7,10.9-4.9,19.3h0c0,.1,50.7,2.2,50.7,2.2l-2.4-37.5c-9,2.9-28.3,1.6-34.8,4-3.5,1.3-3.5,9.6-8.5,11.9.4-4-.9-8.4-.9-12.5-40.7-10.4-79.5,2.7-118,8.1-3.2.4-.6-11.1-12.8-11.6-84.4-3.5-179.4,5.7-266,3.9-100.5-2.1-207.4-9.9-299.8-9.2-2.5,10.5-4.8,21.1-6.8,31.8,146.6,15.6,294.8,7.2,441.4,16.6l14.5-14.5Z"/>
  <path d="M87.9,434.1l.2.2c20.3.7,71.2,2,77.9,10.1,17.6,1.1,100.9-8.8,106.4-7.8,5.2,1,2.3,11.4,14.2,11.9,29,1.2,5.7-14.5,21.1-21-2.1,10.3,34.4,22.5,43.1,22.8,13.7.5,55.9-7.4,52.9-23.6l7.3,12.1,18-14.1-29.8,27.7c25.1,2.2,53.7-8.2,77-8.6,97.5-1.3,241.3,16.5,334.6-2.6,14.5-3,1.3-19.6,27.6-8.9l-11.7,13.5,76.2-5.7c-9.3-14.2-25.6-7.1-21.5-30.2l31.3-8.7c-28.6,2.1-57.3,4.1-85.9,6.3-21,1.6-43.4,1.4-70,1.7-55.6.6-110.2-1.3-165.7,2.8l-14.6,20.6,4.4-25.8c-3.4-3.3-65.2,11.6-72.1,11.9-4.1.2-1.4-11.7-13.7-12.4-29.9-1.8-62.4,11.2-92,13.7l11.7-13.5c-17.3-3.2-39.4,7.6-54,7.4-112.3-1.6-218.5-11.5-326.7-14.5-4,11.3-7.7,22.7-11,34.3,21.7-.3,43.4-.3,64.8.4Z"/>
  <path d="M374,332.7v.2c8-1.7,14.4-11.1,18.8-11.7,10.9-1.6,54.2,35.3,79.4-1.8-.1,18.8,46.7,14.9,62,14.9s30.8-18.2,29,3.6l4.4-25.8c22.2-7.7,10.2,20.7,14.5,24.5l50.9-3.8-2.9-38.1c-2.3-1.9-49.6,7.8-60.1,7.6-60-.9-129-4.4-186.1-8.1-18.7-1.2-37.8,6-57-2.7l-8.8,13.7c2.6-16.9-28.7-13.6-43.7-14.9-58.2-4.9-124.2-4.2-186.8-2.7-6.2,10.1-12.1,20.5-17.7,31,53.4.5,106.9,1.6,160.9,3.1,38.3,1.1,107.6,18.7,143.2,11Z"/>
  <path d="M167.6,953.3l6.4-11.6,5,19.2c48.4-6.1,105.7,8.4,152.8.5,51.1-8.6,119.7-6.5,178.6-10,6.7-.4,18.5,19.3,20.5-6.6-3.3-4.1-4.4-12.5-7.6-15.1-1.8-1.4-21.7,10.9-12.6-13.3l-154.3,8.7c-88.1.8-176.2-2.4-264.5-6,8.4,13.4,17.4,26.5,26.8,39.1,11.7.8,23.3,1.8,35,3.3,4-10.8,1.5-12.3,13.9-8.2Z"/>
  <path d="M167.6,953.3s0,0,0,0h0c0,.1.1,0,.1,0Z"/>
  <path d="M660.6,107.3h0c.4-13.5-18.9-.2-25.1-5.3-2.8-2.3-1.1-14.1-8.6-20.6-2.1-1.8-44.3-11.2-49.8-11.6-42.4-3.6-90-.9-133.5-2.3-37.1-1.2-74.6-2.6-112.4-4.1-17.9,9-35.3,18.8-52.2,29.5,113.4,7,227.8,15.8,333.6,18.4,15.7.4,32.2-3.9,47.9-4Z"/>
  <path d="M1012.3,961.7h0c8.5,13.1-1.7,26.7-17.1,26.8l-1.9-25.4-121.2,2.8,2.8,24.5c14.7.5,27.5,7.8,41.9,9.8l-61.1,1.3-2.6-34.2c-7.2-6.3-54.2,12.8-65,11.3-5-.7-4.8-11.2-9.7-12-15-2.5-36.6,4.9-52.8,3.9l7.7,18.5-15.8,1.4c-13.4-28.3-59.6-17.5-87.7-19.2l-4.4,25.9-5.2-25.2c-18.8-1.8-32.1,16.4-33.8,15.3-.6-.4.9-11.3-5.2-12.4-9.4-1.7-55.7-1.7-69.2-1.4-36.2.9-65.3,1.3-91.1,23.1l26,13.8-59.6,1.3,1.6-16.1,13.1,5.5c-5.6-24.1,3.1-20.6,24-21.1l-22.6-4.6-50.6,3.4-8.3,20.1c4.9-12.4-42.8-20.6-51.2-20.8-15.5-.3-13.8,5.1-43.3,3.1-40.1-2.8-76.3-.7-113.1,0,8.8,10.7,18,21.1,27.6,31.2,5.7,1.3,11.5,2.7,17.4,3.6l-13.6.3c6.1,6.3,12.3,12.5,18.7,18.5,132.2,4.8,262.8,7.6,386.7-2.2,19-1.5,38.1-2.6,57-4.6l3.9,15.2-428,9.5c5.3,4.6,10.7,9.2,16.2,13.6,3-.3,6-.6,9-.9,2.1-.2,7.7,6.1,36,6.8,17.3.4,93,5.7,101.5-2,5.8-5.3,1.2-17.8,11.2-16.6l5,19.2c68.3,2,135.9-9.5,203.2-12.5,5.1-.2,16.6,8,32,7.7,37.1-.8,71.6-3.8,104.3-21l-5.5,13.1,270.6-4.3c7.9-6.8,15.7-13.8,23.2-20.9l-364.5,8.1c11.9-6.1,18.7-15.9,39.4-17.4,53.9-4,106.4,3.5,159.7-.5,59.6-4.6,121.7-1.7,180.3-4.8,7.3-7.5,14.4-15.1,21.4-22.9.3,0,.6,0,.9-.2h-.8c10.9-12.4,21.4-25.2,31.3-38.5l-68.7,3Z"/>
  <path d="M942.3,916c-2.7,0-20.4-31.6-45,3.2-15.4-29.2-49.9-4.1-69.3,11.7l8-19.7-54,9.6h0c-13.1-24.6-61.9-1.3-89.1-5.8l-5.1,19.9-16.1-5.5-7.5-11.9-4.3,29,369.5-5.5,10.4-38.8c-24.3,1.9-48.7,3.3-73,5.4-9.1.8-18.3,8.1-24.5,8.4Z"/>
  <path d="M894.7,460.2h0c-17.5-2.1-43.8,3.6-63.3,4.5-28.3,1.3-79.3-14.4-44.1,33.9,15.6-4.9,43.8,4.5,53.2,3.8l149.3-11.2c-1.2-32.3-31.8-41.6-59.6-33.1,3.9,40.2-16.7,4.2-35.5,2.1Z"/>
  <path d="M930.1,176.5h0c-12.2-1.8-74.4,3.5-88.1,6.6-17,3.9-9.3,20.1-1.2,29.6,8.5,9.8,108.3,4.1,121.7-9.3l4.1-23.2-28.5,7.7c-3.1.4-2.8-10.6-7.9-11.4Z"/>
  <path d="M571.1,917.6h0c0,.1-14.3,14.5-14.3,14.5l-4.2-12.7-21.3,11.4c14.7,27.4,43.5,28.4,71.9,23.3l2.1-13c7.6,22,28.7,8.4,48.6,9.1l-13.1-5.4,10.8-26.2-80.4-1Z"/>
  <path d="M995.7,438.8h.4c11.5,3,28.2-2.7,40.6-2.3l-7.9-18.5-31.2,8.8-2-25.4c-11.2-3.6-14.3,11.2-21.4,12.3-10.6,1.5-32.4-26.7-54.8-6.5l12.3,6-3.7,25.1c25.8,1.6-3.2-23.5,27.5-21.5,12.3.8,9.3,10.3,11,10.9,4.7,1.5,12.3-8.2,16.7-5.7,2.7,1.5,3.2,14.3,12.5,16.8Z"/>
  <path d="M731.1,108.5c.3-8.7-3.4-18.6-2.4-26.9l-8.7,8.6h.1c-13.9.8-15.8-7.9-10.9-18.3l-25.4,1.9,14.1,17.9-24.9,8.4c10.7,20.2,39.6,7.7,58.1,8.4Z"/>
  <path d="M728.9,81h0v.7l5-4.9c-2.4.5-4.4,1.4-4.9,4.2Z"/>
  <path d="M740.9,69.5l-7.2,7.2c4.3-.9,9.5-.5,7.2-7.2Z"/>
</svg>