<?xml version="1.0" encoding="UTF-8"?>
<svg id="Layer_1" xmlns="http://www.w3.org/2000/svg" version="1.1" viewBox="0 0 1200 1200">
  <!-- Generator: Adobe Illustrator 29.0.0, SVG Export Plug-In . SVG Version: 2.1.0 Build 186)  -->
  <path d="M608.1,27.7c-5.9-19.8-20-11.4-38.1-12-3.7,1.2-2.6,10.6-9.4,19.8,1.2,3-.5,8.8.4,12.7l15.1-7c20.1,26.6,86.5,9,115.8.3,7.9-2.3,13.7,9.9,18.3-10.6l3.8,19.1c7.2-.8,13.5-4.8,21-4.7,31.7.5,70.6,4.1,108.7,6.1-40.6-18.1-83.6-31.8-128.3-40.5-24.8,1.2-49.9,7.3-62.6,15.3-6.6-22.3-32.1-14.3-44.6,1.3Z"/>
  <path d="M399.6,52.6c16.3,3.5,117.5,1.4,139.6-.3,10.7-.8,16.1-9.3,21.4-16.7-2.6-6.8-1.2-14.1-10.2-18.8-4.6,16.1-8.6,7.7-21.8,13.3l5.7-19.2c-22.2,2.4-44.6,3.4-67.1,3.8-27.4,6.2-54,14.2-79.8,24,6.2,3.9,8.5,13.1,12.1,13.8Z"/>
  <path d="M209.9,779.8c39.8.4,86.8,23.5,121.2-5.3l6.6,12.6,12.2-19.5c11.1,24,63.7,20.7,90.8,21.8,45.7,1.8,92.8-3.6,138.9-2.7l6.1-19.7,19.5,19,243.5-12.2c107.7,9.4,215.7,6.7,324.2,5.3,4-12.7,7.5-25.5,10.6-38.5-86.9,1-173.6,5.9-260.6,6.4-167.6.9-347.5-13.9-509.6,12.4-6.2-22.3-40.9-6.2-63.4-7.1-29-1.1-61.7-7.3-89.5-7.8l-134.1-2.2-6,13.1c-13.3-24.7-68.8-6.8-99.8-7.3-.6,0-1.3,0-1.9,0,3,11.9,6.4,23.6,10.1,35.2,61.5-1.9,122.5-4.2,181.4-3.6Z"/>
  <path d="M64.9,827l3.5,8.2c11.8,13.3,25.5-1.8,25.1-15.3l6.1-.2c.7,7.2,3.2,15.6,11,17.9,11,3.3,101.7,6.9,113,4.1,5-1.2,3.9-13.4,6.7-13.1,16.1,4.9,56.6,17.7,71.2,17.6,10.3,0,6.8-9.3,14-13.4,7.3-4.1,20.1,5.3,23.1-14l9.7,22.5c9.4,6.6,152.7-5,179.6-5.2,25.9-.1,54.9,9.9,79.3,7.1,13.2-1.5,6.1-18.7,24.8-14.1l-2.8,12.8c81.6-5.2,163.3-4.6,245.4-7.6,35.8-1.3,26.7,3,64.8-6.9,12.9-3.3,19.1,13.5,23.7-8.2,27.6,28.6,99.1,15.1,140.9,14.5,12.2-.2,24.7,6.5,31.4,6.1,1.7,0,14.4-36.3,13.1-.7.6,0,1.2,0,1.8.1,5.2-11.9,10-24,14.4-36.3-15.5-10-44.6-7.5-48.8,11.7-7-14.2-10.2-16-26.6-17.6-34.9-3.3-131.7-.2-165.1,4.1-17.6,2.3-24.8,3.3-31.2,20.1l-4.3-11.4c-21.6,8.5-29-11.1-54.1-12.7-25-1.6-61.6,6.5-88.6,2.4l-3,19.6c-15.2-25.1-52.4-21.5-80.6-17.3-10.9,1.7-8.4,10.4-10.3,11.5-4.1,2.3-10.1-10.5-14.1,8.9-4.6,1.7-1.9-10.8-11.3-14.6-39.2-15.9-105.9-1.5-148.4-6.6l-3,19.6-9.9-12.5-2.9,12.9-9.9-12.5-6,13-7.3-19.4c-5.9-.9-114,2.2-119.8,3.8-7,2-.9,12.8-6.8,13.2-6.5-18.1-27.9-17.4-45.3-18.3-15.8-.8-63.9-.5-59.8,21.3l-13-12.3-2.9,12.9c-18.9-29.3-81.8-24.3-115.2-21.7-7.6.6-14.3,10.1-19.1,10.5-3.5.3-11.9-2.6-21.6-5.9,4.1,11.3,8.6,22.5,13.4,33.5,9.6-2.1,15.7-6.1,15.1-12.7Z"/>
  <path d="M216.7,330c11.1,1,22.8-.6,34.1,1.4l5.6-25.7,3.5,18c50.5,16.6,100.6,5.6,151,6.7,71.8,1.5,194.8,17.7,257-11.5l7.6,12.6,279.9-1.5,11.9-13.7,7.7,12.7,126.3,2.9,6.1-19.7c12.2,18.3,19.5,16.6,26.1,12.8-5.4-10.5-11.2-20.8-17.2-31-66.9-1-133.7-3.8-200.5-1.7l-5.7,25.8c3-30.1-63.1-29.1-77.6-17.4-6.5,5.2-6.6,20-11.5,20.1l-14.4-24.6c-47.2,13.3-108.3-22.7-145.4,10.2-5.2-19.9-40.9-19.1-44.5,1.4-5.8,1.1-1.5-9.3-4.6-11.1-7.8-4.5-81.4,4.4-97.6,4.1-74.4-1.5-122.3-3.6-197.9,2.4-2.1.2-8.7-26.2-35-7.9-6.2,4.3-1.9,18.1-12,16.3l-3.9-19.3c-32.8,7-65.5.7-98.4.2-11.8-.2-21.4,0-33.7-.3-8.1-.2-25.4-.5-48.1-.8-6.9,11.5-13.4,23.2-19.5,35.1,18.1-.3,36.2-.5,54.3-.6,32.3-.2,68.2,1.4,96.7,3.9Z"/>
  <path d="M114.7,895.7l5.8-19.3c-.3,17.2,23.5,23.4,37.2,22.7,8.2-.4,13.4-9,17.3-9.2,8.2-.3,34,21.5,57,3,8.1-6.5-2.9-21.4,9.4-20.1l4.5,25.4c19.9,3.6,45.7-6.1,63.1-5.2,101.7,5,217.7,8.8,318.7,7,79.9-1.4,171.3-2,249.8-10.2,8-.8,23.7-11.8,29.9-10.2,2.7.7,2.8,9.8,17.6,13.4,23.7,5.7,85.6,10.9,90.7-17.8l6.7,12.6,6-13.1,3.8,19.1,19.1-.7,2.6-12.7c16.4,22.2,38.8,7.1,57.7,8.1,4.6.2,9.3.6,13.9.9,5.9-10.7,11.5-21.6,16.8-32.7l-54-2.9,3.8,18.9c-11.1-26.2-31.7-19.9-57.7-17-29.7,3.3-17.3,1.1-44.4.6-34.6-.7-81.4-6.1-108.3,10.2l-7.6-13.1c-30.7,13.4-81.1-13.8-94.2,22.4l-16.1-9.2,12.4-9.8-146.4,4.3-5.6,25.6-4.1-25.4-27.9,20-11.5-25.6c-85.9,1.8-174,11.4-259.7,11.3-86.1-.2-173.5-2.6-261.3-5.5,5.6,11.6,11.6,23,18,34.2,12.3.1,24.6.2,36.8,0Z"/>
  <path d="M205,609.7c37.2,1.6,15.4,12.2,57.2-3.9,18.8-7.2,54.2,10.9,57.3,10.7,13.6-.7,22.9-11,31.8-12,14.9-1.6,12.9,15.8,25.9,16.5,89.9,4.7,198.1-16.8,286.7-14.5,3.9.1.3,11.1,12.3,12,79.6,6.4,214.4-3.4,300.7-4.3,70.8-.7,161.1-13,222.8-2.6,0-3.9.1-7.7.1-11.6,0-10.1-.3-20.1-.7-30.1-178.2-3.5-361.5,19-537.2,4.5-38.4-3.2-42.1,1.9-69,12.7-12.1,4.9-36.8-9.5-51.1-10-93.2-2.9-195.6,9.4-287,5.9-15.6-.6-31-23.6-37.8,4-21.2-25.6-57.4-5.2-82.2-6.1-32.4-1.2-64.6-28.2-86.5,11.1l-4.1-19.4c-14.5.9-29.1,1.5-43.7,2-.3,8.4-.5,16.9-.5,25.4s0,7.4.1,11.1c37.1.8,74,3.8,110.2,3.9,30,0,65.8-6.5,94.7-5.2Z"/>
  <path d="M249.4,212.8c79.3,2.3,163.9,15,243.6,10.1,30.5-1.9,26.4-2.6,57.1-1.8,32.8.8,103.9-.6,134.2-4.3,13.4-1.7,26.7-11.9,40.5-14.2l3.9,19.2,62.5-1.9,19.6-19.9,7.2,19.4c18.1-2,33.2,6.2,37.5-14.4l6.4,11.4c13.9-4.4,30.6,3.6,44,0,4.8-1.3,3.9-13.2,6.7-13,19.5,1.6,39.2,5.1,63.2,6.7,21.8,1.5,58.5,21.4,64.6-4.5,5.4,2.4,11,4.3,16.8,5.9-9.3-10.9-18.9-21.4-28.9-31.6-61.9-.9-122.4-3.9-186.9,6-15.8,2.4-13.4-11.3-30.6,8.5-38.3-26.9-90.4,4.6-121.3-16.8-25.9,7.1-168.5-.6-180.7,7.6-3,2,1.9,12.1-4,11.3-7.7-24.8-38.4-11.9-54,1.5,1.1-13.4-8.2-13.5-19.3-15.3-51.6-8-106.8,11-156.5-4.9l.7,25.6-16.1-6,5.7-19.2-15.5,13.2-7.7-12.7c-22.8,2-46.6,2.2-71,1.7-10.4,10.6-20.4,21.7-30,33,4.1,2.7,8.6,4.9,13.7,5.3,26.3,2.1,69.6-6.7,94.6-5.9Z"/>
  <path d="M64,368.7l4,18.8c19.6-5.4,42.3.2,60.2-1.2,38-2.9,6.2-32.1,34.2-33.2l-5.4,31.9,31.2-20c.7,5.8.5,14.8,3.7,19.1,8.8,11.8,105.1,2,127.9,2.2,135.8,1.2,270-1.1,406.4-3.1,44.2-.6,111.5,23.1,147.5-6.8l12.6,12.9,147.1-4.5,21.4-20.2c0,5.5,2.4,12.3,7.1,15.4,17.7,11.7,61.5,6.7,98.5,4.7-4.8-12.6-10.1-24.9-15.7-37.1l-179.2.6-2.9,19.3-4.5-11.2c-16.5,2.5-18.2-12-47.5-6.9-11.1,1.9-8.4,10.4-10.4,11.5-4.1,2.2-10.1-10.4-14.1,9l-3.8-19c-10.3-2.5-4.4,9.5-7.1,10.9-20.5,10.1-25.1-9.3-33.8-10.2-19.3-2-41.2,5.9-57.8,5.3-24.3-.9-80.2-23.2-85.6,12.3l-6.1.2c-.5-5.1-2.5-13.1-6.7-15.7-9.4-5.8-112-9.4-111.2,19.4-4.2-21.5-21.1-4.6-32.1-6.8-3.8-.7-3-10.2-7.7-11.1-11.2-2-85.2-3.8-90,4.1-3.4,5.7,2.8,17.6-3.8,17.8l-3.9-25.4-92.3,2.8c-14,.4-19.1,14.6-28,19.9l5.5-25.5c-37.1-.4-74.6,3.9-111.7,3.5-51.2-.6-103-3.5-153.6-5.6-5.9,12.6-11.3,25.4-16.3,38.4,6.1.9,12.2,2,18.3,3.4l5.9-19.5Z"/>
  <path d="M795.9,448.7c-9.8-31.3,18.4-52.1,6.1-12.9,21.7-16.6,7.1,11.1,16.4,12.6,101.8-2.8,205.1-15.7,306.1-3.7l2.4-12.1,9.4-.4c6.1,21.1,24.4,10.5,43.2,11.8-3.5-13-7.4-25.7-11.7-38.3-95.9-2-192-3.3-287.2-3.9-27.3-.2-78.1-2.3-95.2,15.5-7.2-23.1-42.9-4.4-63.8-4.5-52.5-.1-117.6-11.2-169.1-5.4-10.7,1.2-19.6,11.3-28,11.6-3.7.1-.7-12.4-12.9-13.3-26.1-2-55.3,2.2-73,21.9l-4.1-19.4c-91.4,1.8-182.9-3.9-273.9-4.5-25.7-.2-57.2,6.3-82.9,6.3-13.6,0-29.1-2.2-45.5-4.2-3.8,11-7.2,22.2-10.4,33.5,163.1,4.4,327.6,12.2,490.5,12,93.8-.1,190.5-13.8,283.6-2.5Z"/>
  <path d="M357.8,1065.9c15.1-6.1,3.1-24.8,16.1-25.2l1,31.8,305.6-9.1c-8-31.4,19.5-40.7,6.1-6.7,27.9,9.9,56.3-.3,84.7.3,33.8.7,78.1,22.6,103.2-5.8l7.7,12.8,49.9-1.4,18.6-20.1,7.3,19.4c7.7-1.9,16.8-1,25.5-.5,14-11.6,27.4-23.8,40.2-36.7-31.7-4.8-65-8.4-88.9,18.3l-4.1-19.4c-22.7-7.6-49.3,13-63.3,15-2.2.3-2.7-21.9-37.4-11.5-6.3,1.9-1.8,14.9-6.8,13-22.1-19.6-66-18.8-89.7-3.7-5.5-24.7-50,0-63.4-.7-6.3-.3-14.8-9.7-31.8-9.6-54.3.4-132.7-4.1-178.4,18.5-8.5-26.8-40.4-1.6-63-11.2l-6.9,13.3-7.6-13.1c-25.4,6.4-47.9-3.5-75.5-3.8-42.3-.5-84.7-1-127-1.4,14.9,14.6,30.6,28.5,47,41.5,3.4.2,6.9.4,10.5.4,18,.1,111-.6,120.4-4.4Z"/>
  <path d="M840.4,632.8l-6.2,34.4c.8,11.5,96.9-5.6,111.3-6.3,15.7-.7,30.7,15.6,28.9-7l9.2-.6c10.7,12.9,8.8,23.2,29.3,18.1l2.6-12.7c33.7,23.9,90.4,4.4,128.5,4.6,17,.1,34.6.2,52.5.3,1.1-10.8,2-21.7,2.6-32.6l-350.3.4-8.4,1.4Z"/>
  <path d="M386.4,715.6c100.5,34.2,226,2,331.8,6,9.5.4,29.1,23.9,28.8-3.5l9.2-.8c4.9,19.2,63.9,13.9,83.7,10.9,12.6-1.9,5.2-17.1,20.6-9l3.8-11.5c7.9-2.6-4.6,22.5,13.3,18.8,5.8-1.2-6.6-18,9-19.4l4,19.3c48.2-3.1,97.9-6.8,146.2-7.5,24.1-.3,81.7,11.1,101.2,5.8,7.7-2.1,6-18.5,16.3-19.3l4,19.4c9.8,1,20.1-2.2,29.7-3.6,2.3-11.4,4.3-22.9,6-34.5-4.8-.8-9-1.2-11.4-1.4-33-1.7-85.4-3.1-111.1,16.2l-4.4-12.3c-17.6,7.9-32.1-4.5-50.4-5.1-69.5-2.3-146.2,8-216.4,9.3-58.4,1.1-135.8-17.1-184.6,9.1l-7.4-12.6h-12.3c0,.1-12,13.6-12,13.6-32.8-22.4-95.9-3.6-134-3.7-42.7-.1-108.6-28-146.4,5.7-3.8-15.8-40.4-16.7-57.9-17.3-48-1.8-98.5-1.1-147-2.1-17.6-.3-62-2-62.8,14.6-7.2-9.5-18.1-12.8-29.3-12.9,1.5,10.5,3.3,20.8,5.4,31.1,91.6,6.4,186.2,12.2,279.4,12.8,23.1.2,89.7,1.8,95.2-16Z"/>
  <path d="M990,974.6l.2,28.2-11.9,4h62.9c9-9.8,17.7-19.9,26-30.2-12.8-15.4-55.3,0-77.2-2Z"/>
  <path d="M309.6,105.3c14.2-3.5,11.3-23.5,21.4.9,27.7-7.8,71.1,15.5,81.4-15.2,14.5,34.3,38.4,12.9,64.1,12.2,26.3-.7,55.7,9.1,77.1,9.2,128.4.7,257.4-2.9,386.6-6.5-19.1-13.2-39-25.3-59.7-36.2-46.6,0-90.2-1.3-137.6-1-62.9.4-132,12-191.4-1.6l-12.1,14c-47-10.4-114.4-13.9-166-15-13.1-.3-26.2,8.3-38,8.1-5.6-.1-12.5-1.1-20-2.5-18.4,9.9-36.3,20.8-53.5,32.5,13.1,3.3,27.1,6.2,47.5,1.2Z"/>
  <path d="M820.1,1148.4c-7.1-9.1-14.3-11.4-25.5-12.3-50-4.1-159.8.4-210.8,6.4-16.9,2-26.7,4.3-40.6,14.3l-.7-19.2c-64.6,2-129.6,5.4-194.5,7.2,30,13.9,61.3,25.4,93.7,34.2l70.2-2.2,2.4-25.7,4,25.4c26.8-4.7,75.4,21.6,85.7-9,5.8-1.1,1.5,9.2,4.7,11.1,7.6,4.6,110.5-2.1,169.2-5.3,32.8-10.2,64.3-23,94.4-38.4-22.3-3.3-45-4.4-52.1,13.5Z"/>
  <path d="M408.4,1126.3c19.9-3.4,26-23.9,27.9-23.9l4,25.4c45.1-17.6,81.6,2.6,126.9-16.5.4-32.1-35.1-28-62.2-29.3-85.7-4.1-172.9,2.3-259.1,2.4,21.9,16.1,45,30.7,69.1,43.7,36.3.9,74.9,1.3,93.3-1.8Z"/>
  <path d="M696.5,1081.5c-14.8,2.4-5.6,13.8-11.9,13.7-6.1.7-.9-9.3-6.4-11.4-4.5-1.7-81.7-.5-89.6,1.4-21.5,5-8.6,20.8-21.4,26.2,0,3.1-8.7,11.3-6,12.8,19.7.6,39.3.6,53.9-14.3.5,20.9,85.3,12.3,92.7,6.9,3.9-2.8,5.8-11.1,5.8-16.2l6.7,12.5,18.6-13.3.7,19.2c10.8-6.1,25.8.6,33.8-1.1,2.9-.6,6-17.3,19.8-11.6,20.6,8.5,60.2,12.6,105.3,14.3,19.9-11.4,39-24,57.4-37.5-16.3,1-32.5,1.7-48.5,1.8-61.2.1-151.6-12.9-210.9-3.4Z"/>
  <path d="M81.1,502.5l15.1-13.7,4.6,12.7c89.2,1.7,179.4-6.3,267.3,5.1,30.6-31.4,15.2-1.4,18.7-1.1,43.5,3.7,120.7-.9,165.9-4.6,12.2-1,21-11.4,24.8-11.5,4.3-.1,17.1,11,28.4,12.5,19.3,2.7,71.9,8.7,73.6-11.6,5.4,18.2,14.7,12.5,32,12.3l2.9-19.5,9.9,12.5,6-13.1c7.1,14.7,14.8,18.9,32.3,18.3,141.9-5.3,285.6-2.7,429-2.7-2-11.6-4.3-23.1-7-34.5-44.2-10-147.2-9.7-173.3,5.4-17,9.8-.3,31.3-29,25.2l-.7-25.4,13.2,18.6-.7-25.4-66.8-2.9-21.5,31-1-31.8-152.8,4.5-2.6,19.3c-12-45.6-70.5,1.4-89.4-4.7-3.6-1.2-3-11.5-7.4-11.9-10.2-1-23.5,9.9-36.3,8.1-4.9-.7-1.6-11.8-13.7-13.1-11.1-1.1-46.5-.2-56.6,2.3-4.9,1.2-3.7,10.5-7.1,11.8-5.8,2.2-27.6-10.4-38.2-10.8-44.2-1.5-92.1,9.9-134.7-1.5l-5.5,12.4-7.5-12.4-336.7-.7c-2.8,11.7-5.2,23.5-7.2,35.4,11.3-.2,22.6-.3,33.7-.4,13.3,0,25.6,4,38.5,6Z"/>
  <path d="M70.5,665.3c22.8.6,64.2,23.3,72.2-6.1,3.1,17.8,28.7,15.5,31.8-1l7.6,12.8c46.1-6.6,98.4,13.3,143.1-.8,15.1-4.7,6.8-16.2,17.9-16.9l4.1,19.4,480.4-2.4,3.3-24.8-8.1-11.9c-46.9-3.2-94.2,4.3-139.4,8.8-3.4.3,0-11-12.2-12.1-42.5-3.9-95.5,8-139.5,4.5l-16.1,26.2c2.8-40.6-67.3-21.8-99.4-22.5-137.8-3.2-277.7-8.7-415.5-10.4.6,12.4,1.5,24.6,2.8,36.8,22.5,0,44.9,0,67,.6Z"/>
  <path d="M141.3,933.1c0,11.6-3,14.6,8.6,20.7,16.9,8.8,120.2.4,148.1.1,61.1-.6,82.7-3.8,140.4-10.2,3-.3.2,11.9,12.4,12.6,49.5,3.2,109.8-14.1,160-1.6l21.1-23.6c1.4,31.1,60.3,23.7,86.4,23,29-.7,57.6-5.7,86.3-2.7l2.6-19.3,3.8,19.1,15.9-.5,12.2-19.5c3.3,27.5,70.3,21,82.6,11.1,8.1-6.5-2.9-21.5,9.4-20.1l3.6,25.7c5.5,7.7,89.7,4.7,152.8,1.8,9.6-13.4,18.7-27.2,27.2-41.4-31.2.4-66.8,1.8-79.2,3.7-14.9,2.4-2.8,16.4-18.1,13.8l2.8-12.8c-71.4.8-142.4-1-213.9-.4-18.2.2-31,1.3-50.2,1.5-53.2.5-106.9-2.1-159.4-1.5-48.1.6-95.1,11.4-143.5,4.5l-5.6,25.7-4.3-25.4-114.3,8.8c-65.6-20.1-160.5-7.4-236.8-6.7,7.2,11.4,14.8,22.6,22.7,33.5,5.7,0,11.5-.1,17.2-.3l9.2-19.8Z"/>
  <path d="M1176.9,513.4c-47.8.7-101.3,8.5-147.7,9.7-29.8.8-63.1-3.2-82.5-8.5-19.7-5.4-22.7,13.3-24.3,13.3-8.1,0-16.7-10.7-31.8-12.4-50.2-5.4-155.1,3.2-210.9,6.3-11.3.6-20.6,4.9-31.2,7.8l2.8-12.9c-28.6,1.9-57.8.2-86.4,2.3-25.8,1.9-69.9,2.5-65.5,34l12.2-13,3.9,19.2,134.9-8.9c108.7,11.9,225.8,4.1,336.2,7.6,36.4,1.1,83.4,2.1,111.1-22.7l4.1,19.5,63.6-1.8,21.4-20.2c2.6,8,6.3,13.8,10.9,17.9-.3-3.9-.7-7.9-1.1-11.8-6.5,1.8,1.7-23.2-20-25.3Z"/>
  <path d="M720,247.2l-19.3,3.8.9,22.3,16-6.1c3.8-.4,0,11,12.4,12.2,40.4,3.9,79.8-14.7,120.5-3.7l12.7-32.7,4,25.5,168.8,7.9c19.4,5.8,42.8-1.3,64.4-7.6-8.3-12.4-17-24.6-26.1-36.3l-357.8,2.2,3.6,12.7Z"/>
  <path d="M498,165.3l15-13.7,4.4,12.5,91.8,3.6,2.5-18.9c12.8,5.4,35,10.3,48.3,8.7,16.5-2,10.1-22.7,30.1,8.1l300.4-3.7c2.7-4.8,4.4-9.1,5.4-12.8-10.6-9.3-21.6-18.3-32.9-26.9-9.8-.8-20.1-.8-28.8-1.2-73.2-3.2-148.8,9.7-220.9,10.6-72.3.9-144.7-9.5-217.3-5.6l-11.9,13.7c-4.9-20.4-41.3-18.9-44.6,1.3-5.5.6-.9-9.1-8.2-12.5-15.5-7.1-120.1-6.1-138.3-2.5l-6.1,25.8-4.2-31.7-6,12.9-22.5-12.1-11.9,32.3-4-25.4-12.2,13c-.4-2.5-1.8-4.9-4.1-7-7.5,6.1-14.9,12.4-22.2,18.9l1.2,8,296.9,4.4Z"/>
  <path d="M233.6,1005.6c4.2,5.1,99.7,10.3,117,10.6,61.4,1,130.4-11.9,185.1-6.1,10.5,1.1,20.9-.2,31.4-.2l6.1-19.8,7.2,19.4,210.5.2,11.9-13.7,7.7,12.7c51.7,2.2,103.9-12.8,154.5.9l12.2-44.2c-24.3,1.9-49.3-.3-73.6,1.7-18.5,1.6-23.7,22.3-37.9,1.5l-5.8,19.3-7.3-19.4-193.4,9.6c-28-15-11.7-2.7-35.2,10.4-8.5-22.3-37.2-29.5-44.6-5.1-44.6-23.1-120-3.9-171.1-3.6-49.2.3-98.6-11.3-148.3-6.5-12.9,10.3-16.8,9.9-27.6,20.5.7,3.4-1.4,8,1.2,11.6Z"/>
  <path d="M191.9,1015.1c12.6-1.2,5.2-17.6,20.8-9.2l.7-11.3,13,12.2c-1.4-7.2,1.9-8.8,6.1-12.9-1.2-5.7.4-13-.5-19.1-10.7,1.5-24.3-1.7-34.2.9-7.4,2,.5,15.6-10,13.1l-4.1-19.4-54.7,2c10.4,13.2,21.4,26,32.9,38.3,12,3.3,22.8,5.9,30.1,5.2Z"/>
  <path d="M104.7,558.5l2.7-12.8c6.4-.8.8,10.4,6.6,11.4,23.1,3.7,139.3,5.7,166.4,3.2,23.8-2.2,11.9-13.5,18.2-13.9l3.6,12.7,12.6-.5.9-11,10.8,3.1,6.8-11.6c4.1,31.7,26.8,12.8,42,14.5,5.7.7,11.5,8,19.7,8.4,30.8,1.8,67-8,98.3-2.2l5.3-38.4c-19.5-10.9-74,14.4-77.9,13.8-75.9-11.1-149.9-17.2-230.9-17.7-23.8-.1-67-.9-82.8,15.5l-7.3-13-25.1,6.9c-3.2.4,0-11.1-12.2-12.3-12.6-1.2-35.5-2.3-56.4,0-1.9,13.6-3.4,27.3-4.4,41.1,35.1-2.1,69.9-8.1,103.1,2.7Z"/>
  <path d="M113.5,260.8c3.7,18.7,22.7,10.9,37,4.1l6.8,11.9c93-14.3,199.6,18.5,288.8-14.9l-2.5,19.2c36.6-4.8,82.2,6.1,115.6-12.2,3.6-2-1.9-13,7.9-10.6l.5,12.7,12.2-13.1c-6.3,31.3,111.4,14.2,114.9,9-.7-26-7.1-38-34.6-30.3-7.5,2.1,3.8,9.3-13.5,8.3-8.6-.5,1.9,17.4-6.1,17.6l-6.8-18.8-15.3,6.3-7.2-12.1-2.3,31.9-4.8-24.5c-7.2-10.8-118.7.6-136.4.2-46.8-1-97.6-4.4-146.7-5.1-52.6-.8-120.7-10.4-171.9-8.2-17.4.8-25.3,5.1-31.4,20.4l-3-5.7c-4,5.4-7.8,10.9-11.6,16.5,1.7,1,4.8.5,10.3-2.6Z"/>
</svg>