<?xml version="1.0" encoding="UTF-8"?>
<svg id="Layer_1" xmlns="http://www.w3.org/2000/svg" version="1.1" viewBox="0 0 1200 1200">
  <!-- Generator: Adobe Illustrator 29.0.0, SVG Export Plug-In . SVG Version: 2.1.0 Build 186)  -->
  <path d="M1112.2,287.3c1.3,2.1,2.5,4.2,3.8,6.2-.7-3-2-5-3.8-6.2Z"/>
  <path d="M601.1,36.6c13.5-6.6,15.7,10.1,25.2,10.8,27.3,2.1,161.1,3.4,208.8.4-40.4-17.2-83.1-30.1-127.4-38.2-69.6,0-141.6,0-214-.2-43.4,7.8-85.1,20.2-124.7,36.7,46.3,1.6,92.9,3.3,138,3.7,38.2.4,62.5,2.1,94.1-13.3Z"/>
  <path d="M132,781.7c4.9-1.3,3.8-13.3,6.7-13.1,19.4,1.4,45.8,15.9,77,16.9,51.6,1.8,133.4,1,178.3-18.5l12.6,13,79.6-15.8,4.1,19.4,209.7-11.8c8.7,22,24.4,6.1,39.5,6.1,90.9-.3,181.6-3,272.5-3.8l6.1-19.8c7.4,20.6,45.8,35.9,51.3,11.1l7.7,12.7c14.3-2.1,36.9,2.4,49.3-2.4,11-4.3,5.2-19.6,16-18.8l4.1,19.4c9.1-.1,18.2-.2,27.4-.2,3.7-11.9,7-24,9.9-36.2-25.2,2.5-45.9,6.2-57.5,11.2l-7.5-12.9c-26.3,13.4-41.2-3.5-62.9-4.2-13.4-.4-81,2.3-88.5,8.4-10.3,8.3,4.6,26.7-9.4,26.6l-10.6-31.5-105,3.2.7,25.4-10.1-18.8-5.8,19.4-4.1-19-131-9.5-30.9,20.7-9.8-12.4-2.9,12.9c-4.9,1.4-3.8-12-9.9-15.8-5-3.2-112.9-.6-118.3,1.9-4.9,2.2-.1,13.6-5.7,11.6-24.1-15.6-78.1-28.6-92.3,2.8l-4.1-19.4c-47.5-3.5-100.3,9.8-145.9,9.9-51.2.1-101.5-10.6-153.5-7-17.1,1.2-30.5,11.7-37.6,11.9-9.2.3-35.2-13.5-54.3-12.1-3.8.3-6.7,1.6-9,3.2,3,11.8,6.3,23.4,9.9,34.9,37.6,2.4,84.4,5.5,104.2.4Z"/>
  <path d="M58,828.2l7.7,12.7c43.2,3.2,90.9-8.7,132.7-7.4,10.3.3,19.2,10.4,31.8,8.8,9.7-1.2,19.3-15.6,22-13.6.7.5-.9,9,1.8,10.8,15.5,10.2,108-9.1,134.7-2l6.9-13.3,7.7,12.7c97.6,4,194.6-2.5,292.4-3,18,0,45.2,16.2,41-7.3l6.2-.2c1.3,32.9,37.5-1.2,47.8-1.5,7.6-.2,17.6,10.8,31.9,12.1,62.9,5.8,138.5-15.1,202.9-7.4l12.9-31.4c6.3-.2-7.4,33.3,39.3,37.2,24.1,2,49.6.9,75-1.4,5.7-13.5,10.9-27.2,15.7-41.1-130.6,1.2-260.8,3.2-391.4,6.8-15.8.4-54.4-4.3-57.2-3.3-3.6,1.3-.5,12.2-12.1,12.9-16.5,1.1-39.5-11.7-64-11.8-43.5-.2-96,8.2-140.5,7.7-21.6-.3-43.9-11.1-70.2-7.9-18.6,2.3-36.4,14.8-43.8,14.9-3.7,0-.4-11.9-12.9-13.2-23.4-2.5-48.3,6.5-69.3,6.6-73.8.3-199.9-14.8-273.5-7.9,5.2,14.8,10.9,29.4,17.2,43.7,3.2-1.3,5.8-5.1,7.4-13.2Z"/>
  <path d="M198.4,314.7l-12.1,19.4c72.5-11.9,147.8.5,219.3-.3,17.5-.2,40.9,6.4,44.7-14.2l4.4,11.5,34-12.6c8.8,26,44.9,7.2,64.9,7,31.2-.3,66.5-4.2,94.3-4.1,37.1.1,80.6,13.6,121.2,8l5.9-19.6,6.6,18.3,35.3-.3,5.5-25.6c.6,6.9.9,18.6,6.6,22.6,8,5.6,172.6-1,195-3.1,18.8-1.8,31.7-17.1,53.8-8.2l-6.1,12.8c20.2-.5,40.5-1.6,60.8-2.8-4.3-8.3-8.8-16.5-13.6-24.6l-3.2,7c.8-5.2.8-9.2.1-12.2-1.2-2.1-2.5-4.2-3.8-6.2-8.6-6-28,5.3-38.6,6.2-3.2.3,0-11.1-12.2-12.2-59.4-5.4-146.3,9-209.4,11-42,1.3-86.1-2.2-128.4-.4l-5.9,19.7c-18-38.7-44.1-18.2-70.8-18.5-74.3-.8-148.3.6-222.5,1.5l-6,19.8-7.3-19.4c-9.7,1.8-21.7-1.2-30.6,1.2-7.4,2,.5,15.6-10,13.1l-4.1-19.4-151.6,4.9-6.9,13.2-16.1-15.9-22.2,10.8-7.5-13.2c-25.5,1.6-51.5,2.7-77.7,3.5-7.2,12.1-14,24.4-20.3,37,45.6.6,90.7-1.7,134.5-15.6Z"/>
  <path d="M226,893.6c21.1-3.4,28.5-24.7,29.1-2.5,28.2-17.7,29.1,6.4,40.5,6.6,62.9,1.3,128-8.5,191.4-5.9l21.4-19.9c6.5,31.4,42.2,24.1,67.3,23.5l2.9-25.7,7,25.3c21.4-3.7,76.2,4,91.6-8.5,8.1-6.5-2.9-21.5,9.4-20.1-2.4,31,6.8,11.6,11.8,14.3,1.6.9,1.6,9.6,6.1,10.5,12.1,2.4,72.9,4.4,65.4-14.5l6.2-.2c2,29.8,55.7,14.1,79.1,12.7,18.8-1.1,72.4-11.4,76.4-10.7,5.2.9,1.7,12,13.7,12.6,57.4,2.9,117.8,2.4,178.9.9,6.9-12.3,13.3-24.9,19.3-37.7-124.9-1.6-252.3-3.6-372-2.3-38.1.4-112.2-3.6-132.3,15.9-27.1-21-57.3-5.8-83.3-6.5-80.6-2.1-157.1-7.6-242.7-2.8-26.6,1.5-59.8-1.5-78.6,15.4-.3-20.7-24.3-22.9-41.1-17.8-5.1,1.5-3.2,13.2-7,13.2-9,0-15.3-10.3-26-12-26.9-4.2-57.7,8.5-85.9,2.5l-2.7,12.8c-1.3-6.4-6.5-10.9-13.7-13.9,6,12.6,12.5,24.9,19.3,37,54.2,2.7,129.8.9,148.2-2Z"/>
  <path d="M112.5,602.8l34.7,13.3,12-13.8c27.8,18.4,49.5,21.3,57-14.5l3.9,25.5c36.1-9.9,73.6,2.9,105.4,3.1,64.4.2,131.2-10,190.5-8.1,119.9,3.9,235.7,2.7,355.9-6.2,18.5-1.4,40.1,11.4,58.2-10.6l7,12.9c29.7-21.7,40.5,4,50.4,5,64.4,6.2,136.5-14.1,201-3.3,3-12.3,7.1-14.2,11.4-13.7-.1-8.2-.4-16.4-.8-24.5-16.7-.6-33.4-1.3-50-2l6.8,12.4-16,.7c-6.1-23.7-17.5-6.2-32-6.7-24-.9-51.8-15-69.9,9.7-22.5-30.6-82.2-12.6-118.4-15.4l-2.7,12.8-12.7-13c-48.3,7.2-106.9-2.4-153.7,4.7-10.1,1.5-14.6,26.1-37.8,1.7l-5.9,13c-7.4-25.9-38.5-6.9-57.6-7.8-70.4-3.3-130.1,4.5-197.3,6.8-2.6,0-16.5-9-31.7-9.9-52.4-2.8-30.5,20.2-38,20.8-8.9-24.2-52.3-23-76.7-23.2-57.9-.6-124.7,13.1-178.1,12-3.8,0-3.3-11.5-8.3-12.5-13.6-2.9-79.3-4.1-81.2,15.1-8.7-6.1-22.3-9.8-37.4-12.1C.2,583.2,0,591.6,0,600s0,9.9.2,14.8c41.4-1.2,91-3.7,95.1-5.5,5.2-2.3,26.1-42.7,17.2-6.5Z"/>
  <path d="M956.5,1036.5l-4.7-11.5c-46.4-8.5-89.2-.2-135.5,2.1-18,.9-38-7.1-57.9-4.2-13.7,2-30.1,16.8-44.1,13.1-27.1-7.2-74.8-12.4-108.4-12.9-37-.6-74.5,5-111.8,2l1.2,38.2,136-8.7c98.2,19.9,209.8-2.2,310.8-1.4,14.1.1,28.7,5.1,43,7,14.9-12.5,29.2-25.7,42.8-39.6-9.2.4-18.4.8-27.6,1.5-16.7,1.2-41.4-2-43.8,14.4Z"/>
  <path d="M217.2,199.5c16.1,41,54.3,7.4,70.3,6.7,4.6-.2,29.6,14.5,39.2,15.1l2.4-12.4,12.5-.3c3.5,38.1,48.5-10.5,50.8-8.1l-5.7,19.2c2,1.4,45.7-1.8,48-2.7,5.4-2.2-2.7-14.6,12.1-11.9,6,.4,1,11.5,7.8,12.8,19.9,4,87.6-3.7,113.9-4.1,17.8-.3,38,15.2,34.7-6.9l9.4-.5c5.9-1,1.7,9,4.9,10.9,14.1,8.5,185.5-7.5,218.4-8,58.6-.8,120.9,11.1,185.1,4.1,11.9-1.3,20.3-10.6,27.2-12.5-8.8-9.9-18-19.5-27.5-28.9-42.5-1.7-92.8,9.6-130.2,8.2-220.3-8.7-449.6,8.1-674.1-.4l-21.4,20.2-4.1-19.4c-7.1,1.6-14.6,2.3-22.3,2.4-10.7,11-20.9,22.5-30.7,34.3,32.1.3,66.8,0,76.4.8l2.9-18.7Z"/>
  <path d="M42.6,388.1c8.6,4.7,151-3.6,170.1-16.5,5.4,36.2,44.1,6.9,63.7,6.1,12.5-.5,22.1,10,35.5,10.1,50,.4,100.2-6.7,149.9-4.8l-1.1-38.1c-17.7.8-30.4-5.8-34.6,13.8l-7.7-12.7c-38.1,9.3-112.8-10.7-132.2,23.4l-7.2-19.4c-30.8,10.7-59.7-2.7-89.2-3.2-30-.5-61.2,5.6-89,5.5-8,0-26.2-1.5-46-2.9-5.3,11.5-10.3,23.3-14.8,35.2.8,1.7,1.7,3,2.7,3.6Z"/>
  <path d="M135.1,444.2c32.7.2,64-6.2,96.1-8.8,3.2-.3,2.4,10.7,7.3,11.7,17.6,3.5,43.2-4.3,62.4-1.4l3-19.6,9.7,11.6,28.4-12.8.7,19.2c3.9,4.1,28.6-17.2,40-13.8,4.9,1.5,4,11.9,8.7,12.5,26.3,3.1,69.1-15.5,81.1-15.8,2.3,0,8,18.6,39.8,18.6,20.3,0,13.7-10.9,18.1-12.6,3.9-1.5,31.8,10.5,44.5,10.8,65.3,1.6,136.8-13.1,197.1-13,4.2,0,.9,11.8,13.2,13,52.6,5.4,117.4-14.4,172.5-5.7l18.3-19.9c6.1,38,136.6,4.1,143.1,9.4l4.1,11.7,5.6-25.8c5.1,18.9,10.3,6.1,14.8,8.2,11.9,5.6,22.7,9.8,33.5,12.6-3-10.5-6.3-20.9-9.9-31.2-.2,0-.5,0-.7,0-25.2-.8-51.2-27.9-72.5,11.5l-10.3-18.7-12.4,13-12.6-13c-104.6,2.4-208.8,15.6-312.5,3.7l.3,12.9c-65.5-24.5-136.4-.5-204.6-7.1l-11.8,13.7-26.5-18.1-5.6,12.7-7.7-13c-90.8,2.2-182.4,13.4-273.2,1.8l-34,27.2-4.7-19.3-120.9-8.2-5.5,12.6c-6.9-5.6-13.2-8.6-19.2-10.1-4.5,13-8.5,26.3-12.1,39.7,47.3.2,98.3-.4,114.8-.3Z"/>
  <path d="M454.8,1055.7c3.3-2.5-1.9-12.8,8-10.5l6.7,12.5,11.9-32.1-153.1-1.7,3.6,12.6-18.9-12.7-133.6,4.2c13.8,13.5,28.2,26.4,43.2,38.6,54.1-3,114.2-9.5,140.8-9.6,30.4-.1,62,21.4,91.4-1.2Z"/>
  <path d="M186.5,658.6c13,23.4,75.9,6.4,103.3,5.9,52.8-1,91.9,6.1,139.2,6.4,41,.2,85.7-6.4,127.6-4.1l21.4-19.9c2.4,27.2,27.8,12.8,48.4,14.8,82.6,8.2,165.7,3.7,248.7,2.1,51.8-1,100.7.8,152.8,1.4,38.7.4,15-17.4,24.9-20.2l22.5,5.8-6.1,12.8c23.7-5.4,65.5,10.7,72.8-14.9,17.1,4.8,35.6,8.4,55,11.1,1.2-12.4,2.1-24.9,2.5-37.5-2.7-.3-5.3-.3-7.8,0-14.8,1.8-32.7,14.4-34.1,13.2-2.4-2.1,4.8-15.3-6.7-12.5l-2.7,19.2c-2.5-11.5-26.6-17.5-38.5-18.2-29.7-1.8-75.9-2.8-98.5,16-4.7-30-19.6-13-35.7-13.2-193.7-2.4-440.1,23-624.5,1.9-16.9-1.9-40.8-5.6-43.9,13.8-6.3.2,2.3-11.6-12.7-13-25-2.4-105.7-2.9-114.5,16.8-41.8-31.6-88.1-7.5-134.3-15.1l-5.7,25.8-3.9-25.5H.8c.6,11.3,1.5,22.4,2.7,33.5,50.5.8,100.8,2.4,145.5,6.4,15.8,1.4,24.4-7.2,37.6-12.9Z"/>
  <path d="M1099.3,904c-21.8-1.4-182.4-1.2-191.5,1.7-2,.6-7.3,20-28.3,12l2.8-12.8-79.6,2.5,4.8,11-16.4,21.1-11.6-31.7c-35.8-7.3-37.1,16.6-65.5,14.9l6.1-12.8c-26.4.8-53,1.5-79.5,2.4-10.4.4-21.3,7.9-31.5,7.2-14.1-1-40.7-24.9-61.7-7l-4.6,34.6c18.1.7,35.8,4.8,54,5,94.4,1.3,199.9-16.1,293.3-12.8,6.1.2,9.6,8.2,12.7,9.5,2.4,1,16.2-36.2,39.1-1.3l104.1-3,2.4-25.7,7,19,9.1-13c0,10.8,10.9,17.3,26,20.8,7-9.9,13.7-20,20.1-30.4-1.7-3.3-1.9-10.7-11.2-11.3Z"/>
  <path d="M125.4,725c8.4-1.2,8.4-5,10.2-11.8l11.4,4.2c2.9-4.3-3.5-17.5,0-23.5-46.8.7-93.4.8-139.8-1.4,1.7,11.1,3.7,22.1,6,32.9,40,2.4,80.6,4.1,112.2-.4Z"/>
  <path d="M974.5,692l-16.2-11.9-18.1,32.1-10.1-28.7c-81.4-6.5-164.2,6.4-245.5,7.8-5.8.1-15.5-10.4-32-9.3-10.2.7-36.6,10.2-37.6,21-7.9-18.9-19.8-17.4-38.5-18.3-46.1-2.1-98.5,13-140.4,10-92-6.5-184.9-2.8-277.4-1.2l-5.1,29.8,123.5,3,6.9-13.4c10.7,28.8,55.5.9,82.2,10.6l6.9-13.3,7.7,12.7,72.2-8.7-6.1,12.8,66.6-1.5,9.2-19.8,4.2,12.7c19.1-14.2,13.4,4.3,19.7,5.6,15.4,3.2,143.4,1.7,170.8,1.5,46.8-.4,92.8-8.4,139.4-4.3l6.8-13.2c34.2,31.2,80.3,0,108.7-3.2,2.9-.3,2.3,10.8,7.3,12.1,38.9,10.1,123-1.5,164.8-1.2,14.8.1,29.6.3,44.5.5,2.3-11.9,4.3-23.8,5.9-35.9l-216.5-1.7-3.6,13.2Z"/>
  <path d="M146.9,693.9c3.9,0,7.8-.1,11.7-.2l.4-2.1c-7-1.6-10.5-.3-12,2.3Z"/>
  <path d="M301.2,1003.9c3.1-2.1-1.9-12.1,4-11.3l7.5,12.9c19.3,4.1,31.5-12.2,40.8-11.5,12,.9,23.9,13.5,41.1,15.3,51.2,5.6,140.4-6.5,197.6-6.2,12.7,0,25.9,6.8,38.7,5.9,12.1-.9,8.6-14.1,12.2-14.2,9-.3,19.9,10.6,32.8,11.9,42,4.3,111.6-4.5,158.6-4.7,71.1-.3,141.7-1.6,212.6-1.7,11.4-12.7,22.3-25.9,32.6-39.6-29.3,1.4-60.6,6.5-67.6,16.8l-7.7-12.8-50.6-4.2-5.5,12.7-7.3-12.6-221.7,6.7-6.5,12.9c-23.2-28.6-70.5-1.3-95-3.7-4.8-.5-1.5-11.4-13.5-12.7-24.8-2.5-70-.9-89.3,16.1-4.7-20.2-54.1-19-57.2,1.8l-7.7-12.7-212.5.2-2.6,19.3-7.1-19.2c-28.4,10.3-60.1-7.3-82.4,15.5-3.1-6.3-8.9-10.3-16.2-12.8,9.4,11.9,19.3,23.5,29.6,34.7,53.5,4.9,133.4,3.3,142.3-2.8Z"/>
  <path d="M284.8,108.7c32.5-5.5,70.1-.6,101.5-2.9,12.4-.9,21-11.6,25.1-11.8,15.7-.4,67.1,27.6,89.1-5l19.5,18.9c27.3-5.8,210.6-.1,218.7-14.7,2.6-4.7-1-13.8.4-19.6,2.1-8.8,15.2-1,12.3-11.4-70.6-3.2-145.3,14.7-214,.7l-5.4,12.4-7.7-13c-47.4,12.1-106.6-2-152.1,4.4-15.2,2.2-9.2,16.9-21.4,20.3l-3.7-18.3c-9.9,2.7-20.4,3.1-31.1,2.5-12,6.5-23.8,13.3-35.3,20.6l4.1,16.8Z"/>
  <path d="M262.1,104.1c-1.5,1.1-3.1,2.1-4.6,3.2,1.5.6,3,1.1,4.6,1.7v-4.9Z"/>
  <path d="M763.5,1132.5c-41.9,5.6-25.6,2.9-65.2.8-81.3-4.4-171.5,9.7-254.1,1.2l-6.9,13.5-7.7-12.7c-31,1.8-62,3.2-93.1,4,13.2,6.5,26.7,12.5,40.4,18,0-.4.1-.7.2-1.1l2,2c12,4.8,24.3,9.2,36.7,13.2,25.4.7,54,9.3,73.5,7.5,43-3.9,98.1-10.5,145.7-10,34.8.3,96.3,16.8,127.2,7.5,7.1-2.1-1.4-16.2,13.2-13.3,1.3,4.6,3.1,7.6,5.2,9.4,15.1-4.8,30-10.1,44.6-16.1l.7-7.7,3.4,6c14.7-6.1,29.1-12.8,43.2-20-35.4-.7-76.1-6.5-109.2-2.1Z"/>
  <path d="M511.9,1120.1c5.1-1.5,3.2-13.3,7-13.2,8.7.3,14.1,9,20.5,10,17.9,2.8,52.7,3.1,67.7-5.9,5.5-3.3.2-15.4,10.1-13.2l4.2,19.4c80.9,4.2,161.1-.3,242.1-1.2,14.8-.2,29.3-.3,43.7-.5,21-12.5,41.1-26.3,60.3-41.2-17-.4-37.4-5.1-41.4,14.1-31.4-23.7-87.1-5-126.6-4.9-94.1.2-188.1-7.9-281.8-.8-25.5,3.5-17.9,31.6-24.2,31.7l-4-25.5c-40.2,2.5-122.2-19.8-161.4-7.8-7.3,2.2-10,23.5-16.5,19.7-5.7-23.5-37.9-20.5-66.3-16.6,17,12.5,34.8,24.1,53.1,34.8,33.6-1,67-1.7,99.9-2,31.5-.2,82.7,12.2,113.5,3.2Z"/>
  <path d="M793.2,500.5c37.6.3,74.4-8,111.6-3.7l-1.2-38.1c-32.9,3.2-65.8,3.5-99,3.3-23.5-.1-33.4-15.9-43.9,13.8-9-20.7-19.8-21.3-41.6-17.5l-3,18.8c-6.6-.6.3-8.7-6.9-10.9-9.2-2.8-16.6-7.9-18.7-8.1-27.1-1.8-58.7,3.8-82.7,16.2l-7.3-13.2c-82.7,4.4-167.9,1.3-254.1,1.5-73,0-151.3-6-223.6.5-19.6,1.7-35.6,17.5-60.1,8.4l6.1-12.8-53.1,3.3c-2.8,12-5.3,24.1-7.4,36.3,15.3-.2,30.7-.4,46-.6,234.5-4.3,495.1,1.1,738.6,2.8Z"/>
  <path d="M231.4,947.8c11.1,0,61.9,9.4,68.1,4.8,2.5-1.9-1.6-12.6,4-10.7l25.8,12.2,6.1-13.6,50.4,11.8,6.8-13.3,7.7,12.7,43.4-1,6.1-19.8c10.4,29.9,66.3,24.6,76.4-2.3l10.1,18.8,5.3-38.3c-18.5,7-71.7-1.3-85.2,2.7-7,2.1-.5,12.6-6.7,12.8l-7.5-13.1c-31.1,14-60-9.5-84.7,15.8,1.4-21.9-75.7-18.9-85.6-15.8-4.4,1.4-24.2,34.5-35.9,6.9l18.9-6.9-70,2.1-5.7,19.2-3.7-18.9-78.6,13c3.2,4.9,6.4,9.8,9.8,14.6,43.6,15.6,81.6,6,124.8,6.2Z"/>
  <path d="M1132.6,343.7c-17.1-.2-34.8-7.7-51.2-5.8-12.5,1.4-7.9,14.2-12.1,14.1-14.2-.3-65.9-33.6-76.4,2.2l-7.7-12.7c-36.8,5.4-86.9-4.2-116.4,16.4.4-4.2.1-11.4-4.6-12.6-20.5-5-93.9,7.3-120.2,7.1-59.1-.4-114-3.4-175.4-.1-20,1.1-96.3-11.4-101,14.9-4.4,24.8,81.2,32.2,85.9.3l7.3,19.4c96.3-9.9,189.9-.3,286.1-2.4l3-19.6,9.9,12.5,6-13.1c13.9,35.1,44.4,9.5,73,15.6l3.6-11.6,7.2,12.8c18.4-11.6,38.4,5.9,50.2-14.4l7.6,12.8c27.6-11.3,85.7,5,107.6-4.8,5.5-2.4-.5-12.1,5.7-11.8,5.1-1.1,3.3,14.5,14,17.9,2.5.8,11.9.8,24.1.3-5-12.7-10.3-25.1-16.1-37.3-3.3,0-6.7,0-10.1,0Z"/>
  <path d="M29.7,529.9c6.3,28.6,3.1,12,16,16.4,21.4,7.4,58.7,11.8,87.3,12.4,55.6,1.1,111.2-9,165.3-12,11.4-.6,8.2,11.6,13.8,12.8,17.4,3.6,107.7,4.8,103.4-22.1l6.7,12.5,15.5-13.1,3.8,18.8c11.8,5.7,74.2-6.3,92.6-5.9,90.9,1.7,181.5,2.1,273.9.9,130-1.8,255.3-2.2,388.2,1.4.6,0,1.2,0,1.9,0-1.1-13.7-2.6-27.2-4.6-40.7-80.2-2.8-160.9-3.7-240.5,2.9-15.4,1.3-35.6,12.7-37.6,12.6-6.5-.4-12.2-14.4-19.3-14.9-6.8-.5-17.4,9.4-26.5,10.1-7.4.6-28.3-12.6-44.7-8.2-15.5,4.1-23.8,10.5-30,24.7l-11.2-24.3-200.1,4.7-11.9,13.7c-4.7.2,2-18.4-25.9-12.2l-2.6,19.3-6.8-12.5-9.1,13.1-3.9-25.4c-8.2,2.7-37.3.5-41.4,2.4-5.5,2.6-4.8,12.5-9,15.3-9.4,6.4-18.7-11.9-22,10l-3.9-25.5c-30.8-1-61.4,5.3-91.9,5.3-21.7,0-140-8.5-149-2.9-3.4,2.1-5.1,17-10.2,17.9l-3.8-18.8-47.9,1.2-18.3,19.9c-9.9-26.8-74.6-37-83.1-10.2l-3.6-12.7-21.9,13.3-6.7-12.7-4.7.2c-1.4,10.3-2.6,20.6-3.4,31.1,2.3-.7,4.5-1.4,6.6-2.1,17-5.3,17,13.8,21-16.9Z"/>
  <path d="M309.2,273.6l11.8-13.6c13.4,17.9,44.2,31.2,51.2,4.7,5.8-1.1,1.5,9.2,4.7,11.1,9.5,5.7,170.7-4.6,199.7-4.7,35.3-.2,48.4,17,78.9-14.9l4.1,19.5c26,10.7,68.6-15.7,81.9-16,3.6,0,.4,11.9,13,13.2,32.1,3.4,28.3-12,31.8-13.2,12.8-4.2,38.8,9.6,50.9,10.4,69.9,4.7,136.7-3.5,210.3-.7,17.4.7,34.9-.5,52.4-1.3-9.6-14.4-19.8-28.4-30.6-41.9-20.1-1.2-40.8,1.7-47.7,6.7-8,5.8-8.2,18.8-12.6,19l-26-25.1-75.7,2.6-6.9,13.2-7.6-13c-11.5,4.9-35.8,1.2-43.8,3.1-4.7,1.1.1,15.8-18.7,12.1-2.8-.5-.5-12.3-12.8-13.1-29.1-2.1-64.5,12.6-94.9,3l-12.6,32.8c-5,.1,1-45.7-34.4-28.7-1.3.6-5,18.4-23.5,10-16.9-7.7-3.4-16.1-44.7-16.3-29.9-.2-43.8-5.7-60.3,20.9l2.5-19.2c-29.7,11.6-98-13.3-104.5,22.3l-13-12.3-5.8,19.2-6.9-18.8-12.2,19.4,2.9-19.3c-6-8.5-69.1-6.9-86-6.9-42.6.2-89.9,1.6-137.5,1.1-10.8-.1-21-5.2-31.8-5.8l-9.1,23-9.9-9.4-5.8,19.4-7-19-9.1,13-.4-11.3c-5.9,8.2-11.6,16.5-17.1,25,71.9-3,144.1-6.1,212.7,0Z"/>
  <path d="M635.5,125.8c-46.2.7-110.9-11.6-153.1-4.5-5.4.9,5.9,14.7-5.8,19.2-31.6-29.9-86.9-11.3-127.6-15.5l-6.1,19.8c-5.6-19.1-36.7-8.8-54.6-17.5l1.1,38.2c78.8,1.5,159.5-10.9,237.8-11.6,89.3-.9,183.2,4,275.1,2.2,23.3-.5,14,14.4,34.3-13.7l3.8,19,8.9-25.8,6.7,12.4,9.1-13-2.4,25.5c22.8,10.3,49.6-14.1,60-14.7,2.1-.1,8.9,23.6,35.5,11.8l-6.9-18.8h18.5s1.2,18.5,1.2,18.5c10.9-.4,21.8-.8,32.7-1.2-14.4-13.1-29.5-25.6-45.2-37.3-32.2.9-73.2,3.2-87,3.2-76.4-.1-156.9,2.6-236,3.8Z"/>
  <path d="M1041.6,486.3l-14.5-30.6c-28.7,4.9-86-11.7-100.4,14.2l-16.3-5.2.6,19.1c16.9-6.9,25.9,9.5,47.9,11.5,45.9,4.2,98.4-8.4,145.3-8.3,28.4,0,56.8.2,85.3.5-2.4-12.5-5.1-24.8-8.2-37-25.7.2-51.4.7-77.1,1.6-27.2.9-59,1.4-62.6,34.3Z"/>
  <path d="M281.7,121.1c-16-2.2-32.6,1.6-48.3,3.9-13.6,10.5-26.7,21.5-39.3,33.1l88.8,1.2-1.2-38.2Z"/>
  <path d="M758.9,100.1l168.5,1.3c1.6-.3,3.1-.7,4.6-1.2-20.7-13.8-42.3-26.3-64.7-37.5l-102.4-.2-6,37.6Z"/>
</svg>