<?xml version="1.0" encoding="UTF-8"?>
<svg id="Layer_1" xmlns="http://www.w3.org/2000/svg" version="1.1" viewBox="0 0 1200 1200">
  <!-- Generator: Adobe Illustrator 29.0.0, SVG Export Plug-In . SVG Version: 2.1.0 Build 186)  -->
  <path d="M671.4,3.6c-5.8-2.7-13.4-2.8-21.7-1.5,7.2.6,14.4,1.3,21.5,2.2v-.6Z"/>
  <path d="M1028.6,180.1l-2.9-7.3c-1.4.1-2.8.2-4.2.3,2.4,2.3,4.7,4.7,7,7.1Z"/>
  <path d="M1076.2,228.5l-4.9.2c1.3,1.6,2.6,3.3,3.9,5l1-5.1Z"/>
  <path d="M1117.2,290.3l12.4-6.8-18.5,1.9c2.2,3.5,4.3,7.1,6.4,10.6l-.2-5.7Z"/>
  <path d="M1057.9,999.9c-1.6-3.2-2.6-6-3.2-8.4-1.9,2.2-3.8,4.4-5.7,6.6l9,1.8Z"/>
  <path d="M695.2,47.6c11.7,1.1,73.4-1.2,82.2-4,6.4-2,1-12.6,6.7-13.1,8.4,3.3,18.1,6.1,28.8,8.3-30.2-11.5-61.6-20.6-93.8-27.1-8.7,3.5-15.9,7.4-18.3,7.3-5.2-.2-12.7-11.4-19.5-9.7-7.9,2-4.7,21.2-15.2,19.8l5.1-25c-7.1-.8-14.3-1.6-21.5-2.2-20.9,3.2-45.3,15.2-50.9,14.9-10.1-.4-25.2-17.7-48.1-2l5.9-12.9c-6.8,2.4-20.2,3-35.4,3.1-47.3,6.2-92.8,17.9-136,34.4,99.1-.9,198-2.3,296.5-4.8,4.1-.1,1,11.7,13.3,12.9Z"/>
  <path d="M244.6,767c.1,26.3,29.1,6.6,42.3,5.2,3.2-.3.4,11.6,12.5,12.2,103.6,5.5,243.5-.5,350.4-2.7,20.7-.4,52.9,5.4,57.1-15.3,16.8,16.8,45.4,9.3,67.4,9.8l-3.9-19c30.3-6.6,29.2,12.3,39.4,16,2.4.9,45.5,5.7,50.7,5.9,52.4,2.1,112.3-11.8,165.8-6.5l11.8-14,7.8,12.7,129.7-1.6c3.6-12.4,6.9-25,9.8-37.7-9,.7-16.2,1.5-20.3,2.3-7.6,1.5-15.1,4.7-15.9,13.3l19.6,12c-17.1-6.3-30.3-1.6-26.5-24.3l-28.1,13.9c-9.4-32.7-38.9,7-47.7,2l2.7-12.9c-5.1-8.2-47.2-6.9-56.7-3.9-7.1,2.2,1.7,16-13.1,13.5-15.5-29.2-70.5.4-101.4-8.8l-6.7,13.3c-67.1-25.3-201.9-14.5-281.6-13.7-28.1.3-59.2,6.4-88.4,3.5l-5.8,19.9c-5.2,0-1.4-8-8.7-11.9-38.6-20.6-140.3-5.5-189.9-4.9-36.1.4-75.5,1.2-106.5-.2-47.7-2.2-59.9.1-103.5,6.1-11.3,1.6-30-12.9-50.1-8-4.8,1.2-3.5,10.7-6.9,12.1-1.7.7-15.9-3-31.5-6.9,3,11.6,6.2,23.1,9.9,34.4,21.2-1.5,42.5-6.9,59.9-7,45-.2,115.8,22.9,156.4-8.6Z"/>
  <path d="M65.5,825.4c17.7,16.1,42.1,6,64.2,7.6,19.2,1.4,39,12.5,63.1,6.3,1.7-.4,15.3-36.9,13.6-.7l299.5.2c19,2.5-1.9-12.5,6-13.3,20.1-2,32.1,9.4,45.2,10.4,40.9,3,89-.5,130.5,1.3l-7.1-18.7,19-.8-5.5,19.3,463.2-13.9c5-12.5,9.6-25.2,13.8-38.1-13.1-.6-23.8,2.3-29.1,14.1l-7.9-12.9c-89.3,3.4-181.5,16.3-269.7,5.4l-12,19.6,2.4-19.2c-93.9,11.8-186.9,4-280.1,5-61.2.6-121.7,3.3-183.7,5.9-112.6,4.8-234.9-2.4-357.1-4.1,4.8,13.8,10.1,27.3,15.9,40.6h4.3c0-.1,11.5-13.9,11.5-13.9Z"/>
  <path d="M133.6,325.7c42.2-2.6,28,3.5,44.4,5,40.7,3.8,97.1-6.9,140.7-6.7,93.7.4,186.7,3.3,280.3,1.7,40.6-.7,98.2,13.6,139.9-13,7.7,25.2,28.4,6.3,45.1,7.5,9.7.7,18.3,8.5,32.2,8.7,33.2.7,73.3-6.9,107.7-4.4l5.8-19.8,4,18.8,76.6,3.1-19.3-5.5,11.9-19.5c-11.8-15.5-129.2-19.2-149.4-12.9-6.3,2-1.6,15.1-6.7,13.1-60.3-25.6-139.6-7.8-204.4-7.2-5.4,0-16.2-9-31.8-8.8-37.9.4-87.1,2.8-121.1,18-13-31.7-44.2-13.2-70.3-12.8-112.4,1.7-221.8-1.5-333.2-.4-7.3,12.1-14.1,24.4-20.6,37,22.8,0,45.6-.4,68.3-1.8Z"/>
  <path d="M310,878.8c48,31.2,122.8,8.4,181.5,8.1,14.1,0,30.9,7.5,48.7,7.4,52.5-.3,108.3-11.2,159.9-.8l5.3-12.5,7.6,12.3,104.3-4.3-3.8-12.8,18.9-6.8,4,18.9c23.1-1.7,50.4-5.4,73-6,12.7-.4,29.5,6.5,38.8,4.9,14.2-2.4,3.2-19.3,24.7,2.3,52.3-.5,104.8-4.5,157.3-8.6,2.3-4.4,4.6-8.8,6.8-13.2-6.6-5.1-18.3-19.3-25-20.1-54-7-128.4,4.8-185,5.3-92.4.8-190-1.7-279.9-1.4-24,0-90.1-3.8-91.9,23.3l-10-12.3-5.8,13.1c-4.1,1.1-4-12.5-14.6-17.4-18.3-8.5-171-3.5-196.9.2l-14.8,13.9c-.4-5.1-2.8-13.1-6.9-15.7-5.6-3.4-92.6-1.2-105,1.6-23.2,5.3-13.3,26.8-32.6-5.4-20.4,18.2-32.7,4-56.3,2.5l-6.6,13.1-7.9-12.9-40.7.3c5.8,12.2,11.9,24.3,18.5,36,43.8,1.8,87.4,4,132.9,4.2,27.3.1,92.2,4.1,101.4-17.3Z"/>
  <path d="M1138.9,864.1c3.2-6.6,6.3-13.2,9.3-19.9h-20.4c0,0,11,19.9,11,19.9Z"/>
  <path d="M148.9,611.8l2.4-19.4c14.9,26.6,60.8,11.2,83.7,12.2,108.7,4.8,196.9,3.3,306.2,2.8,12.3,0,23.1,3.6,34.9,5.2l5.2-32.1c13.2-1.8,3.8,19.5,7.4,25.2.3.4,5.7-4.1,9-3,31.1,11.1,41.7,5.9,73.3-.9l-1.7-24.1c-7-2.9-14.8-5.5-22.4-6-73-4.6-162.7-2.9-236.6-1.4-11.5.2-18.5,15.2-43.1,0l-8.7,19.5-4.4-19.4c-23.2,1.8-46.6,2.3-69.9,3.3-87.6,3.9-186.4,1.4-283.9,5.9C.1,586.6,0,593.3,0,600s0,5.7,0,8.6c8.2-1.1,16-2,23.3-1.9,40.4.4,82.3,11.8,125.5,5.1Z"/>
  <path d="M362.8,1061.6c11.2-1.7,18.1-4.6,24.6-14.1l6.9,12.5,8.9-13.2c5.4,32.4,25.3,11.8,42.1,12.2,116.8,2.2,226.2,4.5,344.2-7.8,16.4-1.7,34.4,10.5,37.5-9.7,5.2-1.4,2.3,9.8,7.9,12.6,9.9,5,55.6,4.6,67.6,2,11.9-2.6,17.2-26,27.8.3l17.7-.7,6.5-13.3h9.3c-.2,13.8,12.9,13.9,27.6,12.2,14.8-12.8,29.1-26.3,42.6-40.5-33,2.7-65.9,5.9-98.5,7.6-44.6,2.3-105.8-13.3-143.8,14.9l5.5-19.3-40.5,1.5-6.7,13.3c-5.8,1.2-1.6-9.2-4.8-11-9.1-5.3-148.1,5.4-174.2,6-29.6.7-61.4-16.2-88.9,7.3l-118-11.6-5.7,19.4c-1.4-11.3,5.5-19.1-10.5-18.8-33.8.6-90.7-.3-120.7,5.5-8.3,1.6-13.9,7-18.7,13.4l-6.9-12.5-5.8,13.1c-3.7-13-7.2-11-10.4-9.1,10.8,10.3,21.9,20.2,33.4,29.7,49.3,2.1,98.6,5.1,143.9-1.9Z"/>
  <path d="M774.6,213.9c2.8-2-1.6-11.3,4.1-11.2l3.6,12.6,273-6c-6.9-8-14-15.9-21.3-23.5l-.8,6.3-4.6-12c-2.3-2.4-4.7-4.7-7-7.1-42.8,2.6-77.7-5.1-109,30.3-16-5.7-1.5-22.3-4.1-25-10.3-10.6-216.8,5.3-250.9-.4l-22.2,24.5c3.6-21.3-19.4-29.3-36.8-29.7-2.1,0,.2,18.5-23.6,13.1-4.8-1.1-1.7-11.6-13.8-12.6-29.8-2.6-70.6,4.7-102.5,5.1-44.2.5-45-13.9-88.8,8.2-13.2,6.7-17.9-9.6-20.6-10-24.1-3.3-53.8.2-78.5-3.3l-5.6,19.4c2.3-25.8-53.5-21.4-64.6-13.3-6.2,4.5-1.7,18.1-11.8,16.5l-4.5-19.3c-3.7.5-7.1.7-10.1.7-11.7,11.8-22.9,24-33.5,36.7,149.2-2.1,298-3.3,447.5-3.4,26.2,0,177.9,9.4,186.6,3.3Z"/>
  <path d="M58.9,443.5c41.5-1.6,83-3.6,124.6-5.2,18.4-.7,40.7,11.2,43.8-8.2,26.4,25.9,102.9-2.2,127.7,2.2,4.1.7,1,10.7,12.8,11.5,90.2,6.7,222.2-21.1,306.5-.8,4.4,1,2.3-9.7,4.1-10.5,17.9-7.6,18.9,9.3,21.8,9.3,4.9,0,11.9-6.1,18.2-5.8,33.3,1.5,65.9,9.5,98.3-5.9l-1-31.3c-7.2.3-13.6,5.1-20.9,4.9-38.3-1.4-65.7,6.7-102,4.4-20.8-1.4-76.1-22.1-74.2,5.4l-10.9-12.4-43.4,1.5-8.9,19.9c-.5-7.1-4.9-14.3-10.9-18.1-24-15.3-143.5,1.5-177.6,7.1l2.6-12.9c-7.5-4.7-70.2,6.3-85.8,6.3-84,.1-167-4.6-250.6-1.8-3.9,11.1-7.4,22.4-10.6,33.8,13.4-1.8,26.6-4,39.1-6.3l-2.6,12.9Z"/>
  <path d="M51.7,647.6c14.2,29.3,82.3,31.8,102.4,8.5,5-2.5,1.3,11.4,7.8,12.7,13.7,2.7,74.7-7.8,94.6-7.7,36,.2,74.1,2.9,112.3,2.3,25.7-.4,52.2,12,77.5,4.3,6.5-2,13.7-14,16.7-12,.6.4-1.2,11.1,4.8,12.5,23.9,5.4,69.6-7.6,94.6-7.3,20.9.3,44.3,7.7,69.8,6.8,19.9-.7,47.3,5.7,50.8-15.1l7.8,12.6,69.3-8.7c15.6,25.4,70.3,2.9,98.7,7.8l-14-31.2c10.5-3.1,4.3,8.5,7.8,10.9,2.4,1.7,10.1-11.1,15.1,7.2l27.9-20.3-4.9,32,63.6-2.7-13-5.8,9-13c6.7,5.9,12.6,13.3,21.3,16.7,44.6,17.4,162.3-4.4,226.1-4.7,1.1-12.7,1.8-25.5,2.2-38.4-49,.6-110.3,3.6-135.5,8.6-13.9,2.8-15.3,8-8.7,19.5l-19.1.8,5.9-12.9c-34.9,3-71-7.9-105.3-8.6-116.7-2.2-241.4,10.7-357,12.5-7.9.1-16.4-8.5-25.9-8.6-17.7,0-35.6,15.4-56.7,1.9l-6.1,13.5-7.8-12.7c-95.1,8.1-202.1-16.7-292.3,12.3l-6.1-11.3c-61.6-.9-122.9-.7-184.4.1.6,12.9,1.7,25.8,3.1,38.5,3.4,0,6.7-.2,10.1-.3,25.3-.6,36.9,6.3,37.7-21Z"/>
  <path d="M498.2,947.5c13.1-.7,28-9.1,36.8-8.5,4.7.3,1.7,12.5,13.8,13.1,32.5,1.6,80.9-7.8,114.7-8.3,16.6-.3,91.4,9.7,99.1,4.9,1.3-.8-9.3-17.8,8.5-25.7,9,2.9,14.5,21.2,18.2,23.2,10.4,5.5,146.8-5.9,174-6.3,47.5-.6,89-.6,132.7-2.2,7.9-11.6,15.4-23.4,22.5-35.5-3.1.5-5.1,1-5.8,1.5-3.4,2.6,4.1,13.9-10.4,11.5-2.8-18.4-36.7-15.5-48.5-7.6-6.9,4.6-.5,21.9-18.1,16.7l-4.3-19.4-280.5,5.4-11.6,13.8c-21.5-39.8-90.2-4.1-131.2-13.4l.5,14.2-12.5,5.2-4.7-18c-92.1-1.4-185.3-6.8-276.2,10.8l5.9-12.9-123.8,11.7,8.9-13.1c-39,1.6-78,4.2-117,6.1,7.4,11.9,15.1,23.6,23.3,34.9,25.2-2.1,46.8-3.8,54.2-3.9,109.3-1.1,219.9,7.8,331.6,1.7Z"/>
  <path d="M309.6,726.4c29.5-.4,126.3-1.1,145.5-12.8,4.8-2.9,1.3-12.8,6.8-13.3,6.3,0,2.6,13.3,7,19,13,17,98-5,121.5-4.6,11,.2,18.3,13,31.7,11,1.3-.2,4-17.9,18.8-12.3,5.2,1.9,15.3,29.3,25.5-2.8.1,17.7,66.4,12.4,72.5,8.1,3-2.1-2-12,3.9-11.3,8,23.1,50.7,5.9,70.5,6.6,72.5,2.6,142.2,1.6,217,.1,41.5-.8,104.7,4.7,158.8,1,2.4-12.1,4.4-24.4,6-36.8-25.6,1.6-51.1,2.3-76.6,0l-8.8,23.5-15.9,3.7c-2.7-4.8-26.4-23.8-28.2-24.1-29.7-4.9-128.3-5.1-156.6,1.5-19.4,4.5-10.8,14.1-22.7,18.5l-4-18.9c-12.7,22-18.9,2-32,1.6-23.2-.8-63.2-4.4-83-3.3-11.9.6-49.9,25.2-53,21.6-12.2-14.4,15.2-10,11.8-19.5l-719.6,2.7c1.9,13.4,4.3,26.6,7,39.6,99.6,1.4,198.9,2.6,296.5,1.1Z"/>
  <path d="M187.4,992.3l14.9,18.7,285.8-5.4,11.6-13.8c90.5,37.5,237.6-.9,340.2,9.3,3.5-2.7-4.5-13.4,10.4-11.5,8.3,25.5,34.7,6.8,52.4,6.6,23.9-.3,50,5.2,75,1.2l21.1-39.5c-27,2.8-49.2-8.5-59.6,21.5-9.8-23.8-34.3-21.8-58-16.4-9,2.1-19.7,14.8-21.7,13.4-.7-.5.7-9-2-10.7-8.3-5.3-55.4,1.7-71.9,1.1-125.5-3.9-250.9,5.3-375.9,6.9-24.3.3-51.3-5.4-75.8-7.2l-6.8,13.5-3.6-8.2-16-3.8-11.9,19.7c-5.3-19.1-10.5-5.9-14.7-7.9-34.2-15.9-26.3-3.9-56-5.1-12.9-.5-42.6-25.5-50.7,5.3-12.8-11.1-30.1-13.4-48.4-12.4,10.4,13.4,21.4,26.4,33,38.9,14.7-1.4,28.7-5.2,28.6-14.3Z"/>
  <path d="M760.3,1133c-12.6,2.2-7.5,14.1-11.7,14-8.5,0-15.5-9.5-26.4-11.4-17.8-3-36.4,0-53.8-4.7l1,25.5-6.9-12.4-8.9,13.2.8-19.1,7.6-6.8c-64.6-.3-131.9,16.9-194.9,2.3l-5.3,12.5-7.8-12.6c-35.3,5.6-80.3-1.6-114.1,4.4-1.3.2-2.4.6-3.4,1,34,16.7,69.8,30.2,107,40.2,58.1,0,122.7-1.8,147.5-6.2,12.6-2.2,7.5-14.1,11.7-14,11.9.1,55.9,22.9,77.3,16.4l115.2-8c30.2-10.4,59.3-23.1,87-37.9-41.2.7-86-3-121.8,3.4Z"/>
  <path d="M389.7,1104.7c41.4,31.1,91.3,9.7,134.4,9.8,130.1.3,260.1.9,389.7-2.9,17.8-10.9,35-22.8,51.5-35.5-124.8,1.3-249.2-.6-373,.8-63.6.7-127.2,12.1-190.6,1.7l-2.4,25.7-10.3-18.6-11.7,26-4.5-31.8c-27.2,4-60.1-1-86.4,3.2-11.8,1.9-8.1,11.2-11.8,12.7-4.6,1.8-12.7-1.8-21.4-6,17.8,12.6,36.3,24.3,55.5,35,27.3-1.1,51.5-3,69.4-6.2,11.3-2,6.6-7.6,11.5-13.8Z"/>
  <path d="M168.3,381.9c11.2-1.7,18.1-4.6,24.6-14.1l6.9,12.5,5.8-13.1c3.9,15.8,29.7,17,31.8-1.3l6.9,12.6,8.9-13.1c12.3,41,79.1-1.6,113.1,20.1l2.2-12.2,10.9,12.4c37.9-1.2,75.9-4,113.9-5.3,65.5-2.2,143.2,8,219.3-.5,14.6-1.6,24.1,12.9,28.6-9.8l7.8,12.6,180.7-1.5-26.2-18c19-35.1,28.1,12.9,57.5.7l.6,16c22.3-4.9,45.6,2.1,66.4,1.7,12.7-.2,29.6-2.5,48.6-2.8,26.8-.4,53.7-1.5,80.7-1.8-4.5-11.2-9.3-22.2-14.4-33.1-4.9,4.3-8.5,9.2-13.1,10-22,3.7-46-9.4-67.4-9.9l-11.9,25.8,5.2-25.6-571-.8-26.8,32.4-1.4-31.8c-77.6,3-154.7,3.3-232.8,3.8-38.8.2-110.2-14.9-132.8,11.6-12.4-7.1-23.9-10.4-35.2-11.8-5.4,11.7-10.5,23.6-15.2,35.7,44.2,2.3,88.2,5,127.9-1.2Z"/>
  <path d="M200.4,552.6l5.8-19.9,14.3,17.8,314.8.3,2.1-25.7,4.6,25.1c47.4,7.1,95.4.2,143.4.3,26.2,0,171.4,7.7,181.1-7.5-5-22.2-15.2-12.6-30.4-23.2l-14.6,12.4-4.3-19.3c-52.5,6.6-103.7,7-155.9.6-3.9,4.3,11.3,31.3-11.7,26,12-9.4-15.1-31.4-20.1-24.5l-5,32-4.3-25.3-8.9,13.1c.6-22.3-48.6-22.1-68-22.5-19.2-.3-47.1-5.5-50.3,14.9-5.9.3-.6-11.1-7.8-12.6-11.2-2.4-60.5,3.8-81.7,3.7-79.4-.2-197.9-9.4-287.1.5-10.8,1.2-33.4,15-44.3,11.1-8.3-3-7.7-14.8-14.4-16.3-12.3-2.8-32.3.3-51.8,3.6-1.6,11.3-2.8,22.7-3.7,34.2,20.3-1.4,40-2.6,58.6-2.7,41.3,0,95.1,14.3,139.8,4Z"/>
  <path d="M726.3,160.5c13.4.5,28-15.5,43.5-14.7l-2.6,12.9,124.9.6,2.2-12.2,9.4-.6c6.1,29.6,54.9-2.2,62.5-1.5,9,.9,19.1,2.4,29.6,4.1-10.9-9.6-22.2-18.8-33.8-27.6-56.4-7.6-126.1,1.2-180.4,1.1-67.4,0-135.9-4.9-203.5-5.4l-22.1,18.6c-.7-27.8-64.4-18.9-86.5-15.1-10,1.7-26.8,14.3-28.2,13.4-2.7-1.6,3.9-15.9-29.6-17.7-52.1-2.8-108-2.9-164.4-1.9-18.5,13.4-36.1,27.9-52.9,43.3,175.8-3.9,357.8-3.3,531.9,2.7Z"/>
  <path d="M519,99.6l8.9-19.9c.8,22.1,37,22,55.4,23,77.5,4,163.8-7.7,242.1-7.2,16.1.1,48.8,12.8,70.1,6.9l-16.6-18.5,25.4-1.1c-9.8-5.8-19.7-11.3-29.8-16.5-2,2.1-3.8,5.8-5.3,11.7-38.7-34.7-95.8-9-139.8-9.2-131.3-.6-263.7-12.3-396.1-6.4-21.7,10.8-42.7,22.9-62.8,36.1,82.6.9,165.2,3.3,248.5,1.1Z"/>
  <path d="M915,101.9l19.4-.2c-7.4-5-15-9.9-22.7-14.5l3.3,14.7Z"/>
  <path d="M1081.6,432.1c-16.1.6-21.5-25.3-42-32.8-46-16.9-154.6,17.4-207.9-1.3l10.7,31.5-13.4-18.5,1.9,24.5c19.6,5.7,54.3,16.4,59.3-8.1l7.8,12.9,119-5.9c7-17.9,18.2-13.4,35.4-13.7l-2.6,12.9c8.5,9.8,62.8,11.2,63.3-9.2,16.3,16.9,39.8,11,63.2,8.3-3.7-12.6-7.7-25.1-12.2-37.3-35.7,2-71.4,4.8-74.4,7.2l-8.2,29.6Z"/>
  <path d="M948.1,571.6l-9.7,12.9c-5.3-32.3-43.1-11.2-61.1-11.3-26.3-.1-55.5-7.1-83.3-2-25.6,4.7-21.2,24.7-44,1.5l-25.1,14.4-10.1-12.1,12.4-6.9c-30.5-3.3-45.2,1.9-49.5,33.9,12.1-7.7,27.1,11,48.8,10l5.3-12.4c5.8-1.2,1.6,9.1,4.8,11,17.5,10.1,169.4-17.2,200.2-1l5.3-12.5,7.8,12.6c31.6-2.2,67.6,5.9,80.7-29.1l-2.1,25.6,127.3-5.4-13.8-24.8,31.5-7.8-4,22.7,9.4,8c4.6-1.5,12.1-2,21.1-1.9,0-12.1-.5-24.1-1.2-36-8.4.2-16,.4-22.3.5-75.7,1-152.5,10.5-228.4,10.1Z"/>
  <path d="M582.7,266c2.5-.3,45.8-15.5,48.3-12.4,11.8,14.9-15,9.7-11.8,19.5l25.2-5.8,2.9-8.1c9.3,23.7,56,5.5,77,6.2,10.2.3,20.8,8.6,38,8.5,46.3-.3,93.1-5.1,139.4-7.2,14.5-5.5,9.2-25.3,8.8-37.7-47.2,1.5-96,9.1-142.9,9-143.7-.2-293.2-10.4-440.7-9.4-38.6.3-127.6-1.6-159.4,2.5-11.8,1.5-18.8,12.5-30.6,11.9-3.6-.2-1.4-9.6-9.9-12.4-9.9,12.7-19.3,25.7-28.2,39.1,65-1.2,130.4-2.2,198.3-2.4,92.4-.2,197.5,10,285.5-1.5Z"/>
  <path d="M329.1,492.2c14.4-.2,67.9,11.1,75.2,4.7,3-2.6-4.5-13.5,10.2-11.1,13.8,26.7,69.6,3.6,99.3,8.6l-1.7-38.2c-49.1,2.4-103.2,14.9-150,.8l-5.7,12.3c-10.7-26.3-63.6-5.8-89.8-6.1-82.5-1.2-165.9-3.6-249.7-5.4-2.8,11.4-5.2,22.9-7.3,34.6,11.9-.2,23.8-.4,35.7-.6,92.4-1.8,187.3,1.6,283.8.5Z"/>
  <path d="M1096.1,469.7l2.6-12.8-80.4-3.6-11.6,13.8c-11.5-14.6-27.9-12.5-45-11.2l-5.8,19.8c-17.7,2.5-20.6-17.5-32.2-18.3-86.9-5.8-180.8-1.6-267.9-1.2-46.3.2-88.7,14.5-131-.5l5.1,11.1c-13.1,1.3-15.8,20.2-5.6,27.3,11.5,6.1,87.3,6,100.2,2,6.4-2,1.5-15.2,6.7-13.1,35.2,24.6,89.3,11,131.3,13.5-10.1-8.4,2.2-20.4,11.6-25.9l1.1,25.5c138.8-2.3,276.5-4.1,414.8-5.7-2.5-13.7-5.5-27.2-9-40.6-24.2,1.2-47.1,3.1-67,5.9-14.8,2.1-2.7,16.6-18,14.1Z"/>
  <path d="M871.6,521.2c-8.7,48.8,51,17.3,67.2,18.5,4.7.3,1.4,11.8,13.7,13,73.1,6.8,165.8-12.8,244.6-12.5-1-9.6-2.1-19.2-3.5-28.6-101.9,2.3-319.3-5.2-321.9,9.7Z"/>
  <path d="M1038.6,245.9l26,8.6-5.9,12.8,40.2-.8c-4.1-6.1-8.3-12.2-12.6-18.1-4.1.6-9,2.2-15.2,5.7l4.2-20.5c-1.3-1.7-2.6-3.3-3.9-5l-29.5,1.1-3.1,16.2Z"/>
  <path d="M1016.6,326.5l101.8-4.3-1.1-26.2c-2.1-3.6-4.2-7.1-6.4-10.6l-85.8,8.6-8.5,32.5Z"/>
  <polygon points="1031.7 230.3 929.9 234.7 949.7 256.4 937.9 272.4 1033.3 268.4 1031.7 230.3"/>
  <path d="M1069,961.3c-29.2,3.5-58.8-3.6-75.3,25.4l55.2,11.4c1.9-2.2,3.8-4.4,5.7-6.6-3.1-13,6.5-16.8,14.4-30.2Z"/>
</svg>