<?xml version="1.0" encoding="UTF-8"?>
<svg id="Layer_1" xmlns="http://www.w3.org/2000/svg" version="1.1" viewBox="0 0 1200 1200">
  <!-- Generator: Adobe Illustrator 29.0.0, SVG Export Plug-In . SVG Version: 2.1.0 Build 186)  -->
  <path d="M1196.1,601.1l7.7-.4c-3.3-.8-5.8-1.8-7.7-3,0,.8,0,1.5,0,2.3s0,.8,0,1.1Z"/>
  <path d="M201,132.5l4.2,12.3c4.9-4.2,9.9-8.4,15-12.5l-19.2.2Z"/>
  <path d="M433.4,53.6l6-11.6,7.3,12.9,72.3-.6-12.7-12.5,34.9-19.3c13.3,18.4-28.9,15.2-12.6,31.9l194.3-1.1-.2-31.9c23-6.2,38.3,10,32,31.6l86.7-.5c-35.7-16-73.2-28.6-112.1-37.4l-32.3.2-3,12.8c1.5-19.9-66.4-14.6-72-10.7-3.4,2.4,3.6,14.1-10.8,11.1-5.9-.4-.8-11.2-7.4-12.9-9.1-2.3-70.7-1.6-82.3,0-12.6,1.8-8,13.8-12.2,13.6-8.6-.4-16.2-11.1-31.5-13.2-4.4-.6-8.8-1.1-13.3-1.4-41.1,9.2-80.6,22.6-118,39.8,29.1-1,58.1-1.6,86.9-.7Z"/>
  <path d="M99.6,756.7l6.8,19.6c31.3,3.4,66.6-4.9,96.3-5,53.5-.2,101.9-4.5,151.9-7.3,12.6-.7,41.7,25.3,63.7-2.8l6.9,13.2,251.4-4.8,8.9-22.8,16.6,3.9,10.1,21.8,65.8-.6-.3-38.2-429.6,2.1-6.6,19.7c-20.8,1.3-28.7-18.3-37.9-19.4-26.9-3.2-114.6-2.9-140.8.9-15.4,2.3-24.1,13.2-38,14-11.9.7-5.8-12.3-18.6-13.8-14.8-1.8-32.8,2.4-48.3.8,3,7.8,12.9,13.9-3.2,12.9-14.2-.9-27.9-9.3-42.8-12.8,3,12.8,6.4,25.4,10.2,37.8l63.7-.7,13.6-18.5Z"/>
  <path d="M247.1,890.1l21.9-19.7c-2.5,22.2,32.6,18.4,47.9,15.7,16.3-2.9,4.6-17.8,25.1,3.5l118.4-1.2v-25.5c-.1,0,16.4,25.9,16.4,25.9,33.5-13.3,166.8,10.5,186-3.3,3.5-2.5-3.6-14.3,10.7-11.2,6.1.2.7,10.7,7.3,12.5,10.5,2.8,92.7,1.4,107.7-.2,15.9-1.7,29.5-13.5,37.8-13.5,3.7,0,.2,12,12.6,13.5,45.2,5.7,100-8.2,146-1l7.2-13.3c7.5,25.5,49.3,7.7,73.4,12.3l-3.3-12.7c18.8,11.2,39.9,13.7,61.8,13.6,6.4-11.8,12.4-23.8,18-36.1-85.3-2.1-284.3-11.3-312.4,1.7-5.3,2.4-16.1,19.2-19.1,15.9l3-19.1-75.5.3-7.2,13-7.4-12.9c-4.8-1.2-88.9-.4-93.8.9-6.4,1.8-1.2,12.1-7.1,12.6l-3.2-12.7c-22.3,5.7-66.9-8.9-73.2,13.2l-3.2-12.8-280.6,4.8-9.2,16.1-25.3-19.5-176.2,1.1c6.1,13.2,12.7,26.2,19.8,38.9,48,8.1,124.8-8.4,175.8-.9Z"/>
  <path d="M378.4,1028.8l12.6,3-6.1,22.4,229.3-1.4c-4.5-11.3-5.5-29.8,12.5-25.5l3.6,25.6,361.5-1.9c14.7-12.9,28.8-26.5,42.2-40.8-20.7-.1-37.2,1.1-44.3,5.5-7.9,4.9-8.3,23.8-22.1,22.4l3-25.5-78.7.3-7.2,13c-8.5-27.9-48.7-2.6-73.4-12.3l-3,12.8-7.3-12.9-260.3,1.6v12.8c0,0,28.7-.2,28.7-.2-2.3,38.9-50.8-9.9-54.1-11-3.1-1-47.8-2.4-50.8-1.6-3.3,28.8-23.4,29.3-9.8.5-96.6,5.6-194.2-1.8-290.6.6,12.5,13,25.5,25.4,39.1,37.2l175.3.8v-25.4Z"/>
  <path d="M200.3,211.3c1.9-7.6-17.5-22.6,13-12.2l-4.7,12.4,14.5,9.5,35.5-25.1-6.2,25.5,95.5-.6,3.1-25.5,9.7,25.5c15.2,7.7,35.8-10.6,41.3-10.6,4.2,0,13,10.4,25.2,10.6,37.2.6,74.7-1.8,111.8-1.1-14.2-35.3,23-35,29.2.4l193.7-1.7-.2-31.7-35.4,5.9-12.1-12.6c-23.4-3.9-18.9,31.8-41.6,16.7l12.6-15.9-517.3-1c-12.8,13-25,26.6-36.5,40.7,9.8-1.5,19.4-3.1,28.6-3.6,11.6-.7,35.4,14.3,40.2-5.4Z"/>
  <path d="M438.2,926.5l12.4,13.3c92.8-8,192.8,5.2,283.9,1.8,17.9-.7,28.4-22.3,50.8,2v-12.6c11.4-11.2,13.1,10.9,15.9,11.7,6.5,2,58.8-6.2,70.1-5.9,57,1.4,114.4,7.3,172,5.3l-3.3-12.7c19.2-12.4,42.1,36.5,54.2-.5l1.7,3c6.2-9.3,12.1-18.8,17.8-28.4-144,3.1-288.7,1.1-432.9,3.2-23.9.3-40.7-.4-64.2-.6-44.8-.4-91.8-3.4-130.6,20.1l6.2-19.1-28.3-.3-6.5,19.5c-8.9-8.6-5.4-17.9-19-19.5-27.4-3.2-143.2.9-171.2,8.5-1.7.5-25.1,29.3-29.6,9.1-3.7-16.8,14.5-3.2,12.6-15.9-54-4.5-112.3,4.6-165.6,4.9,4.6,7.5,9.3,14.8,14.2,22.1l333.4,2.5,6-11.6Z"/>
  <path d="M93.9,725.3c3,.5,57.9-1.8,61.2-2.3,11-1.8,22.8-5.3,30.1-14.4-6-6.7-7.2-18.1-16.9-21.2-9.1-3-116.7-2.1-121.9,1.1-4.2,2.5-4.3,18-13.8,17.8l-4.1-19.4c-8.8-1.5-17.7-2.6-26.5-3.4,1.7,12.6,3.9,25,6.4,37.3,19.6-.6,38.9-1.4,52.9-1.9,42.8-1.4,23.3,4.8,32.8,6.4Z"/>
  <path d="M931.4,1097.7c13.1-8.8,25.8-18.2,38.2-28l-27.3.3-10.9,27.7Z"/>
  <path d="M579.4,1103.5c39.5.7,78.6,3.1,117.8,6.1l3-25.3c15.2,30.2,48.7,39.8,63.8,5.9l25.6,19.5,25.2-14,19.2,11.6h82.5c4.4-2.7,8.8-5.6,13.1-8.5l-.2-28.8-9.4,25.5-38.2-6.2,25.4-19.2c-29.3,6.3-86.2-14-98.6,13.3l-3.2-12.7-149.3.4c-5.4,15.3-4.2,21.1-22.5,26l6.2-25.4c-50.6,2.9-105.9-2.2-155.9,1-13.7.9-29.4.8-38.3,12.8-27.6-41.4-17,13.1-25.4,12.9-18.6-.3-12.2-24.2-19.8-25.9l-107,1.2-6.9,12.8-3.2-12.7h-54.8c17.3,13.6,35.5,26.1,54.3,37.7,99.9-1.1,203.1-9.7,296.8-8.1Z"/>
  <path d="M751.4,1121.6l-446.9,2.8c26.3,14.6,53.8,27.4,82.3,38l390.2-2.3,12.6-25.7-3,25.5c8.5,1.3,17,.9,25.3,0,26.4-10.2,51.9-22.2,76.4-35.8-46.1-1.1-91.9-2.1-137-2.5Z"/>
  <path d="M1052.1,248.5c-5.8-21.1-22.6-11.4-41.5-12.5l25.5,15.7-21.8,10,12,12.9c23.8-1.5,47.8-2.6,71.8-3.4-8-12.2-16.4-24-25.2-35.6h-17.8c0,.1-3,12.9-3,12.9Z"/>
  <path d="M1010.9,263.2l3.4-1.6-.4-.4c-1.9-.3-2.7.6-3,2Z"/>
  <path d="M978.8,255.1l6.3-19c-70.8,2.4-142.1.4-212.9,1.2-47.9.5-123.1-4.7-166.4.6-28.8,3.5-24.5,34-11.2,38l415-3.5c2.1-1.4.6-6.4,1.3-9.3l-9.8,4.5c-5.3-11.7-8-15-22.3-12.6Z"/>
  <path d="M125.7,314.3c4.1-9.3,28.3-13,31.7-9.7,12,11.4-11.2,18.6-12.5,25.4l165.7,5.4-6.5-12.6c17.2-7.4,19.3,10.3,22.3,11.1,6.9,1.7,83.1,2.3,95.8,1.5,12.7-.8,6.3-19.7,30.7-13.4,4.9,1.2,1.7,12.8,13.5,13.3,14.1.7,28.3-4.1,38.5-13.7,2.8,16.8,55.6,19.3,57.1-.3,18.5,27.1,49.4.9,70.6.2,2.9,0,1.9,11.2,7,12.3,32.7,6.9,233.9,0,279.1-2.1,14.8-.7,67.3-3,76.6-5.9,11.4-3.5,10.1-13.9,12.9-13.9,8.4,0,19.7,10.7,31.9,12.5,28.2,4.4,46.6,1.1,66.4-19.2l12.8,19c0-4.9,1.3-8.9,3.5-12.1-4.2-7.6-8.5-15.1-13-22.5-13.2.4-26.1,1.2-38.8,2.7-11.2,1.3-18.3,3.8-25.1,13.2-4.8-20.4-46.6-20-50.9.4l-3.2-12.7-289,2.1-7.2,12.5h-15.9c0-.1,6.4-12.8,6.4-12.8-88,3.3-176.4-.5-264.4,1-30.6.5-83-3.3-108.1,1.2-9.1,1.7-20.3,14.1-22.2,12.6-.7-.5,1-9-1.5-10.8-8.8-6-31.1.3-43.3-1.6l-3.1,25.6c-17.1-1.5-12.9-21.9-31.9-25.4-26.8-4.9-63.2,4.5-89.4,3.6-14.3-.5-27.7-4.9-42.1-7.8-6.9,11.6-13.4,23.4-19.5,35.4l77.8,1.1-12.8-15.8Z"/>
  <path d="M55.1,443.4c2.9-1.9-1.3-11.9,4.4-11,5.3,6.8,10.8,11,19.6,12.3,93.7,13.9,231.8-14.8,329.9-1.3l7.3-13.2,3.2,12.7c40.6-6.1,97.8,13.3,130.6-13.4,5.2-2.3.7,11,7.3,12.7,23.5,6.1,105.4,2.4,126.5-13.6l6.3,12.9h12.9c0,0,6.3-13.1,6.3-13.1l3.2,12.8,184.8-1.1c-8.5-18.1-35-16.3-51-12.3v-25.6c-.1,0-114.8.8-114.8.8l3.4,25.4-14-25.7c-9.8-2.3-121.2.2-126.8,3.2-9.1,4.8-6.9,17.2-12.1,17l-3.3-19.2c-28.8,10.5-79.9-16.1-92.3,13.4l-9.3-.3c-.7-.6,1.7-11-4.4-12.5-29.1-7.6-90,6.4-123.3.9l12.9,25.3-15.9,6.4-25.4-32-286.5,1.8-6.6,19.6-4.5-4.7c-2.2,7-4.2,14.1-6.2,21.3,20.1,1.6,35.3,2.4,38.2.5Z"/>
  <path d="M136.8,606.6c6.3-1.2,11.7-9.2,19.1-9.6,4.2-.2-.1,11.9,12.4,13.5,85.2,11,193.4-12.1,281.3-1.6l12.1-13.4c35.9,17.9,104.4,15.7,146.7,11.9,37.3-3.4-2.1-14.2-3.1-35.4l-220.4-.7-2.9,18.4-9.6-19.1-137,.9-3,12.8-12.4-13.3c-63.8,8.8-150.1-7.2-211.1,1.4-4.8.7-8.8,2.2-12.4,4.1-.3,7.8-.5,15.7-.5,23.6s0,8.3.1,12.4c41,1.6,112.9-.6,140.5-5.7Z"/>
  <path d="M680.6,982.5c5.7,21.7,25,10.6,44.2,12.6l4.1-24.9c14.1-7.9,30.7-4.7,37.7,11.7l-31.8,13,146.5-.9-6.1-28.6-63.8-8.5-3.5,18.5c-21.4,4.8-18.5-17.8-26.4-18.8-19-2.6-54.3,8.5-75.1.3l-6.8,12.9c-4,.2.3-20.3-24.8-12.8l-6.9,12.9c-54.2-26.1-137.7-6.7-199.1-6.6-81.7,0-164.9-4.8-247.3-3.7-34.3.4-68.4,3.3-102.6,4.1,8.9,11.7,18.3,23.1,28,34.1l361.1-7.2c51.4,4.8,127.8,17.3,172.7-8Z"/>
  <path d="M136.2,476.5c23.8,5.4,12.2,11.7,3.3,25.4l70.1-.4c-9.6-19.7,11.1-25.7,18.8-38.2-52.5-1.5-110.9,5.1-162.5,3.9-16.4-.4-32.5-9.2-50.8-9.5-.6,0-1.3,0-1.9,0-3,12.2-5.6,24.5-7.8,37,42.6,1.4,85,4.9,127.8,7.4l3.1-25.6Z"/>
  <path d="M881.7,459.3c-41.2,2.5-27.6,4.8-70.1,0-25.6-2.8-52.8,9.3-79.9,1l6.8,15.3c-12.3,6.9-15.6,6-12.9,22.8l38.3-.2,3-12.8c6.4,4.6-.6,11.9,12.3,13.3,48.7,5.3,195.8,4.6,242.9-1.5,11.1-1.4,8.7-9.9,14.2-12.6,33.7-16.6,26.2,5.3,34.5,10.5,7.5,4.6,60.6,7.1,59.2-11.8,5.9-1,1.3,9.2,4.4,11.2,6.6,4.2,29.4,3.2,53,1.9-2.3-13.1-5-26-8.1-38.7-99.6-2.2-199.1-4.3-297.5,1.7Z"/>
  <path d="M1130.4,680.6l-684.1,7.3c17.2,4.6,13.6,12.2,13,28.5,64.7-3.6,129.5-.7,194.1-.8,58,0,123.2,6.4,178.7-7.7,1.2,13.7,29.3,11.7,44.5,12.3,21,.8,44-6.9,66.7-.3v-31.7c22.5-6.6,10.1,24.4,18.5,28.7l149.1,1.4c8.7-7.8,15-16.7,23.4-24.9-.7-4.6,3.1-13.6-3.9-12.8Z"/>
  <path d="M1134.3,693.4c1.2,7.3-3.7,24.4,3.9,25.6l46.3-.3c2.4-11.9,4.4-23.9,6.1-36-17.8,0-32.1-.7-40.7-2.5-8.8,0-9.8,7.8-15.5,13.3Z"/>
  <path d="M1128.2,517c-3.2,2.2,2.7,16.4-14.1,11l3-12.7-50.9,13.1c-8.2-27.5-40-6.5-57.9-6.7-19.6-.3-45.5-12.6-64.7-3.3-2.7,1.3.5,15.5-17.4,10.9-2.5-.6-2.5-11.6-7.6-12.7-19.8-4.4-50.6,3.2-72.2.4l3,25.8,245.3,3.8.3-18.4,16.3,19.4,82.4-.4c-1-11.1-2.2-22.2-3.8-33.1-31.3-.6-57.3-.2-61.8,2.9Z"/>
  <path d="M777.7,128.7l-6.6,19.6c-8.4-21.4-30.7-30.7-38.3-6.1-5.9,1-1.3-9.2-4.4-11.2-12.6-7.9-82.1,3-103.1-1.2l-7.2,13-12.4-13.4-315.7,2.6c4.6,5.6,19.5,22.4,23.2,24.6,15,8.9,159.7,9.5,183.5,5.6,10.5-1.7,21-16.3,28-11.4,1.3.9.5,8.3,2.6,9.5,13.8,8.2,286.1,3.4,321.2-1.5,10.6-1.5,17.8-11.1,30.9-12,12.2-.8,5.7,13.4,18.9,13.9,33.8,1.4,70.4-.8,103.9-2.3-11.2-10.3-22.8-20.2-34.8-29.7-63.3.7-126.6.3-189.9-.2Z"/>
  <path d="M983.2,993.4l65.7.3c8.9-10.2,17.5-20.8,25.7-31.6l-104.3,2.8c16.7,4.9,13.8,12.3,12.9,28.6Z"/>
  <path d="M62.5,387.8l-6.5-12.6h19.2c0-.1-6.4,12.6-6.4,12.6l293.1-1.7,3-12.7c6.4-.6.6,10.5,6.3,11.5,48.2,8.9,117.8-7.1,169,.2l-25.5-22.1,12.7,3.1c11.7,2.2,2.1-9.9,9.5-12.8,17.8-6.8-3.3,27.9,13.9,32.1l46.7-.6-25.5-6.2,9.4-19c7.6,2,23.7,23.1,25.7,23.7,6,1.7,76.1,2.8,79.6,1l3.1-18.9c10.2,17.5,12.6,22.6,35.1,18.7l-5.1-22.7,17.6-15.5c-27.9,1.9-58.2-2.4-85.7.7-44.7,5-39.1,2.1-82.9,0-41.2-1.9-83.1,2.5-124.3,1l12.7,12.5-19,6.6-3.6-19.5-107.7.6-6.5,19.5-14.2-19.4c-85.2,4.3-169.9,2.1-255.3,1.8-5.8,12.7-11.2,25.6-16.2,38.7,9.5-.7,19.1-1.4,27.9-.6Z"/>
  <path d="M28.3,554.2c36.3-10.9,239.4,7.5,256.8-3.7,3.1-2-1.6-12.1,4.3-11.2,6-.2.1,11.1,7.3,12.9,32.3,8.1,98.9-10.8,136-1l-9.6-19.1c20.4-5.2,27.1,18.3,37.9,19.5,41.8,4.3,91.6-5.2,134.6-.7l12.1-13.3,19.3,13,18.6-19.2,27.4,18.5,161-1c-8.9-15.6-2.3-18.8,6.2-31.7-23.3.2-48.7-4.5-66.9,13.1-17.2-36.2-12.2,0-15,3.4-9.4,11.8-39.1,15.5-32.6,0l12.6-16-736.5-.5c-1.4,10-2.5,20-3.4,30.2,8.5-1.8,17.4-1.2,29.9,6.9Z"/>
  <path d="M881.2,414.8c29.5,4.6,13.9-3.7,32.6,24.7,18.7-4.5,56,3.7,70.9-2.1.9-.3,10.2-5.1,12.7-6.4,2.8-1.4,1.5-16.6,20.6-10.6l-3,19.1,159.3-.7c-3.6-13-7.6-25.8-12.1-38.3l-290.8,1.7c-1.2,16.1-1.2,10.8,9.8,12.6Z"/>
  <path d="M1070.4,661.9l24.5-1,10.3-24.7c6.2,0,1.6,15.8,9.3,22.6,4.1,3.6,40.9,2.5,78.6,1.4,1.2-12.3,2.1-24.8,2.6-37.3l-102.6.3-22.7,38.7Z"/>
  <path d="M920.6,109.1c5.5-1,11.8-1.4,18.5-1.4-3.7-2.6-7.5-5.2-11.3-7.7l-7.2,9.1Z"/>
  <path d="M685,110.5l-6.5-12.6,22.3-.2-3.1,12.7c28,4.1,58.6-4.4,84.9-4.4,27.8,0,69,6.5,96.6,3.8,14.2-1.3,23.9-14.1,35.5-18.4-11.5-7.2-23.2-14-35.2-20.4-21.5-.3-43.1-.3-64.6.5-17.3.7-46.1.5-56.9,13.1-4.6-19.8-49.9-14.4-70.3-12.5-30.7,2.8-35.1,6.4-56.9,26.1l-3.5-25.5c-22.4,12.2-58.3-16.4-66.7,13.3-7.4-26.5-42.6-8.3-63.7-7.3-9.8.4-21-5.9-32.2-5.7-12.5.2-6.3,14.9-18.6,14.3-14-.7-21.5-11.2-32.4-12.9-32.5-5.1-82.9-5-107.7,16.5-9.2.4-14.7-2.3-18.4-5.5-15.9,9.5-31.3,19.8-46.2,30.7,145.5,3.8,298.9-13.8,443.5-5.5Z"/>
  <path d="M557.7,665l185.2-.6,12.1-13.4c12.8,13.7,60,21.4,63.8-.5l3.2,12.7c33-6.6,185.6,8.3,202.7-2.8,3.1-2-1.6-12.1,4.3-11.2,3,18.7,19.9,7.2,35.1,9.4l-25.7-15.7,3.1-19.1-474.5,2.9c5.8,13.9,9.2,18.3-6.2,25.4-.6,3.8-11.2,11.9-3.1,12.8Z"/>
  <path d="M51.2,655.3l16-.3,6.4,13h12.8s6.3-13.1,6.3-13.1l9.2.4,1.7,10.6,352.1-.2-6.2-12.9c22.2,4.1,53,29.9,63.6-.3l25.3,12.9c4.9-19.3,16.1-10.2,22.6-13.2.6-4-.3-8.6-.1-12.7l-19,6.5-.2-19.2c-134.7,5.6-270-2.2-405.4,6.5-26.7,1.7-26.6-8.7-53,15.4l-3.4-19.4c-17.9-1-33.8-1.9-35,19.6-18.8-7.9-29.7-19.2-47.8-20.2.2,5.1.5,10.2.9,15.2l2.4-1.2-2.2,4.4c.5,7,1.2,14,2,21l57.8-.3-6.5-12.6Z"/>
  <path d="M1190.9,565.7l-550.8,3.3,20,36.4h250.8c3.7-24.3-11.3-4.5-18.1-7.5-.8-.4-3.3-14.1-13.7-11.4l3-12.6c34.6-10.7,39.3,29.9,57.2,31.9l82.8-.5,3.4-19.6c15.4,28.8,73.9,30.1,73.2-6.8l9.7,25.5,18-1.8,4.2-11.2,7.3,12.9,58.3-3.3c0-.4,0-.8,0-1.1,0-.8,0-1.5,0-2.3-9.9-6.1-4.9-17.3-5.3-32Z"/>
  <path d="M189,266.3h19.2c0-.1-6.4,12.6-6.4,12.6,34.6,6.3,73.1-6.9,104.8-7.2,17.7-.1,87,14.4,99.1,6l-6.5-12.6,22.3-.2-3.1,12.7,133.8-.8-5.1-22.7,17.6-15.5-436.4,3.5c-10.3,6.4-17.1,9.7-21.8,11-5.1,7.2-10.1,14.6-14.9,22.1l104,3.7-6.5-12.6Z"/>
  <path d="M844.8,217.8l212.8-1.3c-11-13.2-22.6-26-34.7-38.2l-178.3,1.3.2,38.3Z"/>
  <path d="M871.3,790.1c-1.2.1-5,7.3-16.7,13.2-1,6.6-9.6,15.5-6.2,25.5l280.2-1.7-31.8-15.7c21.3-25.3,34.8,3.7,56.4,11.7,4.5-11.3,8.7-22.8,12.6-34.4-90.1.8-180,2.9-269.7,6.6-8.6.3-17.8-5.9-24.8-5.1Z"/>
  <path d="M68.1,820.6c1.4.3-5.2,34.6,12.8-.3,38.4,26.6,84.5.8,127.4,12.3l12.6-19.4,3.6,19,161.7-.4,19.4-32.4c20.9-2.6,12.2,30.8,19.7,32.1,22.3-3.2,48.8,2.5,70.1-.2,12.1-1.5,8.2-12.7,11.9-12.5,18.3,1,33.4,5,54.5-1.2l-6.4,12.7,174.9-.5,6.6-19.6,6.8,19.6,98.4-1.1.6-24.9c3-2.4,9.9.5,12-.6.6-3.9-.4-8.6,0-12.7l-155.8.6c-74.1-3.8-148.8,8.5-216.7,6.5-150.9-4.4-302-.7-453.1-1.4,4.3,12.5,9,24.8,14.1,36.8l15.6.2c-9.1-13.6-6.2-16.5,9.4-12.8Z"/>
  <path d="M1147.4,766.5l25.2.6c2.9-10.2,5.6-20.5,8.1-30.9-8.3,17.3-10.5,23-33.2,30.3Z"/>
  <path d="M1068.6,362.8c-12.6,2.2-28.3-18.4-30.1-18.8-41.8-8.7-147.4,5-194.3,5.9-14.2.3-83.7-7.4-87.7-4.3-9.7,14.8,20,12.5,12.8,18.9-4.5,4-23.5,1.7-18.9,19.3l76.4-.5-6.4-25.4c17,6.7,30.1,2.7,25.6,25.3l12.6-.2c5.3-34.6,27.7-.7,29.9-.2,18.3,4.1,45.9-2.9,65.7-.3l.5-24.6,24.7-7.3-18.9,31.9,121-.7,6.2-19.1,3.7,19.5,63.9-.5c-5.1-13-10.6-25.8-16.6-38.4l-89.2.5,19.1,18.9Z"/>
  <path d="M664.8,479.8l-3.2-19.1-57.3.3c4.9,9.7,11,13,12.9,25.3,7,3.6,6.2,10.5,9.5,11.3,17.7,4.8,70.9-4.1,92.5.7l6.2-38.1c-25.6,1.4-50.3-9.5-60.5,19.4Z"/>
  <path d="M597.8,461.2l-150.1.3-12.2,13.4c-5.8,1-1.3-9.2-4.4-11.1-11.7-7.3-137.6,7-161.2-.8l3.3,22.4-44.7,12.9,388.5.9c-.2-4.1.6-8.7,0-12.7-8.9-4.6-22.1-8.5-31.9-12.6l12.6-12.7Z"/>
  <path d="M1140.9,734.5c-11.6,2.4-30.8-3.9-39.7-1.3-6.8,2-14.5,13.4-17.4,11.4-.9-.6,1.4-10-3.1-11.5-9.8-3.3-52.2,6.6-67-.7l-12.7,19.1,2.9-19.1-60.4.4-3,25.5-3.3-25.4-145.6,8.1-.7,30.9,344-5.2c7.4-8.7,18.6-22.9,6.1-32.1Z"/>
  <path d="M279.7,131.7l-59.4.6c-5.1,4.1-10.1,8.2-15,12.5l2.3,6.7h-10c-4.6,4.2-9.2,8.4-13.7,12.7l119.3-.5-23.4-31.9Z"/>
  <path d="M198,686.3l23.2,30.9c29.5-.4,61.1,4,90.1-2.1,1.5-.3,1.7-6.8,3.3-7.6,6.6-3.4,14,4.2,20.5-15.7l9.6,3c4.9,27.8,56.3,32.3,57.3,6.2l-17.6-15.5-186.4.9Z"/>
  <path d="M887.7,993.9c16.7-7.3,70.6,8.4,76.3-10,.6-34.3-19.7-14.5-34.8-15.7-11.5-.9-24.8-18.4-41.7-12.3l19.1,22.1-18.9,16Z"/>
  <path d="M781.5,199.4c-.9,28.4,37,16.9,57,18.4v-19c-34.9,11.4-28.8-20-57.6-18.7l12.8,18.9-12.3.4Z"/>
</svg>