<?xml version="1.0" encoding="UTF-8"?>
<svg id="Layer_1" xmlns="http://www.w3.org/2000/svg" version="1.1" viewBox="0 0 1200 1200">
  <!-- Generator: Adobe Illustrator 29.0.0, SVG Export Plug-In . SVG Version: 2.1.0 Build 186)  -->
  <path d="M401.7,1171c3.5-.4,7.1-.7,10.6-.9-5.6-1.8-11.2-3.8-16.7-5.8l6,6.7Z"/>
  <path d="M1094.7,250.4c0-4.3-5.9-3-9.9-3.9,2.9,4,5.8,8,8.6,12,.9-2.6,1.3-5.4,1.3-8.2Z"/>
  <path d="M312.2,68.7l1.8,3.7c1.5-.8,3.1-1.7,4.6-2.5-2.2-.3-4.4-.7-6.5-1.2Z"/>
  <path d="M187.2,889.1l10.6-35.3c-33.7-15.8-42,6.1-67,15.4l-6.4-19.3-47.7-.2-3.2,12.7-12.2-13.4c-2.5,0-5-.1-7.4-.2,5.9,13,12.3,25.7,19,38.1,49-1.7,96.6-2.9,114.3,2.3Z"/>
  <path d="M289.5,1055.1l241,1.8-9.4-9.6,12.9-28.5-85.7,12.3-6.1-12.5c-88.1,10.7-178.8,4.9-268.5,3.5,10.5,10.6,21.4,20.9,32.7,30.7,28.2-2.6,54.5-6.1,76.2-10.5l7,12.9Z"/>
  <path d="M1077.5,903.5c-7.3,4.3-8.5,35.2-29.9-1.8h-12.7c-3.7,19.3-53.9,5.6-76.1,5.5-107.6-.5-214.9,1.5-322.1-2.3l3.1,12.7-28.5-12.9,6,31.8c-20.1-6.2-21.7-10.8-18.8-32-104.9,10.6-210.1,6.4-315.2,3.8l2.9,19.2-16.7-18.9-185-1.6c7.8,13,16,25.7,24.7,38.1,9.6-.8,17.4-3.9,20.9-12.6l7.2,13c23.2-4.2,61.6,12.5,69.2-12.3,19,27.9,30.3.6,44.6.1,4.3-.2-.5,11.8,12.2,13.6,34,4.9,78.7-3.9,114.2.5l7.4-12.9,7.2,13c17.4,1.5,25.6,4.5,31.1-12.7l3,12.8c23.5.1,47-1.5,70.2-2,28.6-.7,53,8.5,79.5-6.3l321.7,5.7,3.3-18.9c9.6,24.8,23.9,16,47.6,19.3l-12.7-9.5,9.7-16,10.3,24.7c6.5,4.2,80.7,7.2,75.8-17.6,6.5-3.7,9.7,16,15.7,18.3,2.2.9,26.6-2.7,46.8-5.1,8.6-12.5,16.8-25.4,24.5-38.6-20.5-.7-37-.7-41.1,1.7Z"/>
  <path d="M772.1,1090.7c-6.7-25.5-28.9-8.3-45.5-9.1-60.1-3.2-120.1-7.2-180.3-5.4-3.5,3.3,14.8,32.3-9.8,31.8l3.4-31.8c-7.5-5.4-75,4.2-92.2,4-65.6-.8-143.7-6.6-220.5-10,20.5,16.3,42.2,31.3,64.8,44.9,18.1.1,36-.5,53.6-2.1,16.4-1.5,23.7-8.9,38.1-12.7l-3.3,12.7,411.3,3.9,12.4-13.3,3,12.8c11.9,2.3,17.5-8.2,28.6-9.4,11.7-1.2,57.2,5.4,63.1,3.7,5.8-1.6,3.4-11.9,4.2-12.5,1.3-1.1,8.5,6.1,16.1,10.2,17.8-11.2,34.9-23.3,51.4-36.2-47.8.7-95.3,4.3-142.8,9-18.3,1.8-38.2-10.3-55.4,9.6Z"/>
  <path d="M857.9,1129.5c-29.9-9.6-30.3,18.3-57.4,12.1l12.8-12.5-283.4-2.4-.3,31.9-13.6-25.9-126.5-.9c-17.8,3.2-13.3,19.1-19.1,19.2-11.6.2-33.6-31.2-45.9-18,19.2,10,39.1,18.9,59.5,26.8,1.9-.7,3.8-1.5,5.6-2.4l6,6.7c5.5,2,11.1,3.9,16.7,5.8,65.2-4.7,135.4,7.7,194-17.1,8.4,27.4,43,7.3,63.5,6.9,21.1-.4,38.6,22.3,35.5-12.1,23.5-.8,42.2,43.8,60.1,6.5l3.6,12.2c13.1-7.4,24.8-5.4,36.9-2.6,16.2-5.9,32-12.5,47.5-19.7-.6-3.8.5-8.7,4.5-14.5Z"/>
  <path d="M872.7,1134.6c3.2-1.6,6.3-3.3,9.4-4.9h-11.5c.9,1.7,1.5,3.4,2.1,4.9Z"/>
  <path d="M1033.8,246.3c-6.2.4-.5-10.1-6-11.8-5.2-1.6-103.2-3.1-109-2.4-14.9,1.8-6.1,13.8-12.4,13.3.1-12.4-20.9-15-30.6-13-5.4,1.1-4,10.3-7.6,11.6-9.4,3.4-50.9-25-70.3.6l-5.5-12.3c-7.9,4.5-16.6,6.1-25.7,6-74.2-.4-157.7,1.9-223.8-2.1-17.6-1.1-74.6-2.9-88.4-.7-23.4,3.7-12.9,15.8-13.2,31.6-19.5,2.6-17.4-26.8-21.5-29.2-44.6.1-91.9,4.6-137.5,5.2-20.8.3-91.5-9.8-103.9-2-3.1,2,1.4,12.1-4.4,11.2l-7.2-13.2c-20.1,9.2-43.9-11.9-50.1,12.7l-5-.2c-6.5,9.2-12.8,18.5-18.9,28.1,86.6,2,172.5,2.3,256.4-3.2,190.7-12.4,398.3,3.6,595.3-2.6,19.8-.6,40-4.2,60.2-2.7l3.7-18.7,3.3,18.9c21.3-5.6,47.8,3,66.6,1.4,7.4-.6,12.9-6.8,15.3-14.2-2.8-4-5.7-8.1-8.6-12-2.3-.5-3.9-1.6-3.5-4.8-2.5-3.4-5.1-6.7-7.7-10.1-9.4,0-18.6.4-27.5,1.4-14.9,1.8-6.1,13.6-12.4,13.3Z"/>
  <path d="M1115.8,341.8c-24.4,2.5-26.3,5.8-57.1,6.2-57.2.9-115,1.4-171.7-.7l-7.2,12.3,9.5,19.2c-19.7-9.5-31.1-29.4-53.5-32.6-31.7-4.5-182.6-.6-215.3,6.1-14.5,3-23.9,14.4-33.7,24l3.4-25.4c-62.4,1.6-125.4-1.7-188.1-1.8-43.8,0-88.1,1.6-127.5-.2-42.9-2-87-.1-130.2-1.5,5.3,10.5,8.3,21.4-6.5,25.4v-25.5c-26.8,1.1-54.3-.7-81.6-1.4-5.8,12.5-11.3,25.2-16.3,38.2l176.6,2.5,16.8-25.7-3.3,25.5,207,1.6-3.1-12.8,25.2,13.2,25.7-19.1-3.3,19.1c49.8-.9,100,2.7,149.9,1.5,15.6-.4,25.6-11.5,37.8-11.8,30.6-.9,109.3,26.4,118.4-12.6l35.3,19.3,202.9,2.2,9.9-19.4c-3.1,23.2,1.6,20.3,22.3,19.5,28.1-1.1,59.6-7.4,89.1-8.7,3.5-.2,7.1.3,10.6.9-5.1-12.7-10.5-25.3-16.4-37.6-11.8,0-22,0-25.7.4Z"/>
  <path d="M319.8,316.9c4.7,20.5,19.7,12,37.8,13.5l3.7-19.5,18.7,6.9-6.2,12.3,130.6,1.1-9.4-12.8,16.1-6.3c2.4,18.3,50,24.4,59.2,18.6,7.3-4.6,12.6-37-9.8-26.2-11,5.3-4.4,15.3-14.5,14.2v-25.4c0,0-16.4,19.4-16.4,19.4-31-18.2-85.6-36.9-107.9,5l-15.8-16,16.1-9.5-338.2,1.9c-6.6,11.1-12.8,22.4-18.7,34l247.4,1.9,7.4-13.2Z"/>
  <path d="M1088.2,736.8c-5.2,1.4-3.6,13.1-7.5,12.9-9.1-.4-14.4-10.9-25.7-12.8-41.4-6.9-99.7,7.7-139.8,7.8-118.8.3-238.4-7.9-357.1-3.7l-12.5,17-3-19.1-53.5.9c-10.4,2-21.4,42-7.5,42.9,38.9-17.8,83.1-1.8,124.3-5.2l-6.1-25.4,18,1.2c2.6,14.1.9,21.2,16.7,24.7,35.2,7.6,110,4.1,140.3-18.2l-9.6,19c75.2,4.2,147.9.4,221.9-7.1,28.6-2.9,46.1,11.5,68.1-15.9l-3.4,19c25.6-6.5,55.1,2.4,79.6,1.3,14.2-.7,28.6-2.2,43.4-3.6,3.4-11.5,6.5-23.1,9.3-34.8-32.3,13.5-68.1-7.9-96-.7Z"/>
  <path d="M417.4,108.1c11.2-1.2,18.4-3.6,25.3-12.9,5.2-2.2.6,11.1,7.1,12.8,8.5,2.3,92.6,1.7,96.7-.9,3.1-2-1.4-12.1,4.4-11.2,16.2,37.2,33.7-8.2,57.3-12.3l-16,25.3,216.6-4.6v-16c0,0,31.9-2.8,31.9-2.8l-12.8,18.9c31.4-7.8,74.3,8.3,102.3-5.6-14.1-9.3-28.6-18-43.4-26.1-10.1.2-20.2.4-30.2.5-32.6.2-65-11.2-101.7-7.5-18,1.8-53.2,21.3-62.9,18.4-5.2-1.5-4-19.6-23.1-12.7,4.6,22.9-8.7,18.2-25.6,25.2l-6.5-19.1,19.2-6.2c-37.2-3.6-57.1-3-82.9,24.7l12.9-25.3c-34.8,1.2-70.3-2.9-105-.8-16.6,1-40.7,13-50.7,12.5-4.1-.2-.5-12.6-12.9-13.7-27.7-2.6-67.6,5.9-98.9,1.1-1.5.8-3.1,1.6-4.6,2.5l4.5,9c-6.9-1.6-13.2-1.4-19.4-.7-13.3,7.7-26.2,15.9-38.8,24.6,51.5-.8,108.5,7.7,157,2.7Z"/>
  <path d="M905.7,289.5c-15.4,2.1-24.4,12.9-38.1,13.5-11.5.5-8.7-11.1-12.3-12.1-39.5-10.2-96.1,4.9-134.1,6.8-23.9,1.2-48.1-6.2-72.2-2.7l-7.5,37.2,50.9.5.3-19.2c23.9,27.8,25.5,9.3,40.9,9.6,23.1.5,49.1,7.4,73.6,4l-11.9-7,5.9-24.8c14.2.8,6,16.8,7.5,18,14.6,11.7,79.4,27.7,84.5,1.8,19.5,26,52.7,7.7,76.7,8.6,55.4,2.1,110,3.4,164.8,3.5-7.2-14.2-15-28-23.3-41.5-70.9-.8-158.9-2.6-205.5,3.7Z"/>
  <path d="M614.1,160.2c0-.1,0-.2.1-.4,0,0-.1,0-.2,0v.3Z"/>
  <path d="M946.9,137.1c-3.9-2.4-3.9-11.2-9-12.4-23.3-5.3-59.5,2.8-84.7-.8l15.7,25.6-9.4-12.9-12.9,12.6.2-25.5-121-.8c-1.5,1.1,26.5,39.3,3,31.8l-28.4-32c3.6,12.3-20.1,19.5-28.4,19-3.8-.3-2.9-11.6-7.8-12.9-37.5-9.5-40,1-50,31,20-8,26.9,7,43.4,6.9,38.5-.3,90.9-16.4,134-5.4l7.2-12.4c21.9,32.4,73.2,2.1,89,3.1,36.9,2.2,76.9,4.6,118.5,6.5-10.7-9.8-21.7-19.3-33.1-28.3-3.8,7.7-5.2,19.8-26.4,6.9Z"/>
  <path d="M244.3,164l6.9-19.5,25.1,19.9c54.1-6.2,117.2,13.9,165.8-12l-3.3,12.7,162.8,1.8c4.7-3.2,8.8-5.5,12.4-7l-9.2-31.7-89.2-.7,25.4,13-9.7,12.7-47.6-13.3,6.6-12.6-114.7-.9c-5.6,15.9,7.3,11.5,8.4,12.8,17.9,22.5-36.5,14.4-14.7-12.8l-138.7.9c-11.5,9-22.7,18.4-33.5,28.3,2.9,15.9,31.8,4.9,47.4,8.5Z"/>
  <path d="M1022.8,958.9c-4.6.6-4.6,10.8-9.3,12.5-14.5,5.3-29.2-5.3-27.1,12.6l-31.5-19.3c3.9,11.6-5.4,24.6-16.3,25.4-1.7.1-7.6-18.6-25.6-19.2l-9.2,12.4-3.3-19.5c-64.7,8.8-136.2-16-194.2,17.9l6.5-19-181.6-1.9-54.2,19.2,6.6,25.4c92.4-14.8,188.4-4.7,282.1-4.4,25.8,0,31.6-.2,57.9,1.1,24.1,1.2,91.1,5.6,102.2-12.3,28.3,23.7,65,7,95.4,6.9,9.5,0,19.1,0,28.8,0,10.9-12.3,21.2-25.1,31.1-38.2-23.3-1.5-46.6-1.1-58.2.3Z"/>
  <path d="M1022.5,863.6c-5.2-23.9-21.4-8.4-38.2-9.4-19.6-1.2-139.9-8.6-148.4-3.4-3.6,2.2-3.9,14.8-10.3,15.8-12.8,2.1-39.2-19.4-45.2,7.8-5.5-31-19.6-26.9-47.6-25.9l3.1,12.7c-15.3,2.9-3.5-11.4-18.4-13.4-43.2-5.9-112.5,9.1-159,9.8-32.5.5-71.4-9.7-105.9-5,4,8.2,25.6,14,2.9,19-16.1,3.5-9.6-25.9-28.4-19.3l-3.5,25.5-15.2-22.8c-4-2.8-90.9-5.6-98.2-3.9-7.3,1.7.9,16.5-13.7,13-6.1-1.5-.6-10.8-7.1-12.6-4.9-1.4-81.7-3.3-85.2-.8l6.3,19c10.4,2.8,4-8.9,7.5-11,7.9-4.7,21.3-.4,30.7-1.3l-38.4,31.4,146.5,1.2-6.4-12.7c24.3-10.2,31.7,12.3,40.9,13.5,15.3,2.1,88.7,3.1,101.3.2,5-1.2,4.4-12.6,7.9-12.9,11.3-1.2,22.4,11.4,37.4,13.7,34.7,5.3,60.3-8.8,83-9.4,80.3-2.4,176.4,13.1,255.3,6.1,12.6-1.1,8.3-13.9,12.5-13.6,9.1.7,14.1,10.5,25.1,12.2,55.3,8.6,118.5-3.2,172.4-16.8,31.5,8.7-46.3,14.1-12.8,19.2,17.4-5.6,39.5-2.1,56-6.8,6.6-12.2,12.7-24.7,18.4-37.5-46,1.2-113.9,4.6-119.1,6.7-5.5,2.2,0,12.1-6.1,11.6Z"/>
  <path d="M25.5,486.4l7,13.4c58.5-6.6,118.5,3.3,178,.9,54.9-2.2,33.2-19.2,55.5-29.7,11.2-5.3,30.1,5.1,30.4-7.7H100.2c-8.2,29.8-11.9-.8-23-2.3-20.5,1.1-40.9,1.8-61.5,2.3-2.7,11.5-5,23.2-7.1,35,3.2.4,6.4.8,9.5,1.3l7.4-13.1Z"/>
  <path d="M1149.8,800.8c-34.5,2.4-86.7-13-127.2-7.9-12.7,1.6-8.2,13.6-12.4,13.4-9.3-.5-15.6-12-31.7-13.7-36.6-3.8-77.8,9.5-109.3,10-32.3.5-154.9-12.5-173.6,1.6-1.5,1.1,3.3,21.5-13.6,31,66.5-2.1,134,3.6,200.9,1.9,31.7-.8,127-1.8,149.9-7.8,16.1-4.3,16.2-21,37.9-10l-6.5,12.6,91-3.9c5.5-13.3,10.5-26.9,15-40.7-5.8.1-10.3.4-12.2.9-4.9,1.2-3.9,12.2-8.1,12.5Z"/>
  <path d="M1120.7,516.9c-31.3.1-174.4-10.1-186.6-2.5-3.1,2,1.4,12.1-4.4,11.2l-6.2-12.9-16.1,6.3,6.2,19.1c-20.5-19-65.2-35.2-79.4-7-50.6-29.1-126.8-.3-184.4-14.5l-175.5-1.1,6.4,12.6c-15.6-.5-33.2,7.3-32.1,25.3l95.5.8-2.9-25.5,15.8,3.2-3.2,22.4c31.7-5.4,81.7,16.6,95.6-18.4,16.2,3.4,12.1,29,56,19.4,4.7-1,7.7-20,26.9-18.3,9.2.8,19,10.9,37.6,13.1,56.9,6.6,140.6.8,199-2.9,15.8-1,24.4,14.4,30.8-8.5l3,12.8,195.1-4.2c-1.1-12.2-2.5-24.2-4.3-36.2-9-3.8-56.8,5.7-72.8,5.8Z"/>
  <path d="M23.9,690l9.2,32,111.2,1.3,6.8-19.5,6.5,19.6,487.1-6.2c-9.2-12.3,7.3-34.8-9.5-35.2-18.6-.5-99,2-113.4,5.9-5.5,1.5-4.6,12.2-7.3,12-17-1.2-46.8-20.4-70-13.3-4.5,22.2-8.6,19-29.1,25.7l-3.5-25.6c-15.7,1.7-34-2.9-49,0-5,1-18.8,24.5-20.9,25.1-20.2,5.9-25.2-16-3-12.9l-3-12.8-73.3-.5-3.2,12.7-12.2-13.5-159.4-1.1c-11.5,45.6-25.4,10-35.3,3.5-6.1-4-23.5-6-47.3-6.8,1.4,10.4,3.1,20.8,5,31,4.1-2.6,8.4-5.4,13.1-8.5l.5-13Z"/>
  <path d="M961.9,1017.4c-3.1,2,1.4,12.1-4.4,11.1l-3.6-12.1c-28,16.8-80.1-11.2-92,17.7-12-27.5-66.4-12.9-86,5.7v-19.1c-.1,0-191-1.6-191-1.6l-.2,25.6-25.4-.3,6.5-25.3h-12.6c0-.1-13.1,37.9-13.1,37.9l56.4-.4,7.6-24.5c13.9,1,8.8,23.9,16.4,26,28.1,7.9,89.9-4.9,120.3-4.6,52.1.6,120.2,11.7,172,6.7,18.7-1.8,34.7-17,38.2-17,3.5,0,12.7,10.3,25.1,11.2,5,.4,10.1.5,15.2.5,14.7-12.6,28.7-25.9,42.1-39.9-35.4-.2-68.1.2-71.4,2.3Z"/>
  <path d="M158.9,532l6.4,19.6c46.4-.8,92.4-1.2,138.9-3.3,9.1-.4,20.9,5.8,33,4.9,10.4-.8,59.1-30.2,41.3-.4,13.5-1,28.6,2.1,41.7.7,38.3-4.1,3.4-23.2,28.7-28.7-12.3-8.2-33.8-8.1-48.4-8.9-14.4-.8-120.8-3.2-126.8-1.1-3.8,1.3-3,11.7-6.6,12.1l-28.3-13.2-3.7,13.1c-46.1-16.5-103.7-12.1-152.4-8.3-23.8,1.9-50.3,2.8-77.5,3.2-1.2,9.4-2.2,18.9-3,28.5l137.7,1.1,19.1-19.2Z"/>
  <path d="M298.7,609.9c13.2-1.6,27-13.7,28.2-12.8,1.3,1-4.5,11.9,9.4,13.4,67.1,7.5,148.3-9,217,1.7l12.6-13.4,7.2,13c7.3,1.9,102.5,1.5,107.5-.5,6.1-2.4,7.8-17.4,12.8-17.7,1.1,0,8.7,11,19.2,12.6,34.4,5.2,77,4.5,79.7-37.3l-318.5,3.8,2.9,25.5c-15.1,2.6-9.3-16.4-21.9-22.6-19.5-9.6-59.9-.2-82.9-3.7l6.1,25.4c-15.8-8.9-28.5-8.7-44.4-.3.5-12.7-1.2-25.1-15.9-26L.8,568.9C.3,579.2,0,589.6,0,600s0,4.4,0,6.6l159.1-3.6c43.1,3.2,97.1,12,139.6,6.9Z"/>
  <path d="M257.3,971.9l28.4,25.7-31.8,6.1,70,.6c-10.1-15.8,11-17.1,16.1-31.7,18.4,7.7,18,12.2,15.8,32l31.9.2-3.1-12.7c17-6.1,15.1,12.5,19.6,13.2,21.1,3.1,28.7-20.4,44-1.4l28.9-36.5-137.4-1.7-12.3,13.2-25.1-13.3-179.1-1.3c10,13.1,20.6,25.8,31.7,38.1,40.4,2.5,85.2,11.9,102.4-30.4Z"/>
  <path d="M446.4,31.6l21.8,19.8c31.6-6,86.1,7.6,113.9.5,6.7-1.7,2.1-15.1,7.4-12.7,20.8,26.8,38.8,5.1,60.5-6l3.4,19.6c43.1-9.5,110.6,16.1,131.3-23.8-11-3.6-22.2-6.8-33.5-9.7-87.8,2.9-184-3.2-276.4-6.1-40.6,8.6-79.7,21.3-116.8,37.7,38.8-.1,78.5-1.1,82.1-3.4,4.1-2.7,6.3-10.7,6.4-15.9Z"/>
  <path d="M1057.6,628.6c-7.9,3-2.2,12.8-7.9,12.5-5.9.9-1.1-9.2-4.2-11.2-14.6-9.5-139.1,7.2-167.5-3.3l-3.6,19.5-22.6-19.7-31.3,12.9-3.2-12.8-16.4,18.4c-17.8,3.8-30.7-18.1-32.7-18.6-59.6-14-154.5,13.9-218.5,4.4l-3.5,31.9c-26-6.6-13-18.2-2.9-31.9l-89.2-.7,6,35.4c23.5,11.7,36-13,47.9-9.6,2.4.7,2.2,12,7.4,13,42.7,8.4,155.1-4.8,208.2-5,62.3-.3,131.6,4.2,198.7,2,7.7-.2,41.3.4,43.4-.2,5-1.4,4.1-12.5,7-12.3,5.1.5,19.6,10.9,32.6,12.3,19.9,2.2,40.1.3,60,1l-6.4-12.7c27.9,4.4,47.5,16.3,67-12.1,6.5,4.1,6.8,17.4,13.9,19.2,4.5,1.2,27.7,1.8,56.7,1.8,1.4-13.1,2.3-26.4,2.8-39.7-53.6-.7-131.4,1.5-141.9,5.6Z"/>
  <path d="M892.2,436.2l6.3-1.4c-2.2-.4-4.4-.7-6.6-1l.3,2.4Z"/>
  <path d="M816.9,403.3l-10.8,38.4,25.5.2-12.5-25.5c19.5-4.9,13.2,21.5,29.2,24.5,9.7,1.9,21.6-9.6,31-8.7,4.3.4,8.5.9,12.6,1.5l-3.6-28.8-71.5-1.7Z"/>
  <path d="M1058.3,398.7l-3.7,19.5-13-19c-22.9,17.7-49.3-4.6-66.6,18.3-.8-21.9-67.7-16.4-73.1-3.7l18.9,16-22.3,4.9c22.9,3.8,45.6,9.4,76.7,8.7,16.6-.4,32.4-10.7,37.9-10.4,6.6.4,16.8,15.1,28.8,10.5l-3.1-12.8c46.1,6.5,92.5,7.5,139,6.7-3.7-13.1-7.8-26-12.3-38.6-35.6.2-72.2,2.8-107.1-.1Z"/>
  <path d="M51.4,429.4c22.7,24.7,64.4,8.5,95.2,13.9l7.1-19.6,43.8,18.7,338.4,4.1,12.3-13.2c25.2,26.6,68.1,4.5,102,4.4,21.5,0,142.8,8.8,149.6,3.9l-16.6-38.5c-50.6,2-101.7-3-152.2-1.2-18.1.6-83.4,3.1-94.3,5.8-6.5,1.6-1.7,12.3-7.5,12.8l-3-12.8-225.1-2c-17,31.4-23.4,1.1-27.7,0-20.6-4.9-52.5,3-75.1-1.1l-3.7,14.6c-16.6,18.8-20-7.8-25.1-11-7.3-4.7-87.1-6.8-97.9-4.1-5.2,1.3-3.7,13-7.5,12.9-8.3-.3-16.1-11.3-31.2-13.6-4.5,13.1-8.6,26.4-12.3,39.9,13.4,2.4,26.9-.9,30.7-13.9Z"/>
  <path d="M199.7,207.7c8,23.6,63.9,9.7,89.9,9.3,11.5-.2,24.5,5.9,37.6,5.2,10.2-.5,12.7-22.4,34.9-13.1l-6.6,12.6,57.3.6,9.7-25.5,3.1,25.6h25.5c0,.1,9.7-25.3,9.7-25.3l6.2,25.6,95.5.8,8.9-14.8c-5.3-17.6-14.4-26.4-34-24.2l-235.4-1.7-6.9,19.5-12.8-19.7-24.9-.2-3.7,19.5-17-19.6-67-.5c-12,12.4-23.6,25.3-34.5,38.7l52,.5,12.4-13.3Z"/>
  <path d="M196,660.9c14.9-.6,38.5,16.9,47.9-7.2l-18.9-19.3,53.4,32.5,54.8-38L.5,625.6c.5,12.8,1.5,25.5,2.8,38.1,64.3,0,128.6-.4,192.7-2.9Z"/>
  <path d="M1034.7,188.3c-33-1.7-129.4-13-158.8-6.9-4.2.9-5,20.2-23.2,12.4l9.6-12.6-277.1,4.3,38.2,6.7c-2.1,12.8-30,9.5-16,25.4,150.6,1.1,300.8,4.7,450.7-5.1-7.2-8.5-14.6-16.7-22.2-24.8-.3.4-.7.7-1.1.7Z"/>
  <path d="M57.8,830.3l3.2-12.7c5.8.7.8,11.2,7.2,12.9,34.8,9.4,35.2-12.8,37.4-12.7,9.2.4,15,11.3,25.5,13,16,2.6,34-1,50.5,1l6.8-19.5,6.3,19.5,79.5.3,3.3-18.9c20.5,27.3,61.1,30,79.5.5l2.8,18.4,54.4,1.2c-7.3-28.9,15.8-53.6,9.2-12.9,12.5,27.4,112.8,8.3,139.8,8.3,19.4,0,103,19.3,112.1-2.9l-19-19.2,19.2-9.4c-31.3,3.4-65.5-10.5-82.9,18.4l3.3-19.1-18.7,12.1c-89.4-12-223.1-24.9-312.6-14.8-16.5,1.9-27,6.3-38.2,18.8l-3-18.9-192.3-1.5c4.4,12.9,9.1,25.6,14.3,38.1,5-.1,9.2-.1,12.1.2Z"/>
  <path d="M1146.8,470c-27.3-32-61.2-.8-76.5-.4-3.8,0-2.2-11.6-7.3-13-17.1-4.7-71.3-4.9-75.6,18.4l-12.1-13.4c-131.2,6.4-264.7-9-395.3-2.5-19.9,1-66,1.6-70.3,18.6l-7.2-13-72.3-.4,25.4,6.5-12.9,31.7,25.5.2-6.4-12.7c21.2-2,3.8,12.3,28.1,13.5,36.3,1.7,73.8-8.1,109.9-10,23.7-1.2,74.3,15.3,81.7-8.2,38.7,23.7,104.5,12.6,151.9,12.9,44.1.3,90.8-3,135.5-3.4,73.9-.7,147.7-1.2,221.5-2-2-11.4-4.4-22.6-7.1-33.7-4.6.9-8.9,1.7-12.5,2.2-12.5,1.6-18-12.9-24.1,8.7Z"/>
  <path d="M1157.5,679.5c-19.9,3-29.9,53.6-54,22.4l25.5-22-133.8,5.3-.3,34.9,12.7,3.2,16.2-25.3,9.2,16.1,156.3-.2c2.2-11.6,4.1-23.3,5.7-35.1-13.7-.7-26.9-.9-37.4.7Z"/>
  <path d="M1133.2,565.4c-18.6.4-38.8,10.1-57.5,10.9-24.5,1-69-8.6-95.7-6.5-12.8,1-6.2,6.9-12.6,13.3-13.1-18.1-34.3-13-54.1-13.1l12.5,19.1-44.5-6.8,6.5-12.6-89.2-.7v19.1c0,0,12.6-6.4,12.6-6.4l-3.3,25.5c19.2-2.2,44.4,4.4,62.4-.8,14.8-4.3,19.4-30.5,30-4.9l-12.8,6.3c34.7-.6,70.2,1.3,104.7.2,9-.3,16.1-9.2,25.8-9.6,25.3-1,58.1,36.7,70.3-14.5,17.8,42.4,51.4,15.8,83.8,15.9,9.2,0,18.5.3,27.9.6,0-.1,0-.3,0-.4,0-11.4-.3-22.7-1-34-21.9-.7-43.9-1.2-65.8-.7Z"/>
  <path d="M40.6,768.7c8.8-2.4,68.7,10.9,84.6,10.5l3.2-11.8h9.4c0-.1,7.3,13.1,7.3,13.1,26.4-10.8,58.6,13.8,72.4-18.8-17.3-4.8-34.1-2.1-42.6-19.4-52.7-.3-105.4.1-158,0,3,12.1,6.3,24.1,9.9,35.9l9.4.3c3.3.2,2.9-9.5,4.2-9.9Z"/>
  <path d="M826,46.4c1.1-.2,2.6-.4,4.4-.5-3.8-1.6-7.7-3.1-11.5-4.7,1.6,2.3,3.9,4.1,7.1,5.2Z"/>
  <path d="M249.2,780.9l-12.6-9.6,19.1-15.8-.2,25.5c31.1-9.4,121.2,9,143.6-.2,5.2-2.1,0-12.1,6.3-11.4l3,12.7,51,.5.3-38.3-229.4-1.8c2.2,19.4-11.7,44.9,18.8,38.3Z"/>
  <path d="M893.2,697l-6.5,25.4,101.9.8-31.7-16.3c-3.1-18.4,10.6-.6,16-9.3,9.9-16-44.2-14.9-53.7-12.5l-.6,18.5-11.8-5.3-1,11.4-16.4-24.7-27.9-.9c-2.4,1.5,5.5,9.1,6.3,12.7,6.5,1.9,17.8-1.2,25.4.2Z"/>
  <path d="M664,705.2l-6.7,15.3,178.4,1.4c-4.2-11.6-5.2-29.7,12.9-25.3l-.2,25.6h31.9c2.7-10.1-10.3-3.2-12.7-10.6-1.6-5.1,1-11,.2-14.8-12.9-3.8-21-11.5-34.6-13.3-56.3-7.7-124.2,6.6-181.9-1.1,4.6,13.4-2.3,16.6,12.8,22.8Z"/>
  <path d="M353.7,631c-4.5,2.8-8,22.7-27,17-2.7,5.9,5.5,19.1,9.4,19.1l105.1.8.3-38.2c-15.5,2.3-79.6-3.8-87.9,1.3Z"/>
  <path d="M302.8,463.2l25.3,6.5c6.3,23.8-13.5,17.6-19.3,31.6l63.7.5-12.8-37.9-57-.7Z"/>
  <path d="M379.2,463.9l19,16.1-19.3,22,57.3.5c-15.7-16.6-31.1-40.7-57-38.5Z"/>
</svg>