<?xml version="1.0" encoding="UTF-8"?>
<svg id="Layer_1" xmlns="http://www.w3.org/2000/svg" version="1.1" viewBox="0 0 1200 1200">
  <!-- Generator: Adobe Illustrator 29.0.0, SVG Export Plug-In . SVG Version: 2.1.0 Build 186)  -->
  <defs>
    <style>
      .st0 {
        fill: none;
      }
    </style>
  </defs>
  <path d="M621.9,1199.7c11.5.6,24.3.8,35.7-2.4-12,1.1-24,1.9-36.2,2.4.2,0,.3,0,.5,0Z"/>
  <path d="M578.1,1199.7c.2,0,.3,0,.5,0-12.2-.4-24.2-1.2-36.2-2.4,11.4,3.2,24.2,3,35.7,2.4Z"/>
  <path class="st0" d="M578.6,1199.6c7.1.2,14.2.4,21.4.4s14.3-.1,21.4-.4c-6.9-.4-15.3-2.7-21.7-2.6-6.2,0-14.4,2.2-21.1,2.6Z"/>
  <path class="st0" d="M149.6,885.1c-13.6,11.2-43.4,10.1-56.3-1.9-2.2-2-6.3-8.7-7.7-9.6-1.1-.8-4.6-1.1-6.3-1.8-28.1-12.2-23.6-37.8-12.3-60.7,8.5-17.4,26.5-24.5,44.6-16.7,12,5.2,15.7,13.9,23.6,22.8,5.7,6.4,12.3,11,17.6,18.4,11.3,15.7,12.8,36.5-3.2,49.6ZM273.1,944.4c-61-.7-70.2-123.9-12.8-129.7,19.6-2,47.8,15.8,55.2,34,13.5,33.1,3,96.2-42.4,95.7ZM544.9,964.4c-1.1,2.2-4.5,5.8-4.9,7.5-.8,3.4.2,8.6-.1,12.3-1.1,12.9-10.4,24.3-22.5,28.5-4.9,1.7-9.4,2.8-14.4,4.6-44.7,15.7-59.2-31.1-57.3-66.4,1.9-33.5,18.9-74.5,57.5-76.6,16.1-.9,30.9,8.8,38.2,22.9,7.6,14.8,11.2,52.5,3.6,67.3ZM552.9,711.5c-2.3,25.6-33.2,43.7-52.4,56.8-4.9,3.4-15.6,8.6-19.3,12.1-3,2.9-8.9,14.5-12.8,19.3-4.6,5.7-10,8.8-14.1,13.4-7.3,8.1-6.1,11.1-17.4,17.3-22.1,12.2-35.5,10.2-53.5-7.2-2.2-2.1-4-5.7-6.3-7.4-3.3-2.6-8.1-3.5-12.1-6.9-6.1-5.1-6.9-10.5-11.1-15.1-3.7-4.1-11.5-9.2-16.1-13.4-13.3-12.3-23.9-26.7-36.3-39.6-13.6-14.2-43.8-35.6-47-55-3.6-21.7,14.4-40.7,36.2-38.8,3.2.3,8.2,2.7,10.4,2.6,5.8-.3,10.3-2.6,17.7-1.9,23.7,2.3,45.7,39.9,59.9,57.2,7.4,9.1,15.8,18.7,23.9,27.1.5.5.9,1.8,1,1.9.8.5,1.6,0,2.2-.5,5.2-3.4,12.6-13.3,17.9-18,11.5-10,23.6-14.5,36.2-22,15.7-9.5,29.6-21.8,49.2-23.4,25.2-2.1,45.8,15.5,43.5,41.5ZM697.1,1017.2c-5-1.8-9.6-2.9-14.4-4.6-12.2-4.2-21.5-15.6-22.5-28.5-.3-3.7.6-8.9-.1-12.3-.4-1.7-3.8-5.3-4.9-7.5-5.9-11.5-4.3-32.1-2.8-44.9,2.7-23,16-43.9,41.1-45.3,20.6-1.1,37.1,12.3,47.5,28.6,23.3,36.6,19.7,136.6-43.8,114.4ZM862,780.5c-4.5,4.2-12.4,9.3-16.1,13.4-4.2,4.6-5,10-11.1,15.1-4,3.3-8.8,4.3-12.1,6.9-2.3,1.8-4.1,5.4-6.3,7.4-18,17.3-31.4,19.4-53.5,7.2-11.3-6.2-10.1-9.2-17.4-17.3-4.1-4.5-9.5-7.7-14.1-13.4-3.9-4.8-9.7-16.4-12.8-19.3-3.7-3.5-14.3-8.8-19.3-12.1-19.2-13.1-50.1-31.3-52.4-56.8-2.3-26,18.3-43.6,43.5-41.5,19.6,1.6,33.5,13.9,49.2,23.4,12.6,7.6,24.7,12,36.2,22,5.4,4.7,12.8,14.6,17.9,18,.7.4,1.4,1,2.2.5.1,0,.5-1.4,1-1.9,8.1-8.4,16.5-18.1,23.9-27.1,14.1-17.3,36.1-54.9,59.9-57.2,7.4-.7,11.9,1.6,17.7,1.9,2.2.1,7.2-2.3,10.4-2.6,21.8-1.9,39.8,17.1,36.2,38.8-3.2,19.4-33.4,40.7-47,55-12.4,12.9-22.9,27.3-36.3,39.6ZM938.9,942.4c-22.9,7.3-43.9-5.8-53.1-26.7-8.6-19.7-9.7-59,4.1-76.6,7.8-10,28.5-22.9,41.1-24.4,60.7-6.9,62.3,110.4,8,127.6ZM1120.8,871.7c-1.8.8-5.2,1.1-6.3,1.8-1.4.9-5.5,7.6-7.7,9.6-12.9,12-42.6,13.1-56.3,1.9-16-13.1-14.5-33.9-3.2-49.6,5.3-7.4,11.9-11.9,17.6-18.4,7.9-8.9,11.7-17.6,23.6-22.8,18.1-7.8,36.1-.7,44.6,16.7,11.2,22.9,15.8,48.6-12.3,60.7Z"/>
  <path d="M1177.4,693.5c-9.9-9.8-21.6-16.3-29.5-28-6.2-9.1-6-11.9-16.4-18.3-19.4-11.9-41.2-16.5-57.5,3.1-14.1,17-7.2,41.3,6.7,56.2,3.1,3.3,11.8,9.1,13.6,11.9,2.8,4.3,5.5,13.3,8.7,18.7,10.9,18.4,35.3,37.7,53.1,49.5,3.9,2.5,8.1,4.2,12.5,5.1,13.1-38.9,22.3-79.5,27.2-121.4-6.1,7.8-12.5,15.4-18.6,23.2Z"/>
  <path d="M945.4,686c3.6-21.7-14.4-40.7-36.2-38.8-3.2.3-8.2,2.7-10.4,2.6-5.8-.3-10.3-2.6-17.7-1.9-23.7,2.3-45.7,39.9-59.9,57.2-7.4,9.1-15.8,18.7-23.9,27.1-.5.5-.9,1.8-1,1.9-.8.5-1.6,0-2.2-.5-5.2-3.4-12.6-13.3-17.9-18-11.5-10-23.6-14.5-36.2-22-15.7-9.5-29.6-21.8-49.2-23.4-25.2-2.1-45.8,15.5-43.5,41.5,2.3,25.6,33.2,43.7,52.4,56.8,4.9,3.4,15.6,8.6,19.3,12.1,3,2.9,8.9,14.5,12.8,19.3,4.6,5.7,10,8.8,14.1,13.4,7.3,8.1,6.1,11.1,17.4,17.3,22.1,12.2,35.5,10.2,53.5-7.2,2.2-2.1,4-5.7,6.3-7.4,3.3-2.6,8.1-3.5,12.1-6.9,6.1-5.1,6.9-10.5,11.1-15.1,3.7-4.1,11.5-9.2,16.1-13.4,13.3-12.3,23.9-26.7,36.3-39.6,13.6-14.2,43.8-35.6,47-55Z"/>
  <path d="M509.4,670c-19.6,1.6-33.5,13.9-49.2,23.4-12.6,7.6-24.7,12-36.2,22-5.4,4.7-12.8,14.6-17.9,18-.7.4-1.4,1-2.2.5-.1,0-.5-1.4-1-1.9-8.1-8.4-16.5-18.1-23.9-27.1-14.1-17.3-36.1-54.9-59.9-57.2-7.4-.7-11.9,1.6-17.7,1.9-2.2.1-7.2-2.3-10.4-2.6-21.8-1.9-39.8,17.1-36.2,38.8,3.2,19.4,33.4,40.7,47,55,12.4,12.9,22.9,27.3,36.3,39.6,4.5,4.2,12.4,9.3,16.1,13.4,4.2,4.6,5,10,11.1,15.1,4,3.3,8.8,4.3,12.1,6.9,2.3,1.8,4.1,5.4,6.3,7.4,18,17.3,31.4,19.4,53.5,7.2,11.3-6.2,10.1-9.2,17.4-17.3,4.1-4.5,9.5-7.7,14.1-13.4,3.9-4.8,9.7-16.4,12.8-19.3,3.7-3.5,14.3-8.8,19.3-12.1,19.2-13.1,50.1-31.3,52.4-56.8,2.3-26-18.3-43.6-43.5-41.5Z"/>
  <path d="M101.8,728.2c1.3-2.6,2.7-7.8,4-9.8,1.8-2.8,10.5-8.5,13.6-11.9,13.8-14.9,20.8-39.1,6.7-56.2-16.2-19.6-38-15.1-57.5-3.1-10.4,6.4-10.2,9.1-16.4,18.3-8,11.7-19.6,18.2-29.5,28-6-7.8-12.5-15.4-18.6-23.2,4.9,41.9,14.1,82.6,27.2,121.4,12.1-3.4,23.9-13.2,33.2-20.5,16.7-13.1,27.6-24,37.3-43.1Z"/>
  <path d="M679.8,1183c1-.7,6.9-.2,8.8-.5,6.4-.8,14.5-4.8,19.1-9.3,13.2-12.8,12.6-34.1.2-47.2-15.4-16.3-22.9-13-42.7-16.8-3.7-.7-8.2-2.7-12.1-3.6-22.9-5-57.2-4.7-80.9-3.5-15.9.8-31.5,5.2-47,7.9-15.5,2.7-22,4.2-33.1,15.9-18.9,19.9-7.8,52.9,19.4,56.5,1.8.2,7.8-.2,8.8.5.9.6,3.1,3.9,4.6,5.2,5.2,4.4,11.2,7.3,17.6,9.1,12,1.1,24,1.9,36.2,2.4,6.7-.4,14.9-2.6,21.1-2.6,6.3,0,14.8,2.2,21.7,2.6,12.2-.4,24.2-1.2,36.2-2.4,6.4-1.8,12.5-4.6,17.6-9.1,1.5-1.3,3.6-4.5,4.6-5.2Z"/>
  <path d="M503,874.2c-38.5,2.1-55.6,43.1-57.5,76.6-2,35.3,12.6,82.1,57.3,66.4,5-1.8,9.6-2.9,14.4-4.6,12.2-4.2,21.5-15.6,22.5-28.5.3-3.7-.6-8.9.1-12.3.4-1.7,3.8-5.3,4.9-7.5,7.5-14.7,4-52.5-3.6-67.3-7.3-14.1-22.1-23.8-38.2-22.9Z"/>
  <path d="M693.4,874.2c-25.1,1.4-38.3,22.2-41.1,45.3-1.5,12.8-3.1,33.4,2.8,44.9,1.1,2.2,4.5,5.8,4.9,7.5.8,3.4-.2,8.6.1,12.3,1.1,12.9,10.4,24.3,22.5,28.5,4.9,1.7,9.4,2.8,14.4,4.6,63.5,22.2,67.1-77.7,43.8-114.4-10.4-16.3-26.9-29.8-47.5-28.6Z"/>
  <path d="M260.3,814.7c-57.4,5.7-48.2,129,12.8,129.7,45.4.5,55.9-62.5,42.4-95.7-7.4-18.2-35.6-36-55.2-34Z"/>
  <path d="M930.9,814.7c-12.6,1.4-33.3,14.4-41.1,24.4-13.7,17.6-12.7,56.9-4.1,76.6,9.2,20.9,30.2,34,53.1,26.7,54.3-17.3,52.7-134.6-8-127.6Z"/>
  <path d="M380.2,1053.5c-1.6-21-17.9-36.4-39.4-33.5-4.3.6-8.6,3.6-12.1,4.3-2.9.6-6.9.3-10.1,1-32.3,6.3-43.7,57.5-29.6,83.5,1.1,2,4.4,5.7,5.2,7.5,17.3,10.3,35.2,19.7,53.5,28.2,2.6-1.6,5-3.4,7.3-5.7,17.3-17.2,27.1-61.6,25.3-85.3Z"/>
  <path d="M892.6,1029.7c-8.6-5.2-12.7-3.7-21.3-5.5-9.3-1.9-10.8-5.7-22.9-4.3-44.6,5.4-27.2,81.6-12.4,106.8,4.3,7.3,10,13.4,16.6,17.5,18.3-8.5,36.1-17.9,53.3-28.1.8-1.6,3.6-4.8,4.7-6.6,13.3-23.3,5.6-65.5-18-79.9Z"/>
  <path d="M137.1,953.5c-6.7.2-12.8,2.2-17.9,5.5,22.2,29.6,47,57.2,74.2,82.2,2.7-5.3,4.4-11.7,4.9-19.1,2-29.9-30.3-69.3-61.2-68.6Z"/>
  <path d="M1001.7,1022.1c.5,7.4,2.2,13.8,4.9,19.1,27.2-25,52-52.6,74.2-82.2-5.1-3.4-11.2-5.4-17.9-5.5-30.9-.7-63.2,38.7-61.2,68.6Z"/>
  <path d="M135.2,817.1c-7.9-8.9-11.7-17.6-23.6-22.8-18.1-7.8-36.1-.7-44.6,16.7-11.2,22.9-15.8,48.6,12.3,60.7,1.8.8,5.2,1.1,6.3,1.8,1.4.9,5.5,7.6,7.7,9.6,12.9,12,42.6,13.1,56.3,1.9,16-13.1,14.5-33.9,3.2-49.6-5.3-7.4-11.9-11.9-17.6-18.4Z"/>
  <path d="M1088.5,794.3c-12,5.2-15.7,13.9-23.6,22.8-5.7,6.4-12.3,11-17.6,18.4-11.3,15.7-12.8,36.5,3.2,49.6,13.6,11.2,43.4,10.1,56.3-1.9,2.2-2,6.3-8.7,7.7-9.6,1.1-.8,4.6-1.1,6.3-1.8,28.1-12.2,23.6-37.8,12.3-60.7-8.5-17.4-26.5-24.5-44.6-16.7Z"/>
</svg>