<?xml version="1.0" encoding="UTF-8"?>
<svg id="Layer_1" xmlns="http://www.w3.org/2000/svg" version="1.1" viewBox="0 0 1200 1200">
  <!-- Generator: Adobe Illustrator 29.0.0, SVG Export Plug-In . SVG Version: 2.1.0 Build 186)  -->
  <defs>
    <style>
      .st0 {
        fill: none;
      }
    </style>
  </defs>
  <path class="st0" d="M562.4,1198.8c12.4.8,25,1.2,37.6,1.2s25.2-.4,37.6-1.2c-24.9.5-50.3.5-75.2,0Z"/>
  <path class="st0" d="M77.6,885.4c-20.1-23.3-18.4-69.7,18.5-73.7,7.5-.8,11.1,1.7,16.8,1.8,3.3,0,6.6-1,10.5-.7,17.8,1.3,35.9,18.3,39.9,35.3,11.5,48.4-55,72.8-85.7,37.3ZM316.1,891c-3.6,32.8-44.5,49.5-68.4,26.2-3.5-3.4-6.7-8.1-8.7-12.6-8.1-17.7-14.4-38.8,1.5-54.5,34.9-34.5,80.4-3.4,75.6,40.9ZM520.8,986.4c-23.7,23-62.8,1.1-62.1-29.4.5-20.6,7.1-45.6,31.3-48.5,42.6-5.1,58.6,51,30.9,77.9ZM558.7,709.2c-5.4,19.2-19.3,28.2-32.4,41.2-9.6,9.5-16.6,22.8-24.6,33.9-6.2,8.6-14.7,17.5-20,26.4-4,6.6-5.8,14.3-10.9,20.5-9.5,11.6-26.5,15-40,8.6-2.3-1.1-5.1-3.7-7.3-4.5-3.9-1.4-10.2-1.7-14.7-3-35.2-9.8-73-49.4-90.9-80.4-8.5-14.7-15.7-32-25.5-45.8-4-5.7-10.6-10.4-14-16.8-11.4-21,3.6-48,27.5-49.1,20.5-1,35.4,5.7,46,23.4,3.2,5.4,4.2,12.2,6.4,15.9,2.5,4.2,15.3,13.9,19.7,18,17,15.8,33.4,32.2,50.9,47.4,6.2-8.6,15.4-15.8,21.6-24.2,4.9-6.7,8.7-14.8,13.6-21.7,7.1-10.1,18.1-24.2,26.4-33.1,37.2-40.2,82-5.2,68.3,43.4ZM685.5,991.2c-32-19.4-24.6-78.7,14.5-82.7,30.7-3.2,40.8,22.6,41.3,48.5.6,27.2-31.3,49-55.8,34.2ZM791.2,832.3c-4.5,1.3-10.8,1.6-14.7,3-2.2.8-5,3.4-7.3,4.5-13.5,6.4-30.5,3-40-8.6-5.1-6.2-6.9-13.9-10.9-20.5-5.3-8.9-13.9-17.8-20-26.4-8-11.1-15-24.4-24.6-33.9-12.9-12.8-26.8-21.8-32.3-40.7-14.2-48.7,30.8-84.4,68.2-44,8.3,9,19.2,23.1,26.4,33.1,4.9,7,8.7,15.1,13.6,21.7,4.4,5.9,10.7,11.5,15.7,17,1.1,1.2,5.3,7.4,6.4,7.2l69.8-65c3-11.2,8.7-21.9,17.7-29.4,19.4-16.4,57.1-14.1,65,13.6,4.8,17-2,24.8-11.6,36.9-13.1,16.4-20.1,33.2-30.4,51.1-17.9,31-55.7,70.7-90.9,80.4ZM953.6,915.9c-17,18.9-51,14.2-63.7-7.4-21-35.6,13.9-90.5,55.3-68.3,13.2,7.1,23,16.8,24.3,32.6.9,11.3-8.2,34.6-15.9,43.1ZM1100.3,900c-33.5,10.6-72.5-14.5-63.7-51.8,4.1-17.3,22.5-34.3,40.5-35.3,3.7-.2,7.4.9,10.5.7,2.2-.2,4.9-1.5,7.4-1.8,51.8-6.4,53,73.2,5.2,88.3Z"/>
  <path d="M1168.5,686.4c-.4.5-.7,1-.7,1.6-11.9-10.7-27.1-19.9-37.3-32.3-5.7-6.9-5.4-13.3-13.7-20.3-27.7-23.2-65-1.6-56.6,33.7,3.3,13.9,28.2,39.3,39.3,49,6.7,5.8,17.2,12.2,22.8,18.4,12.1,13.1,14.9,32.9,36.2,37,5.9,1.1,11.2.9,16.1-.4,11.2-37.2,18.8-75.9,22.6-115.7-10.3,8.8-20.1,18.3-28.8,29Z"/>
  <path d="M924,663.9c-7.8-27.6-45.6-29.9-65-13.6-8.9,7.5-14.6,18.3-17.7,29.4l-69.8,65c-1.1.2-5.4-6-6.4-7.2-5-5.6-11.3-11.1-15.7-17-4.9-6.7-8.7-14.8-13.6-21.7-7.1-10.1-18.1-24.2-26.4-33.1-37.4-40.4-82.3-4.7-68.2,44,5.5,18.8,19.3,27.9,32.3,40.7,9.6,9.5,16.6,22.8,24.6,33.9,6.2,8.6,14.7,17.5,20,26.4,4,6.6,5.8,14.3,10.9,20.5,9.5,11.6,26.5,15,40,8.6,2.3-1.1,5.1-3.7,7.3-4.5,3.9-1.4,10.2-1.7,14.7-3,35.3-9.8,73-49.4,90.9-80.4,10.3-17.9,17.3-34.7,30.4-51.1,9.6-12,16.4-19.8,11.6-36.9Z"/>
  <path d="M490.4,665.7c-8.3,9-19.2,23.1-26.4,33.1-4.9,7-8.7,15.1-13.6,21.7-6.2,8.4-15.4,15.6-21.6,24.2-17.5-15.2-33.9-31.6-50.9-47.4-4.4-4.1-17.1-13.8-19.7-18-2.2-3.6-3.1-10.5-6.4-15.9-10.6-17.7-25.5-24.3-46-23.4-23.9,1.1-38.9,28.1-27.5,49.1,3.4,6.3,9.9,11.1,14,16.8,9.8,13.8,17,31.1,25.5,45.8,17.9,31,55.7,70.7,90.9,80.4,4.5,1.3,10.8,1.6,14.7,3,2.2.8,5,3.4,7.3,4.5,13.5,6.4,30.5,3,40-8.6,5.1-6.2,6.9-13.9,10.9-20.5,5.3-8.9,13.9-17.8,20-26.4,8-11.1,15-24.4,24.6-33.9,13.1-13,27-22,32.4-41.2,13.7-48.7-31.1-83.6-68.3-43.4Z"/>
  <path d="M41.4,773.5c21.3-4.1,24.1-23.9,36.2-37,5.6-6.1,16.2-12.6,22.8-18.4,11.1-9.7,36-35.1,39.3-49,8.4-35.3-28.9-56.9-56.6-33.7-8.3,7-8.1,13.4-13.7,20.3-10.2,12.4-25.4,21.7-37.3,32.3,0-.6-.3-1.1-.7-1.6-8.7-10.7-18.4-20.2-28.8-29,3.8,39.8,11.4,78.5,22.6,115.7,4.9,1.3,10.2,1.5,16.1.4Z"/>
  <path d="M671.6,1131.3c-2.1-.3-4.5.3-6.4-.1-2-.4-6.4-3.5-9.4-4.4-22.8-6.2-35.6,3.2-55.5,3.5-14.1.2-28.6-6.9-44.9-5.5-9.4.8-13.1,4.5-20,6.2-2.2.5-4.7-.1-7,.2-37.2,5.8-41.1,45.2-21,61.6,18.1,2.8,36.4,4.8,55,5.9,24.9.5,50.3.5,75.2,0,18.6-1.1,36.9-3.1,55-5.9,19.7-16.3,16.6-55.7-21-61.6Z"/>
  <path d="M184.3,979.2c-16.5-15.7-40.3-19.4-57.7-10.5,20.9,26.8,44,51.8,69.1,74.7,12.9-19.6,7.4-46.3-11.4-64.1Z"/>
  <path d="M1014.4,980.5c-17.7,18.2-22.8,43.8-10.2,62.9,25.1-22.9,48.2-47.9,69.1-74.7-18.1-9.3-43-4.6-59,11.8Z"/>
  <path d="M1095.1,811.7c-2.5.3-5.2,1.6-7.4,1.8-3.1.2-6.8-.9-10.5-.7-18.1,1-36.5,18.1-40.5,35.3-8.8,37.4,30.1,62.4,63.7,51.8,47.7-15,46.6-94.6-5.2-88.3Z"/>
  <path d="M123.4,812.9c-3.8-.3-7.2.8-10.5.7-5.7-.1-9.3-2.6-16.8-1.8-36.9,4-38.7,50.4-18.5,73.7,30.7,35.6,97.2,11.1,85.7-37.3-4-17-22.1-34-39.9-35.3Z"/>
  <path d="M369.7,1061.6c-2.6-2.5-6.4-6.2-9.2-8.5-6.5-5.5-17.2-9.2-25.7-8.6-11.9.8-24.4,8.2-31.9,17.1-15.6,18.5-13.8,41.5-2.8,58.2,13.9,8,28.1,15.5,42.6,22.4,8.3-.6,17-3.7,25.6-10,26.1-19.2,23.1-49.4,1.4-70.6Z"/>
  <path d="M902.4,1069.4c-7.6-13.8-25.3-26.1-41.5-24.9-13.5,1-21.6,8.3-30.6,17.1-37,36-7.5,77.9,27.2,80.5,14.5-6.9,28.8-14.4,42.6-22.4,9.4-14.9,10.9-34.4,2.2-50.3Z"/>
  <path d="M240.5,850.1c-15.9,15.7-9.6,36.9-1.5,54.5,2,4.4,5.2,9.2,8.7,12.6,23.9,23.3,64.9,6.6,68.4-26.2,4.8-44.3-40.7-75.4-75.6-40.9Z"/>
  <path d="M945.2,840.2c-41.3-22.2-76.2,32.7-55.3,68.3,12.7,21.6,46.7,26.3,63.7,7.4,7.7-8.5,16.8-31.8,15.9-43.1-1.3-15.8-11.1-25.4-24.3-32.6Z"/>
  <path d="M489.9,908.5c-24.1,2.9-30.8,28-31.3,48.5-.7,30.6,38.4,52.4,62.1,29.4,27.7-26.9,11.7-83.1-30.9-77.9Z"/>
  <path d="M700,908.5c-39.1,4.1-46.5,63.3-14.5,82.7,24.5,14.8,56.4-7,55.8-34.2-.6-25.9-10.6-51.7-41.3-48.5Z"/>
</svg>