<?xml version="1.0" encoding="UTF-8"?>
<svg id="Layer_1" xmlns="http://www.w3.org/2000/svg" version="1.1" viewBox="0 0 1200 1200">
  <!-- Generator: Adobe Illustrator 29.0.0, SVG Export Plug-In . SVG Version: 2.1.0 Build 186)  -->
  <defs>
    <style>
      .st0 {
        fill: none;
      }
    </style>
  </defs>
  <path class="st0" d="M167.3,831.6c-.7,15.5-11.1,34.3-25.8,40.3-15.3,6.3-28.4,6.2-44.6,5.1-20.3-1.4-33-18.4-31.1-38.2.4-4.5,1.9-11.4,2.7-16.3,3.7-23.6,24.1-34.2,46.2-36.2,27.7-2.4,53.8,15.8,52.5,45.3ZM253.3,887.4c-27-41.7,39.1-85,75.1-48,27.9,28.6,12,73.9-30,70.3-15.4-1.3-36.4-8.8-45.1-22.3ZM396.2,1080.7c-4.1,6.9-15.3,15.1-22.1,19.8-15.4,10.8-48,10.4-61.4-3.8-4.7-5-5.2-9.5-8-14.9-3.7-6.9-7.8-9.7-8.6-18.8-2.2-24.4,17.4-39.6,40.2-40.2,6.5-.2,9.4-.4,15.9-1.1,12.9-1.4,23,5.1,33.1,12.4,14.5,10.4,20.4,30.8,10.9,46.6ZM414.1,820.5c-5.1-5.4-6.2-11.1-9.8-16.7-5.3-8.5-16.5-19-23.2-27.2-12.9-15.9-25-32.5-38.9-47.4-5.5-5.9-18.4-20.1-24.2-24.2-2.4-1.7-5.4-1.9-8-3.1-24-11-26.2-44.6-3.9-58.4,29.8-18.6,55.8,10.9,75.1,30.5,19.2,19.6,35.8,41.6,53.6,62.5,2.8-5.4,6.6-10.3,9.5-15.7,10.2-18.5,15.7-37.7,28.6-55.1,6.3-8.6,13-13.7,20.2-21,4-4,5.3-7.8,10.9-11.3,34-21.5,69.4,24,42.4,53.5-4.8,5.2-11.3,8.5-16.1,13.4-11.8,12.1-18.9,36.4-27.3,51.8-6.5,11.8-23.7,32.7-27.2,43.4-1.2,3.6-.4,9.3-2,14.4-8.2,25.8-42.2,29.2-59.6,10.9ZM469,948.4c-3.3-8.5-3.8-34.9-.7-43.5,7.1-19.2,26.8-27.3,46.2-27.8,29.7-.8,54.6,16.5,58.9,46.7,5,35-20.8,52.1-53.3,49.3-5.6-.5-9.1-3.9-12.6-4.5-2-.3-7.3.8-10.3.6-12.2-.8-23.9-9.4-28.3-20.8ZM702.2,1155.7c-4,11.5-14.3,17.6-23.8,24-5.6,3.8-9.6,6.4-16.5,7.7-3.7.7-10.2.2-12.8,1-1.5.4-7.5,5.8-11.1,7.2-15.4,5.9-24.3-.2-38,0-13.6.2-22.5,5.8-37.5,0-3.7-1.4-9.7-6.7-11.1-7.2-2.5-.8-9.1-.3-12.8-1-6.9-1.3-10.9-3.9-16.5-7.7-11.2-7.5-22.1-14.1-25-28.6-2.2-10.9,1-20,7.7-28.6,9.4-12,15.8-16.1,30.4-20.6,9.9-3.1,18.2-1.2,27.5-2.6,5.2-.8,9.2-3.1,15.9-3.6,11.7-.8,28.3-.4,40.4-.3,7.9,0,12.6,2.9,19,3.8,5.8.9,14,0,20.2.8,7.9,1.1,24.2,7.6,29.8,13.3,11.6,11.9,20.3,25.2,14.2,42.4ZM733.8,939.5c-1.2,15.3-14.5,28.5-29.8,29.7-3.3.3-8.7-.9-10.9-.5-3.1.5-6.9,4-11.9,4.5-32.6,3.2-59-14.2-53.9-49.3,4.2-29.3,26.5-45.4,55.2-46.4,20.2-.8,41.9,6.8,49.7,27.1,3.4,8.9,2.4,25.2,1.7,35ZM791.9,813.1c-14.5,25.2-55.4,26.4-65-3.5-1.6-5.1-.8-10.7-2-14.4-3.5-10.7-20.7-31.6-27.2-43.4-8.5-15.4-15.6-39.7-27.3-51.8-8.2-8.4-18.2-11.6-23-24.1-13.8-35.2,29.7-65.7,56.4-36.8,5.9,6.4,12.5,12.4,18.3,19,20.1,22.9,26.7,53.3,43.9,78.1,17.8-20.8,34.4-42.9,53.6-62.5,19.5-19.8,45.9-49.7,75.9-30,20.1,13.2,19.4,44.4-1.7,56.4-3.5,2-8.1,2.7-11,4.7-5.9,4.1-18.7,18.3-24.2,24.2-14,14.9-26,31.5-38.9,47.4-6.7,8.2-17.9,18.7-23.2,27.2-1.8,2.8-2.7,6.3-4.4,9.3ZM904.6,1062.4c-.8,9.7-4.8,12.1-8.7,19.5-4.3,8.2-4.3,13-13,19.1-11.9,8.2-36.2,9.1-49.4,3.7-5.6-2.3-21.8-14.7-25.8-19.3-10.1-11.9-10.1-28.8-1.9-41.7,5.3-8.3,24.7-20.7,34.4-21.8,7-.8,10.2,1.2,16.2,1.8,2.4.2,6-.8,9.1-.7,22.1,1.2,40.8,16.1,39,39.6ZM926.3,903.6c-6.3,2.5-17.4,5.4-24.1,6-41.6,3.6-57.6-40.6-30.8-69.7,17.7-19.2,42.7-18.6,63.5-4.9,29,19.2,22.6,56-8.7,68.5ZM1103.7,877c-15.8,1.1-28.6,1.2-43.7-4.7-10.6-4.2-18.9-14.2-23-24.7-12.1-30.1,7.2-58.5,38.8-61.3,23.7-2.1,52.4,9.5,56.2,35.6.8,5.2,2.2,11.5,2.7,16.2,2.2,20.1-10.5,37.4-31,38.8Z"/>
  <path d="M1158.7,657.9c-5.2-5.1-10.3-10.3-15.1-15.7-8-9-18.8-20.9-25.8-30.4-2.4-3.2-3.1-7-5.1-10.6-15.4-27.2-57.7-19.4-64.4,11-4.8,21.7,10,31.4,22.1,45.7,22,25.8,44.1,51.2,68,75.2,12.5,12.7,28.2,19,44.2,10.8,10.9-44.4,16.9-90.8,17.4-138.4-14.2,17.1-27.3,35.1-41.3,52.4Z"/>
  <path d="M473.7,809.6c1.6-5.1.8-10.7,2-14.4,3.5-10.7,20.7-31.6,27.2-43.4,8.5-15.4,15.6-39.7,27.3-51.8,4.7-4.9,11.3-8.2,16.1-13.4,27-29.5-8.4-75-42.4-53.5-5.6,3.5-6.9,7.3-10.9,11.3-7.2,7.3-13.8,12.4-20.2,21-12.8,17.4-18.4,36.7-28.6,55.1-3,5.4-6.7,10.2-9.5,15.7-17.8-20.8-34.4-42.9-53.6-62.5-19.2-19.6-45.2-49.1-75.1-30.5-22.3,13.9-20,47.4,3.9,58.4,2.6,1.2,5.5,1.5,8,3.1,5.8,4.1,18.7,18.3,24.2,24.2,14,14.9,26,31.5,38.9,47.4,6.7,8.2,17.9,18.7,23.2,27.2,3.5,5.7,4.6,11.3,9.8,16.7,17.5,18.3,51.4,14.9,59.6-10.9Z"/>
  <path d="M858.4,729.2c5.5-5.9,18.4-20.1,24.2-24.2,2.9-2,7.5-2.7,11-4.7,21.1-12,21.9-43.2,1.7-56.4-30-19.6-56.4,10.2-75.9,30-19.2,19.6-35.8,41.6-53.6,62.5-17.1-24.8-23.8-55.2-43.9-78.1-5.8-6.6-12.4-12.6-18.3-19-26.7-29-70.2,1.6-56.4,36.8,4.9,12.4,14.9,15.6,23,24.1,11.8,12.1,18.9,36.4,27.3,51.8,6.5,11.8,23.7,32.7,27.2,43.4,1.2,3.6.4,9.3,2,14.4,9.5,29.8,50.5,28.6,65,3.5,1.7-3,2.7-6.5,4.4-9.3,5.3-8.5,16.5-19,23.2-27.2,12.9-15.9,25-32.5,38.9-47.4Z"/>
  <path d="M61.9,733.5c24-24.1,46.2-49.7,68.3-75.6,13-15.2,28.6-25.5,21.3-48.7-8.9-28.2-48.9-33.9-63.6-7.9-2,3.5-2.8,7.3-5.1,10.6-7,9.5-17.8,21.4-25.8,30.4-4.8,5.4-9.9,10.6-15.1,15.7-14.2-17.5-27.5-35.8-41.9-53.2.4,47.8,6.3,94.3,17.3,138.8,16,8.7,31.9,2.6,44.6-10.1Z"/>
  <path d="M658.2,1100c-6.2-.8-14.3.1-20.2-.8-6.4-1-11.1-3.7-19-3.8-12.1-.1-28.7-.6-40.4.3-6.7.5-10.7,2.8-15.9,3.6-9.3,1.4-17.5-.5-27.5,2.6-14.6,4.6-21,8.6-30.4,20.6-6.7,8.6-9.9,17.6-7.7,28.6,2.9,14.5,13.8,21.1,25,28.6,5.6,3.8,9.6,6.4,16.5,7.7,3.7.7,10.2.2,12.8,1,1.5.4,7.5,5.8,11.1,7.2,15,5.8,23.9.1,37.5,0,13.6-.2,22.6,6,38,0,3.7-1.4,9.7-6.7,11.1-7.2,2.5-.8,9.1-.3,12.8-1,6.9-1.3,10.9-3.9,16.5-7.7,9.5-6.4,19.7-12.5,23.8-24,6-17.2-2.6-30.5-14.2-42.4-5.6-5.7-21.9-12.3-29.8-13.3Z"/>
  <path d="M507.6,968.6c3.4.6,7,4,12.6,4.5,32.4,2.8,58.3-14.3,53.3-49.3-4.3-30.1-29.2-47.5-58.9-46.7-19.4.5-39.1,8.5-46.2,27.8-3.2,8.6-2.6,35,.7,43.5,4.4,11.4,16.1,20,28.3,20.8,3,.2,8.3-.9,10.3-.6Z"/>
  <path d="M682.4,877.4c-28.7,1.1-51,17.1-55.2,46.4-5.1,35.1,21.3,52.5,53.9,49.3,5-.5,8.8-3.9,11.9-4.5,2.2-.4,7.7.8,10.9.5,15.3-1.2,28.6-14.5,29.8-29.7.8-9.8,1.8-26.1-1.7-35-7.8-20.3-29.5-27.9-49.7-27.1Z"/>
  <path d="M114.8,786.3c-22.1,1.9-42.6,12.5-46.2,36.2-.8,4.9-2.2,11.8-2.7,16.3-1.9,19.8,10.8,36.8,31.1,38.2,16.1,1.1,29.3,1.2,44.6-5.1,14.7-6,25.1-24.8,25.8-40.3,1.3-29.4-24.8-47.7-52.5-45.3Z"/>
  <path d="M1132,821.9c-3.8-26.1-32.5-37.7-56.2-35.6-31.5,2.7-50.8,31.1-38.8,61.3,4.2,10.5,12.4,20.5,23,24.7,15.1,6,27.9,5.8,43.7,4.7,20.5-1.5,33.2-18.8,31-38.8-.5-4.7-2-11-2.7-16.2Z"/>
  <path d="M208.2,978.6c-18-19.4-58.8-25.6-76.7-3.7,20.1,25.1,42.3,48.6,66.1,70.2,21.3-15.2,33.2-42.1,10.6-66.5Z"/>
  <path d="M992.4,978.6c-22.5,24.2-10.9,51,10.2,66.2,23.9-21.6,46-45.2,66.2-70.4-18.1-21.4-58.5-15.1-76.4,4.1Z"/>
  <path d="M385.3,1034c-10-7.2-20.1-13.7-33.1-12.4-6.5.7-9.4.9-15.9,1.1-22.8.7-42.4,15.9-40.2,40.2.8,9.2,5,11.9,8.6,18.8,2.8,5.4,3.3,9.9,8,14.9,13.3,14.2,46,14.6,61.4,3.8,6.7-4.7,17.9-12.9,22.1-19.8,9.5-15.9,3.6-36.2-10.9-46.6Z"/>
  <path d="M865.6,1022.8c-3.1-.2-6.7.9-9.1.7-6-.6-9.2-2.6-16.2-1.8-9.7,1.2-29.1,13.5-34.4,21.8-8.2,13-8.3,29.9,1.9,41.7,4,4.6,20.2,17,25.8,19.3,13.1,5.4,37.5,4.6,49.4-3.7,8.7-6,8.7-10.9,13-19.1,3.9-7.3,7.9-9.8,8.7-19.5,1.9-23.5-16.9-38.4-39-39.6Z"/>
  <path d="M328.5,839.4c-36-37-102.2,6.2-75.1,48,8.7,13.5,29.7,20.9,45.1,22.3,42,3.7,57.9-41.6,30-70.3Z"/>
  <path d="M935,835.1c-20.8-13.7-45.8-14.3-63.5,4.9-26.8,29.1-10.8,73.3,30.8,69.7,6.6-.6,17.8-3.5,24.1-6,31.2-12.5,37.7-49.3,8.7-68.5Z"/>
</svg>