<?xml version="1.0" encoding="UTF-8"?>
<svg id="Layer_1" xmlns="http://www.w3.org/2000/svg" version="1.1" viewBox="0 0 1200 1200">
  <!-- Generator: Adobe Illustrator 29.0.0, SVG Export Plug-In . SVG Version: 2.1.0 Build 186)  -->
  <defs>
    <style>
      .st0 {
        fill: none;
      }
    </style>
  </defs>
  <path d="M621.9,1199.6c8.3.5,19.9.6,28.1,0,5.1-.4,9-1.3,12.4-2.8-13.4,1.4-26.9,2.3-40.5,2.8,0,0,0,0,0,0Z"/>
  <path d="M550.6,1199.6c7.9.5,18.9.4,26.9,0,.2,0,.4,0,.6,0-13.6-.5-27.1-1.4-40.4-2.8,3.5,1.5,7.5,2.5,13,2.8Z"/>
  <path class="st0" d="M163.3,863.5c-12.2,21.7-44.7,32.7-67.9,24-29.2-10.9-51.9-55.8-23-78.9,9.8-7.9,16.2-7.1,27.3-9.3,2.5-.5,6.7-3.3,10.1-4.2,15.8-4.3,33.3-2.7,45.7,8.6,15.3,14,17.7,42.2,7.8,59.9ZM235.9,895.6c-19.7-33.7,2.7-64.8,38.8-68.5,15.5-1.6,29.3,5.4,41.3,14.6,22.6,17.3,23.3,52-.4,68.8-27.1,19.3-62.6,14.5-79.7-14.9ZM399.1,1100.5c-18.3,36.7-72.6,20.2-98,.7-24.9-19.1-24.2-53.8,6-66.4,3.6-1.5,8.4-2.1,11.5-3.5,2.8-1.3,7.6-6.3,11.2-8.4,4.8-2.9,11.9-6.1,17.5-6.7,46.8-5.6,71.1,45.5,51.7,84.4ZM530.9,970.4c-26.7,26.7-62.8,9.5-75.2-21.9-9-22.8.5-48,24.9-54.9,48.1-13.5,86.4,40.7,50.3,76.8ZM550.4,692.7c-4.3,11.2-8.3,22.9-14,33.8-6.9,13.2-21.6,29.4-34.6,36.7-8.1,4.6-21.8,9.6-28.8,14.4-20.8,14.6-34.6,49.7-67.3,41.7-14.4-3.6-16.3-9.9-24.7-19.8-11.1-13.2-26.3-24.9-38.3-37.6-12.1-12.7-28-29.1-37.5-43.6-3.2-4.8-5.6-10.5-9-15.2-7.2-10-18.9-19-21.3-31.7-5.8-29.9,28.1-51.8,52.8-33.1,4.4,3.3,6.9,7.5,10.5,11.1,19.4,19.2,42.4,32.7,61.5,52.9,4.7,5,8.7,10.7,13.7,15.4,6-11.9,14.8-23.2,26.4-30.2,5.9-3.5,14.2-6.1,19.6-9.8,3.8-2.6,7.5-6.9,11.7-9.8,8.6-6,20.2-13.2,29.5-18.3,29.4-16.1,62,10.8,49.6,43.1ZM739.9,957.2c-15.1,26.2-46.6,36.2-70.3,13.9-17.8-16.8-19.6-43.5-3.6-62.2,34.7-40.3,105.3-6.4,73.8,48.3ZM726.9,777.6c-6.9-4.8-20.7-9.8-28.8-14.4-13-7.3-27.7-23.5-34.6-36.7-5.7-10.9-9.6-22.5-14-33.8-12.4-32.3,20.2-59.2,49.6-43.1,9.2,5.1,20.8,12.3,29.5,18.3,4.2,2.9,8,7.3,11.7,9.8,5.4,3.7,13.7,6.3,19.6,9.8,11.6,6.9,20.4,18.3,26.4,30.2,5-4.7,9-10.4,13.7-15.4,19.2-20.3,42.2-33.7,61.5-52.9,3.6-3.6,6.2-7.8,10.5-11.1,24.6-18.6,58.5,3.2,52.8,33.1-2.5,12.7-14.1,21.7-21.3,31.7-3.4,4.7-5.8,10.4-9,15.2-9.5,14.4-25.5,30.8-37.5,43.6-12,12.7-27.2,24.4-38.3,37.6-8.3,9.9-10.2,16.2-24.7,19.8-32.7,8.1-46.5-27.1-67.3-41.7ZM909.7,1090.4c-11.8,16.7-44.9,30.3-64.8,32-67.1,5.7-65.7-99.2-6.3-106.3,11.8-1.4,21.4.8,31.5,6.7,3.6,2.1,8.4,7.1,11.2,8.4,2.9,1.4,7.6,2,11,3.3,22.8,9.3,31.9,35.2,17.3,55.8ZM914.4,921.7c-33.4-3.6-60.2-32.9-42.1-66.2,7.1-13.1,28.1-26.9,42.9-28.4,10.1-1,22.2,1.9,31.3,6.2,49.5,23.6,17.7,93.8-32.2,88.4ZM1138.3,851.9c-14,40.2-62.3,51.4-93.1,22.4-13.6-12.8-16.6-30.1-12.9-48,6.3-30.3,35-39.3,62.3-29.9,6.6,2.3,9,2.4,15.7,3.9,24.5,5.4,36.1,28,28,51.5Z"/>
  <path class="st0" d="M578,1199.6c7.3.3,14.6.4,22,.4s14.6-.1,21.9-.4c-6.9-.4-15.4-3.2-21.5-3.3-6.1-.1-15.2,2.8-22.3,3.3Z"/>
  <path d="M1196,636.3c-10.9,10.1-22.6,19.3-32.5,30.3-.9.2-7.7-8.5-9.4-10.1-4.3-3.9-11.5-7.4-15.1-11.1-2.9-3-5-8.6-7.4-12.2-4.3-6.4-8.3-11.5-12.6-18.2-24.2-37.8-79-8.5-57.3,37,4.2,8.9,9.4,10.9,14.1,17.3,7.3,9.8,10,17.7,20,26.4,3.4,3,10.6,7,13,9.9,3.1,3.9,7.1,14,10.3,19.1,11.7,18.9,23.2,28.5,46.7,22,7-2,12.8-4.6,17.9-7.7,8.1-34.2,13.3-69.5,15.3-105.6-1,.9-2,1.9-3.1,2.8Z"/>
  <path d="M818.8,799.4c11.1-13.2,26.3-24.9,38.3-37.6,12.1-12.7,28-29.1,37.5-43.6,3.2-4.8,5.6-10.5,9-15.2,7.2-10,18.9-19,21.3-31.7,5.8-29.9-28.1-51.8-52.8-33.1-4.4,3.3-6.9,7.5-10.5,11.1-19.4,19.2-42.4,32.7-61.5,52.9-4.7,5-8.7,10.7-13.7,15.4-6-11.9-14.8-23.2-26.4-30.2-5.9-3.5-14.2-6.1-19.6-9.8-3.8-2.6-7.5-6.9-11.7-9.8-8.6-6-20.2-13.2-29.5-18.3-29.4-16.1-62,10.8-49.6,43.1,4.3,11.2,8.3,22.9,14,33.8,6.9,13.2,21.6,29.4,34.6,36.7,8.1,4.6,21.8,9.6,28.8,14.4,20.8,14.6,34.6,49.7,67.3,41.7,14.4-3.6,16.3-9.9,24.7-19.8Z"/>
  <path d="M500.8,649.6c-9.2,5.1-20.8,12.3-29.5,18.3-4.2,2.9-8,7.3-11.7,9.8-5.4,3.7-13.7,6.3-19.6,9.8-11.6,6.9-20.4,18.3-26.4,30.2-5-4.7-9-10.4-13.7-15.4-19.2-20.3-42.2-33.7-61.5-52.9-3.6-3.6-6.2-7.8-10.5-11.1-24.6-18.6-58.5,3.2-52.8,33.1,2.5,12.7,14.1,21.7,21.3,31.7,3.4,4.7,5.8,10.4,9,15.2,9.5,14.4,25.5,30.8,37.5,43.6,12,12.7,27.2,24.4,38.3,37.6,8.3,9.9,10.2,16.2,24.7,19.8,32.7,8.1,46.5-27.1,67.3-41.7,6.9-4.8,20.7-9.8,28.8-14.4,13-7.3,27.7-23.5,34.6-36.7,5.7-10.9,9.6-22.5,14-33.8,12.4-32.3-20.2-59.2-49.6-43.1Z"/>
  <path d="M80.8,724.9c3.2-5.1,7.2-15.3,10.3-19.1,2.4-2.9,9.6-6.9,13-9.9,10-8.8,12.7-16.7,20-26.4,4.7-6.4,9.9-8.4,14.1-17.3,21.6-45.5-33.1-74.8-57.3-37-4.3,6.7-8.2,11.8-12.6,18.2-2.4,3.6-4.6,9.2-7.4,12.2-3.5,3.8-10.8,7.2-15.1,11.1-1.7,1.6-8.5,10.3-9.4,10.1-9.9-11.1-21.6-20.3-32.5-30.3-1-.9-2-1.9-3.1-2.8,2,36.2,7.2,71.5,15.3,105.6,5.1,3.1,10.9,5.7,17.9,7.7,23.5,6.6,35.1-3.1,46.7-22Z"/>
  <path d="M690.6,1178.7c18.1-5.7,29.3-22.1,24.9-41.2-4.7-20.7-24.9-24.9-42.8-28.5-22-4.3-46.9,1.1-69.1,2.3-7.6.4-14.8-1.4-22.2-2-27.1-1.9-48.7-3.7-75,4.8-29.2,9.4-30.3,48.9-2.5,62.3,6,2.9,9.5,1.8,14.6,6,7.8,6.2,12.2,11.3,19.2,14.4,13.3,1.4,26.8,2.3,40.4,2.8,7.1-.5,16.2-3.4,22.3-3.3,6.2.1,14.6,2.9,21.5,3.3,13.6-.5,27.1-1.4,40.5-2.8,7.1-3.1,11.5-8.4,19.1-14.4,4.8-3.8,3.7-2.1,9-3.7Z"/>
  <path d="M156.3,944.8c-10,.9-20.6,5.8-28,12.5-2.5,2.3-4.3,4-6.1,5.6,22.2,29.2,47.1,56.4,74.2,81.1,1.3-1.8,2.5-3.7,3.7-5.7,19-32.7,1.7-97.6-43.8-93.5Z"/>
  <path d="M1036.9,944.8c-42.6,3.4-56.7,66.6-33.5,99.4,27.2-24.7,52.2-52,74.5-81.3-1.8-1.6-3.6-3.3-6.1-5.6-9.1-8.3-22.4-13.5-34.8-12.5Z"/>
  <path d="M347.3,1016.1c-5.6.7-12.6,3.9-17.5,6.7-3.6,2.1-8.4,7.1-11.2,8.4-3.1,1.4-7.9,2-11.5,3.5-30.3,12.6-30.9,47.3-6,66.4,25.4,19.5,79.7,36.1,98-.7,19.4-38.9-5-90-51.7-84.4Z"/>
  <path d="M892.4,1034.5c-3.4-1.4-8.1-2-11-3.3-2.8-1.3-7.7-6.3-11.2-8.4-10.1-6-19.7-8.2-31.5-6.7-59.4,7.1-60.9,112,6.3,106.3,19.9-1.7,53-15.3,64.8-32,14.6-20.7,5.5-46.6-17.3-55.8Z"/>
  <path d="M155.5,803.7c-12.4-11.3-29.9-12.9-45.7-8.6-3.4.9-7.7,3.8-10.1,4.2-11.1,2.2-17.5,1.5-27.3,9.3-28.9,23.2-6.2,68,23,78.9,23.1,8.7,55.7-2.3,67.9-24,9.9-17.7,7.5-45.9-7.8-59.9Z"/>
  <path d="M1110.3,800.4c-6.7-1.5-9.1-1.6-15.7-3.9-27.3-9.4-56-.4-62.3,29.9-3.7,17.9-.7,35.2,12.9,48,30.8,29,79.1,17.8,93.1-22.4,8.2-23.5-3.5-46.1-28-51.5Z"/>
  <path d="M316,841.7c-12-9.2-25.8-16.2-41.3-14.6-36.1,3.7-58.5,34.8-38.8,68.5,17.2,29.4,52.6,34.2,79.7,14.9,23.6-16.8,23-51.5.4-68.8Z"/>
  <path d="M946.5,833.3c-9.1-4.3-21.3-7.3-31.3-6.2-14.8,1.5-35.8,15.3-42.9,28.4-18.1,33.3,8.7,62.6,42.1,66.2,49.9,5.4,81.7-64.8,32.2-88.4Z"/>
  <path d="M480.6,893.6c-24.4,6.9-33.9,32.1-24.9,54.9,12.4,31.4,48.5,48.5,75.2,21.9,36.1-36.1-2.2-90.3-50.3-76.8Z"/>
  <path d="M666.1,909c-16.1,18.7-14.3,45.4,3.6,62.2,23.6,22.3,55.1,12.3,70.3-13.9,31.5-54.7-39.1-88.6-73.8-48.3Z"/>
</svg>