<?xml version="1.0" encoding="UTF-8"?>
<svg id="Layer_1" xmlns="http://www.w3.org/2000/svg" version="1.1" viewBox="0 0 1200 1200">
  <!-- Generator: Adobe Illustrator 29.0.0, SVG Export Plug-In . SVG Version: 2.1.0 Build 186)  -->
  <defs>
    <style>
      .st0 {
        fill: none;
      }
    </style>
  </defs>
  <path d="M671.8,1195.7c-4.7.6-9.3,1.1-14,1.5,5.9-.4,9.8-.4,14-1.5Z"/>
  <path d="M534.9,1197.3c20.8,1.9,41.7,2.8,62.6,2.7-23.7,0-47.1-1.6-70-4.3,2.5.8,5.1,1.5,7.4,1.7Z"/>
  <path class="st0" d="M597.5,1200c.8,0,1.7,0,2.5,0,19.5,0,38.8-.9,57.8-2.8-.4,0-.8,0-1.3,0-19.6,1.6-39.3,2.6-59,2.6Z"/>
  <path class="st0" d="M132.8,887c-19.8,6.2-36-4.3-45.6-21-6.4-11.1-9.8-19.4-8.6-32.6.5-5.4,7.7-20.9,10.8-25.8,5.1-8,14.2-13.9,23.7-14.9,48.2-5.2,66.3,79.7,19.7,94.3ZM271.7,918.3c-46.9-11.4-51-88-4.9-91.5,12.1-.9,31.8,5.5,40.7,13.9,31.5,29.5,10.3,88.9-35.8,77.7ZM390.9,1105.7c-9.6,14.3-25.6,17.7-41.8,17.1-77.9-2.8-78.6-86.9-1.7-92.7,19.3-1.5,28.8,8.2,39,22.7,11.4,16.3,16.5,35.1,4.6,52.8ZM438,817.4c-36.2,31.3-68.4-23.5-90.9-45.1-6.5-6.2-14.1-11.5-20.4-17.9-8.3-8.5-12.7-18.1-19.6-27.2-4.7-6.2-10.4-11.2-14.7-18-9.5-15.1-18.1-30.4-7.9-47.9,3-5.1,6.2-9.9,9.2-15,11.5-19.8,38.5-22,53.7-5.1,7.3,8.1,7.5,16.6,13.8,24.8,6.5,8.5,15.9,17.1,23.2,25.2,8.8,9.7,16.9,20.1,26.9,28.7.6.1,8.3-7,9-7.8,2.4-2.9,5.1-8.9,7.7-12.6,11.7-16.3,23.9-32.1,34.9-48.8,12.3-18.6,39.7-19.3,53.6-2,9.4,11.7,9.6,33.8,3.1,46.9-5.9,11.8-13.6,21.9-20.3,32.7-12,19.5-22,41.1-37.7,58.4-2.9,3.2-7.6,6.1-9.8,9.2-5.1,7-6.4,15.1-13.8,21.5ZM474.9,974.1c-9.6-16.9-28.1-53.8-26.7-72.7,1.7-24.2,27.7-35.7,48.9-25.9,10.8,5,22.8,10.2,31.4,18.7,13.7,13.4,21.1,36.2,23.1,55,4.8,45.6-52.1,68-76.6,24.9ZM749.3,919.3c-4.1,15.1-21.9,56-32.5,66.6-25.6,25.5-69,4.6-69.1-30.2,0-10.4,6.3-34.5,11-43.9,10.2-20.1,24.8-27.3,44.2-36.3,14.7-6.8,31.2-4.5,41.6,8.3,9,11.2,8.4,22.3,4.8,35.5ZM755.1,809.1c-2.6-4-4.5-9.7-7-13.2-2.2-3.1-6.9-6-9.8-9.2-15.7-17.3-25.7-38.9-37.7-58.4-6.7-10.8-14.4-20.9-20.3-32.7-6.6-13.1-6.3-35.2,3.1-46.9,13.9-17.3,41.2-16.6,53.6,2,11.1,16.7,23.2,32.5,34.9,48.8,2.6,3.6,5.3,9.7,7.7,12.6.7.8,8.4,7.9,9,7.8,10-8.6,18.1-19,26.9-28.7,7.3-8,16.7-16.7,23.2-25.2,6.3-8.2,6.5-16.7,13.8-24.8,15.2-16.9,42.2-14.7,53.7,5.1,3,5.1,6.2,10,9.2,15,10.1,17.4,1.6,32.8-7.9,47.9-4.3,6.8-10,11.8-14.7,18-6.9,9.1-11.3,18.7-19.6,27.2-6.3,6.4-13.9,11.7-20.4,17.9-16.2,15.5-41.5,53-64.7,54.3-13.4.7-25.8-6.4-32.9-17.5ZM872.7,1119.8c-20.9,5.8-50.8,5.6-64-14.5-14.7-22.4-2.1-46.3,13.6-63.9,6.1-6.8,15-10.7,24.1-11.3,9.6-.6,22.9,2.8,32,6.2,45.1,16.8,39.5,70.9-5.7,83.5ZM957.3,897c-27,41-86.7,22.1-79.2-28.2,4-26.7,24-39.4,49.5-42.1,37-3.9,46.9,44.3,29.7,70.3ZM1119.1,853.4c-9.3,23.5-29,44.1-56.2,32-38.9-17.3-24.4-87.8,15.1-92.6,15.6-1.9,27.9,5.6,34.7,19.2,7,13.8,12.5,25.6,6.3,41.4Z"/>
  <path d="M1151.8,669c-1.3-1.3-2.7-2.5-3.9-3.9-16.8-18.3-30.6-43.6-47.1-61.5-26.3-28.5-70.2-3.6-58.6,33.7,2.1,6.7,5.7,10.3,10.5,15,27.1,27.2,43.6,62.4,76.3,85.2,25.3,17.6,41.9,10.7,56-3.8,8.9-38.9,13.9-79.3,14.8-120.7-17.1,17.6-33.8,35.7-48.1,55.9Z"/>
  <path d="M852.8,772.3c6.5-6.2,14.1-11.5,20.4-17.9,8.3-8.5,12.7-18.1,19.6-27.2,4.7-6.2,10.4-11.2,14.7-18,9.5-15.1,18.1-30.4,7.9-47.9-3-5.1-6.2-9.9-9.2-15-11.5-19.8-38.5-22-53.7-5.1-7.3,8.1-7.5,16.6-13.8,24.8-6.5,8.5-15.9,17.1-23.2,25.2-8.8,9.7-16.9,20.1-26.9,28.7-.6.1-8.3-7-9-7.8-2.4-2.9-5.1-8.9-7.7-12.6-11.7-16.3-23.9-32.1-34.9-48.8-12.3-18.6-39.7-19.3-53.6-2-9.4,11.7-9.6,33.8-3.1,46.9,5.9,11.8,13.6,21.9,20.3,32.7,12,19.5,22,41.1,37.7,58.4,2.9,3.2,7.6,6.1,9.8,9.2,2.6,3.6,4.5,9.2,7,13.2,7.1,11.1,19.5,18.2,32.9,17.5,23.2-1.3,48.6-38.8,64.7-54.3Z"/>
  <path d="M461.6,786.7c15.7-17.3,25.7-38.9,37.7-58.4,6.7-10.8,14.4-20.9,20.3-32.7,6.6-13.1,6.3-35.2-3.1-46.9-13.9-17.3-41.2-16.6-53.6,2-11.1,16.7-23.2,32.5-34.9,48.8-2.6,3.6-5.3,9.7-7.7,12.6-.7.8-8.4,7.9-9,7.8-10-8.6-18.1-19-26.9-28.7-7.3-8-16.7-16.7-23.2-25.2-6.3-8.2-6.5-16.7-13.8-24.8-15.2-16.9-42.2-14.7-53.7,5.1-3,5.1-6.2,10-9.2,15-10.1,17.4-1.6,32.8,7.9,47.9,4.3,6.8,10,11.8,14.7,18,6.9,9.1,11.3,18.7,19.6,27.2,6.3,6.4,13.9,11.7,20.4,17.9,22.5,21.6,54.7,76.4,90.9,45.1,7.4-6.4,8.7-14.5,13.8-21.5,2.2-3.1,6.9-6,9.8-9.2Z"/>
  <path d="M83.4,727.8c25.1-22.1,40.8-52.4,63.8-75.5,4.7-4.8,8.4-8.3,10.5-15,11.6-37.3-32.3-62.2-58.6-33.7-16.5,17.9-30.3,43.2-47.1,61.5-1.2,1.4-2.7,2.6-3.9,3.9-11.5-15.7-24.1-30.5-37.3-44.7-3.5-3.7-7-7.4-10.6-11,.9,41.3,6,81.6,14.8,120.5,16.8,17.3,35.8,22.8,68.4-5.9Z"/>
  <path d="M693.5,1185.2c27.3-12.2,26-49.5,0-62.1-2.9-1.4-7.4-2.1-9.8-3.3-1.6-.9-4.4-3.9-6.5-5.3-18.4-11.6-52.4-5.8-73.7-5.4-19.2.3-38.5-2.5-58.1-1.1-8.1.6-16.4,2.4-23.2,6.9-2,1.3-4.6,4.2-6.1,5-2.4,1.3-6.8,1.9-9.8,3.3-24.2,11.7-27.7,46.6-3.5,60.3,3.5,2,7.1,2.3,10,3.8,1.5.8,3.6,3.2,5.5,4.3,2.6,1.5,5.8,3,9.1,4.1,23,2.8,46.3,4.2,70,4.3,19.7,0,39.4-1,59-2.6.4,0,.9,0,1.3,0,4.7-.4,9.4-1,14-1.5,3-.8,6.1-2,10.1-4.4,5-2.9,6-3.7,11.6-6.1Z"/>
  <path d="M217.2,998.2c-.5-5.6-3.1-17.8-4.6-23.5-5.3-19.9-22.1-34.5-43.3-33.5-11.3.5-24.2,5.6-32.9,12.9-3.4,2.8-5.9,6.9-8.8,9.5-1,.9-2,1.7-3.1,2.4,21.6,28,45.6,54.1,71.8,77.9,13.7-11,22.6-26.6,20.9-45.7Z"/>
  <path d="M1064.1,954.7c-9.8-8.5-25.4-14.4-38.4-13.5-19.3,1.3-33.9,15.9-38.6,34-3.1,12-6.2,28.5-3.1,40.6,2.9,11.2,10,20.8,19.5,28.2,26.2-23.8,50.2-49.9,71.9-78-1-.7-1.9-1.4-2.8-2.2-2.8-2.4-5.4-6.4-8.5-9.2Z"/>
  <path d="M528.4,894.2c-8.6-8.4-20.6-13.7-31.4-18.7-21.2-9.8-47.1,1.7-48.9,25.9-1.4,18.9,17.1,55.9,26.7,72.7,24.5,43,81.5,20.7,76.6-24.9-2-18.8-9.5-41.6-23.1-55Z"/>
  <path d="M702.9,875.5c-19.4,9-34,16.2-44.2,36.3-4.7,9.4-11.1,33.5-11,43.9.1,34.8,43.5,55.7,69.1,30.2,10.6-10.6,28.3-51.5,32.5-66.6,3.6-13.1,4.3-24.3-4.8-35.5-10.4-12.8-27-15.1-41.6-8.3Z"/>
  <path d="M347.3,1030.1c-76.9,5.8-76.1,89.9,1.7,92.7,16.3.6,32.2-2.8,41.8-17.1,11.9-17.7,6.8-36.6-4.6-52.8-10.2-14.6-19.7-24.2-39-22.7Z"/>
  <path d="M878.5,1036.3c-9.1-3.4-22.4-6.8-32-6.2-9.1.6-18,4.5-24.1,11.3-15.8,17.6-28.3,41.5-13.6,63.9,13.1,20.1,43.1,20.3,64,14.5,45.2-12.6,50.9-66.8,5.7-83.5Z"/>
  <path d="M307.5,840.6c-8.9-8.4-28.6-14.8-40.7-13.9-46.1,3.5-42.1,80.2,4.9,91.5,46.2,11.2,67.3-48.2,35.8-77.7Z"/>
  <path d="M927.6,826.8c-25.5,2.7-45.5,15.4-49.5,42.1-7.5,50.3,52.2,69.2,79.2,28.2,17.1-26,7.3-74.1-29.7-70.3Z"/>
  <path d="M113.1,792.8c-9.5,1-18.6,6.9-23.7,14.9-3.1,4.9-10.4,20.4-10.8,25.8-1.2,13.2,2.2,21.5,8.6,32.6,9.6,16.7,25.8,27.2,45.6,21,46.6-14.5,28.4-99.4-19.7-94.3Z"/>
  <path d="M1078,792.8c-39.6,4.8-54,75.2-15.1,92.6,27.2,12.1,46.9-8.4,56.2-32,6.2-15.8.7-27.6-6.3-41.4-6.9-13.6-19.2-21.1-34.7-19.2Z"/>
</svg>