<?xml version="1.0" encoding="UTF-8"?>
<svg id="Layer_1" xmlns="http://www.w3.org/2000/svg" version="1.1" viewBox="0 0 1200 1200">
  <!-- Generator: Adobe Illustrator 29.0.0, SVG Export Plug-In . SVG Version: 2.1.0 Build 186)  -->
  <defs>
    <style>
      .st0 {
        fill: none;
      }
    </style>
  </defs>
  <path d="M567.6,1200c2.2,0,4.6-.2,7.2-.5-4.7-.2-9.3-.4-14-.7,2.2.6,4.5,1.2,6.8,1.3Z"/>
  <path d="M633.6,1199.9c1.9-.1,3.8-.6,5.7-1.1-4.5.3-9.1.5-13.6.7,2.7.3,5.4.6,8,.4Z"/>
  <path class="st0" d="M587.2,1198c-3.8.2-8.2,1-12.4,1.5,8.4.3,16.8.5,25.2.5s17.1-.2,25.6-.5c-4.1-.5-8.3-1.3-12.2-1.5-8.1-.4-18.1-.4-26.2,0Z"/>
  <path class="st0" d="M152.3,873.8c-35.1,15-72.7-9.4-68.4-48.1,1.7-15.7,17.1-31.7,33-33.1,5.9-.5,11.4-1.1,17.2-1.8,44.2-5,56.8,66.5,18.3,83ZM269,907.3c-3.6-2.4-7.1-5.1-10.7-7.6-12.6-8.6-19.8-19.9-16.5-35.9,1.8-9,13.7-27,21.4-32.3,36-24.9,92.6,20.5,58.6,60.2-1,1.2-3.3,2.6-4.7,4.1-2.3,2.6-3.4,5.5-6.2,8.2-11.1,10.6-29.2,11.6-41.8,3.2ZM389.3,1107.4c-18.4,16.6-55.1,15.3-71.3-4-6.3-7.5-12.7-23.7-13-33.4-.2-5.8,5.6-29.3,8.1-34.9,4.2-9.3,14.9-17.6,25-18.8,16.5-2,31.4,6.5,45.1,14.7,31.8,19.2,33.3,51.7,6.1,76.3ZM397.2,802.8c-10.6-6.3-12.4-14.3-18.2-23.7-17.3-28.4-42.1-57.3-64.6-81.9-7.1-7.8-15.2-17.1-23.6-23.5-3.9-2.9-7.9-4.6-11.6-7.3-22.8-16.6-15.5-52.7,12-59.1,27.9-6.4,57.5,29.4,74.2,47.8,18.1,20,35.8,40.6,51.8,62.4,11.2-8.7,18.6-21,29.1-30.4,4-9.1,12.9-16.2,17.9-23.9,1.3-2,2.2-5.1,3.8-7.3,20.2-30.1,73.7-10,63.5,28.8-4.4,16.7-14.7,17.6-23.4,29-3.8,4.9-6.4,10.8-10.5,15.6-9.1,10.8-22.6,22.2-31.1,33-4,5.1-6.6,12.5-10.6,18.2-14.1,20-33.6,37.3-58.8,22.4ZM546.8,956.2c-12.7,34.7-50.2,27.5-73.5,8.1-4.4-3.7-5.4-4.4-10.3-7.7-12.3-8.1-14.4-20.7-16.7-34.3-3-17.3,7.2-32.7,23.5-38.5,12-4.2,22.2-.3,33.3,3.9,16,6,38.2,13.7,45.7,30.2,6.4,13.9,2.8,24.9-2.1,38.3ZM753.7,922.3c-2.3,13.6-4.4,26.2-16.7,34.3-4.2,2.7-5,2.9-9,6.4-23.1,20.2-61.7,28.9-74.8-6.8-5.8-15.8-9.4-30.6,2.2-45.2,8.9-11.3,39-23.7,53.1-27.3,24.9-6.5,49.8,12.2,45.2,38.6ZM744.1,780.4c-4-5.7-6.6-13.1-10.6-18.2-8.4-10.8-21.9-22.2-31.1-33-4.1-4.9-6.8-10.7-10.5-15.6-8.7-11.3-19-12.2-23.4-29-10.1-38.9,43.3-58.9,63.5-28.8,1.5,2.3,2.5,5.4,3.8,7.3,2.3,3.6,6.3,7,9,10.6,5.4,7.1,8.6,11.7,14.6,18.5,7.6,8.7,14.3,18.1,23.4,25.3,9.4-12.4,18.8-24.8,28.8-36.6,17.5-20.8,53.4-64.2,78.5-72.6,33.8-11.3,59.2,30.4,34.8,54.7-4.5,4.5-10.7,6.9-15.8,10.7-15.2,11.5-33.9,34.7-46.5,49.7-14.6,17.4-29.8,36.4-41.7,55.8-7,11.5-8.6,19.8-22.5,25.9-24.3,10.5-41.3-6-54.4-24.5ZM887.7,1094.8c-14.5,29-59.4,32-80.6,9-18.4-20.1-22.7-45.3-1-65.1,6.9-6.3,33.5-21.2,42.4-22.4,19.1-2.6,34.9,6,40.4,24.7,2,6.8,6.3,22.5,6.1,29-.2,7.2-4,18.3-7.3,24.8ZM949.1,894.4c-3.8,3.7-8.1,4.8-11.9,7.4-2,1.4-4.3,4.3-6.7,5.8-13.3,8.6-32.4,6.8-43.1-5.1-3.4-3.8-8.7-9.9-11.7-13.8-32.1-41.9,36.3-86.8,67.7-51.3,2.7,3.1,10.3,14.8,12.1,18.6,6,12.6,3.6,28.5-6.5,38.4ZM1058.6,877.3c-49.4-10.2-40.4-82.3-1.4-86.5,7.2-.8,10.1,1.1,16.2,1.7,7.7.8,11.6-.6,19.5,2.8,45,19.2,20.8,93.4-34.3,82Z"/>
  <path d="M58.9,747.1c10.6-7.4,11.6-15.9,16.9-26.2,7.7-15,28.3-38.7,40.3-51.2,5.8-6,12.4-8.4,17.2-15.5,16.2-23.9-1.9-53.7-30.3-51.9-18.7,1.2-31.1,17.2-42.5,30.1-8.1,9.1-15.7,18.7-23.5,28.1-11.1-14.2-23.4-27.8-36.7-40.2,1.5,44,7.7,86.8,18.1,127.9,11.7,8,26.5,8.6,40.5-1.1Z"/>
  <path d="M821,779.1c11.8-19.4,27-38.4,41.7-55.8,12.6-15,31.3-38.2,46.5-49.7,5.1-3.9,11.3-6.2,15.8-10.7,24.4-24.3-1-66.1-34.8-54.7-25.1,8.4-61,51.8-78.5,72.6-10,11.9-19.4,24.3-28.8,36.6-9.2-7.2-15.8-16.6-23.4-25.3-6-6.8-9.2-11.3-14.6-18.5-2.7-3.6-6.7-7-9-10.6-1.3-2-2.2-5.1-3.8-7.3-20.2-30.1-73.7-10-63.5,28.8,4.4,16.7,14.7,17.6,23.4,29,3.8,4.9,6.4,10.8,10.5,15.6,9.1,10.8,22.6,22.2,31.1,33,4,5.1,6.6,12.5,10.6,18.2,13.1,18.6,30.1,35,54.4,24.5,13.9-6,15.6-14.4,22.5-25.9Z"/>
  <path d="M466.6,762.2c8.4-10.8,21.9-22.2,31.1-33,4.1-4.9,6.8-10.7,10.5-15.6,8.7-11.3,19-12.2,23.4-29,10.1-38.9-43.3-58.9-63.5-28.8-1.5,2.3-2.5,5.4-3.8,7.3-5,7.7-13.9,14.8-17.9,23.9-10.5,9.4-17.9,21.7-29.1,30.4-16-21.8-33.6-42.4-51.8-62.4-16.7-18.4-46.3-54.2-74.2-47.8-27.5,6.4-34.8,42.5-12,59.1,3.8,2.7,7.8,4.4,11.6,7.3,8.4,6.4,16.5,15.7,23.6,23.5,22.4,24.7,47.2,53.5,64.6,81.9,5.7,9.4,7.6,17.4,18.2,23.7,25.2,14.9,44.7-2.4,58.8-22.4,4-5.7,6.6-13.1,10.6-18.2Z"/>
  <path d="M1163,660.5c-7.8-9.4-15.4-19-23.5-28.1-11.4-12.9-23.8-28.9-42.5-30.1-28.5-1.8-46.5,28-30.3,51.9,4.8,7,11.4,9.5,17.2,15.5,12,12.5,32.7,36.2,40.3,51.2,1.9,3.7,2.9,8,4.8,11.6,8.4,16.6,27,26.3,45.2,19.6,2.8-1,5.2-2.3,7.4-3.8,10.5-41.1,16.7-84,18.1-128-13.3,12.4-25.5,26-36.7,40.2Z"/>
  <path d="M674.6,1190.5c10.7-6.4,22-15.6,24.7-28.3,2.4-11.9-3.4-30.6-12.6-38.7-21.1-18.6-37.4-11.7-62.8-11.1-21.3.5-42.9,0-64.2-.7-6.2-.2-13.9-1.6-20.1-1.1-23.5,1.7-43.7,28.5-38.9,51.6,2.6,12.8,13,20.8,23.4,27.6,9.7,6.3,18.8,5.3,29.5,7.1,2.4.4,4.7,1.2,7.1,1.9,4.6.3,9.3.5,14,.7,4.2-.5,8.6-1.3,12.4-1.5,8.1-.4,18.1-.4,26.2,0,3.9.2,8.1,1,12.2,1.5,4.6-.2,9.1-.4,13.6-.7,2.3-.7,4.7-1.5,7-1.9,10.2-1.7,18.9-.8,28.3-6.4Z"/>
  <path d="M383.2,1031.1c-13.7-8.3-28.6-16.7-45.1-14.7-10.2,1.2-20.9,9.5-25,18.8-2.5,5.6-8.3,29-8.1,34.9.3,9.7,6.7,25.9,13,33.4,16.2,19.2,52.9,20.6,71.3,4,27.2-24.6,25.7-57.1-6.1-76.3Z"/>
  <path d="M848.4,1016.4c-8.9,1.2-35.5,16.1-42.4,22.4-21.7,19.8-17.5,45,1,65.1,21.2,23,66.1,19.9,80.6-9,3.2-6.5,7.1-17.6,7.3-24.8.2-6.4-4.1-22.2-6.1-29-5.5-18.7-21.3-27.3-40.4-24.7Z"/>
  <path d="M503.2,887.7c-11.2-4.2-21.3-8.2-33.3-3.9-16.3,5.8-26.5,21.2-23.5,38.5,2.3,13.6,4.4,26.2,16.7,34.3,4.9,3.2,5.9,4,10.3,7.7,23.2,19.4,60.8,26.6,73.5-8.1,4.9-13.4,8.4-24.4,2.1-38.3-7.5-16.4-29.7-24.2-45.7-30.2Z"/>
  <path d="M708.5,883.7c-14.1,3.7-44.2,16-53.1,27.3-11.5,14.6-8,29.4-2.2,45.2,13.1,35.7,51.6,27,74.8,6.8,4-3.5,4.8-3.6,9-6.4,12.3-8.1,14.4-20.7,16.7-34.3,4.6-26.5-20.3-45.1-45.2-38.6Z"/>
  <path d="M197.9,967.6c-16.1-16.1-45.5-15-62.7-1-2,1.7-3.8,4-5.6,6,17.6,22.3,36.8,43.2,57.4,62.7,21.7-16.8,32.7-45.8,10.9-67.7Z"/>
  <path d="M1065.2,966.8c-21.2-17.6-60.2-14.7-71.6,12.8-8.8,21.2,2,42.5,19.4,55.7,20.6-19.5,39.8-40.5,57.5-62.8-1.6-1.9-3.3-4.1-5.2-5.7Z"/>
  <path d="M134,790.8c-5.8.7-11.3,1.3-17.2,1.8-15.9,1.4-31.2,17.4-33,33.1-4.3,38.7,33.3,63.1,68.4,48.1,38.6-16.5,25.9-88-18.3-83Z"/>
  <path d="M1092.9,795.3c-7.9-3.4-11.7-2-19.5-2.8-6.2-.6-9.1-2.5-16.2-1.7-39,4.2-48,76.2,1.4,86.5,55.1,11.4,79.3-62.8,34.3-82Z"/>
  <path d="M317,895.9c1.4-1.6,3.7-3,4.7-4.1,34-39.7-22.6-85.1-58.6-60.2-7.6,5.3-19.5,23.2-21.4,32.3-3.3,16,3.9,27.2,16.5,35.9,3.6,2.5,7.1,5.2,10.7,7.6,12.6,8.4,30.8,7.4,41.8-3.2,2.8-2.6,3.9-5.5,6.2-8.2Z"/>
  <path d="M943.5,837.4c-31.3-35.5-99.8,9.3-67.7,51.3,3,3.9,8.3,10,11.7,13.8,10.6,12,29.8,13.7,43.1,5.1,2.3-1.5,4.6-4.4,6.7-5.8,3.8-2.6,8.1-3.8,11.9-7.4,10.1-9.8,12.5-25.7,6.5-38.4-1.8-3.8-9.4-15.5-12.1-18.6Z"/>
</svg>