<?xml version="1.0" encoding="UTF-8"?>
<svg id="Layer_1" xmlns="http://www.w3.org/2000/svg" version="1.1" viewBox="0 0 1200 1200">
  <!-- Generator: Adobe Illustrator 29.0.0, SVG Export Plug-In . SVG Version: 2.1.0 Build 186)  -->
  <defs>
    <style>
      .st0 {
        fill: none;
      }
    </style>
  </defs>
  <path d="M655,1199c1.8-.4,4.2-1.5,6-2.1-7,.7-14.1,1.3-21.2,1.8,4.7,1.2,9.5,1.5,15.2.3Z"/>
  <path d="M552.6,1200c2.6,0,5-.6,7.2-1.3-6.7-.4-13.3-1-19.9-1.6,3.6.9,8.1,3.1,12.7,3Z"/>
  <path d="M524.5,1199.3c3.7-.1,9-2.4,12.2-2.6-11.6-1.2-23.1-2.8-34.4-4.6,5.7,4.7,13.3,7.6,22.3,7.3Z"/>
  <path d="M674.3,1199.2c9.4.7,17.4-2.2,23.3-7.1-11.3,1.9-22.8,3.4-34.3,4.6,2.9.3,7.7,2.3,11,2.5Z"/>
  <path d="M875.6,1133.1c-3.3,1.7-6.6,3.4-10,5.1,3.5-1.3,6.8-3,10-5.1Z"/>
  <path d="M334.4,1138.2c-3.4-1.7-6.8-3.4-10.1-5.1,3.2,2.1,6.6,3.8,10.1,5.1Z"/>
  <path class="st0" d="M570.9,1194.7c-3.4.4-6.9,2.5-11.1,4,13.3.9,26.7,1.3,40.3,1.3s26.7-.4,39.8-1.3c-3.7-.9-7.3-2.4-11.3-4-18.1,1.7-40-2.1-57.6,0Z"/>
  <path class="st0" d="M536.6,1196.7c1.1.1,2.1.2,3.2.3-.8-.2-1.6-.3-2.3-.4-.3,0-.6,0-.9,0Z"/>
  <path class="st0" d="M661,1196.9c.8,0,1.6-.2,2.4-.3-.3,0-.6,0-.9,0-.4,0-.9.1-1.5.3Z"/>
  <path class="st0" d="M171.2,863.2c-8.8,29.8-60.9,44.3-82.5,22-11-11.4-10.7-25.4-8-39.9,11.3-60,105.6-33.2,90.5,17.9ZM323.4,899c-10.1,28.4-53.6,33.3-74.5,14.5-31.5-28.3-8.3-68.3,29.7-69.8,28.2-1.1,54.9,26.7,44.8,55.2ZM515.6,979.9c-32.8,11.9-76.7-20.5-61.8-56.5,4.3-10.3,15.2-18.8,26.3-20.1,7.9-.9,19.7,1.2,27.6,2.7,37.5,7.5,44.2,60.6,7.8,73.9ZM549.1,701.5c-5.4,10.7-12.9,14-21.1,21.4-17.5,15.9-30.1,35.1-46.1,52-5.4,5.7-14.7,12.6-18.3,18.9-4.1,7.1-5.9,15.4-11.7,21.6-17.2,18.1-48.6,10.6-57.1-12.3-5-13.6-2.6-17-12.3-30.2-13.6-18.4-33.8-38.9-50-55.3-9-9.2-32.7-27.6-37.2-37.3-14.9-31.8,22.2-61.9,51.3-40.1,18.2,13.7,38.6,36.3,54.4,53.2,11,11.8,21.7,23.9,32,36.4,15.6-17.4,29.8-35.8,46.4-52.3,1.5-1.5,3.6-2.4,4.9-4.2,5.1-7,4.7-11.2,13.3-16.8,28.9-19,67.6,13.1,51.6,45.1ZM685.8,980.4c-35.9-11.5-32.6-62.9,2.2-73.4,5.3-1.6,14.8-3.1,20.4-3.8,21.1-2.6,39.1,10.6,40.7,32.2,2.3,31-35.5,53.9-63.3,45ZM835.2,752.4c-7.2,8.1-23,24.5-26.1,34.4-1.7,5.4-1.9,11.3-4.1,16.9-8.5,22.1-38.5,29.4-55.9,12.8-6.7-6.4-8.4-15-12.7-22.6-3.6-6.4-12.9-13.2-18.3-18.9-16-16.9-28.6-36.1-46.1-52-8.3-7.5-16-10.9-21.3-21.9-15.3-31.9,23.2-63.5,51.9-44.6,8.6,5.6,8.1,9.8,13.3,16.8,1.3,1.8,3.4,2.7,4.9,4.2,16.7,16.6,30.8,34.9,46.4,52.3,6.1-7.2,12-14.6,18.3-21.6,18.9-21.1,45.8-51.3,68.1-68,25.7-19.3,60.6,2,53.5,33.2-3.4,15-16.9,22.3-27.4,32.1-15.1,14.2-30.6,31.3-44.4,46.8ZM957.7,905.9c-25.5,35.9-93.9,17.7-82-29.6,4.4-17.3,23.7-31.8,41.4-32.5,33.8-1.3,63.2,30.3,40.6,62.1ZM1119.9,869.2c-12.2,45.1-87.5,27.9-92.5-11.8-5.1-39.8,53.5-60.6,80.7-35.2,2.1,1.9,5,5.8,6.4,8.3,5.3,9,8.1,28.7,5.4,38.7Z"/>
  <path d="M1176.7,676.9l-13.1-12.4c-13.1-11.8-30-22-42.8-33.7-7.3-6.6-10.6-14.1-19.8-19.4-33-19-66.2,20.8-42.3,50.1,18.5,22.7,41.7,34.4,62.1,53.6,6.7,6.3,10.2,14.2,16,21.3,8.1,9.8,21.4,23.2,33.9,26.2,2.2.5,4.5.8,6.7.9,10.4-36.9,17.4-75.3,20.6-114.7-7.4,9.2-14.5,18.5-21.4,28Z"/>
  <path d="M907,673.5c7-31.2-27.8-52.5-53.5-33.2-22.3,16.7-49.1,46.8-68.1,68-6.3,7-12.2,14.4-18.3,21.6-15.6-17.4-29.8-35.8-46.4-52.3-1.5-1.5-3.6-2.4-4.9-4.2-5.1-7-4.7-11.2-13.3-16.8-28.7-18.8-67.2,12.7-51.9,44.6,5.3,10.9,13,14.3,21.3,21.9,17.5,15.9,30.1,35.1,46.1,52,5.4,5.7,14.7,12.6,18.3,18.9,4.3,7.6,6,16.2,12.7,22.6,17.5,16.6,47.5,9.3,55.9-12.8,2.1-5.6,2.4-11.4,4.1-16.9,3.1-9.9,18.8-26.3,26.1-34.4,13.9-15.5,29.3-32.6,44.4-46.8,10.4-9.9,24-17.1,27.4-32.1Z"/>
  <path d="M497.5,656.5c-8.6,5.6-8.1,9.8-13.3,16.8-1.3,1.8-3.4,2.7-4.9,4.2-16.7,16.6-30.8,34.9-46.4,52.3-10.3-12.5-21-24.5-32-36.4-15.7-16.9-36.2-39.5-54.4-53.2-29.1-21.8-66.2,8.3-51.3,40.1,4.6,9.7,28.2,28.1,37.2,37.3,16.2,16.5,36.4,37,50,55.3,9.7,13.1,7.3,16.6,12.3,30.2,8.5,22.9,39.9,30.3,57.1,12.3,5.9-6.2,7.7-14.5,11.7-21.6,3.6-6.4,12.9-13.2,18.3-18.9,16-16.9,28.6-36.1,46.1-52,8.2-7.4,15.7-10.7,21.1-21.4,15.9-32-22.8-64-51.6-45.1Z"/>
  <path d="M63.2,736.4c5.8-7.1,9.3-14.9,16-21.3,20.4-19.2,43.6-30.9,62.1-53.6,23.9-29.3-9.3-69.1-42.3-50.1-9.2,5.3-12.6,12.8-19.8,19.4-12.9,11.7-29.7,21.9-42.8,33.7l-13.1,12.4c-6.9-9.5-14-18.9-21.4-28,3.2,39.5,10.2,78,20.7,115,15.7-1.4,29.9-14.4,40.6-27.4Z"/>
  <path d="M693.3,1137.1c-22.3-12.5-37.2-12.4-62.3-12.3-26.1,0-54.3-.7-80.2.2-17.8.6-27.2,3.1-42.8,11.5-23.6,12.6-22.4,42-5.8,55.7,11.4,1.9,22.9,3.4,34.4,4.6.3,0,.6,0,.9,0,.7,0,1.5.2,2.3.4,6.6.7,13.2,1.2,19.9,1.6,4.2-1.4,7.7-3.5,11.1-4,17.7-2.1,39.5,1.7,57.6,0,4,1.6,7.6,3.1,11.3,4,7.1-.5,14.2-1,21.2-1.8.6-.2,1.1-.3,1.5-.3.3,0,.6,0,.9,0,11.5-1.2,23-2.7,34.3-4.6,16.4-13.5,18.1-42.4-4.3-55Z"/>
  <path d="M891.7,1117.1c25.7-39.1-11.4-79.6-53-76.5-2,.1-4.4,1.3-6.3,1.4-4.2.3-9.6-.7-14.2-.3-33.6,2.5-51.8,44.3-32.2,71.5,17.7,24.7,52.5,35.4,79.7,24.9,3.3-1.7,6.7-3.3,10-5.1,6.1-4,11.6-9.2,16.1-16Z"/>
  <path d="M414.1,1113.2c19.3-27,1.6-68.7-31.6-71.5-4.7-.4-10,.6-14.4.3-7.1-.5-12-2.3-20.1-1.4-34.3,3.9-59.9,40.3-41.8,72.8,4.7,8.5,11,15,18.2,19.6,3.4,1.7,6.7,3.4,10.1,5.1,27,10.4,61.8,0,79.7-25Z"/>
  <path d="M133.5,974c-.6.5-1.1.9-1.6,1.4,19.2,24,40.3,46.4,62.9,67.2,5.8-8.1,9.5-17.6,9.7-27.7.6-35.9-39.9-67.1-71-40.8Z"/>
  <path d="M995.4,1014.9c.2,10.1,3.8,19.6,9.7,27.7,22.6-20.7,43.7-43.2,62.9-67.1-.5-.5-1-.9-1.6-1.4-31.1-26.3-71.6,4.9-71,40.8Z"/>
  <path d="M80.6,845.3c-2.7,14.5-3,28.5,8,39.9,21.6,22.3,73.7,7.8,82.5-22,15-51.1-79.2-77.9-90.5-17.9Z"/>
  <path d="M1108.1,822.3c-27.2-25.4-85.8-4.7-80.7,35.2,5,39.7,80.3,56.8,92.5,11.8,2.7-10-.2-29.7-5.4-38.7-1.4-2.5-4.4-6.3-6.4-8.3Z"/>
  <path d="M278.6,843.8c-38,1.5-61.2,41.5-29.7,69.8,20.9,18.8,64.4,13.8,74.5-14.5,10.1-28.5-16.6-56.4-44.8-55.2Z"/>
  <path d="M917.2,843.8c-17.7.7-37,15.2-41.4,32.5-11.9,47.3,56.5,65.5,82,29.6,22.6-31.8-6.8-63.5-40.6-62.1Z"/>
  <path d="M507.8,906c-7.9-1.6-19.8-3.7-27.6-2.7-11.2,1.3-22.1,9.8-26.3,20.1-14.9,36,29,68.5,61.8,56.5,36.4-13.3,29.7-66.4-7.8-73.9Z"/>
  <path d="M708.5,903.3c-5.6.7-15.1,2.2-20.4,3.8-34.8,10.5-38.1,61.9-2.2,73.4,27.8,8.9,65.6-14,63.3-45-1.6-21.6-19.6-34.8-40.7-32.2Z"/>
</svg>