<?xml version="1.0" encoding="UTF-8"?>
<svg id="Layer_1" xmlns="http://www.w3.org/2000/svg" version="1.1" viewBox="0 0 1200 1200">
  <!-- Generator: Adobe Illustrator 29.0.0, SVG Export Plug-In . SVG Version: 2.1.0 Build 186)  -->
  <defs>
    <style>
      .st0 {
        fill: none;
      }
    </style>
  </defs>
  <path d="M646.4,1198.2c-5.7.4-11.4.8-17.2,1.1,5.8,1.2,11.6.9,17.2-1.1Z"/>
  <path d="M571.3,1199.3c-5.6-.3-11.3-.6-16.9-1,5.5,1.9,11.2,2.2,16.9,1Z"/>
  <path class="st0" d="M603.8,1191.5c-10.4-.8-16.2,1.8-25.1,5.5-2.5,1-5,1.8-7.4,2.3,9.5.4,19.1.7,28.7.7s19.5-.2,29.2-.7c-2.3-.5-4.6-1.2-6.8-2.1-6.9-2.8-10.4-5-18.5-5.7Z"/>
  <path class="st0" d="M167.1,846.5c-3.6,46.6-92.7,41.9-80.1-12,6.2-26.4,45.5-37.9,65.5-20,8.7,7.8,15.5,20.1,14.6,32ZM261.2,902.4c-5-10.1-10.6-24.8-9.5-36.2,1.3-14.1,15.2-28.5,29.3-30.2,25-3.2,48.8,20.8,45.8,45.7-.7,5.8-3.9,18.4-6.7,23.3-13.4,23.2-46.9,21.2-58.8-2.6ZM385.5,1117.7c-28.7,14.2-49.6,4.5-69.4-17.2-14.1-15.5-13.2-47.3,2.6-61.4,19.5-17.5,65.1-13.3,83,5.6,22.8,23.9,11.8,59.1-16.2,73ZM434.3,819.2c-7.5,3.6-14.7,4.3-22.8,2.2-17.6-4.5-21-18.8-31.3-31.5-16.8-20.6-36.8-44-55-63.4-8.6-9.1-24.2-20.6-27.8-32.3-8.7-28.4,20.5-53.7,47.1-39.8,8.2,4.3,24.2,21.6,31.2,29,14.2,15.2,26.6,32,40.9,47.1,8.6-12,18-24.1,28.1-35,12-12.9,31.9-33.1,50-35,28.9-3,48.3,27.8,31.6,51.9-5.4,7.8-10,8.4-17.1,13-12.8,8.3-40.8,44-49.5,57.7-8.5,13.4-9.7,28.5-25.4,36.1ZM521,988.3c-20.1,5.4-31.6-6.6-43-20.8-15.7-19.4-4.3-50.5,20.8-53.8,12.8-1.6,24.4,4.2,33.8,12.3,20.3,17.5,16.3,54.8-11.6,62.3ZM722.7,967.5c-11.4,14.2-22.9,26.2-43,20.8-27.8-7.4-31.8-44.8-11.6-62.3,6.2-5.4,16.1-11.3,24.4-12.3,29.8-3.4,49,30.4,30.2,53.7ZM766.4,819.2c-15.7-7.6-16.9-22.7-25.4-36.1-8.7-13.7-36.7-49.4-49.5-57.7-7.1-4.6-11.7-5.1-17.1-13-16.6-24.1,2.8-54.9,31.6-51.9,18.2,1.9,38,22.1,50,35,10.1,10.9,19.6,23,28.1,35,14.3-15.1,26.7-31.9,40.9-47.1,6.9-7.4,22.9-24.7,31.2-29,26.6-13.9,55.8,11.4,47.1,39.8-3.6,11.8-19.3,23.2-27.8,32.3-18.2,19.4-38.1,42.8-55,63.4-10.3,12.7-13.7,27-31.3,31.5-8.1,2.1-15.3,1.4-22.8-2.2ZM894.1,1078c-1,13.8-8.4,21.8-18,30.8-18,17-38.4,20.1-61,8.9-46.7-23.2-32.8-84.9,19.8-89,36.6-2.8,62.2,8.4,59.1,49.3ZM949,874.6c-.9,8.5-8.5,27.9-13.8,34.6-15.5,19.6-48.3,14.6-56.8-9-2.5-7-5.3-21.5-4.5-28.8,1.5-15.2,20.1-33.6,35.2-35.5,22.8-2.9,42.5,15.6,40,38.7ZM1072.4,878.3c-37.6-2.2-52.4-36.3-24.8-63,11.2-10.9,24.3-11,38.8-7.1,43,11.6,36.5,73.1-14,70.2Z"/>
  <path d="M1194.7,639c-9.4,10.2-17.9,21.2-25.5,32.7l-24.5-25.8c-11-11.1-37.8-35.9-52.5-39.1-26.3-5.8-47.9,20-38,45.1,4.9,12.3,21.9,21.1,31.8,29.6,14.5,12.5,32.5,32.6,44.8,47.6,12.4,15.1,20.4,32.5,40.8,38.2,1.5.4,3,.8,4.4,1,12.5-42.9,20.4-87.7,23-134-1.6,1.7-3.1,3.3-4.3,4.6Z"/>
  <path d="M820.5,790c16.8-20.6,36.8-44,55-63.4,8.6-9.1,24.2-20.6,27.8-32.3,8.7-28.4-20.5-53.7-47.1-39.8-8.2,4.3-24.2,21.6-31.2,29-14.2,15.2-26.6,32-40.9,47.1-8.6-12-18-24.1-28.1-35-12-12.9-31.9-33.1-50-35-28.9-3-48.3,27.8-31.6,51.9,5.4,7.8,10,8.4,17.1,13,12.8,8.3,40.8,44,49.5,57.7,8.5,13.4,9.7,28.5,25.4,36.1,7.5,3.6,14.7,4.3,22.8,2.2,17.6-4.5,21-18.8,31.3-31.5Z"/>
  <path d="M509.2,725.4c7.1-4.6,11.7-5.1,17.1-13,16.6-24.1-2.8-54.9-31.6-51.9-18.2,1.9-38,22.1-50,35-10.1,10.9-19.6,23-28.1,35-14.3-15.1-26.7-31.9-40.9-47.1-6.9-7.4-22.9-24.7-31.2-29-26.6-13.9-55.8,11.4-47.1,39.8,3.6,11.8,19.3,23.2,27.8,32.3,18.2,19.4,38.1,42.8,55,63.4,10.3,12.7,13.7,27,31.3,31.5,8.1,2.1,15.3,1.4,22.8-2.2,15.7-7.6,16.9-22.7,25.4-36.1,8.7-13.7,36.7-49.4,49.5-57.7Z"/>
  <path d="M62.6,738.1c14.7-18.2,34.4-41.4,52-56.6,7.3-6.3,18.7-12.8,24.9-19.3,27.1-28.3-7.4-74.7-46.4-48-22.6,15.5-40.9,35.7-59.7,55.4-.5.6-.9,1.2-1,2-1,.2-1-.1-1.6-.7-2.8-2.8-7-10.5-9.9-14.3-5.3-6.8-12.2-15.6-20-23.9,2.5,46.8,10.4,92.3,23.1,135.6,8-1.4,15.9-4.9,22.5-10.5,6.8-5.6,10.7-13.2,16.1-19.9Z"/>
  <path d="M661.6,1188.3c2.4-.7,4.3.5,6.4.4,9.7-.3,19.6-4.4,25.9-12,1.9-2.4,3.1-5.7,4.7-7.7,5.3-7,9.4-8.5,11.5-18.6,5.8-27.7-18.1-41-42-42.7-20.6-1.4-43.5-2.1-64.1-1.9-7.3,0-14-.8-21.4-.5-16.3.6-33,1.4-49.3,2.4-24.4,1.5-48.9,14.9-42.5,43.2,2.2,9.8,6.2,11.2,11.4,18,1.6,2.1,2.7,5.4,4.7,7.7,6.2,7.6,16.2,11.7,25.9,12,2,0,4-1.2,6.4-.4.8.2,7.2,6.1,9.6,7.4,1.9,1.1,3.9,1.9,5.8,2.6,5.6.4,11.2.8,16.9,1,2.5-.5,4.9-1.3,7.4-2.3,8.9-3.7,14.7-6.3,25.1-5.5,8.2.7,11.6,2.8,18.5,5.7,2.3.9,4.6,1.6,6.8,2.1,5.7-.3,11.5-.6,17.2-1.1,1.9-.7,3.8-1.5,5.6-2.5,2.4-1.3,8.8-7.2,9.6-7.4Z"/>
  <path d="M318.7,1039.1c-15.7,14.1-16.7,45.9-2.6,61.4,19.8,21.7,40.7,31.4,69.4,17.2,28-13.9,39-49.1,16.2-73-17.9-18.8-63.5-23-83-5.6Z"/>
  <path d="M835,1028.7c-52.6,4.1-66.5,65.8-19.8,89,22.6,11.2,43,8.1,61-8.9,9.5-9,16.9-16.9,18-30.8,3-40.9-22.6-52.1-59.1-49.3Z"/>
  <path d="M319.9,905c2.9-5,6-17.5,6.7-23.3,3-24.9-20.8-48.9-45.8-45.7-14,1.8-28,16.1-29.3,30.2-1,11.4,4.5,26.1,9.5,36.2,11.8,23.8,45.4,25.9,58.8,2.6Z"/>
  <path d="M909,835.9c-15.1,1.9-33.6,20.2-35.2,35.5-.7,7.3,2,21.8,4.5,28.8,8.5,23.6,41.3,28.6,56.8,9,5.3-6.7,12.9-26.1,13.8-34.6,2.5-23.1-17.2-41.5-40-38.7Z"/>
  <path d="M163.8,972c-11.5.8-20.1,4.8-26,10.6,16,19.3,33.2,37.6,51.4,54.7,30.8-22.7,17.1-68.3-25.4-65.3Z"/>
  <path d="M1030,972c-35.4,1.9-48.6,43.8-19.7,64.4.3.2.6.4.8.6,18-17,35-35.1,50.8-54.1-7.4-7.1-18.2-11.6-32-10.9Z"/>
  <path d="M152.6,814.5c-20-17.9-59.3-6.5-65.5,20-12.7,54,76.5,58.6,80.1,12,.9-11.9-5.9-24.2-14.6-32Z"/>
  <path d="M1086.3,808.1c-14.5-3.9-27.5-3.8-38.8,7.1-27.5,26.8-12.7,60.9,24.8,63,50.5,2.9,57-58.6,14-70.2Z"/>
  <path d="M532.6,926c-9.4-8.1-21-13.9-33.8-12.3-25.1,3.2-36.4,34.3-20.8,53.8,11.4,14.2,22.9,26.2,43,20.8,27.8-7.4,31.8-44.8,11.6-62.3Z"/>
  <path d="M692.4,913.8c-8.2.9-18.1,6.9-24.4,12.3-20.3,17.5-16.3,54.8,11.6,62.3,20.1,5.4,31.6-6.6,43-20.8,18.8-23.3-.4-57.1-30.2-53.7Z"/>
</svg>