<?xml version="1.0" encoding="UTF-8"?>
<svg id="Layer_1" xmlns="http://www.w3.org/2000/svg" version="1.1" viewBox="0 0 1200 1200">
  <!-- Generator: Adobe Illustrator 29.0.0, SVG Export Plug-In . SVG Version: 2.1.0 Build 186)  -->
  <path d="M866.2,995.7c.9-7.8,20.4-20.2,19.4-34.4l-19.4-3.5,2-50-1-.4c-.7-3.7-.2-3.8,1.2-4.1l1.4-36.9c3.4,4.4,7.5,9.6,11.7,15.2,10.9-.8,24.4-1.8,36.8-4.9-5.4-19.6-4.4-200.3-1.6-222.3,1.9-14.8,13.3-5.9,13.3-12.2.9-5.8-9.1-1.2-11.1-4.3-4.3-6.8-1.5-41.8-.3-72.2-5.8,3-11.6,5.8-17.4,8.5-2.1,1-4.4,1.9-6.9,2.8-.5,5-1.2,9.5-2.1,13.4-1.8,7.4-15.5,7.4-19.1,14l18.2,13.6,7,248.7c-38.8-5.6-32.4-51-34.9-82.4-5.2-65.2.9-133,2-197.8-7.4,2.5-14.3,5.1-19.5,8.1-6.4,3.8-19,17.8-29.7,28v4c0,0,25.2-12.6,25.2-12.6,4.1,95.5-4.1,192.2-2.7,287.5.4,27.4,9,55.5,9.4,81.9.7,54.4.6,108.8.3,163.2,5.8-2.6,11.5-5.3,17.1-8.1-2.6-49.5-4.5-98.4.8-142.5Z"/>
  <path d="M974.1,1024.5l18.9,6.3-6.4-25.2-12.4,6.4c0-12.8.5-26.3,1.1-40-7.7.3-15,.8-20.4.4,1.5,12.3,2,53.6-12.4,49l13,7.3c-10.2,22.3,14,54.5-13,62.3v1.8c11.5-7.9,22.6-16.3,33.4-25-.7-13.6,2.8-29.4-1.7-43.2Z"/>
  <path d="M301.6,642.6c-1.1,8.3-9.9,16.8-9.9,24.6,0,3.7,12.5.5,13.7,12.5,1.4,14.3-4.9,27.8-4.6,39.4.9,38.5,1.5,77.5,3.9,115.8l-30.9-10.4-.8-137.2,12.9-7.2c.3-2.5-1-3.1-3-3.3-.8.9-2.3.5-3.7,0-1.9,0-3.7,0-4.7-.9-.2-.1-.3-.4-.4-.9-4.4-1.4-9.4-3-14.8-4.6-.6,42.6-2.2,82-4.4,104.7-1.2,12.4-13.8,8.1-13.6,12.3.4,8.3,9.7,13.7,9.9,18.7.6,13.8-1.3,29.6-2.9,45.6,3.9,11.8,14.2,18.6,26.6,22.8-.5-4.8-1.2-9.6-1.8-14.4,12.8,4.2,20.9,11,25.8,19.5,7.5.9,14.7,1.5,21,2-3.1,6.2-13.4,3.5-10.7,12.8,5.7,2.1,11.6,4.3,17.2,6.8.4-13.9.9-27.7,1.4-41.5.4-11.4-5.3-23-4.6-34.3,1.1-17.7,15.4-28.7,6.8-47.5l12.6,3.1c4.4-17.3-12.2-22.7-13.2-31.1-2-18.2-5.8-60.3,13.1-63.5-21.3-21.4-18.5-74.1,4.7-95.5-10.9-4.7-24.8-8.2-36.8-12.4-8.6,20-5.9,42.7-8.7,64Z"/>
  <path d="M810.7,1103.3l11.8-6.1-12.5-7.1-.2-27.7,12.5,6.4,6.5-28.4-18.3-3.7-1.1-27.3,25.7-19.6-25.6-13.8c6.6-43.3-13.8-103.2,12.9-138-27.3-13.3-5.8-70.9-13.1-100.8l19.4-3.5c-27.8-18.1-22.8-40,6.4-53.7-11.2-31.3-10.7-4.4-25.3,3.2v-55.4c-3.6,3.1-6.7,5.3-8.9,5.8-7.7-1.1-15.2-5.4-22.6-9.7-1.9,4.1-4.1,8.1-6.6,11.8,25.7,7.1,7.1,24.2,8.3,39.5,13.3,160.7,10.3,329.9,9.7,494.1,7.7-2.6,15.3-5.3,22.8-8.1,1.1-20.3,1.3-40-1.9-58Z"/>
  <path d="M884.2,885.4c2.2,3.1,4.3,6.2,6.3,9.4.2-.1.4-.2.4-.3,1.9-6.6-2.7-7.2-6.7-9.1Z"/>
  <path d="M500.4,1072c-9.3-6.8-11.7-13.9-13-25-7.2-64.7,6.1-142.6.3-208.9l19,3.1c-30.9-18.6-16.3-45.7-19.1-78.1l12.9-7.2c-19.8-3.7-14.7-49.8-13-69.8,2.8-32.3,18.2-33.4,25.4-63.1l-19.3-6.4c.6-5.9,1.1-11.7,1.4-17.5-6.2,1.1-11.4,2.3-14.1,3.1-3.8,1.2-7.8,2.4-11.8,3.6,0,9.4,0,18.4,0,29.6.6,92.9-2.5,185.6.1,278.6l-19.4,21.9,19,3.4c-9.5,16.6,2.6,33.4,0,49.9-3.7,23.5-23.4,20.3-12.2,62.2,9.6,36,16,77.1,12.3,121.6-1.6,19.3-8.8,1.9-19,3.2v4.8c12.5,3.2,25.2,6.1,38,8.5l-.7-105.5,13.2-12.1Z"/>
  <path d="M944.6,947.4c-2.1,1.9-4.9,3.4-8.6,4.5-2.9,11.9,12.7,12,17.4,16.4-.4-8.9-3.7-15.7-8.8-20.9Z"/>
  <path d="M916.9,933.8c-5.7-1.3-11.6-2.3-17.3-3-1.9,5.7-6.3,10.7-14.1,14.7l12.9,7v17.6l-12.9,7,12.9,7.2c-4.4,21.6,6.4,95.8-1.7,108.6-2,3.1-12-1.5-11.1,4.3l12.9,7.2c.4,5.3.6,10.6.7,15.8,7.4-4.2,14.6-8.6,21.8-13.2l-2.9-1.2-1.1-172.1Z"/>
  <path d="M967.3,623.8l.2-84.8c-10.5,5.8-21,11.7-31.5,17.4,0,31.3.9,63.3,2.2,95.6,8.7-10.3,18.7-19.4,29-28.2Z"/>
  <path d="M1024.3,679c-.8-.2-1.5-.4-2-.8-4.5-2.9-3.1-16.7-16-18.4-1.8-.3-3.7-.4-5.6-.5,0,18.9-1.4,37.3-5.6,54.1,10.2-4.6,21.1-9.3,29.2-14.1,0-6.9,0-13.9,0-20.4Z"/>
  <path d="M998.1,742.1c6.4,6.2-8.7,13-9.2,20.1-.5,6.2,7.9,44.8,13,74,3.5-1.5,6.4-3.6,8.1-6.8,7.7-14.1,3.8-24.9-9.1-33l6.5-14.7-13.1-7.7c8.4-1,22.8,1.2,31.4-2.5-.1-5.4-.3-10.8-.5-16.2l-27.2-13.3Z"/>
  <path d="M216.8,971.8c-6.3,0-12.5.6-17.4,2.3,1,20.5,1.3,40.4-.1,58.9l6.4,3.8c-2,.2-4.3.3-6.8.3-.3,2.8-.6,5.6-.9,8.4,6.2,5.6,12.5,11.1,18.9,16.4,1.8-29.5,1-59.8,0-90Z"/>
  <path d="M173.1,566.2c.4-5.9.8-11.7,1.1-17.4l-3-.9c-3.7,7.3-1.8,13,1.9,18.3Z"/>
  <path d="M1004.7,1037c0,2,0,4,0,6,2.2-2,4.3-4,6.4-6-2.1,0-4.3,0-6.4,0Z"/>
  <path d="M758.8,1071.7l19.3-18.7c-23.7-8-30.4-42.2-6.1-50.6-.2-6.3-12,2.6-13.4-12.4-7.2-74.5,7.6-164.4.2-240.8l13.3-12.2-12.8-15.8,19.1-3.2-19.4-6.6v-96.5c-5.4-1.1-11.4-1.2-17.1-3.1-2.5-.8-4.8-1.6-7.2-2.5,2,87,2.9,178.3-2.3,186.3-1.9,3-11.7-1.3-11,4.5-3.1,14.6,9.4,6.9,11.4,12.3,3.8,10.3,2.2,76.9-5.9,84.6l-24.3.9c-2.7-57.3,3.8-115.6,3.9-172.7,0-35.7-1.6-79.7-2.9-126.3-7.9-2.1-16.2-3.5-25.6-3.8l4.6,599.1c6.6-.9,13.2-1.9,19.8-3.1l.2-258.1c3-16.2,15-24.8,31.5-22.4v50.5s-18,.7-18,.7l-.9,24.6,18.8-6.3c1.7,13.8-11.6,20.8-12,34.7-.7,20.1,15.8,21.3,16.9,23.6l.9,145c6.8-1.6,13.6-3.4,20.4-5.2,0-35.6-.2-71.2-1.3-106.7Z"/>
  <path d="M164.1,689.4c.4.8.9,1.5,1.6,2.3,0-.7,0-1.4,0-2.2l12.6,3.2c-1.5-4.4-2.8-8.9-3.9-13.5-5.7,1-14.8,1.2-10.3,10.2Z"/>
  <path d="M197.2,659.4v50.5c14,6.3,28.4,12.4,34.3,17.8l-34.3,16.7v29.3c3.1,0,6,0,8.4.3l-8.4,5v13.1s1.9,4.3,1.9,4.3c-.7.4-1.3.9-1.9,1.3v5.6s-5.4-.9-5.4-.9c-5.8,6.3-7.3,13.9-3.7,22.9l9.1-3c-.6,4.2-1.1,8.4-1.5,12.8,5.6,3.2,13.6,4,22,4,0-3.5-.3-8.5-1.2-20.1-3.7-48.2,12.1-62.9,15.5-94.6,1.2-11.4-2.5-37.2-5.7-62.1-10.7-2.1-20.9-3.3-29.2-2.8Z"/>
  <path d="M259.4,649.4c3.8,4.4,7.5,8.9,10.8,13.7.9,1.4,2.3,2.7,3.7,4.1,1.2-19.2,7.9-63.8,8.2-75.6,0-4.7-.6-14.7-1.4-26.4-7.5-3.8-15-7.9-22.5-12,1.1,28.4,1.5,62.6,1.2,96.2Z"/>
  <path d="M986.8,736.6c0,.1-.1.3-.2.4.9.2,1.7.5,2.4.7l-2.3-1.1Z"/>
  <path d="M528.9,1185.4c2.6-.5,6.1-.8,10.2-1v-152.8s30.9-10.3,30.9-10.3l-25.3-15.8-6.3,18.9,1.3-147.1c15.4-25.5,17.3-23.9,4.6-51.6,6.6-63,1.7-131.7-1.4-199.1-5.2-.2-10-.5-13.9-1.4,1-3.7,5.7-3.6,8.7-7.4,4.3-5.8,4.7-14.9-.6-20-2.4-2.2-10-2.5-19-1.8l1.7,203.8-19.4,16.1,19.4,3.5v87.2c0,0-13,7.2-13,7.2,13,10.3,11.9,28.5,12.6,43.9,3.3,67-4.9,135.6,0,202.5-32.7-4.4-32.8,17.2,0,12.8-.9,7-1.4,14.1-1.6,21.3,7.3,1,14.7,1.9,22.1,2.6-.6-1.4-1.3-2.8-2.3-4.2-2.9-3.9-7.7-3.7-8.7-7.4Z"/>
  <path d="M174.8,534.7c.2-8-.2-16.4-.7-25.2-7.5-3.4-20.7-9.8-27.9-8.6,0,5,.1,10.6.3,16.5,6.4,6.7,17.7,14.9,28.3,22.2,0-1.7.1-3.3.1-4.9Z"/>
  <path d="M222.3,615c0-26.7,2-53.3,4.1-79.4-7.8-4.3-15.7-8.5-23.5-12.5l.7,65.3-14.8-3.7c10.4,10.9,22,20.6,33.5,30.3Z"/>
  <path d="M1058.6,509.7c1.1-6.1-1.5-8.5-5.8-8.8l-2.5,20c4.6-4.2,7.8-8,8.3-11.2Z"/>
  <path d="M1019.1,575.9c7.1-8.6,15.4-16.5,9.6-28l-25.8,8.5c6.7-7.3,29.7-20.9,44-32.7-19.9-10.3-9.5-1.5-22.3,7.8l1.8-22.2c-2,.9-3.6,1.7-4.8,2.2-8.6,3.7-17.2,7.9-25.7,12.3-.2,4-.4,7.9-.5,11.9-.7,19.4.7,40.6,2.3,62.2,7.6-6.9,15-14.1,21.5-22.1Z"/>
  <path d="M967.1,699.1v-35.6c-9.3,2.2-18.9,5.1-27.9,7.7,2.9,63.8,6.6,128.6,6.1,191.5,5.4-5.9,8.6-13.6,8.1-24.1,4.6-.6,11-.2,17.9,0-3.3-38.8-4.9-78.4,7.3-99.9,1-1.8,1.5-3.6,1.6-5.4l-11.6-5.7c1.9-1.8,4.8-3.6,8.3-5.5-4.1-7.4-10.3-14.8-9.6-23.1Z"/>
  <path d="M677.2,847.6l-25.2,12.6v-233.5c-8.1.3-17.2.7-25.3,2v67.2c-.1,0-12.8,3.1-12.8,3.1,25.4,8.1,8,48.9,12.7,72.7l-25.5-3.1c-16.9-13.2.3-58.4.3-75.9,0-10.3-.6-23.9-1.6-39.2-.5,0-1.2,0-2-.2,1.2-16.1-9.1-22.2-22.7-24.7l.8,120.2-12.5,7,13,7.3c-2.9,43.7.1,88.1,0,132.1,0,22.4-1.6,22.5,0,49.8,2.2,38.5-5,80.9-.3,120.4l-12.6-9.4-12.7,37.9,6.2-12.6h19c-.3,17.4,6.7,30-12.7,34.7l12.7,3.2v62.2c9-1.7,16.5-4.5,19.8-9.7,1.4-10.5,4.2-24,4-30.2-.3-10.6-5-20.7-5.3-31.9-3.1-110.1,4.2-221.6.5-331.7h31.6s0,158,0,158c0,2.6-35.6,11.3-25.3,41l25.3-22c-4,72.3.7,145.1.3,218.3,0,2.9-.4,5.8-.9,8.6,14.4,2.3,31.9,1.9,41.9,3,0-3.4-1-6.9-3.4-10.6-4.4-6.8-18.5-2.8-12.6-23.5,29.6,12.8,33.5-19.1,9.5-19-7.3,0,2.2,15.4-9.5,12.7l.3-249.3,24.9-47.7Z"/>
  <path d="M326.1,909.7c-8.4,2.7-21,6.3-16.1,13.1,1.9,2.6,9,1.6,9.8,6.3-4.5.4-9.6.7-14.9,1.3-1.6,21.3-4.9,43.8-.4,62.6l-12.5-6.4-.2,15.8c25.3,7.4,8.1,49.6,12.7,72.7-26.4-8.2-18.1,17.5-9.2,41.9,9.1,5.4,18.4,10.5,27.9,15.5,0-74.4.7-148.8,2.9-222.8Z"/>
  <path d="M443.5,1131.9l-12.5,6.4c-9.5-16.6,10.4-59.3,9.9-66.3-.7-9.3-10.1-18-10.2-31.5-.5-58.9,4.5-117.7-.2-176.2l13.1-7.2c.8-6-8.6-1.6-11.4-4.1-2-1.8,4.7-45.5,5.5-52.4,1.8-15.6,18-15.9-.7-38.2l19.1-12.8h-19c5.7-41.2,1.5-87.8-1.2-133.1-7.9,3.1-15.9,8.8-24.1,12.8v344.6c-44.9-2.7-29.6-45.2-31.7-78.1l12.9-7.2-13-7.3.4-90.7,25.2,6.3c.4-14.1-24-24.7-25.3-29.7-4.2-15.8-3.1-57.6,12.7-68.2.8-5.6-9.1-1.5-10.9-4.4-2.6-4.2-1.7-39.2,4-70.1-7.3-6.8-15.9-15.9-23.1-22.7.5,32.7,0,77-.9,91.1-.8,12.8-14.7,6.5-14,18.6.8,14.2,12.2,22.8,13.9,37.9,3.2,28.7-7.1,74.7-.4,106.7l-12.8,7.2c21.1,5,11.3,22.6,12.6,41.1-41.9-6.8-6.5,21.9-5.7,28,8.2,65.2-1.2,141.8-3,214.3,8.2,3.7,16.6,7.3,25,10.6-.6-8-1.5-15.2-2.8-21.3l18.3-13.6-19.1-3.2,6.4-132.7,18.8,12.6,12.7-18.9v82.1s-25.1-12.6-25.1-12.6v31.6s18.8-6.4,18.8-6.4l4.3,94.2c6.7,2.2,13.5,4.4,20.3,6.4.1-7.7.3-13.1.5-14.1.5-2.7,22.2-8.8,12.7-29.6Z"/>
  <path d="M662.4,1192.9c-1,1.3-1.8,2.7-2.3,4.2,1.6-.2,3.1-.3,4.7-.5,1.3-2.4,2.3-4.9,2.8-7.5-1.7.9-3.7,1.9-5.2,3.8Z"/>
  <path d="M1005.8,976.7c-.2,11.5-.5,23.1-.7,34.6,9.4-7.7,11.6-17.5,4.8-30-1-1.9-2.4-3.4-4.1-4.6Z"/>
  <path d="M282.4,993l3.3-22.2-18.9,9.4c-4.4-21.5,8.1-29.1,18.9-44.2l-7-1.2c-18.2,5.2-33.1,15.4-32,37.2-.4,0-.8,0-1.2.1l1.5,112.8c6.4,4.7,12.9,9.2,19.4,13.6l.4-108.9,15.7,3.3Z"/>
  <path d="M1004.8,1030.6l2.6-1.5-2.5-5.7c0,2.4,0,4.8-.1,7.2Z"/>
</svg>