<?xml version="1.0" encoding="UTF-8"?>
<svg id="Layer_1" xmlns="http://www.w3.org/2000/svg" version="1.1" viewBox="0 0 1200 1200">
  <!-- Generator: Adobe Illustrator 29.0.0, SVG Export Plug-In . SVG Version: 2.1.0 Build 186)  -->
  <path d="M107.6,943c-1.8-2.5-3.5-5-5.2-7.6-.2,4.4,2.1,6.3,5.2,7.6Z"/>
  <path d="M987.4,1055.6c-6.8-28.2-15.6-44.1-12.1-75.5,4.3-38.5.2-39.5,0-75.7,0-10.3,0-20.6,0-30.9l-19.2-1.9,19.3-9c0-7,.3-14,.4-21l-13.9,2c4-6.5,8.8-9.9,14.1-11.9,1.1-44.4,2.4-88.7-.3-133.2,9.5,5.7,19.3,4.2,19-9.4-17.5-4.2-24.6-45.5-26.2-77.9-12-6.5-23.7-12.6-30.5-13.7-.2.9-.3,1.9-.3,2.7,0,3.3,11.8,2.7,12.9,7.6,2.9,12.6,5.2,63.3,5.9,81.3,3,74.9-5,151.6,0,227.1l-19.4,6.6,19,6.3c-2.7,18.7-2.4,91.7-3,155.9,6.8-5,13.6-10.1,20.2-15.4.6-5.8,1.1-11.6,1.4-17.2l12.6,3.1h0Z"/>
  <polygon points="1006.9 848.2 1019.7 842.3 1024.1 834.9 1006.9 837.3 1006.9 848.2"/>
  <path d="M437.9,1111.1l-25.4,9.3c-5.7-19.4,12.1-26.2,12-27.9-.1-4.1-6-11.5-5.8-19.7.5-21.9-3.2-73.7.3-87.3,1.9-7.2,13-1.3,12.9-7.2-25.4-6.5-6.6-36.2-6-56.6,2.3-79.5,1.6-159.3,1-238.8-6.4-5.1-14-11.3-21.4-17-1.1,20-2.6,39.9-4.7,59.7-.7,6.3,2.9,13.7,5.8,19.4l-12.2,5.8,12.8,7.3-7.4,305.6-18.9,6.2,18.2,3c-3.1,15.6.4,57.9,1.8,93.6,3.1,1.1,6.2,2.1,9.3,3.2.4-7.8,1.5-14.7,3.6-19.9,4-9.8,29.1-15.3,23.9-38.4l.2-.3Z"/>
  <path d="M746.8,1117.9c.3-12.1,10.7-20.8,10.7-24.9s-18-26.1-10.2-41.1h25.3l-19.3-16.1c6.3-26.5-15.1-80.4,19.6-85.1-10.6-14.9-23.3-22.8-18.8-44.1,30.5,17.6,27.3-24.4,0-6.4l.4-139.1c29.3,17.6.7-30.5-.5-41-2.6-22.1-4-47.1-4.6-73.9l-13.4-4.8-.4,81.8-37.8-6.5.3-88.8-38-13.4v13.7l12.6-6.3c2.8,22.7,11.9,56,6.1,78.1-1.4,5.1-13,3.5-12.9,7.3.2,8.3,11.2,16.2,13.2,31.2,4.7,35.7-5.6,90.3-5.8,126.8-.2,34.4,9.9,76.9,5.1,113.5l-19.4,3.5,18.9,6.3c-2.4,52-9.8,103.7-10.7,155.9-.3,16.4-.4,34.2-.4,52,7.8-.9,15.5-1.9,23.2-3l.3-84.7,12.6,3.2v-22.1l-12.6,6.4c-7.1-10.5,11.4-80.3,12.2-98.7.6-12.2-6.1-24.1-5.8-37,.8-29.3,7.7-58.9,1.2-85.1l12-3.6-12.8-7.3.6-128.6,37.8-6.2-.2,56.8c-47.5,0-.8,22.6.5,34.6l-6.9,365.2c6-1.3,12-2.7,17.9-4.2-.3-21.3-.7-42.7-.2-64l.2-.3Z"/>
  <path d="M584.3,1060.7c1.1-5.7,12.1.2,11.5-6.2l-12.6-3.1,6.5-128.7,12.9-7.2-13.2-12.2c4.9-82.8.7-164.4,1.4-246.8,0-13.8,10.2-35.8,9.9-37.8-.6-5.2-5.9-12.4-9.1-20.7-6,.8-12,2-17.9,3.5-.4,3.3-1,6.4-1.7,9.3-1.9,7.9-18.6,6.8-19.1,17l19.3,3.4c5.9,30.4-13.3,29.8-13.5,31.8-.4,7.9,11.6,28.1,12.9,43.8,5.3,65.9,4.5,185.9-.3,252.9-1.5,21-4.6,58.9-21.4,69.8-3.3,2.2-12.5-4.2-17.1,5.8l6.2,15.8,25.2-12.5c-4.5,23.3,6.6,119.1-2,131.4-1.4,2-7.5,1.3-10.7,1.5l-.3,9.2c6.8,3.4,10.5,9.9,12.3,18.1,7.1.4,14.2.7,21.4.9.9-46.1-8.2-99.4-.5-139.1h-.1Z"/>
  <path d="M929.5,821.6c6.1-13.3-10.3-17.6-10.7-20-3.1-16.8-6.2-60.1,12.7-62l-13.2-12.2.7-94.4,12.9-7.2-12.8-7.3v-10c-5.8,5.2-11.6,10.5-15.4,11.6-1.2.3-2.3.5-3.3.6l-.2,99.6-19.4,19.1,19.4,6.7-.6,53.5c-4.3-.8-10.8-9.2-12.6-3.2-8.6,28,15.5,0,12.7,19-1.7,11.5-4.7,22.8-7.4,34-2.8,2.7-8.5,0-11.7.7,0,8.3-10.9,15.1,0,22.2l19-3.3c-5.8,87.2,10.6,174.8-14.1,258.9,8.7-4.7,17.3-9.6,25.7-14.8.4-14.1,9.7-31.8,9.9-38.6,2.4-68.8-16.3-198.8,8.6-252.9h-.1Z"/>
  <path d="M873.6,1087l-12.7-3.1.6-233.9c6.1-.8,13.4,1.2,19,0,.2-28.4-17.5-21.7-19.2-29.8-2-9,6.7-26.7.8-39l25-10.1-15.9-9.6-9.3,12.6,3.5-134.5c-6.9,7.4-14.9,13.1-19.7,12.8-2.6-.2-4.9-1-7.3-1.9-1.6,11.1-3.2,22.1-4.8,31.9-1.2,7.7,6.9,21.9,2.7,27.8l-21.6,6.9c-1-22-1.8-44.1-2.4-66.2-6,3.3-13.5,8.8-21.2,14.7,0,33,1.8,65.9,1.8,98.9,0,93.1-6.4,190.1-7.9,284.1-.7,40.8-.6,81.7-.5,122.5,6.2-2,12.3-4.1,18.4-6.3-2.2-47.9,0-137,9.2-159,4-9.5,23-14,23.9-29.5l-25.3,6.1c4.5-7.3.3-11.1,0-15.7-4.6-75.2,4-155,.7-230.7l31.3.5-.6,412.6c4.4-1.9,8.7-3.9,13-5.9,3-20.2-.9-50,18.5-56.2Z"/>
  <path d="M1052.1,644.9c.2-.7.3-1.4.4-2,0-1.7,0-4-.8-7.2l-25.4-.2v-13.3c-6.7,3.4-13.5,6.7-18.7,6.9v180.4c0,0-17.8,19.2-17.8,19.2,4.6-.7,9.2-1.3,13.5-2.9,4.5-1.7,12.9-6.4,22.6-12.4l.2-26.2c23.6,10.6,23.6-16.8,0-6.3l6.3-130.4c6-9.2,17.3,0,19.7-5.7h0Z"/>
  <path d="M73.5,887.9c4.7,8.7,9.7,17.2,14.9,25.6,1.3-9.1,2.4-18.2,3.4-27.4l-18.2,1.8h-.1Z"/>
  <path d="M1080.3,925l2.4-.6v-25.4c.6-3.2,7.7-7.8,15.2-13.5l-36.4-3.5c-2.4,26.4,3.1,70.2,3.2,97.7,6.1-7.5,12.1-15.2,17.9-23v-27.7c-1-.8-1.9-2.1-2.2-3.9h0Z"/>
  <path d="M180.5,626.2c-5-2.1-11-5-16.7-7.3l4,7.8h12.5l.3-.5h-.1Z"/>
  <path d="M652.4,1162.2l-13-6.7,1.2-40.3,12-3.6-12.8-7.3,6.8-162.6,25.4-4-25.3-9.6.3-78.8,19-3.2c1.2-11.1.3-25.5-12.6-28.5l-6.4,9.4.6-217.1-19.3-6.8c.7,16.1,0,32.8-.2,40-1.3,24.5-15.9,52-16.4,57.5-1.8,23.4,39.5,110.4,3.5,145.3,23.3,24,9.5,91.7,2.9,126.5-3.4,17.7,14.2,22.4-15.8,41l19.4,3.6-.3,106.9-19.4,3.4,6.4,18.9,12.6-9.4c-1,20.8-.4,41.8,0,62.8,6.2-.2,12.5-.5,18.7-.9-.2-9.8-.3-19.6-.4-29.3l13.2-7.2h-.1Z"/>
  <path d="M223.8,613.5c-13.4,7.3-26.5,14.5-33,15.5-1.1.2-2.5,0-4.3-.6l-.4,143.7-12.6-3.2v22.1l12.6-6.4v31.7l-12.6-6.4v5.3c8.4,5.1,15.6,9.1,19.6,10.6,4.1,1.5,8.4,2.2,12.9,2.8l-1.1-33.5,12.9-7.2c.5-6.1-9.3-.6-11.5-6-11.5-28.2,7.6-119.2-.7-155.1,27.4-.6,25.5-7,18.3-13.4h0Z"/>
  <path d="M1120.4,887.7v11.3c2-3.5,4-7.1,6-10.7l-6-.6Z"/>
  <path d="M1136.1,728.5c-.2-13.2,1.6-25.5,7.5-35.1-6.6-5.5-18.1-8.9-28.6-12,3.8,9.8,0,23-6.2,40.3l12.2,5.8-19.2,28.3,9.9-3.3c8.8-7.6,17.5-15.9,24.3-24.1h0Z"/>
  <path d="M538.9,1105c-.8-5.7-11.7-1-13-7.4-9.5-44.1,10.5-155.7,11.2-208.6l-2.9-273.5c-7,2.9-13.9,5.8-20.8,8.6,2.8,94.7,10.7,192.2,1,278.7-1.1,9.4-1.3,19.5-12.8,21.8,2-15.5-17.5-15.9-22.4-25.2-7.4-14,3.8-45.7-2.7-63.4l12.6,3.3,6.4-15.9-18.9-.3,5.3-188.5c-10.9,3.1-23.3,6.5-31.3,9.4,15.5,24.2,10.1,52.6,13.9,86.8l-13,4.1,12.6,9.4-12.7,9.4,12.7,3.3c-27.9,6.8-3.8,21.1-2.6,34.7,4.4,49.4-1.8,150.9-4.1,205.4-.7,15.7,3.2,40.3-13.3,44.2,24.9,6.8,3.9,52.4,3.3,75.8-.6,20.5-.4,41.7,0,63.1,7.3,1.9,14.6,3.7,22.1,5.3l-.4-131.8,13.2-122.9,9.4,37.8,22.1-12.4c-.8,34.8-8.4,69.6-10.2,104.2-1.1,20.8,16.9,56.5-9.3,63.2-.9,5.8,9.1,1.2,11.1,4.3,3.1,4.9,3.6,31.5,2.9,65,5.7.9,11.5,1.7,17.3,2.4l.5-87.4,12.7-3h0Z"/>
  <path d="M98.8,675.4c-4.5,2.2-11,4.1-18,6.1-.4,20.9-1,37.3-1.7,43-1,7.7-2.8,13.4-5.2,18.3,7.8,7.4,16.3,14.6,24.1,20.8,0-17,0-34-.2-50.9l12.7-4.1-12.7-10.3,1-22.8h0Z"/>
  <path d="M184.9,836.7c1.2,3,1.9,6.6,2.1,10.4l19.9,9.2-.5-16.5-21.5-3.1h0Z"/>
  <path d="M1006.8,876.7v64.5l-13,7.2c26.7,12.1,6.2,35.5-6.4,53.7l19.4,3.4v35.6c6.3-5.8,12.5-11.8,18.5-17.8l.4-144.7-19-1.8h0Z"/>
  <path d="M198.4,1021.6c-2.5-42.5-.3-91.7,9.6-132.3l-.5-14.4-23.8,2.3c-3.2,14.9-7.4,29.1-7.7,36.8-1.3,36.8,2,75.3,2.7,113.2,8.3,8.1,16.7,16,25.5,23.7,7.4-12.7-4.9-15-5.8-29.3h0Z"/>
  <path d="M147.7,921.5c3.8-5.6,11.8-1.5,12.8-7.3,2.6-14-8.7-7.6-10.9-10.8-1.8-2.7-2.6-11.1-2.7-22.6l-18.3,1.8c-1,25-3.3,42.6-7.5,46.3l-8,.5c-2.7,1.5-6.6,1.3-9.7,1.3-.6,1.9-.9,3.5-.9,4.8,1.7,2.5,3.5,5.1,5.2,7.6,4.1,1.7,9.6,2,11.7,5.6,1.5,2.5,2.6,7.8,3.3,15,6.2,8.1,12.5,16,19.1,23.8,1.6-32.8,4-63,5.9-65.9h0Z"/>
  <path d="M1062.4,722.9c-1.4,2-7.5,1.3-10.7,1.5l-.3,9.2c10.8-2.2,14,28.9,14.2,54,6.6-4.5,12.2-8.4,15.7-10.9.5-.4,1.1-.8,1.6-1.2l.3-113.4c-4.2-2.2-14.8-5.5-22.7-8.2,3,23,9.6,57.9,1.8,68.9h0Z"/>
  <path d="M148.7,623.4c.2-2.9-.2-5.7-.4-8.2-3.9.3-6.6,2.2-7.4,6.8l4.5,27.9c-.9,1.2-9.2,3.9-17.4,6.7-.9,31.3.3,81.2,1,129.8,6.3,4.3,13.7,9.3,21.3,14.3,1.3-20.4,2.5-38.1,2.5-46.3.1-43.2-7.4-87.2-4.1-130.9h0Z"/>
  <path d="M361.3,1136.6h0c-3.8-33.5-3.5-146.2.5-178,1.6-12.6,5-4.3,6.4-37.4,3.6-85.7-3.5-183.3-3-273.4-5.3,1.4-9.4,4.3-14.5,4.6,0,.9.2,1.9.3,2.8l-38.3,9.8c-.4-16.5,0-33.1,1-49.5-7.1,2.2-12,7-20.6,4.7-.5,33.9-.8,68,.5,101.6l-25.3,3.1,25.6,13.5-1.8,121.5-30.5,13.5.7-275.8c-.2,0-.4,0-.6-.2-3.3-.7-9.7,1.6-17.3,5.2.6,12.6.7,24.2-1.2,33.6-2.6,13.4-28.8,31-19,47.4.7,1.2,15.5-12.5,18.9,9.5,1.7,11-.9,23.5-.2,34.8l-12.4-12.6-6.5,37.9,12.5-6.3,5.8,56.7c-3.6,3.9-24.2-9.5-18.8,16.2,3.2,15.5,14.3,12,18,17.1,4.4,6.1-5.5,137.3-8.3,150.5-2.7,12.5-17.1,29.2-16.7,40.4.1,3.8,11.9.5,13.5,12.6.5,3.7.8,16.6,1,32.8,6.1,4.8,12.3,9.4,18.6,13.9v-5.9c0,0-.1,0-.2,0v-.2s-.8-43.2-.8-43.2c11.2,6.9,32.4-1,31.6-15.6l-15.4-9.3,2.1-12.4-18.3-.5c12.3-20,2.7-72.2,7.1-84.5,4.1-11.5,18.5-7.3,23.2-11.7,7.4-7,.8-34.4,14.3-36.3,7.2,47.1-7.5,92.6-10.6,136.9-2,27.9,19.3,91.9-25.6,79.4v8.7c15.6,10.9,31.7,21.1,48.4,30.5l6.1-259.2,13.3-12.1c.9-5.8-9.1-1.2-11.1-4.3-8.4-13.2,9.7-135.3-1.1-163.2l18.9,6.3c-12.1-16.3,3.8-16.2,19-18.8l-.2,44.2-18.8-6.3-6.4,25.1c11.4,5.9,25.5-6.2,25.4,9.7,0,21.7-1.3,29-25.6,28.4,25.2,28.2,25.2,60.5,25.2,97.6,0,53.5-8.4,105.4-9.6,158.4-.9,37.3,0,75.2.9,113,10.8,5.2,21.7,10,32.9,14.5.2-2.4.3-4.9.4-7.3.2-4.2-12,0-13.4-12.3Z"/>
</svg>