<?xml version="1.0" encoding="UTF-8"?>
<svg id="Layer_1" xmlns="http://www.w3.org/2000/svg" version="1.1" viewBox="0 0 1200 1200">
  <!-- Generator: Adobe Illustrator 29.0.0, SVG Export Plug-In . SVG Version: 2.1.0 Build 186)  -->
  <path d="M428.1,1176.8l15.3.7c-2.7-.7-5.3-1.5-8-2.2l-7.3,1.5Z"/>
  <path d="M223.2,1068.9l5.9.7c-.9-.7-1.8-1.4-2.7-2.1-1,.5-2.1,1-3.2,1.4Z"/>
  <path d="M967.4,1031.9c.3-31.7,3.2-53.9,19-80.9l-13.3-5.2,5.4-24.9-13-5.4c7.1-15.4,2.3-40.5,1.6-61.9l-19.9-1.9c-.8,8.1-1.5,16.1-1.4,24,.3,49.5-.8,101.4-1.2,148.5,0,14.9,5.4,29.8,6.7,45l18.6-1.7c4.5-15.3,23.7-20.5,15.8-43.2l-18.3,7.7h0Z"/>
  <path d="M445,1150.1l-32-4c4-28.6,2-57.9,3.7-86.3.4-6.8,7.3-12.9,7.7-15.9.2-1.8-20.6,0-14.8-29.4,1-4.9,11.3-4.4,11-7.8-2-22.7-15.6-58.6-11.5-80.4,1-5.1,22.3-15.7,23.1-28.4l-25.2-1.2c-7.9-21.9,20.6-10.1,24.2-14.5l-2-25.1-7.9,19.5c-11-3.7-14-28.8-12.4-39.1.8-4.7,19.5-6.4,10.7-24l-11.5,13.5c-12.9-24.7,6.7-58.6,6.5-72.9-.4-24.8-17.8-67.5-12.9-97.4,13.3-1.4-1.5,12.9,16.5,11.4,5-.4-3.2-8-1.6-11.7-2.8-2.1-5.5-4.3-8.2-6.2l-1-.3v-.4c-7.9-5.9-15.3-10.6-20-11.9-.8-.2-1.6-.4-2.4-.5l-9.3,8.7,13,3,1.3,17.5-12,11c20.7-3.8,7.2,6,7.8,21.5.8,23,4,46.1,5.7,69.1l-19,4.9,13,5.3c-2.9,29.3,12.4,164.8.6,177.3-1.2,1.3-21-9.4-30.8,8.6-5.9-6.7-4.1-169.8-.7-178.6,2.3-6,12.9-5.3,11.9-8.8-19.4-66.7-9.9-65.7-11.3-126.7,0-3.5-.6-7.3-1.4-11.2-10.7-7.1-24-23.8-23.4-32.6-.9,0-1.7.3-2.5.5.5,25.6,2.3,51.3,6.7,77l-19,5c-1.9,10.5,11,2.1,13.4,9.3,5,15,4.1,39.9-9,50.5l13.2,5.9,1.2,12.1c-21.6,22.2-5.1,27.7-3,50.7,5.2,56.1,10.7,146.6,9.6,202-.3,12.8-7.2-.6-4.1,37.9,2,25.8,3,51.7,4.4,77.3.1,2.2,0,3.9-.2,5.2,8.5,4.1,17.1,8,25.8,11.6.5-.4.8-.9.8-1.5,3-28-27-60.3,7.2-89.3l-20.3-12,1-78.2,17,17.6,20.1-26.7,3.3,44-31.4,6.6,2.8,26.7,24.6-1.3c-3.9,39.1,22,95.6-11.8,119.6,12.2,4.8,24.5,9.2,37.1,13.2,5.4-10.8,18.8-8.1,27.5-19.7h.2Z"/>
  <path d="M950.3,817.1c7.1-5.9,15.8-6.5,24.1-7.8-9.5-4.9-9.1-29.3-8.3-40.4.9-12.3,12.4-9.4,12.3-13.6-1.4-36.6-6.9-49.3-3.9-93.9,1-15.5-.7-31.3-2-47-5.1-2.5-10.9-5.7-16.8-8.9-.2,4.1-.5,8.2-.7,12.4-.7,10.4-7.4,18.4-8.1,27.2-1.8,22,20.3,58.2-22.8,61-.4,11.9,16.6,2.4,23.4,10.3,7.2,8.4,3.7,32.6,6,44.4l-37.7,2.9,24.8,5.3c8.7,15.2,10.5,31.5,9.9,48.1h-.2Z"/>
  <path d="M947.7,846.6l20.1-9.3c1.1-7.3,3.5-13.5,8.2-17.7l-26,3.7c-.5,7.8-1.4,15.6-2.3,23.3Z"/>
  <path d="M917.1,823.9c0-16.3-9.7-35.6-7.3-56.4,1.5-12.8,15-25.3,14-32.8-.7-5.2-11.9-13.3-13.4-30.7-3.4-38.3,12-80.7,14.2-113.6-2.6-.8-4.8-1.2-6.4-.8-7.4,1.5-21.2,18-28.6,21.2l8.9,5.7c-8.6,19-1.5,37.9-2.7,56.5-3.6,56.6-7.1,124.9-8,184.4-.2,10.4,9.5,57.3,7.6,59.6l-37.8,2.9-3.8-50.4c3.8-4.4,32,7.6,24.3-14.4l-25.6-4.4c21.7,1.8,3.6-13.1,3.6-28.8s-3.9-61.5,14.8-61.4c-36.7-25-.2-67.9-1.7-78.7-.6-4.4-9.9-10.7-11.6-18.6-2.2-10.4-2.3-23.6-1.3-38.1-5.4,6.7-12.2,12.8-17.6,15.4-1.8,24.4-5.8,50.4-5.7,71.4.9,108.6,8.3,216.7,8.1,326.1,0,17.1.8,46.6-15.1,51.9l1.2,9.1,12.7,2.6-10.9,26.2,12.7,2,.3,17.4c6.4-2.8,12.7-5.7,18.9-8.7l-2.7-212.3,9.3-.8,7.7,12.6,14.7-7.8c-6.5,21.3,17.5,76.7-6.8,76.5l.5,6.1c20.7-3.8,7.2,6,7.8,21.5.8,21.1,3.8,42,4.9,63.1l-12.8-2.2c-1.4,11.7,10,15,13.7,24.2,7.3-4.2,14.6-8.6,21.7-13.1-4.3-96.6-1.9-188.7-1.9-282.4h0Z"/>
  <path d="M950.6,1084.9c2.6-1.9,5.1-3.7,7.7-5.6l-6.8-3.2c0,2.9-.3,5.8-.9,8.8h0Z"/>
  <path d="M128.1,968.2c3.2,4.1,6.5,8.2,9.8,12.2-1.6-5.5-2.8-11.1-3.9-16.7-1.9,1.8-3.9,3.2-5.9,4.6h0Z"/>
  <path d="M302.4,1109.8c.4-12.3,19-9.2,10.9-28.8l-11.5,13.5c6-27.5-10.3-80.4,12-92.7l-12.8-2.1c-8.5-23.1,5.7-54.2,5-74-.7-19.9-8.9-44.4-9.6-68.5-1.1-38.8,2.2-77.6-2.2-116.5l7.2,12c42.5-13.4-3.2-22.2-7.5-41.5-5.5-24.4,15.1-29.9,14.7-31.7l-12.9-2.3c-2.5-12.6,15.8.2,11.4-16.6-2-7.8-10.9,8.1-12.6.9-3.2-12.9-5.6-49.3-5.1-63.2v-.8c-4.5-3.9-8.8-7.2-11.9-7.9-1.6-.3-3.9,0-6.7,1-.2,18.4-.2,36.8,0,55.2l8.6,152.9c-23.9-9-11.7,10.7-13.1,12.5-2.5,3.2-10.9,4.3-14.9,7.5-1.7,0-3.2-.3-4.5-.5,1.6,1.6,3.2,3.5,4.6,5.8l-28.3-4v14.9l20.1,9.3c3.6-10.3,10.4-19.1,22.1-25.4l11.3,21.1-12.6,4.2,14.2,14.2-1,79.6-26-10.7-5.3,13c.7-19.8-12.7-40.6,9-48.1l-12.8-2.1c-2.3-13-3.3-26.1-1.1-37.8l-18.4,1.8c-.2,6.6-.6,12-1,14.5-1.1,6-11.9,4.6-12.3,5.1-1.2,1.7,16.9,14.9,15.1,33.5l-24.9,5.1,25.6,4.3c-1.6,27.8,9,73.6-19,86.9l1.4,15.7,18.3-7.7c-1,16.1,6.4,37.5,3.9,52.3-.3,1.6-1.6,2.7-3.4,3.6.9.7,1.8,1.4,2.7,2.1l22.4,2.7-1.9-125.8,28.7,4.2-11.8,7.4-5.4,16,19.8,5.1c-4.4,26.9,18.6,75.3-5.7,88.3l7,39.5c6.7,4.2,13.5,8.3,20.3,12.2-.2-3.1-.3-6.2-.2-9.4v.2Z"/>
  <path d="M1117.8,868.1c-.8,4.5-2.4,12.1-4.1,19.9l12.9-3.1c2.7-5,5.4-10.1,8-15.2l-16.8-1.6h0Z"/>
  <path d="M1063.5,654.1c-.5,12.8-1,25.6-1.4,38.5-.7,21.3-.6,42.9,0,64.6,6.4-4.8,14.4-11,22.5-17.8,1.4-23.2,2.9-46.6,4.4-70.1-6.9-2-13.3-3.9-17.3-6.3-4.1-2.5-5.7-5.9-8.3-8.9h.1Z"/>
  <path d="M129.2,906.8c-3,0-5.7-.2-6.7.7-1.1,1-.4,5.8-2.1,7.6-2.8,3.2-8,4.3-9.3,7.8-6.9,19,13.4,26.5,21.6,33.2-2.4-15.7-3.2-31.8-3.5-48.5v-.9h0Z"/>
  <path d="M128.1,659.6c-1.1,1.2-2.3,2.4-4,3.4-4.8,2.8-13.3,5.1-21.9,7.7,3.3,15.4,8.7,33.6,7.6,49.5-.5,7.4-4.8,9.2-8.1,10.6,8.4,7.8,17.4,15.1,25.2,21.1-1.9-25.7-3.1-51.4-2.4-77.3l19-5c1.1-9.2-9.6-5.9-15.3-10h0Z"/>
  <path d="M207.7,1022.4c-5.4-11.3-18.4-1-18.9-1.7-4.5-6.4,4.2-46.9,5-56.5,2.3-26.6,7.8-28.1,7.7-29.9-.9-10.8-20.4-21.3-17-49.1l19-4.8-20.9-20.6v-1.8l-18.4,1.8v1.2c1.5,18.8,2.5,37.7,4.6,56.5l-19,4.9c3.5,22.1,19.5,25.2,21.5,52.2,1.1,14.8,1.3,29.5,1.1,44.2,6.3,6.4,12.7,12.7,19.3,18.8,3.2-6.6,8.8-12.5,16-15.1h0Z"/>
  <path d="M65.2,869.3c2.2,4.3,4.5,8.7,6.8,12.9,0-4.5-.3-9-.4-13.6l-6.3.6h0Z"/>
  <path d="M1122.1,687.9c0,2.4-.2,4.8-.3,7.1,0,0,0-.2,0-.4.7-2.5.7-4.8,0-6.8h.1Z"/>
  <path d="M113.6,864.7c-1.6,10.8-5.2,19.5-7.3,29.1l23.5,5.5c1.9-11.1,7.2-19.3,7-23.4-.2-4.5-.4-9-.7-13.5l-22.5,2.2h0Z"/>
  <path d="M1063,900l14.3-3.4c.3-10.7.6-21.5,1-32.3l-15.1-1.5c.9,9.7.6,22.9-.2,37.2h0Z"/>
  <path d="M1085.2,926.1c0,1.2,0,2.5.2,3.9v-1.9c0-.7,0-1.4-.2-2Z"/>
  <path d="M1059.9,959.4c6.6-7.5,15.7-10.1,21.1-16.3-.4-8.4-1.8-17-2.8-25.5-.9-.6-1.9-1.4-2.8-2.4-1.6-1.8-.9-6.6-2.1-7.6-1.5-1.3-6.6-.3-10.8-1-1.7,25.9-4.5,54.1-4.5,71.2s0,4.9,0,7.3c4.2-4.9,8.3-10,12.3-15-6-3.9-11.3-7-10.6-10.5v-.2Z"/>
  <path d="M1023.3,860v-1l-20.4-2c-.7,14.9-1.1,29.2-1.2,42.6,0,21.7,4.4,88.8,5.5,138.9,6-5.6,12-11.3,17.8-17.2-1-55.9-2-110.6-1.7-161.3Z"/>
  <path d="M240.6,1078.5c3.7,2.8,7.4,5.5,11.1,8.2l-.2-12c-3,1-6.8,2.3-11,3.8h0Z"/>
  <path d="M233.4,609.3c-9.3,5-17.8,9.3-22.8,10.3-3.4,9.5-7.8,16.6-12.9,14.5l20,8.2,3.3,50.2-4.6,22.4c-.4-20.7,3-29.3-20.9-23.8l5.5-13-19.6-2c.6-22.7-5.2-46.4-5-68.8-7.1-1.8-12.7-1.1-13.8,5.7l4.3,26.6c-.6.8-4.3,2.2-9,3.8-.4,44.4,0,88.3,1.5,131.6,7,4.7,14.7,9.8,22.1,14.5l-.7-43.4,19.3-36.3c21.6,25.5,22.1,54.4,22.9,90.2,0,2.3.1,5.6.1,9.5,5.1.8,10.2,1.4,15,3.2,0-4.4,6.9-10.3,6.7-14.3-3.5-58.4-1.4-126.3-9.9-177-.7-4-1.2-8.1-1.5-12.2h0Z"/>
  <path d="M636.5,1088.3c13.1,2.3,20.6,27.4,32,7.1l-15.1-33.7-17.8,14c.6-35.1-4.4-73.5,11.2-105.2l-13.7-6.1-2.3-36.4,11.4-7.3c-15-64.6-8.2-133.4-3.5-197.4,1.1-14.7-12.7-39.9-8.9-60.6,1-5.3,12.8-4.5,12.2-8.3-1.2-8.7-10.7-12.6-11.7-18-1.8-9-2-23.5-1.4-40.4l-18.5-6.6c-2.3,9-3.1,18.7,3.5,29.1-19.4-4.5-18.2,9.7,1,12.6-17.2,26,1.9,61.9,1.1,95.3-1.6,69.1-8.6,145.4-6.4,215.1.6,20.2,10.9,46.1,8.5,68.3l-12.3,5.1,13.7,8.7c-12,36-.8,77,0,115.9.2,11.7-5.5,21-5.4,29.4,0,7,2.8,18,5.1,29.2,6.5-.2,12.9-.5,19.4-.9-.5-1.4-.8-2.7-1.1-4.1-5.4-29.7,8.9-71.9-.9-104.5v-.3Z"/>
  <path d="M781.3,1166c-15-2.7-17.2,3.3-20.8,10.4,7.4-2,14.7-4.2,21.9-6.5l-1.1-3.9h0Z"/>
  <path d="M689.8,1125.5c-.7-9.3,8.6-37.3,3.7-52.7,47.8-34.8,32.2,15.7,33.5,43.7.9,19.3,6.5,45.4,4.5,62.7-.2,1.6-.6,3.2-1.2,4.8,6.8-1.5,13.6-3.1,20.4-4.9l-5-67.2,13.4,11.6c10.5-26.1-5.9-12.9-8.8-27.3-18.9-92.4-1.2-234.9-2.5-331.5-.3-23.1-10.7-51.4-8.5-76.3l27.4,29.5-14-17.8,12-7.2c-16,3-23.8-38.8-23.3-52.4,0-1.1.3-2.6.6-4.4l-18-6.4c0,79.3,7.2,164.2,4.1,240.3-.5,12-12,9.5-11.5,12.6,5.3,38.2,18.3,76.6,8,116.9-4.1,0-8.6,1.3-12.5.9,2.3,5,10.5,5,11.8,8.5,2.4,6.5,1,25.6,4,34.5l-37.1,2.4,2.1-50.2c8.4-3.7,14.8,4.4,19.3,4.9-9-19.5,8.9-33.8-8-56.1-11.2-14.8-17.6,2.8-18.1-39.9-.6-47.9,3.6-96.8,1.5-144.9l12.3-5.1-14.4-14.4c2.6-40.7,3.8-81.6,4.6-122.5l-19.3-6.8c-.2,3.2-.5,6.3-.7,9.2-1.1,14.8,1.6,44.9-14.7,43.3,22.2,58.3,14.8,147.9,13.9,215.2,0,9.8-2.4,20-3.1,29.7l-17.8,2.2c.8,9.8,15.3,8.1,18.9,12.5,3.9,4.7,6.1,107.5,3.8,120.8-1.1,6.6-11.9,2.5-12.2,8.2l12.8,2.1c2.3,34.8,8.7,66.5-18.2,93.3l13.4,11.5-10.8,23,17.8-14,1.3,25.7c6.5-.8,13-1.7,19.4-2.8l-4.9-65.3h0Z"/>
  <path d="M821.6,1112.4c5.5-5.8-35.5-38.2-3.6-47.1-26.1-21.5-13.2-65.7-19.8-96.7l25.3,1.2-20.2-11.3c-1.4-31.4-5.1-63.2-5.3-94.5-.6-71.9,1.4-147.2,4.2-223.7-6.8,3.7-15.6,10.3-24.4,17.1,2.1,13.9,9.4,31.8,6.7,46.4l-13.4-11.6c2.5,29.4,15.4,61.5,13.6,91.2-.7,12.2-12.5,9.5-12.3,13.6.3,6.8,15.1,68,11.8,71.4l-25.5-4.4,20.4,14.4c4.1,54.9,2.2,109.1,2.8,164.1.3,26.3.2,48.6,1.7,69.3,1.4,18.7,2.8,37.5,4.1,56.2,6.6-2.2,13.1-4.4,19.6-6.8-.2-14.9-1.4-29.7-4.9-44l19.1-4.9h.1Z"/>
  <path d="M588.3,1198.1c3.5,0,7,0,10.5,0l-1.8-5.5c-3.1.7-6.1,3.5-8.7,5.4Z"/>
  <path d="M580.6,1190.5c-2.6-44,9.9-77.8,29.4-116.1l-16.8-7.8c5.3-27.9-9.8-25.1-11.1-29-4.7-14.4-6.9-33.4,9.8-37.7-23.2-2.7-18.6-86.9-13.1-105.4,4-13.5,35.7-21.9,26.6-50.6l-18.7,5.6-10.4,28.1c1.3-59.5-13.1-133.6,11.1-187.5.4-5.6-8.9-.8-11-3.6-2.8-3.8-3.7-48.3-3-92.7-6,1.6-11.8,3.5-17.7,5.6,0,7.7.4,15.5,1,23.2-15.9,44,9.6,106.1-1,150.8-2,8.4-17.6,10.1-17.7,15.4,0,3,16.2,15.9,17.8,23.9,1.8,9.4-4.5,23.5-3.6,34.3,3.1,36.2,9.8,71.6,4.4,108.1l-7.2-12-18.1,10.8,19.7,11.1-24.3,11.4c-3.3,16,14,13.4,18.7,18.7,1.5,1.7-1.4,9.8,1.5,15.5,5.1,10.1,15.4,12.9,16.2,28.7.7,15.9-13.8,33.2-13.6,39.9.7,17.2,40.6,53.8-17.2,55l4,12.2,28.8,1.2-11.3,19.8,12.4,4.8.7,25.1c4.9.3,9.9.5,14.9.6-.6-1.5-1-3.8-1.3-7.4h0Z"/>
  <path d="M1024.2,695.8c-.4-25.5,0-58,7.5-85.1-2.7-8.1-11.5-4.8-21.1,0,0,.9.2,1.9.3,2.9,4.4,50.2-.2,117-4.3,180.8,5.1-3.2,10.6-6.7,16.1-10.2,1.1-24.3,5-47.3,16.1-64.7-16.2-4.4-14.3-7.4-14.5-23.7h0Z"/>
  <path d="M540.7,1162c-.6-7.9-11.7-14.8-14.2-24.5-9.4-37,7-83.8-3.1-122.9l13,5.4-1.9-25.2-12.5,3.9c0-29.8,4.2-60.1,3.8-89.8-.3-22.3-21.7-79.9,8.6-85.2-21-21.4-27.1-80.7-1-97.9l-13.6-6.2c5.3-25.4-6.7-51.5-5.9-75,.4-12,12.1-9.5,11.6-12.6-1-6.3-1.8-12.8-2.6-19.4-5.7,2.4-11.5,4.7-17.2,6.8-2.5.9-6.2,2.1-10.4,3.3.2,9.4.4,19.3.9,30,2.1,52.2,7.2,113,5.6,163.8-.4,12.7-16.5,22.8-2.9,41.6l-26.5-16.9-4.6,22.5,31.6.7,8.3,195.5c-17.7-5.9-21.2-26.6-22.2-42.6l-17.8,13.9-3-34.2,19-5-14.3-14.6c-2.4-102.5-10.3-206.7-9.9-309.4,0-9.6-.3-22.1-.5-34.8-4,1.4-7.2,2.7-8.8,3.8-4.9,3.3-6.2,8.7-6.2,14.6.2.9.2,1.7,0,2.6.5,8.5,3.1,17.9,1.6,24.7-1.4-.9-3-2.1-4.8-3.5h0c3.6,63.1-2.7,124.1-1.8,183.6.8,54.7,16.7,111.4,9.1,167.2l-32.3-10.2c7.4,19.4,12.4,20.8,32.9,16.5l4,138.9-17.5,3.5c2.6.8,5.3,1.5,8,2.2l10,.5c0,.7-.2,1.4-.2,2.1,6.3,1.6,12.7,3.1,19.1,4.5l-.3-20.4c-.1,0-.2.1-.4.2v-82.3c54.9-5.9,41.2,60.5,5.1,79.9l2.9,11.9,28.6-25.2,2.1,42.9c6.6,1,13.2,1.9,19.9,2.7h0c.6-14.3,11.2-24.6,10.6-32.2v.3Z"/>
</svg>