<?xml version="1.0" encoding="UTF-8"?>
<svg id="Layer_1" xmlns="http://www.w3.org/2000/svg" version="1.1" viewBox="0 0 1200 1200">
  <!-- Generator: Adobe Illustrator 29.0.0, SVG Export Plug-In . SVG Version: 2.1.0 Build 186)  -->
  <path d="M370.7,964.8c4.6-18.5-12.5-11.4-14-24.6-2.8-24.2,7.2-53,7.1-78.7-.1-26.7-11.6-168.9-5.1-178.2l22.4-9.6c-19.2-3-9.8-15.7-13.9-22.9-4-7.1-13.2-3.6-13.3-13.9,0-7.5,3.3-21.9,7.3-36.2-9.5,4.9-18.6,10.7-27.8,16.7-.1,13-.2,26-.2,38.9-.2,85.1,9.4,172.5,11.2,257.7l-25.4,11.4,19.8,27.7-25.2,4,25.4,5.5,4.2,145.2-9.7-12.3-9.1,16c14.8,5.4,18.9,17.1,19.5,31.1,6.6,3.1,13.3,6.1,20,9-1.4-63.4-1.9-126.6-6-189.7l12.7,2.8Z"/>
  <path d="M919.1,642.4c-4.2-1.8-8.3-3.7-12.4-5.9-2,10.3-14,13.8-13.9,15.2,4.7,59.8,4.4,102.1,3.3,154.1,6.4-8.5,12.6-17.5,19.1-24.3-.1-1.2-.3-2.4-.4-3.6l3.6.5c2.8-2.4,7-5.4,11.8-8.6-12.6-40.2-12.9-83.6-11-127.4Z"/>
  <path d="M278.8,646.7c-1.3,6-2.7,11.8-4.4,17.4l8.3,108.3c3.9,2.8,7.3,5.2,9.3,7.2,3.3,3.2,6.5,7,9.7,11.1,1.3-49.9,3.4-99.7,5.7-146.4.2-3.2,0-6.7-.4-10.3-9,5.2-18.3,9.7-28.2,12.7Z"/>
  <path d="M947.2,1046.7l1,5.4,6.3-1.8c-1.5-1.1-2.8-1.9-4-2.4-1-.5-2.2-.8-3.4-1.1Z"/>
  <path d="M953.5,980h-2.9c-.2,3.8,0,6.1.6,7.5,2.1-1.5,3.5-3.3,2.3-7.5Z"/>
  <path d="M761,1133.5c38.9,12.2,18.3-15.8-12.8-6,11.2-92.4-2.3-188.4-2.5-281.4,0-59.5.9-119.2,2.4-179-4.3,2.8-8.8,5.5-13.2,8.3v12.4s-12.4,7.4-12.4,7.4l12.3,5.4c-11.4,42.3,0,89.8-1.5,133.7-.4,10.6-12.8,32.2-10.7,37.9,1.3,3.4,10.4,2.2,11.7,7.1,2.5,10,3.4,45.2,2.3,56.2-1.2,12-12.3,8.8-13,13.6-1.8,12.6,9,25.9,8,36-.4,4.4-10.7,3.8-11.8,7.4-6.1,18.7,40.5,76.8-4.7,88.7l19.2,2.6,3,100.5c4.1-1,8.2-2,12.3-3-.5-10.5-.9-21-1.1-31.4,1.5-9.2,29,5.2,12.5-16.3Z"/>
  <path d="M432.4,918.7l-19.6-6c1-45.7-4.5-92.4-2.7-137.8,1.1-26.8-2.2-79,21.6-90.1l-19.4-12.1,12.5-6.5c-11.4-13.7-14.6-29.3-14.3-45.8-1.2-1.2-2.4-2.4-3.8-3.6-1.3-1.2-4.7-3.6-9-6.4-.7,15.6-2.2,32.4-17.8,38,.4,5.9,11.1-.2,13.1,6.8,1.6,5.7,4.7,113,3.8,118.9l-19.2,7.2,12.9,5.9-12.4,9.8,12.8,2.8-12.4,9.8,19.4,2.9c-5.1,42.2,9.2,108.4-6.6,147.2-3.8,9.3-16.1,6.6-14.5,11.2,19.3,3.9,6.6,9.9,8.9,14,1.1,2,9.8-.6,11.4,10.3,4.3,28,7.7,64.8-17.1,79.9l19.5,2.9c-4,26.7,4,63,2.4,87.9,0,.2,0,.4,0,.6,7.7,2.7,15.5,5.2,23.3,7.6l-11.8-236.1,18.8-19.3Z"/>
  <path d="M471,1171c-3-19.6-8.3-78.1,10.8-83l-.8-9.1c-27.2.4-3.9-19.1-3.5-28.5,3.9-104.9-28-229.5,5.9-329.2-10.2-3.2-14-26.6-15.3-50.2-6.5-4.1-12.9-8.3-19.1-12.7-.9,9-1.7,17.9-2,26.5-.8,22.3,15.2,56.8-7,62.9,22.5,137.9,14.8,289,12.8,434.1,9.5,2.4,19,4.6,28.7,6.5,4.3-11.1-8.6-5.7-10.4-17.3Z"/>
  <path d="M579.8,1008.8c1-11.9,11.8-8.4,11.9-12.3,2-75.5-13.5-165.4-14.9-245.8-5.4-5.3-10.8-10.7-16.3-15.8-.1,5.2-.3,10.5-.4,15.7-.7,31.9,17.9,101.5-22.4,98.7l26,16c-3.5,43.7,8.3,96.2,4.4,138.4-1.1,12.1-12.4,8.8-12,12.1,4.5,44.9,12,91.8,8.8,138.4l-11.9,8-24.6-3.2-2.3-451.8c-5.3-3.7-10.7-7.2-16.2-10.6-1.3,30.2-10.7,62.7-10.7,87.4,0,37.7,18.5,100.3-3.6,132.9l13.3,11.9v12.2c.1,0-12.4,7.3-12.4,7.3,26,48.3,7.9,125.2,9,183.1.4,20.1,1.5,40.7,2.9,61.5,6.6,1,13.2,1.9,19.8,2.7-1.2-17-.9-30,3.3-30.3l34.1,6.1,1.4,8.4v19.1c4.6.2,9.2.4,13.8.6-2.5-68.1-5-140.6-1-190.9Z"/>
  <path d="M714.8,1062.1l-12.9-5.9,12.4-9.8-19.4-2.8c-.3-17.2-5.9-26.5,12.2-31.8-20.2-1.6-14.2-53.9-11.5-73,1.5-11.2,12.6-23.9,12.5-28.2-.1-3.8-10.5-12.5-11.4-24.6-3.7-44.9-8.2-121.4-4.6-164.6.3-3.5,30.1,11.9-1.1-18.5,0-.3,0-.5,0-.8-8.2,5.3-16.2,10.7-23.4,16.4-1.5,12.2-3.2,24.4-5,36.7-.6,4,24.5,58,13.7,77.3l-38.1-5.2c4.7-25.4-.9-54-2.2-80.3-5.7,5.6-11.3,11.2-16.7,16.5,1.7,37.9,2.9,75.6,1.7,111.9-.4,14.2-14.8,38.7-9.9,50.7,10.7,26.7,15.7,30.4,12.6,68.5-5.6,67.5-5.6,136.1-3.8,205.1,7-.2,14-.6,21-1-.4-72.6-.9-145.7,6.7-215.4l-8.9-133.8,19.1-3.9-12.9-12.1c31.3-4.4,31.8,39.4,33.7,64.9,2.1,28.4.4,57.3,2.3,85.7l-12.8-2.8c2.9,10.5,7.1,19.7,7.7,30.9,2.5,46.6,9,127.7,7.8,182,5.2-.7,10.4-1.5,15.6-2.4-.5-32.7-1.3-65.2-2.5-97.7-.6-17.3,3.5-25,18.1-32Z"/>
  <path d="M979.4,1021.5c-.3-1-.5-2-.7-3.1-.1-.2-.3-.5-.4-.7l-11.6-6.8-1.5-4.9,11.5-6.8c-.2-2.1-.3-4.3-.4-6.5-4-1.4-11.1-1-17.7-.2,0,0,0,.2,0,.2,4.8,17.1,1.9,26-7.2,30.4,10,1.3,26.6,3.5,27.8-1.6Z"/>
  <path d="M974.7,952.1c-.7-25.8-.9-52.1-.5-68.6.3-13.6.4-20.3.1-26.3-2.2.6-3.7.7-4.3.2,2.5-2.9,3.6-5.3,3.9-7.4,0-.8-.1-1.6-.2-2.5-2.1-7.5-18.7-8.8-22-11.5,2.5,39.1,6,96.2-1.6,101.3l-24.3,4.7,31.7,2.3-12,7.1,6.2,15.2-14.8,5.4c4.9-.9,9.8-1.5,13.6-3.2,6.1-2.7,17.6-15.4,23.6-16.6.2,0,.4,0,.6,0Z"/>
  <path d="M1029.8,873.3l.5-13.5h-13.1c2.6-4,15.8-9.5,7.1-15.4-2.7-1.8-7.7-1.4-13.7.1,1.9,5.8,2.7,20.6,3.1,39.3,5-3,11.2-6.7,16.1-10.4Z"/>
  <path d="M184.6,844.4c-8.6,5.9,4.6,11.4,7.1,15.4h-18.7c.3,2.9.5,5.7.8,8.5,3.6,4.3,10.6,8.9,17,12.8,0-3.9,0-7.9.4-11.8.9-8.3,1.3-17,1.5-25.9-3.5-.4-6.3-.2-8.1,1Z"/>
  <path d="M916.3,1061.9c1.2-12.2,12.6-8.5,12.1-12.3l-3.4-8.8c-1.8-1.1-3.4-2.4-4.6-4.2h3l-1.1-2.8,22.1-.9.7,3.7h8.3l-7.7-11.5c-4.7,1.2-10.4,1.7-17.1,1.9-5.2-3.4-22.2-120.3,8.9-114l-13-12.1,12.6-.5c2.4-9.8-8.6-4.3-10.5-7.9-12-22-11.4-49.3-10.9-75.8-7.2,1.8-14.1,3.2-20.2,4-.2,8.7-.4,17.8-.6,27.3-.3,16.1,8.6,89.1,4.1,96.8-1.8,3.1-12.1-1.2-11,4.6,20.4,3.6,21.2,39,1.4,44.2,29,32.6,4.1,84,7.4,127.9,7.4-4.2,14.7-8.6,21.9-13.2-2.2-15.4-4.1-30.8-2.6-46.4Z"/>
  <path d="M813.3,1058c-2-135.3-4.2-268.4-3-403.2,0-7.8-1-24.3-2.1-42.9-2.9,2.2-5.4,4.2-7.1,5.8-3.7,3.4-7.4,8.3-11.1,13.3-1.3,45.9-2.3,91.8-1.4,137.7l-19.3,4.1c19.5,17.6,23.7,46.5,21.7,72.4-.9,12.1-13.4,9.1-13.2,12.8.3,8.4,10.3,17.2,11.5,27.8,5.8,51-5.2,115.6-5.3,167.8,0,20.8,18.5,56.2-4.4,63.3,10,9.6,13.7,30,14.9,50.8,3.7-1.3,7.3-2.5,11-3.9-2.9-34.4,8.2-75.6,7.8-105.8Z"/>
  <path d="M972,820.4c-.3-5.2-.4-10.4-.6-15.6-6.1,0-13.4,1.4-21.3,3.2.3,6.3.9,15.7,1.6,26.7l20.3-14.2Z"/>
  <path d="M301,818.7c-6.4-1.4-13.1-3.1-19.9-4.9-1.1,38.9,6.2,77,6.6,116,.2,16.3,0,32.7-.2,49.2.3.4.6.7.9,1.1h-.9c-.3,18.8-.7,37.7-1,56.6h1.9c-.6.8-1.2,1.5-1.9,2.2-.3,16.4-.4,32.7-.3,49,0,9.1.4,16.7.7,24.1,5.8,3.5,11.6,7,17.5,10.3-2.5-54.3-3.1-110.4-4-161.7-.8-45.2-.5-93.4.5-141.9Z"/>
  <path d="M1014,913.1c0,3.4,0,6.9,0,10.4,4.9-3.4,8.2-6.8,5.6-9.5-.3-.3-2.6-.6-5.6-.9Z"/>
  <path d="M1019.5,702.9c.8-2.5,0-5.5-2.3-7l-5-3.1c.3,4.7.7,9.3,1,14,3.5-1.2,5.9-2.4,6.4-3.9Z"/>
  <path d="M228.7,805.9c-.9.3-1.8.8-2.6,1.5.2,1.9.4,3.9.5,5.8l18.7,13.1c-.6-7.1-1-14.1-1.2-21-6.1-.7-11.5-.7-15.5.6Z"/>
  <path d="M246.6,839.7c-8.3,2.6-16.7,6.9-7.6,17.7-1.1.9-4.9-.3-10.2-2.2-.2,21.4-3,41.4-11.3,57.4,21.9,6.7,18.2,30.5,1,41.3,6.5-1.2,13-2.3,16.3-1.7,5.9,1.2,17.2,13.7,23.4,16.5,3-2.4,6.7-3.9,11.3-4.1l-23.4-21c8.1-32.3,3.7-68.9.5-104Z"/>
  <path d="M209.4,907l1.7-.6-3-.9c.4.6.8,1.1,1.4,1.6Z"/>
  <path d="M973.7,1064.3c-3.3-.9-8.2-5-12.8-8.9v23.9c4.5-3.3,8.8-6.6,13-10l-.2-5Z"/>
  <path d="M191.8,921.1v-7.5s.5-.2.5-.2c-1.6.2-2.7.4-2.8.6-2,2.1-.6,4.5,2.4,7.1Z"/>
  <path d="M967.5,733.6c0-4.7-6.2-8.9-3.6-13,1.7-1.9,5.4-3.5,10.1-4.9,1-14.8,2.1-29.5,3.2-44.2l-22.2-13.6c-.5,32-2.1,64.6-3.5,96.4,9-7.2,16-14.5,16-20.7Z"/>
  <path d="M245,720.6c2.3,4.8-3.5,8.2-3.6,13,0,5.6,5.7,12.1,13.4,18.6-3.8-33.9-6.2-55.5-7.2-89.1-6.8,4.1-14.6,8.6-22.1,12.9-1.2,12.2-2.4,24.4-3.2,36.6,10.6,1.9,20.3,4.1,22.8,8Z"/>
  <path d="M230.6,998.9l11.6,6.8,1.5,4.9-14.1,8.3c-1.5,6.2,7,6.5,16.1,5.6-.3-10.7-.2-22.2,1.5-32.2-10.6-1-21.3-.7-16.5,6.6Z"/>
  <path d="M877.1,1000.4c-29-61.7-12.9-183.7-11.4-255,1-44.4-7.5-88.6,2.1-132.9-7.3-4.9-14.6-9.7-21.8-14.1,1,19.4,2.1,38.8,1.9,58.2l-25.3-5.5c5.3,8.9,19.3,14,19.7,27.8l2.7,91.6-25.2,3.9c.2,6.6,12,.4,17.6,3.8,7.9,4.8,6.1,78.2,4.1,89.3-.8,4.7-10.3,3.9-11,7.7-2.1,10.9,14.7,27.7-6.7,31.8,28.5-.8,25,101,19.2,110.3-2.6,4.2-10.5,6.1-15.6,6.6l.2,6.1c35.2,5.4,13.1,60.9,12.2,85-.4,9.8,2.2,21.5,4,33.3,7.3-3.3,14.5-6.6,21.7-10.2l-.7-130.3,12.5-7.6Z"/>
  <path d="M234.9,1064.5c-2,.4-5,.2-8.5-.3l.3,5.6c7.3,5.8,14.7,11.5,22.3,16.9-.7-10-1.6-20.1-2.1-30.2-4.5,3.8-9,7.4-12,8Z"/>
</svg>