<?xml version="1.0" encoding="UTF-8"?>
<svg id="Layer_1" xmlns="http://www.w3.org/2000/svg" version="1.1" viewBox="0 0 1200 1200">
  <!-- Generator: Adobe Illustrator 29.0.0, SVG Export Plug-In . SVG Version: 2.1.0 Build 186)  -->
  <path d="M202.1,983.5c-.1-3.6-13.2,0-14.1-12.1-.9-12.7,5.8-25.8,5.8-38.4,0-1.8,0-3.7,0-5.6-5.4-.6-12.7-2.1-20.2-3.6.3,7.6.4,15.3.3,22.9-.1,8.1-.5,17-1.1,26.2,4.4,3,8.8,6.1,10.9,9.5-16.2,10.1-10,21.6-.2,34.3-3.1,2.6-5.5,5.5-7.2,8.4,4.2,4.2,8.5,8.3,12.8,12.4.1-7.6.5-14.8,1.1-21.3,1.3-12.7,12.2-23.6,11.8-32.5Z"/>
  <path d="M973.4,957.9c1.9-3.1,11.8,1,10.9-4.8l-.5-9.3c-21.9,3.2-6.6-16.8-6.8-34.4-.1-7.8-.9-19.4-1.8-32.2-1.8-.1-3.5-.3-5.3-.4-5.2-.4-10.5-.4-15.7-.2.5,5.3,1.4,10.1,3,14.2l-19.1-2.5c26.4,16.4,20.9,30.2,20.7,59.9-.2,40.9-8.5,27.6-16.2,44.3-8.3,18.3,9.3,21.9,9.9,23.3,16.8,35.1-28.7,29.2-28.5,34.1l32.6,12.5c-2.3,7.3-3.2,15-3.2,22.7,7.3-5.3,14.4-10.8,21.4-16.4-3.3-51.6-5.7-103.3-1.2-110.8Z"/>
  <path d="M692.5,1132.5c1.2-170.5,4.1-349.4,4.3-521.7-7.2-2.5-14.5-4.6-22-6.2-1.3,36.8-4.1,80.5-4.1,92.9,0,30.3,6.3,60.6,5.3,91.2l-25.3,3.9c21.7,3.3,3.6,12.6,9.9,21.9,2.8,4.1,12.6,3.4,15.2,8.9,1.9,4.1-.3,33,2.4,41.1l-25.2,3.9,13,9-12.4,6.7,19.1,2.6c6.2,27.7-12.2,21-12.1,25.7l13.6,11.8,4.6,198.6-24.1,11.1c14.1,6.2,20.4,14.4,24.5,29.8,2.7,10.3-1.5,22.3-4.8,31.7,7.2-.9,14.4-1.9,21.6-3.1-1.5-19.8-3.8-39.7-3.7-59.8Z"/>
  <path d="M748.8,1124.3c1.3-12.2,12.9-8.9,12.9-13.1.1-59.8-14.5-130.7-12.9-195.6.3-12.6,12.2-40.3,10.7-44.2-1.7-4.4-12.5,2.2-12.5-17.9,0-31.5,18.5-37.2,18.4-39.5-.3-11.9-18.8-54.3-15.7-80.4.6-4.7,10.9-3.7,12.4-8.6,3.4-11.4-17.8-35.8-13.7-39.7l19-.7-12.7-28.2,10.3-8.7c-.7-.5-1.4-.9-2.1-1.4l-16.2-2.4c.4-2.5.5-5.1.6-7.7-5.4-3.4-11-6.7-16.5-9.8-.5,21.2-1,42.3-1,63,.1,85.6-2.9,170.1,1.5,252.1l-13.1,7.2c12.3,23.8,17.9,55.1,16.1,82-.1,2.1-5.2,9.4-8,18.5-2.2,7.2-10.2.3-10.8,6.9l18.7,3c3.9,21.6,3.2,32.3-17.3,41.2,29.5,10.4,13.8,20.2,13.7,43.5,0,13.9,0,27.9.2,41.8,6.4-1.4,12.7-2.9,19.1-4.6-1.9-19.8-3-39-1.1-56.8Z"/>
  <path d="M244.8,742.7l12.6-7.6-13.2-6.8,11.7-50-13.5-6.1,12.1-25.6c1.9-5.6-8.8-1.6-10.7-4-2.2-3-1.2-16.2.4-30.3-5.7-.2-11.4-.3-16.9-.4l.2,180.1-12.6,7.6c8,1.2,13,9.2,15.1,18.9,5.6,3.7,11.1,7.3,15.4,10.3-.7-16.1,5.5-32.1,20-37.1l-19.6-6-1-43Z"/>
  <path d="M918.5,1093.9c1.3-12.5,13.2-9.3,13.1-12.9-.3-13.2-26.5-55.4-15.9-81.2l19.3-4.1c-31.7-30.2-14.6-43.2-14.8-78.3,0-6.8-.6-21.1-1.5-39-3.9,0-7.8,0-11.7-.3,2.2-3.1,6.5-6.4,11.3-9.6-2.7-57.7-6.8-142.6-2.8-149.4,1.9-3.1,12.1,1.2,11-4.6-26.3-6.9-13.1-37.5,4.7-50.8l-13.5-11.7c1.1-12.6,1.9-25.3,2.5-38.2-7.9.5-15.2,1.1-21.7,1.8l3,93-19.2,4.1c-2.4,10.5,11.1,2.6,13,9.9,2.4,8.9-.6,20.7,1.2,30.4l-19.2,7.2,19.6,6c1,73.7,2.3,147.1,1.5,220.8-.3,26.6,20,52.5-18.4,70.3l19.5,5.8c.8,18.6.6,37.6.2,56.6,6.3-3.7,12.6-7.4,18.8-11.3-.5-3.8-.6-8.6,0-14.7Z"/>
  <path d="M1065.1,691.7c-1.4,13.8-.2,29.3.8,45,6.7,0,13.5,0,20.1-.3-1-2.4-1.7-4.9-1.9-7.7-.4-5.5-.6-11.3-.7-17.1l-.3-.2c.1-.2.2-.3.3-.5-.2-20.5,1.2-42.6-.1-63.6-3.3,2-6.3,3.1-9,2.4-2.9-.8-8.2-4.7-14.3-9.7-3.5,17.7,1.5,40.9-14.6,45.6l19.6,6Z"/>
  <path d="M423.2,1039.9l-11.7-208,19.3-4.1-15.7-78.9,12.9-12.5c-8.3-19.2-13.2-45.1-15.9-72.6-6.2,4.4-12.5,8.8-18.8,13.1-.2-.6-.5-1.3-.7-1.9,2.4,14.3,5.3,29.3,3.7,43.7-1.3,12.3-13.2,9.1-13.1,12.8.1,7.4,12.5,25,14.8,43.5,3.2,26.1-7.5,48.2-7.8,69.6-.6,44.2,7.8,96.2,7.6,139.4-.1,24.3-12.8,47.2-11.7,63.5.7,11.5,11.6,8.5,12.8,12,1,2.8-3.7,41.1-3.3,56.8.4,16.2.8,32.3,1.2,48.5,7,2.5,14.2,4.9,21.3,7.2-.5-31-.9-61.9-1-92.9,0-15-15.8-30.6,6-39.2Z"/>
  <path d="M946.7,761.5l-18.7,6.9,19.1,5.7-12.2,12.9c17.2,3.1,20.2,20.9,20,41.7,4.7-3.3,10.7-7.3,16.8-11.3-.1-8.9.2-16.3,1.1-21,1.4-6.8,12.3-1.8,12.7-7.8,2.7-14.7-9.7-6.6-11.8-12-.9-2.2-4-45.7-2.7-47.6l19.1,5.7c2.4-2.3-45.8-46.9-8-50.4l-.3-12.4-12.3-2.4c.6-9.6,15.2-34.3,15-38.9-.2-4.7-3.3-11.3-6.5-18.8-8.1,0-16.7.2-25.3.5.3,18.8.6,37.1.6,54.6,0,16.8,1.6,79.4-6.8,85.4l-19.2-2.9,19.3,12.1Z"/>
  <path d="M319.5,1115.6l-.2-6.1c-18.8,7.4-16.8-53-14.4-64.9.9-4.4,9.5-4.4,10.4-6,2.7-4.9-16.6-14.1,14.1-11.7,1.3-12.2-13.5-1.3-19.9-9.3-12.3-15.3-4.7-69.7-8.4-90.9l25.1-7-25.5-2.9c-.6-24.9-7.8-60.3,23.3-66.8l-19.7-21.3c2.6-63-7.2-127.6-5.9-190,.2-8.1,12.3-10.9,13-21.9-7.2-.9-16.7-1.8-27.3-2.6.3.3.4.6.5.9,3.1,9.8,6.1,86.3-15.7,84.9,25.1,24.5,1.8,53.1,15.6,84l-13,7.4c.2,6.1,10.7-.3,12.7,6.6,3.3,11.1-1.7,49.2.3,72.4,3.6,2.6,6.7,5.2,8.5,7.7-2.4.2-4.9.2-7.3.3.3,1.6.7,3,1.2,4.3l-38-5.2,1.5-.8c-6.7-.3-13.5-.5-20.2,0-1,0-1.9.1-2.9.2,6.7,21.6,7.1,50.1,5.3,68-1.2,11.9-12.1,8.6-12.6,13.3-2.4,24.2,24.7,71.3-3.6,94.2l12.8,6.4.4,13.2c7.2,5.7,14.6,11.2,22.1,16.5-3.9-51.2-8.2-102.6-7.5-151.1.3-18.1,4.3-35.6,5-53.6l34.3,4.6c17.8,20.8-6,47.2-7,61.2-.7,10.1,6.8,20.9,7.2,31.2.9,26.3,1.6,52.7,2.4,78.9l-12.7-6c-1.5,26.6,19.5,29.3,15.7,59.5,5.6,3.4,11.2,6.7,16.9,9.9,2.8-4.4,7-7.2,13.4-7.6Z"/>
  <path d="M123.8,650.1c-4.6-1.1-8.6-3.7-12.3-6.6-2.1,3.9-5,7.1-9,9.2,1.6,1.7,3,3.4,3.9,5.4l-9.4-3.4c-3.7,6.5,17.3,9.1,19.5,16.4,5,16.4,4,40.3,1.3,65.4,5.9,0,12,0,17.9.1,2.3-10.3,4.7-20.5,4.7-30.7,0-13.9-1.9-37.1-4-63.7-5.9,4.5-10.7,7.7-12.6,7.8Z"/>
  <path d="M1016.5,982.2c3.6-5.7,13.7-10.6,19.3-15.8.3-15,.5-29.9.7-44.8-8.6,1.7-18,3.9-25.4,5.1.6,36.4,1.2,72.7,1.5,109,3.7-3.5,7.4-7.1,11-10.7-1.8-3.3-4.2-6.8-7-10.3,12.2-10.4,14-24-.2-32.4Z"/>
  <path d="M193,644.2c-2.1-3.1-3.7-14.9-4.6-31.3-7.4.6-13.1,1.6-16.2,3,0,0,0,0,0,0l1.3,40-12.6,18.8,12.5-3.5-.8,71.1c5.1,2,9.8,4.7,14.2,8.3.2-4.8.6-9.4,1-13.7,1.9-17,14.3-28.9,15.2-40.7.7-9.3-15.5-21.4-11.4-40.5l12.8-7.5c.7-5.8-9.2-.9-11.2-3.9Z"/>
  <path d="M1123.2,647.5c-1.3-.4-2.6-.5-3.8-.5-.6,4.8-1,9.6-1.2,14.3,3.7-3.9,6.6-8.5,5-13.8Z"/>
  <path d="M193.2,906c-.2-5.2-.5-10.6-.8-16-1.7,3.9-1.7,9.1.8,16Z"/>
  <path d="M186.2,762.6c-6,5.1-4.4,12,0,18.7-.1-6.5-.2-12.7,0-18.7Z"/>
  <path d="M1008.6,759.3v-3.8c5.9-6.8,12.9-11.1,20.6-13.8-2.7-36.5-4.9-73-4.2-109.1l25.1-.7c-2.5-2.1-5-4.2-7.5-6.1l-11.5.4v-8.6c-1-.7-2.1-1.2-3-1.7-3.5-1.5-10.2-2.5-19-3.2-1.3,58.2-1.1,116.7-.4,175.2,9.1-10.2,15-21.9-.1-28.5Z"/>
  <path d="M77,647.5c-1.3,4,0,7.6,2.4,10.7,0-3.3-.2-6.6-.3-10l-2.1-.8Z"/>
  <path d="M1103,694c.2-.3.5-.5.8-.7l-1.1.2c0,.2.1.4.2.6,0,0,.1-.1.2-.2Z"/>
  <path d="M369,1082.5l-.2-6.1c-23.3,4.2-7.1-22.8-7.2-40.7-.5-97-7-193.3-3-290.1l12.6-7.6-13.2-6.9c4.8-18.1-2.6-66.7-4.5-100.6-5.5-3.1-11.4-5.8-17.4-7.9.7,11.4.6,23.1,1.2,33.8,4.8,85-.7,160.8-2.8,240.8-.7,25.8,14.4,55.8-6.4,82.6,19.3,19.9,15.3,93.5,15.7,131.3.1,10.5.2,21.1.3,31.8,5.7,2.7,11.5,5.3,17.3,7.8,3.6-8.6,9.2-15.3,9.1-20.7-.3-10.3-34.1-46.2-1.5-47.5Z"/>
  <path d="M532.5,966.9c2-20.4-12.3-45.7,14.7-48l-19.8-21.2c2.3-41.6-4.3-85.9-4-126.6.3-46.9,7.3-85.7,6.4-138.1-.1-7-1.4-16.4-2.7-26.7-8.3,1.6-16.4,3.6-24.2,6,.8,55.4.6,110.7-3.3,165.8-2.9,41.5,12,93.6,10,139.3-.8,18.6.6,30.4-18.1,38.2,10.8,1.1,20.2,27.3,20.9,37.4,1.1,16.4-9.3,26-9.2,31.8,1,55.9,7.4,112.5,9.1,168.9,5.9.9,11.9,1.7,17.9,2.4-1.8-76.5-5.1-153,2.5-229Z"/>
  <path d="M585.5,857.5c1.9-58.9-8.2-125.1-8-189,0-21,5.8-44.5,6.6-68.4-6.2.2-12.4.6-18.6,1,.2,15.1-.3,28.6-1.1,36.5-1.4,14.9-13.1,6.3-12.9,12.6,19.2,3.2,15.6,26.8,13.7,43.6-16.9,148.2-3.6,336.8.8,505.3,8.2.5,16.5.8,24.9.9-8.1-115.5-9.2-227.1-5.4-342.4Z"/>
  <path d="M643.8,875.4c.3-18.2-11.6-80.2-5.9-91.9l18.7-3.7-13-15.4,12.4-6.7c-26.7,4.2-25.5-85.4-22-102.6,1.1-5.5,13.3-2.4,12.7-13.7-.7-13.3-1.9-26.8-3.2-40.3-7.9-.5-16.1-.9-24.4-1.2,1.4,16.5,2.3,32.9,2.1,48.5-.3,24.2,1,67.3-23,76.1.6,7.5,23.4-14.2,20.6,37.7-.8,15.1-9.9,28.9-9.8,31.5,2.2,66.7,10,125.9,6.7,195.8-.9,19,18,49.9-7.8,57.2l12.9,5.9c-24.1,23,.2,27.5,1.7,37.5,5,33.1,1.6,72.2,1.9,109.3,6.4-.3,12.8-.6,19.2-1.1-.2-17-.4-34.1-.6-51.3-1.3-91.7-.8-181.6.9-271.8Z"/>
  <path d="M469.1,1057.1c-.2-27.1-1.7-154.2,1.5-169.5,1.3-6.3,19.7-.6,5.6-19.6l12.6-4.2-19.6-9.1-1.5-66.1,12.7,6-8.6-71.6,12.6-7.6-13.2-6.9c9.7-26.5-18-70.9,10.5-81.6l-7.1-3.6c-1.5.7-2.9,1.5-4.3,2.2-8.4,4.6-16.5,9.5-24.4,14.7,3.1,39,11.5,81.2,8.7,120l-19.3,4.1c31.2,14.1,18.3,67.7,2.8,91.6-2,5.5,9.3.8,11.5,5.6,2.5,5.4,5,112.4,1.8,117.4-3.8,6-17.1,4.9-15.7,9.8l12.8,2.8-12.3,9.7,20.5,30.6-9.4,130-18.8,4,19.3,5.7-10.7,5.7c4.5,1.3,9.1,2.5,13.6,3.7h3.6c0-.1,0,.9,0,.9,6.5,1.6,13.1,3.2,19.8,4.6,2.5-43.2-4.5-86-4.9-129.6Z"/>
  <path d="M881.8,1114.3l-19.4-5.9c-5.6-40.3,7.8-83.4,7.9-120.2,0-27.6-3.8-62.6-4.1-93.6-.2-19.9-18.9-55.7,6.9-64.4l-12.5-33.7,11.4-4.3c-20.4-3.8-13.9-27-14.1-44.3-.5-40.8,3.4-82.8,4.6-124.8-10.6,3.9-20.5,9.5-29.1,16.5,18.4,27.9,4.4,88.1,12.4,120.9l-12.6,7.6c19.5,4.2,13,16.8,13.7,34.4l-37.8,1.1c1.6-42.6-3.4-85.5-4.6-128.3-6.6-4.6-13.2-9.3-19.9-14,.6,56.8,5.5,113.8,6.8,170.4l-12.9,7.6,12.6,5.5-18,26.2,13.6,11.7c-6.6,67.6,17.3,138-7.1,203l12.8-.3c-3.2,28.1-4.6,56.3-4.8,84.5,6.6-2.2,13.2-4.5,19.7-6.9-.4-87.5,7-173.2-2.1-261.2l19.2-7.2c-31.7-4.7-24.3-89.7.3-85.3,26.2,4.7,13.8,80.4,14.8,100.2,3.3,60.9.3,115.4-.1,174,0,13.5,3.1,39.4,5.5,64.1,6.3-2.8,12.6-5.8,18.8-8.8l-.2-18.1,18.1-6.6Z"/>
</svg>