<?xml version="1.0" encoding="UTF-8"?>
<svg id="Layer_1" xmlns="http://www.w3.org/2000/svg" version="1.1" viewBox="0 0 1200 1200">
  <!-- Generator: Adobe Illustrator 29.0.0, SVG Export Plug-In . SVG Version: 2.1.0 Build 186)  -->
  <path d="M1009.1,1039.6c0,2.4.1,4.8.2,7.3.3-2.8.3-5.3-.2-7.3Z"/>
  <path d="M435.2,1099.3l-18.8,3.8c.5-21.9-6.9-50.2,9.7-66.9-20.5-4.2-14.8-36.1-15.2-56.6-2.1-106.1-8-245-2.6-347.7.6-12,12.4-9.2,12.1-12.4-.4-4.1-2.7-9.8-4.7-15.6-8.1,7.7-17.5,15-27.3,22-.2,32.9.2,65.2,1.6,96.8,2.6,61.6,5.2,121.5,5.9,182.3.9,86.8-5.8,173.3,3,260.5,5.4,1.9,10.9,3.8,16.4,5.6,1.5-14,3.6-31.1,4.1-32.6,3.7-10.1,22.4-9.1,15.9-39.1Z"/>
  <path d="M1014.7,891.6c-1,11.9-11.4,8.9-12.5,13.7-.9,4.2-1.1,7.5-.8,10.3,5.7-5.5,23.6-11.8,30-15.7.2-13.9.4-27.7.6-41.6-5.7,1-11.4,2.4-17.1,4,.6,10.5.7,20.5,0,29.5Z"/>
  <path d="M819.6,1070.3c-22.4-4.5-8.1-13.9-9.7-28.4-8.5-75.5,1.6-152.6-.5-217.6-1.3-37.7-4.1-75.4-5.2-113l12.3-10.8-12.1-2.2c12.2-19,4-48.4,1.9-72.6-8.5-6-15.9-11.5-21.3-16.4,0,2.3,0,4.7,0,7,0,15.5,11,77.8,6.3,85.2l-12.8-2.6c5.6,33.9,22.3,152.5,7.1,176.3-3.8,5.9-10.9,10.3-18,10.8l19.7,8.9,1.5,43-12.3,10.8c27.3-1.9,6.7,53,5.4,73.6-2.3,36,5.7,63.2,4.3,101.2-.3,7.3,4.5,13.6,4.8,20.7l-31.1,1c-15.3-32.2-7.3-64.6-5.8-97.6.3-6.2-5.8-13.2-5.8-18.1,0-2.8,16.8-3.8,9.3-21.6-.7-1.8-11.4.3-10.4-4,20.2-83.7-7.5-214.7-.8-304.2.9-11.7,10.7-8.6,11.4-12.7,2.8-16.3-8.4-55.1-8.9-87-7.1,1.1-14.4,3.4-21.5,6.3,2.4,27.5,17.6,72.5-6.4,82.3l12.2,5.6c-14,46.4-1.6,100.1.7,148.8l-37.9,1.7c5-29.4-17.9-84.8,8.6-98.5,2.3-14.7-8.4-7.2-11.1-10.2-6.4-7.2,4.8-60.3,4.6-74.6-.2-13.2-.2-26.3-.2-39.4-8.6,5.4-16.4,11.1-23.2,15.9-1.1,35.3-2.3,68.7-2.4,97.1,0,21,6,70,3.7,81.1-1.5,7.2-12.8,1.8-12.5,7.7,20.2,3.2,15.1,30.9,14.8,50-.3,19.2-.2,68-22.3,67.5l13,8.9-25.1,4.3,31.7,4.9c6.8,4.9-15,31.8-24.3,19.9-5.3,22.8,21.5,7.7,25.8,11.6-6.3,51.8-6,102.6.6,154.7l-19.2,4.3,12.3,14.5c-10.5,15-1,25.2-23,30.2-15-9.6-7.5-153.8-7.4-179.7.1-47.6-6.7-95.3.3-142.3l24.9-4.5-25.5-2,.2-199.5c-6.7,6-13.3,12-20.1,17.9,0,.6,0,1.2.1,1.8l-3,.7c-2.8,2.4-5.6,4.8-8.5,7.1l11.6,5.2c-15,24.5-.2,31.4,0,42.8,1.5,73.3,3.2,162.3-1.4,234.8-.5,7.5-3.1,15.3-5.9,22.2l-23.9,1.7c-6.8-31.4-12-41.9-.9-72.8,1.2-3.3-3.3-8.7-2.9-8.9,5.6-3.6,26.8,5.8,25-7.4l-31.8-5.1c1.7-11.7,5.3-22.5,5.2-34.6-.3-64.5-.9-121.5-.4-179.9-6.6-5.9-13.1-11.9-19.7-17.8-1.7,47.5-5.3,95.4-1.5,140.5l-12.6,7.7,13.4,6.1c-13.4,20.9,1.9,38.8,1.8,56.3,0,9.4-8.6,17.8-8.5,25.7,1.5,93.3,10.2,192.7,12.2,288.8,5.8.3,11.7.5,17.6.6-2.8-54.5-12.1-122.8-5.5-134.1,1.8-3.1,12.1,1,10.9-4.8l-12.3-5.2c-1-21.5,17.6-36.4,10-48.4,31.7,4.3,36.9,18.9,33.6,49.1l-6.8-12.3-12,10,14.3,24.9c-23,22.7-3.2,18.3,1.5,43.7,4.8,25.7-.9,52.5-1.8,77.1,26.4-.8,52.4-3.3,77.9-7.4-.4-29.4-.9-58.9-1.4-88.4l25.3-1.1c-5.4-9.3-17.4-21.5-25.7-11.5,2.5-41.7-11.1-95.4,13.4-130.3,2.1-5.2-11-.3-13-6.6-4-12.8-4-88,2-99.4,7-10.1,25.8-7.5,27.1,5.6l11-5c-14.9,42-.7,84-.5,130,.3,64.5,2.7,132.7,1.5,199.1,4.5-1,9-2.1,13.5-3.3,1.5-7.9,3.9-15.7,5.7-22l24.3-1.9-18.3,13.3,31.2-10.6c-1,3-1.9,6.2-2.7,9.5,6.2-2.1,12.4-4.2,18.6-6.5l-.7-85,12.5-7.8Z"/>
  <path d="M484.6,1071.8c.7-5.8-9.2-.8-11.3-3.8-4.2-6.1-9.6-71.8,8-71.9-31.8-10.1-4.7-20.1-2.7-25.3,5.5-14.7-12-17.4-12.2-18.7-1.9-13.3,10.7-20.6,10.9-31.5.5-23.3-21.4-107.6-4.5-120.5,5.7-4.3,18.8-.7,18.9-7-.5-5.5-10.3-2-13.2-6.8-11.6-19.1-12.3-115.1-12.7-144.4-.2-12.3-.3-24.5-.4-36.8-6-2.5-12.2-4.3-18.6-5.2.1,16.4.4,33.2.6,49.3.6,49.2,15.5,150.1-4.9,188.4-3.9,7.2-11.9,3.5-11.8,8.6l19.7,5.8c-2.9,29,3.2,59.8,3.5,87.7.7,65.9,8.2,169.9-3.9,241.2,8.9,2.3,17.9,4.4,26.9,6.3.3-15.1.6-30.3,1.2-45.6.7-19.6-16.3-61.9,6.6-69.9Z"/>
  <path d="M876.3,1068c-26.3-41.3-12.2-98.5-12.9-138.8-1.4-87.9,1.1-175.3,1.6-263.1-6.9-5.1-14.7-10.4-22.7-15.8.5,45.9,1.3,91.6,3.1,137.4l-31.5,1.4,32.2,26.6-.5,331.9c5-2.3,10-4.6,15-7,1.5-11.5,7.8-19.2,8.3-27.9,1.1-16.6-17.6-37.1,7.4-44.7Z"/>
  <path d="M914.8,1091.2c-.1-17.2,8.2-27.7,8.5-37.7.6-20.9-17.4-67.2,6.1-76.4l-8.1-2.9-5.8-25c9.8-3.2,4.6,23.4,19.4,11.7,3.1-2.5-12-45.4-12.3-47.9-8.6-65.8-4.9-141.2-2.7-213.7-9.6,2.4-17.7,4.2-22.4,4.7,0,15.5.2,31,.4,46.6.4,25.9,18.7,56.8-12.7,69.8,15,33.8,17.4,82.5,17.8,120.2.2,15.5-8.8,26.2-8.7,31.6.4,45.9,9.5,99.2,5.4,147.7,5.2-3,10.3-6.1,15.4-9.2-.2-6.5-.3-13-.4-19.4Z"/>
  <path d="M547.5,1180.8c2.4-3.5,13.9,2.8,10.8-7.7l-30.9,13.9c4.8-28.2-17.5-82.5,7.7-98l-8.7-68.7,12.5-7.8c-20.6-3.5-14.3-30.6-15-50.4-.9-25.3,6.5-48.5,6.7-69.2.3-24.8-12.6-70.2-7.2-93.9,1.4-6,12-4.2,12.4-4.8,2-3-9.9-10.2-11.9-16.6-7.6-25.1,4.7-51.5,4.3-76.9-.3-18.8.2-37.5.9-56-7-5.5-14.3-10.8-21.7-15.7l1.6,425.9c-9.5,3.3-5.1-23.9-19.4-11.7-3.6,3.1,20.8,40.8,21.4,52.6,1,19.6-2.5,59.3-3.3,82.4-.2,5.5-3.8,9.8-6.3,13.8,13.1,2.2,26.4,3.9,39.8,5.2l-1-1.3c18.2-5,5.5-12.6,7.2-15Z"/>
  <path d="M375.3,1029l-.8-18.8-18.6,7.1c1.8-41.2-1.7-89,1.3-129.5.9-13,12.3-24.9,10.3-44.8-.8-7.9-15.6,12.9-13.2-6v-188c-6.5,4.4-12.9,8.8-19.1,13.3,3.7,30.5,8.2,175.7,0,193.5-4.9,10.5-18.4,10.4-17.2,14.5l13,5.8-12.2,9.9c26.9,1.8,23,67.4,23.1,91.2.1,52.9-.7,108.5-1.2,164.1,6.4,3.1,12.9,6,19.4,8.9l-3.8-126.6,19.1,5.5Z"/>
  <path d="M253.2,1089.7c5.6,3.9,11.2,7.8,16.9,11.6.2-.5.4-.9.6-1.4-4.5-10.1-11.8-11-17.5-10.1Z"/>
  <path d="M248.3,1020l-20.1,17.4c0,11.2,0,22.3,0,33.5,5.2,4.1,10.5,8.2,15.9,12.1-.4-14,2.4-41.5,4.3-63Z"/>
  <path d="M1088.4,640.8c.1-8.5.2-17.1.3-25.6-3.8,1.5-8.6,3.8-14.5,7.1-.2.1-.5.3-.7.4,0,12,0,24,0,35.9,4.9-5.3,10.3-11.6,14.9-17.9Z"/>
  <path d="M188.8,816.6l-.5-28.7c-13.3-4.2-25.1-4.6-19.7,10.5l20.3,18.2Z"/>
  <path d="M951.2,1024.7c-.4,20.9-.7,41.7-.8,62.4,7.4-5.4,14.7-10.9,21.9-16.6,0-8.3.3-17.7.5-27.6-5.3-7.8-13.6-12.9-21.7-18.2Z"/>
  <path d="M245.9,818.1c-8-5-16.1-10.6-24.2-15.3.4,14.9.9,29.7,1.4,44.6l15.7,14.1c-5,3.1-10,4.9-15,5.9,1.2,35.1,2.5,70.3,3.4,105.4,6.6,6.4,15.2,11,22.8,16.6-1.1-33.2-9.7-79-8.2-110.1.6-12,12.7-9.1,13-13.7.6-8.7-7.7-23.5-8.4-36.5-.2-3.7-.4-7.3-.6-11Z"/>
  <path d="M1074,667.8h-.7c0,4.7-.1,9.3-.2,13.9,3.3-6.2,4.5-11.6.8-13.9Z"/>
  <path d="M1002.1,975.1c8.7.8,8.4-8.3,5.8-19.7-4.7,7.1-11.8,11.6-22.1,9.9l7.2,6.5,9.2,3.3Z"/>
  <path d="M130.2,668.4c-6.8.4-12.7-3.9-12,8.1,4.9,7.3,10.1,14.3,15.5,21.2-.2-.9-.3-1.9-.5-2.9-1.3-8.7-2.3-17.5-3-26.5Z"/>
  <path d="M167.7,736.3c6.5,6.7,13.2,13.2,19.9,19.7l-1.6-87c-4.5-3.1-9.7-6.9-15.2-11,0,8,.1,15.6.3,22.2.3,15.9-7.5,9-18.7,10.4l19.3,5.6-3.9,40.1Z"/>
  <path d="M1013,751.2c6.6-6.2,13.2-12.6,19.4-19.1,0-26.4-.2-52.7-.4-79-6.6,5.2-13.1,10.1-19.5,14.4-.2,4.8-.6,9.5-1.2,13.9-.4,2.7-16.5,7.4-9.9,20.4,12.8,25.2,13.3,36.1,11.6,49.3Z"/>
  <path d="M128.9,627.2c-6.4-4.4-12.4-8.2-17.6-10.9.3.8.5,1.7.7,2.8,1.5,9.4,1.8,19.6,1.8,30.1,5.3,5.5,10.9,10.8,16.3,16.2-.9-12.5-1.2-25.3-1.1-38.2Z"/>
  <path d="M167.4,901.5s0,0,0,.1c5.3,2.6,13.2,5.8,19.3,9.1.9-15.9,2.6-31.2,5.6-45.6-6.7-1.6-13.5-3.6-20.3-5.2-1.4,13.9-4.9,28-4.6,41.6Z"/>
  <path d="M976.5,683.3c-5.1,1.6-10.8,3.3-16.8,5.1-.1,37.4-.8,74.9-1.8,112.4,6.4-5.8,12.8-11.6,19.3-17.3-.2-33.4-.4-66.8-.7-100.1Z"/>
  <path d="M1026.6,798.5c5-14.1-4.9-14.7-17-11.3,0,.9,0,1.8,0,2.8,0,7.2.5,14.9,1.1,22.8l15.9-14.3Z"/>
  <path d="M975.9,965.5c1-21.8,1.7-39.7,1.7-47.2,0-16.7,0-33.4-.1-50.1-7.1-.4-14.2-2.4-21.2-6.7l21.1-18.9c0-13.9-.1-27.9-.2-41.8-6.7,3.6-13.2,8-19.7,12.3-1.7,57.7-3.9,115.3-5.4,172.3l23.2-20.1.6.2Z"/>
  <path d="M312.4,1034.8l-12.4-5.3c10.3-51.3-.5-106.6-.8-158.7-.1-17.6,7.4-34.4,7.4-48.3-.2-36.9-9.3-80.3-8.1-119.2-6.4-1.7-13.2-3.2-20.2-4.8,8,73.8,4.2,148.8,3.1,223l-17.9,4.7,5.2,12.4,14.1-.5c-9.2,40.6,26.3,108.9-13.3,130.2l13.7,11.5.6,30.2c6.5,4,13,7.9,19.7,11.7l-3.3-79.3,12.2-7.6Z"/>
  <path d="M244.9,691.1c-6.6-1.6-13.1-3.2-19.4-5-2.3,18.6-5.3,37.7-5.1,55.4.2,15.1.5,30.3.9,45.4,8.1,7.2,16.2,14.4,24.2,21.6-1.5-39.2-1.4-78.4-.6-117.3Z"/>
  <path d="M188,1036.2c.9.9,1.8,1.7,2.8,2.6,0-1.3-.2-2.5-.3-3.8-1,.2-1.8.6-2.5,1.2Z"/>
  <path d="M186.6,971.9c-.2-3.6-.3-7.3-.4-10.9-.7,4.5-.8,8.4.4,10.9Z"/>
</svg>