<?xml version="1.0" encoding="UTF-8"?>
<svg id="Layer_1" xmlns="http://www.w3.org/2000/svg" version="1.1" viewBox="0 0 1200 1200">
  <!-- Generator: Adobe Illustrator 29.0.0, SVG Export Plug-In . SVG Version: 2.1.0 Build 186)  -->
  <path d="M530.8,1140.3l12.6-3.2c-21.7-3.8-14.1-50.5-.5-63.3l-13.3-12-.6-183.8c.9-8,8.9,2.5,12.7,3.1-3-6.4,6.1-17.5-13.1-22.4l12.8-25.1c-30-10.5-4.4-41-.2-63.1l-12.8,6.2v-166.2c-6.7-2.4-13.3-4.7-20-6.6l.5,102.1-15.4,17.5c-25.9-1-21.5-52,6.1-56.9l3-9.6c-19.7-6.4-12.2-13.8-15.6-20.4-.8-1.6-7.3-1.8-7.6-3.2-2.4-11.5-3.2-23.3-3.2-35.3-1.5,0-3.1-.2-4.7-.2-3.8,0-7.6,0-11.3.4-.4,11.5-.9,21.3-1.7,27.6-1.1,9.1-20.6,17-19.3,37.6l19.5,6.6,2.1,426.3-37.9.3-.6-65.3,21.6-10,3.9-16.5-22.6-8.9-4.8-249.5,13.1-6.9c-27.9-21.8-2.1-50.7-2.8-63.2-1.3-23-2.9-45.6-4.2-68.6-9.8,4.8-18.9,11.1-27,18.7,0,58.9-.4,117.7-2.2,176.5-2,67.4,10.2,141.5,6.5,215l.6,149.3c6.5,2.2,13,4.4,19.6,6.4l-1-64.4,30.7.7,4.1,73c5.5,1.3,11,2.6,16.6,3.8.2-15.3.5-35.5,12-36.4-14-55.1-7.6-119.8-7.7-177.4,0-64.1,2.8-128.4-.8-192.6,16.2.6,23.7,4.2,28.3-12.9l4.6,425.9c7,1,14.1,2,21.2,2.8.6-24.9.6-45.9-1.4-55.9Z"/>
  <path d="M254.7,1053.6c-3.4-90.5,9.7-189.7,1.8-281.7l13.2-12.3-11.6-5.9.9-119c-6.4-3.4-14.2-6.3-22.5-9.1-1.1,55-3.2,110-3.2,164.2,0,16.5,1.4,34.5,3,53.2,5.9,6,13.4,11.3,17.8,14.8.7,2.6-7.5,7.9-15.6,12.2,3.1,42.2,3.8,85-11.7,117.4l12.8,6.9c7.4,25-12.9,20.7-12.7,24.7l12.8,6.8c-5.7,14.4-2.1,35.8-.2,53.8,7,5.3,14.1,10.4,21.3,15.3,10.3-16.3-5.4-26.2-5.9-41.3Z"/>
  <path d="M309.1,1000.3c1.8-6.5,12.3-1.2,12.4-7.2,3.2-14.3-8.6-7.2-11.1-10.7-13.7-19.1,9.9-151.4-3.3-184.6l25.7-16.4h-25.3c0,.1-1.1-110.5-1.1-110.5-4.8-3.8-11.6-9.3-18.5-14.8,2.4,41.2,3,87.6,1.1,103.6-1.6,13.5-10.8,10.1-19.3,18.9l19.4,6.5-.3,28.1-18.9-6.2c23.2,38.5,20.3,85.1,19.9,129.6-.2,23.3-.9,40-.6,63.7.6,37.8.8,75.7,1,113.6,8.8,5.3,17.7,10.4,26.7,15.2-3.2-6.5-6.7-14-7.6-22-1.6-14.8-3-96.4-.2-106.8Z"/>
  <path d="M391.4,1160.9h-5.4c2.1.7,4.1,1.4,6.2,2.2-.1-.8-.4-1.6-.9-2.2Z"/>
  <path d="M365.7,1062.7l19.4-6.7-19.5-6.5-.5-173.5,12.6,6.3c-6.1-20.9-2.1-35.9-1.1-54.1.2-3.6-10.9.2-12.4-11.8-2.7-21.2,3-47.5-.2-69.6,1.3-7.5,34.5,1.2,31.9-19.5l-16.6-10c-2.4,1.6-4.8,3.2-7.4,4.5-3.7,0-15.8-9.2-28.5-19.8l2.7,161.5-12.7,3.2c21.9,6.3,7.5,50.5,13.1,72.7l-12.6,3.1c.5,5.9,10.7.7,12.5,7.1,1.4,4.9,2.1,88.3.9,93.1l-12.8,7.3,12.9,7.1.3,74.9-19-3c-1.8,1.6,2.5,5.7,7.1,9.8,10.1,5,20.4,9.7,30.9,14.1l-1-90.3Z"/>
  <path d="M188.1,704.7c-13.5,6.3,7.3,30.9,16.6,43.9l-.9-45.9-15.6,1.9Z"/>
  <path d="M1062.1,581.9c-.9-.8-2.3-1-4-.8v7.6c0,0,4-6.8,4-6.8Z"/>
  <path d="M1026.7,625.5v-26.2c-4.6,3.2-8.3,5.8-10.3,6.9-1.9,1-3.8,2-5.8,2.9v62.8c-.1,0,34.1-59.5,34.1-59.5l-18,13.2Z"/>
  <path d="M226.3,1048l-24.7-4c2-19-9-38.2,12.5-43.8-18.5-32.9-16.6-82.8-12.4-127.2-2-.2-3.9-.1-5.6.6-6.1,2.7-10.5,8.9-14.1,15.3l.6,101.3c.5.9.6,2,.2,3.5,0,0-.1,0-.2,0l.2,37.5c14.6,14.2,30,27.6,46,40.2,2.8-7.2,1.8-15.7-2.5-23.5Z"/>
  <path d="M1010.4,704.4v22c6.6-10.5,10.2-19.9,0-22Z"/>
  <path d="M971.2,833.2c0-3.4,0-6.8-.1-10.1-1.3-2-3.1-3.7-3.1-4.9,0-.5,1.2-2.6,2.9-5.5-.5-21.3-1.1-42.6-.8-63.8.2-12.1,10.5-20.8,10.5-25,0-5.4-18.2-26-10.6-41l25.3-9.6-25.3-3.1-.3-46.5c-6.9,2.2-13.5,4.4-19.5,6.8l1.8,222.7c6.7-6.2,15.9-12.5,19.2-20Z"/>
  <path d="M1057.1,929.2l-9.8,9.1,8.7,4.8c2.8-3.1,3.4-7.6,1.1-13.9Z"/>
  <path d="M143.5,581.5c-2.5-.7-4.5-.6-5.7.4l5.6,9.5v-9.9Z"/>
  <path d="M144.4,934.1v-8.3c-6.9,14.5-.6,20.8,12.4,22.6l12.9-1.8c4.2-17.9-14.1-16.9-25.3-12.4Z"/>
  <path d="M1017.2,993.7c-1.3-5.5,3.4-5.9,8.4-6.5-.2-30.6-.2-60.2.3-84.2-4.5-6.6-8.7-18.3-15.9-25.3l-.3,127-15.7-12.5c-15,22.5,20.4,18,16.5,41.2l-12.5,12,.5,2.9c9.4-8.4,18.6-17.1,27.4-26-.1-9.3-.3-18.6-.3-27.9-3-.6-5.9-.9-8.5-.8Z"/>
  <path d="M970.8,888.7c13-2.3,21.2-8.7,24.7-15.3-5.5,1.4-11.4,4.6-16.4,4.1-2.4-.2-18-7.8-26.9-12.8l.2,20.4-15.4-17.5-22.5,5.1-.8-132.7,12.6,3.1-.2-22.1-12.5,6.5c-6.1-8.8,0-48.2,3.6-75.4-7.4,5.9-15.3,12.2-21.1,16.9.2,24.9-1.3,54.4-1,74.4,1.5,87.3-2.3,175,1,262.3l-12.6-6.3v15.8c-.1,0,12.3,7.2,12.3,7.2l.7,99.5c6.8-3.9,13.6-7.9,20.2-12l-1.6-194.9c4-13.2,34.2-17.5,37.7,11.1,5,41.1.5,111.4.6,159,6.4-4.7,12.7-9.5,18.9-14.4l-1.6-181.8Z"/>
  <path d="M857.8,959.4c1.1-5.1,12.3-4.1,12.2-7-.6-21-26.7-51.7.2-70-19.4-1.5-16.9-53.9-.3-56.7-9.6-10.2-14.3-24.2-13.6-38.2.6-11.7,12-8.6,13.2-13.4,6.2-24.3-12.5-17.9-13.3-30.5-.3-5.4-.4-22.6-.3-40.9-4,3.3-8,6.5-11.6,9.3l.2,43.9-19.4,3.6,6.5,18.8,12.4-12.6c-1.4,40.9,2.9,82.5,1,123.4-2,43.5-4.9,37.9,0,82.3,3.1,27.3-1.2,57.3.7,85l-15.4-17.5-22.5,5.1c-3.8-22.3,1.2-24.7,18.6-34.8l-18.8-3.1c-1.9-3.5-.7-73,1-79,.6-2,21.5-17.9,23.5-25.5l-18.8-9.3-6.1,25.3-.6-46.3c4.1-17.1,38.6,3.9,31.8-13.8-2.8-7.3-14.9,2.2-12.7-9.4l3-12.6-21.9,25.3c7.2-50.8-8.6-119.8.2-167.7,1-5.7,12.1,0,11.4-6.3l-12.6-3-.3-52.6c-5.8-6.3-12-11.6-18.6-16l.2,27.7-31.8,25.2,6.3,15.7,25.1-12.8c-5.5,33,8.5,93.4.9,122.3-1.6,6-11.9,3.6-12.5,4.4l-.3,9.2c29.3,12.3,2.9,63,13.3,91.6l-19,3.3c-.2,5.2,12.1,3,16.9,12,2.9,5.6,5.4,116.1,3.2,125.8l-25.5,13.9,25.2-3.4.8,113.8h-25.4c.9,3.8,1.7,8,2.2,12.4,21.3-6.2,42.1-13.5,62.4-21.8,1.4-4.4,2.4-10,4.8-16.1l-25.2,6.4-.5-75.8c17.4-4.5,15.2,14.3,19.1,18.8,6.3,7.1,4.1-22.4,18.7-12.7,2.5,3.2-2,48.8-3.7,73.6,4.8-2.1,9.6-4.3,14.3-6.6-2-73.3-3.2-162.4,1.1-183.1Z"/>
  <path d="M607.3,1200c3.8,0,7.5-.1,11.3-.2l-11.6-2.7c.3,1.1.4,2.1.3,3Z"/>
  <path d="M751.2,1031.6l12.7-3.2-12.9-6.2v-12.8c0,0,12.7-6.2,12.7-6.2-15.9-20.9-19.5-102.2-13.5-125.5,1.7-6.5,14.9-2.1,12.6-7.3-26.5-32.6-7.3-89.3-13.3-129.6l12.7-3.2-13.1-7.2c5.3-38.6,4-83.6,1.4-129.5-7-1.2-14.4-1.7-22.1-1.5-4.4,34.6,7.3,142.3.6,153.1-1.9,3.1-12-1.5-11.1,4.3l13.3,12.1.3,148.9-12.6-12.5c-4.1,9.7-8,22.8-12.5,31.6,12.2-1.9,15.5-7.9,25.1-12.8l.3,56.9-18.9,3.2c28.7,10.1,17.9,34.6,19.3,60l-37.8-6.1c4.8-21.5-4-74.2.7-91.8.9-3.2,7.7-2.5,11.3-9.4-4,.6-8.5-.2-12.6,0l.8-333.3c-5.8,1.3-12.2,3.3-18.8,5.8l-.3,447.8-15.9-12.5c-15.3-6.4-11.7,23,0,32.4,3.5,2.8,39.3-2.3,3.4,14.8,17.5,18.1,12.8,43.3,13,66.4-12.8-8.5-16-15-31.5-6.1l-1-159.7,18.3-27.2-19-18.4,12.9-19.1-13.2-12c4.5-42.6-5-92-.7-133.6,1.1-10.8,24.5-17.4,19.3-37.6l-19,9.5c9.3-35.3-7.5-97.5-1.8-130.8-6.4,2.3-12.5,4.3-17.9,5.4l.4,65.5-18.9,9.5,18.3,2.8-.7,218.7c-21.1,1-31.8,40.1-35.2,3.1-3.8-42-6-109.9,11.8-145.6l-13.3-12c5.3-44.3,2-93.8-1.1-142.8-6.4-1.2-12.6-2.7-18.7-4.5.1,79.7-1.2,159.2,2.1,238.6l-19,.2,6.5,18.8c-4.1-.1-8.7.7-12.6.1,7.1,15.3,11.4,11.9,25.2,6.2l1.9,311.8c6.4.3,12.8.5,19.2.7v-220.2c.1,0,36.3-19.8,36.3-19.8l1.4,239.6c8.1-.3,16.1-.8,24.2-1.5l.5-30.2,25.6-2.9c-1.2,9-.5,19.6.3,30.4,4.8-.6,9.5-1.3,14.2-2,.2-39.2,1.3-75.5,3.5-95.4,1.4-12.9,8.6-5.9,13.2-12.2l-12.7-3-.2-38c16.6-2.7,15.8.6,22.6,12.8l15.2-6.7c-8.3,26.9,3.8,53.8,1,79.3-4,36.3-2.9,31.4-1,55.4,6.6-1.5,13.3-3.1,19.8-4.8l-.9-149Z"/>
  <path d="M202,614.2c-6.5-2.4-12.8-5.1-18.3-8.1-.8-.5-2-1.2-3.4-2.1-.3,16-.6,31.9-.8,47.9l24.1,40.6-1.6-78.3Z"/>
</svg>