<?xml version="1.0" encoding="UTF-8"?>
<svg id="Layer_1" xmlns="http://www.w3.org/2000/svg" version="1.1" viewBox="0 0 1200 1200">
  <!-- Generator: Adobe Illustrator 29.0.0, SVG Export Plug-In . SVG Version: 2.1.0 Build 186)  -->
  <defs>
    <style>
      .st0 {
        fill: none;
      }
    </style>
  </defs>
  <path d="M225.4,658.1l5.2-5.7c-6-2.5-11-5.5-15.2-9,3,4.6,6.3,9.5,9.9,14.8h0Z"/>
  <path d="M255.3,915.3c-4.9,0-10.5.4-16.7,1.3l2.7,7.8-1.6,155.7c6.8,5.1,13.8,10,20.8,14.9l2.2-126c-10.1-18.3-8.9-35.5-7.4-53.7Z"/>
  <path d="M786.3,673.3c-6.3,4-12.6,9.7,1.9,19.3,1.6-4.7,2.5-9.5.8-15-.5-1.7-1.5-3-2.7-4.2h0Z"/>
  <path d="M199.9,557.1c-5.7-4.3-12.7-9-18.9-10.4,0,12.5-.3,25-.5,37.5,6.3,11.9,13.3,23.5,20.2,35.1-5-18.3-2.4-40.5-.8-62h0Z"/>
  <path d="M268.9,601.8c-18-5.5-14.1-27.2-12.2-47.6l-18.6-22.9-1.1,143.5c5.7,8.2,11.6,16.7,17.1,24.8-.6-14.6-.7-28.7,1.1-41.4,1.8-12.7,13.7-7.8,13.6-12.2-.5-14.2-27.6-25.4.1-44.3Z"/>
  <path d="M202.8,926c-13.1,4.7-24.5,10.4-30.9,16.4l12.1,4.1v12.6c-.1,0-17.5-4.5-17.5-4.5.8,7.3,6.8,15.4,9.8,23.4h7.5l-.5,54.1c6.8,6.5,13.8,13,20.9,19.2,1.2-41.9,1.8-83.9-1.4-125.3h0Z"/>
  <path d="M439.8,650.6h5.7l-5.7-6.9v6.9Z"/>
  <path d="M926,837.7c-2.8-4.4-5.3-8.7-7.1-13,2.6-5.5,4.6-11.3,6.3-17.1-.7-21.6-1.7-43-3.1-64.2-3-46.2-4.2-93.1-4.4-140.3l-2.3,2.7c-3.4,2.7-6.8,5.4-10.1,8.2l1.1,201.8-9.4-16-16,15.8c41.7,22.2,23.1,76.4,5,107.3l19.3,16.4h-25.3c-1.1,9.9,8.8,3.4,14.1,14.4,10.8,22.3-21.5,17-26,9.7-5.7-9.1.4-56.5,18.5-58.9l-6.3-16-12.7,9.3,1.1-129.8,12.3,6.1,6.8-18.6-19.4-3.6c1.6-18.1-6.9-32.9,13.5-37.6l-13.1-7.3.5-60.4c-6.3,6.1-12.7,12.5-19.1,18.8,0,1.3,0,2.6-.2,3.9-1.8,39.2-.2,83.2-.2,126.8-.1,62.4-3.4,125-1.8,187l-25.2-3.4c9.5,9.7,20.9,19.2,23.9,33.6,3.9,19,6.8,78.1,7.7,130.2,7-3.3,14-6.7,20.9-10.2.2-2.6.3-5.2.4-7.8.3-15.4-18.1-16.9,9.5-40.7l-19.1-.3.5-50.5,37,7.5c3.5,24-3.9,48-2.7,71.8,0,1.9.2,3.8.4,5.7,7.8-4.5,15.6-9.2,23.2-14.2,1.5-89.9,3.5-179.8,1.5-267.2h.1Z"/>
  <path d="M319.6,1013.7c-.7-22.6-14.7-48-9.3-82.5,2.3-14.9,14.9-26,13.7-37.2-.4-3.4-11.7-2.9-12.9-7.8-2.9-12.5-1.8-85.5.2-100.7,1.2-9.1,23.6-16.5,13.5-40.7l-12.7,6.3,1.1-135.7c-6.3-5.8-12.8-11.7-19.2-17.5l-.6,66.5-18.8,16.6,19.1-2.8c-1.1,43.4-2.4,86.9-2.9,130.3,1.6,5.9,3.7,11.5,6.8,16.4-1.8,4.1-4.3,8.3-7,12.7,0,51.4,1.6,102.9,6.8,154.1-21.1-2.9-25.6-1.3-31.8,18.7l31.6-6-12.9,28.3,12.7-3c-1,29.1-1.6,58.4-1.9,87.6,6.7,4,13.6,7.8,20.5,11.6,2.5-39.5,5-78.8,4-114.9v-.2Z"/>
  <path d="M998.5,646.7l-2.3,2,.9.2c.5-.7.9-1.5,1.4-2.2h0Z"/>
  <path d="M990.3,594.9l-13.2-12.4.5-51-20.4,24.3c.4,2.1,1,4.2,1.9,6.2l-13.2,7.1c-1,5.8,9.1,1.3,11,4.4,7.7,12.4-2.3,82.7-2,103.4.2,12,.6,24,1.1,36.1,7.1-11,15.5-24.1,24.2-37.9-2.4-28-11.3-73.1,9.7-80.3h.2Z"/>
  <path d="M1033.4,547.2c-5.9,1.8-12,6.3-17.3,10.4l-.4,61c9.4-15.6,17.8-30,23.9-41.5-5.7-6.9-6.7-17.9-6.2-29.9h0Z"/>
  <path d="M1037.8,1006.8v.2c.9.3,1.7.6,2.5.8.8-.8,1.5-1.7,2.3-2.5l-4.9,1.4h.1Z"/>
  <path d="M821.3,1061.9c-.4-12.1-11.4-22.1-11.8-37.6-1.2-49.5,2.4-99.4,1.4-149l19,3.2-19.1-25.5,13.2-25.1-12.7,3.1.9-125.2c-5.6,4.3-11.9,7.5-18.9,8.9l-1.8,204.7-12.7,3c.6,5.7,11.1,1,12.8,7.4,2.7,10.9,5.1,75.8,5.8,93.8,1.7,47.6-2.7,95.8-1.4,143.5,6.5-2.2,13-4.6,19.3-7-7.8-27.5,6.7-76,6-98.4h-.1Z"/>
  <path d="M1037.5,1006.9h.3c-1.5-3.7-3.7-7.7-6.9-12.5l.7-60.4c-7-3.8-14.8-7.7-18.1-9.1v5.7c2.2,19.5-6.5,28.5-24,33.9l-14.8-8.8.3-39.4c-4-.3-8-.4-12.1-.3-.3,8.3-.6,15.5-.9,20-2.6,43.2-2.5,93.7-2.2,144.2,6.8-5.1,13.6-10.3,20.2-15.8.2-21.4.4-42.9.6-64.4,15.8-13.9,12.5,13.9,25.2,16l6.6-38,.9,57.1c8.7-8.3,17.3-16.9,25.5-25.6-.3-.8-.6-1.7-.9-2.6-.1,0-.2,0-.4-.1h-.1Z"/>
  <g>
    <path class="st0" d="M719.8,792.3l-21.9-19.2-.5,57h.1c16.5-15.7,40.5-31,38.3-56.8l-16,19Z"/>
    <path class="st0" d="M698.4,703.5l-.5,63.3,37.7-12.7.7-56.7-6.4,25.2c-23.6,6.2-17.6-13.4-31.4-19.2Z"/>
    <path class="st0" d="M569.4,748.2c-2.8-4.5-22.6-7.9-16.9-26.8-5.8-2.7-19,5.5-19,9.3l-.8,104.5,38,.3c-2.2-15.6,3.8-79.2-1.3-87.3Z"/>
    <path d="M570.7,835.5h0s0,0,0,.1h0Z"/>
  </g>
  <path d="M629.4,1184.2c-40-3.8-40.5-45.4-35.4-79.1,1.6-10.5,12.6-18,12.6-19.1-.3-4.9-15.2-6.6-17.6-12.7-2-4.9-2.4-99.5-.5-106.8l13-7.1-13.4-12.6c10.6-68.3-5.7-149.1,1.7-215.8,1.5-13.8,12.4-8,13.4-9.3,1-1.2-11.2-14.9-12.7-28-2-17-1.8-35.8-.7-54.9-.5-.1-1.1-.2-1.6-.1-4.8,0-10.2,10.3-16,22.4l-.7,67-21.7-31.3c-.5.3-1,.5-1.5.6-2.2,0-5.9-7.2-10.2-17.7l-4.3-6.2,1.1-1.8c-6.2-16.2-13.3-36.6-18.9-50.4l-.2,21.4-13.4,12.2,12.7,3.2-.5,72.8-12.7,3c3.1-22.1-18.7-17.2-12.8,2.9.6,2.1,24,15.8,24.9,20.8,2.9,14.9-1.7,33.1,0,48.7l-25.5,3.5c6.6,20.5,3.4,24.4,25.5,28.9,7.1,23.1-12.1,52.6-13.2,69.6-.2,2.7,10.4,1.7,11.9,7.2,3.9,14.4,6.3,94.3,5.9,112.7-.4,16.7-22.7.3-35,9.4l-5.6-445.5c-14.5,1.1-28.7,10.4-34.4,25.1-1,2.5-1.7,5.2-2.2,7.9,5.6.6,11.6,1.2,17.1.6l-1.8,228-38.1-.3.5-50.7,12.7-2.9c.6-6.2-9.2-1-11.4-6.2-5.1-12.5-1.7-45.7.7-78.2-3.9-.7-7.2-1.9-10.1-3.6,2.1,83.6-8.3,186.1-18.1,259.1l12.1,18.6-19-3.2c28.7,17.2,14.9,51.3,18.3,82.4l-9.3-19.1-19.1,18.9c-22.1-9.1-2.9-92.2-2.9-111.5s-19.1-126.7,8.2-139c40.6,6.6,16-16.4-12.8-9.1l1.1-54.1,18.3-2.8c-26.1-16.3-26.8-50.2-7.4-71.8-3.5-3.5-7.1-7-10.6-10.5h-.2v-.2c-5.9-5.8-11.9-11.6-17.8-17.3-.4,16.2-1.1,30.2-1.6,32.2-1.8,6.4-11.2,1-12.6,7-3.4,14.6,11.3,6.4,13,13.7,1.7,7.3-1.1,93.6-3.9,97.6l-22.7,15.1,25.3,3.4c6.5,18.7-22.7,12.3-19.2,28.2,4.9,22.5,10.7,1.1,18.9-2.9,4.7,34.3-5.4,72.9-4.9,105.3.7,46.2,15.7,115.1,9.7,158.1-2,14.9-16.2,3.2-13.4,18.4l12.7-3c.3,8.8,1,16.4.7,22.5,4,1.8,8.1,3.6,12.3,5.3.7-26.2,1-52.3.2-78.4,9.4,16.8,29.7,12.1,30.7,13.6,6.9,9.1,7.3,43,6,79.1,6.2,2.1,12.5,4.2,18.8,6.1.2-5.3.5-10.6.8-16l18.9,9.5c-22.1-30.1-25.6-104.6-18.1-139.5,3.4-15.7,10.4-14,24.5-16.6l1.2-17.9-25.3,6c-3.4-41,12.5-85-5.2-123.6.9-13.8,40.7-2.9,42.7,7.4l.9,53.1-19,2.9,16.9,12.5c2.7,77,.2,154.6-1.8,231.9,6.9,1.7,14,3.2,21,4.7l1.1-137.9,15.2,6.6c6.1-15,9.3-8.1,22.7-12.7-6.2,47.3,2.3,101.7,1.2,150.7,5.4.7,10.8,1.4,16.3,1.9.7-27.6,1.4-54.6,1.3-80.5-.3-52.8-13.4-164.5-5-207,1-5.1,12.3-4.9,13-7.3,3.3-11.9-21.3-24.3-9.5-47.6l33.8-5.8v-12.9l-36.4-.4.8-104.5c0-3.8,13.2-12.1,19-9.3-5.7,18.9,14.1,22.3,16.9,26.8,5.1,8.1-.9,71.7,1.3,87.3h0c0,0,0,0,0,0l-.2,12.8-.7,88.7c-13.6-10-25.2-23-31.7,2.8l31.7,3.4c-9.5,63.6,18.2,158,4.3,217.2-.5,2-22.2,14.8-18.5,32.4l6.8,6.1c10.1.6,20.3,1,30.5,1.1v-.2l1.5.2h5.4c5.6,0,11.3,0,16.9-.2l-4.6-9.3h17.2v-6.3Z"/>
  <path d="M735.6,754.1l-35.6,12-.6,8.4,20.4,17.8,16-19c2.2,25.7-21.8,41.1-38.3,56.7h-.1c0,.1.5-56.9.5-56.9v-6.3l.5-63.3c13.9,5.8,7.8,25.4,31.4,19.2l6-23.4-1.3-8.3h.1c-10.1-1.8-1-19.4-6-30.1-9.3-19.7-23.7-4.8-28.2-39.8-6.2,14-11.8,30.9-17.1,45.6.8.5,1.5,1,1.7,1.8,2,5.9-.3,111.8-1.1,126.1-.8,14.6-.7,35.9-8.8,48.1-5.5-25.1-24.5,9.5-28.5-28.5-1.4-13.1,1.7-28,.7-41.5,29.6,17.7.5-30.6-.4-41.1-.9-12.1,5.3-23.7,4.8-32.7-.4-8.2-.7-16.5-.9-24.7-7.1-14.8-14.6-32-17.9-34.2-1.2-.8-2.3-1.2-3.4-1.4l-.5,73.7c-.9,14.7-13.3,16.3-25.9,15.9,8.4,15.8,8.5,28.5-.3,44.2l25.3-6c-3.5,22.9,5.8,63-3.7,82.5-6.1,12.6-25,6.8-22.4,21.8l25.3-2.9,3.8,313v9.8c.1,0,.1,8.7.1,8.7,5.4-.3,10.8-.6,16.3-1.1.4-12.9,1.2-25.2,2.5-36.4,2.1-18.5,12.2-28.2,13-37.4,1.7-19.1-17.2-22-18.2-26.7-9.5-43.7,15.9-39.6,19.3-55.6-34.8-13.9-13-63.5-18.3-95l22.3,3.2,3.2-15.7-25.4,2.9.8-95c17.9-1.1,25.7,16.5,25.2,31.9l12.6-6.3-1.1,174.5c-11.4,46.4,5.2,105.1-3.5,152.3,6.9-.9,13.9-2,20.8-3.1-1.9-41.3-4.5-87.6,13.8-117.6-23.3-7.4-6.9-57.8-8.1-81.3-1.8-36-11.6-73.1-9.9-109.3,1.1-24.2,15.4-6.9,13.4-27.9l-12.6,6.3.2-25.3,31.4,12.9,6.5-25.2-.4,71.9-13,7.1c16.9,4.3,17.5,50.1,18.5,69.9,3.4,69.7.6,140.3-1.7,210.8,5.9-1.4,11.9-2.9,17.7-4.4-.8-32.5,5.3-118.9,5.3-136.6v-.2c-.2-33.7-22.1-76.3,4.3-101.4l-13.1-12.2,4-331.2c-5.7-4-12.7-6.3-20.7-6.7v99.7l-.7,63Z"/>
  <path d="M735.8,699.2"/>
</svg>