<?xml version="1.0" encoding="UTF-8"?>
<svg id="Layer_1" xmlns="http://www.w3.org/2000/svg" version="1.1" viewBox="0 0 1200 1200">
  <!-- Generator: Adobe Illustrator 29.0.0, SVG Export Plug-In . SVG Version: 2.1.0 Build 186)  -->
  <path d="M1157.6,821.9l20.7.2-14.9-15.2c-.2.4-.3.9-.5,1.3-1.7,4.6-3.5,9.1-5.3,13.7Z"/>
  <path d="M1072.8,969.4h0s0,0,0,0h0Z"/>
  <path d="M1085.4,952.7l9.5-2.2c-1.2-1.7-2.7-3.3-4.5-4.7-.6.8-1.1,1.6-1.7,2.4-1.1,1.5-2.2,3-3.3,4.5Z"/>
  <path d="M697,1102.9l-7.2,13.4c5.7-.2,11.1-.9,15.6-2.5l-8.4-11Z"/>
  <path d="M417.3,1113.3l-1.2-4.8c-1.9,1.8-1,3.2,1.2,4.8Z"/>
  <path d="M574.4,1119.5c-3.2-1.5-6.3-3.4-9.2-5.6-1.1,2.2-2.5,4.1-4.2,5.6,4.5,0,8.9,0,13.4,0Z"/>
  <path d="M476.3,1118l-1.7-9.5c-2.5,3.9-5.2,7.1-7.8,9.5,3.2,0,6.4,0,9.6,0Z"/>
  <polygon points="765.1 1115.1 765.7 1114 741 1108.4 740.8 1109.3 751 1114.9 765.1 1115.1"/>
  <path d="M437.9,1117.8c-3.7-3.6-7.1-8.6-10-14.9-5.3,1.9-8.7,3.4-10.6,4.7l20.1,10.5.5-.4Z"/>
  <polygon points="790.3 1113.9 789.5 1115.3 791.1 1115.3 790.3 1113.9"/>
  <path d="M818.9,1140.3l2.3,1.9c11.9,0,23.8.1,35.7.2,5.7-2.7,11.3-5.5,16.9-8.3-16.2-6.9-51.3-2.2-54.9,6.3Z"/>
  <path d="M807.3,1132.6l-61.6-1.4-3,10.7c22,0,43.9.2,65.8.3l-1.2-9.6Z"/>
  <path d="M721.2,1141.7l-4.7-10.8c-43.6,1.7-87.6-2.6-131.2-1.1-15.6.6-71.8,2.6-81.3,5-5.5,1.4-1.5,10.4-6.3,11,73.6-3.7,148.6-4.3,223.4-4.2Z"/>
  <path d="M389.5,1158c6.2-22.3,21.1-6.2,34.3-7.3,24.4-2,49-3.6,73.8-4.8l-2.6-11-170-1.5c8.9,4.6,17.8,9,27,13.1,12.9-.4,26.4,4,37.5,11.5Z"/>
  <path d="M743.9,1164.3h14.5c0,.1-5.3-10.6-5.3-10.6l-1.2-1.2c-1.6,4.8-4.5,8.8-8,11.8Z"/>
  <polygon points="464.9 1167.9 486.9 1168.2 477.4 1157.8 464.9 1167.9"/>
  <path d="M503.5,1168.4l.2-.2c-1.1,0-2.2.1-3.3.2h3.1Z"/>
  <path d="M704.8,1165.3c2.7,0,5.3.1,7.8.1-1.9-2-3.5-4.5-4.6-7.7-3.4,0-1.7,4.2-3.1,7.6Z"/>
  <path d="M553.2,1167.8c-6.5-.2-13-.3-19.4-.3,6.1,1.1,12.7,1,19.4.3Z"/>
  <polygon points="455.6 1167.8 463.5 1167.9 460.9 1152.3 455.6 1167.8"/>
  <path d="M474.6,1184h-13.1c4.9,1.1,9.9,2.2,14.9,3.3l-1.8-3.3Z"/>
  <path d="M541.4,1179.2c-14.3.7-44.3,1.2-56,9.8,23.7.3,40,1.3,43,3.2.9.6,1.1,2.1,1.1,3.7,3.8.4,7.6.8,11.4,1.2.2-2.2.2-4.5,2.2-5.3,9-3.3,66.8-2,73.5,5.2v2.7c4-.1,7.9-.3,11.8-.4-.4-2.7-.4-5.5,0-8.6h43.8s.2,4.9.2,4.9c5.8-.7,11.5-1.5,17.2-2.3l-.8-2.5c3.3-.4,6.2.2,8.9,1.3,17.2-2.8,34.1-6.4,50.8-10.6-69.3-2.1-138.6-5.6-207-2.3Z"/>
  <path d="M273.4,1015.3h-10c0,0-2,9.8-2,9.8,9.3-.2,18.7-.5,28-.8l-1.8-8.4-14.1-.6Z"/>
  <path d="M938.6,1015.1c-.9,0-1.4.4-1.9.9,3.2.2,6.3.6,9.4.9-1-1.8-2.9-2.9-7.6-1.9Z"/>
  <path d="M175.2,1023.7c.6.6,1.2,1.2,1.8,1.7,7.6,0,15.1.1,22.7.2-8.1-.6-16.3-1.3-24.4-1.9Z"/>
  <path d="M806.8,1011.4h-.7s-3.9,9.2-3.9,9.2c1.5,0,3,0,4.6,0v-9.1Z"/>
  <path d="M576.5,1087.2c-8.4,1.7-14.8,6.7-20.7,12.3,21.5.5,42.9.7,64.3.4,23.8-.4,48.2-7.8,71.1-8.1,30.4-.4,60.9-.5,91.4-.5-6-4.5-12.5-8.3-20.6-9.4-27.3-3.9-157.4-.5-185.6,5.3Z"/>
  <path d="M806.2,1082.8l-5,8.5c47.2.2,94.5.6,141.7,1.1,4.2-3,8.4-6,12.6-9-.4,0-.9,0-1.3,0-49.3.8-99.1,1.2-148-.6Z"/>
  <path d="M302.1,1099.4c8.2,3.8,6.8,13.1,8,17.6h3.9s10.6-19.9,10.6-19.9c22.4,2.7,31.1-2.7,37.3,20.3h18.5c0,.1-10-19.8-10-19.8,59.2-2.6,118.8.3,178.2,1.8l1.8-13.3c-53.8,1.4-108.1-1.5-162.2-1.6-37.8,0-75.9,1.4-109.9-.2-11.1-.5-22.4-.7-33.7-.8,6.8,5,13.8,9.9,20.9,14.7,17-.7,32.1-.8,36.7,1.2Z"/>
  <path d="M218.1,1057.6c33.5-1.5,102-11.4,131.8-4.1.9.2,1.7.7,2.4,1.3l.6-3.3,16.1,5.9-5.1,10.2,9.9-13.3,27.3-.8-9.8-9.9,13.8-8.1-216.7,1.2c6,5.7,12.1,11.2,18.4,16.6l11.3,4.3Z"/>
  <polygon points="249.6 1064.5 249.5 1067.5 271.5 1067.7 271.5 1064.5 249.6 1064.5"/>
  <path d="M407.4,1053.3l86.7-2.5c-26-14.3-67.2-26.9-86.7,2.5Z"/>
  <path d="M524.7,1046c-2.4,1.2-3.9,2.6-4.8,4.1l18.2-.5c-1.3-4.8-5.1-7.6-13.4-3.6Z"/>
  <polygon points="512.2 1036.3 500 1050.7 512.2 1050.3 512.2 1036.3"/>
  <path d="M887.9,1029.3c-11.1.4-21.5.6-27.1.8-.1,0-.3,0-.4,0-14.6.6-27.7,1.5-38.2,2.9-13.3,1.8-21,11.1-32.9,11.6-10,.4-7.5-9.6-10.6-10.4-7-1.8-14.6-2.7-22.6-2.9h-12.9c-27.6,1.2-57.6,7.7-80,8.8-20.6,1.1-41.5-5.3-62.2-2.3l-6.4,31.4c19.4-15.1,49.8-38,64-10l6.1-11.2h15.3l6.1,11.2,6.3-11.2c7.4,1.5,21.8,1,37.2.2l2.4-10.2c7.2.4,7.7,5.4,7.2,9.7,21-1.1,41.6-1.9,47.5,1.8,2.7,1.7-1.3,10.5,3.7,9.7l6.3-11.2c30.8-2.3,62.1,2.4,92.6,2.5,18.7,0,45.6-7.3,60.7-7.2,2,0,13.3,12,31.7,19.8,1.2-1,2.5-2.1,3.7-3.1-.3-3.7-1-7.7.6-11.2l13-.5c6.7-5.9,13.2-12,19.6-18.3-39.4-.3-88.4-1.4-130.5-.7Z"/>
  <path d="M672.3,1059.1l-.5,3c.6,0,1.3,0,1.9,0,3.2,0,6.5.3,9.8.6-3.5-2.2-7.3-3.8-11.2-3.5Z"/>
  <path d="M146.3,992.4c8.4-7.4,24.8,3.6,38.9-2.9l6.2,11.4c5,.8,1.1-7.9,3.8-9.6,10.7-6.7,71.6,2,89.6,1.7,39.3-.5,80.1-4.4,118.5-4.5,2.9,1.7,2.2,19.7,11.7,24.3,2.3-.1,4.6-.2,6.8-.3-.2-11.2-6-20,4.5-24.3l-171.2-.5v-5.4s-116.7.9-116.7.9c2.6,3.1,5.1,6.1,7.8,9.2,0,0,.1,0,.2,0Z"/>
  <path d="M1062.1,982.2h-109.8s1.2-5.1,1.2-5.1h-14.7c-15.8,5.4-30.5,7.6-49.6,5.2l.5-4.7h-10.8c0,0,2,4.6,2,4.6-15.6-2-36.6,3.2-51.1,0-.6-.1-2-1.9-4-4.1l-26.2.2c-.4,1.2-.8,2.5-1.1,3.9h-10.8c0-.1-1-3.8-1-3.8h-10.9c-13.6,5.8-32.7-1.4-48.7,3.9l1.1-3.4h-13.8c0,.1,1.7,3.4,1.7,3.4-29,0-62.3-3.1-90.6-2.4-41,1-108.9,14.4-141.9.8l-20.7.2c-2.6,1.6-5.2,3.3-8,4.7,19.2,0,44.3.9,54.4,1.5,57,3.4,129,1.4,193,1.8,7.8,0,15.3-1.3,22.1-5.2l4.8,10.6c16.7-22,52.5,2.5,60.6-.5,3.1-1.1,1.9-9,6.6-10,8.4-1.7,26.5.6,26.4,11.2,5.4.4-2.2-9.9,10.7-11.4,5-.6,89.5.7,94,2.1,4.8,1.5-.2,10.6,5.2,10.2,5.4.3-2.2-9.9,10.7-11.4,36.1-4.2,78.3,4.3,117,.5,2.4-2.8,4.7-5.7,7.1-8.6h-7.2c0,0,2,6,2,6Z"/>
  <path d="M987.9,990.3l-14,.3c-2.4,9,10.4,3.1,11.3,8h14.4c-4.2-2.6-8.1-5.4-11.7-8.4Z"/>
  <path d="M365.8,1014.6l-62.4.5c20.4.4,41.3.1,62.4-.5Z"/>
  <path d="M223.8,1015.6h-8.8c1.5,5.4,7.3,5.4,8.8,0Z"/>
  <path d="M664.1,1015.3c4.1,1,6.5-.5,8.3-2.9h-9.3c.4,1,.7,1.9,1,2.9Z"/>
  <path d="M249.6,867.1c21.7,9.5,102.3-4.5,117.3.9,4.4,1.6,6.9,3.3,8.4,7.9v2c4,0,7.8-.1,11.6-.3v-10.6c11,5,25.3-1.8,35.4-.5.3-.4.6-.7.9-1.1,1.6-.7,2.1.3,2.4,1.9,3.5,1.3,6.2,4.2,7.7,9.7.2,0,.4,0,.6,0,6.7-18.4,38.9-3,57.3-10.1l1.7,10.3c1.1,0,2.2,0,3.2-.1l3.6-10.6c4.7.4,9.4.7,14.2.9.3-1,1-1.7,2.5-1.4.2.5.5,1,.7,1.5,9.6.3,19.3.3,29.2,0,6-5.4,12.5-10.9,19.6-12.1l-7.4,11.7c12.2-.5,24.6-1.4,37.1-2.3l-4.9-14.6,16.6-5.3c-32.1-3.1-49.2-2.6-71.5,21.3l11.1-21.8c-9.5.3-19.1.2-28.6,0,.2.2.3.4.5.6l-49,4.9-3.7-6.5c-.7,0-1.4,0-2.2,0,0,2.3,0,4.7-1,5.4-1.6,1.3-15.7,1.7-33.4,1.8-6.9,2.2-13,4.1-16.8,3.9-1.4,0-1.8-1.9-2.4-4-26-.3-53.2-1.1-60-1.3-9-.4-24.5-3.1-38.8-5l4.7,9.4c-18.2-4.2-31.7,6.1-50.8-.8-3.4-1.2-3.3-5.1-5.6-7.9-8.1.3-15.8-.5-21.7-4.5-31.8-1.3-68.8,4.4-99.6.5l-3.5,12.8c35.5,6.3,69.5,11.2,92.7,7.8-.2,3.7-.7,6.9-1.4,9.7,8.2-1.6,16.2-3.9,24-7.1l-2.9,10.9c1,0,2-.1,3.1-.2-.7-2.7-1-5.4-.8-7.8Z"/>
  <path d="M719,872.7l-.6,1.2h1.8c-.4-.4-.7-.8-1.1-1.2Z"/>
  <path d="M151.3,874.2c2.5,0,4.9.1,7.4.2-.1,0-.2,0-.3,0-1.5-.2-4-.2-7.1-.1Z"/>
  <path d="M1142.6,838.3l-1.6,1.5c-7,2-11.2.9-14.1-1.6-10.6-.1-21.2-.3-31.8-.5v2c-6.3,3.3-11.3,1.7-14.8-2.2-2.4,0-4.8,0-7.1-.1-1.2,4.8-7.4,1.9-13.8,2.3-26.9,2-54.2.3-81.4-.7-66,2.7-133,7.3-198.1,7.7-12.7,0-25.3-1.9-38.3-3.7l-47.4,2.2,10.9-5.4s0,0,0,0c-4.2,0-8.6.2-12.9.6-2.6.3-5.6.9-8.8,1.9,0,1-.1,2-.2,3l-8.3-.2c-14.7,5.3-31,12.8-36.8,11.1-3.4-1-3.6-10.5-11.1-12.1h-4.2c-1.4.1-2.9.5-4.6,1.1,3.3,16.2-3.9,16.4-14.6,19.3,46.5-3.5,93.4-7.6,135.1-1.6v-3.1s27.6-2.4,27.6-2.4l-9.5,14.1c1.2.5,2.4,1,3.6,1.2,1.2-.2,2.4-.3,3.6-.5,1.7-2.2,2.4-8.7,5.9-10.2,15.5-6.4,82.1-5.9,102.7-6,29.9-.1,59.7,1.7,89.7,1l-.8-9,4.4,8.9c4.7-.1,9.4-.3,14.1-.6-.1.6-.2,1.1-.3,1.7l6.5-4.2-2.9,21.9,12-3.3c1.8-4.3,3.3-9.8,4.3-16.4l84.8.4-2.8,11,33.1-11.7c16.7,18.8,15.9,7.6,27.4,2.5,3.1-6.5,6.1-13.1,9-19.7-2.7,0-5.5,0-8.2,0Z"/>
  <path d="M667.2,890c.8,2.2,6.3,10.7,9.1,17.7l59-2.3,2.4,14.3c1.3.9,2.7,1.7,4.1,2.3h12.7s3-16.8,3-16.8l13.8-.2v-12.8c-10.8-.4-21.4-1.1-31.8-2.2l-48.6-.3c-7.7.6-15.7.6-23.8.4Z"/>
  <path d="M545.5,893.9c-8.5,1.2-16.9,1.9-24.3,1.2-2.3-.2-4-.7-5.2-1.4l-19.4-.2c-1,.4-1.9.7-2.9.9-1.5.3-3.1.5-4.6.7l18.7,9.6-7.7,10,67.9-2.7-5.2-17.9h-17.3Z"/>
  <path d="M620.8,905.6c-3.3-.2-2.5-10-6.8-11.1-28-7.1-33.4-1.3-39.9,17.2l88-3.5-16.8-19c3.1,10.6-17.3,16.8-24.5,16.4Z"/>
  <path d="M861.6,903.8c-1.2-.6-2.5-1.3-3.8-2.2-3.4-2.1-3.4-9.7-7.7-10.7-.3,0-.7-.1-1-.2-24.1,1.2-47.9,2.1-70.7,1.6l7.6,12.4,75.7-1Z"/>
  <polygon points="778.8 904.9 785 904.8 782.4 901.3 778.8 904.9"/>
  <polygon points="949.9 902.7 958 902.6 952.7 891.7 949.9 902.7"/>
  <path d="M884.9,891.4c-4.6,1.1-5.2,8.1-8.3,12.2l62.8-.8,2.3-11.2c-13.3,2.9-46.7-2.8-56.8-.2Z"/>
  <path d="M1015.9,887.7l-.3.7c-2.2-.2-4.5-.4-6.7-.6-16.6.2-30.2,1.3-35.7,4.3-4.1,2.2-3.2,7.9-5.8,10.4l152.2-1.9c2.3-3.9,4.5-7.9,6.7-11.9-9.3.5-18.6.9-27.9,1.1-14.8.4-51.9-2-82.3-2Z"/>
  <path d="M101.3,922v-22c-8.6-.9-5.5,10.1-12.2,14.7,1.9,3,3.7,6,5.7,9,2.3-.4,4.5-1,6.7-1.7h-.1Z"/>
  <path d="M90.3,910.9c1.3-7.2-13.9-17,2.9-16.6,27.7.6,111,9.6,136.2,16.6,4.8,1.3,4.2,7,3.8,10.9l13.3-11.4,10.2,1.3,1.3-3.8,6,4.7,29.5,3.8c-1.8,3.4-3.1,5.9-3.9,7.9,33.4-1.7,69.9,5.5,102.5.3-1.4-2.4-3.1-4.4-5.2-5.5l29-1.1c2.3-1,4.6-2,6.8-3.2l-.8,3,74.8-3-38.2-10.7,4.6-8.7c-8.1-.5-16.2-1.5-24.3-2.3l-43.8-.4c-2.7.4-5.4,1-8,1.7v-1.8s-11,0-11,0v1.9c-2.6-.6-6.3-1-10.8-1.2-4.1,12.7,6.6,9.1,7.5,10.2,15.3,19.2-30.6,12.5-13.2-10.4-29-.5-79.2,3.6-93.9,0l-188.2,1.2c3.2,5.7,6.5,11.4,9.9,17.1,1.1-.1,2.1-.2,3.3-.4Z"/>
  <path d="M1093.4,799.6c-4.6-16.6-14.6-11.1-30.1-11.2l16.4,5.6-11.3,8.1,2.9,13.7,8.3-10.9v2.7c.6-.4,1.1-.7,1.8-.9,11,26.4,15.5,0,32.5-.6,15.5-.6,32.3,1.6,49.1,2,.2-.4.3-.9.5-1.3l-1.3-1.3h1.8c2-5.5,3.9-11,5.8-16.6l-73.4-.3-2.8,11Z"/>
  <path d="M1102.8,821.4h12.7c-2.7-1.8-6.5-2.3-12.7,0Z"/>
  <path d="M71.9,822.2c-7.2-.9-14.4-1.9-21.6-3,8.2,24.7,51.6,2.9,70.2,1.4,2.9-.2,6,.2,9.3.8-3.4-.7-6.8-1.4-10.1-2-9.6-1.7-34.3,4.4-47.7,2.8Z"/>
  <path d="M146.1,825.1c-4.6-1.1-9.1-2.1-13.6-3.1,4.6,1,9.2,2.4,13.6,3.1Z"/>
  <path d="M48.2,818.9c-2.5-.4-5-.8-7.5-1.2,1.4,3.7,2.9,7.4,4.4,11,.4-.2.7-.4,1.1-.6,2.2-1.3-.1-7.7,2-9.3Z"/>
  <path d="M85.5,797c.9.2,1.8.3,2.7.5l-.3-.5h-2.5Z"/>
  <path d="M258.6,814.8c4.3,4.3,8.8,6.9,13.8,8.6l14.7,2.2,134.9-2.3c2.7-2.9,4.2-8.7,4.3-12.7l18.8,17c1.5-.3,3.1-.5,4.8-.7,11-9.5,30.6-6.7,46.9,1.4,10.5.9,20.8,1.7,29.9,1.5l-2.6-3.9c.8-4,10.9-6.4,23.3-7.7.3-1.1.9-1.7,2.3-1.1.2.3.4.5.7.8,15.3-1.4,33.2-1.3,42.1-.5,3.1-1.9,6.2-3.8,9.4-5.5l2.5,14.6c.3.7.5,1.5.7,2.2,4.3-.9,8.9-1.5,13.7-1.7l9.5-9.5v9.3c3.3,0,6.8.1,10.2.3l-4.7-9.4c15.5-1,37-1.1,45.7,10.5,5.9-.4,11.4-1.2,16.5-2.7-4.3-2.2-8.2-5.2-7.3-13.3l17.6,8.8c2.2-1.4,4.3-3,6.1-4.9l1-3.9c.4.6.7,1.1,1,1.6,4.3-5.4,7.2-12.8,8.3-22.7-6.7,1.8-11.3,8-19,8.4-104,5-223.7-6.5-329.9-5.9-41.8.3-89,6.4-131.6,7.1-40.6.7-94.5-10.6-133.5,1.3,15.8,4,30,9.2,39.2,15.8l10.7-11.6,97,14.8c.8-3.2,1.1-6.6,2.9-6.1Z"/>
  <path d="M216.5,826c0,0,0,.2,0,.2,3.9,0,7.9,0,11.7,0-.3-1-.6-2-.8-3.1l-11,2.8Z"/>
  <path d="M302.6,963.8c11.7.4,24.1,0,36.8-.8,2.6-1.2,5.8-1.6,9.9-.6,17.9-1.2,36.3-2.8,54.2-3.1l2.3-6.1.7,6c10.1,0,20,.2,29.5,1.3l2.7-7.1,1.9,7.6c13.2,1.8,25.6,4.9,36.8,10.4,6.4-23.9,14-2.6,21.9-1.9,3.4.3,17.9-2.5,34.5-5.7l.2-.4c-4.6-15.2-12.4-22.7-29.3-20.8l-202.9-1.5-5.9,16.8-11-16.9-21.5-.2-3.2,16.8-14.7-16.9-140.3-.9c2,2.9,4,5.8,6,8.6,65.6-.5,124.4,13.1,191.2,15.5Z"/>
  <path d="M252.3,974c.9,0,1.8-.1,2.7-.2v-7.9s-2.7,8.1-2.7,8.1Z"/>
  <path d="M239.6,974.3c.5,0,1,0,1.4,0l3-3-4.4,2.9Z"/>
  <path d="M164.4,955l-2.8,16.3c-7.9-1-20.4-1.9-35.4-3.1,1.3,1.7,2.6,3.4,4,5l44.4.4-10.2-18.7Z"/>
  <path d="M58.1,840.6c2.7.4,5.4.8,8.1,1.2l.2-1.1c-2.8,0-5.6,0-8.3-.1Z"/>
  <path d="M70.3,860.9c-.2.1-.4.2-.6.3-2.9,1-5.8,1.8-8.9,2.3,1.7,3.4,3.4,6.8,5.1,10.2l24.9.2-20.5-12.9Z"/>
  <path d="M784.9,971.3c-.2.3-.4.6-.7.8.3,0,.6,0,.9,0l-.2-.8Z"/>
  <path d="M732.6,965.8l-21.9,5.6.4.8c6.5,0,12.9,0,19.4,0l2.1-6.4Z"/>
  <path d="M998.9,937.1c-4,.8-.9,14-16.5,9.8-2.1-.6-9.5-9.1-23.3-11.9-6.8.2-13.5.3-20.3.5-3.6,1.6-3,10.4-5.5,10.3-28.4-1.5-111.5-11.2-136.8-5.9-3.6.7-4.3,17.4-20,10.7l8.3-10.9-238.8,3.7,32.9,5.7c-.6,3.8-3.9,6-7.5,7.7,6.5-1,12.1-1.8,15.8-1.9,93.2-4.1,187.5,7.5,279.1-5.8l9.4,21.2c2.7,0,5.4-.2,8.1-.3-5.2-4-3-11.6-2.9-20.7l51.4-.2,6.3,11.2,6.1-10.9h46c0,0-10.3,14.4-10.3,14.4l4.2,5.2c.9,0,1.9-.1,2.8-.3,2.2-.3,4.2-1.1,6.1-2.2,2-3.5,4.8-6.6,8.2-9.1,14.3-10.7,49.1-11.1,87-9.5.6-.8,1.1-1.6,1.7-2.4-19.3-14.8-72.6-12.6-91.5-8.7Z"/>
  <path d="M802.4,972c5.7,0,11.5-.1,17.2-.2-5.5-4.8-12.2-7.8-17.2.2Z"/>
  <path d="M1056.6,965.9l1.1,3.4h6.6c-2.4-.8-4.9-1.9-7.7-3.4Z"/>
  <path d="M897.4,823.2l.7,2.2c.3,0,.7,0,1,0l-1.7-2.1Z"/>
  <path d="M809.5,812.3l-3.5,11.5c7.1.3,14.4.6,21.3.8l-12.2-4,19.3-8.7,54.3-1.3-6.3-16c-22.3,2.2-73.7-14.7-61,22.1l-10.8,2.6.2-27.4-65.9-.6c0,6-1.2,14.1,0,20.7.4,0,.9,0,1.3-.1,21-1.2,42.5,1.5,63.4.4Z"/>
  <path d="M1063.2,799.3l-9.2,9c1.1,3.7,2.1,6.6,3.1,9l6-18.1Z"/>
  <polygon points="969.9 793.1 893 792.5 890.7 810.5 959.2 808.8 969.9 793.1"/>
  <path d="M1027.5,804.4l1.1,2.7,22.8-.6c-6.3-13.8-49.3-16.4-61.4-13.5l-8.7,15.2,45.7-1.1.4-2.7Z"/>
  <path d="M91.5,853.2c2.2,3.5,4.7,6.7,7.5,9.6l2.2-6.6c-3.8-1.4-7-2.3-9.8-2.9Z"/>
  <path d="M124,841.2l-38.4-.3c.5,1.4,1.1,2.9,1.7,4.3,11.2,1.9,22.5,4,33.9,6.1.8-3.2,1.8-6.5,2.8-10.1Z"/>
  <path d="M273.4,1015.3l30-.2c-17.4-.3-34.6-1-51.4-2.4-9.2-.7-18.5-11.4-30-8.4,2.2,5,2.4,8.8,1.7,11.4l39.6-.3v-.5c.1,0,10,.4,10,.4Z"/>
  <path d="M1022.5,1009.8h15.8c3.4-3.8,6.8-7.4,10.1-11.2h-48.9c7,4.4,14.8,8.1,23,11.2Z"/>
  <path d="M985.1,998.7h-104.3c0,.1-2.7,11.1-2.7,11.1,1.6-18.1-80.3-12.1-84-9.5-1.7,1.2-1.1,6.5-1.3,9.2l-8,.3c-6.8-23.5-34.8-2.5-54.1-11.3l-6.3,11.3c4.5-14.4-43.4-11.7-45.5-10.2-2.8,2-3.7,8.7-6.6,12.7l133.8-1,.7-1.6v1.6s101.9-.7,101.9-.7l1.9-9.6,1.7,9.6,70.2-.5c1.8-3.3,2.8-7.1,2.8-10.8,0-.2,0-.4,0-.6Z"/>
  <path d="M663,1012.4c-7.6-17.8-31.3-4-46-4.5-63.6-2.3-130,1.6-195.2,4.6,0,.4,0,.8,0,1.2-2.7.4-5,0-6.8-.9-16.5.7-32.9,1.4-49.2,1.8l297.3-2.2Z"/>
  <path d="M756.1,1031.3l41.8-.3,4.4-10.4c-153.6,1.6-312.5-8.4-459.8,1.2-17.6,1.1-35.3,2-53.1,2.6l1.6,7.7c17.6-5.8,90.8,4.3,100.3-1.8,2.7-1.7-1.3-10.4,3.7-9.6,5.4,0-2.3,9.9,10.6,11.5,19.7,2.5,186.1,3.4,194.3-1.9,2.7-1.7-1.3-10.5,3.7-9.7l10.6,11.5,128.9-.8c4.4-.2,8.7-.2,12.9,0Z"/>
  <path d="M982.4,1010.1c-2.5,4.6-6.5,8-11.6,8.5-7.2.6-15.8-.5-24.7-1.5,1.7,3.1.3,8.5,4.2,9.4,34.2,8,45.3-21.8,80.1-10.9.6.2,1.1.5,1.5.8.9-.9,1.7-1.8,2.6-2.7-4.1-1.1-8.1-2.4-12-3.9l-40.1.3Z"/>
  <path d="M216.5,1004.4c-14.3,1.5-27.4-4.2-41.3-5.8-25.9-2.9-15.1-3.7-22.7-5.4-.7-.2-3-.5-6.3-.9,0,0,0,0,0,0,7,8,14.1,15.9,21.5,23.6l47.3-.3c-.7-2.5-.5-6.3,1.6-11.3Z"/>
  <path d="M913.4,1017.3l-1.2-6.7h-3.5s-1.3,6.5-1.3,6.5c-17.4-1.3-34.8,1.8-51.9,2.3-16.2.5-32.4.8-48.7,1v11.2c14.5,2.1,21.4-8.2,27.5-8.7,7-.6,16.6,7,26.1,7,8.7-.4,17.9-.6,27.5-.7,18.3-.6,38.9-1.6,44.3-3,4.7-1.2,2.5-7.8,4.5-10.2-8-.6-16-.6-23.3,1.3Z"/>
  <path d="M199.6,1025.6c20.6,1.6,41,3.2,60.6,5.4l1.2-5.9c-20.5.4-41.1.6-61.8.5Z"/>
  <path d="M421.8,1013.7c0-.4,0-.8,0-1.2-2.3.1-4.6.2-6.8.3,1.9.9,4.1,1.3,6.8.9Z"/>
  <path d="M146.1,992.4s0,0,0,0c0,0,0,0,0,0,0,0-.1,0-.2,0Z"/>
  <path d="M199.6,1025.6c20.7,0,41.3,0,61.8-.5l2-9.8-39.6.3c-1.5,5.4-7.3,5.4-8.8,0l-47.3.3c2.5,2.6,5,5.1,7.5,7.7,8.2.7,16.3,1.3,24.4,1.9Z"/>
  <path d="M802.3,1020.6l3.9-9.2-133.8,1c-1.8,2.4-4.2,3.9-8.3,2.9-.3-1-.6-2-1-2.9l-297.3,2.2c-21.1.6-41.9.8-62.4.5l-30,.2,14.1.6,1.8,8.4c17.8-.6,35.5-1.4,53.1-2.6,147.3-9.6,306.3.5,459.8-1.2Z"/>
  <path d="M1022.5,1009.8c3.9,1.5,7.9,2.7,12,3.9,1.3-1.3,2.5-2.7,3.8-4h-15.8Z"/>
  <path d="M985.1,998.7c0,.2,0,.4,0,.6,0,3.7-1,7.6-2.8,10.8l40.1-.3c-8.2-3-15.9-6.8-23-11.1h-14.4Z"/>
  <path d="M855.6,1019.5c17.1-.5,34.5-3.7,51.9-2.3l1.3-6.5-101.9.7v9.1c16.3-.2,32.6-.5,48.7-1Z"/>
  <path d="M913.4,1017.3c7.3-1.9,15.3-1.9,23.3-1.3.4-.5,1-.9,1.9-.9,4.6-1,6.6,0,7.6,1.9,8.9,1,17.4,2.1,24.7,1.5,5.1-.4,9.1-3.9,11.6-8.5l-70.2.5,1.2,6.7Z"/>
  <polygon points="910.6 1001 908.7 1010.6 912.3 1010.6 910.6 1001"/>
  <path d="M860.8,1030.1c5.6-.1,15.9-.4,27.1-.8-9.6.1-18.8.4-27.5.7.1,0,.3,0,.4,0Z"/>
  <path d="M743.1,1031.3h12.9c-4.2-.2-8.6-.2-12.9,0Z"/>
  <path d="M1072.8,969.4c4.3-5.5,8.5-11.1,12.6-16.7l-12.6,2.9v13.8Z"/>
  <path d="M889.7,977.6l49-.4c5.2-1.7,10.5-3.8,16.1-6.2l-1.4,6.1,106.7-.8-2.3-7.1h-12.4c8.5-12,4.9-14.1-8.1-11.1-6,1.4,11.2,13.7-5.6,10.9l-9.2-15.3c-12.7-2.6-20,8-29,12.9-1.7,3-2.8,6.4-2.9,10.1l-6.1-7.6c-8.5.3-16.9-3.6-24.3-3.1-25.5,1.7-51,3-76.5,4,1.5,1.1,3.6,2,6.5,2.5l-.6,5.1Z"/>
  <path d="M1071.9,970.6c.3-.4.6-.8.9-1.2h-8.4c2.7.9,5.2,1.3,7.5,1.2Z"/>
  <path d="M889.2,982.3c19.1,2.4,33.8.2,49.6-5.1l-49,.4-.5,4.7Z"/>
  <polygon points="952.3 982.2 1062.1 982.2 1060.1 976.3 953.5 977.1 952.3 982.2"/>
  <path d="M984.6,969.2l-4.2-5.2,10.3-14.5h-46c0,0-6.1,11-6.1,11l-6.3-11.2-51.4.2c-.1,9.1-2.3,16.7,2.9,20.7,25.5-.9,51-2.2,76.5-4,7.3-.5,15.8,3.4,24.3,3.1Z"/>
  <path d="M1001.7,957.6c-3.3,2.5-6.2,5.6-8.2,9.1,9-4.9,16.3-15.4,29-12.9l9.2,15.3c16.8,2.7-.4-9.6,5.6-10.9,13-2.9,16.6-.9,8.1,11h12.4c0,0-1.1-3.3-1.1-3.3,2.8,1.5,5.4,2.7,7.7,3.5h8.4c0,0,0,0,0,0v-13.8s12.6-2.9,12.6-2.9c1.1-1.5,2.2-3,3.3-4.5-37.9-1.7-72.6-1.3-87,9.5Z"/>
  <path d="M466.7,1118c-3.3,0-6.7,0-10,.1l2.8-16.4-21.6,16.1c8.7,8.6,19.1,9.1,28.8.2Z"/>
  <path d="M417.3,1113.3l1.1,4.5-38-.3,1,1.9-18.8.4c-.2-.8-.4-1.6-.6-2.4l-47.9-.4-1.3,2.5c-1.5,0-2.2-1-2.6-2.5h-14.9c4.4,2.5,8.9,5.1,13.4,7.6l122.1.3c-3.1-5.9-9.9-9-13.4-11.6Z"/>
  <path d="M547.4,1107.9c2.8-2.7,5.5-5.6,8.4-8.4-2.4,0-4.8-.1-7.3-.2l-1.1,8.5Z"/>
  <path d="M561,1119.6c-28.2-.2-56.5-1.4-84.7-1.6l1.3,7.3c23.6-5.7,66.8,9.1,83.3-5.8Z"/>
  <path d="M415.7,1106.8l.4,1.7c.3-.3.7-.6,1.2-.9l-1.6-.8Z"/>
  <path d="M685.1,1125.2l4.7-8.8c-23.9.8-55.3-7.7-71.4-7.2-10.5.3-19.1,9.9-32.6,10.2-3.8,0-7.7.1-11.5.2,30.8,14.5,76.7.4,110.7,5.6Z"/>
  <path d="M795.6,1124.1c28.4-4.9,62.1-.6,93.8,1.6,5.4-3,10.7-6,16-9.2l-114.3-1.2,4.5,8.8Z"/>
  <polygon points="784.2 1124.7 789.5 1115.3 765.1 1115.1 760.1 1124.9 784.2 1124.7"/>
  <path d="M782.6,1091.3c8.2,6.2,15.7,14,25.5,18.7l-8.2-16.6,1.2-2.1c-6.2,0-12.3,0-18.5,0Z"/>
  <path d="M737.8,1124.3l3-14.9-20.3-11.1c-1.9,8.2-7.5,13-15.1,15.6l8.7,11.4,23.7-1Z"/>
  <path d="M324.6,1097.1l-10.6,19.9,47.9.4c-6.2-23-14.9-17.6-37.3-20.3Z"/>
  <path d="M302.1,1099.4c-4.5-2.1-19.7-1.9-36.7-1.2,9.7,6.5,19.6,12.8,29.7,18.7h14.9c-1.2-4.4.2-13.7-8-17.5Z"/>
  <path d="M801.1,1091.3l-1.2,2.1,8.2,16.6c-9.8-4.7-17.2-12.5-25.5-18.7-30.5,0-61,0-91.4.5-22.9.3-47.3,7.8-71.1,8.1-21.4.3-42.8,0-64.3-.4-2.9,2.8-5.6,5.6-8.4,8.4l1.1-8.5c-59.4-1.4-119-4.3-178.2-1.8l10,20,38,.3-1.1-4.5c-2.2-1.6-3.1-3-1.2-4.8l-.4-1.7,1.6.8c2-1.3,5.3-2.8,10.6-4.7,3,6.3,6.3,11.3,10,14.9l21.6-16.1-2.8,16.4c3.3,0,6.7,0,10-.1,2.7-2.4,5.3-5.6,7.8-9.5l1.7,9.5c28.2.1,56.5,1.4,84.7,1.6,1.7-1.5,3.1-3.4,4.2-5.6,2.9,2.2,6,4,9.2,5.6,3.8,0,7.7,0,11.5-.2,13.4-.3,22.1-9.9,32.6-10.2,16-.5,47.4,8,71.4,7.2l7.2-13.4,8.4,11c7.6-2.6,13.2-7.4,15.1-15.6l20.3,11.1.2-1,24.7,5.6-.5,1,24.4.3.8-1.4.7,1.5,114.3,1.2c12.8-7.6,25.3-15.6,37.4-24.1-47.2-.5-94.5-1-141.7-1.1Z"/>
  <path d="M455.6,1167.8l-51.9-.6c2,.7,4.1,1.4,6.1,2.1h45.4s.5-1.4.5-1.4Z"/>
  <path d="M816,1158.3l9.5-2.1c2.8-1.1,5.5-2.3,8.2-3.4l-12.5-10.6c-4.3,0-8.5,0-12.8,0l1.9,15.3c1.9.3,3.8.6,5.7.9Z"/>
  <path d="M488,1169.3c4.1-.4,8.2-.7,12.3-1l-13.4-.2,1,1.1Z"/>
  <path d="M503.7,1168.1c9.9-.5,19.9-.7,30.1-.7-7.3-1.3-14.1-4.5-19.7-10.4l-10.4,11.1Z"/>
  <path d="M497.8,1145.9s0,0-.1,0h0s0,0,.1,0Z"/>
  <polygon points="463.7 1168.9 464.9 1167.9 463.5 1167.9 463.7 1168.9"/>
  <path d="M712.6,1165.4c8,8.2,22,6.9,31.3-1.2h-7.5c0,0,6.3-22.5,6.3-22.5-7.1,0-14.3,0-21.4,0l9.7,22.4c-1.4,1-8.3,1.4-18.3,1.3Z"/>
  <path d="M553.2,1167.8c48.9,1.3,99.6,6,144,1.7,4.8-.5,6.8-2.2,7.7-4.1-33.8-.7-89.9-4.6-102.9-4.5-15.2,0-32.6,5.2-48.7,6.9Z"/>
  <path d="M810.6,1159.4l-.3-2.1c-3.6-.5-7.2-1-10.9-1.3-8.2-.7-18.3,9.1-26.7,7.5-13.9-2.7-8.4-25.4-25.2-21.2l5.5,11.2,15.1,15.6c7.9-.2,15.8-.4,23.7-.6,9.2-3.1,18.2-6.4,27.2-9.9-1-.2-2-.3-3-.5l-5.4,1.2Z"/>
  <path d="M816,1158.3c1,.2,2,.3,3,.5,2.2-.9,4.4-1.7,6.5-2.6l-9.5,2.1Z"/>
  <path d="M743.9,1164.3c3.5-3,6.4-7,8-11.8l1.2,1.2-5.5-11.2c16.8-4.3,11.3,18.5,25.2,21.2,8.4,1.6,18.6-8.2,26.7-7.5,3.7.3,7.3.8,10.9,1.3l-1.9-15.3c-21.9-.1-43.8-.2-65.8-.3l-6.3,22.4h7.5Z"/>
  <path d="M856.9,1142.3c-11.9,0-23.8,0-35.7-.2l12.5,10.6c7.8-3.3,15.5-6.8,23.2-10.4Z"/>
  <path d="M810.6,1159.4l5.4-1.2c-1.9-.3-3.8-.6-5.7-.9l.3,2.1Z"/>
  <path d="M460.9,1152.3l2.6,15.6h1.4s12.5-10.1,12.5-10.1l9.5,10.4,13.4.2c1.1,0,2.2-.1,3.3-.2l10.4-11.1c5.7,6,12.4,9.1,19.7,10.4,6.4,0,12.9.1,19.4.3,16.2-1.7,33.5-6.9,48.7-6.9,13.1,0,69.1,3.8,102.9,4.5,1.5-3.3-.3-7.5,3.1-7.6,1.1,3.2,2.7,5.7,4.6,7.7,10,0,16.9-.3,18.3-1.3l-9.7-22.4c-74.8-.1-149.9.5-223.4,4.2,0,0,0,0-.1,0h0c-24.8,1.2-49.4,2.8-73.8,4.8-13.3,1.1-28.1-15-34.3,7.3-11.1-7.6-24.6-11.9-37.5-11.5,16.8,7.6,34.1,14.5,51.7,20.6l51.9.6,5.3-15.5Z"/>
  <path d="M1021.7,864.8l-26.7,7.4c-8.1,19.6-21.6,15.6-15.6-14.4l-10,6.5-3.7-7.6c-1.2,0-2.4,0-3.6,0l1.7,18.4c-19.9,9.2-42.4-11-52.1-11.5-3.6-.2.2,10.2-10.7,11.6-14.8,1.9-47.5,4.2-49.7-11.8-21.1,18.9-58.2,5.6-87.5,8.7-.4.5-.8.8-1.3.8-.8,0-1.5-.1-2.3-.3-1.7.3-3.4.6-5.1,1l1.5-2.2c-5.6-2.6-11.2-7.5-17.2-8.4-.3,0-.6,0-.9-.1v10.6s-18.5.4-18.5.4c6.2,7,4.1,14.3,15.1,15.6,1.4.2,2.9.3,4.3.5l31.9.2v2c2.2,0,4.5.1,6.8.2l-1.3-2c21.4,3,51.9-3.7,72,.5,54.3-2.8,110-7.5,159.8-3.1,2.3,0,4.6,0,7,0l4.8-9.6c6.7,4.4,13.8,8.2,22,8.2,28.4.3,57-.6,85.6-1.7,3-5.5,5.8-11.1,8.6-16.7-37.2,1.1-74.1,3.3-110.5,7.4l-4.8-10.6Z"/>
  <path d="M596.1,866.9c2.6-1.1,5.1-1.8,7.4-2.5-2.7.2-5.3.4-8,.6l.6,1.9Z"/>
  <path d="M489.1,895.1l-3.2-1.6h10.6c7.2-2.8,14.8-10.9,16.3-9.8,1,.8-2.2,7.1,3.1,10l29.5.2c17.8-2.5,36-7.5,47-7.8,23.1-.7,49.4,3.1,74.8,3.9-.1-.3-.1-.5,0-.5l23.8.2c1.8-.1,3.5-.3,5.2-.5l6.3-11.2,8.2,11,7.7-15.1-166.4,3.6,6.4-10.2c-4.1.2-8.1.3-12.2.4-10.9,9.7-20.3,18.8-29.2,0-1.1,0-2.2,0-3.2-.1-.7,2.4.6,7-1.3,8.2-1,.6-7.5,1.1-16.6,1.5l-2.2,6.3-1-6.2c-19.4.6-47.5.6-59-.2-.1.3-.2.6-.3,1,0-.4-.2-.7-.3-1-1.9-.1-3.2-.3-3.9-.5-3.7-1-3.3-6.2-3.8-9.1-1-.4-2.1-.7-3.3-.8-5.7,7.1-11.7,9-20.9,10-4.7.5-9.6.8-14.5,1v15s8,0,8,0c14.1-2.3,28.9-1.2,43.8.4l25.4.2-1.1,2.1c8.9.6,17.6.7,26.2-.4Z"/>
  <path d="M1114.5,855.5l-33.1,11.7,2.8-11-84.8-.4c-1,6.6-2.5,12.1-4.3,16.4l26.7-7.4,4.8,10.6c36.4-4.1,73.3-6.3,110.5-7.4,1.7-3.3,3.3-6.6,4.9-10-11.5,5.1-10.7,16.3-27.4-2.5Z"/>
  <path d="M979.4,857.8c.1-.6.2-1.1.3-1.7-4.7.3-9.4.5-14.1.6l3.7,7.6,10-6.5Z"/>
  <path d="M851.4,863.5c2.2,16,34.9,13.7,49.7,11.8,10.9-1.4,7.1-11.8,10.7-11.6,9.6.6,32.2,20.8,52.1,11.5l-1.7-18.4c-29.9.7-59.8-1.1-89.7-1-20.6,0-87.2-.4-102.7,6-3.6,1.5-4.3,8-5.9,10.2,29.3-3,66.4,10.3,87.5-8.7Z"/>
  <path d="M760.3,872.6c-1.2-.3-2.4-.7-3.6-1.2l-1.5,2.2c1.7-.4,3.4-.7,5.1-1Z"/>
  <path d="M595.5,865c-12.4.9-24.8,1.8-37.1,2.3l-6.4,10.2,166.4-3.6.6-1.2c.4.4.8.8,1.1,1.2l18.6-.4v-10.6c-41.8-6-88.7-1.9-135.2,1.6-2.3.6-4.8,1.4-7.4,2.5l-.6-1.9Z"/>
  <path d="M433.8,877.2c11.5.8,39.6.8,59,.2l-1.7-10.3c-18.3,7.1-50.5-8.3-57.3,10.1Z"/>
  <path d="M386.8,867.1v10.6c4.9-.2,9.7-.5,14.5-1,9.2-.9,15.2-2.9,20.9-10-10.1-1.3-24.4,5.5-35.4.5Z"/>
  <path d="M425.5,867.5c.5,3,.1,8.1,3.8,9.1.7.2,2.1.4,3.9.5-1.5-5.5-4.2-8.4-7.7-9.7Z"/>
  <path d="M496,877.3c9-.3,15.6-.8,16.6-1.5,1.9-1.2.5-5.8,1.3-8.2-4.8-.2-9.5-.5-14.2-.9l-3.6,10.6Z"/>
  <path d="M517.1,867.7c8.9,18.9,18.3,9.8,29.2,0-9.9.3-19.6.3-29.2,0Z"/>
  <path d="M545.5,893.9l-29.5-.2c1.2.7,2.9,1.2,5.2,1.4,7.4.7,15.8,0,24.3-1.2Z"/>
  <path d="M386.8,894.5c2.6-.7,5.3-1.3,8-1.7h-8c0,0,0,1.7,0,1.7Z"/>
  <path d="M849,890.8c-20.1-4.1-50.6,2.6-72-.5l1.3,2c22.9.5,46.7-.3,70.7-1.6Z"/>
  <path d="M691,889.6l-23.8-.2c0,0,0,.2,0,.5,8.1.3,16,.2,23.8-.4Z"/>
  <path d="M438.6,893.1c8.1.8,16.3,1.8,24.3,2.3l1.1-2.1-25.4-.2Z"/>
  <path d="M496.6,893.5h-10.6c0,0,3.2,1.5,3.2,1.5,1.5-.2,3.1-.4,4.6-.7.9-.2,1.9-.5,2.9-.9Z"/>
  <path d="M771.5,890.2l-31.9-.2c10.4,1.1,21,1.8,31.9,2.2v-2Z"/>
  <path d="M1015.9,887.7c-2.4,0-4.7,0-7,0,2.2.2,4.5.4,6.7.6l.3-.7Z"/>
  <polygon points="790.5 912.4 785.9 904.8 785 904.8 790.5 912.4"/>
  <path d="M806.9,914.5c-11.3-.7-43.5,17-65,7.4h-3.7s-.4-2.3-.4-2.3c-2.9-1.9-5.5-4.5-7.7-7.8l-6.2,10.7c-37.2-9.5-82.3,4.3-115.5,4.6-14.3.1-20.2-12.8-37.4-5.9,0,.1,0,.2-.1.3v-.2c-3.2,1.3-6.7,3.2-10.8,6l-140.3-1.6,2.1-8-6,.2c-7.6,3.2-15.6,5.3-23.8,6.6,2.8,4.7,4.7,10.6,6.8,12.2,3.3,2.5,72.1,1.8,83.8,1.3,79.3-3.4,172.8,1.3,258.5.5,65.2-.6,131.4-1.6,197.7-3.1.2,0,.4-.2.6-.2,7.6-1.6,14.2-1.4,19.7-.3,47.3-1.2,94.7-2.7,141.7-4.5,1.4-2.1,2.7-4.1,4-6.2-102.1,1.4-210.2-4.5-298-9.8Z"/>
  <path d="M958.1,902.6c5.2,1.7,7.7,1.2,9.2-.2h-9.2c0,.1,0,.2,0,.2Z"/>
  <polygon points="936 918.9 955.2 919.2 947 913.6 949.9 902.7 939.3 902.8 936 918.9"/>
  <path d="M876.5,903.6l-15,.2c8.5,4.4,12.5,3,15-.2Z"/>
  <polygon points="771.3 912.2 778.8 904.9 771.4 905 771.3 912.2"/>
  <path d="M568,912l2.7,9.4c0,0,.1,0,.2,0,1.2-3.5,2.2-6.6,3.2-9.5l-6.1.2Z"/>
  <path d="M669.8,916.9c9.3,3,9.2-2.4,6.6-9.2l-14.2.6,7.6,8.6Z"/>
  <polygon points="500.2 914.7 496.6 914.8 499.5 915.6 500.2 914.7"/>
  <path d="M560.1,927.4c4-2.8,7.5-4.7,10.7-6l-2.7-9.4-67.9,2.7-.7.9-2.9-.8-74.8,3-2.1,8,140.3,1.6Z"/>
  <path d="M676.3,907.7c2.7,6.8,2.7,12.1-6.6,9.2l-7.6-8.6-88,3.5c-1,2.9-2.1,6-3.2,9.5,17.3-6.9,23.2,6,37.4,5.9,33.2-.3,78.3-14.1,115.5-4.6l6.2-10.7c2.2,3.3,4.8,5.9,7.7,7.8l-2.4-14.3-59,2.3Z"/>
  <path d="M570.8,921.6c0-.1,0-.2.1-.3,0,0-.1,0-.2,0v.2Z"/>
  <path d="M386.8,919.2c2.1,1.1,3.8,3.1,5.2,5.5,8.2-1.3,16.2-3.4,23.8-6.6l-29,1.1Z"/>
  <path d="M967.3,902.5c-1.5,1.4-4,1.9-9.2.2h0c0,0-8.2,0-8.2,0l-2.8,11,8.1,5.5-19.2-.2,3.4-16.1-62.8.8c-2.4,3.2-6.4,4.6-15,.2l-75.7,1,4.7,7.6-5.6-7.6h-6.2c0,0-7.5,7.4-7.5,7.4v-7.2c0,0-13.7.2-13.7.2l-3,16.8h-12.7c21.5,9.6,53.6-8.1,65-7.4,87.8,5.3,195.9,11.2,298,9.8,5-7.8,9.9-15.7,14.6-23.8l-152.2,1.9Z"/>
  <path d="M939.4,935.3c-.2,0-.4.1-.6.2,6.8-.2,13.5-.3,20.3-.5-5.5-1.1-12.1-1.3-19.7.3Z"/>
  <path d="M616.6,1199.8v-2.7c-6.8-7.1-64.6-8.5-73.6-5.2-2,.7-2,3-2.2,5.3,19.5,1.9,39.2,2.9,59.1,2.9s11.1,0,16.6-.2Z"/>
  <path d="M485.4,1189c0,0-.1,0-.2,0,0,0,.1,0,.2,0,0,0,0,0,0,0Z"/>
  <path d="M529.5,1195.9c0-1.6-.1-3.1-1.1-3.7-3-1.9-19.3-2.9-43-3.2,0,0,0,0,0,0,14.5,2.8,29.2,5.1,44.1,6.8Z"/>
  <path d="M478.9,978.4c1.5.8,3.1,1.6,4.8,2.3l230.8-1.7-3.4-6.7c-48.6-.2-97.3-.9-146.1-1.2-7.9-8.9-.3-10.8,6.4-14.1-11.1,1.8-24.9,4.4-37.5,6.9l-7.4,12.4-82.4-.7-3.5-14.4c-1.5-.2-3-.4-4.5-.6l-5.6,14.8h-22c0,0-1.9-16.1-1.9-16.1-1,0-2,0-3,0l-6.1,15.9-49.4-.5,5.7-10.8c-1.6-.7-3-1.1-4.4-1.4-3.3.2-6.6.4-9.9.6-7.1,3.2-10,11.8-15.9,12.1-11.3.6-22.5-4.7-32.4-4.5-9.3.1-22.9,2.3-36.2,3.3v8.5s208-1.6,208-1.6c5.3-3.2,10.5-5.5,16-2.4Z"/>
  <path d="M241,974.4l-7.9,7.9h16.4c0,0,2.7-8.2,2.7-8.2-3.8.2-7.6.4-11.2.3Z"/>
  <path d="M825.8,978.1l53.1-.4-3.2-7.3c-18.7.6-37.4,1.1-56.1,1.4,2.4,2,4.5,4.4,6.2,6.4Z"/>
  <path d="M785.1,972.1l1.6,6.2h12.9c.9-2.7,1.8-4.8,2.8-6.4-5.8,0-11.5.1-17.3.2Z"/>
  <path d="M455,985.5c-9.7,0-17.8.3-21.8.9-2.9.5-5.1,1.1-6.9,1.8h18.2c3.7.4,7.2-.9,10.6-2.7Z"/>
  <path d="M213.6,962.5l-10.7,11.4-28.4-.3,1.8,3.3,51.2,5.3,12-7.9c-12.7-.3-23-3.2-25.9-11.8Z"/>
  <path d="M784.2,972.1c-17.9.1-35.8.2-53.7.1l-2.2,6.6,47.5-.4c3.1-1.3,5.9-3.3,8.3-6.3Z"/>
  <path d="M455,985.5c2.7-1.4,5.3-3.2,8-4.7l-208,1.6v5.4s171.3.5,171.3.5c1.8-.7,4.1-1.3,6.9-1.8,4-.6,12.2-.9,21.8-.9Z"/>
  <path d="M625.6,979.9c28.4-.7,61.6,2.4,90.6,2.4l-1.7-3.3-230.8,1.7c33,13.6,100.9.3,141.9-.8Z"/>
  <path d="M829.8,982.2c14.4,3.3,35.5-2,51.1,0l-2-4.5-53.1.4c2,2.2,3.4,4,4,4.1Z"/>
  <path d="M787.7,982.1h10.8c.4-1.3.7-2.6,1.1-3.8h-12.9c0,0,1,3.8,1,3.8Z"/>
  <path d="M727.2,982.2c16-5.2,35.1,2,48.7-3.8l-47.5.4-1.1,3.4Z"/>
  <path d="M430.4,975.3l5.6-14.8c-9.6-1-19.5-1.4-29.5-1.3l1.9,16h22Z"/>
  <path d="M526.5,976.1l7.4-12.4c-16.6,3.2-31.2,6-34.5,5.7-7.9-.6-15.5-22-21.9,1.9-11.2-5.4-23.6-8.6-36.8-10.4l3.5,14.4,82.4.7Z"/>
  <path d="M348,974.6l49.4.5,6.1-15.9c-17.9.3-36.3,1.9-54.2,3.1,1.4.3,2.8.8,4.4,1.4l-5.7,10.8Z"/>
  <path d="M323.6,975.1c5.9-.3,8.8-8.9,15.9-12.1-12.8.8-25.2,1.3-36.8.8-66.8-2.4-125.6-16-191.2-15.5,4.8,6.8,9.8,13.4,14.9,20,15,1.1,27.5,2.1,35.4,3.1l2.8-16.3,10.2,18.7,28.4.3,10.7-11.4c2.9,8.6,13.3,11.4,25.9,11.8l4.4-2.9-3,3c3.6,0,7.4,0,11.2-.3l2.7-8.1v7.9c13.3-1,27-3.1,36.2-3.3,9.9-.2,21.1,5.1,32.4,4.5Z"/>
  <path d="M565,971c48.7.3,97.4,1,146.1,1.2l-.4-.8,21.9-5.6-2.1,6.4c17.9,0,35.8,0,53.7-.1.2-.3.5-.5.7-.8l.2.8c5.8,0,11.5,0,17.3-.2,5-8.1,11.7-5,17.2-.2,18.7-.3,37.4-.7,56.1-1.4l-9.4-21.2c-91.6,13.3-185.9,1.7-279.1,5.8-3.8.2-9.3.9-15.8,1.9-6.7,3.3-14.3,5.2-6.4,14.1Z"/>
  <path d="M48.2,818.9c.7.1,1.4.2,2.1.3,0-.2-.1-.4-.2-.6-.8-.1-1.4,0-1.8.3Z"/>
  <path d="M132.4,822c-.9-.2-1.8-.4-2.7-.6.9.2,1.8.4,2.7.6Z"/>
  <path d="M259.7,845c10.6-.4,22-2.8,31.2-2.6,5.8.1,12.9.9,20.4,1.9l-.8-1.5c27.7,6.2,65.2-2.3,90.8,0,6.3.6,7.8,4.6,8.7,7.8,6.6,0,13.1.1,19.2.1,8.8-2.9,18.9-6.4,26.9-6.8,2.5-.1,5-.2,7.5-.3,0-1.4,0-2.8,0-3.8l2.2,3.8c17.3-.4,34.8.5,52.2,1-5-6.1-12.6-11.9-21.3-16.2-16.6-1.4-33.5-2.9-46.9-1.4-2.2,1.9-4.1,4.3-5.5,7.2l-6.3-11.2-16.1.3c-.4.4-.8.8-1.2,1-5.7,3.7-118.8,3.4-134.9,1.7-4.9-.5-9.4-1.3-13.6-2.7l-16.7-2.5c-.6,2.4-1.5,4.7-3.4,5.1-1.3.3-11.8.4-24.1.4,2.1,6.8,5.5,11.3,9.7,14.2,5.3.2,10.4.6,15.4,1.3,3.3.5,5.1,1.7,6.3,3.2Z"/>
  <path d="M94,808c4.6-2.5,9.6-4.5,14.8-6.1-6.7-1.7-13.6-3.2-20.6-4.5l5.8,10.6Z"/>
  <path d="M165.4,814.1c-2.8,11.3-10.4,12.4-19.3,11,21.3,5,44.1,10.8,68,14.4,15.5,2.3,3.4-7.2,2.5-13.3-14.1-.1-27.4-.4-29.5-.6-9.6-1.2-15.9-3.5-21.6-11.5Z"/>
  <path d="M69.4,796.9h16.1c-19.7-3.5-39.4-5.4-53.2-6-.4,0-.8.2-1.1.7.5,1.4.9,2.7,1.4,4.1,14.2.3,25.8,3.5,39.4,12.3l-2.7-11Z"/>
  <path d="M465.9,843.5l3.7,6.5,49-4.9c-.1-.2-.3-.4-.5-.6-17.4-.5-34.9-1.5-52.2-1Z"/>
  <path d="M259.7,845c-1.2-1.5-3-2.7-6.3-3.2-5-.7-10.1-1.1-15.4-1.3,6,4,13.6,4.8,21.7,4.5Z"/>
  <path d="M429.3,850.7c17.7,0,31.8-.5,33.4-1.8.9-.7,1-3.1,1-5.4-2.5,0-5,.2-7.5.3-8,.5-18.1,3.9-26.9,6.8Z"/>
  <path d="M401.4,842.8c-25.6-2.4-63.1,6.1-90.8,0l.8,1.5c14.3,1.9,29.7,4.7,38.8,5,6.8.3,34,1.1,60,1.3-.9-3.2-2.4-7.2-8.7-7.8Z"/>
  <path d="M449.9,827c13.4-1.6,30.4,0,46.9,1.4-16.3-8.1-35.9-10.9-46.9-1.4Z"/>
  <path d="M272.4,823.4c4.2,1.4,8.6,2.2,13.6,2.7,16.1,1.7,129.2,1.9,134.9-1.7.4-.3.8-.6,1.2-1l-134.9,2.3-14.7-2.2Z"/>
  <path d="M48.2,818.9c.4-.3,1-.5,1.8-.3,0,.2.1.4.2.6,7.2,1.1,14.4,2.1,21.6,3,13.4,1.6,38.1-4.5,47.7-2.8,3.3.6,6.7,1.3,10.1,2,.9.2,1.8.4,2.7.6,4.5,1,9,2,13.6,3.1,8.8,1.4,16.4.3,19.3-11,5.8,8,12.1,10.4,21.6,11.5,2.2.3,15.5.5,29.5.6,0,0,0-.2,0-.2l11-2.8c.2,1.1.5,2.1.8,3.1,12.2,0,22.8,0,24.1-.4,1.9-.4,2.8-2.7,3.4-5.1l-97-14.8-10.7,11.6c-9.2-6.5-23.4-11.7-39.2-15.8-5.2,1.6-10.2,3.6-14.8,6.1l-5.8-10.6c-.9-.2-1.8-.3-2.7-.5h-16.1c0,0,2.7,11,2.7,11-13.6-8.8-25.2-12-39.4-12.3,2.6,7.4,5.3,14.8,8.1,22.1,2.5.4,5,.8,7.5,1.2Z"/>
  <path d="M1126.9,838.2c5.2,0,10.5,0,15.7,0l10.1-9.6,1.5,1.7c1.2-2.8,2.3-5.6,3.4-8.4l-42.1-.4c5.1,3.6,6.2,12.3,11.4,16.7Z"/>
  <path d="M1096,824.6c2.6-1.4,4.8-2.4,6.8-3.2l-23.1-.2v-13.5c-7.5,5.1-6.3,21.9.6,29.7,4.9,0,9.9.2,14.8.3l.8-13.1Z"/>
  <path d="M1141,839.8l1.6-1.5c-5.2,0-10.5,0-15.7,0,2.9,2.5,7.1,3.6,14.1,1.6Z"/>
  <path d="M1095,839.6v-2c-4.8,0-9.7-.2-14.7-.3,3.5,3.9,8.5,5.6,14.7,2.2Z"/>
  <path d="M1113.8,806.2c-16.9.6-21.5,26.9-32.5.6-.6.2-1.2.5-1.7.9v13.5c.1,0,23.2.2,23.2.2,6.1-2.3,10-1.8,12.7.1l42.1.4c1.8-4.5,3.6-9.1,5.3-13.7-16.7-.4-33.5-2.6-49.1-2Z"/>
  <path d="M249.5,1067.5l-25.9-.2c4.6,3.7,9.3,7.4,14.1,11,4,.9,7.9,1.8,11.7,2.8v-13.6Z"/>
  <path d="M407.4,1053.3l-6.3.2,3.8,3.9c.8-1.4,1.6-2.8,2.4-4.1Z"/>
  <path d="M519.9,1050.1l-7.7.2v7.9c6.4.7,5-3.8,7.7-8.1Z"/>
  <path d="M500,1050.7l-5.8.2c1.3.7,2.6,1.5,3.8,2.2l2-2.3Z"/>
  <path d="M533.1,1068.6c-7.9,5-49-.3-51-16.1l-13.9,5.5,8.1,11-112.6-1,.2-.4-1.9,2.5c-4.9-2.6-5.6-11.8-9.7-15.3l-2.5,13.5c-15.6-1.4-28.5,6-32.6-11.7l-6.4,11.4-39.3-.3v13.4c18.8-1.3,45.4-4.6,63.2-4.5,59.8.4,123,6.7,183.6,1.9,27.3-2.2,66.7,3.4,71.6-30.4l-51.9,1.5c1.7,6.5-1.3,16.7-4.9,18.9Z"/>
  <path d="M249.6,1064.5h21.9s0,3.2,0,3.2l39.3.3,6.4-11.4c4.1,17.6,17,10.3,32.6,11.7l2.5-13.5c-.7-.6-1.5-1-2.4-1.3-29.9-7.3-98.3,2.7-131.8,4.1l-11.3-4.3c5.5,4.8,11.1,9.5,16.8,14l25.9.2v-3Z"/>
  <path d="M364,1067.6l-.2.4,112.6,1-8.1-11,13.9-5.5c2.1,15.8,43.1,21.1,51,16.1,3.6-2.3,6.6-12.5,4.9-18.9l-18.2.5c-2.7,4.3-1.3,8.8-7.7,8.1v-7.9s-12.1.3-12.1.3l-2,2.3c-1.2-.7-2.5-1.5-3.8-2.2l-86.7,2.5c-.8,1.3-1.7,2.6-2.4,4.1l-3.8-3.9-27.3.8-9.9,13.3Z"/>
  <path d="M688.8,1190.8l.8,2.5c2.7-.4,5.4-.8,8-1.3-2.7-1.1-5.6-1.7-8.9-1.3Z"/>
  <path d="M672.2,1190.7h-43.8c-.4,3.1-.4,5.9,0,8.6,14.8-.7,29.5-1.9,44.1-3.7l-.2-4.9Z"/>
  <path d="M985.8,1048.8c-1.6,3.5-.9,7.5-.6,11.2,4.6-3.8,9.1-7.8,13.6-11.7l-13,.5Z"/>
  <path d="M638.5,1053.7l-.2,16.5-43.8-.4v-.6c-1.5,1.3-3.1,2.5-4.5,3.6l79.4,3.1,2.5-13.8c-11.5,1.2-13.8,14.4-33.3-8.4Z"/>
  <path d="M811.3,1055.1c-4.4,22.3-60.3,8.6-72.9-1.6-.5-.4.3-3,.7-5.9-3.2.2-6.4.3-9.6.5l-2.7,11.2,10.3,6.1c-17.7,2.5-36.3-1.3-53.6-2.9,7.5,4.8,14,12.8,18.6,13.3,81.4,9.6,181.3-8.3,265.9-2.1,3.6-2.8,7.3-5.7,10.8-8.6-33.7-.5-67.4-1.4-101.4-2.7-20.8-.8-49.3,15-66.2-7.4Z"/>
  <path d="M949.8,1043.3c-15.1,0-42,7.3-60.7,7.2-30.5-.2-61.8-4.9-92.6-2.5l-6.3,11.2c-5,.8-1-7.9-3.7-9.7-5.9-3.7-26.5-2.9-47.5-1.8-.4,2.9-1.2,5.4-.7,5.9,12.6,10.1,68.5,23.9,72.9,1.6,16.8,22.4,45.4,6.6,66.2,7.4,34,1.3,67.7,2.2,101.4,2.7.9-.7,1.8-1.4,2.6-2.1-18.4-7.8-29.6-19.8-31.7-19.8Z"/>
  <path d="M737.1,1065.5l-10.3-6.1,2.7-11.2c-15.5.8-29.9,1.3-37.2-.2l-6.3,11.2-6.1-11.2h-15.3l-6.1,11.2c-14.2-28-44.6-5.1-64,10v.6c-.1,0,43.7.4,43.7.4l.2-16.5c19.5,22.8,21.8,9.5,33.3,8.4l.5-3c3.9-.3,7.7,1.3,11.2,3.5,17.3,1.5,35.9,5.3,53.6,2.9Z"/>
  <polygon points="977.4 815.3 981.4 808.3 959.2 808.8 958.8 809.4 977.4 815.3"/>
  <polygon points="890.7 810.5 888.6 810.5 890.1 814.4 890.7 810.5"/>
  <path d="M820.5,839.6h82.3s-4.7-14.2-4.7-14.2c-9,.7-17.4-1-24.5-11.2-4.8-.7-1.4,7.9-3.9,9.4-3.1,1.9-21.2,1.6-42.5.8l4.2,1.4-11,13.7Z"/>
  <path d="M1054,808.4c-.2-.6-.4-1.2-.6-1.9h-2c.5,1.2.8,2.3.8,3.6l1.8-1.7Z"/>
  <path d="M1036.3,825.7l-7.7-18.6h-1.5s-2.5,19.3-2.5,19.3c-33.1-.4-66.3-3-99.2-4.5-8.6-.4-17.6,2.5-26.3,3.4l12.2,14.7c22.1-2.3,44.4-1.9,66.7-1,20.1-.8,40.1-1.4,59.9-1.7,11.7-.2,23.5-.1,35.2,0,.3-1.3.3-3.2-.2-5.8-9.5-5-13.2-8.1-15.9-14.1l-3.2,9.5-17.7-1.1Z"/>
  <path d="M1038,837.3c-19.8.3-39.8.9-59.9,1.7,27.2,1,54.4,2.7,81.4.7,6.4-.5,12.6,2.4,13.8-2.3-11.8-.1-23.5-.2-35.2,0Z"/>
  <path d="M1036.3,825.7l17.7,1.1,3.2-9.5c-1.1-2.4-2-5.3-3.1-9l-1.8,1.7c0-1.3-.3-2.4-.8-3.6l-22.8.6,7.7,18.6Z"/>
  <path d="M815.1,820.5l12.2,4c21.2.7,39.4,1,42.5-.8,2.5-1.5-1-10.2,3.9-9.4,7.1,10.2,15.5,11.9,24.5,11.2l-.7-2.2,1.7,2.1c8.6-.9,17.7-3.8,26.3-3.4,32.9,1.5,66.1,4.1,99.2,4.5l2.5-19.3-45.7,1.1-4,7-18.6-5.9.4-.6-68.5,1.7-.5,4-1.5-3.9-54.3,1.3-19.3,8.7Z"/>
  <path d="M66.2,841.8l-2.4,15,6.6,4.2c4.4-2.4,4.6-11.3,21.2-7.7-1.6-2.6-3-5.3-4.2-8-7.2-1.2-14.2-2.4-21.1-3.5Z"/>
  <path d="M129.3,874.1l5.6-20.3c-4.5-.8-9.1-1.6-13.6-2.4-1.9,7.5-2.5,14.2,2.5,22.7-9.9-.3-18.2-4.8-24.7-11.3l-3.3,9.7c6.6,5.2,39.5,2.1,55.5,1.7-7.4-.2-14.8-.2-22.1,0Z"/>
  <path d="M158.7,874.4c22.9,3.1,59.6,26.9,67.4-3-21.7,4.2-44.6,3.6-67.4,3Z"/>
  <path d="M49.7,839.5c0,.2.2.4.3.6,2.6.2,5.3.4,8.1.5-2.8-.4-5.6-.8-8.3-1.1Z"/>
  <path d="M134.9,853.8l-5.6,20.3c7.3-.2,14.7,0,22.1,0,3.1,0,5.6,0,7.1.1.1,0,.2,0,.3,0,22.8.5,45.7,1.2,67.4-3,.7-2.8,1.2-6,1.4-9.7-23.2,3.4-57.1-1.6-92.7-7.8Z"/>
  <path d="M69.7,861.2c.2,0,.4-.2.6-.3l-6.6-4.2,2.4-15c-2.7-.4-5.4-.8-8.1-1.2-2.8-.1-5.5-.3-8.1-.5,3.4,7.9,7.1,15.7,10.8,23.4,3.1-.5,6-1.3,8.9-2.3Z"/>
  <path d="M121.2,851.3c-11.3-2.1-22.7-4.2-33.9-6.1,1.2,2.7,2.6,5.4,4.2,8,2.8.6,6,1.6,9.8,2.9l-2.2,6.6c6.5,6.5,14.7,11,24.7,11.3-5-8.5-4.4-15.2-2.5-22.7Z"/>
  <path d="M264,912.7l-7.3-.9-4.6,13.1c-14.7-3.3-42.9,8.2-41-11.5l-8-.3c-9.6,23.2-53.7,5.1-77.4,10.9l-10.4-11.5c-3.4,4.5-8.3,7.6-13.8,9.5l197.5,16.4c-7-9.8-13.8-4.1-9.4-14-3.3.2-6.6.4-9.9.8l-15.7-12.4Z"/>
  <path d="M264,912.7l15.7,12.4c3.3-.4,6.6-.6,9.9-.8.9-1.9,2.1-4.5,3.9-7.9l-29.5-3.8Z"/>
  <path d="M115.2,912.5l10.4,11.5c23.8-5.8,67.9,12.3,77.4-10.9l8,.3c-1.9,19.7,26.3,8.2,41,11.5l4.6-13.1-10.2-1.3-13.3,11.4c.5-3.9,1.1-9.6-3.8-10.9-25.2-7-108.5-16-136.2-16.6-16.8-.4-1.6,9.4-2.9,16.6-1.2.2-2.2.3-3.3.4.7,1.1,1.4,2.2,2.1,3.4,6.8-4.6,3.6-15.6,12.2-14.7v22c0,0,.2,0,.2,0,5.5-1.9,10.4-5,13.8-9.5Z"/>
  <path d="M250.4,874.9c1.9,7.3,6.7,14.6,12.5,17.4.6.3,1.4.6,2.4.8l94.5-.6c-.2.2-.4.5-.5.7,2,0,3.9,0,5.7.2,0-.3.2-.5.3-.8h10.6c0,0-.5-14.5-.5-14.5-40.6.4-85.3-5.7-124.9-3.1Z"/>
  <path d="M375.3,878v-2c-1.5-4.6-4.1-6.3-8.4-7.9-15-5.4-95.6,8.6-117.3-.9-.2,2.4,0,5.1.8,7.8,39.6-2.7,84.3,3.4,124.9,3.1Z"/>
  <path d="M364.9,893.3c4.5.2,8.2.6,10.9,1.2v-1.9c0,0-10.6,0-10.6,0,0,.3-.2.5-.3.8Z"/>
  <path d="M265.3,893.1c14.7,3.7,65-.4,93.9,0,.2-.2.3-.5.5-.7l-94.5.6Z"/>
  <path d="M710.7,823.2l-4.3-2.2c-3.1,2-6.6,3.4-10.3,4.5,5.8,2.9,12.3,4.3,9.2,14,12.6,0,24.7,1.6,36.5,3.3l73.3-3.3-11.3-8.4,2.3-7.4c-23.1-.9-45.3-1.7-52.4-.2-5.5-1.9-7.9-6.3-8.8-11.5-14.5,1.7-19.7,16.9-30.3,1.8-.6.8-1.3,1.6-2,2.3l-1.8,7.1Z"/>
  <path d="M705.2,839.6l-10.9,5.4,47.4-2.2c-11.8-1.7-23.9-3.4-36.5-3.3,0,0,0,0,0,0Z"/>
  <path d="M712.5,816.1c.7-.7,1.4-1.5,2-2.3-.3-.5-.7-1-1-1.6l-1,3.9Z"/>
  <path d="M688.8,812.3c-.9,8.1,2.9,11.1,7.3,13.3,3.7-1.1,7.2-2.6,10.3-4.5l-17.6-8.8Z"/>
  <path d="M753.6,823.5c7.1-1.4,29.3-.6,52.4.2l3.5-11.5c-21,1.1-42.5-1.6-63.4-.4-.5,0-.9,0-1.3.1.9,5.2,3.2,9.6,8.8,11.5Z"/>
  <path d="M679.6,828.2c-12.8.8-27.1-.4-41-1l6.2,12.4-16.5-3.8v-8.9c-3.2,0-6.3,0-9.4.2l-7,7c-4.3.4-5.6-2.1-6.7-5.3-.1,0-.2,0-.4,0l-.4-2.2c-1.1-3.3-2.6-6.7-7.1-8.4-.9-.3-2.6-.6-4.9-.8-14.5,9.1-27.6,18.5-42.1.5-1,0-2,.2-2.9.3-.8,2.7,0,8.8-4.1,9.8-4.7,1.2-10.4,1.7-16.6,1.8l8.4,12.4,87.6,1.7c1.6-.2,3-.2,4.2,0l47.9.9c3-1.1,5.9-2,8.6-2.8.2-5.9-1.3-10.4-3.9-13.9Z"/>
  <path d="M622.8,844h4.2c-1.2-.2-2.6-.2-4.2,0Z"/>
  <path d="M683.2,845.1c.1-1,.2-2,.2-3-2.7.8-5.6,1.8-8.6,2.8l8.3.2Z"/>
  <path d="M547.4,818.3c-12.4,1.4-22.5,3.8-23.3,7.7l2.6,3.9c6.2,0,11.9-.6,16.6-1.8,4.1-1,3.3-7.1,4.1-9.8Z"/>
  <path d="M605.1,828.9c-.2-.7-.5-1.4-.7-2.2l.4,2.2c.1,0,.2,0,.4,0Z"/>
  <path d="M679.6,828.2c-8.7-11.5-30.3-11.5-45.7-10.5l4.7,9.4c13.9.6,28.2,1.8,41,1Z"/>
  <path d="M592.4,817.5c-8.9-.9-26.8-.9-42.1.5,14.5,18,27.6,8.6,42.1-.5Z"/>
  <path d="M628.3,826.9v-9.3s-9.4,9.5-9.4,9.5c3.1-.2,6.2-.2,9.4-.2Z"/>
</svg>