<?xml version="1.0" encoding="UTF-8"?>
<svg id="Layer_1" xmlns="http://www.w3.org/2000/svg" version="1.1" viewBox="0 0 1200 1200">
  <!-- Generator: Adobe Illustrator 29.0.0, SVG Export Plug-In . SVG Version: 2.1.0 Build 186)  -->
  <path d="M1090.4,945.8c.8-1.2,1.7-2.4,2.5-3.5-3.6-.3-7.5-.8-11.5-1.4-23.5-9.3-66-7.2-82.4-3.8-2.8.6-2.1,7.2-6.8,9.7-5.1-2.9-10.7-4.3-16.6-4.8-6.9-4.6-18.6-10.4-36-6.7-4.3.9-3.4,10.6-6,10.5-28.4-1.5-111.5-11.2-136.8-5.9-1,.2-1.7,1.5-2.6,3.2-3.9,0-7.7-.2-11.6-.2l2.4-3.2-117.2,1.8c-9.7,0-19.5,0-29.2,0v.4c0,0-29.4.4-29.4.4-4-1.2-7.8-1.4-11.3.2l-14.5.2-.7-1.2h-100.8c0-.1,10.9,21.8,10.9,21.8l-24.4-22.4-211.6-.2-2.7,11-6.3-11.4c-29.5,6.9-93.2-1.5-143.2-2.1,4.9,7.1,9.9,14.1,15,21,2.7-1.6,5.4-4.3,8.2-8,6.6,41,71.2,14.7,104,22.6l5.8-16.9,2.7,16.6h13.7s-2.7-10.9-2.7-10.9c14.5-5.4,9.1,10.3,14.6,11.3,18.1,3.1,92.8.3,98.1-22,11.8-.2,13,8.2,8.1,16.5,59.7-3.7,119.2,1.1,178.8.6,4.8,0,8.9-.2,12.5-.3.5.7,1.1,1.5,1.8,2.3,47.5.3,94.9,1,142.3,1.2,22.8,2.9,46.4,6.4,68,2.9,2.6-.4,5-1.5,7.1-2.9,6.2,0,12.4,0,18.6-.2.5,1.5,1.3,2.7,2.7,3,5.5,1.5,106.6,1.9,114.4.4,5.6-1,9.6-4.8,13.8-7.6,3.4-.2,6.9-.4,10.3-.6.8,3.3,1.5,8.4,8.7,9.1,24.3,2.4,52.2-7.6,73.6-8.3,1.9,0,4.1-.1,6.4-.2l.8,1.4c6,1,7.7,0,7.6-1.7,2.4,0,4.9-.2,7.5-.3-.4.6-.9,1.3-1.4,2.1l27.5.2v-3.2c.9,0,1.7,0,2.6,0,3.4-4.4,6.7-8.9,10-13.4l9.5-2.2c-1.2-1.7-2.7-3.3-4.5-4.7Z"/>
  <path d="M901.3,1101.8c-5.2-17.7-28.2-13-43.9-17l-452.6-.7-.4,27.2c65.8-2.9,135,4.6,200.4.6,4.1-.2,7.3-3.9,13.7,0l-5.3-21.9c13.4.8,17.4,17.3,25.6,20.8,23,9.7,130.7,10.3,158.4,6.3,9.4-1.4,13.9-9.8,21.7-10.3,3.7-.2-.3,10.2,10.6,11.7,20.6,2.8,42.1,4.3,64.2,4.9,18.8-10.5,36.9-22.1,54.3-34.5-18.8-3.8-38.5-8.4-46.7,13Z"/>
  <path d="M846.9,892.6c-10.5.4-18.2,9.3-21.8,9.4-4.8,0-15.6-13.1-32.1-9.4-7.2,8.4-17.7,30.8-1.1,33.3,15.6,2.3,67.1,2.6,82.4,0,9-1.5,14-10.6,22.1-11,3.6-.2-.3,10.2,10.6,11.7,63.2,8.7,137.4-4.8,201.3-7.6,5.7-9.1,11.2-18.3,16.4-27.7-6.5,0-13,0-19.5.2-83.7,1.4-172-2.1-258.2,1.1Z"/>
  <path d="M967.5,997.7c-3.1-18.8-63.2-16.5-63.2,5.3l-10.5-.5c5.2-17.5-77.9-11.8-81.5-9.2-3,2.1,3,12.2-9.4,9.5-5,.5-1.3-7.9-3.9-9.6-12.2-7.9-197.2-3.4-226.7-7.7l-5.5,16.5-5.7-16.9c-65.6,4.3-132.2-2.7-197.3,0-15.7.6-59.7,2.6-70.6,5.1-4.2,1-3.7,11.2-6.6,11.2-7.4.2-17-9.7-27.5-11.1-14-1.8-69.9-3.4-77,4.8-2.8,3.3-1.3,8.5-2.4,11.2,2.9,4.3,7.6,11.6,13.4,11.4h109.3s6.3-11.1,6.3-11.1l6.2,11.2,82,.6,10.6-11.5c1.7,16.4,39.3,13.7,53.9,11,2.1-.4,5.9-14.6,17.4-9.3,47,21.6,160,5.3,219.7,7.4,9.5.3,43.4,20.9,49.4-2.6l6.2,11.2h59.6c0,0-8.1-10.9-8.1-10.9l32.9-16.4-16.5,27.3,175.7-4.9,5.5-21.9,5.4,16.5,5.5-10.9c.3,5.8,7.5,10.8,16.9,14,8.8-9.1,17.3-18.4,25.5-28-11.2.3-22.2.6-33.1.9-17.6.5-40.7-13.5-55.9,7.4Z"/>
  <path d="M143.7,989.6c4.5,5.3,9.2,10.6,13.9,15.7l-2.7-15.7h-11.2Z"/>
  <path d="M174.2,989.8c-19.6-4.2-.6,11.6-15.9,16.2,3.3,3.6,6.7,7.2,10.1,10.7,2.7.2,5.4.4,8,.7,6.6.4,2-8.1,3.3-11.1-2.1-3-9.2-4.5-5.5-16.5Z"/>
  <path d="M1105.6,794.9c-24.6,0-49.1.3-73.6.5-15.1-3.8-34.4-4.1-41.9-2.4l-1.4,2.5c-6.8,0-13.5,0-20.3,0l1.6-2.3-76.8-.6-1,7.5h-7.6s-2.1-5.5-2.1-5.5c-18.3,1.8-56-9.2-62.1,7l-9.5,2.7v-12.3c0,0-65.9-.6-65.9-.6,0,2.1-.1,4.5-.3,6.9-10.5.5-21,1.4-28.9,1.2-15.1-.4-32.7-15.7-38.1,4.8l-107.4-5.2v27.5c20.6,3.9,29.4-4.4,43.8-16.4v16.4c20.2,9.7,33.8-15.9,35.8-16.4,20.8-5.1,8.6,8.3,10.9,11.2,9.3,11.8,26.6,2.4,38.4,3.1,58.2,3.7,141.6,15.7,198,9,7.5-.9,8.1-6.2,8.9-9.1,1.8-.3,3.5-.7,5.3-1,6.1,1.8,12.5,5.9,23,4.2.8-.1,1.8-2.5,3.5-5,9.6.5,19.3,1.1,29,1.6,15.5,5.3,26.5,5,51.1,3.9,9.6-.4,19.9-1,30.4-1.6l5.8.4.2-.7c25.6-1.4,52.9-2.8,78.6-2.4,8,.1,16,.3,23.9.5,3.8-9.4,7.4-19,10.7-28.7-20.4-.6-40.9-.8-61.8-.8Z"/>
  <path d="M382,1089.6c-5.2-3.6-17.5,3.4-24.2,2.4-21.8-3.5-49.8-7.6-71.1-8.9-10.6-.6-29.4-2.9-43.3-.5,13.7,10.2,27.9,19.7,42.5,28.7,34.1-.4,68.3-1.4,102.1-3l-6-18.8Z"/>
  <path d="M926.1,1057.9l-8.1-11-5.5,16.6,2.8-27.4-10.9,3.7c-6,19.7-48.1-21.3-49.6,12.5h-5.3c.4-3.8,1-9.8-3.6-11.1-19.1-5.2-60.8,8-84.3,0,.7,12.3,14.6,5.5,15.6,6.6,3.4,3.7,2.6,12.9,5.8,17,16.5,20.6,13.8-8.5,32.9,3.5l3.3-10.6c5-.8,1,7.9,3.7,9.7,12.5,8,114.8-3.1,139.3-2.9,5.9,0,11.8.1,17.7.2,10.2-8.4,20.2-17.1,29.8-26.1-21.5,0-42.9-.5-64.1-2.3-11.7,1.1-18.1,10.5-19.5,21.7Z"/>
  <path d="M1127.2,850.1l-6.2-11.2h-40.4c0,0,13.6,11.1,13.6,11.1l-103.7-6.3-9,27.8v-27.4c.1,0-106.1-.5-106.1-.5-7.1,21.9-22.3-1.6-33.8,16.5-9.1-22.9-52.6-6-75.9-11.4-18.4,17.2,6.9,35.4,26.7,33.9,18.5-20.3,8.7-3,27.5-.4,9.5,1.3,103.6-3.8,120-5.7,8.7-1,26.8-7.2,28-16.1l16.3,16.7c49.2,2.2,99.3-.3,149.1-2.1,6.3-12.3,12.3-24.8,17.8-37.5-11.9.5-22.2,3.3-23.9,12.6Z"/>
  <path d="M675.9,1134.2c-81.7-1.4-165.9-6.9-246.8-6.9-38.1,0-76.2,3-114.2.8,23.4,12.6,47.7,23.8,72.8,33.3,1-.1,1.9-.2,2.9-.3,9.2-1.1,50.9-25.9,35.7-.4l120.8.4c-15.7-23.7,20.8-26.5,5.5,0,18.6,4,25.4-7.1,38.3-16.3,4.1,30.1,50.9,11.6,73.9,17l14-16.8v22c13,6.7,30.9-8.9,35.7-8.9,3.6,0,11.1,9.1,21.6,9.3,20,.5,40,0,60.1-.2,10.9-3.8,21.7-7.9,32.3-12.2l-.2-.6,12.5-9,1.5,3.7c10.2-4.5,20.3-9.3,30.3-14.4-65.5-.4-131.1.6-196.6-.5Z"/>
  <path d="M289.9,872.2c-15.3-2.1-5-13.9-13-19.5-11.9-8.3-42.2-11.9-44.7,5.7l-6.2-11.2c-12.1.5-25.8-1.9-37.5.2-17.5,3.1-13.9,20.5-32.9-.9l-33.1,11.6,2.8-11h-2.9c.5-1.9,1.1-3.8,1.6-5.9l-38.4-.3c.7,2,1.6,3.9,2.5,5.9l-35.2-.3c3.6,8.1,7.4,16,11.4,23.9,5.9,3.7,12.3,6.6,19.5,6.7,68.2.9,137.9-4.9,206.1-4.9Z"/>
  <path d="M273.4,896.9h10.9c0,0-5.5,27.4-5.5,27.4l38.4.2v-22.1c18.9-4.2,2.8,10.2,13.1,16.8l113.2,5.5c-9.1-20.5,14.7-20.5,5.5,0l29.9.2c7.3-.9-.3-30.6-3-32.7-3.1-2.5-76.8-4.8-73.6,10.6l-8-.3c-.2-2.7.4-8-1.3-9.3-12.1-8.5-57.2,2.9-73,2.7-37.9-.5-79.8-13.6-115.3,6.3v-11.1c0,0-128.8,1.3-128.8,1.3,5.8,10.4,12,20.7,18.4,30.7,40.7-1.2,81.1-2.7,121.2-4.5,20.9-.9,55.6,20.3,57.8-21.7Z"/>
  <path d="M467.1,1185.2c42.8,9.7,87.3,14.8,132.9,14.8s99.8-6.3,146.8-18.1l-268.6-5.1c-3.1.3-7.1,4.2-11.1,8.4Z"/>
  <path d="M435.6,1177.2c4.2,1.2,8.4,2.3,12.6,3.4,0-1.1,0-2.2,0-3.4h-12.6Z"/>
  <path d="M443.7,864.5v-21.9s-13.8,10.9-13.8,10.9l-13.7-11,5.4,16.4-24.6-16.7-5.1,10.6c-26.9-9.7-42.5-12.4-49.9,16.8l-2.7-22-13.7,16.5-3-16.1-38.1-.5c3.2,5.5,33.4,27.5,35.6,27.5l200.4.6-21.9-16.6c20.7-35,39.3,15.2,47.4,16.4l173.6.8,26-32.8-296.5-.9c4.6,9.1,7.2,18.4-5.5,21.9Z"/>
  <path d="M136.2,830.6l1-15.1c33.6-18.2,17,23.2,45,15.3l11.6-11.1,10.6,11.5,149.1.5,10.5-11.4c23.5,18.7,69.5,2.1,98.9,1.4,30.1-.7,74.8,21.7,90.5-14.6.4-11.8-72.9-9.4-85.3-8.7-9.2.6-27.6,11.9-32.7,10.2-3.2-1.1-.4-9.8-10.8-10.7-41.6-3.6-140.6-4.3-181.7-.4-12.8,1.2-3,14.2-16,11.4l2.8-10.9c-24.6,4-51.1-1.6-74.6-.8-16.9.6-21.5,26.9-32.5.5-13.7,5.2-5.6,43.3,13.6,32.9Z"/>
  <path d="M426.5,1059.3l8.3-13.8,8.8,21.8c10.7-5.1,26.1,2.4,33.9.7,7.1-1.5,1.2-16.8,25.9-16.7-.5-2.8,1.8-7.8-.6-10.2-9.8-2.3-19.6-5-29.6-6.4-16.4-2.4,7.9,18.5-16.5,11-5.2-1.6,2.1-7.2,2.8-10.9l-46.4-.6-5.8,16.9-16.6-16.8-200.2-.3v4.7c8.5,7.9,17.2,15.6,26.2,23.1l220.7,5.7-11-8.1Z"/>
  <path d="M503.4,1067.6l203.2.6,2.7-11c5.7,17.9,34.6,13,52.1,16.7l-.3-21.5c-78-29-159.8-12.2-241.1-17.6l2.8,16.5c-6.2,9.4-12.1,0-19.3,0,.9,4.9-.8,11.2,0,16.5Z"/>
  <path d="M778.4,898.4c-26-4.3-56.9-14.3-79.7,5.2-7.3-24.6-36.7-1.4-54.9-10.6l-5.4,10.4c-5.3,0,.1-9.2-6.1-10.9-19.4-5.2-87.7,6.7-111.9-.5l-5.6,32.8,252.6.8-4.7-10.1c8.5-4,18.1-5.1,15.7-17.2Z"/>
  <path d="M100.6,830.5c8.2-.6,15.9,4.3,13.6-8.1-14-7.4-15.3-10.6-19.5-25l-61.1,1.3c3.8,10.8,7.9,21.5,12.3,32.1,18.3.7,36.5,1.1,54.7-.2Z"/>
</svg>