<?xml version="1.0" encoding="UTF-8"?>
<svg id="Layer_1" xmlns="http://www.w3.org/2000/svg" version="1.1" viewBox="0 0 1200 1200">
  <!-- Generator: Adobe Illustrator 29.0.0, SVG Export Plug-In . SVG Version: 2.1.0 Build 186)  -->
  <path d="M816,1158.2c-1.9-.3-3.8-.6-5.7-.9l.3,2.1,5.4-1.2Z"/>
  <path d="M818.9,1140.3l14.8,12.5c3.5-1.5,7.1-3,10.6-4.6,7.2-3.2,14.4-6.6,21.4-10.1,2.7-1.3,5.4-2.7,8.1-4.1-16.2-6.9-51.3-2.2-54.9,6.3Z"/>
  <polygon points="818.9 1140.3 818.9 1140.3 818.9 1140.3 818.9 1140.3"/>
  <path d="M819,1158.8c2.2-.9,4.3-1.7,6.5-2.6l-9.5,2.1c1,.2,2,.3,3,.5Z"/>
  <polygon points="908.4 1012.2 912.5 1012.2 910.6 1001 908.4 1012.2"/>
  <path d="M806.2,1082.9h0c0-.1-3.3,5.6-3.3,5.6l-23.6.4c-5.1-3.4-10.6-6.1-17.2-7-27.3-3.9-157.4-.5-185.6,5.3-4.4.9-8.2,2.7-11.7,5-5.1.2-10.3.4-15.4.5l.9-6.7c-53.8,1.4-108.1-1.5-162.2-1.6-37.8,0-75.9,1.4-109.9-.2-11.1-.5-22.4-.7-33.6-.8,4.5,3.3,9,6.6,13.6,9.7,3.8,2.6,7.6,5.2,11.4,7.7.5.3,1,.7,1.5,1,7.9,5.2,15.9,10.2,24,15,2.9,1.7,5.8,3.4,8.8,5.1,80.4,3.3,159.6,5.8,234.7,5.2,27.2-.2,54.8-3.4,82.2-4.6l7.3-12.9c.8,0,1.6.2,2.4.3l-.8,17.1c27-5.8,65.4,5.4,84.1-17.3,5.3,18.9,19.9,8.5,30.4,1.4l7,3.8h5.8l2.1,8.3c39.5-9.4,82.6.4,120.8-3.6,10.8-1.1,18.7-2.1,25.6-3h0c17.2-10.2,33.9-21.3,49.9-33.1.4-.3.9-.6,1.3-.9-18.1.5-38.2-.2-51.7,1.5-33.1.2-66.2,0-98.9-1.2Z"/>
  <path d="M822.1,1033.2v-.2c-10.4,1.4-17.4,7.5-25.7,10.3-4.5.2-9.2-.5-13.8-1.4-2.1-2.9-1.9-7.2-3.9-7.7-34.1-8.8-82.8,4.2-115.6,5.9-20.6,1.1-41.5-5.3-62.2-2.3l-2,9.9c-1-.2-2-.4-2.8-.6l2.1,4-2.7,13.3-3.6,2.2.7,8.1,266.6-3.4c2-.6,1.1-3.4,0-6.8,6-1.1,11.8-2,17.1-1.9,12,6.4,31.1,3.4,47.4,1.6,18.4.5,36.7.9,55.1,1.2.9-.7,1.8-1.5,2.7-2.2,5.5-4.6,11-9.2,16.3-14,2.2-2,4.5-4,6.7-6,3.5-3.2,7-6.5,10.5-9.8,1.1-1.1,2.2-2.1,3.3-3.2-63.5-.5-151.7-3-196.2,3Z"/>
  <path d="M541.4,1179v.2c-13.4.7-40.5,1.1-53.5,8.2-3.2,0-6.5,0-9.7.2,2.4.5,4.8,1,7.2,1.4,37.1,7.2,75.4,10.9,114.6,10.9s38.3-.9,57-2.7c1.4,0,2.8-.3,4.2-.4,11.3-1.1,22.5-2.6,33.7-4.4,8-1.3,15.9-2.7,23.7-4.3,10-2,19.9-4.3,29.8-6.8-69.3-2.1-138.6-5.6-207-2.3Z"/>
  <path d="M461.5,1183.9c5,1.2,9.9,2.3,14.9,3.3l-1.8-3.3h-13.1Z"/>
  <path d="M947.6,983.9h41.9c-14.4-.8-28.5-1.2-41.9,0Z"/>
  <path d="M989.6,983.7v.2c3.5.2,7,.4,10.6.6-21,1.1-41.9,1.8-62.9,2.1,1.2-1,3.1-1.9,6-2.2,1.4-.2,2.9-.3,4.3-.4h-56c18.1.5,33.9,1.1,35.8,1.7.7.2,1.2.6,1.5,1.1-16,.2-32,.2-48.1,0l-1.7,17-14.2-3.8-5.3,10.7-18.4,1.4-1.6-22c-4.8.3-9.6.6-14.3,1,.2-2.5.7-5.6,5.2-7.1h-19.5c5,1.2,9.5,3.5,11.2,7.3-13.3,1.1-26.7,2.5-40,3.1-16.2.7-28.4-13-32.5,8.1-6.9-5.1-13.6-7.6-20.3-8.6,16.7-21.9,52.4,2.5,60.5-.4,2.8-1,2.1-7.5,5.3-9.5h-70.3c0,0,4.4,9.9,4.4,9.9-17.6-2.6-34.5,5.7-51.5,5.5-41-.3-86.2-1.3-129.2-1-30.6.2-63.9-11.9-92.7,4.7l-2.5,11.7h-2.9l-1.7-22.9c-7,1.4-19.1.4-28.3,1.6,1.1-3.4,4.5-5.9,12.7-7.2,12-1.9,61.1-.3,76.2.6,57,3.4,129,1.4,193,1.8,7.2,0,14.2-1.1,20.6-4.4l-552.5,1c-7.7-.9-15.3-1.9-23-3.3l-.5,3.3h-6.8c1.9,2.3,3.8,4.6,5.8,6.8,0,0,.1,0,.2.2,7.1,8.3,14.5,16.3,22.1,24.2,1.4,1.5,2.8,2.9,4.2,4.4l4.4,4.4c53,.5,105.5,0,157.2-3.2,21.1,4.2,43.9,9,65.2,7.1,13.2-1.2,20.3-8.8,24.9-11.1,1.8,0,3.6,0,5.4,0,6.5,2.2,15.6,10.6,24.9,11.7,18.1,2.1,34.9-6.3,49.1-6.3,83.2,0,165,2.2,251-1.9,9.1-.4,22.6,7,29.5,5,1-.3,2.8-2.7,5.1-5.9,11,0,21.9-.2,32.9-.4l1.4,3.4,67.8-4.3-.2-2.4c5.4-.2,10.9-.3,16.3,0l1-4.9h-17.6c0,0-1.1-14.8-1.1-14.8l21.9-1.6,1.3,16.4h-.2l.4,2.3.2,3.1,37.1-.2c7.4.9,14.5,1.6,20.6,1.1,1.6,0,3-.6,4.4-1.2h17.7l-4-5.6h17.9c0,0,2.6,4.2,2.6,4.2l3.7-4.3h8.8l1.1,3.3c3.5,0,7,0,10.5,0,.3-.4.7-.7,1-1.1.7-.7,1.4-1.5,2.1-2.2,8.1-8.6,16-17.5,23.6-26.6.3-.4.7-.8,1-1.2h-71.8Z"/>
  <path d="M833.5,983.5h0c-1.2,0-2.2.4-3.1.6h61.2c-25.3-.7-55.2-1-58.1-.6Z"/>
  <path d="M724.5,983.6c-.5.3-1,.5-1.5.8h1.9l-.4-.8Z"/>
  <path d="M796.4,983.7c-.5,0-.9.3-1.2.5h15.7c-5.1-1.2-10.7-1.3-14.5-.5Z"/>
  <path d="M1037.9,837.4h.1c-20.5.2-41.2.8-62,1.7h-26.7l2,1.1c-9.2.4-18.3.9-27.5,1.3-3.7,0-7.6.2-11.5.6-39.5,2-79,3.9-117.9,4.5-5.9,0-11.7,0-17.6,0-27.1-.5-54.1-9.5-84.5-6.4-10.6,1.1-28.1,9.2-40.8,13.5.3-1.1.8-2.3,1.3-3.5l-18.2,1.4c-2.2-4.6-5.4-10.5-16.5-6.5,4,19.7-7.5,15.7-22,21.7l-5.6-16.4,16.6-5.3c-22.9-2.2-38.3-2.6-53.3,6.2-3.6-.8-6.9-1.5-9.5-2l2.4-4.7c-30,1-60.6-2.5-90.5-.7-4.4.3-9.4,1.4-14.5,2.9-5.9,0-11.8,0-17.6-.3-5.3-.2-10.7-.4-16.1-.5-1.3-1.6-3.2-2.8-6.5-3.1-12.5-1.2-27.9.3-43.5,1.3-101.9-3.9-206.8-9-311.1-11.3,1,2.4,2.1,4.9,3.1,7.3,3,6.9,6.1,13.7,9.4,20.4,2.1,4.4,4.3,8.8,6.6,13.2l24.9.2-21.2-13.4c9.1,0,18.2,0,27.4,0,6.8,7.7,15.7,13.1,26.7,13.5-2.8-4.8-3.9-9-3.9-13.1,4.3,0,8.6.2,13,.3l-3.5,12.8c38.7-.8,79.6,5.1,115.8-8,1.5,0,3,.2,4.5.3l-2.3,8.7c49-3.9,106.2,6.4,154,1.5,1.2,0,2.3-.3,3.3-.4,56.4,3.6,112,6.7,165.1,8,13.5.3,27.7-3.4,41.3-3.4,0-2.4-.6-3.8-1.7-4.6l13.1-.3c9.8,15.5,33.8,5.3,49.3,5.9,0-2.2-.2-4.6-.5-6.9l64.3-1.4-14.4,7.3c48.3-6.1,96.9-.7,145.4-2.4,23.3-.8,48.6-1.6,74.4-2.6,7.4,2.2,15.3,2.9,22.7-.5v-.4c6.5-.3,13-.6,19.4-.9l-.2,1.5,6.7-1.9c11.8-.6,23.6-1.2,35.1-2l1.6,3.7c36.4-4.1,73.3-6.3,110.5-7.4,1-2.1,2.1-4.2,3.1-6.3,3.7-7.7,7.3-15.5,10.8-23.4,1.1-2.5,2.1-5,3.2-7.4-35.5,2.5-71.1,4.8-106.6,6.4h-9.4Z"/>
  <path d="M1069.5,888.9l-.2.2,4.2-9.9-16.5,1.2c1.1,2.4,1.6,5.3,1.9,8.3-5.7-.2-11.5-.4-17.4-.6-.2-2.1-.5-4.3-.9-6.5-13.1,2.7-30.1-3-37.2,6.2-2.8,0-5.5.2-8.1.3l-2.1-3.1-42.8,3-7.2,17.4c-1.7-7.5,5.1-16-9.2-16s-15.6.9-23.4,2.2c-10.8-.7-21-1.4-25.8-.2-2.6.6-3.9,3.2-5.1,6-5.9,1-11.5,1.8-16.7,1.9h-7.2c-1.7-3.1-2.5-7.6-5.8-8.4-20.1-4.6-51.3,2.4-73-.7l2.2,3.6c-2.6,0-5.2.2-7.7.4v-4.1l-104.3-.7c-.4.3,2,4.3,4.7,9.2-5.7.6-11.3,1.1-17,1.5l-9.6-10.8c1.4,4.8-2.1,8.7-6.9,11.5h-1c-5.5,0-12.3-.3-19.8-.8-.7-2.5-1.6-4.9-3.6-5.5-18.5-4.7-27.1-3.7-32.7,2.8-6.1-.4-12.1-.8-17.9-1.1l-.6-2.2-76.9-.6,3.7,1.9c-9.1.6-18.2,1-27.4,1.4l1.8-3.5-98.8-.8c-.6,1.6-.9,2.9-1.1,4-2.3,0-4.6-.2-7-.3.7-1.2,1.5-2.5,2.5-3.8l-72.6.5c-72.8-3.8-144.2-8.2-216.1-9.6,2,3.7,4,7.3,6,10.9,3.9,6.9,7.9,13.7,12,20.4,1.9,3,3.8,6,5.7,9,6.4-1.1,12.6-3.6,17.2-7.7,2.3,0,4.6.3,6.9.4l6.8,7.6c19.9-4.8,54,7,70.2-2.6,6.1.4,12.1.8,18.2,1.1,5.9,4.8,19.2,1.9,30.2,1.7,2,0,4,.2,6.1.3.6,0,1.3.2,1.9.3v-.2c13.8.7,27.4,1.2,40.8,1.6l.8-2.1c9.1-.3,18.5,0,27.9.5,22.8,5.6,49.5,6,70.7,5.6,13.5-.2,16.5,1.3,20.1-10.9.7-.3,1.4-.5,2.1-.8,2,1.2,4.2,2.3,6.4,3.4l-1,3.8h11.2c30.8,9.7,71.8,5.1,104,5.3,101.2.6,220.8-4.6,329.9-3.1,21.7-5.9,47.9-6.5,74.1-6.5,54.3,2.2,111,3.6,165.9,2.8,2.1-3.2,4.1-6.5,6.2-9.7,5.3-8.5,10.3-17.2,15.1-26,1.5-2.8,3.1-5.6,4.6-8.4-18.1,1-39.3,4.6-57.4,9.1-1.3,0-2.7,0-4,0Z"/>
  <path d="M50.1,818.9v-.3c7.7,25.8,51.6,3.5,70.4,2.1,13.6-1,33.2,11.4,41.8.3,3.6.2,7.2.4,10.8.6,3.9,2.4,8.4,3.5,14,4.2,4.7.6,62.1,1.1,65.3.3.2,0,.4,0,.5-.2,44.6,2.4,89.9,4.6,137.1,5.6,20.3.4,60.4,3.4,77.4.3,4.8-.9,6.4-2.8,7-4.9,3.2.2,6.4.4,9.7.6,8.4,7.7,26.6,4.8,42.3,2.6,6,0,11.5-.5,16.2-1.6h1.2c28.1.7,60.4,6.3,89.6,6.3s94.6-.8,99.1-2.9,3.9-12.3,11.7-10.4l-16.8-4.2,9.7-17.1c-5.5.7-11,1.3-16.5,1.8,1-3.2,1.7-6.7,2.2-10.6-6.7,1.8-11.3,8-19,8.4-52.2,2.5-108.4.8-164.9-1.3-.8-.2-1.6-.3-2.6-.3h-2.9c-54.1-2.1-108.4-4.6-159.5-4.3-15.6,0-31.9,1-48.4,2.1-99.4-5.2-196.3-10.2-296-9.4,1,3.1,2.1,6.2,3.1,9.3,2.4,7.1,5,14.1,7.7,21,1.6,4.1,3.2,8.1,4.9,12.2.4-.2.7-.4,1.1-.6,2.7-1.6-1.2-10.4,3.8-9.6Z"/>
  <path d="M1083.7,941.6v.2c-.1,0-4.1-14-4.1-14l-90,7.1,6,7.7c-1.5,3.4-4.4,6.6-13.2,4.2-1.3-.4-4.8-4-10.7-7.2l1.4-3.5-7.6.6c-6.6-2.5-15.2-3.8-26-1.5-1.6.3-2.5,1.9-3.1,3.7l-45.4,3.4c-34.9-2.9-77.5-6.1-94.4-2.6-.9.2-1.6,1.3-2.4,2.8-4.5.4-8.8.9-12.6,1.3l3.3-4.3-238.8,3.7,32.9,5.7c0,.2,0,.4-.2.6-3.6,0-6.8.2-9.2.2-13.5,0-28-.6-43.2-1.3-4.9-5-11.6-7.2-21.6-6.1l-91.7-.7c-29.4-1.4-57.6-2-82.1-.6l-29.1-.2-2.1,6.1c-2.7-.3-6.4-1-11.4-2.1-.3,0-.5,0-.8-.2l-2.6-4-21.5-.2v.3c-23.2-2.7-46.6-3.4-70-6.4l-2.2,5.6h-22.2c-21-4.9-44.6-7.6-69.4-8.9,1.8,2.8,3.7,5.5,5.6,8.3,7.3,10.6,14.9,21,22.9,31.1.7.8,1.3,1.7,2,2.5l72.7.7.3-.4c32.6,1.1,64,2,92.7,2.9,17.1.5,35-2.4,52.6-3l-.6,1.1,49.4.5.4-1.1c3.6-.2,7-.5,10.4-.8l.2,2h22l1.6-4.2c3.4-.2,6.9-.5,10.8-.6l1.2,5.1h3.2c1.2,2.6,3.2,5.2,8.5,5.5,8.8.6,27.1.9,33.6-5.2h15c18.6,11,58.6-3.8,79,5.7l4.3-10.3h5.4l16.7,3.6,1.4-3.5c6.7,0,13.4,0,20.1.2,16.7,6.6,32.7,8,53.5,8.3l-3.3-7.8c8.2,0,16.4,0,24.6.2,6.4,5.1,13.7,9.2,27.6,3.5l-.2-3.4h33.6c8.2,5.5,54.2,4.3,82.7-1.1,9.2-.2,18.4-.5,27.6-.8l-.6.6c7.1,0,14.1-.6,21-1.4,16.7-.7,33.5-1.6,50.2-2.6l.3,4.2c15-3.6,37.9.6,51.2-3.9,2.3-.8,2.8-4,3.3-6.9,2-1.5,4-3,6.2-4.1,6,1.9,11.3,7.9,19,8.8.5,0,1,0,1.5.2l2.4,4c8.5,1.4,8.3-1.1,6.8-4,3.7-.4,7.2-1.1,10.6-2-.8,1.6-2,3.7-3.7,6.1l27.5.2v-12.9c1.2-.2,2.4-.3,3.6-.4,1.9,0,4.1,0,6.5,0,.8-1.1,1.7-2.3,2.5-3.5,1.7-2.3,3.3-4.6,4.9-6.9.6-.9,1.3-1.8,1.9-2.6l-5,.5c-1.1-.7-2.4-1.3-3.6-1.9Z"/>
  <path d="M1137.5,780.9h.1c-.4.3,2.3,4,2.9,8h-11c-1.3-2.8-2.5-5.2-3.9-5.9-8.2-4.1-124,8.4-156.2,10.8l.4-.6-76.8-.6-.2,1.5c-5.9,0-11.4.4-15.9.8-17.2,0-44.1-6.3-53.9,2.5-3.9.2-8.1.5-12.4.8v-6.2l-65.9-.6c0,10.7-3.9,27.9,8.8,32.2,3.5-.7,10.6-.9,19.7-.7l4.6,4.4c6.9-5.3,51.2,13.1,43.8-2.8,4.9.2,9.6.3,14.2.5,1.3,2.7,5.5,5,16.1,5.2,13.5.3,27.8-2.4,42.4-4.5,4.8,0,9.7-.9,14.6-1.8,8.5-.8,16.9-.9,25.2.2l.2-1.5c29.9,1.5,60.1,3.7,90.2,4l.4-2.7c3.3-.2,6.8-.3,10.3-.5l1,2.5,17.7,1.1,1.6-4.9c8.1-.5,16.3-1.2,24.1-1.8v1l77.9.7c1.2-3.1,2.4-6.1,3.6-9.2.7-1.9,1.4-3.8,2.1-5.8.2-.4.3-.9.5-1.3,2-5.5,3.9-11.1,5.8-16.7,1.2-3.7,2.4-7.5,3.6-11.2-11.4.8-34.2,2.1-35.6,3.1Z"/>
  <path d="M810.2,1157.3l-2.2-17.6,19.5-5.4c-6.6.5-13.2,1-19.8,1.4l-.4-3.1-61.6-1.4-2.6,9.1c-7.1.3-14.5.5-22.3.6l-4.3-9.9c-43.6,1.7-87.6-2.6-131.2-1.1-15.6.6-71.8,2.6-81.3,5-5.6,1.4-1.4,10.6-6.4,11.1l-2.6-11-170-1.5c7.9,4.1,15.9,8,24,11.7,12.9,6,26.1,11.5,39.4,16.5,1.9.7,3.8,1.4,5.7,2.1,1.2.4,2.4.9,3.6,1.3.5.2,1,.4,1.5.6,1.5.5,2.9,1,4.4,1.5,7.2,2.5,14.5,4.9,21.9,7.1,9.2-1.7,18.2-3.3,26.4-3.4,84-1.2,208,14.2,288.4-2.2,3.7-.7,5.3-2.5,6.3-4.4h11.6l-3-6.1c2.2.4,5,1.2,8.9,2.8l-10.1,11.6,33.3-2.5c8.5-2.8,17-5.8,25.4-9-2.9-1.7-5.8-2.8-8-4.5,1.8.2,3.7.5,5.5.7Z"/>
  <path d="M828.1,1134.1l-.6.2c.3,0,.5,0,.8,0h-.2Z"/>
  <path d="M364.1,1075.3h-.2c4.4-.9,8.2-4.5,11.4-7.2h15c14.1,6.3,37.5,18.2,54.2.6h5.7c7.7,10.4,40.2,7.8,51.8,7.8s26.6-15.7,25,3.1l1.7-9.7c1.9-.3,3.5-.8,4.5-1.4,2.5-1.5,4.7-6.8,5.3-12.1,8.3,2.2,1.8,19.3,4.9,22l43.9-3.3-2.5-32.9c-1.7-1.5-32.9,4.7-46.9,6.3-1.5-4.2-5.4-6.3-13.1-2.6-1.7.8-2.9,1.7-3.7,2.7-2.9,0-5.8,0-8.7-.2v-12.2l-10.1,12c-4.6,0-9.2-.3-13.8-.4-22.7-11.2-53.5-19.3-73-3.3-7.9-.4-15.7-.9-23.3-1.3l13.2-7.8-166.2.9c-16.9-.7-34.3-.9-51.8-1,.4.4.9.8,1.3,1.3,10.5,9.9,21.4,19.5,32.6,28.6.9.7,1.7,1.4,2.6,2.1l38.2.3c33.3,4.1,77.1,13,102,7.7Z"/>
</svg>