<?xml version="1.0" encoding="UTF-8"?>
<svg id="Layer_1" xmlns="http://www.w3.org/2000/svg" version="1.1" viewBox="0 0 1200 1200">
  <!-- Generator: Adobe Illustrator 29.0.0, SVG Export Plug-In . SVG Version: 2.1.0 Build 186)  -->
  <path d="M1090.4,946v-.2c1.4-2,2.8-4,4.3-6.1h-16.8c-24-7.9-63.3-5.8-78.9-2.6-1.1.2-1.6,1.4-2.2,2.9-7.7.4-15.4.7-23,.9-7.1-4.4-18.3-9-34.3-5.6-2.2.5-3,3.2-3.7,5.7-25.9-.3-51.5-1.1-77.2-1.1-25.6-1.7-50.1-2.5-62,0-.9.2-1.6,1.3-2.4,2.8-4.2.4-8.4.8-12.7,1.4l3.3-4.4-143.7,2.2c-1.8-.8-3.6-1.8-5.2-2.9-22.3,6.1-145.2-.5-155.8,6.5-2.6,1.7,1.7,10.4-3.4,9.7-6.6-21.4-33.1-10.2-46.5,1.3,1-11.6-7-11.7-16.7-13.2-44.5-6.9-92,9.4-134.9-4.3l.6,22.1-13.8-5.1,5-16.6-13.4,11.4-6.6-11c-45.7,3.9-96.3,0-146.1-1.9,6.4,9.3,13,18.5,19.8,27.4,8.6-1.5,15.7-3.2,23.5-3.9,7.4-.7,15.7,12,27.5,13,22.6,1.8,60-5.7,81.5-5.1,68.3,2,141.3,12.9,210,8.7,26.3-1.6,22.8-2.2,49.2-1.6,28.3.7,89.6-.5,115.7-3.7,1.7-.2,3.4-.6,5.2-1.1,10.7,0,21.4.2,32.1.3l1,5.1,53.9-1.6,3-3.1h19.1l1,2.6c11.3-1.3,21.3,2.1,27.3-2.7h10.4v.2c.4,0,.7-.2,1-.2,5.6,0,11.3,0,16.9-.2,7,.9,14,2.1,20.1.4.5,0,.9-.4,1.2-.7,24.3-.4,48.6-1.1,72.9-2.1,15.9,3.9,33.8,9.7,40.1-2,3.9-.2,7.8-.5,11.7-.7,31.6,10,69.9,5.6,106,2.4h18.4c0,0,0-1.5,0-1.5h1.4c3.8-4.9,7.6-9.9,11.2-14.9l9.5-2.2c-1.2-1.7-2.7-3.3-4.5-4.7Z"/>
  <path d="M1033.2,796l.2-.3c-15.3-4.1-35.6-4.5-43.3-2.7l-1.2,2.1c-6.6-.2-13.2-.5-19.8-.7l.9-1.3-76.8-.6-.2,1.7c-3.3.2-6.9.3-10.5.5-16.2,1.5-47.8-7-59,2.4-4,.4-8.2,1.4-12.7,2v-7.2l-65.9-.6c0,1.3,0,2.8,0,4.2l-26-1.7-10.2,11.8c-21.2-17.4-83.1-10.4-104.4,3.1-5.7-19.2-27.7-12.3-38.4,1.1-5.1-17.1-17.2-9.8-32.9-10.3-3.2,1-2.3,9-8,17-2.3-5.8-1.1-12.1-8.8-16.2h-.1c-3.9,13.8-7.4,6.6-18.8,11.5l5-16.5c-35.4,3.9-71.4,3.6-107.2,3.4-114.4-.6-236.9-12-351.5-6.6-1.9,0-6.5.2-11.9.3,3.9,11.4,8.1,22.7,12.6,33.8,26.4-.8,60-2.4,62.4-4.1,2.6-1.8-1.6-10.4,3.5-9.7l6.2,16.7,119.7-3.8,5.9-11.3c11.2,24.7,40.1,11.5,59.9,11.3,34.1-.4,37.7-2.8,66.7-7.4,11.2-1.8,13.4,12.4,17.6,13.3,14.1,3,101.3,1.2,120.3-.3,9.1-.7,13.8-8,18.4-14.3,1,2.6-.4,7.5.4,11l13-6c17.3,22.9,74.5,7.8,99.8.3,6.8-2,11.8,8.5,15.7-9.1l3.3,16.5c6.2-.7,11.6-4.2,18.1-4,50.6.9,122.9,10.6,171.7,4.4,3.9-.5,5.9-2.3,7-4.4,8.4,0,14.3-.4,16-1.4,1-.6,1-2.2,1-4,3,.4,6.1.9,9.2,1.3,8.2,6.2,17.7,4.9,27.3,3.1,73.4,7.1,152.3,5,225,2.1,10.4-.4,17.2-9.6,21.4-9.7,1.6,0,3.6,0,5.8.5,3.3-8.4,6.4-16.9,9.2-25.5-43.5-.8-90.8,3.6-135.5,4.3Z"/>
  <path d="M830.9,1037.7h0c0,.1-4.9,22.3-4.9,22.3,2.6-25.9-54.4-25.1-66.9-15-5.6,4.5-5.7,17.3-9.9,17.3l-12.4-21.2c-40.7,11.5-93.3-19.6-125.3,8.8-4.5-17.2-35.2-16.5-38.4,1.2-5,1-1.3-8-4-9.6-6.7-3.9-70.1,3.8-84.1,3.5-64.2-1.3-105.4-3.1-170.6,2.1-1.8,0-7.5-22.6-30.2-6.8-5.4,3.7-1.7,15.6-10.3,14.1l-3.4-16.6c-26.8,5.7-53.4,1.2-80.2.3,12,11.2,24.4,21.9,37.2,32.1h1c9.6.9,19.7-.5,29.4,1.2l4.8-22.1,3.1,15.5c43.5,14.3,86.7,4.8,130.2,5.7,61.9,1.3,167.9,15.3,221.5-9.9l6.6,10.8,241.2-1.3,10.2-11.8,6.6,11,89.3,2c12.9-10.2,25.5-20.9,37.5-32.1-59.3-.8-118.5-3.4-177.9-1.5Z"/>
  <path d="M871,1102.3l-3.8-9.4c-14.2,2.1-15.7-10.4-40.9-6-9.6,1.7-7.2,8.9-8.9,9.9-3.5,1.9-8.7-9-12.1,7.7l-3.3-16.4c-8.9-2.2-3.8,8.2-6.1,9.4-17.6,8.7-21.6-8-29.1-8.8-16.7-1.7-35.5,5.1-49.8,4.5-21-.8-69.1-20-73.8,10.6l-5.3.2c-.4-4.4-2.2-11.3-5.8-13.6-8.1-5-96.6-8.1-95.9,16.7-3.6-18.6-18.2-4-27.7-5.8-3.3-.6-2.6-8.8-6.7-9.6-9.7-1.7-73.5-3.3-77.6,3.5-3,4.9,2.4,15.1-3.3,15.3l-3.4-21.9-79.6,2.4c-12,.4-16.5,12.6-24.2,17.2l4.8-22c-22.2-.2-44.6,1.5-66.9,2.5,15.5,11,31.5,21.4,47.9,30.9,7.5-.4,13.6-.7,17.4-.7,117.1,1.1,232.7-.9,350.3-2.6,38.1-.6,96.1,19.9,127.1-5.9l10.8,11.1,96.7-2.9c17.3-10.1,34.1-21,50.2-32.8l-78.6.3-2.4,16.2Z"/>
  <path d="M718.7,1145.6h0c-6.2-20-37-3.9-55-3.9-45.3,0-101.4-9.7-145.7-4.6-9.2,1.1-16.9,9.7-24.2,10-3.2,0-.6-10.7-11.1-11.5-22.5-1.7-47.6,1.9-62.9,18.9l-3.6-16.8c-27.7.5-55.4.3-83.1-.3,29.9,14.9,61.2,27.4,93.7,37.1,18.9.2,37.7.3,56.5.3,80.8,0,164.3-11.9,244.5-2.1-8.5-27,15.9-44.9,5.3-11.1,18.7-14.3,6.1,9.5,14.1,10.9,12.6-.3,25.3-.9,37.9-1.5,31.7-10.2,62.1-23.1,91.3-38.2-25.3-.3-50.5-.5-75.6-.6-23.5,0-67.3-2-82,13.4Z"/>
  <path d="M956.7,853.2h0c-45-14.7-95.1-7.6-142.6-7.4-45.4.2-86.7-1.2-132.1-.9-54.2.3-113.8,10.3-165-1.4l-10.4,12.1c-40.5-8.9-98.6-12-143.1-12.9-11.3-.2-22.6,7.2-32.8,7-24.2-.5-74.9-20.7-82.3,2.5l-6.6-11c-39.3-.9-78.6-.5-118,.3v-.3l-38.4-.3c.2.5.4,1,.6,1.5-11.6.3-23.1.6-34.7.9,4.4,9.8,9,19.6,13.9,29.1,15.6-.4,31.2-.7,46.9-.9,3.6,1.4,7.4,2.3,11.6,2.4-.5-.9-1-1.7-1.4-2.5,40.6-.5,81.3-.4,121.3,0,21.2.2,35.1,12.4,64.7,5.1,12.3-3.1,9.8-20.3,18.5.8,23.9-6.7,61.3,13.3,70.2-13.1,12.5,29.6,33.1,11.1,55.3,10.5,22.6-.6,48,7.8,66.5,7.9,204.4,1.1,410.6-10.3,616.5-11.5,4.3-8.4,8.4-17,12.3-25.7-38,1.3-75.9,2.3-113.9,2.5-14.6,0-69.8-19.5-77,5.3Z"/>
  <path d="M610.3,1197.3h0c-3.1-1-2.5-9.9-6.4-10.3-8.8-.8-20.3,8.5-31.3,7-4.2-.6-1.3-10.2-11.8-11.3-9.6-1-40.1,0-48.8,2-3.2.8-3.4,5.4-4.5,8.2,30.2,4.7,61.1,7.1,92.5,7.1s56.9-2,84.5-5.9c-14.6-26.4-59.1,8.1-74.2,3.2Z"/>
  <path d="M468.3,1185.5c6,1.3,12,2.6,18,3.7-5-1.9-9.9-3.5-13.4-3.7h-4.6Z"/>
  <path d="M688.4,1193.5h0c18-2.7,35.7-6.1,53.1-10.3l-51.9,1.5-1.2,8.8Z"/>
  <path d="M662.1,999h0s-16.7,3.2-16.7,3.2l.8,19.2,13.8-5.3c3.3-.4,0,9.5,10.7,10.6,34.8,3.4,68.8-12.7,103.9-3.2l10.9-28.2,3.4,22,145.5,6.8c29.5,8.8,69.5-16.8,93.3-12.9,1.7.3,1.6,3.4,3.4,6.1,9.9-10.2,19.4-20.8,28.6-31.7l-400.7,2.5,3.1,10.9Z"/>
  <path d="M147.3,926.7h0c10.4,2,38.8-6.7,53.2-1.4l11.2-22.7,3.4,22,256,3.8,12.9-11.8,3.8,10.7,79.1,3.1,2.2-16.3c11,4.7,30.1,8.9,41.6,7.5,14.3-1.7,8.7-19.5,25.9,7l258.9-3.2c20.6-37.1-22.7-34.1-48.6-35.3-63.1-2.7-128.2,8.4-190.4,9.2-62.4.8-124.7-8.2-187.3-4.8l-10.2,11.8c-4.2-17.6-35.6-16.3-38.4,1.1-4.7.5-.8-7.9-7.1-10.7-13.4-6.1-103.5-5.2-119.2-2.1l-5.2,22.3-3.6-27.4-5.2,11.1-19.4-10.4-10.3,27.8-3.5-21.9-10.5,11.2c-2.9-18.5-69.5-24.6-74.2-3.2-22.3-18.9-55.6-14.7-86.9-12.9,5.9,10.6,12.1,21.1,18.7,31.3,8.3,0,16.7,0,25-.3,36.4-.9,18.1,2.7,28.2,4.5Z"/>
  <path d="M426.1,1011.4v.2c.1,0-2.1,16.5-2.1,16.5,31.5-4.1,70.8,5.3,99.6-10.5,3.1-1.7-1.7-11.2,6.8-9.2l.4,11,10.5-11.3c-5.4,27,96.1,12.3,99,7.7-.6-22.4-6.1-32.7-29.8-26.1-6.4,1.8,3.2,8-11.6,7.1-7.4-.4,1.6,15-5.2,15.2l-5.9-16.2-13.2,5.4-6.2-10.5-2,27.5-4.1-21.1c-6.2-9.3-102.3.5-117.6.2-40.4-.8-84.1-3.8-126.5-4.4-45.3-.7-104.1-9-148.1-7-10.8.5-17.3,2.6-22.1,8.6,6.3,7.3,12.8,14.4,19.5,21.3,1.3-.6,2.5-1.2,3.7-1.7l5.9,10.2c80.2-12.3,172.1,15.9,249-12.9Z"/>
  <path d="M906,893h0l10.1,32.8,86.2-2.5,5.9-11.5,6.6,11,89.7,2c5.5-8.6,10.8-17.3,15.9-26.1,0-.4,0-.8,0-1.2-70.4-11.7-141.9-5.5-214.3-4.5Z"/>
</svg>