<?xml version="1.0" encoding="UTF-8"?>
<svg id="Layer_1" xmlns="http://www.w3.org/2000/svg" version="1.1" viewBox="0 0 1200 1200">
  <!-- Generator: Adobe Illustrator 29.0.0, SVG Export Plug-In . SVG Version: 2.1.0 Build 186)  -->
  <path d="M1082,785.4l3.4,16.3c-11.2,4.6-21.2-15.5-23.5-15.8-9.7-1-18.5,6.3-26.6,6.3-7.9,0-15.1-9.3-27.3-9.6-22.7-.6-113.3,12.3-119.9,10.7-4.4-1-1.7-9.9-11.9-10.8-30.7-2.8-68.9,7.9-98,8-32.7,0-64.9-8.1-100.3-5-13.4,1.2-28.8,10.9-32.2,10.7-4.5-.2-10.9-9.8-16.8-8.4-6.8,1.7-4.1,18.3-13.1,17.1l4.5-22.1c-17.5-8.3-55.8,11.9-62.6,11.6-8.7-.4-21.8-15.3-41.5-1.8l5.1-11.1c-17,6.1-82.9-1.2-92.3,5.3-2.6,1.8,1.8,10.4-3.3,9.8-3.3-13.8-36.1-15.3-50.1-14.9-21.4.6-27.2,5.1-50.2,4.9-47.7-.5-87.9.1-135.4,1.3-24.5.6-53.4-15.1-72.3,5.2-3.1,1.1-2.1-10.1-6.7-11-12.4-2.3-59.1,3.2-81.6,4.1,3.2,9.8,6.6,19.5,10.3,29,197.1-.4,394.1-.7,589.5-5.6,3.6,0,.9,10.1,11.5,11.1,10.1.9,63.3-1.1,70.9-3.4,5.5-1.7.9-10.9,5.8-11.3,69.8,27.9,246.3,6.1,330.2,5,7.4,0,16.4,7.8,27.6,7.6,28.1-.4,56.8-3.1,85.4-4.6,4.3-11.1,8.2-22.4,11.8-33.9-35.9,2.9-75,7.1-90.4,4.9Z"/>
  <path d="M557.9,1060.6c35-.6,84.7,11.7,120.6-11.2,6.6,21.7,24.5,5.5,38.9,6.4,8.4.6,15.8,7.3,27.8,7.5,28.6.6,63.2-6,92.8-3.8l5-17,3.5,16.2,66,2.7-16.7-4.8,10.3-16.8c-10.2-13.4-111.4-16.6-128.8-11.2-5.4,1.7-1.4,13-5.8,11.3-52-22.1-120.4-6.8-176.2-6.2-4.7,0-14-7.7-27.4-7.6-32.7.4-75.1,2.4-104.4,15.5-11.2-27.3-38.1-11.4-60.6-11.1-74.6,1.1-147.6-.3-221.1-.5,12.7,12.4,25.9,24.1,39.7,35.3,30.7-1,66.1-6.4,94.9-6.3,80.7.3,160.9,2.8,241.6,1.5Z"/>
  <path d="M1072.5,950.4c-8.9,2.7-2.9-9.2-9.5-10.6-28.6-6.1-26.8,17.1-31.3,17.8-1.9.3-21.8-7.8-14.5-15.7,2.8-3,22.9-1.7,21.4-11.9-35.9-4.3-27.9,28.1-62.2,24.9-14.8-1.4-11.2-15.5-15.3-26.8l-26.9.8-2.1,16.6-6.5-16.6c-38.5,3-69.7-5.1-97.6,26.3-13.8-4.9-1.3-19.3-3.6-21.6-8.9-9.1-186.8,4.6-216.3-.3l-19.1,21.1c3.1-18.4-16.8-25.3-31.7-25.6-1.8,0,.1,15.9-20.4,11.3-4.1-.9-1.5-10-11.9-10.9-25.6-2.2-60.9,4.1-88.3,4.4-38.1.4-38.8-12-76.5,7.1-11.3,5.7-15.4-8.3-17.8-8.6-20.8-2.9-46.4.2-67.7-2.9l-4.8,16.7c2-22.2-46.1-18.4-55.7-11.4-5.3,3.9-1.5,15.6-10.2,14.2l-3.9-16.6c-26.8,3.8-30.9-12.2-45.7,13.3l-3.8-16.7c-16.9.6-34,2.1-51,2.9,7.6,11.4,15.5,22.5,23.8,33.3,141.6-2.1,282.8-3.4,424.7-3.5,22.6,0,153.3,8.1,160.8,2.8,2.4-1.7-1.4-9.8,3.5-9.6l3.1,10.9,261-5.8c30.6,0,66,1.5,101.6,2.2,8.5-11.2,16.5-22.6,24.2-34.4l-36.7,1.3,6.4,21.6Z"/>
  <path d="M622.7,1161.7c3.8.9,2-8.4,3.5-9,15.5-6.5,16.3,8.1,18.8,8.1,4.2,0,10.3-5.3,15.7-5,28.7,1.3,56.8,8.2,84.8-5.1l-.9-27c-6.2.2-11.7,4.4-18,4.2-33-1.2-56.6,5.8-87.9,3.8-17.9-1.2-65.6-19.1-64,4.7l-9.4-10.7-37.4,1.3-7.7,17.1c-.5-6.1-4.2-12.3-9.4-15.6-20.7-13.2-123.7,1.3-153.1,6.1l2.3-11.1c-4.2-2.6-28.2.4-48.3,2.9,25.9,14.2,53,26.6,81,36.9,74.3-.9,167.3-16.6,230-1.5Z"/>
  <path d="M459.2,1075.7l-23.1,27.9-1.2-27.4c-65.2,2.5-130.1,2.9-195.7,3.2,14.8,11.1,30.1,21.6,45.8,31.3,22.3.3,53.1-10.9,72.1,1.2l1.9-10.5,9.4,10.7c32.7-1,65.4-3.5,98.2-4.6,56.5-1.9,123.5,6.9,189-.5,12.6-1.4,20.8,11.1,24.7-8.4l6.7,10.9,155.7-1.3-22.6-15.5c16.4-30.3,24.2,11.2,49.6.6l.5,13.8c16.1-3.6,32.9.1,48.4,1.2,10.3-6.5,20.4-13.3,30.3-20.4l2.4-11.6-492.2-.7Z"/>
  <path d="M953.1,1085.1c3.7-2.7,7.4-5.5,11-8.2-2.4-.3-4.7-.6-7-.6l-4.1,8.9Z"/>
  <path d="M1122.1,888l-6-10.9-2.1,16.6c-13.7-.7-5.3-15.8-6.1-16.2-3.4-1.6-61.8,10.2-73.9,2.8l-4.9,17c-19.7-24.5-42.2-10.3-64.5-11.4-19.3-1-56.5-13.8-62.1,5.8-51.7-17.6-129.5-6.1-187.1-6.1-58.1,0-117.2-4.2-175.4-4.7l-19.1,16c-.6-24-55.5-16.3-74.6-13-8.6,1.5-23.1,12.3-24.3,11.6-2.3-1.4,3.3-13.7-25.5-15.3-102.5-5.5-221.6,1.2-325.6,2.8,5.8,10.9,12,21.6,18.5,32.1,11.8-3.2,21-8.6,22-17.4l6.5,16.6c25.7-3.7,50.9,2.4,76.4,1.8,156.2-3.7,318.5-3.4,473.4,2,11.6.4,24.1-13.3,37.5-12.6l-2.2,11.1,107.7.5,1.9-10.5,8.1-.5c5.3,25.5,47.3-1.9,53.9-1.3,25.9,2.6,61.6,11,90.5,11.1,49.4.2,99.2-3.3,148.9-6,6.2-10.3,12.2-20.9,17.8-31.6-4.5.2-7.9,2.7-9.6,9.6Z"/>
  <path d="M117.6,848.2l22,18.1c116.4-5.1,232.1,2.5,349.4-.6l7.7-17.1c.7,19.1,31.9,19,47.7,19.8,66.8,3.5,141.2-6.7,208.7-6.2,13.9,0,42.1,11.1,60.4,5.9l-14.3-15.9,27.4-1.2,3.7,16.7,150.8-1.3-1.4-32.9c-14.7-5.5-8.9,11.8-13.2,11.7-8.5-.3-11.7-7.5-17.8-8.5-31.4-5.2-77.4-7.4-108.8-2.7-8,1.2-14.1,11.5-20.7,10.7-9.9-1.2-21.8-23-28.4,2.2-33.3-29.9-82.6-7.8-120.5-7.9-113.4-.5-227.7-10.6-342-5.5-70.3,3.2-161.7-3-240.8-.9l-5.8,11.5c-10.8-2.8-21.8-5.1-33-6.9,4.6,10.6,9.4,21,14.6,31.3,24.8-1,50.2-5.1,54.3-20.3Z"/>
  <path d="M758.4,1122.9l9.3,27.1-11.6-15.9,1.6,21.1c16.9,4.9,46.8,14.1,51.1-6.9l6.8,11.1h2.2c28.3-11.2,55.7-24.3,81.7-39.3-45.2,1.4-106.6,15-141.1,2.9Z"/>
  <path d="M543.8,1009.2c2.2-.3,39.5-13.4,41.6-10.7,10.1,12.8-12.9,8.3-10.2,16.8l21.7-5,2.5-7c8,20.5,48.2,4.8,66.4,5.3,8.8.3,17.9,7.4,32.8,7.3,39.9-.3,80.3-4.4,120.1-6.2,12.5-4.7,7.9-21.8,7.6-32.5-40.7,1.3-82.7,7.8-123.2,7.8-123.8-.2-252.7-9-379.8-8.1-33.3.2-110-1.4-137.4,2.1-10.1,1.3-16.2,10.7-26.4,10.3-3.5-.2-.7-10.3-11.4-11.3-3.5-.3-8.6-.6-14.7-.9,9.6,11.9,19.7,23.4,30.2,34.6,43.9-.7,88.4-1.3,134-1.4,79.7-.2,170.2,8.6,246.1-1.3Z"/>
  <path d="M435.8,1177.3c15.7,4.5,31.6,8.3,47.8,11.5l-.7-15.6c-15.3.8-31.2,2.6-47.1,4.2Z"/>
  <path d="M606.8,1173.1c-39.9.2-76.4,12.5-112.9-.4l4.4,9.5c-4.7.5-7.9,3.6-9.3,7.5,30.6,5.7,62.1,9.1,94.2,10,.2-2.5.4-4.4,2.4-3.6,2,1.4,4,2.6,6.1,3.7,2.8,0,5.5,0,8.3,0,34.4,0,68.1-2.9,100.9-8.5,2.4-2.4,5.3-4.5,7.8-6l.2,4.6c25-4.6,49.4-10.7,73.2-18.3-58.3-1.1-118.5,1-175.3,1.3Z"/>
  <path d="M1009.9,843.5l-19.1-4.9,1.2,27.3,147.4-3c4.7-9.7,9.2-19.6,13.5-29.5-5,.6-9.9,1-14.5,1-37.4-.6-103.8-13-128.4,9.1Z"/>
  <path d="M1017.3,989c-27.4,22.9-23.8-6.2-52.6,9.9l4.5-22.1-29.7,1.1-2.7,13.9,22.4,7.4-5.1,11,85.2-1.7c10-10.8,19.7-22,28.9-33.5-23,0-41.8,1.2-49.4,5-.4.2,1.1,6.6-1.6,8.9Z"/>
  <path d="M1015.2,1024.3l-90,9-7.3,28,69.3-2.9c6.1-5.1,12-10.4,17.8-15.7l-.5-12.5,10.7-5.9Z"/>
  <polygon points="843.1 982.2 860.2 1000.9 850 1014.7 932.2 1011.3 930.8 978.4 843.1 982.2"/>
</svg>