<?xml version="1.0" encoding="UTF-8"?>
<svg id="Layer_1" xmlns="http://www.w3.org/2000/svg" version="1.1" viewBox="0 0 1200 1200">
  <!-- Generator: Adobe Illustrator 29.0.0, SVG Export Plug-In . SVG Version: 2.1.0 Build 186)  -->
  <path d="M1167.4,780.2c-13.5,2.2-34-3.1-45.9.1-6.2,1.7,1,13.8-11.7,11.2-5,.5-1.4-7.9-4-9.5-12.3-7.8-86.6,2.5-106.8,2.6-63.4,0-127.4-4.2-190.9-2.7-1.3,26.1-40.5,30.2-38.8.6l-123.5.8-2.6,11c1.3-17.1-57.2-12.6-62.1-9.2-3,2.1,3.1,12.1-9.3,9.6-5.1-.4-.7-9.6-6.4-11.1-7.8-2-60.9-1.4-71,0-10.9,1.5-6.9,11.9-10.5,11.7-7.4-.3-14-9.6-27.2-11.3-61.9-8.2-139.9,9.3-203.9,1.1l-15.9,11.6c-5.1-.3-.8-9.7-6.4-11.1-4.9-1.2-85.3.6-91.4,1.9-5.6,1.2-12.3,11.7-14.7,9.8-.4-4.5-1.8-11.4-5.4-13.7-9.9-6.4-51.8-4.3-91.1-2.3,3.5,10.9,7.2,21.7,11.3,32.3,12.7-.2,25.3,0,37.8.6l6.2-11.2,6.3,11.1c13.9-1.4,30.2,1.7,43.5,0,7-.9,12.2-15.9,21.4-10.3,9.4,5.7,10,22.9,36,15l2.6-11c2.9,13.2,19,10.5,32.9,11,63.7,2.4,128.9-4.3,192.6-2.4l5.2-10,6.3,11.1,62.3-.6-11-10.8,30.1-16.7c11.4,15.9-24.9,13.1-10.8,27.5l167.5-1-.2-27.5c19.8-5.3,33,8.6,27.6,27.2l186.6-1.1-27.6-27.2c12.5,5,34.9,7.1,45.3,10.8,8.3,2.9,3.1,15.8,23.4,16.7,20.8,1,40-19.9,43.9-1.9h194.1c3-7.9,5.9-16,8.6-24.1l-2.2-8.8Z"/>
  <path d="M217.5,952.4c1.6-6.5-15.1-19.5,11.2-10.5l-4.1,10.7,12.5,8.2,30.6-21.7-5.3,22,82.4-.5,2.7-22,8.3,22c13.1,6.6,30.9-9.1,35.6-9.2,3.6,0,11.2,9,21.7,9.1,32.1.5,64.4-1.5,96.4-.9-12.2-30.4,19.9-30.2,25.1.3l167-1.5-.2-27.3-30.5,5.1-10.5-10.8c-20.2-3.3-16.3,27.4-35.8,14.4l10.9-13.7-540.1-1.1c8.3,12.8,17,25.3,26.2,37.4,20.5,2.3,41.8-4.1,61.1-5.3,10-.6,30.5,12.3,34.7-4.7Z"/>
  <path d="M916.2,997.2l2.9-1.3-.3-.4c-1.6-.3-2.3.5-2.6,1.7Z"/>
  <path d="M888.6,990.2l5.4-16.4c-61,2.1-122.5.4-183.5,1.1-41.3.5-106.1-4-143.4.5-24.9,3-21.2,29.3-9.6,32.8l357.8-3c1.8-1.2.6-5.5,1.1-8l-8.5,3.9c-4.6-10.1-6.9-12.9-19.2-10.9Z"/>
  <path d="M951.7,984.5c-5-18.2-19.5-9.8-35.8-10.8l22,13.5-18.8,8.7,10.3,11.1c38.1-2.4,76.5-3.7,115.2-4.1,8.8-9.7,17.3-19.8,25.5-30.1l-115.9.7-2.6,11Z"/>
  <path d="M968.1,1022.4c-9.6,1.1-15.8,3.3-21.6,11.4-4.1-17.6-40.2-17.2-43.9.3l-2.7-11-249.1,1.8-6.2,10.8h-13.7c0,0,5.5-11,5.5-11-75.9,2.9-152.1-.4-227.9.9-26.4.5-71.6-2.9-93.2,1.1-7.9,1.4-17.5,12.2-19.1,10.9-.6-.5.9-7.8-1.3-9.3-7.6-5.2-26.8.2-37.3-1.4l-2.6,22.1c-14.8-1.3-11.1-18.9-27.5-21.9-14.1-2.6-31.2-.6-47.5,1.2,9.8,9.6,20,18.9,30.4,27.9l102.4,3.3-5.6-10.9c14.8-6.4,16.6,8.9,19.2,9.5,6,1.5,71.6,2,82.6,1.3,10.9-.7,5.4-16.9,26.5-11.6,4.2,1.1,1.5,11,11.6,11.5,12.2.6,24.4-3.5,33.2-11.8,2.4,14.5,47.9,16.6,49.3-.2,15.9,23.4,42.6.7,60.8.2,2.5,0,1.7,9.7,6,10.6,28.2,5.9,201.6,0,240.6-1.8,12.8-.6,58-2.6,66.1-5,9.8-3,8.7-12,11.1-12,7.2,0,17,9.2,27.5,10.8,24.3,3.8,40.2.9,57.3-16.5l6.3,9.3c8.1-7.4,16-15.1,23.7-22.9-20.7-.3-41,.2-60.5,2.5Z"/>
  <path d="M299.6,1119.5c12.3,7.1,24.9,13.9,37.8,20.1l-16.1-20.3h-21.7Z"/>
  <path d="M774.2,1139.1v-22.1c-.1,0-99,.7-99,.7l2.9,21.9-12.1-22.1c-8.4-2-104.5.2-109.3,2.8-7.9,4.2-6,14.8-10.5,14.7l-2.9-16.5c-24.8,9-68.9-13.9-79.6,11.5l-8-.2c-.6-.5,1.5-9.4-3.8-10.8-25.1-6.6-77.5,5.5-106.2.8l11.1,21.8-8.4,3.4c3.5,1.6,6.9,3.2,10.4,4.7,13.4.4,26.3,1.3,38.4,3l6.3-11.4,2.7,11c35-5.2,84.3,11.5,112.6-11.6,4.5-2,.6,9.5,6.3,11,20.3,5.2,90.9,2.1,109.1-11.7l5.4,11.1h11.1c0,0,5.4-11.3,5.4-11.3l2.7,11,159.3-1c-7.3-15.6-30.2-14-44-10.6Z"/>
  <path d="M744.4,1166.3c-22.1-2.5-45.5,8.1-68.9.9l5.8,13.2c-9.5,5.3-12.8,5.3-11.7,15.7,12-1.4,23.9-3.1,35.7-5.2l.5-2c.7.5,1.2,1.1,1.6,1.6,30.9-5.6,61-13.6,90.1-23.7-26.7,1.9-19.3,3.3-53.2-.4Z"/>
  <path d="M1030.7,890.7c-4,4.4-17.9-16.5-24.6-16.9-23.4-1.4-58.6,6.3-82.2,6.8-69.6,1.6-139.1,1.1-208.6.6l-5.7,16.9c-7.2-18.4-26.5-26.5-33-5.3-5,.8-1.1-7.9-3.8-9.6-10.9-6.8-70.8,2.6-88.8-1l-6.2,11.2-10.7-11.5-272.1,2.2c4,4.8,16.8,19.3,20,21.2,12.9,7.7,137.7,8.2,158.2,4.8,9.1-1.5,18.1-14.1,24.1-9.8,1.1.8.4,7.2,2.2,8.2,11.9,7.1,246.6,3,276.9-1.3,9.1-1.3,15.4-9.6,26.6-10.3,10.5-.7,4.9,11.5,16.3,12,41.7,1.8,88.3-2.9,125-3,54,0,108.9,1.4,162.7-.3l3.3-10c1.7,5.6,3.5,8.6,6,10.2,2.5-4.2,4.9-8.4,7.3-12.6l-4.9,2.5v-16.5c.4-.7,5.3,2.2,10.4,4,1.7-3.2,3.4-6.3,5-9.5l-114.4.7c-2.8,7.8,22,4.4,11,16.3Z"/>
  <path d="M359.3,1092.1c5.5-.5.5,9,5.4,9.9,41.6,7.6,101.5-6.1,145.7.1l-22-19,10.9,2.6c10.1,1.9,1.8-8.6,8.2-11,15.4-5.9-2.9,24.1,12,27.6l40.3-.5-21.9-5.3,8.1-16.4c6.6,1.7,20.4,19.9,22.1,20.4,5.1,1.4,65.6,2.4,68.6.8l2.7-16.3c8.8,15.1,10.8,19.5,30.3,16.1l-4.4-19.5,15.2-13.4c-24,1.6-50.1-2.1-73.9.6-38.6,4.3-33.7,1.8-71.5,0-35.5-1.6-71.7,2.1-107.2.9l11,10.8-16.4,5.7-3.1-16.8-92.9.5-5.6,16.9-12.3-16.7c-26.3,1.3-52.5,1.9-78.8,2.2,14.1,11.1,28.7,21.5,43.7,31.3l83.1-.5,2.6-11Z"/>
  <path d="M804.5,1127.8c25.5,4,12-3.2,28.1,21.3,3.5-.8,7.7-1.2,12.3-1.2,21-9.4,41.3-19.9,60.9-31.6l-109.7.6c-1,13.9-1,9.3,8.4,10.8Z"/>
  <path d="M1052.5,852.1c-8.1-1.4-17.9,3.7-24.9,3.1-27.5-2.4-12.1-23.9-16.5-24.8-17-3.3-59.9-3.4-71.4,11.4l-19.2-10.8,11,10.8-19.1,5.7-5.8-16.7c-52.9,3.3-106.3-1.1-159.5,1.1-14.9.6-39.7.4-49,11.3-4-17.1-43-12.4-60.6-10.8-26.5,2.4-30.2,5.5-49,22.5l-3-22c-19.3,10.5-50.2-14.1-57.5,11.4-6.4-22.8-36.7-7.2-54.9-6.3-8.4.4-18.1-5.1-27.7-4.9-10.8.2-5.4,12.8-16,12.3-12.1-.6-18.5-9.7-27.9-11.1-28-4.4-71.4-4.3-92.8,14.2-18.9.8-19.8-13.1-23.4-13.8-3.9-.8-76.2-.8-80.1.1-10.3,2.4,6.7,11.4-25.8,11.5.9,4.4-2.1,11.5.9,15.5,9.1,5,19.1,5.8,29.2,6.5,138,9.1,286.6-10.7,425.8-2.8l-5.6-10.9,19.2-.2-2.7,11c24.1,3.6,50.5-3.8,73.2-3.8,23.9,0,59.5,5.6,83.3,3.3,18.2-1.7,27.8-25,46.6-14.4l-10.9,13.8c27.6-4.8,76.5,6,100.8-.5,5.8-1.5,1.6-13.1,6.2-11.1,11.1,14.3,22.1,14.3,33-.2,9.6,22.4,58.8,2.7,82.6,9.9l5.1-15.9,2.9,16.6,46.2-8.6,27.9.7c4.5-9.5,8.7-19.2,12.7-29l-109,4.1,5.7,21.8Z"/>
  <path d="M178.8,836.1c-9.8-2.2-19.6-4.7-29.7-6.2-16.5-2.3,8.1,18.5-16.4,11.2-5.2-1.6,2.1-7.2,2.7-11h-46.4c0-.1-5.7,16.8-5.7,16.8-5.3-16-20.6-17.2-37.4-16,4.4,10.6,9.1,21.1,14.2,31.3l53.5.9-11.1-8,8.2-13.9,9,21.7c10.7-5.2,26.1,2.2,33.9.4,7.1-1.6,1-16.8,25.7-16.9-.6-2.9,1.7-7.9-.7-10.2Z"/>
  <path d="M207.8,999.8h16.5c0,0-5.5,10.8-5.5,10.8,29.9,5.5,63-6,90.3-6.2,15.3-.1,75,12.4,85.4,5.1l-5.6-10.9,19.2-.2-2.7,11,115.3-.7-4.4-19.5,15.2-13.4-376.1,3c-6,3.7-10.6,6.2-14.2,7.8,6.3,7.5,12.8,14.8,19.5,22l52.6,1.9-5.6-10.9Z"/>
  <path d="M772.9,925.1l.2,33,309.8-1.9c7.2-9.7,14-19.6,20.6-29.7l-3.5-3.7-327.1,2.4Z"/>
  <path d="M961.6,1078.8c5.3-4,10.5-8.1,15.6-12.2l-27.8.2,12.2,12Z"/>
  <path d="M940,1066.9c-36-7.5-127.1,4.3-167.5,5.1-12.3.2-72.1-6.4-75.6-3.7-8.4,12.7,17.2,10.8,11,16.3-3.9,3.4-20.2,1.5-16.3,16.6l65.8-.4-5.6-21.9c14.7,5.8,26,2.3,22.1,21.8l10.9-.2c4.5-29.8,23.9-.6,25.8-.2,15.8,3.5,39.5-2.5,56.7-.3l.4-21.2,21.3-6.3-16.3,27.5,59.5-.3c8.7-5.8,17.3-11.8,25.7-18.1-8.6-4.1-16.8-14.5-17.9-14.7Z"/>
  <path d="M617.9,1183.9l-2.8-16.4-49.4.3c4.2,8.3,9.5,11.2,11.1,21.8,6,3.1,5.4,9,8.1,9.8.7.2,1.5.3,2.3.5,4.2,0,8.5.1,12.7.1,22,0,43.8-1.2,65.2-3.5l4.8-29.3c-22,1.2-43.4-8.2-52.1,16.7Z"/>
  <path d="M560.2,1167.8l-129.4.2-5.6,6.1c48.2,14.7,99,23.4,151.6,25.4,0-3.3.5-6.8,0-10-7.7-3.9-19.1-7.4-27.5-10.9l10.8-10.9Z"/>
  <path d="M416.5,1170c-1.4-.9-4.6-1.4-9.3-1.6,3.4,1.1,6.8,2.3,10.2,3.3-.1-.8-.4-1.4-.9-1.7Z"/>
  <path d="M285.9,883.8l-67.8.7,5.6,16.3h-16.4c0,.1,5.3-21.8,5.3-21.8-38.3,2.6-80.2-2.8-118,.7-3.9.4-8,3.3-13,.9v21.4c1.9,3.4,4,6.9,6,10.2l218.5-.9-20.2-27.5Z"/>
  <path d="M767.6,958v-16.4c-30.1,9.9-24.8-17.2-49.6-16.1l11.1,16.3-10.6.4c-.8,24.5,31.9,14.6,49.2,15.9Z"/>
</svg>