<?xml version="1.0" encoding="UTF-8"?>
<svg id="Layer_1" xmlns="http://www.w3.org/2000/svg" version="1.1" viewBox="0 0 1200 1200">
  <!-- Generator: Adobe Illustrator 29.0.0, SVG Export Plug-In . SVG Version: 2.1.0 Build 186)  -->
  <path d="M943.3,984.4c-12.9,1.5-5.3,11.8-10.7,11.4-5.4.4-.4-8.7-5.2-10.2-4.5-1.4-89-2.7-94-2.1-12.9,1.6-5.3,11.9-10.7,11.4.1-10.7-18-12.9-26.4-11.2-4.7.9-3.5,8.8-6.6,10-8.1,2.9-43.9-21.6-60.6.5l-4.8-10.6c-6.8,3.9-14.3,5.2-22.1,5.2-64-.3-135.9,1.6-193-1.8-15.2-.9-64.3-2.5-76.2-.6-20.2,3.2-11.1,13.6-11.4,27.3-16.8,2.3-15-23.1-18.6-25.2-38.4.1-79.2,3.9-118.5,4.5-18,.2-78.9-8.4-89.6-1.7-2.7,1.7,1.2,10.5-3.8,9.6l-6.2-11.4c-14.2,6.5-30.6-4.6-39,3,9.8,11.4,20.1,22.4,30.8,33,55.8.6,111.1-.2,165.5-3.7,164.4-10.7,343.4,3.1,513.2-2.3,17.1-.5,34.5-3.7,51.9-2.3l3.2-16.1,2.8,16.3c18.3-4.8,41.2,2.6,57.4,1.2,8.7-.7,14.3-10.3,14.3-19.3,0-6.1-13.8.7-11.3-8.6l14-.3c12.6,10.5,28.9,18.4,46.7,23.4,8.9-9.3,17.4-18.9,25.7-28.8-38.7,3.8-80.9-4.8-117-.5Z"/>
  <path d="M806.2,1082.8l-6.2,10.6,8.2,16.6c-17-8.2-26.8-25.4-46.1-28.1-27.3-3.9-157.4-.5-185.6,5.3-12.5,2.6-20.6,12.4-29.1,20.7l2.9-21.9c-53.8,1.4-108.1-1.5-162.2-1.6-37.8,0-75.9,1.4-109.9-.2-11.1-.5-22.4-.7-33.7-.8,16.2,12,33.1,23.1,50.5,33.4l123.3.9-2.7-11,21.7,11.4,22.1-16.5-2.8,16.4c42.9-.8,86.2,2.3,129.2,1.3,13.4-.3,22.1-9.9,32.6-10.2,26.3-.8,94.2,22.7,102.1-10.9l30.5,16.6,154.4,1.6c17.2-10.2,33.9-21.3,50-33.1-.4,0-.9,0-1.3,0-49.3.8-99.1,1.2-148-.6Z"/>
  <path d="M317.2,1056.6c4.1,17.6,17,10.3,32.6,11.7l3.2-16.8,16.1,5.9-5.3,10.6,112.6,1-8.1-11,13.9-5.5c2.1,15.8,43.1,21.1,51,16.1,6.3-3.9,10.9-31.9-8.4-22.6-9.5,4.6-3.8,13.2-12.5,12.2v-21.9c0,0-14.1,16.7-14.1,16.7-26.7-15.7-73.8-31.8-93,4.3l-13.7-13.8,13.8-8.1-216.7,1.2c11.3,10.7,23,20.9,35.2,30.7l87.2.7,6.4-11.4Z"/>
  <path d="M1038,837.3c-85.1,1.2-173.1,8.8-258.1,9.4-28.1.2-56-9.7-87.6-6.5-15.5,1.6-45.8,18.3-54.2,15.9-4.4-1.3-3.4-16.9-19.9-11,4,19.7-7.5,15.7-22,21.7l-5.6-16.4,16.6-5.3c-32.1-3.1-49.2-2.6-71.5,21.3l11.1-21.8c-30,1-60.6-2.5-90.5-.7-14.3.8-35,11.2-43.7,10.7-3.6-.2-.5-10.8-11.1-11.8-25.6-2.4-63.1,6.1-90.8,0l5.5,10.9c-18.2-4.2-31.7,6.1-50.8-.8-5.2-1.9-2.2-9.7-11.9-11.1-34.7-4.8-79,3.8-115-.8l-9.1,33.1c40.5-.9,83.5,5.7,120.9-9.9l-2.9,10.9c49-3.9,106.2,6.4,154,1.5,9.6-1,15.8-3.1,21.8-11.1,4.5-1.9.5,9.5,6.2,11.1,7.3,2,79.8,1.4,83.3-.8,2.7-1.7-1.2-10.5,3.8-9.6,14,32,29-7.1,49.4-10.6l-13.8,21.8,186.7-4v-13.8s27.5-2.4,27.5-2.4l-11,16.3c30.2-7.5,72.9,10.7,96.2-10.1,2.2,16,34.9,13.7,49.7,11.8,10.9-1.4,7.1-11.8,10.7-11.6,9.6.6,32.2,20.8,52,11.5l-2.5-27.4,8.1,16.5,16.5-10.8-2.9,21.9,38.7-10.7,4.8,10.6c36.4-4.1,73.3-6.3,110.5-7.4,4.9-9.8,9.5-19.7,13.9-29.7-37.5.2-75.2-1.5-112.9-1Z"/>
  <path d="M822.2,1033c-13.3,1.8-21,11.1-32.9,11.6-10,.4-7.5-9.6-10.6-10.4-34.1-8.8-82.8,4.2-115.6,5.9-20.6,1.1-41.5-5.3-62.2-2.3l-6.5,32,43.8.4.2-16.5c20.6,24,21.9,8,35.2,8.3,19.9.4,42.3,6.4,63.4,3.4l-10.3-6.1,5.1-21.4c12.2.7,5.2,14.5,6.5,15.5,12.6,10.1,68.5,23.9,72.9,1.6,16.8,22.4,45.4,6.6,66.2,7.4,34,1.3,67.7,2.2,101.4,2.7,13.7-11.2,26.9-22.9,39.6-35.2-63.5-.5-151.7-3-196.2,3Z"/>
  <path d="M570.8,921.6c0-.1,0-.2.1-.3,0,0-.1,0-.2,0v.2Z"/>
  <path d="M973.1,892c-6.4,3.5-.6,15.3-15,10.6l-5.4-10.9-5.7,21.9,8.1,5.5-19.2-.2,5.7-27.3c-13.3,2.9-46.7-2.8-56.8-.2-8.7,2.2-3.1,25-27.1,10.3-3.4-2.1-3.4-9.7-7.7-10.7-20.1-4.6-51.3,2.4-73-.7l13.5,22.1-8.1-11.1-11.1,10.9.2-22-104.3-.7c-1.3.9,22.9,33.9,2.6,27.4l-24.4-27.6c3.1,10.6-17.3,16.8-24.5,16.4-3.3-.2-2.5-10-6.8-11.1-32.3-8.2-34.5.8-43.1,26.7,17.3-6.9,23.2,6,37.4,5.9,33.2-.3,78.3-14.1,115.5-4.6l6.2-10.7c18.9,28,63.1,1.8,76.8,2.7,87.8,5.3,195.9,11.2,298,9.8,7.5-11.6,14.6-23.5,21.3-35.7-9.3.5-18.6.9-28,1.1-24.4.7-109.2-6.4-125.1,2.3Z"/>
  <path d="M486,893.4l21.9,11.2-8.4,11-41.1-11.5,5.7-10.8-98.8-.8c-4.9,13.7,6.3,9.9,7.2,11,15.5,19.4-31.5,12.4-12.7-11l-282.7,1.8c5.6,10,11.5,19.8,17.7,29.4,8-1.4,15.8-4.9,20.5-11.2l10.4,11.5c23.8-5.8,67.9,12.3,77.4-10.9l8,.3c-1.9,19.7,26.3,8.2,41,11.5l5.9-16.9,21.6,17.1c46.7-5.3,101,11.9,142.9-10.3l-2.8,11,140.3,1.6c4-2.8,7.5-4.7,10.7-6l-7.9-27.3-76.9-.6Z"/>
  <path d="M1169.6,789l-73.4-.3-2.8,11c-4.6-16.6-14.6-11.1-30.1-11.2l16.4,5.6-11.3,8.1,2.9,13.7,8.3-10.9v16.2c.1,0,78,.7,78,.7,2-5,3.9-9.9,5.7-15l-1.3-1.4h1.8c2-5.5,3.9-11,5.8-16.6Z"/>
  <path d="M120.5,820.7c15.6-1.2,39.3,15.5,44.9-6.6,5.8,8,12.1,10.4,21.6,11.5,4.7.6,62.1,1.1,65.3.3,4.5-1,3.2-12.2,6.3-11.2,7.9,7.8,16.5,10.2,27.3,11.3,16.1,1.7,129.2,1.9,134.9-1.7,3.5-2.3,5.4-9.2,5.5-13.7l18.8,17c27.2-5.2,74.2,6.5,98.2.4,5.8-1.5,1.8-13,6.3-11,17.9,23.1,33.5,4.4,52.2-5.1l2.9,16.9c42.2-9.3,111.5,20.4,118-37.8-6.7,1.8-11.3,8-19,8.4-104,5-223.7-6.5-329.9-5.9-41.8.3-89,6.4-131.6,7.1-46,.8-109.2-13.9-148.3,7.4l-6.1-11.1h-18.6c0,0,2.7,10.9,2.7,10.9-13.6-8.8-25.2-12-39.4-12.3,3.9,11.2,8,22.3,12.5,33.2.4-.2.7-.4,1.1-.6,2.7-1.6-1.2-10.4,3.8-9.6,7.7,25.8,51.6,3.5,70.4,2.1Z"/>
  <path d="M810.6,1159.4l5.4-1.2c-1.9-.3-3.8-.6-5.7-.9l.3,2.1Z"/>
  <path d="M819,1158.8c2.2-.9,4.4-1.7,6.5-2.6l-9.6,2.1c1,.2,2,.3,3,.5Z"/>
  <path d="M818.9,1140.3l14.8,12.5c13.6-5.8,27-12,40.1-18.8-16.2-6.9-51.3-2.2-54.9,6.3Z"/>
  <path d="M745.7,1131.1l-9.3,33.1,21.9.2-10.8-21.9c16.8-4.3,11.3,18.5,25.2,21.2,8.4,1.6,18.6-8.2,26.7-7.5,3.7.3,7.3.8,10.9,1.3l-3.1-24.8-61.6-1.4Z"/>
  <path d="M514,1157c21.7,22.9,58.7,3.9,87.9,3.8,18.5,0,123.1,7.6,129,3.3l-14.3-33.2c-43.6,1.7-87.6-2.6-131.2-1.1-15.6.6-71.8,2.6-81.3,5-5.6,1.4-1.4,10.6-6.4,11.1l-2.6-11-170.1-1.5c25.2,13,51.5,24.3,78.7,33.7l99.8,1.2,10.6-11.3Z"/>
  <path d="M213.6,962.5c6.9,20.4,55.1,8.4,77.5,8,9.9-.2,21.1,5.1,32.4,4.5,8.8-.4,10.9-19.3,30.1-11.3l-5.7,10.8,49.4.5,8.4-22,2.6,22h22c0,0,8.3-21.8,8.3-21.8l5.4,22,82.4.7,7.6-12.8c-4.6-15.2-12.4-22.7-29.3-20.8l-202.9-1.5-5.9,16.8-11-16.9-21.5-.2-3.2,16.8-14.7-16.9-140.3-.9c7.9,11.5,16.2,22.7,24.9,33.6l72.8.7,10.7-11.4Z"/>
  <path d="M63.8,856.8l2.6-16c-5.7.2-11.2-.3-16.4-.6,5,11.4,10.3,22.6,15.9,33.6l24.9.2-27-17.1Z"/>
  <path d="M998.9,937.1c-4,.8-.9,14-16.5,9.8-3-.8-16.4-17.3-43-11.6-4.3.9-3.4,10.6-6,10.5-28.4-1.5-111.5-11.2-136.8-5.9-3.6.7-4.3,17.4-20,10.7l8.3-10.9-238.8,3.7,32.9,5.7c-1.8,11.1-25.9,8.2-13.8,21.9,132.1.9,263.8,4.2,395.3-4.8,8.2-.6,17.6,4.3,27.1,2.8,12.3-2,19.7-18.2,35.1-15.1l9.2,15.3c16.8,2.7-.4-9.6,5.6-10.9,13-2.9,16.6-.9,8.1,11l27.5.2v-13.8s12.6-2.9,12.6-2.9c1.7-2.3,3.3-4.6,4.9-6.9-19.3-14.8-72.6-12.6-91.5-8.7Z"/>
  <path d="M541.4,1179.2c-14.3.7-44.3,1.2-56,9.8,37.1,7.2,75.4,10.9,114.6,10.9s101-6.4,148.5-18.5c-69.3-2.1-138.7-5.6-207.1-2.3Z"/>
  <path d="M461.5,1183.9c5,1.2,9.9,2.3,15,3.3l-1.8-3.3h-13.2Z"/>
  <path d="M753.6,823.5c16.1-3.2,108.9,4.7,116.2.2,2.5-1.5-1-10.2,3.9-9.4,14.1,20.4,33.9,6.9,51.8,7.7,32.9,1.5,66.1,4.2,99.2,4.5l2.9-22,8.8,21.3,17.7,1.1,9.2-27.6-10.9,10.8c0-16.9-49.1-20.1-62.2-17.1l-12.6,22.2-18.6-5.9,11.1-16.2-76.8-.6-2.9,21.9-7.8-19.9c-22.3,2.2-73.7-14.7-61,22.1l-10.8,2.6.2-27.4-65.9-.6c.1,10.7-3.9,27.9,8.8,32.2Z"/>
  <path d="M85.6,840.9c6,16.3,18.9,32.5,38.2,33.1-7.1-12.1-3-20.5.2-32.8l-38.4-.3Z"/>
</svg>