<?xml version="1.0" encoding="UTF-8"?>
<svg id="Layer_1" xmlns="http://www.w3.org/2000/svg" version="1.1" viewBox="0 0 1200 1200">
  <!-- Generator: Adobe Illustrator 29.0.0, SVG Export Plug-In . SVG Version: 2.1.0 Build 186)  -->
  <path d="M1176,438h.3c.4-.3-.2-1.8-1.4-3.9-11.5-39.7-27-77.8-46-113.7-4.5-8.6-9.3-17.1-14.2-25.4-5.1-8.6-10.4-17-15.8-25.3-2.7-4.1-5.5-8.2-8.4-12.3C982.5,102.4,803.3,0,600,0S277.6,72.8,168.8,187.2c9.6,4.3,17.9,10.3,21.3,18.1l8.3-4.8-1.2,4.8h7.3c.9,3.7.1,3.2-1.6,5-7.8,8.2-14.6,16.5-27.2,14.2,4.8-9.2-2.9-14.2-10.8-16.8-1.4,10.6-3.8,11.9-13.2,15.6,2.6,5,3.3,7.1,9.6,6l-2.4,4.8c8.5-1.4,9.5.5,13.2,7.2l-1.2-9.6c9.4-1.3,12.9-.3,19.2,5.9l-9.6,10.8c10.4.5,12.3,13.4,21.6,12.1l-7.2,7.2,12,4.8h-38.4l4-7.4,12.8,2.6v-6c-9.9-2-18.7-16.8-27.6-12.7-2.2,1-3.6,8.8-10.8,6.7l7.2,7.1c-7.8,3-10-.5-16.8-2.4v12c-5.9-5.3-12.8,2.3-9.6,7.2,1.8,2.7,20.2-.3,25.2,1.2,8.5,2.6,20.1,14.5,19.4,24-.4,5.9-10.8,9.4-11.1,15.6l-6.2-6.8-5.7,2-2.5-16.7c-4-.5-2.4,6-6.2,7.1-4.1,1.2-24.7-10-29.8,1.3,10.2.6,9.1,9.8,9.9,10.4.5.4,10,4.2,10.6,4.4,12.3,4.2,13.5,1.4,25.1-4,.4,3.1-.5,6.6,0,9.5-3,1.4-6.3,2.6-6.7,2.9-1.8,1.2-1.5,7.7-6.4,6.7l-6-9.6c1.4,8.3-1.3,6.4-7.3,8.4v8.4c.1,0,7.3-2.4,7.3-2.4l2.5,13.1-4.3,1.8,9,25.9h-7.1v9.3l5.9,2.8,4.4-4.6,14.7,7,14.5-28.9c.5,5,3.9,6.7,6,1.2,1.8-5-3.5-3.1-5.3-4.2-3.4-2.1-7-6.2-4.3-9,3.6-3.7,10.1,5.2,11.9,5.8,3.5,1.3,8.8-3.6,12.1,2.5l-4.9,10.7-11.8-2.3c-2.2,2.3,6.6,13.9,7.2,14.4,5.4,4,3.4-7.3,9-3,21.9-32.5,26.4-1.9,30.5-1.8,4.6,0,6.7-17.4-3.6-11.9-1.1-2,5.3-19.4,7.8-20.9,3.2-2,8.8.2,11.3-4.3-.4-5.2-21.7,5.9-14.4-2.4,2.9-4.1,10.1-.7,11.4-1.6,1.1-.8,1.5-4.4,3.1-5.3,8.7-4.6,16.5-6.1,26.2-6.3l-3.8,9.4-8.2-2.2v15.6c6.2,5.3,4.7-4.8,8.4-8.3,2.6-2.6,7.4-3,10.8-4.8l-.3,9.4-6.9.2v14.4l-16.7-9.6c-3.9,7.7.7,20.3-7.2,24v-7.2l-7.2,3.6,9.5,6-4.8,3.6c12,10.2,19.8-4.6,28.8-10.8l-4.8,9.6c18.6-6.9,7.1,9.2,0,14.4h12l-2.4,16.8-9.6-2.4,4.8-2.4v-7.2l-9.4.3-1.5,7c-20.3,4-15.2-9.1-24.5-11.8-8.2-2.4-27,5.4-28.4-10.1l-10.3.5c-6,10.3,3,2.9,2,11.6l-21.7-6.1c-1.5.9-15.6,21.4-16.7,24.1-3.1,7.8,9.4-2.9,7.1,4.7-1.5,5-20.8,33.3-19.2,34.8,5.4-.9,6.4.3,8.4,4.8,10.2-23.4,5.9,2.4,16.8,2.4l7.1-11.5,15.7,4.3-6,7.2-8.4-4.8c-2.7,16.6-3.8,10,4.9,17.9,1.4,1.3,1.7,4.1,2.6,5.9l11.7-1c-7.8,6.1-22.9,3.9-21.6,18l24.1,1.5,11.8-11.1-4.8,9.6h9.6l-2.4-9.6c4.3-1.6,6.3,4.3,8.4,4.2,1.6,0,10-10.3,15.5-9.2-.7-10-6.3-11.8.2-21.4,7.5,1.6,4.9,9.4,7.3,12.9,2.7,4,17.7,10.8,0,11.1l-4.8-7.2c1.8,2.5,1.7,7.8,3,9.1,1.9,2,8.7-2.3,6.6,5.2-5.6-2.1-6.5,3.1-7.9,3.9-.8.5-2.3-1.1-3.6-.6-.7.2-.5,3.7-1.6,3.7-8.8-.3-13.7-.3-21.5.5-3.8.4-7.2,2.4-11.1,2.2l7.2,6c-3.2,5-7.5.3-11.8,2.3-7.7,3.5-11.8,13-7.3,20.5,6.2,2.2,4.2-3.7,5.1-4.3,1.2-.8,4.2,2.5,6.5,1.6.5-.2,3.6-7.6,7.6-8.1l-12,1.2,2.4-7.2,5.8,2.5,2.5-4.9,8.3,7.9,5.9,1.7c4.9-6,8.9-5.7,3.9-14.4h9.6l-2.4-4.8h12l-2.4-4.7c9.3-3,14-5.1,24-2.5l-4.8-9.6c8.3.2,16.3,1.1,22.8-4.8,9.8,1.1-7.5,4.2-3.7,9.6h7.3l-2.5,4.8,9.6-2.4c-10.3,6.3-3.6,9.4-7.3,20l7.2,6.4,7.4-16.7,4.6,2.3-2.4-7.2,14.4-3.6-12-10.7h14.4v12c7.1-1.6,4.5-15.1-2.4-14.4l7.2-6-7.2-1.2,2.4-21.6-4.8,9.6c-7.6,1.5-8.4-3.2-12-8.4,13.8,0,2.8-15.1,13.1-19.8l6,4.1-7.2,7.2,12-2.4c.7,5-3.4,10.4-2.5,15.2.3,1.7,4.5,1.4,4.9,3.2,1.9,8-5.5,16.5-4.8,24.8l9.6-9.6c2.2,11.3.9,18.1-2.4,28.8-13.8-11.9-9.8,7.6-12.3,11.7-1.6,2.5-9.8.7-11.8,1.7-3.9,2-6.4,10.2-10.7,13,1.2,13.7,7.1,7.2,13.2,7.2.2,1.7,2.6,3.5,1.9,7.8-1.7,10.6-12,19.3-12.9,25.5-1.7,11.6-5.8.8-10.6.3l7.2-4.8c-9.5-10,7.1-29.7-16.8-21.5.6-7.6.6-8.1-7.2-7.2-2.3,2,10.7,19.1,16.7,16.9v7c-1.3.4-3.6-.4-4.7,0,2.7,8-.2,15.8.3,16.5.6.8,5.3.7,6.5,4.1,6.3,17.9-10.9,27.5-26.1,28.5,3.9,5.2,5.9,5.8,12,3.6,1.8,7.4-7.1,2.4-4.8,12l19.8-13.8,6.6,1.8c-2.5,4.2-7,2.1-4.9,10.5l4.8,3.8c-3.3-.4-12.2,9.9-13.2,12.1-3.6,8.2,2.7,18.3-14.5,19.4-3.4.2-3.1-2.5-4-4.2l2.9-.9c-3.4-18.4-20.8-21.1-31.2-5.9,8.8,1.9-.8,9.4,8.9,12.8l15.8-4.9c1.8,6.8-3.5,16.5-7,21.7-4.1,6-12.3,9.4-12.9,17.1,6.8-5.8,14.8-12.3,20.5-19.1,2.7-3.2,3.2-8.8,3.9-9.3,1.6-1.3,6.1.5,8.6-.9,2.3-1.3,13.1-19.8,19.7-21.1-5.3,11.5,7.3,17.1,7.4,18.2.7,6.1-19.9,17.2-7.5,26.5,2.8,2.1,9.2-5.3,8.5,4.6-.2,2.7-5,10.8-3.7,15.5l9.6-2.4c3.7-5.5-7.5-4.8-4.8-7.1,2.6-2.3,8.2-2.5,12-8.4,3.1-4.8,3.5-13.5,7.8-17.5,3.1-2.8,10.8,0,13.7-6.6l-7.2,1.2-2.4-7.2h12l2.4-9.6h-7.2c1.6-5.7,9-5.5,14.2-4.6l1.6,3.8c-1.6,6.2,5,15.8,8.2,12.7,2.3-4.7,2.2-8.2,1.2-11.6,5.4-.7,1.9-8.4,10.7-10l-4.8,13.2c5.6,4.4,8.2,4.1,9.6,2.2,3.8,4.1,5.8,10.6,12.1,11l-7.4-17.6-2.4-1.6c0-.2,0-.3.2-.4,1.2-2.4,4.2-2,4.6-3.6,2.8-11.3-.4-40.9-11.9-47.5l5-4.6-4-18.1,13.3-9.6.2,9.5h7c0,0,1.1,7.3,1.1,7.3l15.6-12,6,14.4c10.3-4.7,3.3-17,14.4-19.2l-1.5,16.4-6.8,1.6,11.9,15.6-19.2-2.4v7.2l4.8,4.8,4.8-7.2,7.2,1.2c-2.5,12.2-6,6.3-11.3,9.2-1.1.6-2.2,2.2-3.4,4-.6,0-1.2-.2-1.3-.4-.8-1.5,2.1-4.6.6-6.8l-8.5-2.3,4.7,10.8-7.1,1.2,2.4,12-5.9-4.8c-8.1,8.9-10.6,15.9,0,23.9l10.8-7.2-4.8-5.9c1.6-3.9,5.8-5,8.8-7.6,7.6,3.3,17.3,3.6,24.3,1.8l5.1,9.4-12-2.4,6.9,5.1c2.7,4.6-3.7,10.6-10.5,16.4-1.6-2-3.5-3.7-5.8-4.7l2.9,7.3c-.9.8-1.8,1.6-2.7,2.4-6.4-2.4-11.7-.5-19,.5l-1.1,2.2c-1.1.2-2.2.8-3,2.1l.4,3.1-1.5,2.9c.7.2,1.3.5,1.9.9l.3,2.7-14.1-7-4.5,8.2,10.3,13.2c6.2,1.5,8.4-11.2,13.1-11.6.5.8,1,1.5,1.5,2.3-5.5,9.2-14.7,16.8-20.9,24.9-1.9,2.5,1.2,7.1-7,9.6,3.3,2.5,6.1-.5,4.8,6l-6.9.2.9,11.9c3,4,3.6,1.1,6-1.3,10.7-10.7,20.9-28.3,31.2-42.2,5.3,1.1,19.7,2.4,19.4-.9-2.6-11.6-8.8-8.8-15-10.2l-4.3-3c22.3,7.8,26.2-32.9,47.7-26.6,3.4-4.3,3-14.3,5.2-17.7,2.6-4.1,6.2-1.5,8.2-3.7,2.8-3.1,3.2-9.3,7.3-12.1,6.1-1,2.3,2.8,1.2,6-2.4,6.8-7.2,13.7-2.5,21.1,3,4.8,15,0,12.1,11.3l4.7-2.4c.8,7.7,2.7,13.1,6.9,16.6-.6,0-1.3,0-2,0l26.3,38.3c-5.5-1-5.8,12.2-8.7,16.9-2.2,3.6-12.3,13.9-15.2,18.6-3.9,6.4-19.7,30.8-17.5,35.9.8,2,5,7.2,6.7,7.9,4.1,1.6,3.3-1.7,4.2-3,3.8-5.3,19.7-31.2,21.6-36.2,1.9-4.9-2.8-5.7-1.9-8.7.3-.9,7.9-16.1,8.6-16.6.5-.4,7.9,3.5,11.7-2.6.3,2.2,5.2,15.6,9.6,12,6.8-11.4,5.2-16.5-4.7-25.2l5.9-6c3,7.9,9.9,10.9,15.5,3.3l-5.2-12.4c1.1-6.4,3.1-11.1,12.5-12.6l-7.2-3.6,7.4-22.7c6.8-1.6,10.7,5.3,13,6.5,2.1,1.1,13.4-1.9,7.5,7.2-.4.6-3.4.3-3.7.8-3.7,6.1,9.2,4.6,6.9,11.8l-16.8,1.2,12.5,14.1c-.8,3.1-4.8,4.5-4.8,5,0,1.7.4,6.9,1.2,12.8-1.5.3-3.5.5-6.5.5.3,5.7-1.1,8.7-3,10.8l-6.6-13.2c-10-2.1-1,9.4-2.6,11.7-.9,1.3-7.1,1.4-7,5.1l8.4,4.2c-.7,1.4-1.1,3.1-1.3,5.4l4.8-3.7,12.1,6-5.5-11.1,4.3-3.3,1.2,4.7,4.8,2.5c.4,1.9.7,3.3,1,3.9.5,1.1,1.7,2.3,3.2,3.8l-13.7,18.8c1.9-1,3.5-2.4,4.9-3.9-2.1,3.9-3.9,8.3-4.5,9.4l11.1,11.7-1.9,4.3c4.2.3,14.8,1.4,14.1-5.6l-11.7-25.6c-.2-.2-.5-.3-.7-.4,2.2-1.5,4.6-2.1,7.9-1,.9,2.4,1.1,5.3,0,8.6l4.8,4.8c2.3-3.4,4.8-6.4,7.1-9.3l9.5,8.4-4.7,8.1,8.2,2.6,3.8-5c2.2,6.6,8.9,8.9,10.8,16.7l8.4-8.4-7.2-3.7,7.1-10.8-31.9-13.1c.6-.8,1.1-1.5,1.7-2.3l27.9,7c1.6-13.4-9.6-19.3-4.8-33.6h9.6l-4.8-6,9.6,1.2-4.8,8.4c6.6,4.8,13.4,9.8,21.5,6,.5,6.9-7.5,8.9-2.5,15.7,2.5,3.5,8.6,2.4,9.7,1,2.9-3.9-6.4-15.7-2.3-21.5l-16.8-3.6,22.7-44.4c10.2,4.3,5.9,14,7.3,16.8,1.8,3.5,12.2,8.2,15.4,10.7l-9.6,6c9.3,1.6,11.2-5.9,18-9.5l3.6,12c9.9-.9,18-9.7,21.6,4.8l4.6-.2,1.5-4.7,22.7,2.5c2.2-8.6-5.6-14.8-13.1-17-2.8,7.1-8.4,7.7-15.7,7.4l7.2-6-7.2-2.4,18-13.2,6,12,8.9-8.4-6.5-8.3c5.5-.5,12.4-.5,12-7.2l3.5,4.7c8.2-3.8,17.9-5.4,18.1-16.7h-16.8c2.4,4.5,1,7.8-4.8,7.2,6.8-11.4-6.8-8.2-9.7-10.9-3.6-3.4.4-10.1-7.1-8.2,2.5,7.1,5.7,22.6,1.2,28.8h-25.2v-9.6c-14.5,8.1-24.2,2-38.4-3.6l1.3-6c23.2,7,39.2.5,37.1-26.4-12.3,3.2-12.4-6.1-21.6-9.6,4,9.1.9,13.6,9.6,19.2-12,7.5-19,4.8-31.2,7.2-4.9-15.7,1.9-10,5.5-17.4,2.2-4.5,0-9.2,1.5-13.6l-10.2-.4-6.4,9.8c-7.9-16.1,13.8-14.3,7.2-28.8l7.4-1.3c.4-7.3.5-13.6-6.2-17.9l-8.4,12c4-9.2-.6-17.4,10.8-21.6l1.2,7.2h7.2l-2.4-7.2h9.6v7.2l12-2.4c2.3,2.1-15.8,19-9.6,26.4-12.8-1.7-6.3,1.5-12,9.6l9.6-3.8,11.6,9-2,4.4c6.5,2,7.7,2.1,12-3.6l-14.3-10.8,14.4,4.8c-5-7.9.9-3,4.6-6.1,2.4-2,3.4-4.6,5-7.1l-7.1-1.2c-3.5-11.3,7.3-8.8,7.2-16.8h-14.4l2.4-7.2h-12l12-3.6c-5-5.7-6.4-13.1-14.4-8.4,2.8-5.4-14.4-15.6-3.4-19,11.3-3.5,6.7,3.9,8.6,6.4,1.9,2.5,8.6,1.6,11,3.6s2.4,8.6,3,9.1c.5.4,10.3-2,11.4-3,1.8-1.5,2.4-4.8,4.3-7.5l1.2-.3-.2-.9c2.1-2.2,5.5-3.7,12-2.6l2.5,21.5-6,2.5-2.2-4.7-8.6,5.8,8.4,10.1c10.3-.6,3.1-10.2,10.8-8.9-.3,15,.7,27.4-6.1,41,5.2,7.9,11.4,7.1,8.6,19,3,1.5,2.9-10.3,7.2-4.8,1.3,1.6-2.1,6.7-2.1,8.5s5.8,2,4.5,5.9l4.8-8.4-4.8-1.3v-4.6c7.6.6,2.6-4,3.9-7.3,4.8-12.1,10-2.8,20-9.6l1.3,3.3-1.1,6.3c1.1-.4,2.2-.7,3.2-.9l.3.8,1.5-1c6.1,0,11,3.9,17.4,5.5,2.3-2.1,5.1-5.1,7.5-8.4,3.3.4,7.1.7,8.3-1,.5-.7-1.9-4.6-1-7.1,1-2.8,5-5.4,5.4-8.8.4-3.9-8.1-11.9-6.8-17.6l7.2,1.6c-1,8.2,2.1,19,12,17.6.7-10.6-6.4-7.8-7.3-11.3-1.1-4.3.7-10.5,0-15.1-.7-.9-5.2,2.5-7.3,1.2-3.3-1.9-15-17.5-20.3-20.4l1.4,10.5-4.9,1.5,4.7,9.5c-6.3.8-6.1.2-8.4-4.8l-18,18,7.2,4.8-8.4,8.4,1.2-9.6h-7.2c4.5-10.6-5.9-20.4-10.6-7.5-1.5,4.1,1.6,14.2-6.2,12.3l1-21.7c11.3-1.2,11.4-10.5,20.7-8.1l2.4-6.2h3.5l1.2,7.2,2.4-7.2c7.5-1.6,2.2,7.2,12,4.8l2.6-23.8h9.5v-9.7l16.7,15.6-7.1,13.2c13.1,1.1,6.2-14,21.6-12l-1.2,9.6c8.1-10.7,4.9-20.1,1.2-31.2,8.1,4,19.5-2.4,21.6,9.6l4.7-4.8-2.4,12,7.2-7.2c-1.2,12.5,6.5,20.7,7.2,31.2h14.4c2-7.8-5.1-2.8-7.4-6.2-4.3-6.4-14.1-47.8-11.3-54.7,2.1-5.2,13.4-6.3,6.7-20.7-10.9-2.5-8.3,8.4-14.3,12-2.7-10.4,9.4-12.2,4.8-21.6l12,7.2v-9.6l9.6,2.4-4.6,10.9c15.6,10.5,4.1-4.8,10.7-6.1l13.1,2.4c-2.5,4.5-3.2,11-.3,15.4,2,3,5.2.8,7.4,1.4-.9-4.6-4.5-11.2-4.7-13.3,0-.9,3.5-.9,3.9-1.8,2.5-5.9,7.3-15.6,7.1-21.7-.3-8.3-1-16.8-10.8-16.3l-.3-10.5c5.7-1,15.1,13.3,17.9,18.1,2.2,3.8,1.7,10.2,3.5,12.8,1.5,2.1,9.4.2,9.7,10l9.7-1.4c-3.7,15,10,26.7,0,43.2l-7.2-2.4c-.8,13.7,7.2,17.9,16.8,25.2-.4,13.6-22.3-1.1-28.8-1.2l4.8-14.4c-3.4-1.1-9.6,1.7-13.5,5.4l.4-5.5-20.4-7.1-2.2,11.7c11.1,2.2,9,15.7,21.4,12.4v-1.1c8.6,6.9,35.9,16,43.1,10.7v9.6c6.5,0,11.3,2.3,13.2-4.8l7.2,7.2,6-2.6-2.3-21.4-12,4.8,7.2-9.6-18.1-2.4,1.3-21.7h9.6l-3.8,16.9,22.6,7.4.4,9.3c11.7-4.8,19-18.2,2.4-19.2l2.4-16.8c-9,5.9-8.1-4.2-12.8-6.3-6.5-3-14.5,1.3-13.7-5.6l-9.6,9.6v-26.4l14.4,2.4v16.8l4.8-12,6,4.8c4.8-9.1,3.8-5.9,11.9-5.6,3.4.1,7.1,3.1,6.1-2.7-7.5-3.3-14.2-3.2-16.8-13.2l-7.1,4.8c7.3-21.5-21-21.6-12-43.2,3.8.4,6.9,1.7,9.5,3.5,1,1.3,2.3,2.3,3.7,3.2,11.6,11.8,14.4,33.6,39.6,22.1-9.5,8.5,2.5,14.6-2.4,23.9l14.4-1.3,7.2,10.9c4,.7,2.8-5.6,2-7.7,0,.2.3.3.5.5,5.3,5,9.3-6.6,9.9-6.9.8-.4,14.2,3.9,16.5-5.1l-17.6,1.3-.9-1.5c.2.5.4,1,.6,1.5h-.2s-3.6-10.9-3.6-10.9h7.2c1.3-1.3-5.4-16.4-10.8-10.3l-3.5-3.1,1.9-5.1c1.5,1.7,3.1,3.1,4.7,3.8,16.5,7.9,30,3.3,5.5-7.4l2.2-9.2-7.2,2.4v-12l-12,2.4c-.2,1-.3,2.1-.2,3.2-1.3-1.6-3-3-4.9-4.1.9-.7,1.8-1.6,2.6-2.7-1.5-2.6-3.2-5.1-5-7.6l.2-.8c-.3,0-.6-.1-.9-.2-.9-1.2-1.8-2.3-2.8-3.4l-.2-1.8c.5.6,1,1.1,1.5,1.7l-2-6.7-.4-4,8.7,9.8,15.2-5c1.9,6,4.2,10.4,7.5,13.2l-2.7-.3-2.2,13.4,14.4-2.4-2.2-7.1c3.3.7,7.1.6,11.7-.2-3.5-8.1,6.2-10,14.2-9.3l-2.1,11.7c3.8,3.3,13.5,0,14.1.5.7.4.9,4,2.7,5.3,1.6,1.2,5.9-2.7,4.8,3.8l5.6-6.7c.3,0,.5.2.8.4,3.9,7.8,15.7,21.6,19.3,11.4,0-.2,0-.3.2-.5.1-.4.3-.9.4-1.4h.4c-.5-1.6-1-3.4-1.5-5.1Z"/>
  <path d="M96.2,878.9h0c-4.1,3.4-16.6-12.2-18.8,5.4,7.8-5,14.5,0,22.7,0l2.5-4.8-6-4.8-.4,4.2Z"/>
  <path d="M155.2,202.9c6.7-.5,13.3-3.9,20.5-2.5-3.9-3.9-9.4-4.5-14.9-4.6-2.2,2.4-4.3,4.8-6.4,7.2h.8Z"/>
  <path d="M76.3,313.5h0c-1.1,2-2.2,3.9-3.2,5.9l4.4-1.4-1.1-4.5Z"/>
  <path d="M115.7,252.1l3.6-3.6c5,7.5-2,5.4-3.6,9.6h9.4c-.5-6.8,4.6-15.6,0-19.5-3.3,4.3-6.5,8.7-9.7,13.1,0,.2.2.3.3.4Z"/>
  <path d="M115.8,252.1s0,0,0,0h0s0,0,0,0Z"/>
  <path d="M110.9,305.9l-2.4-14.3c-8.1-1-11.7,5.3-16.8,9.6-5.2-10.7,3.2-3.6,2.4-12h-3.8c-2.5,4-4.9,8.1-7.3,12.2,9.2,2.5,18.3,4.8,27.9,4.5Z"/>
  <path d="M110.9,305.9s0,0,0,0h0c0,0,0,0,0,0Z"/>
  <path d="M103.9,268c-3.9,5.8-7.7,11.7-11.4,17.6l13.6,1.2c-.8-2.5-1.4-16.4-2.2-18.8Z"/>
  <path d="M151.6,222c2.4-1.6,2.3-11.4-1.2-14.6-2.6,3-5.2,6-7.7,9,.6,1.8,1.2,3.4,1.6,4.2.6,2.4,6.5,1.9,7.3,1.4Z"/>
  <path d="M79.8,320.4h-7.4c-1.3,2.4-2.6,4.8-3.8,7.2,5.3-1.1,12.6-.6,11.2-7.2Z"/>
  <path d="M48.3,387.6h.2c5.4-5.2,3.7-13.3,5.3-16.3,1.4-2.6,9.8-3,11.9-8.1,4.2,2,8.3,4.6,10.7,4.7,3.6.2,11.1-7.4,17.6-4.4-.5-5.9-7-2-7.2-2.4-3.2-5.8,5.5-4.6,6.8-8.7,1-3.2.2-7.2.3-10.5-7.9,5.1-13.3-2.7-21.7-3.6v-8.2l-4.2-1.8c-2.3,4.5-4.6,9-6.8,13.5-1.7,3.4-3.3,6.9-4.9,10.4-4.5,9.8-8.8,19.8-12.9,29.9,1.3,1.4,2.6,3.4,4.9,5.5Z"/>
  <path d="M89.5,588.1h0c-2-8.6,9.8-8.3,7.2-10.8-5.9-5.6-21.7-7.2-19.2,4.7l-14.3-2.3v9.6l-14.4-4.8c-2.8,10.8,10.6,9.8,14.6,15.4,2.7,3.8,1.4,8.8,2.6,10.6,1.5,2.2,11.6-1.3,12.8,7.6l3.6-4.8,3.6,4.8c7.5-11.7,22.2-15.3,18-31.2-2.3-2.6-12.6,8.9-14.4,1.2Z"/>
  <path d="M30.6,697.1h0s-6-7.1-6-7.1c0,5.7-8.3,6.5-14.5,9.3,1.5,8.7,3.2,17.3,5.1,25.9.7-1,1.2-1.7,1.4-1.8,3.8-.5,9,2.6,10.1,2.1.5-.2,6.8-6.9,7.1-7.3.9-1.6-2.1-12.4-1.4-15,.3-1.2,9-5.2,6.6-10.8l-8.4,4.7Z"/>
  <path d="M303.1,720.8l4.7-9.3c-9-3-27,7.2-30-2.5h-4.8l-3.6,4.8-2.4-7.2c-6.3,11.2,1.4,11.7,1.8,13.1.7,2.1-1.5,6.4,1.8,10.7,4.1,5.4,12.3,3.6,17,7.2,2.5,1.9,2.7,7.2,4.8,7.5,3.4.5,26.7-12.8,26.9-15.8.5-6.8-9.8-12.3-16.2-8.5Z"/>
  <path d="M638.9,812.3c-4.3-6.8,1.1-10.2,1.4-13.7.5-5.8,2.4-19.8-3.8-22.3l-14.6,58.4c2.5,2,10.6,7.9,13.3,4,1.1-1.6,7.6-21.9,8.3-25.3.3-1.1,0-2.4,0-3.5l-4.6,2.4Z"/>
  <path d="M155.4,666.1c-5.6,0-7-8.3-13.2-7.3l-2.4,19.2c-10,.6-8.1-15.8-2.4-20.4-5.4-3.9-12.8,8.3-11.6,13.8l9,14.7,5.9,1.2c6.6-2.6,5.6-13.6,13.5-9.3l-4.8-9.6,14.4,4.8c-3.2-11.8,7.9-10.2,12-19.2-8.2-1.5-14.7,12.1-20.4,12.1Z"/>
  <path d="M146.9,474.1l-3.6-12c-3.5,6.7-4.3,32.1,1.7,35.4h.1s23.6,1.8,23.6,1.8l7-13.2-6.3,4.8-17.7-2.4v-21.6l-4.8,7.2Z"/>
  <path d="M1114,466.8c-1.4,6.7,4.9,4.9,8.4,9.6,6.3,8.6,6.7,26.9,22.8,24l-4.8-14.4h7.2v-7.2c-13.7-1.1-18.2-13.5-33.6-12Z"/>
  <path d="M529.6,725.5s0,0,0,0h0s.1,0,.1,0Z"/>
  <path d="M515.4,699.6l-10.8,21.5c9,6,15.2,2.5,24.9,4.4l5.9-10-20-15.9Z"/>
  <path d="M262.2,636h0s-9.7.2-9.7.2l-2.3-11c-3.2,3.9-18-3.8-19.2-2.4-4.8,6,15.1,6.5,12,14.4l-9.2-2.2-5.1,9.4c9-4.2,9.9,3.5,16.8,7.2.5-12.5,8.9-10.3,16.8-15.6Z"/>
  <path d="M617.3,843.5h0s-.6,4.8-.6,4.8l-1.9,15.1c.6,2.5,12.8,8.2,14.5,6.5l1.3-21.5h-.2l-13.1-4.9Z"/>
  <path d="M103.8,378c-.8,5.6,3.1,20,9.4,20.5l21.9-9.9v-8.2c-.1,0-18.1,9.6-18.1,9.6l1-7-14.2-5Z"/>
  <path d="M204.6,637.2h0l14.4-3.6c-3.4-.4-9.6-7.3-10.2-7.6-2.3-1.2-4.2-.9-6.6-.8l2.4,7.1c-9,3.2-21.1,7.1-24,16.8l13.9-5.5.6-4h3.5c0,0,4.8,7.1,4.8,7.1l6-2.4-4.8-7.1Z"/>
  <polygon points="187.7 603.6 194.9 574.8 175.8 579.6 185.4 586.8 178.2 592.7 187.7 603.6"/>
  <path d="M895.6,621.6h.1l-4.8,1.2,3.6,12c8.9,3.8,11.6-14.3,10.3-16.5-3.4-6.2-25.2-7.2-9.2,3.3Z"/>
  <path d="M48.8,553.4h0s5.9,0,5.9,0c-2.4-5.5,9.7-16.8,2.3-19.4-2.7,6.5-8.7,8.9-15.5,9.8l2.3,16.5c7.8,2,3.4-4.7,5-6.9Z"/>
  <path d="M46.2,416.4c-3-3.9-6.8-8.1-11.1-11.4-.9,2.5-1.8,5-2.6,7.6,6,3,11.9,4.9,13.7,3.8Z"/>
  <path d="M432.5,728.4h0c-1.2,1.2,7.6,13.9,9.2,16,2.2,3,2.5,6.7,7.6,5.6l-7.3-24-9.5,2.4Z"/>
  <polygon points="220.2 810.9 209.3 814.8 212 824.2 228.6 821.9 225.5 812.9 220.2 810.9"/>
  <path d="M76.7,719.5c-.7-.8-6.2-3.5-6.4-3.2-1.9,4.5,10.5,29.9,16.8,24h0c1.1-1-9.2-19.4-10.3-20.8Z"/>
  <path d="M224.9,570l1.3,14.4,11.6-5.1h0c3.7-6.3-8.6-16.6-12.9-9.3Z"/>
  <path d="M468.5,680.3h0c-9.3-3.4-12.8,12.3-3.8,14.3l-1,4.9c4.5,3.4,8.1-7.9,9.6-10.8l-4.8,1.2v-9.6Z"/>
  <path d="M757,589.8c-.4,1.8,1.4,13.3,1.9,13.7,19.2-3.5,1.3-29.2-1.9-13.7Z"/>
  <path d="M124.3,633.2h0c-7.2,2-12.9-.8-15.8,7.6l21.6,3.6-5.8-11.2Z"/>
</svg>