<?xml version="1.0" encoding="UTF-8"?>
<svg id="Layer_1" xmlns="http://www.w3.org/2000/svg" version="1.1" viewBox="0 0 1200 1200">
  <!-- Generator: Adobe Illustrator 29.0.0, SVG Export Plug-In . SVG Version: 2.1.0 Build 186)  -->
  <path d="M1190.8,494.2c-.5-1.1-1.3-2.2-2.4-3.3-3.1-3.2-7.5-6.2-6.8-9.1l4.5-2.3c-2.9-14.2-6.3-28.2-10.3-42.1-15,1.5-3.3-3.2-9.9-9.7l-8.3,2.4v-7.2s-12,4.8-12,4.8c1.9-5.5,3.1-8.5,9.6-7.2l-4.8-16.7,4.8,7.2,11.9-2C1089.3,178.5,874.8,8.4,619.1.3h-38c-161.8,5.2-307.1,76.6-411.8,186.3-7.6,8-15,16.1-22.1,24.5-2.1,2.5-4.2,4.9-6.3,7.4-1.5,1.8-3,3.6-4.5,5.5-1.4,1.7-2.7,3.4-4.1,5.1-3.2,4-6.3,8-9.4,12.1-11.3,14.9-21.8,30.4-31.7,46.3-2.8,4.6-5.6,9.2-8.3,13.8-1.6,2.8-3.2,5.5-4.8,8.3-3.5,6.2-6.9,12.6-10.2,18.9-3.7,7.1-7.2,14.2-10.6,21.4-2.1,4.5-4.2,9-6.2,13.6-4.1,9.4-8,18.9-11.6,28.6,1,.4,2.5.4,4.5-.3l1.6-7.3c7.2-1.3,11.5-2,17.6,2.5l3.6-9.6c.9,8.5,18.7,3.3,16.9-4.9l22.7-2.4c-2.4-9.8,3.1-8.5,5.7-12.1,4.8-6.6.2-8.8,12.4-9.3.5-6.9,1.2-11.4-3.7-16.8,2.2-2.1,26.9,18,17.7,19.2l-7.3,2.1c5.7-1.3,11.9,4.4,15.2,4.6,3.1.2,5.3-3.6,7.4-3.8,6.3-.6,13.3,1.4,19.8-.6l-12,9.5c5.7-.5,14.4,6.6,18.4,6.8,3.6.2,11.1-7.4,17.6-4.4-.5-5.9-7-2-7.2-2.4-3.2-5.8,5.5-4.6,6.8-8.7,1-3.2.2-7.2.3-10.5-7.9,5.1-13.3-2.7-21.7-3.6v-8.2c0,0-14.3-6.2-14.3-6.2l19.1-6-2.4-9.6-7.2,4.8,2.4-14.4c-4.6-.8-1,5.1-2.7,6.8-1.2,1.3-13.7,2.5-16.5.4l2.4,12c-6-8.3-10.8.7-11.9,0l-7.2-11.9c7.8,1.3,1.3-9.1,9.6-7.2l-2.4,9.6h7.1s4-12.1,4-12.1c20.4-.6,38.4,10.3,58.5,9.7l-2.4-14.4c-8.1-1-11.7,5.3-16.8,9.6-5.2-10.7,3.2-3.6,2.4-12h-7.2s4.8-7.2,4.8-7.2c-12.1-1-1.4-16.4-9.5-23h-7.3c0,.1,9.5-8.3,9.5-8.3-2.4,7.6,11.3,14.6,16,12.7,1.8-1.2,4.7-2.4,5.6-4.3,2.6-5.3-5.9-1.8-4.8-5.9h9.6s-4.8-12-4.8-12h12c1,4-3,1.6-4.2,2.8-.3.3.5,7.4,1.8,8l3.6-3.6c5,7.5-2,5.4-3.6,9.6h9.4c-.5-7.6,6-17.9-2.3-20.7l6.2-15.3-2.8-4.9h-8.1c5.1,8.6-4.9,1.2,0,8.5,2.5,3.7.7,6.1-1.2,6l-10.8-4.9c2.6-2.7.1-9.7.6-10.8,1.9-4.1,8.5-1.4,6.5-8.3l-12,4.8c2.3-7.2-4.2-7-4.5-7.5-3.6-5.2,9.6-5.3,6.9-14.1,4.7,1.8,7.2,8.4,5.4,13l4.1-8.3,4.8,1.2-2.3,8.4c5.7-4,8.6-8.9,16.8-7.2l-2.4,9.6c5.6.7,8.2-6,13.5-6.5,3.4-.3,7.5,2.2,11.6,1.8,6.7-.5,13.3-3.9,20.5-2.5-11.8-11.9-39.1,6.4-36-21.6,16,2.2,43.6,10.5,50.4,26.4l8.3-4.8-1.2,4.8h7.3c.9,3.7.1,3.2-1.6,5-7.8,8.2-14.6,16.5-27.2,14.2,4.8-9.2-2.9-14.2-10.8-16.8-1.4,10.6-3.8,11.9-13.2,15.6,2.6,5,3.3,7.1,9.6,6l-2.4,4.8c8.5-1.4,9.5.5,13.2,7.2l-1.2-9.6c9.4-1.3,12.9-.3,19.2,5.9l-9.6,10.8c10.4.5,12.3,13.4,21.6,12.1l-7.2,7.2,12,4.8h-38.4s4-7.4,4-7.4l12.8,2.6v-6c-9.9-2-18.7-16.8-27.6-12.7-2.2,1-3.6,8.8-10.8,6.7l7.2,7.1c-7.8,3-10-.5-16.8-2.4v12c-5.9-5.3-12.8,2.3-9.6,7.2,1.8,2.7,20.2-.3,25.2,1.2,8.5,2.6,20.1,14.5,19.4,24-.4,5.9-10.8,9.4-11.1,15.6l-6.2-6.8-5.7,2-2.5-16.7c-4-.5-2.4,6-6.2,7.1-4.1,1.2-24.7-10-29.8,1.3,10.2.6,9.1,9.8,9.9,10.4.5.4,10,4.2,10.6,4.4,12.3,4.2,13.5,1.4,25.1-4,.4,3.1-.5,6.6,0,9.6-3,1.4-6.4,2.6-6.8,2.9-1.8,1.2-1.5,7.7-6.4,6.7l-6-9.6c1.4,8.3-1.3,6.4-7.3,8.4v8.4c.1,0,7.3-2.4,7.3-2.4l2.5,13.1-4.3,1.8,9,25.9h-7.1c0,.1,0,9.3,0,9.3l5.9,2.8,4.4-4.6,14.7,7,14.5-28.9c.5,5,3.9,6.7,6,1.2,1.8-5-3.5-3.1-5.3-4.2-3.4-2.1-7-6.2-4.3-9,3.6-3.7,10.1,5.2,11.9,5.8,3.5,1.3,8.8-3.6,12.1,2.5l-4.9,10.7-11.8-2.3c-2.2,2.3,6.6,13.9,7.2,14.4,5.4,4,3.4-7.3,9-3,21.9-32.5,26.4-1.9,30.5-1.8,4.6,0,6.7-17.4-3.6-11.9-1.1-2,5.3-19.4,7.8-20.9,3.2-2,8.8.2,11.3-4.3-.4-5.2-21.7,5.9-14.4-2.4,2.9-4.1,10.1-.7,11.4-1.6,1.1-.8,1.5-4.4,3.1-5.3,8.7-4.6,16.5-6.1,26.2-6.3l-3.8,9.4-8.2-2.2v15.6c6.2,5.3,4.7-4.8,8.4-8.3,2.6-2.6,7.4-3,10.8-4.8l-.3,9.4-6.9.2v14.4s-16.7-9.6-16.7-9.6c-3.9,7.7.7,20.3-7.2,24v-7.2s-7.2,3.6-7.2,3.6l9.5,6-4.8,3.6c12,10.2,19.8-4.6,28.8-10.8l-4.8,9.6c18.6-6.9,7.1,9.2,0,14.4h12s-2.4,16.8-2.4,16.8l-9.6-2.4,4.8-2.4v-7.2s-9.4.3-9.4.3l-1.5,7c-20.3,4-15.2-9.1-24.5-11.8-8.2-2.4-27,5.4-28.4-10.1l-10.3.5c-6,10.3,3,2.9,2,11.6l-21.7-6.1c-1.5.9-15.6,21.4-16.7,24.1-3.1,7.8,9.4-2.9,7.1,4.7-1.5,5-20.8,33.3-19.2,34.8,5.4-.9,6.4.3,8.4,4.8,10.2-23.4,5.9,2.4,16.8,2.4l7.1-11.5,15.7,4.3-6,7.2-8.3-4.8c-2.7,16.6-3.8,10,4.9,17.9,1.4,1.3,1.7,4.1,2.6,5.9l11.7-1c-7.8,6.1-22.9,3.9-21.6,18l24.1,1.5,11.8-11.1-4.8,9.6h9.6s-2.4-9.6-2.4-9.6c4.3-1.6,6.3,4.3,8.4,4.2,1.6,0,10-10.3,15.5-9.2-.7-10-6.3-11.8.2-21.4,7.5,1.6,4.9,9.4,7.3,12.9,2.7,4,17.7,10.8-.1,11.1l-4.8-7.2c1.8,2.5,1.7,7.8,3,9.1,1.9,2,8.7-2.3,6.6,5.2-5.6-2.1-6.5,3.1-7.9,3.9-.8.5-2.3-1.1-3.6-.6-.7.2-.5,3.7-1.6,3.7-8.8-.3-13.7-.3-21.5.5-3.8.4-7.2,2.4-11.1,2.2l7.2,6c-3.2,5-7.5.3-11.8,2.3-7.7,3.5-11.8,13-7.3,20.5,6.2,2.2,4.2-3.7,5.1-4.3,1.2-.8,4.2,2.5,6.5,1.6.5-.2,3.6-7.6,7.6-8.1l-12,1.2,2.4-7.2,5.8,2.5,2.5-4.9,8.3,7.9,5.9,1.7c4.9-6,8.9-5.7,3.9-14.4h9.6s-2.4-4.8-2.4-4.8h12s-2.4-4.7-2.4-4.7c9.3-3,14-5.1,24-2.5l-4.8-9.6c8.3.2,16.3,1.1,22.8-4.8,9.8,1.1-7.5,4.2-3.7,9.6h7.3s-2.5,4.8-2.5,4.8l9.6-2.4c-10.3,6.3-3.6,9.4-7.3,20l7.2,6.4,7.4-16.7,4.6,2.3-2.4-7.2,14.4-3.6-12-10.7h14.4s0,12,0,12c7.1-1.6,4.5-15.1-2.4-14.4l7.2-6-7.2-1.2,2.4-21.6-4.8,9.6c-7.6,1.5-8.4-3.2-12-8.4,13.8,0,2.8-15.1,13.1-19.8l6,4.1-7.2,7.2,12-2.4c.7,5-3.4,10.4-2.5,15.2.3,1.7,4.5,1.4,4.9,3.2,1.9,8-5.5,16.5-4.8,24.8l9.6-9.6c2.2,11.3.9,18.1-2.4,28.8-13.8-11.9-9.8,7.6-12.3,11.7-1.6,2.5-9.8.7-11.8,1.7-3.9,2-6.4,10.2-10.7,13,1.2,13.7,7.1,7.2,13.2,7.2.2,1.7,2.6,3.5,1.9,7.8-1.7,10.6-12,19.3-12.9,25.5-1.7,11.6-5.8.8-10.6.3l7.2-4.8c-9.5-10,7.1-29.7-16.8-21.5.6-7.6.6-8.1-7.2-7.2-2.3,2,10.7,19.1,16.7,16.9v7c-1.3.4-3.6-.4-4.7,0,2.7,8-.2,15.8.3,16.5.6.8,5.3.7,6.5,4.1,6.3,17.9-10.9,27.5-26.1,28.5,3.9,5.2,5.9,5.8,12,3.6,1.8,7.4-7.1,2.4-4.8,12l19.8-13.8,6.6,1.8c-2.5,4.2-7,2.1-4.9,10.5l4.8,3.8c-3.3-.4-12.2,9.9-13.2,12.1-3.6,8.2,2.7,18.3-14.5,19.4-5.5.4-1.3-7.2-8.3-5,3.6,6.8-2.4,18-6.3,23.7-4.1,6-12.3,9.4-12.9,17.1,6.8-5.8,14.8-12.3,20.5-19.1,2.7-3.2,3.2-8.8,3.9-9.3,1.6-1.3,6.1.5,8.6-.9,2.3-1.3,13.1-19.8,19.7-21.1-5.3,11.5,7.3,17.1,7.4,18.2.7,6.1-19.9,17.2-7.5,26.5,2.8,2.1,9.2-5.3,8.5,4.6-.2,2.7-5,10.8-3.7,15.5l9.6-2.4c3.7-5.5-7.5-4.8-4.8-7.1,2.6-2.3,8.2-2.5,12-8.4,3.1-4.8,3.5-13.5,7.8-17.5,3.1-2.8,10.8-.1,13.7-6.6l-7.2,1.2-2.4-7.2h12s2.4-9.6,2.4-9.6h-7.2c1.6-5.7,9-5.5,14.2-4.6l5,11.7,1.6-7.4c11.8,3.2,4.6-7.5,15.2-9.4l-4.8,13.2c12.1,9.6,10.3-3,12.1-6.5,1.2-2.4,4.2-2,4.6-3.6,2.8-11.3-.4-40.9-11.9-47.5l5-4.6-4-18.1,13.3-9.6.2,9.5h7c0,.1,1.1,7.3,1.1,7.3l15.6-12,6,14.4c10.3-4.7,3.3-17,14.4-19.2l-1.5,16.4-6.8,1.6,11.9,15.6-19.2-2.4v7.2s4.8,4.8,4.8,4.8l4.8-7.2,7.2,1.2c-2.5,12.2-6,6.3-11.3,9.2-3.1,1.7-5.3,10.6-12.7,10.1,6.6,9.3,22.9,11.2,33.2,8.6l5.1,9.4-12-2.4,6.9,5.1c5.1,8.7-22.5,22.5-23.7,30.9l-2.4-9.6c-4.2-1-1.5,3.6-2.5,4.5-.9.8-7.4-4.8-10.7.3l1.2,9.6-14.1-7-4.5,8.2,10.3,13.2c7.1,1.8,9-15.5,15.5-10.8-5.4,9.8-15.3,17.8-21.8,26.4-1.9,2.5,1.2,7.1-7,9.6,3.3,2.5,6.1-.5,4.8,6l-6.9.2.9,11.9c3,4,3.6,1.1,6-1.3,13.2-13.2,25.7-36.9,38.4-51.4l-7.2-4.9c22.3,7.8,26.2-32.9,47.7-26.6,3.4-4.3,3-14.3,5.2-17.7,2.6-4.1,6.2-1.5,8.2-3.7,2.8-3.1,3.2-9.3,7.3-12.1,6.1-1,2.3,2.8,1.2,6-2.4,6.8-7.2,13.7-2.5,21.1,3,4.8,15,.1,12.1,11.3l4.7-2.4c1.3,13,5.9,19.5,19.3,21.5,1.7-9.4,6.4-18.8,16.8-15.6l-4.8,6h12s0,7.2,0,7.2l-7.2-2.4,4.8,9.6-7.2,1.2c4.5,7.7,14.4,1.8,16.8,8.4l-7.2,1.2,7.2,6-19.1.2v11.8c10.2-.6,21.4-13.1,28.7-4.8,3-11.8,0-21.8,14.4-24l-7.2-3.6,7.4-22.7c6.8-1.6,10.7,5.3,13,6.5,2.1,1.1,13.4-1.9,7.5,7.2-.4.6-3.4.3-3.7.8-3.7,6.1,9.2,4.6,6.9,11.8l-16.8,1.2,19.1,21.6c-8.1,8.5-4.4,10.8-16.7,10.8.7,16-11,10.4-12,24l15.6-12,1.2,4.7,11.9,6.1-16.7,22.8c7.9-4.2,10.6-15.6,21.3-10.1l1.5-4.3,17.9,15.8-4.7,8.1,8.2,2.6,3.8-5c2.2,6.6,8.9,8.9,10.8,16.7l8.4-8.4-7.2-3.7,7.1-10.8-38.3-15.7c-.1-8.7,4.8-9.8,11.9-11.9l-4.8,12,28.8,7.2c1.6-13.4-9.6-19.3-4.8-33.6h9.6s-4.8-6-4.8-6l9.6,1.2-4.8,8.4c6.6,4.8,13.4,9.8,21.5,6,.5,6.9-7.5,8.9-2.5,15.7,2.5,3.5,8.6,2.4,9.7,1,2.9-3.9-6.4-15.7-2.3-21.5l-16.8-3.6,22.7-44.4c10.2,4.3,5.9,14,7.3,16.8,1.8,3.5,12.2,8.2,15.4,10.7l-9.6,6c9.3,1.6,11.2-5.9,18-9.5l3.6,12c9.9-.9,18-9.7,21.6,4.8l4.6-.2,1.5-4.7,22.7,2.5c2.2-8.6-5.6-14.8-13.1-17-2.8,7.1-8.4,7.7-15.7,7.4l7.2-6-7.2-2.4,18-13.2,6,12,8.9-8.4-6.5-8.3c5.5-.5,12.4-.5,12-7.2l3.5,4.7c8.2-3.8,17.9-5.4,18.1-16.7h-16.8c2.4,4.5,1,7.8-4.8,7.2,6.8-11.4-6.8-8.2-9.7-10.9-3.6-3.4.4-10.1-7.1-8.2,2.5,7.1,5.7,22.6,1.2,28.8h-25.2s0-9.6,0-9.6c-14.5,8.1-24.2,2-38.4-3.6l1.3-6c23.2,7,39.2.5,37.1-26.4-12.3,3.2-12.4-6.1-21.6-9.6,4,9.1.9,13.6,9.6,19.2-12,7.5-19,4.8-31.2,7.2-4.9-15.7,1.9-10,5.5-17.4,2.2-4.5-.1-9.2,1.5-13.6l-10.2-.4-6.4,9.8c-7.9-16.1,13.8-14.3,7.2-28.8l7.4-1.3c.4-7.3.5-13.6-6.2-17.9l-8.4,12c4-9.2-.6-17.4,10.8-21.6l1.2,7.2h7.2s-2.4-7.2-2.4-7.2h9.6s0,7.2,0,7.2l12-2.4c2.3,2.1-15.8,19-9.6,26.4-12.8-1.7-6.3,1.5-12,9.6l9.6-3.8,11.6,9-2,4.4c6.5,2,7.7,2.1,12-3.6l-14.3-10.8,14.4,4.8c-5-7.9.9-3,4.6-6.1,2.4-2,3.4-4.6,5-7.1l-7.1-1.2c-3.5-11.3,7.3-8.8,7.2-16.8h-14.4s2.4-7.2,2.4-7.2h-12s12-3.6,12-3.6c-5-5.7-6.4-13.1-14.4-8.4,2.8-5.4-14.4-15.6-3.4-19,11.3-3.5,6.7,3.9,8.6,6.4,1.9,2.5,8.6,1.6,11,3.6,2.4,2,2.4,8.6,3,9.1.5.4,10.3-2,11.4-3,3.7-3.2,2.4-13.8,17.3-11.4l2.5,21.5-6,2.5-2.2-4.7-8.6,5.8,8.4,10.1c10.3-.6,3.1-10.2,10.8-8.9-.3,15,.7,27.4-6.1,41,5.2,7.9,11.4,7.1,8.6,19,3,1.5,2.9-10.3,7.2-4.8,1.3,1.6-2.1,6.7-2.1,8.5,0,1,5.8,2,4.5,5.9l4.8-8.4-4.8-1.3v-4.6c7.6.6,2.6-4,3.9-7.3,4.8-12.1,10-2.8,20-9.6l3.6,9.6,10.8-7.2c4,20.5,7.8,3.7,11,2.9,1.7-.5,11,2.3,13-.6.5-.7-1.9-4.6-1-7.1,1-2.8,5-5.4,5.4-8.8.4-3.9-8.1-11.9-6.8-17.6l7.2,1.6c-1,8.2,2.1,19,12,17.6.7-10.6-6.4-7.8-7.3-11.3-1.1-4.3.7-10.5,0-15.1-.7-.9-5.2,2.5-7.3,1.2-3.3-1.9-15-17.5-20.3-20.4l1.4,10.5-4.9,1.5,4.7,9.5c-6.3.8-6.1.2-8.4-4.8l-18,18,7.2,4.8-8.4,8.4,1.2-9.6h-7.2c4.5-10.6-5.9-20.4-10.6-7.5-1.5,4.1,1.6,14.2-6.2,12.3l1-21.7c11.3-1.2,11.4-10.5,20.7-8.1l2.4-6.2h3.5s1.2,7.2,1.2,7.2l2.4-7.2c7.5-1.6,2.2,7.2,12,4.8l2.6-23.8h9.5c0-.1,0-9.7,0-9.7l16.7,15.6-7.1,13.2c13.1,1.1,6.2-14,21.6-12l-1.2,9.6c8.1-10.7,4.9-20.1,1.2-31.2,8.1,4,19.5-2.4,21.6,9.6l4.7-4.8-2.4,12,7.2-7.2c-1.2,12.5,6.5,20.7,7.2,31.2h14.4c2-7.8-5.1-2.8-7.4-6.2-4.3-6.4-14.1-47.8-11.3-54.7,2.1-5.2,13.4-6.3,6.7-20.7-10.9-2.5-8.3,8.4-14.3,12-2.7-10.4,9.4-12.2,4.8-21.6l12,7.2v-9.6s9.6,2.4,9.6,2.4l-4.6,10.9c15.6,10.5,4.1-4.8,10.7-6.1l13.1,2.4c-2.5,4.5-3.2,11-.3,15.4,2,3,5.2.8,7.4,1.4-.9-4.6-4.5-11.2-4.7-13.3,0-.9,3.5-.9,3.9-1.8,2.5-5.9,7.3-15.6,7.1-21.7-.3-8.3-1-16.8-10.8-16.3l-.3-10.5c5.7-1,15.1,13.3,17.9,18.1,2.2,3.8,1.7,10.2,3.5,12.8,1.5,2.1,9.4.2,9.7,10l9.7-1.4c-3.7,15,10,26.7,0,43.2l-7.2-2.4c-.8,13.7,7.2,17.9,16.8,25.2-.4,13.6-22.3-1.1-28.8-1.2l4.8-14.4c-5.6-1.9-19,7.2-16.6,13,2.8,6.7,37.1,19.5,45.4,13.4v9.6c6.5,0,11.3,2.3,13.2-4.8l7.2,7.2,6-2.6-2.3-21.4-12,4.8,7.2-9.6-18.1-2.4,1.3-21.7h9.6s-3.8,16.9-3.8,16.9l22.6,7.4.4,9.3c11.7-4.8,19-18.2,2.4-19.2l2.4-16.8c-9,5.9-8.1-4.2-12.8-6.3-6.5-3-14.5,1.3-13.7-5.6l-9.6,9.6v-26.4s14.4,2.4,14.4,2.4v16.8s4.8-12,4.8-12l6,4.8c4.8-9.1,3.8-5.9,11.9-5.6,3.4.1,7.1,3.1,6.1-2.7-7.5-3.3-14.2-3.2-16.8-13.2l-7.1,4.8c7.3-21.5-21-21.6-12-43.2,25.1,2.8,20.2,43.6,52.8,28.8-9.5,8.5,2.5,14.6-2.4,23.9l14.4-1.3,7.2,10.9c.6.1,1.1,0,1.5-.2,2.2-1.1,1.1-6.1.4-7.7Z"/>
  <path d="M80.2,279.7l-1,2.3c.3-.2.6-.4,1-.6.1,0,.1-.7,0-1.7Z"/>
  <path d="M212.9,205.7l-.7,1.3c.3-.4.5-.9.7-1.3Z"/>
  <path d="M720.8,856.2c-.9,3.1,4.1,9.3,5.6,10,2,.9,8.8-1,12.4,3.1l3.4-8.2c-4-6.3-18.5-14.5-21.4-4.9Z"/>
  <path d="M632.1,862.1c3.7,3.1,12.9-.3,14,.3,1.9,1.2,2.2,10.3,12.4,6.9l-15-16c-2.6-4.2-14,5.9-11.4,8.8Z"/>
  <path d="M975.3,612.5l7.2,2.4-19.2,2.4.2,12.9c-9.9.6-5.1,8.6-12.2,8.7l7.2,6-5,11.7c4.4,6.9,21,10.7,17,18.2,8.6,5.6,7.2-22.5,4.8-26.4l7.2,2.4,1.3-17.1-8.5-3.3c4.1-16.1,23.6-10.5,21.5-27.6l-4.4,2-5.2-8,7.2-8.4c-11.3-1.4-14.1,16.4-16.8,16.8-.1,1.5-3.7,3.8-2.4,7.2Z"/>
  <path d="M1175.3,435.1c-1-3.6-2.1-7.3-3.2-10.9-1,1.8-.5,4.9-.2,7.3.5,3.3,2.1,3.4,3.4,3.5Z"/>
  <path d="M1056.9,518.9c.6.8,5.8-1.8,4.8,2.4l-7.2,2.4,17.7,5c2.1-4.2,3.4-5.9,8.6-4.9,1.1-11.7-13.2-14.5-21.6-16.8,1.6,8.8-2.8,11.5-2.4,12Z"/>
  <path d="M692.1,709.7c6.1-2.2,7.5-6.6,7.2-13.2l-6.8.5-2.9,13.8-11.9,1.3,8.4,10.7c4.8-7,8.7-2.3,13.2-2.2-.3-5.9-4.8-5.1-7.2-10.8Z"/>
  <path d="M382.6,557.4c-1.6,12.2,14.3,6.5,0,18l4.9,4.9-2.5,8.3,7.2-1.6,2.6-19.9c.4-.6,1.7,0,2.2-.1-2.4-7.1-6-7.8-14.4-9.6Z"/>
  <path d="M351.5,509.6l-.2,7-4.7-2.4c.2,9.5-9.5,13.2,0,20.4,2.7,2,21.7,4.5,7.1,9.2-4.4,1.4-6.2-2.4-7.2,8.8,9.1.7,13.5,4.5,18,12,2.5.1,6.6-20.3,6.2-22.4-.4-2.2-4.7-2.1-5.9-4-1-1.5,1.8-5.9-6.2-8.4,7.9.3-1.3-13.1,8.8-8.8,10.5,4.4,3.3,8.3,9.2,14.8l3.6-9.5,9.6,4.8,2.4-8.4-13.1-6.1-4.8,4.9-3.7-12c-4.4-.9-1.5,4-2.4,4.8-.7.6-11-8.7-16.6-4.6Z"/>
  <path d="M241,492.6l-4.3-1.8-7.7,6.6,7.4,8.3-5,15.6-7.1-4.8-4.8,4.8,2.4-19.2-19.2,6c3.3,3.8,2.5,14.5,2.9,15.2.6.9,5.2,1.5,6.8,3.8,3.7,5.2,5.3,11.7,10.7,15.7,1.5.6,2.2-5.9,3.6-8,4.4-6.5,17.3-26.3,20.7-33.6,2.1-4.5,4.8-15.5,4.5-20.7-5.6,4.5-12.8,2.8-10.8,12Z"/>
  <path d="M313,596.9l-7.2-1.2c-1.8-6.1,5.5-5.7,6.6-7.6,3.3-5.2-3.1-22.1-13.8-14l2.2-15.2c-10.3-11.4-8.8-2.8-10.5-2.1-6,2.3-12.7-2.1-10.8,12.5l8.3-4.8,5.7,14-6.8,5.1c7,1.2,14.4,15.2,9.6,21.6l16.8-8.4Z"/>
  <path d="M161.8,439.8h7.2c1.7-1.4-18-30-26.4-24l2.4-7.2c-19.7.4,4.6,9-1.1,16.8h-13.3c0,0,4.8-7.2,4.8-7.2h-9.4c0,.1-2.6,14.3-2.6,14.3,3.8,3.3,13.5.1,14.1.5.7.4.9,4,2.7,5.3,1.6,1.2,5.9-2.7,4.8,3.8l6-7.1c3.7,8.2,17.8,24.9,20.4,9.6l-7.2,2.4-2.4-7.2Z"/>
  <path d="M1059.3,598.1l-1.2-7.2-6,2.4c-1.6,3.9,7.8,1.1,3.6,4.8-2.6,2.3-3,3-7,2.5l-6.2-6c4.2-3.8,8.3-6.8,7.2-13.2-4.3-1.4-5.7,3.8-8.4,4-3.3.2-5.2-5.5-11.8-1.4-2.7,7.1-15.4,17.9-1.4,19l1.2-7.2c3.1,4.7,6,3.7,10.8,2.4v7.2s23-2.2,23-2.2l2.2,4.6,10.8-10.8-10.7-6-6.1,7.3Z"/>
  <path d="M392.2,600.6l-9.7,1.4-7-18.2c-6.5,13.7-14.8,26.8-31.2,28.8l2.4,16.8,18-14.4,5.9,4.8c-.2-29.6,17.3-2.4,21.6-19.2Z"/>
  <path d="M358.6,629.4c-7.9-1.8-4.1,7-8.8,9.9-5.2,3.1-11.6-4.1-16.4,11.7l-5.9-4.8c-.1,5-3.1,7.2-7.9,7.2l-1.7,7.2,11.7-2.1,3.8,6.9c2.5-5.3,16.9-9.2,17.6-10,1-1.2.3-6,1.7-9,2.9-6,6.2-7.5,5.9-17Z"/>
  <path d="M106.6,468.6c-1.4,6.7,4.9,4.9,8.4,9.6,6.3,8.6,6.7,26.9,22.8,24l-4.8-14.4h7.2s0-7.2,0-7.2c-13.7-1.1-18.2-13.5-33.6-12Z"/>
  <path d="M159.4,384.6c4.4.8,10,2,13.5,4.8,1.6,1.3,5.2,16.2,12.9,14.5-.8-8.3.6-12.7,9.6-12l-4.8-14.4c11.6,3,21.9,9.3,32.9,1.7,6.6-4.5.7-5.6-.6-7.6-5.7-8.9-1.6.7-5,1.2-3.7.5-7.6-.7-11.3,0-.7.1-3.1,6.9-11.9,4.7-1.5-.4-2.9-8.1-11.3-4.7l2.4,7.2c-2.8,2.3-23.8-4.4-26.4,4.8Z"/>
  <path d="M70.6,431.4c-6.3-11-16.2-21-26.3-28.8-2.4-1.8-3.1-4.5-7-3.6,0,0-.1,0-.2,0v.6c0,0-1.4,11.4-1.4,11.4,2.7,4.4,11.1,3.5,13,5.1.2.2-1.5,3.5.1,5.7.8,1.1,11.8,12.3,12.6,12.7,4,1.9,6.8.2,9.1-3.1Z"/>
  <path d="M816.9,797.3c12.5,5.3,8.1-.8,11.9-3.3,5.6-3.7,7.7,1,7.3-13.5l-6,4.8-1.2-4.8c-6.5-.8-8.8,6.7-9.6,12l-7.1-7.2c-4.5,9.4-9.3,18.7,1.2,26.3,4.4-3.7,5.7-9.3,3.6-14.3Z"/>
  <path d="M589,659.3c1.9-4.2,3.7-13.9-2.4-15.5v19.2s-14.4-2.4-14.4-2.4c-1.7,8.7,3.2,13.9,12,14.4l2.4-7.2c-.7,7.5,4.8,11.9,12,12l-2.6-19-6.9-1.4Z"/>
  <path d="M85,432.6l-12,2.4c-1.6,7.7,4.8,20.7,11.4,23.8,16.5,7.9,30,3.3,5.5-7.4l2.2-9.2-7.2,2.4v-12Z"/>
  <path d="M183.4,411l7.2-4.8c-8.4,4.2-11.2-2.2-19.2-2.4v12s7.2,2.4,7.2,2.4h-12s0,7.2,0,7.2l21.6,3.7,4.2-4.9-9-13.2Z"/>
  <path d="M329.8,634.1l7.1,4.8c2.2-7-2.7-6.3-3.8-8.1-1.8-3-1.4-6.6-4.6-8.7-5.4,11.1-20.6,9.3-28.8,19.1l-3.6-4.8v7.2c11.8.2,15.1-6,27.1-.3l6.5-9.3Z"/>
  <path d="M905.7,689.3l-2.8,16.5-16.5.4c1.5,10.4,11.2,6.5,16.8,10.9,2.2,1.8,2.1,5.5,2.5,5.8,3.4,3,6.8-3.5,6.6-6.4-.3-3.9-4.2-6.1-4.3-9.2-.1-4.6,9.6-11.2,7.2-18h-9.6Z"/>
  <path d="M26.1,432.6c-.8,2.6-1.5,5.2-2.3,7.8l3.6,1.8-3.8-1.3c-.6,2.3-1.3,4.6-1.9,6.9,4.7,1.9,10.3,2.7,14.5,3.9l4.1.2,2.6-4.7,8.6,1c-7-2.9-9.7-3.3-15.5-7.3-2.3-1.5-6.2-5.6-9.9-8.3Z"/>
  <path d="M816.9,718.1c.3,9.9,2.1,24.8,14.4,26.4-.5-15.5,8.3-28.4-14.4-26.4Z"/>
  <path d="M479.8,766.1c9.3-11.5,15.9-16.1,8.4-31.1-8.8,7.1-20.4,21.8-8.4,31.1Z"/>
  <path d="M74.2,468.6l-5.9,4.8,7,2.5.2,9.5,3.5-1.8,1.7,3.4,4.3-1.7c3.6,5.6-9.8,4.9-4.8,9.6,5.3,5,9.3-6.6,9.9-6.9.8-.4,14.2,3.9,16.5-5.1l-19.3,1.4c-2.9-7.7-5.3-12.2-13.1-15.8Z"/>
  <path d="M1028.1,562.2c13.6-4.4,7-7.4,7.5-15.5.5-9.7,4-19.7,1.7-29.7l-9.2-2.8,2.3,8.1-7.1,3.9c8.4,4.9,11.7,20.6,9.6,29.6-.6,2.4-7.1,0-4.8,6.4Z"/>
  <path d="M128.4,390.2c2.2-9.6-6.8-13.2-6.9-14-.4-2.1,2.2-10.1,1.9-13.2-8.8-1.9-2.6,7.8-5.8,12.2l-8.6,2.3,2,4.4-4.4,1.5c8.8,2,14.5,14.9,21.8,6.8Z"/>
  <path d="M417.9,753.4c1.4,1.6-.2,4.6,5.5,3.1v-33.6c-11.3,10.6-17.5,17.2-5.5,30.5Z"/>
  <path d="M1008.8,623.1l-4.7,8.6,9.6,1.2-9.6,18c3,3.2,23.3-19.3,19.2-23.9l-14.5-3.8Z"/>
  <path d="M830.7,822c-.9-.4-1.6-1.4-2.9-1l-10.9,3.9,7.1,2.3-2.4,8.4c9-.6,9.4-6.8,17.9,0l3.7-7.2c-6.5,1.9-11.9-6.2-12.6-6.5Z"/>
  <path d="M1102.5,579c-2.4,10.8,6,13.6,15,15,2.1.3,5.4,2.9,6.5-1.8,2.3-9.6-15.4-11.1-21.6-13.2Z"/>
  <path d="M219.4,439.8c-6.1.8-14.4-1.3-20,0-1.8.4-1.6,4-2,4.3-2.2,1.3-8.3-6.3-6.8,2.9,13.5.7,22.3,10.7,28.8-7.1Z"/>
  <path d="M73,394.3l-14.4-2.5,2.4,12-12-1.2c8.5,11.8,23.2,4.6,24-8.3Z"/>
  <path d="M612.9,698.9c3,10.3-4.3,9.2-4.7,9.7-1.9,2.7,20.4,28.6,11.9-9.7h-7.1Z"/>
  <path d="M903,750.1c-.8,2-9,6.9-6.9,13.6l17.7-11.8,1.5-7.3-10.7-2.5c-5.1,2.4-1,6.7-1.5,8Z"/>
  <polygon points="89.7 426.4 87.4 439.8 101.8 437.4 99.6 430.3 104.2 427.8 89.7 426.4"/>
  <path d="M380.2,634.1c-3.5-4.7-14,6.5-19.2-2.4v9.6c5.1,0,8.7-4,12,1.2l-4.8,3.6c6.1,2.6,15.3-7.5,12-12Z"/>
  <path d="M1016.1,574.2c-6.4-8-9,24.1-7.2,26.4,7-1.4,8.8-24.3,7.2-26.4Z"/>
  <path d="M950.2,665.2l-10.9,14.5,9.6,2.4,2.5-9.6,9.6,2.4c.8-6.1-6.1-8.3-10.6-9.7Z"/>
  <path d="M639.4,727.7c-.7,5.1-.2,5.2,4.8,4.8l-4.8,7.2,18-10.7c4.1-.1,4.6-7.4,3.6-8.4-3-3.3-13.9,15.3-21.6,7.2Z"/>
  <path d="M408.7,735.8c.3-1.1-2-7.7-2.3-7.9-15.2-9.7-14,25.6,2.3,7.9Z"/>
  <path d="M821.7,755.3c1.1,7.7,5.1,9,11.9,10.8l-1.2-19.2c-.6,6.4-10.9,7.6-10.8,8.4Z"/>
</svg>