<?xml version="1.0" encoding="UTF-8"?>
<svg id="Layer_1" xmlns="http://www.w3.org/2000/svg" version="1.1" viewBox="0 0 1200 1200">
  <!-- Generator: Adobe Illustrator 29.0.0, SVG Export Plug-In . SVG Version: 2.1.0 Build 186)  -->
  <path d="M673,864.6h0c-.9,3.1,4.1,9.3,5.6,10,2,.9,8.8-1,12.4,3.1l3.4-8.2c-4-6.3-18.5-14.5-21.4-4.9Z"/>
  <path d="M584.3,870.4c3.7,3.1,12.9-.3,14,.3,1.9,1.2,2.2,10.3,12.4,6.9l-15-16c-2.6-4.2-14,5.9-11.4,8.8Z"/>
  <path d="M958.1,622.4c-3.5-.2-7.2-2.6-10.5-3.1,1.2-2,1.8-4.7,1.3-8.4l-4.4,2-5.2-8,7.2-8.4c-11.3-1.4-14.1,16.4-16.8,16.8,0,1.5-3.7,3.8-2.4,7.2l.2.4,7.2,2.4-19.2,2.4.2,12.9c-9.9.6-5.1,8.6-12.2,8.7l7.2,6-5,11.7c4.4,6.9,21,10.7,17,18.2,8.6,5.6,7.2-22.5,4.8-26.4l7.2,2.4,1.3-17.1-8.5-3.3c2.5-9.6,10.4-11.5,15.9-15.1,5,3.4,10,8.2,15.2,11.9l-2.4,4.3,9.6,1.2-9.6,18c2.3,2.4,14.9-10.3,18.6-18.4,2-.4,4.1-1.2,6.2-2.7l3.8,11.8,19-2.3c-8.4-5.9-30.3-25-38.4-27.6-2.5-.8-4.3,2.7-7.3,2.5Z"/>
  <path d="M350,582.4l5.2-3.3c-1-1-1.6-2.1-2-3.2-1.3.2-3.3-.4-4.3,0,.8,2.3,1.1,4.5,1.1,6.6Z"/>
  <path d="M260.3,524c-7.7,3.5-11.8,13-7.3,20.5,6.2,2.2,4.2-3.7,5.1-4.3,1.2-.8,4.2,2.5,6.5,1.6.5-.2,3.6-7.6,7.6-8.1l-12,1.2,2.4-7.2,5.8,2.5,2.5-4.9,8.3,7.9,5.9,1.7c4.9-6,8.9-5.7,3.9-14.4h9.6l-2-4.1c-7.7-.8-13.2-4.1-20.4-3.3-2.9.3-5.7,3.8-8.5,4.9l4.4,3.7c-3.2,5-7.5.3-11.8,2.3Z"/>
  <path d="M1154.4,481.8h1.1c1.3-1.3-5.4-16.5-10.8-10.4l-3.5-3.1,2.1-5.7-9.5-3.8c11.3-3.8,1.8-16.3-7-18.3l2.2-9.3c-6.6-1.7-5.6,4.5-5,8.5.9,5.9,5.4,1.5,5,5.8-16.4,1.8-4-2.9-10.8-9.6l-8.3,2.4v-6.7l1.8-.3.3-9.3c-2.4,1.4-4.2,2-5.8,2l-3.5-12.2,4.8,7.2,14.4-2.4,3.6,12-1.2-12,8.7,9.8,1-.3c2.1,6.4,11.5,7.2,17.7,3.6,4.6,7.8,11.5,10.4,23,8.5-1.1-2.4-.9-4.3,0-5.7C1102.2,184.5,872.9,0,600,0S132.8,161,44.5,380l14.3-1.5c-1.4-5.9,0-7.8,1.9-9.1,1,3.1,1.8,6.8,2.5,11.3l7.3,1.3c-.2.6-.4,1.2-.8,1.7l-8.6,2.3,2,4.4-4.4,1.5c8,1.8,13.4,12.6,19.8,8.5,1.2-8.8-4.6-15.1-4.8-15.9,0-.5,0-1.2,0-2.1l8.6,1.5,4.9,7.1-.2-14.2c-3.6-1.6-8.7-.8-11.7-2.3.2-1.3.3-2.4.3-3.2-1.1-.2-1.9-.3-2.6-.2,0-.5-.1-1,0-1.6-8-2.4-2.4,7.2-9.5,9.6l1.7-13.5c1.3-2.1,1.8-3.6,2.2-4.9l22.4,11.2c.4-3.4.6-6.4,1-9.3,3.2,1.4,6.1,3.4,8.1,3.5,3.1.2,5.3-3.6,7.4-3.8,2.3-.2,4.7,0,7.1,0l-2.3,9.1-.2.2-9.3.3c2.1,7,.8,10.5-2.7,16.6l-9.2-2.2-1.2,7.3c-4.5.4-7.9,4.1-9.8,6.6.2-.2.4-.3.7-.5-.5.8-1,1.6-1.7,2.6l4.4,4.3-4.6,18.2,7.2-1.7,2.2-11.3,8.7-1.4-1.2-4.8,7.2,4.8.3-18.8,18.9-5.1-.6,1.7c-4.2.3-7.7,1.5-8.7,5,4.3.8,9.8,2,13.3,4.7l.3.3c0,.1.2.2.3.4h-11.8c.2,12.3,2.4,8,9.6,14.4l-15.7,7.1c2.1,4.7,2.6,8.2,2.2,11.4-4.4-4.6-9.3-8.3-13-7.8.4-1.5,7.4.2,4.9-5.9h-4.7l.2-.5c-10,.2-8.6,2.5-5.6,5.8l-1.9.7c4.1,2.9,4.6,6.4,4,10.3h-10.9l4.8-7.2h-9.4c0,0-1.7,9.2-1.7,9.2,0,0,0,0-.2-.1-.9-.7-2.4-8-4.7-1.5-1.3,4-.8,7.7-1.5,11.7l-11.7,2.7,9.6,4.8c-1.3,6.1-7.6,2.6-11.9,4.8.3-5.6,0-11.2-5-12.1l2.9-.5-2.2-7.1,4.6-2.5-10.4-1c.5-1.1,1.1-2.2,1.9-3.1l13-14.5c-15.6-6.2-17.3,23.7-33.3,17.3l-.3,4.3-2.3-2.9c-2.9,10.1-5.6,20.3-8,30.6,1.2-.3,2.4-.4,3.3,0,5.2,2.3,13.8,24.2,31,18,1.8-6.5-3.1-3.4-4.7-6.6-.9-1.7,0-5.3-1.1-7.7,9.5,2.3,14.6-.6,4.6-6.6l22.7,4.3-2.3,7,7.2-4.8,1.2,12,6-7.1c-8.4.6-2.8-10.3-7.4-17.8-2.1-3.3-6.8-4.5-9.3-7.4l9.5-2.4-4.8-7.2,2.9-.5-.2,1.1c3.8,3.3,13.5,0,14.1.5.6.4.8,3.1,2.1,4.7v1.6c.6,5.3,7.8,1.2,2.7,10.6,6.7,1.4,4.7-2.5,4.8-7.2,3,2.1,4.8,0,7.5-1.6,5.6,7.8,14.7,15.6,16.8,3.5l-3.1,1.1-1.5-5.9h2.2v-.2l9.2,5.5v-12l12,2.4-4.8-4.7c.8-.6,1.6-1.2,2.4-1.7h.3l.3-.4c10.6-6.2,19.3-.9,17.4,10.7-2.4,0-4.6,0-6.5.4-1.8.4-1.6,4-2,4.3-2.2,1.3-8.3-6.3-6.8,2.9,2.5.1,4.9.6,7.1,1.1.7,3.7,8,8.6,14.2,4.2l2.4,48,12-12-2.4,12h7.6l4.8,5.5-5,15.6-7.1-4.8-4.8,4.8,2.4-19.2-19.2,6c3.3,3.8,2.5,14.5,2.9,15.2.6.9,5.2,1.5,6.8,3.8,3.7,5.2,5.3,11.7,10.7,15.7,1.5.6,2.2-5.9,3.6-8,4.3-6.3,16.6-25.2,20.4-33,0,.8.1,1.8.9,3.1,3.9,5.9,25.1-.8,29.9,5l6-7.3,7.1,15.5c7.1,0,13,1,18.4-4.4s4-4.5,4.5-6.1l.5.4c-.2-2.7-1.8-6.1-2.6-8.1l8.5-7.9-4.8,9.6h9.6l-2.4-9.6c4.3-1.6,6.3,4.3,8.4,4.2,1.6,0,10-10.3,15.5-9.2-.7-10-6.3-11.8.2-21.4,1.3.3,2.3.7,3,1.3l2.7,8.8.5-.2c.2,1.1.5,2.2,1,3,2.7,4,17.6,10.8,0,11.1l-4.8-7.2c1.8,2.5,1.7,7.8,3,9.1,1.9,2,8.7-2.3,6.6,5.2-5.6-2.1-6.5,3.1-7.9,3.9-.8.5-2.3-1.1-3.6-.6-.5.2,0,4.8-.2,6.8h9.1l-2.4-4.7c7.2-2.3,11.6-4.1,17.9-3.6,1.2,2,1.8,4.3,1,6.4l-14.4-3.6c2.9,5.3,5.3,9.1,9.8,10.5.1,1,.4,1.9,0,2.2-.7.6-11-8.7-16.6-4.6l-.2,7-4.7-2.4c.2,9.5-9.5,13.2,0,20.4,2.7,2,21.7,4.5,7.1,9.2-4.4,1.4-6.2-2.4-7.2,8.8,6.5.5,10.6,2.6,14.1,6.5,1.2,9.8,2.2,19.6,14.4,20.4l-4.6-34.2c.2-1.6.3-2.7.3-3.1-.4-2.2-4.7-2.1-5.9-4-.4-.6-.2-1.7-.3-2.9.3,0,.6,0,1-.2l3.6-2.9,10.8,6.6-4.8,6,20.4,15.6c1.7,0,2.7,0,3.2-.5.9.3,1.8.4,2.6.3,1.8-7.9,7.5-15-5.9-11.3.5-2.1,4.5-4.8,4.2-9.3-.4-5.2-5.7-4.5-7.4-7.9-.6-1.3-1.1-2.6-1.4-4l1.6-5.5-2.3-1.1c0-6.4,1.5-13.1,2-18.8,6.5.3,1.7,10.7,2.4,12,.1.3,3.6-2.1,5.8-.5-.2,1-.4,2-.8,3.1l1.6,1.4c-1.9,1.4-6.2.6-3,5.6,1.7,2.6,4.9,5.4,8.4,4.8l4.8-7.2c-5.3,8.5-6,19,1.3,26.4,2.1,2.1,6.1.2,7.2,2.2,1.4,2.5-1.3,8.6.4,12.4-3.4,5.2-7.1,9.7-7.6,13.3h0c-1.3,9.2-9.1,4.5-14.7,1.8-.3,3.3-1,5.6-.7,6,.6.8,5.3.7,6.5,4.1,4.6,13.2-3.5,21.9-14.2,25.9-4.7-2-14.7-3.1-17.5-5.3,4.4-9.4,16.5,5.8,20-7.7l-9.7,1.4-7-18.2c-6.4,13.5-14.6,26.4-30.6,28.7-2.5-5.3-4.8-10.1-6.2-10.9-2.9-1.6-8,0-11.5-.5-1.1,12.7,8.6,22.2,12,33.6h3.6c1.9-7.3,5.4-3.5,10.8-6-.7-.6-1.4-1.7-2.2-3.1l13.3-10.6.7.6c0,.8,0,1.6.2,2.4l3.5.6,1.6,1.2v-1l9.3,1.6c-7.8,7.6-13,6.6-13,15-2.2,0-4.3-.8-5.9-3.6v9.6c2.4,0,4.5-.9,6.3-1.3,0,.9.3,2,.5,3.1.2,1,.5,1.8.9,2.5l-.6.5c.4.2.8.3,1.1.3,2.7,3.6,8.2,4.2,12.9,5,1.8-2-.1-8.5-1.4-15.1,0-.5,0-1-.3-1.4-1-5.8-1.3-11.6,2.1-14.3,1.5.5,3.1.4,5.4-.3.6.7,1.2,1.3,1.9,1.9-.7,3.8-7,1.3-4.9,9.5l9.8-6.9c2.9.9,6.1.7,9.1-1-1-1.1-2.1-2.1-3.2-3.1l4.1-2.9,6.6,1.8c-2.5,4.2-7,2.1-4.9,10.5l4.8,3.8c-3.3-.4-12.2,9.9-13.2,12.1-3.6,8.2,2.7,18.3-14.5,19.4-5.5.4-1.3-7.2-8.3-5,2.3,4.4.6,10.6-1.9,16l-5.6,3.7,2.4-7.2h-10.7c-5.1,6.9,7,7.2,3.5,16.8h.8c-3.6,3.3-7.3,6.5-7.7,11.5,4.2-3.6,8.9-7.4,13.2-11.5h8.1l-1.2-7.1c.1-.2.3-.3.5-.5,2.7-3.2,3.2-8.8,3.9-9.3,1.6-1.3,6.1.5,8.6-.9,2.3-1.3,13.1-19.8,19.7-21.1-5.3,11.5,7.3,17.1,7.4,18.2.7,6.1-19.9,17.2-7.5,26.5,2.8,2.1,9.2-5.3,8.5,4.6-.2,2.7-5,10.8-3.7,15.5l9.6-2.4c3.7-5.5-7.5-4.8-4.8-7.1,2.6-2.3,8.2-2.5,12-8.4,3.1-4.8,3.5-13.5,7.8-17.5,3.1-2.8,10.8,0,13.7-6.6l-7.2,1.2-2.4-7.2h12l2.4-9.6h-7.2c1.6-5.7,9-5.5,14.2-4.6l5,11.7,1.6-7.4c11.8,3.2,4.6-7.5,15.2-9.4l-4.8,13.2c12.1,9.6,10.3-3,12.1-6.5,1.2-2.4,4.2-2,4.6-3.6,1.3-5.1,1.3-14-.1-22.8l4.7-2.6c-2.1-4-3.7-7-7.2-8,0,0,0-.3,0-.4h7.3l-4.8-12c-4-2.8-4.7,2.7-5.8,4.6-.8-1.3-1.6-2.5-2.5-3.5-.5-1.3-1.1-2.6-2.4-3.6h0l4.1-3.8-4-18.1,13.3-9.6.2,9.5h7c0,0,1.1,7.3,1.1,7.3l15.6-12,6,14.4c10.3-4.7,3.3-17,14.4-19.2l-1.5,16.4-6.8,1.6,11.9,15.6-19.2-2.4v7.2l4.8,4.8,4.8-7.2,7.2,1.2c-2.5,12.2-6,6.3-11.3,9.2-3.1,1.7-5.3,10.6-12.7,10.1,6.1,8.6,20.4,10.9,30.8,9.1,0,.6,0,1.3.2,2.1,2.3,1.2,4,2.4,5.6,3.4l1.8,3.3-12-2.4,6.9,5.1c5.1,8.7-22.5,22.5-23.7,30.9l-2.4-9.6c-4.2-1-1.5,3.6-2.5,4.5-.9.8-7.4-4.8-10.7.3l1.2,9.6-14.1-7-4.5,8.2,10.3,13.2c7.1,1.8,9-15.5,15.5-10.8-5.4,9.8-15.3,17.8-21.8,26.4-1.9,2.5,1.2,7.1-7,9.6,3.3,2.5,6.1-.5,4.8,6l-6.9.2.9,11.9c3,4,3.6,1.1,6-1.3,13.2-13.2,25.7-36.9,38.4-51.4l-7.2-4.9c22.3,7.8,26.2-32.9,47.7-26.6,3.4-4.3,3-14.3,5.2-17.7,2.6-4.1,6.2-1.5,8.2-3.7,2.8-3.1,3.2-9.3,7.3-12.1,6.1-1,2.3,2.8,1.2,6-2.4,6.8-7.2,13.7-2.5,21.1,3,4.8,15,0,12.1,11.3l4.7-2.4c1.3,13,5.9,19.5,19.3,21.5,1.7-9.4,6.4-18.8,16.8-15.6l-4.8,6h12v7.2l-7.2-2.4,4.8,9.6-7.2,1.2c4.5,7.7,14.4,1.8,16.8,8.4l-7.2,1.2,7.2,6-19.1.2v11.8c10.2-.6,21.4-13.1,28.7-4.8,3-11.8,0-21.8,14.4-24l-7.2-3.6,7.4-22.7c6.8-1.6,10.7,5.3,13,6.5,2.1,1.1,13.4-1.9,7.5,7.2-.4.6-3.4.3-3.7.8-3.7,6.1,9.2,4.6,6.9,11.8l-16.8,1.2,19.1,21.6c-8.1,8.5-4.4,10.8-16.7,10.8.7,16-11,10.4-12,24l15.6-12,1.2,4.7,11.9,6.1-16.7,22.8c7.9-4.2,10.6-15.6,21.3-10.1l1.5-4.3,17.9,15.8-4.7,8.1,8.2,2.6,3.8-5c2.2,6.6,8.9,8.9,10.8,16.7l8.4-8.4-7.2-3.7,7.1-10.8-38.3-15.7c0-8.7,4.8-9.8,11.9-11.9l-4.8,12,28.8,7.2c1.6-13.4-9.6-19.3-4.8-33.6h9.6l-4.8-6,9.6,1.2-4.8,8.4c6.6,4.8,13.4,9.8,21.5,6,.5,6.9-7.5,8.9-2.5,15.7,2.5,3.5,8.6,2.4,9.7,1,2.9-3.9-6.4-15.7-2.3-21.5l-16.8-3.6,22.7-44.4c10.2,4.3,5.9,14,7.3,16.8,1.8,3.5,12.2,8.2,15.4,10.7l-9.6,6c9.3,1.6,11.2-5.9,18-9.5l3.6,12c9.9-.9,18-9.7,21.6,4.8l4.6-.2,1.5-4.7,22.7,2.5c2.2-8.6-5.6-14.8-13.1-17-2.8,7.1-8.4,7.7-15.7,7.4l7.2-6-7.2-2.4,18-13.2,6,12,8.9-8.4-6.5-8.3c5.5-.5,12.4-.5,12-7.2l3.5,4.7c8.2-3.8,17.9-5.4,18.1-16.7h-16.8c2.4,4.5,1,7.8-4.8,7.2,6.8-11.4-6.8-8.2-9.7-10.9-3.6-3.4.4-10.1-7.1-8.2,2.5,7.1,5.7,22.6,1.2,28.8h-25.2v-9.6c-14.5,8.1-24.2,2-38.4-3.6l1.3-6c23.2,7,39.2.5,37.1-26.4-12.3,3.2-12.4-6.1-21.6-9.6,4,9.1.9,13.6,9.6,19.2-12,7.5-19,4.8-31.2,7.2-4.9-15.7,1.9-10,5.5-17.4,2.2-4.5,0-9.2,1.5-13.6l-10.2-.4-6.4,9.8c-7.9-16.1,13.8-14.3,7.2-28.8l7.4-1.3c.4-7.3.5-13.6-6.2-17.9l-8.4,12c4-9.2-.6-17.4,10.8-21.6l1.2,7.2h7.2l-2.4-7.2h9.6v7.2l12-2.4c2.3,2.1-15.8,19-9.6,26.4-12.8-1.7-6.3,1.5-12,9.6l9.6-3.8,11.6,9-2,4.4c6.5,2,7.7,2.1,12-3.6l-14.3-10.8,14.4,4.8c-5-7.9.9-3,4.6-6.1,2.4-2,3.4-4.6,5-7.1l-7.1-1.2c-3.5-11.3,7.3-8.8,7.2-16.8h-14.4l2.4-7.2h-12l12-3.6c-5-5.7-6.4-13.1-14.4-8.4,2.8-5.4-14.4-15.6-3.4-19,11.3-3.5,6.7,3.9,8.6,6.4,1.9,2.5,8.6,1.6,11,3.6s2.4,8.6,3,9.1c.5.4,10.3-2,11.4-3,3.5-3,2.5-13,15.6-11.6.6.4,1.2.7,1.8,1.1l2.4,20.7-6,2.5-2.2-4.7-8.6,5.8,8.4,10.1c10.3-.6,3.1-10.2,10.8-8.9-.3,15,.7,27.4-6.1,41,5.2,7.9,11.4,7.1,8.6,19,3,1.5,2.9-10.3,7.2-4.8,1.3,1.6-2.1,6.7-2.1,8.5s5.8,2,4.5,5.9l4.8-8.4-4.8-1.3v-4.6c7.6.6,2.6-4,3.9-7.3,4.8-12.1,10-2.8,20-9.6l3.6,9.6,10.8-7.2c4,20.5,7.8,3.7,11,2.9,1.7-.5,11,2.3,13-.6.5-.7-1.9-4.6-1-7.1,1-2.8,5-5.4,5.4-8.8.4-3.9-8.1-11.9-6.8-17.6l7.2,1.6c-1,8.2,2.1,19,12,17.6.7-10.6-6.4-7.8-7.3-11.3-1.1-4.3.7-10.5,0-15.1-.7-.9-5.2,2.5-7.3,1.2-3.3-1.9-15-17.5-20.3-20.4l1.4,10.5-4.9,1.5,4.7,9.5c-6.3.8-6.1.2-8.4-4.8l-18,18,7.2,4.8-8.4,8.4,1.2-9.6h-7.2c4.5-10.6-5.9-20.4-10.6-7.5-1.5,4.1,1.6,14.2-6.2,12.3l1-21.7c11.3-1.2,11.4-10.5,20.7-8.1l2.4-6.2h3.5l1.2,7.2,2.4-7.2c7.5-1.6,2.2,7.2,12,4.8l2.6-23.8h9.5v-9.7l16.7,15.6-7.1,13.2c13.1,1.1,6.2-14,21.6-12l-1.2,9.6c8.1-10.7,4.9-20.1,1.2-31.2,8.1,4,19.5-2.4,21.6,9.6l4.7-4.8-2.4,12,7.2-7.2c-1.2,12.5,6.5,20.7,7.2,31.2h14.4c2-7.8-5.1-2.8-7.4-6.2-4.3-6.4-14.1-47.8-11.3-54.7,2.1-5.2,13.4-6.3,6.7-20.7-10.9-2.5-8.3,8.4-14.3,12-2.7-10.4,9.4-12.2,4.8-21.6l12,7.2v-9.6l9.6,2.4-4.6,10.9c15.6,10.5,4.1-4.8,10.7-6.1l13.1,2.4c-2.5,4.5-3.2,11-.3,15.4,2,3,5.2.8,7.4,1.4-.9-4.6-4.5-11.2-4.7-13.3,0-.9,3.5-.9,3.9-1.8,2.5-5.9,7.3-15.6,7.1-21.7-.3-8.3-1-16.8-10.8-16.3l-.3-10.5c5.7-1,15.1,13.3,17.9,18.1,2.2,3.8,1.7,10.2,3.5,12.8,1.5,2.1,9.4.2,9.7,10l9.7-1.4c-3.7,15,10,26.7,0,43.2l-7.2-2.4c-.8,13.7,7.2,17.9,16.8,25.2-.4,13.6-22.3-1.1-28.8-1.2l4.8-14.4c-5.6-1.9-19,7.2-16.6,13,2.8,6.7,37.1,19.5,45.4,13.4v9.6c6.5,0,11.3,2.3,13.2-4.8l7.2,7.2,6-2.6-2.3-21.4-12,4.8,7.2-9.6-18.1-2.4,1.3-21.7h9.6l-3.8,16.9,22.6,7.4.4,9.3c11.7-4.8,19-18.2,2.4-19.2l2.4-16.8c-9,5.9-8.1-4.2-12.8-6.3-6.5-3-14.5,1.3-13.7-5.6l-9.6,9.6v-26.4l14.4,2.4v16.8l4.8-12,6,4.8c4.8-9.1,3.8-5.9,11.9-5.6,1.8,0,3.7.9,4.9.9,2,4,3.5,7.5,4.6,7.7,8.4,2,5.9-14.8,3.5-19.2l-4.7,2.4,6.9-14.7c2.3-.5,4.9-1.4,7.8-2.7-9.5,8.5,2.5,14.6-2.4,23.9l14.4-1.3,7.2,10.9c4.1.7,2.7-6,1.9-7.9-1.9-4.6-10.1-8.5-9.1-12.4l11.9-6,7.2,12-4.8-14.4h7.2Z"/>
  <path d="M1006.7,532.1l17.7,5c2.1-4.2,3.4-5.9,8.6-4.9,1.1-11.7-13.2-14.5-21.6-16.8,1.6,8.8-2.8,11.5-2.4,12h.1c.6.7,5.8-1.9,4.8,2.3l-7.2,2.4Z"/>
  <path d="M651.5,729c-.3-5.9-4.8-5.1-7.2-10.8h0c6.1-2.3,7.5-6.7,7.2-13.3l-6.8.5-2.9,13.8-11.9,1.3,8.4,10.7c4.8-7,8.7-2.3,13.2-2.2Z"/>
  <path d="M334.8,565.7h0c-1.6,12.2,14.3,6.5,0,18l4.9,4.9-2.5,8.3,7.2-1.6,2.6-19.9c.4-.6,1.7,0,2.2,0-2.4-7.1-6-7.8-14.4-9.6Z"/>
  <polygon points="265.3 605.2 265.1 605.3 265.2 605.3 265.3 605.2"/>
  <path d="M248.5,613.6l16.6-8.3-7.1-1.2c-1.8-6.1,5.5-5.7,6.6-7.6,3.3-5.2-3.1-22.1-13.8-14l2.2-15.2c-10.3-11.4-8.8-2.8-10.5-2.1-6,2.3-12.7-2.1-10.8,12.5l8.3-4.8,5.7,14-6.8,5.1c7,1.2,14.4,15.2,9.6,21.6Z"/>
  <path d="M1011.5,606.7v-.2s-1.2-7.2-1.2-7.2l-6,2.4c-1.6,3.9,7.8,1.1,3.6,4.8-2.6,2.3-3,3-7,2.5l-6.2-6c4.2-3.8,8.3-6.8,7.2-13.2-4.3-1.4-5.7,3.8-8.4,4-3.3.2-5.2-5.5-11.8-1.4-2.7,7.1-15.4,17.9-1.4,19l1.2-7.2c3.1,4.7,6,3.7,10.8,2.4v7.2l23-2.2,2.2,4.6,10.8-10.8-10.7-6-6.1,7.3Z"/>
  <path d="M769.2,805.7c12.3,5.2,8-.9,11.8-3.3,5.6-3.7,7.7,1,7.3-13.5l-6,4.8-1.2-4.8c-6.5-.8-8.8,6.7-9.6,12l-7.1-7.2c-4.5,9.4-9.3,18.7,1.2,26.3,4.4-3.7,5.7-9.3,3.6-14.3Z"/>
  <path d="M541.3,667.8h0c1.9-4.3,3.7-14-2.4-15.6v19.2l-14.4-2.4c-1.7,8.7,3.2,13.9,12,14.4l2.4-7.2c-.7,7.5,4.8,11.9,12,12l-2.6-19-6.9-1.4Z"/>
  <path d="M281.9,642.4h0c0,0,7.1,4.9,7.1,4.9,2.2-7-2.7-6.3-3.8-8.1-1.8-3-1.4-6.6-4.6-8.7-5.4,11.1-20.6,9.3-28.8,19.1l-3.6-4.8v7.2c11.8.2,15.1-6,27.1-.3l6.5-9.3Z"/>
  <path d="M857.9,697.7l-2.8,16.5-16.5.4c1.5,10.4,11.2,6.5,16.8,10.9,2.2,1.8,2.1,5.5,2.5,5.8,3.4,3,6.8-3.5,6.6-6.4-.3-3.9-4.2-6.1-4.3-9.2,0-4.6,9.6-11.2,7.2-18h-9.5Z"/>
  <path d="M769.1,726.5c.3,9.9,2.1,24.8,14.4,26.4-.5-15.5,8.3-28.4-14.4-26.4Z"/>
  <path d="M432,774.4c9.3-11.5,15.9-16.1,8.4-31.1-8.8,7.1-20.4,21.8-8.4,31.1Z"/>
  <path d="M26.4,476.9h0c0,.1-5.9,4.9-5.9,4.9l7,2.5.2,9.5,3.5-1.8,1.7,3.4,4.3-1.7c3.6,5.6-9.8,4.9-4.8,9.6,5.3,5,9.3-6.6,9.9-6.9.8-.4,14.2,3.9,16.5-5.1l-19.3,1.4c-2.9-7.7-5.3-12.2-13.1-15.8Z"/>
  <path d="M980.3,570.5c13.6-4.4,7-7.4,7.5-15.5.5-9.7,4-19.7,1.7-29.7l-9.2-2.8,2.3,8.1-7.1,3.9c8.4,4.9,11.7,20.6,9.6,29.6-.6,2.4-7.1,0-4.8,6.4Z"/>
  <path d="M370.1,761.8c1.4,1.6-.2,4.6,5.5,3.1v-33.6c-11.3,10.6-17.5,17.2-5.5,30.5Z"/>
  <path d="M1177.1,551.2s0,0-.1,0h0s0,0,0,0Z"/>
  <path d="M1177,551.3l-2.4-12,7.2,2.4-.3-9.3-11.6-2.7v7.2l-14.4-2.4v12l9.3-7c-4.8,4,9.3,13.7,12.2,11.8Z"/>
  <path d="M1178.3,594.5h0l-17.9,4.8c-4.7,4.3,16.2,12.2,19.2,12,1.3-6.3,5.4-12.2-1.2-16.8Z"/>
  <path d="M782.8,830.3h.1c-.9-.3-1.6-1.3-2.9-.9l-10.9,3.9,7.1,2.3-2.4,8.4c9-.6,9.4-6.8,17.9,0l3.7-7.2c-6.5,1.9-11.9-6.2-12.6-6.5Z"/>
  <path d="M1054.6,587.3s0,0,0,0c0,0,0,0,0,0h0Z"/>
  <path d="M1054.7,587.3c-2.4,10.8,6,13.6,15,15,2.1.3,5.4,2.9,6.5-1.8,2.3-9.6-15.2-11.1-21.5-13.2Z"/>
  <path d="M565.2,707.3h-.1c3,10.3-4.3,9.2-4.7,9.7-1.9,2.7,20.4,28.6,11.9-9.7h-7.1Z"/>
  <path d="M855.3,758.5h0c-.8,2-9,6.9-6.9,13.6l17.7-11.8,1.5-7.3-10.7-2.5c-5.1,2.4-1,6.7-1.5,8Z"/>
  <path d="M968.3,582.5c-6.4-8-9,24.1-7.2,26.4,7-1.4,8.8-24.3,7.2-26.4Z"/>
  <path d="M902.6,673.6h-.2s-10.9,14.5-10.9,14.5l9.6,2.4,2.5-9.6,9.6,2.4c.8-6.1-6.1-8.3-10.6-9.7Z"/>
  <path d="M591.6,736.2h0c-.7,5-.2,5.1,4.8,4.7l-4.8,7.2,18-10.7c4.1,0,4.6-7.4,3.6-8.4-3-3.3-13.9,15.3-21.6,7.2Z"/>
  <path d="M360.9,744.2c.3-1.1-2-7.7-2.3-7.9-15.2-9.7-14,25.6,2.3,7.9Z"/>
  <path d="M773.8,763.7h0c1.1,7.7,5.1,9,11.9,10.8l-1.2-19.2c-.6,6.4-10.9,7.6-10.8,8.4Z"/>
  <path d="M336.9,709h0l-16.9-1.1,7.2,16.8c3.8-2.4,16.3-11.4,9.6-15.7Z"/>
  <path d="M346.5,729.4h0c-1.1-8.2-12.1-.8-14.4,3.7-2.9,5.9,6.4.3,7.2,4.8l-2.4,13.1c16.6-2.2-3.4-20.5,9.6-21.6Z"/>
  <path d="M1187.1,484.3c-2.8.9-6.2,1.5-10.3,2.9l7.2,5.9-2.4,6-7.2-1.2,15.6,8.4.8-1.6c-1.1-6.8-2.3-13.6-3.7-20.4Z"/>
  <path d="M1187.1,484.3s0,0,0,0c0,0,0,0,0,0h0Z"/>
  <path d="M3.3,555.4h0c-.4,5.4-.8,10.9-1,16.5,5-1,10.8-3.5,15.5-3.2l-2.5-14.3-12,1Z"/>
  <path d="M13,544.7H4.2c-.2,2-.4,4-.5,5.9,4.7,0,10.7,0,9.3-5.9Z"/>
  <path d="M1166.1,530.3h-.1c0,0,14.6-9.5,14.6-9.5l-8-20.1c0-1,0-2-.4-2.9-.4-1.5-3.3-1.2-4.6-3.6-.8-1.5.5-5-.7-7-.3-.5-8.7-5.8-9-5.4-.9,8,6,13.2,7,20.6.2,1.4,0,2.8,0,4.2l-11.6,12.2,2,9.2,2.4-4.8,8.4,7.1Z"/>
  <path d="M108.2,496.3v-.2c-5.3.3-10.5-2.7-15.7-4.7v-2.3c-13.7-1.1-18.2-13.5-33.6-12-1.4,6.7,4.9,4.9,8.4,9.6,6.3,8.6,6.7,26.9,22.8,24l-.4-1.3c0,.2.3.3.4.4,4.8,4.7,7,2.6,11.1,4.6,1.2.6-.3,3.4,1.9,4.1,4.3,1.4,5.7-7.6,5.5-8.5-1-6.7-11.6,1.3-13.9-4.7l2.3-8.4,19.2,4.8-2.5-4.8,7.2-4.8c-5.3-1.5-8.3,3.9-12.7,4.2Z"/>
  <path d="M1140.9,537.5h-.1c-10.2-.2-9.4,12.5-16.6,15.5l8.3,18.1,8.5-11-2.6-6.9,5-2.7-2.5-13Z"/>
  <path d="M324.9,676.6h0c-7-7.5-10.7-18.8-14.4-28.8-.6,0-1.1,0-1.7.2,1.3-2.4,2.2-5.2,2-10.3-7.9-1.8-4.1,7-8.8,9.9-5.2,3.1-11.6-4.1-16.4,11.7l-5.9-4.8c0,5-3.1,7.2-7.9,7.2l-1.7,7.2,11.7-2.1,3.8,6.9c2.5-5.3,16.9-9.2,17.6-10,.5-.6.6-2.3.7-4.1,10.6,1.7,7.7,18.3,21,17Z"/>
  <path d="M33.4,419.8h0c4.3,1.8,6.2-10.2,12.8-10l.4-11.5c-1.7-1.5-7.9,3-12.1,8.4-3,3.9-5.1,8.1-3.7,10.9.5.9,1.3,1.7,2.6,2.2Z"/>
  <path d="M267.2,575.8l-2.5-11.7-11.8-.2c-.3,5.8,5.6,8.5,2.4,14.4l11.9-2.5Z"/>
</svg>