<?xml version="1.0" encoding="UTF-8"?>
<svg id="Layer_1" xmlns="http://www.w3.org/2000/svg" version="1.1" viewBox="0 0 1200 1200">
  <!-- Generator: Adobe Illustrator 29.0.0, SVG Export Plug-In . SVG Version: 2.1.0 Build 186)  -->
  <path d="M766.4,740.8h0c-.9,3.1,4.1,9.3,5.6,10,2,.9,8.8-1,12.4,3.1l3.4-8.2c-4-6.3-18.5-14.5-21.4-4.9Z"/>
  <path d="M704,753.8h0c0,.1-15-15.9-15-15.9-1-1.5-3.1-1.2-5.2,0,0-.7,0-1.4,0-2.2l-6.9-2-.2-6.8-7.3,3.3c.9,8.7,14.2,4.6,7.4,11.1l-5.5-.2,2,12.1c4.3-1.7,7-3.2,8.6-5.3,4.1,0,8.9-1.4,9.7-1,1.9,1.2,2.2,10.3,12.4,6.9Z"/>
  <path d="M29.8,420.5h0c-1,3.1-2,6.2-2.9,9.3,1.2-.1,2.8-1,4.9-3.1l-2-6.2Z"/>
  <path d="M1171.7,423.2c-1.7-5.4-3.4-10.8-5.3-16.2l-3,13.5,8.3,2.7Z"/>
  <path d="M1100,408.3l17.7,5c2.1-4.2,3.4-5.9,8.6-4.9,1.1-11.7-13.2-14.5-21.6-16.8,1.6,8.8-2.8,11.5-2.4,12h0c.6.7,5.8-1.9,4.8,2.3l-7.2,2.4Z"/>
  <path d="M1104.9,482.9v-.2l-1.2-7.2-6,2.4c-1.6,3.9,7.8,1.1,3.6,4.8-2.6,2.3-3,3-7,2.5l-6.2-6c4.2-3.8,8.3-6.8,7.2-13.2-4.3-1.4-5.7,3.8-8.4,4-3.3.2-5.2-5.5-11.8-1.4-2.7,7.1-15.4,17.9-1.4,19l1.2-7.2c3.1,4.7,6,3.7,10.8,2.4v7.2l23-2.2,2.2,4.6,10.8-10.8-10.7-6-6.1,7.3Z"/>
  <path d="M862.6,681.9c12.3,5.2,8-.9,11.8-3.3,5.6-3.7,7.7,1,7.3-13.5l-6,4.8-1.2-4.8c-6.5-.8-8.8,6.7-9.6,12l-7.1-7.2c-4.5,9.4-9.3,18.7,1.2,26.3,4.4-3.7,5.7-9.3,3.6-14.3Z"/>
  <path d="M951.3,573.9l-2.8,16.5-16.5.4c1.5,10.4,11.2,6.5,16.8,10.9,2.2,1.8,2.1,5.5,2.5,5.8,3.4,3,6.8-3.5,6.6-6.4-.3-3.9-4.2-6.1-4.3-9.2,0-4.6,9.6-11.2,7.2-18h-9.5Z"/>
  <path d="M862.5,602.7c.3,9.9,2.1,24.8,14.4,26.4-.5-15.5,8.3-28.4-14.4-26.4Z"/>
  <path d="M1082.2,441.3h.8l2.3,7.1c-1.6-9.7,4.6-5.7,10-10.4l-9.5-1.6,4.6-2.4-1.8-9.5-7,3.2c1-8.6,3.4-17.4,1.4-26.3l-9.2-2.8,2.3,8.1-7.1,3.9c5.4,3.2,8.7,10.8,9.8,18.3l-2.4,1.1,2.8,2.5c0,1.7,0,3.4,0,5l-10.2,3,9.2.4c-1.7,1.1-6.2.1-4.2,5.6l-.2.2c5.8-1.9,7.9-3.5,8.5-5.4Z"/>
  <path d="M876.2,706.5h.1c-.9-.3-1.6-1.3-2.9-.9l-10.9,3.9,7.1,2.3-2.4,8.4c9-.6,9.4-6.8,17.9,0l3.7-7.2c-6.5,1.9-11.9-6.2-12.6-6.5Z"/>
  <path d="M1148,463.5s0,0,0,0c0,0,0,0,0,0h0Z"/>
  <path d="M1148.1,463.5c-2.4,10.8,6,13.6,15,15,2.1.3,5.4,2.9,6.5-1.8,2.3-9.6-15.2-11.1-21.5-13.2Z"/>
  <path d="M653.9,593.2h-.1c-1.9,2.7,20.4,28.6,11.9-9.7h-7.1c3,10.2-4.3,9.2-4.7,9.7Z"/>
  <path d="M948.7,634.7h0c-.8,2-9,6.9-6.9,13.6l17.7-11.8,1.5-7.3-10.7-2.5c-5.1,2.4-1,6.7-1.5,8Z"/>
  <path d="M1054.5,485.1c7-1.4,8.8-24.3,7.2-26.4-6.4-8-9,24.1-7.2,26.4Z"/>
  <path d="M1006.6,559.5h-.2s0,0,0,0h.2Z"/>
  <path d="M995.8,549.8l-10.9,14.5,9.6,2.4,2.5-9.6,9.4,2.4c.8-6.1-6.1-8.3-10.6-9.7Z"/>
  <path d="M684.9,612.4c-.7,5.1-.2,5.2,4.8,4.8l-4.8,7.2,18-10.7h0c4.1-.2,4.6-7.5,3.6-8.5-3-3.3-13.9,15.3-21.6,7.2Z"/>
  <path d="M454.3,620.4c.3-1.1-2-7.7-2.3-7.9-15.2-9.7-14,25.6,2.3,7.9Z"/>
  <path d="M867.2,639.9h0c1.1,7.7,5.1,9,11.9,10.8l-1.2-19.2c-.6,6.4-10.9,7.6-10.8,8.4Z"/>
  <path d="M934.6,632.7h0c-1-.9,6.1-9.2-1.1-11.7-16-5.6-20.5,13.8-9.6,23.5l17.3-2.2.3-9.1-6.9-.5Z"/>
  <path d="M975.6,624.6h.1c-.8,22.8,19.3,25.9,34.6,37.3l-14.9-24.4-19.8-12.9Z"/>
  <path d="M703.9,773.6l1.7,16.7c-13.4-3.1-4.7,10.6-1.1,16.1,1.4,2.1-.6,4.5,5.2,3.3,2.9-15.8,8.5-24.1-5.8-36.1Z"/>
  <path d="M703.8,773.5s0,0,.1,0h0c0,0,0,0,0,0Z"/>
  <path d="M657.3,654.4h0c1.4,10,1.5,22.3,14.1,19.5-6.3,8.2,1.9,18.1,8.7,8.1,3.6-5.3,2.9-11,12.9-9.8,2-8.3-9.7-1.1-14.1-7.7l4.5,7.3c-8.7.6-14.3-1.3-9.2-9.9l-7.2,2.1c-.7-9.3,4.8-7.4,6.2-8.2,10.1-5.7,0-14.5-4.6-3.7l-9.3-9.9c-4,3-5.4,7.1-6.4,11.7,1,.4,3.1-.7,4.4.5Z"/>
  <path d="M747.3,667.1h0c-12.8,16.7-8.3,31.9-34.9,32.5-7.7-8.9-3.7-2-9.3-1.6-6.6.5-8.6-4.3-15.9,4.1l3.4,6.1,6.1-4.5-.6,10.6c11.4,2,5.2,5.1,7.8,10.6,1.9,4,13.1,8.4,13.5,9.9,2.5,11.6-12.3,23.3-8.4,36.4l7,.4-2.7,9.5,6.3-4.7,5.7,2.8c4.6-9-6.2-11.5-6.4-13.3-.3-3.2,7.2-11.6,8.7-15.4,5.3-14,8.6-32.5,12.8-47.2l9.3-2.5c-9.4-10.5,9.5-22.1-2.4-33.7Z"/>
  <path d="M221.5,618.4h.1c.2-3.3-2.6-7.2-1.7-10.9,5.6-.5,8.9,5.2,9.3,9.9,6-5,9.8-3.5,16.8-1.8l.3-7.2,4.4,2.3,5.7-12.6-7.1-6.4c5.6.6,5.3-1.8,5-7.1l-7.1-1.5,4.9-3.4-11.7,1.8-6-9.2c-9.2,2.9-7.7,17-21,13.3,2.9,4.4-5.9,32.3-7.2,33.5-2.3,2.1-5.6,2.1-8.5,2,1,11.8,23.1,9.7,23.8-2.7Z"/>
  <path d="M382.3,658.6h0c-1.1,0-1-3.7-1.4-3.8-.4,0-8.8-.5-9.2-.5-4,.5-.2,6.3-9.5,1.4l8.1,9.9,3.8-7.1c7.9,2.9,1.1,10.9,1.8,16.9-4.1.8-1.3-3.1-2.6-4.3-.5-.5-2.8,1.4-3.9.9-6.3-3.2-4.3-1.3-7.3-2.3-.5-.2-2.7-7.3-7.3-7,.5,8.9.5,11.4-5.2,17.3l4.3,6.6,7.6-11.7-4.3,19c-4.9,1.4-3-3.6-3.9-4.3-2-1.6-10.1,3.8-7,8.8,1.9,2.3,28.1-5.8,26.9-13.4l7,5,5.7-25.2,9.6-.7c-2.4,4.1.3,9.8-.4,12.8-.3,1.5-9.5,2-5.1,6.2,2.8,2.7,11.2-7.3,13.6-9.1l-7.8-18.4-13.6,3Z"/>
  <path d="M310.2,633.3h0c.3-10.5,3.1-18.2,8.3-27.2l-8.6,6.9-.9-7.3c-7.2-1.9-5.5,11.6-7.9,17.6-1.6,4-7.4,17.1-9.2,20-4.1,6.8-16.2,6.1-9.8,16.9,18.9,10.2,21.4-15.8,37.6-15.7-2.3-7.7-1-9.4-9.4-11.2Z"/>
  <path d="M161,643.8h0c0-.1-4.3-14.6-4.3-14.6l19-2,.6-9.3c-6.9,3.6-8.9,1.5-14.2-2.9l-1.6,4.9-11.5-2.9-3.5,5.2,1.5,8.8c-7.6,1.5-12.8,8.5-17.7-.6-2.7-4.9,0-15.9-8-14.5l6.3,25.4-7.3,3.4,6.8.6,1,19.1-11.3,9.1,15.8-4.1,2.4-31.1,21.4-1.9,4.6,7.4Z"/>
  <path d="M175.6,665h.1c-1.4-2.3-9.6-14.8-12.7-11.6l4.3,14.5-21.6-.7,7,5.1c2,8.7-7.1,5.4-5.3,14.2,12.9-10,18.9,19.1,22.1,20,8.3,2.3,6.4-14.5,4.2-19l-4.8,2.2,10.4-20.2c1.3-3.7-2.9-3.4-3.7-4.5Z"/>
  <path d="M272.6,677.7s0,0,0,0h.1c0,0-.1,0-.1,0Z"/>
  <path d="M272.6,677.7l-4.6-3.7-2.6,4.7c0-1.1,0-3.2-.6-3.9-1.7-1.4-3.6-1.9-5.2-3.5-4.2,12.1-9.5,10.5-20.9,13.6l7,6.2-2.6,6-7.1-1.5,15.3,8.9,3.9-7c8.7,8.3,11.8-2.6,18.9,5.5l.4-12-9.7,4.4c-4.4-10,5.3-9.3,7.8-17.7Z"/>
  <path d="M561.3,728.8h0c0,0-4.8-.5-4.8-.5l-9.8,7.2,11.8,2.8c-4.6,7.5-10.4,9.8-18.5,12.6l-6.6-4.9-9,9.1c7.7.6,13.1-6.2,15.8,3.1,14.5-2,27.5-14.8,37.8-25.1-8.2,1.8-11.5,3.6-16.7-4.3Z"/>
  <path d="M361.3,612.4h.1c7.5,5.4,9.6-3.5,16.9-4.2l-18.8-11.4,36.9-26.3c-16.8,3.3-41.7,11.9-42,32.1l-2.1-7.3c-8.6,5.5-18.3,14.7-17.7,25.8l8.6-6.9,6.1,9.5c9.3,1,13.7-1.4,12-11.3Z"/>
  <polygon points="214.1 715.7 215.8 724.9 218.3 720.2 226.5 727.6 241.4 718.7 233.5 696.8 214.1 715.7"/>
  <path d="M390.1,617.1l2.4,5.9,9.3.6-7.5,9.3c26.8,5.4,14.2-26.2,7.4-40.5h0c-.2,10.2-2.5,20-11.6,24.7Z"/>
  <path d="M229.6,504.7h0c.6-2-.1-5.3-1.7-6.8-5.5-4.9-21.4-13.2-22.4-.3-1,13.1,19.6,22.1,24,7.1Z"/>
  <path d="M663.4,702.1h0l2.2-4.3-9.7,2,2.7-9.5-9.5-2.8,1.9,14.5-12.1,2c3,8.7,10.9-.7,16.8.6l-7.6,11.7,13.3-4.4,3.4,5,5.2-10.6-6.7-4.2Z"/>
  <path d="M195,597.1c.8,0,4.2-8.1,13.7-5.5l2.7-13.3-26.5,1.5c-.1,7.3.2,17.4,10.1,17.3Z"/>
  <path d="M201,734.1h0c-10.2-.7-9.9,12-17.2,14.8l7.6,18.4,8.8-10.6-2.3-7,5.1-2.5-2-13.1Z"/>
  <path d="M335.7,572.5c3.2-1.9,10.4-18.3,3.9-20.8-2.9,12.3-16.4,22.8-21,33.5-2.2,5.2-4.4,9.5,1.2,13.7l14-22.3-4.6-3.7c2.1,0,4.8.6,6.5-.4Z"/>
  <path d="M185,463.7c-1.9-1.8-1.9-6.3-5.3-6.6l-.7,21.5,16.7.6-.6-14.4c-5.8-6.6-1.1,7.4-10.1-1.1Z"/>
  <path d="M45.5,651.6c-2.1-5.8-2.8-11.4,2.9-15.5l-21.3-6.7c0,11.9,6.2,21,18.4,22.2Z"/>
  <path d="M39.1,459.3c3.9-1.6,1.5-5.4,2.3-6.7.7-1.1,5,1.3,4.1-2.7-5.5-1.5-16.7-5.2-23.4-3-2.9.9-5,3-5.5,6.7l3.5.9,19,4.8Z"/>
  <path d="M39.2,459.3h0s0,0,0,0h.1Z"/>
  <path d="M286.7,722.8h0c-3.5,4.1-6.3,4.6-10.9,1.9-1,7.2,4.7,14.1,11.6,10l-4.6,5.8,6.6,6.2c5.2-8.4,4.6-12.9-.4-21.6l-2.3-2.3Z"/>
  <path d="M67.7,562.6h-.2c4.7,7.2,5,14.5,16.6,13.5l2.9-9.4-7.3,4.5-2-8.7-7,.8-8.2-14.3c-5.8,8.8,2.3,9.4,5.2,13.6Z"/>
  <path d="M286.1,705.9h0s-.3,7.1-.3,7.1l9.6-2.1,1,7.4,8.2,4.9c2.1-13.8-4.8-22-18.5-17.3Z"/>
  <polygon points="112.6 654.1 103 653.7 104.5 680.1 114.3 673.3 114.5 668.5 109.6 670.8 112.6 654.1"/>
  <polygon points="59.9 448 46 433.2 41.2 434.5 38.4 444.9 47.9 445.5 47.8 452.5 59.9 448"/>
  <path d="M267.1,498.6s0,0-.1,0h0s.1,0,.1,0Z"/>
  <path d="M267,498.6l-6.4-21.8c-5.4-1.1-10.1,1.8-12.2,6.7,14.7-7.1,2.2,15.6,18.6,15.1Z"/>
  <path d="M704.2,660.7l5.7-5c2.5-5.4-7-9.4-10-11.9l-1.4,7.1-9.6-.3,3.3,7.3,8.6-4.4h0c0,0-2.6,4.5-2.6,4.5l5.9,2.7Z"/>
  <polygon points="681.9 647.9 687 640.9 690.3 645.8 696.4 643.5 692.2 629 689.4 636.1 679.9 635.8 681.9 647.9"/>
  <path d="M611.8,669.2h0c0-.1,2.4-6.9,2.4-6.9l-6-2.5-6.3,9.3c10.6-1.6,9.1,12.2,18.8,12.7.5-6-3.4-11-8.9-12.6Z"/>
  <path d="M458.4,687.9l1.8-20,5-3.7c-14.7-1.5-16.6,16.4-6.8,23.7Z"/>
  <path d="M405.5,654.8c-.5-6.6.8-14.1-6.6-17l4.6,19,6.6.6-2.7,9.5,9.7-2.1-2-12.1-9.6,2.1Z"/>
  <path d="M650.2,675.9h0c.8-1,6.3,1.4,4.3-5l-14.5,1.9c5.7,6.4,3,9.8-.6,16.7,12.1,1.2,10.1-12.9,10.7-13.6Z"/>
  <path d="M1179.2,433.1v-.7s-4.2,1.7-4.2,1.7l-7.7,3.1,6.2-8.3,1-1.3-1.4-.2-16.7-2.2,1.3-21.7h7.6c-1.3-3.6-2.6-7.3-3.9-10.9l-6.1,6.1v-21.8C1066.8,157.3,852,0,600,0S177.7,129.4,75.9,313.9l5.8-.8,1.3,4.1c-3.9-1.9-7.6-1.6-9.4,1.3,0,0-.1,0-.2,0-2.4,4.4-4.7,8.9-7,13.4,3,1.4,6.6,2.2,9.9,3l-4.8,6.8-8.2-3.7c-.9,1.8-1.7,3.5-2.6,5.3v.8h-.3c-10.9,22.6-20.5,46.1-28.5,70.2,4.3-.5,6.4-5.8,8.8-5.4l13.2,5.4c.3-10.8-16.6-4.7-16.3-14.9,9.6-1.5,18.6-.8,26.2,5.7-1.6-9.2,5.1-7.7,12.4-9.2l-.4-1.4h8.9l-7.2-5.9,13-5.8,1.4-7.4h-14.4c0,1.8-.2,3.9-.4,6-.8-.1-1.7,0-2.5.5-5.7,3.9,2.9,3.1-10.9,2.4-2.6,0-5.8,1.9-8.8,1.2l.2-6.2,3.2-1.6-2.3-1.7,13.5.4,4.1-9.3,3.5,3.7,4.9-2.3c-3.8-1.2-4.2-2.8-3.4-4.8,3.1.4,6.3,1,8.6,2.1l-5.9-6.6c.5-.8,1-1.6,1.4-2.4,2.2,3.8,8.6,4.8,12.9,1.9.5-.8.6-2.2.5-4,3.8,3.5,10.3,4.9,15.1,4.1l-3.1-14.5,13,7.7c.4.3,0,1-.5,1.7-.2-.1-.5-.2-.7-.4l-5.9,4.8,1.5.5c-2.1,1.8-3.9,4.1-6,4.5-4.6.9-9.7-5-14.1,2.3l3.4,7.3c-8.1,0-5.8,11.6-10.2,16.5l14.5-1.9,1,7.3,1.5-7.2,2.2,4.9,12.1-1.9-5,5.7c4.1,6.9,2.8,17.8,13.8,16.2-1.6-6.4,2.8-19.1-6.5-19.5,3.6-10.2,33.3-6.3,33.9-17.2l-4.2-6.4c.2-.4.4-.9.5-1.4h-1.4l-5.7-8.6c.2-1.9-.7-2.4-1.8-2.7l-.8-1.2c4.1,1.8,7.1,2,9.8,1.3.4,1.3,1.6,2,2.9,2.7-1.8,1.7-2.5,3.9,0,8.4l4.8-5.4c.2.2.4.4.6.7,0,.1.2.3.3.4l6-6.6c-.4-.2-.9-.5-1.3-.7l5.3-5.9-1.8-2.1,2-1.4.8,7.7,1.8,2,1.8-5.3c-3.8-1.9-1.2-9.4-3.7-15.6l6.3-3.1c5.8,3.4.5,8,2,12,2,5.4,10.8,7.8,12.8,12.5l-18.4.6c1.2,1.9,1.8,3.6,2.1,5.1-1.8-.9-3.5-2-5.2-3.1l-8.4,7.7c2.3,4.9,4.1,11,7.3,15.2v.2l-5.7-7.3c-12.6,5.3-10.7,9.1-9.2,21.2l-3.3-7.3-11.1,9.2c8.1-.6,3.8,8.7,4.3,14.6,1.8,1.9,25-3.2,26.2-4.4,2.1-1.9-3.2-9.7,10.2-6.4l-7.1-2.7c2.9-7.4,8.8-3.4,14.5-1.8l-5.4,16.6c5.5-3.1,20.3-3.5,19,5.5-6.3-.6-8.8-1.8-11,4.4-4.9-1.7-4-6-13-5.3l1.8,6.8-10.8,7.3-1.4-4.2-4.4,1.6.3-9.6-12-.4-1.3,4.8-2.3-5h-6l4.7,3.6-2.9,5.7h-6.9c3.8-14.1-18.4-10.7-12.1,2l-9.6-.3c-1.3-1.2,7.3-13.9-.7-12-5.8,1.4-8.8,6.7-11.7,12.1l-23.4,1.9c1-2.7,10.3-5,13.3-5.7,4.2-1.1,14.9,1.7,13.1-6.2-7.3,0-15.9,0-22.9-2.2-4.1-1.3-3.6-4.6-5.2-4.9-4.6-1.1-10.3.4-15.1,0l4.8-7.2c-9-1.4-5.1.2-7.1,3.5-3.2,5.3-7.3,5.3-7.3,10.8,4.3,4.1,16.2-.6,16.8,0,.6.6,1.3,10.9,9.5,13.2l-4.7,6c6.8-2,8.7,6.1,13.8,8.1-.9,3.3-2.2,7.5-5.4,9.3-3.6,2-7.7-1.4-12-.7-4.8.8-11.2,7.5-13.8,7.7-3.2.3-9.7-8.3-17.5-2.6l11.7,7.6c-15.3,2.6-23.9,18.2-36.2,2.6-2.5,11.1-4.7,22.4-6.6,33.7,2.7,1.3,7.1-.3,2.8,5.5l7.3-2.1c-1.9,4.1-1.5,21.2,2.8,21.7,4.7.5.7-15.4,2.3-19.9,1.1-3.1,3.6-4.5,6.9-3.7-5.2,5.4,3.8,9.1,9.3,7.5l-5.3,14.2c4.8.5,10.6,1,12.2-4.3l-4.7-1.4,6.2-5.8c1.6,6.6,4.5,4.7,10.4,5.4v6.9l7.1.3c-5.2-12.4,14.1-10.8,15.1-15.3.6-2.8-1.3-8.3-3.4-8.3-3.4,0-5.8,13.3-13.5,9.1,5.4-6.1,11.8-11.9,5.6-20.3l-9.7,1c5.2-6.7,12-7.3,12.7-17.5l-7.3,3.3,3-16.7,9.2,2.6c2.1-11.2,9.3-6.3,13.9-8.8,3.2-1.8,8.8-9,12.4-13.2,2.3-.6,4.6-1,6.7-.9l-.4-2.4c2.4.2,5.1.6,7.6,0,7.1-2.2,21.3-13.3,17.3,3.2l-3.1-1.7c-2.2,10.1-8.5,3.9-9.8,4.5-.7.4-10,11.7-10.4,12.4-3.9,8,13.5-1.1,15.5-.8l2.5,5.2,8.3-2.2c-2.7,8.7-15.5,14.2-12.8,23.5l-9.5-1.5c4.9,8.8,8.3,3.7,12.8,4.1,1.7,0,1.6,4.6,2.4,4.9,7.8,2.7,4-4,8.6-4.5,3.2,6.6-10.9,21.1-15.1,14.9l-1.9-8.2c-5.6,3.4-5.8,10.9-14.6,6.7-2.3,7.5,4.3,3.3,6.3,5.5,3.5,3.8,6.3,17.8,16.9,16.9-5,6.6-15.2,8.5-12.7,18.7l-4.5-7.4c-4.9-.8-4.9-.6-5.2,4.2l-6.8-2.2,1.3,7.3,7.8,3.8c-14.9.4-4,13.7,1.7,19.3l-7.1-1.5,2,9.7-4.7-1.4v3.6l4.7,1.3-4.5,7.1,10.9,13.6-14.1-7.7-2.6,7.1-4.3-16.9-2.7,7.1-4.6-4.9-3.9,7-7-5c-5.7,5.6.7,10-9.1,13.1l2.4,9.3-5.2,3.6c12.8-1.4,7.1,15.8,19.8,15.3l3.8-4.8c-2.5,6,10.7,8.6,11.7,7.5.6-.6-.2-9.2,7.7-10.5l-7.1-1.4.3-9.6c3.3-.2,7.3.9,10.4,0,5.2-1.5,13.4-30.8,16.1-37.5,1.3-3.3,4.4-5.5,5.8-8.8,1.8-4.2-4.3-10.5,8-12.6l-1.6-16.5c17.4,9,16.8-.9,31.3-3.7l2.1,7.3c5.5-9.8-1.9-12.9-7.7-19.5l1,7.2-9.5-2.7,2.7-7.1-9.7,2,2.8-5.7-4.9-2.7c4-1.6,4.2-8.9,5.8-10.1,2.4-1.9,9.1,2.7,6.8-6.3-.2-.9-4.9-1.5-4.9-2.6,0-5.4,17.2-21,21.4-29.4,2.4-4.9,2.6-11.3,4.4-16.4l19.9,15.1,3.7-4.6,2,12-5.4-.2c-5,.6-1,11.6,5.1,9.8,4.7-11.3-1.4-21.3,6.3-30.8l9.1,2.5,6.5-14.1,3.4,9.6,11.8.5-2.1-7.2,9.4,5.1-1.8-9.4,6.9-3.5-3.9-15.7,7.4-1.7c.4.5.7,1.1,1,1.6l-4,7.3c2.1-1.6,4-2.7,6-3.5,1.9,3.6,3.8,7.1,7.2,9.6.8.3,1.4-1.4,1.9-3.4.4.6,1,1.1,1.5,1.6,0,0,0-.1,0-.2.5-.7,1-1.5,1.6-2.4.3,0,.6,0,.9.1l-.3-1c1-1.5,2.1-3.2,3.3-5l6.7,4,2.7-7.1-2.8-2.3c.2,0,.3-.2.5-.3.5-.3,7-9.7,5.3-11.8l-1.6.3c1.8-3,3.3-5.7,4.2-7.6.3,0,1.1-.2,1.6,0,.4-1.3.9-2.8,1.3-4.3l2.8-.5c1.5,3.2-1.7,4.5-3.9,6.2-.2.4-.4,1-.8,1.7-.7,1.1,2,1.8,3.7,2.1l1.6,4.3-4.4,3.9c7.7,13,2.9,5.8-1.2,10.8-.8,1,.3,3.5-.3,4.1-6.1,6.2-12.2,7.5-20.1,5.5,2.9,2.2,6.5,3.7,6.2,4.3l-11.3,12.8c-3.9-13-19.5,7.2-30.1,3.8l1.9,14.4,3.7-4.6c2.8,9.8,10.7,6.9,16.1,10.6,2.6,1.8,3,4.8,4.7,6.1,1.6,1.2,4.3.6,6.2,2.7,8,8.5.7,10.5.3,14-.2,2.2,3.2,5.2,3,9.2-.2,5-5.2,11.6-4.8,17.1.4,5.4,9.8,10.1,6.6,18.3l9.5-2.2c-6.2-13.7,11.8-5.4,17.4-14.9l-7.2-2.7,5.5-16.6-4.6-2.3c8.3-6.6-5.7-14.7-1.9-18.3.3-.3,7.8-1,7.1,2l-.2,5.4,12.1-.8c-.9-18.6-3.9-10.7-14.6-14.2-12-3.9-1.7-18.4-3.4-21.3l-11.9-2.8c6.5,7.5-9.1,6.8-7.2,1,2.2-8.2,28.8-26.4,24.3-10l9.6.4-7.3,2.1-.2,7.2,14.4.5.4-7c8,4.3,4.2-6.5,12-4.6l-1.6,7c-2.3,1-3.6,3.5-2.6,10.9l1.1-.6c-3.3,8.9,3.1,10.6,4.2,13.6,1.2,3.4,2.8,13.9,3.2,14.8,1.4,3.2,7.1,5.6,7.8,9.2v4.3c-12.2,5.7-5.2,6.5-3.8,15.6.8,5.6-2.2,9.2,2.9,14.5l-14.4-1.8-5.2,15.5,31.5-8.5-4.3,19,12.8-21.1c3.2,3.1,4.4,6.3,4.5,9.5h-.2l-1.7,7.2h.5c-2.5,7-7.6,14.4-6.9,21.6l19.6-20.9,2.3,4.1c2.5-5.3,16.9-9.2,17.6-10,.5-.6.6-2.3.7-4.1,6.2,1,7.8,7.2,10.7,11.9-5,8.7-9.7,19.4-9,20.5,1.8-3.4,7.5,1.4,10.1,4.6-.1.5-.3,1-.5,1.6h.8c-3.6,3.3-7.3,6.5-7.7,11.5,2.8-2.4,5.8-4.9,8.8-7.5-.4,5.8-2.1,16.1,1.8,21.4,6.1,1.8,4.9-3.1,4.9-7.1l3.5,8.1c.8-.5,1.9-1.3,3.2-2.2l3.2,8.4c-.7.8-1.3,1.6-1.6,2.3-1.8,3.6,1,2.9,3.6,2.9l2.7,7-1.5,8.1c8.6-1.2,7.4-6.6,6-11.7,1.3-2.6,1.1-5.6.2-8.8.7-.6,1.8-.9,3.3-1.1-.5-3.3-2.5-4.1-5-3.5-1.4-3.2-3.1-6.4-4.5-9.4,2.2-2.8,3-5.6,0-7.5l-2.6-.2v-.6c0-3,3.7-5,3.8-6.6,0-1.7-3.5-4-3.8-7.3-.2-2.1,9.5-1.1,7.6-9.4-.5-2.2-4.2-5.1-7.2-2.7-1.4,1.1-2.2,4.4-4.1,5.7,1.3-2.9,1.7-6.2,2.2-6.6,1.6-1.3,6.1.5,8.6-.9.9-.5,3.1-3.7,5.9-7.5,1.4,5.6,3.5,9.7,6.7,8.8l-7,2.3-.5,9.4c2.7.9,8.9-.9,13.5-3.1-3.2,4.5-4.7,9.3,1.2,13.7,2.8,2.1,9.2-5.3,8.5,4.6-.1,1.8-2.2,5.9-3.3,9.8l-4.1,2.1,1,4.8,4.4-1.6,1.7-.4-.2,7,6.1.2c-11.3,10.6-17.4,17.2-5.4,30.4,1.4,1.6-.2,4.6,5.5,3.1v-33.5h1c-4-7.2,6.8-11.4-.7-16.8l-4.6,2.3c-.8-.4-1.1-.8-.3-1.4,1.5-1.3,3.9-1.9,6.4-3.3,2.7,2.3,7.1,2.9,14.2.6,2.4,9.5-7.2,19.6-8,25-.1.8,8.4,4.2,9.1,12.4.5,6.8-4.5,20.7-5.9,28.6-1.3,7.5,5.8,15.6-10.1,15.1l-2.1-7.3c-.9,8.6-.5,25.9,11.1,24.4l-5.1,9.4c5.6-.3,10.2,5.5,14.4-.7,0-1.9-5.8-2.9-6.5-4.3-2.9-5.2,10.4-42.9,8.5-52.8l14.6-3.5c-7.5-9.4-.2-14.6,8.1-20.3l-5.8-10.8-1.5,9.5-7.1-.4-4.5-12c8.6-2.3,14.8,2.5,20.6-6.5,8.2,5.4,3,9.5,4,17l15.6,5.3-4.9,3.4,1.6,2.4c-8.1,7.7-16.3,20.3-5.5,28.6,3.6-4.5,6.8-7.9,9-11.4l3.5,7.2,12.2-3.3,2.1,9.7c-8.8-2.6-14.5,11.6-20.8,11.4-8.2-.3-5.1-11.5-12.8-10.1-3,8.3,5.9,8.2,6.8,11.5,3.5,12-14,6.4-12.7,19.5l13.8-8.9c24.8,14.5-3.4,16.5-7.4,30.8,14.3-6.7,18.8-22.7,31.3-3.7l5.1-7-6.9-1.4c4.3-7.7-1.3-10.7-6.9-14.7l5-5.8-4.7-5-3.7,4.6-3.4-6.1,22-10c-5.8,14.8,8.6,5.1,9.2,11.2l-3.1,7.9h-11.6l.9,7.2c5.6,8.6,16.6-5.4,16.1-11.5l4.6,3.7c-7.6,8.3-3,16.5-17.3,15-1.7,6.6,7.3,6.6,8.8,11.5,1.8,5.8,0,14.2-2.5,19.7l16.3,8-4.4-9.7c7.8-5.3,20.8-4.7,22.1-16.1-10.9,5.2-7.5-3.2-16.7-3,4.1-7.2,13.6,2.8,12-12.2-1.2-11.4-14.7-20.8-12.9-31-5.1,3.5-4.4,6.9-12.2,6.8-1.7-7.9,5.2-2.7,7.6-5.9,7.7-10.3-2-10.4-4-14.8-2.6-5.7,0-19.9-4.8-24.4l-9.2-.8c1.2,14.5-.8,9.4-7.4,13.2-2.3,1.3-5.1,4.9-6.5,5-1.5,0-3.3-1.8-5.3-3.2.6-2.5.6-5.2-.2-8.4l3-5.1.4,5.9c3,4,3.6,1.1,6-1.3,4.5-4.4,8.8-10.1,13.2-16.2.2.2.4.5.6.7,7.9,9,23.6-2.6,32.8-7.4l-14.4.7,7.4-5.7c-3.8-4.6-7.4-8.5-13.6-7,4.2-6.1,8.3-11.8,12.5-16.6l-7.2-4.9c2.9,1,5.5,1.2,7.8.8,3.5,4,7.7,6.3,10.5,13.6l-7.3,3.3-4.6-4.9-.4,12c6.3-9.9,23.8,3.7,16.2,8.8-1.8,1.2-5.4.6-6.5,1.5-.4.3,2.8,7.3-5.5,6.7l-.2,4.7,7.1,3.9-5.1,8.2c9.5,2,17.9-13.3,21.9.4l6.9-1.8c-.2,16.9,28.5,20,23.1,35.3l3.5,3.8,8.1.6c.6-3.8-.3-8.4.4-12-3-1.1-3.8-1.7-7.2-.3l2.7-9.5c-8.7,9.6-12.8-4.3-14-13.7-.8-6.8,3.2-3,3.6,1.4l6.2-.9c3.7-2.7,0-12.6,7.4-10.7,1.1-3.3-2.4-2-4.2-4-5.4-5.9-7.1-10.5-16.8-11.1l7.6-11.7-19-5.5.2-7.1,31.3-3.7-2.1-9.7-32.9,10.7c-5.1-12.3-5.6-3.6-12.1-3.2-3.8.2-11.7-5.6-10.2-7.1h4.7l.2-3.4-2.7-1.5c3.2-3.5,6.2-7.8,9.3-11.5.4,0,.8,0,1.1,0-1.1,6.2-5.9,7.2-2.9,14.3l15.9-11.3c2,3,5.7,4.7,10.6,5l2.4-7.2c-.7,7.5,4.8,11.9,12,12l-2.6-19-6.9-1.4c1.9-4.2,3.7-13.9-2.4-15.5v19.2l-13.7-2.3c0-1.1-.2-2.1-.2-3.2,2-.3,4.1-.2,6.5.5,1.6-2.1,2.4-5.5,3-8.8l3,1.9-.9-10.5s0-.2,0-.2c2.6-4.1,6.2-1.5,8.2-3.7,1-1.2,1.7-2.7,2.4-4.4l5.3.2c-2.5,6.2-6,12.5-1.7,19.2.8,1.2,2.1,1.8,3.6,2.2-.7,2.7-1.6,5.4-3,8.3,4.1,3.2,13.3,14.5,15.1,18.9,1.1,2.8-1.4,5.9-1,6.6,6.3,11.2,19.5-6,28.1-1.5l1.6-4.3,1.4,4.4c5-2.2,8.5-1.6,11.4-.3l.5.9-7.2,1.2c4.5,7.7,14.4,1.8,16.8,8.4l-7.2,1.2,7.2,6-19.1.2v11.8c9.8-.6,20.5-12.1,27.8-5.6l-5.5,13.5,7.2-1.4c-.3-4.3.6-7.1,2.1-9.4l7.8,9.9c3-4.4,5.7-4.2,8.3-3.4,0,0-.2.2-.3.4,2.2,3.2,3.8,4.5,5.1,4.8-1.3,11.2-11,7.7-11.9,20l15.6-12,1.2,4.7,11.9,6.1-2.6,3.6c-1.2.2-2.5.3-3.9.3l-2.5,8.4-7.7,10.5c3.3-1.7,5.6-4.7,8.1-7.2,3.2.8,3.4-1.5,3.9-3.3,2.5-1.4,5.3-1.8,9.3.3l.6-1.7c.5,0,.9-.2,1.4-.4.2,0,.5-.4.9-.9l16.5,14.6-4.7,8.1,8.2,2.6,3.8-5c2.2,6.6,8.9,8.9,10.8,16.7l8.4-8.4-7.2-3.7,7.1-10.8-38.3-15.7c0-7,3.1-9.1,8-10.7.7,1.4,1.1,3,1.6,4.8l-2.4,6,6,1.5c.9.9,2,1.6,3.4,1.9v-1.1c0,0,19.4,4.9,19.4,4.9,1.6-13.4-9.6-19.3-4.8-33.6h9.6l-4.8-6,9.6,1.2-4.8,8.4c6.6,4.8,13.4,9.8,21.5,6,.5,6.9-7.5,8.9-2.5,15.7,2.5,3.5,8.6,2.4,9.7,1,2.9-3.9-6.4-15.7-2.3-21.5l-16.8-3.6,22.7-44.4c10.2,4.3,5.9,14,7.3,16.8,1.8,3.5,12.2,8.2,15.4,10.7l-9.6,6c9.3,1.6,11.2-5.9,18-9.5l3.6,12c9.9-.9,18-9.7,21.6,4.8l4.6-.2,1.5-4.7,6.9.8c0,4.8,0,9.7-.4,14.4,9.4,1,2-13.3,14.6-6.7l-7-5.1,1.3-1.7,7.3.8c2.2-8.6-5.6-14.8-13.1-17-2.8,7.1-8.4,7.7-15.7,7.4l7.2-6-7.2-2.4,18-13.2,6,12,8.9-8.4-6.5-8.3c5.5-.5,12.4-.5,12-7.2l3.5,4.7c8.2-3.8,17.9-5.4,18.1-16.7h-16.8c2.4,4.5,1,7.8-4.8,7.2,6.8-11.4-6.8-8.2-9.7-10.9-3.6-3.4.4-10.1-7.1-8.2,1.9,5.4,4.2,15.8,3.2,23.1-2.2-5-5.5-9.8-9.5-13.6-.7,8.4,1.7,13.4,8.7,16.1-.3.8-.7,1.6-1.1,2.2h-25.2v-9.6c-14.5,8.1-24.2,2-38.4-3.6l1.3-6c16,4.9,28.5,3.2,34.1-7,0,0,0,0,0-.1h0s0,0,0,.1c.4,2,.9,3.7,1.8,4.3,2.8,1.8,8.6-1.9,10.1,5.2l6.5-3.5c-4.2-3.3-9.1-5.3-14.5-5.2l9.6-8-12.3-23.3c-.6-1.5-2.6-1.6-4.8-1.5.5-.6,1.1-1.3,1.7-2.1l-2.9-2.2c1.5.5,2.6,1,2.8.9l.2-4.7v-3.6c.1,0-6.9.5-6.9.5-.6.6,1.9,2.3,1.3,2.9-1.8,2.6-9.4,8.8-10.8,11.7,0,0-.2-.1-.4-.1,0,.2,0,.3.2.5-3.7,7.7-5.8,16.1-6.3,24.2-4.7.6-9.5.5-15.5,1.7-4.9-15.7,1.9-10,5.5-17.4v-.3c2.1-4.5-.2-9.2,1.4-13.6l-10.2-.4-6.4,9.8c-7.9-16.1,13.8-14.3,7.2-28.8l7.4-1.3c.4-7.3.5-13.6-6.2-17.9l-.9,1.3c-2-.5-3.8-.9-4.1-2.1,0-.5-.2-1.1-.2-1.7,1-2.9,2.9-5.4,7.7-7.1l.2,1.3c-1.2,1.6-2.2,3.4-2.6,5.6l3.3-1.1.2,1.5h6l-.2,6c6.1,1.3,7.5-4.9,7.6-9.3h1.1v3.4l4.2-.8.6,2.6c1.5-.9,4-1.2,6.5-1.4-3.2,5.6-14,17.7-8.9,23.6-12.8-1.7-6.3,1.5-12,9.6l19.5-7.3,11.9,3.4v-.2s9.5,2.7,9.5,2.7l.4-18.9-7.2-1.2c2.2-3,6.8-3.7,6.7-9h-14.4l1.6-5c1.4-3.1,4.3-9.3,9.4-10.5-1-1.3-1.8-2.6-2.5-3.8,2.8-.5,9.2-2.1,10.1-2.9.7-.6,1.2-1.4,1.7-2.4,3,1,6.5.8,10.5-1l-3-7.7c1.6-.5,3.7-.7,6.4-.4.6.4,1.2.7,1.8,1.1l2.4,20.7-6,2.5-2.2-4.7-8.6,5.8,8.4,10.1c10.3-.6,3.1-10.2,10.8-8.9-.3,15,.7,27.4-6.1,41,4.7,7,10,7.2,9.2,15.5h-3.7c-.9,13.6,8.9,12.4,16.1,20.9-5.1,2.1-5.7,1.9-5.1,8.2,14.5-.8,7.5-4.9,8.7-10.5,1.5-7.1,5.7-10.7,2-20.3l7.2.2c1.6-9.2-3.7-9.5-9.1-12.2,4-3.6,8.9,1,16.8-4.4l3.6,9.6,10.8-7.2c4,20.5,7.8,3.7,11,2.9,1.7-.5,11,2.3,13-.6.5-.7-1.9-4.6-1-7.1,1-2.8,5-5.4,5.4-8.8.4-3.9-8.1-11.9-6.8-17.6l7.2,1.6c-1,7.9,1.9,18.2,10.9,17.7-1,1.4-2.6,3.3-1.6,5.7l.2.4,7.2,2.4-19.2,2.4.2,12.9c-9.9.6-5.1,8.6-12.2,8.7l7.2,6-5,11.7c4.4,6.9,21,10.7,17,18.2,8.6,5.6,7.2-22.5,4.8-26.4l7.2,2.4,1.3-17.1-8.5-3.3c2.5-9.6,10.4-11.5,15.9-15.1,5,3.4,10,8.2,15.2,11.9l-2.4,4.3,9.6,1.2-9.6,18c2.3,2.4,14.9-10.3,18.6-18.4,2-.4,4.1-1.2,6.2-2.7l3.8,11.8,19-2.3c-8.4-5.9-30.3-25-38.4-27.6-2.5-.8-4.3,2.7-7.3,2.5-3.5-.2-7.2-2.6-10.5-3.1,1.2-2,1.8-4.7,1.3-8.4l-4.4,2-5.2-8,7.2-8.4c-10.8-1.3-13.8,14.9-16.5,16.6,0-8.8-6.5-6.4-7.3-9.7-1.1-4.3.7-10.5,0-15.1-.7-.9-5.2,2.5-7.3,1.2-3.3-1.9-15-17.5-20.3-20.4l1.4,10.5-4.9,1.5,4.7,9.5c-6.3.8-6.1.2-8.4-4.8l-18,18,7.2,4.8-3.5,3.5h-.7c1.4-5.7-6.6-7-7-7.4-.6-.9,10.3-10.6.7-19.1,6.5,1.6,15,.6,17.9-4.4,1,.4,2.4.4,4.6-.2l2.6-23.8h9.5v-9.7l16.7,15.6-7.1,13.2c13.1,1.1,6.2-14,21.6-12l-1.2,9.6c8.1-10.7,4.9-20.1,1.2-31.2,8.1,4,19.5-2.4,21.6,9.6l4.7-4.8-2.4,12,7.2-7.2c-1.2,12.5,6.5,20.7,7.2,31.2h14.4c2-7.8-5.1-2.8-7.4-6.2-4.3-6.4-14.1-47.8-11.3-54.7.8-2,3-3.4,5.1-5.2,4.4-.7,8.8.7,10.2-3.9-1.2,0-2.4,0-3.5,0,0-2.2-.4-4.9-2.1-8.5-5.9-1.4-7.8,1.3-9.3,4.5-1.1-.6-2.2-1.2-3.2-1.8,2.4-3.6,5.6-6.4,3.3-11.7l.4-.2,11.3,6.8v-9.6l9.6,2.4-4.6,10.9c.5.3.9.6,1.3.8-1.2-.2-2.3-.5-3.1-.9,0,0,.5,2.5.4,1.9l11.9,2.8c1-3.6-1.5-5.1-4.8-5.8,0-2.6-1.6-7.3,1.9-8l13.1,2.4c-2.5,4.5-3.2,11-.3,15.4,2,3,5.2.8,7.4,1.4-.9-4.6-4.5-11.2-4.7-13.3,0-.9,3.5-.9,3.9-1.8,2.5-5.9,7.3-15.6,7.1-21.7-.3-8.3-1-16.8-10.8-16.3l-.3-10.5c5.7-1,15.1,13.3,17.9,18.1,2.2,3.8,1.7,10.2,3.5,12.8,1.5,2.1,9.4.2,9.7,10l9.7-1.4c-3.7,15,10,26.7,0,43.2l-7.2-2.4c-.8,13.7,7.2,17.9,16.8,25.2-.4,13.6-22.3-1.1-28.8-1.2l4.8-14.4c-5.6-1.9-19,7.2-16.6,13,2.8,6.7,37.1,19.5,45.4,13.4v9.6c6.5,0,11.3,2.3,13.2-4.8l7.2,7.2,4.8-2.1,1.1-.5-2.3-21.4Z"/>
</svg>