<?xml version="1.0" encoding="UTF-8"?>
<svg id="Layer_1" xmlns="http://www.w3.org/2000/svg" version="1.1" viewBox="0 0 1200 1200">
  <path d="M314.3,483.9c.7-.6,4.3,1.7,5.7-.7,1.3-2.2-1.1-8.9,3.6-12.4-1-.9-8.1,1.6-9.8,2.4-2.3,7.1-6.9,12.8-9.8,19.6,7,1.4,7.5-6.4,10.4-9Z"/>
  <path d="M956.3,492.9c9.5-1.1,11.7-8.7,13.7-17.1l4.9,1.3,2.4,6.1,2.5-12.2c-6.1.9-13.6-5.1-18.5-4.9-4.6.2-6,5.8-11,4.8,2.4-3.5,0-8.2,2.4-10.9,5.1-5.8,13.6-3.4,17.2-8.7-5.9,2.3-7.4-3.9-7.9-4.1-1.6-.8-4,2.7-7.9-.7-4.1-3.5-6.3-9.8-3.8-14.8,9.8-2.3-.8,8.3,6.2,9.8,3.1.6,6.7-3,6.1-6.1-1.9-4-9.6-6-11.2-8.7-1-1.6-1.1-13.3-6.7-18.9-.6-.6-11.6-8.4-12.3-8.7-2.1-1.1-5.8.7-6.3.2-.9-.8-6.1-13.4-5.3-14.3l18.4,12.3,1.2-7.4c7.7,5.3,15.1-2.4,16-2.4,1.7,0,3,6.8,6.7,8.2,4.1,1.5,9.7-1.5,14.1-.8v17.2s5-1.3,5-1.3l2.5,8.7c4.3-4.3,8.3,2.8,9.9,7.3l16.8-4.5,10,16.9,5-6.1c-10.8-5.4-13.2-14.7-9.8-25.8l-8.6,7.3-8.6-12.3h14.7s-9.8-8.6-9.8-8.6l4.8-2.2-2.3-8.8,12.3-2.5-2.3-4.5-7.5,4.5,4.9-16-7.4-2.4c9.3-3.3,3.9-13.9,5.4-15.5.3-.4,12.2-2.8.8-5.4-6.7,6.7-12.3,12.3-8.7,22.1l-3.7-4.9-1.2,3.1-7.3,1.9,7.4,2.5c-2.1,7.3-9.2,14.7-4.9,22.1l-19.7,4.9-4.9-12.3-4.9,12.3,2.4-27-4.9,2.5,2.4-8.6-12.2-5,4.9-6.1h-22.1c0,0,2.5-9.9,2.5-9.9,1.5-1.5,27,15.7,24.5-5.9-.5-4.5-5.3-9.5-5.1-12.3.2-2.5,9.8-2.5,7.5-8.7-2.8.3-5-1.7-7.4-2.5-.2-8.7-4.3-17.3-12.3-20.9l18.4-13.5c10.1,11.7-8.9,6.3-8.6,17.2l12.3-6.1c5.9-3.6-2.8-13.8,3.7-16,9.4-3.1,15.1,13.7,3.7,19.6l11-4.9,6.2,14.8c-4.8.1-8.8-2-7.4,4.9l7.3,2.5,4.8-11.2,9.9,1.3c1.2,1-20,24.4-2.5,24.5v-9.8s5,10.9,5,10.9l-5,2.6c4.8,5.1,8.4,11.4,14.9,4.6-.7-10.8-9.5-16.4-5.1-27.9h19.6c-1.3,5.6.4,13.7,5.5,16.4,8,4.3,7,7.1,12.5,15,1,1.5,5.8,1.8,6.5,4.3-6,8.7-7,20.9-10.3,28.9-1.5,3.6-9,5.5-9.3,11.5l11.9-2.8,1.6-9.4c8.6,7.6,1,14.2-1.2,22.1l12,5.3-2.2,4.5,6.3-2.2c1.3,10.3,7.8-.8,6-2.6-16.8.6-5.8-19.2-17.2-27,5.3-2.4,11.1,3.8,13.6,4,3.3.2,14.1-7.3,20.8-4l-1.2-4.9c-5.3,4.1-11.5,2.6-11.1-4.9l19.6-2.5-2.4,17.2c6-.8,13.3-1.4,13.9-8.6l-4.1-6c5.6-.7,8.2-2.6,7.4-8.6l-8.6-8.6-9.9,7.3c-1.9-3.6-5.1-5.6-7.7-8.4-3.4-3.6-6.4-9.4-8.6-13.3-.3-.5-3.5,1.7-5.7-.3-5.4-4.9-5.8-16.3-8.6-18.7-12.2-.4-3.3,6.6-8.7,13.7l-6.3-11,5-3.7-12.2-3.7c.1-5.5,30.6-.5,19.6-18.4h7.4s4.9,7.3,4.9,7.3c2.3-13.3-13-13.7-14.7-24.5l7.6-1.5-.2-10.7,12.3-2.5c-2.1,18.5,8.7,22.9,24.6,27.1l-2.5,7.3c4,1.3,6.2.9,7.8-.2C1002.4,114.2,814.7,0,600,0S290.7,66.7,183,172.7c-14,13.7-27.3,28.2-39.9,43.2-8.3,9.9-16.3,20-23.9,30.4-4.5,6.1-8.9,12.4-13.2,18.7-7.4,10.9-14.5,22.1-21.3,33.4-6.8,11.5-13.2,23.2-19.2,35.1h-.8c-.4,1.2-.7,2.4-.9,3.5-.2,1.1-.3,2-.1,2.7.5,2.6,10.5,3,4.2,13.3h14.8s2.4-9.8,2.4-9.8c-1.5,7.1,4.1,5.1,3.2,11-.5,2.8,3.1.8,5.5,1.4l4.9-9.9,8.4,6.4c-4.2,12.5-8.3,24.5,6.5,30.5.6.1,2.7-8.8,8.5-4.9,2.6,1.7-2.6,11.5,3.7,9.8l-1.2-9.8,9.8-3.8-4.9-8.5,6.2-2.2,18.4,18.2-7.3,7.4c2,5.8,9,3.7,9.4,4.2,2.1,2.6,3.2,12.7,10.2,15.5l-7.3,2.4c4.2,4.2,5.3,8.2,2.4,13.5h9.9s-2.5,32-2.5,32l-9.5-2.2-8.9,14.5,16-1.1c11.7-7.1,18.1-21.2,26.9-31.5,4.3-5.1,15.9-7.8,12.5-16.4l7.2-.2c.9-11-11.5-5.6-16.4-1.6-3.7,2.9-10.2,19.1-16.7,11.4l-6.3-18.4,5,6.1c9.9-4.6,1.7-16.3,2.4-24.6-4.9-.6-5-.4-5.4,4.4l-6.9-2,9.8-11-11-11-1.2,7.4c-21.6-2.7,4.1-11.2-4.9-27.1l7.5,12.2,21.9-2.4c.3,9.6-4.5,16.2,2.5,24.5-3.8,2.9-17.1-7.9-14.7,2.5h12.3c1.6,1.4-7.9,14.7,2.4,12.3,1.1-10.4,8.2-14.8,0-24.5,7.3-.4,11.4-3.7,12.5-11l-5.2-2.6c4.4-13.1,5.1-8.4,12.5-9.8,9.1-1.7,17.9-4.4,27-6.2l-2.7,8.4,5.2,2.6-4.5,9.5,9.4,6.5,13.6-27,8.5,4.8c-1-8,6.8-2.4,12.3-4.8,1.9,7.7-5.4,3.6-8.6,7.2-.9,1-4.9,23.4-13.5,22.3l12.3,1.2c-5.3,6.1-13.4,4.2-19.6,1.2v12.3s22.1-9.8,22.1-9.8l2.2,8.7c-7.2,1.9-3.5,7.8-5.9,13.3-1.3,2.9-13.3,22.2-14.9,22.2-7.5,0-23-5-29.4,4.9-6.8,10.5,12.4,11.6,11.2,17.2l7.3-4.9-2.5,9.8-7.3-2.5c2.3,7.6-6,8.9-6.8,10.3-.6,1,2.3,4.6.9,6.9-.9,1.4-20.1,14-23.5,16l7.3,6.1,7.4-7.3-2.4,9.8c10.8,4.4,5.4.3,9.8-3.6,6.9-6.2,12.3-8.9,16.1-18.4,14,.6,27.4,27,38,12.3l-10.6-2.4-6.5-9.9c4.2,3,20.8-.2,21.8.3,1.3.7,1.4,9,7.7,7l-2.4-7.1c5.4-1.1,9.3-4.2,9.8-10.1,7.4,2.6-5.7,16.2-2.5,19.6,6.1.6,9.9-5.2,14.7-7.4.6-1.8,2.5-3.7,2.4-6.1l-7.4-2.8-2.4-7.1,4.9-3.7,1.1,4.9,11.1-4.9,4.9,12.3-2.2-24.4c2-3.3,27.5,3.5,34.8,1.8,6.6-1.6,12.6-11.3,16.7-13.1,3.3-1.5,7,1.5,7.3,1.3,1.3-.9-.7-11.2,4-12.1l9.5,2.3,1.3-7.4c10.2,4.1,1.3,10.9.8,16.3-1.1,11.7,4.7,24.6-10.3,30.8l2.2,6.9c-4.8.3-10.2-2.1-9.9-7.3l-6.1,2.4,1.3,4.9-9.8-2.4c-.5,9.8,3.4,8.6,4.5,10.1,3.5,4.8-5.5,8.9-8.9,3.6l4.2-17.6-3.9-1.5,1.5-4.2-12.1-2.7,2.5,11-9.8,1.3,14.7,8.6-4.9,7.3c12.7,4.9,5.7,13.1,5,23.4l9.8-2.4-7.3,14.7c11.7-4.4,14.1-17.5,26.7-18.7l12.5-10.8-2.4,31.9,8.4-2.4c3.9,1,3.1,21.6,1.2,25.4-4.3,8.2-23.1,27.1-30.3,36.3-2.8,3.6-5.3,7.4-6.6,11.9l-12-2.2,7.4,8.6-15,20.6-9.5-2.2c8.8,9.9-3.7,28.5-17.2,24.6l7.4,2.4-2.5,7.3c5.6-.9,6.6.4,8.6,5l29.5-38.9,7.4,4.5,3.7-5c9.1,4.7,10.6,12.8,8.6,22.2,2.7,6.4,21.9,4,28.2,4.8.5-5-6.3-.9-9.4-2.8-1.1-.6-6.5-17.8-13.5-20l3.3-18.9-5,7.3-14.7-4.9c1.8-7,7.7-11.9,11-17.4,1.7-2.8.5-7.5,1.9-9.2.8-.9,4.7.2,6.9-2.1,4.3-4.5,10.1-17.9,15.9-20.5l8.5,15.9c-6.9,8.3-12.7,13.3-23.3,16l-2.4-7.3-8.6,11,8.6,8.6,3.6-7.3,4.6,8.5-2.1,11.2,7.4-3.7,4.8,2.5-4.6,24.2,19.4,13.9c.6-4.2,1.6-12.7,4.7-15.5,2.7-2.5,6.2-1.2,7.1-1.9.4-.3-3-6.6,4.9-7.5l-2-4.5,9.8-1.3c.9-5-3.6-2.5-5.4-7.1-1.9-5.1-4.7-27.4,2.9-27.3-1.8-4.7-11.6-3.1-12.2-3.8-1.6-1.6,1.4-16.8,3.7-19.5.6-.7,14-9.7,16.1-10.9,5.9-3.5,15.3-6.4,21.9-8.8l-4.9-12.2h12.3s-2.3-7.1-2.3-7.1l12.1-5.2c13.5,26.8,7.7-6.4,16.1-9.8l4.9,7.3,8.6-4.9-2.4,17.2c10.9-2.1,9.7,9,9.8,17.2l9.8-9.8-2.4,9.8h9.8c2.5-13.2-7.1-12.6-9.8-23.3l9.8,3.7-9.8-17.2h12.3s-4.9,6.1-4.9,6.1c9,1.4,19.3,37.9,11,38l-8.6-4.8c.5,7.3,7.8,8,9.8,9.9,2.6,2.3-10.2,3.9-7.3,9.8h12.3s0,9.9,0,9.9l7.4-4.9,4.8,3.7c-5.3,2.7-10.5,9.7-14.8,12.2-2.9,1.7-10.7-3.1-9.7,6.2,11,2,25.7-1,33.2-9.8l6.1,9.8h-9.8s0,7.3,0,7.3c4.7-1,9,3.3,12.2,3.9,4.5.8,5.5-7.2,9.9,0v13.4s-7.4,0-7.4,0l-2.4-4.9-2.3,16-8.5,1.3-8.9-9.9,4.8,11.1c-2.4,7.7-11.3-5.8-12.3,2.5-.3,2.7,6.5,7.8,2.5,13.4h14.7c2,7.6-8.3,6.4-9.4,7.7-4,4.7,3.1,10.9,5.9,14.6l13.1-7.2c2.8,8.4,18.4,6.2,12.6,19.3l7.3-2.5c2.9,8-.5,10.2-2.4,17.2l4.6-2.2,10.2,26.8,19.7,2.4-4.9-7.3,14.7,2.5-7.5,15.9c6.1,2.3,6.5,7.4,7.5,13.5-5.1,3.8-13.1-.2-15.8.4-2.2.5-6.3,12.3-18.6,7v14.8c3.4.1,6.8.4,9.9-1.2,4.3-2.2,3-8.5,7.3-8.6l-7.4,12.3c5.3,13.3,19.4-10.7,12.3-17.2h14.7c-5.7,22.4,7.4,10.6,9.6,12.5,1.2,1-1.5,5.7,2.7,4.7v-24.5c-13,2.6-4.7-10.1,2.5-13.6l-3.7-6.1-3.6,4.9c-2.9-8.2-9.9-12-7.4-22.1-10,5.8-6.1-.7-9.9-3.7-1.2-1-11.5-.4-14.5-3.9l-.2-14.5c7.8,3.3,9.7-.7,14.7-6.2l-9.8-1.2,2.3-20.6-7.2-4c4.4-10.7,7.8,5,17.2,2.5l2.4-9.8,5.1,13.5-5.1,2.4,7.4,9.9c-14.4,6.6,2.3,29.5,5,9.9,1.4-10,2.2-20.6,2.4-30.8l14.8,5-2.3,7.1,7.2,5.1c-6.5-.5-7.6,6.9-7.3,12.3l14.7-7.4c-1.1,7.1-2.6,14.2,3.7,19.6l-3.7-29.5c10.5,4.2,19.1,5.9,19.7-7.4,4.1,0,1.4,5.3,7.1,6.3,4.4.8,7.9-2.2,12.5-.2,7.7,3.2-4.7,3.8-2.5,6.2,13-2.3,11.7,7.4,18.4,14.7,15.7-15.3-10.6-12.7-10.8-25.8-5.8-3.3-23.2,2-24.8-5-.2-.7,3.3-13,3.8-13.6,1.9-2.3,5,.1,5.6-.4,1.5-1.3,3.2-9.1,5.3-11.7-5.4.6-8.5,4.7-12.3-1.3,8.1-8.2,1.6-20.4-3.5-8.7l-8.8-2.3c4.4-5.6,9.6-4.7,7.4-14.7h-19.7c.3,5.7-2.7,12.8,4.7,12.5l.3,3.5c-6.6,8.6-10.5,2.1-19.4,5.9l-5.2-8.4c2.6-2.1,3.6-.4,5.1-4.7,4.5-12.9-.1-36.3,5.8-50.6,10.6-9.1,9.2,12.7,12.4,12.3,3.8-6.8,4.9-8.8,13.5-7.3l-2.5-9.8-17.2,2.4,2.5-7.3h-7.4c-2.2-11.3,7.5-6.3,12.3-13.5l-12.3,1.2c3.4-4.7-1.6-9.6-1.5-11,.2-2.7,10-16.1,6.4-23.4,5.5.9,3.8,16,4.9,17.2.4.4,7.4-5,9.8,1.2,3,7.6-7.7,6.1-4.9,8.5,2.2,1.9,11.6,4.8,14,8.2,4.4,6.1-2.8,17.3,8,22.7,1.4,3.4-8.8,8.2-11.3,11.8-4.8,7.1-2.4,9.6,3.9,13.9,3.3-9.5,17.3-11.6,9.9-24.5h4.9s19.5,35.3,19.5,35.3l-17,12.6,5.1,8.5,10.9-4.8,2.2,4.7,11.2-2.2-2.2,13.3,9.6,5.1-7.4,6.1h9.7c-2.1,10.4,9.6,12.9,5,22.1l12.2,2.5,2.6-17.2c4.1-1,1.5,3.2,2.9,4.4,1.2,1,6.6-1.7,9.2.4l2.6-7.3,2.5,24.5,6.2-27.2,6.1.2-.3-7c-6.6-2.2-21.8-12.1-14.4,2.1-5.9-2.6-7.8,4.7-9.1,5-5.9,1.2-13.5-3.7-20.4,0v-27s9.8-1.3,9.8-1.3c1.7-4.7-4.4-3.1-4.9-5.2-.5-2,2.4-8.2,2.1-9.5-.2-.7-8.6-4.5-4.5-13.5l3.7,1.9,1.3-4.3,4.9,1.2v33.2s16.8-23.8,16.8-23.8l.4-5.7-7.4-1.2,8.6-6.1c4,1.3,2,21.8,17.7,21.5,8.5-.2,6-9.6,14,4.5,2.7,4.7,6.4,5.7,4,15.8l8.6-12.2,9.8,5,3.7-5,10.2,24.2,25.5,7.7,3.7-7.4,2.5,9.8c-.4-6.2,4.7-6.3,9.7-7.5-.5-18.1-17.5-27.2-34.2-20.5-3.2-9.3-16-10.8-18.4-18.8-1.6-5.7,1.6-11.1-1.3-17-8-2.7-1.4,7.2-6.1,7.3-2.7,0-2.5-5.3-1.5-7.1l-7.1-.2c-3.5-15.1,12.4-.3,17.2-9.8-14.1,1.1-12.7-16.6-25.8,0-12.2-10.1-2.6-7.7-.9-13.4,2.1-7.1-1.8-14.4.9-20.9,7.9,8.4,23.8,3.5,23.7,16.9l9.5.3v22.1s14.7-2.5,14.7-2.5c-3.5-11.6-1.7-19.7-9.9-29.4h-4.9s1.2,7.3,1.2,7.3c-4.6-10.3-10.7-7.9-15.9-11.2-1.8-1.1-2-4.9-3.1-5.5-4.4-2.5-11.1,3.1-13-5.6l-8.6,5-4.9-8.6,10-5.2c-.6-10.6.4-21.2-.3-31.8-.6-9.5-8.3-23.5.1-28.2l9.7,28.5c12.9-4.9,7.6,4.2,17.3,5.9-5.6-18.6,1.9-9.2,5.2-13.7,10.2-14-4.9-19.5-7.1-27.4-.8-2.9-2.7-12.3,2.9-10.3l18.7,8.3-4.9,1.2,5,3.6c1.9,6.6-12.1,11.1-9.9,20.9,1.2,1.5,5.8-6.3,8.5-6.6.7,0,13.8,2,14.5,2.3,5.5,2.3,14.3,19.5,28.6,14.1v7.4s-8.6-4.9-8.6-4.9c-4.4,7,5.8,12.3,9.9,17.2l-1.2-9.8c6.9,0,11.4,2.4,13.5-5l11,7.4-1.3-9.8c5.2-6.4,3.2,2.6,4.8,2.4Z"/>
  <path d="M1146.9,379.9l11.1,4.9.2-.4c-1.5-3.8-3-7.7-4.6-11.5-2.4-2.5-4.1-5.8-4.3-10.2l-9.8,6.2,9.8,1.2-2.5,9.8Z"/>
  <path d="M1129.8,348l7.3-2.5-3.8-9.9c.7-.8,1.6-1.4,2.6-2-1.7-3.4-3.4-6.8-5.2-10.2-2.2,2.9-4.6,5.7-8.2,7.4l7.3,17.1Z"/>
  <path d="M1085.5,313.6c6.4-.5,9.1-1.5,11,4.9,3.8-8.8,23.6-4.7,25.4-5.4.3-.1.5-1.5,1.4-3.1-1.1-2-2.3-4.1-3.4-6.1-4.9,3.9-11.9,5.4-19.7,3.5,2.5-6.5,11.8-4.1,14.1-6.7.6-.7,1.2-1.9,1.9-3.3-1.8-3.2-3.7-6.3-5.6-9.4-8.1,8.5-19.9,13.4-25.1,25.6Z"/>
  <path d="M1026.5,375c3.9-1.2,10.7-8,16.8-7.7l.4-24.2-26.6,17.6,4.5,11.8-4,2.4c2.9-.2,6.8.8,8.9,0Z"/>
  <path d="M1016.6,375.1l.2.3.8-.5c-.3,0-.6,0-.9.1Z"/>
  <path d="M1019.1,408.2c4.7,10.4,15.1,2.2,7.4,18.4l12.2,6.2-4.8,8.6c6.5.9,6.2.2,8.6-4.9l11.1,4.9c-4.8-7.3,1.7-8.3,3.2-12.3,2.6-7.2,4.3-14.8,6.7-22l-8.3-2.6-8.9,7.5v-7.4s-14.7,0-14.7,0c-.2-10.6,6.7-3.8,12.3-6.1-8.9-5.9-7.9-13.7-7.4-23.4h-9.8s-2.5,6.2-2.5,6.2c10.4,3.8,5.4,23.7-4.9,27Z"/>
  <path d="M601.3,756c-2.4-8.6,7.2-8.1,9.8-14.7-10.5,4.2-10.3.6-16-7.4l-2.6,5.1-10.9-2.7c3.2-14.5-11.9-29.4,14.7-22.1-5.1-11.3,11.5-17.2,6.7-27.9-.6-1.5-12.9-13.1-15-14-15.4-6.5-12.7.3-18.1,2.5-2.4,1-6.5-.5-10.5,1.5-1.3.7-5.7,8.8-9.8,9.7l2.4,6.2,7.4-1.2c-1,8.3-2.1,17.1-12.3,16,14.5,11.9-1.2,18.7,2.4,34.4l-4.9-12.3c2.9,12.1-10.3,4.1-14.2,13.4,2.2,10.2,4.4,4.3,10.5,5.1,10.8,1.4,28-4.4,34.6-3.1,2.6.5,2.6,5.4,3.8,6.2,1,.6,17.4,0,21.7,5.4Z"/>
  <path d="M483.4,763.3l-14.4-2.3c-3.3,6.3-3.9,14.3-12.5,12l-2.6-12.2c7.3,7,18.1-4.1,12.2-9.8-2.8-2.8-6.5,1.7-4.9,4.9l-5.2-7.3-7.1,2.4-7.4-22.1c7.6,9.8,15.9-3.9,4.9-1.3l4.9-13.5-9.8,2.5v-7.3c-.1,0-12.3,0-12.3,0l2.4-4.8-6.1-2.6-8.5,8.6,7.4,7.4-7.4,1.2,2.5,9.8-18.4-12.3c-9.4,10,1.4,29.3,14.4,24,5.9-2.4,1.4-9.3,6.4-9.3v14.7s7.4-2.5,7.4-2.5l2.5,9.8-12.2,3.7c7.9,10.2,6.3-5.7,14.7,0-3.7,1.3-6.6,9.8-7.9,10.5-3.8,2.2-11.8-2.2-11.8,3,7.9.8,22.3-1.3,19.7,9.8l3.7-7.3,6.4,12.2,30.2-11.9c1.5.3,23,30.3,18.7,15.7-2.8-9.7-16.5-15.7-9.8-25.8Z"/>
  <path d="M223,454.8c-1.7-4.2,7.6-8.4,4.8-11-3.7-3.4-12.9,7.1-16.8,7.8l2.1,4.5c-15.1-1.5-22.8,11.9-35.5,14.9l-2.5-5.1c-4.2,4.8-14.7,5-16.8,10.5-.7,2,.8,5.8.3,6.3-3.6,4.1-15.8,4.7-21.3,5l-.3-14.4,9.8,2.5-2.4-6.3-22.1,1.4-5-9.8,2.6,15.7-5,1.6v4.8s4.9,1.2,4.9,1.2l-12.3,13.5c13.5-2.4,16.8,7.7,30,2.3,2.3-.9,3.2-7.8,11.7-4.7l-9.8,31.9h17.2c.3-10.4,8.8-17.8,11.9-26.4,2.3-6.3-.3-12.3,4.2-17.6,8.7-10.4,38.4-20.2,50.4-28.5Z"/>
  <path d="M468.5,593.8l-12.2-4.9,17.2,9.8-9.8,12.3,9.6-.2c5.6-6,2.1-18.6,2.7-19.3,1.5-1.7,11.2-4,12.1,1.2,1.2,6.8-5.8,11.7-9.7,15.8l7.4-1.2,2.4,23.3-8.6-4.9-6.2,7.3c8.3-1.1,13.5.6,18.4,7.4,12.6-14.3,3.2-36.6,3.7-54l2.4,12.3h12.3s2.4-22.1,2.4-22.1c-8,4.6-12.1-.4-2.4-3.7l-7.4-6.1c12,2.4,12.9-7.3,17.1-15.8-1.9-8.7-26-4.2-31.6-1.1l-2.6,15.8c-7.8,5.9-8.1-8.7-12.4-3.8-2.7,3.1,5.5,16.8,9.8,18.4-4.1,6.5-14.4,5-14.8,13.5Z"/>
  <path d="M301.4,679.8c-15.9,10.9-15.5-.3-14.7-14.7l2.5,9.8c5.2-3.1,4.2-9.3,12.3-7.4-4.9-19.2-12-16.3-25.9-24.6-5.5,8.4-13.5,4.7-11.4,19.3l-14.4,2.9v19.6s9.8-2.4,9.8-2.4v14.7s7.4-4.9,7.4-4.9l1.2,9.8,17.2-17.2c3.9,10.1,17,6.1,15.9-4.9Z"/>
  <path d="M522.7,700.7c-1.9-10.2-16.9,5.7-19.7,3.6,3.3-4.4-1.9-6.3-3.7-12.3l-1.4,7.2h-7.1c0,.1,4.9-7.2,4.9-7.2-7.1-2.3-11.8-5.4-19.4-2.2,7,12.5-22.2,30.8-22.3,32.9,0,.9,4.4,5.2,7,3.2.4-.3,1.3-10.4,6.5-2,2.4,3.9.9,10.3,1.2,14.8l12.3-6.2c2-4.8-4.9-3.2-5-5-.4-6.5,4.7-19.4,13.4-15.9l2.5,4.8,8.8-2.2c2.3,7-4.3,4.2-4.9,4.9-1.4,1.8-1.1,5.8,3.4,4.7,5.9-1.6,24.8-16.8,23.6-23.1Z"/>
  <path d="M1107,511.7c-5.5,14.9,10.2,33,19,45.1,7.3-3.1,6-27.5,2.3-31.7-2.1-2.4-7.3-3.5-8-6.5-.5-2.1,2-5.9,1.5-9-1-5.9-6-10.1-1.9-16.5-24.6,6.1-16.2,0-27.9-11.4-1.3-1.3-8.6-6.2-8.9-5.8-2.5,10.1,4.5,13.9,7.4,22.1l4.9-4.9,11.8,18.7Z"/>
  <path d="M537.5,757.3c-5.7,2.1-15.8,11.5-22.2,14.7l9.8,1.2-4.2,13.5,6.8,11,9.8-9.8v12.3c6.4,2.6,4-4.4,6.5-4.9,3.9-.9,9,.5,13.2,0l-7.4-22.1,7.5,1.3,4.7-7.4c-11.3-4.1-11.2-14.6-24.4-9.7Z"/>
  <path d="M704.5,748.6l7.4,4.9-10,20.8,5.1,2.6c-4.2,6.2-8.9,2.3-14.7,1.2l4.9,9.8c3.8,1.1,1.6-3.1,3.1-4,2-1.1,7.5-3.5,9.1-2.3l3.6,13.6c3.9-2.1,2.3-8.2,5.3-10.1,2.1-1.4,6.4.1,7-.3,2.3-1.3,4-8.1,11.1-6.9l-13.7-31.8c-8.5,1.1-5.8,7.1-18.3,2.3Z"/>
  <path d="M1197.7,569.9c-4.4,1.2-8.9,1.7-13.9-.7l2.1,9.6-4.6,2.7c12.4-2.3,2,10.8,17,7.7-.1-6.4-.3-12.9-.6-19.2Z"/>
  <path d="M399.8,705.5c.6.7,9.4,6.7,9.8,6.2.5-6.3.6-12-4.9-16l5.1-2.7-2.6-13.2c7.5-1.4,6.9,12.9,9.9,17.2l7.3-9.8-7.4,2.5c-5.6-11.9,9.4-5.7,3.9-19.8-2.3-5.8-8.6-7-10-14.6l-6.1,4.9-3.7-14.7c-8.5-1.6-4.3,15.7-6.1,19.6l12.3-2.4-.4,9.5c-13.7-2.5-11.2,28.4-6.9,33.5Z"/>
  <path d="M982.3,495.5l4.9-7.4c10.3,5.7,20.2,9,32,8.5l2.4,13.7c9.8-11.4,10.5-2.7,18-3.1,1.6,0,15.5-6,16.4-8-4.6-2.8-9.8-4.5-9.9-11-7.1,6.9-16.4-1.2-27,2.4-2.3-8.6,11.5-8.3,1.2-17.2l-11.7,12.9c-5.5,2.5-9.9,6.7-15.3,1.8-5.5-4.9-.5-9.8.1-14.6,1.7-12.5,1.1-6.9,5.5-16.7,2.7-6,.8-11.8,8-14.2l-8.7-11-1.3,7.2-9.8.2c-1.9,12,6,12.3,7.4,22.1l-4.5-2.1c-6,7.9-4,12.6-2.9,21.8l-7.3,1.3,2.5,13.5Z"/>
  <path d="M1150.5,671.7c-2,0-5-5.5-6.1-4.2l5.3,21.8,36.7-15.6-2.7-16.1c-5.1,1.3-31.4,14.1-33.2,14Z"/>
  <path d="M1108.8,429.1l-2.5,5-11-5,4.9,12.3-9.8-2.5c-2-2.7,8.5-12.8-6.7-11.6-6.7.5-10.3,8.5-20.4-.6l2.4,9.8h-7.4c-.4,14.8,9.9,9.8,12.2-1.3,4-3.6,6.9,2.9,10.6,4.3,9.6,3.6,13.9-.8,14.1,14.2l9.8-2.5c-2.1,9.6-5.8,17-2.4,27l5-22.8c8-3.1,1.6-8.1.3-15.5l6.9-3.6-6.2-7.3Z"/>
  <path d="M1045,547.1c1.3-.3,1.2,3.6,1.8,4,.7.5.8,2.2,3.1.9,9.6,1-3.3-16.2-7.7-19.3-5.2-3.6-26.3-12-18.1,2.1l-9.8-2.4c-2.6,13.9,4.1,8.6,10.7,12.7,6.8,4.4,5.7,13.3,20.1,2Z"/>
  <path d="M789.3,672.4c-5.3,6.7-12.1,12.6-6.3,21,4.9,7.2,18.5,6.4,10,20.7,16.2,2.7,14-13.4,17.2-24.5-5.5-.9-10.6-2.4-15-6.1-7.3-6.2,1.6-11.3-5.9-11.1Z"/>
  <path d="M308.9,505.3l-2.5,12.3,12.3,2.5c-.4-4.6,8.9-19.4,12.4-21.1l12.2,3.8-2.4-9.8,15.7-2.5c6.4-3.3-5.7-7-7-12l-8.7,2.2,2.5,4.9c-18.2-2.1-11.6.9-17.1,8.9-2.2,3.1-10.2,1.6-12.4,7.1l4.7,2.3-2.3,8.8-7.3-7.4Z"/>
  <path d="M210.5,404.5c-2.6,9.7,12.7-.9,17,5.1l-1.1,14.5,18.4-16c1.4-5.6-9.2-7.4-9.9-10.3-1.6-6.6,2.7-13.8,2.5-20.4-14.7,1.4-12.2,28.5-27,27Z"/>
  <path d="M1019.1,520l-31.9,2.5c3.5-11.8-9.2-14.7-4.9-24.6l-7.4,12.3c-6.4,1.3-3.7-1.5-6.1-4.9l-13.5,11.1,18.4,20.9,1.2-22.1c5.2.3-.3,9.2,7.3,7.4l-4.9,7.3,8.9,4.8,5.5-1.9,1.5,4.5c7.4-14.1,23.8-2.5,25.8-17.2Z"/>
  <path d="M343.2,527.4v-4.9s-6.2,0-6.2,0l1.3-4.9h-7.4s2.5,9.8,2.5,9.8c-10.6-2.9-10.7,5.6-14.9,8.5-3.8,2.6-14.5,3.6-19.5,6.3l7.3,3.6-9.8,3.7,4.9,3.6c-4.3,3.8-8.5,7.1-7.3,13.5l4.5-1.9,1.6,4.3c10.4-4.1,5.3-21.2,6.2-22.1,4-4.3,10.3.8,13.5,4.3,13.4-3,10.5-21.2,23.4-24Z"/>
  <path d="M1171.5,458.6l2.5,17.2,3.6-4.9,6.2,2.5-4.9,9.8,5.9-2.6,1.9,4.4c.2.1.4.2.6.3-1.3-6.7-2.7-13.4-4.3-20-4-.4-8.5-3.2-11.6-6.7Z"/>
  <path d="M982.2,650.3l-19.5-5.1v-7.2c-.1,0,7.2-2.4,7.2-2.4l-8.9-2.3c-6.8-1.4-.4,4.3-.8,8.1-.2,1.8-3.6,1.6-4.1,2.4-1.7,2.9-4.4,5-2.4,8.9,6.5,12.8,24,1.3,33.5-.9l4.8-16.3c-2.8-2.7-16.2,8.9-9.8,14.7Z"/>
  <path d="M724.2,714.2v19.6s-9.8-7.4-9.8-7.4c1.8,8.3-5,7.4-7.4,12.3l15.9,5.1,3.7-5,4.9,9.8c3.4-8,7.6-13,2.7-21.9l4.6-2.6c-8.7,2.4-8.1-7.1-14.7-9.9Z"/>
  <path d="M1112.5,598.7l-4.9-3.6c4.3-3.8,8.5-7,7.4-13.5-4.7-.1-21,2-22.1,6.2-1.2,4.5,4,7.7,4,9.7,0,2.9-10,12.2-.3,18.4,6.5-6.7,3.4-18.3,16-17.2Z"/>
  <path d="M921.7,589.1c4.3,1.4,2.2,7.6,6.4,7.1-3.9-13.2-1.8-9.3,4.9-18.4l-4.9-3.7-4.9,4.9v-9.9s-14.6.2-14.6.2l.2,19.2c4.1,1.2,8.9-.8,12.9.6Z"/>
  <path d="M190.7,554.3c2.4-6.4,6.3-12.6,10-18.4,6.1-9.5,19.3-15.7,2.7-20.6-8.6,9.1-12.8,29.1-21.2,36.7-2.8,2.6-9.7-1.2-12.3,4.8-4.9,11.4,15.8,2.1,13.6,12.3h-9.8s7.3,4.9,7.3,4.9l-12.3,2.5c12.8,5.2,13.1-6,24.5-4.9l-7.3-7.3,8.3-2.7,5.4,7.4,8.2-2.5.2-7.1c-6.2,3.4-15.2.9-21.4-1.9-3.3-1.5-3.9-.3-3.1-5.5l7.2,2.3Z"/>
  <path d="M554.4,623.3l-24.4,4.9c1.7,6.9,20.2,2.2,22.1,4.9l-2.4,17.2,5.9-2.1,4.3,6.6,14.3-3.3-7.4-11.1-2.4,4.9c-12.3-.3-2.9-14.4-10-22Z"/>
  <path d="M450.2,638c-6.6,14.4-8.8,10-20.8,15.9,1.8,1.7,7.5,20.8,12.2,16l9.8-27c3.3,12.6,12.8,12.3,7.8,29l11.9,5.3-4.9-8.5,9.8-8.6c-7.4-2.9-4.8-7.1-14.7-2.5.3-8.7-5-14.4-11.1-19.6Z"/>
  <path d="M75.7,588.4l11.9,5.3,12.3-27c-8.9-5-28.3,14.6-24.2,21.7Z"/>
  <path d="M279.4,572.9l-4.9,3.7h7.4c3.2,12.8-8.3,2.3-7.4,12.3,6.3-4.1,4.2.4,5.8,1.3,2.9,1.7,4.9,4.5,8.9,3.6l7.4-19.6c-6.5,1.3-12.5-8.4-15.9-9.1-5.5-1.1-10.8,6.4-1.3,7.8Z"/>
  <path d="M1134.6,438.9c8.7,1.6,11.3-7.3,18-10.4,5.7-2.7,6.3,5.3,9.4-11.4l7.6-.8,6.8-.7c-2.4-2.4-5.4-3.8-8.5-4.4-3.7-.7-7.6-.3-11.1.7l2.5,7.3c-8,1.2-18.7,1.5-22.1,9.8l4.9,1.2-7.4,8.6Z"/>
  <path d="M402.8,837.7c-1.7,2.9-5.3,26.8.6,26.4l4-7.2,7.1,2.3-2.5-27c-.3-.4-8.9,5-9.2,5.5Z"/>
  <path d="M365.4,692.1l-14.6,7.6c0,11.6,9.8,26.5,22,21.9-7.9-8.6-11.3-17.9-7.4-29.5Z"/>
  <path d="M1078.8,394c8.4,7,17.9.9,26.3-1.8l-5.1-3.8,2.6-8.5h-9.8s2.5,4.9,2.5,4.9l-19.7,2.5c-.2.3,2.4,6.1,3.1,6.7Z"/>
  <path d="M530,691l7.4-1.4c-5.8,21.4,5.9,2.7,14.7,12.3,2.5-6.1-6.9-9.9-7.3-11.6-.7-3,.9-9-.2-10.3-2.6-3.2-13.4-.2-16.7,2.6l2.1,8.4Z"/>
  <path d="M736.4,684.6c2.9-2.1,2.8-8.8-1.4-11.9-4.6-3.4-12-4.4-17-7.5l-5.8,5c-2.8,6.5,21.7,16.4,24.2,14.5Z"/>
  <polygon points="63.4 608.2 75.3 618.3 81.7 596.2 70.7 591.5 63.4 608.2"/>
  <path d="M928.2,674.8c2.1.2,5.3-.7,6.8.5,1.7,1.3.4,7.6,4.2,9.3,10.3-9,7-15.4,3.7-27-19.3,1.5-6.6,6.6-14.7,17.2Z"/>
  <path d="M1063.4,500.4l9.8,4.9v-7.4s-12.2-3.7-12.2-3.7l4.9-4.9-5.5-7.9-11.7-.7c.3-7.8.6-8.2-7.5-7.3-2.3,8.9,4.8,7.5,8.9,12.2,2.9,3.3,1.1,6.3,1.6,7,2.2,2.9,11.1,3.4,9.1,12.8l2.4-4.9Z"/>
  <path d="M386.3,512.7c-9.8,13.7,4.2,27.5,1.3,41.7,12.5-3.7,3.4-41.6-1.3-41.7Z"/>
  <path d="M923.3,532.3l-2.4-7.1,7-3.8-5.8-10.9-13.6,4.7c1.9,7.2,4.3,12.7,0,19.6l14.8-2.5Z"/>
  <path d="M762.3,679.8c-6.2,3.7-8.3,12.3-3.9,18.1,1.5,1.9,4.8,1,6.7,2.3,1.7,1.1-.6,5.1,3.2,4.1l7.4-14.7c-8.5,1.9-8.1-5.4-13.5-9.8Z"/>
  <path d="M402.3,775.6l-2.3,19.5c20.5,7,20.7-16.4,2.3-19.5Z"/>
  <path d="M586.6,957.5c6.2,11.2,9.4,4.7,15.8,4.8,1.4,0,1.3,3.8,2,4.2,3,1.6,6,.7,9.2.8l-7.3-16.1-19.7,6.4Z"/>
  <path d="M761,846.9l-22.1-2.5c-.2,6.8,2,14.3,9.8,14.7,2.2-4.4,10-7.8,12.3-12.3Z"/>
  <path d="M748.8,859.2c-10.5,21.4,21.2,31.2,9.8-2.5-3.3,1.3-6.1,2.7-9.8,2.5Z"/>
  <path d="M920.4,650.7l-11.9-.4c-9.6,9.5,28.8,37.5,11.9.4Z"/>
  <path d="M721.8,787.9l2.5,29.5c15.9,3.1,7.1-25.8-2.5-29.5Z"/>
  <path d="M507.9,832.2c3,4.7,5.6,7.2,5.2,13.5-.4,6.1-10.5,4.5-7.7,13.5h14.7c-2.2-9.8,1.3-18.6-6.1-27.1h-6.1Z"/>
  <polygon points="1122.3 687.1 1135.8 699 1144.3 693 1135.5 680.1 1122.3 687.1"/>
  <path d="M642.8,734.8l-2.2-8.3-20.7,7.1-1.4,7.6c10.5-2.4,16.2,5.2,24.3-6.4Z"/>
  <path d="M1067.1,458.8c1.9-1.3,5.1,1.4,3.6-5.1-8.3.9-14.6,2.4-22.1-2.5l-2.5,14.7c8.4,1.8,14.4-2.8,21-7.2Z"/>
  <path d="M1058.4,620.8v-7.4c-8.3-4.3-19.1,17.3-17.2,19.7l29.5-12.3c-3.1-8.5-7.3-1.6-12.3,0Z"/>
  <polygon points="1068.3 536 1080.5 537.3 1075.7 548.3 1086.7 552 1089.3 547 1082.6 532.5 1068.3 536"/>
  <path d="M911,678.6c-.2.6,12.7,3,.2,7.2l2.3,8.8c7.3,0,4.6-8.2,14.7-4.9l-9-14.4-8.2,3.4Z"/>
  <path d="M1166.6,603.6h-17.2c1.4,6.9,2.8,8.8,6.3,13.4,1.6,2.1,3.2,4.2,4.8,6.3l6-5c2.8-5.7-8-7-7.2-8.5l7.4-6.1Z"/>
  <path d="M1132.2,598.7l-27,7.4c1.2,13.9,27.9,4.8,27-7.4Z"/>
  <path d="M879,682.2l-3.7,12.3-6.1-4.9c0,3.1,1.4,9.3,3.2,11.5,1.2,1.5,4.2,1.4,5.4,3.2,7.5-8,16.1-17.4,1.2-22.1Z"/>
  <path d="M982.5,340.9l-2.6,4.6c0-4.5-1-10.9-7.4-9.8l2.5,7.3-7.4,4.9,6.9-2.2c.5,1.1.6,2.9,1.4,3.5,2,1.6,9.2,8,11.3,6l-2.4-9.8,9.8-2.4-12.1-2.2Z"/>
  <path d="M289.8,739.3c-1.1,3.7.5,9,3.1,11.7l16-19.6c-1.5-1.4-18,4.7-19.1,7.9Z"/>
  <polygon points="119.6 458.6 122 431.6 102.4 441.4 114.4 441.7 119.6 458.6"/>
  <path d="M994.6,570.4c5.4,7.1,12.6,3.6,17.1-2.5l-12.2-13.5-4.9,16Z"/>
  <path d="M1117.4,414.4h-17.2c5.6-19.4-10-12-9.8,2.4,4.2,0,8.4,1,12.6,1,2.6,0,14.4.2,14.4-3.4Z"/>
  <path d="M884.1,512.7l-2.6,12.2,11.1-4.9c1.9-.8.6,2.7,2.1,3.9,1.2,1,6.1,3.9,6.5,3.5l-4.2-7.9,1.7-4.4-14.6-2.4Z"/>
  <path d="M1124.8,510.2l22.1,2.5v-7.3c-10.6.7-18.8-12-22.1,4.9Z"/>
  <path d="M299,506.5l-4.9-3.6c-1.1,7.7-13.1,14.8-3.7,22.1,7.3,1.5,4.7-15.3,8.6-18.5Z"/>
  <path d="M1028,596.3l-1.6-7.5c-5.5,1.1-3.2,11.3-2.4,14.7l2.4-4.9c5.7-.8,9.2,4.9,9.9,9.8l9.7-6.1-18-6Z"/>
</svg>