<?xml version="1.0" encoding="UTF-8"?>
<svg id="Layer_1" xmlns="http://www.w3.org/2000/svg" version="1.1" viewBox="0 0 1200 1200">
  <!-- Generator: Adobe Illustrator 29.0.0, SVG Export Plug-In . SVG Version: 2.1.0 Build 186)  -->
  <defs>
    <style>
      .st0 {
        fill: none;
      }
    </style>
  </defs>
  <path d="M1197,641.5l-1.3-7.8c-5.1,1.3-31.4,14.1-33.2,14-2,0-5-5.5-6.1-4.2l5.3,21.8,34.6-14.7,2.1-.9-1.4-8.3h0Z"/>
  <path d="M51.1,356.8c-.6.3-1.1.5-1.7.8l1.1.9.6-1.6h0Z"/>
  <path d="M495.3,739.4l-14.4-2.3c-3.3,6.3-3.9,14.3-12.5,12l-2.6-12.2c7.3,7,18.1-4.1,12.2-9.8-2.8-2.8-6.5,1.7-4.9,4.9l-5.2-7.3-7.1,2.4-7.4-22.1c7.6,9.8,15.9-3.9,4.9-1.3l4.9-13.5-9.8,2.5v-7.3h-12.3l2.4-4.8-6.1-2.6-8.5,8.6,7.4,7.4-7.4,1.2,2.5,9.8-18.4-12.3c-9.4,10,1.4,29.3,14.4,24,5.9-2.4,1.4-9.3,6.4-9.3v14.7l7.4-2.5,2.5,9.8-12.2,3.7c7.9,10.2,6.3-5.7,14.7,0-3.7,1.3-6.6,9.8-7.9,10.5-3.8,2.2-11.8-2.2-11.8,3,7.9.8,22.3-1.3,19.7,9.8l3.7-7.3,6.4,12.2,30.2-11.9c1.5.3,23,30.3,18.7,15.7-2.8-9.7-16.5-15.7-9.8-25.8h-.1Z"/>
  <path d="M313.4,655.8c-15.9,10.9-15.5-.3-14.7-14.7l2.5,9.8c5.2-3.1,4.2-9.3,12.3-7.4-4.9-19.2-12-16.3-25.9-24.6-5.5,8.4-13.5,4.7-11.4,19.3l-14.4,2.9v19.6l9.8-2.4v14.7l7.4-4.9,1.2,9.8,17.2-17.2c3.9,10.1,17,6.1,15.9-4.9h.1Z"/>
  <path d="M534.6,676.8c-1.9-10.2-16.9,5.7-19.7,3.6,3.3-4.4-1.9-6.3-3.7-12.3l-1.4,7.2h-7.1c0,0,4.9-7.2,4.9-7.2-7.1-2.3-11.8-5.4-19.4-2.2,7,12.5-22.2,30.8-22.3,32.9,0,.9,4.4,5.2,7,3.2.4-.3,1.3-10.4,6.5-2,2.4,3.9.9,10.3,1.2,14.8l12.3-6.2c2-4.8-4.9-3.2-5-5-.4-6.5,4.7-19.4,13.4-15.9l2.5,4.8,8.8-2.2c2.3,7-4.3,4.2-4.9,4.9-1.4,1.8-1.1,5.8,3.4,4.7,5.9-1.6,24.8-16.8,23.6-23.1h0Z"/>
  <path d="M1147.7,413.7l-1.1,1.3-.8-3.2c.5.8,1.2,1.4,1.9,1.9h0Z"/>
  <path d="M198.6,533.5c-3.3-1.5-3.9-.3-3.1-5.5l7.2,2.3c.6-1.5,1.2-2.9,1.9-4.3l5.4,10.9c-4-.5-8.1-1.9-11.4-3.4h0Z"/>
  <path d="M1115.8,432.3c-5-4.5-10.9-2-16.7-.8,2.9-6,5.1-8.9,7.1-10.2.7,1.8,1.1,4.4,1.1,8.5l9.8-2.5c-.4,1.7-.8,3.4-1.2,5h-.1Z"/>
  <path d="M1084.4,365.1l4.1.9c.8,1.7,1.8,3.7,2.2,4,2.3,1.9,4.6,2.8,7,3.1,5.1,8.5,13.1,13.1-6,11.6,3.1,7.4,5.4,12.7,5.6,18.5h-1.7c-6.7.5-10.3,8.5-20.4-.6l.5,1.9-7.5,1.2c0-.2.3-.5.4-.8.8-2.1,1.5-4.3,2.1-6.5l.6.6,13-2.2-9.8-8.5,12.3-6.2c-4.3-6.2-4.1-10-2.4-17.2v.2Z"/>
  <polygon points="1077.6 411.7 1075 411.5 1076.4 406.7 1077.7 411.7 1077.6 411.7"/>
  <path d="M492,571.5l1.5-5.9c3-.3,6.1.3,6.6,3.1.4,2.1,0,4.1-1,5.9.2-2.2-1.7-3.7-7.1-3.1Z"/>
  <path d="M516.8,543.2c0,.2-.3.4-.7.6l-1.1-.9c.6,0,1.2.2,1.8.3h0Z"/>
  <path d="M517.8,551.3c.6,1.1,1.3,2.1,1.9,3.2-2.9.3-4-1.3-1.9-3.2Z"/>
  <path d="M149.4,476.2c.3-.2.6-.4.9-.7v2.7c.1,0-.9-2-.9-2Z"/>
  <g>
    <path class="st0" d="M1060.2,452.1c.2,1.2,0,2.8,0,5.1h1l.5-.7v.8l10.2.6c-2-1.9-3.6-9.5-11.7-5.8Z"/>
    <polygon points="1071.9 457.9 1071.9 457.9 1071.9 457.9 1071.9 457.9"/>
  </g>
  <polygon points="320.6 482.7 320 485.8 317.6 484.3 320.6 482.7"/>
  <path d="M332.4,489.9c.7-1.4,1.5-2.9,2.3-4.4v3.4c-1,.3-1.7.6-2.3,1Z"/>
  <path d="M478.1,644.8l3.2-2.8c-.6,1.7-1.2,3.5-1.7,5.2l-1.4-2.5h-.1Z"/>
  <g>
    <path class="st0" d="M1060.2,452.1c.2,1.2,0,2.8,0,5.1h1l.5-.7v.8l10.2.6c-2-1.9-3.6-9.5-11.7-5.8Z"/>
    <polygon class="st0" points="1071.9 457.9 1071.9 457.9 1071.9 457.9 1071.9 457.9"/>
    <path d="M484.7,629.2c0,1.2-.3,2.8-.9,4.7-2.5-2-5.4,0-11.2,2.8.6,2.8.4,6.3-1.1,11.3l7.2,3.3c-1.7,6.8-1.1,11.7,7.2,8.4,3-1.2,3.4-5.4,4.7-6.2,5.8-3.2,18-8.9,23.8-5.7v-29.5l-12.3,17.2c4.5-10.1-.3-5.8-3.5-10.1-4.7-6.3-2.4-9.5-14.6-9.6.6,4.7.6,8.1.6,13.5h0Z"/>
  </g>
  <path d="M509.1,580.3c-.4-2.8-.8-5.6-1-8.3.4,0,.9,0,1.4,0l.6,2.8h2.3c-.9,1.6-2,3.6-3.2,5.6h-.1Z"/>
  <path d="M617.4,677.2l-2-7.9c.7-2.1.8-4.4-.3-7-.4-.8-4.4-4.9-8.3-8.5.8-.7,1.4-1.1,2-1.1,7.8,7.6,12.7,13.5,8.6,24.5Z"/>
  <path d="M986.8,486.3c-6.4,1.3-3.7-1.5-6.1-4.9l-3,2.5-.3-5.7,15.2-1.4-5.7,9.5h-.1Z"/>
  <path d="M993.4,476.7l9.8-.9c.7,3.7-4.1,2.4-6,5-.8,1.1-1.4,2.2-1.7,3.4-1.4-2.3-2.5-4.6-2.1-7.5Z"/>
  <path d="M999.1,498.6c0-.2,0-.4.2-.6.2.2.3.4.5.5h-.7Z"/>
  <path d="M1069.6,441.3c-.4,0-.7-.2-1-.3.4-.2.8-.3,1.2-.5l-.2.8Z"/>
  <g>
    <polygon class="st0" points="1071.9 457.9 1071.9 457.9 1071.9 457.9 1071.9 457.9"/>
    <path class="st0" d="M1063.2,457.4l8.7.5c-2-1.9-3.6-9.5-11.7-5.8.1.8,0,1.9,0,3.3,1.2.2,2.4.5,3.3,1l-.3,1Z"/>
    <path d="M1063.2,457.4l-1.3,4.8c2.7,3.2,1,6.2,1.5,6.8,2.2,2.9,11.1,3.4,9.1,12.8l2.4-4.9,9.8,4.9v-7.4l-12.2-3.7,4.9-4.9-5.5-7.9s0,0,0,0l-8.7-.5Z"/>
    <path d="M1164.4,404.7c.3-.2.6-.3.9-.4-.9-2.6-1.8-5.1-2.7-7.7-5.8,1.1-11.4,3-13.7,8.6l4.9,1.2-1.7,2c-2,0-4.2.4-6.5,1,6.7-7.9-.3-20.9,11.6-26.7h.2c-.9-2.2-1.8-4.4-2.6-6.6l-6.6,3.9,2.4-9.8c-7.8,5.8-11.1,0-17.2,9.8,5.8-16.8-12.5-1.6-16.1-19.7-2.1-10.4,1.1-15.5,7.9-22.2l10.5,2.7c-1.8,7.4-.3,21.7,9.9,19.5l-2.5,7.3c2.5-.7,5.2-1.7,6.7-3.2,1.7-1.6,1.9-3.7-1-6.7h-8.2l4.9-2.4c-.4-1-.7-1.9-1-2.8-16.8-36.9-37.3-71.9-60.9-104.5-66.8-92-159.1-164.6-266.5-206.9C750,14.6,676.7,0,600,0s-148.7,14.6-215.5,41.1c-85.2,33.7-160.8,86.6-222,152.8-21.9,23.8-42,49.2-59.9,76.2,1,5.2,1.3,9.7-3.7,9.1l4.9,4c-2.6,9,6.7,19.2-2.4,22.1,6.4,21-26.4,19.7-27.4,37.6h-7.2c0,.1,4.9-9.6,4.9-9.6-8.3-.4-11,10.6-4.9,17.2-1.9.5-6.2,2.3-11.6,4.6-2.1,4.5-4.1,9-6,13.6,2.6-1.5,5.2-3.1,7.7-4.8,13-9.2,24-19.8,38.8-29.8,2.5-1.7,9.5-10.5,11.7-10.5s6.2,5,1.9,4.8l-2.7,1.2c5.2,14.4-4.6,18.9-5.5,30.7l-9.7.2c-1.4,6.9,2.5,4.8,7.4,4.9l-5.2,16.1,5.2,6-12.3,1.2c8.5,7.4,22.1,3.3,31.9,1.2.3,5.7-.8,11.3-6.7,12.8l1.9,4.4h-7.4l7.4,9.8c-12.4,1-19.5,6-23.3,17.2-15-3.6,5.1-14-4.5-17.2l-1.7-4.9,14.4-2.8.4-9.5h-17l-25.1,53.7-4.5-2.1-.3,10.8,7.6,1.5-2.5,11c3.4,5.7,7.1.9,12.3,1.2l-4.9-14.7,7.4,9.8c17.1-3.1,0-13.1.3-18,.5-5.6,9.1-12.5,9.5-18.9l17.1,7.4c2.5-16.2,16.8-18.4,17.3,0-22.4-2.8-9.3,24.5-2.5,19.7-7.3-5.5,8.6-7.3,9.4-6.9.3,0,.2,4,3.3,5.3,1.5.6,3.2,1.1,5,1.4l-12,13.2c5.6-1,9.5.2,13,1.5l3.5,14.9c7.9.2,16.7,0,14.7-9.8h7.8l-7,22.8h12.7c-1.4,1-2.7,1.9-4,2.8-2.6,1.7-5.8.2-4.6,5.1l6.6,5.8,24.2-12.4c-4.2-3.1-9.5-1.3-14.5,1.5,1.7-8.8,8.7-15.6,11.6-23.3,1.8-5,.6-9.8,2.2-14.2l-1.5-2.8-7.3,7.3-18.7-34.6c-6.9,1.7-13.8-3.1-14.5,7.2l-2.4-7.4-9.8,1.3c3.4-9.6,14.8-3.8,21.9-11.3,2.3-6.8-5.4-4.4-8.4-9.7-.3-.6-3.8-12.6-3.8-13.3,0-1.5,3.8-1.2,4.8-3.3l-.5.3c4.1-8.2,7.5-20.3,16.1-25.3,3.2-1.9,6.5.3,8.5-1,3-2,4-9.2,10-8.6l-14.7-12.2h17.2l-4.9-14.8,6.8,1.2,3.1,13.6,19.6-12.3-2.5,12.3-7.3-2.5,1.4,12.4-11.2,2.4c4.6,5.8,7.3,8.8-2.4,9.8l-4.9-7.4-2.4,8.6,7.3,2.4-9.8,1.2c-.8,6.4,0,3.9,3.6,5,7.4,2.2,14.5-.7,14.1,9.3l6.9.5c-2,16.7-3.5,9.2-9.2,11.5-4.7,1.9-1.2,8.8-15.4,3.2l12.3-14.7-10.1,1.4-3.4,8.4-1.3-8.7c-7.3-4.7-10.2,3.7-11.4,9.9,7.7,7.7,13.3,11.9,23.8,8.5l-18.4,10-5,.3c-5.4,8.1,23.1,29.3,25.7,34.2.4.7.6,1.9.9,3.4,0,0,.2-.2.2-.2,18.1.6-.2,17.7,9.1,29.7l-9.5,2.8h0l-.3,7.1,16.6-8.5c-1,6.7-3,9.9.3,14.6-.7,1.6-1.4,3.2-2.1,4.7l-3,1.5,1.2,2.3c-2,3.9-4.1,7.3-6.6,9.6-2.8,2.6-9.7-1.2-12.3,4.8-4.9,11.4,15.8,2.1,13.6,12.3h-9.8l7.3,4.9-12.3,2.5c12.8,5.2,13.1-6,24.5-4.9l-7.3-7.3,8.3-2.7,5.4,7.4,2.1-.6,5.5,11.1c13.7,9.1,9.1-6.6,19-8.1,15.9-2.4,12.6,13.1-1.8,6.9-.7,6.8-.3,11.9,7.4,12.4l-6.2,7.3-8.6-11c-1.4,13.1,7,18,9.9,28.2l9.8-4.9-7.4,7.4,6.1,9.8c12.6-5.3,27.5-26.3,21-40.3l7.2-5.2c-5-3.3-8.7-3.8-7.4-11.1l-2.5,9.8c-10.2-4.3-3.9-13.3-4.9-20.6-.2-1.6-4.4-15.6-5-16.2s-4.7,1.6-7.3.9c-8.7-2.6-9.1-14.8-19.6-13.2l2.5-9.8c-2.9.5-5.7.6-8.3.3.6-2.6-1.2-4.8-7.9-6.8-.8.9-1.7,1.9-2.4,3-8.5-5.7-13.2-16.9-13.3-28.5l10.2,14.4,26.7,2.9-2.5,7.3,14.7-4.9-14.7,7.4c-2,2.2,5.8,19,9.8,14.7l-1.3-7.4c16.9-1,9.2-6.6,14.8-17.2l1.2,9.8,7.3-7.4v17.2l19.7-4.9-9.8-4.9,2.2-15.6-9.5-6.4c14.8.6,6.9-8.5,8.6-12.5,1.4-3.2,20.6-12.2,23.3-9.7.9,10.5-11.3,11.4-14.7,19.6,9.4-1.2,18,4.9,17.2,14.8l-7.3-2.4,2.4,7.3-15.1,2.2c7.7.2,10.2,15.8,15.1,18.9,4.3,2.8,10.1-2.3,14.8-1.4l2.4,7.3c2.6-10.4,9.4-10.7,6.7-20.7l8.8,1.8c0-.6,0-1.3.3-2.2.5,2.9,2.5,6.9,1,12-.9,2.9-4.4,5.2-6.9,8.2-4.7,1.3-10.5,2.3-13.9,4.1l4.1,2c-3.9,5.8-11.4-.3-12.3-7.7l-7.3,7.4-7.3-21.1-9.9,1.5,9.8,6.1-9.8,1.2,2.4,7.3-12.3-2.4,5,12.3,6.1-7.4,20.9,22.1c-3.2,2.6-9.7-9.3-12.3-1.2-.5,1.6-.5,2.9-.2,3.8-2.6,2-2.9,5.7,3.5,6.7l-4.9,3.7h7.3l-2.6,7.2c-.8,0-1.6,0-2.3.3l-8.1-8.2,5.7,11.4v1.6c.2,0,.4-.2.6-.4l1,2.1-8.4,2.3-4-7.2c-12.4,4.7,7.4,16.9,9.3,20.1.6,1-1.5,3.9-1,5.2,2.9,6.4,8.1,10.6,6.5,18.9l9.8-8.6-4.9-3.6,8.4-2.7,2.5,4.9,8.4-2c4.5,11,15.1,24.8,12.7,36.6l12.2-6.1-4.9-6.1h7.4c.9-4.8,12.5.2,9.8-6.1-2.8-6.7-11.4-.3-12.2-1.3-.1-6.2,5.1-8.3,4.4-15.3-1.1-12.1-16.9-15.8-10.6-28.9l9.7,5,9.9,11.7,9.9-9.3,8.5,4.9c-.1-9.6-7.5-18.9-17.2-19.7v-2.4c13.7-2.2-8.8-16.2,3.7-24.6l13.5,9.8-9.8,2.4c-1.3,16.5,18.3,17.9,29.1,25.1l-2.1,11.7,12.3-7.3-.3,9.6-7,.2,1.2,4.9,6.2-2.4v14.8l-4.9-2.5-2.4,21.1,4,5.6c5.3.5,8.3.4,10,0-1.2,5,0,13.2-1,15.8l12.3-2.4-.4,9.5c-13.7-2.5-11.2,28.4-6.9,33.5.6.7,9.4,6.7,9.8,6.2.5-6.3.6-12-4.9-16l5.1-2.7-2.6-13.2c7.5-1.4,6.9,12.9,9.9,17.2l7.3-9.8-7.4,2.5c-5.6-11.9,9.4-5.7,3.9-19.8-2.3-5.8-8.6-7-10-14.6l-6.1,4.9-3.7-14.7c-1-.2-1.9,0-2.5.2,0-.9.2-1.9,1-2.8,2.7-3.1,19.5,0,16.8-12.8,5.4-.7,5.3,0,4.9,4.9,6.2-1.9,5-9.4,4.9-14.7-6-.8-6.5,0-8.5,4.9-7.2-3-6.4-4.5-6.5-11.9-17.1-2.6-13.8-8.9-9.5-22.5l3.6,4.9c5.2-11.7,17.4-9.8,24.6-19.6l3.7,4.8c-10.4.9-11.3,12.8-22.1,9.9l-2.5,17.1c5.6.2,12.6-.8,12.3-7.3,4.4-1.2,1,5.5,3.6,4.9,2.8-.6,7.7-8.6-1.2-7.4l6.1-4.9c8.6,5.9-1.6,20.4,7.9,22.6l-1.8,4.3,19.7,2.5-4.1,16.5c-.4-.3-.8-.7-1.2-1-.7,1.6-1.4,3-2.1,4.1h-4.9l3.7-17.2c-3,5.9-10.2,7.5-8.6,14.7l-9.8-4.9c-1.1,6.6.1,12.8,3.3,18-.8.3-1.6.7-2.4,1.1,1.8,1.7,7.5,20.8,12.2,16l3-8.3c5.6,0,10.5-1.2,15.1-3.3,0,.2.2.5.2.7l1-1.4c3-1.5,5.9-3.4,9-5.6,0-4.1-5.3-1.3-6.2-7-.3-1.8,2.8-5.9,6-6.9-.6-3.1,2-3.2,3.9-3.5l-3.5-3.9c-.6-6.6-1.5-9.9,5-12l-4.6-8h2.7c.2-.2.4-.4.5-.7,1.6-.4,3.3-1.1,5-2.1-.1,0-.2.2-.4.4l7.4-1.2.9,8.6c-2.2,1-4.4,1-6.6-.7-2.3,2.5,5.5,9.8,8,13.6l.2,1.8-8.6-4.9h0c0,.1-2.5,7.2-2.5,7.2,4.6-.1,8.1,1,11.3,3.7-.6,3.7-.9,7.4,2.8,8.2,4.1.9,17.1-18.1,16.1-23.1l-5.1-2.7v-2.4l4.9,1.2c1-1.3-3.5-14.1-2.6-17.9,0-.4.3-.7.6-1h5.2l.4-3.8c.3-.3.5-.6.7-1,1.5-2.9,1.8-11.9,3.2-13,.6-.5,14.5-.3,15.2-.2,2.8.5,4.3,9.7,9.1,10l-7.3-13.5,6.1-6.1c1.7,7.9,12.6,4.6,17.2.2l11,15.7-14.7,1.2c-1.7,6.9,5.4,6.6,9.8,4.9,3.2,8.5-5.9,7.5-6.9,11.2-.3,1.1,2.1,21.9,2.7,22.8.7,1.1,6.4-1.2,4.2,5.3-1.3.3-2.5.4-3.7.3,0-3.3-.6-6.7-3-9.3l-8.1,1.6c-1.7-2.9-2.6-6.4-2.4-9.8l7.3,4.9v-9.8l-4.8,2.5c.6-8.2-6-12.1-11.1-17.2-20.2,16.9-1.3,22.6-6.1,41.8l6.1-4.9,6.2,8.6-5.2,2.6,2.7,10.8c-4-1.7-7.3-1.9-7.3,3.7l14.7,7.4-4.9,8.6h-4.8c.9-7.1-8.2-5.5-11.2-9.9-1.2-1.8.6-5.5-1-8.7-1.8-3.4-6.7-11.2-10-13.4-4.4,9.4.5,14.7,7.3,20.9l-17.3,12.6,7.5,8.3-2.3-7.2,15.7-7.7c4,6,7.8,4.4,3.9,12.4h.2c-.6.4-1.1.7-1.5,1.1l2.1,8.4,7.4-1.4c-5.8,21.4,5.9,2.7,14.7,12.3,1.5-3.5-1.1-6.3-3.5-8.3,1.1-.8,2.2-1.5,3.4-2.1l.2.5,7.4-1.2c0,.4,0,.9-.2,1.4l-8,1.6,4.9,2.4v4.9l-4.9,1.2c1.4.9,2.5,1.8,3.4,2.6-1.7,1.4-4.1,2.2-7.5,1.8,7.1,5.8,6.9,10.4,5.4,15.4-.5,1.1-.9,2.2-1.3,3.5l-14.8-17.2-9.8,5,1.3,4.9c8.5-5.4,10.8,4.3,5.4,9.1-1.5,1.3-13.2,3.1-10.3,8.1,8.8,10.5,15-10.1,20.9-4.9,1.1.9.3,2.9-1.2,5.3-3.5,1.5-9.7.5-12.1,6.4,1.1,5.2,2.3,6.2,3.9,6.1-2.2,4-3.2,8-1.1,11-5.7,3.6-13.1,10-18.1,12.5l9.8,1.2-4.2,13.5,6.8,11,9.8-9.8v12.3c6.4,2.6,4-4.4,6.5-4.9,3.9-.9,9,.5,13.2,0l-7.4-22.1,7.5,1.3,4.7-7.4c-9.6-3.5-11-11.6-19.3-11l6.3-8.6c10-.8,21.7-4.2,26.9-3.2,2.6.5,2.6,5.4,3.8,6.2,1,.6,17.4,0,21.7,5.4-2.4-8.6,7.2-8.1,9.8-14.7-10.5,4.2-10.3.6-16-7.4l-2.6,5.1-10.9-2.7c3.2-14.5-11.9-29.4,14.7-22.1-2.1-4.6-.6-8.2,1.6-11.7,2.5,5.9,5,11.2,12.3,15.9,8.9-10.1-1-16,.4-22.7.7-3.4,6.2-6.8,6.5-10.8.4-4.6-6.7-9.5-2-15.6h-7.3c-.6-10.8,5.1-11.6,2.4-22.1,6.6,0,9.8,8.8,12.3,14.7l2.4-7.4,10,1.2c1.9,11.5,6,13,17,16.1,1.7-6.9-4.5-4.8-7.6-8.5-2-2.3,1.8-5.9-4.8-7.5l5-11c-7.4,4-11.5-3.3-19.6-7.4,6.6-2,8.1-7.4,17.2,0l-6.5-13.5,9-11.1,1.2,29.5c7.3-10.8,8.9-24.7,1.2-35.6.7-3.7,28.1-8.1,32.1-5.1l2.3,10c14.9-1.9-6.6,7.4-2.5,11.1l13.2-4.8c5.4,10.7,9.8,8,15.8,10.6.7.3.2,3.7.6,3.9,5.2,3.6,9.1-8.2,7.3-12.2-10.6,5.1-6.2-1.2-9.7-3.6-1.8-1.3-7.5,2.8-9.9-2.5,10.5-7.8,16.5-21.2-2.5-16,1-2.5.4-8.2,1.2-9.8,3.7-7.6,3.3,6.8,8.6,2.5v-7.4l3.6,4.6,11.1-4.6-2.5,14.7-7.3-4.9,6.1,19.6,18.4-11c-13.1-9.6-2.4-21-3.5-26-3-14-16.6-15.3-28.4-17-2.9,2.1.9,35.1-14.8,16l4.9-2.4c-10-5.6-12.9-21-3.7-28.4l11-4.8-7.4,7.4,7.4,12.3,2.8-11.9,21.7-5.3c1.3-5-6.5-16.2-6.4-18.3,0-1.6,3.4-4.1,3.8-7.5.4-2.8-1.6-6-1.1-8.8,1.3-6.3,9.8-11,14.7-14.4,2.7,7.4,2.3,22.2-8.6,19.7-1.2,3.6,9.6,1.8,4.9,7.4-.4.5-7.4-3.4-9.8,4.9,15.3-1.8,11.5,6.8,14.9,15.4,2,5.1,2-2.5,2.4,7.7,0,.7,8.1,6.2,7.2,11.4-6,.5-8.7-2.7-11.1-7.4l-6.1,4.9c13.4,0,11.7,12.2,14.8,22.1l3.7-4.9,6.1,4.9c-3.3-6.5,0-18.9,7.4-19.7l-4.9-8.5,9.8-1.3c-1.9-6.9-12.4-1.7-17.2-2.4-2-8.8,6.7-2.8,9.4-5.3.4-.4,4.8-10.2,4.8-10.7,0-2.6-23.8-15.1-4.4-13.5l-4.9-17.2,8.7,2.4,1.2,12.4,9.8-12.3-2.4,9.8,9.8-2.5c2.9,9.1-3.3,17.4,7.5,20.9v6.2c-12.2-5.7-13.4,10.7-14.8,19.6l-12.2-4.9c-.9,3.8,3.4,1.4,4.8,4.2,6.7,13.7-1,11.8-2.3,14.7-2.9,5.9-3,13.3-8.6,17.9l-11.1-7.3c2.9,3.3-10.6,22.5-1.3,19.7,2.3-.7.8-5.3,2.4-5,6.2,1.4,11.9,21.1,11.1,22.1-4.1,4.9-6.9-8.5-9.8-7.4-.4,12.6,4.5,17.3,16.1,19.6,2.3,2.9-2.3,7.2-1.1,9.4.3.5,6.9,7.2,7.4,7.4.9.4,14.6-3.1,19.3.5-5.4,7.3,3.3,2.1,2.4,8.5l-8.1,3.7-1.7,7.4h17.2c-4-6.8,0-9.1,4.9-13.5l-9.8-11.1,13.5,9.8c3.4-11.1,3,.5,8.6,2.4l2.3-7.1c-7.3-2-15-9.8-21.9-11.6-4-1-16.4,3.8-14.7-4.7,2-10,22,8.4,27,3.6v-7.3l4.8,2.3,2.6-9.6-14.7,4.9,2.5-17.2,18.3,7.5c2.6-6.4,11.4-3.1,18.5-10l-12.2-9.8,9.8-7.3-9.8-4.9c12.8,4.1,21.1-17.6,27-27,8,6.4,4.7,15.2,9.3,23.8,4.5,8.5,9.8,12.9,12.8.8l-9.8-7.4,17.1,3.7c-8-7.3-15.3-5.6-14.5-19.4l7.2-5.2-13.3-13.5,1-9.8-14.7,7.3-6.2-19.6-3.7,7.4-12.3-3.7c9.5,8.6,13.4,3.4,13.9,18.4,0,3.6-4.1,13.5,5.3,6.8,1.2-.8-1.1-5.3,2.9-4.2l2.5,12.3-12.3-4.9-.4,7-6.8.6c.7,4.3,2.8,16.7-5.1,14.6,2.9-13.3-14.5-24.8-5-34.4-5.1.3-5.6.3-4.9-4.9l9.9-3.8-5-9.7,12.3-9.9c-12.8-3.7-8.9-11.6-17.1-19.7l7.3-1.2-2.4-9.8c3.2,2.4,19.7,21.9,21.3,22.1.6,0,12.2-.3,12.7-.7,1.1-.8-1.2-6.4,5.3-4.2l-4.9,17.2-6.1-4.9-6.1,6.1,12.1,7.7-2.3,10.7,8.4-9.1c23.6,13.3,14.6-17.5,11-30.8-.2-.8-14.6-12.4,2.6-11.7l-7.4-9.8h9.8v19.7c8.9,2.8,6.6-10.8,14.7-1.2l-12.2,7.4c6.2,14.4,7.9.9,8.6,1.3l6.1,6.1-7.4,1.2c3.1,4.5,4.1,6.7,3.4,9.4l-7.3-1.2-2.6,12.2,8.2-3.6,4.7,2.4s.2.2.2.3c.9.7,3.8,2.5,5.4,3.2l-4.6,6.9c4.1,0,11.6-2.1,15.2-4.4-.3,1.6-1,3.3-2.1,5.1l14.8-2.5-2.4-7.1,3.8-2.1c1.6,1.6,2.9,4,4.2,7.1l-8.9,18.5c10.3,1.6,18,4.3,21.9-8.2-2-3.7-7.8-7.2-8.6-11.3-.6-2.8,3-4.7,3-6.3,0-2.7-5.4-4.2-4-8.6l7.5,1.2,2.3,8.6,2.5-7.4c6.7,2.2,4.9,7,2.4,12.3,7.8,1.5,3.9-11.5,8.8-12.1l2.3,2.5-3.7,4.6,9.4,1.9,9.8,11.1,1.2-22.1c5.2.3-.3,9.2,7.3,7.4l-4.9,7.3,8.9,4.8,5.5-1.9,1.5,4.5c1.2-2.4,2.8-4,4.4-5.2.6,4.2.9,8.8.9,10.6v14.5l-4,13.3c1.3,1.7,2.6,2.7,4,3.3v4.5h4.9v-4.2c3-.8,5.9-3.1,8.1-6.2l-8.1-9v-15.1l7.5,1.7,17.1,24-7.3,6.2-4.9-9.7c1,6-5.2,4-6.8,5.5-1.2,1.3-.2,4.6-2.4,6.8-7.4,7.7-20.9.6-20.6-9.7l-19.5-.2,19.6,13.5-5.9,7.8c-8.5,1.4-25.3-11-29.8-4.2l-1.1,9.9,9.8-4.9,7.4,12.2-14.7-2.4,4.9,13.5-4.9-1.2,4.9,9.8c-15.9-5.2-7.6,8.7,9.6,8.4,17-.3,7.4-12.1,20-10.9l-2.5-7.3c17.2-3.1,17.8-14.1-2.4-7.4v-9.8c6.4,3.5,20.9-1,19.7,7.3l7.4-12.2,3,6.6,23.9,20.4-4.9-14.7,4.3.8c.8,1.5,1.3,3.2,1.5,4.8l5.4-3.4,1.1.2c-.2-.2-.4-.4-.5-.6l3.7-2.4-9.9-3.3c-1.3-1.7-1.7-3.9-.7-8.5l-8.6.3-.4-2c-3.4.7-3.8,4.8-3.5,8.7-3.3-.2-8-3.4-9-5.1-1.4-2.5.4-6.2-1.2-8.7-1-1.5-5.3,1-4.3-3,8.4-.8,18.2-7.3,19.7,4.9l4.7-.2,1.7-4.9,10.8,2.7-2.6-7.2-4.8,2.4c3.9-5.1-2.2-10.4-2.2-11.1,0-2.8,10.5-4.5,9.6-9.8l-7.4-2.5c6.2-7,13.1.7,16,6l4.9.2,1.2-5c1.5-1.1,6.7,8.9,9.8,1.2,1.1-2.7-8.9-7.9-9.4-15.1-.2-3.6,4.4-5.9,4.5-9.4,0-2.7-10.6-14.9-1.4-13.4,3.6.6,7.1,5.3,6.3-1.3-17.5-29.5-23.5-12.1-17.2,13.5-12.2-5.3-4.8-14.7-4.9-24.6l-7.3,9.8-1.7-9.7h.8c1.6,0,15.5-6,16.4-8-2.6-1.6-5.4-2.9-7.4-4.8l.5-4.2c-.4,0-7.7.2-8.1.2,1-9.1-10.1-7.8-12.5-12.1l12.3-8.5h-9.8l4.9-7.4c-5,.9-10.6-17.6-11.3-22.1-1.1-7.6,1.2-12.5,1.5-19.7l2.8.6c-.4,1.3-1.1,3-2.1,5l11.2,5.7.2,2-4,7.1c5.6.8,6.2.3,7.8-3.1l3.5.2c-2.5,5.7,2.8,9.7,7.6,12.1l-1.4-10.1,2.3,1c-2.8-4.2-1.8-6.3-.2-8.1h6.8l.4,3.2h-2.1c-.4,14.8,9.9,9.8,12.2-1.3,4-3.6,6.9,2.9,10.6,4.3.6.2,1.2.4,1.8.6-.2.5-.4,1.1-.6,1.6l7.1,3.9-7.3,14.7,7.3,2.4-13.5,12.3c-1.2.5-3.6-11.2-5.9-13.2h-.1c-1.5-1.3-3.6-1.4-5.4-1.5.8-.5,1.6-1,2.4-1.6,1.9-1.3,5.1,1.4,3.6-5.1-8.3.9-14.6,2.4-22.1-2.5l-1.1,6.3c-8.5-1.2-5.9,8.6-3.6,15.6-.8,0-1.7.2-2.7.3-1.5,5.5,3.1,5.3,7,6,0-1.4.1-2.4,0-3.3,8.1-3.7,9.7,3.9,11.7,5.8h0s0,0,0,0c.2.2.5.4.7.4,1.9.3,5.4-2.5,9.4-1.4.7.2,10.2,6.9,11,7.8,1.8,2-1.4,7.5,3.1,6.6l1.2-5.2c1.6,2.5,3.4,5.1,4.5,8.4l4.9-4.9,11.8,18.7.5-.5c-5.5,14.9,10.2,33,19,45.1,7.3-3.1,6-27.5,2.3-31.7-2.1-2.4-7.3-3.5-8-6.5-.5-2.1,2-5.9,1.5-9-1-5.9-6-10.1-1.9-16.5-24.6,6.1-16.2,0-27.9-11.4-.6-.6-2.8-2.2-4.8-3.5,7.5-3.7,11.7-8.2,15.3-16.5-1.3,5.3-1.9,10.5.2,16.7l5-22.8c6.4-2.5,3.6-6.2,1.5-11.4,2.9-2.7,9-8.4,14.7-5.8-2.2,2.3-7.9,17.1-3.7,17.2,2.3-10.5,5.5-10.8,16-9.9l-1.6-6.7c1.7.3,3.2.2,4.5-.2,2.9.3,5.9-.4,6.4,0,1.4,1-.8,7,5.4,4.4,0-5.3-1.8-8.3-4.6-9.7,1.8-1.9,3.7-3.8,6.1-4.9Z"/>
  </g>
  <path d="M1091.8,457.3c.9-.3,1.8-.7,2.7-1,0,1,0,1.9.3,2.8l-3.1-1.7h0Z"/>
  <path d="M716.5,724.7l7.4,4.9-10,20.8,5.1,2.6c-4.2,6.2-8.9,2.3-14.7,1.2l4.9,9.8c3.8,1.1,1.6-3.1,3.1-4,2-1.1,7.5-3.5,9.1-2.3l3.6,13.6c3.9-2.1,2.3-8.2,5.3-10.1,2.1-1.4,6.4,0,7-.3,2.3-1.3,4-8.1,11.1-6.9l-13.7-31.8c-8.5,1.1-5.8,7.1-18.3,2.3v.2Z"/>
  <path d="M1196.9,557.3c0-.6,0-1.2,0-1.8l-3.5,2c1.5-.3,2.7-.3,3.6-.2Z"/>
  <path d="M1195.9,545.3h-.2l.3,1.5c0-.5,0-.9,0-1.4h0Z"/>
  <path d="M801.3,648.5c-5.3,6.7-12.1,12.6-6.3,21,4.9,7.2,18.5,6.4,10,20.7,16.2,2.7,14-13.4,17.2-24.5-5.5-.9-10.6-2.4-15-6.1-7.3-6.2,1.6-11.3-5.9-11.1h0Z"/>
  <path d="M994.2,626.3l-19.5-5.1v-7.2c0,0,7.2-2.4,7.2-2.4l-8.9-2.3c-6.8-1.4-.4,4.3-.8,8.1-.2,1.8-3.6,1.6-4.1,2.4-1.7,2.9-4.4,5-2.4,8.9,6.5,12.8,24,1.3,33.5-.9l4.8-16.3c-2.8-2.7-16.2,8.9-9.8,14.7h0Z"/>
  <path d="M736.2,690.2v19.6l-9.8-7.4c1.8,8.3-5,7.4-7.4,12.3l15.9,5.1,3.7-5,4.9,9.8c3.4-8,7.6-13,2.7-21.9l4.6-2.6c-8.7,2.4-8.1-7.1-14.7-9.9h0Z"/>
  <path d="M1124.5,574.7l-4.9-3.6c4.3-3.8,8.5-7,7.4-13.5-4.7,0-21,2-22.1,6.2-1.2,4.5,4,7.7,4,9.7,0,2.9-10,12.2-.3,18.4,6.5-6.7,3.4-18.3,16-17.2h0Z"/>
  <path d="M920.6,545.4l.2,19.2c4.1,1.2,8.9-.8,12.9.6,4.3,1.4,2.2,7.6,6.4,7.1-3.9-13.2-1.8-9.3,4.9-18.4l-4.9-3.7-4.9,4.9v-9.9l-14.6.2h0Z"/>
  <path d="M87.7,564.5l11.9,5.3,12.3-27c-8.9-5-28.3,14.6-24.2,21.7Z"/>
  <path d="M414.8,813.7c-1.7,2.9-5.3,26.8.6,26.4l4-7.2,7.1,2.3-2.5-27c-.3-.4-8.9,5-9.2,5.5Z"/>
  <path d="M377.3,668.1l-14.6,7.6c0,11.6,9.8,26.5,22,21.9-7.9-8.6-11.3-17.9-7.4-29.5Z"/>
  <path d="M748.4,660.7c2.9-2.1,2.8-8.8-1.4-11.9-4.6-3.4-12-4.4-17-7.5l-5.8,5c-2.8,6.5,21.7,16.4,24.2,14.5h0Z"/>
  <polygon points="75.4 584.2 87.3 594.4 93.7 572.3 82.7 567.5 75.4 584.2"/>
  <path d="M940.1,650.9c2.1.2,5.3-.7,6.8.5,1.7,1.3.4,7.6,4.2,9.3,10.3-9,7-15.4,3.7-27-19.3,1.5-6.6,6.6-14.7,17.2Z"/>
  <path d="M774.3,655.9c-6.2,3.7-8.3,12.3-3.9,18.1,1.5,1.9,4.8,1,6.7,2.3,1.7,1.1-.6,5.1,3.2,4.1l7.4-14.7c-8.5,1.9-8.1-5.4-13.5-9.8h0Z"/>
  <path d="M414.2,751.7l-2.3,19.5c20.5,7,20.7-16.4,2.3-19.5Z"/>
  <path d="M598.5,933.6c6.2,11.2,9.4,4.7,15.8,4.8,1.4,0,1.3,3.8,2,4.2,3,1.6,6,.7,9.2.8l-7.3-16.1-19.7,6.4h0Z"/>
  <path d="M773,823l-22.1-2.5c-.2,6.8,2,14.3,9.8,14.7,2.2-4.4,10-7.8,12.3-12.3h0Z"/>
  <path d="M760.7,835.2c-10.5,21.4,21.2,31.2,9.8-2.5-3.3,1.3-6.1,2.7-9.8,2.5Z"/>
  <path d="M932.4,626.8l-11.9-.4c-9.6,9.5,28.8,37.5,11.9.4Z"/>
  <path d="M733.7,764l2.5,29.5c15.9,3.1,7.1-25.8-2.5-29.5Z"/>
  <path d="M519.9,808.2c3,4.7,5.6,7.2,5.2,13.5-.4,6.1-10.5,4.5-7.7,13.5h14.7c-2.2-9.8,1.3-18.6-6.1-27.1h-6.1Z"/>
  <polygon points="1134.3 663.2 1147.8 675 1156.2 669.1 1147.5 656.2 1134.3 663.2"/>
  <path d="M631.9,709.7l-1.4,7.6c10.5-2.4,16.2,5.2,24.3-6.4l-2.2-8.3-20.7,7.1h0Z"/>
  <path d="M1070.4,596.9v-7.4c-8.3-4.3-19.1,17.3-17.2,19.7l29.5-12.3c-3.1-8.5-7.3-1.6-12.3,0Z"/>
  <polygon points="1080.3 512 1092.5 513.3 1087.7 524.4 1098.6 528 1101.3 523 1094.6 508.6 1080.3 512"/>
  <path d="M922.9,654.6c-.2.6,12.7,3,.2,7.2l2.3,8.8c7.3,0,4.6-8.2,14.7-4.9l-9-14.4-8.2,3.4h0Z"/>
  <path d="M1178.5,579.7h-17.2c1.4,6.9,2.8,8.8,6.3,13.4,1.6,2.1,3.2,4.2,4.8,6.3l6-5c2.8-5.7-8-7-7.2-8.5l7.4-6.1h-.1Z"/>
  <path d="M1144.1,574.8l-27,7.4c1.2,13.9,27.9,4.8,27-7.4Z"/>
  <path d="M891,658.3l-3.7,12.3-6.1-4.9c0,3.1,1.4,9.3,3.2,11.5,1.2,1.5,4.2,1.4,5.4,3.2,7.5-8,16.1-17.4,1.2-22.1h0Z"/>
  <path d="M301.7,715.4c-1.1,3.7.5,9,3.1,11.7l16-19.6c-1.5-1.4-18,4.7-19.1,7.9h0Z"/>
  <path d="M1136.8,486.3l22.1,2.5v-7.3c-10.6.7-18.8-12-22.1,4.9h0Z"/>
</svg>