<?xml version="1.0" encoding="UTF-8"?>
<svg id="Layer_1" xmlns="http://www.w3.org/2000/svg" version="1.1" viewBox="0 0 1200 1200">
  <!-- Generator: Adobe Illustrator 29.0.0, SVG Export Plug-In . SVG Version: 2.1.0 Build 186)  -->
  <path d="M1115.5,273.8h-11.9c4.1,6.3,8,12.6,11.9,19.1v-19.1Z"/>
  <path d="M1199.8,600c0-122.7-.4-26-1.2-38.8l-83.3.7v-269.1c-3.8-6.4-7.8-12.8-11.9-19.1h-361.4l-7.1-8.1-.6-43.3h-236.8V16.5h241.9C694.9,5.7,648.1,0,600,0c-128.1,0-246.8,40.1-344.2,108.5v198.7c31.8,18.2,81,3.8,115.8,3.6,29.4-.2,65.7,9.3,97.1,3.4l7.7-7.7c2.1-15.1,0-30.5.7-45.7.2-6.3-3.9-19.1,5.2-17.9v72l215.9-5c-.7,4.8,5.5,11,5.5,12.8v198.1h-247.2v10.6c0,0,0,25.4,0,25.4h-46.4v36.1h-58.8l-2.4-72.1h-134.4v72h-61.8l-.4-138.5c-33.2-9-63.9-2.8-97.4-.4v375.7h185.4v20.6h-25.8c0,0-2.9,41.2-2.9,41.2H75.4c61,109.5,155.3,198,269.2,251.7l137.7.3v-41.2h0s-118.4,0-118.4,0v-77.2l-15.8-2.8.3-53.8h128.7l5.1-108.1h262.5v221.3c51.9,7.1,102.6-3.4,154.7,2.4l4.9,28.5h7.7c22.9-14,44.8-29.5,65.6-46.3h-52.7v-216.1h-169.9v-211h169.9v-66.9l175,5.2v354.3c63.1-95,99.9-209,99.9-331.7Z"/>
  <path d="M755.2,1153.7v15.4h35.3c13.9-4.7,27.6-9.8,41.1-15.4h-76.4,0Z"/>
</svg>