<?xml version="1.0" encoding="UTF-8"?>
<svg id="Layer_1" xmlns="http://www.w3.org/2000/svg" version="1.1" viewBox="0 0 1200 1200">
  <!-- Generator: Adobe Illustrator 29.0.0, SVG Export Plug-In . SVG Version: 2.1.0 Build 186)  -->
  <path d="M1178.5,786v-10.3h-4.7c-1.1,3.4-2.1,6.9-3.2,10.3h7.9Z"/>
  <path d="M859.3,312.6v102.9h41.2s0-66.9,0-66.9h133.8c1.1,32.1-7.2,75.9,7.7,102.9h110.7l1.5-81.8C1080.1,191.6,922.7,56.9,730.6,14.3v298.4h128.7Z"/>
  <path d="M921.1,961h-46.4s0,36,0,36h-162.2c-18.9,32.3-3.2,80.8-2.4,115.6.6,25.7.7,51.4.5,77.2,183-34.2,336.8-151.4,420.8-311.1h-210.4v82.3Z"/>
  <path d="M101.7,808.4l.8-32.7h20.6v133.8h157l7.7-7.7v-120.9c5.1,1.7,11.2-5.1,12.9-5.1h162.2v-10.3h-175l-5.7-40.6c-7.1-6.1-51.8,8.2-61.2-8.3v-110.6l51.8-2.2,4.8-44.1h190.5l-8.7-14.8-29.9-.6h-151.9v-138.9H102.6v-113.2h-17.6c-23.1,38.6-42,79.9-56.1,123.5h58.2v128.6h-30.9v79.8c0,5.1-2.9,14.7-7.7,18H1.5c4.2,61.3,17.7,120.1,39,175h54.4l6.9-8.5Z"/>
  <path d="M1075.5,768v-146.7h-41.2c-2.8-14.5,7.6-60.9-8.4-66.2l-151.2-.7.4,64.1-16.2,5.6.4,161.8h311.3c1.1-3.4,2.2-6.8,3.2-10.3h-90.6l-7.7-7.7Z"/>
  <path d="M1173.3,714h-72.1v10.3h72.1v46.3s2,0,2,0c16-54.1,24.6-111.4,24.6-170.6s-4.7-86.6-13.7-127.8h-13v241.8Z"/>
  <path d="M529.8,1187.4c1.9-58,9.6-117.5,0-174.9l15.8-2.8,1.9-54.1,49.2-4.8v-159.5h-110.7l-8,17.7,5.4,378.5h46.4Z"/>
  <path d="M529.8,528.8v-180.1h66.9v-162.1c0-1.1,7.7-5.9,5.1-7.7h-123.6l5.1,349.9h46.4Z"/>
</svg>