<?xml version="1.0" encoding="UTF-8"?>
<svg id="Layer_1" xmlns="http://www.w3.org/2000/svg" version="1.1" viewBox="0 0 1200 1200">
  <!-- Generator: Adobe Illustrator 29.0.0, SVG Export Plug-In . SVG Version: 2.1.0 Build 186)  -->
  <path d="M1042.8,195.2v146.5c-10.7,12.3-25.6,14.1-41.2,12.9v138.9h-56.7c4.1,5.1,0,9.7,0,12.9v280.4l-461,.3-17.8-8v-301H162.5v200.7h-90.1c-9.1,7.8-11.7,16.6-13,28.2-4.3,39.1,10.5,91.3,5.5,134.2-.8,7.1-.7,12.6-6.8,17,26.3,55.2,60.8,105.7,101.9,150h110.5v-51.5h185.3v90c-15.4,17.6-42,3.3-59.2,3.6-54.9,1.1-110.9,3.6-165,4.3-7.2,0-15.6-.1-24.1-.6,105.2,91,242.4,146.1,392.4,146.1s286.8-54.9,391.9-145.7h-31.4s0-257.3,0-257.3h67s0-25.7,0-25.7h147.8c16.1-54.3,24.8-111.8,24.8-171.3,0-156-59.6-298.1-157.2-404.8Z"/>
  <path d="M296.4,457.4h128.7v-221.3h97.8V107.5l100.5-4.9-.8-102.2c-7.5-.3-15-.4-22.6-.4-167.2,0-318.4,68.4-427.2,178.7v6h-5.9c-16,16.7-31.1,34.3-45.1,52.7l174.5,3.9v216.1Z"/>
</svg>