<?xml version="1.0" encoding="UTF-8"?>
<svg id="Layer_1" xmlns="http://www.w3.org/2000/svg" version="1.1" viewBox="0 0 1200 1200">
  <!-- Generator: Adobe Illustrator 29.0.0, SVG Export Plug-In . SVG Version: 2.1.0 Build 186)  -->
  <path d="M1200,600c0-50.9-6.3-100.2-18.2-147.4h-28.3v-84.8c-23.2-55.4-54.6-106.5-92.5-151.9h-149.5,0v25.7H376.1v442.5h97.8v144.1l-236.8,5.1v-349.9h-82.4v-102.9c18.4-2.3,43.1,6.9,56.6-7.7v-182.7c-5.1,1.7-11.2-5.1-12.9-5.1h-31.8c-62.2,65-110,143.9-138.1,231.6h33.5v344.8h66.9v164.7h108.1v-61.7l23.1,5.7,115.9-5.7v292.5c36.2,14.6,74.1,25.7,113.4,33v-171.2c0,0,391.1,0,391.1,0l7.7,30.8,15.3-50.1,141.7,2.7c20.7-22.9,39.7-47.4,56.7-73.3v-240.1h-77.2v-195h-257.4v175h-283.1v-200.7h632.3v216.2h77.6c3.9-27.5,5.9-55.6,5.9-84.2Z"/>
  <path d="M787.9,228.8V30C728.8,10.5,665.6,0,600,0s-121.5,9.4-177.7,26.8l-.2,207.5,365.8-5.5h0Z"/>
  <path d="M240,144.2l-.4-24c-12.6,9.5-24.8,19.5-36.6,29.9,19.6,0,33.9-1.5,37-5.9Z"/>
  <rect x="231.9" y="401.2" width="41.2" height="20.5"/>
</svg>