<?xml version="1.0" encoding="UTF-8"?>
<svg id="Layer_1" xmlns="http://www.w3.org/2000/svg" version="1.1" viewBox="0 0 1200 1200">
  <!-- Generator: Adobe Illustrator 29.0.0, SVG Export Plug-In . SVG Version: 2.1.0 Build 186)  -->
  <path d="M149.3,197.2l-7.7,7.7v8c4.5-5.3,9.1-10.5,13.7-15.7h-6Z"/>
  <path d="M600,0c-104.6,0-202.9,26.8-288.6,73.8v123.4h-156.1c-4.7,5.2-9.3,10.4-13.7,15.7v179.8h169.9v267.6h-169.9v288.2h-30c31.9,44.6,69.7,84.7,112.4,119.1v-70.2l7.7-7.7h90.1v-311.3l7.7-7.7h167.3v-288.2h-162.2c-1.7,0-7.8-6.8-12.9-5.1v-164.7h175v-100.3c4.5-7.3,10.3-7.1,17.8-8,68.3-8,149.7,9.7,219.1,5.4v92.6h97.8v46.3h-72.1v252.1l72.1-5.1v478.5h-72.1v118.4c0,1.3-21.3,1.5-15.4,18,3.8,12,74.7,8.5,90.3,8,12.2-.4,23.4-5.3,35.6-5.6,14.2-.3,28.5-.5,42.7-.6,121.6-74.3,214.6-190.7,259-328.9-13.6-.4-29,2.6-31.2.4v-102.9h54.3c3.6-26.5,5.4-53.5,5.4-80.9C1200,268.6,931.4,0,600,0Z"/>
  <path d="M90.1,871.3h-20.6v9.2c6.5,12.2,13.3,24.1,20.6,35.8v-45Z"/>
</svg>