<?xml version="1.0" encoding="UTF-8"?>
<svg id="Layer_1" xmlns="http://www.w3.org/2000/svg" version="1.1" viewBox="0 0 1200 1200">
  <!-- Generator: Adobe Illustrator 29.0.0, SVG Export Plug-In . SVG Version: 2.1.0 Build 186)  -->
  <path d="M0,600c0,3.6,0,7.1.1,10.7h7.8v-108.1h103v51.5h128.7v311.3c4.5,7.3,10.3,7.1,17.8,8,36.6,4.3,133.6,4.1,170.5.1,15.2-1.6,21.4-8.8,30.9-10.2,11.6-1.7,53.5-.9,56.5-5.3l-2.8-62h195.6v77.2h-180.2v185.2H255v30.9h133.8v72.5c55.4,20.8,114.7,33.7,176.5,37.2,17.5-10.2,51.4-8.8,73.2-9.1,21.7-.3,43.6.3,65.6,1.1,40.6-7.1,79.8-18.3,117.2-33.1v-68.6h126.1c13.3-9.5,26.2-19.4,38.6-29.9v-1h-164.7v-262.4h-46.4s0-41.2,0-41.2h169.9v-79.8c0-1.7,6.8-7.8,5.1-12.9h149.3v-66.9h-149.3l-10.3-226.4h-146.7l-7.7-7.7V114.2c8.6-12.4,69.8-10.3,75-2.9v129.3s-69.9,4.8-69.9,4.8v46.3h82.4l2.6-30.9,2.6,30.9h236.9c-75.7-126.1-196.4-222.1-339.9-265.8v70.2h-20.6s0-36,0-36h-193.1c-12.1,0-5.6,28.2-2.6,36h-108.1V18.7C191.5,85.1,0,320.2,0,600Z"/>
</svg>