<?xml version="1.0" encoding="UTF-8"?>
<svg id="Layer_1" xmlns="http://www.w3.org/2000/svg" version="1.1" viewBox="0 0 1200 1200">
  <!-- Generator: Adobe Illustrator 29.0.0, SVG Export Plug-In . SVG Version: 2.1.0 Build 186)  -->
  <path d="M1200,600h0c0-97.8-.6-30.2-1.7-45h-217.7V163.9h-200.8V27.4c-18.5-5.8-37.4-10.7-56.6-14.8v225.8c-8.3,11.7-23.5,7.5-36,7.8V6.3c-20.3-3-40.9-4.9-61.8-5.8v245.7h-128.7v123.5h128.7v200.7l56.2-.5,5.6-200.2h72.1v200.7h205.9v36h-190.5v82.3h360.4v183c41.5-81.6,64.9-173.9,64.9-271.7Z"/>
  <path d="M357.8,377.4h0v-115.8h-221.4v123.5H43.7v133.8H5.4c-3.5,26.6-5.4,53.6-5.4,81.1s2.5,63.3,7.3,93.9h67.3v61.7h149.3v-164.7h355.2v-205.8h-213.6l-7.7-7.7Z"/>
  <path d="M146.8,993.2h0c4.3,5,8.7,9.8,13.1,14.6h64l-3-15.5-74.1.9Z"/>
  <path d="M759.3,1131.3h119.8c6.3-3.3,12.6-6.8,18.7-10.3h-138.5v10.3Z"/>
  <path d="M481.3,223.1V12.1l-.8-.2-30.1-7.5v218.7c0,10.2,30.9,10.2,30.9,0Z"/>
  <rect x="594.5" y="606.4" width="56.6" height="236.7"/>
</svg>