<?xml version="1.0" encoding="UTF-8"?>
<svg id="Layer_1" xmlns="http://www.w3.org/2000/svg" version="1.1" viewBox="0 0 1200 1200">
  <!-- Generator: Adobe Illustrator 29.0.0, SVG Export Plug-In . SVG Version: 2.1.0 Build 186)  -->
  <path d="M1012.4,966.8c-.7-11.2-39.7,9.2-44.7,11.7-7.8,3.9-21.2,15-28.1,16.7-12.3,3.1-1.9-15.5-7-23.3-3-4.7-24.8-3.6-21.4-20.4,2-2.1,36,12.7,30.1-10-3.8-14.6-33.3-54-42.3-70.8-5-9.4-16.3-29.1-17.9-38.7-6.1-35.9,6.1-42.5,16.6-71.8,9.1-25.3,10-51.2,16.9-74.9,3.4-11.7,19.9-25.1,22.3-38.9.6-3.4,1.5-6.7-3.4-5.7l-20,21.2-1.2-58.9c-9.9-7-7.3.3-10.1,6.4-4.6,9.8-10.5,19-14.7,29l-4.7-1.2v-13c-7.9-7.6-24.4,25.5-29.5,30.6-5.3,1-3.3-2.3-3.5-5.8-.5-7.6.8-14.8-2.4-22.4-7.7-1.1-12.5,5.7-15.3,11.7-12,25.8-17.5,63.5-32.2,87.9-1.3,2.1-9.3,13.3-10.1,13.3-2.7,0-1.7-7.7-14.6-.3-7.6,4.3-11,10.3-16,16.9-.6-15.6-1.8-33.9-22.2-22.2-4.6,2.7-13.8,18.3-16.7,16.3l-55.3-94.9-6,3.4c2.2,29.2-12.2,51.8-21.2,78.5-5.9-9.7-21.2-8.5-26.6-14-4.7-4.9-2.1-17.9-12-18.9-7.5,3.2-6,13.6-9.2,18-4,5.6-22.3,5.4-27.5,14.8-9-26.6-23.3-49.2-21.2-78.5l-6-3.4-55.3,94.9c-2.9,2-12.1-13.6-16.7-16.3-19.5-11.3-23,5.7-21,22.2-7.4-6.5-11.6-16.2-21.9-19.5-8.2-2.6-8.4,2.9-9.9,2.9-.8,0-8.9-11.1-10.1-13.3-14.7-24.4-20.2-62.1-32.2-87.9-2.8-6-7.6-12.9-15.3-11.7-3.2,7.6-1.9,14.8-2.4,22.4-.2,3.5,1.8,6.8-3.5,5.8-5-5.1-21.5-38.2-29.5-30.6v13s-4.7,1.2-4.7,1.2l-16.6-37.7c-17.5-1.1-6.8,27.3-6.8,38.9,0,7.1-4,14.7-2.6,22.4-7-7.7-34.1-38-20.1-7,4.4,9.7,16.4,21.6,19,30.4,7,23.7,7.9,49.7,16.9,74.9,3.3,9.2,16.6,32,17.3,36.9,7.3,55.7-40,98.8-61.4,146.3l2.2,9.4,28.4-1.3c3.5,16.8-18.4,15.7-21.4,20.4-5.5,8.5,3.7,18.1-3.4,24.4-4.8,1-55.9-35.1-70.6-33.1-2.8.4-4.2,1.5-5.9,3.7l56.3,96.3c-3,4-5.9,8.1-8.7,12.3,101.1,78.1,227.9,124.6,365.6,124.6s262.9-45.9,363.7-123.1l-9.1-15.5c22.1-28.9,36.6-63.7,56.3-94.5Z"/>
</svg>