<?xml version="1.0" encoding="UTF-8"?>
<svg id="Layer_1" xmlns="http://www.w3.org/2000/svg" version="1.1" viewBox="0 0 1200 1200">
  <!-- Generator: Adobe Illustrator 29.0.0, SVG Export Plug-In . SVG Version: 2.1.0 Build 186)  -->
  <path d="M940.3,919.4c31.9-10.8,52.2-40.4,59.1-72.9,5.1-24.3,10.4-131.7,2.5-150.2-4.3-10-34.3-43-34.5-48.8,3.4-13.7,19.3-21.4,18.8-36.4-12.6-.9-17,14.1-26.9,18.8l10.7-29.6c-11-3.6-18.9,12.8-24.1,14.7-4.3,1.6-10.8-3.8-19,.3-5.7,2.8-14,21.2-20.2,25.4-3.5-9-23.1-41.7-25.7-17.6-3.4,31.3,5.6,70.3-20.1,93h-3.8c-10.4-23.7-33,3.3-43.1,14.9-7.9,9-28.3,43.6-33.5,47.2-5.1,3.6-11.5,1.4-16.5,5-7.4,5.3-17.6,28.6-26.7,35.2-1.4-21.1,3-42.1,1.5-63.4-1.8-24.6-4.3-49.8-35.2-35.1-5,2.4-13.6,13.8-15.9,5.3-2.4-9.1,12.1-56,7.9-60.4-12.7-3-16.8,17.2-24.3,20.3-5,2.1-10.7-3.7-18.7-.1-7.1,3.2-13,18.3-20.3,22.9-10.2-16.4-21.8-10.1-34.6-.2-10.5-12.3-24.2-14.2-32.7.2-7.3-4.6-13.2-19.7-20.3-22.9-8-3.6-13.7,2.2-18.7.1-7.5-3.1-11.5-23.3-24.3-20.3-4.2,4.4,10.3,51.2,7.9,60.4-2.2,8.5-10.9-2.9-15.9-5.3-30.9-14.7-33.5,10.5-35.2,35.1-1.5,21.2,2.9,42.3,1.5,63.4-9.2-6.6-19.3-29.9-26.7-35.2-5.1-3.6-11.4-1.4-16.5-5-5.3-3.7-25.6-38.2-33.5-47.2-10.2-11.6-32.7-38.6-43.1-15h-3.8c-27.8-24.6-14.5-66.5-21.5-99.6l-6.9-1.3-16.1,25.6c-8.2-5.1-10.3-13.3-17.7-20-2-1.8-2.7-5.5-5.6-6.5-6.4-2.2-13.4,2.2-17.2.8-5.1-1.9-13-18.2-24.1-14.7-3.5,12.2,11.4,18.9,9.4,29.6-3.9-3-20.3-24.1-25.6-18.8-2.6,12.9,21.2,28.2,18.4,38.5-2.2,8.1-29.1,35-34.2,46.8-8.1,18.8-2.5,128.1,2.9,152.4,7,31.4,27.8,60.3,58.6,70.7-25,36.5-55.1,74-68.6,117.1,107.4,101.4,252.3,163.5,411.7,163.5s301.2-60.9,408.3-160.4c-3.9-15.3-9.2-29.7-16.3-42.7-14.9-27.3-34.1-52-51.6-77.6Z"/>
</svg>