<?xml version="1.0" encoding="UTF-8"?>
<svg id="Layer_1" xmlns="http://www.w3.org/2000/svg" version="1.1" viewBox="0 0 1200 1200">
  <!-- Generator: Adobe Illustrator 29.0.0, SVG Export Plug-In . SVG Version: 2.1.0 Build 186)  -->
  <path d="M956.4,1082.7c.1-.7.3-1.3.4-2,2.6-13.1,3-48.1,2.1-62-1.9-28.6-22.8-65-39.5-87.9-10.8-14.9-26-29.3-38.4-43,14.3-12,27-26.1,38-41.3,18.1-25.2,29.2-54,45.5-79.9,12.4-19.6,24-39.7,37.3-58.8-.9-11.3-25.8-34.6-24.4-43.1,1.3-8,46.7-54.9,41.4-60-22,6.7-39.4,24-57.4,37.6l-27.4-43.7c-5.3-1.3-15.2,12.1-19.7,15.4-21.1,15.6-34.7,24.5-52.1,46.1-13.9,17.2-24.7,36.1-31.4,57.4-6,4.5-8-21.1-23-13.6l-47,57.5c-4.1.9-12.7-18.9-16-23.6-6.1-8.8-16.1-17-20.9-25-5.7-9.5-20.8-66.8-33.8-64.1l-9.6,10.4c1-4.7-5.7-15.9-9.7-16.6-5.4-.9-57,78.2-68.9,85.3l-68.9-85.4c-4.6-1-12.6,11.8-11.3,16.6l-9.6-10.4c-13-2.7-28.1,54.6-33.8,64.1-4.8,8-14.8,16.2-20.9,25-5.3,7.6-8.4,16.3-14,23.6-5.8,1.4-16.2-19.5-18.9-22.9-3.7-4.6-28.1-33.6-30.1-34.6-15-7.5-17,18.1-23,13.6-6.7-21.3-17.5-40.2-31.4-57.4-17.4-21.6-31-30.5-52.1-46.1-4.5-3.3-14.4-16.7-19.7-15.4l-27.4,43.7c-17.9-13.6-35.4-30.9-57.4-37.6-5.3,5.1,40.2,52,41.4,60,1.4,8.5-23.5,31.8-24.4,43.1,13.2,19.1,24.9,39.2,37.3,58.8,16.3,25.8,27.4,54.7,45.5,79.9,11,15.3,23.7,29.3,38,41.3-31.7,32.8-74.8,83.5-77.9,130.9-.9,13.9-.5,48.9,2.1,62,.3,1.3.5,2.6.9,3.9,99.2,72.6,221.6,115.5,353.9,115.5s256.8-43.6,356.4-117.3Z"/>
</svg>