<?xml version="1.0" encoding="UTF-8"?>
<svg id="Layer_1" xmlns="http://www.w3.org/2000/svg" version="1.1" viewBox="0 0 1200 1200">
  <!-- Generator: Adobe Illustrator 29.0.0, SVG Export Plug-In . SVG Version: 2.1.0 Build 186)  -->
  <path d="M938.4,1084.2c.5-6.1,8.9-12.1,8.3-21.3-1.1-17.3-25.9-20.5-31.4-31.9-2.9-5.9-2.2-14.5-5.3-21.7-6-13.9-15.2-25.5-20.1-39.7,13.7-33.2,40.9-63.4,52.9-97.1,18.1-50.8,41.7-126.8,48.6-179.6,1.6-12.3-1.6-26.5,1-38.1,1.8-8.2,29.1-40.8,23.4-47.2l-15,9c-1.2-18.9-10.5-10.3-18.7-12.8-4.9-1.5-8.7-7.1-13.5-7.9-20.1-3.3-48.7,52-60.7,64.4-7,7.2-15.9,10.4-22.6,16.5-26.2,24-50,49.9-75.1,75l-72-104.8c-9.7-1-25,47.1-33.1,50.8-5.3,2.4-16.6-25.8-22.4-28.7l-7,1.5-71.2,129.3-6.2-1.9c-28.4-39-47.5-83.6-69.6-126.5l-8.3-2.5c-5.8,2.9-17.1,31.1-22.4,28.7-6.6-3-20.4-41-26.3-47.2-1.2-1.3-6.4-4.1-8.3-2.5l-70.5,103.8c-25.2-25.1-49-50.9-75.1-75-6.6-6.1-15.6-9.3-22.6-16.5-12-12.4-40.6-67.6-60.7-64.4-4.8.8-8.6,6.4-13.5,7.9-8.2,2.5-17.5-6.2-18.7,12.8l-15-9c-5.8,6.4,21.5,39,23.4,47.2,2.6,11.6-.6,25.8,1,38.1,7,52.8,30.5,128.9,48.6,179.6,12,33.6,39.1,63.9,52.9,97.1-4.9,14.3-14.1,25.9-20.1,39.7-3.1,7.2-2.4,15.8-5.3,21.7-5.5,11.4-30.3,14.5-31.4,31.9-.6,9.2,7.8,15.1,8.3,21.3.3,3.7-1.9,6.9-4.1,10.6,96.5,66.4,213.5,105.2,339.5,105.2s244.7-39.4,341.6-106.7c-1.9-3.1-3.5-5.9-3.2-9.1Z"/>
</svg>