<?xml version="1.0" encoding="UTF-8"?>
<svg id="Layer_1" xmlns="http://www.w3.org/2000/svg" version="1.1" viewBox="0 0 1200 1200">
  <!-- Generator: Adobe Illustrator 29.0.0, SVG Export Plug-In . SVG Version: 2.1.0 Build 186)  -->
  <path d="M909.3,1099.5c1.3-25,1.3-49,0-74,7,.3,30.5-5.9,29.7-14.8l-50.2-68.2c5-15.4,7.5-33.1,0-48.1.3-3.8,28.7-8.7,27.6-16-1.9-12.6-36.3-43-34.9-55.6,30.1-42.8,64.3-83,94.6-125.6,8.1-11.3,28.9-39.1,33.4-50.1,1.2-2.9,2.8-5.3.7-8.5l-6.6-4.4c-4.6.4-7.9,6.5-10.8,7.6-2.4.9-5.8-1-9.3,0-9.8,2.7-.8,5-13.3,1.9-11.9-2.9-23.5,24.8-35.3,29.6,3.5-7.1,5-19.2,8.2-25.3,4.8-9.1,28.8-27.4,26.5-38.1-.3-1.5-3.6-1.3-4-2.1-2.2-3.9,2.1-9.8-4.2-8.7l-20.9,23.1c-1.6-6-1.5-8.5-8.9-8.8-7.8,3.1-6.3,13.6-15.4,11.1l1.2-14c-3.8-5.9-21.2,7.7-24.4,10.5-45.3,38.8-83.4,97.7-119.4,144.7-1.4,1.9-3.2,4.5-5.6,4.8l-4.6-15.2-3.1-.7c-6.9,7.7-12.4,2.1-15.5-6.1.3-14.1,31.4-94.6,25.5-100.7-3.5-.5-5.4,0-8.2,2.2-8.4,6.4-24.2,34.5-33.6,40.7-.8.6-11.2,1.4-13.8,3.5,2.9-12.8,11-33.7,10.5-46.2-.2-3.9-2.1-4.6-4.7-7-21.7,30.1-54.1,53.1-68.7,87.6-20.5-9.3-43.3,48.4-51.5,46.6-16.4-14.9-23.6-48-49.7-46.6-14.6-34.5-47-57.6-68.7-87.6-2.5,2.4-4.5,3.1-4.7,7-.6,12.5,7.5,33.5,10.5,46.2-2.6-2.1-12.9-2.9-13.8-3.5-9.4-6.2-25.1-34.2-33.6-40.7-2.8-2.2-4.7-2.7-8.2-2.2l1,16.3,24.4,84.4-8.4,10.3-10.2-3.4-5.7,15.2c-7.8-7.2-11.2-18.4-17.4-26.6-23.3-30.9-79.7-101-107.8-123.9-11.7-9.6-30.7-20.5-22,4.6-9.2,2.5-7.9-8.4-15.4-11.1-6.4.4-8.8,2.3-7.8,8.8l-22-23.2c-6.2-1.1-1.9,4.7-4.2,8.7-.4.7-3.7.6-4,2.1-2.3,10.6,21.7,29,26.5,38.1,3.2,6.1,4.7,18.2,8.2,25.3-11.8-4.8-23.4-32.6-35.3-29.6-12.6,3.1-3.5.8-13.3-1.9-3.5-.9-6.9.9-9.3,0-2.8-1-6.1-7.1-10.8-7.6l-7.7,7.7c37.3,64.3,86.8,120.4,129.8,180.9,1.4,12.7-33,43-34.9,55.6-1.1,7.3,27.2,12.3,27.6,16-7.6,15-5.1,32.7,0,48.1l-50.2,68.2c-.9,8.9,22.7,15.1,29.7,14.8-1.3,25-1.3,49,0,74-3.7-.2-11.9,1.5-18.8,4.3,93.8,60.8,205.7,96.1,325.8,96.1s232.7-35.5,326.7-96.7c-6.5-2.5-13.9-3.9-17.4-3.8Z"/>
</svg>