<?xml version="1.0" encoding="UTF-8"?>
<svg id="Layer_1" xmlns="http://www.w3.org/2000/svg" version="1.1" viewBox="0 0 1200 1200">
  <!-- Generator: Adobe Illustrator 29.0.0, SVG Export Plug-In . SVG Version: 2.1.0 Build 186)  -->
  <path d="M1007.5,1040.4c4-8.8,8-17.7,12.2-26.4-16.1-45.7-58-1.9-85,4.3-.2-9.2-8.8-23.5-8.7-31.3.2-12.3,45.2-67.3,53-86.5,11-27.3,8.4-59.9,12.5-88.7,3.1-22.2,15.2-27.8-18.2-36,0-19.8,27.9-82.6,26.1-91.9-.4-2.2-4.8-7-6.7-7.2l-28.3,30.6c3.6-8.9,2.3-18.7,5-27.7,3.9-12.8,17.8-30.1,15.2-42.9-.6-2.8-5.1-5.4-4.9-9.3.5-7,15.8-16.6,10-25.8h-12.2c0-.1-71.2,95.3-71.2,95.3-.2-25-22.7-27-37.2-10.5-7.2,8.2-53.3,95-57.1,106.5-2.7,8.3-1.3,15.5-3.9,22.9-1,2.8-18.7,26-20.7,26.9-9.5-18.1-18.4-41.1-34.9-54.3-14.2-11.4-41.4-23.4-54.3-5.2l-74.8-112.8c-10.4-.6-16.1,6.4-20.4,14.7h-4.4c0-8.2-13.5-18.3-20.9-13.6l-72.8,111.7c-12.8-18.5-42.2-5.4-56.1,6.5-13.7,11.8-25.7,36.2-31.7,53.1-1.8,1.4-21.1-23.8-22.2-26.9-2.6-7.4-1.2-14.6-3.9-22.9-3.8-11.5-50-98.4-57.1-106.5-14-15.9-38.5-15.3-35.8,10.5-18.6-20.9-31.6-46.6-49.3-68.2-2.7-3.2-7.3-4.6-10.1-7.8-5.1-5.8-11.4-22.5-19.3-22.4-18.7,0,3.7,24.8,4,28.9.3,3.9-5.6,7.3-5.5,14.1.2,10.5,13.2,28.4,16.5,40.4,2.4,8.5,1.3,18.4,4.2,27-5.6-5.1-30.4-48.8-35-24.9-1.8,9.3,26.1,72.1,26.1,91.9-33.4,8.3-21.3,13.8-18.2,36,3.7,26.4,1.9,57.1,10,82.2,7.4,22.8,55.2,80,55.4,93,.1,7.8-8.5,22.1-8.7,31.3-27.1-6.2-68.9-50-85-4.3,4.9,10.3,9.6,20.7,14.4,31.1,106.4,96.3,247.5,154.9,402.4,154.9s300.5-60.5,407.5-159.6Z"/>
</svg>