<?xml version="1.0" encoding="UTF-8"?>
<svg id="Layer_1" xmlns="http://www.w3.org/2000/svg" version="1.1" viewBox="0 0 1200 1200">
  <!-- Generator: Adobe Illustrator 29.0.0, SVG Export Plug-In . SVG Version: 2.1.0 Build 186)  -->
  <path d="M994.2,1052.3c9-12.3,17.3-25,24.4-38.5,11.8-22.5,18.4-41.2,9-66.9-28-29.6-50.2-74.3-76.4-103.7-8.4-9.5-13.7-12.8-26.6-14.9,8.6-32.4,14.6-74.4,28.1-104.8,8.7-19.8,70.4-88.8,66.4-104.7l-6.8-4.2c-21,8.2-35.2,25.6-50.7,40.9-2.1-7.9,5.1-15.6-8.8-14.8-59.7,40.3-105.1,97.9-153.6,150.7-4.4-2.3.7-7.1,2.1-9.7,7.7-14,18.7-28.2,25.6-42.3,5.8-12.1,27.7-56.6.4-46.9l-64.9,72.3c-21.1-33.9,13.1-70.2,2.8-106.2-4-.8-7.9-.4-11.6,1.4-1.8.9-28.4,24.9-29.7,26.4-4.5,5.7-13,31.9-19.5,33.8-11.2,3.7-60.7-22.5-58.8-2.4l9.3,29.4c-17.2,10.7-21.4,35.2-41.1,44.1l-39.7-45.9,10-27.5c1.9-20-47.7,6.2-58.8,2.4-6.5-1.8-15-28.1-19.5-33.8-1.2-1.6-27.9-25.6-29.7-26.4-3.7-1.8-7.6-2.2-11.6-1.4-10.4,36,23.8,72.3,2.8,106.2l-64.9-72.3c-27.3-9.7-5.5,34.8.4,46.9,8.5,17.5,23.2,33.2,29.1,52.1-41.8-40.5-77.2-90.2-122.6-127-7.2-5.9-35.2-30.7-41.4-20.8l1.6,11.8c-15.3-18.3-82.5-72.7-48.4-12.1,14.5,25.8,45,55.5,55.9,80,4.6,10.4,32,102.5,28.1,106.3-4.8-.2-9.6.2-14,2.3-20.2,9.5-66.8,96-88.9,114.9-17.1,34.5,15.7,80.8,35.6,108.4,14.2,19.7,31.1,37,47,55.2,91.7,56.8,199.8,89.6,315.6,89.6s288.8-55.7,394.2-147.7Z"/>
</svg>