<?xml version="1.0" encoding="UTF-8"?>
<svg id="Layer_1" xmlns="http://www.w3.org/2000/svg" version="1.1" viewBox="0 0 1200 1200">
  <!-- Generator: Adobe Illustrator 29.0.0, SVG Export Plug-In . SVG Version: 2.1.0 Build 186)  -->
  <path d="M898.1,1120.8c.2-2.7.3-5.5.2-8.4,0-12.2-13.1-16.6-22.3-9.6-3.8,2.9-3.7,7.5-7.3,8.5-2.8-15.1,1.3-59.6-14.8-66.4-4.2-1.8-14.2.8-12.6-4.2.6-1.9,8.6-.5,12.6-2.2,16-6.6,12.1-51.4,14.8-66.4,3.6,1,3.5,5.6,7.3,8.5,9.2,7,22.2,2.6,22.3-9.6.2-27-8.4-44.2-16.4-68-2.2-6.6-1.8-13.6-3.7-19.5-4.1-12.5-15.7-25.2-17.6-38.5,1.9-9.2,33.5-34.6,39.2-45.3,7.6-14.3,12-37.3,19-52.6,17.9-39.2,44.8-79.4,61.9-119.4,3.8-8.9,19.4-37.8,1.2-34.8-11.3,1.8-36.2,44.3-44.7,54.5l7.3-25.2c-11-5.5-18,1.8-26.2,8.4-32.3,26.2-52.4,65-86.6,88.4-4.2,2.9-8.2,9.4-12.6,12.7-2.6-.8-.5-4.5,0-6.3,6.7-21,18.8-60,15.9-81.3-1.7-12.6-15.2-11.3-18.1-15.7-2.4-3.7,0-18.7-11-13.3-12.6,6.3-26.6,53.9-37.5,66l-30.7-63.1c-19.1-1.1-13,25.1-14.6,37.8l-7.6-12.8-14.4,6.4c-8-12.6-18.5-16.4-32.3-8.9-14.9,8.1-7.1,40.8-9,55.3-37.4-1.8-40.1,44.4-42.2,71.7-6-3-3.4-13.1-12.5-10.5l-8.6,23.1c-4.8.9-3.3-.3-4.7-2.7-1.6-3-7.1-19.8-8-20.4-9.1-2.6-6.5,7.4-12.5,10.5-2.1-27.2-4.8-73.5-42.2-71.7-1.9-14.6,5.9-47.2-9-55.3-13.8-7.6-24.3-3.7-32.3,8.9l-14.4-6.4-7.6,12.8c-1.6-12.7,4.5-38.9-14.6-37.8l-30.7,63.1c-10.9-12-24.9-59.6-37.5-66-10.9-5.5-8.6,9.6-11,13.3-2.9,4.4-16.3,3.1-18.1,15.7-3.6,25.9,11.5,62.2,16.9,87.6-5.7-2.6-8.8-9.4-13.6-12.7-33.8-23.2-53.6-61.2-85.4-87.5-8.4-6.9-16.2-15.1-27.4-9.4l8.3,25.2c-10.4-9.5-33.5-52.4-45.8-54.5-18.6-3.2-1.8,28,1.8,36.2,17.2,39.6,43.5,79.2,61.2,118,6.9,15.2,11.9,40.7,19.8,54,5.8,9.9,36.6,35,38.5,43.9-1.9,13.2-13.5,26-17.6,38.5-1.9,5.9-1.5,12.9-3.7,19.5-8,23.9-16.5,41-16.4,68,0,12.2,13.1,16.6,22.3,9.6,3.8-2.9,3.7-7.5,7.3-8.5,2.8,15.2-1.3,59.5,14.8,66.4,5.7,2.4,14.2-1.9,12.6,5.3-33.5-2.4-22.8,45.7-27.4,67.5-3.6-1-3.5-5.6-7.3-8.5-5.6-4.2-14.6-4.6-19.5.6-1.6,1.7-2.2,6-2.1,11.5,90.1,54.1,195.5,85.1,308.3,85.1s210.3-28.8,298.1-79.2Z"/>
</svg>