<?xml version="1.0" encoding="UTF-8"?>
<svg id="Layer_1" xmlns="http://www.w3.org/2000/svg" version="1.1" viewBox="0 0 1200 1200">
  <!-- Generator: Adobe Illustrator 29.0.0, SVG Export Plug-In . SVG Version: 2.1.0 Build 186)  -->
  <path d="M734.7,874.3c-14.9,1-50-24.1-57.2,11.6-12.5-23.3-34.1-32.2-44,.3l-7.4-20.7-130.5,1.2-15.4,52.7-31.6-24.9,8.9-26c-46.7-.4-49.2.2-76,49.2l12.7-43.4c-31.6-4.6-64.7-.4-97,1.6-20.9,1.3-20.8-20.2-42.2,16l-3.3-19.1-26.6,22.2.3-18.3c-7.5-7.6-134.3-6.5-160.6-5.1,8.3,16.3,17.3,32.1,27,47.5,6-.2,8.9.3,25.5.5,137.6,2,275.3,3.9,412.2,9.9,2.9-80,28.9-34.3,53.5-25.9,27.4,9.4,88.8,26.6,117.7,23.8,5.9-.6,7.7-15.4,13.3-15.7,19.6-1.2,47.8,20.5,75.3,13.8,10.2-2.5,13.3-16.5,18.3-19.1,27.4-14.6,29.9,12.6,48.3,15.9,16.5,2.9,84.2,2.6,92.6-17.9l1.1,17.3,156.6.5c12.4-19.4,23.6-39.5,33.7-60.3-132.3-.3-266.1,3.2-405.2,12.4Z"/>
  <path d="M908.2,1030.3c-32.2-2-75.6-28.5-96.2,21.8l-5-28.8-15.9,24.5,2-27.1-123.4,15.4c-18.7-3.7-39.2-12-58.2-12.8-28.5-1.2-78.4-6.9-95.1,24l-17.4-4,10.7-16.1c-40.9-2.7-62-6.7-97,26.2l9-25.7-43.2,1.5-18.6,31.9-10.2-39c-38.6,100.3-23,4.2-26.5,3.6-23.9-4.1-53.8,16.3-76.4,4.6l-4.7,15.8-4.8-12.4-26.6-12.4,17.4,22.1c-4.4,7.9-9.8,12.1-15.7,14.3,8.4,7.1,16.9,13.9,25.6,20.6,24.7.8,35.7.6,58.7-30.1l-.4,36.7,148.9-10.9c21.1,10.3,68.9,13.3,82.3-6.6,145.7,3.6,291,6.8,436,10,19.4-14.7,37.8-30.6,55.2-47.6-37.1,1.3-72.3,2.9-110.4.4Z"/>
  <path d="M191.8,1039.7l8.9-6.5c-4.6-1.8-12.3-3.9-21.8-5.8,4.2,4.2,8.5,8.3,12.9,12.3Z"/>
  <path d="M682.8,1182.9l5.4,10.7c17-2.5,33.8-5.7,50.3-9.6-2.7-.1-5.5-.3-8.2-.4-15.9-.9-32,3.1-47.6-.6Z"/>
  <path d="M662.3,1187.8c-12.2-7-138.1-5.1-164.5-5.3-3.1,0-5.1,3.9-6.9,7.7,35.4,6.5,71.9,9.9,109.1,9.9s43.7-1.2,65.1-3.5c0-3.7-.5-7.4-2.8-8.7Z"/>
  <path d="M1160.2,800.2c-3.7.2,0-14.6-1.7-16.6-7.7-8.4-93.5,4.7-115.5,4.9-45.4.5-99.8-8-143.5-2.8-4.1.5-6,15.4-10.6,14.6-16.6-2.9-49.2-39.9-63,5.2l-7.1-20.5c-60.1,13.8-120.6,2.1-181.1,3.5-18,.4-109.1,1.7-117.4,6.2-14.6,7.8-16.3,24.2-25.7,34.9-7.4,8.5-19.9,1-20.7,14.7l123.1,6.7-19.3-13.1c11.6-46.7,40.9-.9,68.5,5.6,61.1,14.4,177.4,6.5,237.8-16.7l3.7,19.7,105.3,2.5,9-25.7c0,33.3,39.9,33.6,47.6.5,18.9,40.3,56,13.3,84.4,13.8,5.7,0,11.4.3,17.1.5,6.4-14.7,12.2-29.7,17.3-45-2.4,2-5.1,4.4-8.1,7.3Z"/>
  <path d="M765,1102.3c-14.1.5-28.3,13.4-36.6,13.2-21.3-.5-21.6-10.5-57.1-4.8-4.2.7-10.8-7.9-14.9-5.8-4.6,2.5-20.9,30.6-24.5,39.7l-6.7-38.2-22.2,14.5-38.5-18.3-12.1,17c-35.6-32.3-59.8-14.2-93.6,12.8,19.2,48.5,66.9,21.7,101.5,21.5,33.1-.2,75.5,25.7,105.1-11.5-2.7,28.3,27,21.9,45.6,17.8,9.4-2.1,13.6-29.3,44.9,1.6l14.9-16.2-.5,17.4h37.6c40-14.8,78-33.7,113.4-56.2-50.1-10-106.4-6-156.5-4.3Z"/>
  <path d="M926.5,945.7l-10.1,26.2-12.6-29.3c-72.1,6.8-143.2,5.7-216,1.1l-10.9,53.1-24.4-23.6,19.5-23.5c-22.5-18-57.5,10.4-72.8,10-9.1-.3-17.1-10.7-25.8-11.7-41.8-4.9-30.6,27.2-67.1,41.4l3.8-36-85.5-7-18.5,31.8-1.6-28.2-94.8-.7-7.2,16.8c21.6-1.7,13.4,41.1,17.2,40.6,5.9-4.1,13-9.3,19.4-9.3,72.4.2,145.6-.9,217.6-1.9,49.1-.6,117.2,14.6,164.6,10.4,8.7-.8,15.3-24.4,20.9-23.5,1.5.3,4.5,18.7,22.8,21.5,69.2,10.6,181.6-9.2,254.8-8.5,10.4,0,20.8.2,31.2.3,12-13.6,23.3-27.8,34-42.4-23.2,0-46-.1-67.9-.5-28.1-.5-59.6-14.7-90.5-7.2Z"/>
  <path d="M442.2,1105.9l-165.7-.4c36.4,23.3,75.5,42.9,116.7,58l66.2,1.3-31.5-24.9,14.3-33.9Z"/>
  <path d="M76.3,818.4c25.4,32.9,56.1,19.2,89.6,27.5-5.3-29,15-30.9,31.5-18.2,1.5,1.2-1.2,11.5,2.2,14,25.3,18.4,222.9-5.8,265.4,9.9l-9.4-24.9,36.1-34.1-134.6-.3-9.8,26.1c-27.5,3.2-10.5-32.2-41.5-26.1-22.5,4.4-9.3,39.8-13.1,42.6l-21-4.3,14.2-33.9-23.6-4.9c-13.9,27.9-15.8,2.6-36.8,2.1-69.3-1.6-125.6,6.1-188.3,14,5,13.5,10.4,26.7,16.3,39.7,7.6,0,15.8-.7,24.6-1.2l-1.6-28Z"/>
  <path d="M164.9,993.5c32,.5,101.6,18.7,128.5-1.2,12.2-10.5-1.9-6.5-5.1-13.9-26.6-61.4-77.8-10.7-125-31l-1.8,27-8.6-29.4c-12.3.6-29.6-2.4-37.2,9.3,10.3,14.1,21.3,27.8,32.8,40.9,15-11.4,48.5-63,41.2-15l-24.7,13.5Z"/>
</svg>