<?xml version="1.0" encoding="UTF-8"?>
<svg id="Layer_1" xmlns="http://www.w3.org/2000/svg" version="1.1" viewBox="0 0 1200 1200">
  <!-- Generator: Adobe Illustrator 29.0.0, SVG Export Plug-In . SVG Version: 2.1.0 Build 186)  -->
  <path d="M883.1,860.2c-26.8,5.2-56.8-11.9-82.6-12.5-92.4-2-194.9,5.3-265.5,18.2-161.8-2.3-317.5-3.8-473.5-1,9.9,20.1,20.9,39.5,32.9,58.3l440.3-15c194.2,1.7,386,.2,579.6.9,11-18.3,21.1-37.2,30.1-56.6-20.9-1.2-41.5-2.7-61.4-4.5-67.5-6-144.6,1.5-200,12.3Z"/>
  <path d="M177.1,1025.6c20.9,20.8,43.3,40,67.1,57.5,241.5-3.5,482.2-6.5,722.4-8.1,21.6-16.7,42-34.8,61.1-54.2-83.4,1.2-166.8,2.8-250.1,4.8-196-10.1-397.9-6.8-600.5,0Z"/>
  <path d="M600,1200c60.5,0,118.9-9,174-25.6-106.7,1.2-212.9,4.3-318.8,8,46.4,11.5,94.9,17.6,144.8,17.6Z"/>
  <path d="M310.5,775.8c-92.8,2.5-186.9,3.9-280.8,11,5.2,15.9,11.1,31.6,17.5,46.9,48.7,25,107.7,4.8,160.6,2.4,73.2-3.3,135.8,3.3,214.5,1.9,198.8-3.4,396.4-14,596.6-12.8,37.2.2,92.7,10.8,132.9,10.9,9.3-21.8,17.4-44.2,24.1-67.2-286.9-2-575.6-.8-865.5,6.9Z"/>
  <path d="M390.6,1162.4c33.6-.1,67.1-.4,100.6-.8,111.4-1.5,224.9-4.5,338.1-7,38.9-16.1,75.8-36.2,110.1-59.7-224.1.7-447.5,3.3-666.8,8,36.7,24,76.3,44,118,59.6Z"/>
  <path d="M151.1,998.1c302.3-6.3,604.3-9.5,906.1-9.6,15.4-18.1,29.7-37.1,42.9-57-328.9,2.2-657.7,8.9-986,20.5,11.6,15.9,23.9,31.3,37,46Z"/>
</svg>