<?xml version="1.0" encoding="UTF-8"?>
<svg id="Layer_1" xmlns="http://www.w3.org/2000/svg" version="1.1" viewBox="0 0 1200 1200">
  <!-- Generator: Adobe Illustrator 29.0.0, SVG Export Plug-In . SVG Version: 2.1.0 Build 186)  -->
  <path d="M56.8,855.1c8.8,18.8,18.6,37,29.3,54.7,85.9.8,172.3,2.2,259.6,4.8l8.7-14.9c250.5,6.6,501.4,13.5,752.6,21.2,11.3-17.8,21.7-36.3,31.1-55.4-187.1-3.9-374-6.7-560.6-8.4-164.2-1.5-353.1,4.6-520.8-2.1Z"/>
  <path d="M169.5,1018c19.5,20,40.3,38.7,62.4,55.9,242.2.3,484,2.6,725.7,8,23.5-17.4,45.6-36.6,66.3-57.2-285.3-5.8-570.2-8.2-854.3-6.7Z"/>
  <path d="M600,1200c50.2,0,99-6.2,145.6-17.8-103.6-2.1-207.1-3.8-310.6-5.2,52.4,15,107.8,23,165,23Z"/>
  <path d="M644.6,777.1c-205.8-3.7-412.7-6.9-620.5-8.3,5,16.9,10.6,33.5,17,49.8.3-.1.6-.2.9-.2,18.3,0,42.4,38.3,56.5,1.6,349.6,4.4,700.2,11,1051.4,20.5,9.7-22.2,18.1-45.1,25.2-68.6-182.2-6.2-384.7,7.8-530.4,5.2Z"/>
  <path d="M262,1095.8c36.7,25.1,76.4,46.2,118.4,62.7,67.5-2.3,135.7-7.7,201.4-6.5,74.4,1.4,151,5.8,226.5,10.8,40.9-15.1,79.8-34.6,115.9-57.9-42.9-.9-85.7-1.7-128.5-2.5-175.6-3.1-354.1-5.4-533.6-6.7Z"/>
  <path d="M99.4,930.9c13.4,20.3,28.1,39.7,43.8,58.1,300.8,1.4,601.3,5.9,901.9,13.3,17.5-19.3,33.7-39.8,48.6-61.2-331.4-7.6-662.9-11.1-994.2-10.2Z"/>
</svg>