<?xml version="1.0" encoding="UTF-8"?>
<svg id="Layer_1" xmlns="http://www.w3.org/2000/svg" version="1.1" viewBox="0 0 1200 1200">
  <!-- Generator: Adobe Illustrator 29.0.0, SVG Export Plug-In . SVG Version: 2.1.0 Build 186)  -->
  <path d="M64.4,870.6c10.1,19.9,21.2,39.2,33.4,57.8,331.8,1.8,664.1,5.4,996.4,12,13.7-19.9,26.3-40.6,37.5-62.1-355.4-6.7-711.6-9.1-1067.3-7.6Z"/>
  <path d="M260.1,1094.5c27,.4,53.9.8,80.9,1.2,197.1-.4,394.1,1.1,590.8,4.3,25.5-16.9,49.6-35.8,72.2-56.3-273.3-6.3-546.5-10-819.4-10.8,23.4,22.5,48.7,43.1,75.6,61.6Z"/>
  <path d="M210.1,796.5c-54.6-11.1-117.1-16.6-183.3-18.8,7.3,23.4,15.9,46.2,25.8,68.3,362.7.4,726,4,1089.5,11.4,10.4-22,19.6-44.7,27.4-68-274.1-6.5-547.7-9.8-819.6-9.5-32.4,0-132.7,18-139.8,16.6Z"/>
  <path d="M440.4,1178.5c98.1,1.9,196.3,4,294.6,6.2,55.4-12.7,107.8-33.1,156.1-60-199.1-4-398-6.7-596.4-8.1,45.1,26.7,94,47.6,145.6,61.9Z"/>
  <path d="M162.8,1010.9c287.6,1.2,575.3,5.1,863.1,11.7,19.6-19.8,37.9-40.9,54.6-63.2-322.9-7.4-646.2-11.4-969.5-11.7,15.8,22.2,33.2,43.3,51.8,63.2Z"/>
</svg>