<?xml version="1.0" encoding="UTF-8"?>
<svg id="Layer_1" xmlns="http://www.w3.org/2000/svg" version="1.1" viewBox="0 0 1200 1200">
  <!-- Generator: Adobe Illustrator 29.0.0, SVG Export Plug-In . SVG Version: 2.1.0 Build 186)  -->
  <path d="M104.8,938.8c333.2-8.6,666.5-13.7,999.8-13.9,13.4-20.8,25.5-42.4,36.3-64.8-356,.8-714.3,6.4-1073.5,16.5,11.2,21.6,23.7,42.4,37.4,62.3Z"/>
  <path d="M267,1099.2c224.1-3.7,448-5,672-4.1,26.1-17.9,50.6-37.8,73.5-59.4-271.7.7-543.9,3.3-816.1,8.3,22.1,20.1,45.7,38.5,70.6,55.2Z"/>
  <path d="M30.3,788.6c7.6,23.1,16.7,45.6,26.9,67.4,364.2-9.9,728.8-15.8,1093.3-16.8,8.6-19.8,16.2-40.1,22.7-60.9-380.3-1.8-762.2,1.3-1142.8,10.4Z"/>
  <path d="M477,1187.4c86.3-1.2,172.6-2.1,258.9-2.8,59.1-13.7,114.9-36.1,165.9-65.9-197.4,1-394.9,3.1-592.4,6.4,51.6,28.6,108,49.9,167.5,62.3Z"/>
  <path d="M908.7,947.8c-262.9,1.6-526.2,5.2-789.7,11,16.8,22.5,35.2,43.8,54.9,63.7,265.1-5.2,530.6-8.3,796.3-9.2,21.6,0,43.3-.2,64.9-.2,19.5-20.6,37.6-42.5,54.1-65.7-60.2,0-120.4,0-180.6.5Z"/>
</svg>