<?xml version="1.0" encoding="UTF-8"?>
<svg id="Layer_1" xmlns="http://www.w3.org/2000/svg" version="1.1" viewBox="0 0 1200 1200">
  <!-- Generator: Adobe Illustrator 29.0.0, SVG Export Plug-In . SVG Version: 2.1.0 Build 186)  -->
  <path d="M58.4,858.4c10.7,22.4,22.8,44.1,36.1,64.9,335.2-2.6,670.3,0,1005.1,9.2,13.2-19.8,25.3-40.5,36.1-61.9-359-11.8-718.2-16.1-1077.3-12.2Z"/>
  <path d="M340.3,1031.6c-51.9.3-103.9.8-155.8,1.2,24.8,23.8,51.7,45.6,80.3,64.9,217.6,1.7,435.1,5.6,652.6,11.6,32.7-20.4,63.3-43.9,91.4-70-222.1-6.3-444.7-9.2-668.4-7.7Z"/>
  <path d="M26.7,777.4c6.3,20.5,13.8,40.6,22.2,60.1,73.6-1,147.2-1.7,220.7-2.3,291.6-2.2,583.8,3.3,876.1,14.6,9.2-20,17.3-40.6,24.2-61.6-203.8-6.3-406.8-10.1-608.3-11.1-177.8-.9-356.2-.8-534.9.4Z"/>
  <path d="M428.9,1114c-45.8.2-91.6.4-137.4.7,48.9,29.4,102.4,52,159.1,66.5,96.4.4,192.7,1.1,289,2.4,58-13.8,112.7-36.1,162.8-65.4-157.7-3.3-315.5-4.8-473.5-4.3Z"/>
  <path d="M110,946.3c15.6,22.1,32.7,43,51.1,62.8,292.2-4.2,583.6-5.9,875.4,2.6,15.4-16.4,30-33.6,43.5-51.6-322.8-10.1-646.1-14.8-970-13.7Z"/>
</svg>