<?xml version="1.0" encoding="UTF-8"?>
<svg id="Layer_1" xmlns="http://www.w3.org/2000/svg" version="1.1" viewBox="0 0 1200 1200">
  <!-- Generator: Adobe Illustrator 29.0.0, SVG Export Plug-In . SVG Version: 2.1.0 Build 186)  -->
  <path d="M65.1,872c10.8,21.2,22.9,41.8,36.1,61.4,163.7-3.3,327.3-5,490.9-4.9,167.8.1,336.2,3.3,504.9,7.7,13.6-20.1,26-41,37.1-62.7-356.2-7.2-712.7-8-1069-1.6Z"/>
  <path d="M195.6,1043.3c29.2,26.6,61,50.4,95,70.9,206.8-2.3,413.7-2.7,620.7-1.2,32-19.4,62-41.8,89.6-66.7-269.3-4.3-537.4-5.8-805.4-3Z"/>
  <path d="M30.3,788.8c7.2,21.7,15.5,42.8,25,63.2,361.8-4.3,723.9,0,1084.9,9.2,11.4-23.4,21.2-47.7,29.5-72.8-379.8-7.8-761.1-8-1139.4.3Z"/>
  <path d="M304.7,1122.4c50.6,28.6,105.7,50.2,164,63.2,13.5,0,27.1-.2,40.6-.3,75-.4,149.9-.5,224.9-.4,56.4-12.9,109.8-33.8,158.9-61.3-196.1-2.3-392.3-2.9-588.5-1.2Z"/>
  <path d="M121.6,962.2c14.3,18.8,29.7,36.8,46,53.8,287.2-2.8,574.3-1.5,861.4,3.4,17.9-18.3,34.7-37.8,50.2-58.4-319-4.4-638.1-4.2-957.6,1.2Z"/>
</svg>