<?xml version="1.0" encoding="UTF-8"?>
<svg id="Layer_1" xmlns="http://www.w3.org/2000/svg" version="1.1" viewBox="0 0 1200 1200">
  <!-- Generator: Adobe Illustrator 29.0.0, SVG Export Plug-In . SVG Version: 2.1.0 Build 186)  -->
  <path d="M982.3,874.6l-4.7-15.2c-28.4,28.4-41.9,2.1-59.5,1.3-140-6.4-302.3,2.1-444.7,3-136.6.9-273.1,2.6-409.7,5.3,11.2,22.3,23.7,43.8,37.5,64.3,229.7-3.2,459.7-5.5,689.4-10.9,31.9-.8,78.5,20,100.3-8.2l14.3,18.5c66.4-3.8,132.6-5.9,198.7-6.9,13-20.1,24.9-41.1,35.5-62.7-53-1-107.8,2.3-157.1,11.4Z"/>
  <path d="M458.4,1030.2c-74-11.3-175.7-5-274,2.6,27.8,26.7,58.2,50.7,90.7,71.7,34.8-.7,69.5-1.4,104.3-2,141.3-2.5,317.1-31.8,452-21.8,11.8.9,20.4,5.6,29,15.6l6.5-18.4c-2.3,20.3,43.7,17.2,56.1,14.6,8.7-1.8,16.5-9.6,23-16.9,1.7,4,3.9,7.3,6.5,9.9,24.6-17.9,47.8-37.6,69.3-58.9-176.6,1.9-354.6,5.7-529.9,8.1-29.3.4-28.9-3.8-33.6-4.5Z"/>
  <path d="M600,1200c28.8,0,57.1-2,84.8-5.9-49.9.7-99.7,1.6-149.6,2.5,21.3,2.3,42.9,3.5,64.9,3.5Z"/>
  <path d="M28.7,783.8c8.1,25.3,17.9,49.9,29.2,73.7,364.2-5.9,727.2-7.1,1087.4-7,10.3-22.3,19.2-45.4,26.7-69.1-376.4-6.4-759.1-5.9-1143.4,2.4Z"/>
  <path d="M427,1174.7c119.8-2,239.5-3.3,359.3-4.2,45.8-15,89.2-35.3,129.5-60.2-206.4,1.5-412.9,3.8-619.3,7.4,40.7,23.9,84.5,43.2,130.6,57Z"/>
  <path d="M116.3,955c15.4,20.9,32.1,40.9,50,59.6,291.1-5.4,582.3-7.3,873.5-6.4,18.4-19.8,35.5-41,51.2-63.2-324.9-.9-649.8,2.2-974.7,10Z"/>
</svg>