<?xml version="1.0" encoding="UTF-8"?>
<svg id="Layer_1" xmlns="http://www.w3.org/2000/svg" version="1.1" viewBox="0 0 1000 1000">
  <!-- Generator: Adobe Illustrator 29.0.0, SVG Export Plug-In . SVG Version: 2.1.0 Build 186)  -->
  <g>
    <path d="M322,406.8c40.7,93.3,291.2,87.3,340.8,7.2,27.6-44.5,35.5-354.5,4.8-380.2l-2.9-6.1c-9.6-3.4-19.4-6.4-29.3-9.2,3.3,18.1,7,34.8,10,43,4.2,11.6,11,68.6,12.4,85.8,3.6,45.2-3,195.7-15.6,235.1-21.1,66.3-237,65-269,35.9-54.7-49.6-39.2-301-32.6-392.4-14.8,5-29.3,10.6-43.4,16.9-12.5,72.9,7.1,323.2,24.9,363.9h-.1Z"/>
    <path d="M521.6,113.4c-5.5,16-21.7,26.4-35.1,28.8-34.8,6.2-76-29.6-48.6-73.5,2.6-4.2,12.6-16.8,38.9-16.8s41.6,29.7,41.6,29.7l33.2-3.2c-2.9-14.5-9.8-27.2-20.6-33.4-27.2-15.6-81.8-28-113,3.2s-13.9,74.7-9.9,83.6c24.5,54.5,93.7,46.4,128.3,10.2,6.8-7.1,11.5-16.7,14.2-27.1l-28.9-1.4h-.1Z"/>
    <path d="M483,120.5s24.2-23.2,11.8-35.6-25.7-7.4-37.7,4.5,8.1,39.2,25.9,31.1h0Z"/>
    <path d="M548.2,305.8c-68.1-88-193.2,41.5-89.1,91.4,53.4,25.6,97.9-7.9,102-48l-24.2-3.7c-4,34.5-51.9,63.4-80.3,27-27.5-35.2,9.6-95.9,52.6-71.9l39,5.2h0Z"/>
    <path d="M514.1,233.8c29-19.9-11.4-56.9-40-49.9-54.9,13.4-10.3,84.4,40,49.9h0Z"/>
    <path d="M475.3,343.6c0,21.5,21.3,22.3,30.7,12.9s7.4-19.2,4.1-22.8c-9.7-10.8-34.8-11.5-34.8,10h0Z"/>
  </g>
  <path d="M561.1,349.3c1.5-14.5-2.3-29.8-12.9-43.5l-39-5.2c22.3,12.4,29.5,29.2,27.7,44.9l24.2,3.7h0Z"/>
  <path d="M518.4,81.5c6.1,12.1,6.4,22.9,3.3,31.9l28.9,1.4c3-11.8,3.3-24.7,1-36.4l-33.2,3.2h0Z"/>
</svg>