<?xml version="1.0" encoding="UTF-8"?>
<svg id="Layer_1" xmlns="http://www.w3.org/2000/svg" version="1.1" viewBox="0 0 1200 1200">
  <!-- Generator: Adobe Illustrator 29.0.0, SVG Export Plug-In . SVG Version: 2.1.0 Build 186)  -->
  <path d="M657.7,1183.4c-45.6-.3-127.2-15.1-165.2,6.9,34.9,6.3,70.8,9.6,107.5,9.6s96.3-5.8,141.7-16.8c-28.2.3-56.2.5-84,.3Z"/>
  <path d="M449.7,1181l1.1-2c-1.7.3-3.4.6-5.1.9,1.3.4,2.7.7,4,1.1Z"/>
  <path d="M111.1,947.9l.3-4c-.9.3-1.8.5-2.7.7.8,1.1,1.5,2.2,2.3,3.3Z"/>
  <path d="M173.3,1021.8c8,8.1,16.2,16,24.7,23.6l-7.5-23.3c-6.8-1.1-12.5-1.1-17.2-.3Z"/>
  <path d="M343.2,871c-21.6,1.1-45-25.5-66.6,16.6l2.4-27.9c-44,8.8-89.8,3-134.4,4.5-26.9.9-54.4,1.7-82.2,2.5,9.7,19.6,20.5,38.6,32.3,56.9,20.8-1.1,41.6-2,61.6,2.4-.2-27.8,16.5-28.1,13.8-1.5,12.4,2.1,24.3-14.1,33.2-15.2,2.3-.3,17.5,32.1,41.9,10.5l3-27.3,17.6,32.5c68.7,1.6,142.1-13,209-14.5,35.5-.8,109.4,14.2,139.4,10.6,17.9-2.1,30.5-15.4,39.9-16.7,4.7-.6,3.4,16.5,17.4,16.4,38.6-.3,81.5-7.1,117.1-21l-4.1,18.9c9.1,5.1,84.5-12.8,103.3-12.9,76.3-.2,152.3.1,228.1.7,9.8-16.4,18.8-33.3,27-50.6-268.9-.3-537.8,1.2-799.6,15Z"/>
  <path d="M547.3,793.7c-11.6-31.3-23.4-5.1-37.2-6-69.4-4.4-165.9-12.8-233.6-2.2-21.5,3.4-13.1,15.9-18.1,20.1-15.4,12.6-22.5-13.4-33.3-17.3-20.5-7.6-87.2-1.9-105.6,7-7.1,3.4,4.5,27.3-15.6,21.2l-5.1-25.5c-47-8-5.8,37.2-44.4,34l7.9-38c-10.5,2.5-24.4.4-30.6,6,6.3,18.6,13.5,36.9,21.6,54.6,124.4-3.6,249.1-11.8,369.8-17.6,6.9-.3,16.1,11,23.6,9.9l18.4-40.1,6.8,34.6c42.6,2.5,85.9,5.2,128.5,5,183.8-.8,367.5-1.4,550.9-2.4,8.3-19.2,15.6-39,21.8-59.2-209.3,3.9-418.1,8.7-625.9,15.9Z"/>
  <path d="M333.6,941.5l-4.1,19.6c-42.2-32.9-88.3-12.3-130.4-10-18,1-37.2-14.2-60-2.9-2.5,1.2-3.3,15.1-11.5,21.6,9.4,12,19.2,23.5,29.4,34.7,27.1,0,54-1,80.4-4.7,11.9-1.7,32.3-24.8,56.2-14.2l-4.1,18.9c21.4-18.7,44.4,1.7,60.5-1.6,109.6-21.9,313.3-10.2,442.6-11.1,87.9-.6,175.5-1.1,262.9-1.6,15.1-17.6,29.2-36.1,42.3-55.4-124.9,1.1-249.9,3.5-375.7,8-123,4.4-252.5-3.6-388.4-1.6Z"/>
  <path d="M498.4,1025.9c-1.9,2.9.5,11.2,1.4,15.8l-6.8,1.3c-11.8-46.2-39.5-11.7-60.4-11.4-8.3.1-17.6-9.4-27.3-9.4-35.1,0-73.3,10.9-109.5.8v17.4c0,0-14.6-16.5-14.6-16.5-25.7,11.9-37,20.8-64.5,2.4l-16.9,20.7c13,11.6,26.5,22.7,40.5,33.2,27.8-1.6,56.7-3.5,86-5.1,8.9-.5,19,8,30.2,7.5,16.3-.8,28.5-21.8,30.1-20.8,1.9,1.1-2.3,17.8,30.9,19.5,76.1,4,159.1-4.6,234.9-5.3,105.2-1,209.4.6,313.3,0,22-16.9,42.7-35.3,62.1-55-107.6.5-215.3,1.6-323.1,3.7-26.1.5-199-9.7-206.2,1.4Z"/>
  <path d="M442.9,1115c-3.4.7-4.5-13.8-10.4-15-12.6-2.4-41.2,9.7-33.5,32.8l-6.8,1.1c-19.3-56.6-78.4-15.2-119-30.7,37,24.1,76.8,44.2,118.8,59.7,32,.1,64.4,0,97.4-.5,39.2-.6,77.2-14.8,108.1.5l3.5-19c30.6,18.6,58.8,20.3,92.4,20,45.9-.4,96.7-8.1,145.8-13.5,32.7-14.2,63.8-31.2,93.1-50.8-94.6.6-189,1.5-283.1,2.9-77.6,1.1-129.7-3.7-206.3,12.4Z"/>
</svg>