<?xml version="1.0" encoding="UTF-8"?>
<svg id="Layer_1" xmlns="http://www.w3.org/2000/svg" version="1.1" viewBox="0 0 1200 1200">
  <!-- Generator: Adobe Illustrator 29.0.0, SVG Export Plug-In . SVG Version: 2.1.0 Build 186)  -->
  <path d="M398.4,1165.3c123.4,5.8,248.8,12.3,370.4,10.6,50.8-14.9,98.9-36.3,143.1-63.3-212.2-2-424.8-5.4-636.9-8.2,38.3,24.8,79.7,45.3,123.4,60.8Z"/>
  <path d="M474.5,1186.8c40.5,8.6,82.5,13.2,125.5,13.2s74-3.4,109.5-10c-75.1-.7-149.2-1.6-222.4-2.9-4.2,0-8.4-.2-12.7-.3Z"/>
  <path d="M50,840.2c366.5,3.7,732.5,6.6,1098.1,4.3,9.3-20.9,17.5-42.4,24.4-64.4-382.2,2.4-764.2.8-1143.9,3.4,6.2,19.3,13.4,38.2,21.4,56.6Z"/>
  <path d="M58.5,858.7c8.3,17.4,17.4,34.3,27.3,50.7,329.5,6.6,655.8,18.7,986.6,19,9.8,0,19.7.1,29.6.3,13.5-20.6,25.8-42.1,36.8-64.4-4.1,0-8.3.2-12.4.3-346.9,9.3-708.3-1.1-1067.9-5.9Z"/>
  <path d="M104.6,938.6c13.3,19.4,27.6,37.9,43,55.5,301.2,2.8,600.3,5.7,899.5,6,13.7-15.3,26.7-31.4,38.8-48.1-19.9,0-39.8-.1-59.6-.3-312.4-2.7-616.4-11.7-921.7-13.1Z"/>
  <path d="M950.7,1034.5c-257.8-.7-515.7-6.2-774.3-9.7,17.4,17.4,35.9,33.6,55.3,48.8,20.9-1,41.8-2.3,62.7-3.9l10.9,17.5c31.3-24.4,70-1.2,109.7-.2,178.6,4.4,358.8-2.1,539.3-2.7,20.9-15.3,40.7-31.9,59.4-49.7-21,0-42,0-63,0Z"/>
</svg>