<?xml version="1.0" encoding="UTF-8"?>
<svg id="Layer_1" xmlns="http://www.w3.org/2000/svg" version="1.1" viewBox="0 0 1200 1200">
  <!-- Generator: Adobe Illustrator 29.0.0, SVG Export Plug-In . SVG Version: 2.1.0 Build 186)  -->
  <path d="M600,1200c21.5,0,42.8-1.1,63.7-3.3-42.8,0-85.7,0-128.5-.1,21.3,2.3,42.9,3.5,64.9,3.5Z"/>
  <path d="M512.7,1129.2c-3.1.7-29.7-9.1-58.7-9.3-52-.3-104-.8-156.1-1.4,47.5,27.7,99.1,49.1,153.8,63,102.4-.6,204.7-1.5,307-2.7,57-15.6,110.6-39.4,159.5-70-143.3-2.6-297.4-3.7-405.5,20.4Z"/>
  <path d="M1087.2,778.4c-352.6,8.2-706.4,6.3-1059.9,1,6.9,22.1,15.1,43.7,24.4,64.6,260.4,3.6,520.8,4.5,781.2,1.2,105.6-1.4,211.5-3.3,317.4-5.7,8.9-20.5,16.7-41.5,23.3-63.1-28.8.7-57.6,1.4-86.4,2Z"/>
  <path d="M230.8,867.7c-56.5-.4-113.3-2.8-169.8-4,11.2,22.9,23.8,44.9,37.8,66.1,32.7-.9,65.1-3.9,96.5-10.9,3.5-.8,2,16,15.7,16,297,0,595.2-3.8,894-10.5,12.9-20,24.6-40.8,35.1-62.3-302.1,6.8-613,7.7-909.1,5.7Z"/>
  <path d="M114.2,952.2c12.5,17.2,25.8,33.7,40,49.4,295.1,4.8,590.9,6.4,889.6,2.2,17.1-18.8,33-38.6,47.6-59.4-197.1,4.5-396.4,7.5-592.7,8-129.7.4-257.6.9-384.5-.2Z"/>
  <path d="M187.2,1035.4c19.6,18.6,40.5,35.9,62.6,51.8,231.8,2.9,464.5,3.4,697.8,1.9,24.5-17.4,47.6-36.6,69.1-57.4-276.2,4.7-552.5,6.3-829.5,3.7Z"/>
</svg>