<?xml version="1.0" encoding="UTF-8"?>
<svg id="Layer_1" xmlns="http://www.w3.org/2000/svg" version="1.1" viewBox="0 0 1200 1200">
  <!-- Generator: Adobe Illustrator 29.0.0, SVG Export Plug-In . SVG Version: 2.1.0 Build 186)  -->
  <path d="M421.7,1173c116.4,1.1,232.7,1.8,349.1,2.3,48.2-14.3,93.8-34.4,136.1-59.6-208-.8-415.7-2.7-623-5.7,42.7,26.5,88.9,47.8,137.8,63Z"/>
  <path d="M600,1200c22.8,0,45.3-1.3,67.5-3.8-47.6-.2-95.2-.5-142.8-.9,24.7,3.1,49.8,4.7,75.3,4.7Z"/>
  <path d="M25.1,772.3c6.4,21.5,14,42.4,22.7,62.8,366.7,4.4,735.2,3.2,1104.4-.2,7.8-18.3,14.7-37,20.7-56.2-382.7.6-765.4-1.7-1147.8-6.4Z"/>
  <path d="M237.7,858.7c-59.4,0-119.4-.5-179.8-1.1,10.2,21.4,21.6,42.1,34.1,62,337.5,3.7,675.8,4.1,1014.1,2.8,13.1-20.6,25-42,35.6-64.2-301.4,1-602.8,1-904,.5Z"/>
  <path d="M178.1,1026.6c22.5,22.2,46.7,42.7,72.4,61.1,229,4.2,458.6,6.6,688.3,7.5,28.8-19.7,55.8-41.9,80.7-66.3-280.8,1.2-561.1.8-841.4-2.3Z"/>
  <path d="M446.9,940.9c-112-.2-226.3-.7-341.9-1.8,14.6,21.2,30.4,41.4,47.5,60.6,295.1,4.7,590.8,7.9,886.7,9.2,19.8-21.3,38.1-44,54.7-68-215.9.5-431.6.4-647,0Z"/>
</svg>