<?xml version="1.0" encoding="UTF-8"?>
<svg id="Layer_1" xmlns="http://www.w3.org/2000/svg" version="1.1" viewBox="0 0 1200 1200">
  <!-- Generator: Adobe Illustrator 29.0.0, SVG Export Plug-In . SVG Version: 2.1.0 Build 186)  -->
  <path d="M288.1,1112.7c41.9,25.5,87.2,46.1,135,60.8,91.2.7,182.5,1.2,273.8,1.6,24.5.1,49,.2,73.6.3,49.5-14.6,96.2-35.5,139.5-61.6-207.3.8-414.6.4-621.9-1.2Z"/>
  <path d="M600,1200c27.2,0,54.1-1.8,80.3-5.3-56-.3-112-.7-168-1,28.6,4.2,57.9,6.4,87.7,6.4Z"/>
  <path d="M55.4,852.1c10.3,22.2,21.9,43.6,34.7,64.2,175.8,1.4,351.6,2.5,527.2,3.4,163.1.8,326.4,1.3,489.8,1.2,13.2-20.9,25.2-42.6,35.8-65.1-362.3,1.3-724.9-.3-1087.5-3.7Z"/>
  <path d="M662.1,1024.6c-162.9-.4-325.5-1-487.9-1.9,25.2,25.4,52.6,48.5,81.9,69,228.6,1.7,457.2,2.1,685.7,1.4,29.2-20.3,56.6-43.1,81.7-68.2-120.5,0-241,0-361.4-.4Z"/>
  <path d="M25.2,772.6c5.7,18.9,12.3,37.5,19.7,55.6,369.8,1.2,740.1.5,1109.7,1.2,7.2-17.5,13.7-35.4,19.3-53.6-382.8,2.4-765.7,1.1-1148.6-3.2Z"/>
  <path d="M102.3,935.3c16.7,24.7,35.1,48.1,55.2,70,293.3,3.8,586.8,5.6,880.3,4.9,20.6-22,39.6-45.6,56.8-70.5-331,.6-661.8-1.2-992.3-4.4Z"/>
</svg>