<?xml version="1.0" encoding="UTF-8"?>
<svg id="Layer_1" xmlns="http://www.w3.org/2000/svg" version="1.1" viewBox="0 0 1200 1200">
  <!-- Generator: Adobe Illustrator 29.0.0, SVG Export Plug-In . SVG Version: 2.1.0 Build 186)  -->
  <path d="M474.2,1186.8c83.3.4,166.6.5,250,.3,66.6-14,129.1-39.1,185.5-73.2-203.7,2.7-407.7,4.2-611.9,4.5,54,31.5,113.4,54.9,176.4,68.3Z"/>
  <path d="M60.1,862.1c11.1,22.8,23.6,44.7,37.3,65.8,334.9,3.3,670,4.1,1004.5.9,14.4-21.9,27.4-44.8,38.8-68.6-359.8,4.5-720.1,4.7-1080.7,1.9Z"/>
  <path d="M184.1,1032.4c25.6,24.6,53.4,47,83,66.8,71.4.2,142.8.4,214.2.4,151.6.1,303.2-.8,454.8-2.6,28.2-19.1,54.7-40.6,79.3-64.1-277.2,2.2-554.3,1.7-831.3-.5Z"/>
  <path d="M28.1,781.9c5.9,18.5,12.6,36.6,20.2,54.3,367.1,5.2,733.8,7.9,1100.9,5.6,9.3-21.1,17.4-42.8,24.3-65-381.5,5.8-763.4,7.3-1145.4,5Z"/>
  <path d="M110.1,946.5c17.6,24.9,37.1,48.4,58.3,70.3,289,1.3,578,.2,866.9-3.8,19.9-21,38.3-43.4,55-67-326.6,3.3-653.5,3.2-980.2.5Z"/>
</svg>