<?xml version="1.0" encoding="UTF-8"?>
<svg id="Layer_1" xmlns="http://www.w3.org/2000/svg" version="1.1" viewBox="0 0 1200 1200">
  <!-- Generator: Adobe Illustrator 29.0.0, SVG Export Plug-In . SVG Version: 2.1.0 Build 186)  -->
  <path d="M59.8,861.4c11.6,24,24.8,47.1,39.4,69.2,333.7,6.4,666.8,8.5,998.4,4.8,14.7-21.7,28-44.5,39.7-68.1-24.7.1-49.5.2-74.2.4-334,2.3-668.6-.1-1003.4-6.3Z"/>
  <path d="M295.4,1113.5c-2,0-4,0-6,0,57.1,34.6,120.5,60,188,74,83.5,0,167-.5,250.6-1.2,64.3-14,124.8-38.3,179.7-71.1-204.8.7-409.1,0-612.3-1.6Z"/>
  <path d="M187.2,1035.4c23.8,22.6,49.5,43.3,76.8,61.7,223.6,1.9,447.3,2,671,.7,26.3-17.7,51.1-37.5,74.2-59-274,2.5-548,1-822-3.5Z"/>
  <path d="M111,947.7c16.6,23.3,34.8,45.3,54.4,66,289.5,3.5,578.9,4,868.1,1.2,18.2-19,35.2-39.3,50.8-60.6-324.1,1.9-648.7-.5-973.3-6.6Z"/>
  <path d="M26.8,777.8c7,22.5,15.2,44.4,24.7,65.6,363.5,9,727.5,12.9,1092.8,9.4,10.4-22.4,19.5-45.6,27.2-69.5-381.2,3-762.8.9-1144.6-5.6Z"/>
</svg>