<?xml version="1.0" encoding="UTF-8"?>
<svg id="Layer_1" xmlns="http://www.w3.org/2000/svg" version="1.1" viewBox="0 0 1200 1200">
  <!-- Generator: Adobe Illustrator 29.0.0, SVG Export Plug-In . SVG Version: 2.1.0 Build 186)  -->
  <path d="M61.9,865.8c11.4,23,24.2,45.2,38.3,66.4,339.4,0,677.2-6.3,1012.6-20.6,12-19.7,22.9-40.2,32.6-61.3-7.6.6-14.7,1.2-20.9,1.6-351.9,25.8-706.9,19.3-1062.6,13.8Z"/>
  <path d="M600,1200c49.9,0,98.3-6.1,144.6-17.6-85.6,2.6-171.2,5-256.8,7.1,36.3,6.9,73.8,10.5,112.2,10.5Z"/>
  <path d="M483.8,783c-151.9.3-303.9-.3-455.9-1.7,7.5,23.7,16.5,46.8,26.8,69.2,88.3.4,176.7.4,265.2-.1,271.4-1.6,550.7-5.4,830.9-12,7.5-17.4,14.3-35.2,20.2-53.5-222.2,9.9-465-2.4-687.2-1.9Z"/>
  <path d="M287.3,1112.2c42.3,25.9,88.1,46.7,136.5,61.5,106.9-1.3,213.4-2.9,319.6-4.8,13.4-.2,27.8.8,41.9,2,49.1-15.9,95.3-38,137.9-65.3-211.4,4.5-423.6,6.6-636,6.6Z"/>
  <path d="M878.2,940.9c-12.3.5-28,21.1-54-1l-6.6,17.3-8.4-18.2-179.1,12.2c-171.8,1.8-343.8,2-515.9,1.1,15,20.7,31.3,40.3,48.8,58.9,250-.1,499.8-2.8,749.3-8.4,44.7-1,89.6-1.6,134.5-2.1,18.2-20.2,35-41.7,50.3-64.3-28.5,2.4-57.1,4.8-86.7,5.9-43.7,1.6-88.6-3-132.2-1.3Z"/>
  <path d="M739.8,1021.1c-14.5,1.9-8.9,20.7-13.5,19.5-22-30-45.2-10.4-66.2-11-158.2-4.5-316.9.8-475.4,3.5,23.5,22.5,48.8,43.1,75.7,61.6,174.6.4,349.2.1,523.9-.9,53.5-.3,107.3-1.5,161.2-3.2,29.3-20.7,56.7-43.9,81.8-69.4-40,1.4-80.1,2.6-120.1,3.8-50.6,1.4-120.4-10-167.4-3.9Z"/>
</svg>